<svg width="24" height="24" viewBox="0 0 24 24" fill="none" xmlns="http://www.w3.org/2000/svg">
<path d="M20.5 5.25H18.75V3.5C18.75 3.09 18.41 2.75 18 2.75C17.59 2.75 17.25 3.09 17.25 3.5V5.25H15.5C15.09 5.25 14.75 5.59 14.75 6C14.75 6.41 15.09 6.75 15.5 6.75H17.25V8.5C17.25 8.91 17.59 9.25 18 9.25C18.41 9.25 18.75 8.91 18.75 8.5V6.75H20.5C20.91 6.75 21.25 6.41 21.25 6C21.25 5.59 20.91 5.25 20.5 5.25Z" fill="#1C252E"/>
<path d="M21.9856 18.33C21.9856 18.69 21.9056 19.06 21.7356 19.42C21.5656 19.78 21.3456 20.12 21.0556 20.44C20.5656 20.98 20.0256 21.37 19.4156 21.62C18.8156 21.87 18.1656 22 17.4656 22C16.4456 22 15.3556 21.76 14.2056 21.27C13.0556 20.78 11.9056 20.12 10.7656 19.29C9.61562 18.45 8.52562 17.52 7.48562 16.49C6.45562 15.45 5.52562 14.36 4.69562 13.22C3.87562 12.08 3.21563 10.94 2.73563 9.81C2.25563 8.67 2.01562 7.58 2.01562 6.54C2.01562 5.86 2.13562 5.21 2.37562 4.61C2.61562 4 2.99563 3.44 3.52562 2.94C4.16563 2.31 4.86563 2 5.60563 2C5.88563 2 6.16563 2.06 6.41563 2.18C6.67562 2.3 6.90563 2.48 7.08563 2.74L9.40563 6.01C9.58563 6.26 9.71562 6.49 9.80562 6.71C9.89563 6.92 9.94563 7.13 9.94563 7.32C9.94563 7.56 9.87563 7.8 9.73563 8.03C9.60563 8.26 9.41562 8.5 9.17562 8.74L8.41562 9.53C8.30562 9.64 8.25562 9.77 8.25562 9.93C8.25562 10.01 8.26563 10.08 8.28563 10.16C8.31563 10.24 8.34563 10.3 8.36563 10.36C8.54563 10.69 8.85562 11.12 9.29562 11.64C9.74562 12.16 10.2256 12.69 10.7456 13.22C11.2856 13.75 11.8056 14.24 12.3356 14.69C12.8556 15.13 13.2856 15.43 13.6256 15.61C13.6756 15.63 13.7356 15.66 13.8056 15.69C13.8856 15.72 13.9656 15.73 14.0556 15.73C14.2256 15.73 14.3556 15.67 14.4656 15.56L15.2256 14.81C15.4756 14.56 15.7156 14.37 15.9456 14.25C16.1756 14.11 16.4056 14.04 16.6556 14.04C16.8456 14.04 17.0456 14.08 17.2656 14.17C17.4856 14.26 17.7156 14.39 17.9656 14.56L21.2756 16.91C21.5356 17.09 21.7156 17.3 21.8256 17.55C21.9256 17.8 21.9856 18.05 21.9856 18.33Z" fill="#1C252E"/>
</svg>
