<svg width="24" height="24" viewBox="0 0 24 24" fill="none" xmlns="http://www.w3.org/2000/svg">
<path d="M22 11V17C22 21 21 22 17 22H7C3 22 2 21 2 17V7C2 3 3 2 7 2H8.5C10 2 10.33 2.44 10.9 3.2L12.4 5.2C12.78 5.7 13 6 14 6H17C21 6 22 7 22 11Z" stroke="#1C252E" stroke-width="1.5" stroke-miterlimit="10"/>
<path opacity="0.4" d="M11.7727 17C11.716 17 11.6622 16.9737 11.6258 16.9282C11.0746 16.2394 10.5165 15.7212 10.0242 15.2641C9.17261 14.4735 8.5 13.849 8.5 12.8751C8.5 12.3738 8.66967 11.9064 8.97775 11.559C9.29741 11.1985 9.74066 11 10.2259 11C10.7666 11 11.2389 11.2695 11.5918 11.7794C11.6637 11.8834 11.7236 11.9873 11.7727 12.0833C11.8218 11.9873 11.8817 11.8834 11.9537 11.7794C12.3066 11.2695 12.7789 11 13.3196 11C13.8048 11 14.248 11.1985 14.5677 11.559C14.8758 11.9064 15.0455 12.3738 15.0455 12.8751C15.0455 13.849 14.3728 14.4735 13.5213 15.2641C13.0289 15.7212 12.4709 16.2394 11.9197 16.9282C11.8832 16.9737 11.8295 17 11.7727 17Z" stroke="#1C252E" stroke-width="1.5"/>
</svg>
