<svg width="24" height="24" viewBox="0 0 24 24" fill="none" xmlns="http://www.w3.org/2000/svg">
<path d="M9 22H7C3 22 2 21 2 17V7C2 3 3 2 7 2H8.5C10 2 10.33 2.44001 10.9 3.20001L12.4 5.20001C12.78 5.70001 13 6 14 6H17C21 6 22 7 22 11V13" stroke="#1C252E" stroke-width="1.5" stroke-miterlimit="10" stroke-linecap="round" stroke-linejoin="round"/>
<path opacity="0.4" d="M13.7605 18.32C11.4105 18.49 11.4105 21.89 13.7605 22.06H19.3205C19.9905 22.06 20.6506 21.81 21.1406 21.36C22.7906 19.92 21.9105 17.04 19.7405 16.77C18.9605 12.08 12.1806 13.86 13.7806 18.33" stroke="#1C252E" stroke-width="1.5" stroke-miterlimit="10" stroke-linecap="round" stroke-linejoin="round"/>
</svg>
