<svg width="24" height="24" viewBox="0 0 24 24" fill="none" xmlns="http://www.w3.org/2000/svg">
<path d="M2 7.96997V12.97C2 17.97 4 18.97 8 18.97H8.5C8.78 18.97 9.13999 19.15 9.29999 19.37L10.8 21.37C11.46 22.25 12.54 22.25 13.2 21.37L14.7 19.37C14.89 19.12 15.19 18.97 15.5 18.97H16C20 18.97 22 16.97 22 12.97V7.96997C22 3.96997 20 1.96997 16 1.96997H8" stroke="#1C252E" stroke-width="1.5" stroke-miterlimit="10" stroke-linecap="round" stroke-linejoin="round"/>
<path d="M8 8.69995L6 10.7L8 12.7" stroke="#1C252E" stroke-width="1.5" stroke-miterlimit="10" stroke-linecap="round" stroke-linejoin="round"/>
<path d="M16 8.69995L18 10.7L16 12.7" stroke="#1C252E" stroke-width="1.5" stroke-miterlimit="10" stroke-linecap="round" stroke-linejoin="round"/>
<path d="M13 8.37L11 13.03" stroke="#1C252E" stroke-width="1.5" stroke-miterlimit="10" stroke-linecap="round" stroke-linejoin="round"/>
</svg>
