<svg width="24" height="24" viewBox="0 0 24 24" fill="none" xmlns="http://www.w3.org/2000/svg">
<path d="M8.99953 13C8.33953 13.33 7.78953 13.82 7.37953 14.43C7.14953 14.78 7.14953 15.22 7.37953 15.57C7.78953 16.18 8.33953 16.67 8.99953 17" stroke="#1C252E" stroke-width="1.5" stroke-linecap="round" stroke-linejoin="round"/>
<path d="M15.21 13C15.87 13.33 16.42 13.82 16.83 14.43C17.06 14.78 17.06 15.22 16.83 15.57C16.42 16.18 15.87 16.67 15.21 17" stroke="#1C252E" stroke-width="1.5" stroke-linecap="round" stroke-linejoin="round"/>
<path d="M2 9C2 4 4 2 9 2H15C20 2 22 4 22 9V15C22 20 20 22 15 22H9C4 22 2 20 2 15" stroke="#1C252E" stroke-width="1.5" stroke-linecap="round" stroke-linejoin="round"/>
<path d="M2.23047 8.01L21.4505 8" stroke="#1C252E" stroke-width="1.5" stroke-linecap="round" stroke-linejoin="round"/>
</svg>
