<svg width="24" height="24" viewBox="0 0 24 24" fill="none" xmlns="http://www.w3.org/2000/svg">
<path d="M6.88965 9C7.86965 9.49 8.70965 10.23 9.31965 11.15C9.66965 11.67 9.66965 12.34 9.31965 12.86C8.70965 13.77 7.86965 14.51 6.88965 15" stroke="#1C252E" stroke-width="1.5" stroke-linecap="round" stroke-linejoin="round"/>
<path d="M13 15H17" stroke="#1C252E" stroke-width="1.5" stroke-linecap="round" stroke-linejoin="round"/>
<path d="M7 2.13082C7.60488 2.04257 8.27051 2 9 2H15C20 2 22 4 22 9V15C22 20 20 22 15 22H9C4 22 2 20 2 15V9C2 8.27051 2.04257 7.60488 2.13082 7" stroke="#1C252E" stroke-width="1.5" stroke-linecap="round" stroke-linejoin="round"/>
</svg>
