<svg width="24" height="24" viewBox="0 0 24 24" fill="none" xmlns="http://www.w3.org/2000/svg">
<path d="M5 15V8" stroke="#1C252E" stroke-width="1.5" stroke-linecap="round" stroke-linejoin="round"/>
<path d="M5.25 22C7.04493 22 8.5 20.5449 8.5 18.75C8.5 16.9551 7.04493 15.5 5.25 15.5C3.45507 15.5 2 16.9551 2 18.75C2 20.5449 3.45507 22 5.25 22Z" stroke="#1C252E" stroke-width="1.5" stroke-linecap="round" stroke-linejoin="round"/>
<path d="M1.75 5C1.75 6.79493 3.20507 8.25 5 8.25C6.79493 8.25 8.25 6.79493 8.25 5C8.25 3.20507 6.79493 1.75 5 1.75" stroke="#1C252E" stroke-width="1.5" stroke-linecap="round" stroke-linejoin="round"/>
<path d="M19 8C20.6569 8 22 6.65685 22 5C22 3.34315 20.6569 2 19 2C17.3431 2 16 3.34315 16 5C16 6.65685 17.3431 8 19 8Z" stroke="#1C252E" stroke-width="1.5" stroke-linecap="round" stroke-linejoin="round"/>
<path d="M5.12988 15C5.57988 13.25 7.17988 11.95 9.06988 11.96L12.4999 11.97C13.1243 11.9724 13.7265 11.8788 14.2928 11.7031" stroke="#1C252E" stroke-width="1.5" stroke-linecap="round" stroke-linejoin="round"/>
</svg>
