<svg width="24" height="24" viewBox="0 0 24 24" fill="none" xmlns="http://www.w3.org/2000/svg">
<path opacity="0.4" d="M12 1.5C16.4171 1.50008 19.998 5.35328 19.998 10.1064C19.998 12.9728 17.0894 17.2507 14.7803 20.1953C13.5756 21.7315 12.9729 22.4999 12 22.5C11.027 22.5 10.4245 21.7316 9.21973 20.1953C6.9106 17.2507 4.00195 12.9728 4.00195 10.1064C4.00196 5.35324 7.58288 1.5 12 1.5Z" fill="#1C252E"/>
<path d="M12.002 6.21191C11.5878 6.21191 11.2521 6.54781 11.252 6.96191V9.12891H9.08398C8.66985 9.12891 8.33412 9.4648 8.33398 9.87891C8.33417 10.293 8.66988 10.6289 9.08398 10.6289H11.252V12.7949C11.252 13.2091 11.5877 13.5449 12.002 13.5449C12.4162 13.5449 12.752 13.2091 12.752 12.7949V10.6289H14.917C15.3311 10.6289 15.6668 10.293 15.667 9.87891C15.6669 9.4648 15.3311 9.12891 14.917 9.12891H12.752V6.96191C12.7518 6.54781 12.4161 6.21191 12.002 6.21191Z" fill="#1C252E"/>
</svg>
