<svg width="24" height="24" viewBox="0 0 24 24" fill="none" xmlns="http://www.w3.org/2000/svg">
<path opacity="0.4" d="M15.6004 7.69002L7.32045 11.42C6.39045 11.84 5.45045 10.84 5.93045 9.94002L8.97045 4.17002C10.2604 1.72002 13.7604 1.72002 15.0504 4.17002L16.1204 6.21002C16.4004 6.76002 16.1604 7.44002 15.6004 7.69002Z" fill="#1C252E"/>
<path d="M17.0192 21.2899L13.5392 19.5499C12.5692 19.0699 11.4392 19.0699 10.4692 19.5499L6.98918 21.2899C3.99918 22.7799 0.84918 19.5699 2.40918 16.6199L3.22918 15.0799C3.33918 14.8699 3.51918 14.6999 3.73918 14.5999L16.3792 8.89993C16.8992 8.66993 17.5092 8.87993 17.7692 9.37993L21.5792 16.6199C23.1392 19.5699 19.9992 22.7799 17.0192 21.2899Z" fill="#1C252E"/>
</svg>
