<svg width="24" height="24" viewBox="0 0 24 24" fill="none" xmlns="http://www.w3.org/2000/svg">
<path d="M22 11.25H19.96V12.75H22C22.41 12.75 22.75 12.41 22.75 12C22.75 11.59 22.41 11.25 22 11.25Z" fill="#1C252E"/>
<path d="M12.75 4.04V2C12.75 1.59 12.41 1.25 12 1.25C11.59 1.25 11.25 1.59 11.25 2V4.04H12.75Z" fill="#1C252E"/>
<path d="M4.04 11.25H2C1.59 11.25 1.25 11.59 1.25 12C1.25 12.41 1.59 12.75 2 12.75H4.04V11.25Z" fill="#1C252E"/>
<path d="M11.25 19.96V22C11.25 22.41 11.59 22.75 12 22.75C12.41 22.75 12.75 22.41 12.75 22V19.96H11.25Z" fill="#1C252E"/>
<path opacity="0.4" d="M12.75 4.04004C16.56 4.39004 19.6 7.44004 19.96 11.25V12.75C19.61 16.56 16.56 19.6 12.75 19.96H11.25C7.44004 19.61 4.40004 16.56 4.04004 12.75V11.25C4.39004 7.44004 7.44004 4.40004 11.25 4.04004H12.75Z" fill="#1C252E"/>
<path d="M11.9999 15.12C10.2799 15.12 8.87988 13.72 8.87988 12C8.87988 10.28 10.2799 8.88 11.9999 8.88C13.7199 8.88 15.1199 10.28 15.1199 12C15.1199 13.72 13.7199 15.12 11.9999 15.12Z" fill="#1C252E"/>
</svg>
