<svg width="24" height="24" viewBox="0 0 24 24" fill="none" xmlns="http://www.w3.org/2000/svg">
<path opacity="0.4" fill-rule="evenodd" clip-rule="evenodd" d="M6.89691 9.61957C7.77659 8.49781 8.88467 6.86807 8.88467 5.77608C8.88467 3.96534 7.52056 2.49744 5.83784 2.49744C4.15513 2.49744 2.79102 3.96534 2.79102 5.77608C2.79102 6.86807 3.89909 8.49781 4.77877 9.61957C5.23771 10.2048 5.46718 10.4974 5.83784 10.4974C6.2085 10.4974 6.43797 10.2048 6.89691 9.61957Z" fill="#1C252E"/>
<path fill-rule="evenodd" clip-rule="evenodd" d="M5.83787 7.06771C5.20685 7.06771 4.69531 6.55617 4.69531 5.92515C4.69531 5.29413 5.20685 4.78259 5.83787 4.78259C6.46889 4.78259 6.98043 5.29413 6.98043 5.92515C6.98043 6.55617 6.46889 7.06771 5.83787 7.06771Z" fill="#1C252E"/>
<path d="M11.9995 19.75H9.31945C8.15945 19.75 7.14945 19.05 6.74945 17.97C6.33945 16.89 6.63945 15.7 7.50945 14.93L15.4995 7.94C15.9795 7.52 15.9895 6.95 15.8495 6.56C15.6995 6.17 15.3195 5.75 14.6795 5.75H11.9995C11.5895 5.75 11.2495 5.41 11.2495 5C11.2495 4.59 11.5895 4.25 11.9995 4.25H14.6795C15.8395 4.25 16.8495 4.95 17.2495 6.03C17.6595 7.11 17.3595 8.3 16.4895 9.07L8.49945 16.06C8.01945 16.48 8.00945 17.05 8.14945 17.44C8.29945 17.83 8.67945 18.25 9.31945 18.25H11.9995C12.4095 18.25 12.7495 18.59 12.7495 19C12.7495 19.41 12.4095 19.75 11.9995 19.75Z" fill="#1C252E"/>
<path opacity="0.4" fill-rule="evenodd" clip-rule="evenodd" d="M19.9125 20.6215C20.7922 19.4998 21.9003 17.87 21.9003 16.778C21.9003 14.9673 20.5362 13.4994 18.8535 13.4994C17.1708 13.4994 15.8066 14.9673 15.8066 16.778C15.8066 17.87 16.9147 19.4998 17.7944 20.6215C18.2533 21.2068 18.4828 21.4994 18.8535 21.4994C19.2241 21.4994 19.4536 21.2068 19.9125 20.6215Z" fill="#1C252E"/>
<path fill-rule="evenodd" clip-rule="evenodd" d="M18.8535 18.0697C18.2225 18.0697 17.7109 17.5581 17.7109 16.9271C17.7109 16.2961 18.2225 15.7845 18.8535 15.7845C19.4845 15.7845 19.9961 16.2961 19.9961 16.9271C19.9961 17.5581 19.4845 18.0697 18.8535 18.0697Z" fill="#1C252E"/>
</svg>
