<svg width="24" height="24" viewBox="0 0 24 24" fill="none" xmlns="http://www.w3.org/2000/svg">
<path d="M17.0192 2.71996L13.5392 4.45996C12.5692 4.93996 11.4392 4.93996 10.4692 4.45996L6.97924 2.70996C3.99924 1.21996 0.849241 4.43996 2.40924 7.38996L3.22924 8.92996C3.33924 9.13996 3.51924 9.30996 3.73924 9.40996L16.3892 15.1C16.9092 15.33 17.5192 15.12 17.7792 14.62L21.5892 7.37996C23.1392 4.43996 19.9992 1.21996 17.0192 2.71996Z" fill="#1C252E"/>
<path opacity="0.4" d="M15.6004 16.31L7.32045 12.58C6.39045 12.16 5.45045 13.16 5.93045 14.06L8.97045 19.83C10.2604 22.28 13.7604 22.28 15.0504 19.83L16.1204 17.79C16.4004 17.24 16.1604 16.57 15.6004 16.31Z" fill="#1C252E"/>
</svg>
