<svg width="24" height="24" viewBox="0 0 24 24" fill="none" xmlns="http://www.w3.org/2000/svg">
<path d="M2.70911 17.02L4.44911 13.54C4.92911 12.57 4.92911 11.44 4.44911 10.47L2.70911 6.97997C1.21911 3.99997 4.42911 0.849974 7.37911 2.40997L8.91911 3.22997C9.13911 3.33997 9.30911 3.51997 9.39911 3.73997L15.0891 16.39C15.3191 16.91 15.1091 17.52 14.6091 17.78L7.36911 21.59C4.42911 23.15 1.21911 20 2.70911 17.02Z" fill="#1C252E"/>
<path opacity="0.4" d="M16.3093 15.6L12.5793 7.31996C12.1593 6.38996 13.1593 5.44996 14.0593 5.92996L19.8293 8.96996C22.2793 10.26 22.2793 13.76 19.8293 15.05L17.7893 16.12C17.2393 16.4 16.5693 16.17 16.3093 15.6Z" fill="#1C252E"/>
</svg>
