<svg width="24" height="24" viewBox="0 0 24 24" fill="none" xmlns="http://www.w3.org/2000/svg">
<path opacity="0.4" d="M19.8796 20.9401C18.9296 21.6401 17.6796 22.0001 16.1896 22.0001H7.8096C7.5696 22.0001 7.32961 21.9901 7.09961 21.9601L13.9996 15.0601L19.8796 20.9401Z" fill="#1C252E"/>
<path opacity="0.4" d="M22.0005 7.8101V16.1901C22.0005 17.6801 21.6406 18.9301 20.9406 19.8801L15.0605 14.0001L21.9605 7.1001C21.9905 7.3301 22.0005 7.5701 22.0005 7.8101Z" fill="#1C252E"/>
<path opacity="0.4" d="M15.06 14L20.94 19.88C20.65 20.3 20.3 20.65 19.88 20.94L14 15.06L7.10001 21.96C6.46001 21.92 5.88001 21.79 5.35001 21.59C3.21001 20.81 2 18.91 2 16.19V7.81C2 4.17 4.17 2 7.81 2H16.19C18.91 2 20.81 3.21 21.59 5.35C21.79 5.88 21.92 6.46 21.96 7.1L15.06 14Z" fill="#1C252E"/>
<path d="M15.0596 14.0001L20.9396 19.8801C20.6496 20.3001 20.2996 20.6501 19.8796 20.9401L13.9996 15.0601L7.09961 21.9601C6.45961 21.9201 5.87961 21.7901 5.34961 21.5901L5.73959 21.2001L21.5896 5.3501C21.7896 5.8801 21.9196 6.4601 21.9596 7.1001L15.0596 14.0001Z" fill="#1C252E"/>
<path fill-rule="evenodd" clip-rule="evenodd" d="M10.226 12.2922C11.1057 11.1704 12.2138 9.54068 12.2138 8.44869C12.2138 6.63794 10.8497 5.17004 9.16694 5.17004C7.48423 5.17004 6.12012 6.63794 6.12012 8.44869C6.12012 9.54068 7.22819 11.1704 8.10787 12.2922C8.56681 12.8774 8.79628 13.17 9.16694 13.17C9.5376 13.17 9.76707 12.8774 10.226 12.2922ZM9.16694 9.74028C8.53592 9.74028 8.02438 9.22874 8.02438 8.59772C8.02438 7.9667 8.53592 7.45516 9.16694 7.45516C9.79796 7.45516 10.3095 7.9667 10.3095 8.59772C10.3095 9.22874 9.79796 9.74028 9.16694 9.74028Z" fill="#1C252E"/>
</svg>
