<svg width="24" height="24" viewBox="0 0 24 24" fill="none" xmlns="http://www.w3.org/2000/svg">
<path opacity="0.4" d="M16.19 2H7.81C4.17 2 2 4.17 2 7.81V16.18C2 19.83 4.17 22 7.81 22H16.18C19.82 22 21.99 19.83 21.99 16.19V7.81C22 4.17 19.83 2 16.19 2Z" fill="#1C252E"/>
<path d="M17.3501 9.05003L15.0101 16.59C14.4501 18.38 11.9401 18.41 11.3501 16.63L10.6501 14.56C10.4601 13.99 10.0101 13.53 9.44009 13.35L7.36009 12.65C5.60009 12.06 5.62009 9.53003 7.41009 8.99003L14.9501 6.64003C16.4301 6.19003 17.8201 7.58003 17.3501 9.05003Z" fill="#1C252E"/>
</svg>
