<svg width="24" height="24" viewBox="0 0 24 24" fill="none" xmlns="http://www.w3.org/2000/svg">
<path opacity="0.4" d="M16.19 2H7.81C4.17 2 2 4.17 2 7.81V16.18C2 19.83 4.17 22 7.81 22H16.18C19.82 22 21.99 19.83 21.99 16.19V7.81C22 4.17 19.83 2 16.19 2Z" fill="#1C252E"/>
<path d="M19.3503 8.83994C19.3103 8.92994 19.2603 9.00994 19.1903 9.07994L17.3903 10.8799C17.2403 11.0299 17.0503 11.0999 16.8603 11.0999C16.6703 11.0999 16.4803 11.0299 16.3303 10.8799C16.0403 10.5899 16.0403 10.1099 16.3303 9.81994L16.8503 9.29994H16.7003C14.6003 9.29994 12.8803 11.0099 12.8803 13.1099V15.0699V17.2399C12.8803 17.6499 12.5403 17.9899 12.1303 17.9899C11.7203 17.9899 11.3803 17.6499 11.3803 17.2399V15.0699V13.1099C11.3803 11.0099 9.67027 9.29994 7.57027 9.29994H7.15027L7.67027 9.81994C7.96027 10.1099 7.96027 10.5899 7.67027 10.8799C7.52027 11.0299 7.33027 11.0999 7.14027 11.0999C6.95027 11.0999 6.76027 11.0299 6.61027 10.8799L4.81027 9.07994C4.52027 8.78994 4.52027 8.30994 4.81027 8.01994L6.61027 6.21994C6.90027 5.92994 7.38027 5.92994 7.67027 6.21994C7.96027 6.50994 7.96027 6.98994 7.67027 7.27994L7.15027 7.79994H7.58027C9.53027 7.79994 11.2203 8.86994 12.1403 10.4399C13.0603 8.86994 14.7503 7.79994 16.7103 7.79994H16.8603L16.3403 7.27994C16.0503 6.98994 16.0503 6.50994 16.3403 6.21994C16.6303 5.92994 17.1103 5.92994 17.4003 6.21994L19.2003 8.01994C19.2703 8.08994 19.3203 8.16994 19.3603 8.25994C19.4303 8.44994 19.4303 8.65994 19.3503 8.83994Z" fill="#1C252E"/>
</svg>
