<svg width="24" height="24" viewBox="0 0 24 24" fill="none" xmlns="http://www.w3.org/2000/svg">
<path opacity="0.4" fill-rule="evenodd" clip-rule="evenodd" d="M14.7799 20.1956C17.0891 17.251 19.9978 12.9729 19.9978 10.1065C19.9978 5.35324 16.417 1.5 11.9999 1.5C7.58274 1.5 4.00195 5.35324 4.00195 10.1065C4.00195 12.9729 6.91065 17.251 9.2198 20.1956C10.4245 21.7319 11.0269 22.5 11.9999 22.5C12.9728 22.5 13.5752 21.7319 14.7799 20.1956Z" fill="#1C252E"/>
<path fill-rule="evenodd" clip-rule="evenodd" d="M11.9992 13.4969C10.3428 13.4969 9 12.1541 9 10.4977C9 8.84124 10.3428 7.49844 11.9992 7.49844C13.6556 7.49844 14.9984 8.84124 14.9984 10.4977C14.9984 12.1541 13.6556 13.4969 11.9992 13.4969Z" fill="#1C252E"/>
</svg>
