<svg width="24" height="24" viewBox="0 0 24 24" fill="none" xmlns="http://www.w3.org/2000/svg">
<path opacity="0.4" d="M12 1.5C16.4171 1.50008 19.998 5.35328 19.998 10.1064C19.998 12.9728 17.0894 17.2507 14.7803 20.1953C13.5756 21.7315 12.9729 22.4999 12 22.5C11.027 22.5 10.4245 21.7316 9.21973 20.1953C6.9106 17.2507 4.00195 12.9728 4.00195 10.1064C4.00196 5.35324 7.58288 1.5 12 1.5Z" fill="#1C252E"/>
<path d="M10.5693 7.46973C10.2764 7.17684 9.80162 7.17684 9.50873 7.46973C9.21584 7.76262 9.21584 8.23738 9.50873 8.53028L10.9589 9.98047L9.46967 11.4697C9.17678 11.7626 9.17678 12.2374 9.46967 12.5303C9.76256 12.8232 10.2373 12.8232 10.5302 12.5303L12.0195 11.041L13.4687 12.4902C13.7616 12.7831 14.2363 12.7831 14.5292 12.4902C14.8221 12.1973 14.8221 11.7226 14.5292 11.4297L13.08 9.98047L14.4902 8.57032C14.7831 8.27742 14.7831 7.80266 14.4902 7.50977C14.1973 7.21688 13.7225 7.21688 13.4296 7.50977L12.0195 8.91993L10.5693 7.46973Z" fill="#1C252E"/>
</svg>
