<svg width="24" height="24" viewBox="0 0 24 24" fill="none" xmlns="http://www.w3.org/2000/svg">
<path d="M16 2C19.5 2 21 4 21 7V17C21 20 19.5 22 16 22H8C4.5 22 3 20 3 17V7C3 4 4.5 2 8 2H16ZM11.7861 12.9443C11.3062 12.9443 10.8864 13.1833 10.5732 13.6357C10.5094 13.728 10.4566 13.821 10.4131 13.9062C10.3695 13.821 10.3158 13.728 10.252 13.6357C9.93883 13.1835 9.51973 12.9444 9.04004 12.9443C8.60936 12.9443 8.21538 13.1205 7.93164 13.4404C7.6583 13.7487 7.50791 14.1636 7.50781 14.6084C7.50781 15.4728 8.10453 16.0278 8.86035 16.7295L8.86621 16.7344C9.30178 17.1388 9.79517 17.5974 10.2822 18.2061C10.3146 18.2465 10.3627 18.2705 10.4131 18.2705C10.4633 18.2704 10.5107 18.2464 10.543 18.2061C11.0299 17.5976 11.5235 17.1397 11.959 16.7354L11.9648 16.7295C12.7207 16.0277 13.3174 15.4728 13.3174 14.6084C13.3173 14.1635 13.1669 13.7487 12.8936 13.4404C12.6099 13.1206 12.2166 12.9444 11.7861 12.9443ZM14.5 3.75C14.09 3.75 13.75 4.09 13.75 4.5V6.5C13.75 8.02 14.98 9.25 16.5 9.25H18.5C18.91 9.25 19.25 8.91 19.25 8.5C19.25 8.09 18.91 7.75 18.5 7.75H16.5C15.81 7.75 15.25 7.19 15.25 6.5V4.5C15.25 4.09 14.91 3.75 14.5 3.75Z" fill="#1C252E"/>
</svg>
