<svg width="24" height="24" viewBox="0 0 24 24" fill="none" xmlns="http://www.w3.org/2000/svg">
<path d="M12.3096 2C12.8596 2 13.3096 2.45 13.3096 3V5.88965C13.3096 8.25965 15.2404 10.1904 17.6104 10.1904H20.5C21.05 10.1904 21.5 10.6404 21.5 11.1904V16.4297C21.5 19.9997 19.0097 22 15.9297 22H8.07031C4.99031 22 2.5 19.9997 2.5 16.4297V7.57031C2.5 4.00031 4.99031 2 8.07031 2H12.3096ZM10.7861 12.9443C10.3062 12.9443 9.88645 13.1833 9.57324 13.6357C9.50937 13.728 9.45665 13.821 9.41309 13.9062C9.36951 13.821 9.31583 13.728 9.25195 13.6357C8.93883 13.1835 8.51973 12.9444 8.04004 12.9443C7.60936 12.9443 7.21538 13.1205 6.93164 13.4404C6.6583 13.7487 6.50791 14.1636 6.50781 14.6084C6.50781 15.4728 7.10453 16.0278 7.86035 16.7295C8.29731 17.1352 8.79305 17.5948 9.28223 18.2061C9.31457 18.2465 9.36274 18.2705 9.41309 18.2705C9.46334 18.2704 9.51069 18.2464 9.54297 18.2061C10.0322 17.5947 10.5278 17.1352 10.9648 16.7295C11.7207 16.0277 12.3174 15.4728 12.3174 14.6084C12.3173 14.1635 12.1669 13.7487 11.8936 13.4404C11.6099 13.1206 11.2166 12.9444 10.7861 12.9443Z" fill="#1C252E"/>
<path d="M17.4297 8.80999C18.3797 8.81999 19.6997 8.81999 20.8297 8.81999C21.3997 8.81999 21.6997 8.14999 21.2997 7.74999C19.8597 6.29999 17.2797 3.68999 15.7997 2.20999C15.3897 1.79999 14.6797 2.07999 14.6797 2.64999V6.13999C14.6797 7.59999 15.9197 8.80999 17.4297 8.80999Z" fill="#1C252E"/>
</svg>
