<svg width="24" height="24" viewBox="0 0 24 24" fill="none" xmlns="http://www.w3.org/2000/svg">
<path d="M4.26895 6.07615C5.34899 5.39447 6.62843 5 8 5H16C19.866 5 23 8.13401 23 12C23 15.866 19.866 19 16 19H8C4.13401 19 1 15.866 1 12C1 11.305 1.10128 10.6337 1.28988 10" stroke="#1C252E" stroke-width="1.5" stroke-linecap="round"/>
<path d="M12.5 12C12.5 9.51472 10.4853 7.5 8 7.5C5.51472 7.5 3.5 9.51472 3.5 12C3.5 14.4853 5.51472 16.5 8 16.5C8.34369 16.5 8.67839 16.4615 9 16.3885" stroke="#1C252E" stroke-width="1.5" stroke-linecap="round"/>
</svg>
