<svg width="24" height="24" viewBox="0 0 24 24" fill="none" xmlns="http://www.w3.org/2000/svg">
<path d="M3.02037 8C3.09398 6.93655 3.43355 6.70734 5 5.64999L10.5 2.46999C11.33 1.98999 12.68 1.98999 13.5 2.46999L19 5.64999C21 6.99999 21 6.99998 21 9.10998V14.89C21 17 21 17 19 18.35L13.5 21.53C12.68 22.01 11.33 22.01 10.5 21.53L5 18.35C3 17 3 17 3 14.88V13" stroke="#1C252E" stroke-width="1.5" stroke-linecap="round" stroke-linejoin="round"/>
<path d="M15 12C15 10.3431 13.6569 9 12 9C10.3431 9 9 10.3431 9 12C9 13.6569 10.3431 15 12 15" stroke="#1C252E" stroke-width="1.5" stroke-linecap="round" stroke-linejoin="round"/>
</svg>
