<svg width="24" height="24" viewBox="0 0 24 24" fill="none" xmlns="http://www.w3.org/2000/svg">
<path fill-rule="evenodd" clip-rule="evenodd" d="M9.40481 1.5C8.10167 1.5 7.04526 2.55641 7.04526 3.85955V4.02809C7.04526 4.45627 6.69815 4.80337 6.26998 4.80337C3.83124 4.80337 1.85425 6.78036 1.85425 9.2191V13.5709C1.85424 15.0842 1.85424 16.2705 1.94435 17.2183C2.0362 18.1843 2.22665 18.9753 2.65397 19.6727C2.78271 19.8827 2.92522 20.0832 3.08033 20.2728L2.06158 21.2916C1.78514 21.568 1.78514 22.0162 2.06158 22.2927C2.33802 22.5691 2.78621 22.5691 3.06265 22.2927L21.9391 3.41627C22.2155 3.13983 22.2155 2.69163 21.9391 2.41519C21.6626 2.13876 21.2144 2.13876 20.938 2.41519L18.4855 4.86764C18.2402 4.82539 17.988 4.80337 17.7307 4.80337C17.3025 4.80337 16.9554 4.45627 16.9554 4.02809V3.85955C16.9554 2.55641 15.899 1.5 14.5958 1.5H9.40481ZM14.1992 9.15401C13.5495 8.78767 12.7993 8.57865 12.0003 8.57865C9.52434 8.57865 7.51717 10.5858 7.51717 13.0618C7.51717 13.8608 7.72619 14.611 8.09253 15.2606L9.15163 14.2015C9.01052 13.8492 8.9329 13.4646 8.9329 13.0618C8.9329 11.3677 10.3062 9.99438 12.0003 9.99438C12.4031 9.99438 12.7877 10.072 13.1401 10.2131L14.1992 9.15401Z" fill="#1C252E"/>
<path d="M6.90001 22.1739C6.33213 22.1199 5.82474 22.0319 5.3613 21.8817L10.1133 17.1297C10.6869 17.3962 11.3262 17.5449 12.0003 17.5449C14.4763 17.5449 16.4835 15.5378 16.4835 13.0618C16.4835 12.3877 16.3347 11.7483 16.0682 11.1748L17.1587 10.0843C17.3046 10.1768 17.4777 10.2303 17.6632 10.2303C18.1845 10.2303 18.6071 9.80777 18.6071 9.28652C18.6071 9.10095 18.5535 8.92789 18.461 8.78195L20.9962 6.24673C21.7108 7.03129 22.1464 8.07432 22.1464 9.2191V13.5709C22.1464 15.0842 22.1464 16.2705 22.0563 17.2183C21.9644 18.1843 21.774 18.9753 21.3467 19.6727C20.8992 20.4029 20.2852 21.0168 19.555 21.4643C18.8577 21.8916 18.0667 22.0821 17.1006 22.1739C16.1529 22.2641 14.9665 22.264 13.4532 22.264H10.5474C9.03409 22.264 7.84777 22.2641 6.90001 22.1739Z" fill="#1C252E"/>
<path d="M12.0003 16.1292C11.7289 16.1292 11.4658 16.094 11.2152 16.0278L14.9663 12.2766C15.0325 12.5272 15.0677 12.7904 15.0677 13.0618C15.0677 14.7559 13.6944 16.1292 12.0003 16.1292Z" fill="#1C252E"/>
</svg>
