<svg width="24" height="24" viewBox="0 0 24 24" fill="none" xmlns="http://www.w3.org/2000/svg">
<path d="M9 10.38C10.3144 10.38 11.38 9.31443 11.38 8C11.38 6.68556 10.3144 5.62 9 5.62C7.68556 5.62 6.62 6.68556 6.62 8C6.62 9.31443 7.68556 10.38 9 10.38Z" fill="#1C252E"/>
<path d="M20.97 8H20.5V12.61L20.37 12.5C19.59 11.83 18.33 11.83 17.55 12.5L13.39 16.07C12.61 16.74 11.35 16.74 10.57 16.07L10.23 15.79C9.52 15.17 8.39 15.11 7.59 15.65L3.85 18.16C3.63 17.6 3.5 16.95 3.5 16.19V7.81C3.5 4.99 4.99 3.5 7.81 3.5H16V3.03C16 2.63 16.07 2.29 16.23 2H7.81C4.17 2 2 4.17 2 7.81V16.19C2 17.28 2.19 18.23 2.56 19.03C3.42 20.93 5.26 22 7.81 22H16.19C19.83 22 22 19.83 22 16.19V7.77C21.71 7.93 21.37 8 20.97 8Z" fill="#1C252E"/>
<path d="M20.9697 1C22.2397 1 23 1.76027 23 3.03027V5.96973C23 6.83965 22.6399 7.47949 22 7.76953C21.71 7.92953 21.3697 8 20.9697 8H18.0303C16.7603 8 16 7.23973 16 5.96973V3.03027C16 2.63027 16.0705 2.29 16.2305 2C16.5205 1.36011 17.1604 1 18.0303 1H20.9697ZM20.6816 2.25C20.2686 2.25 19.9082 2.45255 19.6387 2.83496C19.5837 2.91292 19.5375 2.9905 19.5 3.0625C19.4625 2.9905 19.4163 2.91292 19.3613 2.83496C19.0918 2.45255 18.7314 2.25 18.3184 2.25C17.9479 2.25 17.6094 2.39879 17.3652 2.66895C17.1299 2.92947 17 3.28028 17 3.65625C17 4.38661 17.5136 4.85529 18.1641 5.44824C18.5402 5.7911 18.9667 6.17968 19.3877 6.69629C19.4155 6.73039 19.4567 6.75 19.5 6.75C19.5433 6.75 19.5845 6.73039 19.6123 6.69629C20.0333 6.17968 20.4598 5.7911 20.8359 5.44824C21.4864 4.85528 22 4.38661 22 3.65625C22 3.28028 21.8701 2.92947 21.6348 2.66895C21.3906 2.39879 21.0521 2.25 20.6816 2.25Z" fill="#1C252E"/>
</svg>
