<svg width="24" height="24" viewBox="0 0 24 24" fill="none" xmlns="http://www.w3.org/2000/svg">
<path d="M17.62 5.72L7.01 16.33C6.28 15.34 5.88 14.13 5.88 12.82V8.11C5.88 6.27 6.7 4.62 8 3.5V7.64C8 8.03 8.32 8.35 8.7 8.35C9.09 8.35 9.41 8.03 9.41 7.64V2.57C9.87 2.34 10.36 2.18 10.87 2.09V5.75C10.87 6.15 11.19 6.46 11.58 6.46C11.97 6.46 12.29 6.15 12.29 5.75V2C14.68 2.11 16.74 3.61 17.62 5.72Z" fill="#1C252E"/>
<path d="M18.12 8.88V12.82C18.12 16.19 15.37 18.94 12 18.94C11.82 18.94 11.64 18.93 11.46 18.91C11.38 18.91 11.3 18.9 11.23 18.89C11.1 18.87 10.97 18.85 10.85 18.83C10.8 18.83 10.76 18.81 10.7 18.8C10.56 18.77 10.42 18.73 10.29 18.69C10.07 18.63 9.86003 18.55 9.66003 18.47C9.53003 18.42 9.41003 18.37 9.29003 18.3C9.26003 18.29 9.24003 18.27 9.21003 18.26C9.11003 18.21 9.01003 18.16 8.91003 18.09L18.12 8.88Z" fill="#1C252E"/>
<path d="M21.7501 11V13C21.7501 18.38 17.3801 22.75 12.0001 22.75C9.88005 22.75 7.85005 22.07 6.18005 20.82L7.26005 19.74C8.64005 20.72 10.2801 21.25 12.0001 21.25C16.5501 21.25 20.2501 17.55 20.2501 13V11C20.2501 10.59 20.5901 10.25 21.0001 10.25C21.4101 10.25 21.7501 10.59 21.7501 11Z" fill="#1C252E"/>
<path d="M21.77 2.23C21.47 1.93 20.98 1.93 20.68 2.23L2.23 20.69C1.93 20.99 1.93 21.48 2.23 21.78C2.38 21.92 2.57 22 2.77 22C2.97 22 3.16 21.92 3.31 21.77L21.77 3.31C22.08 3.01 22.08 2.53 21.77 2.23Z" fill="#1C252E"/>
</svg>
