<svg width="24" height="24" viewBox="0 0 24 24" fill="none" xmlns="http://www.w3.org/2000/svg">
<path d="M12.0012 10.25C12.4154 10.25 12.7512 10.5858 12.7512 11V12.25H14.0012C14.4154 12.25 14.7512 12.5858 14.7512 13C14.7512 13.4142 14.4154 13.75 14.0012 13.75H12.7512V15C12.7512 15.4142 12.4154 15.75 12.0012 15.75C11.587 15.75 11.2512 15.4142 11.2512 15V13.75H10.0012C9.58701 13.75 9.25122 13.4142 9.25122 13C9.25122 12.5858 9.58701 12.25 10.0012 12.25H11.2512V11C11.2512 10.5858 11.587 10.25 12.0012 10.25Z" fill="#1C252E"/>
<path fill-rule="evenodd" clip-rule="evenodd" d="M14.6262 1.5C15.944 1.50019 17.012 2.56888 17.012 3.88672V4.05664C17.012 4.48962 17.3632 4.84072 17.7961 4.84082C20.2625 4.84082 22.2619 6.84027 22.262 9.30664V13.708C22.262 15.2383 22.2622 16.438 22.1711 17.3965C22.0783 18.3734 21.8855 19.1737 21.4534 19.8789C21.0008 20.6174 20.3803 21.2388 19.6418 21.6914C18.9367 22.1235 18.1363 22.3163 17.1594 22.4092C16.2009 22.5003 15.0004 22.5 13.47 22.5H10.5315C9.00126 22.5 7.80147 22.5003 6.84302 22.4092C5.86612 22.3163 5.06577 22.1235 4.3606 21.6914C3.62207 21.2388 3.00067 20.6174 2.5481 19.8789C2.11605 19.1737 1.92321 18.3734 1.83032 17.3965C1.73923 16.438 1.7395 15.2383 1.7395 13.708V9.30664C1.7396 6.8403 3.73897 4.84087 6.20532 4.84082C6.63836 4.84082 6.9895 4.48968 6.9895 4.05664V3.88672C6.9895 2.56877 8.05827 1.5 9.37622 1.5H14.6262ZM12.0012 8.65918C9.49711 8.65918 7.46704 10.6892 7.46704 13.1934C7.46714 15.6974 9.49717 17.7275 12.0012 17.7275C14.5051 17.7273 16.5353 15.6973 16.5354 13.1934C16.5354 10.6894 14.5052 8.65937 12.0012 8.65918ZM17.7278 8.4209C17.2008 8.42109 16.7737 8.84794 16.7737 9.375C16.7737 9.90206 17.2008 10.3289 17.7278 10.3291C18.255 10.3291 18.6829 9.90218 18.6829 9.375C18.6829 8.84782 18.255 8.4209 17.7278 8.4209Z" fill="#1C252E"/>
</svg>
