<svg width="24" height="24" viewBox="0 0 24 24" fill="none" xmlns="http://www.w3.org/2000/svg">
<path opacity="0.4" d="M17.74 7.56995C17.75 7.63995 17.75 7.71995 17.74 7.78995C17.74 7.71995 17.73 7.64995 17.73 7.57995L17.74 7.56995Z" fill="#1C252E"/>
<path d="M17.28 6.56L3.83 20.01C2.43 19.12 1.88 17.53 1.88 16V8C1.88 4.58 3.21 3.25 6.63 3.25H12.63C15.52 3.25 16.91 4.2 17.28 6.56Z" fill="#1C252E"/>
<path d="M21.4 2.23C21.1 1.93 20.61 1.93 20.31 2.23L1.85 20.69C1.55 20.99 1.55 21.48 1.85 21.78C2 21.92 2.2 22 2.39 22C2.59 22 2.78 21.92 2.93 21.77L21.4 3.31C21.7 3.01 21.7 2.53 21.4 2.23Z" fill="#1C252E"/>
<path d="M22.38 8.37998V15.62C22.38 17.05 21.68 17.62 21.28 17.83C21.09 17.93 20.79 18.04 20.42 18.04C19.99 18.04 19.46 17.9 18.84 17.46L17.36 16.42C17.29 18.63 16.59 19.89 15 20.42C14.36 20.65 13.57 20.75 12.62 20.75H6.62003C6.38003 20.75 6.15003 20.74 5.91003 20.71L15 11.63L20.65 5.97998C20.91 5.99998 21.12 6.07998 21.28 6.16998C21.68 6.37998 22.38 6.94998 22.38 8.37998Z" fill="#1C252E"/>
</svg>
