<svg width="24" height="24" viewBox="0 0 24 24" fill="none" xmlns="http://www.w3.org/2000/svg">
<path d="M12.0004 10.0909C10.287 10.0909 8.8981 11.4798 8.8981 13.1932C8.8981 14.9065 10.287 16.2955 12.0004 16.2955C13.7137 16.2955 15.1027 14.9065 15.1027 13.1932C15.1027 11.4798 13.7137 10.0909 12.0004 10.0909Z" fill="#1C252E"/>
<path fill-rule="evenodd" clip-rule="evenodd" d="M9.37538 1.5C8.05743 1.5 6.98901 2.56841 6.98901 3.88636V4.05682C6.98901 4.48986 6.63796 4.84091 6.20492 4.84091C3.73847 4.84091 1.73901 6.84037 1.73901 9.30682V13.708C1.73901 15.2385 1.739 16.4384 1.83014 17.3969C1.92304 18.3739 2.11565 19.1739 2.54782 19.8792C3.00039 20.6177 3.62132 21.2386 4.35985 21.6912C5.06508 22.1234 5.86509 22.316 6.84212 22.4089C7.80064 22.5 9.00045 22.5 10.5309 22.5H13.4698C15.0002 22.5 16.2001 22.5 17.1586 22.4089C18.1357 22.316 18.9357 22.1234 19.6409 21.6912C20.3794 21.2386 21.0004 20.6177 21.4529 19.8792C21.8851 19.1739 22.0777 18.3739 22.1706 17.3969C22.2618 16.4384 22.2617 15.2386 22.2617 13.7081V9.30682C22.2617 6.84036 20.2623 4.84091 17.7958 4.84091C17.3628 4.84091 17.0117 4.48986 17.0117 4.05682V3.88636C17.0117 2.56841 15.9433 1.5 14.6254 1.5H9.37538ZM7.46629 13.1932C7.46629 10.6891 9.49627 8.65909 12.0004 8.65909C14.5045 8.65909 16.5345 10.6891 16.5345 13.1932C16.5345 15.6973 14.5045 17.7273 12.0004 17.7273C9.49627 17.7273 7.46629 15.6973 7.46629 13.1932ZM17.7277 10.3295C17.2005 10.3295 16.7731 9.90218 16.7731 9.375C16.7731 8.84782 17.2005 8.42045 17.7277 8.42045C18.2548 8.42045 18.6822 8.84782 18.6822 9.375C18.6822 9.90218 18.2548 10.3295 17.7277 10.3295Z" fill="#1C252E"/>
</svg>
