<svg width="24" height="24" viewBox="0 0 24 24" fill="none" xmlns="http://www.w3.org/2000/svg">
<path opacity="0.4" d="M16.19 2H7.81C4.17 2 2 4.17 2 7.81V16.18C2 19.82 4.17 21.99 7.81 21.99H16.18C19.82 21.99 21.99 19.82 21.99 16.18V7.81C22 4.17 19.83 2 16.19 2Z" fill="#1C252E"/>
<path d="M10.2202 7.30011C10.5301 7.3102 10.7999 7.52002 10.8999 7.80987L13.5396 15.7396C13.6596 16.1195 13.45 16.55 13.0601 16.68C12.9801 16.71 12.8998 16.72 12.8198 16.72C12.51 16.72 12.2099 16.5201 12.1099 16.2103L11.3999 14.0804H8.31984L7.34035 16.2796C7.17038 16.6595 6.73005 16.8303 6.35011 16.6605C5.97014 16.4905 5.80029 16.0502 5.97023 15.6702L9.49953 7.73956C9.62956 7.45966 9.9003 7.27011 10.2202 7.30011ZM16.3501 9.92999C16.7601 9.93005 17.1001 10.27 17.1001 10.68V15.97C17.1001 16.38 16.7601 16.72 16.3501 16.72C15.9401 16.72 15.6001 16.38 15.6001 15.97V10.68C15.6001 10.27 15.9401 9.92999 16.3501 9.92999ZM8.97999 12.5696H10.8999L10.0796 10.1097L8.97999 12.5696ZM15.9605 7.10968C16.3304 6.95996 16.7804 7.05051 17.0503 7.33038C17.1501 7.42026 17.2201 7.52995 17.27 7.64972C17.32 7.76959 17.35 7.89974 17.3501 8.0296C17.3501 8.1696 17.32 8.30022 17.27 8.42022C17.2201 8.54001 17.1501 8.64966 17.0503 8.73956C16.9603 8.82956 16.85 8.91026 16.73 8.96026C16.6101 9.01022 16.48 9.02959 16.3501 9.0296C16.0801 9.0296 15.8302 8.92956 15.6402 8.73956C15.5503 8.64967 15.4704 8.54003 15.4204 8.42022C15.3704 8.29022 15.3501 8.1696 15.3501 8.0296C15.3502 7.89974 15.3705 7.76959 15.4204 7.64972C15.4804 7.52992 15.5503 7.42026 15.6402 7.33038C15.7302 7.23038 15.8405 7.15968 15.9605 7.10968Z" fill="#1C252E"/>
</svg>
