<svg width="24" height="24" viewBox="0 0 24 24" fill="none" xmlns="http://www.w3.org/2000/svg">
<path opacity="0.4" d="M11.9999 5.99999L6.43985 9.99999L3.18985 7.79998C2.60985 7.40998 2.59986 6.57 3.16986 6.16L6.99985 3.39999C7.33985 3.15999 7.79986 3.15 8.13986 3.38L11.9999 5.99999Z" fill="#1C252E"/>
<path opacity="0.4" d="M20.81 7.80003L17.56 10L12 6.00004L15.86 3.39005C16.21 3.16005 16.66 3.16004 17 3.41004L20.83 6.17005C21.4 6.57005 21.39 7.41003 20.81 7.80003Z" fill="#1C252E"/>
<path opacity="0.4" d="M11.9999 14L7.55992 17L4.99992 15.16L3.15992 13.84C2.59992 13.43 2.60991 12.59 3.17991 12.2L6.42991 10L11.9999 14Z" fill="#1C252E"/>
<path opacity="0.4" d="M20.8102 12.2C21.3902 12.59 21.4002 13.43 20.8302 13.84L18.9902 15.16L16.4302 17L11.9902 14L17.5502 10L20.8102 12.2Z" fill="#1C252E"/>
<path d="M19 15.16V18.13C19 18.52 18.77 18.87 18.42 19.04L12.42 21.81C12.15 21.93 11.85 21.93 11.58 21.81L5.57999 19.04C5.22999 18.88 5 18.52 5 18.13V15.16L7.56 17L12 14L16.44 17L19 15.16Z" fill="#1C252E"/>
</svg>
