<svg width="24" height="24" viewBox="0 0 24 24" fill="none" xmlns="http://www.w3.org/2000/svg">
<path opacity="0.4" d="M16.1898 2H7.81976C4.17976 2 2.00977 4.17 2.00977 7.81V16.18C2.00977 19.82 4.17976 21.99 7.81976 21.99H16.1898C19.8298 21.99 21.9998 19.82 21.9998 16.18V7.81C21.9998 4.17 19.8298 2 16.1898 2Z" fill="#1C252E"/>
<path d="M9.5 7.25C11.0199 7.25013 12.25 8.48008 12.25 10C12.25 11.5199 11.0199 12.7499 9.5 12.75H8.25V16C8.25 16.4099 7.90989 16.7499 7.5 16.75C7.09 16.75 6.75 16.41 6.75 16V8C6.75 7.59 7.09 7.25 7.5 7.25H9.5ZM16.5 10.25C16.9099 10.2501 17.25 10.5901 17.25 11C17.25 11.4099 16.9099 11.7499 16.5 11.75H15.25C14.97 11.75 14.75 11.97 14.75 12.25C14.75 12.53 14.97 12.75 15.25 12.75C16.3499 12.7501 17.25 13.6501 17.25 14.75C17.25 15.8499 16.3499 16.7499 15.25 16.75H14C13.59 16.75 13.25 16.41 13.25 16C13.25 15.59 13.59 15.25 14 15.25H15.25C15.5299 15.2499 15.75 15.0299 15.75 14.75C15.75 14.4701 15.5299 14.2501 15.25 14.25C14.15 14.25 13.25 13.35 13.25 12.25C13.25 11.15 14.15 10.25 15.25 10.25H16.5ZM8.25 11.25H9.5C10.19 11.25 10.75 10.69 10.75 10C10.75 9.31 10.19 8.75 9.5 8.75H8.25V11.25Z" fill="#1C252E"/>
</svg>
