<svg width="24" height="24" viewBox="0 0 24 24" fill="none" xmlns="http://www.w3.org/2000/svg">
<path d="M14.5401 1.88C13.3101 1.88 12.3101 2.87999 12.3101 4.10999V8.75C12.3101 9.98 13.3101 10.98 14.5401 10.98C15.7701 10.98 16.7701 9.98 16.7701 8.75V4.10999C16.7701 2.88999 15.7701 1.88 14.5401 1.88Z" fill="#1C252E"/>
<path opacity="0.4" d="M20.1802 7.10999C19.1102 7.10999 18.2402 7.97999 18.2402 9.04999V10.62C18.2402 10.83 18.4102 11 18.6202 11H20.1902C21.2602 11 22.1302 10.13 22.1302 9.06C22.1302 7.99 21.2502 7.10999 20.1802 7.10999Z" fill="#1C252E"/>
<path d="M8.49988 6.98999H3.85988C2.62988 6.98999 1.62988 7.99 1.62988 9.22C1.62988 10.45 2.62988 11.45 3.85988 11.45H8.49988C9.72988 11.45 10.7299 10.45 10.7299 9.22C10.7299 7.99 9.72988 6.98999 8.49988 6.98999Z" fill="#1C252E"/>
<path opacity="0.4" d="M8.79008 1.62C7.72008 1.62 6.8501 2.49 6.8501 3.56C6.8501 4.63 7.72008 5.5 8.79008 5.5H10.3601C10.5701 5.5 10.7401 5.33 10.7401 5.12V3.54999C10.7301 2.49999 9.86009 1.62 8.79008 1.62Z" fill="#1C252E"/>
<path d="M9.43019 13.03C8.20019 13.03 7.2002 14.03 7.2002 15.26V19.9C7.2002 21.13 8.20019 22.13 9.43019 22.13C10.6602 22.13 11.6602 21.13 11.6602 19.9V15.26C11.6602 14.03 10.6602 13.03 9.43019 13.03Z" fill="#1C252E"/>
<path opacity="0.4" d="M5.36009 13.03H3.79008C2.72008 13.03 1.8501 13.9 1.8501 14.97C1.8501 16.04 2.72008 16.91 3.79008 16.91C4.86009 16.91 5.73009 16.04 5.73009 14.97V13.4C5.73009 13.2 5.56009 13.03 5.36009 13.03Z" fill="#1C252E"/>
<path d="M20.1102 12.57H15.4702C14.2402 12.57 13.2402 13.57 13.2402 14.8C13.2402 16.03 14.2402 17.03 15.4702 17.03H20.1102C21.3402 17.03 22.3402 16.03 22.3402 14.8C22.3402 13.57 21.3402 12.57 20.1102 12.57Z" fill="#1C252E"/>
<path opacity="0.4" d="M15.18 18.47H13.61C13.4 18.47 13.23 18.64 13.23 18.85V20.42C13.23 21.49 14.1 22.36 15.17 22.36C16.24 22.36 17.11 21.49 17.11 20.42C17.12 19.34 16.25 18.47 15.18 18.47Z" fill="#1C252E"/>
</svg>
