<svg width="24" height="24" viewBox="0 0 24 24" fill="none" xmlns="http://www.w3.org/2000/svg">
<g opacity="0.4">
<path d="M13.9998 13.25H9.99976C9.58976 13.25 9.24976 13.59 9.24976 14C9.24976 14.41 9.58976 14.75 9.99976 14.75H13.9998C14.4098 14.75 14.7498 14.41 14.7498 14C14.7498 13.59 14.4098 13.25 13.9998 13.25Z" fill="#1C252E"/>
<path d="M9.99976 10.75H11.9998C12.4098 10.75 12.7498 10.41 12.7498 10C12.7498 9.59 12.4098 9.25 11.9998 9.25H9.99976C9.58976 9.25 9.24976 9.59 9.24976 10C9.24976 10.41 9.58976 10.75 9.99976 10.75Z" fill="#1C252E"/>
<path d="M16.1898 2H7.81976C4.17976 2 2.00977 4.17 2.00977 7.81V16.18C2.00977 19.82 4.17976 21.99 7.81976 21.99H16.1898C19.8298 21.99 21.9998 19.82 21.9998 16.18V7.81C21.9998 4.17 19.8298 2 16.1898 2ZM17.9998 15C17.9998 17 16.9998 18 14.9998 18H8.99976C6.99976 18 5.99976 17 5.99976 15V9C5.99976 7 6.99976 6 8.99976 6H12.9998C14.9998 6 15.9998 7 15.9998 9V10C15.9998 10.55 16.4498 11 16.9998 11C17.5498 11 17.9998 11.45 17.9998 12V15Z" fill="#1C252E"/>
</g>
<path fill-rule="evenodd" clip-rule="evenodd" d="M17.9998 15C17.9998 17 16.9998 18 14.9998 18H8.99976C6.99976 18 5.99976 17 5.99976 15V9C5.99976 7 6.99976 6 8.99976 6H12.9998C14.9998 6 15.9998 7 15.9998 9V10C15.9998 10.55 16.4498 11 16.9998 11C17.5498 11 17.9998 11.45 17.9998 12V15ZM9.99976 13.25H13.9998C14.4098 13.25 14.7498 13.59 14.7498 14C14.7498 14.41 14.4098 14.75 13.9998 14.75H9.99976C9.58976 14.75 9.24976 14.41 9.24976 14C9.24976 13.59 9.58976 13.25 9.99976 13.25ZM11.9998 10.75H9.99976C9.58976 10.75 9.24976 10.41 9.24976 10C9.24976 9.59 9.58976 9.25 9.99976 9.25H11.9998C12.4098 9.25 12.7498 9.59 12.7498 10C12.7498 10.41 12.4098 10.75 11.9998 10.75Z" fill="#1C252E"/>
</svg>
