<svg width="24" height="24" viewBox="0 0 24 24" fill="none" xmlns="http://www.w3.org/2000/svg">
<path fill-rule="evenodd" clip-rule="evenodd" d="M15.88 20.9201C15.91 21.0801 15.82 21.25 15.67 21.31C14.54 21.76 13.3 22 12.02 22C9.80999 22 7.76997 21.2901 6.11997 20.0701C5.97997 19.9701 5.94 19.77 6.03 19.62C6.58 18.64 8.72995 15.4901 13.48 13.7301C13.66 13.6601 13.86 13.75 13.92 13.93C15.11 17.12 15.67 19.8201 15.88 20.9201Z" fill="#1C252E"/>
<path fill-rule="evenodd" clip-rule="evenodd" d="M21.8202 13.89C21.3602 16.35 19.9801 18.49 18.0501 19.95C17.8401 20.11 17.5401 19.99 17.4901 19.74C17.2801 18.66 16.7701 16.33 15.7901 13.56C15.7201 13.35 15.8602 13.12 16.0802 13.09C18.5702 12.79 20.7502 13.27 21.5702 13.49C21.7402 13.55 21.8502 13.72 21.8202 13.89Z" fill="#1C252E"/>
<path opacity="0.4" fill-rule="evenodd" clip-rule="evenodd" d="M21.5902 11.8199C20.5702 11.6399 17.9702 11.2599 15.3102 11.5499C15.1502 11.5699 15.0102 11.4799 14.9402 11.3299C14.9002 11.2399 14.8702 11.1499 14.8302 11.0599C14.6702 10.6899 14.5002 10.3099 14.3302 9.9399C14.2402 9.7599 14.3302 9.53989 14.5102 9.45989C17.3102 8.24989 18.8702 6.68989 19.4802 5.98989C19.6302 5.81989 19.8902 5.82991 20.0302 6.00991C21.1802 7.53991 21.8902 9.40989 22.0002 11.4299C22.0102 11.6799 21.8102 11.8599 21.5902 11.8199Z" fill="#1C252E"/>
<path fill-rule="evenodd" clip-rule="evenodd" d="M18.44 4.79001C17.92 5.42001 16.46 6.91999 13.69 8.01999C13.53 8.08999 13.34 8.01999 13.25 7.85999C11.97 5.53999 10.6099 3.58999 9.97994 2.70999C9.82994 2.49999 9.94997 2.2 10.2 2.16C10.78 2.06 11.39 2.01001 12.01 2.01001C14.43 2.01001 16.66 2.87 18.39 4.31C18.54 4.42 18.56 4.64001 18.44 4.79001Z" fill="#1C252E"/>
<path fill-rule="evenodd" clip-rule="evenodd" d="M11.0198 8.83991C7.22978 9.78991 3.87973 9.91992 2.65973 9.93992C2.42973 9.93992 2.25977 9.71991 2.31977 9.49991C3.03977 6.69991 4.95975 4.35992 7.48975 3.06992C7.63975 2.98992 7.82975 3.03991 7.92975 3.17991C8.44975 3.89991 9.85975 5.92992 11.2397 8.31992C11.3497 8.51992 11.2498 8.77991 11.0198 8.83991Z" fill="#1C252E"/>
<path opacity="0.4" fill-rule="evenodd" clip-rule="evenodd" d="M12.9197 11.6001C13.0097 11.7901 12.8998 12.0201 12.6998 12.0901C8.26977 13.5201 5.61976 17.0701 4.81976 18.2901C4.68976 18.4901 4.40977 18.5001 4.25977 18.3201C2.85977 16.6001 2.00977 14.6301 2.00977 12.2401V12.0601C2.00977 11.8601 2.16975 11.7001 2.36975 11.7101C3.62975 11.7601 7.73977 11.5901 12.0098 10.3601C12.1698 10.3101 12.3497 10.3901 12.4197 10.5401C12.5897 10.8901 12.7597 11.2401 12.9197 11.6001Z" fill="#1C252E"/>
</svg>
