<svg width="24" height="24" viewBox="0 0 24 24" fill="none" xmlns="http://www.w3.org/2000/svg">
<path opacity="0.4" d="M23 11C21.81 11 20.75 10.24 20.37 9.10001C20.13 8.37001 20 7.59999 20 6.82999V6C20 4.34 18.66 3 17 3H7C5.34 3 4 4.34 4 6V6.84C4 7.61 3.88 8.36999 3.63 9.10999C3.25 10.24 2.19 11.01 1 11.01V13.01C2.19 13.01 3.25 13.77 3.63 14.91C3.87 15.64 4 16.41 4 17.17V18C4 19.66 5.34 21 7 21H17C18.66 21 20 19.66 20 18V17.16C20 16.39 20.12 15.63 20.37 14.9C20.75 13.77 21.81 13 23 13V11Z" fill="#1C252E"/>
<path d="M12.6699 7.08008C14.2299 7.08008 15.5 8.35016 15.5 9.91016C15.4999 10.7301 15.15 11.4803 14.5801 11.9902C15.15 12.5202 15.5 13.2602 15.5 14.0801C15.4999 15.64 14.2299 16.9102 12.6699 16.9102H9.75C9.34006 16.9102 9.0001 16.5701 9 16.1602V7.83008C9 7.42008 9.34 7.08008 9.75 7.08008H12.6699ZM10.5 12.75V15.4199H12.6699C13.4099 15.4199 14 14.8198 14 14.0898C13.9999 13.3599 13.3999 12.75 12.6699 12.75H10.5ZM10.5 8.58008V11.25H12.6699C13.4099 11.25 14 10.6499 14 9.91992C14 9.18995 13.3999 8.58008 12.6699 8.58008H10.5Z" fill="#1C252E"/>
</svg>
