<svg width="24" height="24" viewBox="0 0 24 24" fill="none" xmlns="http://www.w3.org/2000/svg">
<path d="M19.083 15.333C19.0828 15.011 18.8221 14.75 18.5 14.75H17.6113C17.2893 14.75 17.0275 15.011 17.0273 15.333V15.9482C17.3829 15.9294 17.7377 15.917 18.0557 15.917C18.3733 15.917 18.7277 15.9294 19.083 15.9482V15.333ZM20.583 16.0576C20.6502 16.0636 20.7149 16.0685 20.7764 16.0742C21.526 16.1435 22.133 16.7223 22.2236 17.4785C22.2857 17.9966 22.3613 18.7439 22.3613 19.333C22.3613 19.922 22.2857 20.6693 22.2236 21.1875C22.1331 21.9438 21.5261 22.5225 20.7764 22.5918C20.0679 22.6572 18.9202 22.75 18.0557 22.75C17.191 22.75 16.0425 22.6572 15.334 22.5918C14.5844 22.5224 13.9782 21.9436 13.8877 21.1875C13.8256 20.6693 13.75 19.922 13.75 19.333C13.75 18.7439 13.8256 17.9966 13.8877 17.4785C13.9783 16.7225 14.5845 16.1436 15.334 16.0742C15.3954 16.0685 15.4603 16.0636 15.5273 16.0576V15.333C15.5275 14.1826 16.4608 13.25 17.6113 13.25H18.5C19.6505 13.25 20.5828 14.1826 20.583 15.333V16.0576Z" fill="#1C252E"/>
<path d="M8.46002 2.01001V8.46002H2V7.78003C2 4.17003 4.15001 2.02002 7.76001 2.02002H8.46002V2.01001Z" fill="#1C252E"/>
<path d="M21.8401 7.77002C21.8401 8.15002 21.5302 8.45001 21.1602 8.45001H15.4102V2H16.0802C19.2602 2.01 21.8401 4.59002 21.8401 7.77002Z" fill="#1C252E"/>
<path d="M8.45978 15.3901V21.1501C8.45978 21.5301 8.14975 21.8301 7.77975 21.8301H7.76978C4.58978 21.8301 2.00977 19.2501 2.00977 16.0701V15.3901H8.45978Z" fill="#1C252E"/>
<path opacity="0.4" d="M8.46976 8.44995H2.00977V15.39H8.46976V8.44995Z" fill="#1C252E"/>
<path d="M15.3999 8.44995V14.39C15.3999 14.94 14.9499 15.39 14.3999 15.39H8.45996V8.44995H15.3999Z" fill="#1C252E"/>
<path opacity="0.4" d="M15.3999 2.01001H8.45996V8.46002H15.3999V2.01001Z" fill="#1C252E"/>
</svg>
