<svg width="24" height="24" viewBox="0 0 24 24" fill="none" xmlns="http://www.w3.org/2000/svg">
<path opacity="0.4" d="M16.48 2H8.52C5.07 2 3 4.06 3 7.52V15.47C3 18.94 5.07 21 8.52 21H16.47C19.93 21 21.99 18.94 21.99 15.48V7.52C22 4.06 19.93 2 16.48 2Z" fill="#1C252E"/>
<path d="M11 16.15V18.85C11 21.1 10.1 22 7.85 22H5.15C2.9 22 2 21.1 2 18.85V16.15C2 13.9 2.9 13 5.15 13H7.85C10.1 13 11 13.9 11 16.15Z" fill="#1C252E"/>
<path d="M18.7599 9.98997C18.7599 10.4 18.4199 10.74 18.0099 10.74C17.5999 10.74 17.2599 10.4 17.2599 9.98997V7.78997L13.5299 11.53C13.3799 11.68 13.1899 11.75 12.9999 11.75C12.8099 11.75 12.6199 11.68 12.4699 11.53C12.1799 11.24 12.1799 10.76 12.4699 10.47L16.1999 6.71997H13.9999C13.5799 6.71997 13.2499 6.38997 13.2499 5.96997C13.2499 5.55997 13.5799 5.21997 13.9999 5.21997H18.0099C18.0999 5.21997 18.1899 5.24997 18.2699 5.27997C18.2999 5.28997 18.3199 5.29997 18.3399 5.30997C18.3999 5.33997 18.4499 5.36997 18.4999 5.41997C18.5199 5.42997 18.5399 5.44997 18.5599 5.46997C18.6099 5.52997 18.6499 5.58997 18.6899 5.65997C18.6899 5.66997 18.6999 5.67997 18.6999 5.68997C18.7399 5.76997 18.7499 5.85997 18.7499 5.94997C18.7599 5.95997 18.7599 5.95997 18.7599 5.96997V9.98997Z" fill="#1C252E"/>
</svg>
