<svg width="24" height="24" viewBox="0 0 24 24" fill="none" xmlns="http://www.w3.org/2000/svg">
<path d="M21.3299 14.67C20.2799 13.62 19.4499 13.96 18.7299 14.67L14.5799 18.82C14.4199 18.98 14.2699 19.29 14.2299 19.51L13.9999 21.1C13.9199 21.67 14.3199 22.08 14.8899 21.99L16.4799 21.76C16.6999 21.73 17.0099 21.57 17.1699 21.41L21.3199 17.26C22.0499 16.55 22.3799 15.72 21.3299 14.67Z" fill="#1C252E"/>
<path d="M8.46002 2.01001V8.46002H2V7.78003C2 4.17003 4.15001 2.02002 7.76001 2.02002H8.46002V2.01001Z" fill="#1C252E"/>
<path d="M21.8401 7.77002C21.8401 8.15002 21.5302 8.45001 21.1602 8.45001H15.4102V2H16.0802C19.2602 2.01 21.8401 4.59002 21.8401 7.77002Z" fill="#1C252E"/>
<path d="M8.45978 15.3901V21.1501C8.45978 21.5301 8.14975 21.8301 7.77975 21.8301H7.76978C4.58978 21.8301 2.00977 19.2501 2.00977 16.0701V15.3901H8.45978Z" fill="#1C252E"/>
<path opacity="0.4" d="M8.46976 8.44995H2.00977V15.39H8.46976V8.44995Z" fill="#1C252E"/>
<path d="M15.3999 8.44995V14.39C15.3999 14.94 14.9499 15.39 14.3999 15.39H8.45996V8.44995H15.3999Z" fill="#1C252E"/>
<path opacity="0.4" d="M15.3999 2.01001H8.45996V8.46002H15.3999V2.01001Z" fill="#1C252E"/>
</svg>
