<svg width="24" height="24" viewBox="0 0 24 24" fill="none" xmlns="http://www.w3.org/2000/svg">
<path d="M14.917 9.12881C15.3312 9.12881 15.667 9.4646 15.667 9.87881C15.667 10.293 15.3312 10.6288 14.917 10.6288H9.08398C8.66977 10.6288 8.33398 10.293 8.33398 9.87881C8.33398 9.4646 8.66977 9.12881 9.08398 9.12881H14.917Z" fill="#1C252E"/>
<path d="M11.251 12.7952V6.96216C11.251 6.54794 11.5868 6.21216 12.001 6.21216C12.4152 6.21216 12.751 6.54794 12.751 6.96216V12.7952C12.751 13.2094 12.4152 13.5452 12.001 13.5452C11.5868 13.5452 11.251 13.2094 11.251 12.7952Z" fill="#1C252E"/>
<path d="M18.8672 10.1963C18.867 6.03109 15.7416 2.75007 12 2.75C8.25837 2.75 5.13298 6.03105 5.13281 10.1963C5.13281 11.3541 5.73744 12.91 6.69531 14.6035C7.63671 16.2678 8.85406 17.955 9.94238 19.3428C10.5324 20.0952 10.918 20.5834 11.2627 20.8965C11.5753 21.1804 11.7791 21.25 12 21.25C12.2208 21.25 12.424 21.1801 12.7363 20.8965C13.081 20.5834 13.4675 20.0953 14.0576 19.3428C15.1459 17.955 16.3623 16.2678 17.3037 14.6035C18.2617 12.9099 18.8672 11.3542 18.8672 10.1963ZM20.3672 10.1963C20.3672 11.7684 19.5863 13.6157 18.6094 15.3428C17.6159 17.099 16.3481 18.8521 15.2373 20.2686C14.6802 20.9789 14.2057 21.5885 13.7451 22.0068C13.2525 22.4543 12.7056 22.75 12 22.75C11.2944 22.75 10.7475 22.4543 10.2549 22.0068C9.79426 21.5884 9.31892 20.9791 8.76172 20.2686C7.65089 18.852 6.38313 17.0992 5.38965 15.3428C4.41275 13.6157 3.63281 11.7684 3.63281 10.1963C3.63298 5.3081 7.32826 1.25 12 1.25C16.6717 1.25007 20.367 5.30814 20.3672 10.1963Z" fill="#1C252E"/>
</svg>
