<svg width="24" height="24" viewBox="0 0 24 24" fill="none" xmlns="http://www.w3.org/2000/svg">
<path d="M21.25 12C21.25 6.89137 17.1086 2.75 12 2.75C6.89137 2.75 2.75 6.89137 2.75 12C2.75 17.1086 6.89137 21.25 12 21.25C17.1086 21.25 21.25 17.1086 21.25 12ZM22.75 12C22.75 17.9371 17.9371 22.75 12 22.75C6.06294 22.75 1.25 17.9371 1.25 12C1.25 6.06294 6.06294 1.25 12 1.25C17.9371 1.25 22.75 6.06294 22.75 12Z" fill="#1C252E"/>
<path d="M9.00076 2.25C9.24177 2.25013 9.46828 2.36596 9.60916 2.56152C9.75004 2.75713 9.78798 3.00864 9.7117 3.2373C7.81318 8.92313 7.81318 15.0769 9.7117 20.7627C9.78798 20.9914 9.75004 21.2429 9.60916 21.4385C9.46828 21.634 9.24177 21.7499 9.00076 21.75H8.00076C7.58655 21.75 7.25076 21.4142 7.25076 21C7.25076 20.5928 7.57483 20.2622 7.97928 20.251C6.39111 14.866 6.39093 9.13299 7.97928 3.74805C7.57484 3.73685 7.25076 3.40714 7.25076 3C7.25076 2.58579 7.58655 2.25 8.00076 2.25H9.00076Z" fill="#1C252E"/>
<path d="M14.7624 2.28906C15.1553 2.15792 15.5795 2.36983 15.7107 2.76269C17.7121 8.75682 17.7121 15.2432 15.7107 21.2373C15.5795 21.6302 15.1553 21.8421 14.7624 21.7109C14.3696 21.5798 14.1577 21.1556 14.2888 20.7627C16.1873 15.0769 16.1873 8.92313 14.2888 3.2373C14.1577 2.84443 14.3696 2.42024 14.7624 2.28906Z" fill="#1C252E"/>
<path d="M20.7627 14.289C20.9914 14.2127 21.2428 14.2506 21.4385 14.3916C21.6341 14.5325 21.75 14.7589 21.75 15V16C21.75 16.4142 21.4142 16.75 21 16.75C20.5927 16.75 20.2619 16.4252 20.251 16.0205C14.8659 17.6087 9.13309 17.6089 3.74805 16.0205C3.73716 16.4252 3.40734 16.75 3 16.75C2.58579 16.75 2.25 16.4142 2.25 16V15C2.25 14.7589 2.36594 14.5325 2.56152 14.3916C2.75717 14.2506 3.00859 14.2127 3.2373 14.289C8.92313 16.1876 15.0769 16.1876 20.7627 14.289Z" fill="#1C252E"/>
<path d="M2.76247 8.2885C8.75649 6.28713 15.2431 6.28713 21.2371 8.2885C21.63 8.41969 21.8419 8.84483 21.7107 9.23772C21.5794 9.63037 21.1552 9.84238 20.7625 9.71135C15.0766 7.81283 8.9229 7.81283 3.23708 9.71135C2.84433 9.84238 2.42011 9.63037 2.28884 9.23772C2.15765 8.84483 2.36958 8.41969 2.76247 8.2885Z" fill="#1C252E"/>
</svg>
