<svg width="24" height="24" viewBox="0 0 24 24" fill="none" xmlns="http://www.w3.org/2000/svg">
<path d="M16.3349 2.67953C19.7707 0.96163 23.3696 4.65767 21.5947 8.0477L21.5937 8.04965L15.4941 19.6395C14.0129 22.4536 9.98806 22.4535 8.50678 19.6395L2.40619 8.04965L2.40717 8.04867C0.617356 4.65269 4.23554 0.964325 7.66596 2.67953L10.9052 4.29965C11.594 4.64403 12.4059 4.64392 13.0947 4.29965L16.3349 2.67953ZM20.2665 7.35043C21.3694 5.24105 19.1293 2.95893 17.0058 4.02035L13.7656 5.64047C12.6545 6.196 11.3464 6.19592 10.2353 5.64047L6.99506 4.02035C4.86572 2.95569 2.62406 5.24662 3.73334 7.35043H3.73432L9.83393 18.9403C10.7527 20.686 13.2481 20.686 14.1669 18.9403L20.2665 7.35043Z" fill="#1C252E"/>
</svg>
