<svg width="24" height="24" viewBox="0 0 24 24" fill="none" xmlns="http://www.w3.org/2000/svg">
<path d="M21.25 9.00048C21.25 8.59335 21.2343 8.21178 21.2061 7.85399L15.0605 13.9995L20.3203 19.2602C20.9275 18.3244 21.2499 16.9646 21.25 15.0005V9.00048ZM22.75 15.0005C22.7499 17.5747 22.2396 19.5691 20.9131 20.9077C20.7727 21.0494 20.5813 21.1299 20.3818 21.1304C20.1824 21.1308 19.9907 21.0516 19.8496 20.9106L13.4697 14.5308C13.3292 14.3902 13.2501 14.1992 13.25 14.0005C13.25 13.8016 13.3291 13.6099 13.4697 13.4692L21.1992 5.73974C21.3922 5.54675 21.6752 5.4738 21.9375 5.54931C22.1997 5.6249 22.4002 5.83702 22.4609 6.10302C22.6562 6.95984 22.75 7.91844 22.75 9.00048V15.0005Z" fill="#1C252E"/>
<path d="M15 1.25C17.0433 1.25 18.7174 1.57212 19.9902 2.37109C21.2937 3.18933 22.0814 4.44675 22.4609 6.10254C22.5186 6.35419 22.4433 6.61822 22.2607 6.80078L6.80078 22.2607C6.61823 22.4433 6.35418 22.5186 6.10254 22.4609C4.44676 22.0814 3.18932 21.2936 2.37109 19.9902C1.57213 18.7174 1.25 17.0433 1.25 15V9C1.25 6.42603 1.76026 4.4292 3.09473 3.09473C4.4292 1.76026 6.42603 1.25 9 1.25H15ZM2.75 15C2.75 16.9167 3.05809 18.2628 3.6416 19.1924C4.14899 20.0007 4.91021 20.5633 6.04297 20.8945L20.8945 6.04297C20.5633 4.91022 20.0007 4.14899 19.1924 3.6416C18.2627 3.05809 16.9167 2.75 15 2.75H9C6.57397 2.75 5.0708 3.23974 4.15527 4.15527C3.23974 5.0708 2.75 6.57397 2.75 9V15Z" fill="#1C252E"/>
<path d="M13.4687 13.4697C13.7616 13.1768 14.2374 13.1768 14.5303 13.4697L20.9101 19.8496C21.0511 19.9906 21.1303 20.1823 21.1299 20.3818C21.1294 20.5812 21.0489 20.7726 20.9072 20.913C19.5686 22.2395 17.5743 22.7499 15 22.7499H8.99999C7.91795 22.7499 6.95935 22.6561 6.10253 22.4609C5.83654 22.4001 5.62441 22.1996 5.54882 21.9374C5.47331 21.6752 5.54626 21.3922 5.73925 21.1992L13.4687 13.4697ZM7.85351 21.206C8.2113 21.2342 8.59287 21.2499 8.99999 21.2499H15C16.9641 21.2499 18.324 20.9275 19.2598 20.3203L13.999 15.0605L7.85351 21.206Z" fill="#1C252E"/>
<path d="M11.3672 8.44702C11.367 6.98656 10.2984 5.9187 9.11719 5.9187C7.93595 5.9187 6.86735 6.98656 6.86719 8.44702C6.86719 8.78892 7.05441 9.32606 7.42578 9.99292C7.78125 10.6312 8.24605 11.2863 8.66797 11.8328C8.89405 12.1256 9.01943 12.2822 9.11719 12.3777C9.21495 12.2822 9.34033 12.1256 9.56641 11.8328C9.98833 11.2863 10.4531 10.6312 10.8086 9.99292C11.18 9.32606 11.3672 8.78892 11.3672 8.44702ZM12.8672 8.44702C12.8672 9.19702 12.5087 10.0211 12.1182 10.7224C11.7117 11.4523 11.1981 12.1735 10.7539 12.7488C10.5443 13.0203 10.3304 13.3014 10.1143 13.5007C9.86662 13.7291 9.5459 13.9187 9.11719 13.9187C8.68848 13.9187 8.36775 13.7291 8.12012 13.5007C7.90402 13.3014 7.69008 13.0203 7.48047 12.7488C7.0363 12.1735 6.52271 11.4523 6.11621 10.7224C5.72565 10.0211 5.36719 9.19702 5.36719 8.44702C5.36735 6.28629 6.98492 4.4187 9.11719 4.4187C11.2495 4.4187 12.867 6.28629 12.8672 8.44702Z" fill="#1C252E"/>
<path d="M9.10254 7.08459C9.65482 7.08459 10.1025 7.53231 10.1025 8.08459C10.1025 8.63688 9.65482 9.08459 9.10254 9.08459H9.09375C8.54147 9.08459 8.09375 8.63688 8.09375 8.08459C8.09375 7.53231 8.54147 7.08459 9.09375 7.08459H9.10254Z" fill="#1C252E"/>
</svg>
