<svg width="24" height="24" viewBox="0 0 24 24" fill="none" xmlns="http://www.w3.org/2000/svg">
<path d="M7.74121 5.27832C7.74105 3.81786 6.67245 2.75 5.49121 2.75C4.30997 2.75 3.24137 3.81786 3.24121 5.27832C3.24121 5.62022 3.42843 6.15736 3.7998 6.82422C4.15527 7.46247 4.62007 8.11764 5.04199 8.66406C5.26807 8.95685 5.39345 9.11348 5.49121 9.20898C5.58897 9.11348 5.71435 8.95685 5.94043 8.66406C6.36235 8.11764 6.82715 7.46247 7.18262 6.82422C7.55399 6.15736 7.74121 5.62022 7.74121 5.27832ZM9.24121 5.27832C9.24121 6.02832 8.88275 6.85241 8.49219 7.55371C8.08569 8.28359 7.5721 9.00481 7.12793 9.58008C6.91831 9.85155 6.70438 10.1327 6.48828 10.332C6.24064 10.5604 5.91992 10.75 5.49121 10.75C5.0625 10.75 4.74178 10.5604 4.49414 10.332C4.27804 10.1327 4.06411 9.85155 3.85449 9.58008C3.41032 9.00481 2.89673 8.28359 2.49023 7.55371C2.09967 6.85241 1.74121 6.02832 1.74121 5.27832C1.74137 3.11759 3.35894 1.25 5.49121 1.25C7.62348 1.25 9.24105 3.11759 9.24121 5.27832Z" fill="#1C252E"/>
<path d="M20.7402 17.2815C20.7401 15.821 19.6715 14.7532 18.4902 14.7532C17.309 14.7532 16.2404 15.821 16.2402 17.2815C16.2402 17.6234 16.4275 18.1605 16.7988 18.8274C17.1543 19.4656 17.6191 20.1208 18.041 20.6672C18.2671 20.96 18.3925 21.1166 18.4902 21.2122C18.588 21.1166 18.7134 20.96 18.9395 20.6672C19.3614 20.1208 19.8262 19.4656 20.1816 18.8274C20.553 18.1605 20.7402 17.6234 20.7402 17.2815ZM22.2402 17.2815C22.2402 18.0315 21.8818 18.8556 21.4912 19.5569C21.0847 20.2868 20.5711 21.008 20.127 21.5833C19.9173 21.8547 19.7034 22.1358 19.4873 22.3352C19.2397 22.5636 18.9189 22.7532 18.4902 22.7532C18.0615 22.7532 17.7408 22.5636 17.4932 22.3352C17.2771 22.1358 17.0631 21.8547 16.8535 21.5833C16.4093 21.008 15.8958 20.2868 15.4893 19.5569C15.0987 18.8556 14.7402 18.0315 14.7402 17.2815C14.7404 15.1208 16.358 13.2532 18.4902 13.2532C20.6225 13.2532 22.2401 15.1208 22.2402 17.2815Z" fill="#1C252E"/>
<path d="M14.6804 4.25C17.2242 4.25 18.4035 7.398 16.4949 9.07324L16.4939 9.07422L8.50463 16.0645L8.50268 16.0654C7.63678 16.8192 8.17252 18.2497 9.32006 18.25H12.0007C12.4148 18.2502 12.7507 18.5859 12.7507 19C12.7507 19.4141 12.4148 19.7498 12.0007 19.75H9.32006C6.78879 19.7497 5.60462 16.602 7.51635 14.9355L15.5066 7.94531C16.3765 7.18033 15.8362 5.75 14.6804 5.75H12.0007C11.5865 5.75 11.2507 5.41421 11.2507 5C11.2507 4.58579 11.5865 4.25 12.0007 4.25H14.6804Z" fill="#1C252E"/>
<path d="M5.49707 4C6.04936 4 6.49707 4.44772 6.49707 5C6.49707 5.55228 6.04936 6 5.49707 6H5.48535C4.93324 5.9998 4.48535 5.55216 4.48535 5C4.48535 4.44784 4.93324 4.0002 5.48535 4H5.49707Z" fill="#1C252E"/>
<path d="M18.4971 16.0367C19.0494 16.0367 19.4971 16.4845 19.4971 17.0367C19.4971 17.589 19.0494 18.0367 18.4971 18.0367H18.4854C17.9332 18.0365 17.4854 17.5889 17.4854 17.0367C17.4854 16.4846 17.9332 16.0369 18.4854 16.0367H18.4971Z" fill="#1C252E"/>
</svg>
