<svg width="24" height="24" viewBox="0 0 24 24" fill="none" xmlns="http://www.w3.org/2000/svg">
<path d="M11.3896 15.0703V13.1104C11.3896 10.1772 13.7647 7.79004 16.71 7.79004H18.6699C19.084 7.7902 19.4199 8.12593 19.4199 8.54004C19.4199 8.95415 19.084 9.28987 18.6699 9.29004H16.71C14.5952 9.29004 12.8896 11.0035 12.8896 13.1104V15.0703C12.8895 15.4844 12.5538 15.8203 12.1396 15.8203C11.7255 15.8203 11.3898 15.4844 11.3896 15.0703Z" fill="#1C252E"/>
<path d="M11.4004 17.2502V13.1204C11.4004 11.0056 9.68694 9.30005 7.58008 9.30005H5.62012C5.2059 9.30005 4.87012 8.96426 4.87012 8.55005C4.87012 8.13584 5.2059 7.80005 5.62012 7.80005H7.58008C10.5132 7.80005 12.9004 10.1751 12.9004 13.1204V17.2502C12.9003 17.6643 12.5644 18.0001 12.1504 18.0002C11.7362 18.0002 11.4005 17.6644 11.4004 17.2502Z" fill="#1C252E"/>
<path d="M6.60927 6.21975C6.90213 5.92688 7.37691 5.92694 7.66981 6.21975C7.96271 6.51264 7.96271 6.9874 7.66981 7.28029L6.40028 8.54983L7.66981 9.81936C7.96267 10.1122 7.9626 10.587 7.66981 10.8799C7.37692 11.1728 6.90216 11.1728 6.60927 10.8799L4.80946 9.0801C4.51667 8.7872 4.51661 8.31241 4.80946 8.01955L6.60927 6.21975Z" fill="#1C252E"/>
<path d="M16.329 6.21967C16.6219 5.92678 17.0967 5.92678 17.3896 6.21967L19.1894 8.01947C19.4823 8.31236 19.4823 8.78713 19.1894 9.08002L17.3896 10.8798C17.0967 11.1727 16.6219 11.1727 16.329 10.8798C16.0364 10.5869 16.0362 10.1121 16.329 9.81928L17.5986 8.54975L16.329 7.28022C16.0362 6.98732 16.0362 6.51256 16.329 6.21967Z" fill="#1C252E"/>
<path d="M21.25 9C21.25 6.57397 20.7603 5.0708 19.8447 4.15527C18.9292 3.23974 17.426 2.75 15 2.75H9C6.57397 2.75 5.0708 3.23974 4.15527 4.15527C3.23974 5.0708 2.75 6.57397 2.75 9V15C2.75 17.426 3.23974 18.9292 4.15527 19.8447C5.0708 20.7603 6.57397 21.25 9 21.25H15C17.426 21.25 18.9292 20.7603 19.8447 19.8447C20.7603 18.9292 21.25 17.426 21.25 15V9ZM22.75 15C22.75 17.574 22.2397 19.5708 20.9053 20.9053C19.5708 22.2397 17.574 22.75 15 22.75H9C6.42603 22.75 4.4292 22.2397 3.09473 20.9053C1.76026 19.5708 1.25 17.574 1.25 15V9C1.25 6.42603 1.76026 4.4292 3.09473 3.09473C4.4292 1.76026 6.42603 1.25 9 1.25H15C17.574 1.25 19.5708 1.76026 20.9053 3.09473C22.2397 4.4292 22.75 6.42603 22.75 9V15Z" fill="#1C252E"/>
</svg>
