<svg width="24" height="24" viewBox="0 0 24 24" fill="none" xmlns="http://www.w3.org/2000/svg">
<path d="M21.25 12C21.25 6.89421 17.1058 2.75 12 2.75C6.89421 2.75 2.75 6.89421 2.75 12C2.75 17.1058 6.89421 21.25 12 21.25C12.4142 21.25 12.75 21.5858 12.75 22C12.75 22.4142 12.4142 22.75 12 22.75C6.06579 22.75 1.25 17.9342 1.25 12C1.25 6.06579 6.06579 1.25 12 1.25C17.9342 1.25 22.75 6.06579 22.75 12C22.75 12.4142 22.4142 12.75 22 12.75C21.5858 12.75 21.25 12.4142 21.25 12Z" fill="#1C252E"/>
<path d="M9.00076 2.25C9.24177 2.25013 9.46828 2.36596 9.60916 2.56152C9.75004 2.75713 9.78798 3.00864 9.7117 3.2373C7.81318 8.92313 7.81318 15.0769 9.7117 20.7627C9.78798 20.9914 9.75004 21.2429 9.60916 21.4385C9.46828 21.634 9.24177 21.7499 9.00076 21.75H8.00076C7.58655 21.75 7.25076 21.4142 7.25076 21C7.25076 20.5928 7.57483 20.2622 7.97928 20.251C6.39111 14.866 6.39093 9.13299 7.97928 3.74805C7.57484 3.73685 7.25076 3.40714 7.25076 3C7.25076 2.58579 7.58655 2.25 8.00076 2.25H9.00076Z" fill="#1C252E"/>
<path d="M15.7103 12C15.7103 9.04055 15.2331 6.08025 14.2884 3.23631C14.1579 2.84326 14.3709 2.41864 14.764 2.28807C15.157 2.15759 15.5816 2.37061 15.7122 2.76366C16.7074 5.75967 17.2103 8.87947 17.2103 12C17.2103 12.4142 16.8745 12.75 16.4603 12.75C16.0461 12.75 15.7103 12.4142 15.7103 12Z" fill="#1C252E"/>
<path d="M2.56152 14.3916C2.75683 14.2509 3.00784 14.2122 3.23633 14.2881C6.08027 15.2328 9.04056 15.71 12 15.71C12.4142 15.71 12.75 16.0458 12.75 16.46C12.75 16.8742 12.4142 17.21 12 17.21C9.21995 17.21 6.44091 16.8094 3.74902 16.0186C3.73916 16.4242 3.408 16.75 3 16.75C2.58579 16.75 2.25 16.4142 2.25 16V15C2.25 14.7591 2.36613 14.5326 2.56152 14.3916Z" fill="#1C252E"/>
<path d="M2.76247 8.28844C8.75649 6.28707 15.2431 6.28707 21.2371 8.28844C21.63 8.41963 21.8419 8.84477 21.7107 9.23766C21.5794 9.63031 21.1552 9.84232 20.7625 9.71129C15.0766 7.81277 8.9229 7.81277 3.23708 9.71129C2.84433 9.84232 2.42011 9.63031 2.28884 9.23766C2.15765 8.84477 2.36958 8.41963 2.76247 8.28844Z" fill="#1C252E"/>
<path d="M20.6504 18.2002C20.6504 16.8472 19.5532 15.7501 18.2002 15.75C16.8471 15.75 15.75 16.8471 15.75 18.2002C15.7501 19.5532 16.8472 20.6504 18.2002 20.6504C19.5531 20.6503 20.6503 19.5531 20.6504 18.2002ZM22.1504 18.2002C22.1503 20.3816 20.3816 22.1503 18.2002 22.1504C16.0187 22.1504 14.2501 20.3816 14.25 18.2002C14.25 16.0187 16.0187 14.25 18.2002 14.25C20.3816 14.2501 22.1504 16.0187 22.1504 18.2002Z" fill="#1C252E"/>
<path d="M20.4697 20.4697C20.7626 20.1768 21.2373 20.1768 21.5302 20.4697L22.5302 21.4697C22.8231 21.7626 22.8231 22.2374 22.5302 22.5303C22.2373 22.8232 21.7626 22.8232 21.4697 22.5303L20.4697 21.5303C20.1768 21.2374 20.1768 20.7626 20.4697 20.4697Z" fill="#1C252E"/>
</svg>
