<svg width="24" height="24" viewBox="0 0 24 24" fill="none" xmlns="http://www.w3.org/2000/svg">
<path d="M1.25 12C1.25 10.0556 1.76596 8.22642 2.68066 6.64453C2.88756 6.28672 3.34469 6.16431 3.70312 6.37012L12.374 11.3496C12.7329 11.556 12.8566 12.015 12.6504 12.374C12.444 12.7329 11.985 12.8566 11.626 12.6504L3.63184 8.05762C3.06445 9.25475 2.75 10.5902 2.75 12C2.75 17.1058 6.89421 21.25 12 21.25C17.1058 21.25 21.25 17.1058 21.25 12C21.25 6.89421 17.1058 2.75 12 2.75C9.9191 2.75 7.99528 3.44336 6.44922 4.60059C6.11762 4.84861 5.64757 4.78076 5.39941 4.44922C5.15139 4.11762 5.21924 3.64757 5.55078 3.39941C7.34469 2.05674 9.58099 1.25 12 1.25C17.9342 1.25 22.75 6.06579 22.75 12C22.75 17.9342 17.9342 22.75 12 22.75C6.06579 22.75 1.25 17.9342 1.25 12Z" fill="#1C252E"/>
<path d="M5.25 12C5.25 10.7532 5.58729 9.58079 6.18555 8.57617C6.39749 8.22031 6.85799 8.1035 7.21387 8.31543C7.5697 8.52735 7.68647 8.98788 7.47461 9.34375C7.01286 10.1191 6.75 11.0268 6.75 12C6.75 14.8958 9.10421 17.25 12 17.25C14.8958 17.25 17.25 14.8958 17.25 12C17.25 9.10421 14.8958 6.75 12 6.75C11.1999 6.75 10.4407 6.92591 9.77441 7.24609C9.40114 7.4252 8.95375 7.26775 8.77441 6.89453C8.59508 6.5212 8.75168 6.07294 9.125 5.89355C9.99866 5.47375 10.9801 5.25 12 5.25C15.7242 5.25 18.75 8.27579 18.75 12C18.75 15.7242 15.7242 18.75 12 18.75C8.27579 18.75 5.25 15.7242 5.25 12Z" fill="#1C252E"/>
</svg>
