<svg width="24" height="24" viewBox="0 0 24 24" fill="none" xmlns="http://www.w3.org/2000/svg">
<path d="M14.7314 5.92215C16.7757 5.30055 18.7172 7.2163 18.0653 9.27176L15.7265 16.8128L15.7255 16.8138C14.9509 19.2898 11.46 19.3467 10.6376 16.8665V16.8655L9.93936 14.8001L9.93839 14.7972C9.82043 14.4434 9.54307 14.1697 9.21378 14.0657L9.20108 14.0608L7.12296 13.3606V13.3616C4.66554 12.5425 4.69794 9.03073 7.18643 8.27371L14.7265 5.92411L14.7314 5.92215ZM16.6357 8.82157C16.9176 7.9395 16.0813 7.07997 15.1679 7.3577L15.1669 7.35672L7.63272 9.70633L7.62686 9.70829C6.54214 10.0355 6.51658 11.5784 7.59659 11.9388H7.59952L9.67862 12.6389H9.67764C10.4813 12.8972 11.0989 13.5388 11.3603 14.3196L12.0605 16.3899L12.0614 16.3938C12.4192 17.4732 13.9483 17.4699 14.2939 16.3665L16.6337 8.82743L16.6357 8.82157Z" fill="#1C252E"/>
<path d="M21.25 9C21.25 6.57397 20.7603 5.0708 19.8447 4.15527C18.9292 3.23974 17.426 2.75 15 2.75H9C6.57397 2.75 5.0708 3.23974 4.15527 4.15527C3.23974 5.0708 2.75 6.57397 2.75 9V15C2.75 17.426 3.23974 18.9292 4.15527 19.8447C5.0708 20.7603 6.57397 21.25 9 21.25H15C17.426 21.25 18.9292 20.7603 19.8447 19.8447C20.7603 18.9292 21.25 17.426 21.25 15V9ZM22.75 15C22.75 17.574 22.2397 19.5708 20.9053 20.9053C19.5708 22.2397 17.574 22.75 15 22.75H9C6.42603 22.75 4.4292 22.2397 3.09473 20.9053C1.76026 19.5708 1.25 17.574 1.25 15V9C1.25 6.42603 1.76026 4.4292 3.09473 3.09473C4.4292 1.76026 6.42603 1.25 9 1.25H15C17.574 1.25 19.5708 1.76026 20.9053 3.09473C22.2397 4.4292 22.75 6.42603 22.75 9V15Z" fill="#1C252E"/>
</svg>
