<svg width="24" height="24" viewBox="0 0 24 24" fill="none" xmlns="http://www.w3.org/2000/svg">
<path d="M21.25 12C21.25 6.91421 17.0858 2.75 12 2.75C6.91421 2.75 2.75 6.91421 2.75 12C2.75 17.0858 6.91421 21.25 12 21.25C17.0858 21.25 21.25 17.0858 21.25 12ZM22.75 12C22.75 17.9142 17.9142 22.75 12 22.75C6.08579 22.75 1.25 17.9142 1.25 12C1.25 6.08579 6.08579 1.25 12 1.25C17.9142 1.25 22.75 6.08579 22.75 12Z" fill="#1C252E"/>
<path d="M15.25 10.5C15.25 9.54421 14.4558 8.75 13.5 8.75C10.8851 8.75 8.75 10.8933 8.75 13.5C8.75 14.4577 9.53616 15.25 10.5 15.25C13.1058 15.25 15.25 13.1058 15.25 10.5ZM16.75 10.5C16.75 13.9342 13.9342 16.75 10.5 16.75C8.70384 16.75 7.25 15.2823 7.25 13.5C7.25 10.0667 10.0549 7.25 13.5 7.25C15.2842 7.25 16.75 8.71579 16.75 10.5Z" fill="#1C252E"/>
</svg>
