<svg width="24" height="24" viewBox="0 0 24 24" fill="none" xmlns="http://www.w3.org/2000/svg">
<path d="M2.67929 7.66572C0.964081 4.2353 4.65244 0.617112 8.04843 2.40693L19.6392 8.50654C22.4532 9.98781 22.4533 14.0127 19.6392 15.4938L8.04941 21.5935L8.04745 21.5944C4.65743 23.3694 0.961386 19.7705 2.67929 16.3347L4.29941 13.0944C4.64368 12.4056 4.64378 11.5937 4.29941 10.905L2.67929 7.66572ZM7.35019 3.7331C5.24638 2.62382 2.95544 4.86548 4.02011 6.99482L5.64023 10.2351C6.19568 11.3461 6.19576 12.6543 5.64023 13.7653L4.02011 17.0056C2.95842 19.1296 5.24232 21.3701 7.35214 20.2653L18.94 14.1667C20.6858 13.2479 20.6858 10.7525 18.94 9.83368L7.35019 3.73408V3.7331Z" fill="#1C252E"/>
</svg>
