<svg width="24" height="24" viewBox="0 0 24 24" fill="none" xmlns="http://www.w3.org/2000/svg">
<path d="M21.25 16.2197V6.4902C21.25 5.70208 20.9759 5.33824 20.7432 5.20309C20.5105 5.06823 20.0613 5.0115 19.3828 5.40036L19.3818 5.40134L17.0312 6.74118C16.6434 6.96173 16.1748 7.06161 15.7441 7.07419C15.3158 7.08666 14.8407 7.01536 14.4355 6.81052L9.18945 4.19333L9.07715 4.14938C8.9494 4.10944 8.77889 4.08395 8.58691 4.08884C8.33048 4.09539 8.12015 4.15397 8.00098 4.22165L3.67285 6.70114C3.5346 6.78021 3.36717 6.94579 3.2334 7.17575C3.09921 7.40644 3.04004 7.6299 3.04004 7.78024V17.5097C3.04004 18.2978 3.31412 18.6607 3.54688 18.7959C3.77942 18.9309 4.22842 18.9886 4.90723 18.5996L4.9082 18.5986L7.25879 17.2588L7.25977 17.2578C7.64755 17.0374 8.11537 16.9383 8.5459 16.9258C8.97475 16.9133 9.4509 16.984 9.85645 17.1894L15.1006 19.8164L15.2129 19.8603C15.3406 19.9003 15.5111 19.9267 15.7031 19.9218C15.9596 19.9153 16.1699 19.8557 16.2891 19.7881L20.6133 17.3115L20.7207 17.2363C20.832 17.1448 20.9519 17.0065 21.0537 16.832C21.1896 16.599 21.25 16.3735 21.25 16.2197ZM22.75 16.2197C22.75 16.7058 22.5811 17.1909 22.3496 17.5879C22.1178 17.9852 21.7806 18.3678 21.3672 18.6084L21.3633 18.6103L17.0332 21.0908L17.0312 21.0918C16.6404 21.314 16.1696 21.4099 15.7412 21.4209C15.3123 21.4318 14.8401 21.3596 14.4395 21.1631L14.4346 21.1601L9.18457 18.5302L9.17969 18.5283C9.05627 18.4654 8.8443 18.4174 8.58984 18.4248C8.33606 18.4322 8.12323 18.4912 8.00098 18.5605L5.65234 19.8994L5.65332 19.9004C4.69215 20.4513 3.64542 20.5887 2.79297 20.0937C1.94091 19.5988 1.54004 18.6215 1.54004 17.5097V7.78024C1.54004 7.3007 1.70579 6.8186 1.93652 6.42184C2.16767 6.02445 2.50604 5.63937 2.92773 5.39841L7.25684 2.91891L7.25977 2.91794C7.65056 2.69582 8.12059 2.59978 8.54883 2.58884C8.92417 2.5793 9.33262 2.63294 9.69727 2.77829L9.85059 2.84665L15.1104 5.47165L15.2188 5.51559C15.3423 5.55532 15.5093 5.58069 15.7002 5.57516C15.9537 5.56776 16.1658 5.50763 16.2881 5.43845L18.6387 4.0986C19.5994 3.54839 20.6451 3.4115 21.4971 3.90622C22.3491 4.40112 22.75 5.37844 22.75 6.4902V16.2197Z" fill="#1C252E"/>
<path d="M7.80957 17V4C7.80957 3.58579 8.14536 3.25 8.55957 3.25C8.97378 3.25 9.30957 3.58579 9.30957 4V17C9.30957 17.4142 8.97378 17.75 8.55957 17.75C8.14536 17.75 7.80957 17.4142 7.80957 17Z" fill="#1C252E"/>
<path d="M14.9805 19.9999V6.62C14.9805 6.20578 15.3163 5.87 15.7305 5.87C16.1447 5.87 16.4805 6.20578 16.4805 6.62V19.9999C16.4805 20.4141 16.1447 20.7499 15.7305 20.7499C15.3163 20.7499 14.9805 20.4141 14.9805 19.9999Z" fill="#1C252E"/>
</svg>
