<svg width="24" height="24" viewBox="0 0 24 24" fill="none" xmlns="http://www.w3.org/2000/svg">
<path d="M15.9512 2.40698C19.3472 0.617026 23.0366 4.23531 21.3213 7.66577L19.7012 10.905C19.3568 11.5939 19.3568 12.4056 19.7012 13.0945L21.3213 16.3347C23.039 19.7705 19.3422 23.3695 15.9522 21.5945L15.9512 21.5935L4.36041 15.4939C1.54648 14.0127 1.54658 9.9879 4.36041 8.50659L15.9512 2.406V2.40698ZM19.9796 6.99487C21.0442 4.86554 18.7533 2.62387 16.6495 3.73315V3.73413L5.05963 9.83374C3.31388 10.7526 3.31388 13.2479 5.05963 14.1667L16.6475 20.2654C18.7574 21.3702 21.0413 19.1297 19.9796 17.0056L18.3594 13.7654C17.8039 12.6543 17.804 11.3462 18.3594 10.2351L19.9796 6.99487Z" fill="#1C252E"/>
</svg>
