<svg width="24" height="24" viewBox="0 0 24 24" fill="none" xmlns="http://www.w3.org/2000/svg">
<path d="M18.7499 12C18.7499 11.0344 18.5518 10.1258 18.1923 9.29885C18.0272 8.91902 18.2011 8.47767 18.581 8.31252C18.9608 8.14737 19.4021 8.32133 19.5673 8.7012C20.0077 9.71421 20.2499 10.8257 20.2499 12C20.2499 16.5542 16.5541 20.25 11.9999 20.25C10.8256 20.25 9.71408 20.0078 8.70107 19.5674C8.32121 19.4022 8.14724 18.9609 8.3124 18.5811C8.47755 18.2013 8.9189 18.0273 9.29873 18.1924C10.1257 18.552 11.0342 18.75 11.9999 18.75C15.7257 18.75 18.7499 15.7258 18.7499 12Z" fill="#1C252E"/>
<path d="M3.75 12C3.75 7.44579 7.44579 3.75 12 3.75C14.2215 3.75 16.2462 4.63026 17.7305 6.05957C18.0288 6.34689 18.0373 6.82176 17.75 7.12012C17.4627 7.41841 16.9878 7.42789 16.6895 7.14062C15.4737 5.96993 13.8185 5.25 12 5.25C8.27421 5.25 5.25 8.27421 5.25 12C5.25 13.8097 5.96038 15.4561 7.12207 16.6719C7.40823 16.9713 7.39713 17.4463 7.09766 17.7324C6.7982 18.0182 6.32415 18.0073 6.03809 17.708C4.61981 16.2238 3.75 14.2102 3.75 12Z" fill="#1C252E"/>
<path d="M11.25 4V2C11.25 1.58579 11.5858 1.25 12 1.25C12.4142 1.25 12.75 1.58579 12.75 2V4C12.75 4.41421 12.4142 4.75 12 4.75C11.5858 4.75 11.25 4.41421 11.25 4Z" fill="#1C252E"/>
<path d="M4 11.25C4.41421 11.25 4.75 11.5858 4.75 12C4.75 12.4142 4.41421 12.75 4 12.75H2C1.58579 12.75 1.25 12.4142 1.25 12C1.25 11.5858 1.58579 11.25 2 11.25H4Z" fill="#1C252E"/>
<path d="M11.25 22V20C11.25 19.5858 11.5858 19.25 12 19.25C12.4142 19.25 12.75 19.5858 12.75 20V22C12.75 22.4142 12.4142 22.75 12 22.75C11.5858 22.75 11.25 22.4142 11.25 22Z" fill="#1C252E"/>
<path d="M22 11.25C22.4142 11.25 22.75 11.5858 22.75 12C22.75 12.4142 22.4142 12.75 22 12.75H20C19.5858 12.75 19.25 12.4142 19.25 12C19.25 11.5858 19.5858 11.25 20 11.25H22Z" fill="#1C252E"/>
<path d="M12 8.25C13.0388 8.25 13.9769 8.67611 14.6504 9.34961C14.9432 9.64246 14.9432 10.1173 14.6504 10.4102L10.4102 14.6504C10.1173 14.9432 9.64246 14.9432 9.34961 14.6504C8.67611 13.9769 8.25 13.0388 8.25 12C8.25 9.92579 9.92579 8.25 12 8.25ZM9.75 12C9.75 12.3466 9.83119 12.6738 9.97168 12.9668L12.9668 9.97168C12.6738 9.83119 12.3466 9.75 12 9.75C10.7542 9.75 9.75 10.7542 9.75 12Z" fill="#1C252E"/>
<path d="M21.4697 1.46967C21.7626 1.17678 22.2373 1.17678 22.5302 1.46967C22.8231 1.76256 22.8231 2.23732 22.5302 2.53022L2.53022 22.5302C2.23732 22.8231 1.76256 22.8231 1.46967 22.5302C1.17678 22.2373 1.17678 21.7626 1.46967 21.4697L21.4697 1.46967Z" fill="#1C252E"/>
</svg>
