<svg width="24" height="24" viewBox="0 0 24 24" fill="none" xmlns="http://www.w3.org/2000/svg">
<path d="M21.25 12C21.25 6.89421 17.1058 2.75 12 2.75C6.89421 2.75 2.75 6.89421 2.75 12C2.75 17.1058 6.89421 21.25 12 21.25C12.4142 21.25 12.75 21.5858 12.75 22C12.75 22.4142 12.4142 22.75 12 22.75C6.06579 22.75 1.25 17.9342 1.25 12C1.25 6.06579 6.06579 1.25 12 1.25C17.9342 1.25 22.75 6.06579 22.75 12C22.75 12.4142 22.4142 12.75 22 12.75C21.5858 12.75 21.25 12.4142 21.25 12Z" fill="#1C252E"/>
<path d="M9.00076 2.25C9.24177 2.25013 9.46828 2.36596 9.60916 2.56152C9.75004 2.75713 9.78798 3.00864 9.7117 3.2373C7.81318 8.92313 7.81318 15.0769 9.7117 20.7627C9.78798 20.9914 9.75004 21.2429 9.60916 21.4385C9.46828 21.634 9.24177 21.7499 9.00076 21.75H8.00076C7.58655 21.75 7.25076 21.4142 7.25076 21C7.25076 20.5928 7.57483 20.2622 7.97928 20.251C6.39111 14.866 6.39093 9.13299 7.97928 3.74805C7.57484 3.73685 7.25076 3.40714 7.25076 3C7.25076 2.58579 7.58655 2.25 8.00076 2.25H9.00076Z" fill="#1C252E"/>
<path d="M15.7103 12C15.7103 9.04055 15.2331 6.08025 14.2884 3.23631C14.1579 2.84326 14.3709 2.41864 14.764 2.28807C15.157 2.15759 15.5816 2.37061 15.7122 2.76366C16.7074 5.75967 17.2103 8.87947 17.2103 12C17.2103 12.4142 16.8745 12.75 16.4603 12.75C16.0461 12.75 15.7103 12.4142 15.7103 12Z" fill="#1C252E"/>
<path d="M2.56152 14.3916C2.75683 14.2509 3.00784 14.2122 3.23633 14.2881C6.08027 15.2328 9.04056 15.71 12 15.71C12.4142 15.71 12.75 16.0458 12.75 16.46C12.75 16.8742 12.4142 17.21 12 17.21C9.21995 17.21 6.44091 16.8094 3.74902 16.0186C3.73916 16.4242 3.408 16.75 3 16.75C2.58579 16.75 2.25 16.4142 2.25 16V15C2.25 14.7591 2.36613 14.5326 2.56152 14.3916Z" fill="#1C252E"/>
<path d="M2.76247 8.28844C8.75649 6.28707 15.2431 6.28707 21.2371 8.28844C21.63 8.41963 21.8419 8.84477 21.7107 9.23766C21.5794 9.63031 21.1552 9.84232 20.7625 9.71129C15.0766 7.81277 8.9229 7.81277 3.23708 9.71129C2.84433 9.84232 2.42011 9.63031 2.28884 9.23766C2.15765 8.84477 2.36958 8.41963 2.76247 8.28844Z" fill="#1C252E"/>
<path d="M20.1337 14.4268C20.7966 14.3588 21.4067 14.656 21.9501 15.1992C22.4966 15.7458 22.798 16.3577 22.7323 17.0225C22.6704 17.6476 22.2977 18.1328 21.9501 18.4805L18.41 22.0205L18.409 22.0195C18.2639 22.169 18.0887 22.2798 17.9432 22.3525C17.7874 22.4305 17.5977 22.5011 17.4071 22.5313L17.3944 22.5332V22.5322L16.0448 22.7217L16.0458 22.7227C15.6041 22.7857 15.1483 22.6699 14.8192 22.3408C14.4901 22.0118 14.3744 21.556 14.4374 21.1143L14.6268 19.7656L14.6288 19.7529C14.6594 19.5593 14.7319 19.3711 14.8094 19.2178C14.887 19.0645 14.9973 18.8923 15.1395 18.75L18.6796 15.21C19.0272 14.8623 19.5115 14.4907 20.1337 14.4268ZM20.287 15.919C20.1791 15.93 20.0024 16.0082 19.7401 16.2705L16.2001 19.8106C16.1978 19.8133 16.1934 19.82 16.1864 19.8301C16.1746 19.8472 16.1612 19.8692 16.1483 19.8945C16.1353 19.9202 16.1249 19.945 16.118 19.9648C16.114 19.9765 16.112 19.984 16.1112 19.9873L16.1102 19.9863L15.9364 21.2227L17.1737 21.0479C17.1776 21.0469 17.1866 21.0456 17.2001 21.041C17.2214 21.0337 17.2468 21.0235 17.2723 21.0107C17.298 20.9979 17.3183 20.985 17.3319 20.9756C17.3388 20.9708 17.3417 20.9678 17.3417 20.9678L20.8895 17.4199C21.1518 17.1576 21.2295 16.9824 21.2401 16.875C21.2468 16.8073 21.2428 16.614 20.8895 16.2607C20.5437 15.9149 20.3541 15.9121 20.287 15.919Z" fill="#1C252E"/>
<path d="M18.4992 15.5274C18.8982 15.4165 19.312 15.65 19.4231 16.0489C19.6527 16.8754 20.2947 17.5175 21.1213 17.7471C21.5204 17.858 21.7536 18.2719 21.6428 18.6709C21.5318 19.0698 21.1189 19.3031 20.7199 19.1924C19.3866 18.822 18.3483 17.7845 17.9777 16.4512C17.8669 16.0522 18.1004 15.6384 18.4992 15.5274Z" fill="#1C252E"/>
</svg>
