<svg width="24" height="24" viewBox="0 0 24 24" fill="none" xmlns="http://www.w3.org/2000/svg">
<path d="M8.50683 4.36041C9.98814 1.54658 14.0129 1.54648 15.4941 4.36041L21.5937 15.9512L21.5947 15.9522C23.3698 19.3422 19.7707 23.039 16.335 21.3213L13.0947 19.7012C12.4059 19.3568 11.5941 19.3568 10.9053 19.7012L7.66601 21.3213C4.23556 23.0366 0.61727 19.3472 2.40723 15.9512H2.40625L8.50683 4.36041ZM14.167 5.05963C13.2482 3.31388 10.7528 3.31388 9.83398 5.05963L3.73437 16.6495H3.7334C2.62412 18.7533 4.86578 21.0442 6.99512 19.9796L10.2354 18.3594C11.3464 17.804 12.6546 17.8039 13.7656 18.3594L17.0059 19.9796C19.1294 21.0411 21.3696 18.7589 20.2666 16.6495L14.167 5.05963Z" fill="#1C252E"/>
</svg>
