<svg width="24" height="24" viewBox="0 0 24 24" fill="none" xmlns="http://www.w3.org/2000/svg">
<path d="M21.25 9C21.25 6.57397 20.7603 5.0708 19.8447 4.15527C18.9292 3.23974 17.426 2.75 15 2.75H9C6.57397 2.75 5.0708 3.23974 4.15527 4.15527C3.23974 5.0708 2.75 6.57397 2.75 9V15C2.75 17.426 3.23974 18.9292 4.15527 19.8447C5.0708 20.7603 6.57397 21.25 9 21.25H15C17.426 21.25 18.9292 20.7603 19.8447 19.8447C20.7603 18.9292 21.25 17.426 21.25 15V9ZM22.75 15C22.75 17.574 22.2397 19.5708 20.9053 20.9053C19.5708 22.2397 17.574 22.75 15 22.75H9C6.42603 22.75 4.4292 22.2397 3.09473 20.9053C1.76026 19.5708 1.25 17.574 1.25 15V9C1.25 6.42603 1.76026 4.4292 3.09473 3.09473C4.4292 1.76026 6.42603 1.25 9 1.25H15C17.574 1.25 19.5708 1.76026 20.9053 3.09473C22.2397 4.4292 22.75 6.42603 22.75 9V15Z" fill="#1C252E"/>
<path d="M8.819 1.27151C9.22097 1.17202 9.62852 1.41748 9.72818 1.81936L14.6774 21.8194C14.7769 22.2214 14.5316 22.629 14.1295 22.7285C13.7277 22.8278 13.321 22.5824 13.2213 22.1807L8.27115 2.18069C8.17166 1.77872 8.41711 1.37117 8.819 1.27151Z" fill="#1C252E"/>
<path d="M11.3203 11.5003C11.7178 11.3844 12.134 11.6125 12.2499 12.01C12.3659 12.4076 12.1377 12.8236 11.7402 12.9397L2.20991 15.72C1.81237 15.8359 1.39632 15.6077 1.28022 15.2102C1.16422 14.8126 1.39234 14.3955 1.78999 14.2796L11.3203 11.5003Z" fill="#1C252E"/>
</svg>
