<svg width="24" height="24" viewBox="0 0 24 24" fill="none" xmlns="http://www.w3.org/2000/svg">
<path d="M18.7092 9.49C18.6092 9.49 18.5091 9.47 18.4091 9.43C18.0291 9.26 17.8591 8.82001 18.0191 8.44001C18.2091 8.01001 18.0991 7.37999 17.7491 6.85999C17.3991 6.32999 16.8692 5.98 16.3792 6C15.9392 6 15.6291 5.67001 15.6191 5.26001C15.6191 4.84001 15.9491 4.51 16.3591 4.5C17.3891 4.48 18.3592 5.07002 18.9892 6.02002C19.6292 6.98002 19.7791 8.13003 19.3891 9.03003C19.2791 9.32003 18.9992 9.49 18.7092 9.49Z" fill="#1C252E"/>
<path d="M21.8201 10.48C21.7501 10.48 21.6901 10.47 21.6201 10.45C21.2201 10.34 20.9901 9.93005 21.1001 9.53005C21.4801 8.17005 21.1601 6.55002 20.2501 5.19003C19.3401 3.83003 17.9601 2.92002 16.5501 2.75002C16.1401 2.70002 15.8501 2.33001 15.9001 1.92001C15.9501 1.51001 16.3301 1.21004 16.7301 1.27004C18.5601 1.49004 20.3401 2.65002 21.4901 4.37002C22.6401 6.09002 23.0301 8.17004 22.5401 9.95004C22.4501 10.26 22.1501 10.48 21.8201 10.48Z" fill="#1C252E"/>
<path opacity="0.4" d="M17.5203 15.84C17.4103 14.62 17.0803 13.31 14.7003 13.31H5.23028C2.85028 13.31 2.53029 14.62 2.41029 15.84L1.99029 20.36C1.94029 20.92 2.13028 21.49 2.51028 21.91C2.90028 22.34 3.46029 22.59 4.05029 22.59H5.44029C6.64029 22.59 6.87029 21.9 7.02029 21.45L7.17028 21.01C7.34028 20.5 7.38029 20.37 8.05029 20.37H11.8503C12.5103 20.37 12.5403 20.44 12.7303 21.01L12.8803 21.46C13.0303 21.91 13.2603 22.6 14.4603 22.6H15.8503C16.4403 22.6 17.0003 22.35 17.3903 21.92C17.7703 21.5 17.9603 20.93 17.9103 20.37L17.5203 15.84Z" fill="#1C252E"/>
<path d="M16.6502 11.09H15.9102C15.9002 11.09 15.9002 11.09 15.8902 11.09L15.6102 9.73999C15.3402 8.43999 14.7902 7.25 12.5802 7.25H10.5302H9.42023H7.37022C5.16022 7.25 4.60023 8.43999 4.34023 9.73999L4.06023 11.09C4.05023 11.09 4.05022 11.09 4.04022 11.09H3.30023C2.99023 11.09 2.74023 11.34 2.74023 11.65C2.74023 11.96 2.99023 12.21 3.30023 12.21H3.83023L3.52023 13.69C3.92023 13.46 4.48023 13.32 5.25023 13.32H14.7202C15.4902 13.32 16.0502 13.46 16.4502 13.69L16.1402 12.21H16.6702C16.9802 12.21 17.2302 11.96 17.2302 11.65C17.2102 11.34 16.9602 11.09 16.6502 11.09Z" fill="#1C252E"/>
<path d="M7.75093 17.39H5.52094C5.21094 17.39 4.96094 17.14 4.96094 16.83C4.96094 16.52 5.21094 16.27 5.52094 16.27H7.75093C8.06093 16.27 8.31093 16.52 8.31093 16.83C8.30093 17.14 8.06093 17.39 7.75093 17.39Z" fill="#1C252E"/>
<path d="M14.4306 17.39H12.2006C11.8906 17.39 11.6406 17.14 11.6406 16.83C11.6406 16.52 11.8906 16.27 12.2006 16.27H14.4306C14.7406 16.27 14.9906 16.52 14.9906 16.83C14.9806 17.14 14.7306 17.39 14.4306 17.39Z" fill="#1C252E"/>
</svg>
