<svg width="24" height="24" viewBox="0 0 24 24" fill="none" xmlns="http://www.w3.org/2000/svg">
<path d="M9.96055 14.04V12.93C9.96055 12.5 9.64055 12.29 9.25055 12.46L4.24055 14.62C3.45055 14.96 2.81055 14.54 2.81055 13.69V12.37C2.81055 11.69 3.32055 10.9 3.95055 10.64L9.65055 8.19C9.81055 8.11 9.95055 7.9 9.95055 7.72V4.66C9.95055 3.7 10.6605 2.55 11.5105 2.11C11.8105 1.96 12.1705 1.96 12.4705 2.11C13.3305 2.55 14.0405 3.69 14.0405 4.65V7.71C14.0405 7.89 14.1805 8.1 14.3405 8.18L15.3805 8.62L9.96055 14.04Z" fill="#1C252E"/>
<path opacity="0.4" d="M21.1892 12.37V13.69C21.1892 14.54 20.5492 14.96 19.7592 14.62L14.7492 12.46C14.3492 12.3 14.0392 12.5 14.0392 12.93V15.84C14.0392 16.07 14.1692 16.4 14.3392 16.56L16.6592 18.89C16.8992 19.13 17.0092 19.61 16.8992 19.94L16.4492 21.3C16.2492 21.89 15.5792 22.16 15.0292 21.89L12.6492 19.89C12.2892 19.58 11.6992 19.58 11.3392 19.89L8.95918 21.89C8.40918 22.17 7.73918 21.89 7.55918 21.3L7.10918 19.94C6.99918 19.6 7.10918 19.13 7.34918 18.89L9.66918 16.56C9.82918 16.4 9.95918 16.07 9.95918 15.84V14.04L15.3792 8.62L20.0492 10.63C20.6792 10.9 21.1892 11.69 21.1892 12.37Z" fill="#1C252E"/>
</svg>
