<svg width="24" height="24" viewBox="0 0 24 24" fill="none" xmlns="http://www.w3.org/2000/svg">
<path opacity="0.4" d="M22.1796 13.66C22.0296 12.01 21.5896 10.25 18.3796 10.25H5.6196C2.4096 10.25 1.9796 12.01 1.8196 13.66L1.2596 19.75C1.1896 20.51 1.4396 21.27 1.9596 21.84C2.4896 22.42 3.2396 22.75 4.0396 22.75H5.9196C7.5396 22.75 7.8496 21.82 8.0496 21.21L8.2496 20.61C8.4796 19.92 8.5396 19.75 9.4396 19.75H14.5596C15.4596 19.75 15.4896 19.85 15.7496 20.61L15.9496 21.21C16.1496 21.82 16.4596 22.75 18.0796 22.75H19.9596C20.7496 22.75 21.5096 22.42 22.0396 21.84C22.5596 21.27 22.8096 20.51 22.7396 19.75L22.1796 13.66Z" fill="#1C252E"/>
<path d="M21 7.24999H20C19.99 7.24999 19.99 7.24999 19.98 7.24999L19.6 5.43999C19.24 3.68999 18.49 2.07999 15.51 2.07999H12.75H11.25H8.49C5.51 2.07999 4.76 3.68999 4.4 5.43999L4.02 7.24999C4.01 7.24999 4.01 7.24999 4 7.24999H3C2.59 7.24999 2.25 7.58999 2.25 7.99999C2.25 8.40999 2.59 8.74999 3 8.74999H3.71L3.29 10.75C3.83 10.44 4.58 10.25 5.62 10.25H18.38C19.42 10.25 20.17 10.44 20.71 10.75L20.29 8.74999H21C21.41 8.74999 21.75 8.40999 21.75 7.99999C21.75 7.58999 21.41 7.24999 21 7.24999Z" fill="#1C252E"/>
<path d="M9 15.75H6C5.59 15.75 5.25 15.41 5.25 15C5.25 14.59 5.59 14.25 6 14.25H9C9.41 14.25 9.75 14.59 9.75 15C9.75 15.41 9.41 15.75 9 15.75Z" fill="#1C252E"/>
<path d="M18 15.75H15C14.59 15.75 14.25 15.41 14.25 15C14.25 14.59 14.59 14.25 15 14.25H18C18.41 14.25 18.75 14.59 18.75 15C18.75 15.41 18.41 15.75 18 15.75Z" fill="#1C252E"/>
</svg>
