<svg width="24" height="24" viewBox="0 0 24 24" fill="none" xmlns="http://www.w3.org/2000/svg">
<path d="M12 18.75C11.59 18.75 11.25 18.41 11.25 18V17C11.25 16.59 11.59 16.25 12 16.25C12.41 16.25 12.75 16.59 12.75 17V18C12.75 18.41 12.41 18.75 12 18.75Z" fill="#1C252E"/>
<path d="M12 22.75C11.59 22.75 11.25 22.41 11.25 22V21C11.25 20.59 11.59 20.25 12 20.25C12.41 20.25 12.75 20.59 12.75 21V22C12.75 22.41 12.41 22.75 12 22.75Z" fill="#1C252E"/>
<path d="M2.00009 22.75C1.94009 22.75 1.8801 22.74 1.8201 22.73C1.4201 22.63 1.1701 22.22 1.2701 21.82L2.2701 17.82C2.3701 17.42 2.77009 17.17 3.18009 17.27C3.58009 17.37 3.83009 17.78 3.73009 18.18L2.73009 22.18C2.64009 22.52 2.34009 22.75 2.00009 22.75Z" fill="#1C252E"/>
<path d="M22.0007 22.75C21.6607 22.75 21.3607 22.52 21.2707 22.18L20.2707 18.18C20.1707 17.78 20.4107 17.37 20.8207 17.27C21.2207 17.17 21.6307 17.41 21.7307 17.82L22.7307 21.82C22.8307 22.22 22.5907 22.63 22.1807 22.73C22.1207 22.74 22.0607 22.75 22.0007 22.75Z" fill="#1C252E"/>
<path opacity="0.4" d="M19.2602 9.52002C19.1502 8.34002 18.8402 7.09003 16.5502 7.09003H7.45024C5.16024 7.09003 4.85024 8.35002 4.74024 9.52002L4.34024 13.86C4.29024 14.4 4.47024 14.94 4.84024 15.35C5.22024 15.76 5.76025 16 6.32025 16H7.66024C8.81024 16 9.03023 15.34 9.18023 14.9L9.32025 14.47C9.48025 13.98 9.52024 13.86 10.1702 13.86H13.8202C14.4602 13.86 14.4802 13.93 14.6702 14.47L14.8102 14.9C14.9602 15.34 15.1802 16 16.3302 16H17.6702C18.2302 16 18.7702 15.76 19.1502 15.35C19.5202 14.95 19.7002 14.4 19.6502 13.86L19.2602 9.52002Z" fill="#1C252E"/>
<path d="M18.4208 4.94H17.7108C17.7008 4.94 17.7008 4.94 17.7008 4.94L17.4308 3.65002C17.1708 2.40002 16.6408 1.25 14.5108 1.25H12.5408H11.4708H9.50078C7.37078 1.25 6.84078 2.40002 6.58078 3.65002L6.31078 4.94C6.30078 4.94 6.30078 4.94 6.30078 4.94H5.59077C5.29077 4.94 5.05078 5.17998 5.05078 5.47998C5.05078 5.77998 5.29077 6.02002 5.59077 6.02002H6.10078L5.80078 7.45001C6.19078 7.23001 6.72078 7.09003 7.46078 7.09003H16.5608C17.3008 7.09003 17.8408 7.23001 18.2208 7.45001L17.9208 6.02002H18.4308C18.7308 6.02002 18.9708 5.77998 18.9708 5.47998C18.9608 5.17998 18.7208 4.94 18.4208 4.94Z" fill="#1C252E"/>
<path d="M9.8597 11.01H7.7197C7.4197 11.01 7.17969 10.77 7.17969 10.47C7.17969 10.17 7.4197 9.92999 7.7197 9.92999H9.8597C10.1597 9.92999 10.3997 10.17 10.3997 10.47C10.3897 10.77 10.1497 11.01 9.8597 11.01Z" fill="#1C252E"/>
<path d="M16.2796 11.01H14.1396C13.8396 11.01 13.5996 10.77 13.5996 10.47C13.5996 10.17 13.8396 9.92999 14.1396 9.92999H16.2796C16.5796 9.92999 16.8196 10.17 16.8196 10.47C16.8196 10.77 16.5796 11.01 16.2796 11.01Z" fill="#1C252E"/>
</svg>
