<svg width="24" height="24" viewBox="0 0 24 24" fill="none" xmlns="http://www.w3.org/2000/svg">
<path d="M15.0002 22.75C14.7302 22.75 14.4802 22.6 14.3502 22.37C14.2202 22.14 14.2202 21.85 14.3602 21.62L15.4102 19.87C15.6202 19.51 16.0802 19.4 16.4402 19.61C16.8002 19.82 16.9102 20.28 16.7002 20.64L16.4302 21.09C19.1902 20.44 21.2602 17.96 21.2602 15C21.2602 14.59 21.6002 14.25 22.0102 14.25C22.4202 14.25 22.7602 14.59 22.7602 15C22.7502 19.27 19.2702 22.75 15.0002 22.75Z" fill="#1C252E"/>
<path d="M2 9.75C1.59 9.75 1.25 9.41 1.25 9C1.25 4.73 4.73 1.25 9 1.25C9.27 1.25 9.52 1.4 9.65 1.63C9.78 1.86 9.78 2.15 9.64 2.38L8.59 4.14C8.38 4.49 7.92 4.61 7.56 4.39C7.21 4.18 7.09 3.72 7.31 3.36L7.58 2.91C4.81 3.56 2.75 6.04 2.75 9C2.75 9.41 2.41 9.75 2 9.75Z" fill="#1C252E"/>
<path d="M20.9713 4.91007L17.1195 7.14109C16.9644 7.23113 16.7694 7.23113 16.6093 7.14109L12.7575 4.91007C12.4824 4.75 12.4124 4.37483 12.6225 4.13972C12.7675 3.97465 12.9326 3.83959 13.1077 3.74454L15.8189 2.24386C16.3992 1.91871 17.3396 1.91871 17.9199 2.24386L20.6311 3.74454C20.8062 3.83959 20.9713 3.97965 21.1163 4.13972C21.3164 4.37483 21.2464 4.75 20.9713 4.91007Z" fill="#1C252E"/>
<path d="M16.5787 8.07149V11.483C16.5787 11.8632 16.1935 12.1133 15.8533 11.9483C14.8229 11.443 13.0871 10.4976 13.0871 10.4976C12.4768 10.1524 11.9766 9.28204 11.9766 8.56672V5.98554C11.9766 5.59036 12.3918 5.34025 12.7319 5.53534L16.3285 7.62129C16.4786 7.71633 16.5787 7.88641 16.5787 8.07149Z" fill="#1C252E"/>
<path d="M17.1484 8.07149V11.483C17.1484 11.8632 17.5336 12.1133 17.8738 11.9483C18.9042 11.443 20.64 10.4976 20.64 10.4976C21.2503 10.1524 21.7505 9.28204 21.7505 8.56672V5.98554C21.7505 5.59036 21.3353 5.34025 20.9952 5.53534L17.3986 7.62129C17.2485 7.71633 17.1484 7.88641 17.1484 8.07149Z" fill="#1C252E"/>
<path d="M10.9928 14.9101L7.141 17.1411C6.98593 17.2311 6.79084 17.2311 6.63077 17.1411L2.77901 14.9101C2.50389 14.75 2.43386 14.3748 2.64395 14.1397C2.78902 13.9746 2.95409 13.8396 3.12917 13.7445L5.84041 12.2439C6.42067 11.9187 7.3611 11.9187 7.94136 12.2439L10.6526 13.7445C10.8277 13.8396 10.9928 13.9797 11.1378 14.1397C11.3379 14.3748 11.2679 14.75 10.9928 14.9101Z" fill="#1C252E"/>
<path d="M6.6021 18.0715V21.483C6.6021 21.8632 6.21692 22.1133 5.87676 21.9483C4.8463 21.443 3.11051 20.4976 3.11051 20.4976C2.50023 20.1524 2 19.282 2 18.5667V15.9855C2 15.5904 2.41519 15.3402 2.75534 15.5353L6.35198 17.6213C6.50205 17.7163 6.6021 17.8864 6.6021 18.0715Z" fill="#1C252E"/>
<path d="M7.17188 18.0715V21.483C7.17188 21.8632 7.55705 22.1133 7.89721 21.9483C8.92767 21.443 10.6635 20.4976 10.6635 20.4976C11.2737 20.1524 11.774 19.282 11.774 18.5667V15.9855C11.774 15.5904 11.3588 15.3402 11.0186 15.5353L7.42199 17.6213C7.27192 17.7163 7.17188 17.8864 7.17188 18.0715Z" fill="#1C252E"/>
</svg>
