<svg width="24" height="24" viewBox="0 0 24 24" fill="none" xmlns="http://www.w3.org/2000/svg">
<path d="M20.5645 18.2452C20.5645 16.8921 19.4673 15.7951 18.1143 15.795C16.7612 15.795 15.6641 16.8921 15.6641 18.2452C15.6642 19.5982 16.7612 20.6954 18.1143 20.6954C19.4672 20.6953 20.5644 19.5981 20.5645 18.2452ZM22.0645 18.2452C22.0644 19.0663 21.8126 19.8282 21.3838 20.46C21.4048 20.4769 21.4249 20.4952 21.4443 20.5147L22.4443 21.5147C22.7372 21.8076 22.7372 22.2824 22.4443 22.5753C22.1514 22.8681 21.6767 22.8681 21.3838 22.5753L20.3838 21.5753C20.3643 21.5558 20.346 21.5357 20.3291 21.5147C19.6973 21.9435 18.9354 22.1953 18.1143 22.1954C15.9328 22.1954 14.1642 20.4266 14.1641 18.2452C14.1641 16.0637 15.9327 14.295 18.1143 14.295C20.2957 14.2951 22.0645 16.0637 22.0645 18.2452Z" fill="#1C252E"/>
<path d="M18.1897 7.23813L11.2565 11.254C10.9774 11.416 10.6262 11.416 10.3381 11.254L3.40496 7.23813C2.90973 6.95 2.78368 6.27469 3.16185 5.8515C3.42297 5.55436 3.7201 5.31125 4.03524 5.14018L8.91546 2.43895C9.95994 1.85368 11.6527 1.85368 12.6972 2.43895L17.5774 5.14018C17.8925 5.31125 18.1897 5.56337 18.4508 5.8515C18.811 6.27469 18.6849 6.95 18.1897 7.23813Z" fill="#1C252E"/>
<path d="M10.2838 12.9287V19.0695C10.2838 19.7538 9.59045 20.204 8.97817 19.9069C7.12333 18.9975 3.99891 17.2957 3.99891 17.2957C2.90041 16.6744 2 15.1077 2 13.8201V9.17402C2 8.4627 2.74734 8.0125 3.35962 8.36366L9.83356 12.1184C10.1037 12.2894 10.2838 12.5956 10.2838 12.9287Z" fill="#1C252E"/>
<path d="M18.2344 8.36357C18.8467 8.01241 19.5947 8.46279 19.5947 9.17412V12.4983C19.2392 12.4341 18.8732 12.3997 18.5 12.3997C16.7919 12.3998 15.2327 13.1047 14.1211 14.2435C13.0502 15.3416 12.3994 16.8464 12.3994 18.5003C12.3994 18.9876 12.4625 19.4642 12.5742 19.9231C11.9724 20.1815 11.3106 19.7387 11.3105 19.0696V12.929C11.3105 12.5959 11.4906 12.2895 11.7607 12.1185L18.2344 8.36357Z" fill="#1C252E"/>
</svg>
