<svg width="24" height="24" viewBox="0 0 24 24" fill="none" xmlns="http://www.w3.org/2000/svg">
<path d="M21.6794 15.32C20.7894 14.43 19.6094 13.98 18.4394 14C17.3094 14.01 16.1794 14.46 15.3194 15.32C14.7194 15.91 14.3294 16.65 14.1394 17.42C14.0294 17.84 13.9894 18.27 14.0194 18.7V18.75C14.0194 18.82 14.0294 18.88 14.0394 18.96C14.0394 18.96 14.0394 18.96 14.0494 18.97V19C14.1394 19.98 14.5594 20.93 15.3194 21.68C16.4794 22.84 18.1094 23.23 19.5794 22.86C20.0194 22.75 20.4494 22.57 20.8494 22.33C21.1494 22.16 21.4294 21.94 21.6794 21.68C22.4294 20.93 22.8594 19.98 22.9494 18.99C22.9594 18.99 22.9594 18.97 22.9594 18.96C22.9794 18.89 22.9794 18.81 22.9794 18.74C22.9794 18.73 22.9894 18.71 22.9894 18.69C23.0494 17.48 22.6094 16.24 21.6794 15.32ZM20.2294 20.21C19.9394 20.5 19.4694 20.5 19.1694 20.21L18.5094 19.55L17.8294 20.23C17.5294 20.53 17.0594 20.53 16.7694 20.23C16.4694 19.94 16.4694 19.47 16.7694 19.17L17.4494 18.49L16.7894 17.83C16.4994 17.53 16.4994 17.06 16.7894 16.77C17.0894 16.47 17.5594 16.47 17.8594 16.77L18.5094 17.43L19.1394 16.79C19.4394 16.5 19.9094 16.5 20.2094 16.79C20.4994 17.09 20.4994 17.56 20.2094 17.86L19.5694 18.49L20.2294 19.14C20.5294 19.44 20.5294 19.91 20.2294 20.21Z" fill="#1C252E"/>
<path d="M18.1897 7.23813L11.2565 11.254C10.9774 11.416 10.6262 11.416 10.3381 11.254L3.40496 7.23813C2.90973 6.95 2.78368 6.27469 3.16185 5.8515C3.42297 5.55436 3.7201 5.31125 4.03524 5.14018L8.91546 2.43895C9.95994 1.85368 11.6527 1.85368 12.6972 2.43895L17.5774 5.14018C17.8925 5.31125 18.1897 5.56337 18.4508 5.8515C18.811 6.27469 18.6849 6.95 18.1897 7.23813Z" fill="#1C252E"/>
<path d="M10.2838 12.9287V19.0695C10.2838 19.7538 9.59045 20.204 8.97817 19.9069C7.12333 18.9975 3.99891 17.2957 3.99891 17.2957C2.90041 16.6744 2 15.1077 2 13.8201V9.17402C2 8.4627 2.74734 8.0125 3.35962 8.36366L9.83356 12.1184C10.1037 12.2894 10.2838 12.5956 10.2838 12.9287Z" fill="#1C252E"/>
<path d="M18.2344 8.36357C18.8467 8.01241 19.5947 8.46279 19.5947 9.17412V12.4983C19.2392 12.4341 18.8732 12.3997 18.5 12.3997C16.7919 12.3998 15.2327 13.1047 14.1211 14.2435C13.0502 15.3416 12.3994 16.8464 12.3994 18.5003C12.3994 18.9876 12.4625 19.4642 12.5742 19.9231C11.9724 20.1815 11.3106 19.7387 11.3105 19.0696V12.929C11.3105 12.5959 11.4906 12.2895 11.7607 12.1185L18.2344 8.36357Z" fill="#1C252E"/>
</svg>
