<svg width="24" height="24" viewBox="0 0 24 24" fill="none" xmlns="http://www.w3.org/2000/svg">
<path d="M16.1904 2.33008C19.8302 2.33025 22.0002 4.51053 21.9902 8.15039V16.5195C21.9902 20.1595 19.8197 22.3301 16.1797 22.3301H7.80957C4.16983 22.3299 2 20.1594 2 16.5195V8.15039C2 4.51053 4.16983 2.33025 7.80957 2.33008H16.1904ZM7.04297 10.2422C6.63493 10.0083 6.13698 10.3083 6.13672 10.7822V13.8799C6.13672 14.7383 6.73739 15.7831 7.46973 16.1973C7.50255 16.2151 9.56238 17.3361 10.7891 17.9375C11.1972 18.1355 11.659 17.8359 11.6592 17.3799V13.2861C11.6592 13.064 11.5394 12.8592 11.3594 12.7451L7.04297 10.2422ZM17.8652 10.7822C17.865 10.3083 17.367 10.0083 16.959 10.2422L12.6426 12.7451C12.4625 12.8592 12.3428 13.0641 12.3428 13.2861V17.3799C12.343 17.8359 12.8048 18.1355 13.2129 17.9375C14.4391 17.3363 16.4979 16.2159 16.5322 16.1973C17.2646 15.7831 17.8652 14.7383 17.8652 13.8799V10.7822ZM13.2676 6.29297C12.5713 5.90279 11.4424 5.90279 10.7461 6.29297L7.49316 8.09375C7.28307 8.2078 7.08424 8.36929 6.91016 8.56738C6.6582 8.84943 6.74238 9.30002 7.07227 9.49219L11.6943 12.1689C11.8864 12.277 12.1206 12.2769 12.3066 12.1689L16.9287 9.49219C17.2589 9.3001 17.3436 8.84951 17.1035 8.56738C16.9296 8.37546 16.7314 8.20779 16.5215 8.09375L13.2676 6.29297Z" fill="#1C252E"/>
</svg>
