<svg width="24" height="24" viewBox="0 0 24 24" fill="none" xmlns="http://www.w3.org/2000/svg">
<path d="M21.98 15.65C21.16 14.64 19.91 14 18.5 14C17.44 14 16.46 14.37 15.69 14.99C14.65 15.81 14 17.08 14 18.5C14 19.91 14.64 21.16 15.65 21.98C16.42 22.62 17.42 23 18.5 23C19.64 23 20.67 22.57 21.47 21.88C22.4 21.05 23 19.85 23 18.5C23 17.42 22.62 16.42 21.98 15.65ZM19.53 18.78C19.53 19.04 19.39 19.29 19.17 19.42L17.76 20.26C17.64 20.33 17.51 20.37 17.37 20.37C17.12 20.37 16.87 20.24 16.73 20.01C16.52 19.65 16.63 19.19 16.99 18.98L18.03 18.36V17.1C18.03 16.69 18.37 16.35 18.78 16.35C19.19 16.35 19.53 16.69 19.53 17.1V18.78Z" fill="#1C252E"/>
<path d="M18.1897 7.23813L11.2565 11.254C10.9774 11.416 10.6262 11.416 10.3381 11.254L3.40496 7.23813C2.90973 6.95 2.78368 6.27469 3.16185 5.8515C3.42297 5.55436 3.7201 5.31125 4.03524 5.14018L8.91546 2.43895C9.95994 1.85368 11.6527 1.85368 12.6972 2.43895L17.5774 5.14018C17.8925 5.31125 18.1897 5.56337 18.4508 5.8515C18.811 6.27469 18.6849 6.95 18.1897 7.23813Z" fill="#1C252E"/>
<path d="M10.2838 12.9287V19.0695C10.2838 19.7538 9.59045 20.204 8.97817 19.9069C7.12333 18.9975 3.99891 17.2957 3.99891 17.2957C2.90041 16.6744 2 15.1077 2 13.8201V9.17402C2 8.4627 2.74734 8.0125 3.35962 8.36366L9.83356 12.1184C10.1037 12.2894 10.2838 12.5956 10.2838 12.9287Z" fill="#1C252E"/>
<path d="M18.2344 8.36357C18.8467 8.01241 19.5947 8.46279 19.5947 9.17412V12.4983C19.2392 12.4341 18.8732 12.3997 18.5 12.3997C16.7919 12.3998 15.2327 13.1047 14.1211 14.2435C13.0502 15.3416 12.3994 16.8464 12.3994 18.5003C12.3994 18.9876 12.4625 19.4642 12.5742 19.9231C11.9724 20.1815 11.3106 19.7387 11.3105 19.0696V12.929C11.3105 12.5959 11.4906 12.2895 11.7607 12.1185L18.2344 8.36357Z" fill="#1C252E"/>
</svg>
