<svg width="24" height="24" viewBox="0 0 24 24" fill="none" xmlns="http://www.w3.org/2000/svg">
<path d="M9.75 4.09961C9.74994 3.43545 9.60537 3.16391 9.46777 3.03418C9.31852 2.89376 8.99922 2.75 8.26953 2.75H4.23047C3.50078 2.75 3.18149 2.89376 3.03223 3.03418C2.89463 3.16391 2.75006 3.43545 2.75 4.09961V19.9004C2.75006 20.5645 2.89463 20.8361 3.03223 20.9658C3.18149 21.1062 3.50078 21.25 4.23047 21.25H8.26953C8.99922 21.25 9.31851 21.1062 9.46777 20.9658C9.60537 20.8361 9.74994 20.5645 9.75 19.9004V4.09961ZM11.25 19.9004C11.2499 20.7351 11.0747 21.5133 10.4951 22.0586C9.92688 22.5932 9.12985 22.75 8.26953 22.75H4.23047C3.37015 22.75 2.57312 22.5932 2.00488 22.0586C1.42528 21.5133 1.25005 20.7351 1.25 19.9004V4.09961C1.25005 3.26493 1.42528 2.48672 2.00488 1.94141C2.57312 1.40682 3.37015 1.25 4.23047 1.25H8.26953C9.12985 1.25 9.92688 1.40682 10.4951 1.94141C11.0747 2.48672 11.2499 3.26493 11.25 4.09961V19.9004Z" fill="#1C252E"/>
<path d="M21.25 4.09961C21.2499 3.43545 21.1054 3.16391 20.9678 3.03418C20.8185 2.89376 20.4992 2.75 19.7695 2.75H15.7305C15.0008 2.75 14.6815 2.89376 14.5322 3.03418C14.3946 3.16391 14.2501 3.43545 14.25 4.09961V12.9004C14.2501 13.5645 14.3946 13.8361 14.5322 13.9658C14.6815 14.1062 15.0008 14.25 15.7305 14.25H19.7695C20.4992 14.25 20.8185 14.1062 20.9678 13.9658C21.1054 13.8361 21.2499 13.5645 21.25 12.9004V4.09961ZM22.75 12.9004C22.7499 13.7351 22.5747 14.5133 21.9951 15.0586C21.4269 15.5932 20.6298 15.75 19.7695 15.75H15.7305C14.8702 15.75 14.0731 15.5932 13.5049 15.0586C12.9253 14.5133 12.7501 13.7351 12.75 12.9004V4.09961C12.7501 3.26493 12.9253 2.48672 13.5049 1.94141C14.0731 1.40682 14.8702 1.25 15.7305 1.25H19.7695C20.6298 1.25 21.4269 1.40682 21.9951 1.94141C22.5747 2.48672 22.7499 3.26493 22.75 4.09961V12.9004Z" fill="#1C252E"/>
</svg>
