<svg width="24" height="24" viewBox="0 0 24 24" fill="none" xmlns="http://www.w3.org/2000/svg">
<path d="M20.8613 19.333C20.8613 18.84 20.7957 18.169 20.7344 17.6572C20.7289 17.6118 20.6929 17.5734 20.6387 17.5684C20.3915 17.5455 20.0941 17.5198 19.7773 17.4961C19.195 17.4525 18.5615 17.417 18.0557 17.417C17.5498 17.417 16.9163 17.4525 16.334 17.4961C16.0173 17.5198 15.7198 17.5455 15.4727 17.5684C15.4184 17.5734 15.3824 17.6118 15.377 17.6572C15.3157 18.169 15.25 18.84 15.25 19.333C15.25 19.8261 15.3156 20.4979 15.377 21.0098C15.3825 21.0551 15.4185 21.0936 15.4727 21.0986C16.1797 21.1639 17.2668 21.25 18.0557 21.25C18.8446 21.25 19.9317 21.1639 20.6387 21.0986C20.6929 21.0936 20.7289 21.0551 20.7344 21.0098C20.7957 20.4979 20.8613 19.8261 20.8613 19.333ZM19.083 15.333C19.0828 15.011 18.8221 14.75 18.5 14.75H17.6113C17.2893 14.75 17.0275 15.011 17.0273 15.333V15.9482C17.3829 15.9294 17.7377 15.917 18.0557 15.917C18.3733 15.917 18.7277 15.9294 19.083 15.9482V15.333ZM20.583 16.0576C20.6502 16.0636 20.7149 16.0685 20.7764 16.0742C21.526 16.1435 22.133 16.7223 22.2236 17.4785C22.2857 17.9966 22.3613 18.7439 22.3613 19.333C22.3613 19.922 22.2857 20.6693 22.2236 21.1875C22.1331 21.9438 21.5261 22.5225 20.7764 22.5918C20.0679 22.6572 18.9202 22.75 18.0557 22.75C17.191 22.75 16.0425 22.6572 15.334 22.5918C14.5844 22.5224 13.9782 21.9436 13.8877 21.1875C13.8256 20.6693 13.75 19.922 13.75 19.333C13.75 18.7439 13.8256 17.9966 13.8877 17.4785C13.9783 16.7225 14.5845 16.1436 15.334 16.0742C15.3954 16.0685 15.4603 16.0636 15.5273 16.0576V15.333C15.5275 14.1826 16.4608 13.25 17.6113 13.25H18.5C19.6505 13.25 20.5828 14.1826 20.583 15.333V16.0576Z" fill="#1C252E"/>
<path d="M21.25 11V9C21.25 6.57397 20.7603 5.0708 19.8447 4.15527C18.9292 3.23974 17.426 2.75 15 2.75H9C6.57397 2.75 5.0708 3.23974 4.15527 4.15527C3.23974 5.0708 2.75 6.57397 2.75 9V15C2.75 17.426 3.23974 18.9292 4.15527 19.8447C5.0708 20.7603 6.57397 21.25 9 21.25H10C10.4142 21.25 10.75 21.5858 10.75 22C10.75 22.4142 10.4142 22.75 10 22.75H9C6.42603 22.75 4.4292 22.2397 3.09473 20.9053C1.76026 19.5708 1.25 17.574 1.25 15V9C1.25 6.42603 1.76026 4.4292 3.09473 3.09473C4.4292 1.76026 6.42603 1.25 9 1.25H15C17.574 1.25 19.5708 1.76026 20.9053 3.09473C22.2397 4.4292 22.75 6.42603 22.75 9V11C22.75 11.4142 22.4142 11.75 22 11.75C21.5858 11.75 21.25 11.4142 21.25 11Z" fill="#1C252E"/>
<path d="M21.9995 7.75C22.4137 7.75 22.7495 8.08579 22.7495 8.5C22.7495 8.91421 22.4137 9.25 21.9995 9.25H2.02979C1.61557 9.25 1.27979 8.91421 1.27979 8.5C1.27979 8.08579 1.61557 7.75 2.02979 7.75H21.9995Z" fill="#1C252E"/>
<path d="M11.9995 14.75C12.4137 14.75 12.7495 15.0858 12.7495 15.5C12.7495 15.9142 12.4137 16.25 11.9995 16.25H2.02979C1.61557 16.25 1.27979 15.9142 1.27979 15.5C1.27979 15.0858 1.61557 14.75 2.02979 14.75H11.9995Z" fill="#1C252E"/>
<path d="M7.75977 21.9905V2.01001C7.75977 1.5958 8.09555 1.26001 8.50977 1.26001C8.92398 1.26001 9.25977 1.5958 9.25977 2.01001V21.9905C9.2595 22.4045 8.92382 22.7405 8.50977 22.7405C8.09571 22.7405 7.76003 22.4045 7.75977 21.9905Z" fill="#1C252E"/>
<path d="M14.7598 11.9905V2.01001C14.7598 1.5958 15.0956 1.26001 15.5098 1.26001C15.924 1.26001 16.2598 1.5958 16.2598 2.01001V11.9905C16.2595 12.4045 15.9238 12.7405 15.5098 12.7405C15.0957 12.7405 14.76 12.4045 14.7598 11.9905Z" fill="#1C252E"/>
</svg>
