<svg width="24" height="24" viewBox="0 0 24 24" fill="none" xmlns="http://www.w3.org/2000/svg">
<path d="M17.0498 3.25C17.2729 3.25 17.4845 3.3498 17.627 3.52148C17.7693 3.69315 17.8282 3.91946 17.7871 4.13867C17.7635 4.26491 17.75 4.38727 17.75 4.5C17.75 5.46579 18.5342 6.25 19.5 6.25C19.6127 6.25 19.7351 6.23654 19.8613 6.21289C20.0805 6.17179 20.3069 6.23067 20.4785 6.37305C20.6502 6.51554 20.75 6.72708 20.75 6.9502V17.0498C20.75 17.2729 20.6502 17.4845 20.4785 17.627C20.3069 17.7693 20.0805 17.8282 19.8613 17.7871C19.7351 17.7635 19.6127 17.75 19.5 17.75C18.5342 17.75 17.75 18.5342 17.75 19.5C17.75 19.6127 17.7635 19.7351 17.7871 19.8613C17.8282 20.0805 17.7693 20.3069 17.627 20.4785C17.4845 20.6502 17.2729 20.75 17.0498 20.75H6.9502C6.72708 20.75 6.51554 20.6502 6.37305 20.4785C6.23067 20.3069 6.17179 20.0805 6.21289 19.8613C6.23654 19.7351 6.25 19.6127 6.25 19.5C6.25 18.5342 5.46579 17.75 4.5 17.75C4.38727 17.75 4.26491 17.7635 4.13867 17.7871C3.91946 17.8282 3.69315 17.7693 3.52148 17.627C3.3498 17.4845 3.25 17.2729 3.25 17.0498V6.9502C3.25 6.72708 3.3498 6.51554 3.52148 6.37305C3.69315 6.23067 3.91946 6.17179 4.13867 6.21289C4.26491 6.23654 4.38727 6.25 4.5 6.25C5.46579 6.25 6.25 5.46579 6.25 4.5C6.25 4.38727 6.23654 4.26491 6.21289 4.13867C6.17179 3.91946 6.23067 3.69315 6.37305 3.52148C6.51554 3.3498 6.72708 3.25 6.9502 3.25H17.0498ZM7.73926 4.75C7.61774 6.34492 6.34492 7.61774 4.75 7.73926V16.2598C6.34496 16.3812 7.61774 17.6551 7.73926 19.25H16.2607C16.3823 17.6551 17.655 16.3812 19.25 16.2598V7.73926C17.6551 7.61774 16.3823 6.34492 16.2607 4.75H7.73926Z" fill="#1C252E"/>
<path d="M6.25 4.5C6.25 4.38727 6.23654 4.26491 6.21289 4.13867H6.21191C6.04745 3.34733 5.34318 2.75 4.5 2.75C3.53421 2.75 2.75 3.53421 2.75 4.5C2.75 5.34458 3.34928 6.04995 4.14258 6.21289C4.26748 6.2361 4.3884 6.25 4.5 6.25C5.46579 6.25 6.25 5.46579 6.25 4.5ZM7.75 4.5C7.75 6.29421 6.29421 7.75 4.5 7.75C4.27286 7.75 4.05493 7.7238 3.86133 7.6875L3.85156 7.68555C2.36781 7.38618 1.25 6.07332 1.25 4.5C1.25 2.70579 2.70579 1.25 4.5 1.25C5.97505 1.25 7.22061 2.23265 7.61719 3.57812L7.68555 3.85156L7.6875 3.86133C7.7238 4.05493 7.75 4.27286 7.75 4.5Z" fill="#1C252E"/>
<path d="M21.25 4.5C21.25 3.53421 20.4658 2.75 19.5 2.75C18.6568 2.75 17.9515 3.34723 17.7871 4.13867L17.7598 4.32422C17.7534 4.38475 17.75 4.44358 17.75 4.5C17.75 5.46579 18.5342 6.25 19.5 6.25C19.6113 6.25 19.7319 6.23599 19.8564 6.21289C20.6502 6.05032 21.25 5.34491 21.25 4.5ZM22.75 4.5C22.75 6.07332 21.6322 7.38618 20.1484 7.68555L20.1387 7.6875C19.9451 7.7238 19.7271 7.75 19.5 7.75C17.7058 7.75 16.25 6.29421 16.25 4.5C16.25 4.27286 16.2762 4.05493 16.3125 3.86133L16.3145 3.85156C16.6138 2.36781 17.9267 1.25 19.5 1.25C21.2942 1.25 22.75 2.70579 22.75 4.5Z" fill="#1C252E"/>
<path d="M6.25 19.5C6.25 18.5342 5.46579 17.75 4.5 17.75C4.38845 17.75 4.26742 17.7629 4.14258 17.7861C3.34918 17.949 2.75 18.6554 2.75 19.5C2.75 20.4658 3.53421 21.25 4.5 21.25C5.34491 21.25 6.05032 20.6502 6.21289 19.8564C6.23599 19.7319 6.25 19.6113 6.25 19.5ZM7.75 19.5C7.75 19.7271 7.7238 19.9451 7.6875 20.1387L7.68555 20.1484C7.38618 21.6322 6.07332 22.75 4.5 22.75C2.70579 22.75 1.25 21.2942 1.25 19.5C1.25 17.9267 2.36781 16.6138 3.85156 16.3145L3.86133 16.3125C4.05493 16.2762 4.27286 16.25 4.5 16.25C6.29421 16.25 7.75 17.7058 7.75 19.5Z" fill="#1C252E"/>
<path d="M21.25 19.5C21.25 18.655 20.6503 17.9486 19.8564 17.7861C19.7319 17.7631 19.6113 17.75 19.5 17.75C18.5342 17.75 17.75 18.5342 17.75 19.5C17.75 19.6113 17.7631 19.7319 17.7861 19.8564C17.9486 20.6503 18.655 21.25 19.5 21.25C20.4658 21.25 21.25 20.4658 21.25 19.5ZM22.75 19.5C22.75 21.2942 21.2942 22.75 19.5 22.75C17.9267 22.75 16.6138 21.6322 16.3145 20.1484L16.3125 20.1387C16.2762 19.9451 16.25 19.7271 16.25 19.5C16.25 17.7058 17.7058 16.25 19.5 16.25C19.6137 16.25 19.725 16.2564 19.832 16.2676L20.1387 16.3125L20.1484 16.3145C21.6322 16.6138 22.75 17.9267 22.75 19.5Z" fill="#1C252E"/>
</svg>
