<svg width="24" height="24" viewBox="0 0 24 24" fill="none" xmlns="http://www.w3.org/2000/svg">
<path d="M21.25 9C21.25 6.57397 20.7603 5.0708 19.8447 4.15527C18.9292 3.23974 17.426 2.75 15 2.75H9C6.57397 2.75 5.0708 3.23974 4.15527 4.15527C3.23974 5.0708 2.75 6.57397 2.75 9V15C2.75 17.426 3.23974 18.9292 4.15527 19.8447C5.0708 20.7603 6.57397 21.25 9 21.25H15C17.426 21.25 18.9292 20.7603 19.8447 19.8447C20.7603 18.9292 21.25 17.426 21.25 15V9ZM22.75 15C22.75 17.574 22.2397 19.5708 20.9053 20.9053C19.5708 22.2397 17.574 22.75 15 22.75H9C6.42603 22.75 4.4292 22.2397 3.09473 20.9053C1.76026 19.5708 1.25 17.574 1.25 15V9C1.25 6.42603 1.76026 4.4292 3.09473 3.09473C4.4292 1.76026 6.42603 1.25 9 1.25H15C17.574 1.25 19.5708 1.76026 20.9053 3.09473C22.2397 4.4292 22.75 6.42603 22.75 9V15Z" fill="#1C252E"/>
<path d="M21.9995 7.75C22.4137 7.75 22.7495 8.08579 22.7495 8.5C22.7495 8.91421 22.4137 9.25 21.9995 9.25H2.02979C1.61557 9.25 1.27979 8.91421 1.27979 8.5C1.27979 8.08579 1.61557 7.75 2.02979 7.75H21.9995Z" fill="#1C252E"/>
<path d="M21.9995 14.75C22.4137 14.75 22.7495 15.0858 22.7495 15.5C22.7495 15.9142 22.4137 16.25 21.9995 16.25H2.02979C1.61557 16.25 1.27979 15.9142 1.27979 15.5C1.27979 15.0858 1.61557 14.75 2.02979 14.75H21.9995Z" fill="#1C252E"/>
<path d="M7.75977 21.9905V2.01001C7.75977 1.5958 8.09555 1.26001 8.50977 1.26001C8.92398 1.26001 9.25977 1.5958 9.25977 2.01001V21.9905C9.25951 22.4045 8.92382 22.7405 8.50977 22.7405C8.09571 22.7405 7.76002 22.4045 7.75977 21.9905Z" fill="#1C252E"/>
<path d="M14.7598 21.9905V2.01001C14.7598 1.5958 15.0956 1.26001 15.5098 1.26001C15.924 1.26001 16.2598 1.5958 16.2598 2.01001V21.9905C16.2595 22.4045 15.9238 22.7405 15.5098 22.7405C15.0957 22.7405 14.76 22.4045 14.7598 21.9905Z" fill="#1C252E"/>
</svg>
