<svg width="24" height="24" viewBox="0 0 24 24" fill="none" xmlns="http://www.w3.org/2000/svg">
<path d="M18.5098 18.9004V7.09961C18.5097 6.43545 18.3651 6.16391 18.2275 6.03418C18.0783 5.89376 17.759 5.75 17.0293 5.75H15.9902C15.2605 5.75 14.9413 5.89376 14.792 6.03418C14.6544 6.16391 14.5098 6.43545 14.5098 7.09961V18.9004C14.5096 19.3144 14.1738 19.6504 13.7598 19.6504C13.3457 19.6504 13.01 19.3144 13.0098 18.9004V7.09961C13.0098 6.26493 13.185 5.48672 13.7646 4.94141C14.3329 4.40682 15.1299 4.25 15.9902 4.25H17.0293C17.8896 4.25 18.6866 4.40682 19.2549 4.94141C19.8345 5.48672 20.0097 6.26493 20.0098 7.09961V18.9004C20.0096 19.3144 19.6738 19.6504 19.2598 19.6504C18.8457 19.6504 18.51 19.3144 18.5098 18.9004Z" fill="#1C252E"/>
<path d="M10.0098 18.9004V12.0996C10.0097 11.4355 9.86514 11.1639 9.72754 11.0342C9.57828 10.8938 9.25898 10.75 8.5293 10.75H7.49023C6.76055 10.75 6.44125 10.8938 6.29199 11.0342C6.1544 11.1639 6.00982 11.4355 6.00977 12.0996V18.9004C6.00955 19.3144 5.67385 19.6504 5.25977 19.6504C4.84568 19.6504 4.50998 19.3144 4.50977 18.9004V12.0996C4.50982 11.2649 4.68504 10.4867 5.26465 9.94141C5.83289 9.40682 6.62992 9.25 7.49023 9.25H8.5293C9.38961 9.25 10.1866 9.40682 10.7549 9.94141C11.3345 10.4867 11.5097 11.2649 11.5098 12.0996V18.9004C11.5096 19.3144 11.1738 19.6504 10.7598 19.6504C10.3457 19.6504 10.01 19.3144 10.0098 18.9004Z" fill="#1C252E"/>
<path d="M22 18.25C22.4142 18.25 22.75 18.5858 22.75 19C22.75 19.4142 22.4142 19.75 22 19.75H2C1.58579 19.75 1.25 19.4142 1.25 19C1.25 18.5858 1.58579 18.25 2 18.25H22Z" fill="#1C252E"/>
</svg>
