<svg width="24" height="24" viewBox="0 0 24 24" fill="none" xmlns="http://www.w3.org/2000/svg">
<path d="M1.25 9V6.5C1.25 3.59579 3.59579 1.25 6.5 1.25H9C9.41421 1.25 9.75 1.58579 9.75 2C9.75 2.41421 9.41421 2.75 9 2.75H6.5C4.42421 2.75 2.75 4.42421 2.75 6.5V9C2.75 9.41421 2.41421 9.75 2 9.75C1.58579 9.75 1.25 9.41421 1.25 9Z" fill="#1C252E"/>
<path d="M21.25 9V6.5C21.25 4.42421 19.5758 2.75 17.5 2.75H15C14.5858 2.75 14.25 2.41421 14.25 2C14.25 1.58579 14.5858 1.25 15 1.25H17.5C20.4042 1.25 22.75 3.59579 22.75 6.5V9C22.75 9.41421 22.4142 9.75 22 9.75C21.5858 9.75 21.25 9.41421 21.25 9Z" fill="#1C252E"/>
<path d="M21.25 17.5V16C21.25 15.5858 21.5858 15.25 22 15.25C22.4142 15.25 22.75 15.5858 22.75 16V17.5C22.75 20.4042 20.4042 22.75 17.5 22.75H16C15.5858 22.75 15.25 22.4142 15.25 22C15.25 21.5858 15.5858 21.25 16 21.25H17.5C19.5758 21.25 21.25 19.5758 21.25 17.5Z" fill="#1C252E"/>
<path d="M1.25 17.5V15C1.25 14.5858 1.58579 14.25 2 14.25C2.41421 14.25 2.75 14.5858 2.75 15V17.5C2.75 19.5758 4.42421 21.25 6.5 21.25H9C9.41421 21.25 9.75 21.5858 9.75 22C9.75 22.4142 9.41421 22.75 9 22.75H6.5C3.59579 22.75 1.25 20.4042 1.25 17.5Z" fill="#1C252E"/>
<path d="M17.25 14V12.75H6.75V14C6.75 14.4142 6.41421 14.75 6 14.75C5.58579 14.75 5.25 14.4142 5.25 14V10C5.25 9.58579 5.58579 9.25 6 9.25C6.41421 9.25 6.75 9.58579 6.75 10V11.25H17.25V10C17.25 9.58579 17.5858 9.25 18 9.25C18.4142 9.25 18.75 9.58579 18.75 10V14C18.75 14.4142 18.4142 14.75 18 14.75C17.5858 14.75 17.25 14.4142 17.25 14Z" fill="#1C252E"/>
<path d="M14 5.25C14.4142 5.25 14.75 5.58579 14.75 6C14.75 6.41421 14.4142 6.75 14 6.75H12.75V17.25H14C14.4142 17.25 14.75 17.5858 14.75 18C14.75 18.4142 14.4142 18.75 14 18.75H10C9.58579 18.75 9.25 18.4142 9.25 18C9.25 17.5858 9.58579 17.25 10 17.25H11.25V6.75H10C9.58579 6.75 9.25 6.41421 9.25 6C9.25 5.58579 9.58579 5.25 10 5.25H14Z" fill="#1C252E"/>
</svg>
