<svg width="24" height="24" viewBox="0 0 24 24" fill="none" xmlns="http://www.w3.org/2000/svg">
<path d="M9.75 4.09961C9.74994 3.43545 9.60537 3.16391 9.46777 3.03418C9.31852 2.89376 8.99922 2.75 8.26953 2.75H4.23047C3.50078 2.75 3.18149 2.89376 3.03223 3.03418C2.89463 3.16391 2.75006 3.43545 2.75 4.09961V19.9004C2.75006 20.5645 2.89463 20.8361 3.03223 20.9658C3.18149 21.1062 3.50078 21.25 4.23047 21.25H8.26953C8.99922 21.25 9.31851 21.1062 9.46777 20.9658C9.60537 20.8361 9.74994 20.5645 9.75 19.9004V4.09961ZM11.25 19.9004C11.2499 20.7351 11.0747 21.5133 10.4951 22.0586C9.92688 22.5932 9.12985 22.75 8.26953 22.75H4.23047C3.37015 22.75 2.57312 22.5932 2.00488 22.0586C1.42528 21.5133 1.25005 20.7351 1.25 19.9004V4.09961C1.25005 3.26493 1.42528 2.48672 2.00488 1.94141C2.57312 1.40682 3.37015 1.25 4.23047 1.25H8.26953C9.12985 1.25 9.92688 1.40682 10.4951 1.94141C11.0747 2.48672 11.2499 3.26493 11.25 4.09961V19.9004Z" fill="#1C252E"/>
<path d="M21.25 3.98047C21.25 3.372 21.1111 3.13496 20.9834 3.02148C20.833 2.88793 20.5059 2.75 19.7695 2.75H15.7305C14.9941 2.75 14.667 2.88793 14.5166 3.02148C14.3889 3.13496 14.25 3.372 14.25 3.98047V8.50977C14.25 9.1245 14.3898 9.35922 14.5156 9.4707C14.6651 9.603 14.9913 9.74023 15.7305 9.74023H19.7744C20.5105 9.74486 20.8357 9.60719 20.9844 9.47559C21.1107 9.36366 21.25 9.12817 21.25 8.51953V3.98047ZM22.75 8.51953C22.75 9.3205 22.5696 10.0765 21.9785 10.5996C21.4107 11.1021 20.6218 11.2441 19.7695 11.2393L15.7305 11.2402C14.8796 11.2402 14.0895 11.0965 13.5215 10.5938C12.9301 10.0702 12.75 9.3146 12.75 8.50977V3.98047C12.75 3.17894 12.9307 2.42442 13.5205 1.90039C14.0877 1.39649 14.8769 1.25 15.7305 1.25H19.7695C20.6231 1.25 21.4123 1.39649 21.9795 1.90039C22.5693 2.42442 22.75 3.17894 22.75 3.98047V8.51953Z" fill="#1C252E"/>
<path d="M21.25 15.7305C21.25 15.0106 21.1009 14.6986 20.9512 14.5488C20.8014 14.3991 20.4894 14.25 19.7695 14.25H15.7305C15.0106 14.25 14.6986 14.3991 14.5488 14.5488C14.3991 14.6986 14.25 15.0106 14.25 15.7305V19.7695C14.25 20.4894 14.3991 20.8014 14.5488 20.9512C14.6986 21.1009 15.0106 21.25 15.7305 21.25H19.7695C20.4894 21.25 20.8014 21.1009 20.9512 20.9512C21.1009 20.8014 21.25 20.4894 21.25 19.7695V15.7305ZM22.75 19.7695C22.75 20.6396 22.5794 21.444 22.0117 22.0117C21.444 22.5794 20.6396 22.75 19.7695 22.75H15.7305C14.8604 22.75 14.056 22.5794 13.4883 22.0117C12.9206 21.444 12.75 20.6396 12.75 19.7695V15.7305C12.75 14.8604 12.9206 14.056 13.4883 13.4883C14.056 12.9206 14.8604 12.75 15.7305 12.75H19.7695C20.6396 12.75 21.444 12.9206 22.0117 13.4883C22.5794 14.056 22.75 14.8604 22.75 15.7305V19.7695Z" fill="#1C252E"/>
</svg>
