<svg width="24" height="24" viewBox="0 0 24 24" fill="none" xmlns="http://www.w3.org/2000/svg">
<path d="M21.25 12.25C21.25 10.449 20.8853 9.3833 20.251 8.74902C19.6167 8.11474 18.551 7.75 16.75 7.75H12.25C10.449 7.75 9.3833 8.11474 8.74902 8.74902C8.11474 9.3833 7.75 10.449 7.75 12.25V16.75C7.75 18.551 8.11474 19.6167 8.74902 20.251C9.3833 20.8853 10.449 21.25 12.25 21.25H16.75C18.551 21.25 19.6167 20.8853 20.251 20.251C20.8853 19.6167 21.25 18.551 21.25 16.75V12.25ZM22.75 16.75C22.75 18.699 22.3647 20.2583 21.3115 21.3115C20.2583 22.3647 18.699 22.75 16.75 22.75H12.25C10.301 22.75 8.7417 22.3647 7.68848 21.3115C6.63526 20.2583 6.25 18.699 6.25 16.75V12.25C6.25 10.301 6.63526 8.7417 7.68848 7.68848C8.7417 6.63526 10.301 6.25 12.25 6.25H16.75C18.699 6.25 20.2583 6.63526 21.3115 7.68848C22.3647 8.7417 22.75 10.301 22.75 12.25V16.75Z" fill="#1C252E"/>
<path d="M1.25 9C1.25 4.71579 4.71579 1.25 9 1.25C9.2702 1.25 9.51921 1.39573 9.65234 1.63086C9.78533 1.86586 9.78237 2.15415 9.64355 2.38574L8.59277 4.13574C8.37973 4.49074 7.91956 4.6063 7.56445 4.39355C7.20934 4.18048 7.09369 3.71942 7.30664 3.36426L7.57617 2.91406C4.80828 3.55737 2.75 6.03428 2.75 9C2.75 9.41421 2.41421 9.75 2 9.75C1.58579 9.75 1.25 9.41421 1.25 9Z" fill="#1C252E"/>
</svg>
