<svg width="24" height="24" viewBox="0 0 24 24" fill="none" xmlns="http://www.w3.org/2000/svg">
<path d="M21.25 11V9C21.25 6.57397 20.7603 5.0708 19.8447 4.15527C18.9292 3.23974 17.426 2.75 15 2.75H9C6.57397 2.75 5.0708 3.23974 4.15527 4.15527C3.23974 5.0708 2.75 6.57397 2.75 9V15C2.75 17.426 3.23974 18.9292 4.15527 19.8447C5.0708 20.7603 6.57397 21.25 9 21.25H10C10.4142 21.25 10.75 21.5858 10.75 22C10.75 22.4142 10.4142 22.75 10 22.75H9C6.42603 22.75 4.4292 22.2397 3.09473 20.9053C1.76026 19.5708 1.25 17.574 1.25 15V9C1.25 6.42603 1.76026 4.4292 3.09473 3.09473C4.4292 1.76026 6.42603 1.25 9 1.25H15C17.574 1.25 19.5708 1.76026 20.9053 3.09473C22.2397 4.4292 22.75 6.42603 22.75 9V11C22.75 11.4142 22.4142 11.75 22 11.75C21.5858 11.75 21.25 11.4142 21.25 11Z" fill="#1C252E"/>
<path d="M22 7.75C22.4142 7.75 22.75 8.08579 22.75 8.5C22.75 8.91421 22.4142 9.25 22 9.25H2.03027C1.61606 9.25 1.28027 8.91421 1.28027 8.5C1.28027 8.08579 1.61606 7.75 2.03027 7.75H22Z" fill="#1C252E"/>
<path d="M12 14.75C12.4142 14.75 12.75 15.0858 12.75 15.5C12.75 15.9142 12.4142 16.25 12 16.25H2.03027C1.61606 16.25 1.28027 15.9142 1.28027 15.5C1.28027 15.0858 1.61606 14.75 2.03027 14.75H12Z" fill="#1C252E"/>
<path d="M7.75977 21.9905V2.01001C7.75977 1.5958 8.09555 1.26001 8.50977 1.26001C8.92398 1.26001 9.25977 1.5958 9.25977 2.01001V21.9905C9.2595 22.4045 8.92382 22.7405 8.50977 22.7405C8.09571 22.7405 7.76003 22.4045 7.75977 21.9905Z" fill="#1C252E"/>
<path d="M14.7598 11.9905V2.01001C14.7598 1.5958 15.0956 1.26001 15.5098 1.26001C15.924 1.26001 16.2598 1.5958 16.2598 2.01001V11.9905C16.2595 12.4045 15.9238 12.7405 15.5098 12.7405C15.0957 12.7405 14.76 12.4045 14.7598 11.9905Z" fill="#1C252E"/>
<path d="M19.8307 13.2589C20.5563 13.1868 21.233 13.5127 21.8503 14.13C22.4738 14.7535 22.798 15.4348 22.7263 16.1613C22.6583 16.8484 22.2499 17.3905 21.8503 17.7902L17.7009 21.9405C17.5492 22.0922 17.3596 22.2145 17.1882 22.3019C17.0199 22.3877 16.8063 22.4703 16.5866 22.5011L16.5876 22.5021H16.5837L16.5817 22.503L16.5807 22.5021L14.9977 22.7325L14.9968 22.7316C14.5075 22.8059 14.0178 22.6723 13.6686 22.3204C13.3201 21.9689 13.1898 21.4794 13.2575 20.9962V20.9923L13.488 19.4025C13.4893 19.3937 13.4903 19.3848 13.4919 19.3761C13.5279 19.1782 13.6042 18.9766 13.6891 18.8068C13.7728 18.6395 13.8933 18.4465 14.0495 18.2902L18.1999 14.1398C18.6031 13.7365 19.1453 13.3271 19.8307 13.2589ZM19.9792 14.7511C19.8098 14.768 19.577 14.8837 19.2604 15.2003L15.11 19.3507C15.1078 19.3532 15.0987 19.3641 15.0847 19.3849C15.0679 19.4097 15.0491 19.4414 15.0309 19.4777C14.9909 19.5578 14.9725 19.6225 14.9684 19.6446L14.7429 21.2071C14.7405 21.2251 14.7425 21.2392 14.7429 21.2501C14.751 21.2498 14.7611 21.251 14.7731 21.2491L14.7829 21.2482L16.3727 21.0177L16.3786 21.0167C16.3826 21.0158 16.3936 21.0133 16.4118 21.007C16.4387 20.9976 16.4716 20.9837 16.5065 20.9659C16.5413 20.9482 16.5735 20.9291 16.5993 20.9113C16.612 20.9025 16.6223 20.8947 16.6296 20.8888C16.6353 20.8841 16.6384 20.8809 16.6393 20.88L20.7897 16.7296C21.1 16.4193 21.217 16.1865 21.2341 16.0138C21.2472 15.8802 21.216 15.6169 20.7897 15.1905C20.367 14.7679 20.1087 14.7382 19.9792 14.7511Z" fill="#1C252E"/>
<path d="M17.9392 14.5373C18.3381 14.4265 18.752 14.6599 18.863 15.0588C19.1415 16.0616 19.9316 16.8489 20.946 17.1389C21.3442 17.2526 21.5752 17.6675 21.4616 18.0656C21.3478 18.4639 20.9322 18.6951 20.5339 18.5813C19.0288 18.1511 17.8392 16.978 17.4177 15.4611C17.3069 15.0622 17.5403 14.6483 17.9392 14.5373Z" fill="#1C252E"/>
</svg>
