<svg width="24" height="24" viewBox="0 0 24 24" fill="none" xmlns="http://www.w3.org/2000/svg">
<path d="M20.25 9V3.75H15C14.5858 3.75 14.25 3.41421 14.25 3C14.25 2.58579 14.5858 2.25 15 2.25H21C21.4142 2.25 21.75 2.58579 21.75 3V9C21.75 9.41421 21.4142 9.75 21 9.75C20.5858 9.75 20.25 9.41421 20.25 9Z" fill="#1C252E"/>
<path d="M2.25 15C2.25 14.5858 2.58579 14.25 3 14.25C3.41421 14.25 3.75 14.5858 3.75 15V20.25H9C9.41421 20.25 9.75 20.5858 9.75 21C9.75 21.4142 9.41421 21.75 9 21.75H3C2.58579 21.75 2.25 21.4142 2.25 21V15Z" fill="#1C252E"/>
<path d="M20.4697 2.46967C20.7626 2.17678 21.2373 2.17678 21.5302 2.46967C21.8231 2.76256 21.8231 3.23732 21.5302 3.53022L14.0302 11.0302C13.7373 11.3231 13.2626 11.3231 12.9697 11.0302C12.6768 10.7373 12.6768 10.2626 12.9697 9.96967L20.4697 2.46967Z" fill="#1C252E"/>
<path d="M9.96967 12.9697C10.2626 12.6768 10.7373 12.6768 11.0302 12.9697C11.3231 13.2626 11.3231 13.7373 11.0302 14.0302L3.53022 21.5302C3.23732 21.8231 2.76256 21.8231 2.46967 21.5302C2.17678 21.2373 2.17678 20.7626 2.46967 20.4697L9.96967 12.9697Z" fill="#1C252E"/>
</svg>
