<svg width="24" height="24" viewBox="0 0 24 24" fill="none" xmlns="http://www.w3.org/2000/svg">
<path d="M9.5 6.59961C9.49994 5.93545 9.35537 5.66391 9.21777 5.53418C9.06852 5.39376 8.74922 5.25 8.01953 5.25H6.98047C6.25078 5.25 5.93149 5.39376 5.78223 5.53418C5.64463 5.66391 5.50006 5.93545 5.5 6.59961V17.4004C5.50006 18.0645 5.64463 18.3361 5.78223 18.4658C5.93149 18.6062 6.25078 18.75 6.98047 18.75H8.01953C8.74922 18.75 9.06851 18.6062 9.21777 18.4658C9.35537 18.3361 9.49994 18.0645 9.5 17.4004V6.59961ZM11 17.4004C10.9999 18.2351 10.8247 19.0133 10.2451 19.5586C9.67688 20.0932 8.87985 20.25 8.01953 20.25H6.98047C6.12015 20.25 5.32312 20.0932 4.75488 19.5586C4.17528 19.0133 4.00005 18.2351 4 17.4004V6.59961C4.00005 5.76493 4.17528 4.98672 4.75488 4.44141C5.32312 3.90682 6.12015 3.75 6.98047 3.75H8.01953C8.87985 3.75 9.67688 3.90682 10.2451 4.44141C10.8247 4.98672 10.9999 5.76493 11 6.59961V17.4004Z" fill="#1C252E"/>
<path d="M18 8.59961C17.9999 7.93545 17.8554 7.66391 17.7178 7.53418C17.5685 7.39376 17.2492 7.25 16.5195 7.25H15.4805C14.7508 7.25 14.4315 7.39376 14.2822 7.53418C14.1446 7.66391 14.0001 7.93545 14 8.59961V15.4004C14.0001 16.0645 14.1446 16.3361 14.2822 16.4658C14.4315 16.6062 14.7508 16.75 15.4805 16.75H16.5195C17.2492 16.75 17.5685 16.6062 17.7178 16.4658C17.8554 16.3361 17.9999 16.0645 18 15.4004V8.59961ZM19.5 15.4004C19.4999 16.2351 19.3247 17.0133 18.7451 17.5586C18.1769 18.0932 17.3798 18.25 16.5195 18.25H15.4805C14.6202 18.25 13.8231 18.0932 13.2549 17.5586C12.6753 17.0133 12.5001 16.2351 12.5 15.4004V8.59961C12.5001 7.76493 12.6753 6.98672 13.2549 6.44141C13.8231 5.90682 14.6202 5.75 15.4805 5.75H16.5195C17.3798 5.75 18.1769 5.90682 18.7451 6.44141C19.3247 6.98672 19.4999 7.76493 19.5 8.59961V15.4004Z" fill="#1C252E"/>
<path d="M4.40039 11.25C4.81442 11.2502 5.15039 11.5859 5.15039 12C5.15039 12.4141 4.81442 12.7498 4.40039 12.75H2C1.58579 12.75 1.25 12.4142 1.25 12C1.25 11.5858 1.58579 11.25 2 11.25H4.40039Z" fill="#1C252E"/>
<path d="M13 11.25C13.4142 11.25 13.75 11.5858 13.75 12C13.75 12.4142 13.4142 12.75 13 12.75H11C10.5858 12.75 10.25 12.4142 10.25 12C10.25 11.5858 10.5858 11.25 11 11.25H13Z" fill="#1C252E"/>
<path d="M22.0005 11.25C22.4145 11.2502 22.7505 11.5859 22.7505 12C22.7505 12.4141 22.4145 12.7498 22.0005 12.75H19.3101C18.8958 12.75 18.5601 12.4142 18.5601 12C18.5601 11.5858 18.8958 11.25 19.3101 11.25H22.0005Z" fill="#1C252E"/>
</svg>
