<svg width="24" height="24" viewBox="0 0 24 24" fill="none" xmlns="http://www.w3.org/2000/svg">
<path d="M21.25 15V9C21.25 6.57397 20.7603 5.0708 19.8447 4.15527C18.9292 3.23974 17.426 2.75 15 2.75H9C6.57397 2.75 5.0708 3.23974 4.15527 4.15527C3.23974 5.0708 2.75 6.57397 2.75 9V9.98047C2.74975 10.3945 2.41406 10.7305 2 10.7305C1.58594 10.7305 1.25025 10.3945 1.25 9.98047V9C1.25 6.42603 1.76026 4.4292 3.09473 3.09473C4.4292 1.76026 6.42603 1.25 9 1.25H15C17.574 1.25 19.5708 1.76026 20.9053 3.09473C22.2397 4.4292 22.75 6.42603 22.75 9V15C22.75 17.574 22.2397 19.5708 20.9053 20.9053C19.5708 22.2397 17.574 22.75 15 22.75H14C13.5858 22.75 13.25 22.4142 13.25 22C13.25 21.5858 13.5858 21.25 14 21.25H15C17.426 21.25 18.9292 20.7603 19.8447 19.8447C20.7603 18.9292 21.25 17.426 21.25 15Z" fill="#1C252E"/>
<path d="M18.01 5.22998C18.3132 5.22998 18.5871 5.4128 18.7033 5.69287C18.8193 5.97286 18.7553 6.29572 18.5412 6.51025L13.5314 11.5298C13.2388 11.823 12.7631 11.8234 12.4699 11.5308C12.1771 11.2382 12.1766 10.7633 12.4689 10.4702L16.2023 6.72998H14.0002C13.586 6.72998 13.2502 6.39419 13.2502 5.97998C13.2502 5.56577 13.586 5.22998 14.0002 5.22998H18.01Z" fill="#1C252E"/>
<path d="M17.2598 9.98975V5.97998C17.2598 5.56577 17.5956 5.22998 18.0098 5.22998C18.424 5.22998 18.7598 5.56577 18.7598 5.97998V9.98975C18.7598 10.404 18.424 10.7397 18.0098 10.7397C17.5956 10.7397 17.2598 10.404 17.2598 9.98975Z" fill="#1C252E"/>
<path d="M10.25 16.1504C10.25 15.0994 10.0351 14.5585 9.73828 14.2617C9.4415 13.9649 8.90064 13.75 7.84961 13.75H5.15039C4.09936 13.75 3.5585 13.9649 3.26172 14.2617C2.96494 14.5585 2.75 15.0994 2.75 16.1504V18.8496C2.75 19.9006 2.96494 20.4415 3.26172 20.7383C3.5585 21.0351 4.09936 21.25 5.15039 21.25H7.84961C8.90064 21.25 9.4415 21.0351 9.73828 20.7383C10.0351 20.4415 10.25 19.9006 10.25 18.8496V16.1504ZM11.75 18.8496C11.75 20.0486 11.5145 21.0831 10.7988 21.7988C10.0831 22.5145 9.04858 22.75 7.84961 22.75H5.15039C3.95142 22.75 2.91689 22.5145 2.20117 21.7988C1.48545 21.0831 1.25 20.0486 1.25 18.8496V16.1504C1.25 14.9514 1.48545 13.9169 2.20117 13.2012C2.91689 12.4855 3.95142 12.25 5.15039 12.25H7.84961C9.04858 12.25 10.0831 12.4855 10.7988 13.2012C11.5145 13.9169 11.75 14.9514 11.75 16.1504V18.8496Z" fill="#1C252E"/>
</svg>
