<svg width="24" height="24" viewBox="0 0 24 24" fill="none" xmlns="http://www.w3.org/2000/svg">
<path d="M21.25 11C21.25 9.31741 21.0627 8.36563 20.6895 7.79883C20.3607 7.29965 19.7934 6.97 18.5781 6.83594C18.5702 6.83506 18.5616 6.83317 18.5537 6.83203C18.1168 6.76964 17.6088 6.75 17 6.75H7C6.39118 6.75 5.88318 6.76964 5.44629 6.83203C5.43835 6.83317 5.42985 6.83506 5.42188 6.83594C4.2066 6.97 3.63934 7.29965 3.31055 7.79883C2.93729 8.36563 2.75 9.31741 2.75 11V13C2.75 14.6826 2.93729 15.6344 3.31055 16.2012C3.63934 16.7004 4.2066 17.03 5.42188 17.1641C5.42985 17.1649 5.43835 17.1668 5.44629 17.168C5.88318 17.2304 6.39118 17.25 7 17.25H17C17.6088 17.25 18.1168 17.2304 18.5537 17.168L18.5781 17.1641C19.7934 17.03 20.3607 16.7004 20.6895 16.2012C21.0627 15.6344 21.25 14.6826 21.25 13V11ZM22.75 13C22.75 14.6974 22.5816 16.0557 21.9424 17.0264C21.2587 18.0644 20.1565 18.4993 18.7422 18.6553L18.7412 18.6543C18.2049 18.729 17.6215 18.75 17 18.75H7C6.37811 18.75 5.79437 18.7291 5.25781 18.6543V18.6553C3.84354 18.4993 2.74131 18.0644 2.05762 17.0264C1.41838 16.0557 1.25 14.6974 1.25 13V11C1.25 9.30259 1.41838 7.94433 2.05762 6.97363C2.74131 5.93559 3.84354 5.50067 5.25781 5.34473V5.3457C5.79437 5.27089 6.37811 5.25 7 5.25H17C17.6215 5.25 18.2049 5.271 18.7412 5.3457L18.7422 5.34473C20.1565 5.50067 21.2587 5.93559 21.9424 6.97363C22.5816 7.94433 22.75 9.30259 22.75 11V13Z" fill="#1C252E"/>
<path d="M18.5537 17.1678C18.7596 17.1384 18.9689 17.1954 19.1309 17.326C19.2928 17.4566 19.3933 17.6488 19.4082 17.8563C19.4204 18.0272 19.4199 18.1839 19.4199 18.3299V18.6697C19.4199 19.9953 19.2711 21.1248 18.5313 21.8631C17.7918 22.6007 16.6604 22.7498 15.3301 22.7498H8.66992C7.33969 22.7498 6.20817 22.6007 5.46875 21.8631C4.72897 21.1248 4.58008 19.9952 4.58008 18.6697V18.3299C4.58008 18.1839 4.57959 18.0272 4.5918 17.8563L4.60157 17.7791C4.633 17.6017 4.72752 17.4402 4.86914 17.326C5.0311 17.1954 5.24032 17.1384 5.44629 17.1678C5.88319 17.2302 6.39117 17.2498 7 17.2498H17C17.6088 17.2498 18.1168 17.2302 18.5537 17.1678ZM17.918 18.7293C17.6226 18.7441 17.3162 18.7498 17 18.7498H7C6.68343 18.7498 6.37672 18.7441 6.08106 18.7293C6.08652 20.0202 6.26989 20.5438 6.52832 20.8016C6.79137 21.064 7.33035 21.2498 8.66992 21.2498H15.3301C16.6697 21.2498 17.2086 21.064 17.4717 20.8016C17.7301 20.5438 17.9125 20.0202 17.918 18.7293Z" fill="#1C252E"/>
<path d="M15.3301 1.25C16.6604 1.25 17.7918 1.39912 18.5313 2.13672C19.2712 2.875 19.4199 4.00453 19.4199 5.33008V5.66992C19.4199 5.81598 19.4204 5.9726 19.4082 6.14355C19.3934 6.35108 19.2928 6.54319 19.1309 6.67383C18.9689 6.80443 18.7597 6.86145 18.5537 6.83203C18.1168 6.76965 17.6088 6.75 17 6.75H7C6.39118 6.75 5.88318 6.76963 5.44629 6.83203C5.24029 6.86146 5.03111 6.80448 4.86914 6.67383C4.7072 6.54319 4.60665 6.35109 4.5918 6.14355C4.57959 5.9726 4.58008 5.81598 4.58008 5.66992V5.33008C4.58008 4.00457 4.7289 2.875 5.46875 2.13672C6.20817 1.39915 7.33969 1.25001 8.66992 1.25H15.3301ZM8.66992 2.75C7.33041 2.75001 6.79138 2.93587 6.52832 3.19824C6.26995 3.45598 6.08662 3.97943 6.08106 5.26953C6.37671 5.25473 6.68345 5.25 7 5.25H17C17.3162 5.25 17.6226 5.25477 17.918 5.26953C17.9124 3.97944 17.7301 3.45597 17.4717 3.19824C17.2086 2.9359 16.6696 2.75 15.3301 2.75H8.66992Z" fill="#1C252E"/>
</svg>
