<svg width="24" height="24" viewBox="0 0 24 24" fill="none" xmlns="http://www.w3.org/2000/svg">
<path d="M18.2505 17.0195V15.9805C18.2505 15.2508 18.1067 14.9315 17.9663 14.7822C17.8366 14.6445 17.5647 14.5 16.8999 14.5H5.1001C4.68588 14.5 4.3501 14.1642 4.3501 13.75C4.3501 13.3358 4.68588 13 5.1001 13H16.8999C17.7348 13 18.5137 13.1751 19.0591 13.7549C19.5936 14.3231 19.7505 15.1202 19.7505 15.9805V17.0195C19.7505 17.8798 19.5936 18.6769 19.0591 19.2451C18.5137 19.8249 17.7348 20 16.8999 20H5.1001C4.68588 20 4.3501 19.6642 4.3501 19.25C4.3501 18.8358 4.68588 18.5 5.1001 18.5H16.8999C17.5647 18.5 17.8366 18.3555 17.9663 18.2178C18.1067 18.0685 18.2505 17.7492 18.2505 17.0195Z" fill="#1C252E"/>
<path d="M13.2505 8.51953V7.48047C13.2505 6.75078 13.1067 6.43149 12.9663 6.28223C12.8366 6.14454 12.5647 6 11.8999 6H5.1001C4.68588 6 4.3501 5.66421 4.3501 5.25C4.3501 4.83579 4.68588 4.5 5.1001 4.5H11.8999C12.7348 4.5 13.5137 4.67514 14.0591 5.25488C14.5936 5.82312 14.7505 6.62022 14.7505 7.48047V8.51953C14.7505 9.37978 14.5936 10.1769 14.0591 10.7451C13.5137 11.3249 12.7348 11.5 11.8999 11.5H5.1001C4.68588 11.5 4.3501 11.1642 4.3501 10.75C4.3501 10.3358 4.68588 10 5.1001 10H11.8999C12.5647 10 12.8366 9.85546 12.9663 9.71777C13.1067 9.56852 13.2505 9.24922 13.2505 8.51953Z" fill="#1C252E"/>
<path d="M4.25 21.99V1.98999C4.25 1.57578 4.58579 1.23999 5 1.23999C5.41421 1.23999 5.75 1.57578 5.75 1.98999V21.99C5.75 22.4042 5.41421 22.74 5 22.74C4.58579 22.74 4.25 22.4042 4.25 21.99Z" fill="#1C252E"/>
</svg>
