<svg width="24" height="24" viewBox="0 0 24 24" fill="none" xmlns="http://www.w3.org/2000/svg">
<path d="M21.25 5.15039C21.25 4.09936 21.0351 3.5585 20.7383 3.26172C20.4415 2.96494 19.9006 2.75 18.8496 2.75H16.1504C15.0994 2.75 14.5585 2.96494 14.2617 3.26172C13.9649 3.5585 13.75 4.09936 13.75 5.15039V8.84961C13.75 9.90064 13.9649 10.4415 14.2617 10.7383C14.5585 11.0351 15.0994 11.25 16.1504 11.25H18.8496C19.9006 11.25 20.4415 11.0351 20.7383 10.7383C21.0351 10.4415 21.25 9.90064 21.25 8.84961V5.15039ZM22.75 8.84961C22.75 10.0486 22.5145 11.0831 21.7988 11.7988C21.0831 12.5145 20.0486 12.75 18.8496 12.75H16.1504C14.9514 12.75 13.9169 12.5145 13.2012 11.7988C12.4855 11.0831 12.25 10.0486 12.25 8.84961V5.15039C12.25 3.95142 12.4855 2.91689 13.2012 2.20117C13.9169 1.48545 14.9514 1.25 16.1504 1.25H18.8496C20.0486 1.25 21.0831 1.48545 21.7988 2.20117C22.5145 2.91689 22.75 3.95142 22.75 5.15039V8.84961Z" fill="#1C252E"/>
<path d="M10.25 15.1504C10.25 14.0994 10.0351 13.5585 9.73828 13.2617C9.4415 12.9649 8.90064 12.75 7.84961 12.75H5.15039C4.09936 12.75 3.5585 12.9649 3.26172 13.2617C2.96494 13.5585 2.75 14.0994 2.75 15.1504V18.8496C2.75 19.9006 2.96494 20.4415 3.26172 20.7383C3.5585 21.0351 4.09936 21.25 5.15039 21.25H7.84961C8.90064 21.25 9.4415 21.0351 9.73828 20.7383C10.0351 20.4415 10.25 19.9006 10.25 18.8496V15.1504ZM11.75 18.8496C11.75 20.0486 11.5145 21.0831 10.7988 21.7988C10.0831 22.5145 9.04858 22.75 7.84961 22.75H5.15039C3.95142 22.75 2.91689 22.5145 2.20117 21.7988C1.48545 21.0831 1.25 20.0486 1.25 18.8496V15.1504C1.25 13.9514 1.48545 12.9169 2.20117 12.2012C2.91689 11.4855 3.95142 11.25 5.15039 11.25H7.84961C9.04858 11.25 10.0831 11.4855 10.7988 12.2012C11.5145 12.9169 11.75 13.9514 11.75 15.1504V18.8496Z" fill="#1C252E"/>
<path d="M21.2499 15C21.2499 14.5858 21.5857 14.25 21.9999 14.25C22.4141 14.25 22.7499 14.5858 22.7499 15C22.7499 19.2842 19.2841 22.75 14.9999 22.75C14.7297 22.75 14.4807 22.6043 14.3476 22.3691C14.2146 22.1341 14.2175 21.8459 14.3564 21.6143L15.4071 19.8643C15.6202 19.5093 16.0804 19.3937 16.4355 19.6064C16.7906 19.8195 16.9062 20.2806 16.6933 20.6357L16.4228 21.085C19.191 20.4419 21.2499 17.966 21.2499 15Z" fill="#1C252E"/>
<path d="M1.25 9C1.25 4.71579 4.71579 1.25 9 1.25C9.2702 1.25 9.51921 1.39573 9.65234 1.63086C9.78533 1.86586 9.78237 2.15415 9.64355 2.38574L8.59277 4.13574C8.37973 4.49074 7.91956 4.6063 7.56445 4.39355C7.20934 4.18048 7.09369 3.71942 7.30664 3.36426L7.57617 2.91406C4.80828 3.55737 2.75 6.03428 2.75 9C2.75 9.41421 2.41421 9.75 2 9.75C1.58579 9.75 1.25 9.41421 1.25 9Z" fill="#1C252E"/>
</svg>
