<svg width="24" height="24" viewBox="0 0 24 24" fill="none" xmlns="http://www.w3.org/2000/svg">
<path d="M21.25 11V9C21.25 6.57397 20.7603 5.0708 19.8447 4.15527C18.9292 3.23974 17.426 2.75 15 2.75H9C6.57397 2.75 5.0708 3.23974 4.15527 4.15527C3.23974 5.0708 2.75 6.57397 2.75 9V15C2.75 17.426 3.23974 18.9292 4.15527 19.8447C5.0708 20.7603 6.57397 21.25 9 21.25H10C10.4142 21.25 10.75 21.5858 10.75 22C10.75 22.4142 10.4142 22.75 10 22.75H9C6.42603 22.75 4.4292 22.2397 3.09473 20.9053C1.76026 19.5708 1.25 17.574 1.25 15V9C1.25 6.42603 1.76026 4.4292 3.09473 3.09473C4.4292 1.76026 6.42603 1.25 9 1.25H15C17.574 1.25 19.5708 1.76026 20.9053 3.09473C22.2397 4.4292 22.75 6.42603 22.75 9V11C22.75 11.4142 22.4142 11.75 22 11.75C21.5858 11.75 21.25 11.4142 21.25 11Z" fill="#1C252E"/>
<path d="M21.9995 7.75C22.4137 7.75 22.7495 8.08579 22.7495 8.5C22.7495 8.91421 22.4137 9.25 21.9995 9.25H2.02979C1.61557 9.25 1.27979 8.91421 1.27979 8.5C1.27979 8.08579 1.61557 7.75 2.02979 7.75H21.9995Z" fill="#1C252E"/>
<path d="M11.9995 14.75C12.4137 14.75 12.7495 15.0858 12.7495 15.5C12.7495 15.9142 12.4137 16.25 11.9995 16.25H2.02979C1.61557 16.25 1.27979 15.9142 1.27979 15.5C1.27979 15.0858 1.61557 14.75 2.02979 14.75H11.9995Z" fill="#1C252E"/>
<path d="M7.75977 21.9905V2.01001C7.75977 1.5958 8.09555 1.26001 8.50977 1.26001C8.92398 1.26001 9.25977 1.5958 9.25977 2.01001V21.9905C9.2595 22.4045 8.92382 22.7405 8.50977 22.7405C8.09571 22.7405 7.76003 22.4045 7.75977 21.9905Z" fill="#1C252E"/>
<path d="M14.7598 11.9905V2.01001C14.7598 1.5958 15.0956 1.26001 15.5098 1.26001C15.924 1.26001 16.2598 1.5958 16.2598 2.01001V11.9905C16.2595 12.4045 15.9238 12.7405 15.5098 12.7405C15.0957 12.7405 14.76 12.4045 14.7598 11.9905Z" fill="#1C252E"/>
<path d="M14.7807 15.6787C15.0738 15.3871 15.5479 15.3873 15.8402 15.6797L19.3305 19.1699C19.6231 19.4628 19.6233 19.9376 19.3305 20.2304L17.4301 22.1299C16.6144 22.9455 15.2832 22.9392 14.4643 22.1357L14.4574 22.1289V22.1279L12.8783 20.539L12.8793 20.5381C12.065 19.7224 12.0717 18.3937 12.8744 17.5752L12.8813 17.5683L14.7807 15.6787ZM13.9457 18.625L13.8676 18.7217C13.7136 18.9606 13.7438 19.2831 13.9399 19.4795L13.9418 19.4814L15.5151 21.0644C15.7562 21.301 16.1452 21.2937 16.3695 21.0693L17.7387 19.6992L15.308 17.2685L13.9457 18.625Z" fill="#1C252E"/>
<path d="M17.579 12.8595C18.3411 12.0974 19.571 12.0501 20.3915 12.7169L20.5497 12.8595L20.5517 12.8614L22.1298 14.4493C22.9491 15.2686 22.956 16.6143 22.1396 17.4308L19.33 20.2403C19.0371 20.5332 18.5624 20.5332 18.2695 20.2403L14.7695 16.7403C14.477 16.4478 14.4765 15.9738 14.7685 15.6808L17.5781 12.8604L17.579 12.8595ZM19.4892 13.92C19.262 13.6932 18.8666 13.693 18.6396 13.92L16.3583 16.2081L18.7997 18.6495L21.079 16.3702C21.3025 16.1467 21.3098 15.7515 21.0693 15.5108L21.0673 15.5089L19.4892 13.92Z" fill="#1C252E"/>
</svg>
