<svg width="24" height="24" viewBox="0 0 24 24" fill="none" xmlns="http://www.w3.org/2000/svg">
<path d="M17.25 7C17.25 6.39118 17.2304 5.88318 17.168 5.44629C17.1668 5.43835 17.1649 5.42985 17.1641 5.42188C17.03 4.2066 16.7004 3.63934 16.2012 3.31055C15.6344 2.93729 14.6826 2.75 13 2.75H11C9.31741 2.75 8.36563 2.93729 7.79883 3.31055C7.29965 3.63934 6.97 4.2066 6.83594 5.42188C6.83506 5.42985 6.83317 5.43835 6.83203 5.44629C6.76964 5.88318 6.75 6.39118 6.75 7V17C6.75 17.6088 6.76964 18.1168 6.83203 18.5537C6.83317 18.5616 6.83506 18.5702 6.83594 18.5781C6.97 19.7934 7.29965 20.3607 7.79883 20.6895C8.36563 21.0627 9.31741 21.25 11 21.25H13C14.6826 21.25 15.6344 21.0627 16.2012 20.6895C16.7004 20.3607 17.03 19.7934 17.1641 18.5781L17.168 18.5537C17.2304 18.1168 17.25 17.6088 17.25 17V7ZM18.75 17C18.75 17.6215 18.729 18.2049 18.6543 18.7412L18.6553 18.7422C18.4993 20.1565 18.0644 21.2587 17.0264 21.9424C16.0557 22.5816 14.6974 22.75 13 22.75H11C9.30259 22.75 7.94433 22.5816 6.97363 21.9424C5.93559 21.2587 5.50067 20.1565 5.34473 18.7422L5.3457 18.7412C5.271 18.2049 5.25 17.6215 5.25 17V7C5.25 6.36911 5.27013 5.77731 5.34766 5.23438C5.50582 3.83138 5.94134 2.73753 6.97363 2.05762C7.94433 1.41838 9.30259 1.25 11 1.25H13C14.6974 1.25 16.0557 1.41838 17.0264 2.05762C18.0587 2.73753 18.4942 3.83138 18.6523 5.23438L18.7002 5.65039C18.7385 6.07552 18.75 6.52676 18.75 7V17Z" fill="#1C252E"/>
<path d="M5.25 6.99991C5.25 6.68335 5.25473 6.37661 5.26953 6.08097C3.97943 6.08653 3.45598 6.26985 3.19824 6.52823C2.93587 6.79129 2.75001 7.33032 2.75 8.66983V15.33C2.75 16.6695 2.9359 17.2085 3.19824 17.4716C3.45597 17.73 3.97944 17.9123 5.26953 17.9179C5.25477 17.6226 5.25 17.3161 5.25 16.9999V6.99991ZM6.75 16.9999C6.75 17.6087 6.76965 18.1167 6.83203 18.5536C6.86145 18.7596 6.80443 18.9688 6.67383 19.1308C6.54319 19.2927 6.35108 19.3933 6.14355 19.4081C5.9726 19.4203 5.81598 19.4198 5.66992 19.4198H5.33008C4.00453 19.4198 2.875 19.2711 2.13672 18.5312C1.39912 17.7917 1.25 16.6603 1.25 15.33V8.66983C1.25001 7.33959 1.39915 6.20808 2.13672 5.46866C2.875 4.72881 4.00457 4.57999 5.33008 4.57999H5.66992C5.81598 4.57999 5.9726 4.5795 6.14355 4.59171C6.35109 4.60656 6.54319 4.70711 6.67383 4.86905C6.80448 5.03102 6.86146 5.2402 6.83203 5.4462C6.76963 5.88309 6.75 6.39109 6.75 6.99991V16.9999Z" fill="#1C252E"/>
<path d="M17.2498 6.99991C17.2498 6.39108 17.2301 5.8831 17.1677 5.4462C17.1383 5.24023 17.1953 5.03101 17.3259 4.86905C17.4565 4.70715 17.6487 4.6066 17.8562 4.59171C18.0271 4.5795 18.1838 4.57999 18.3298 4.57999H18.6697C19.9951 4.57999 21.1248 4.72888 21.863 5.46866C22.6006 6.20808 22.7498 7.33959 22.7498 8.66983V15.33C22.7498 16.6603 22.6006 17.7917 21.863 18.5312C21.1248 19.271 19.9952 19.4198 18.6697 19.4198H18.3298C18.1838 19.4198 18.0271 19.4203 17.8562 19.4081C17.6487 19.3932 17.4565 19.2927 17.3259 19.1308C17.1954 18.9688 17.1383 18.7596 17.1677 18.5536C17.2301 18.1167 17.2498 17.6087 17.2498 16.9999V6.99991ZM18.7498 16.9999C18.7498 17.3161 18.744 17.6225 18.7293 17.9179C20.0202 17.9124 20.5437 17.73 20.8015 17.4716C21.0639 17.2085 21.2498 16.6696 21.2498 15.33V8.66983C21.2497 7.33025 21.0639 6.79128 20.8015 6.52823C20.5437 6.2698 20.0201 6.08642 18.7293 6.08097C18.7441 6.37663 18.7498 6.68333 18.7498 6.99991V16.9999Z" fill="#1C252E"/>
</svg>
