<svg width="24" height="24" viewBox="0 0 24 24" fill="none" xmlns="http://www.w3.org/2000/svg">
<path d="M20.75 10C20.75 8.31741 20.5627 7.36563 20.1895 6.79883C19.8607 6.29965 19.2934 5.97 18.0781 5.83594C18.0702 5.83506 18.0616 5.83317 18.0537 5.83203C17.6168 5.76964 17.1088 5.75 16.5 5.75H7.5C6.89118 5.75 6.38318 5.76964 5.94629 5.83203C5.93835 5.83317 5.92985 5.83506 5.92188 5.83594C4.7066 5.97 4.13934 6.29965 3.81055 6.79883C3.43729 7.36563 3.25 8.31741 3.25 10V14C3.25 15.6826 3.43729 16.6344 3.81055 17.2012C4.13934 17.7004 4.7066 18.03 5.92188 18.1641C5.92985 18.1649 5.93835 18.1668 5.94629 18.168C6.38318 18.2304 6.89118 18.25 7.5 18.25H16.5C17.1088 18.25 17.6168 18.2304 18.0537 18.168L18.0781 18.1641C19.2934 18.03 19.8607 17.7004 20.1895 17.2012C20.5627 16.6344 20.75 15.6826 20.75 14V10ZM22.25 14C22.25 15.6974 22.0816 17.0557 21.4424 18.0264C20.7587 19.0644 19.6565 19.4993 18.2422 19.6553L18.2412 19.6543C17.7049 19.729 17.1215 19.75 16.5 19.75H7.5C6.87811 19.75 6.29437 19.7291 5.75781 19.6543V19.6553C4.34354 19.4993 3.24131 19.0644 2.55762 18.0264C1.91838 17.0557 1.75 15.6974 1.75 14V10C1.75 8.30259 1.91838 6.94433 2.55762 5.97363C3.24131 4.93559 4.34354 4.50067 5.75781 4.34473V4.3457C6.29437 4.27089 6.87811 4.25 7.5 4.25H16.5C17.1215 4.25 17.7049 4.271 18.2412 4.3457L18.2422 4.34473C19.6565 4.50067 20.7587 4.93559 21.4424 5.97363C22.0816 6.94433 22.25 8.30259 22.25 10V14Z" fill="#1C252E"/>
<path d="M19.5 1.25C19.9142 1.25 20.25 1.58579 20.25 2C20.25 2.41421 19.9142 2.75 19.5 2.75H4.5C4.08579 2.75 3.75 2.41421 3.75 2C3.75 1.58579 4.08579 1.25 4.5 1.25H19.5Z" fill="#1C252E"/>
<path d="M20 21.25C20.4142 21.25 20.75 21.5858 20.75 22C20.75 22.4142 20.4142 22.75 20 22.75H5C4.58579 22.75 4.25 22.4142 4.25 22C4.25 21.5858 4.58579 21.25 5 21.25H20Z" fill="#1C252E"/>
</svg>
