<svg width="24" height="24" viewBox="0 0 24 24" fill="none" xmlns="http://www.w3.org/2000/svg">
<path d="M21.25 3.98047C21.25 3.372 21.1111 3.13496 20.9834 3.02148C20.833 2.88793 20.5059 2.75 19.7695 2.75H15.7305C14.9941 2.75 14.667 2.88793 14.5166 3.02148C14.3889 3.13496 14.25 3.372 14.25 3.98047V8.50977C14.25 9.1245 14.3898 9.35922 14.5156 9.4707C14.6651 9.603 14.9913 9.74023 15.7305 9.74023H19.7744C20.5105 9.74486 20.8357 9.60719 20.9844 9.47559C21.1107 9.36366 21.25 9.12817 21.25 8.51953V3.98047ZM22.75 8.51953C22.75 9.3205 22.5696 10.0765 21.9785 10.5996C21.4107 11.1021 20.6218 11.2441 19.7695 11.2393L15.7305 11.2402C14.8796 11.2402 14.0895 11.0965 13.5215 10.5938C12.9301 10.0702 12.75 9.3146 12.75 8.50977V3.98047C12.75 3.17894 12.9307 2.42442 13.5205 1.90039C14.0877 1.39649 14.8769 1.25 15.7305 1.25H19.7695C20.6231 1.25 21.4123 1.39649 21.9795 1.90039C22.5693 2.42442 22.75 3.17894 22.75 3.98047V8.51953Z" fill="#1C252E"/>
<path d="M21.25 15.7305C21.25 15.0106 21.1009 14.6986 20.9512 14.5488C20.8014 14.3991 20.4894 14.25 19.7695 14.25H15.7305C15.0106 14.25 14.6986 14.3991 14.5488 14.5488C14.3991 14.6986 14.25 15.0106 14.25 15.7305V19.7695C14.25 20.4894 14.3991 20.8014 14.5488 20.9512C14.6986 21.1009 15.0106 21.25 15.7305 21.25H19.7695C20.4894 21.25 20.8014 21.1009 20.9512 20.9512C21.1009 20.8014 21.25 20.4894 21.25 19.7695V15.7305ZM22.75 19.7695C22.75 20.6396 22.5794 21.444 22.0117 22.0117C21.444 22.5794 20.6396 22.75 19.7695 22.75H15.7305C14.8604 22.75 14.056 22.5794 13.4883 22.0117C12.9206 21.444 12.75 20.6396 12.75 19.7695V15.7305C12.75 14.8604 12.9206 14.056 13.4883 13.4883C14.056 12.9206 14.8604 12.75 15.7305 12.75H19.7695C20.6396 12.75 21.444 12.9206 22.0117 13.4883C22.5794 14.056 22.75 14.8604 22.75 15.7305V19.7695Z" fill="#1C252E"/>
<path d="M9.75 3.98047C9.75 3.372 9.61111 3.13496 9.4834 3.02148C9.33305 2.88793 9.00591 2.75 8.26953 2.75H4.23047C3.49409 2.75 3.16695 2.88793 3.0166 3.02148C2.88889 3.13496 2.75 3.372 2.75 3.98047V8.50977C2.75 9.1245 2.88978 9.35922 3.01562 9.4707C3.16511 9.603 3.49135 9.74023 4.23047 9.74023H8.27441C9.01045 9.74486 9.33568 9.60719 9.48438 9.47559C9.61069 9.36366 9.75 9.12817 9.75 8.51953V3.98047ZM11.25 8.51953C11.25 9.3205 11.0696 10.0765 10.4785 10.5996C9.91066 11.1021 9.12181 11.2441 8.26953 11.2393L4.23047 11.2402C3.37959 11.2402 2.5895 11.0965 2.02148 10.5938C1.43013 10.0702 1.25 9.3146 1.25 8.50977V3.98047C1.25 3.17894 1.43072 2.42442 2.02051 1.90039C2.58767 1.39649 3.37694 1.25 4.23047 1.25H8.26953C9.12306 1.25 9.91233 1.39649 10.4795 1.90039C11.0693 2.42442 11.25 3.17894 11.25 3.98047V8.51953Z" fill="#1C252E"/>
<path d="M9.75 15.7305C9.75 15.0106 9.60094 14.6986 9.45117 14.5488C9.3014 14.3991 8.98941 14.25 8.26953 14.25H4.23047C3.51059 14.25 3.1986 14.3991 3.04883 14.5488C2.89906 14.6986 2.75 15.0106 2.75 15.7305V19.7695C2.75 20.4894 2.89906 20.8014 3.04883 20.9512C3.1986 21.1009 3.51059 21.25 4.23047 21.25H8.26953C8.98941 21.25 9.3014 21.1009 9.45117 20.9512C9.60094 20.8014 9.75 20.4894 9.75 19.7695V15.7305ZM11.25 19.7695C11.25 20.6396 11.0794 21.444 10.5117 22.0117C9.94399 22.5794 9.13965 22.75 8.26953 22.75H4.23047C3.36035 22.75 2.55601 22.5794 1.98828 22.0117C1.42055 21.444 1.25 20.6396 1.25 19.7695V15.7305C1.25 14.8604 1.42055 14.056 1.98828 13.4883C2.55601 12.9206 3.36035 12.75 4.23047 12.75H8.26953C9.13965 12.75 9.94399 12.9206 10.5117 13.4883C11.0794 14.056 11.25 14.8604 11.25 15.7305V19.7695Z" fill="#1C252E"/>
</svg>
