<svg width="24" height="24" viewBox="0 0 24 24" fill="none" xmlns="http://www.w3.org/2000/svg">
<path d="M20.75 5.34961C20.7498 4.18401 19.8151 3.25 18.6494 3.25C17.9798 3.25012 17.3865 3.56635 17.0137 4.04883C16.9969 4.07048 16.9778 4.08989 16.959 4.10938C16.7003 4.46571 16.5499 4.88475 16.5498 5.34961C16.5498 6.51527 17.4838 7.44999 18.6494 7.4502C19.1443 7.4502 19.592 7.2809 19.9443 7.00195L19.9453 7.00098C20.4342 6.61583 20.75 6.01817 20.75 5.34961ZM22.25 5.34961C22.25 6.50094 21.705 7.52385 20.874 8.17871C20.2666 8.65923 19.494 8.9502 18.6494 8.9502C16.6554 8.94999 15.0498 7.34369 15.0498 5.34961C15.0499 4.50083 15.3436 3.74193 15.8174 3.13086L15.874 3.06543C15.8818 3.05751 15.8904 3.05051 15.8984 3.04297C16.5481 2.2564 17.5407 1.75012 18.6494 1.75C20.6435 1.75 22.2498 3.35558 22.25 5.34961Z" fill="#1C252E"/>
<path d="M7.4502 5.34961C7.45011 4.85878 7.28301 4.41851 6.99707 4.0498V4.04883C6.61179 3.56291 6.01583 3.25 5.34961 3.25C4.18413 3.25021 3.25021 4.18413 3.25 5.34961C3.25 6.01583 3.56291 6.61179 4.04883 6.99707C4.41754 7.28301 4.85878 7.45011 5.34961 7.4502C6.5154 7.4502 7.4502 6.5154 7.4502 5.34961ZM8.9502 5.34961C8.9502 7.34382 7.34382 8.9502 5.34961 8.9502C4.50088 8.95011 3.74191 8.6564 3.13086 8.18262L3.12598 8.17871C2.29489 7.52386 1.75 6.50099 1.75 5.34961C1.75021 3.35571 3.35571 1.75021 5.34961 1.75C6.42906 1.75 7.39559 2.22897 8.05176 2.97363L8.17871 3.12598L8.18262 3.12988V3.13086C8.6564 3.74191 8.95011 4.50088 8.9502 5.34961Z" fill="#1C252E"/>
<path d="M20.75 18.6497C20.7499 17.9801 20.4336 17.3868 19.9512 17.0139C19.9294 16.9971 19.9093 16.9781 19.8896 16.9592C19.5333 16.7007 19.1142 16.55 18.6494 16.55C17.4839 16.5503 16.55 17.4842 16.5498 18.6497C16.5498 19.1167 16.7018 19.5406 16.9531 19.8831C16.9744 19.9045 16.995 19.9272 17.0137 19.9514C17.3865 20.4338 17.9799 20.7501 18.6494 20.7502C19.8152 20.7502 20.75 19.8154 20.75 18.6497ZM22.25 18.6497C22.25 20.6439 20.6436 22.2502 18.6494 22.2502C17.5415 22.2501 16.5501 21.7439 15.9004 20.9583C15.8727 20.9325 15.8451 20.9054 15.8213 20.8752C15.3404 20.2677 15.0498 19.4945 15.0498 18.6497C15.05 16.6558 16.6555 15.0503 18.6494 15.05C19.4984 15.05 20.258 15.3437 20.8691 15.8176C20.9015 15.8427 20.9306 15.8711 20.958 15.9006C21.7436 16.5504 22.2499 17.5417 22.25 18.6497Z" fill="#1C252E"/>
<path d="M7.4502 18.6497C7.44999 17.4841 6.51527 16.55 5.34961 16.55C4.8825 16.5501 4.45865 16.7018 4.11621 16.9534C4.09484 16.9745 4.07288 16.9953 4.04883 17.0139C3.56635 17.3868 3.25012 17.9801 3.25 18.6497C3.25 19.8153 4.18401 20.75 5.34961 20.7502C6.02295 20.7502 6.61617 20.441 6.99707 19.9504C7.28308 19.5816 7.4502 19.1406 7.4502 18.6497ZM8.9502 18.6497C8.9502 19.4986 8.65653 20.2582 8.18262 20.8694V20.8704C7.5235 21.7195 6.496 22.2502 5.34961 22.2502C3.35558 22.25 1.75 20.6437 1.75 18.6497C1.75012 17.5417 2.25539 16.5494 3.04102 15.8997C3.06673 15.872 3.09397 15.8453 3.12402 15.8215C3.73157 15.3406 4.50468 15.0501 5.34961 15.05C7.34369 15.05 8.94999 16.6556 8.9502 18.6497Z" fill="#1C252E"/>
<path d="M15.0498 5.34961C15.0499 4.83823 15.1579 4.35387 15.3486 3.91602C14.3196 3.48497 13.1944 3.25 12 3.25C10.8124 3.25 9.68118 3.48532 8.64941 3.91699C8.84028 4.35305 8.95014 4.83448 8.9502 5.34961C8.9502 7.34382 7.34382 8.9502 5.34961 8.9502C4.83448 8.95014 4.35305 8.84028 3.91699 8.64941C3.48532 9.68118 3.25 10.8124 3.25 12C3.25 13.1949 3.48564 14.3202 3.91699 15.3496C4.35295 15.1588 4.83462 15.0499 5.34961 15.0498C7.34382 15.0498 8.9502 16.6562 8.9502 18.6504C8.95014 19.1616 8.84104 19.6453 8.65039 20.083C9.68193 20.5145 10.8127 20.75 12 20.75C13.195 20.75 14.3201 20.5135 15.3496 20.082C15.1591 19.6463 15.0499 19.1651 15.0498 18.6504C15.0498 16.6562 16.6562 15.0498 18.6504 15.0498C19.1614 15.0499 19.6454 15.1581 20.083 15.3486C20.5141 14.3195 20.75 13.1946 20.75 12C20.75 10.8122 20.5138 9.68127 20.082 8.64941C19.6462 8.84005 19.1652 8.95014 18.6504 8.9502C16.6562 8.9502 15.0498 7.34382 15.0498 5.34961ZM16.5498 5.34961C16.5498 6.5154 17.4846 7.4502 18.6504 7.4502C19.1412 7.45011 19.5815 7.28301 19.9502 6.99707C20.125 6.86149 20.3511 6.81003 20.5674 6.85645C20.7837 6.90295 20.9685 7.04292 21.0723 7.23828C21.8289 8.66507 22.25 10.2859 22.25 12C22.25 13.7245 21.8287 15.3353 21.0723 16.7617C20.968 16.9581 20.782 17.0977 20.5645 17.1436C20.3465 17.1893 20.1189 17.1363 19.9443 16.998C19.5921 16.7192 19.1451 16.5499 18.6504 16.5498C17.4846 16.5498 16.5498 17.4846 16.5498 18.6504C16.5499 19.1412 16.717 19.5815 17.0029 19.9502C17.1385 20.125 17.19 20.3511 17.1436 20.5674C17.0971 20.7837 16.9571 20.9685 16.7617 21.0723C15.3353 21.8287 13.7245 22.25 12 22.25C10.2859 22.25 8.66507 21.8289 7.23828 21.0723C7.04193 20.968 6.90225 20.782 6.85645 20.5645C6.81073 20.3465 6.86373 20.1189 7.00195 19.9443C7.28079 19.5921 7.45011 19.1451 7.4502 18.6504C7.4502 17.4846 6.5154 16.5498 5.34961 16.5498C4.85878 16.5499 4.41851 16.717 4.0498 17.0029C3.87497 17.1385 3.64893 17.19 3.43262 17.1436C3.21635 17.0971 3.03149 16.9571 2.92773 16.7617C2.1713 15.3353 1.75 13.7245 1.75 12C1.75 10.2859 2.1711 8.66507 2.92773 7.23828L2.96973 7.16797C3.07754 7.0095 3.2432 6.89717 3.43262 6.85645C3.64893 6.81003 3.87497 6.86149 4.0498 6.99707C4.41851 7.28301 4.85878 7.45011 5.34961 7.4502C6.5154 7.4502 7.4502 6.5154 7.4502 5.34961C7.45011 4.85878 7.28301 4.41851 6.99707 4.0498C6.86149 3.87497 6.81003 3.64893 6.85645 3.43262C6.90295 3.21635 7.04292 3.03149 7.23828 2.92773C8.66507 2.1711 10.2859 1.75 12 1.75C13.7245 1.75 15.3353 2.1713 16.7617 2.92773C16.9581 3.03201 17.0977 3.21799 17.1436 3.43555C17.1893 3.65348 17.1363 3.88107 16.998 4.05566C16.7192 4.40791 16.5499 4.85488 16.5498 5.34961Z" fill="#1C252E"/>
</svg>
