<svg width="24" height="24" viewBox="0 0 24 24" fill="none" xmlns="http://www.w3.org/2000/svg">
<path d="M21.25 15.7305C21.25 15.0008 21.1062 14.6815 20.9658 14.5322C20.8361 14.3946 20.5645 14.2501 19.9004 14.25H4.09961C3.43545 14.2501 3.16391 14.3946 3.03418 14.5322C2.89376 14.6815 2.75 15.0008 2.75 15.7305V19.7695C2.75 20.4992 2.89376 20.8185 3.03418 20.9678C3.16391 21.1054 3.43545 21.2499 4.09961 21.25H19.9004C20.5645 21.2499 20.8361 21.1054 20.9658 20.9678C21.1062 20.8185 21.25 20.4992 21.25 19.7695V15.7305ZM22.75 19.7695C22.75 20.6298 22.5932 21.4269 22.0586 21.9951C21.5133 22.5747 20.7351 22.7499 19.9004 22.75H4.09961C3.26493 22.7499 2.48672 22.5747 1.94141 21.9951C1.40682 21.4269 1.25 20.6298 1.25 19.7695V15.7305C1.25 14.8702 1.40682 14.0731 1.94141 13.5049C2.48672 12.9253 3.26493 12.7501 4.09961 12.75H19.9004C20.7351 12.7501 21.5133 12.9253 22.0586 13.5049C22.5932 14.0731 22.75 14.8702 22.75 15.7305V19.7695Z" fill="#1C252E"/>
<path d="M21.25 4.23047C21.25 3.50078 21.1062 3.18149 20.9658 3.03223C20.8361 2.89463 20.5645 2.75006 19.9004 2.75H4.09961C3.43545 2.75006 3.16391 2.89463 3.03418 3.03223C2.89376 3.18149 2.75 3.50078 2.75 4.23047V8.26953C2.75 8.99922 2.89376 9.31852 3.03418 9.46777C3.16391 9.60537 3.43545 9.74994 4.09961 9.75H19.9004C20.5645 9.74994 20.8361 9.60537 20.9658 9.46777C21.1062 9.31851 21.25 8.99922 21.25 8.26953V4.23047ZM22.75 8.26953C22.75 9.12985 22.5932 9.92688 22.0586 10.4951C21.5133 11.0747 20.7351 11.2499 19.9004 11.25H4.09961C3.26493 11.2499 2.48672 11.0747 1.94141 10.4951C1.40682 9.92688 1.25 9.12985 1.25 8.26953V4.23047C1.25 3.37015 1.40682 2.57312 1.94141 2.00488C2.48672 1.42528 3.26493 1.25005 4.09961 1.25H19.9004C20.7351 1.25005 21.5133 1.42528 22.0586 2.00488C22.5932 2.57312 22.75 3.37015 22.75 4.23047V8.26953Z" fill="#1C252E"/>
</svg>
