<svg width="24" height="24" viewBox="0 0 24 24" fill="none" xmlns="http://www.w3.org/2000/svg">
<path d="M21.25 9C21.25 6.57397 20.7603 5.0708 19.8447 4.15527C18.9292 3.23974 17.426 2.75 15 2.75H9C6.57397 2.75 5.0708 3.23974 4.15527 4.15527C3.23974 5.0708 2.75 6.57397 2.75 9V15C2.75 17.426 3.23974 18.9292 4.15527 19.8447C5.0708 20.7603 6.57397 21.25 9 21.25H15C17.426 21.25 18.9292 20.7603 19.8447 19.8447C20.7603 18.9292 21.25 17.426 21.25 15V9ZM22.75 15C22.75 17.574 22.2397 19.5708 20.9053 20.9053C19.5708 22.2397 17.574 22.75 15 22.75H9C6.42603 22.75 4.4292 22.2397 3.09473 20.9053C1.76026 19.5708 1.25 17.574 1.25 15V9C1.25 6.42603 1.76026 4.4292 3.09473 3.09473C4.4292 1.76026 6.42603 1.25 9 1.25H15C17.574 1.25 19.5708 1.76026 20.9053 3.09473C22.2397 4.4292 22.75 6.42603 22.75 9V15Z" fill="#1C252E"/>
<path d="M22 11.25C22.4142 11.25 22.75 11.5858 22.75 12C22.75 12.4142 22.4142 12.75 22 12.75H2C1.58579 12.75 1.25 12.4142 1.25 12C1.25 11.5858 1.58579 11.25 2 11.25H22Z" fill="#1C252E"/>
<path d="M7.5 21.5V12C7.5 11.5858 7.83579 11.25 8.25 11.25C8.66421 11.25 9 11.5858 9 12V21.5C9 21.9142 8.66421 22.25 8.25 22.25C7.83579 22.25 7.5 21.9142 7.5 21.5Z" fill="#1C252E"/>
<path d="M15 22V12C15 11.5858 15.3358 11.25 15.75 11.25C16.1642 11.25 16.5 11.5858 16.5 12V22C16.5 22.4142 16.1642 22.75 15.75 22.75C15.3358 22.75 15 22.4142 15 22Z" fill="#1C252E"/>
<path d="M7.5 12V2C7.5 1.58579 7.83579 1.25 8.25 1.25C8.66421 1.25 9 1.58579 9 2V12C9 12.4142 8.66421 12.75 8.25 12.75C7.83579 12.75 7.5 12.4142 7.5 12Z" fill="#1C252E"/>
<path d="M15 12V2.54004C15 2.12583 15.3358 1.79004 15.75 1.79004C16.1642 1.79004 16.5 2.12583 16.5 2.54004V12C16.5 12.4142 16.1642 12.75 15.75 12.75C15.3358 12.75 15 12.4142 15 12Z" fill="#1C252E"/>
</svg>
