<svg width="24" height="24" viewBox="0 0 24 24" fill="none" xmlns="http://www.w3.org/2000/svg">
<path d="M4.25 17.0195V15.9805C4.25 15.1202 4.40682 14.3231 4.94141 13.7549C5.48672 13.1753 6.26493 13.0001 7.09961 13H18.9004C19.3144 13.0002 19.6504 13.3359 19.6504 13.75C19.6504 14.1641 19.3144 14.4998 18.9004 14.5H7.09961C6.43545 14.5001 6.16391 14.6446 6.03418 14.7822C5.89376 14.9315 5.75 15.2508 5.75 15.9805V17.0195C5.75 17.7492 5.89376 18.0685 6.03418 18.2178C6.16391 18.3554 6.43545 18.4999 7.09961 18.5H18.9004C19.3144 18.5002 19.6504 18.8359 19.6504 19.25C19.6504 19.6641 19.3144 19.9998 18.9004 20H7.09961C6.26493 19.9999 5.48672 19.8247 4.94141 19.2451C4.40682 18.6769 4.25 17.8798 4.25 17.0195Z" fill="#1C252E"/>
<path d="M9.25 8.51953V7.48047C9.25 6.62015 9.40682 5.82312 9.94141 5.25488C10.4867 4.67528 11.2649 4.50005 12.0996 4.5H18.9004C19.3144 4.50021 19.6504 4.83592 19.6504 5.25C19.6504 5.66408 19.3144 5.99979 18.9004 6H12.0996C11.4355 6.00006 11.1639 6.14463 11.0342 6.28223C10.8938 6.43149 10.75 6.75078 10.75 7.48047V8.51953C10.75 9.24922 10.8938 9.56851 11.0342 9.71777C11.1639 9.85537 11.4355 9.99994 12.0996 10H18.9004C19.3144 10.0002 19.6504 10.3359 19.6504 10.75C19.6504 11.1641 19.3144 11.4998 18.9004 11.5H12.0996C11.2649 11.4999 10.4867 11.3247 9.94141 10.7451C9.40682 10.1769 9.25 9.37985 9.25 8.51953Z" fill="#1C252E"/>
<path d="M18.25 21.99V1.98999C18.25 1.57578 18.5858 1.23999 19 1.23999C19.4142 1.23999 19.75 1.57578 19.75 1.98999V21.99C19.75 22.4042 19.4142 22.74 19 22.74C18.5858 22.74 18.25 22.4042 18.25 21.99Z" fill="#1C252E"/>
</svg>
