<svg width="24" height="24" viewBox="0 0 24 24" fill="none" xmlns="http://www.w3.org/2000/svg">
<path d="M21.25 4.23047C21.25 3.51059 21.1009 3.1986 20.9512 3.04883C20.8014 2.89906 20.4894 2.75 19.7695 2.75H15.7305C15.0106 2.75 14.6986 2.89906 14.5488 3.04883C14.3991 3.1986 14.25 3.51059 14.25 4.23047V8.26953C14.25 8.98941 14.3991 9.3014 14.5488 9.45117C14.6986 9.60094 15.0106 9.75 15.7305 9.75H19.7695C20.4894 9.75 20.8014 9.60094 20.9512 9.45117C21.1009 9.3014 21.25 8.98941 21.25 8.26953V4.23047ZM22.75 8.26953C22.75 9.13965 22.5794 9.94399 22.0117 10.5117C21.444 11.0794 20.6396 11.25 19.7695 11.25H15.7305C14.8604 11.25 14.056 11.0794 13.4883 10.5117C12.9206 9.94399 12.75 9.13965 12.75 8.26953V4.23047C12.75 3.36035 12.9206 2.55601 13.4883 1.98828C14.056 1.42055 14.8604 1.25 15.7305 1.25H19.7695C20.6396 1.25 21.444 1.42055 22.0117 1.98828C22.5794 2.55601 22.75 3.36035 22.75 4.23047V8.26953Z" fill="#1C252E"/>
<path d="M9.75 3.98047C9.75 3.372 9.61111 3.13496 9.4834 3.02148C9.33305 2.88793 9.00591 2.75 8.26953 2.75H4.23047C3.49409 2.75 3.16695 2.88793 3.0166 3.02148C2.88889 3.13496 2.75 3.372 2.75 3.98047V8.50977C2.75 9.1245 2.88978 9.35922 3.01562 9.4707C3.16511 9.603 3.49135 9.74023 4.23047 9.74023H8.27441C9.01045 9.74486 9.33568 9.60719 9.48438 9.47559C9.61069 9.36366 9.75 9.12817 9.75 8.51953V3.98047ZM11.25 8.51953C11.25 9.3205 11.0696 10.0765 10.4785 10.5996C9.91066 11.1021 9.12181 11.2441 8.26953 11.2393L4.23047 11.2402C3.37959 11.2402 2.5895 11.0965 2.02148 10.5938C1.43013 10.0702 1.25 9.3146 1.25 8.50977V3.98047C1.25 3.17894 1.43072 2.42442 2.02051 1.90039C2.58767 1.39649 3.37694 1.25 4.23047 1.25H8.26953C9.12306 1.25 9.91233 1.39649 10.4795 1.90039C11.0693 2.42442 11.25 3.17894 11.25 3.98047V8.51953Z" fill="#1C252E"/>
<path d="M9.75 15.7305C9.75 15.0106 9.60094 14.6986 9.45117 14.5488C9.3014 14.3991 8.98941 14.25 8.26953 14.25H4.23047C3.51059 14.25 3.1986 14.3991 3.04883 14.5488C2.89906 14.6986 2.75 15.0106 2.75 15.7305V19.7695C2.75 20.4894 2.89906 20.8014 3.04883 20.9512C3.1986 21.1009 3.51059 21.25 4.23047 21.25H8.26953C8.98941 21.25 9.3014 21.1009 9.45117 20.9512C9.60094 20.8014 9.75 20.4894 9.75 19.7695V15.7305ZM11.25 19.7695C11.25 20.6396 11.0794 21.444 10.5117 22.0117C9.94399 22.5794 9.13965 22.75 8.26953 22.75H4.23047C3.36035 22.75 2.55601 22.5794 1.98828 22.0117C1.42055 21.444 1.25 20.6396 1.25 19.7695V15.7305C1.25 14.8604 1.42055 14.056 1.98828 13.4883C2.55601 12.9206 3.36035 12.75 4.23047 12.75H8.26953C9.13965 12.75 9.94399 12.9206 10.5117 13.4883C11.0794 14.056 11.25 14.8604 11.25 15.7305V19.7695Z" fill="#1C252E"/>
<path d="M21 14.75C21.4142 14.75 21.75 15.0858 21.75 15.5C21.75 15.9142 21.4142 16.25 21 16.25H15C14.5858 16.25 14.25 15.9142 14.25 15.5C14.25 15.0858 14.5858 14.75 15 14.75H21Z" fill="#1C252E"/>
<path d="M21 18.75C21.4142 18.75 21.75 19.0858 21.75 19.5C21.75 19.9142 21.4142 20.25 21 20.25H15C14.5858 20.25 14.25 19.9142 14.25 19.5C14.25 19.0858 14.5858 18.75 15 18.75H21Z" fill="#1C252E"/>
</svg>
