<svg width="24" height="24" viewBox="0 0 24 24" fill="none" xmlns="http://www.w3.org/2000/svg">
<path d="M13.0098 16.8999V5.1001C13.0098 4.68588 13.3456 4.3501 13.7598 4.3501C14.174 4.3501 14.5098 4.68588 14.5098 5.1001V16.8999C14.5098 17.5647 14.6543 17.8366 14.792 17.9663C14.9413 18.1067 15.2605 18.2505 15.9902 18.2505H17.0293C17.759 18.2505 18.0783 18.1067 18.2275 17.9663C18.3652 17.8366 18.5098 17.5647 18.5098 16.8999V5.1001C18.5098 4.68588 18.8456 4.3501 19.2598 4.3501C19.674 4.3501 20.0098 4.68588 20.0098 5.1001V16.8999C20.0098 17.7348 19.8346 18.5137 19.2549 19.0591C18.6866 19.5936 17.8895 19.7505 17.0293 19.7505H15.9902C15.13 19.7505 14.3329 19.5936 13.7646 19.0591C13.1849 18.5137 13.0098 17.7348 13.0098 16.8999Z" fill="#1C252E"/>
<path d="M4.50977 11.8999V5.1001C4.50977 4.68588 4.84555 4.3501 5.25977 4.3501C5.67398 4.3501 6.00977 4.68588 6.00977 5.1001V11.8999C6.00977 12.5647 6.15431 12.8366 6.29199 12.9663C6.44125 13.1067 6.76055 13.2505 7.49023 13.2505H8.5293C9.25898 13.2505 9.57828 13.1067 9.72754 12.9663C9.86522 12.8366 10.0098 12.5647 10.0098 11.8999V5.1001C10.0098 4.68588 10.3456 4.3501 10.7598 4.3501C11.174 4.3501 11.5098 4.68588 11.5098 5.1001V11.8999C11.5098 12.7348 11.3346 13.5137 10.7549 14.0591C10.1866 14.5936 9.38955 14.7505 8.5293 14.7505H7.49023C6.62999 14.7505 5.83288 14.5936 5.26465 14.0591C4.6849 13.5137 4.50977 12.7348 4.50977 11.8999Z" fill="#1C252E"/>
<path d="M22 4.25C22.4142 4.25 22.75 4.58579 22.75 5C22.75 5.41421 22.4142 5.75 22 5.75H2C1.58579 5.75 1.25 5.41421 1.25 5C1.25 4.58579 1.58579 4.25 2 4.25H22Z" fill="#1C252E"/>
</svg>
