<svg width="24" height="24" viewBox="0 0 24 24" fill="none" xmlns="http://www.w3.org/2000/svg">
<path d="M18.75 15.9805C18.75 15.2508 18.6062 14.9315 18.4658 14.7822C18.3361 14.6446 18.0645 14.5001 17.4004 14.5H6.59961C5.93545 14.5001 5.66391 14.6446 5.53418 14.7822C5.39376 14.9315 5.25 15.2508 5.25 15.9805V17.0195C5.25 17.7492 5.39376 18.0685 5.53418 18.2178C5.66391 18.3554 5.93545 18.4999 6.59961 18.5H17.4004C18.0645 18.4999 18.3361 18.3554 18.4658 18.2178C18.6062 18.0685 18.75 17.7492 18.75 17.0195V15.9805ZM20.25 17.0195C20.25 17.8798 20.0932 18.6769 19.5586 19.2451C19.0133 19.8247 18.2351 19.9999 17.4004 20H6.59961C5.76493 19.9999 4.98672 19.8247 4.44141 19.2451C3.90682 18.6769 3.75 17.8798 3.75 17.0195V15.9805C3.75 15.1202 3.90682 14.3231 4.44141 13.7549C4.98672 13.1753 5.76493 13.0001 6.59961 13H17.4004C18.2351 13.0001 19.0133 13.1753 19.5586 13.7549C20.0932 14.3231 20.25 15.1202 20.25 15.9805V17.0195Z" fill="#1C252E"/>
<path d="M16.75 7.48047C16.75 6.75078 16.6062 6.43149 16.4658 6.28223C16.3361 6.14463 16.0645 6.00006 15.4004 6H8.59961C7.93545 6.00006 7.66391 6.14463 7.53418 6.28223C7.39376 6.43149 7.25 6.75078 7.25 7.48047V8.51953C7.25 9.24922 7.39376 9.56851 7.53418 9.71777C7.66391 9.85537 7.93545 9.99994 8.59961 10H15.4004C16.0645 9.99994 16.3361 9.85537 16.4658 9.71777C16.6062 9.56851 16.75 9.24922 16.75 8.51953V7.48047ZM18.25 8.51953C18.25 9.37985 18.0932 10.1769 17.5586 10.7451C17.0133 11.3247 16.2351 11.4999 15.4004 11.5H8.59961C7.76493 11.4999 6.98672 11.3247 6.44141 10.7451C5.90682 10.1769 5.75 9.37985 5.75 8.51953V7.48047C5.75 6.62015 5.90682 5.82312 6.44141 5.25488C6.98672 4.67528 7.76493 4.50005 8.59961 4.5H15.4004C16.2351 4.50005 17.0133 4.67528 17.5586 5.25488C18.0932 5.82312 18.25 6.62015 18.25 7.48047V8.51953Z" fill="#1C252E"/>
<path d="M11.25 22.0004V19.6C11.25 19.1858 11.5858 18.85 12 18.85C12.4142 18.85 12.75 19.1858 12.75 19.6V22.0004C12.7498 22.4144 12.4141 22.7504 12 22.7504C11.5859 22.7504 11.2502 22.4144 11.25 22.0004Z" fill="#1C252E"/>
<path d="M11.25 13V11C11.25 10.5858 11.5858 10.25 12 10.25C12.4142 10.25 12.75 10.5858 12.75 11V13C12.75 13.4142 12.4142 13.75 12 13.75C11.5858 13.75 11.25 13.4142 11.25 13Z" fill="#1C252E"/>
<path d="M11.25 4.69043V2C11.25 1.58579 11.5858 1.25 12 1.25C12.4142 1.25 12.75 1.58579 12.75 2V4.69043C12.7498 5.10445 12.4141 5.44043 12 5.44043C11.5859 5.44043 11.2502 5.10445 11.25 4.69043Z" fill="#1C252E"/>
</svg>
