<svg width="24" height="24" viewBox="0 0 24 24" fill="none" xmlns="http://www.w3.org/2000/svg">
<path d="M18.25 9.90039C18.25 7.94892 17.9826 7.0178 17.4824 6.51758C16.9822 6.01736 16.0511 5.75 14.0996 5.75H5.75V14.0996C5.75 16.0511 6.01736 16.9822 6.51758 17.4824C7.0178 17.9826 7.94892 18.25 9.90039 18.25H18.25V9.90039ZM19.75 19C19.75 19.4142 19.4142 19.75 19 19.75H9.90039C7.95186 19.75 6.43181 19.5177 5.45703 18.543C4.48225 17.5682 4.25 16.0481 4.25 14.0996V5C4.25 4.58579 4.58579 4.25 5 4.25H14.0996C16.0481 4.25 17.5682 4.48225 18.543 5.45703C19.5177 6.43181 19.75 7.95186 19.75 9.90039V19Z" fill="#1C252E"/>
<path d="M4.25 5V2C4.25 1.58579 4.58579 1.25 5 1.25C5.41421 1.25 5.75 1.58579 5.75 2V5C5.75 5.41421 5.41421 5.75 5 5.75C4.58579 5.75 4.25 5.41421 4.25 5Z" fill="#1C252E"/>
<path d="M5 4.25C5.41421 4.25 5.75 4.58579 5.75 5C5.75 5.41421 5.41421 5.75 5 5.75H2C1.58579 5.75 1.25 5.41421 1.25 5C1.25 4.58579 1.58579 4.25 2 4.25H5Z" fill="#1C252E"/>
<path d="M18.25 22V19C18.25 18.5858 18.5858 18.25 19 18.25C19.4142 18.25 19.75 18.5858 19.75 19V22C19.75 22.4142 19.4142 22.75 19 22.75C18.5858 22.75 18.25 22.4142 18.25 22Z" fill="#1C252E"/>
<path d="M22 18.25C22.4142 18.25 22.75 18.5858 22.75 19C22.75 19.4142 22.4142 19.75 22 19.75H19C18.5858 19.75 18.25 19.4142 18.25 19C18.25 18.5858 18.5858 18.25 19 18.25H22Z" fill="#1C252E"/>
</svg>
