<svg width="24" height="24" viewBox="0 0 24 24" fill="none" xmlns="http://www.w3.org/2000/svg">
<path d="M16.25 12.25C16.25 10.449 15.8853 9.3833 15.251 8.74902C14.6167 8.11474 13.551 7.75 11.75 7.75H7.25C5.44897 7.75 4.3833 8.11474 3.74902 8.74902C3.11474 9.3833 2.75 10.449 2.75 12.25V16.75C2.75 18.551 3.11474 19.6167 3.74902 20.251C4.3833 20.8853 5.44897 21.25 7.25 21.25H11.75C13.551 21.25 14.6167 20.8853 15.251 20.251C15.8853 19.6167 16.25 18.551 16.25 16.75V12.25ZM17.75 16.75C17.75 18.699 17.3647 20.2583 16.3115 21.3115C15.2583 22.3647 13.699 22.75 11.75 22.75H7.25C5.30103 22.75 3.7417 22.3647 2.68848 21.3115C1.63526 20.2583 1.25 18.699 1.25 16.75V12.25C1.25 10.301 1.63526 8.7417 2.68848 7.68848C3.7417 6.63526 5.30103 6.25 7.25 6.25H11.75C13.699 6.25 15.2583 6.63526 16.3115 7.68848C17.3647 8.7417 17.75 10.301 17.75 12.25V16.75Z" fill="#1C252E"/>
<path d="M21.2499 9C21.2499 6.03395 19.1911 3.55703 16.4228 2.91406L16.6933 3.36426C16.9062 3.71942 16.7906 4.18048 16.4355 4.39355C16.0804 4.6063 15.6202 4.49074 15.4071 4.13574L14.3564 2.38574C14.2175 2.15415 14.2146 1.86586 14.3476 1.63086C14.4807 1.39573 14.7297 1.25 14.9999 1.25C19.2841 1.25 22.7499 4.71579 22.7499 9C22.7499 9.41421 22.4141 9.75 21.9999 9.75C21.5857 9.75 21.2499 9.41421 21.2499 9Z" fill="#1C252E"/>
</svg>
