<svg width="24" height="24" viewBox="0 0 24 24" fill="none" xmlns="http://www.w3.org/2000/svg">
<path d="M20.9697 1C22.2397 1 23 1.76027 23 3.03027V5.96973C23 7.23973 22.2397 8 20.9697 8H18.0303C16.7603 8 16 7.23973 16 5.96973V3.03027C16 1.76027 16.7603 1 18.0303 1H20.9697ZM20.6826 2.20801C20.2697 2.20801 19.9082 2.4136 19.6387 2.80273C19.5837 2.88217 19.5375 2.96277 19.5 3.03613C19.4625 2.96277 19.4163 2.88217 19.3613 2.80273C19.0919 2.41379 18.7311 2.20809 18.3184 2.20801C17.948 2.2081 17.6093 2.3597 17.3652 2.63477C17.13 2.90007 17.0001 3.25778 17 3.64062C17.0002 4.38429 17.5137 4.86199 18.1641 5.46582L18.1689 5.4707C18.5437 5.81868 18.9686 6.21271 19.3877 6.73633C19.4154 6.77099 19.4568 6.79186 19.5 6.79199C19.5432 6.79192 19.5845 6.77105 19.6123 6.73633C20.0314 6.21266 20.4562 5.8187 20.8311 5.4707L20.8359 5.46582C21.4864 4.86194 21.9998 4.38433 22 3.64062C21.9999 3.25776 21.8701 2.90008 21.6348 2.63477C21.3908 2.35987 21.0528 2.2082 20.6826 2.20801Z" fill="#1C252E"/>
<path d="M18.03 9.5C16.08 9.5 14.5 7.92 14.5 5.97V3C14.5 2.45 14.05 2 13.5 2H7C4.24 2 2 4.23 2 6.98V13.95C2 16.71 4.24 18.95 7 18.95H8.5C8.78 18.95 9.14 19.13 9.3 19.35L10.8 21.34C11.46 22.22 12.54 22.22 13.2 21.34L14.7 19.35C14.89 19.1 15.19 18.95 15.5 18.95H17.01C19.77 18.95 22 16.72 22 13.96V10.5C22 9.95 21.55 9.5 21 9.5H18.03ZM8 12C7.44 12 7 11.55 7 11C7 10.45 7.44 10 8 10C8.55 10 9 10.45 9 11C9 11.55 8.56 12 8 12ZM12 12C11.44 12 11 11.55 11 11C11 10.45 11.44 10 12 10C12.55 10 13 10.45 13 11C13 11.55 12.56 12 12 12Z" fill="#1C252E"/>
</svg>
