<svg width="24" height="24" viewBox="0 0 24 24" fill="none" xmlns="http://www.w3.org/2000/svg">
<path d="M17 3H7C4 3 2 4.5 2 8V15.96C2 18.25 3.85 20.1 6.14 20.1H12.4C12.98 20.1 13.48 19.61 13.42 19.03C13.28 17.5 13.78 15.85 15.14 14.52C15.7 13.97 16.39 13.55 17.14 13.31C18.39 12.91 19.6 12.96 20.67 13.33C21.32 13.55 22 13.08 22 12.39V8C22 4.5 20 3 17 3ZM17.47 8.59L14.34 11.09C13.68 11.62 12.84 11.88 12 11.88C11.16 11.88 10.31 11.62 9.66 11.09L6.53 8.59C6.21 8.33 6.16 7.86 6.41 7.53C6.67 7.21 7.14 7.15 7.46 7.41L10.59 9.91C11.35 10.52 12.64 10.52 13.4 9.91L16.53 7.41C16.85 7.15 17.33 7.2 17.58 7.53C17.84 7.86 17.79 8.33 17.47 8.59Z" fill="#1C252E"/>
<path d="M21.0239 18.5979C21.0239 17.3244 19.9913 16.2919 18.7179 16.2918C17.4443 16.2918 16.4118 17.3243 16.4118 18.5979C16.4119 19.8713 17.4444 20.9039 18.7179 20.9039C19.9912 20.9038 21.0238 19.8712 21.0239 18.5979ZM22.4357 18.5979C22.4357 19.3707 22.1987 20.0878 21.7951 20.6824C21.8148 20.6983 21.8337 20.7156 21.8521 20.7339L22.7933 21.6751C23.0689 21.9508 23.0689 22.3976 22.7933 22.6733C22.5176 22.9489 22.0707 22.9489 21.7951 22.6733L20.8539 21.7321C20.8356 21.7138 20.8183 21.6948 20.8024 21.6751C20.2078 22.0787 19.4906 22.3157 18.7179 22.3157C16.6647 22.3157 15.0001 20.651 15 18.5979C15 16.5446 16.6646 14.88 18.7179 14.88C20.771 14.8801 22.4357 16.5447 22.4357 18.5979Z" fill="#1C252E"/>
</svg>
