<svg width="24" height="24" viewBox="0 0 24 24" fill="none" xmlns="http://www.w3.org/2000/svg">
<path d="M14.4404 19.05L15.9604 20.57L19.0004 17.53" stroke="#1C252E" stroke-width="1.5" stroke-linecap="round" stroke-linejoin="round"/>
<path d="M10.9951 2.11252C11.3162 2.0389 11.6507 2 11.9947 2C14.4447 2 16.4347 3.99 16.4347 6.44C16.4247 8.84 14.5347 10.79 12.1547 10.87C12.0547 10.86 11.9347 10.86 11.8247 10.87C9.44469 10.79 7.55469 8.84 7.55469 6.44C7.55469 6.08059 7.5973 5.73107 7.67779 5.39629" stroke="#1C252E" stroke-width="1.5" stroke-linecap="round" stroke-linejoin="round"/>
<path d="M11.99 21.8101C10.17 21.8101 8.36004 21.3501 6.98004 20.4301C4.56004 18.8101 4.56004 16.1701 6.98004 14.5601C9.73004 12.7201 14.24 12.7201 16.99 14.5601" stroke="#1C252E" stroke-width="1.5" stroke-linecap="round" stroke-linejoin="round"/>
</svg>
