<svg width="24" height="24" viewBox="0 0 24 24" fill="none" xmlns="http://www.w3.org/2000/svg">
<path d="M13 6.38561C12.6846 6.28455 12.3485 6.22998 11.9997 6.22998C10.1797 6.22998 8.71973 7.69998 8.71973 9.50998C8.71973 11.28 10.1197 12.72 11.8797 12.78C11.9597 12.77 12.0497 12.77 12.1197 12.78C13.8797 12.72 15.2697 11.28 15.2797 9.50998C15.2797 9.18994 15.2338 8.88052 15.1481 8.58799" stroke="#1C252E" stroke-width="1.5" stroke-linecap="round" stroke-linejoin="round"/>
<path d="M18.7398 19.3801C16.9598 21.0101 14.5998 22.0001 11.9998 22.0001C9.39977 22.0001 7.03977 21.0101 5.25977 19.3801C5.35977 18.4401 5.95977 17.5201 7.02977 16.8001C9.76977 14.9801 14.2498 14.9801 16.9698 16.8001C18.0398 17.5201 18.6398 18.4401 18.7398 19.3801Z" stroke="#1C252E" stroke-width="1.5" stroke-linecap="round" stroke-linejoin="round"/>
<path d="M8.5 2.62961C9.58934 2.22255 10.7687 2 12 2C17.5228 2 22 6.47715 22 12C22 17.5228 17.5228 22 12 22C6.47715 22 2 17.5228 2 12C2 10.5778 2.29689 9.22492 2.83209 8" stroke="#1C252E" stroke-width="1.5" stroke-linecap="round" stroke-linejoin="round"/>
</svg>
