<svg width="24" height="24" viewBox="0 0 24 24" fill="none" xmlns="http://www.w3.org/2000/svg">
<path d="M12 5.47998C14.2241 5.48013 16.0293 7.28613 16.0293 9.51025V9.51416C16.017 11.6825 14.312 13.4558 12.1455 13.5298C12.1015 13.5313 12.0573 13.5282 12.0137 13.522L12.0156 13.5229C12.0131 13.5228 12.0091 13.523 12.0039 13.5229C11.9916 13.5229 11.9797 13.523 11.9727 13.5239C11.9335 13.5288 11.894 13.5311 11.8545 13.5298C9.69174 13.4561 7.96987 11.6856 7.96973 9.51025C7.96973 7.28753 9.7643 5.47998 12 5.47998ZM9.46973 9.51025C9.46987 10.8697 10.5405 11.9751 11.8906 12.0288C11.9689 12.0238 12.0507 12.0208 12.1309 12.0269C13.4654 11.9622 14.5193 10.8674 14.5293 9.51025L14.5166 9.25146C14.3868 7.97689 13.3084 6.98012 12 6.97998C10.5957 6.97998 9.46973 8.11298 9.46973 9.51025Z" fill="#1C252E"/>
<path d="M12.0071 14.6851C13.9229 14.6851 15.8774 15.1662 17.387 16.1763L17.389 16.1782C18.5913 16.9874 19.3562 18.0854 19.4857 19.3003C19.5109 19.5371 19.4221 19.7722 19.2464 19.9331C17.3337 21.6846 14.7951 22.7504 12.0003 22.7505C9.20541 22.7505 6.66598 21.6847 4.75323 19.9331C4.57771 19.7722 4.48879 19.5371 4.51397 19.3003C4.64337 18.0852 5.4091 16.9874 6.61163 16.1782L6.61554 16.1753C8.13394 15.1668 10.0913 14.6851 12.0071 14.6851ZM12.0071 16.1851C10.3199 16.1851 8.66857 16.6116 7.44757 17.4214L7.44854 17.4224C6.67729 17.9414 6.2463 18.5355 6.07843 19.1001C7.68462 20.4451 9.74403 21.2505 12.0003 21.2505C14.2563 21.2504 16.3151 20.4449 17.9212 19.1001C17.7533 18.5355 17.3224 17.9414 16.5511 17.4224V17.4214C15.341 16.6125 13.6952 16.1851 12.0071 16.1851Z" fill="#1C252E"/>
<path d="M21.25 12C21.25 6.89137 17.1086 2.75 12 2.75C6.89137 2.75 2.75 6.89137 2.75 12C2.75 17.1086 6.89137 21.25 12 21.25C17.1086 21.25 21.25 17.1086 21.25 12ZM22.75 12C22.75 17.9371 17.9371 22.75 12 22.75C6.06294 22.75 1.25 17.9371 1.25 12C1.25 6.06294 6.06294 1.25 12 1.25C17.9371 1.25 22.75 6.06294 22.75 12Z" fill="#1C252E"/>
</svg>
