<svg width="24" height="24" viewBox="0 0 24 24" fill="none" xmlns="http://www.w3.org/2000/svg">
<path d="M17.8798 17.5598C18.1727 17.267 18.6475 17.2669 18.9404 17.5598C19.2331 17.8526 19.2331 18.3275 18.9404 18.6203L18.0605 19.5002L18.9404 20.3801C19.233 20.673 19.2332 21.1478 18.9404 21.4406C18.6476 21.7334 18.1727 21.7332 17.8798 21.4406L16.9999 20.5607L16.1201 21.4406C15.8272 21.7333 15.3524 21.7333 15.0595 21.4406C14.7667 21.1478 14.7668 20.673 15.0595 20.3801L15.9394 19.5002L15.0595 18.6203C14.7666 18.3274 14.7666 17.8527 15.0595 17.5598C15.3524 17.2669 15.8272 17.2669 16.1201 17.5598L16.9999 18.4396L17.8798 17.5598Z" fill="#1C252E"/>
<path d="M12 1.25C14.864 1.25023 17.1895 3.57636 17.1895 6.44043V6.44336C17.1777 9.24364 14.9703 11.5255 12.1846 11.6191C12.1513 11.6202 12.1181 11.6195 12.085 11.6162C12.0367 11.6114 11.9647 11.6111 11.8975 11.6172C11.8666 11.62 11.8356 11.6202 11.8047 11.6191C9.01962 11.5255 6.8098 9.24361 6.80957 6.44043C6.80957 3.57732 9.12469 1.25 12 1.25ZM8.30957 6.44043C8.3098 8.43248 9.87326 10.0461 11.8418 10.1191C11.9412 10.1133 12.0443 10.1134 12.1436 10.1191C14.1123 10.0481 15.6793 8.43529 15.6895 6.44043L15.6846 6.25C15.5855 4.30243 13.9719 2.75023 12 2.75C9.95531 2.75 8.30957 4.40354 8.30957 6.44043Z" fill="#1C252E"/>
<path d="M11.9951 12.4301C13.9241 12.4301 15.8929 12.9171 17.417 13.9369C17.7611 14.1672 17.8533 14.6327 17.623 14.9769C17.3927 15.3212 16.9273 15.4133 16.583 15.183C15.3573 14.3629 13.6959 13.9301 11.9951 13.9301C10.2944 13.9301 8.63297 14.363 7.40723 15.183L7.40527 15.1849C6.35198 15.8857 5.9248 16.7359 5.9248 17.4916C5.92491 18.2475 6.35237 19.1002 7.40625 19.806L7.6416 19.9554C8.84473 20.6796 10.4012 21.0599 12 21.0599C12.4141 21.06 12.7499 21.3958 12.75 21.8099C12.75 22.2241 12.4141 22.5598 12 22.5599C10.0655 22.5599 8.10254 22.0728 6.57422 21.0541L6.57227 21.0531C5.20721 20.1392 4.42491 18.8627 4.4248 17.4916C4.4248 16.1205 5.20696 14.846 6.57227 13.9369L6.86328 13.7513C8.34257 12.8575 10.1866 12.4301 11.9951 12.4301Z" fill="#1C252E"/>
</svg>
