<svg width="24" height="24" viewBox="0 0 24 24" fill="none" xmlns="http://www.w3.org/2000/svg">
<path d="M18.4697 16.9997C18.7625 16.7069 19.2373 16.707 19.5302 16.9997C19.8231 17.2926 19.8231 17.7674 19.5302 18.0603L16.4912 21.1003C16.1983 21.3932 15.7225 21.3932 15.4296 21.1003L13.9101 19.5808C13.6172 19.2879 13.6172 18.8121 13.9101 18.5192C14.2029 18.2267 14.6778 18.2267 14.9706 18.5192L15.9599 19.5085L18.4697 16.9997Z" fill="#1C252E"/>
<path d="M15.6797 6.44043C15.6797 4.40464 14.0251 2.75 11.9893 2.75C9.95321 2.75019 8.30153 4.40402 8.3096 6.43652V6.44043C8.30983 8.43246 9.87331 10.0461 11.8418 10.1191C11.9412 10.1133 12.0443 10.1134 12.1436 10.1191C14.1052 10.048 15.6795 8.43253 15.6797 6.44043ZM17.1797 6.44043C17.1795 9.24479 14.9584 11.5255 12.1846 11.6191C12.1514 11.6202 12.1181 11.6195 12.085 11.6162C12.0368 11.6114 11.9647 11.6111 11.8975 11.6172C11.8667 11.62 11.8357 11.6202 11.8047 11.6191C9.10653 11.5284 6.94865 9.38385 6.81644 6.70117L6.8096 6.44043C6.79934 3.57456 9.12671 1.25019 11.9893 1.25C14.8535 1.25 17.1797 3.57622 17.1797 6.44043Z" fill="#1C252E"/>
<path d="M11.9854 12.4301C13.9143 12.4301 15.8831 12.9171 17.4072 13.9369C17.7513 14.1672 17.8435 14.6327 17.6133 14.9769C17.3829 15.3212 16.9175 15.4133 16.5732 15.183C15.3475 14.3629 13.6862 13.9301 11.9854 13.9301C10.2846 13.9301 8.6232 14.363 7.39746 15.183L7.39551 15.1849C6.34221 15.8857 5.91504 16.7359 5.91504 17.4916C5.91514 18.2475 6.34261 19.1002 7.39648 19.806L7.63184 19.9554C8.83496 20.6796 10.3914 21.0599 11.9902 21.0599C12.4043 21.06 12.7402 21.3958 12.7402 21.8099C12.7402 22.2241 12.4044 22.5598 11.9902 22.5599C10.0557 22.5599 8.09277 22.0728 6.56445 21.0541L6.5625 21.0531C5.19744 20.1392 4.41514 18.8627 4.41504 17.4916C4.41504 16.1205 5.19719 14.846 6.5625 13.9369L6.85352 13.7513C8.3328 12.8575 10.1768 12.4301 11.9854 12.4301Z" fill="#1C252E"/>
</svg>
