<svg width="24" height="24" viewBox="0 0 24 24" fill="none" xmlns="http://www.w3.org/2000/svg">
<path d="M16.25 7C16.25 4.65279 14.3472 2.75 12 2.75C9.65279 2.75 7.75 4.65279 7.75 7C7.75 9.34721 9.65279 11.25 12 11.25C14.3472 11.25 16.25 9.34721 16.25 7ZM17.75 7C17.75 10.1756 15.1756 12.75 12 12.75C8.82436 12.75 6.25 10.1756 6.25 7C6.25 3.82436 8.82436 1.25 12 1.25C15.1756 1.25 17.75 3.82436 17.75 7Z" fill="#1C252E"/>
<path d="M2.66016 22C2.66016 17.5792 6.99721 14.2501 12 14.25C12.4142 14.25 12.75 14.5858 12.75 15C12.75 15.4142 12.4142 15.75 12 15.75C7.52296 15.7501 4.16016 18.6809 4.16016 22C4.16016 22.4142 3.82437 22.75 3.41016 22.75C2.99594 22.75 2.66016 22.4142 2.66016 22Z" fill="#1C252E"/>
<path d="M20.6504 18.2002C20.6504 16.8472 19.5532 15.7501 18.2002 15.75C16.8471 15.75 15.75 16.8471 15.75 18.2002C15.7501 19.5532 16.8472 20.6504 18.2002 20.6504C19.5531 20.6503 20.6503 19.5531 20.6504 18.2002ZM22.1504 18.2002C22.1503 20.3816 20.3816 22.1503 18.2002 22.1504C16.0187 22.1504 14.2501 20.3816 14.25 18.2002C14.25 16.0187 16.0187 14.25 18.2002 14.25C20.3816 14.2501 22.1504 16.0187 22.1504 18.2002Z" fill="#1C252E"/>
<path d="M20.4697 20.4697C20.7626 20.1768 21.2373 20.1768 21.5302 20.4697L22.5302 21.4697C22.8231 21.7626 22.8231 22.2374 22.5302 22.5303C22.2373 22.8232 21.7626 22.8232 21.4697 22.5303L20.4697 21.5303C20.1768 21.2374 20.1768 20.7626 20.4697 20.4697Z" fill="#1C252E"/>
</svg>
