<svg width="24" height="24" viewBox="0 0 24 24" fill="none" xmlns="http://www.w3.org/2000/svg">
<path d="M12 1.25C14.864 1.25023 17.1895 3.57636 17.1895 6.44043V6.44336C17.1777 9.24364 14.9703 11.5255 12.1846 11.6191C12.1513 11.6202 12.1181 11.6195 12.085 11.6162C12.0367 11.6114 11.9647 11.6111 11.8975 11.6172C11.8666 11.62 11.8356 11.6202 11.8047 11.6191C9.01962 11.5255 6.8098 9.24361 6.80957 6.44043C6.80957 3.57732 9.12469 1.25 12 1.25ZM8.30957 6.44043C8.3098 8.43248 9.87326 10.0461 11.8418 10.1191C11.9412 10.1133 12.0443 10.1134 12.1436 10.1191C14.1123 10.0481 15.6793 8.43529 15.6895 6.44043L15.6846 6.25C15.5855 4.30243 13.9719 2.75023 12 2.75C9.95531 2.75 8.30957 4.40354 8.30957 6.44043Z" fill="#1C252E"/>
<path d="M12.1719 12.4375C14.0993 12.4375 16.0647 12.9215 17.584 13.9355H17.585C18.9515 14.8447 19.7344 16.1194 19.7344 17.4912C19.7344 18.7769 19.047 19.9795 17.8359 20.8779L17.5869 21.0537C16.0628 22.0735 14.094 22.5595 12.165 22.5596C10.236 22.5596 8.2664 22.0736 6.74219 21.0537V21.0527C5.37709 20.1437 4.59483 18.87 4.59473 17.499C4.59473 16.1277 5.37692 14.8505 6.74219 13.9365L6.74512 13.9346C8.27345 12.9212 10.2436 12.4376 12.1719 12.4375ZM12.1719 13.9375C10.4704 13.9376 8.8057 14.369 7.57422 15.1855C6.52171 15.8912 6.09473 16.7435 6.09473 17.499C6.09482 18.2074 6.46992 18.9993 7.38477 19.6729L7.5752 19.8057L7.57715 19.8066C8.80291 20.6267 10.4642 21.0596 12.165 21.0596C13.8658 21.0595 15.5272 20.6268 16.7529 19.8066C17.8073 19.1007 18.2344 18.2473 18.2344 17.4912C18.2344 16.7355 17.8073 15.8854 16.7539 15.1846L16.7529 15.1836C15.5325 14.3686 13.8736 13.9375 12.1719 13.9375Z" fill="#1C252E"/>
</svg>
