<svg width="24" height="24" viewBox="0 0 24 24" fill="none" xmlns="http://www.w3.org/2000/svg">
<path d="M20.25 4.97974C20.2499 3.7606 19.2523 2.76001 18 2.76001H6C4.74773 2.76001 3.75013 3.7606 3.75 4.97974V15.8899C3.75 17.1091 4.74764 18.1096 6 18.1096H6.75C7.73202 18.1096 8.69323 18.4939 9.39746 19.1965L11.1064 20.886C11.5944 21.3676 12.3949 21.3676 12.8828 20.886L14.5928 19.1965C15.296 18.4949 16.247 18.1096 17.2402 18.1096H18C19.2507 18.1096 20.25 17.1008 20.25 15.8899V4.97974ZM21.75 15.8899C21.75 17.939 20.0693 19.6096 18 19.6096H17.2402C16.6351 19.6096 16.0668 19.8437 15.6504 20.26L15.6475 20.2639L15.6465 20.2629L13.9375 21.9534H13.9365C12.8644 23.0117 11.1248 23.0117 10.0527 21.9534L8.34277 20.2629L8.33984 20.26C7.92435 19.8445 7.34656 19.6096 6.75 19.6096H6C3.93236 19.6096 2.25 17.9506 2.25 15.8899V4.97974C2.25013 2.91909 3.93244 1.26001 6 1.26001H18C20.0676 1.26001 21.7499 2.91909 21.75 4.97974V15.8899Z" fill="#1C252E"/>
<path d="M13.5801 7.6701C13.5801 6.79754 12.8726 6.09006 12 6.09003C11.1274 6.09003 10.4199 6.79752 10.4199 7.6701C10.42 8.54266 11.1274 9.25018 12 9.25018C12.8725 9.25015 13.58 8.54264 13.5801 7.6701ZM15.0801 7.6701C15.08 9.37107 13.701 10.7502 12 10.7502C10.299 10.7502 8.91999 9.37109 8.91992 7.6701C8.91992 5.96904 10.299 4.59003 12 4.59003C13.701 4.59006 15.0801 5.96906 15.0801 7.6701Z" fill="#1C252E"/>
<path d="M15.25 15.6598C15.2499 14.41 13.9462 13.15 12 13.15C10.0538 13.15 8.75013 14.41 8.75 15.6598C8.75 16.074 8.41421 16.4098 8 16.4098C7.58579 16.4098 7.25 16.074 7.25 15.6598C7.25012 13.3097 9.52638 11.65 12 11.65C14.4736 11.65 16.7499 13.3097 16.75 15.6598C16.75 16.074 16.4142 16.4098 16 16.4098C15.5858 16.4098 15.25 16.074 15.25 15.6598Z" fill="#1C252E"/>
</svg>
