<svg width="24" height="24" viewBox="0 0 24 24" fill="none" xmlns="http://www.w3.org/2000/svg">
<path d="M16.25 7C16.25 4.65279 14.3472 2.75 12 2.75C9.65279 2.75 7.75 4.65279 7.75 7C7.75 9.34721 9.65279 11.25 12 11.25C14.3472 11.25 16.25 9.34721 16.25 7ZM17.75 7C17.75 10.1756 15.1756 12.75 12 12.75C8.82436 12.75 6.25 10.1756 6.25 7C6.25 3.82436 8.82436 1.25 12 1.25C15.1756 1.25 17.75 3.82436 17.75 7Z" fill="#1C252E"/>
<path d="M20.1337 14.4268C20.7966 14.3588 21.4067 14.656 21.9501 15.1992C22.4966 15.7458 22.798 16.3577 22.7323 17.0225C22.6704 17.6476 22.2977 18.1328 21.9501 18.4805L18.41 22.0205L18.409 22.0195C18.2639 22.169 18.0887 22.2798 17.9432 22.3525C17.7874 22.4304 17.5977 22.5011 17.4071 22.5313L17.3944 22.5332V22.5322L16.0448 22.7217L16.0458 22.7227C15.6041 22.7857 15.1483 22.6699 14.8192 22.3408C14.4901 22.0118 14.3744 21.556 14.4374 21.1143L14.6268 19.7656L14.6288 19.7529C14.6594 19.5593 14.7319 19.3711 14.8094 19.2178C14.887 19.0645 14.9973 18.8923 15.1395 18.75L18.6796 15.21C19.0272 14.8623 19.5116 14.4907 20.1337 14.4268ZM20.287 15.919C20.1791 15.93 20.0025 16.0082 19.7401 16.2705L16.2001 19.8106C16.1979 19.8132 16.1932 19.8193 16.1864 19.8291C16.1746 19.8462 16.1612 19.8691 16.1483 19.8945C16.1353 19.9202 16.1249 19.945 16.118 19.9648C16.114 19.9765 16.112 19.984 16.1112 19.9873L16.1102 19.9863L15.9364 21.2227L17.1737 21.0479C17.1776 21.0469 17.1866 21.0456 17.2001 21.041C17.2214 21.0337 17.2468 21.0235 17.2723 21.0107C17.298 20.9979 17.3183 20.985 17.3319 20.9756C17.3389 20.9708 17.3417 20.9678 17.3417 20.9678L20.8895 17.4199C21.1518 17.1576 21.2295 16.9824 21.2401 16.875C21.2468 16.8073 21.2427 16.614 20.8895 16.2607C20.5436 15.9149 20.3541 15.9121 20.287 15.919Z" fill="#1C252E"/>
<path d="M18.4992 15.5274C18.8982 15.4165 19.312 15.65 19.4231 16.0489C19.6527 16.8754 20.2948 17.5175 21.1213 17.7471C21.5203 17.858 21.7536 18.2719 21.6428 18.6709C21.5318 19.0698 21.1189 19.3031 20.7199 19.1924C19.3866 18.822 18.3483 17.7845 17.9777 16.4512C17.8669 16.0522 18.1004 15.6384 18.4992 15.5274Z" fill="#1C252E"/>
<path d="M2.66016 22C2.66016 17.5792 6.99721 14.2501 12 14.25C13.1121 14.25 14.1853 14.4105 15.1865 14.7119C15.5831 14.8314 15.8079 15.2499 15.6885 15.6465C15.569 16.043 15.1504 16.2678 14.7539 16.1484C13.8952 15.8899 12.9679 15.75 12 15.75C7.52296 15.7501 4.16016 18.6809 4.16016 22C4.16016 22.4142 3.82437 22.75 3.41016 22.75C2.99594 22.75 2.66016 22.4142 2.66016 22Z" fill="#1C252E"/>
</svg>
