<svg width="24" height="24" viewBox="0 0 24 24" fill="none" xmlns="http://www.w3.org/2000/svg">
<path d="M16.25 7C16.25 4.65279 14.3472 2.75 12 2.75C9.65279 2.75 7.75 4.65279 7.75 7C7.75 9.34721 9.65279 11.25 12 11.25C14.3472 11.25 16.25 9.34721 16.25 7ZM17.75 7C17.75 10.1756 15.1756 12.75 12 12.75C8.82436 12.75 6.25 10.1756 6.25 7C6.25 3.82436 8.82436 1.25 12 1.25C15.1756 1.25 17.75 3.82436 17.75 7Z" fill="#1C252E"/>
<path d="M2.66016 22C2.66016 17.5792 6.99719 14.2501 12 14.25C13.0275 14.25 14.0251 14.3896 14.96 14.6475C15.3589 14.7578 15.5934 15.1702 15.4834 15.5693C15.3732 15.9686 14.9598 16.2029 14.5605 16.0928C13.7555 15.8707 12.8924 15.75 12 15.75C7.52295 15.7501 4.16016 18.6809 4.16016 22C4.16016 22.4142 3.82437 22.75 3.41016 22.75C2.99594 22.75 2.66016 22.4142 2.66016 22Z" fill="#1C252E"/>
<path d="M21.25 18C21.25 17.1739 20.9347 16.4107 20.4131 15.832L20.4062 15.8252C19.827 15.1655 18.9617 14.75 18 14.75C17.089 14.75 16.2604 15.1237 15.667 15.7334C15.0991 16.3178 14.75 17.1218 14.75 18C14.75 18.5333 14.8801 19.0396 15.1123 19.4814L15.2188 19.666L15.2266 19.6797C15.3448 19.8806 15.4903 20.0703 15.6572 20.2402L15.8311 20.4033L15.8457 20.416C16.4125 20.9343 17.1641 21.25 18 21.25C19.1858 21.25 20.2156 20.6178 20.7754 19.6768L20.7822 19.666C20.9485 19.3969 21.0767 19.0844 21.1484 18.7656L21.1553 18.7363C21.2179 18.5014 21.25 18.2566 21.25 18ZM22.75 18C22.75 18.3731 22.7026 18.7379 22.6104 19.0938L22.6113 19.0947C22.5031 19.5757 22.3122 20.0434 22.0586 20.4541L22.0576 20.4531C21.2361 21.8264 19.7298 22.75 18 22.75C16.7829 22.75 15.6802 22.2901 14.8486 21.5361C14.4928 21.2277 14.1836 20.8597 13.9424 20.4531C13.5003 19.7361 13.25 18.8906 13.25 18C13.25 16.7186 13.761 15.542 14.5928 14.6865C15.4593 13.7964 16.6712 13.25 18 13.25C19.3947 13.25 20.6657 13.8523 21.5264 14.8281H21.5273C22.2856 15.6695 22.75 16.7862 22.75 18Z" fill="#1C252E"/>
<path d="M18.4999 16.4097C18.7928 16.117 19.2676 16.1169 19.5604 16.4097C19.853 16.7026 19.853 17.1774 19.5604 17.4703L19.0389 17.9908L19.5887 18.5386C19.8822 18.8308 19.8837 19.3056 19.5916 19.5992C19.2994 19.8928 18.8247 19.8933 18.5311 19.6011L17.9784 19.0513L17.45 19.5806C17.1572 19.8733 16.6823 19.8733 16.3895 19.5806C16.0967 19.2878 16.0968 18.813 16.3895 18.5201L16.9159 17.9937L16.411 17.4918C16.1175 17.1996 16.1161 16.7248 16.4081 16.4312C16.7002 16.1377 17.175 16.1363 17.4686 16.4283L17.9754 16.9341L18.4999 16.4097Z" fill="#1C252E"/>
</svg>
