<svg width="24" height="24" viewBox="0 0 24 24" fill="none" xmlns="http://www.w3.org/2000/svg">
<path d="M20.3301 8.5801C20.3301 7.7202 19.8743 6.93453 19.1299 6.49709V6.49612L13.1982 3.07131L13.0557 2.99612C12.3338 2.64432 11.4857 2.67054 10.7949 3.06936L4.85938 6.49612C4.11632 6.93292 3.66016 7.72901 3.66016 8.5801V15.4199C3.66016 16.2835 4.11886 17.0757 4.85547 17.501L10.792 20.9287C11.5426 21.3577 12.4585 21.356 13.1953 20.9307L19.1348 17.501C19.8754 17.0637 20.3301 16.2695 20.3301 15.4199V8.5801ZM21.8301 15.4199C21.8301 16.8087 21.0864 18.0937 19.8896 18.7969L19.8848 18.7998L13.9453 22.2295C12.7421 22.9242 11.2572 22.9225 10.0479 22.2315L10.0449 22.2295L4.10547 18.7998C2.90207 18.1051 2.16016 16.8164 2.16016 15.4199V8.5801C2.16016 7.19132 2.90384 5.90639 4.10059 5.20315L4.10547 5.20022L10.0449 1.77053C11.1731 1.11922 12.5488 1.08016 13.7129 1.64749L13.9424 1.76858L13.9453 1.77053L19.8848 5.20022L19.8906 5.20315H19.8896C21.0852 5.90572 21.8301 7.18 21.8301 8.5801V15.4199Z" fill="#1C252E"/>
<path d="M13.5801 8.6701C13.5801 7.79754 12.8726 7.09007 12 7.09003C11.1274 7.09003 10.4199 7.79751 10.4199 8.6701C10.42 9.54267 11.1274 10.2502 12 10.2502C12.8725 10.2501 13.58 9.54264 13.5801 8.6701ZM15.0801 8.6701C15.08 10.3711 13.701 11.7501 12 11.7502C10.299 11.7502 8.91999 10.3711 8.91992 8.6701C8.91992 6.96905 10.299 5.59003 12 5.59003C13.701 5.59007 15.0801 6.96908 15.0801 8.6701Z" fill="#1C252E"/>
<path d="M15.25 16.6598C15.2499 15.41 13.9462 14.15 12 14.15C10.0538 14.15 8.75013 15.41 8.75 16.6598C8.75 17.074 8.41421 17.4098 8 17.4098C7.58579 17.4098 7.25 17.074 7.25 16.6598C7.25012 14.3097 9.52638 12.65 12 12.65C14.4736 12.65 16.7499 14.3097 16.75 16.6598C16.75 17.074 16.4142 17.4098 16 17.4098C15.5858 17.4098 15.25 17.074 15.25 16.6598Z" fill="#1C252E"/>
</svg>
