<svg width="24" height="24" viewBox="0 0 24 24" fill="none" xmlns="http://www.w3.org/2000/svg">
<path d="M17.9102 1.25C19.7562 1.25004 21.2402 2.74779 21.2402 4.58008V4.58496C21.2274 6.38384 19.8112 7.84448 18.0273 7.90918C17.9865 7.91066 17.9458 7.90751 17.9053 7.90234C17.8647 7.90754 17.8241 7.91065 17.7832 7.90918C16.0002 7.84458 14.5801 6.38407 14.5801 4.58008C14.5801 2.73587 16.0659 1.25 17.9102 1.25ZM16.0801 4.58008C16.0801 5.56255 16.8394 6.35106 17.7979 6.40625C17.8683 6.40071 17.9402 6.40079 18.0107 6.40625C18.9673 6.35193 19.7304 5.56561 19.7402 4.58008L19.7305 4.39355C19.6372 3.47286 18.8607 2.75004 17.9102 2.75C16.8944 2.75 16.0801 3.56429 16.0801 4.58008Z" fill="#1C252E"/>
<path d="M16.8102 8.85146C18.2354 8.60179 19.8483 8.80945 21.0827 9.52529L21.3249 9.6747L21.3258 9.67568C22.1871 10.2499 22.7173 11.0822 22.7174 12.0097C22.7174 12.9369 22.1875 13.7684 21.3268 14.3427C20.0759 15.1804 18.3632 15.4341 16.8464 15.1796C16.438 15.111 16.1618 14.7246 16.2301 14.3163C16.2987 13.9078 16.6859 13.6315 17.0944 13.7001C18.3173 13.9054 19.6239 13.6786 20.4928 13.0966L20.4938 13.0956C21.0424 12.7299 21.2174 12.322 21.2174 12.0097C21.2173 11.6974 21.0422 11.2893 20.4938 10.9237V10.9227C19.6141 10.3401 18.2886 10.1156 17.07 10.329C16.6621 10.4005 16.2734 10.1275 16.2018 9.71962C16.1304 9.31178 16.4025 8.92315 16.8102 8.85146Z" fill="#1C252E"/>
<path d="M7.89062 4.58008C7.89062 3.56432 7.0763 2.75004 6.06055 2.75C5.04665 2.75 4.23047 3.5724 4.23047 4.58008C4.24028 5.56533 5.00277 6.35153 5.95898 6.40625C6.02949 6.40075 6.10137 6.40076 6.17188 6.40625C7.13067 6.35146 7.89059 5.56283 7.89062 4.58008ZM9.39062 4.58008C9.39058 6.38407 7.97047 7.84458 6.1875 7.90918C6.14664 7.91065 6.10596 7.90753 6.06543 7.90234C6.0249 7.90753 5.98422 7.91066 5.94336 7.90918C4.15943 7.84454 2.74332 6.38389 2.73047 4.58496V4.58008C2.73047 2.74776 4.21444 1.25 6.06055 1.25C7.90473 1.25004 9.39062 2.73589 9.39062 4.58008Z" fill="#1C252E"/>
<path d="M2.64551 9.67469C3.90575 8.83847 5.63985 8.58512 7.16016 8.85145C7.56797 8.92308 7.84099 9.31173 7.76953 9.71962C7.69804 10.1274 7.3092 10.4002 6.90137 10.329C5.6819 10.1154 4.35534 10.3412 3.47559 10.9247C2.9279 11.2901 2.75308 11.6975 2.75293 12.0097C2.75293 12.2829 2.88706 12.6296 3.28809 12.9569L3.47656 13.0956L3.47754 13.0966C4.34646 13.6786 5.65307 13.9053 6.87598 13.7001C7.28447 13.6315 7.67165 13.9078 7.74023 14.3163C7.80852 14.7245 7.53313 15.1108 7.125 15.1796C5.60796 15.4343 3.8936 15.1816 2.64258 14.3436V14.3427C1.78233 13.7684 1.25293 12.9366 1.25293 12.0097C1.25308 11.0821 1.78327 10.2498 2.64453 9.67567L2.64551 9.67469Z" fill="#1C252E"/>
<path d="M11.9102 8.71997C13.7562 8.72001 15.2402 10.2178 15.2402 12.05V12.0549C15.2274 13.849 13.8145 15.3282 12.0215 15.3801C11.9845 15.3812 11.9479 15.3757 11.9111 15.3713C11.8687 15.3771 11.826 15.3807 11.7832 15.3792C10.0002 15.3145 8.58012 13.854 8.58008 12.05C8.58008 10.2058 10.0659 8.71997 11.9102 8.71997ZM11.9053 15.3723C11.9063 15.3723 11.9076 15.3714 11.9092 15.3713C11.8985 15.37 11.8876 15.3712 11.877 15.3694C11.8918 15.3719 11.9009 15.3723 11.9053 15.3723ZM10.0801 12.05C10.0801 13.0325 10.8394 13.821 11.7979 13.8762C11.87 13.8706 11.9435 13.8714 12.0156 13.8772C12.9637 13.83 13.7304 13.0404 13.7402 12.05L13.7305 11.8635C13.6372 10.9428 12.8607 10.22 11.9102 10.22C10.8944 10.22 10.0801 11.0343 10.0801 12.05Z" fill="#1C252E"/>
<path d="M12.0039 16.235C13.1723 16.2351 14.3813 16.526 15.3262 17.1559C16.1874 17.7301 16.7168 18.5623 16.7168 19.4899C16.7168 20.3596 16.2514 21.1455 15.4834 21.7135L15.3262 21.8239C14.3773 22.4582 13.1689 22.7525 12 22.7526C10.8309 22.7526 9.62186 22.4584 8.67285 21.8239V21.8229C7.81213 21.2486 7.28223 20.4171 7.28223 19.4899C7.28227 18.5622 7.81248 17.7301 8.67383 17.1559L8.67578 17.1549C9.62474 16.5263 10.8352 16.235 12.0039 16.235ZM12.0039 17.735C11.0609 17.735 10.1558 17.9724 9.50488 18.403L9.50586 18.4039C8.95731 18.7696 8.78227 19.1776 8.78223 19.4899C8.78223 19.7632 8.91625 20.1097 9.31738 20.4371L9.50586 20.5758L9.50684 20.5768C10.1578 21.012 11.0593 21.2526 12 21.2526C12.9407 21.2525 13.8423 21.0121 14.4932 20.5768L14.4941 20.5758C15.0425 20.2101 15.2168 19.8021 15.2168 19.4899C15.2168 19.1776 15.0425 18.7696 14.4941 18.4039C13.8492 17.974 12.9477 17.7351 12.0039 17.735Z" fill="#1C252E"/>
</svg>
