<svg width="24" height="24" viewBox="0 0 24 24" fill="none" xmlns="http://www.w3.org/2000/svg">
<path d="M9 1.25C11.864 1.25023 14.1895 3.57636 14.1895 6.44043V6.44336C14.1777 9.24364 11.9703 11.5255 9.18457 11.6191C9.15132 11.6202 9.11806 11.6195 9.08496 11.6162C9.03674 11.6114 8.96465 11.6111 8.89746 11.6172C8.86662 11.62 8.83563 11.6202 8.80469 11.6191C6.01962 11.5255 3.8098 9.24361 3.80957 6.44043C3.80957 3.57732 6.12469 1.25 9 1.25ZM5.30957 6.44043C5.3098 8.43248 6.87326 10.0461 8.8418 10.1191C8.94121 10.1133 9.04426 10.1134 9.14355 10.1191C11.1123 10.0481 12.6793 8.43529 12.6895 6.44043L12.6846 6.25C12.5855 4.30243 10.9719 2.75023 9 2.75C6.95531 2.75 5.30957 4.40354 5.30957 6.44043Z" fill="#1C252E"/>
<path d="M19.1599 7.5C19.1599 5.98282 17.9343 4.75 16.4099 4.75C15.9958 4.74994 15.6599 4.41417 15.6599 4C15.6599 3.58583 15.9958 3.25006 16.4099 3.25C18.7655 3.25 20.6599 5.15718 20.6599 7.5C20.6599 9.79544 18.839 11.664 16.5681 11.749C16.5277 11.7505 16.4872 11.7492 16.447 11.7441C16.4321 11.7423 16.4015 11.7409 16.3631 11.7451C15.9514 11.7909 15.5808 11.4946 15.5349 11.083C15.4892 10.6714 15.7855 10.3007 16.197 10.2549C16.3049 10.2429 16.4174 10.242 16.5291 10.249C17.9902 10.1853 19.1599 8.97878 19.1599 7.5Z" fill="#1C252E"/>
<path d="M9.17188 12.4375C11.0993 12.4375 13.0647 12.9215 14.584 13.9355H14.585C15.9515 14.8447 16.7344 16.1194 16.7344 17.4912C16.7344 18.7769 16.047 19.9795 14.8359 20.8779L14.5869 21.0537C13.0628 22.0735 11.094 22.5595 9.16504 22.5596C7.23596 22.5596 5.2664 22.0736 3.74219 21.0537V21.0527C2.37709 20.1437 1.59483 18.87 1.59473 17.499C1.59473 16.1277 2.37692 14.8505 3.74219 13.9365L3.74512 13.9346C5.27345 12.9212 7.24357 12.4376 9.17188 12.4375ZM9.17188 13.9375C7.47044 13.9376 5.8057 14.369 4.57422 15.1855C3.52171 15.8912 3.09473 16.7435 3.09473 17.499C3.09482 18.2074 3.46992 18.9993 4.38477 19.6729L4.5752 19.8057L4.57715 19.8066C5.80291 20.6267 7.46423 21.0596 9.16504 21.0596C10.8658 21.0595 12.5272 20.6268 13.7529 19.8066C14.8073 19.1007 15.2344 18.2473 15.2344 17.4912C15.2344 16.7355 14.8073 15.8854 13.7539 15.1846L13.7529 15.1836C12.5325 14.3686 10.8736 13.9375 9.17188 13.9375Z" fill="#1C252E"/>
<path d="M17.639 13.8349C17.7301 13.431 18.1314 13.1775 18.5354 13.2685C19.3234 13.4461 20.0966 13.7629 20.7493 14.2597C21.692 14.9667 22.22 15.9531 22.22 16.9951C22.22 18.037 21.6929 19.0234 20.7503 19.7304L20.7493 19.7295C20.0887 20.2348 19.3042 20.5654 18.4935 20.7343C18.088 20.8188 17.6904 20.5586 17.6058 20.1533C17.5213 19.7479 17.7815 19.3502 18.1868 19.2656C18.813 19.1351 19.3852 18.8866 19.8431 18.5351L19.8499 18.5302C20.4672 18.0673 20.72 17.5031 20.72 16.9951C20.72 16.487 20.4672 15.9229 19.8499 15.4599L19.845 15.456C19.3991 15.1155 18.8349 14.8733 18.2054 14.7314C17.8013 14.6403 17.5479 14.239 17.639 13.8349Z" fill="#1C252E"/>
</svg>
