<svg width="24" height="24" viewBox="0 0 24 24" fill="none" xmlns="http://www.w3.org/2000/svg">
<path d="M16.25 7C16.25 4.65279 14.3472 2.75 12 2.75C9.65279 2.75 7.75 4.65279 7.75 7C7.75 9.34721 9.65279 11.25 12 11.25C14.3472 11.25 16.25 9.34721 16.25 7ZM17.75 7C17.75 10.1756 15.1756 12.75 12 12.75C8.82436 12.75 6.25 10.1756 6.25 7C6.25 3.82436 8.82436 1.25 12 1.25C15.1756 1.25 17.75 3.82436 17.75 7Z" fill="#1C252E"/>
<path d="M2.66016 22C2.66016 17.5792 6.99719 14.2501 12 14.25C13.0275 14.25 14.0251 14.3896 14.96 14.6475C15.3589 14.7578 15.5934 15.1702 15.4834 15.5693C15.3732 15.9686 14.9598 16.2029 14.5605 16.0928C13.7555 15.8707 12.8924 15.75 12 15.75C7.52295 15.7501 4.16016 18.6809 4.16016 22C4.16016 22.4142 3.82437 22.75 3.41016 22.75C2.99594 22.75 2.66016 22.4142 2.66016 22Z" fill="#1C252E"/>
<path d="M21.25 18C21.25 16.2042 19.7958 14.75 18 14.75C17.2385 14.75 16.5319 15.0172 15.9678 15.4668L15.9658 15.4678C15.2208 16.0591 14.75 16.9747 14.75 18C14.75 18.5333 14.8801 19.0396 15.1123 19.4814L15.2188 19.666L15.2246 19.6768L15.335 19.8496C15.9137 20.6944 16.8883 21.25 18 21.25C18.8226 21.25 19.5641 20.9497 20.1279 20.4424C20.1344 20.4365 20.1418 20.4314 20.1484 20.4258C20.3914 20.222 20.6055 19.9679 20.7725 19.6816L20.7812 19.666C21.0791 19.183 21.25 18.6094 21.25 18ZM22.75 18C22.75 18.8906 22.5007 19.7371 22.0586 20.4541L22.0576 20.4531C21.8104 20.8728 21.4949 21.2474 21.1309 21.5566C20.2947 22.3092 19.1973 22.75 18 22.75C16.2702 22.75 14.7639 21.8264 13.9424 20.4531C13.5003 19.7361 13.25 18.8906 13.25 18C13.25 16.5062 13.9384 15.1627 15.0322 14.2939L15.1885 14.1748C15.9783 13.5958 16.9515 13.25 18 13.25C20.6242 13.25 22.75 15.3758 22.75 18Z" fill="#1C252E"/>
<path d="M19.0507 16.4692C19.3548 16.188 19.83 16.2071 20.1113 16.5112C20.3921 16.8153 20.3732 17.2897 20.0693 17.5708L17.9394 19.5405C17.6437 19.814 17.1852 19.8048 16.9003 19.52L15.9101 18.5308C15.6172 18.2379 15.6172 17.7621 15.9101 17.4692C16.2029 17.1767 16.6778 17.1767 16.9706 17.4692L17.4501 17.9487L19.0507 16.4692Z" fill="#1C252E"/>
</svg>
