<svg width="24" height="24" viewBox="0 0 24 24" fill="none" xmlns="http://www.w3.org/2000/svg">
<path d="M16.25 7C16.25 4.65279 14.3472 2.75 12 2.75C9.65279 2.75 7.75 4.65279 7.75 7C7.75 9.34721 9.65279 11.25 12 11.25C14.3472 11.25 16.25 9.34721 16.25 7ZM17.75 7C17.75 10.1756 15.1756 12.75 12 12.75C8.82436 12.75 6.25 10.1756 6.25 7C6.25 3.82436 8.82436 1.25 12 1.25C15.1756 1.25 17.75 3.82436 17.75 7Z" fill="#1C252E"/>
<path d="M2.66016 22C2.66016 17.5792 6.99719 14.2501 12 14.25C13.0275 14.25 14.0251 14.3896 14.96 14.6475C15.3589 14.7578 15.5934 15.1702 15.4834 15.5693C15.3732 15.9686 14.9598 16.2029 14.5605 16.0928C13.7555 15.8707 12.8924 15.75 12 15.75C7.52295 15.7501 4.16016 18.6809 4.16016 22C4.16016 22.4142 3.82437 22.75 3.41016 22.75C2.99594 22.75 2.66016 22.4142 2.66016 22Z" fill="#1C252E"/>
<path d="M21.25 18C21.25 17.1739 20.9347 16.4107 20.4131 15.832L20.4062 15.8252C19.827 15.1655 18.9617 14.75 18 14.75C17.089 14.75 16.2604 15.1237 15.667 15.7334C15.0991 16.3178 14.75 17.1218 14.75 18C14.75 18.5333 14.8801 19.0396 15.1123 19.4814L15.2188 19.666L15.2266 19.6797C15.3448 19.8806 15.4903 20.0703 15.6572 20.2402L15.8311 20.4033L15.8457 20.416C16.4125 20.9343 17.1641 21.25 18 21.25C19.1858 21.25 20.2156 20.6178 20.7754 19.6768L20.7822 19.666C20.9485 19.3969 21.0767 19.0844 21.1484 18.7656L21.1553 18.7363C21.2179 18.5014 21.25 18.2566 21.25 18ZM22.75 18C22.75 18.3731 22.7026 18.7379 22.6104 19.0938L22.6113 19.0947C22.5031 19.5757 22.3122 20.0434 22.0586 20.4541L22.0576 20.4531C21.2361 21.8264 19.7298 22.75 18 22.75C16.7829 22.75 15.6802 22.2901 14.8486 21.5361C14.4928 21.2277 14.1836 20.8597 13.9424 20.4531C13.5003 19.7361 13.25 18.8906 13.25 18C13.25 16.7186 13.761 15.542 14.5928 14.6865C15.4593 13.7964 16.6712 13.25 18 13.25C19.3947 13.25 20.6657 13.8523 21.5264 14.8281H21.5273C22.2856 15.6695 22.75 16.7862 22.75 18Z" fill="#1C252E"/>
<path d="M17.25 19.5103V18.73H16.5098C16.0956 18.73 15.7598 18.3942 15.7598 17.98C15.7598 17.5658 16.0956 17.23 16.5098 17.23H17.25V16.52C17.25 16.1058 17.5858 15.77 18 15.77C18.4141 15.7702 18.75 16.1059 18.75 16.52V17.23H19.4902C19.9042 17.2302 20.2402 17.5659 20.2402 17.98C20.2402 18.394 19.9042 18.7297 19.4902 18.73H18.75V19.5103C18.7499 19.9243 18.414 20.2601 18 20.2603C17.5859 20.2603 17.2501 19.9244 17.25 19.5103Z" fill="#1C252E"/>
</svg>
