<svg width="24" height="24" viewBox="0 0 24 24" fill="none" xmlns="http://www.w3.org/2000/svg">
<path d="M13.5195 10.9196C13.5193 9.78205 12.5965 8.85999 11.459 8.85999C10.3216 8.86022 9.39964 9.78219 9.39941 10.9196C9.39941 12.0571 10.3215 12.9799 11.459 12.9801C12.5967 12.9801 13.5195 12.0573 13.5195 10.9196ZM15.0195 10.9196C15.0195 12.8857 13.4251 14.4801 11.459 14.4801C9.49305 14.4799 7.89941 12.8855 7.89941 10.9196C7.89964 8.95376 9.49319 7.36022 11.459 7.35999C13.425 7.35999 15.0193 8.95362 15.0195 10.9196Z" fill="#1C252E"/>
<path d="M15.8994 20.2004C15.8994 18.4199 14.065 16.7202 11.46 16.72C8.85341 16.72 7.01953 18.4108 7.01953 20.2004C7.0193 20.6145 6.6836 20.9504 6.26953 20.9504C5.85546 20.9504 5.51976 20.6145 5.51953 20.2004C5.51953 17.3101 8.32651 15.22 11.46 15.22C14.5945 15.2202 17.3994 17.3212 17.3994 20.2004C17.3992 20.6145 17.0635 20.9504 16.6494 20.9504C16.2354 20.9504 15.8996 20.6144 15.8994 20.2004Z" fill="#1C252E"/>
<path d="M14.25 5C14.25 4.73007 14.2726 4.4663 14.3154 4.20898C13.4318 3.91135 12.4858 3.75 11.5 3.75C6.66421 3.75 2.75 7.66421 2.75 12.5C2.75 17.3358 6.66421 21.25 11.5 21.25C16.3358 21.25 20.25 17.3358 20.25 12.5C20.25 11.5192 20.0832 10.5694 19.7842 9.68359C19.5277 9.7276 19.2657 9.75 19 9.75C17.7829 9.75 16.6802 9.29014 15.8486 8.53613C15.4927 8.22759 15.1826 7.85987 14.9414 7.45312C14.4995 6.73625 14.25 5.89042 14.25 5ZM15.75 5C15.75 5.53326 15.8801 6.03964 16.1123 6.48145L16.2188 6.66602L16.2266 6.67969C16.3448 6.88061 16.4903 7.07032 16.6572 7.24023L16.8311 7.40332L16.8457 7.41602C17.4125 7.93426 18.1641 8.25 19 8.25C19.36 8.25 19.6942 8.19272 19.9971 8.08398L20.1387 8.04785C20.4714 7.99764 20.8061 8.1777 20.9414 8.49902C21.4589 9.72812 21.75 11.0869 21.75 12.5C21.75 18.1642 17.1642 22.75 11.5 22.75C5.83579 22.75 1.25 18.1642 1.25 12.5C1.25 6.83579 5.83579 2.25 11.5 2.25C12.91 2.25 14.2592 2.53007 15.4912 3.04883C15.8503 3.20011 16.0335 3.6011 15.9131 3.97168C15.8067 4.29898 15.75 4.64097 15.75 5Z" fill="#1C252E"/>
<path d="M22.25 5C22.25 4.17393 21.9347 3.41067 21.4131 2.83203L21.4062 2.8252C20.827 2.1655 19.9617 1.75 19 1.75C18.089 1.75 17.2604 2.1237 16.667 2.7334V2.73438C16.3254 3.0841 16.0666 3.5051 15.9131 3.97363L15.9121 3.97266C15.806 4.29962 15.75 4.64137 15.75 5C15.75 5.53326 15.8801 6.03964 16.1123 6.48145L16.2188 6.66602L16.2266 6.67969C16.3448 6.88061 16.4903 7.07032 16.6572 7.24023L16.8311 7.40332L16.8457 7.41602C17.4125 7.93426 18.1641 8.25 19 8.25C19.36 8.25 19.6942 8.19272 19.9971 8.08398L20.0244 8.07422C20.7623 7.84161 21.3854 7.33411 21.7744 6.67773L21.7822 6.66602C21.9485 6.39688 22.0767 6.08439 22.1484 5.76562L22.1553 5.73633C22.2179 5.50139 22.25 5.25662 22.25 5ZM23.75 5C23.75 5.3731 23.7026 5.73794 23.6104 6.09375L23.6113 6.09473C23.5041 6.57111 23.3145 7.03359 23.0645 7.44141C22.4982 8.39704 21.5919 9.14404 20.502 9.49512L20.5029 9.49609C20.026 9.66724 19.5198 9.75 19 9.75C17.7829 9.75 16.6802 9.29014 15.8486 8.53613C15.4928 8.2277 15.1836 7.8597 14.9424 7.45312C14.5003 6.73616 14.25 5.8906 14.25 5C14.25 4.47903 14.3327 3.98051 14.4863 3.50781L14.4873 3.50684C14.7138 2.81537 15.0953 2.19582 15.5938 1.68555C16.4602 0.796007 17.6717 0.25 19 0.25C20.3947 0.25 21.6657 0.85226 22.5264 1.82812H22.5273C23.2856 2.66946 23.75 3.7862 23.75 5Z" fill="#1C252E"/>
<path d="M20.4902 4.22998C20.9042 4.23023 21.2402 4.56592 21.2402 4.97998C21.2402 5.39404 20.9042 5.72973 20.4902 5.72998H17.5098C17.0956 5.72998 16.7598 5.39419 16.7598 4.97998C16.7598 4.56577 17.0956 4.22998 17.5098 4.22998H20.4902Z" fill="#1C252E"/>
<path d="M18.25 6.51025V3.52002C18.25 3.10581 18.5858 2.77002 19 2.77002C19.4142 2.77002 19.75 3.10581 19.75 3.52002V6.51025C19.7499 6.92436 19.4141 7.26025 19 7.26025C18.5859 7.26025 18.2501 6.92436 18.25 6.51025Z" fill="#1C252E"/>
</svg>
