<svg width="24" height="24" viewBox="0 0 24 24" fill="none" xmlns="http://www.w3.org/2000/svg">
<path d="M20.25 15.8799V4.96973C20.2499 3.7506 19.2523 2.75 18 2.75H6C4.74774 2.75 3.75015 3.7506 3.75 4.96973V15.8896C3.75 17.1089 4.74765 18.1104 6 18.1104H6.75C7.73196 18.1104 8.69324 18.4938 9.39746 19.1963L11.1074 20.8867C11.5953 21.3678 12.395 21.3679 12.8828 20.8867L14.5928 19.1963C15.296 18.4948 16.247 18.1104 17.2402 18.1104H18C19.2491 18.1104 20.25 17.1024 20.25 15.8799ZM21.75 15.8799C21.75 17.9374 20.0709 19.6104 18 19.6104H17.2402C16.635 19.6104 16.0668 19.8443 15.6504 20.2607L15.6475 20.2637L13.9375 21.9531L13.9365 21.9541C12.8644 23.0121 11.1247 23.0123 10.0527 21.9541V21.9531L8.34277 20.2637L8.33984 20.2607C7.92434 19.8452 7.34659 19.6104 6.75 19.6104H6C3.93235 19.6104 2.25 17.9504 2.25 15.8896V4.96973C2.25015 2.90911 3.93244 1.25 6 1.25H18C20.0676 1.25 21.7499 2.90911 21.75 4.96973V15.8799Z" fill="#1C252E"/>
<path d="M11.9902 4.30005C13.4846 4.30015 14.6868 5.51476 14.6904 6.99341L14.6787 7.26489C14.5581 8.60541 13.4601 9.66021 12.0918 9.69946C12.0847 9.69966 12.0774 9.70044 12.0703 9.70044H11.9199C11.9105 9.70044 11.901 9.69982 11.8916 9.69946C10.4426 9.64426 9.29014 8.46701 9.29004 7.00024C9.29004 5.50602 10.496 4.30005 11.9902 4.30005ZM10.79 7.00024C10.7901 7.65318 11.2975 8.17547 11.9482 8.20044H12.0488C12.6889 8.18206 13.1966 7.65977 13.1904 7.00708V7.00024C13.1904 6.34202 12.6534 5.80015 11.9902 5.80005C11.3244 5.80005 10.79 6.33446 10.79 7.00024Z" fill="#1C252E"/>
<path d="M12.0039 10.4601C13.0438 10.4601 14.1175 10.7032 14.9922 11.2267L15.1641 11.3351L15.168 11.337C15.9881 11.886 16.498 12.6829 16.498 13.5753C16.498 14.4678 15.9882 15.2647 15.168 15.8136H15.167C14.2627 16.4183 13.1112 16.6974 12 16.6974C10.8888 16.6973 9.73724 16.4184 8.83301 15.8136C8.01275 15.2647 7.50302 14.4678 7.50293 13.5753C7.50293 12.6828 8.01281 11.886 8.83301 11.337L8.83789 11.3331C9.7454 10.7361 10.8946 10.4601 12.0039 10.4601ZM12.0039 11.9601C11.121 11.9601 10.2754 12.1842 9.66309 12.587C9.15728 12.9272 9.00293 13.2988 9.00293 13.5753C9.00302 13.8527 9.15851 14.2256 9.66797 14.5665H9.66699C10.2726 14.9716 11.1165 15.1973 12 15.1974C12.8836 15.1974 13.7274 14.9715 14.333 14.5665C14.8425 14.2256 14.998 13.8527 14.998 13.5753C14.998 13.2984 14.8435 12.9256 14.3359 12.5851C13.7296 12.1837 12.887 11.9601 12.0039 11.9601Z" fill="#1C252E"/>
</svg>
