<svg width="24" height="24" viewBox="0 0 24 24" fill="none" xmlns="http://www.w3.org/2000/svg">
<path d="M11.9998 16.22C15.5069 16.22 18.6245 18.4493 18.8875 21.5569C18.9174 21.9115 18.6936 22.2383 18.3523 22.3391C17.3816 22.6259 16.2646 22.7502 14.9998 22.7502H8.99976C7.73491 22.7502 6.61792 22.6259 5.64722 22.3391C5.30609 22.2381 5.08309 21.9114 5.11304 21.5569C5.37598 18.4494 8.49271 16.2201 11.9998 16.22ZM11.9998 17.72C9.30933 17.7201 7.24131 19.2322 6.72241 21.0579C7.37564 21.1856 8.12957 21.2502 8.99976 21.2502H14.9998C15.8694 21.2502 16.6232 21.1854 17.2761 21.0579C16.757 19.2323 14.6901 17.72 11.9998 17.72Z" fill="#1C252E"/>
<path d="M21.25 9C21.25 6.57397 20.7603 5.0708 19.8447 4.15527C18.9292 3.23974 17.426 2.75 15 2.75H9C6.57397 2.75 5.0708 3.23974 4.15527 4.15527C3.23974 5.0708 2.75 6.57397 2.75 9V15C2.75 16.8294 3.02899 18.1406 3.56055 19.0645C3.95377 19.7479 4.5093 20.2591 5.28613 20.6143C6.03117 18.0083 8.85882 16.2197 12 16.2197C15.1411 16.2197 17.9677 18.0085 18.7129 20.6143C19.4902 20.2591 20.0461 19.7481 20.4395 19.0645C20.971 18.1406 21.25 16.8294 21.25 15V9ZM14.8301 10.5801C14.8301 9.01429 13.5658 7.75 12 7.75C10.4342 7.75 9.16992 9.01429 9.16992 10.5801C9.16995 12.1486 10.4369 13.4199 12 13.4199C13.5631 13.4199 14.83 12.1486 14.8301 10.5801ZM16.3301 10.5801C16.33 12.9715 14.3969 14.9199 12 14.9199C9.60309 14.9199 7.66995 12.9715 7.66992 10.5801C7.66992 8.18587 9.60578 6.25 12 6.25C14.3942 6.25 16.3301 8.18587 16.3301 10.5801ZM22.75 15C22.75 16.9505 22.4586 18.5639 21.7402 19.8125C21.0041 21.0919 19.8647 21.9114 18.3447 22.3418C18.1293 22.4028 17.897 22.3637 17.7129 22.2363C17.5291 22.109 17.4115 21.9064 17.3926 21.6836C17.2155 19.5912 14.9928 17.7197 12 17.7197C9.00719 17.7197 6.78447 19.5912 6.60742 21.6836C6.58846 21.9064 6.47089 22.109 6.28711 22.2363C6.10297 22.3637 5.87072 22.4028 5.65527 22.3418C4.13527 21.9114 2.99591 21.0919 2.25977 19.8125C1.54144 18.5639 1.25 16.9505 1.25 15V9C1.25 6.42603 1.76026 4.4292 3.09473 3.09473C4.4292 1.76026 6.42603 1.25 9 1.25H15C17.574 1.25 19.5708 1.76026 20.9053 3.09473C22.2397 4.4292 22.75 6.42603 22.75 9V15Z" fill="#1C252E"/>
<path d="M14.8301 10.5801C14.8301 9.01431 13.5657 7.75004 12 7.75C10.4342 7.75 9.16992 9.01429 9.16992 10.5801C9.16995 12.1486 10.4369 13.4199 12 13.4199C13.563 13.4199 14.83 12.1485 14.8301 10.5801ZM16.3301 10.5801C16.33 12.9715 14.3969 14.9199 12 14.9199C9.60309 14.9199 7.66995 12.9715 7.66992 10.5801C7.66992 8.18587 9.60578 6.25 12 6.25C14.3942 6.25004 16.3301 8.18589 16.3301 10.5801Z" fill="#1C252E"/>
</svg>
