<svg width="24" height="24" viewBox="0 0 24 24" fill="none" xmlns="http://www.w3.org/2000/svg">
<path d="M19.5 18.25C19.9142 18.25 20.25 18.5858 20.25 19C20.25 19.4142 19.9142 19.75 19.5 19.75H15.5C15.0858 19.75 14.75 19.4142 14.75 19C14.75 18.5858 15.0858 18.25 15.5 18.25H19.5Z" fill="#1C252E"/>
<path d="M11.9902 1.25C14.8543 1.25023 17.1797 3.57636 17.1797 6.44043V6.44336C17.1679 9.24364 14.9605 11.5255 12.1748 11.6191C12.1416 11.6202 12.1083 11.6195 12.0752 11.6162C12.027 11.6114 11.9549 11.6111 11.8877 11.6172C11.8569 11.62 11.8259 11.6202 11.7949 11.6191C9.00986 11.5255 6.80003 9.24361 6.7998 6.44043C6.7998 3.57732 9.11492 1.25 11.9902 1.25ZM8.2998 6.44043C8.30003 8.43248 9.86349 10.0461 11.832 10.1191C11.9314 10.1133 12.0345 10.1134 12.1338 10.1191C14.1025 10.0481 15.6695 8.43529 15.6797 6.44043L15.6748 6.25C15.5757 4.30243 13.9621 2.75023 11.9902 2.75C9.94555 2.75 8.2998 4.40354 8.2998 6.44043Z" fill="#1C252E"/>
<path d="M11.9854 12.4301C13.9143 12.4301 15.8831 12.9171 17.4072 13.9369C17.7513 14.1672 17.8435 14.6327 17.6133 14.9769C17.3829 15.3212 16.9175 15.4133 16.5732 15.183C15.3475 14.3629 13.6862 13.9301 11.9854 13.9301C10.2846 13.9301 8.6232 14.363 7.39746 15.183L7.39551 15.1849C6.34221 15.8857 5.91504 16.7359 5.91504 17.4916C5.91514 18.2475 6.34261 19.1002 7.39648 19.806L7.63184 19.9554C8.83496 20.6796 10.3914 21.0599 11.9902 21.0599C12.4043 21.06 12.7402 21.3958 12.7402 21.8099C12.7402 22.2241 12.4044 22.5598 11.9902 22.5599C10.0557 22.5599 8.09277 22.0728 6.56445 21.0541L6.5625 21.0531C5.19744 20.1392 4.41514 18.8627 4.41504 17.4916C4.41504 16.1205 5.19719 14.846 6.5625 13.9369L6.85352 13.7513C8.3328 12.8575 10.1768 12.4301 11.9854 12.4301Z" fill="#1C252E"/>
</svg>
