<svg width="24" height="24" viewBox="0 0 24 24" fill="none" xmlns="http://www.w3.org/2000/svg">
<path d="M19.0703 14.24C18.7803 14.53 18.3203 14.53 18.0403 14.24C17.7503 13.95 17.7503 13.49 18.0403 13.21C20.0403 11.21 20.0403 7.95998 18.0403 5.96998C16.0403 3.97998 12.7903 3.96998 10.8003 5.96998C8.81027 7.96998 8.80027 11.22 10.8003 13.21C11.0903 13.5 11.0903 13.96 10.8003 14.24C10.5103 14.53 10.0503 14.53 9.77027 14.24C7.20027 11.67 7.20027 7.48998 9.77027 4.92998C12.3403 2.36998 16.5203 2.35998 19.0803 4.92998C21.6403 7.49998 21.6403 11.67 19.0703 14.24Z" fill="#1C252E"/>
<path d="M4.92973 9.75998C5.21973 9.46998 5.67973 9.46998 5.95973 9.75998C6.24973 10.05 6.24973 10.51 5.95973 10.79C3.95973 12.79 3.95973 16.04 5.95973 18.03C7.95973 20.02 11.2097 20.03 13.1997 18.03C15.1897 16.03 15.1997 12.78 13.1997 10.79C12.9097 10.5 12.9097 10.04 13.1997 9.75998C13.4897 9.46998 13.9497 9.46998 14.2297 9.75998C16.7997 12.33 16.7997 16.51 14.2297 19.07C11.6597 21.63 7.47973 21.64 4.91973 19.07C2.35973 16.5 2.35973 12.33 4.92973 9.75998Z" fill="#1C252E"/>
</svg>
