<svg width="24" height="24" viewBox="0 0 24 24" fill="none" xmlns="http://www.w3.org/2000/svg">
<path d="M2 13.5C2 17.1 4.9 20 8.5 20H13L10 17H8.5C6.6 17 5 15.4 5 13.5C5 11.6 6.6 10 8.5 10H13L7 4H2L5.7 7.7H5.5C4.94725 7.98954 4.44299 8.35529 4 8.78265" stroke="#1C252E" stroke-width="1.5" stroke-miterlimit="10" stroke-linecap="round" stroke-linejoin="round"/>
<path d="M18.3 16.3L22 20H17L11 14H15.5C17.4 14 19 12.4 19 10.5C19 8.6 17.4 7 15.5 7H14L11 4H15.5C19.1 4 22 6.9 22 10.5C22 13 20.6 15.2 18.5 16.3H18.3Z" stroke="#1C252E" stroke-width="1.5" stroke-miterlimit="10" stroke-linecap="round" stroke-linejoin="round"/>
</svg>
