<svg width="24" height="24" viewBox="0 0 24 24" fill="none" xmlns="http://www.w3.org/2000/svg">
<path d="M4.9 9.2C4.9 9.1 5.1 9 5.3 9H11.5L8.4 3.8C8.2 3.4 8.5 3 8.9 3H15.7C15.9 3 16.1 3.1 16.1 3.2L22.8 14.9C22.9 15 22.9 15.2 22.8 15.4L19.1 20.9C19 21 18.9 21.1 18.7 21.1H12.2C12 21.1 11.9 21 11.8 20.9L8.7 16.2C8.5 15.9 8.1 15.9 7.9 16.2L5.4 20.4C5.3 20.7 4.8 20.7 4.6 20.4L1.2 15.3C1.1 15.1 1.1 14.9 1.2 14.7L3.05 11.95M8.5 15L11.7 9.4L14.5 14.2C14.7 14.5 14.5 15 14.1 15H8.5Z" stroke="#1C252E" stroke-width="1.5" stroke-miterlimit="10" stroke-linecap="round"/>
</svg>
