<svg width="24" height="24" viewBox="0 0 24 24" fill="none" xmlns="http://www.w3.org/2000/svg">
<path d="M16.1999 10C16.1999 10 15.9999 11 12.9999 15C10.0999 18.8 14.2999 21.6 14.7999 22H14.8999C15.4999 21.5 23.0999 16.7 16.1999 10Z" stroke="#1C252E" stroke-width="1.5" stroke-miterlimit="10" stroke-linecap="round" stroke-linejoin="round"/>
<path d="M11.1001 2.39995C11.2001 1.99995 11.7001 1.89995 12.0001 2.19995C12.9001 3.39995 13.8001 5.49995 13.8001 7.79995C13.8001 10.9999 8.70005 13.8999 9.00005 17.7999C9.30005 20.8999 11.7001 22.3999 9.80005 21.8999C6.30005 20.8999 2.90005 15.6999 6.60005 10.8999C7.82147 9.29947 8.74132 7.80542 9.42685 6.5" stroke="#1C252E" stroke-width="1.5" stroke-miterlimit="10" stroke-linecap="round" stroke-linejoin="round"/>
</svg>
