<svg width="24" height="24" viewBox="0 0 24 24" fill="none" xmlns="http://www.w3.org/2000/svg">
<path d="M5 7.10005C5 6.40005 5.4 5.80005 6 5.40005L11 2.60005C11.6 2.20005 12.4 2.20005 12.9 2.60005L17.9 5.50005C18.5 5.80005 18.9 6.50005 18.9 7.20005V16C18.9 16.6 18.6 17.2 18.1 17.6L13.1 21.2001C12.4 21.7001 11.5 21.7001 10.8 21.2001L5.8 17.6C5.3 17.3 5 16.6 5 16V11.55" stroke="#1C252E" stroke-width="1.5" stroke-miterlimit="10" stroke-linecap="round" stroke-linejoin="round"/>
<path d="M12 3L10 12L11.8 21.2" stroke="#1C252E" stroke-width="1.5" stroke-miterlimit="10" stroke-linecap="round" stroke-linejoin="round"/>
<path d="M18.2 16.9L10 12L18.5 7.30005" stroke="#1C252E" stroke-width="1.5" stroke-miterlimit="10" stroke-linecap="round" stroke-linejoin="round"/>
</svg>
