<svg width="24" height="24" viewBox="0 0 24 24" fill="none" xmlns="http://www.w3.org/2000/svg">
<path d="M8 2.8C9.2 2.3 10.6 2 12 2C17.5 2 22 6.5 22 12C22 13.4201 21.7 14.7735 21.1603 16M2.8 8C2.3 9.2 2 10.6 2 12C2 17.5 6.5 22 12 22C13.4201 22 14.7735 21.7 16 21.1603" stroke="#1C252E" stroke-width="1.5" stroke-miterlimit="10" stroke-linecap="round" stroke-linejoin="round"/>
<path d="M16.0001 16.2V12C16.0001 9.70005 14.1001 7.80005 11.8001 7.80005C9.5001 7.80005 7.6001 9.70005 7.6001 12C7.6001 14.3 9.5001 16.2 11.8001 16.2H16.0001Z" stroke="#1C252E" stroke-width="1.5" stroke-miterlimit="10" stroke-linecap="round" stroke-linejoin="round"/>
<path d="M5 6.5C5.82843 6.5 6.5 5.82843 6.5 5C6.5 4.17157 5.82843 3.5 5 3.5C4.17157 3.5 3.5 4.17157 3.5 5C3.5 5.82843 4.17157 6.5 5 6.5Z" stroke="#1C252E" stroke-width="1.5" stroke-miterlimit="10" stroke-linecap="round" stroke-linejoin="round"/>
</svg>
