<svg width="24" height="24" viewBox="0 0 24 24" fill="none" xmlns="http://www.w3.org/2000/svg">
<path d="M9.80005 10.6999C9.80005 11.4999 10.2 12.2999 10.9 12.6999V14.6999C10.9 15.2999 11.4 15.8999 12.1 15.8999C12.7 15.8999 13.3 15.3999 13.3 14.6999V12.6999C14.1 12.1999 14.6 11.1999 14.3 10.0999C14.1 9.2999 13.4 8.6999 12.8 8.3999" stroke="#1C252E" stroke-width="1.5" stroke-miterlimit="10" stroke-linecap="round"/>
<path d="M21.6 9C20.3 5 16.5 2 12 2C6.5 2 2 6.5 2 12C2 17.5 6.5 22 12 22C16.5 22 20.3 19.1 21.5 15" stroke="#1C252E" stroke-width="1.5" stroke-miterlimit="10" stroke-linecap="round" stroke-linejoin="round"/>
</svg>
