<svg width="24" height="24" viewBox="0 0 24 24" fill="none" xmlns="http://www.w3.org/2000/svg">
<path d="M12 2L18 8L16 10L12 6L8 10L6 8L9 5" stroke="#1C252E" stroke-width="1.5" stroke-miterlimit="10" stroke-linecap="round" stroke-linejoin="round"/>
<path d="M12 22L6 16L8 14L12 18L16 14L18 16L12 22Z" stroke="#1C252E" stroke-width="1.5" stroke-miterlimit="10" stroke-linecap="round" stroke-linejoin="round"/>
<path d="M20.9165 13.0961L22.0479 11.9647L19.7852 9.702L17.5225 11.9647L19.0577 13.5" stroke="#1C252E" stroke-width="1.5" stroke-miterlimit="10" stroke-linecap="round" stroke-linejoin="round"/>
<path d="M4.28518 9.70188L2.02246 11.9646L4.28518 14.2273L6.5479 11.9646L4.28518 9.70188Z" stroke="#1C252E" stroke-width="1.5" stroke-miterlimit="10" stroke-linecap="round" stroke-linejoin="round"/>
<path d="M11.9292 9.52515L9.45435 12L11.9292 14.4748L14.404 12L11.9292 9.52515Z" stroke="#1C252E" stroke-width="1.5" stroke-miterlimit="10" stroke-linecap="round" stroke-linejoin="round"/>
</svg>
