<svg width="24" height="24" viewBox="0 0 24 24" fill="none" xmlns="http://www.w3.org/2000/svg">
<path d="M4.47 11.42L2.73 9.67999L1 11.42" stroke="#1C252E" stroke-width="1.5" stroke-linecap="round" stroke-linejoin="round"/>
<path d="M19.53 12.58L21.27 14.32L23.01 12.58" stroke="#1C252E" stroke-width="1.5" stroke-linecap="round" stroke-linejoin="round"/>
<path d="M21.26 14.32V12C21.26 8.31496 19.1102 5.13755 16 3.64599M4.77002 6.21004C5.85911 4.85828 7.32169 3.81433 9 3.23859" stroke="#1C252E" stroke-width="1.5" stroke-linecap="round" stroke-linejoin="round"/>
<path d="M2.73999 9.67999V12C2.73999 17.12 6.88999 21.26 12 21.26C14.92 21.26 17.53 19.9 19.23 17.79" stroke="#1C252E" stroke-width="1.5" stroke-linecap="round" stroke-linejoin="round"/>
<path d="M9 8.5H13.38C14.35 8.5 15.13 9.38 15.13 10.25C15.13 11.22 14.35 12 13.38 12H9V8.5Z" stroke="#1C252E" stroke-width="1.5" stroke-miterlimit="10" stroke-linecap="round" stroke-linejoin="round"/>
<path d="M9 12H14C15.1 12 16 12.78 16 13.75C16 14.72 15.1 15.5 14 15.5H9V12Z" stroke="#1C252E" stroke-width="1.5" stroke-miterlimit="10" stroke-linecap="round" stroke-linejoin="round"/>
<path d="M11.8 15.5V17.25" stroke="#1C252E" stroke-width="1.5" stroke-miterlimit="10" stroke-linecap="round" stroke-linejoin="round"/>
<path d="M11.8 6.75V8.5" stroke="#1C252E" stroke-width="1.5" stroke-miterlimit="10" stroke-linecap="round" stroke-linejoin="round"/>
</svg>
