<svg width="24" height="24" viewBox="0 0 24 24" fill="none" xmlns="http://www.w3.org/2000/svg">
<path d="M22 8.5C22 12.09 19.09 15 15.5 15C15.33 15 15.15 14.99 14.98 14.98C14.73 11.81 12.19 9.26999 9.01999 9.01999C9.00999 8.84999 9 8.67 9 8.5C9 4.91 11.91 2 15.5 2C19.09 2 22 4.91 22 8.5Z" stroke="#1C252E" stroke-width="1.5" stroke-linecap="round" stroke-linejoin="round"/>
<path d="M8.5 22C12.09 22 15 19.09 15 15.5C15 15.33 14.99 15.15 14.98 14.98C14.73 11.81 12.19 9.26999 9.01999 9.01999C8.84999 9.00999 8.67 9 8.5 9C4.91 9 2 11.91 2 15.5C2 17.0795 2.56331 18.5274 3.5 19.6537" stroke="#1C252E" stroke-width="1.5" stroke-linecap="round" stroke-linejoin="round"/>
<path d="M7.62 14.62L8.5 13L9.38 14.62L11 15.5L9.38 16.38L8.5 18L7.62 16.38L6 15.5L7.62 14.62Z" stroke="#1C252E" stroke-width="1.5" stroke-linecap="round" stroke-linejoin="round"/>
</svg>
