<svg width="24" height="24" viewBox="0 0 24 24" fill="none" xmlns="http://www.w3.org/2000/svg">
<path d="M6.10004 15.5999L11.7 5.9999C11.9 5.6999 12.3 5.6999 12.5 5.9999L14 7.9999C14.4 8.5999 14.5 9.3999 14.1 9.9999L10.8 15.2999C10.5 15.7999 9.90004 16.1999 9.30004 16.1999H6.40004C6.10004 16.2999 5.90004 15.8999 6.10004 15.5999Z" stroke="#1C252E" stroke-width="1.5" stroke-miterlimit="10" stroke-linecap="round" stroke-linejoin="round"/>
<path d="M15.2001 12.3998L13.3001 15.5998C13.1001 15.8998 13.3001 16.2998 13.7001 16.2998H17.5001C17.9001 16.2998 18.1001 15.8998 17.9001 15.5998L16.0001 12.3998C15.8001 12.0998 15.4001 12.0998 15.2001 12.3998Z" stroke="#1C252E" stroke-width="1.5" stroke-miterlimit="10" stroke-linecap="round" stroke-linejoin="round"/>
<path d="M12 2C17.5228 2 22 6.47715 22 12C22 17.5228 17.5228 22 12 22C6.47715 22 2 17.5228 2 12C2 9.27455 3.09032 6.80375 4.85857 5" stroke="#1C252E" stroke-width="1.5" stroke-miterlimit="10" stroke-linecap="round"/>
</svg>
