<svg width="24" height="24" viewBox="0 0 24 24" fill="none" xmlns="http://www.w3.org/2000/svg">
<path d="M13.75 10C14.3023 10 14.75 9.55228 14.75 9C14.75 8.44772 14.3023 8 13.75 8C13.1977 8 12.75 8.44772 12.75 9C12.75 9.55228 13.1977 10 13.75 10Z" stroke="#1C252E" stroke-miterlimit="10"/>
<path d="M9.25 9C9.25 9.55228 9.69772 10 10.25 10C10.8023 10 11.25 9.55228 11.25 9C11.25 8.44772 10.8023 8 10.25 8" stroke="#1C252E" stroke-miterlimit="10" stroke-linecap="round"/>
<path d="M15.5 13C16.0523 13 16.5 12.5523 16.5 12C16.5 11.4477 16.0523 11 15.5 11C14.9477 11 14.5 11.4477 14.5 12C14.5 12.5523 14.9477 13 15.5 13Z" stroke="#1C252E" stroke-miterlimit="10"/>
<path d="M11 2.45001C11 1.89773 11.4477 1.45001 12 1.45001C12.5523 1.45001 13 1.89773 13 2.45001C13 3.0023 12.5523 3.45001 12 3.45001C11.4477 3.45001 11 3.0023 11 2.45001Z" fill="#1C252E"/>
<path d="M16.75 2.84998C16.75 2.43576 17.0858 2.09998 17.5 2.09998C17.9142 2.09998 18.25 2.43576 18.25 2.84998C18.25 3.26419 17.9142 3.59998 17.5 3.59998C17.0858 3.59998 16.75 3.26419 16.75 2.84998Z" fill="#1C252E"/>
<path d="M16.75 21.2C16.75 20.7858 17.0858 20.45 17.5 20.45C17.9142 20.45 18.25 20.7858 18.25 21.2C18.25 21.6142 17.9142 21.95 17.5 21.95C17.0858 21.95 16.75 21.6142 16.75 21.2Z" fill="#1C252E"/>
<path d="M19.25 16.5C19.25 16.0858 19.5858 15.75 20 15.75C20.4142 15.75 20.75 16.0858 20.75 16.5C20.75 16.9142 20.4142 17.25 20 17.25C19.5858 17.25 19.25 16.9142 19.25 16.5Z" fill="#1C252E"/>
<path d="M19.25 7C19.25 6.58579 19.5858 6.25 20 6.25C20.4142 6.25 20.75 6.58579 20.75 7C20.75 7.41421 20.4142 7.75 20 7.75C19.5858 7.75 19.25 7.41421 19.25 7Z" fill="#1C252E"/>
<path d="M3.25 16.5C3.25 16.0858 3.58579 15.75 4 15.75C4.41421 15.75 4.75 16.0858 4.75 16.5C4.75 16.9142 4.41421 17.25 4 17.25C3.58579 17.25 3.25 16.9142 3.25 16.5Z" fill="#1C252E"/>
<path d="M3.25 7C3.25 6.58579 3.58579 6.25 4 6.25C4.41421 6.25 4.75 6.58579 4.75 7C4.75 7.41421 4.41421 7.75 4 7.75C3.58579 7.75 3.25 7.41421 3.25 7Z" fill="#1C252E"/>
<path d="M5.75 2.84998C5.75 2.43576 6.08579 2.09998 6.5 2.09998C6.91421 2.09998 7.25 2.43576 7.25 2.84998C7.25 3.26419 6.91421 3.59998 6.5 3.59998C6.08579 3.59998 5.75 3.26419 5.75 2.84998Z" fill="#1C252E"/>
<path d="M5.75 21.2C5.75 20.7858 6.08579 20.45 6.5 20.45C6.91421 20.45 7.25 20.7858 7.25 21.2C7.25 21.6142 6.91421 21.95 6.5 21.95C6.08579 21.95 5.75 21.6142 5.75 21.2Z" fill="#1C252E"/>
<path d="M11 21.5C11 20.9477 11.4477 20.5 12 20.5C12.5523 20.5 13 20.9477 13 21.5C13 22.0523 12.5523 22.5 12 22.5C11.4477 22.5 11 22.0523 11 21.5Z" fill="#1C252E"/>
<path d="M0.550049 12C0.550049 11.4477 0.997764 11 1.55005 11C2.10233 11 2.55005 11.4477 2.55005 12C2.55005 12.5523 2.10233 13 1.55005 13C0.997764 13 0.550049 12.5523 0.550049 12Z" fill="#1C252E"/>
<path d="M21.5 12C21.5 11.4477 21.9477 11 22.5 11C23.0523 11 23.5 11.4477 23.5 12C23.5 12.5523 23.0523 13 22.5 13C21.9477 13 21.5 12.5523 21.5 12Z" fill="#1C252E"/>
<path d="M17.1499 9.75C17.5641 9.75 17.8999 9.41421 17.8999 9C17.8999 8.58579 17.5641 8.25 17.1499 8.25C16.7357 8.25 16.3999 8.58579 16.3999 9C16.3999 9.41421 16.7357 9.75 17.1499 9.75Z" stroke="#1C252E" stroke-miterlimit="10"/>
<path d="M17.1499 15.75C17.5641 15.75 17.8999 15.4142 17.8999 15C17.8999 14.5858 17.5641 14.25 17.1499 14.25C16.7357 14.25 16.3999 14.5858 16.3999 15C16.3999 15.4142 16.7357 15.75 17.1499 15.75Z" stroke="#1C252E" stroke-miterlimit="10"/>
<path d="M19.75 12.75C20.1642 12.75 20.5 12.4142 20.5 12C20.5 11.5858 20.1642 11.25 19.75 11.25C19.3358 11.25 19 11.5858 19 12C19 12.4142 19.3358 12.75 19.75 12.75Z" stroke="#1C252E" stroke-miterlimit="10"/>
<path d="M6.80005 9.75C7.21426 9.75 7.55005 9.41421 7.55005 9C7.55005 8.58579 7.21426 8.25 6.80005 8.25C6.38584 8.25 6.05005 8.58579 6.05005 9C6.05005 9.41421 6.38584 9.75 6.80005 9.75Z" stroke="#1C252E" stroke-miterlimit="10"/>
<path d="M7.55005 15C7.55005 15.4142 7.21426 15.75 6.80005 15.75C6.38584 15.75 6.05005 15.4142 6.05005 15" stroke="#1C252E" stroke-miterlimit="10" stroke-linecap="round"/>
<path d="M4.19995 12.75C4.61416 12.75 4.94995 12.4142 4.94995 12C4.94995 11.5858 4.61416 11.25 4.19995 11.25C3.78574 11.25 3.44995 11.5858 3.44995 12C3.44995 12.4142 3.78574 12.75 4.19995 12.75Z" stroke="#1C252E" stroke-miterlimit="10"/>
<path d="M15.8999 5.95001C16.3141 5.95001 16.6499 5.61423 16.6499 5.20001C16.6499 4.7858 16.3141 4.45001 15.8999 4.45001C15.4857 4.45001 15.1499 4.7858 15.1499 5.20001C15.1499 5.61423 15.4857 5.95001 15.8999 5.95001Z" stroke="#1C252E" stroke-miterlimit="10"/>
<path d="M8.1001 5.95001C8.51431 5.95001 8.8501 5.61423 8.8501 5.20001C8.8501 4.7858 8.51431 4.45001 8.1001 4.45001C7.68588 4.45001 7.3501 4.7858 7.3501 5.20001C7.3501 5.61423 7.68588 5.95001 8.1001 5.95001Z" stroke="#1C252E" stroke-miterlimit="10"/>
<path d="M12.05 6.75C12.4643 6.75 12.8 6.41421 12.8 6C12.8 5.58579 12.4643 5.25 12.05 5.25C11.6358 5.25 11.3 5.58579 11.3 6C11.3 6.41421 11.6358 6.75 12.05 6.75Z" stroke="#1C252E" stroke-miterlimit="10"/>
<path d="M15.8999 19.75C16.3141 19.75 16.6499 19.4142 16.6499 19C16.6499 18.5858 16.3141 18.25 15.8999 18.25C15.4857 18.25 15.1499 18.5858 15.1499 19C15.1499 19.4142 15.4857 19.75 15.8999 19.75Z" stroke="#1C252E" stroke-miterlimit="10"/>
<path d="M8.1001 19.75C8.51431 19.75 8.8501 19.4142 8.8501 19C8.8501 18.5858 8.51431 18.25 8.1001 18.25C7.68588 18.25 7.3501 18.5858 7.3501 19C7.3501 19.4142 7.68588 19.75 8.1001 19.75Z" stroke="#1C252E" stroke-miterlimit="10"/>
<path d="M12.05 18.95C12.4643 18.95 12.8 18.6142 12.8 18.2C12.8 17.7858 12.4643 17.45 12.05 17.45C11.6358 17.45 11.3 17.7858 11.3 18.2C11.3 18.6142 11.6358 18.95 12.05 18.95Z" stroke="#1C252E" stroke-miterlimit="10"/>
<path d="M8.5 13C9.05228 13 9.5 12.5523 9.5 12C9.5 11.4477 9.05228 11 8.5 11C7.94772 11 7.5 11.4477 7.5 12C7.5 12.5523 7.94772 13 8.5 13Z" stroke="#1C252E" stroke-miterlimit="10"/>
<path d="M10.25 16C10.8023 16 11.25 15.5523 11.25 15C11.25 14.4477 10.8023 14 10.25 14C9.69772 14 9.25 14.4477 9.25 15C9.25 15.5523 9.69772 16 10.25 16Z" stroke="#1C252E" stroke-miterlimit="10"/>
<path d="M14.75 15C14.75 14.4477 14.3023 14 13.75 14C13.1977 14 12.75 14.4477 12.75 15" stroke="#1C252E" stroke-miterlimit="10" stroke-linecap="round"/>
</svg>
