<svg width="24" height="24" viewBox="0 0 24 24" fill="none" xmlns="http://www.w3.org/2000/svg">
<path d="M3.5 8.10005C3.5 7.40005 3.9 6.80005 4.5 6.40005L11 2.60005C11.6 2.20005 12.4 2.20005 13 2.60005L19.5 6.40005C20.1 6.70005 20.5 7.40005 20.5 8.10005V15.8C20.5 16.5 20.1 17.1 19.5 17.5L13 21.3C12.4 21.7 11.6 21.7 11 21.3L4.5 17.5C3.9 17.2 3.5 16.5 3.5 15.8V13" stroke="#1C252E" stroke-width="1.5" stroke-miterlimit="10" stroke-linecap="round" stroke-linejoin="round"/>
<path d="M17 9L12 6L7 9L17 15L12 18L7 15" stroke="#1C252E" stroke-width="1.5" stroke-miterlimit="10" stroke-linecap="round" stroke-linejoin="round"/>
<path d="M11.5 10L9.5 12" stroke="#1C252E" stroke-width="1.5" stroke-miterlimit="10" stroke-linecap="round" stroke-linejoin="round"/>
<path d="M14.5 12L12.5 14" stroke="#1C252E" stroke-width="1.5" stroke-miterlimit="10" stroke-linecap="round" stroke-linejoin="round"/>
</svg>
