<svg width="24" height="24" viewBox="0 0 24 24" fill="none" xmlns="http://www.w3.org/2000/svg">
<path opacity="0.4" d="M19.5099 5.85L13.5699 2.42C12.5999 1.86 11.3999 1.86 10.4199 2.42L4.48992 5.85C3.51992 6.41 2.91992 7.45 2.91992 8.58V15.42C2.91992 16.54 3.51992 17.58 4.48992 18.15L10.4299 21.58C11.3999 22.14 12.5999 22.14 13.5799 21.58L19.5199 18.15C20.4899 17.59 21.0899 16.55 21.0899 15.42V8.58C21.0799 7.45 20.4799 6.42 19.5099 5.85Z" fill="#1C252E"/>
<path d="M11.9999 12.0001C13.2867 12.0001 14.3299 10.9569 14.3299 9.67004C14.3299 8.38322 13.2867 7.34009 11.9999 7.34009C10.7131 7.34009 9.66992 8.38322 9.66992 9.67004C9.66992 10.9569 10.7131 12.0001 11.9999 12.0001Z" fill="#1C252E"/>
<path d="M14.6802 16.66C15.4902 16.66 15.9602 15.7601 15.5102 15.0901C14.8302 14.0801 13.5102 13.4001 12.0002 13.4001C10.4902 13.4001 9.17016 14.0801 8.49016 15.0901C8.04016 15.7601 8.51016 16.66 9.32016 16.66H14.6802Z" fill="#1C252E"/>
</svg>
