<svg width="24" height="24" viewBox="0 0 24 24" fill="none" xmlns="http://www.w3.org/2000/svg">
<path d="M12 2C9.38 2 7.25 4.13 7.25 6.75C7.25 9.32 9.26 11.4 11.88 11.49C11.96 11.48 12.04 11.48 12.1 11.49C12.12 11.49 12.13 11.49 12.15 11.49C12.16 11.49 12.16 11.49 12.17 11.49C14.73 11.4 16.74 9.32 16.75 6.75C16.75 4.13 14.62 2 12 2Z" fill="#1C252E"/>
<path opacity="0.4" d="M17.08 14.15C14.29 12.29 9.73996 12.29 6.92996 14.15C5.65996 15 4.95996 16.15 4.95996 17.38C4.95996 18.61 5.65996 19.75 6.91996 20.59C8.31996 21.53 10.16 22 12 22C13.84 22 15.68 21.53 17.08 20.59C18.34 19.74 19.04 18.6 19.04 17.36C19.03 16.13 18.34 14.99 17.08 14.15Z" fill="#1C252E"/>
<path d="M14 16.6299H12.75V15.3799C12.75 14.9699 12.41 14.6299 12 14.6299C11.59 14.6299 11.25 14.9699 11.25 15.3799V16.6299H10C9.59 16.6299 9.25 16.9699 9.25 17.3799C9.25 17.7899 9.59 18.1299 10 18.1299H11.25V19.3799C11.25 19.7899 11.59 20.1299 12 20.1299C12.41 20.1299 12.75 19.7899 12.75 19.3799V18.1299H14C14.41 18.1299 14.75 17.7899 14.75 17.3799C14.75 16.9699 14.41 16.6299 14 16.6299Z" fill="#1C252E"/>
</svg>
