<svg width="24" height="24" viewBox="0 0 24 24" fill="none" xmlns="http://www.w3.org/2000/svg">
<path d="M12 2C9.38 2 7.25 4.13 7.25 6.75C7.25 9.32 9.26 11.4 11.88 11.49C11.96 11.48 12.04 11.48 12.1 11.49C12.12 11.49 12.13 11.49 12.15 11.49C12.16 11.49 12.16 11.49 12.17 11.49C14.73 11.4 16.74 9.32 16.75 6.75C16.75 4.13 14.62 2 12 2Z" fill="#1C252E"/>
<path opacity="0.4" d="M17.08 14.16C14.29 12.3 9.73996 12.3 6.92996 14.16C5.65996 15 4.95996 16.15 4.95996 17.38C4.95996 18.61 5.65996 19.75 6.91996 20.59C8.31996 21.53 10.16 22 12 22C13.84 22 15.68 21.53 17.08 20.59C18.34 19.74 19.04 18.6 19.04 17.36C19.03 16.14 18.34 14.99 17.08 14.16Z" fill="#1C252E"/>
<path d="M13.8302 18.0699H10.1802C9.80023 18.0699 9.49023 17.7599 9.49023 17.3799C9.49023 16.9999 9.80023 16.6899 10.1802 16.6899H13.8302C14.2102 16.6899 14.5202 16.9999 14.5202 17.3799C14.5102 17.7599 14.2102 18.0699 13.8302 18.0699Z" fill="#1C252E"/>
</svg>
