<svg width="24" height="24" viewBox="0 0 24 24" fill="none" xmlns="http://www.w3.org/2000/svg">
<path opacity="0.4" d="M18 2H6C4.34 2 3 3.33 3 4.97V15.88C3 17.52 4.34 18.86 6 18.86H6.76C7.55 18.86 8.32 19.17 8.88 19.73L10.59 21.42C11.37 22.19 12.63 22.19 13.41 21.42L15.12 19.73C15.68 19.17 16.45 18.86 17.24 18.86H18C19.66 18.86 21 17.52 21 15.88V4.97C21 3.33 19.66 2 18 2Z" fill="#1C252E"/>
<path d="M12.0004 5.55005C13.0804 5.55005 13.9504 6.43005 13.9504 7.50005C13.9504 8.56005 13.1104 9.41005 12.0704 9.45005C12.0304 9.45005 11.9704 9.45005 11.9204 9.45005C10.8704 9.41005 10.0404 8.56005 10.0404 7.50005C10.0504 6.43005 10.9204 5.55005 12.0004 5.55005ZM14.7504 14.69C13.2404 15.7 10.7604 15.7 9.25043 14.69C7.92043 13.81 7.92043 12.35 9.25043 11.46C10.7704 10.45 13.2504 10.45 14.7504 11.46C16.0804 12.35 16.0804 13.8 14.7504 14.69Z" fill="#1C252E"/>
</svg>
