<svg width="24" height="24" viewBox="0 0 24 24" fill="none" xmlns="http://www.w3.org/2000/svg">
<path opacity="0.4" d="M18 2H6C4.34 2 3 3.33 3 4.97V15.88C3 17.52 4.34 18.85 6 18.85H6.76C7.56 18.85 8.32 19.16 8.88 19.72L10.59 21.41C11.37 22.18 12.64 22.18 13.42 21.41L15.13 19.72C15.69 19.16 16.46 18.85 17.25 18.85H18C19.66 18.85 21 17.52 21 15.88V4.97C21 3.33 19.66 2 18 2Z" fill="#1C252E"/>
<path d="M11.9999 10.41C13.2868 10.41 14.33 9.36684 14.33 8.08002C14.33 6.79319 13.2868 5.75 11.9999 5.75C10.7131 5.75 9.66992 6.79319 9.66992 8.08002C9.66992 9.36684 10.7131 10.41 11.9999 10.41Z" fill="#1C252E"/>
<path d="M14.6802 15.06C15.4902 15.06 15.9602 14.16 15.5102 13.49C14.8302 12.48 13.5102 11.8 12.0002 11.8C10.4902 11.8 9.17016 12.48 8.49016 13.49C8.04016 14.16 8.51018 15.06 9.32018 15.06H14.6802Z" fill="#1C252E"/>
</svg>
