<svg width="24" height="24" viewBox="0 0 24 24" fill="none" xmlns="http://www.w3.org/2000/svg">
<path d="M12 12C14.7614 12 17 9.76142 17 7C17 4.23858 14.7614 2 12 2C9.23858 2 7 4.23858 7 7C7 9.76142 9.23858 12 12 12Z" fill="#1C252E"/>
<path d="M18.9502 14.0098C21.1316 14.0099 22.9003 15.7786 22.9004 17.96C22.9004 18.7811 22.6496 19.5439 22.2207 20.1758C22.2413 20.1924 22.2612 20.2104 22.2803 20.2295L23.2803 21.2295C23.5731 21.5223 23.573 21.9971 23.2803 22.29C22.9874 22.5829 22.5126 22.5829 22.2197 22.29L21.2197 21.29C21.2006 21.2709 21.1826 21.251 21.166 21.2305C20.5341 21.6595 19.7714 21.9101 18.9502 21.9102C16.7687 21.9102 15.0001 20.1414 15 17.96C15.0001 15.7785 16.7688 14.0098 18.9502 14.0098ZM18.9502 15.5098C17.5972 15.5098 16.5001 16.607 16.5 17.96C16.5001 19.313 17.5972 20.4102 18.9502 20.4102C20.3031 20.4101 21.4003 19.3129 21.4004 17.96C21.4003 16.607 20.3031 15.5099 18.9502 15.5098Z" fill="#1C252E"/>
<path opacity="0.4" d="M12 14.5C13.4514 14.5 14.8242 14.7839 16.043 15.2852C15.3953 15.9888 15.0001 16.9284 15 17.96C15.0001 20.1414 16.7687 21.9102 18.9502 21.9102C19.7221 21.9101 20.4404 21.6856 21.0488 21.3027C21.0746 21.5324 21.0898 21.7648 21.0898 22C21.0898 22.28 20.8698 22.5 20.5898 22.5H3.41016C3.13016 22.5 2.91016 22.28 2.91016 22C2.91016 17.8601 6.99008 14.5001 12 14.5Z" fill="#1C252E"/>
</svg>
