<svg width="24" height="24" viewBox="0 0 24 24" fill="none" xmlns="http://www.w3.org/2000/svg">
<path opacity="0.4" d="M21.74 11.7178C21.13 9.71784 19.61 8.27784 17.7 7.84784C17.14 5.34784 15.6 3.55784 13.42 2.87784C11.04 2.14784 8.28 2.85784 6.55 4.66784C5.02 6.25784 4.52 8.44784 5.11 10.7778C2.98 11.2978 2 13.1578 2 14.8378C2 16.7178 3.23 18.8278 5.97 19.0178H8.5V16.3878C8.5 15.1178 9.26 14.3578 10.53 14.3578H13.47C14.74 14.3578 15.5 15.1178 15.5 16.3878V19.0178H16.31C16.32 19.0178 16.34 19.0178 16.35 19.0178C17.77 19.0178 19.13 18.4878 20.17 17.5378C21.8 16.1178 22.4 13.8878 21.74 11.7178Z" fill="#1C252E"/>
<path d="M13.47 14.39H10.53C9.26 14.39 8.5 15.15 8.5 16.42V19.36C8.5 20.63 9.26 21.39 10.53 21.39H13.47C14.74 21.39 15.5 20.63 15.5 19.36V16.42C15.5 15.15 14.74 14.39 13.47 14.39ZM13.97 18.94C14.22 19.19 14.22 19.6 13.97 19.85C13.84 19.97 13.68 20.03 13.51 20.03C13.35 20.03 13.19 19.97 13.06 19.85L12 18.79L10.95 19.85C10.82 19.97 10.66 20.03 10.49 20.03C10.33 20.03 10.17 19.97 10.04 19.85C9.79 19.6 9.79 19.19 10.04 18.94L11.1 17.88L10.04 16.83C9.79 16.58 9.79 16.17 10.04 15.92C10.29 15.67 10.7 15.67 10.95 15.92L12 16.98L13.06 15.92C13.31 15.67 13.72 15.67 13.97 15.92C14.22 16.17 14.22 16.58 13.97 16.83L12.91 17.88L13.97 18.94Z" fill="#1C252E"/>
</svg>
