<svg width="24" height="24" viewBox="0 0 24 24" fill="none" xmlns="http://www.w3.org/2000/svg">
<path opacity="0.4" d="M20.6098 10.83C19.8398 9.91002 18.8498 9.31002 17.6998 9.05002C17.4398 7.89002 16.9898 6.89002 16.3298 6.06002C16.3098 6.03002 16.2898 6.00002 16.2698 5.98002C14.0698 3.32002 10.4698 3.33002 8.03977 4.71002C5.95977 5.90002 4.18977 8.41002 5.11977 11.99C2.98977 12.51 2.00977 14.37 2.00977 16.05C2.00977 17.93 3.23977 20.04 5.97977 20.24H16.3198C16.3298 20.24 16.3498 20.24 16.3598 20.24C17.7798 20.24 19.1398 19.71 20.1898 18.75C22.6998 16.53 22.3698 12.91 20.6098 10.83Z" fill="#1C252E"/>
<path d="M21.7609 8.74001C21.7609 9.64001 21.4409 10.5 20.8609 11.16C20.7909 11.05 20.7009 10.94 20.6109 10.83C19.8509 9.92001 18.8509 9.30001 17.7009 9.05001C17.4509 7.89001 16.9909 6.90001 16.3309 6.07001C16.3209 6.04001 16.2909 6.01001 16.2709 5.99001C16.1709 5.87001 16.0609 5.76001 15.9609 5.65001C16.5709 5.23001 17.2709 5.01001 18.0309 5.01001C20.0909 5.01001 21.7609 6.68001 21.7609 8.74001Z" fill="#1C252E"/>
</svg>
