<svg width="24" height="24" viewBox="0 0 24 24" fill="none" xmlns="http://www.w3.org/2000/svg">
<path opacity="0.4" d="M21.74 11.7178C21.13 9.71784 19.61 8.27784 17.7 7.84784C17.14 5.34784 15.6 3.55784 13.42 2.87784C11.04 2.14784 8.28 2.85784 6.55 4.66784C5.02 6.25784 4.52 8.44784 5.11 10.7778C2.98 11.2978 2 13.1578 2 14.8378C2 16.7178 3.23 18.8278 5.97 19.0178H8.5V16.3878C8.5 15.1178 9.26 14.3578 10.53 14.3578H13.47C14.74 14.3578 15.5 15.1178 15.5 16.3878V19.0178H16.31C16.32 19.0178 16.34 19.0178 16.35 19.0178C17.77 19.0178 19.13 18.4878 20.17 17.5378C21.8 16.1178 22.4 13.8878 21.74 11.7178Z" fill="#1C252E"/>
<path d="M13.47 14.39H10.53C9.26 14.39 8.5 15.15 8.5 16.42V19.36C8.5 20.63 9.26 21.39 10.53 21.39H13.47C14.74 21.39 15.5 20.63 15.5 19.36V16.42C15.5 15.15 14.74 14.39 13.47 14.39ZM13.67 18.05L12 19.95L11.8 20.18C11.53 20.49 11.3 20.41 11.3 19.99V18.21H10.54C10.19 18.21 10.1 18 10.33 17.74L12 15.84L12.2 15.61C12.47 15.3 12.7 15.38 12.7 15.8V17.58H13.46C13.81 17.57 13.9 17.79 13.67 18.05Z" fill="#1C252E"/>
</svg>
