<svg width="24" height="24" viewBox="0 0 24 24" fill="none" xmlns="http://www.w3.org/2000/svg">
<path opacity="0.4" d="M21.74 11.7179C21.13 9.71787 19.61 8.27787 17.7 7.84787C17.14 5.34787 15.6 3.55787 13.42 2.87787C11.04 2.14787 8.28 2.85787 6.55 4.66787C5.02 6.25787 4.52 8.44787 5.11 10.7779C2.98 11.2979 2 13.1579 2 14.8379C2 16.7179 3.23 18.8279 5.97 19.0179H8.5V16.3879C8.5 15.1179 9.26 14.3579 10.53 14.3579H13.47C14.74 14.3579 15.5 15.1179 15.5 16.3879V19.0179H16.31C16.32 19.0179 16.34 19.0179 16.35 19.0179C17.77 19.0179 19.13 18.4879 20.17 17.5379C21.8 16.1179 22.4 13.8879 21.74 11.7179Z" fill="#1C252E"/>
<path d="M13.47 14.39H10.53C9.26 14.39 8.5 15.15 8.5 16.42V19.36C8.5 20.63 9.26 21.39 10.53 21.39H13.47C14.74 21.39 15.5 20.63 15.5 19.36V16.42C15.5 15.15 14.74 14.39 13.47 14.39ZM13.71 18.46H10.3C9.94 18.46 9.65 18.17 9.65 17.81C9.65 17.46 9.94 17.17 10.3 17.17H13.72C14.07 17.17 14.36 17.46 14.36 17.81C14.35 18.18 14.06 18.46 13.71 18.46Z" fill="#1C252E"/>
</svg>
