<svg width="24" height="24" viewBox="0 0 24 24" fill="none" xmlns="http://www.w3.org/2000/svg">
<path d="M9.73031 18.5068C9.98609 18.1812 10.4574 18.1244 10.783 18.3798C10.9093 18.479 11.0319 18.5674 11.1903 18.6835H11.1912C12.2903 19.4838 13.3917 20.1145 14.4842 20.58C15.5588 21.0379 16.5487 21.2499 17.45 21.2499C18.0548 21.2499 18.607 21.1382 19.1121 20.9277L19.1161 20.9257C19.6106 20.7229 20.0605 20.4033 20.4842 19.9365L20.6522 19.7372C20.8096 19.5346 20.9366 19.3224 21.0418 19.0995C21.1653 18.8381 21.2205 18.5775 21.2205 18.33C21.2205 18.1701 21.1879 18.0199 21.12 17.8456C21.0733 17.7427 20.9929 17.6371 20.8328 17.5263L20.826 17.5214L17.5282 15.1796C17.3064 15.0289 17.1235 14.9284 16.9666 14.8642C16.8246 14.8061 16.7205 14.79 16.6405 14.79C16.5443 14.79 16.4473 14.8132 16.3202 14.8906C16.3061 14.8991 16.2918 14.9074 16.2772 14.915C16.1391 14.987 15.9597 15.1211 15.7401 15.3408L15.7371 15.3437L14.9774 16.0937C14.7349 16.3347 14.4177 16.4804 14.0399 16.4804C13.892 16.4804 13.7165 16.4634 13.5272 16.3925C13.5165 16.3885 13.5054 16.3843 13.495 16.3798C13.4496 16.3604 13.407 16.3406 13.3797 16.3281C13.3482 16.3136 13.3371 16.3087 13.3319 16.3066C13.3077 16.2969 13.2836 16.2855 13.2606 16.2734C13.0289 16.1514 12.7755 15.9886 12.5106 15.79C12.1792 15.5415 12.1118 15.0715 12.3602 14.7402C12.6087 14.4089 13.0786 14.3414 13.41 14.5898C13.6211 14.7481 13.8052 14.8634 13.952 14.9413C13.9663 14.9477 13.9796 14.9537 13.9911 14.9589L14.6795 14.2792C14.947 14.0118 15.2346 13.7773 15.5399 13.6103C15.8727 13.4077 16.2367 13.29 16.6405 13.29C16.9402 13.29 17.2364 13.3538 17.534 13.4755C17.7463 13.5624 17.9555 13.6737 18.1639 13.8036L18.3719 13.9394L18.3846 13.9482L21.6864 16.2929C21.9983 16.5088 22.2519 16.7757 22.4266 17.1035L22.4969 17.248L22.5067 17.2714C22.6341 17.5899 22.7205 17.9352 22.7205 18.33C22.7205 18.8025 22.6148 19.2816 22.3983 19.7402C22.1985 20.1632 21.9379 20.5655 21.5955 20.9433V20.9443C21.0395 21.557 20.4094 22.0173 19.6844 22.3144L19.6834 22.3134C18.9899 22.6016 18.2434 22.7499 17.45 22.7499C16.3115 22.7499 15.1215 22.4819 13.8963 21.9599C12.6888 21.4454 11.4893 20.7562 10.3084 19.8964L10.3065 19.8945C10.1664 19.7918 10.0101 19.6795 9.85726 19.5595C9.53161 19.3036 9.47454 18.8325 9.73031 18.5068Z" fill="#1C252E"/>
<path d="M1.25 6.54004C1.25 5.77234 1.38617 5.0285 1.66309 4.33496H1.66211C1.94316 3.62081 2.38423 2.97349 2.9834 2.40527C3.73656 1.66388 4.61803 1.25004 5.58984 1.25C5.97487 1.25 6.36692 1.33222 6.72461 1.50391L6.72363 1.50488C7.0886 1.67522 7.42132 1.93411 7.68066 2.30566H7.68164L9.99805 5.57129C10.2052 5.85898 10.3678 6.14076 10.4844 6.42578H10.4834C10.6001 6.70121 10.6797 7.0087 10.6797 7.32031C10.6796 7.70309 10.5684 8.06844 10.3721 8.39844C10.2002 8.70255 9.96441 8.99653 9.69043 9.27051L9.68945 9.26953L9.00684 9.98047C9.01208 9.99287 9.01711 10.0093 9.02441 10.0273C9.17245 10.2913 9.44019 10.6679 9.85254 11.1553H9.85156C10.2925 11.6646 10.7609 12.1799 11.2656 12.6943C11.5557 12.99 11.5505 13.4648 11.2549 13.7549C10.9592 14.045 10.4844 14.0408 10.1943 13.7451C9.66103 13.2015 9.17045 12.6596 8.71289 12.1309L8.70703 12.124C8.25395 11.5885 7.90679 11.1136 7.69141 10.7188C7.6703 10.68 7.65265 10.6395 7.63867 10.5977C7.63866 10.5977 7.63604 10.5903 7.62305 10.5596C7.61102 10.5311 7.58888 10.4811 7.56738 10.4238C7.55739 10.3972 7.54889 10.3694 7.54199 10.3418C7.50971 10.2126 7.49023 10.0807 7.49023 9.92969C7.4903 9.59236 7.60431 9.27017 7.85938 9.00977L8.61914 8.21973C8.62248 8.21625 8.62648 8.21337 8.62988 8.20996C8.8359 8.00394 8.97927 7.81702 9.06738 7.66113L9.0791 7.63965C9.15472 7.51536 9.17963 7.40924 9.17969 7.32031C9.17969 7.25612 9.16124 7.14748 9.10059 7.00586L9.0957 6.99414C9.03232 6.83921 8.93408 6.6605 8.78125 6.44824L8.77832 6.44434L6.45801 3.17383L6.45312 3.16699C6.35566 3.02623 6.23435 2.92989 6.08594 2.86133L6.0752 2.85645C5.9329 2.78816 5.76478 2.75 5.58984 2.75C5.08176 2.75004 4.56287 2.9561 4.03613 3.47461C4.03237 3.47831 4.02826 3.48173 4.02441 3.48535C3.56968 3.91436 3.25475 4.38373 3.05762 4.88477L3.05664 4.88867C2.85443 5.39421 2.75 5.94893 2.75 6.54004C2.75001 7.46233 2.96243 8.45252 3.41016 9.5166C3.86424 10.5856 4.49379 11.6763 5.28613 12.7783C6.093 13.8866 6.9986 14.9478 8.00293 15.9619C8.29429 16.2561 8.292 16.731 7.99805 17.0225C7.70378 17.3139 7.22898 17.3118 6.9375 17.0176C5.88189 15.9517 4.92634 14.8329 4.07324 13.6611L4.07129 13.6582C3.22492 12.4815 2.5347 11.2933 2.0293 10.1035L2.02832 10.1006C1.5169 8.88579 1.25001 7.69686 1.25 6.54004Z" fill="#1C252E"/>
<path d="M21.4697 1.46973C21.7626 1.17684 22.2373 1.17684 22.5302 1.46973C22.8231 1.76262 22.8231 2.23738 22.5302 2.53028L2.53022 22.5303C2.23732 22.8232 1.76256 22.8232 1.46967 22.5303C1.17678 22.2374 1.17678 21.7626 1.46967 21.4697L21.4697 1.46973Z" fill="#1C252E"/>
</svg>
