<svg width="24" height="24" viewBox="0 0 24 24" fill="none" xmlns="http://www.w3.org/2000/svg">
<path d="M2 7.42993V13.4299C2 13.8799 2.04 14.31 2.13 14.71C2.86 13.96 3.88 13.4999 5 13.4999C6.18 13.4999 7.25 14.01 7.97 14.83C8.61 15.54 9 16.4799 9 17.4999C9 17.8199 8.96 18.1299 8.88 18.4299H11L15.45 21.4C16.11 21.84 17 21.3599 17 20.5599V18.4299C18.5 18.4299 19.75 17.9299 20.62 17.0599C21.5 16.1799 22 14.9299 22 13.4299V7.42993C22 4.42993 20 2.42993 17 2.42993H7" stroke="#1C252E" stroke-width="1.5" stroke-miterlimit="10" stroke-linecap="round" stroke-linejoin="round"/>
<path d="M9 17.5C9 18.7 8.47001 19.77 7.64001 20.5C6.93001 21.12 6.01 21.5 5 21.5C2.79 21.5 1 19.71 1 17.5C1 16.24 1.58 15.11 2.5 14.38C3.19 13.83 4.06 13.5 5 13.5C7.21 13.5 9 15.29 9 17.5Z" stroke="#1C252E" stroke-width="1.5" stroke-miterlimit="10" stroke-linecap="round" stroke-linejoin="round"/>
<path d="M5.25 16.25V17.75L4 18.5" stroke="#1C252E" stroke-width="1.5" stroke-miterlimit="10" stroke-linecap="round" stroke-linejoin="round"/>
<path d="M8.5 10.5H15.5" stroke="#1C252E" stroke-width="1.5" stroke-miterlimit="10" stroke-linecap="round" stroke-linejoin="round"/>
</svg>
