<svg width="24" height="24" viewBox="0 0 24 24" fill="none" xmlns="http://www.w3.org/2000/svg">
<path d="M13.1698 2C8.28985 2 4.33984 5.68999 4.33984 10.24C4.33984 10.5 4.34985 10.75 4.37985 11C5.26985 10.42 6.33985 10.09 7.49985 10.09C10.5398 10.09 12.9998 12.39 12.9998 15.23C12.9998 16.42 12.5599 17.52 11.8199 18.39C12.2599 18.45 12.7098 18.48 13.1698 18.48L17.3598 20.97C18.0698 21.4 18.9598 20.82 18.8598 19.99L18.4698 16.83C20.6098 15.33 21.9998 12.94 21.9998 10.24C21.9998 7.60063 20.6707 5.25065 18.6019 3.74245" stroke="#1C252E" stroke-width="1.5" stroke-linecap="round" stroke-linejoin="round"/>
<path d="M2 15.23C2 16.91 2.86 18.4001 4.2 19.3301L3.95 21.3C3.89 21.81 4.45 22.18 4.89 21.91L7.5 20.36C9.26 20.36 10.83 19.5901 11.82 18.3901C12.56 17.5201 13 16.42 13 15.23C13 12.39 10.54 10.0901 7.5 10.0901C6.34 10.0901 5.27 10.4201 4.38 11.0001" stroke="#1C252E" stroke-width="1.5" stroke-linecap="round" stroke-linejoin="round"/>
</svg>
