<svg width="24" height="24" viewBox="0 0 24 24" fill="none" xmlns="http://www.w3.org/2000/svg">
<path d="M2 7.42993V13.4299C2 13.8799 2.04 14.31 2.13 14.71C2.86 13.96 3.88 13.4999 5 13.4999C6.18 13.4999 7.25 14.01 7.97 14.83C8.61 15.54 9 16.4799 9 17.4999C9 17.8199 8.96 18.1299 8.88 18.4299H11L15.45 21.4C16.11 21.84 17 21.3599 17 20.5599V18.4299C18.5 18.4299 19.75 17.9299 20.62 17.0599C21.5 16.1799 22 14.9299 22 13.4299V7.42993C22 4.42993 20 2.42993 17 2.42993H7" stroke="#1C252E" stroke-width="1.5" stroke-miterlimit="10" stroke-linecap="round" stroke-linejoin="round"/>
<path d="M9 17.5C9 18.25 8.79001 18.96 8.42001 19.56C8.21001 19.92 7.94 20.24 7.63 20.5C6.93 21.13 6.01 21.5 5 21.5C3.54 21.5 2.26999 20.72 1.57999 19.56C1.20999 18.96 1 18.25 1 17.5C1 16.24 1.58 15.11 2.5 14.38C3.19 13.83 4.06 13.5 5 13.5C7.21 13.5 9 15.29 9 17.5Z" stroke="#1C252E" stroke-width="1.5" stroke-miterlimit="10" stroke-linecap="round" stroke-linejoin="round"/>
<path d="M3.44043 17.5L4.43042 18.49L6.56042 16.52" stroke="#1C252E" stroke-width="1.5" stroke-linecap="round" stroke-linejoin="round"/>
<path d="M8.5 10.5H15.5" stroke="#1C252E" stroke-width="1.5" stroke-miterlimit="10" stroke-linecap="round" stroke-linejoin="round"/>
</svg>
