<svg width="24" height="24" viewBox="0 0 24 24" fill="none" xmlns="http://www.w3.org/2000/svg">
<path d="M1.98047 13H5.77047C6.53047 13 7.22047 13.43 7.56047 14.11L8.45047 15.9C9.00047 17 10.0005 17 10.2405 17H13.7705C14.5305 17 15.2205 16.57 15.5605 15.89L16.4505 14.1C16.7905 13.42 17.4805 12.99 18.2405 12.99H21.9805" stroke="#1C252E" stroke-width="1.5" stroke-linecap="round" stroke-linejoin="round"/>
<path d="M22 5C22 6.65685 20.6569 8 19 8C17.3431 8 16 6.65685 16 5C16 3.34315 17.3431 2 19 2" stroke="#1C252E" stroke-width="1.5" stroke-linecap="round" stroke-linejoin="round"/>
<path d="M14 2H9C4 2 2 4 2 9V15C2 16.298 2.13479 17.3938 2.42186 18.305M22 10V15C22 20 20 22 15 22H9C7.72626 22 6.64721 21.8702 5.74631 21.5941" stroke="#1C252E" stroke-width="1.5" stroke-linecap="round" stroke-linejoin="round"/>
</svg>
