<svg width="24" height="24" viewBox="0 0 24 24" fill="none" xmlns="http://www.w3.org/2000/svg">
<path d="M2 7.42993V13.4299C2 13.8799 2.04 14.31 2.13 14.71C2.86 13.96 3.88 13.4999 5 13.4999C6.18 13.4999 7.25 14.01 7.97 14.83C8.61 15.54 9 16.4799 9 17.4999C9 17.8199 8.96 18.1299 8.88 18.4299H11L15.45 21.4C16.11 21.84 17 21.3599 17 20.5599V18.4299C18.5 18.4299 19.75 17.9299 20.62 17.0599C21.5 16.1799 22 14.9299 22 13.4299V7.42993C22 4.42993 20 2.42993 17 2.42993H7" stroke="#1C252E" stroke-width="1.5" stroke-miterlimit="10" stroke-linecap="round" stroke-linejoin="round"/>
<path d="M9 17.5C9 17.82 8.96 18.13 8.88 18.43C8.79 18.83 8.63001 19.22 8.42001 19.56C7.73001 20.72 6.46 21.5 5 21.5C3.97 21.5 3.04 21.11 2.34 20.47C2.04 20.21 1.77999 19.9 1.57999 19.56C1.20999 18.96 1 18.25 1 17.5C1 16.42 1.43 15.43 2.13 14.71C2.86 13.96 3.88 13.5 5 13.5C6.18 13.5 7.25 14.01 7.97 14.83C8.61 15.54 9 16.48 9 17.5Z" stroke="#1C252E" stroke-width="1.5" stroke-miterlimit="10" stroke-linecap="round" stroke-linejoin="round"/>
<path d="M6.06921 18.5399L3.94922 16.4299" stroke="#1C252E" stroke-width="1.5" stroke-miterlimit="10" stroke-linecap="round" stroke-linejoin="round"/>
<path d="M6.04968 16.46L3.92969 18.5699" stroke="#1C252E" stroke-width="1.5" stroke-miterlimit="10" stroke-linecap="round" stroke-linejoin="round"/>
<path d="M8.5 10.5H15.5" stroke="#1C252E" stroke-width="1.5" stroke-miterlimit="10" stroke-linecap="round" stroke-linejoin="round"/>
</svg>
