<svg width="24" height="24" viewBox="0 0 24 24" fill="none" xmlns="http://www.w3.org/2000/svg">
<path d="M22 6.25C22 3.7 20.3 2 17.75 2H9.25C6.7 2 5 3.7 5 6.25V9.02002C5.13 9.01002 5.25999 9 5.39999 9H12.19C14.23 9 15.59 10.36 15.59 12.4V16.47C15.59 16.83 15.55 17.17 15.46 17.48L16.43 18.12C16.99 18.5 17.75 18.09 17.75 17.41V15.6C19.02 15.6 20.09 15.18 20.83 14.43C21.58 13.69 22 12.62 22 11.35" stroke="#1C252E" stroke-width="1.5" stroke-miterlimit="10" stroke-linecap="round" stroke-linejoin="round"/>
<path d="M2 16.47C2 17.49 2.34 18.34 2.94 18.94C3.53 19.53 4.37999 19.87 5.39999 19.87V21.32C5.39999 21.86 6 22.19 6.45 21.88L9.47 19.87H12.19C13.87 19.87 15.09 18.95 15.46 17.48C15.55 17.17 15.59 16.83 15.59 16.47V12.4C15.59 10.36 14.23 9 12.19 9H5.39999C5.25999 9 5.13 9.01002 5 9.02002C3.18 9.19002 2 10.5 2 12.4" stroke="#1C252E" stroke-width="1.5" stroke-miterlimit="10" stroke-linecap="round" stroke-linejoin="round"/>
</svg>
