<svg width="24" height="24" viewBox="0 0 24 24" fill="none" xmlns="http://www.w3.org/2000/svg">
<path d="M12 2V8L14 6" stroke="#1C252E" stroke-width="1.5" stroke-linecap="round" stroke-linejoin="round"/>
<path d="M12 8L10 6" stroke="#1C252E" stroke-width="1.5" stroke-linecap="round" stroke-linejoin="round"/>
<path d="M3 17V16C3 13.79 3 12 7 12C8 12 8.28 12.21 8.8 12.6L9.81 13.68C11 14.94 13 14.94 14.18 13.68L15.2 12.6C15.72 12.21 16 12 17 12C21 12 21 13.79 21 16V17C21 19.76 20 22 16 22H8C7.43952 22 6.94187 21.9719 6.5 21.918" stroke="#1C252E" stroke-width="1.5" stroke-miterlimit="10" stroke-linecap="round" stroke-linejoin="round"/>
<path d="M5 12V8.00001C5 5.99001 5 4.33001 8 4.04001" stroke="#1C252E" stroke-width="1.5" stroke-miterlimit="10" stroke-linecap="round" stroke-linejoin="round"/>
<path d="M19 12V8.00001C19 5.99001 19 4.33001 16 4.04001" stroke="#1C252E" stroke-width="1.5" stroke-miterlimit="10" stroke-linecap="round" stroke-linejoin="round"/>
</svg>
