<svg width="24" height="24" viewBox="0 0 24 24" fill="none" xmlns="http://www.w3.org/2000/svg">
<path d="M9.5 2C12.52 2 15.13 3.67001 16.3 6.07001C16.75 6.96001 17 7.95 17 9C17 12.87 13.64 16 9.5 16L8.57001 17.12L8.02 17.78C7.55 18.34 6.65 18.22 6.34 17.55L5 14.6C3.18 13.32 2 11.29 2 9C2 7.2167 2.71345 5.59054 3.88791 4.35535" stroke="#1C252E" stroke-width="1.5" stroke-linecap="round" stroke-linejoin="round"/>
<path d="M21.6446 10.7281C20.8561 8.43261 18.8295 6.65015 16.3003 6.07007C16.7503 6.96007 17.0003 7.95006 17.0003 9.00006C17.0003 12.8701 13.6403 16.0001 9.50031 16.0001L8.57031 17.1201C9.92031 18.7901 12.0803 19.86 14.5003 19.86L15.9803 21.6401C16.4503 22.2101 17.3503 22.08 17.6603 21.41L19.0003 18.4601C19.9226 17.8114 20.6806 16.9702 21.2039 16.0001" stroke="#1C252E" stroke-width="1.5" stroke-linecap="round" stroke-linejoin="round"/>
<path d="M7 9H12" stroke="#1C252E" stroke-width="1.5" stroke-linecap="round" stroke-linejoin="round"/>
</svg>
