<svg width="24" height="24" viewBox="0 0 24 24" fill="none" xmlns="http://www.w3.org/2000/svg">
<path d="M2 14.79C2 18.79 3.60001 19.58 6.79001 19.58H7.19C7.41 19.58 7.69999 19.73 7.82999 19.9L9.03 21.5C9.56 22.21 10.42 22.21 10.95 21.5L12.15 19.9C12.3 19.7 12.54 19.58 12.79 19.58H13.19C16.12 19.58 17.71 18.24 17.94 15.54C17.97 15.3 17.98 15.05 17.98 14.79V10.79C17.98 7.60001 16.38 6 13.19 6H6.79001C6.53001 6 6.28001 6.01001 6.04001 6.04001C3.35001 6.27001 2 7.86001 2 10.79" stroke="#1C252E" stroke-width="1.5" stroke-miterlimit="10" stroke-linecap="round" stroke-linejoin="round"/>
<path d="M18.7987 2.16457C18.3171 2.05488 17.7808 2 17.19 2H10.79C7.86004 2 6.27004 3.35001 6.04004 6.04001C6.28004 6.01001 6.53004 6 6.79004 6H13.19C16.38 6 17.98 7.60001 17.98 10.79V14.79C17.98 15.05 17.97 15.3 17.94 15.54C20.63 15.31 21.98 13.73 21.98 10.79V6.79001C21.98 6.124 21.9103 5.5273 21.7709 5" stroke="#1C252E" stroke-width="1.5" stroke-miterlimit="10" stroke-linecap="round" stroke-linejoin="round"/>
<path d="M13.4951 13.25H13.5041" stroke="#1C252E" stroke-width="2" stroke-linecap="round" stroke-linejoin="round"/>
<path d="M9.99512 13.25H10.0041" stroke="#1C252E" stroke-width="2" stroke-linecap="round" stroke-linejoin="round"/>
<path d="M6.49512 13.25H6.50412" stroke="#1C252E" stroke-width="2" stroke-linecap="round" stroke-linejoin="round"/>
</svg>
