<svg width="24" height="24" viewBox="0 0 24 24" fill="none" xmlns="http://www.w3.org/2000/svg">
<path d="M12 2V9L14 7" stroke="#1C252E" stroke-width="1.5" stroke-linecap="round" stroke-linejoin="round"/>
<path d="M12 9L10 7" stroke="#1C252E" stroke-width="1.5" stroke-linecap="round" stroke-linejoin="round"/>
<path d="M1.98047 13H6.39047C6.77047 13 7.11047 13.21 7.28047 13.55L8.45047 15.89C8.79047 16.57 9.48047 17 10.2405 17H13.7705C14.5305 17 15.2205 16.57 15.5605 15.89L16.7305 13.55C16.9005 13.21 17.2505 13 17.6205 13H21.9805" stroke="#1C252E" stroke-width="1.5" stroke-linecap="round" stroke-linejoin="round"/>
<path d="M7 4.13C3.46 4.65 2 6.73 2 11V15C2 15.9364 2.07014 16.7675 2.21699 17.5M17 4.13C20.54 4.65 22 6.73 22 11V15C22 20 20 22 15 22H9C7.7441 22 6.67748 21.8738 5.78428 21.6056" stroke="#1C252E" stroke-width="1.5" stroke-linecap="round" stroke-linejoin="round"/>
</svg>
