<svg width="24" height="24" viewBox="0 0 24 24" fill="none" xmlns="http://www.w3.org/2000/svg">
<path d="M2 13C2 18 4 19 8 19H8.5C8.77 19 9.14 19.18 9.3 19.4L10.8 21.4C11.46 22.28 12.54 22.28 13.2 21.4L14.7 19.4C14.89 19.15 15.19 19 15.5 19H16C20 19 22 17 22 13V8C22 4 20 2 16 2H8C4 2 2 4 2 8" stroke="#1C252E" stroke-width="1.5" stroke-miterlimit="10" stroke-linecap="round" stroke-linejoin="round"/>
<path d="M15.9961 11H16.0051" stroke="#1C252E" stroke-width="2" stroke-linecap="round" stroke-linejoin="round"/>
<path d="M11.9951 11H12.0041" stroke="#1C252E" stroke-width="2" stroke-linecap="round" stroke-linejoin="round"/>
<path d="M7.99414 11H8.00312" stroke="#1C252E" stroke-width="2" stroke-linecap="round" stroke-linejoin="round"/>
</svg>
