<svg width="24" height="24" viewBox="0 0 24 24" fill="none" xmlns="http://www.w3.org/2000/svg">
<path opacity="0.4" d="M16.1894 8.85999C15.7994 8.85999 15.4894 8.54999 15.4894 8.15999V6.87999C15.4894 5.89999 15.0694 4.95999 14.3494 4.29999C13.6094 3.62999 12.6594 3.31999 11.6594 3.40999C9.97937 3.56999 8.50938 5.27999 8.50938 7.05999V7.95999C8.50938 8.34999 8.19937 8.65999 7.80937 8.65999C7.41937 8.65999 7.10938 8.34999 7.10938 7.95999V7.05999C7.10938 4.55999 9.12938 2.24999 11.5194 2.01999C12.9094 1.88999 14.2494 2.32999 15.2794 3.26999C16.2994 4.18999 16.8794 5.50999 16.8794 6.87999V8.15999C16.8794 8.54999 16.5694 8.85999 16.1894 8.85999Z" fill="#1C252E"/>
<path d="M19.9597 8.95999C19.1197 8.02999 17.7397 7.57999 15.7197 7.57999H8.27975C6.25975 7.57999 4.87975 8.02999 4.03975 8.95999C3.06975 10.04 3.09975 11.48 3.20975 12.48L3.90975 18.05C4.11975 20 4.90975 22 9.20975 22H14.7897C19.0897 22 19.8797 20 20.0897 18.06L20.7897 12.47C20.8997 11.48 20.9297 10.04 19.9597 8.95999ZM11.9997 18.58C9.90975 18.58 8.20975 16.88 8.20975 14.79C8.20975 12.7 9.90975 11 11.9997 11C14.0897 11 15.7897 12.7 15.7897 14.79C15.7897 16.88 14.0897 18.58 11.9997 18.58Z" fill="#1C252E"/>
<path opacity="0.4" d="M15.7909 14.79C15.7909 16.88 14.0909 18.58 12.0009 18.58C9.91094 18.58 8.21094 16.88 8.21094 14.79C8.21094 12.7 9.91094 11 12.0009 11C14.0909 11 15.7909 12.7 15.7909 14.79Z" fill="#1C252E"/>
<path d="M10.9999 16.58C10.7499 16.58 10.4999 16.45 10.3599 16.22C10.1499 15.87 10.2599 15.4 10.6199 15.19L11.5099 14.66V13.58C11.5099 13.17 11.8499 12.83 12.2599 12.83C12.6699 12.83 12.9999 13.16 12.9999 13.58V15.08C12.9999 15.34 12.8599 15.59 12.6399 15.72L11.3899 16.47C11.2699 16.54 11.1299 16.58 10.9999 16.58Z" fill="#1C252E"/>
</svg>
