<svg width="24" height="24" viewBox="0 0 24 24" fill="none" xmlns="http://www.w3.org/2000/svg">
<path opacity="0.4" d="M19.24 5.58H18.84L15.46 2.2C15.19 1.93 14.75 1.93 14.47 2.2C14.2 2.47 14.2 2.91 14.47 3.19L16.86 5.58H7.14L9.53 3.19C9.8 2.92 9.8 2.48 9.53 2.2C9.26 1.93 8.82 1.93 8.54 2.2L5.17 5.58H4.77C3.87 5.58 2 5.58 2 8.14C2 9.11 2.2 9.75 2.62 10.17C2.86 10.42 3.15 10.55 3.46 10.62C3.75 10.69 4.06 10.7 4.36 10.7H19.64C19.95 10.7 20.24 10.68 20.52 10.62C21.36 10.42 22 9.82 22 8.14C22 5.58 20.13 5.58 19.24 5.58Z" fill="#1C252E"/>
<path d="M19.6509 10.7H4.36094C4.07094 10.7 3.75094 10.69 3.46094 10.61L4.72094 18.3C5.00094 20.02 5.75094 22 9.08094 22H14.6909C18.0609 22 18.6609 20.31 19.0209 18.42L20.5309 10.61C20.2509 10.68 19.9509 10.7 19.6509 10.7ZM12.0009 18.5C9.66094 18.5 7.75094 16.59 7.75094 14.25C7.75094 13.84 8.09094 13.5 8.50094 13.5C8.91094 13.5 9.25094 13.84 9.25094 14.25C9.25094 15.77 10.4809 17 12.0009 17C13.5209 17 14.7509 15.77 14.7509 14.25C14.7509 13.84 15.0909 13.5 15.5009 13.5C15.9109 13.5 16.2509 13.84 16.2509 14.25C16.2509 16.59 14.3409 18.5 12.0009 18.5Z" fill="#1C252E"/>
</svg>
