<svg width="24" height="24" viewBox="0 0 24 24" fill="none" xmlns="http://www.w3.org/2000/svg">
<path opacity="0.4" d="M16.1894 8.86002C15.7994 8.86002 15.4894 8.55002 15.4894 8.16002V6.88002C15.4894 5.90002 15.0694 4.96002 14.3494 4.30002C13.6094 3.63002 12.6594 3.32002 11.6594 3.41002C9.97937 3.57002 8.50938 5.28002 8.50938 7.06002V7.96002C8.50938 8.35002 8.19937 8.66002 7.80937 8.66002C7.41937 8.66002 7.10938 8.35002 7.10938 7.96002V7.06002C7.10938 4.56002 9.12938 2.25002 11.5194 2.02002C12.9094 1.89002 14.2494 2.33002 15.2794 3.27002C16.2994 4.19002 16.8794 5.51002 16.8794 6.88002V8.16002C16.8794 8.55002 16.5694 8.86002 16.1894 8.86002Z" fill="#1C252E"/>
<path d="M19.9597 8.96002C19.1197 8.03002 17.7397 7.58002 15.7197 7.58002H8.27975C6.25975 7.58002 4.87975 8.03002 4.03975 8.96002C3.06975 10.04 3.09975 11.48 3.20975 12.48L3.90975 18.05C4.11975 20 4.90975 22 9.20975 22H14.7897C19.0897 22 19.8797 20 20.0897 18.06L20.7897 12.47C20.8997 11.48 20.9297 10.04 19.9597 8.96002ZM11.9997 18.58C9.90975 18.58 8.20975 16.88 8.20975 14.79C8.20975 12.7 9.90975 11 11.9997 11C14.0897 11 15.7897 12.7 15.7897 14.79C15.7897 16.88 14.0897 18.58 11.9997 18.58Z" fill="#1C252E"/>
<path opacity="0.4" d="M12.0009 18.58C14.0941 18.58 15.7909 16.8832 15.7909 14.79C15.7909 12.6968 14.0941 11 12.0009 11C9.90778 11 8.21094 12.6968 8.21094 14.79C8.21094 16.8832 9.90778 18.58 12.0009 18.58Z" fill="#1C252E"/>
<path d="M11.4309 16.64C11.2409 16.64 11.0509 16.57 10.9009 16.42L9.91086 15.43C9.62086 15.14 9.62086 14.66 9.91086 14.37C10.2009 14.08 10.6809 14.08 10.9709 14.37L11.4509 14.85L13.0509 13.37C13.3509 13.09 13.8309 13.11 14.1109 13.41C14.3909 13.71 14.3709 14.19 14.0709 14.47L11.9409 16.44C11.7909 16.57 11.6109 16.64 11.4309 16.64Z" fill="#1C252E"/>
</svg>
