<svg width="24" height="24" viewBox="0 0 24 24" fill="none" xmlns="http://www.w3.org/2000/svg">
<path opacity="0.4" d="M21.0505 11.71V17.7C21.0505 20.46 18.8105 22.7 16.0505 22.7H7.31055C7.08055 22.7 6.85055 22.68 6.63055 22.65C7.00055 22.49 7.33055 22.27 7.63055 22C7.67055 21.97 7.70053 21.94 7.73053 21.9C8.00053 21.67 8.23053 21.38 8.42053 21.06C8.79053 20.46 9.00055 19.75 9.00055 19C9.00055 17.95 8.59054 17 7.93054 16.28C7.83054 16.17 7.72052 16.06 7.60052 15.97C6.90053 15.36 6.00055 15 5.00055 15C4.29055 15 3.62053 15.19 3.04053 15.52C2.85053 15.62 2.67055 15.74 2.50055 15.88C2.43055 15.93 2.37055 15.99 2.31055 16.05V11.78C3.07055 12.6 4.15056 13.07 5.32056 13.07C6.58056 13.07 7.79054 12.44 8.55054 11.43C9.23054 12.44 10.3905 13.07 11.6805 13.07C12.9605 13.07 14.1005 12.47 14.7905 11.47C15.5605 12.46 16.7505 13.07 17.9905 13.07C19.2005 13.07 20.3005 12.58 21.0505 11.71Z" fill="#1C252E"/>
<path d="M14.669 1.57001H8.66904L7.92905 8.92999C7.86905 9.60999 7.96903 10.25 8.21903 10.83C8.79903 12.19 10.1591 13.07 11.6791 13.07C13.2191 13.07 14.5491 12.21 15.1491 10.84C15.3291 10.41 15.4391 9.91002 15.4491 9.40002V9.21002L14.669 1.57001Z" fill="#1C252E"/>
<path opacity="0.6" d="M22.0392 8.59003L21.7592 5.81C21.3392 2.79 19.9692 1.56 17.0392 1.56H13.1992L13.9392 9.06C13.9492 9.16 13.9592 9.27002 13.9592 9.46002C14.0192 9.98002 14.1792 10.46 14.4192 10.89C15.1392 12.21 16.5392 13.06 17.9992 13.06C19.3292 13.06 20.5292 12.47 21.2792 11.43C21.8692 10.64 22.1392 9.63003 22.0392 8.59003Z" fill="#1C252E"/>
<path opacity="0.6" d="M6.26934 1.57001C3.32934 1.57001 1.9693 2.79998 1.5393 5.84998L1.26934 8.59998C1.16934 9.66998 1.45934 10.71 2.08934 11.52C2.84934 12.51 4.01933 13.07 5.31932 13.07C6.77933 13.07 8.17933 12.22 8.88933 10.92C9.14933 10.47 9.31931 9.94997 9.36931 9.40997L10.1493 1.58002H6.26934V1.57001Z" fill="#1C252E"/>
<path d="M7.92999 16.28C7.82999 16.17 7.71998 16.06 7.59998 15.97C6.89998 15.36 6 15 5 15C4.29 15 3.61998 15.19 3.03998 15.52C2.84998 15.62 2.67 15.74 2.5 15.88C1.58 16.61 1 17.74 1 19C1 19.75 1.21002 20.46 1.58002 21.06C1.67002 21.22 1.78002 21.37 1.90002 21.51C1.92002 21.54 1.94997 21.56 1.96997 21.59C2.68997 22.45 3.78 23 5 23C6.01 23 6.93001 22.63 7.63 22C7.67 21.97 7.69998 21.94 7.72998 21.9C7.99998 21.67 8.22998 21.38 8.41998 21.06C8.78998 20.46 9 19.75 9 19C9 17.95 8.58999 17 7.92999 16.28ZM6.5 19.73H5.75V20.51C5.75 20.92 5.41 21.26 5 21.26C4.59 21.26 4.25 20.92 4.25 20.51V19.73H3.5C3.09 19.73 2.75 19.39 2.75 18.98C2.75 18.57 3.09 18.23 3.5 18.23H4.25V17.52C4.25 17.11 4.59 16.77 5 16.77C5.41 16.77 5.75 17.11 5.75 17.52V18.23H6.5C6.91 18.23 7.25 18.57 7.25 18.98C7.25 19.39 6.91 19.73 6.5 19.73Z" fill="#1C252E"/>
</svg>
