<svg width="24" height="24" viewBox="0 0 24 24" fill="none" xmlns="http://www.w3.org/2000/svg">
<path opacity="0.4" d="M19.24 5.58H18.84L15.46 2.2C15.19 1.93 14.75 1.93 14.47 2.2C14.2 2.47 14.2 2.91 14.47 3.19L16.86 5.58H7.14L9.53 3.19C9.8 2.92 9.8 2.48 9.53 2.2C9.26 1.93 8.82 1.93 8.54 2.2L5.17 5.58H4.77C3.87 5.58 2 5.58 2 8.14C2 9.11 2.2 9.75 2.62 10.17C2.86 10.42 3.15 10.55 3.46 10.62C3.75 10.69 4.06 10.7 4.36 10.7H19.64C19.95 10.7 20.24 10.68 20.52 10.62C21.36 10.42 22 9.82 22 8.14C22 5.58 20.13 5.58 19.24 5.58Z" fill="#1C252E"/>
<path d="M19.6609 10.7H4.36094C4.07094 10.7 3.75094 10.69 3.46094 10.61L4.72094 18.3C5.01094 20.02 5.76094 22 9.09094 22H14.7009C18.0709 22 18.6709 20.31 19.0309 18.42L20.5409 10.61C20.2609 10.68 19.9609 10.7 19.6609 10.7ZM13.9209 17.89C13.7709 18.04 13.5809 18.11 13.3909 18.11C13.2009 18.11 13.0109 18.04 12.8609 17.89L12.0109 17.04L11.1309 17.92C10.9809 18.07 10.7909 18.14 10.6009 18.14C10.4109 18.14 10.2209 18.07 10.0709 17.92C9.78094 17.63 9.78094 17.15 10.0709 16.86L10.9509 15.98L10.1009 15.13C9.81094 14.84 9.81094 14.36 10.1009 14.07C10.3909 13.78 10.8709 13.78 11.1609 14.07L12.0109 14.92L12.8309 14.1C13.1209 13.81 13.6009 13.81 13.8909 14.1C14.1809 14.39 14.1809 14.87 13.8909 15.16L13.0709 15.98L13.9209 16.83C14.2209 17.13 14.2209 17.6 13.9209 17.89Z" fill="#1C252E"/>
</svg>
