<svg width="24" height="24" viewBox="0 0 24 24" fill="none" xmlns="http://www.w3.org/2000/svg">
<path opacity="0.4" d="M19.24 5.58H18.84L15.46 2.2C15.19 1.93 14.75 1.93 14.47 2.2C14.2 2.47 14.2 2.91 14.47 3.19L16.86 5.58H7.14L9.53 3.19C9.8 2.92 9.8 2.48 9.53 2.2C9.26 1.93 8.82 1.93 8.54 2.2L5.17 5.58H4.77C3.87 5.58 2 5.58 2 8.14C2 9.11 2.2 9.75 2.62 10.17C2.86 10.42 3.15 10.55 3.46 10.62C3.75 10.69 4.06 10.7 4.36 10.7H19.64C19.95 10.7 20.24 10.68 20.52 10.62C21.36 10.42 22 9.82 22 8.14C22 5.58 20.13 5.58 19.24 5.58Z" fill="#1C252E"/>
<path d="M19.6609 10.7H4.36094C4.07094 10.7 3.75094 10.69 3.46094 10.61L4.72094 18.3C5.01094 20.02 5.76094 22 9.09094 22H14.7009C18.0709 22 18.6709 20.31 19.0309 18.42L20.5409 10.61C20.2609 10.68 19.9609 10.7 19.6609 10.7ZM14.8809 15.05L11.6309 18.05C11.4909 18.18 11.3009 18.25 11.1209 18.25C10.9309 18.25 10.7409 18.18 10.5909 18.03L9.09094 16.53C8.80094 16.24 8.80094 15.76 9.09094 15.47C9.38094 15.18 9.86094 15.18 10.1509 15.47L11.1409 16.46L13.8609 13.95C14.1609 13.67 14.6409 13.69 14.9209 13.99C15.2109 14.3 15.1909 14.77 14.8809 15.05Z" fill="#1C252E"/>
</svg>
