<svg width="24" height="24" viewBox="0 0 24 24" fill="none" xmlns="http://www.w3.org/2000/svg">
<path opacity="0.4" d="M19.24 5.58H18.84L15.46 2.2C15.19 1.93 14.75 1.93 14.47 2.2C14.2 2.47 14.2 2.91 14.47 3.19L16.86 5.58H7.14L9.53 3.19C9.8 2.92 9.8 2.48 9.53 2.2C9.26 1.93 8.82 1.93 8.54 2.2L5.17 5.58H4.77C3.87 5.58 2 5.58 2 8.14C2 9.11 2.2 9.75 2.62 10.17C2.86 10.42 3.15 10.55 3.46 10.62C3.75 10.69 4.06 10.7 4.36 10.7H19.64C19.95 10.7 20.24 10.68 20.52 10.62C21.36 10.42 22 9.82 22 8.14C22 5.58 20.13 5.58 19.24 5.58Z" fill="#1C252E"/>
<path d="M19.6509 10.7H4.36094C4.06094 10.7 3.75094 10.69 3.46094 10.62L4.72094 18.3C5.00094 20.02 5.75094 22 9.08094 22H14.6909C18.0609 22 18.6609 20.31 19.0209 18.42L20.5309 10.62C20.2509 10.68 19.9509 10.7 19.6509 10.7ZM10.6109 17.16C10.6109 17.55 10.3009 17.86 9.91094 17.86C9.52094 17.86 9.21094 17.55 9.21094 17.16V13.86C9.21094 13.47 9.52094 13.16 9.91094 13.16C10.3009 13.16 10.6109 13.47 10.6109 13.86V17.16ZM14.8909 17.16C14.8909 17.55 14.5809 17.86 14.1909 17.86C13.8009 17.86 13.4909 17.55 13.4909 17.16V13.86C13.4909 13.47 13.8009 13.16 14.1909 13.16C14.5809 13.16 14.8909 13.47 14.8909 13.86V17.16Z" fill="#1C252E"/>
</svg>
