<svg width="24" height="24" viewBox="0 0 24 24" fill="none" xmlns="http://www.w3.org/2000/svg">
<path opacity="0.4" d="M16.1894 8.86002C15.7994 8.86002 15.4894 8.55002 15.4894 8.16002V6.88002C15.4894 5.90002 15.0694 4.96002 14.3494 4.30002C13.6094 3.63002 12.6594 3.32002 11.6594 3.41002C9.97937 3.57002 8.50938 5.28002 8.50938 7.06002V7.96002C8.50938 8.35002 8.19937 8.66002 7.80937 8.66002C7.41937 8.66002 7.10938 8.35002 7.10938 7.96002V7.06002C7.10938 4.56002 9.12938 2.25002 11.5194 2.02002C12.9094 1.89002 14.2494 2.33002 15.2794 3.27002C16.2994 4.19002 16.8794 5.51002 16.8794 6.88002V8.16002C16.8794 8.55002 16.5694 8.86002 16.1894 8.86002Z" fill="#1C252E"/>
<path d="M19.9597 8.96002C19.1197 8.03002 17.7397 7.58002 15.7197 7.58002H8.27975C6.25975 7.58002 4.87975 8.03002 4.03975 8.96002C3.06975 10.04 3.09975 11.48 3.20975 12.48L3.90975 18.05C4.11975 20 4.90975 22 9.20975 22H14.7897C19.0897 22 19.8797 20 20.0897 18.06L20.7897 12.47C20.8997 11.48 20.9297 10.04 19.9597 8.96002ZM11.9997 18.58C9.90975 18.58 8.20975 16.88 8.20975 14.79C8.20975 12.7 9.90975 11 11.9997 11C14.0897 11 15.7897 12.7 15.7897 14.79C15.7897 16.88 14.0897 18.58 11.9997 18.58Z" fill="#1C252E"/>
<path opacity="0.4" d="M12.0009 18.58C14.0941 18.58 15.7909 16.8832 15.7909 14.79C15.7909 12.6968 14.0941 11 12.0009 11C9.90778 11 8.21094 12.6968 8.21094 14.79C8.21094 16.8832 9.90778 18.58 12.0009 18.58Z" fill="#1C252E"/>
<path d="M13.5991 15.31L13.0691 14.78L13.5691 14.28C13.8591 13.99 13.8591 13.51 13.5691 13.22C13.2791 12.93 12.7991 12.93 12.5091 13.22L12.0091 13.72L11.4791 13.19C11.1891 12.9 10.7091 12.9 10.4191 13.19C10.1291 13.48 10.1291 13.96 10.4191 14.25L10.9491 14.78L10.3991 15.33C10.1091 15.62 10.1091 16.1 10.3991 16.39C10.5491 16.54 10.7391 16.61 10.9291 16.61C11.1191 16.61 11.3091 16.54 11.4591 16.39L12.0091 15.84L12.5391 16.37C12.6891 16.52 12.8791 16.59 13.0691 16.59C13.2591 16.59 13.4491 16.52 13.5991 16.37C13.8891 16.08 13.8891 15.61 13.5991 15.31Z" fill="#1C252E"/>
</svg>
