<svg width="24" height="24" viewBox="0 0 24 24" fill="none" xmlns="http://www.w3.org/2000/svg">
<path opacity="0.4" d="M16.1894 8.86002C15.7994 8.86002 15.4894 8.55002 15.4894 8.16002V6.88002C15.4894 5.90002 15.0694 4.96002 14.3494 4.30002C13.6094 3.63002 12.6594 3.32002 11.6594 3.41002C9.97937 3.57002 8.50938 5.28002 8.50938 7.06002V7.96002C8.50938 8.35002 8.19937 8.66002 7.80937 8.66002C7.41937 8.66002 7.10938 8.35002 7.10938 7.96002V7.06002C7.10938 4.56002 9.12938 2.25002 11.5194 2.02002C12.9094 1.89002 14.2494 2.33002 15.2794 3.27002C16.2994 4.19002 16.8794 5.51002 16.8794 6.88002V8.16002C16.8794 8.55002 16.5694 8.86002 16.1894 8.86002Z" fill="#1C252E"/>
<path d="M19.9597 8.96002C19.1197 8.03002 17.7397 7.58002 15.7197 7.58002H8.27975C6.25975 7.58002 4.87975 8.03002 4.03975 8.96002C3.06975 10.04 3.09975 11.48 3.20975 12.48L3.90975 18.05C4.11975 20 4.90975 22 9.20975 22H14.7897C19.0897 22 19.8797 20 20.0897 18.06L20.7897 12.47C20.8997 11.48 20.9197 10.04 19.9597 8.96002ZM8.41975 13.15H8.40975C7.85975 13.15 7.40975 12.7 7.40975 12.15C7.40975 11.6 7.85975 11.15 8.40975 11.15C8.96975 11.15 9.41975 11.6 9.41975 12.15C9.41975 12.7 8.96975 13.15 8.41975 13.15ZM15.4197 13.15H15.4097C14.8597 13.15 14.4097 12.7 14.4097 12.15C14.4097 11.6 14.8597 11.15 15.4097 11.15C15.9697 11.15 16.4197 11.6 16.4197 12.15C16.4197 12.7 15.9697 13.15 15.4197 13.15Z" fill="#1C252E"/>
</svg>
