<svg width="24" height="24" viewBox="0 0 24 24" fill="none" xmlns="http://www.w3.org/2000/svg">
<path d="M21.7881 20.7236L18.7021 17.6836L17.6387 18.7412L20.7354 21.792C21.0304 22.0826 21.5052 22.0791 21.7959 21.7842C22.0865 21.4891 22.083 21.0143 21.7881 20.7236Z" fill="#1C252E"/>
<path opacity="0.4" d="M21 11.5C21 6.26 16.74 2 11.5 2C6.26 2 2 6.26 2 11.5C2 16.74 6.26 21 11.5 21C13.8397 21 15.9817 20.1479 17.6387 18.7412L18.7021 17.6836C20.1319 16.0205 21 13.8611 21 11.5Z" fill="#1C252E"/>
<path d="M11.5 16C11.422 16 11.348 15.9649 11.2979 15.9042C10.5401 14.9858 9.77272 14.295 9.09573 13.6855C7.92484 12.6313 7 11.7986 7 10.5002C7 9.83171 7.2333 9.20848 7.65691 8.74529C8.09644 8.26468 8.7059 8 9.37305 8C10.1165 8 10.766 8.35936 11.2512 9.0392C11.3501 9.17784 11.4325 9.31634 11.5 9.44438C11.5675 9.31634 11.6499 9.17784 11.7488 9.0392C12.234 8.35936 12.8835 8 13.627 8C14.2941 8 14.9036 8.26468 15.3431 8.74529C15.7667 9.20848 16 9.83171 16 10.5002C16 11.7986 15.0752 12.6313 13.9043 13.6854C13.2273 14.295 12.4599 14.9858 11.7021 15.9042C11.652 15.9649 11.578 16 11.5 16Z" fill="#1C252E"/>
</svg>
