<svg width="24" height="24" viewBox="0 0 24 24" fill="none" xmlns="http://www.w3.org/2000/svg">
<path opacity="0.4" d="M21 11.5C21 6.26 16.74 2 11.5 2C6.26 2 2 6.26 2 11.5C2 16.74 6.26 21 11.5 21C13.8397 21 15.9817 20.1479 17.6387 18.7412L18.7021 17.6836C20.1319 16.0205 21 13.8611 21 11.5Z" fill="#1C252E"/>
<path d="M21.7881 20.7236L18.7021 17.6836L17.6387 18.7412L20.7354 21.792C21.0304 22.0826 21.5052 22.0791 21.7959 21.7842C22.0865 21.4891 22.083 21.0143 21.7881 20.7236Z" fill="#1C252E"/>
<path d="M14.5 10.75H8.5C8.09 10.75 7.75 10.41 7.75 10C7.75 9.59 8.09 9.25 8.5 9.25H14.5C14.91 9.25 15.25 9.59 15.25 10C15.25 10.41 14.91 10.75 14.5 10.75Z" fill="#1C252E"/>
<path d="M11.5 13.75H8.5C8.09 13.75 7.75 13.41 7.75 13C7.75 12.59 8.09 12.25 8.5 12.25H11.5C11.91 12.25 12.25 12.59 12.25 13C12.25 13.41 11.91 13.75 11.5 13.75Z" fill="#1C252E"/>
</svg>
