<svg width="24" height="24" viewBox="0 0 24 24" fill="none" xmlns="http://www.w3.org/2000/svg">
<path opacity="0.4" d="M21 11.5C21 6.26 16.74 2 11.5 2C6.26 2 2 6.26 2 11.5C2 16.74 6.26 21 11.5 21C13.8397 21 15.9817 20.1479 17.6387 18.7412L18.7021 17.6836C20.1319 16.0205 21 13.8611 21 11.5Z" fill="#1C252E"/>
<path d="M21.7881 20.7236L18.7021 17.6836L17.6387 18.7412L20.7354 21.792C21.0304 22.0826 21.5052 22.0791 21.7959 21.7842C22.0865 21.4891 22.083 21.0143 21.7881 20.7236Z" fill="#1C252E"/>
<path d="M14.1992 10.95H12.4492V9.20001C12.4492 8.79001 12.1092 8.45001 11.6992 8.45001C11.2892 8.45001 10.9492 8.79001 10.9492 9.20001V10.95H9.19922C8.78922 10.95 8.44922 11.29 8.44922 11.7C8.44922 12.11 8.78922 12.45 9.19922 12.45H10.9492V14.2C10.9492 14.61 11.2892 14.95 11.6992 14.95C12.1092 14.95 12.4492 14.61 12.4492 14.2V12.45H14.1992C14.6092 12.45 14.9492 12.11 14.9492 11.7C14.9492 11.29 14.6092 10.95 14.1992 10.95Z" fill="#1C252E"/>
</svg>
