<svg width="24" height="24" viewBox="0 0 24 24" fill="none" xmlns="http://www.w3.org/2000/svg">
<path opacity="0.4" d="M21 11.5C21 6.26 16.74 2 11.5 2C6.26 2 2 6.26 2 11.5C2 16.74 6.26 21 11.5 21C13.8397 21 15.9817 20.1479 17.6387 18.7412L18.7021 17.6836C20.1319 16.0205 21 13.8611 21 11.5Z" fill="#1C252E"/>
<path d="M21.7881 20.7236L18.7021 17.6836L17.6387 18.7412L20.7354 21.792C21.0304 22.0826 21.5052 22.0791 21.7959 21.7842C22.0865 21.4891 22.083 21.0143 21.7881 20.7236Z" fill="#1C252E"/>
<path d="M14 12.45H9C8.59 12.45 8.25 12.11 8.25 11.7C8.25 11.29 8.59 10.95 9 10.95H14C14.41 10.95 14.75 11.29 14.75 11.7C14.75 12.11 14.41 12.45 14 12.45Z" fill="#1C252E"/>
</svg>
