<svg width="24" height="24" viewBox="0 0 24 24" fill="none" xmlns="http://www.w3.org/2000/svg">
<path d="M19.2296 4.18L19.3596 3.94C19.5096 3.67 19.4696 3.33 19.2696 3.09C19.0696 2.85 18.7396 2.77 18.4396 2.88C14.2896 4.4 9.70958 4.4 5.55958 2.88C5.25958 2.77 4.93958 2.85 4.72958 3.09C4.52958 3.33 4.48958 3.66 4.63958 3.94L4.76958 4.17C7.38958 9.16 7.35958 15.09 4.66958 20.05C4.51958 20.32 4.55958 20.66 4.75958 20.9C4.95958 21.14 5.28958 21.22 5.57958 21.11C9.70958 19.6 14.2696 19.6 18.4096 21.11C18.4896 21.14 18.5796 21.16 18.6696 21.16C18.8796 21.16 19.0896 21.07 19.2396 20.9C19.4396 20.66 19.4796 20.33 19.3296 20.05C16.6496 15.09 16.6096 9.16 19.2296 4.18Z" fill="#1C252E"/>
<path d="M18.6998 4.32999C18.3898 4.32999 18.1098 4.13999 17.9998 3.83999C17.8598 3.44999 18.0598 3.01999 18.4398 2.87999C19.5198 2.47999 20.5798 1.96999 21.6198 1.35999C21.9798 1.14999 22.4398 1.26999 22.6498 1.61999C22.8598 1.97999 22.7398 2.43999 22.3898 2.64999C21.2798 3.30999 20.1298 3.85999 18.9698 4.28999C18.8698 4.31999 18.7898 4.32999 18.6998 4.32999Z" fill="#1C252E"/>
<path d="M5.30042 4.33C5.21042 4.33 5.13042 4.32 5.04042 4.28C3.88042 3.86 2.73042 3.3 1.62042 2.64C1.26042 2.43 1.14042 1.97 1.36042 1.62C1.57042 1.26 2.03042 1.15 2.39042 1.36C3.42042 1.97 4.49042 2.48 5.57042 2.88C5.95042 3.02 6.15042 3.45 6.00042 3.84C5.89042 4.14 5.60042 4.33 5.30042 4.33Z" fill="#1C252E"/>
<path d="M22.0004 22.75C21.8704 22.75 21.7404 22.72 21.6204 22.64C20.5904 22.03 19.5204 21.51 18.4204 21.11C18.0304 20.97 17.8304 20.54 17.9704 20.15C18.1104 19.76 18.5404 19.56 18.9304 19.7C20.1204 20.13 21.2804 20.69 22.3904 21.35C22.7504 21.56 22.8604 22.02 22.6504 22.38C22.5004 22.62 22.2504 22.75 22.0004 22.75Z" fill="#1C252E"/>
<path d="M1.99988 22.75C1.74988 22.75 1.49988 22.62 1.35988 22.38C1.14988 22.02 1.25988 21.56 1.61988 21.35C2.72988 20.69 3.88988 20.13 5.07988 19.7C5.46988 19.56 5.89988 19.76 6.03988 20.15C6.17988 20.54 5.97988 20.97 5.58988 21.11C4.48988 21.51 3.40988 22.03 2.38988 22.64C2.25988 22.72 2.12988 22.75 1.99988 22.75Z" fill="#1C252E"/>
</svg>
