<svg width="24" height="24" viewBox="0 0 24 24" fill="none" xmlns="http://www.w3.org/2000/svg">
<path d="M20.6698 2.26991C20.9627 1.97712 21.4375 1.97705 21.7304 2.26991C22.0231 2.56278 22.0231 3.03759 21.7304 3.33046L13.5302 11.5307C13.2373 11.8234 12.7625 11.8234 12.4696 11.5307C12.1768 11.2378 12.1768 10.763 12.4696 10.4701L20.6698 2.26991Z" fill="#1C252E"/>
<path d="M21.2498 6.7998V2.75H17.2C16.7857 2.75 16.45 2.41421 16.45 2C16.45 1.58579 16.7857 1.25 17.2 1.25H21.9998C22.414 1.25 22.7498 1.58579 22.7498 2V6.7998C22.7498 7.21402 22.414 7.5498 21.9998 7.5498C21.5856 7.5497 21.2498 7.21395 21.2498 6.7998Z" fill="#1C252E"/>
<path d="M1.25 15V9C1.25 6.42603 1.76026 4.4292 3.09473 3.09473C4.4292 1.76026 6.42603 1.25 9 1.25H11C11.4142 1.25 11.75 1.58579 11.75 2C11.75 2.41421 11.4142 2.75 11 2.75H9C6.57397 2.75 5.0708 3.23974 4.15527 4.15527C3.23974 5.0708 2.75 6.57397 2.75 9V15C2.75 17.426 3.23974 18.9292 4.15527 19.8447C5.0708 20.7603 6.57397 21.25 9 21.25H15C17.426 21.25 18.9292 20.7603 19.8447 19.8447C20.7603 18.9292 21.25 17.426 21.25 15V13C21.25 12.5858 21.5858 12.25 22 12.25C22.4142 12.25 22.75 12.5858 22.75 13V15C22.75 17.574 22.2397 19.5708 20.9053 20.9053C19.5708 22.2397 17.574 22.75 15 22.75H9C6.42603 22.75 4.4292 22.2397 3.09473 20.9053C1.76026 19.5708 1.25 17.574 1.25 15Z" fill="#1C252E"/>
</svg>
