<svg width="24" height="24" viewBox="0 0 24 24" fill="none" xmlns="http://www.w3.org/2000/svg">
<path d="M19.3799 13.3101C19.3799 10.9643 17.4757 9.06006 15.1299 9.06006H4.12988C3.71567 9.06006 3.37988 8.72427 3.37988 8.31006C3.37988 7.89585 3.71567 7.56006 4.12988 7.56006H15.1299C18.3041 7.56006 20.8799 10.1358 20.8799 13.3101C20.8799 16.4843 18.3041 19.0601 15.1299 19.0601H7.12988C6.71567 19.0601 6.37988 18.7243 6.37988 18.3101C6.37988 17.8958 6.71567 17.5601 7.12988 17.5601H15.1299C17.4757 17.5601 19.3799 15.6558 19.3799 13.3101Z" fill="#1C252E"/>
<path d="M5.89925 5.15975C6.19207 4.86693 6.66689 4.86707 6.9598 5.15975C7.25269 5.45264 7.25269 5.9274 6.9598 6.22029L4.92952 8.24959L6.9598 10.2799C7.25269 10.5728 7.25269 11.0475 6.9598 11.3404C6.66688 11.633 6.19205 11.6332 5.89925 11.3404L3.33968 8.77987C3.047 8.48695 3.04686 8.01214 3.33968 7.71932L5.89925 5.15975Z" fill="#1C252E"/>
</svg>
