<svg width="24" height="24" viewBox="0 0 24 24" fill="none" xmlns="http://www.w3.org/2000/svg">
<path d="M17.5395 13.8997C17.8323 13.6069 18.3071 13.607 18.6 13.8997C18.8929 14.1926 18.8929 14.6674 18.6 14.9603L12.5307 21.0306C12.3901 21.1712 12.1992 21.2502 12.0004 21.2503C11.8017 21.2503 11.6108 21.171 11.4702 21.0306L5.39985 14.9603C5.10695 14.6674 5.10695 14.1926 5.39985 13.8997C5.69274 13.6068 6.1675 13.6068 6.46039 13.8997L11.9995 19.4388L17.5395 13.8997Z" fill="#1C252E"/>
<path d="M11.25 20.3301V3.5C11.25 3.08579 11.5858 2.75 12 2.75C12.4142 2.75 12.75 3.08579 12.75 3.5V20.3301C12.75 20.7443 12.4142 21.0801 12 21.0801C11.5858 21.0801 11.25 20.7443 11.25 20.3301Z" fill="#1C252E"/>
</svg>
