<svg width="24" height="24" viewBox="0 0 24 24" fill="none" xmlns="http://www.w3.org/2000/svg">
<path d="M21.25 9C21.25 6.57397 20.7603 5.0708 19.8447 4.15527C18.9292 3.23974 17.426 2.75 15 2.75H9C6.57397 2.75 5.0708 3.23974 4.15527 4.15527C3.23974 5.0708 2.75 6.57397 2.75 9V15C2.75 17.426 3.23974 18.9292 4.15527 19.8447C5.0708 20.7603 6.57397 21.25 9 21.25H15C17.426 21.25 18.9292 20.7603 19.8447 19.8447C20.7603 18.9292 21.25 17.426 21.25 15V9ZM22.75 15C22.75 17.574 22.2397 19.5708 20.9053 20.9053C19.5708 22.2397 17.574 22.75 15 22.75H9C6.42603 22.75 4.4292 22.2397 3.09473 20.9053C1.76026 19.5708 1.25 17.574 1.25 15V9C1.25 6.42603 1.76026 4.4292 3.09473 3.09473C4.4292 1.76026 6.42603 1.25 9 1.25H15C17.574 1.25 19.5708 1.76026 20.9053 3.09473C22.2397 4.4292 22.75 6.42603 22.75 9V15Z" fill="#1C252E"/>
<path d="M11.5275 9.35797C11.8218 9.11854 12.255 9.13518 12.5295 9.40875L16.0597 12.9293C16.3527 13.2218 16.3531 13.6966 16.0607 13.9898C15.7682 14.2829 15.2934 14.2832 15.0002 13.9908L11.9992 10.9986L8.9992 13.9908C8.7059 14.2832 8.23113 14.2831 7.93865 13.9898C7.64618 13.6965 7.64732 13.2217 7.9406 12.9293L11.4699 9.40875L11.5275 9.35797Z" fill="#1C252E"/>
</svg>
