<svg width="24" height="24" viewBox="0 0 24 24" fill="none" xmlns="http://www.w3.org/2000/svg">
<path d="M21.25 9C21.25 6.57397 20.7603 5.0708 19.8447 4.15527C18.9292 3.23974 17.426 2.75 15 2.75H9C6.57397 2.75 5.0708 3.23974 4.15527 4.15527C3.23974 5.0708 2.75 6.57397 2.75 9V15C2.75 17.426 3.23974 18.9292 4.15527 19.8447C5.0708 20.7603 6.57397 21.25 9 21.25H15C17.426 21.25 18.9292 20.7603 19.8447 19.8447C20.7603 18.9292 21.25 17.426 21.25 15V9ZM22.75 15C22.75 17.574 22.2397 19.5708 20.9053 20.9053C19.5708 22.2397 17.574 22.75 15 22.75H9C6.42603 22.75 4.4292 22.2397 3.09473 20.9053C1.76026 19.5708 1.25 17.574 1.25 15V9C1.25 6.42603 1.76026 4.4292 3.09473 3.09473C4.4292 1.76026 6.42603 1.25 9 1.25H15C17.574 1.25 19.5708 1.76026 20.9053 3.09473C22.2397 4.4292 22.75 6.42603 22.75 9V15Z" fill="#1C252E"/>
<path d="M14.0801 11.9299V8.42993H10.5898C10.1756 8.42993 9.83984 8.09415 9.83984 7.67993C9.83984 7.26572 10.1756 6.92993 10.5898 6.92993H14.8301C15.2442 6.93006 15.5801 7.26579 15.5801 7.67993V11.9299C15.5801 12.3441 15.2442 12.6798 14.8301 12.6799C14.4159 12.6799 14.0801 12.3441 14.0801 11.9299Z" fill="#1C252E"/>
<path d="M14.2997 7.14956C14.5926 6.85675 15.0674 6.8567 15.3603 7.14956C15.653 7.44244 15.653 7.91724 15.3603 8.21011L9.7001 13.8703C9.40723 14.1631 8.93243 14.1631 8.63955 13.8703C8.34669 13.5774 8.34674 13.1026 8.63955 12.8097L14.2997 7.14956Z" fill="#1C252E"/>
<path d="M17.7627 15.799C18.1555 15.6679 18.5797 15.8799 18.7109 16.2727C18.842 16.6655 18.6301 17.0897 18.2373 17.2209C14.1932 18.5724 9.8068 18.5724 5.76267 17.2209C5.3699 17.0897 5.15793 16.6655 5.28904 16.2727C5.4203 15.8799 5.8445 15.6679 6.23728 15.799C9.973 17.0475 14.027 17.0475 17.7627 15.799Z" fill="#1C252E"/>
</svg>
