<svg width="24" height="24" viewBox="0 0 24 24" fill="none" xmlns="http://www.w3.org/2000/svg">
<path d="M2.58008 13.3199C2.58012 8.11579 6.79585 3.90007 12 3.90002C13.1417 3.90002 14.1743 4.08302 15.1045 4.36096C15.5013 4.47955 15.7269 4.89772 15.6084 5.29456C15.4898 5.6913 15.0725 5.91681 14.6758 5.79846C13.8661 5.55648 12.9781 5.40002 12 5.40002C7.62428 5.40007 4.08012 8.94422 4.08008 13.3199C4.08008 17.7063 7.62481 21.2496 12 21.2496C16.3758 21.2496 19.9199 17.7055 19.9199 13.3297C19.9199 11.7035 19.4268 10.1878 18.5859 8.92639C18.3562 8.58183 18.4495 8.11617 18.7939 7.88635C19.1386 7.65659 19.6042 7.74971 19.834 8.09436C20.8328 9.59274 21.4199 11.3963 21.4199 13.3297C21.4199 18.5339 17.2042 22.7496 12 22.7496C6.79526 22.7496 2.58008 18.5336 2.58008 13.3199Z" fill="#1C252E"/>
<path d="M12.7478 1.43457C13.0602 1.16261 13.5335 1.19538 13.8054 1.50781L16.696 4.82714C16.9679 5.13951 16.935 5.61375 16.6228 5.88574C16.3104 6.1577 15.8362 6.12492 15.5642 5.8125L12.6746 2.49218C12.4026 2.17976 12.4354 1.70653 12.7478 1.43457Z" fill="#1C252E"/>
<path d="M15.6878 4.71457C16.0223 4.4704 16.4914 4.54327 16.7357 4.87765C16.9798 5.2121 16.9069 5.68122 16.5726 5.9255L13.2025 8.38547C12.868 8.62963 12.3989 8.55673 12.1546 8.22238C11.9105 7.8879 11.9834 7.4188 12.3177 7.17453L15.6878 4.71457Z" fill="#1C252E"/>
</svg>
