<svg width="24" height="24" viewBox="0 0 24 24" fill="none" xmlns="http://www.w3.org/2000/svg">
<path d="M16.7497 2.47974C17.0426 2.18685 17.5174 2.18685 17.8102 2.47974L21.53 6.19947C21.8229 6.49236 21.8229 6.96712 21.53 7.26001L17.8102 10.9807C17.5174 11.2733 17.0425 11.2733 16.7497 10.9807C16.4569 10.6879 16.457 10.2131 16.7497 9.92017L19.9392 6.72974L16.7497 3.54029C16.4568 3.24739 16.4568 2.77263 16.7497 2.47974Z" fill="#1C252E"/>
<path d="M21 5.97998C21.4142 5.97998 21.75 6.31577 21.75 6.72998C21.75 7.14419 21.4142 7.47998 21 7.47998H3C2.58579 7.47998 2.25 7.14419 2.25 6.72998C2.25 6.31577 2.58579 5.97998 3 5.97998H21Z" fill="#1C252E"/>
<path d="M6.18956 13.0197C6.48241 12.7269 6.9572 12.7269 7.25011 13.0197C7.543 13.3126 7.543 13.7874 7.25011 14.0803L4.05968 17.2697L7.25011 20.4602C7.54291 20.7531 7.54297 21.2278 7.25011 21.5207C6.95722 21.8132 6.48235 21.8134 6.18956 21.5207L2.46984 17.8C2.1771 17.5071 2.177 17.0323 2.46984 16.7394L6.18956 13.0197Z" fill="#1C252E"/>
<path d="M21 16.52C21.4142 16.52 21.75 16.8558 21.75 17.27C21.75 17.6842 21.4142 18.02 21 18.02H3C2.58579 18.02 2.25 17.6842 2.25 17.27C2.25 16.8558 2.58579 16.52 3 16.52H21Z" fill="#1C252E"/>
</svg>
