<svg width="24" height="24" viewBox="0 0 24 24" fill="none" xmlns="http://www.w3.org/2000/svg">
<path d="M18.4697 2.96973C18.7626 2.67684 19.2373 2.67684 19.5302 2.96973C19.8231 3.26262 19.8231 3.73738 19.5302 4.03028L5.53022 18.0303C5.23732 18.3232 4.76256 18.3232 4.46967 18.0303C4.17678 17.7374 4.17678 17.2626 4.46967 16.9697L18.4697 2.96973Z" fill="#1C252E"/>
<path d="M4.25 7.23C4.25 6.81578 4.58579 6.48 5 6.48C5.41421 6.48 5.75 6.81578 5.75 7.23V16.7495H15.2695C15.6836 16.7495 16.0193 17.0855 16.0195 17.4995C16.0195 17.9137 15.6837 18.2495 15.2695 18.2495H5C4.58579 18.2495 4.25 17.9137 4.25 17.4995V7.23Z" fill="#1C252E"/>
<path d="M20.5 21.25C20.9142 21.25 21.25 21.5858 21.25 22C21.25 22.4142 20.9142 22.75 20.5 22.75H3.5C3.08579 22.75 2.75 22.4142 2.75 22C2.75 21.5858 3.08579 21.25 3.5 21.25H20.5Z" fill="#1C252E"/>
</svg>
