<svg width="24" height="24" viewBox="0 0 24 24" fill="none" xmlns="http://www.w3.org/2000/svg">
<path d="M11.8795 3.18994C12.0783 3.18994 12.2691 3.26915 12.4097 3.40967L14.9703 5.96924C15.2631 6.26204 15.2629 6.73687 14.9703 7.02979C14.6774 7.32268 14.2026 7.32268 13.9097 7.02979L11.8795 4.99951L9.85018 7.02979C9.55728 7.32268 9.08252 7.32268 8.78963 7.02979C8.49695 6.73687 8.49681 6.26206 8.78963 5.96924L11.3492 3.40967C11.4898 3.26912 11.6807 3.19006 11.8795 3.18994Z" fill="#1C252E"/>
<path d="M11.1299 14.1799V4.01001C11.1299 3.5958 11.4657 3.26001 11.8799 3.26001C12.2941 3.26001 12.6299 3.5958 12.6299 4.01001V14.1799C12.6299 14.5941 12.2941 14.9299 11.8799 14.9299C11.4657 14.9299 11.1299 14.5941 11.1299 14.1799Z" fill="#1C252E"/>
<path d="M3.25 12C3.25 11.5858 3.58579 11.25 4 11.25C4.41421 11.25 4.75 11.5858 4.75 12C4.75 14.0406 5.44135 15.8483 6.66895 17.1406C7.89095 18.4271 9.68843 19.25 12 19.25C14.3116 19.25 16.1091 18.4271 17.3311 17.1406C18.5586 15.8483 19.25 14.0406 19.25 12C19.25 11.5858 19.5858 11.25 20 11.25C20.4142 11.25 20.75 11.5858 20.75 12C20.75 14.3793 19.9412 16.5712 18.4189 18.1738C16.8909 19.7824 14.6884 20.75 12 20.75C9.31157 20.75 7.10905 19.7824 5.58105 18.1738C4.05882 16.5712 3.25 14.3793 3.25 12Z" fill="#1C252E"/>
</svg>
