<svg width="24" height="24" viewBox="0 0 24 24" fill="none" xmlns="http://www.w3.org/2000/svg">
<path d="M7.15918 5.31196C8.41736 4.58578 10.0213 4.76068 11.5957 5.67133L16.2168 8.35102C17.7904 9.26127 18.7422 10.5625 18.7422 12.0151C18.7422 13.4675 17.7891 14.7679 16.2158 15.6782L11.5967 18.3588L11.5908 18.3627C10.0163 19.257 8.41308 19.4231 7.15723 18.6948C5.9007 17.9659 5.25006 16.4912 5.25 14.6704V9.33051C5.25 7.51441 5.90118 6.03818 7.15918 5.31196ZM6.75 14.6704C6.75006 16.1691 7.27451 17.0293 7.91016 17.3979C8.54587 17.7664 9.55123 17.7933 10.8438 17.061L15.4639 14.3813C16.76 13.6316 17.2422 12.7474 17.2422 12.0151C17.2422 11.2828 16.761 10.3986 15.4648 9.64887L10.8438 6.96919C9.54907 6.22067 8.54331 6.24495 7.90918 6.61079C7.27468 6.97707 6.75 7.83662 6.75 9.33051V14.6704Z" fill="#1C252E"/>
</svg>
