<svg width="24" height="24" viewBox="0 0 24 24" fill="none" xmlns="http://www.w3.org/2000/svg">
<path d="M21.25 9C21.25 6.57397 20.7603 5.0708 19.8447 4.15527C18.9292 3.23974 17.426 2.75 15 2.75H9C6.57397 2.75 5.0708 3.23974 4.15527 4.15527C3.23974 5.0708 2.75 6.57397 2.75 9V15C2.75 17.426 3.23974 18.9292 4.15527 19.8447C5.0708 20.7603 6.57397 21.25 9 21.25H15C17.426 21.25 18.9292 20.7603 19.8447 19.8447C20.7603 18.9292 21.25 17.426 21.25 15V9ZM22.75 15C22.75 17.574 22.2397 19.5708 20.9053 20.9053C19.5708 22.2397 17.574 22.75 15 22.75H9C6.42603 22.75 4.4292 22.2397 3.09473 20.9053C1.76026 19.5708 1.25 17.574 1.25 15V9C1.25 6.42603 1.76026 4.4292 3.09473 3.09473C4.4292 1.76026 6.42603 1.25 9 1.25H15C17.574 1.25 19.5708 1.76026 20.9053 3.09473C22.2397 4.4292 22.75 6.42603 22.75 9V15Z" fill="#1C252E"/>
<path d="M14.0801 9.09985C14.0801 8.68564 14.4159 8.34985 14.8301 8.34985C15.2442 8.34998 15.5801 8.68572 15.5801 9.09985V13.3401C15.5799 13.7541 15.2441 14.09 14.8301 14.0901H10.5898C10.1757 14.0901 9.83998 13.7542 9.83984 13.3401C9.83984 12.9259 10.1756 12.5901 10.5898 12.5901H14.0801V9.09985Z" fill="#1C252E"/>
<path d="M8.63959 7.1496C8.93248 6.85671 9.40725 6.85671 9.70014 7.1496L15.3603 12.8098C15.653 13.1027 15.6531 13.5775 15.3603 13.8703C15.0675 14.1631 14.5927 14.163 14.2997 13.8703L8.63959 8.21015C8.3467 7.91726 8.3467 7.44249 8.63959 7.1496Z" fill="#1C252E"/>
<path d="M17.7627 15.799C18.1555 15.6679 18.5797 15.8799 18.7109 16.2727C18.842 16.6655 18.6301 17.0897 18.2373 17.2209C14.1932 18.5724 9.8068 18.5724 5.76267 17.2209C5.3699 17.0897 5.15793 16.6655 5.28904 16.2727C5.4203 15.8799 5.8445 15.6679 6.23728 15.799C9.973 17.0475 14.027 17.0475 17.7627 15.799Z" fill="#1C252E"/>
</svg>
