<svg width="24" height="24" viewBox="0 0 24 24" fill="none" xmlns="http://www.w3.org/2000/svg">
<path d="M20.7496 15.2703V8.74976C20.7496 6.58934 20.3129 5.27123 19.5162 4.47437C18.7194 3.6775 17.4007 3.23999 15.2399 3.23999H15.11C13.1537 3.24 11.8859 3.59942 11.0748 4.25757C10.2845 4.89894 9.79243 5.93689 9.64708 7.62476C9.61133 8.03722 9.2481 8.3429 8.83556 8.30737C8.42298 8.27179 8.11752 7.90843 8.15294 7.49585C8.31757 5.58401 8.90508 4.08618 10.1295 3.09253C11.3334 2.11568 13.0163 1.73999 15.11 1.73999H15.2399C17.549 1.73999 19.3611 2.19819 20.5768 3.41382C21.7921 4.62941 22.2496 6.44088 22.2496 8.74976V15.2703C22.2496 17.5791 21.7921 19.3906 20.5768 20.6062C19.3611 21.8218 17.549 22.28 15.2399 22.28H15.11C13.0315 22.28 11.3592 21.9091 10.1578 20.948C8.93473 19.9695 8.33935 18.4936 8.16368 16.6091C8.12549 16.1969 8.42816 15.8321 8.84044 15.7937C9.25287 15.7553 9.6184 16.058 9.65685 16.4705C9.81118 18.1259 10.305 19.1456 11.0943 19.7771C11.9054 20.426 13.1685 20.78 15.11 20.78H15.2399C17.4007 20.78 18.7194 20.3425 19.5162 19.5457C20.3129 18.7488 20.7496 17.4307 20.7496 15.2703Z" fill="#1C252E"/>
<path d="M15 11.25C15.4142 11.25 15.75 11.5858 15.75 12C15.75 12.4142 15.4142 12.75 15 12.75H3.62012C3.2059 12.75 2.87012 12.4142 2.87012 12C2.87012 11.5858 3.2059 11.25 3.62012 11.25H15Z" fill="#1C252E"/>
<path d="M5.31943 8.11972C5.61225 7.82689 6.08706 7.82702 6.37997 8.11972C6.67287 8.41261 6.67287 8.88737 6.37997 9.18027L3.55966 11.9996L6.37997 14.8199C6.67287 15.1128 6.67287 15.5876 6.37997 15.8805C6.08706 16.1731 5.61222 16.1733 5.31943 15.8805L1.96982 12.5299C1.67712 12.237 1.67699 11.7622 1.96982 11.4693L5.31943 8.11972Z" fill="#1C252E"/>
</svg>
