<svg width="24" height="24" viewBox="0 0 24 24" fill="none" xmlns="http://www.w3.org/2000/svg">
<path d="M16.6198 13.2895C16.9127 12.9966 17.3875 12.9966 17.6803 13.2895C17.9732 13.5824 17.9732 14.0571 17.6803 14.35L14.6403 17.3901C14.3474 17.6829 13.8726 17.6829 13.5798 17.3901C13.2869 17.0972 13.2869 16.6224 13.5798 16.3295L16.6198 13.2895Z" fill="#1C252E"/>
<path d="M17.1499 13.0698C17.5641 13.0698 17.8999 13.4056 17.8999 13.8198C17.8999 14.234 17.5641 14.5698 17.1499 14.5698H6.8501C6.43588 14.5698 6.1001 14.234 6.1001 13.8198C6.1001 13.4056 6.43588 13.0698 6.8501 13.0698H17.1499Z" fill="#1C252E"/>
<path d="M9.35979 6.6098C9.65269 6.31692 10.1274 6.31691 10.4203 6.6098C10.7132 6.90269 10.7132 7.37746 10.4203 7.67035L7.3803 10.7104C7.08741 11.0032 6.61264 11.0032 6.31975 10.7104C6.02687 10.4175 6.02689 9.94273 6.31975 9.64984L9.35979 6.6098Z" fill="#1C252E"/>
<path d="M17.1499 9.43018C17.5641 9.43018 17.8999 9.76596 17.8999 10.1802C17.8999 10.5944 17.5641 10.9302 17.1499 10.9302H6.8501C6.43588 10.9302 6.1001 10.5944 6.1001 10.1802C6.1001 9.76596 6.43588 9.43018 6.8501 9.43018H17.1499Z" fill="#1C252E"/>
<path d="M21.25 12C21.25 6.89137 17.1086 2.75 12 2.75C6.89137 2.75 2.75 6.89137 2.75 12C2.75 17.1086 6.89137 21.25 12 21.25C17.1086 21.25 21.25 17.1086 21.25 12ZM22.75 12C22.75 17.9371 17.9371 22.75 12 22.75C6.06294 22.75 1.25 17.9371 1.25 12C1.25 6.06294 6.06294 1.25 12 1.25C17.9371 1.25 22.75 6.06294 22.75 12Z" fill="#1C252E"/>
</svg>
