<svg width="24" height="24" viewBox="0 0 24 24" fill="none" xmlns="http://www.w3.org/2000/svg">
<path d="M21.25 9C21.25 6.57397 20.7603 5.0708 19.8447 4.15527C18.9292 3.23974 17.426 2.75 15 2.75H9C6.57397 2.75 5.0708 3.23974 4.15527 4.15527C3.23974 5.0708 2.75 6.57397 2.75 9V15C2.75 17.426 3.23974 18.9292 4.15527 19.8447C5.0708 20.7603 6.57397 21.25 9 21.25H15C17.426 21.25 18.9292 20.7603 19.8447 19.8447C20.7603 18.9292 21.25 17.426 21.25 15V9ZM22.75 15C22.75 17.574 22.2397 19.5708 20.9053 20.9053C19.5708 22.2397 17.574 22.75 15 22.75H9C6.42603 22.75 4.4292 22.2397 3.09473 20.9053C1.76026 19.5708 1.25 17.574 1.25 15V9C1.25 6.42603 1.76026 4.4292 3.09473 3.09473C4.4292 1.76026 6.42603 1.25 9 1.25H15C17.574 1.25 19.5708 1.76026 20.9053 3.09473C22.2397 4.4292 22.75 6.42603 22.75 9V15Z" fill="#1C252E"/>
<path d="M11.5263 5.9281C11.8209 5.68779 12.2556 5.70525 12.5302 5.97985L15.5302 8.97985C15.8231 9.27275 15.8231 9.74751 15.5302 10.0404C15.2373 10.3333 14.7626 10.3333 14.4697 10.0404L11.9999 7.57067L9.53022 10.0404C9.23732 10.3333 8.76256 10.3333 8.46967 10.0404C8.17678 9.74751 8.17678 9.27275 8.46967 8.97985L11.4697 5.97985L11.5263 5.9281Z" fill="#1C252E"/>
<path d="M11.25 14.51V6.51001C11.25 6.0958 11.5858 5.76001 12 5.76001C12.4142 5.76001 12.75 6.0958 12.75 6.51001V14.51C12.75 14.9242 12.4142 15.26 12 15.26C11.5858 15.26 11.25 14.9242 11.25 14.51Z" fill="#1C252E"/>
<path d="M17.7627 15.799C18.1555 15.6679 18.5797 15.8799 18.7109 16.2727C18.842 16.6655 18.6301 17.0897 18.2373 17.2209C14.1932 18.5724 9.8068 18.5724 5.76267 17.2209C5.3699 17.0897 5.15793 16.6655 5.28904 16.2727C5.4203 15.8799 5.8445 15.6679 6.23728 15.799C9.973 17.0475 14.027 17.0475 17.7627 15.799Z" fill="#1C252E"/>
</svg>
