<svg width="24" height="24" viewBox="0 0 24 24" fill="none" xmlns="http://www.w3.org/2000/svg">
<path d="M21.25 9C21.25 6.57397 20.7603 5.0708 19.8447 4.15527C18.9292 3.23974 17.426 2.75 15 2.75H9C6.57397 2.75 5.0708 3.23974 4.15527 4.15527C3.23974 5.0708 2.75 6.57397 2.75 9V15C2.75 17.426 3.23974 18.9292 4.15527 19.8447C5.0708 20.7603 6.57397 21.25 9 21.25H15C17.426 21.25 18.9292 20.7603 19.8447 19.8447C20.7603 18.9292 21.25 17.426 21.25 15V9ZM22.75 15C22.75 17.574 22.2397 19.5708 20.9053 20.9053C19.5708 22.2397 17.574 22.75 15 22.75H9C6.42603 22.75 4.4292 22.2397 3.09473 20.9053C1.76026 19.5708 1.25 17.574 1.25 15V9C1.25 6.42603 1.76026 4.4292 3.09473 3.09473C4.4292 1.76026 6.42603 1.25 9 1.25H15C17.574 1.25 19.5708 1.76026 20.9053 3.09473C22.2397 4.4292 22.75 6.42603 22.75 9V15Z" fill="#1C252E"/>
<path d="M6.60956 13.5798C6.90246 13.2869 7.37722 13.2869 7.67011 13.5798L10.7101 16.6198C11.003 16.9127 11.003 17.3875 10.7101 17.6804C10.4173 17.9732 9.9425 17.9732 9.6496 17.6804L6.60956 14.6403C6.31667 14.3474 6.31667 13.8727 6.60956 13.5798Z" fill="#1C252E"/>
<path d="M9.42993 17.1499V6.8501C9.42993 6.43588 9.76572 6.1001 10.1799 6.1001C10.5941 6.1001 10.9299 6.43588 10.9299 6.8501V17.1499C10.9299 17.5641 10.5941 17.8999 10.1799 17.8999C9.76572 17.8999 9.42993 17.5641 9.42993 17.1499Z" fill="#1C252E"/>
<path d="M13.2897 6.31977C13.5826 6.02687 14.0574 6.02687 14.3503 6.31977L17.3903 9.35981C17.6832 9.6527 17.6832 10.1275 17.3903 10.4204C17.0974 10.7132 16.6227 10.7132 16.3298 10.4204L13.2897 7.38031C12.9968 7.08742 12.9968 6.61266 13.2897 6.31977Z" fill="#1C252E"/>
<path d="M13.0701 17.1499V6.8501C13.0701 6.43588 13.4059 6.1001 13.8201 6.1001C14.2343 6.1001 14.5701 6.43588 14.5701 6.8501V17.1499C14.5701 17.5641 14.2343 17.8999 13.8201 17.8999C13.4059 17.8999 13.0701 17.5641 13.0701 17.1499Z" fill="#1C252E"/>
</svg>
