<svg width="24" height="24" viewBox="0 0 24 24" fill="none" xmlns="http://www.w3.org/2000/svg">
<path d="M3.12012 13.3101C3.12012 10.1358 5.6959 7.56006 8.87012 7.56006H19.8701C20.2843 7.56006 20.6201 7.89585 20.6201 8.31006C20.6201 8.72427 20.2843 9.06006 19.8701 9.06006H8.87012C6.52433 9.06006 4.62012 10.9643 4.62012 13.3101C4.62012 15.6558 6.52433 17.5601 8.87012 17.5601H16.8701C17.2843 17.5601 17.6201 17.8958 17.6201 18.3101C17.6201 18.7243 17.2843 19.0601 16.8701 19.0601H8.87012C5.6959 19.0601 3.12012 16.4843 3.12012 13.3101Z" fill="#1C252E"/>
<path d="M17.0397 5.15973C17.3326 4.86684 17.8074 4.86684 18.1003 5.15973L20.6599 7.7193C20.9527 8.0122 20.9527 8.48696 20.6599 8.77985L18.1003 11.3404C17.8074 11.6332 17.3326 11.6332 17.0397 11.3404C16.7469 11.0475 16.7469 10.5727 17.0397 10.2799L19.069 8.24958L17.0397 6.22028C16.7468 5.92739 16.7468 5.45263 17.0397 5.15973Z" fill="#1C252E"/>
</svg>
