<svg width="24" height="24" viewBox="0 0 24 24" fill="none" xmlns="http://www.w3.org/2000/svg">
<path d="M21.25 9C21.25 6.57397 20.7603 5.0708 19.8447 4.15527C18.9292 3.23974 17.426 2.75 15 2.75H9C6.57397 2.75 5.0708 3.23974 4.15527 4.15527C3.23974 5.0708 2.75 6.57397 2.75 9V15C2.75 17.426 3.23974 18.9292 4.15527 19.8447C5.0708 20.7603 6.57397 21.25 9 21.25H15C17.426 21.25 18.9292 20.7603 19.8447 19.8447C20.7603 18.9292 21.25 17.426 21.25 15V9ZM22.75 15C22.75 17.574 22.2397 19.5708 20.9053 20.9053C19.5708 22.2397 17.574 22.75 15 22.75H9C6.42603 22.75 4.4292 22.2397 3.09473 20.9053C1.76026 19.5708 1.25 17.574 1.25 15V9C1.25 6.42603 1.76026 4.4292 3.09473 3.09473C4.4292 1.76026 6.42603 1.25 9 1.25H15C17.574 1.25 19.5708 1.76026 20.9053 3.09473C22.2397 4.4292 22.75 6.42603 22.75 9V15Z" fill="#1C252E"/>
<path d="M6.25 12.26C6.25 9.0858 8.82579 6.51001 12 6.51001C12.7034 6.51001 13.3265 6.62349 13.8857 6.79126C14.2824 6.91033 14.5077 7.32912 14.3887 7.72583C14.2696 8.12245 13.8508 8.34776 13.4541 8.22876C13.0134 8.09657 12.5365 8.01001 12 8.01001C9.65421 8.01001 7.75 9.91422 7.75 12.26C7.75 14.6058 9.65421 16.51 12 16.51C14.3458 16.51 16.25 14.6058 16.25 12.26C16.25 11.3841 15.9876 10.5767 15.5352 9.8938C15.3065 9.5485 15.4008 9.08348 15.7461 8.85474C16.0913 8.62619 16.5564 8.72054 16.7852 9.06567C17.3927 9.98277 17.75 11.076 17.75 12.26C17.75 15.4342 15.1742 18.01 12 18.01C8.82579 18.01 6.25 15.4342 6.25 12.26Z" fill="#1C252E"/>
<path d="M12.2278 5.1736C12.5404 4.90193 13.0147 4.9352 13.2864 5.24782L14.9465 7.15797C15.2181 7.47061 15.1849 7.94491 14.8723 8.21657C14.5597 8.48822 14.0855 8.45487 13.8137 8.14235L12.1536 6.23219C11.8819 5.91955 11.9152 5.4453 12.2278 5.1736Z" fill="#1C252E"/>
<path d="M13.9371 7.04458C14.2712 6.80016 14.7403 6.87283 14.9849 7.20669C15.2296 7.54093 15.1571 8.01087 14.8228 8.25552L12.8834 9.67544C12.5492 9.92008 12.0792 9.84752 11.8346 9.51333C11.5899 9.17912 11.6625 8.70917 11.9967 8.4645L13.9371 7.04458Z" fill="#1C252E"/>
</svg>
