<svg width="24" height="24" viewBox="0 0 24 24" fill="none" xmlns="http://www.w3.org/2000/svg">
<path d="M15.75 11.7104V9.93994C15.7498 9.47141 15.3728 9.09055 14.9004 9.09033H7.5C7.08579 9.09033 6.75 8.75455 6.75 8.34033C6.75 7.92612 7.08579 7.59033 7.5 7.59033H14.9004C16.2073 7.59055 17.2498 8.64906 17.25 9.93994V11.7104C17.2499 12.1246 16.9142 12.4604 16.5 12.4604C16.0858 12.4604 15.7501 12.1246 15.75 11.7104Z" fill="#1C252E"/>
<path d="M8.66113 6.12782C8.9549 5.83591 9.42969 5.83801 9.72168 6.13173C10.0136 6.42549 10.0125 6.90029 9.71875 7.19227L8.56152 8.34071L9.7207 9.49989C10.0133 9.79274 10.0133 10.2676 9.7207 10.5604C9.42789 10.8533 8.95307 10.8531 8.66016 10.5604L6.96973 8.87001C6.82892 8.7291 6.74971 8.53797 6.75 8.33876C6.75036 8.13955 6.8304 7.94894 6.97168 7.80849L8.66113 6.12782Z" fill="#1C252E"/>
<path d="M6.75 14.0605V12.29C6.75 11.8758 7.08579 11.54 7.5 11.54C7.91421 11.54 8.25 11.8758 8.25 12.29V14.0605C8.25026 14.529 8.62721 14.9099 9.09961 14.9102H16.5C16.9142 14.9102 17.25 15.2459 17.25 15.6602C17.2499 16.0743 16.9142 16.4102 16.5 16.4102H9.09961C7.79271 16.4099 6.75026 15.3514 6.75 14.0605Z" fill="#1C252E"/>
<path d="M14.2797 13.4399C14.5726 13.147 15.0474 13.147 15.3403 13.4399L17.0307 15.1303C17.1714 15.2712 17.2507 15.4625 17.2504 15.6616C17.2501 15.8607 17.17 16.0514 17.0288 16.1918L15.3383 17.8725C15.0445 18.1641 14.5697 18.1622 14.2778 17.8686C13.9861 17.5748 13.988 17.1 14.2817 16.808L15.437 15.6577L14.2797 14.5004C13.9868 14.2075 13.9868 13.7328 14.2797 13.4399Z" fill="#1C252E"/>
<path d="M21.25 12C21.25 6.89137 17.1086 2.75 12 2.75C6.89137 2.75 2.75 6.89137 2.75 12C2.75 17.1086 6.89137 21.25 12 21.25C17.1086 21.25 21.25 17.1086 21.25 12ZM22.75 12C22.75 17.9371 17.9371 22.75 12 22.75C6.06294 22.75 1.25 17.9371 1.25 12C1.25 6.06294 6.06294 1.25 12 1.25C17.9371 1.25 22.75 6.06294 22.75 12Z" fill="#1C252E"/>
</svg>
