<svg width="24" height="24" viewBox="0 0 24 24" fill="none" xmlns="http://www.w3.org/2000/svg">
<path d="M11.4145 1.53149C11.6736 1.2083 12.146 1.1562 12.4692 1.41528C12.7922 1.6743 12.8442 2.14587 12.5854 2.46899L10.605 4.93969C10.3458 5.26258 9.87434 5.31392 9.55126 5.05493C9.22808 4.79585 9.17597 4.3244 9.43505 4.00122L11.4145 1.53149Z" fill="#1C252E"/>
<path d="M2.35986 13.1094C2.35995 10.933 3.11167 8.94746 4.31006 7.34961C4.55862 7.01839 5.02855 6.95171 5.35986 7.2002C5.69105 7.44876 5.75872 7.9187 5.51025 8.25C4.48878 9.61197 3.85995 11.286 3.85986 13.1094C3.85986 17.605 7.50389 21.2498 11.9995 21.25C16.4953 21.25 20.1401 17.6052 20.1401 13.1094C20.1399 8.61376 16.4952 4.96973 11.9995 4.96973C11.3862 4.96976 10.7842 5.05139 10.1909 5.19043C9.78769 5.28483 9.38406 5.03408 9.28955 4.63086C9.19508 4.2276 9.44586 3.82401 9.84912 3.72949C10.5355 3.56864 11.2532 3.46976 11.9995 3.46973C17.3236 3.46973 21.6399 7.78533 21.6401 13.1094C21.6401 18.4336 17.3237 22.75 11.9995 22.75C6.67547 22.7498 2.35986 18.4335 2.35986 13.1094Z" fill="#1C252E"/>
<path d="M10.25 12.6104V10C10.25 9.58579 10.5858 9.25 11 9.25C11.4142 9.25 11.75 9.58579 11.75 10V12.6104C11.7501 12.7639 11.8092 12.9864 11.9395 13.2148C12.0698 13.4433 12.231 13.6067 12.3623 13.6846C12.3665 13.687 12.3709 13.6898 12.375 13.6924L14.2646 14.8623C14.6168 15.0803 14.7257 15.5424 14.5078 15.8945C14.2898 16.2466 13.8277 16.3555 13.4756 16.1377L11.585 14.9678V14.9668C11.1824 14.7243 10.8579 14.3476 10.6357 13.958C10.4112 13.5642 10.2501 13.0867 10.25 12.6104Z" fill="#1C252E"/>
</svg>
