<svg width="24" height="24" viewBox="0 0 24 24" fill="none" xmlns="http://www.w3.org/2000/svg">
<path d="M21.25 12C21.25 6.89137 17.1086 2.75 12 2.75C6.89137 2.75 2.75 6.89137 2.75 12C2.75 17.1086 6.89137 21.25 12 21.25C17.1086 21.25 21.25 17.1086 21.25 12ZM22.75 12C22.75 17.9371 17.9371 22.75 12 22.75C6.06294 22.75 1.25 17.9371 1.25 12C1.25 6.06294 6.06294 1.25 12 1.25C17.9371 1.25 22.75 6.06294 22.75 12Z" fill="#1C252E"/>
<path d="M15.5 11.25C15.9142 11.25 16.25 11.5858 16.25 12C16.25 12.4142 15.9142 12.75 15.5 12.75H9.5C9.08579 12.75 8.75 12.4142 8.75 12C8.75 11.5858 9.08579 11.25 9.5 11.25H15.5Z" fill="#1C252E"/>
<path d="M10.9697 8.46967C11.2626 8.17678 11.7373 8.17678 12.0302 8.46967C12.3231 8.76256 12.3231 9.23732 12.0302 9.53022L9.56049 11.9999L12.0302 14.4697C12.3231 14.7626 12.3231 15.2373 12.0302 15.5302C11.7373 15.8231 11.2626 15.8231 10.9697 15.5302L7.96967 12.5302C7.67678 12.2373 7.67678 11.7626 7.96967 11.4697L10.9697 8.46967Z" fill="#1C252E"/>
</svg>
