<svg width="24" height="24" viewBox="0 0 24 24" fill="none" xmlns="http://www.w3.org/2000/svg">
<path d="M20.5 21.25C20.9142 21.25 21.25 21.5858 21.25 22C21.25 22.4142 20.9142 22.75 20.5 22.75H3.5C3.08579 22.75 2.75 22.4142 2.75 22C2.75 21.5858 3.08579 21.25 3.5 21.25H20.5Z" fill="#1C252E"/>
<path d="M4.46967 2.96973C4.76256 2.67684 5.23732 2.67684 5.53022 2.96973L19.5302 16.9697C19.8231 17.2626 19.8231 17.7374 19.5302 18.0303C19.2373 18.3232 18.7626 18.3232 18.4697 18.0303L4.46967 4.03028C4.17678 3.73738 4.17678 3.26262 4.46967 2.96973Z" fill="#1C252E"/>
<path d="M4.25 13.7695V3.5C4.25 3.08579 4.58579 2.75 5 2.75H15.2695C15.6837 2.75 16.0195 3.08579 16.0195 3.5C16.0195 3.91421 15.6837 4.25 15.2695 4.25H5.75V13.7695C5.75 14.1837 5.41421 14.5195 5 14.5195C4.58579 14.5195 4.25 14.1837 4.25 13.7695Z" fill="#1C252E"/>
</svg>
