<svg width="24" height="24" viewBox="0 0 24 24" fill="none" xmlns="http://www.w3.org/2000/svg">
<path d="M12.0149 5.25757C13.4672 5.25757 14.7677 6.21075 15.678 7.78394L18.3586 12.4041L18.3596 12.405C19.27 13.9794 19.4443 15.5835 18.718 16.8416C17.9917 18.0994 16.5154 18.7498 14.6995 18.7498H9.33032C7.51434 18.7498 6.03803 18.0994 5.31177 16.8416C4.58545 15.5834 4.76051 13.9795 5.67114 12.405L8.35083 7.78394C9.26107 6.21049 10.5624 5.25758 12.0149 5.25757ZM12.0149 6.75757C11.2825 6.75758 10.3984 7.23967 9.64868 8.53589L6.96899 13.156C6.21993 14.4513 6.24447 15.4573 6.61059 16.0916C6.97691 16.726 7.8365 17.2498 9.33032 17.2498H14.6995C16.1933 17.2498 17.0529 16.726 17.4192 16.0916C17.7624 15.497 17.8058 14.5754 17.1926 13.3953L17.0608 13.156L14.3811 8.53687C13.6314 7.24063 12.7472 6.75757 12.0149 6.75757Z" fill="#1C252E"/>
</svg>
