<svg width="24" height="24" viewBox="0 0 24 24" fill="none" xmlns="http://www.w3.org/2000/svg">
<path d="M9.04004 5.39971C9.33294 5.10697 9.80774 5.10687 10.1006 5.39971C10.3933 5.69256 10.3933 6.1674 10.1006 6.46025L4.56055 11.9993L10.1006 17.5394C10.3934 17.8321 10.3931 18.307 10.1006 18.5999C9.80769 18.8928 9.33293 18.8928 9.04004 18.5999L2.96973 12.5306C2.82915 12.39 2.75008 12.1991 2.75 12.0003C2.75 11.8015 2.82917 11.6107 2.96973 11.47L9.04004 5.39971Z" fill="#1C252E"/>
<path d="M20.5 11.25C20.9142 11.25 21.25 11.5858 21.25 12C21.25 12.4142 20.9142 12.75 20.5 12.75H3.66992C3.25571 12.75 2.91992 12.4142 2.91992 12C2.91992 11.5858 3.25571 11.25 3.66992 11.25H20.5Z" fill="#1C252E"/>
</svg>
