<svg width="24" height="24" viewBox="0 0 24 24" fill="none" xmlns="http://www.w3.org/2000/svg">
<path d="M21.25 12C21.25 6.89137 17.1086 2.75 12 2.75C6.89137 2.75 2.75 6.89137 2.75 12C2.75 17.1086 6.89137 21.25 12 21.25C17.1086 21.25 21.25 17.1086 21.25 12ZM22.75 12C22.75 17.9371 17.9371 22.75 12 22.75C6.06294 22.75 1.25 17.9371 1.25 12C1.25 6.06294 6.06294 1.25 12 1.25C17.9371 1.25 22.75 6.06294 22.75 12Z" fill="#1C252E"/>
<path d="M14.5 11.25C14.9142 11.25 15.25 11.5858 15.25 12C15.25 12.4142 14.9142 12.75 14.5 12.75H8.5C8.08579 12.75 7.75 12.4142 7.75 12C7.75 11.5858 8.08579 11.25 8.5 11.25H14.5Z" fill="#1C252E"/>
<path d="M11.9697 8.46967C12.2626 8.17678 12.7373 8.17678 13.0302 8.46967L16.0302 11.4697C16.3231 11.7626 16.3231 12.2373 16.0302 12.5302L13.0302 15.5302C12.7373 15.8231 12.2626 15.8231 11.9697 15.5302C11.6768 15.2373 11.6768 14.7626 11.9697 14.4697L14.4394 11.9999L11.9697 9.53022C11.6768 9.23732 11.6768 8.76256 11.9697 8.46967Z" fill="#1C252E"/>
</svg>
