<svg width="24" height="24" viewBox="0 0 24 24" fill="none" xmlns="http://www.w3.org/2000/svg">
<path d="M21.25 12C21.25 6.89137 17.1086 2.75 12 2.75C6.89137 2.75 2.75 6.89137 2.75 12C2.75 17.1086 6.89137 21.25 12 21.25C17.1086 21.25 21.25 17.1086 21.25 12ZM22.75 12C22.75 17.9371 17.9371 22.75 12 22.75C6.06294 22.75 1.25 17.9371 1.25 12C1.25 6.06294 6.06294 1.25 12 1.25C17.9371 1.25 22.75 6.06294 22.75 12Z" fill="#1C252E"/>
<path d="M11.5275 9.15792C11.8218 8.9185 12.255 8.93514 12.5295 9.20871L16.0597 12.7292C16.3527 13.0217 16.3531 13.4966 16.0607 13.7898C15.7682 14.0828 15.2934 14.0831 15.0002 13.7907L11.9992 10.7985L8.9992 13.7907C8.7059 14.0832 8.23113 14.083 7.93865 13.7898C7.64618 13.4965 7.64732 13.0217 7.9406 12.7292L11.4699 9.20871L11.5275 9.15792Z" fill="#1C252E"/>
</svg>
