<svg width="24" height="24" viewBox="0 0 24 24" fill="none" xmlns="http://www.w3.org/2000/svg">
<path d="M21.25 12C21.25 6.89137 17.1086 2.75 12 2.75C6.89137 2.75 2.75 6.89137 2.75 12C2.75 17.1086 6.89137 21.25 12 21.25C17.1086 21.25 21.25 17.1086 21.25 12ZM22.75 12C22.75 17.9371 17.9371 22.75 12 22.75C6.06294 22.75 1.25 17.9371 1.25 12C1.25 6.06294 6.06294 1.25 12 1.25C17.9371 1.25 22.75 6.06294 22.75 12Z" fill="#1C252E"/>
<path d="M11.25 14.5V8.5C11.25 8.08579 11.5858 7.75 12 7.75C12.4142 7.75 12.75 8.08579 12.75 8.5V14.5C12.75 14.9142 12.4142 15.25 12 15.25C11.5858 15.25 11.25 14.9142 11.25 14.5Z" fill="#1C252E"/>
<path d="M14.4697 11.9697C14.7626 11.6768 15.2373 11.6768 15.5302 11.9697C15.8231 12.2626 15.8231 12.7373 15.5302 13.0302L12.5302 16.0302C12.2373 16.3231 11.7626 16.3231 11.4697 16.0302L8.46967 13.0302C8.17678 12.7373 8.17678 12.2626 8.46967 11.9697C8.76256 11.6768 9.23732 11.6768 9.53022 11.9697L11.9999 14.4394L14.4697 11.9697Z" fill="#1C252E"/>
</svg>
