<svg width="24" height="24" viewBox="0 0 24 24" fill="none" xmlns="http://www.w3.org/2000/svg">
<path d="M21.25 12C21.25 6.89226 17.1438 2.75 12 2.75C8.88795 2.75 6.55214 4.04366 4.97949 5.35547C4.36799 5.86559 3.87605 6.37725 3.50293 6.80957H6.44043C6.8543 6.8098 7.1902 7.1457 7.19043 7.55957C7.19043 7.97364 6.85445 8.30934 6.44043 8.30957H2C1.58579 8.30957 1.25 7.97378 1.25 7.55957V3C1.25 2.58579 1.58579 2.25 2 2.25C2.41421 2.25 2.75 2.58579 2.75 3V5.40332C3.10439 5.02496 3.52685 4.61428 4.01855 4.2041C5.7784 2.73606 8.4424 1.25 12 1.25C17.9762 1.25 22.75 6.06774 22.75 12C22.75 16.9894 19.352 21.181 14.7412 22.3955C14.3408 22.501 13.9309 22.2616 13.8252 21.8613C13.7197 21.4608 13.9588 21.0498 14.3594 20.9443C18.3283 19.8987 21.25 16.2904 21.25 12Z" fill="#1C252E"/>
<path d="M10.791 21.1719C11.1864 21.2235 11.59 21.25 12 21.25C12.4142 21.25 12.75 21.5858 12.75 22C12.75 22.4142 12.4142 22.75 12 22.75C11.5248 22.75 11.0563 22.7192 10.5967 22.6592C10.1861 22.6054 9.89664 22.229 9.9502 21.8184C10.0038 21.4077 10.3803 21.1183 10.791 21.1719ZM5.31836 19.4756C5.57076 19.1474 6.04176 19.0857 6.37012 19.3379C7.00683 19.8273 7.70863 20.236 8.45996 20.5479C8.84254 20.7066 9.02401 21.1457 8.86523 21.5283C8.70635 21.9107 8.26724 22.0923 7.88477 21.9336C7.01076 21.5709 6.19539 21.0956 5.45605 20.5273C5.12772 20.2749 5.06595 19.804 5.31836 19.4756ZM2.47168 15.1348C2.85426 14.976 3.29338 15.1575 3.45215 15.54C3.76397 16.2914 4.1727 16.9932 4.66211 17.6299C4.91431 17.9582 4.85264 18.4292 4.52441 18.6816C4.19604 18.9341 3.7251 18.8723 3.47266 18.5439C2.90436 17.8046 2.42914 16.9892 2.06641 16.1152C1.90768 15.7328 2.08932 15.2936 2.47168 15.1348ZM1.25 12C1.25 11.5858 1.58579 11.25 2 11.25C2.41421 11.25 2.75 11.5858 2.75 12C2.75 12.41 2.77649 12.8136 2.82812 13.209C2.8817 13.6197 2.59233 13.9962 2.18164 14.0498C1.77103 14.1034 1.39455 13.8139 1.34082 13.4033C1.28079 12.9437 1.25 12.4752 1.25 12Z" fill="#1C252E"/>
</svg>
