<svg width="24" height="24" viewBox="0 0 24 24" fill="none" xmlns="http://www.w3.org/2000/svg">
<path d="M2.58008 13.3199C2.58009 11.3864 3.16703 9.58209 4.16602 8.08362C4.39579 7.73925 4.86151 7.64608 5.20605 7.87561C5.55062 8.10532 5.64361 8.57103 5.41406 8.91565C4.57307 10.1771 4.08009 11.6936 4.08008 13.3199C4.08008 17.6957 7.62425 21.2398 12 21.2399C16.3758 21.2399 19.9199 17.6957 19.9199 13.3199C19.9199 8.9442 16.3758 5.40002 12 5.40002C11.0221 5.40003 10.1348 5.55655 9.3252 5.79846C8.92833 5.91707 8.51021 5.69143 8.3916 5.29456C8.27311 4.89774 8.49869 4.47955 8.89551 4.36096C9.8257 4.083 10.8582 3.90003 12 3.90002C17.2042 3.90002 21.4199 8.11577 21.4199 13.3199C21.4199 18.5242 17.2042 22.7399 12 22.7399C6.79582 22.7398 2.58008 18.5241 2.58008 13.3199Z" fill="#1C252E"/>
<path d="M10.1943 1.50781C10.4663 1.19539 10.9405 1.16261 11.2529 1.43457C11.5649 1.70649 11.5977 2.17987 11.3262 2.49219L8.43555 5.8125C8.16361 6.12471 7.6903 6.1575 7.37793 5.88574C7.0655 5.61378 7.03273 5.13957 7.30469 4.82715L10.1943 1.50781Z" fill="#1C252E"/>
<path d="M7.26447 4.87763C7.50875 4.5433 7.97785 4.47039 8.31233 4.71455L11.6824 7.17451C12.0167 7.41879 12.0897 7.88791 11.8455 8.22236C11.6013 8.55676 11.1322 8.62962 10.7977 8.38545L7.42756 5.92548C7.09323 5.68121 7.02032 5.2121 7.26447 4.87763Z" fill="#1C252E"/>
</svg>
