<svg width="24" height="24" viewBox="0 0 24 24" fill="none" xmlns="http://www.w3.org/2000/svg">
<path d="M17.2498 9.32961C17.2496 7.83098 16.7252 6.97165 16.0896 6.60304C15.4538 6.23443 14.4478 6.20538 13.155 6.938L13.156 6.93898L8.53687 9.61867L8.53589 9.61964C7.23977 10.3693 6.75765 11.2526 6.75757 11.9849C6.75757 12.7172 7.23966 13.6014 8.53589 14.3511L13.155 17.0308C14.4505 17.7801 15.4573 17.7553 16.0916 17.3892C16.7259 17.0229 17.2497 16.1639 17.2498 14.6704V9.32961ZM18.7498 14.6704C18.7497 16.4862 18.0992 17.9618 16.8416 18.688C15.5835 19.4143 13.9794 19.2401 12.405 18.3296L12.4041 18.3286L7.78394 15.6489C6.21079 14.7387 5.25757 13.4372 5.25757 11.9849C5.25765 10.623 6.09531 9.39391 7.49683 8.49562L7.78491 8.32082L12.4041 5.64113L12.4099 5.6382C13.9844 4.74397 15.5867 4.5769 16.8425 5.30519C18.0992 6.034 18.7496 7.50875 18.7498 9.32961V14.6704Z" fill="#1C252E"/>
</svg>
