<svg width="24" height="24" viewBox="0 0 24 24" fill="none" xmlns="http://www.w3.org/2000/svg">
<path d="M11.1498 8.96967C11.4427 8.67678 11.9175 8.67678 12.2104 8.96967L14.77 11.5292C15.0629 11.8221 15.0629 12.2969 14.77 12.5898L12.2104 15.1503C11.9175 15.4431 11.4427 15.4431 11.1498 15.1503C10.857 14.8575 10.857 14.3827 11.1498 14.0898L13.1791 12.0595L11.1498 10.0302C10.857 9.73732 10.857 9.26256 11.1498 8.96967Z" fill="#1C252E"/>
<path d="M14.1699 11.3101C14.5841 11.3101 14.9199 11.6458 14.9199 12.0601C14.9199 12.4743 14.5841 12.8101 14.1699 12.8101H4C3.58579 12.8101 3.25 12.4743 3.25 12.0601C3.25 11.6458 3.58579 11.3101 4 11.3101H14.1699Z" fill="#1C252E"/>
<path d="M19.25 12C19.25 9.68843 18.4271 7.89095 17.1406 6.66895C15.8483 5.44135 14.0406 4.75 12 4.75C11.5858 4.75 11.25 4.41421 11.25 4C11.25 3.58579 11.5858 3.25 12 3.25C14.3793 3.25 16.5712 4.05882 18.1738 5.58105C19.7824 7.10905 20.75 9.31157 20.75 12C20.75 14.6884 19.7824 16.8909 18.1738 18.4189C16.5712 19.9412 14.3793 20.75 12 20.75C11.5858 20.75 11.25 20.4142 11.25 20C11.25 19.5858 11.5858 19.25 12 19.25C14.0406 19.25 15.8483 18.5586 17.1406 17.3311C18.4271 16.1091 19.25 14.3116 19.25 12Z" fill="#1C252E"/>
</svg>
