<svg width="24" height="24" viewBox="0 0 24 24" fill="none" xmlns="http://www.w3.org/2000/svg">
<path d="M21.4699 1.46962C21.7628 1.17683 22.2376 1.17676 22.5304 1.46962C22.8232 1.76249 22.8232 2.2373 22.5304 2.53017L14.3302 10.7304C14.0373 11.0231 13.5625 11.0231 13.2697 10.7304C12.9768 10.4375 12.9769 9.96272 13.2697 9.66982L21.4699 1.46962Z" fill="#1C252E"/>
<path d="M12.25 6.16992C12.25 5.75571 12.5858 5.41992 13 5.41992C13.4142 5.41992 13.75 5.75571 13.75 6.16992V10.25H17.8301C18.2443 10.25 18.5801 10.5858 18.5801 11C18.58 11.4142 18.2442 11.75 17.8301 11.75H13C12.5858 11.75 12.25 11.4142 12.25 11V6.16992Z" fill="#1C252E"/>
<path d="M1.25 15V9C1.25 6.42603 1.76026 4.4292 3.09473 3.09473C4.4292 1.76026 6.42603 1.25 9 1.25H11C11.4142 1.25 11.75 1.58579 11.75 2C11.75 2.41421 11.4142 2.75 11 2.75H9C6.57397 2.75 5.0708 3.23974 4.15527 4.15527C3.23974 5.0708 2.75 6.57397 2.75 9V15C2.75 17.426 3.23974 18.9292 4.15527 19.8447C5.0708 20.7603 6.57397 21.25 9 21.25H15C17.426 21.25 18.9292 20.7603 19.8447 19.8447C20.7603 18.9292 21.25 17.426 21.25 15V13C21.25 12.5858 21.5858 12.25 22 12.25C22.4142 12.25 22.75 12.5858 22.75 13V15C22.75 17.574 22.2397 19.5708 20.9053 20.9053C19.5708 22.2397 17.574 22.75 15 22.75H9C6.42603 22.75 4.4292 22.2397 3.09473 20.9053C1.76026 19.5708 1.25 17.574 1.25 15Z" fill="#1C252E"/>
</svg>
