<svg width="24" height="24" viewBox="0 0 24 24" fill="none" xmlns="http://www.w3.org/2000/svg">
<path d="M21.25 9C21.25 6.57397 20.7603 5.0708 19.8447 4.15527C18.9292 3.23974 17.426 2.75 15 2.75H9C6.57397 2.75 5.0708 3.23974 4.15527 4.15527C3.23974 5.0708 2.75 6.57397 2.75 9V15C2.75 17.426 3.23974 18.9292 4.15527 19.8447C5.0708 20.7603 6.57397 21.25 9 21.25H15C17.426 21.25 18.9292 20.7603 19.8447 19.8447C20.7603 18.9292 21.25 17.426 21.25 15V9ZM22.75 15C22.75 17.574 22.2397 19.5708 20.9053 20.9053C19.5708 22.2397 17.574 22.75 15 22.75H9C6.42603 22.75 4.4292 22.2397 3.09473 20.9053C1.76026 19.5708 1.25 17.574 1.25 15V9C1.25 6.42603 1.76026 4.4292 3.09473 3.09473C4.4292 1.76026 6.42603 1.25 9 1.25H15C17.574 1.25 19.5708 1.76026 20.9053 3.09473C22.2397 4.4292 22.75 6.42603 22.75 9V15Z" fill="#1C252E"/>
<path d="M16.6198 13.2897C16.9127 12.9969 17.3875 12.9968 17.6804 13.2897C17.9732 13.5826 17.9732 14.0574 17.6804 14.3503L14.6403 17.3903C14.3474 17.6832 13.8727 17.6832 13.5798 17.3903C13.2869 17.0974 13.2869 16.6227 13.5798 16.3298L16.6198 13.2897Z" fill="#1C252E"/>
<path d="M17.1499 13.0701C17.5641 13.0701 17.8999 13.4059 17.8999 13.8201C17.8999 14.2343 17.5641 14.5701 17.1499 14.5701H6.8501C6.43588 14.5701 6.1001 14.2343 6.1001 13.8201C6.1001 13.4059 6.43588 13.0701 6.8501 13.0701H17.1499Z" fill="#1C252E"/>
<path d="M9.3598 6.60955C9.65269 6.31668 10.1275 6.31667 10.4203 6.60955C10.7132 6.90244 10.7132 7.37721 10.4203 7.6701L7.3803 10.7101C7.08742 11.003 6.61265 11.003 6.31976 10.7101C6.02687 10.4173 6.02688 9.94249 6.31976 9.64959L9.3598 6.60955Z" fill="#1C252E"/>
<path d="M17.1499 9.42993C17.5641 9.42993 17.8999 9.76572 17.8999 10.1799C17.8999 10.5941 17.5641 10.9299 17.1499 10.9299H6.8501C6.43588 10.9299 6.1001 10.5941 6.1001 10.1799C6.1001 9.76572 6.43588 9.42993 6.8501 9.42993H17.1499Z" fill="#1C252E"/>
</svg>
