<svg width="24" height="24" viewBox="0 0 24 24" fill="none" xmlns="http://www.w3.org/2000/svg">
<path d="M19.6699 11.4805V8.16016C19.6699 6.91437 18.6657 5.91016 17.4199 5.91016H3.58008C3.16586 5.91016 2.83008 5.57437 2.83008 5.16016C2.83008 4.74594 3.16586 4.41016 3.58008 4.41016H17.4199C19.4941 4.41016 21.1699 6.08594 21.1699 8.16016V11.4805C21.1698 11.8945 20.834 12.2305 20.4199 12.2305C20.0059 12.2304 19.6701 11.8945 19.6699 11.4805Z" fill="#1C252E"/>
<path d="M6.20996 1.46963C6.50286 1.17682 6.97764 1.17676 7.27051 1.46963C7.5633 1.76251 7.5633 2.23731 7.27051 2.53018L4.64062 5.16006L7.27051 7.78995C7.56317 8.08286 7.56333 8.55768 7.27051 8.85049C6.97768 9.14323 6.50285 9.14313 6.20996 8.85049L3.0498 5.69034C2.9092 5.54973 2.83013 5.35891 2.83008 5.16006C2.83008 4.96119 2.90921 4.77043 3.0498 4.62979L6.20996 1.46963Z" fill="#1C252E"/>
<path d="M2.83008 15.8403V12.52C2.83008 12.1058 3.16586 11.77 3.58008 11.77C3.99429 11.77 4.33008 12.1058 4.33008 12.52V15.8403C4.33024 17.086 5.33439 18.0903 6.58008 18.0903H20.4199C20.8341 18.0903 21.1699 18.4261 21.1699 18.8403C21.1698 19.2544 20.834 19.5903 20.4199 19.5903H6.58008C4.50597 19.5903 2.83024 17.9144 2.83008 15.8403Z" fill="#1C252E"/>
<path d="M16.7299 15.1498C17.0228 14.857 17.4976 14.857 17.7905 15.1498L20.9506 18.31C21.0912 18.4506 21.1704 18.6414 21.1704 18.8403C21.1703 19.0391 21.0912 19.2299 20.9506 19.3705L17.7905 22.5307C17.4976 22.8234 17.0228 22.8234 16.7299 22.5307C16.4371 22.2379 16.4372 21.7631 16.7299 21.4702L19.3598 18.8403L16.7299 16.2104C16.437 15.9175 16.437 15.4427 16.7299 15.1498Z" fill="#1C252E"/>
</svg>
