<svg width="24" height="24" viewBox="0 0 24 24" fill="none" xmlns="http://www.w3.org/2000/svg">
<path d="M13.2897 6.31977C13.5826 6.02688 14.0574 6.02687 14.3503 6.31977L17.3903 9.35981C17.6832 9.6527 17.6832 10.1275 17.3903 10.4204C17.0974 10.7132 16.6227 10.7132 16.3298 10.4204L13.2897 7.38031C12.9968 7.08742 12.9968 6.61266 13.2897 6.31977Z" fill="#1C252E"/>
<path d="M13.0701 17.1499V6.8501C13.0701 6.43588 13.4059 6.1001 13.8201 6.1001C14.2343 6.1001 14.5701 6.43588 14.5701 6.8501V17.1499C14.5701 17.5641 14.2343 17.8999 13.8201 17.8999C13.4059 17.8999 13.0701 17.5641 13.0701 17.1499Z" fill="#1C252E"/>
<path d="M6.60981 13.58C6.9027 13.2871 7.37746 13.2871 7.67035 13.58L10.7104 16.6201C11.0032 16.913 11.0033 17.3877 10.7104 17.6806C10.4175 17.9735 9.94274 17.9735 9.64984 17.6806L6.60981 14.6406C6.31691 14.3477 6.31691 13.8729 6.60981 13.58Z" fill="#1C252E"/>
<path d="M9.43018 17.1499V6.8501C9.43018 6.43588 9.76596 6.1001 10.1802 6.1001C10.5944 6.1001 10.9302 6.43588 10.9302 6.8501V17.1499C10.9302 17.5641 10.5944 17.8999 10.1802 17.8999C9.76596 17.8999 9.43018 17.5641 9.43018 17.1499Z" fill="#1C252E"/>
<path d="M21.25 12C21.25 6.89137 17.1086 2.75 12 2.75C6.89137 2.75 2.75 6.89137 2.75 12C2.75 17.1086 6.89137 21.25 12 21.25C17.1086 21.25 21.25 17.1086 21.25 12ZM22.75 12C22.75 17.9371 17.9371 22.75 12 22.75C6.06294 22.75 1.25 17.9371 1.25 12C1.25 6.06294 6.06294 1.25 12 1.25C17.9371 1.25 22.75 6.06294 22.75 12Z" fill="#1C252E"/>
</svg>
