<svg width="24" height="24" viewBox="0 0 24 24" fill="none" xmlns="http://www.w3.org/2000/svg">
<path d="M6.19935 2.46973C6.4922 2.17688 6.96699 2.17696 7.25989 2.46973L10.9806 6.18946C11.2733 6.48225 11.2731 6.95711 10.9806 7.25C10.6877 7.54287 10.213 7.54281 9.92005 7.25L6.72962 4.05957L3.54017 7.25C3.24727 7.5429 2.77251 7.5429 2.47962 7.25C2.18685 6.9571 2.18677 6.48231 2.47962 6.18946L6.19935 2.46973Z" fill="#1C252E"/>
<path d="M5.97998 21V3C5.97998 2.58579 6.31577 2.25 6.72998 2.25C7.14419 2.25 7.47998 2.58579 7.47998 3V21C7.47998 21.4142 7.14419 21.75 6.72998 21.75C6.31577 21.75 5.97998 21.4142 5.97998 21Z" fill="#1C252E"/>
<path d="M20.4601 16.7498C20.7531 16.4571 21.2279 16.4569 21.5207 16.7498C21.8133 17.0426 21.8133 17.5175 21.5207 17.8103L17.8 21.53C17.5071 21.8229 17.0323 21.8229 16.7394 21.53L13.0197 17.8103C12.7268 17.5174 12.7268 17.0427 13.0197 16.7498C13.3126 16.4569 13.7874 16.4569 14.0803 16.7498L17.2697 19.9392L20.4601 16.7498Z" fill="#1C252E"/>
<path d="M16.52 21V3C16.52 2.58579 16.8558 2.25 17.27 2.25C17.6842 2.25 18.02 2.58579 18.02 3V21C18.02 21.4142 17.6842 21.75 17.27 21.75C16.8558 21.75 16.52 21.4142 16.52 21Z" fill="#1C252E"/>
</svg>
