<svg width="24" height="24" viewBox="0 0 24 24" fill="none" xmlns="http://www.w3.org/2000/svg">
<path d="M21.25 12C21.25 6.89137 17.1086 2.75 12 2.75C6.89137 2.75 2.75 6.89137 2.75 12C2.75 17.1086 6.89137 21.25 12 21.25C17.1086 21.25 21.25 17.1086 21.25 12ZM22.75 12C22.75 17.9371 17.9371 22.75 12 22.75C6.06294 22.75 1.25 17.9371 1.25 12C1.25 6.06294 6.06294 1.25 12 1.25C17.9371 1.25 22.75 6.06294 22.75 12Z" fill="#1C252E"/>
<path d="M15.0003 10.2088C15.2936 9.91633 15.7684 9.91745 16.0609 10.2108C16.3533 10.504 16.3531 10.9788 16.0599 11.2713L12.5296 14.7908C12.2369 15.0827 11.7628 15.0827 11.47 14.7908L7.94075 11.2713C7.64752 10.9789 7.64654 10.5041 7.9388 10.2108C8.2312 9.91752 8.70602 9.91655 8.99934 10.2088L11.9993 13.201L15.0003 10.2088Z" fill="#1C252E"/>
</svg>
