<svg width="24" height="24" viewBox="0 0 24 24" fill="none" xmlns="http://www.w3.org/2000/svg">
<path d="M3.45866 14.9598C3.75127 14.6666 4.22702 14.6662 4.52019 14.9588L9.53972 19.9695C9.83273 20.2621 9.83324 20.7369 9.54069 21.0301C9.24811 21.3231 8.77329 21.3235 8.48015 21.0311L3.45964 16.0213C3.1665 15.7287 3.16608 15.2529 3.45866 14.9598Z" fill="#1C252E"/>
<path d="M8.26001 20.5V3.5C8.26001 3.08579 8.5958 2.75 9.01001 2.75C9.42422 2.75 9.76001 3.08579 9.76001 3.5V20.5C9.76001 20.9142 9.42422 21.25 9.01001 21.25C8.5958 21.25 8.26001 20.9142 8.26001 20.5Z" fill="#1C252E"/>
<path d="M14.4587 2.96977C14.7513 2.67663 15.227 2.67621 15.5202 2.9688L20.5397 7.97954C20.8327 8.27215 20.8332 8.74696 20.5407 9.04008C20.2481 9.33308 19.7733 9.33351 19.4801 9.04106L14.4596 4.0313C14.1665 3.73869 14.1661 3.26294 14.4587 2.96977Z" fill="#1C252E"/>
<path d="M14.24 20.5V3.5C14.24 3.08579 14.5758 2.75 14.99 2.75C15.4042 2.75 15.74 3.08579 15.74 3.5V20.5C15.74 20.9142 15.4042 21.25 14.99 21.25C14.5758 21.25 14.24 20.9142 14.24 20.5Z" fill="#1C252E"/>
</svg>
