<svg width="24" height="24" viewBox="0 0 24 24" fill="none" xmlns="http://www.w3.org/2000/svg">
<path d="M21.25 12C21.25 6.89137 17.1086 2.75 12 2.75C6.89137 2.75 2.75 6.89137 2.75 12C2.75 17.1086 6.89137 21.25 12 21.25C17.1086 21.25 21.25 17.1086 21.25 12ZM22.75 12C22.75 17.9371 17.9371 22.75 12 22.75C6.06294 22.75 1.25 17.9371 1.25 12C1.25 6.06294 6.06294 1.25 12 1.25C17.9371 1.25 22.75 6.06294 22.75 12Z" fill="#1C252E"/>
<path d="M15.9174 12.5624C15.9767 12.1527 16.3573 11.8687 16.767 11.9277C17.177 11.9868 17.462 12.3673 17.4028 12.7773C17.2418 13.8924 16.7452 14.9954 15.8706 15.8701L15.8686 15.872C13.7269 18.0017 10.2639 18.0035 8.13032 15.8701C7.83828 15.578 7.57915 15.2496 7.36665 14.8954C7.1539 14.5403 7.26947 14.0802 7.62446 13.8671C7.97965 13.654 8.44065 13.7688 8.65376 14.124C8.80124 14.3697 8.98295 14.6016 9.19087 14.8095C10.7371 16.3556 13.2528 16.3579 14.811 14.8085C15.4356 14.1835 15.7985 13.3867 15.9174 12.5624Z" fill="#1C252E"/>
<path d="M8.13016 8.12944C10.1971 6.06273 13.512 5.99969 15.6643 7.93412L15.8694 8.12846L15.8704 8.12944C16.1787 8.43774 16.4232 8.76555 16.6272 9.09428C16.8456 9.44618 16.7379 9.90902 16.386 10.1275C16.0341 10.3459 15.5713 10.2372 15.3528 9.88529C15.1971 9.63444 15.0221 9.40235 14.8108 9.19096C13.2526 7.64174 10.7369 7.64405 9.1907 9.18998C8.56443 9.81626 8.20122 10.6037 8.0823 11.4361C8.02364 11.846 7.64366 12.1314 7.23367 12.0728C6.82389 12.0141 6.53955 11.634 6.59793 11.2242C6.75902 10.0966 7.25643 9.00316 8.13016 8.12944Z" fill="#1C252E"/>
<path d="M7.07007 17.1797V14.5098C7.07007 14.0956 7.40585 13.7598 7.82007 13.7598H10.49C10.9042 13.7598 11.24 14.0956 11.24 14.5098C11.24 14.924 10.9042 15.2598 10.49 15.2598H8.57007V17.1797C8.57007 17.5939 8.23428 17.9297 7.82007 17.9297C7.40585 17.9297 7.07007 17.5939 7.07007 17.1797Z" fill="#1C252E"/>
<path d="M15.4299 6.81982C15.4299 6.40563 15.7657 6.06986 16.1799 6.06982C16.5941 6.06982 16.9299 6.40561 16.9299 6.81982V9.48975C16.9299 9.90396 16.5941 10.2397 16.1799 10.2397H13.51C13.0958 10.2397 12.76 9.90396 12.76 9.48975C12.76 9.07556 13.0958 8.73975 13.51 8.73975H15.4299V6.81982Z" fill="#1C252E"/>
</svg>
