<svg width="24" height="24" viewBox="0 0 24 24" fill="none" xmlns="http://www.w3.org/2000/svg">
<path d="M21.25 12C21.25 6.89137 17.1086 2.75 12 2.75C6.89137 2.75 2.75 6.89137 2.75 12C2.75 17.1086 6.89137 21.25 12 21.25C17.1086 21.25 21.25 17.1086 21.25 12ZM22.75 12C22.75 17.9371 17.9371 22.75 12 22.75C6.06294 22.75 1.25 17.9371 1.25 12C1.25 6.06294 6.06294 1.25 12 1.25C17.9371 1.25 22.75 6.06294 22.75 12Z" fill="#1C252E"/>
<path d="M11.25 15.5V9.5C11.25 9.08579 11.5858 8.75 12 8.75C12.4142 8.75 12.75 9.08579 12.75 9.5V15.5C12.75 15.9142 12.4142 16.25 12 16.25C11.5858 16.25 11.25 15.9142 11.25 15.5Z" fill="#1C252E"/>
<path d="M11.5263 7.91809C11.8209 7.67778 12.2556 7.69524 12.5302 7.96984L15.5302 10.9698C15.8231 11.2627 15.8231 11.7375 15.5302 12.0304C15.2373 12.3233 14.7626 12.3233 14.4697 12.0304L11.9999 9.56066L9.53022 12.0304C9.23732 12.3233 8.76256 12.3233 8.46967 12.0304C8.17678 11.7375 8.17678 11.2627 8.46967 10.9698L11.4697 7.96984L11.5263 7.91809Z" fill="#1C252E"/>
</svg>
