<svg width="24" height="24" viewBox="0 0 24 24" fill="none" xmlns="http://www.w3.org/2000/svg">
<path d="M21.25 12C21.25 6.89137 17.1086 2.75 12 2.75C6.89137 2.75 2.75 6.89137 2.75 12C2.75 17.1086 6.89137 21.25 12 21.25C17.1086 21.25 21.25 17.1086 21.25 12ZM22.75 12C22.75 17.9371 17.9371 22.75 12 22.75C6.06294 22.75 1.25 17.9371 1.25 12C1.25 6.06294 6.06294 1.25 12 1.25C17.9371 1.25 22.75 6.06294 22.75 12Z" fill="#1C252E"/>
<path d="M12.7294 7.94073C13.0219 7.64745 13.4966 7.64631 13.7899 7.93877C14.0832 8.23125 14.0834 8.70602 13.7909 8.99932L10.7987 11.9993L13.7909 15.0003C14.0833 15.2935 14.083 15.7683 13.7899 16.0608C13.4967 16.3532 13.0219 16.3529 12.7294 16.0599L9.20886 12.5296C8.91706 12.2369 8.917 11.7627 9.20886 11.47L12.7294 7.94073Z" fill="#1C252E"/>
</svg>
