<svg width="24" height="24" viewBox="0 0 24 24" fill="none" xmlns="http://www.w3.org/2000/svg">
<path d="M19.9694 14.4598C20.262 14.167 20.7369 14.1664 21.03 14.4588C21.3232 14.7514 21.3236 15.2271 21.0309 15.5203L16.0212 20.5399C15.7286 20.833 15.2528 20.8334 14.9597 20.5408C14.6668 20.2483 14.6664 19.7734 14.9587 19.4803L19.9694 14.4598Z" fill="#1C252E"/>
<path d="M20.5 14.24C20.9142 14.24 21.25 14.5758 21.25 14.99C21.25 15.4042 20.9142 15.74 20.5 15.74H3.5C3.08579 15.74 2.75 15.4042 2.75 14.99C2.75 14.5758 3.08579 14.24 3.5 14.24H20.5Z" fill="#1C252E"/>
<path d="M7.97944 3.45978C8.27205 3.16703 8.74693 3.16642 9.03998 3.45881C9.33317 3.75141 9.33356 4.22714 9.04096 4.52033L4.03119 9.53986C3.73859 9.83305 3.26286 9.83344 2.96967 9.54084C2.67683 9.24829 2.6764 8.7734 2.96869 8.48029L7.97944 3.45978Z" fill="#1C252E"/>
<path d="M20.5 8.26001C20.9142 8.26001 21.25 8.5958 21.25 9.01001C21.25 9.42422 20.9142 9.76001 20.5 9.76001H3.5C3.08579 9.76001 2.75 9.42422 2.75 9.01001C2.75 8.5958 3.08579 8.26001 3.5 8.26001H20.5Z" fill="#1C252E"/>
</svg>
