<svg width="24" height="24" viewBox="0 0 24 24" fill="none" xmlns="http://www.w3.org/2000/svg">
<path d="M1.25 12C1.25 6.06579 6.06579 1.25 12 1.25C12.4142 1.25 12.75 1.58579 12.75 2C12.75 2.41421 12.4142 2.75 12 2.75C6.89421 2.75 2.75 6.89421 2.75 12C2.75 17.1058 6.89421 21.25 12 21.25C17.1058 21.25 21.25 17.1058 21.25 12C21.25 11.5858 21.5858 11.25 22 11.25C22.4142 11.25 22.75 11.5858 22.75 12C22.75 17.9342 17.9342 22.75 12 22.75C6.06579 22.75 1.25 17.9342 1.25 12Z" fill="#1C252E"/>
<path d="M21.4699 1.46962C21.7628 1.17683 22.2376 1.17676 22.5304 1.46962C22.8232 1.76249 22.8232 2.2373 22.5304 2.53017L14.3302 10.7304C14.0373 11.0231 13.5625 11.0231 13.2697 10.7304C12.9768 10.4375 12.9769 9.96272 13.2697 9.66982L21.4699 1.46962Z" fill="#1C252E"/>
<path d="M12.25 6.16992C12.25 5.75571 12.5858 5.41992 13 5.41992C13.4142 5.41992 13.75 5.75571 13.75 6.16992V10.25H17.8301C18.2443 10.25 18.5801 10.5858 18.5801 11C18.58 11.4142 18.2442 11.75 17.8301 11.75H13C12.5858 11.75 12.25 11.4142 12.25 11V6.16992Z" fill="#1C252E"/>
</svg>
