<svg width="24" height="24" viewBox="0 0 24 24" fill="none" xmlns="http://www.w3.org/2000/svg">
<path d="M1.25 12C1.25 6.06579 6.06579 1.25 12 1.25C12.4142 1.25 12.75 1.58579 12.75 2C12.75 2.41421 12.4142 2.75 12 2.75C6.89421 2.75 2.75 6.89421 2.75 12C2.75 17.1058 6.89421 21.25 12 21.25C17.1058 21.25 21.25 17.1058 21.25 12C21.25 11.5858 21.5858 11.25 22 11.25C22.4142 11.25 22.75 11.5858 22.75 12C22.75 17.9342 17.9342 22.75 12 22.75C6.06579 22.75 1.25 17.9342 1.25 12Z" fill="#1C252E"/>
<path d="M20.6698 2.26991C20.9627 1.97712 21.4375 1.97705 21.7304 2.26991C22.0231 2.56278 22.0231 3.03759 21.7304 3.33046L13.5302 11.5307C13.2373 11.8234 12.7625 11.8234 12.4696 11.5307C12.1768 11.2378 12.1768 10.763 12.4696 10.4701L20.6698 2.26991Z" fill="#1C252E"/>
<path d="M21.25 6.83008V2.75H17.1699C16.7557 2.75 16.4199 2.41421 16.4199 2C16.4199 1.58579 16.7557 1.25 17.1699 1.25H22C22.4142 1.25004 22.75 1.58581 22.75 2V6.83008C22.75 7.24423 22.4142 7.58004 22 7.58008C21.5858 7.58008 21.25 7.24426 21.25 6.83008Z" fill="#1C252E"/>
</svg>
