<svg width="24" height="24" viewBox="0 0 24 24" fill="none" xmlns="http://www.w3.org/2000/svg">
<path d="M21.2339 12.0054C21.2339 6.90831 17.1024 2.77603 12.0054 2.77588C6.90822 2.77588 2.77588 6.90822 2.77588 12.0054C2.77603 17.1024 6.90831 21.2339 12.0054 21.2339C17.1023 21.2337 21.2337 17.1023 21.2339 12.0054ZM22.7339 12.0054C22.7337 17.9307 17.9307 22.7337 12.0054 22.7339C6.07989 22.7339 1.27603 17.9308 1.27588 12.0054C1.27588 6.07979 6.07979 1.27588 12.0054 1.27588C17.9308 1.27603 22.7339 6.07989 22.7339 12.0054Z" fill="#1C252E"/>
<path d="M5.60793 3.49026C5.90121 3.19805 6.37606 3.19907 6.66848 3.49221L13.5572 10.3975L13.5698 7.66018C13.5719 7.24617 13.9097 6.91227 14.3238 6.91409C14.7378 6.91605 15.0716 7.25299 15.0698 7.66702L15.0503 12.208C15.0489 12.5108 14.8655 12.7833 14.5855 12.8985C14.3053 13.0136 13.983 12.9488 13.7691 12.7344L5.60598 4.55081C5.31377 4.25753 5.31479 3.78268 5.60793 3.49026Z" fill="#1C252E"/>
<path d="M9.41431 11.1119C9.69436 10.9968 10.0167 11.0608 10.2307 11.275L18.3938 19.4479C18.6865 19.7409 18.6859 20.2167 18.3928 20.5094C18.0998 20.8018 17.6249 20.8013 17.3323 20.5084L10.4417 13.609L10.4299 16.3395C10.4279 16.7534 10.0909 17.0872 9.67701 17.0856C9.26283 17.0837 8.92816 16.7468 8.92994 16.3326L8.94947 11.8024L8.95924 11.6901C8.99906 11.4337 9.16948 11.2128 9.41431 11.1119Z" fill="#1C252E"/>
</svg>
