<svg width="24" height="24" viewBox="0 0 24 24" fill="none" xmlns="http://www.w3.org/2000/svg">
<path d="M1.72998 15.2399V15.11C1.72999 13.0315 2.10088 11.3593 3.06201 10.1578C4.04041 8.93487 5.51571 8.33943 7.3999 8.1637C7.81233 8.12525 8.17786 8.42803 8.21631 8.84046C8.25475 9.25288 7.95198 9.61842 7.53955 9.65686C5.88414 9.81119 4.86443 10.3051 4.23291 11.0944C3.58406 11.9054 3.22999 13.1685 3.22998 15.11V15.2399C3.22998 17.4007 3.66749 18.7194 4.46436 19.5162C5.26122 20.3129 6.57933 20.7496 8.73975 20.7496H15.2495C17.4102 20.7496 18.729 20.313 19.5259 19.5162C20.3227 18.7194 20.7603 17.4007 20.7603 15.2399V15.11C20.7602 13.1537 20.4008 11.8859 19.7427 11.0748C19.1013 10.2845 18.0634 9.79245 16.3755 9.6471C15.9629 9.61148 15.6573 9.24821 15.6929 8.83557C15.7285 8.42295 16.0917 8.11742 16.5044 8.15296C18.4163 8.3176 19.9141 8.90502 20.9077 10.1295C21.8846 11.3334 22.2603 13.0163 22.2603 15.11V15.2399C22.2603 17.549 21.8021 19.3612 20.5864 20.5768C19.3708 21.7923 17.5586 22.2496 15.2495 22.2496H8.73975C6.43087 22.2496 4.6194 21.7922 3.40381 20.5768C2.18818 19.3612 1.72998 17.549 1.72998 15.2399Z" fill="#1C252E"/>
<path d="M11.25 15V3.62012C11.25 3.2059 11.5858 2.87012 12 2.87012C12.4142 2.87012 12.75 3.2059 12.75 3.62012V15C12.75 15.4142 12.4142 15.75 12 15.75C11.5858 15.75 11.25 15.4142 11.25 15Z" fill="#1C252E"/>
<path d="M11.4693 1.96982C11.7622 1.67699 12.237 1.67712 12.5299 1.96982L15.8805 5.31943C16.1733 5.61222 16.1731 6.08706 15.8805 6.37997C15.5876 6.67287 15.1128 6.67287 14.8199 6.37997L11.9996 3.55966L9.18027 6.37997C8.88737 6.67287 8.41261 6.67287 8.11972 6.37997C7.82702 6.08706 7.82689 5.61225 8.11972 5.31943L11.4693 1.96982Z" fill="#1C252E"/>
</svg>
