<svg width="24" height="24" viewBox="0 0 24 24" fill="none" xmlns="http://www.w3.org/2000/svg">
<path d="M21.25 9C21.25 6.57397 20.7603 5.0708 19.8447 4.15527C18.9292 3.23974 17.426 2.75 15 2.75H9C6.57397 2.75 5.0708 3.23974 4.15527 4.15527C3.23974 5.0708 2.75 6.57397 2.75 9V15C2.75 17.426 3.23974 18.9292 4.15527 19.8447C5.0708 20.7603 6.57397 21.25 9 21.25H15C17.426 21.25 18.9292 20.7603 19.8447 19.8447C20.7603 18.9292 21.25 17.426 21.25 15V9ZM22.75 15C22.75 17.574 22.2397 19.5708 20.9053 20.9053C19.5708 22.2397 17.574 22.75 15 22.75H9C6.42603 22.75 4.4292 22.2397 3.09473 20.9053C1.76026 19.5708 1.25 17.574 1.25 15V9C1.25 6.42603 1.76026 4.4292 3.09473 3.09473C4.4292 1.76026 6.42603 1.25 9 1.25H15C17.574 1.25 19.5708 1.76026 20.9053 3.09473C22.2397 4.4292 22.75 6.42603 22.75 9V15Z" fill="#1C252E"/>
<path d="M6.36035 17.1904V14.4404C6.36035 14.0262 6.69614 13.6904 7.11035 13.6904H9.58984C10.0041 13.6904 10.3398 14.0262 10.3398 14.4404C10.3396 14.8544 10.0039 15.1904 9.58984 15.1904H8.68457C8.75894 15.2645 8.83657 15.3402 8.91895 15.415C9.69036 16.1155 10.7405 16.75 12 16.75C14.6258 16.75 16.75 14.6258 16.75 12C16.75 11.5858 17.0858 11.25 17.5 11.25C17.9142 11.25 18.25 11.5858 18.25 12C18.25 15.4542 15.4542 18.25 12 18.25C10.2197 18.25 8.82473 17.3549 7.91113 16.5254C7.89375 16.5096 7.87744 16.4923 7.86035 16.4766V17.1904C7.86012 17.6043 7.52425 17.9402 7.11035 17.9404C6.69628 17.9404 6.36058 17.6044 6.36035 17.1904ZM5.75 12C5.75 8.54757 8.52401 5.75 12 5.75C14.0575 5.75 15.5965 6.611 16.6064 7.4541C16.6561 7.49556 16.7028 7.53971 16.75 7.58105V6.80957C16.7502 6.39555 17.0859 6.05957 17.5 6.05957C17.9141 6.05957 18.2498 6.39555 18.25 6.80957V9.55957C18.25 9.97378 17.9142 10.3096 17.5 10.3096H15.0596C14.6456 10.3093 14.3096 9.97364 14.3096 9.55957C14.3098 9.1457 14.6457 8.8098 15.0596 8.80957H15.876C15.8028 8.74245 15.7267 8.67324 15.6455 8.60547C14.8229 7.91871 13.6121 7.25 12 7.25C9.35599 7.25 7.25 9.37243 7.25 12C7.25 12.4142 6.91421 12.75 6.5 12.75C6.08579 12.75 5.75 12.4142 5.75 12Z" fill="#1C252E"/>
</svg>
