<svg width="24" height="24" viewBox="0 0 24 24" fill="none" xmlns="http://www.w3.org/2000/svg">
<path d="M6.25 12.26C6.25 11.076 6.60727 9.98277 7.21484 9.06567C7.44359 8.72054 7.90866 8.62619 8.25391 8.85474C8.59918 9.08348 8.69351 9.5485 8.46484 9.8938C8.01242 10.5767 7.75 11.3841 7.75 12.26C7.75 14.6058 9.65421 16.51 12 16.51C14.3458 16.51 16.25 14.6058 16.25 12.26C16.25 9.91422 14.3458 8.01001 12 8.01001C11.4635 8.01001 10.9866 8.09657 10.5459 8.22876C10.1492 8.34776 9.73043 8.12245 9.61133 7.72583C9.49232 7.32912 9.71758 6.91033 10.1143 6.79126C10.6735 6.62349 11.2966 6.51001 12 6.51001C15.1742 6.51001 17.75 9.0858 17.75 12.26C17.75 15.4342 15.1742 18.01 12 18.01C8.82579 18.01 6.25 15.4342 6.25 12.26Z" fill="#1C252E"/>
<path d="M10.7138 5.24783C10.9856 4.93522 11.4598 4.9019 11.7724 5.17361C12.085 5.4453 12.1182 5.91958 11.8467 6.2322L10.1865 8.14236C9.91481 8.45492 9.44053 8.48817 9.1279 8.21658C8.81531 7.9449 8.78209 7.47062 9.05368 7.15798L10.7138 5.24783Z" fill="#1C252E"/>
<path d="M9.01448 7.20662C9.25915 6.87247 9.7291 6.79988 10.0633 7.04451L12.0028 8.46443C12.337 8.70908 12.4095 9.17901 12.1649 9.51326C11.9202 9.84717 11.4511 9.91983 11.117 9.67536L9.17659 8.25544C8.84244 8.01077 8.76985 7.54082 9.01448 7.20662Z" fill="#1C252E"/>
<path d="M21.25 9C21.25 6.57397 20.7603 5.0708 19.8447 4.15527C18.9292 3.23974 17.426 2.75 15 2.75H9C6.57397 2.75 5.0708 3.23974 4.15527 4.15527C3.23974 5.0708 2.75 6.57397 2.75 9V15C2.75 17.426 3.23974 18.9292 4.15527 19.8447C5.0708 20.7603 6.57397 21.25 9 21.25H15C17.426 21.25 18.9292 20.7603 19.8447 19.8447C20.7603 18.9292 21.25 17.426 21.25 15V9ZM22.75 15C22.75 17.574 22.2397 19.5708 20.9053 20.9053C19.5708 22.2397 17.574 22.75 15 22.75H9C6.42603 22.75 4.4292 22.2397 3.09473 20.9053C1.76026 19.5708 1.25 17.574 1.25 15V9C1.25 6.42603 1.76026 4.4292 3.09473 3.09473C4.4292 1.76026 6.42603 1.25 9 1.25H15C17.574 1.25 19.5708 1.76026 20.9053 3.09473C22.2397 4.4292 22.75 6.42603 22.75 9V15Z" fill="#1C252E"/>
</svg>
