<svg width="24" height="24" viewBox="0 0 24 24" fill="none" xmlns="http://www.w3.org/2000/svg">
<path d="M16.9096 8.96967C17.2025 8.67678 17.6773 8.67678 17.9702 8.96967L20.5297 11.5292C20.8226 11.8221 20.8226 12.2969 20.5297 12.5898L17.9702 15.1503C17.6773 15.4431 17.2025 15.4431 16.9096 15.1503C16.6167 14.8575 16.6168 14.3827 16.9096 14.0898L18.9389 12.0595L16.9096 10.0302C16.6167 9.73732 16.6167 9.26256 16.9096 8.96967Z" fill="#1C252E"/>
<path d="M19.9299 11.3101C20.3441 11.3101 20.6799 11.6458 20.6799 12.0601C20.6799 12.4743 20.3441 12.8101 19.9299 12.8101H9.76001C9.3458 12.8101 9.01001 12.4743 9.01001 12.0601C9.01001 11.6458 9.3458 11.3101 9.76001 11.3101H19.9299Z" fill="#1C252E"/>
<path d="M3.01001 12C3.01001 9.31157 3.97762 7.10905 5.58618 5.58105C7.18879 4.05882 9.38072 3.25 11.76 3.25C12.1742 3.25 12.51 3.58579 12.51 4C12.51 4.41421 12.1742 4.75 11.76 4.75C9.71945 4.75 7.91176 5.44135 6.61938 6.66895C5.33295 7.89095 4.51001 9.68843 4.51001 12C4.51001 14.3116 5.33295 16.1091 6.61938 17.3311C7.91176 18.5586 9.71945 19.25 11.76 19.25C12.1742 19.25 12.51 19.5858 12.51 20C12.51 20.4142 12.1742 20.75 11.76 20.75C9.38072 20.75 7.18879 19.9412 5.58618 18.4189C3.97762 16.8909 3.01001 14.6884 3.01001 12Z" fill="#1C252E"/>
</svg>
