<svg width="24" height="24" viewBox="0 0 24 24" fill="none" xmlns="http://www.w3.org/2000/svg">
<path d="M14.6704 5.25C16.4864 5.25009 17.9618 5.90126 18.688 7.15918C19.4143 8.41738 19.2403 10.0212 18.3296 11.5957L18.3286 11.5967L15.649 16.2168L15.648 16.2158C14.7377 17.7891 13.4373 18.7422 11.9849 18.7422C10.5324 18.7421 9.23105 17.7894 8.32083 16.2158L5.64114 11.5967L5.63821 11.5908C4.74396 10.0163 4.5769 8.41308 5.3052 7.15723C6.03405 5.90069 7.50887 5.25011 9.32962 5.25H14.6704ZM9.32962 6.75C7.83105 6.75011 6.97168 7.27457 6.60305 7.91016C6.23441 8.54584 6.20663 9.5511 6.93899 10.8438L9.61868 15.4639L9.61966 15.4648C10.3693 16.7607 11.2527 17.2421 11.9849 17.2422C12.7172 17.2422 13.6014 16.761 14.3511 15.4648L17.0318 10.8438C17.7804 9.54896 17.7551 8.54332 17.3892 7.90918C17.0229 7.27473 16.1641 6.75008 14.6704 6.75H9.32962Z" fill="#1C252E"/>
</svg>
