<svg width="24" height="24" viewBox="0 0 24 24" fill="none" xmlns="http://www.w3.org/2000/svg">
<path d="M20.7496 15.2703V8.74976C20.7496 6.58934 20.3129 5.27123 19.5162 4.47437C18.7194 3.6775 17.4007 3.23999 15.2399 3.23999H15.11C13.1537 3.24 11.8859 3.59942 11.0748 4.25757C10.2845 4.89894 9.79243 5.93689 9.64708 7.62476C9.61133 8.03722 9.2481 8.3429 8.83556 8.30737C8.42298 8.27179 8.11752 7.90843 8.15294 7.49585C8.31757 5.58401 8.90508 4.08618 10.1295 3.09253C11.3334 2.11568 13.0163 1.73999 15.11 1.73999H15.2399C17.549 1.73999 19.3611 2.19819 20.5768 3.41382C21.7921 4.62941 22.2496 6.44088 22.2496 8.74976V15.2703C22.2496 17.5791 21.7921 19.3906 20.5768 20.6062C19.3611 21.8218 17.549 22.28 15.2399 22.28H15.11C13.0315 22.28 11.3592 21.9091 10.1578 20.948C8.93473 19.9695 8.33935 18.4936 8.16368 16.6091C8.12549 16.1969 8.42816 15.8321 8.84044 15.7937C9.25287 15.7553 9.6184 16.058 9.65685 16.4705C9.81118 18.1259 10.305 19.1456 11.0943 19.7771C11.9054 20.426 13.1685 20.78 15.11 20.78H15.2399C17.4007 20.78 18.7194 20.3425 19.5162 19.5457C20.3129 18.7488 20.7496 17.4307 20.7496 15.2703Z" fill="#1C252E"/>
<path d="M14.8799 11.25C15.2941 11.25 15.6299 11.5858 15.6299 12C15.6299 12.4142 15.2941 12.75 14.8799 12.75H2C1.58579 12.75 1.25 12.4142 1.25 12C1.25 11.5858 1.58579 11.25 2 11.25H14.8799Z" fill="#1C252E"/>
<path d="M12.1198 8.11982C12.4127 7.82692 12.8875 7.82692 13.1804 8.11982L16.53 11.4694C16.8229 11.7623 16.8229 12.2371 16.53 12.53L13.1804 15.8806C12.8875 16.1733 12.4127 16.1733 12.1198 15.8806C11.827 15.5877 11.827 15.1129 12.1198 14.82L14.9392 11.9997L12.1198 9.18036C11.8269 8.88747 11.8269 8.41271 12.1198 8.11982Z" fill="#1C252E"/>
</svg>
