<svg width="24" height="24" viewBox="0 0 24 24" fill="none" xmlns="http://www.w3.org/2000/svg">
<path d="M21.25 12C21.25 6.89137 17.1086 2.75 12 2.75C6.89137 2.75 2.75 6.89137 2.75 12C2.75 17.1086 6.89137 21.25 12 21.25C17.1086 21.25 21.25 17.1086 21.25 12ZM22.75 12C22.75 17.9371 17.9371 22.75 12 22.75C6.06294 22.75 1.25 17.9371 1.25 12C1.25 6.06294 6.06294 1.25 12 1.25C17.9371 1.25 22.75 6.06294 22.75 12Z" fill="#1C252E"/>
<path d="M10.2106 7.9388C10.504 7.64654 10.9788 7.64752 11.2712 7.94075L14.7907 11.47C15.0826 11.7628 15.0826 12.2369 14.7907 12.5296L11.2712 16.0599C10.9787 16.3531 10.5039 16.3533 10.2106 16.0609C9.91733 15.7684 9.91621 15.2936 10.2087 15.0003L13.2009 11.9993L10.2087 8.99934C9.91643 8.70602 9.9174 8.2312 10.2106 7.9388Z" fill="#1C252E"/>
</svg>
