<svg width="24" height="24" viewBox="0 0 24 24" fill="none" xmlns="http://www.w3.org/2000/svg">
<path d="M21.25 9C21.25 6.57397 20.7603 5.0708 19.8447 4.15527C18.9292 3.23974 17.426 2.75 15 2.75H9C6.57397 2.75 5.0708 3.23974 4.15527 4.15527C3.23974 5.0708 2.75 6.57397 2.75 9V15C2.75 17.426 3.23974 18.9292 4.15527 19.8447C5.0708 20.7603 6.57397 21.25 9 21.25H15C17.426 21.25 18.9292 20.7603 19.8447 19.8447C20.7603 18.9292 21.25 17.426 21.25 15V9ZM22.75 15C22.75 17.574 22.2397 19.5708 20.9053 20.9053C19.5708 22.2397 17.574 22.75 15 22.75H9C6.42603 22.75 4.4292 22.2397 3.09473 20.9053C1.76026 19.5708 1.25 17.574 1.25 15V9C1.25 6.42603 1.76026 4.4292 3.09473 3.09473C4.4292 1.76026 6.42603 1.25 9 1.25H15C17.574 1.25 19.5708 1.76026 20.9053 3.09473C22.2397 4.4292 22.75 6.42603 22.75 9V15Z" fill="#1C252E"/>
<path d="M16.2495 12.3003C16.2495 11.0145 15.2052 9.97021 13.9194 9.97021H7.1499C6.73569 9.97021 6.3999 9.63443 6.3999 9.22021C6.3999 8.806 6.73569 8.47021 7.1499 8.47021H13.9194C16.0336 8.47021 17.7495 10.1861 17.7495 12.3003C17.7495 14.4145 16.0336 16.1304 13.9194 16.1304H8.99951C8.58553 16.1302 8.2496 15.7944 8.24951 15.3804C8.24951 14.9663 8.58548 14.6306 8.99951 14.6304H13.9194C15.2052 14.6304 16.2495 13.586 16.2495 12.3003Z" fill="#1C252E"/>
<path d="M8.03998 7.08995C8.33289 6.79722 8.80769 6.79711 9.10053 7.08995C9.39322 7.38281 9.39322 7.85765 9.10053 8.1505L8.05854 9.19152L9.10151 10.2413C9.39341 10.5351 9.39222 11.0099 9.09858 11.3019C8.80479 11.5938 8.33 11.5927 8.03803 11.2989L6.46772 9.71886C6.17658 9.42574 6.17763 8.95248 6.46967 8.66027L8.03998 7.08995Z" fill="#1C252E"/>
</svg>
