<svg width="24" height="24" viewBox="0 0 24 24" fill="none" xmlns="http://www.w3.org/2000/svg">
<path d="M13.8998 5.39972C14.1927 5.10683 14.6675 5.10683 14.9604 5.39972L21.0307 11.47C21.1712 11.6107 21.2504 11.8015 21.2504 12.0003C21.2503 12.1991 21.1713 12.39 21.0307 12.5306L14.9604 18.5999C14.6675 18.8928 14.1927 18.8928 13.8998 18.5999C13.6071 18.307 13.607 17.8322 13.8998 17.5394L19.4389 11.9993L13.8998 6.46027C13.607 6.16738 13.607 5.69262 13.8998 5.39972Z" fill="#1C252E"/>
<path d="M20.3301 11.25C20.7443 11.25 21.0801 11.5858 21.0801 12C21.0801 12.4142 20.7443 12.75 20.3301 12.75H3.5C3.08579 12.75 2.75 12.4142 2.75 12C2.75 11.5858 3.08579 11.25 3.5 11.25H20.3301Z" fill="#1C252E"/>
</svg>
