<svg width="24" height="24" viewBox="0 0 24 24" fill="none" xmlns="http://www.w3.org/2000/svg">
<path d="M12.0004 2.75C12.1992 2.75008 12.39 2.82915 12.5306 2.96973L18.6 9.04004C18.8929 9.33293 18.8929 9.80769 18.6 10.1006C18.307 10.3931 17.8322 10.3934 17.5394 10.1006L11.9994 4.56055L6.46031 10.1006C6.16746 10.3933 5.69262 10.3933 5.39977 10.1006C5.10693 9.80774 5.10703 9.33294 5.39977 9.04004L11.4701 2.96973L11.5843 2.87598C11.7066 2.79454 11.8513 2.75 12.0004 2.75Z" fill="#1C252E"/>
<path d="M11.25 20.5001V3.66998C11.25 3.25577 11.5858 2.91998 12 2.91998C12.4142 2.91998 12.75 3.25577 12.75 3.66998V20.5001C12.75 20.9142 12.4142 21.2501 12 21.2501C11.5858 21.2501 11.25 20.9142 11.25 20.5001Z" fill="#1C252E"/>
</svg>
