<svg width="24" height="24" viewBox="0 0 24 24" fill="none" xmlns="http://www.w3.org/2000/svg">
<path d="M21.25 9C21.25 6.57397 20.7603 5.0708 19.8447 4.15527C18.9292 3.23974 17.426 2.75 15 2.75H9C6.57397 2.75 5.0708 3.23974 4.15527 4.15527C3.23974 5.0708 2.75 6.57397 2.75 9V15C2.75 17.426 3.23974 18.9292 4.15527 19.8447C5.0708 20.7603 6.57397 21.25 9 21.25H15C17.426 21.25 18.9292 20.7603 19.8447 19.8447C20.7603 18.9292 21.25 17.426 21.25 15V9ZM22.75 15C22.75 17.574 22.2397 19.5708 20.9053 20.9053C19.5708 22.2397 17.574 22.75 15 22.75H9C6.42603 22.75 4.4292 22.2397 3.09473 20.9053C1.76026 19.5708 1.25 17.574 1.25 15V9C1.25 6.42603 1.76026 4.4292 3.09473 3.09473C4.4292 1.76026 6.42603 1.25 9 1.25H15C17.574 1.25 19.5708 1.76026 20.9053 3.09473C22.2397 4.4292 22.75 6.42603 22.75 9V15Z" fill="#1C252E"/>
<path d="M6.25 12.3003C6.25 10.1861 7.96586 8.47021 10.0801 8.47021H16.8496C17.2638 8.47021 17.5996 8.806 17.5996 9.22021C17.5996 9.63443 17.2638 9.97021 16.8496 9.97021H10.0801C8.79429 9.97021 7.75 11.0145 7.75 12.3003C7.75004 13.586 8.79431 14.6304 10.0801 14.6304H15C15.4142 14.6304 15.75 14.9662 15.75 15.3804C15.7499 15.7945 15.4142 16.1304 15 16.1304H10.0801C7.96589 16.1304 6.25004 14.4145 6.25 12.3003Z" fill="#1C252E"/>
<path d="M14.8996 7.08979C15.1925 6.79689 15.6673 6.79689 15.9601 7.08979L17.5305 8.6601C17.8224 8.95236 17.8226 9.42563 17.5314 9.71869L15.9621 11.2988C15.6701 11.5926 15.1954 11.5937 14.9016 11.3017C14.6078 11.0097 14.6057 10.535 14.8976 10.2412L15.9406 9.19135L14.8996 8.15033C14.6067 7.85744 14.6067 7.38268 14.8996 7.08979Z" fill="#1C252E"/>
</svg>
