<svg width="24" height="24" viewBox="0 0 24 24" fill="none" xmlns="http://www.w3.org/2000/svg">
<path d="M13.9099 11.1498C14.2028 10.857 14.6775 10.857 14.9704 11.1498C15.2632 11.4427 15.2632 11.9175 14.9704 12.2104L12.4099 14.77C12.117 15.0629 11.6422 15.0629 11.3493 14.77L8.78974 12.2104C8.49685 11.9175 8.49685 11.4427 8.78974 11.1498C9.08263 10.857 9.55739 10.857 9.85029 11.1498L11.8796 13.1791L13.9099 11.1498Z" fill="#1C252E"/>
<path d="M11.1299 14.1699V4C11.1299 3.58579 11.4657 3.25 11.8799 3.25C12.2941 3.25 12.6299 3.58579 12.6299 4V14.1699C12.6299 14.5841 12.2941 14.9199 11.8799 14.9199C11.4657 14.9199 11.1299 14.5841 11.1299 14.1699Z" fill="#1C252E"/>
<path d="M3.25 12.1799C3.25 11.7657 3.58579 11.4299 4 11.4299C4.41421 11.4299 4.75 11.7657 4.75 12.1799C4.75 14.2205 5.44135 16.0282 6.66895 17.3206C7.89095 18.607 9.68843 19.4299 12 19.4299C14.3116 19.4299 16.1091 18.607 17.3311 17.3206C18.5586 16.0282 19.25 14.2205 19.25 12.1799C19.25 11.7657 19.5858 11.4299 20 11.4299C20.4142 11.4299 20.75 11.7657 20.75 12.1799C20.75 14.5592 19.9412 16.7512 18.4189 18.3538C16.8909 19.9623 14.6884 20.9299 12 20.9299C9.31157 20.9299 7.10905 19.9623 5.58105 18.3538C4.05882 16.7512 3.25 14.5592 3.25 12.1799Z" fill="#1C252E"/>
</svg>
