<svg width="24" height="24" viewBox="0 0 24 24" fill="none" xmlns="http://www.w3.org/2000/svg">
<path d="M18.7687 6.08018C18.7685 5.61453 18.3847 5.23058 17.919 5.23057H15.7687C15.4609 5.23051 15.1433 5.14583 14.879 5.03623C14.6142 4.92644 14.3284 4.76104 14.1085 4.54112L12.589 3.02061C12.262 2.69361 11.7169 2.69382 11.3897 3.02061L9.86924 4.54112C9.6493 4.76099 9.36349 4.92646 9.09873 5.03623C8.83436 5.14582 8.51684 5.23055 8.20908 5.23057H6.05869C5.59312 5.23074 5.20924 5.61464 5.20908 6.08018V8.23057C5.20907 8.53833 5.12434 8.85585 5.01475 9.12022C4.90497 9.38497 4.73949 9.67079 4.51963 9.89072L2.99912 11.4112C2.67232 11.7384 2.67212 12.2834 2.99912 12.6105L4.51963 14.13H4.51865C4.7411 14.3476 4.90624 14.632 5.01475 14.8937C5.12543 15.1607 5.20901 15.4799 5.20908 15.7901V17.9405C5.20913 18.4062 5.59313 18.79 6.05869 18.7901H8.20908C8.5169 18.7902 8.83433 18.8758 9.09873 18.9855C9.36354 19.0952 9.64929 19.2606 9.86924 19.4806L11.3897 21.0001C11.7169 21.327 12.2619 21.3272 12.589 21.0001L14.1085 19.4806C14.3284 19.2607 14.6143 19.0953 14.879 18.9855C15.1433 18.8759 15.4609 18.7902 15.7687 18.7901H17.919C18.3847 18.7901 18.7686 18.4063 18.7687 17.9405V15.7901C18.7687 15.4824 18.8544 15.1648 18.964 14.9005C19.0738 14.6358 19.2392 14.3498 19.4591 14.13L20.9786 12.6105C21.3057 12.2834 21.3056 11.7384 20.9786 11.4112L19.4591 9.89072C19.2391 9.67079 19.0738 9.38503 18.964 9.12022C18.8543 8.85582 18.7687 8.5384 18.7687 8.23057V6.08018ZM20.2687 8.23057C20.2687 8.28275 20.2894 8.4005 20.3497 8.546C20.4099 8.69096 20.4796 8.79017 20.5196 8.83018L22.0392 10.3497C22.9521 11.2626 22.9521 12.7581 22.0392 13.671L20.5196 15.1905C20.4796 15.2306 20.4099 15.3305 20.3497 15.4757C20.2896 15.6208 20.2688 15.7378 20.2687 15.7901V17.9405C20.2686 19.2346 19.2133 20.2901 17.919 20.2901H15.7687C15.7164 20.2902 15.5993 20.3111 15.4542 20.3712C15.309 20.4314 15.2091 20.5011 15.169 20.5411L13.6495 22.0606C12.7366 22.9735 11.2411 22.9735 10.3282 22.0606L8.80869 20.5411C8.76869 20.5011 8.6695 20.4313 8.52451 20.3712C8.37902 20.3109 8.26128 20.2902 8.20908 20.2901H6.05869C4.76459 20.29 3.70913 19.2345 3.70908 17.9405V15.7901C3.70899 15.7306 3.68799 15.6102 3.62901 15.4679C3.56915 15.3235 3.50128 15.2325 3.46885 15.2013C3.46537 15.1979 3.4625 15.1939 3.45908 15.1905L1.93858 13.671C1.02568 12.7581 1.02568 11.2626 1.93858 10.3497L3.45908 8.83018C3.49915 8.79002 3.56892 8.69086 3.62901 8.546C3.68933 8.4005 3.70906 8.28275 3.70908 8.23057V6.08018C3.70924 4.78618 4.76473 3.73074 6.05869 3.73057H8.20908C8.26128 3.73055 8.37902 3.71081 8.52451 3.65049C8.6694 3.59041 8.76855 3.52062 8.80869 3.48057L10.3282 1.96006C11.2411 1.04717 12.7366 1.04717 13.6495 1.96006L15.169 3.48057C15.2091 3.52062 15.3091 3.59033 15.4542 3.65049C15.5992 3.71055 15.7164 3.73048 15.7687 3.73057H17.919C19.2132 3.73058 20.2685 4.7861 20.2687 6.08018V8.23057Z" fill="#1C252E"/>
<path d="M14.4697 8.46967C14.7626 8.17678 15.2373 8.17678 15.5302 8.46967C15.8231 8.76256 15.8231 9.23732 15.5302 9.53022L9.53022 15.5302C9.23732 15.8231 8.76256 15.8231 8.46967 15.5302C8.17678 15.2373 8.17678 14.7626 8.46967 14.4697L14.4697 8.46967Z" fill="#1C252E"/>
<path d="M14.5034 13.5C15.0557 13.5 15.5034 13.9477 15.5034 14.5C15.5034 15.0523 15.0557 15.5 14.5034 15.5H14.4946C13.9423 15.5 13.4946 15.0523 13.4946 14.5C13.4946 13.9477 13.9423 13.5 14.4946 13.5H14.5034Z" fill="#1C252E"/>
<path d="M9.50342 8.5C10.0557 8.5 10.5034 8.94772 10.5034 9.5C10.5034 10.0523 10.0557 10.5 9.50342 10.5H9.49463C8.94234 10.5 8.49463 10.0523 8.49463 9.5C8.49463 8.94772 8.94234 8.5 9.49463 8.5H9.50342Z" fill="#1C252E"/>
</svg>
