<svg width="24" height="24" viewBox="0 0 24 24" fill="none" xmlns="http://www.w3.org/2000/svg">
<path d="M13 8.25C13.4142 8.25 13.75 8.58579 13.75 9C13.75 9.41421 13.4142 9.75 13 9.75H7C6.58579 9.75 6.25 9.41421 6.25 9C6.25 8.58579 6.58579 8.25 7 8.25H13Z" fill="#1C252E"/>
<path d="M21.2497 10.9695C21.2495 10.8509 21.1657 10.7372 21.0329 10.7068L20.9733 10.7H18.9196C18.5607 10.7001 18.245 10.8392 18.0173 11.0731C18.0128 11.0776 18.0081 11.0823 18.0036 11.0867C17.7709 11.3139 17.6278 11.6254 17.6208 11.9627L17.6266 12.1092L17.6276 12.118C17.6807 12.7528 18.2908 13.2995 19.0397 13.2996H20.9811C21.1436 13.2899 21.2497 13.1636 21.2497 13.0301V10.9695ZM22.7497 13.0301C22.7497 13.9942 21.9798 14.7654 21.027 14.7996H19.0397C17.6289 14.7995 16.2596 13.767 16.1325 12.242L16.1335 12.241C16.0593 11.4316 16.3442 10.6725 16.8512 10.1209L16.9557 10.0135C17.4667 9.49581 18.1652 9.20008 18.9196 9.20001H21.027C21.9797 9.23422 22.7495 10.0056 22.7497 10.9695V13.0301Z" fill="#1C252E"/>
<path d="M20.25 8.5C20.25 7.2847 19.8814 6.30298 19.2744 5.59961C18.6688 4.89803 17.7847 4.42534 16.6631 4.29492C16.651 4.29351 16.6389 4.29203 16.627 4.29004C16.4471 4.26006 16.2446 4.25 16 4.25H7C6.75575 4.25 6.52364 4.26792 6.30371 4.30176C6.29697 4.30279 6.28997 4.30286 6.2832 4.30371C5.17614 4.44266 4.30597 4.91714 3.70996 5.61621C3.11239 6.31731 2.75 7.29287 2.75 8.5V15.5C2.75 16.8296 3.18986 17.8793 3.90527 18.5947C4.62069 19.3101 5.67044 19.75 7 19.75H16C17.3296 19.75 18.3793 19.3101 19.0947 18.5947C19.8101 17.8793 20.25 16.8296 20.25 15.5V14.7998H19.04C17.6291 14.7998 16.2599 13.7672 16.1328 12.2422V12.2412C16.0543 11.3845 16.3789 10.584 16.9424 10.0264C17.4545 9.50041 18.159 9.20021 18.9199 9.2002H20.25V8.5ZM21.75 9.9502C21.7499 10.3643 21.4142 10.7002 21 10.7002H18.9199C18.5609 10.7002 18.2454 10.8393 18.0176 11.0732C18.0132 11.0778 18.0084 11.0825 18.0039 11.0869C17.7712 11.3142 17.6281 11.6255 17.6211 11.9629L17.627 12.1084L17.6279 12.1182H17.627C17.6801 12.753 18.2911 13.2998 19.04 13.2998H21C21.4142 13.2998 21.7499 13.6357 21.75 14.0498V15.5C21.75 17.1704 21.1899 18.6207 20.1553 19.6553C19.1207 20.6899 17.6704 21.25 16 21.25H7C5.32956 21.25 3.87931 20.6899 2.84473 19.6553C1.81014 18.6207 1.25 17.1704 1.25 15.5V8.5C1.25 6.98713 1.70843 5.65246 2.56836 4.64355C3.42572 3.63775 4.6425 3.00381 6.07617 2.81934V2.81836C6.07876 2.81796 6.08139 2.81778 6.08398 2.81738C6.08819 2.81685 6.09247 2.81596 6.09668 2.81543V2.81641C6.39025 2.77235 6.69147 2.75 7 2.75H16C16.2641 2.75 16.5484 2.76081 16.8359 2.80566C18.2942 2.97523 19.5358 3.60689 20.4102 4.62012C21.2832 5.63175 21.75 6.9753 21.75 8.5V9.9502Z" fill="#1C252E"/>
</svg>
