<svg width="24" height="24" viewBox="0 0 24 24" fill="none" xmlns="http://www.w3.org/2000/svg">
<path d="M19.75 11.2998V7.04004C19.75 5.01381 19.4952 4.04049 19.0098 3.52148C18.5409 3.02033 17.6686 2.75003 15.7803 2.75H8.21973C6.33142 2.75003 5.45908 3.02033 4.99023 3.52148C4.50482 4.04049 4.25 5.01381 4.25 7.04004V18.2998C4.25 18.9042 4.33408 19.3382 4.4502 19.623C4.56536 19.9054 4.68826 19.9909 4.74805 20.0166C4.80249 20.04 4.93018 20.0685 5.18164 19.96C5.44081 19.848 5.78215 19.6075 6.18164 19.1787L6.19922 19.1602C7.3364 17.9596 9.13136 18.0566 10.1211 19.3809H10.1201L11.1309 20.7305C11.3789 21.062 11.3109 21.5321 10.9795 21.7803C10.6478 22.0284 10.1778 21.9606 9.92969 21.6289L8.91992 20.2793H8.91895C8.4902 19.7056 7.78921 19.6608 7.28613 20.1943C7.28132 20.1994 7.27644 20.205 7.27148 20.21L7.26074 20.2197C6.7809 20.7312 6.28238 21.1183 5.77637 21.3369C5.25665 21.5613 4.68624 21.6227 4.1543 21.3936C3.62801 21.1668 3.27538 20.7138 3.06152 20.1895C2.84868 19.6675 2.75 19.0251 2.75 18.2998V7.04004C2.75 5.03648 2.96504 3.48963 3.89453 2.49609C4.84062 1.48482 6.32836 1.25002 8.21973 1.25H15.7803C17.6716 1.25002 19.1594 1.48482 20.1055 2.49609C21.035 3.48963 21.25 5.03648 21.25 7.04004V11.2998C21.25 11.714 20.9142 12.0498 20.5 12.0498C20.0858 12.0498 19.75 11.714 19.75 11.2998Z" fill="#1C252E"/>
<path d="M20.6504 18.2002C20.6504 16.8471 19.5532 15.7501 18.2002 15.75C16.8471 15.75 15.75 16.8471 15.75 18.2002C15.7501 19.5532 16.8471 20.6504 18.2002 20.6504C19.5531 20.6503 20.6503 19.5531 20.6504 18.2002ZM22.1504 18.2002C22.1503 20.3816 20.3816 22.1503 18.2002 22.1504C16.0187 22.1504 14.2501 20.3816 14.25 18.2002C14.25 16.0187 16.0187 14.25 18.2002 14.25C20.3816 14.2501 22.1504 16.0187 22.1504 18.2002Z" fill="#1C252E"/>
<path d="M20.4697 20.4697C20.7626 20.1768 21.2373 20.1768 21.5302 20.4697L22.5302 21.4697C22.8231 21.7626 22.8231 22.2373 22.5302 22.5302C22.2373 22.8231 21.7626 22.8231 21.4697 22.5302L20.4697 21.5302C20.1768 21.2373 20.1768 20.7626 20.4697 20.4697Z" fill="#1C252E"/>
<path d="M16 6.25C16.4142 6.25 16.75 6.58579 16.75 7C16.75 7.41421 16.4142 7.75 16 7.75H8C7.58579 7.75 7.25 7.41421 7.25 7C7.25 6.58579 7.58579 6.25 8 6.25H16Z" fill="#1C252E"/>
<path d="M15 10.25C15.4142 10.25 15.75 10.5858 15.75 11C15.75 11.4142 15.4142 11.75 15 11.75H9C8.58579 11.75 8.25 11.4142 8.25 11C8.25 10.5858 8.58579 10.25 9 10.25H15Z" fill="#1C252E"/>
</svg>
