<svg width="24" height="24" viewBox="0 0 24 24" fill="none" xmlns="http://www.w3.org/2000/svg">
<path d="M21.8984 9.28027C22.3127 9.28027 22.6484 9.61606 22.6484 10.0303C22.6484 10.4445 22.3127 10.7803 21.8984 10.7803H1.89844C1.48422 10.7803 1.14844 10.4445 1.14844 10.0303C1.14844 9.61606 1.48422 9.28027 1.89844 9.28027H21.8984Z" fill="#1C252E"/>
<path d="M1.14844 16.1396V7.91992C1.14845 6.32551 1.3207 5.03473 2.0293 4.1416C2.77146 3.2065 3.93968 2.89445 5.38574 2.81152L5.40137 2.81055C5.68255 2.8005 6.00436 2.79004 6.34863 2.79004H17.458C19.2274 2.79004 20.6343 2.99161 21.541 3.88477C22.4514 4.78164 22.6582 6.1774 22.6582 7.92969V12.3398C22.6582 12.7541 22.3224 13.0898 21.9082 13.0898C21.4941 13.0897 21.1582 12.754 21.1582 12.3398V7.92969C21.1582 6.17248 20.9152 5.37366 20.4883 4.95312C20.0575 4.52879 19.2386 4.29004 17.458 4.29004H6.34863C6.03546 4.29004 5.7388 4.29872 5.46191 4.30859C4.12458 4.38642 3.52964 4.66527 3.20508 5.07422C2.8465 5.52605 2.64845 6.33476 2.64844 7.91992V16.1396C2.64844 17.8971 2.89142 18.6966 3.31836 19.1172C3.74915 19.5415 4.56804 19.7803 6.34863 19.7803H11.458C11.8722 19.7803 12.208 20.1161 12.208 20.5303C12.2079 20.9444 11.8721 21.2803 11.458 21.2803H6.34863C4.57927 21.2803 3.17232 21.0787 2.26562 20.1855C1.35521 19.2886 1.14844 17.8921 1.14844 16.1396Z" fill="#1C252E"/>
<path d="M21.1484 18.0303C21.1484 16.2353 19.6934 14.7803 17.8984 14.7803C16.1035 14.7803 14.6484 16.2353 14.6484 18.0303C14.6484 19.8252 16.1035 21.2803 17.8984 21.2803C19.6934 21.2803 21.1484 19.8252 21.1484 18.0303ZM22.6484 18.0303C22.6484 20.6536 20.5218 22.7803 17.8984 22.7803C15.2751 22.7803 13.1484 20.6536 13.1484 18.0303C13.1484 15.4069 15.2751 13.2803 17.8984 13.2803C20.5218 13.2803 22.6484 15.4069 22.6484 18.0303Z" fill="#1C252E"/>
<path d="M16.3299 16.4991C16.6234 16.207 17.0982 16.2077 17.3904 16.501L19.5008 18.6211C19.793 18.9147 19.7914 19.3895 19.4979 19.6817C19.2043 19.9738 18.7295 19.9733 18.4373 19.6797L16.3279 17.5596C16.0358 17.2661 16.0366 16.7913 16.3299 16.4991Z" fill="#1C252E"/>
<path d="M18.4189 16.5291C18.7124 16.237 19.1872 16.2377 19.4794 16.5311C19.7715 16.8246 19.7707 17.2994 19.4775 17.5916L17.3573 19.702C17.0638 19.9942 16.589 19.9926 16.2968 19.6991C16.0046 19.4055 16.0052 18.9307 16.2988 18.6385L18.4189 16.5291Z" fill="#1C252E"/>
<path d="M9.89844 15.2803C10.3127 15.2803 10.6484 15.6161 10.6484 16.0303C10.6484 16.4445 10.3127 16.7803 9.89844 16.7803H5.89844C5.48422 16.7803 5.14844 16.4445 5.14844 16.0303C5.14844 15.6161 5.48422 15.2803 5.89844 15.2803H9.89844Z" fill="#1C252E"/>
</svg>
