<svg width="24" height="24" viewBox="0 0 24 24" fill="none" xmlns="http://www.w3.org/2000/svg">
<path d="M8.75 13.7498C8.75012 13.3356 9.08586 12.9998 9.5 12.9998C9.91414 12.9998 10.2499 13.3356 10.25 13.7498C10.25 14.3373 10.6952 14.7497 11.1699 14.7498H13.0498C13.3999 14.7498 13.7498 14.4425 13.75 13.9705C13.75 13.6248 13.6748 13.4954 13.6348 13.4441C13.5883 13.3846 13.4971 13.3112 13.2627 13.2273L10.2529 12.1785L9.97949 12.0691C9.7049 11.9445 9.4211 11.7631 9.19434 11.4744C8.88483 11.0802 8.75981 10.5876 8.75977 10.0203C8.75977 8.80589 9.70703 7.74001 10.96 7.73999H12.8398C14.2051 7.73999 15.2598 8.88754 15.2598 10.24C15.2598 10.6542 14.924 10.99 14.5098 10.99C14.0957 10.9899 13.7598 10.6541 13.7598 10.24C13.7598 9.65244 13.3146 9.23999 12.8398 9.23999H10.96C10.6129 9.24001 10.2598 9.55467 10.2598 10.0203C10.2598 10.3725 10.3361 10.4993 10.374 10.5476C10.4189 10.6047 10.5081 10.6759 10.7471 10.7615L13.7568 11.8123L13.7617 11.8132C14.1141 11.9387 14.5166 12.1361 14.8174 12.5212C15.1247 12.9149 15.25 13.4062 15.25 13.9705C15.2498 15.1979 14.2995 16.2498 13.0498 16.2498H11.1699C9.80469 16.2497 8.75 15.1022 8.75 13.7498Z" fill="#1C252E"/>
<path d="M11.25 16.5V7.5C11.25 7.08579 11.5858 6.75 12 6.75C12.4142 6.75 12.75 7.08579 12.75 7.5V16.5C12.75 16.9142 12.4142 17.25 12 17.25C11.5858 17.25 11.25 16.9142 11.25 16.5Z" fill="#1C252E"/>
<path d="M1.25 12C1.25 6.06579 6.06579 1.25 12 1.25C12.4142 1.25 12.75 1.58579 12.75 2C12.75 2.41421 12.4142 2.75 12 2.75C6.89421 2.75 2.75 6.89421 2.75 12C2.75 17.1058 6.89421 21.25 12 21.25C17.1058 21.25 21.25 17.1058 21.25 12C21.25 11.5858 21.5858 11.25 22 11.25C22.4142 11.25 22.75 11.5858 22.75 12C22.75 17.9342 17.9342 22.75 12 22.75C6.06579 22.75 1.25 17.9342 1.25 12Z" fill="#1C252E"/>
<path d="M16.25 3C16.25 2.58579 16.5858 2.25 17 2.25C17.4142 2.25 17.75 2.58579 17.75 3V6.25H21C21.4142 6.25 21.75 6.58579 21.75 7C21.75 7.41421 21.4142 7.75 21 7.75H17C16.5858 7.75 16.25 7.41421 16.25 7V3Z" fill="#1C252E"/>
<path d="M21.4697 1.46967C21.7626 1.17678 22.2373 1.17678 22.5302 1.46967C22.8231 1.76256 22.8231 2.23732 22.5302 2.53022L17.5302 7.53022C17.2373 7.82311 16.7626 7.82311 16.4697 7.53022C16.1768 7.23732 16.1768 6.76256 16.4697 6.46967L21.4697 1.46967Z" fill="#1C252E"/>
</svg>
