<svg width="24" height="24" viewBox="0 0 24 24" fill="none" xmlns="http://www.w3.org/2000/svg">
<path d="M7.92188 14.3301C7.92188 13.9159 8.25766 13.5801 8.67188 13.5801C9.08609 13.5801 9.42188 13.9159 9.42188 14.3301C9.42199 15.2404 10.11 15.91 10.8916 15.9102H13.4023C14.0263 15.9099 14.5918 15.3678 14.5918 14.6299C14.5918 14.1274 14.4835 13.8976 14.3877 13.7754C14.285 13.6444 14.1122 13.528 13.7715 13.4072V13.4062L9.74609 12.0088L9.74121 12.0068C9.29215 11.8477 8.80503 11.6092 8.44531 11.1504C8.07865 10.6826 7.92191 10.0873 7.92188 9.37012C7.92188 7.86823 9.09649 6.58984 10.6123 6.58984H13.1221C14.8001 6.58995 16.0918 8.00057 16.0918 9.66992C16.0918 10.0841 15.756 10.4199 15.3418 10.4199C14.9276 10.4199 14.5918 10.0841 14.5918 9.66992C14.5918 8.75942 13.9038 8.08996 13.1221 8.08984H10.6123C9.98812 8.08984 9.42188 8.632 9.42188 9.37012C9.42191 9.8726 9.5302 10.1024 9.62598 10.2246C9.7287 10.3556 9.90152 10.472 10.2422 10.5928H10.2412L14.2676 11.9912L14.2725 11.9932C14.7216 12.1523 15.2086 12.3907 15.5684 12.8496C15.9351 13.3174 16.0918 13.9126 16.0918 14.6299C16.0918 16.1316 14.9179 17.4099 13.4023 17.4102H10.8916C9.21364 17.41 7.922 15.9993 7.92188 14.3301Z" fill="#1C252E"/>
<path d="M11.25 18V6C11.25 5.58579 11.5858 5.25 12 5.25C12.4142 5.25 12.75 5.58579 12.75 6V18C12.75 18.4142 12.4142 18.75 12 18.75C11.5858 18.75 11.25 18.4142 11.25 18Z" fill="#1C252E"/>
<path d="M21.25 9C21.25 6.57397 20.7603 5.0708 19.8447 4.15527C18.9292 3.23974 17.426 2.75 15 2.75H9C6.57397 2.75 5.0708 3.23974 4.15527 4.15527C3.23974 5.0708 2.75 6.57397 2.75 9V15C2.75 17.426 3.23974 18.9292 4.15527 19.8447C5.0708 20.7603 6.57397 21.25 9 21.25H15C17.426 21.25 18.9292 20.7603 19.8447 19.8447C20.7603 18.9292 21.25 17.426 21.25 15V9ZM22.75 15C22.75 17.574 22.2397 19.5708 20.9053 20.9053C19.5708 22.2397 17.574 22.75 15 22.75H9C6.42603 22.75 4.4292 22.2397 3.09473 20.9053C1.76026 19.5708 1.25 17.574 1.25 15V9C1.25 6.42603 1.76026 4.4292 3.09473 3.09473C4.4292 1.76026 6.42603 1.25 9 1.25H15C17.574 1.25 19.5708 1.76026 20.9053 3.09473C22.2397 4.4292 22.75 6.42603 22.75 9V15Z" fill="#1C252E"/>
</svg>
