<svg width="24" height="24" viewBox="0 0 24 24" fill="none" xmlns="http://www.w3.org/2000/svg">
<path d="M13.75 12C13.75 11.0335 12.9665 10.25 12 10.25C11.0335 10.25 10.25 11.0335 10.25 12C10.25 12.9665 11.0335 13.75 12 13.75C12.9665 13.75 13.75 12.9665 13.75 12ZM15.25 12C15.25 13.7949 13.7949 15.25 12 15.25C10.2051 15.25 8.75 13.7949 8.75 12C8.75 10.2051 10.2051 8.75 12 8.75C13.7949 8.75 15.25 10.2051 15.25 12Z" fill="#1C252E"/>
<path d="M17.75 14.5V9.5C17.75 9.08579 18.0858 8.75 18.5 8.75C18.9142 8.75 19.25 9.08579 19.25 9.5V14.5C19.25 14.9142 18.9142 15.25 18.5 15.25C18.0858 15.25 17.75 14.9142 17.75 14.5Z" fill="#1C252E"/>
<path d="M8.25 18C8.25 16.2051 6.79493 14.75 5 14.75C3.20507 14.75 1.75 16.2051 1.75 18C1.75 19.7949 3.20507 21.25 5 21.25C6.79493 21.25 8.25 19.7949 8.25 18ZM9.75 18C9.75 20.6234 7.62335 22.75 5 22.75C2.37665 22.75 0.25 20.6234 0.25 18C0.25 15.3766 2.37665 13.25 5 13.25C7.62335 13.25 9.75 15.3766 9.75 18Z" fill="#1C252E"/>
<path d="M4.50012 17.6797V16.75C4.50012 16.3358 4.8359 16 5.25012 16C5.66433 16 6.00012 16.3358 6.00012 16.75V17.6797C6.00012 18.2816 5.69104 18.8595 5.14758 19.1807L4.38879 19.6416C4.03451 19.856 3.57306 19.7428 3.35852 19.3887C3.14408 19.0344 3.25727 18.5729 3.61145 18.3584L4.37219 17.8984L4.38391 17.8916C4.45318 17.8513 4.50012 17.7735 4.50012 17.6797Z" fill="#1C252E"/>
<path d="M21.25 15V9C21.25 7.39295 20.7942 6.36869 20.1143 5.7373C19.4242 5.09664 18.385 4.75 17 4.75H7C5.61505 4.75 4.57576 5.09664 3.88574 5.7373C3.20579 6.36869 2.75 7.39295 2.75 9V15.2002C2.7499 15.6143 2.41415 15.9502 2 15.9502C1.58585 15.9502 1.2501 15.6143 1.25 15.2002V9C1.25 7.10712 1.79429 5.63131 2.86426 4.6377C3.92424 3.65342 5.38503 3.25 7 3.25H17C18.615 3.25 20.0758 3.65342 21.1357 4.6377C22.2057 5.63131 22.75 7.10712 22.75 9V15C22.75 16.8929 22.2057 18.3687 21.1357 19.3623C20.0758 20.3466 18.615 20.75 17 20.75H8.5C8.08579 20.75 7.75 20.4142 7.75 20C7.75 19.5858 8.08579 19.25 8.5 19.25H17C18.385 19.25 19.4242 18.9034 20.1143 18.2627C20.7942 17.6313 21.25 16.607 21.25 15Z" fill="#1C252E"/>
</svg>
