<svg width="24" height="24" viewBox="0 0 24 24" fill="none" xmlns="http://www.w3.org/2000/svg">
<path d="M13.75 12C13.75 11.0335 12.9665 10.25 12 10.25C11.0335 10.25 10.25 11.0335 10.25 12C10.25 12.9665 11.0335 13.75 12 13.75C12.9665 13.75 13.75 12.9665 13.75 12ZM15.25 12C15.25 13.7949 13.7949 15.25 12 15.25C10.2051 15.25 8.75 13.7949 8.75 12C8.75 10.2051 10.2051 8.75 12 8.75C13.7949 8.75 15.25 10.2051 15.25 12Z" fill="#1C252E"/>
<path d="M17.75 14.5V9.5C17.75 9.08579 18.0858 8.75 18.5 8.75C18.9142 8.75 19.25 9.08579 19.25 9.5V14.5C19.25 14.9142 18.9142 15.25 18.5 15.25C18.0858 15.25 17.75 14.9142 17.75 14.5Z" fill="#1C252E"/>
<path d="M8.25 18C8.25 16.2042 6.79579 14.75 5 14.75C3.20421 14.75 1.75 16.2042 1.75 18C1.75 18.5333 1.88008 19.0396 2.1123 19.4814L2.21875 19.666L2.22461 19.6768L2.33496 19.8496C2.91372 20.6944 3.88832 21.25 5 21.25C6.18582 21.25 7.21556 20.6178 7.77539 19.6768L7.78125 19.666C8.07908 19.183 8.25 18.6094 8.25 18ZM9.75 18C9.75 18.8906 9.50074 19.7371 9.05859 20.4541L9.05762 20.4531C8.23605 21.8264 6.72983 22.75 5 22.75C3.27017 22.75 1.76395 21.8264 0.942383 20.4531C0.500257 19.7361 0.25 18.8906 0.25 18C0.25 15.3758 2.37579 13.25 5 13.25C7.62421 13.25 9.75 15.3758 9.75 18Z" fill="#1C252E"/>
<path d="M6.49219 17.2295C6.90618 17.2298 7.24219 17.5654 7.24219 17.9795C7.24219 18.3935 6.90618 18.7292 6.49219 18.7295H3.51172C3.09751 18.7295 2.76172 18.3937 2.76172 17.9795C2.76172 17.5653 3.09751 17.2295 3.51172 17.2295H6.49219Z" fill="#1C252E"/>
<path d="M4.25 19.5098V16.5195C4.25 16.1053 4.58579 15.7695 5 15.7695C5.41421 15.7695 5.75 16.1053 5.75 16.5195V19.5098C5.74987 19.9239 5.41413 20.2598 5 20.2598C4.58587 20.2598 4.25013 19.9239 4.25 19.5098Z" fill="#1C252E"/>
<path d="M21.25 15V9C21.25 7.39295 20.7942 6.36869 20.1143 5.7373C19.4242 5.09664 18.385 4.75 17 4.75H7C5.61505 4.75 4.57576 5.09664 3.88574 5.7373C3.20579 6.36869 2.75 7.39295 2.75 9V15.2998C2.75 15.714 2.41421 16.0498 2 16.0498C1.58579 16.0498 1.25 15.714 1.25 15.2998V9C1.25 7.10712 1.79429 5.63131 2.86426 4.6377C3.92424 3.65342 5.38503 3.25 7 3.25H17C18.615 3.25 20.0758 3.65342 21.1357 4.6377C22.2057 5.63131 22.75 7.10712 22.75 9V15C22.75 16.8929 22.2057 18.3687 21.1357 19.3623C20.0758 20.3466 18.615 20.75 17 20.75H8.5C8.08579 20.75 7.75 20.4142 7.75 20C7.75 19.5858 8.08579 19.25 8.5 19.25H17C18.385 19.25 19.4242 18.9034 20.1143 18.2627C20.7942 17.6313 21.25 16.607 21.25 15Z" fill="#1C252E"/>
</svg>
