<svg width="24" height="24" viewBox="0 0 24 24" fill="none" xmlns="http://www.w3.org/2000/svg">
<path d="M19.25 7.04004C19.25 5.59561 19.1147 4.67278 18.8496 4.05957C18.7746 3.98188 18.7067 3.95996 18.6299 3.95996C18.4143 3.96002 17.9606 4.12275 17.3184 4.81152C16.1793 6.0336 14.3707 5.93227 13.3711 4.60059V4.60156L12.3613 3.26172L12.3574 3.25684C12.0779 2.87943 11.7591 2.75 11.5 2.75C11.2409 2.75 10.9221 2.87943 10.6426 3.25684L10.6387 3.26172L9.62012 4.6084C8.63332 5.92876 6.84765 6.02923 5.70996 4.83984V4.84082L5.7002 4.83008C5.6941 4.82399 5.68752 4.81782 5.68164 4.81152C5.16495 4.25833 4.75581 4.03143 4.5 3.97363C4.33081 3.93543 4.23731 3.96615 4.14844 4.06152C3.88406 4.67474 3.75 5.59746 3.75 7.04004V16.96C3.75 18.4117 3.88557 19.337 4.15332 19.9502C4.24326 20.0385 4.33815 20.0646 4.50098 20.0273C4.75636 19.9688 5.16414 19.7425 5.68164 19.1885L5.70508 19.165C6.84251 17.9704 8.6329 18.0685 9.62109 19.3906H9.62012L10.6387 20.7383L10.6426 20.7432C10.9221 21.1206 11.2409 21.25 11.5 21.25C11.7591 21.25 12.0779 21.1206 12.3574 20.7432L12.3613 20.7383L13.3711 19.3984C14.3707 18.0673 16.1795 17.9666 17.3184 19.1885C17.9606 19.8773 18.4143 20.04 18.6299 20.04C18.715 20.04 18.7783 20.0182 18.8428 19.9561C19.1124 19.3429 19.25 18.4167 19.25 16.96V7.04004ZM4.2373 20.1963C4.23649 20.1919 4.23522 20.1877 4.23438 20.1836C4.23522 20.1879 4.23653 20.192 4.2373 20.1963ZM18.7646 20.1836C18.7638 20.1877 18.7635 20.192 18.7627 20.1963C18.7635 20.1921 18.7638 20.1878 18.7646 20.1836ZM20.75 16.96C20.75 18.4987 20.6133 19.7198 20.1797 20.6475C20.1719 20.6651 20.1675 20.6786 20.1641 20.6855C20.1446 20.7244 20.1113 20.7749 20.0664 20.8311L20.0693 20.833C19.71 21.2903 19.2047 21.54 18.6299 21.54C17.7855 21.54 16.9592 21.0028 16.2217 20.2119V20.2109C15.7211 19.6737 15.0108 19.7127 14.5703 20.2998L14.5693 20.3018L13.5615 21.6357L13.5625 21.6367C13.0421 22.3391 12.3007 22.75 11.5 22.75C10.7012 22.75 9.96165 22.341 9.44141 21.6416L8.42188 20.292L8.41895 20.2891C7.99023 19.7155 7.28916 19.6707 6.78613 20.2041C6.78103 20.2095 6.77577 20.2154 6.77051 20.2207L6.75977 20.2305C6.15248 20.8762 5.50146 21.3378 4.83594 21.4902C4.10027 21.6587 3.41038 21.4303 2.93555 20.8408L2.93945 20.8379C2.89145 20.7792 2.85619 20.726 2.83594 20.6855C2.83246 20.6786 2.8281 20.6651 2.82031 20.6475L2.74316 20.4707C2.37056 19.5664 2.25 18.403 2.25 16.96V7.04004C2.25 5.5144 2.38561 4.30171 2.81055 3.37695C2.81796 3.35862 2.82252 3.33834 2.83203 3.31934C2.87044 3.24267 2.91934 3.18218 2.96777 3.13184C3.43649 2.56541 4.1116 2.34855 4.83008 2.51074C5.49767 2.66149 6.15169 3.123 6.75977 3.76953L6.77051 3.7793L6.78613 3.7959C7.28916 4.32926 7.99023 4.28446 8.41895 3.71094L8.42188 3.70801L9.44141 2.35742C9.96162 1.65845 10.7014 1.25 11.5 1.25C12.2988 1.25 13.0384 1.65904 13.5586 2.3584L14.5693 3.69824L14.5703 3.7002C15.0108 4.28725 15.7211 4.32628 16.2217 3.78906V3.78809C16.9592 2.99721 17.7855 2.46001 18.6299 2.45996C19.1887 2.45996 19.6649 2.70579 20.0107 3.10938C20.0669 3.16324 20.1237 3.23107 20.168 3.31934C20.1775 3.33834 20.182 3.35862 20.1895 3.37695C20.6144 4.30171 20.75 5.5144 20.75 7.04004V16.96Z" fill="#1C252E"/>
<path d="M16 9.5C16.4142 9.5 16.75 9.83579 16.75 10.25C16.75 10.6642 16.4142 11 16 11H8C7.58579 11 7.25 10.6642 7.25 10.25C7.25 9.83579 7.58579 9.5 8 9.5H16Z" fill="#1C252E"/>
<path d="M14 13C14.4142 13 14.75 13.3358 14.75 13.75C14.75 14.1642 14.4142 14.5 14 14.5H8C7.58579 14.5 7.25 14.1642 7.25 13.75C7.25 13.3358 7.58579 13 8 13H14Z" fill="#1C252E"/>
</svg>
