<svg width="24" height="24" viewBox="0 0 24 24" fill="none" xmlns="http://www.w3.org/2000/svg">
<path d="M15.25 4.00977C15.2501 2.48098 16.5005 1.25025 18.0195 1.25H18.0273L18.2676 1.25781C19.3839 1.32329 20.411 1.77065 21.1963 2.4834L21.3604 2.63965L21.3643 2.64355C22.2141 3.50537 22.75 4.69138 22.75 6V8.41992C22.75 9.37049 22.4461 10.2199 21.833 10.833C21.2199 11.4461 20.3705 11.75 19.4199 11.75H16C15.5858 11.75 15.25 11.4142 15.25 11V4.00977ZM16.75 10.25H19.4199C20.0494 10.25 20.4906 10.0543 20.7725 9.77246C21.0543 9.49059 21.25 9.04936 21.25 8.41992V6C21.25 5.11058 20.8876 4.29801 20.2998 3.7002L20.0703 3.49219C19.5129 3.0336 18.7945 2.75794 18.0166 2.75C17.3176 2.75184 16.7501 3.32004 16.75 4.00977V10.25Z" fill="#1C252E"/>
<path d="M10.8594 20.0801C11.4687 19.4707 12.4454 19.3931 13.1387 19.9199L14.8496 21.1992C15.0189 21.323 15.25 21.1976 15.25 21V4C15.25 3.54996 15.3615 3.12572 15.5547 2.75H6C4.65358 2.75 3.8876 3.1456 3.44238 3.66113C2.97941 4.19725 2.75 4.99287 2.75 6V21C2.75 21.2157 2.98575 21.3247 3.14746 21.2021L3.15039 21.1992L4.86035 19.9199L4.99512 19.8281C5.6374 19.4332 6.46015 19.4963 7.04004 19.9795L7.16016 20.0898L7.16211 20.0908L8.82031 21.7598L8.85938 21.792C8.95735 21.8557 9.09472 21.8447 9.17969 21.7598L10.8594 20.0801ZM16.75 21C16.75 22.4417 15.1036 23.2563 13.9531 22.4023L13.9502 22.4004L12.2324 21.1143C12.1462 21.0482 12.0081 21.0524 11.9199 21.1406L10.2402 22.8203C9.55735 23.5032 8.44265 23.5032 7.75977 22.8203L7.75781 22.8184L6.09961 21.1504L6.06055 21.1172C5.97917 21.0605 5.87943 21.0557 5.79883 21.0957L5.75977 21.1201L4.0498 22.4004L4.04883 22.3994C2.89072 23.2728 1.25 22.4429 1.25 21V6C1.25 4.79713 1.52059 3.59204 2.30762 2.68066C3.11241 1.74895 4.34667 1.25 6 1.25H18C18.4142 1.25 18.75 1.58579 18.75 2C18.75 2.41421 18.4142 2.75 18 2.75C17.3142 2.75 16.75 3.31421 16.75 4V21Z" fill="#1C252E"/>
<path d="M12 12.26C12.4142 12.26 12.75 12.5958 12.75 13.01C12.75 13.4242 12.4142 13.76 12 13.76H9C8.58579 13.76 8.25 13.4242 8.25 13.01C8.25 12.5958 8.58579 12.26 9 12.26H12Z" fill="#1C252E"/>
<path d="M12 8.26001C12.4142 8.26001 12.75 8.5958 12.75 9.01001C12.75 9.42422 12.4142 9.76001 12 9.76001H9C8.58579 9.76001 8.25 9.42422 8.25 9.01001C8.25 8.5958 8.58579 8.26001 9 8.26001H12Z" fill="#1C252E"/>
<path d="M6.00439 12C6.55668 12 7.00439 12.4477 7.00439 13C7.00439 13.5523 6.55668 14 6.00439 14H5.99561C5.44332 14 4.99561 13.5523 4.99561 13C4.99561 12.4477 5.44332 12 5.99561 12H6.00439Z" fill="#1C252E"/>
<path d="M6.00439 8C6.55668 8 7.00439 8.44772 7.00439 9C7.00439 9.55228 6.55668 10 6.00439 10H5.99561C5.44332 10 4.99561 9.55228 4.99561 9C4.99561 8.44772 5.44332 8 5.99561 8H6.00439Z" fill="#1C252E"/>
</svg>
