<svg width="24" height="24" viewBox="0 0 24 24" fill="none" xmlns="http://www.w3.org/2000/svg">
<path d="M20.75 18.2402V17.7998H19.5996C18.1889 17.7996 16.8195 16.7671 16.6924 15.2422V15.2412C16.6182 14.4319 16.9042 13.6727 17.4111 13.1211L17.5156 13.0137C18.0267 12.4958 18.7259 12.2002 19.4805 12.2002H20.75V11.5098C20.7499 9.85416 19.3958 8.50012 17.7402 8.5H6.25977C4.60417 8.50012 3.25013 9.85416 3.25 11.5098V13.2402C3.24987 13.6543 2.91413 13.9902 2.5 13.9902C2.08587 13.9902 1.75013 13.6543 1.75 13.2402V11.5098C1.75013 9.02574 3.77573 7.00012 6.25977 7H17.7402C20.2243 7.00012 22.2499 9.02574 22.25 11.5098V12.9502C22.2499 13.3643 21.9142 13.7002 21.5 13.7002H19.4805C19.1214 13.7002 18.805 13.8393 18.5771 14.0732C18.5728 14.0777 18.568 14.0825 18.5635 14.0869C18.2977 14.3465 18.1493 14.716 18.1865 15.1084L18.1875 15.1182C18.2407 15.7528 18.8509 16.2996 19.5996 16.2998H21.5C21.9142 16.2998 22.2499 16.6357 22.25 17.0498V18.2402C22.2499 20.7243 20.2243 22.7499 17.7402 22.75H12.2598C11.8457 22.7499 11.5098 22.4141 11.5098 22C11.5098 21.5859 11.8457 21.2501 12.2598 21.25H17.7402C19.3958 21.2499 20.7499 19.8958 20.75 18.2402Z" fill="#1C252E"/>
<path d="M14.0996 7.74967V3.94986C14.0995 3.14242 13.293 2.58856 12.5459 2.87174H12.5449L4.60547 5.87174C3.78854 6.18087 3.25 6.96082 3.25 7.84049V12.4098C3.25 12.824 2.91421 13.1598 2.5 13.1598C2.08579 13.1598 1.75 12.824 1.75 12.4098V7.84049C1.75 6.34027 2.67133 4.99937 4.07422 4.46842H4.0752L12.0146 1.46842L12.1768 1.41275C13.8609 0.892662 15.5995 2.15529 15.5996 3.94986V7.74967C15.5996 8.16388 15.2638 8.49967 14.8496 8.49967C14.4356 8.49945 14.0996 8.16375 14.0996 7.74967Z" fill="#1C252E"/>
<path d="M21.8085 13.9697C21.8083 13.8511 21.7246 13.7374 21.5917 13.707L21.5322 13.7002H19.4784C19.1195 13.7003 18.8038 13.8394 18.5761 14.0732C18.5717 14.0778 18.567 14.0825 18.5624 14.0869C18.3297 14.3141 18.1867 14.6256 18.1796 14.9629L18.1855 15.1094L18.1864 15.1182C18.2395 15.753 18.8497 16.2997 19.5986 16.2998H21.54C21.7024 16.2901 21.8085 16.1638 21.8085 16.0303V13.9697ZM23.3085 16.0303C23.3085 16.9944 22.5387 17.7656 21.5859 17.7998H19.5986C18.1877 17.7997 16.8184 16.7671 16.6913 15.2422L16.6923 15.2412C16.6181 14.4318 16.903 13.6727 17.4101 13.1211L17.5146 13.0137C18.0256 12.496 18.7241 12.2003 19.4784 12.2002H21.5859C22.5386 12.2344 23.3083 13.0058 23.3085 13.9697V16.0303Z" fill="#1C252E"/>
<path d="M14 11.25C14.4142 11.25 14.75 11.5858 14.75 12C14.75 12.4142 14.4142 12.75 14 12.75H7C6.58579 12.75 6.25 12.4142 6.25 12C6.25 11.5858 6.58579 11.25 7 11.25H14Z" fill="#1C252E"/>
<path d="M8.75 18.9404V17.6602C8.75 17.4344 8.56566 17.25 8.33984 17.25H3C2.58579 17.25 2.25 16.9142 2.25 16.5C2.25 16.0858 2.58579 15.75 3 15.75H8.33984C9.39403 15.75 10.25 16.6059 10.25 17.6602V18.9404C10.2498 19.3544 9.91407 19.6904 9.5 19.6904C9.08593 19.6904 8.75023 19.3544 8.75 18.9404Z" fill="#1C252E"/>
<path d="M3.68945 14.7497C3.9823 14.4569 4.4571 14.457 4.75 14.7497C5.04289 15.0426 5.0429 15.5174 4.75 15.8103L4.06055 16.4997L4.75 17.1892C5.0429 17.4821 5.04289 17.9578 4.75 18.2507C4.45711 18.5432 3.98223 18.5434 3.68945 18.2507L2.46973 17.03C2.32915 16.8894 2.25 16.6986 2.25 16.4997C2.25006 16.3009 2.32913 16.1101 2.46973 15.9695L3.68945 14.7497Z" fill="#1C252E"/>
<path d="M2.25 20.6203V19.34C2.25 18.9258 2.58579 18.59 3 18.59C3.41421 18.59 3.75 18.9258 3.75 19.34V20.6203C3.75017 20.846 3.9345 21.0305 4.16016 21.0305H9.5C9.91421 21.0305 10.25 21.3662 10.25 21.7805C10.2498 22.1945 9.91407 22.5305 9.5 22.5305H4.16016C3.10602 22.5305 2.25017 21.6743 2.25 20.6203Z" fill="#1C252E"/>
<path d="M7.75092 20.03C8.04381 19.7371 8.51858 19.7371 8.81147 20.03L10.0312 21.2498C10.1718 21.3903 10.2508 21.5812 10.2509 21.78C10.2509 21.9789 10.1718 22.1697 10.0312 22.3103L8.81147 23.531C8.51863 23.8236 8.04376 23.8236 7.75092 23.531C7.45803 23.2381 7.45802 22.7624 7.75092 22.4695L8.44037 21.78L7.75092 21.0906C7.45803 20.7977 7.45803 20.3229 7.75092 20.03Z" fill="#1C252E"/>
</svg>
