<svg width="24" height="24" viewBox="0 0 24 24" fill="none" xmlns="http://www.w3.org/2000/svg">
<path d="M21.25 9C21.25 6.99464 20.9812 6.04177 20.4697 5.53027C19.9582 5.01878 19.0054 4.75 17 4.75H7C4.99464 4.75 4.04177 5.01878 3.53027 5.53027C3.03268 6.02787 2.76615 6.9432 2.75195 8.83887C4.18376 9.17849 5.25 10.4647 5.25 12C5.25 13.5352 4.18365 14.8205 2.75195 15.1602C2.76606 17.0565 3.03259 17.972 3.53027 18.4697C4.04177 18.9812 4.99464 19.25 7 19.25H17C19.0054 19.25 19.9582 18.9812 20.4697 18.4697C20.9217 18.0178 21.1823 17.2211 21.2373 15.6582C19.811 15.3147 18.75 14.0314 18.75 12.5C18.75 10.964 19.8172 9.67676 21.25 9.33789V9ZM22.75 10C22.75 10.4142 22.4142 10.75 22 10.75C21.0342 10.75 20.25 11.5342 20.25 12.5C20.25 13.4658 21.0342 14.25 22 14.25C22.4142 14.25 22.75 14.5858 22.75 15C22.75 16.9946 22.5188 18.5418 21.5303 19.5303C20.5418 20.5188 18.9946 20.75 17 20.75H7C5.00536 20.75 3.45823 20.5188 2.46973 19.5303C1.48122 18.5418 1.25 16.9946 1.25 15V14.5C1.25 14.0858 1.58579 13.75 2 13.75C2.96579 13.75 3.75 12.9658 3.75 12C3.75 11.0342 2.96579 10.25 2 10.25C1.58579 10.25 1.25 9.91421 1.25 9.5V9C1.25 7.00536 1.48122 5.45823 2.46973 4.46973C3.45823 3.48122 5.00536 3.25 7 3.25H17C18.9946 3.25 20.5418 3.48122 21.5303 4.46973C22.5188 5.45823 22.75 7.00536 22.75 9V10Z" fill="#1C252E"/>
<path d="M14.4697 8.21967C14.7626 7.92678 15.2373 7.92678 15.5302 8.21967C15.8231 8.51256 15.8231 8.98732 15.5302 9.28022L9.53022 15.2802C9.23732 15.5731 8.76256 15.5731 8.46967 15.2802C8.17678 14.9873 8.17678 14.5126 8.46967 14.2197L14.4697 8.21967Z" fill="#1C252E"/>
<path d="M15.0039 13.75C15.556 13.7502 16.0039 14.1979 16.0039 14.75C16.0039 15.3021 15.556 15.7498 15.0039 15.75H14.9941C14.442 15.7498 13.9941 15.3022 13.9941 14.75C13.9941 14.1978 14.442 13.7502 14.9941 13.75H15.0039Z" fill="#1C252E"/>
<path d="M9.00391 8.25C9.556 8.25023 10.0039 8.69785 10.0039 9.25C10.0039 9.80215 9.556 10.2498 9.00391 10.25H8.99414C8.44202 10.2498 7.99414 9.80216 7.99414 9.25C7.99414 8.69784 8.44202 8.2502 8.99414 8.25H9.00391Z" fill="#1C252E"/>
</svg>
