<svg width="24" height="24" viewBox="0 0 24 24" fill="none" xmlns="http://www.w3.org/2000/svg">
<path d="M19.75 11.2998V7.04004C19.75 5.01381 19.4952 4.04049 19.0098 3.52148C18.5409 3.02033 17.6686 2.75003 15.7803 2.75H8.21973C6.33142 2.75003 5.45908 3.02033 4.99023 3.52148C4.50482 4.04049 4.25 5.01381 4.25 7.04004V18.2998C4.25 18.9042 4.33408 19.3382 4.4502 19.623C4.56536 19.9054 4.68826 19.9909 4.74805 20.0166C4.80249 20.04 4.93018 20.0685 5.18164 19.96C5.44081 19.848 5.78215 19.6075 6.18164 19.1787L6.19922 19.1602C7.3364 17.9596 9.13136 18.0566 10.1211 19.3809H10.1201L11.1309 20.7305C11.3789 21.062 11.3109 21.5321 10.9795 21.7803C10.6478 22.0284 10.1778 21.9606 9.92969 21.6289L8.91992 20.2793H8.91895C8.4902 19.7056 7.78921 19.6608 7.28613 20.1943C7.28132 20.1994 7.27644 20.205 7.27148 20.21L7.26074 20.2197C6.7809 20.7312 6.28238 21.1183 5.77637 21.3369C5.25665 21.5613 4.68624 21.6227 4.1543 21.3936C3.62801 21.1668 3.27538 20.7138 3.06152 20.1895C2.84868 19.6675 2.75 19.0251 2.75 18.2998V7.04004C2.75 5.03648 2.96504 3.48963 3.89453 2.49609C4.84062 1.48482 6.32836 1.25002 8.21973 1.25H15.7803C17.6716 1.25002 19.1594 1.48482 20.1055 2.49609C21.035 3.48963 21.25 5.03648 21.25 7.04004V11.2998C21.25 11.714 20.9142 12.0498 20.5 12.0498C20.0858 12.0498 19.75 11.714 19.75 11.2998Z" fill="#1C252E"/>
<path d="M16 6.25C16.4142 6.25 16.75 6.58579 16.75 7C16.75 7.41421 16.4142 7.75 16 7.75H8C7.58579 7.75 7.25 7.41421 7.25 7C7.25 6.58579 7.58579 6.25 8 6.25H16Z" fill="#1C252E"/>
<path d="M15 10.25C15.4142 10.25 15.75 10.5858 15.75 11C15.75 11.4142 15.4142 11.75 15 11.75H9C8.58579 11.75 8.25 11.4142 8.25 11C8.25 10.5858 8.58579 10.25 9 10.25H15Z" fill="#1C252E"/>
<path d="M19.1346 13.4569C19.7976 13.3889 20.4077 13.6861 20.951 14.2293C21.4976 14.7759 21.799 15.3878 21.7333 16.0526C21.6714 16.6777 21.2987 17.1629 20.951 17.5106L17.411 21.0506L17.41 21.0496C17.2649 21.1991 17.0897 21.3099 16.9442 21.3826C16.7884 21.4605 16.5987 21.5312 16.4081 21.5613L16.3954 21.5633V21.5623L15.0458 21.7518L15.0467 21.7528C14.605 21.8158 14.1493 21.7 13.8202 21.3709C13.4911 21.0419 13.3753 20.586 13.4383 20.1444L13.6278 18.7957L13.6298 18.783C13.6603 18.5894 13.7329 18.4012 13.8104 18.2479C13.888 18.0946 13.9983 17.9224 14.1405 17.7801L17.6805 14.2401C18.0282 13.8924 18.5125 13.5208 19.1346 13.4569ZM19.288 14.949C19.1801 14.9601 19.0034 15.0383 18.7411 15.3006L15.201 18.8406C15.1988 18.8433 15.1941 18.8494 15.1874 18.8592C15.1756 18.8763 15.1622 18.8991 15.1493 18.9246C15.1363 18.9503 15.1259 18.9751 15.119 18.9949C15.1149 19.0066 15.113 19.0141 15.1122 19.0174L15.1112 19.0164L14.9374 20.2528L16.1747 20.0779C16.1785 20.077 16.1876 20.0757 16.201 20.0711C16.2224 20.0638 16.2478 20.0536 16.2733 20.0408C16.2989 20.028 16.3193 20.0151 16.3329 20.0057C16.3398 20.0009 16.3427 19.9979 16.3426 19.9979L19.8905 16.45C20.1528 16.1877 20.2304 16.0125 20.2411 15.9051C20.2478 15.8374 20.2438 15.6442 19.8905 15.2908C19.5447 14.945 19.3551 14.9422 19.288 14.949Z" fill="#1C252E"/>
<path d="M17.498 14.5576C17.897 14.4468 18.3108 14.6802 18.4218 15.0791C18.6514 15.9056 19.2935 16.5477 20.1201 16.7773C20.5191 16.8882 20.7524 17.3021 20.6416 17.7011C20.5306 18.1 20.1177 18.3333 19.7187 18.2226C18.3854 17.8523 17.347 16.8147 16.9765 15.4814C16.8657 15.0824 17.0992 14.6686 17.498 14.5576Z" fill="#1C252E"/>
</svg>
