<svg width="24" height="24" viewBox="0 0 24 24" fill="none" xmlns="http://www.w3.org/2000/svg">
<path d="M22 9.25C22.4142 9.25 22.75 9.58579 22.75 10C22.75 10.4142 22.4142 10.75 22 10.75H2C1.58579 10.75 1.25 10.4142 1.25 10C1.25 9.58579 1.58579 9.25 2 9.25H22Z" fill="#1C252E"/>
<path d="M1.23828 16.1094V7.88965C1.23829 6.29524 1.41053 5.00446 2.11914 4.11133C2.86131 3.17624 4.02952 2.86418 5.47559 2.78125L5.49121 2.78027C5.77239 2.77023 6.09421 2.75977 6.43848 2.75977H17.5479C19.3172 2.75977 20.7241 2.96134 21.6309 3.85449C22.5412 4.75137 22.748 6.14711 22.748 7.89941V12.3096C22.748 12.7238 22.4123 13.0596 21.998 13.0596C21.5839 13.0594 21.248 12.7237 21.248 12.3096V7.89941C21.248 6.14222 21.0051 5.34339 20.5781 4.92285C20.1473 4.49852 19.3284 4.25977 17.5479 4.25977H6.43848C6.12528 4.25977 5.82866 4.26845 5.55176 4.27832C4.21447 4.35615 3.6195 4.635 3.29492 5.04395C2.93634 5.49578 2.73829 6.3045 2.73828 7.88965V16.1094C2.73828 17.8668 2.98125 18.6663 3.4082 19.0869C3.839 19.5112 4.65788 19.75 6.43848 19.75H11.5479C11.9621 19.75 12.2979 20.0858 12.2979 20.5C12.2977 20.9141 11.962 21.25 11.5479 21.25H6.43848C4.66911 21.25 3.26218 21.0484 2.35547 20.1553C1.44505 19.2583 1.23828 17.8618 1.23828 16.1094Z" fill="#1C252E"/>
<path d="M10 15.25C10.4142 15.25 10.75 15.5858 10.75 16C10.75 16.4142 10.4142 16.75 10 16.75H6C5.58579 16.75 5.25 16.4142 5.25 16C5.25 15.5858 5.58579 15.25 6 15.25H10Z" fill="#1C252E"/>
<path d="M21.25 18C21.25 16.2042 19.7958 14.75 18 14.75C16.2042 14.75 14.75 16.2042 14.75 18C14.75 18.5333 14.8801 19.0396 15.1123 19.4814L15.2188 19.666L15.2246 19.6768L15.335 19.8496C15.9137 20.6945 16.8883 21.25 18 21.25C19.1858 21.25 20.2156 20.6178 20.7754 19.6768L20.7812 19.666C21.0791 19.183 21.25 18.6093 21.25 18ZM22.75 18C22.75 18.8906 22.5007 19.7371 22.0586 20.4541L22.0576 20.4531C21.2361 21.8264 19.7298 22.75 18 22.75C16.2702 22.75 14.7639 21.8264 13.9424 20.4531C13.5003 19.7362 13.25 18.8906 13.25 18C13.25 15.3758 15.3758 13.25 18 13.25C20.6242 13.25 22.75 15.3758 22.75 18Z" fill="#1C252E"/>
<path d="M19.0517 16.4686C19.3558 16.1874 19.831 16.2065 20.1122 16.5106C20.3931 16.8147 20.3742 17.2891 20.0703 17.5702L17.9404 19.5399C17.6446 19.8134 17.1861 19.8042 16.9013 19.5194L15.9111 18.5302C15.6182 18.2373 15.6182 17.7615 15.9111 17.4686C16.2039 17.1761 16.6788 17.1761 16.9716 17.4686L17.4511 17.9481L19.0517 16.4686Z" fill="#1C252E"/>
</svg>
