<svg width="24" height="24" viewBox="0 0 24 24" fill="none" xmlns="http://www.w3.org/2000/svg">
<path d="M20.75 18.2402V17.7998H19.5996C18.1888 17.7996 16.8195 16.7671 16.6924 15.2422V15.2412C16.6182 14.4318 16.9042 13.6727 17.4111 13.1211L17.5156 13.0137C18.0267 12.4958 18.7259 12.2002 19.4805 12.2002H20.75V11.5098C20.7499 9.85416 19.3958 8.50013 17.7402 8.5H6.25977C4.60417 8.50013 3.25013 9.85416 3.25 11.5098V14.5859C3.79268 14.3697 4.38333 14.25 5 14.25C7.62421 14.25 9.75 16.3758 9.75 19C9.75 19.808 9.54306 20.5785 9.1748 21.25H17.7402C19.3958 21.2499 20.7499 19.8958 20.75 18.2402ZM22.25 12.9502C22.2499 13.3643 21.9142 13.7002 21.5 13.7002H19.4805C19.1214 13.7002 18.805 13.8393 18.5771 14.0732C18.5728 14.0777 18.568 14.0825 18.5635 14.0869C18.2977 14.3465 18.1493 14.716 18.1865 15.1084L18.1875 15.1182C18.2407 15.7528 18.8509 16.2996 19.5996 16.2998H21.5C21.9142 16.2998 22.2499 16.6357 22.25 17.0498V18.2402C22.2499 20.7243 20.2243 22.7499 17.7402 22.75H7.62988C7.31468 22.75 7.03267 22.553 6.9248 22.2568C6.81699 21.9605 6.90683 21.6284 7.14844 21.4258C7.39137 21.222 7.60545 20.9679 7.77246 20.6816L7.78125 20.666C8.07909 20.183 8.25 19.6094 8.25 19C8.25 17.2042 6.79579 15.75 5 15.75C4.23848 15.75 3.53185 16.0172 2.96777 16.4668C2.74258 16.6463 2.43428 16.6806 2.1748 16.5557C1.91528 16.4306 1.75 16.1679 1.75 15.8799V11.5098C1.75013 9.02574 3.77574 7.00013 6.25977 7H17.7402C20.2243 7.00013 22.2499 9.02574 22.25 11.5098V12.9502Z" fill="#1C252E"/>
<path d="M14.0996 7.7497V3.94989C14.0995 3.14245 13.293 2.58859 12.5459 2.87177H12.5449L4.60547 5.87177C3.78854 6.1809 3.25 6.96086 3.25 7.84052V12.4099C3.25 12.8241 2.91421 13.1599 2.5 13.1599C2.08579 13.1599 1.75 12.8241 1.75 12.4099V7.84052C1.75 6.3403 2.67134 4.9994 4.07422 4.46845H4.0752L12.0146 1.46845L12.1768 1.41278C13.8609 0.892691 15.5995 2.15532 15.5996 3.94989V7.7497C15.5996 8.16391 15.2638 8.4997 14.8496 8.4997C14.4356 8.49949 14.0996 8.16378 14.0996 7.7497Z" fill="#1C252E"/>
<path d="M21.8085 13.9697C21.8083 13.8511 21.7246 13.7374 21.5917 13.707L21.5322 13.7002H19.4784C19.1195 13.7003 18.8038 13.8394 18.5761 14.0732C18.5717 14.0778 18.567 14.0825 18.5624 14.0869C18.3297 14.3141 18.1867 14.6256 18.1796 14.9629L18.1855 15.1094L18.1864 15.1182C18.2395 15.753 18.8497 16.2997 19.5986 16.2998H21.54C21.7024 16.2901 21.8085 16.1638 21.8085 16.0303V13.9697ZM23.3085 16.0303C23.3085 16.9944 22.5387 17.7656 21.5859 17.7998H19.5986C18.1877 17.7997 16.8184 16.7671 16.6913 15.2422L16.6923 15.2412C16.6181 14.4318 16.9031 13.6727 17.4101 13.1211L17.5146 13.0137C18.0256 12.496 18.7241 12.2003 19.4784 12.2002H21.5859C22.5386 12.2344 23.3083 13.0058 23.3085 13.9697V16.0303Z" fill="#1C252E"/>
<path d="M14 11.25C14.4142 11.25 14.75 11.5858 14.75 12C14.75 12.4142 14.4142 12.75 14 12.75H7C6.58579 12.75 6.25 12.4142 6.25 12C6.25 11.5858 6.58579 11.25 7 11.25H14Z" fill="#1C252E"/>
<path d="M8.25 19C8.25 17.2042 6.79579 15.75 5 15.75C4.23848 15.75 3.53185 16.0172 2.96777 16.4668L2.96582 16.4678C2.22084 17.0591 1.75 17.9747 1.75 19C1.75 19.5333 1.88008 20.0396 2.1123 20.4814L2.21875 20.666L2.22461 20.6768L2.33496 20.8496C2.91372 21.6944 3.88832 22.25 5 22.25C5.82263 22.25 6.56415 21.9497 7.12793 21.4424C7.13442 21.4365 7.14175 21.4314 7.14844 21.4258C7.39137 21.222 7.60545 20.9679 7.77246 20.6816L7.78125 20.666C8.07909 20.183 8.25 19.6094 8.25 19ZM9.75 19C9.75 19.8906 9.50073 20.7371 9.05859 21.4541L9.05762 21.4531C8.81045 21.8728 8.49492 22.2474 8.13086 22.5566C7.29466 23.3092 6.19728 23.75 5 23.75C3.27017 23.75 1.76395 22.8264 0.942383 21.4531C0.500265 20.7362 0.25 19.8906 0.25 19C0.25 17.5062 0.938383 16.1627 2.03223 15.2939L2.18848 15.1748C2.97833 14.5958 3.95153 14.25 5 14.25C7.62421 14.25 9.75 16.3758 9.75 19Z" fill="#1C252E"/>
<path d="M3.41875 17.4007C3.71097 17.1074 4.1858 17.1066 4.4793 17.3987L6.59941 19.5081C6.89294 19.8003 6.89347 20.2751 6.60137 20.5687C6.30917 20.8622 5.83441 20.8638 5.54082 20.5716L3.4207 18.4612C3.1274 18.169 3.12664 17.6942 3.41875 17.4007Z" fill="#1C252E"/>
<path d="M5.52093 17.4288C5.81444 17.1366 6.28926 17.1373 6.58147 17.4307C6.87356 17.7242 6.87277 18.199 6.57952 18.4913L4.4594 20.6016C4.16582 20.8938 3.69105 20.8923 3.39886 20.5987C3.10668 20.3051 3.10723 19.8303 3.40081 19.5381L5.52093 17.4288Z" fill="#1C252E"/>
</svg>
