<svg width="24" height="24" viewBox="0 0 24 24" fill="none" xmlns="http://www.w3.org/2000/svg">
<path d="M13.5 7.75C13.9142 7.75 14.25 8.08579 14.25 8.5C14.25 8.91421 13.9142 9.25 13.5 9.25H2C1.58579 9.25 1.25 8.91421 1.25 8.5C1.25 8.08579 1.58579 7.75 2 7.75H13.5Z" fill="#1C252E"/>
<path d="M8 15.75C8.41421 15.75 8.75 16.0858 8.75 16.5C8.75 16.9142 8.41421 17.25 8 17.25H6C5.58579 17.25 5.25 16.9142 5.25 16.5C5.25 16.0858 5.58579 15.75 6 15.75H8Z" fill="#1C252E"/>
<path d="M14.5 15.75C14.9142 15.75 15.25 16.0858 15.25 16.5C15.25 16.9142 14.9142 17.25 14.5 17.25H10.5C10.0858 17.25 9.75 16.9142 9.75 16.5C9.75 16.0858 10.0858 15.75 10.5 15.75H14.5Z" fill="#1C252E"/>
<path d="M1.25 16.1104V7.88965C1.25003 6.13876 1.45411 4.74287 2.36133 3.8457C3.26581 2.9514 4.67143 2.75 6.44043 2.75H13.5C13.9142 2.75 14.25 3.08579 14.25 3.5C14.25 3.91421 13.9142 4.25 13.5 4.25H6.44043C4.65943 4.25 3.84403 4.48891 3.41602 4.91211C2.99101 5.33237 2.75003 6.13113 2.75 7.88965V16.1104C2.75003 17.8689 2.99101 18.6676 3.41602 19.0879C3.84403 19.5111 4.65943 19.75 6.44043 19.75H17.5596C19.3406 19.75 20.156 19.5111 20.584 19.0879C21.009 18.6676 21.25 17.8689 21.25 16.1104V12.0303C21.25 11.6161 21.5858 11.2803 22 11.2803C22.4142 11.2803 22.75 11.6161 22.75 12.0303V16.1104C22.75 17.8612 22.5459 19.2571 21.6387 20.1543C20.7342 21.0486 19.3286 21.25 17.5596 21.25H6.44043C4.67143 21.25 3.26581 21.0486 2.36133 20.1543C1.45411 19.2571 1.25003 17.8612 1.25 16.1104Z" fill="#1C252E"/>
<path d="M22 5.5C22.4142 5.5 22.75 5.83579 22.75 6.25C22.75 6.66421 22.4142 7 22 7H16.5C16.0858 7 15.75 6.66421 15.75 6.25C15.75 5.83579 16.0858 5.5 16.5 5.5H22Z" fill="#1C252E"/>
<path d="M18.5 9V3.5C18.5 3.08579 18.8358 2.75 19.25 2.75C19.6642 2.75 20 3.08579 20 3.5V9C20 9.41421 19.6642 9.75 19.25 9.75C18.8358 9.75 18.5 9.41421 18.5 9Z" fill="#1C252E"/>
</svg>
