<svg width="24" height="24" viewBox="0 0 24 24" fill="none" xmlns="http://www.w3.org/2000/svg">
<path d="M19.7383 7.04004C19.7383 5.01381 19.4835 4.04049 18.998 3.52148C18.5292 3.02034 17.6569 2.75003 15.7686 2.75H8.20801C6.3197 2.75003 5.44736 3.02034 4.97852 3.52148C4.49311 4.04049 4.23828 5.01381 4.23828 7.04004V18.2969L4.24316 18.5166C4.26266 19.0109 4.34063 19.3758 4.44336 19.626C4.55946 19.9087 4.6831 19.9941 4.74414 20.0205C4.79969 20.0444 4.92837 20.0733 5.18066 19.9648C5.44022 19.8532 5.78126 19.6139 6.18066 19.1875C6.73144 18.5971 7.45978 18.2957 8.20117 18.3359C8.94286 18.3763 9.63456 18.7556 10.1182 19.4004H10.1191L11.126 20.7471C11.4106 21.1231 11.7315 21.2529 11.9932 21.2529C12.2549 21.2529 12.5757 21.1231 12.8604 20.7471L13.8682 19.4004L13.9609 19.2822C14.4381 18.7091 15.0897 18.3738 15.7852 18.3359C16.5266 18.2956 17.2549 18.5971 17.8057 19.1875L17.9541 19.3398C18.2926 19.6749 18.583 19.8715 18.8105 19.9697C19.063 20.0786 19.1899 20.0493 19.2432 20.0264C19.3017 20.0011 19.4243 19.9173 19.5391 19.6348C19.6548 19.3497 19.7383 18.9147 19.7383 18.3096V7.04004ZM21.2383 18.3096C21.2383 19.0343 21.1404 19.6765 20.9287 20.1982C20.716 20.7224 20.3643 21.1761 19.8379 21.4033C19.306 21.6329 18.7364 21.5707 18.2168 21.3467C17.7046 21.1257 17.1984 20.7332 16.7109 20.2129L16.71 20.2109C16.441 19.9223 16.1342 19.8194 15.8662 19.834C15.598 19.8487 15.3046 19.9849 15.0684 20.2998L15.0674 20.2988L14.0586 21.6494L14.0566 21.6523C13.5313 22.3463 12.7915 22.7529 11.9932 22.7529C11.1949 22.7529 10.456 22.3462 9.93066 21.6523L9.92773 21.6494L8.91797 20.2988V20.2998C8.68164 19.9848 8.38832 19.8486 8.12012 19.834C7.85225 19.8194 7.54626 19.9225 7.27734 20.2109L7.27539 20.2129C6.79024 20.7309 6.28542 21.1225 5.77344 21.3428C5.25396 21.5661 4.6842 21.6279 4.15234 21.3994C3.62583 21.1731 3.27119 20.721 3.05566 20.1963C2.84119 19.674 2.74101 19.0303 2.73828 18.3027V7.04004C2.73828 5.03648 2.95332 3.48963 3.88281 2.49609C4.8289 1.48482 6.31664 1.25002 8.20801 1.25H15.7686C17.6599 1.25002 19.1477 1.48482 20.0938 2.49609C21.0232 3.48963 21.2383 5.03648 21.2383 7.04004V18.3096Z" fill="#1C252E"/>
<path d="M14.75 9.25C15.1642 9.25 15.5 9.58579 15.5 10C15.5 10.4142 15.1642 10.75 14.75 10.75H9.25C8.83579 10.75 8.5 10.4142 8.5 10C8.5 9.58579 8.83579 9.25 9.25 9.25H14.75Z" fill="#1C252E"/>
</svg>
