<svg width="24" height="24" viewBox="0 0 24 24" fill="none" xmlns="http://www.w3.org/2000/svg">
<path d="M22 4.81006C22.4142 4.81006 22.75 5.14585 22.75 5.56006C22.75 5.97427 22.4142 6.31006 22 6.31006H12C11.5858 6.31006 11.25 5.97427 11.25 5.56006C11.25 5.14585 11.5858 4.81006 12 4.81006H22Z" fill="#1C252E"/>
<path d="M21.25 4.2002C21.25 3.31528 21.1211 3.06395 21.0293 2.97266C20.9354 2.87951 20.6768 2.75003 19.7803 2.75H14.2197C13.3232 2.75003 13.0646 2.87951 12.9707 2.97266C12.8789 3.06395 12.75 3.31528 12.75 4.2002V8.30957C12.75 9.19521 12.8789 9.44698 12.9707 9.53809C13.0647 9.63122 13.3236 9.75974 14.2197 9.75977H19.7803C20.6764 9.75974 20.9353 9.63122 21.0293 9.53809C21.1211 9.44698 21.25 9.19521 21.25 8.30957V4.2002ZM22.75 8.30957C22.75 9.18393 22.6591 10.0336 22.0859 10.6025C21.5149 11.1693 20.6634 11.2597 19.7803 11.2598H14.2197C13.3366 11.2597 12.4851 11.1693 11.9141 10.6025C11.3409 10.0336 11.25 9.18393 11.25 8.30957V4.2002C11.25 3.32584 11.3409 2.47612 11.9141 1.90723C12.4851 1.34059 13.3367 1.25002 14.2197 1.25H19.7803C20.6633 1.25002 21.5149 1.34059 22.0859 1.90723C22.6591 2.47612 22.75 3.32584 22.75 4.2002V8.30957Z" fill="#1C252E"/>
<path d="M12 16.3101C12.4142 16.3101 12.75 16.6458 12.75 17.0601C12.75 17.4743 12.4142 17.8101 12 17.8101H2C1.58579 17.8101 1.25 17.4743 1.25 17.0601C1.25 16.6458 1.58579 16.3101 2 16.3101H12Z" fill="#1C252E"/>
<path d="M11.25 15.7002C11.25 14.8153 11.1211 14.5639 11.0293 14.4727C10.9354 14.3795 10.6768 14.25 9.78027 14.25H4.21973C3.32316 14.25 3.06455 14.3795 2.9707 14.4727C2.87892 14.564 2.75 14.8153 2.75 15.7002V19.8096C2.75 20.6952 2.87891 20.947 2.9707 21.0381C3.06467 21.1312 3.32362 21.2597 4.21973 21.2598H9.78027C10.6764 21.2597 10.9353 21.1312 11.0293 21.0381C11.1211 20.947 11.25 20.6952 11.25 19.8096V15.7002ZM12.75 19.8096C12.75 20.6839 12.6591 21.5336 12.0859 22.1025C11.5149 22.6693 10.6634 22.7597 9.78027 22.7598H4.21973C3.33663 22.7597 2.48514 22.6693 1.91406 22.1025C1.34086 21.5336 1.25 20.6839 1.25 19.8096V15.7002C1.25 14.8258 1.34086 13.9761 1.91406 13.4072C2.48514 12.8406 3.3367 12.75 4.21973 12.75H9.78027C10.6633 12.75 11.5149 12.8406 12.0859 13.4072C12.6591 13.9761 12.75 14.8258 12.75 15.7002V19.8096Z" fill="#1C252E"/>
<path d="M21.2499 15C21.2499 14.5858 21.5857 14.25 21.9999 14.25C22.4141 14.25 22.7499 14.5858 22.7499 15C22.7499 19.2842 19.2841 22.75 14.9999 22.75C14.7297 22.75 14.4807 22.6043 14.3476 22.3691C14.2146 22.1341 14.2175 21.8459 14.3564 21.6143L15.4071 19.8643C15.6202 19.5093 16.0804 19.3937 16.4355 19.6064C16.7906 19.8195 16.9062 20.2806 16.6933 20.6357L16.4228 21.085C19.191 20.4419 21.2499 17.966 21.2499 15Z" fill="#1C252E"/>
<path d="M1.25 9C1.25 4.71579 4.71579 1.25 9 1.25C9.2702 1.25 9.51921 1.39573 9.65234 1.63086C9.78533 1.86586 9.78237 2.15415 9.64355 2.38574L8.59277 4.13574C8.37973 4.49074 7.91956 4.60631 7.56445 4.39355C7.20933 4.18049 7.0937 3.71942 7.30664 3.36426L7.57617 2.91406C4.80828 3.55737 2.75 6.03428 2.75 9C2.75 9.41421 2.41421 9.75 2 9.75C1.58579 9.75 1.25 9.41421 1.25 9Z" fill="#1C252E"/>
</svg>
