<svg width="24" height="24" viewBox="0 0 24 24" fill="none" xmlns="http://www.w3.org/2000/svg">
<path d="M14.2617 14.6885C14.6759 14.6885 15.0117 15.0243 15.0117 15.4385C15.0117 15.8527 14.6759 16.1885 14.2617 16.1885H9.26172C8.84751 16.1885 8.51172 15.8527 8.51172 15.4385C8.51172 15.0243 8.84751 14.6885 9.26172 14.6885H14.2617Z" fill="#1C252E"/>
<path d="M11.0117 17.998V12.998C11.0117 12.5838 11.3475 12.248 11.7617 12.248C12.1759 12.248 12.5117 12.5838 12.5117 12.998V17.998C12.5117 18.4123 12.1759 18.748 11.7617 18.748C11.3475 18.748 11.0117 18.4123 11.0117 17.998Z" fill="#1C252E"/>
<path d="M8.84092 1.56071C10.025 1.02684 11.3804 1.2256 12.9278 1.81755C13.1183 1.89042 13.2711 2.03797 13.3507 2.22575C13.4302 2.41361 13.43 2.62613 13.3497 2.81364L13.3194 2.88395L13.3185 2.88493L10.419 9.6154C10.3005 9.89033 10.029 10.0685 9.72959 10.0685H6.87999C6.30372 10.0685 5.75315 10.1867 5.25303 10.3986C4.97223 10.5176 4.64688 10.4546 4.43077 10.2394C4.2149 10.0243 4.15106 9.70027 4.26866 9.41911L6.01866 5.23845L6.05381 5.14958L6.0626 5.12809L6.12217 4.99138C6.13896 4.94186 6.16792 4.86299 6.21006 4.78044C6.88163 3.23298 7.67431 2.08689 8.84092 1.56071ZM11.6505 2.96599C10.644 2.67157 9.96876 2.69717 9.45713 2.9279C8.81631 3.21693 8.21477 3.9234 7.57823 5.39567C7.56509 5.42605 7.55033 5.45616 7.53331 5.48454C7.54081 5.47204 7.54563 5.46213 7.54795 5.4572L7.54405 5.46989C7.54074 5.47942 7.53652 5.48956 7.53135 5.50505C7.52421 5.52647 7.51598 5.54783 7.50694 5.56852L7.4376 5.72868L7.40635 5.80681L7.40245 5.81755L6.71006 5.52849L7.40147 5.81755L6.2335 8.60563C6.44584 8.5813 6.66156 8.56853 6.87999 8.56852H9.23643L11.6505 2.96599Z" fill="#1C252E"/>
<path d="M12.0397 2.09706C12.2247 1.82387 12.5733 1.69825 12.8971 1.80604C12.9805 1.83384 13.0856 1.87666 13.1774 1.91542L13.3785 2.00136L13.3912 2.00624L15.5963 2.93495H15.5973C16.8578 3.45761 17.856 4.04441 18.4957 4.82753C18.6045 4.95803 18.7072 5.09654 18.8014 5.2621L18.8863 5.4037C18.9604 5.53475 19.0258 5.68077 19.0748 5.84218C19.1156 5.93962 19.1482 6.03638 19.1734 6.12831C19.5249 7.22162 19.2865 8.45666 18.7457 9.79823C18.5998 10.1603 18.2005 10.3496 17.8277 10.2338C17.4629 10.1203 17.0596 10.0678 16.6402 10.0678H9.73009C9.47772 10.0678 9.24185 9.9407 9.10314 9.72987C8.96466 9.51911 8.94181 9.2525 9.04161 9.02089L11.941 2.29139L11.9703 2.22206L12.0397 2.09706ZM10.8697 8.56776H16.6402C16.9472 8.56777 17.2594 8.59076 17.5699 8.64003C17.8699 7.72449 17.9022 7.07426 17.7457 6.58729C17.7407 6.57166 17.736 6.55537 17.732 6.53944C17.7222 6.50037 17.7069 6.45162 17.6852 6.40272C17.6692 6.36673 17.6553 6.32945 17.6451 6.29139C17.6315 6.2403 17.6031 6.17237 17.5397 6.07362C17.5292 6.05737 17.5185 6.04083 17.5094 6.02382C17.471 5.95253 17.4244 5.88461 17.3443 5.78846L17.3375 5.78065V5.77968C16.9368 5.28701 16.2175 4.81597 15.0231 4.32069L15.0192 4.31971L13.0563 3.49257L10.8697 8.56776Z" fill="#1C252E"/>
<path d="M20.7715 14.1982C20.7714 12.3293 19.5278 10.7522 17.8418 10.2354C17.4745 10.1277 17.0683 10.0684 16.6514 10.0684H6.8916C6.32033 10.0684 5.78028 10.1839 5.26758 10.3965L5.26855 10.3975C3.79283 11.0336 2.76177 12.4994 2.76172 14.1982V16.1484C2.76172 16.2482 2.76588 16.3497 2.77344 16.4521L2.81055 16.8086C2.90753 18.2772 3.34038 19.3032 4.02344 19.9863C4.66384 20.6267 5.60541 21.0477 6.93066 21.1777L7.20117 21.2002L7.24902 21.2051C7.45583 21.232 7.66213 21.248 7.86133 21.248H15.6621C17.402 21.248 18.6078 20.8347 19.3965 20.125C20.1785 19.4213 20.6649 18.323 20.7529 16.708C20.763 16.5061 20.7715 16.3257 20.7715 16.1484V14.1982ZM22.2715 16.1484C22.2715 16.3703 22.2608 16.5893 22.251 16.7861V16.7891C22.1489 18.6638 21.5648 20.1906 20.3994 21.2393C19.2407 22.2819 17.6218 22.748 15.6621 22.748H7.86133C7.58197 22.748 7.30963 22.7252 7.05762 22.6924C5.36661 22.5733 3.96836 22.0531 2.96289 21.0479C2.01201 20.097 1.49309 18.7945 1.33887 17.2256L1.31348 16.9082C1.28369 16.6685 1.26172 16.4117 1.26172 16.1484V14.1982C1.26177 11.8772 2.67069 9.88338 4.6748 9.01953L4.68359 9.01562C5.36838 8.73036 6.10602 8.56838 6.8916 8.56836H16.6514C17.0714 8.56836 17.487 8.61315 17.8838 8.69922L18.2744 8.79883L18.2812 8.80078C20.5752 9.50395 22.2714 11.6473 22.2715 14.1982V16.1484Z" fill="#1C252E"/>
<path d="M1.25 14.1981V11.2684C1.25 8.06427 3.52966 5.39001 6.56543 4.79188C6.83693 4.73858 7.11598 4.83932 7.29102 5.0536C7.46614 5.26822 7.50834 5.56274 7.40137 5.81825L5.65137 9.99794C5.57634 10.177 5.43512 10.3205 5.25684 10.3974C3.78111 11.0335 2.75003 12.4993 2.75 14.1981C2.75 14.6123 2.41421 14.9481 2 14.9481C1.58579 14.9481 1.25 14.6123 1.25 14.1981ZM5.35742 6.8163C4.07678 7.53445 3.13939 8.78904 2.84668 10.2753C3.28883 9.82031 3.8058 9.43922 4.37891 9.15321L5.35742 6.8163Z" fill="#1C252E"/>
<path d="M20.7686 14.1971C20.7684 12.3351 19.5318 10.7526 17.8428 10.2459C17.6413 10.1854 17.4743 10.0429 17.3829 9.85336C17.2915 9.66377 17.2842 9.44429 17.3624 9.24887C17.8588 8.00778 17.9385 7.17994 17.7588 6.56918C17.7541 6.55305 17.7498 6.53677 17.7462 6.52035C17.737 6.47906 17.7257 6.44826 17.7178 6.43246C17.5729 6.14221 17.6305 5.79127 17.8614 5.56332C18.0924 5.33532 18.4441 5.28262 18.7325 5.43148C20.8364 6.51743 22.2686 8.7409 22.2686 11.2674V14.1971C22.2686 14.6113 21.9328 14.9471 21.5186 14.9471C21.1044 14.9471 20.7686 14.6113 20.7686 14.1971ZM19.3184 7.71078C19.2721 8.15241 19.1649 8.61102 19.0108 9.08969C19.633 9.37814 20.1934 9.77783 20.667 10.2635C20.4701 9.28114 19.9909 8.39891 19.3184 7.71078Z" fill="#1C252E"/>
</svg>
