<svg width="24" height="24" viewBox="0 0 24 24" fill="none" xmlns="http://www.w3.org/2000/svg">
<path d="M11.4961 7.75C11.9103 7.75 12.2461 8.08579 12.2461 8.5C12.2461 8.91421 11.9103 9.25 11.4961 9.25H1.99609C1.58188 9.25 1.24609 8.91421 1.24609 8.5C1.24609 8.08579 1.58188 7.75 1.99609 7.75H11.4961Z" fill="#1C252E"/>
<path d="M7.99609 15.75C8.41031 15.75 8.74609 16.0858 8.74609 16.5C8.74609 16.9142 8.41031 17.25 7.99609 17.25H5.99609C5.58188 17.25 5.24609 16.9142 5.24609 16.5C5.24609 16.0858 5.58188 15.75 5.99609 15.75H7.99609Z" fill="#1C252E"/>
<path d="M14.4961 15.75C14.9103 15.75 15.2461 16.0858 15.2461 16.5C15.2461 16.9142 14.9103 17.25 14.4961 17.25H10.4961C10.0819 17.25 9.74609 16.9142 9.74609 16.5C9.74609 16.0858 10.0819 15.75 10.4961 15.75H14.4961Z" fill="#1C252E"/>
<path d="M1.24609 16.1104V7.88965C1.24612 6.13876 1.45021 4.74287 2.35742 3.8457C3.26191 2.9514 4.66752 2.75 6.43652 2.75H14.4961C14.9103 2.75 15.2461 3.08579 15.2461 3.5C15.2461 3.91421 14.9103 4.25 14.4961 4.25H6.43652C4.65553 4.25 3.84013 4.48891 3.41211 4.91211C2.9871 5.33237 2.74613 6.13113 2.74609 7.88965V16.1104C2.74613 17.8689 2.9871 18.6676 3.41211 19.0879C3.84013 19.5111 4.65553 19.75 6.43652 19.75H17.5557C19.3367 19.75 20.1521 19.5111 20.5801 19.0879C21.0051 18.6676 21.2461 17.8689 21.2461 16.1104V12.0303C21.2461 11.6161 21.5819 11.2803 21.9961 11.2803C22.4103 11.2803 22.7461 11.6161 22.7461 12.0303V16.1104C22.7461 17.8612 22.542 19.2571 21.6348 20.1543C20.7303 21.0486 19.3247 21.25 17.5557 21.25H6.43652C4.66752 21.25 3.26191 21.0486 2.35742 20.1543C1.45021 19.2571 1.24612 17.8612 1.24609 16.1104Z" fill="#1C252E"/>
<path d="M20.0546 2.79152C20.7374 2.72707 21.3674 3.04083 21.9364 3.60988C22.5022 4.17573 22.8118 4.80453 22.745 5.48585C22.682 6.12759 22.2987 6.6274 21.9364 6.98976L18.2264 10.6997C18.0808 10.8453 17.9005 10.9584 17.744 11.0366C17.5867 11.1153 17.3894 11.1909 17.1874 11.2212L17.1805 11.2222L15.7606 11.4224L15.7587 11.4234V11.4224C15.3033 11.4849 14.8411 11.3601 14.5087 11.0278C14.1762 10.6954 14.0506 10.2333 14.1132 9.77785V9.77492L14.3134 8.35499L14.3143 8.34816C14.3447 8.14623 14.4203 7.94875 14.4989 7.79152C14.5772 7.63503 14.6903 7.45464 14.8358 7.3091L18.5458 3.59913C18.9082 3.23677 19.4097 2.85243 20.0546 2.79152ZM20.1952 4.28566C20.0726 4.29737 19.8836 4.38245 19.6063 4.65968L15.8964 8.37062C15.8938 8.37392 15.8895 8.37968 15.8837 8.3882C15.8706 8.40742 15.8553 8.43317 15.8407 8.46242C15.826 8.49172 15.8145 8.52035 15.8065 8.54347C15.7981 8.56783 15.7968 8.57683 15.7977 8.57081L15.6063 9.92921L16.9647 9.73683C16.9684 9.73594 16.9781 9.73419 16.993 9.72902C17.0161 9.72103 17.0439 9.70945 17.0731 9.69484C17.1023 9.68023 17.1281 9.66588 17.1473 9.65285C17.1565 9.64661 17.1626 9.64174 17.1659 9.63917L20.8759 5.92921C21.1531 5.65191 21.2397 5.46239 21.2518 5.33937C21.26 5.25574 21.2499 5.04448 20.8759 4.67042C20.4949 4.28951 20.2798 4.27767 20.1952 4.28566Z" fill="#1C252E"/>
<path d="M18.342 3.93815C18.7404 3.82545 19.1549 4.05727 19.2677 4.45573C19.5174 5.33684 20.2024 6.01829 21.0666 6.25748C21.4654 6.3682 21.6995 6.78131 21.589 7.18034C21.4784 7.57924 21.0652 7.81312 20.6662 7.7028C19.2904 7.32201 18.2148 6.24269 17.8244 4.86393C17.7117 4.46546 17.9435 4.05099 18.342 3.93815Z" fill="#1C252E"/>
</svg>
