<svg width="24" height="24" viewBox="0 0 24 24" fill="none" xmlns="http://www.w3.org/2000/svg">
<path d="M21.25 12C21.25 6.89137 17.1086 2.75 12 2.75C6.89137 2.75 2.75 6.89137 2.75 12C2.75 17.1086 6.89137 21.25 12 21.25C17.1086 21.25 21.25 17.1086 21.25 12ZM22.75 12C22.75 17.9371 17.9371 22.75 12 22.75C6.06294 22.75 1.25 17.9371 1.25 12C1.25 6.06294 6.06294 1.25 12 1.25C17.9371 1.25 22.75 6.06294 22.75 12Z" fill="#1C252E"/>
<path d="M14.4697 8.46967C14.7626 8.17678 15.2373 8.17678 15.5302 8.46967C15.8231 8.76256 15.8231 9.23732 15.5302 9.53022L9.53022 15.5302C9.23732 15.8231 8.76256 15.8231 8.46967 15.5302C8.17678 15.2373 8.17678 14.7626 8.46967 14.4697L14.4697 8.46967Z" fill="#1C252E"/>
<path d="M14.5039 13.5C15.056 13.5002 15.5039 13.9479 15.5039 14.5C15.5039 15.0521 15.056 15.4998 14.5039 15.5H14.4941C13.942 15.4998 13.4941 15.0522 13.4941 14.5C13.4941 13.9478 13.942 13.5002 14.4941 13.5H14.5039Z" fill="#1C252E"/>
<path d="M9.50391 8.5C10.056 8.50023 10.5039 8.94785 10.5039 9.5C10.5039 10.0521 10.056 10.4998 9.50391 10.5H9.49414C8.94202 10.4998 8.49414 10.0522 8.49414 9.5C8.49414 8.94784 8.94202 8.5002 9.49414 8.5H9.50391Z" fill="#1C252E"/>
</svg>
