<svg width="24" height="24" viewBox="0 0 24 24" fill="none" xmlns="http://www.w3.org/2000/svg">
<path d="M4.75 12.6499C4.75 12.2357 5.08579 11.8999 5.5 11.8999C5.91421 11.8999 6.25 12.2357 6.25 12.6499C6.25 15.2124 8.66463 17.2495 12 17.2495C15.3354 17.2495 17.75 15.2124 17.75 12.6499C17.75 12.2357 18.0858 11.8999 18.5 11.8999C18.9142 11.8999 19.25 12.2357 19.25 12.6499V16.3501C19.2499 19.9794 15.902 22.7495 12 22.7495C8.09795 22.7495 4.75012 19.9794 4.75 16.3501V12.6499ZM17.7471 16.4478C16.3942 17.9015 14.2743 18.7495 12 18.7495C9.72543 18.7495 7.60481 17.9018 6.25195 16.4478C6.31281 19.0174 8.76315 21.2495 12 21.2495C15.2368 21.2495 17.6862 19.0174 17.7471 16.4478Z" fill="#1C252E"/>
<path d="M17.75 7.65039C17.75 6.33787 17.1383 5.12583 16.1094 4.21777L15.9102 4.05273C14.8888 3.24969 13.5238 2.75 12 2.75C10.3751 2.75 8.93207 3.31829 7.89355 4.22461L7.89258 4.22559C6.86369 5.12268 6.25 6.33534 6.25 7.65039C6.25006 8.32372 6.41138 8.94768 6.69922 9.49805L6.83008 9.72852L6.83105 9.73047C7.73706 11.2206 9.66317 12.25 12 12.25C14.3368 12.25 16.2629 11.2206 17.1689 9.73047L17.1699 9.72852C17.5391 9.12426 17.7499 8.41962 17.75 7.65039ZM19.25 7.65039C19.2499 8.70001 18.9601 9.67369 18.4502 10.5088C17.2162 12.5386 14.7431 13.75 12 13.75C9.25691 13.75 6.78286 12.5396 5.54883 10.5098V10.5088C5.03909 9.67379 4.75007 8.69983 4.75 7.65039C4.75 5.84556 5.59628 4.2376 6.90723 3.09473L7.16016 2.88379C8.45362 1.8575 10.1487 1.25 12 1.25C13.8514 1.25 15.5455 1.85753 16.8379 2.87402L17.0908 3.08301L17.0957 3.08691C18.4036 4.23835 19.25 5.84512 19.25 7.65039Z" fill="#1C252E"/>
<path d="M17.75 7.65039C17.75 6.33787 17.1383 5.12583 16.1094 4.21777L15.9102 4.05273C14.8888 3.24969 13.5238 2.75 12 2.75C8.72212 2.75 6.25 5.03981 6.25 7.65039V12.6504C6.25024 15.2127 8.6648 17.25 12 17.25C15.3352 17.25 17.7498 15.2127 17.75 12.6504V7.65039ZM19.25 12.6504C19.2498 16.3277 15.8445 18.75 12 18.75C8.1555 18.75 4.75024 16.3277 4.75 12.6504V7.65039C4.75 4.02097 8.09788 1.25 12 1.25C13.8514 1.25 15.5455 1.85753 16.8379 2.87402L17.0908 3.08301L17.0957 3.08691C18.4036 4.23835 19.25 5.84512 19.25 7.65039V12.6504Z" fill="#1C252E"/>
</svg>
