<svg width="24" height="24" viewBox="0 0 24 24" fill="none" xmlns="http://www.w3.org/2000/svg">
<path d="M15.2402 7.75C15.6543 7.75013 15.9902 8.08586 15.9902 8.5C15.9902 8.91414 15.6543 9.24987 15.2402 9.25H2C1.58579 9.25 1.25 8.91421 1.25 8.5C1.25 8.08579 1.58579 7.75 2 7.75H15.2402Z" fill="#1C252E"/>
<path d="M7.29004 15.75C7.70423 15.75 8.04004 16.0858 8.04004 16.5C8.04004 16.9142 7.70423 17.25 7.29004 17.25H6C5.58579 17.25 5.25 16.9142 5.25 16.5C5.25 16.0858 5.58579 15.75 6 15.75H7.29004Z" fill="#1C252E"/>
<path d="M14.5 15.75C14.9142 15.75 15.25 16.0858 15.25 16.5C15.25 16.9142 14.9142 17.25 14.5 17.25H11C10.5858 17.25 10.25 16.9142 10.25 16.5C10.25 16.0858 10.5858 15.75 11 15.75H14.5Z" fill="#1C252E"/>
<path d="M21.2495 16.1099V6.89014C21.2495 6.47608 21.5855 6.14039 21.9995 6.14014C22.4137 6.14014 22.7495 6.47592 22.7495 6.89014V16.1099C22.7495 17.8594 22.5489 19.2562 21.6431 20.1538C20.7395 21.0488 19.3333 21.2505 17.5601 21.2505H7.97998C7.56588 21.2505 7.23017 20.9145 7.22998 20.5005C7.22998 20.0863 7.56577 19.7505 7.97998 19.7505H17.5601C19.3467 19.7505 20.1609 19.5108 20.5874 19.0884C21.0112 18.6684 21.2495 17.8698 21.2495 16.1099Z" fill="#1C252E"/>
<path d="M1.25 16.0996V7.88965C1.25003 6.13876 1.45411 4.74287 2.36133 3.8457C3.26581 2.9514 4.67143 2.75 6.44043 2.75H17.5596C18.591 2.75 19.4762 2.81939 20.1992 3.0293C20.597 3.14478 20.8254 3.56121 20.71 3.95898C20.5945 4.35662 20.1789 4.58589 19.7812 4.4707C19.2643 4.32061 18.5482 4.25 17.5596 4.25H6.44043C4.65943 4.25 3.84403 4.48891 3.41602 4.91211C2.99101 5.33237 2.75003 6.13113 2.75 7.88965V16.0996C2.75 17.2501 2.84974 18.0067 3.05566 18.5166C3.24026 18.9737 3.51468 19.2472 3.98535 19.4326C4.37038 19.5846 4.55995 20.0201 4.4082 20.4053C4.25638 20.7904 3.82075 20.9796 3.43555 20.8281C2.58623 20.4935 2.00544 19.921 1.66504 19.0781C1.34597 18.288 1.25 17.2891 1.25 16.0996Z" fill="#1C252E"/>
<path d="M21.4697 1.46967C21.7626 1.17678 22.2373 1.17678 22.5302 1.46967C22.8231 1.76256 22.8231 2.23732 22.5302 2.53022L2.53022 22.5302C2.23732 22.8231 1.76256 22.8231 1.46967 22.5302C1.17678 22.2373 1.17678 21.7626 1.46967 21.4697L21.4697 1.46967Z" fill="#1C252E"/>
</svg>
