<svg width="24" height="24" viewBox="0 0 24 24" fill="none" xmlns="http://www.w3.org/2000/svg">
<path d="M15.25 4.00977C15.2501 2.48082 16.5012 1.25 18.0205 1.25H18.0273L18.2676 1.25781C19.3839 1.32329 20.411 1.77066 21.1963 2.4834L21.3604 2.63965L21.3643 2.64355C22.2142 3.50538 22.75 4.69138 22.75 6V8.41992C22.75 9.37049 22.4461 10.2199 21.833 10.833C21.2199 11.4461 20.3705 11.75 19.4199 11.75H16C15.5858 11.75 15.25 11.4142 15.25 11V4.00977ZM16.75 10.25H19.4199C20.0494 10.25 20.4906 10.0543 20.7725 9.77246C21.0543 9.49059 21.25 9.04935 21.25 8.41992V6C21.25 5.11057 20.8876 4.29801 20.2998 3.7002L20.0703 3.49219C19.5129 3.0336 18.7945 2.75793 18.0166 2.75C17.3176 2.75185 16.7501 3.32005 16.75 4.00977V10.25Z" fill="#1C252E"/>
<path d="M10.8594 20.0801C11.4687 19.4707 12.4454 19.3931 13.1387 19.9199L14.8496 21.1992C15.0189 21.323 15.25 21.1976 15.25 21V4C15.25 3.54996 15.3615 3.12572 15.5547 2.75H6C4.65358 2.75 3.8876 3.1456 3.44238 3.66113C2.97941 4.19725 2.75 4.99287 2.75 6V21C2.75 21.2157 2.98576 21.3246 3.14746 21.2021L3.15039 21.1992L4.86035 19.9199L4.99512 19.8281C5.6374 19.4333 6.46014 19.4963 7.04004 19.9795L7.16016 20.0898L7.16211 20.0908L8.82031 21.7598L8.85938 21.792C8.95735 21.8557 9.09472 21.8447 9.17969 21.7598L10.8594 20.0801ZM16.75 21C16.75 22.4417 15.1037 23.2563 13.9531 22.4023L13.9502 22.4004L12.2324 21.1143C12.1462 21.0482 12.0081 21.0525 11.9199 21.1406L10.2402 22.8203C9.55735 23.5031 8.44265 23.5031 7.75977 22.8203L7.75781 22.8184L6.09961 21.1504L6.06055 21.1172C5.97917 21.0605 5.87944 21.0557 5.79883 21.0957L5.75977 21.1201L4.0498 22.4004L4.04883 22.3994C2.89071 23.2728 1.25 22.4429 1.25 21V6C1.25 4.79713 1.52059 3.59204 2.30762 2.68066C3.11241 1.74895 4.34667 1.25 6 1.25H18C18.4142 1.25 18.75 1.58579 18.75 2C18.75 2.41421 18.4142 2.75 18 2.75C17.3142 2.75 16.75 3.31421 16.75 4V21Z" fill="#1C252E"/>
</svg>
