<svg width="24" height="24" viewBox="0 0 24 24" fill="none" xmlns="http://www.w3.org/2000/svg">
<path d="M21.25 9C21.25 6.57397 20.7603 5.0708 19.8447 4.15527C18.9292 3.23974 17.426 2.75 15 2.75H9C6.57397 2.75 5.0708 3.23974 4.15527 4.15527C3.23974 5.0708 2.75 6.57397 2.75 9V15C2.75 17.426 3.23974 18.9292 4.15527 19.8447C5.0708 20.7603 6.57397 21.25 9 21.25H15C17.426 21.25 18.9292 20.7603 19.8447 19.8447C20.7603 18.9292 21.25 17.426 21.25 15V9ZM22.75 15C22.75 17.574 22.2397 19.5708 20.9053 20.9053C19.5708 22.2397 17.574 22.75 15 22.75H9C6.42603 22.75 4.4292 22.2397 3.09473 20.9053C1.76026 19.5708 1.25 17.574 1.25 15V9C1.25 6.42603 1.76026 4.4292 3.09473 3.09473C4.4292 1.76026 6.42603 1.25 9 1.25H15C17.574 1.25 19.5708 1.76026 20.9053 3.09473C22.2397 4.4292 22.75 6.42603 22.75 9V15Z" fill="#1C252E"/>
<path d="M17.25 7.75C17.25 7.06421 16.6858 6.5 16 6.5H8C7.31421 6.5 6.75 7.06421 6.75 7.75V12.0537C7.12562 11.8606 7.55012 11.75 8 11.75H16C16.4499 11.75 16.8744 11.8606 17.25 12.0537V7.75ZM18.75 14.5C18.75 14.9142 18.4142 15.25 18 15.25C17.5858 15.25 17.25 14.9142 17.25 14.5C17.25 13.8142 16.6858 13.25 16 13.25H8C7.31421 13.25 6.75 13.8142 6.75 14.5C6.75 14.9142 6.41421 15.25 6 15.25C5.58579 15.25 5.25 14.9142 5.25 14.5V7.75C5.25 6.23579 6.48579 5 8 5H16C17.5142 5 18.75 6.23579 18.75 7.75V14.5Z" fill="#1C252E"/>
<path d="M19 15C19.4142 15 19.75 15.3358 19.75 15.75C19.75 16.1642 19.4142 16.5 19 16.5H18C17.5858 16.5 17.25 16.1642 17.25 15.75C17.25 15.3358 17.5858 15 18 15H19Z" fill="#1C252E"/>
<path d="M6 15C6.41421 15 6.75 15.3358 6.75 15.75C6.75 16.1642 6.41421 16.5 6 16.5H5C4.58579 16.5 4.25 16.1642 4.25 15.75C4.25 15.3358 4.58579 15 5 15H6Z" fill="#1C252E"/>
<path d="M17.25 14V11C17.25 10.3142 16.6858 9.75 16 9.75H8C7.31421 9.75 6.75 10.3142 6.75 11V14C6.75 14.4142 6.41421 14.75 6 14.75C5.58579 14.75 5.25 14.4142 5.25 14V11C5.25 9.48579 6.48579 8.25 8 8.25H16C17.5142 8.25 18.75 9.48579 18.75 11V14C18.75 14.4142 18.4142 14.75 18 14.75C17.5858 14.75 17.25 14.4142 17.25 14Z" fill="#1C252E"/>
<path d="M17.25 14.5C17.25 13.8142 16.6858 13.25 16 13.25H8C7.31421 13.25 6.75 13.8142 6.75 14.5V15H9.5C9.91421 15 10.25 15.3358 10.25 15.75C10.25 16.7158 11.0342 17.5 12 17.5C12.9658 17.5 13.75 16.7158 13.75 15.75C13.75 15.3358 14.0858 15 14.5 15H17.25V14.5ZM18.75 15.75C18.75 16.1642 18.4142 16.5 18 16.5H15.1611C14.8222 17.9327 13.536 19 12 19C10.464 19 9.17782 17.9327 8.83887 16.5H6C5.58579 16.5 5.25 16.1642 5.25 15.75V14.5C5.25 12.9858 6.48579 11.75 8 11.75H16C17.5142 11.75 18.75 12.9858 18.75 14.5V15.75Z" fill="#1C252E"/>
</svg>
