<svg width="24" height="24" viewBox="0 0 24 24" fill="none" xmlns="http://www.w3.org/2000/svg">
<path d="M21.7009 4.88965C22.115 4.8898 22.4509 5.22553 22.4509 5.63965C22.4509 6.05377 22.115 6.3895 21.7009 6.38965H14.4207C14.0064 6.38965 13.6707 6.05386 13.6707 5.63965C13.6707 5.22543 14.0064 4.88965 14.4207 4.88965H21.7009Z" fill="#1C252E"/>
<path d="M9.57983 4.89014C9.99392 4.89028 10.3298 5.22601 10.3298 5.64014C10.3298 6.05426 9.99392 6.38999 9.57983 6.39014H2.29956C1.88535 6.39014 1.54956 6.05435 1.54956 5.64014C1.54956 5.22592 1.88535 4.89014 2.29956 4.89014H9.57983Z" fill="#1C252E"/>
<path d="M21.7009 14.5801C22.115 14.5802 22.4509 14.916 22.4509 15.3301C22.4509 15.7442 22.115 16.0799 21.7009 16.0801H14.4207C14.0064 16.0801 13.6707 15.7443 13.6707 15.3301C13.6707 14.9159 14.0064 14.5801 14.4207 14.5801H21.7009Z" fill="#1C252E"/>
<path d="M21.7009 20.6396C22.115 20.6398 22.4509 20.9755 22.4509 21.3896C22.4509 21.8038 22.115 22.1395 21.7009 22.1396H14.4207C14.0064 22.1396 13.6707 21.8039 13.6707 21.3896C13.6707 20.9754 14.0064 20.6396 14.4207 20.6396H21.7009Z" fill="#1C252E"/>
<path d="M17.3394 9.26953V2C17.3394 1.58579 17.6751 1.25 18.0894 1.25C18.5036 1.25 18.8394 1.58579 18.8394 2V9.26953C18.8394 9.68374 18.5036 10.0195 18.0894 10.0195C17.6751 10.0195 17.3394 9.68374 17.3394 9.26953Z" fill="#1C252E"/>
<path d="M9.04944 14.1995C9.34246 13.9069 9.81728 13.9067 10.11 14.1995C10.4027 14.4926 10.4021 14.9674 10.109 15.2601L2.82971 22.5306C2.53666 22.8232 2.06187 22.8226 1.76917 22.5296C1.47652 22.2366 1.4762 21.7618 1.76917 21.4691L9.04944 14.1995Z" fill="#1C252E"/>
<path d="M1.76929 14.1995C2.06201 13.9067 2.53687 13.9069 2.82984 14.1995L10.1091 21.469C10.4022 21.7617 10.4028 22.2365 10.1101 22.5295C9.81743 22.8226 9.34266 22.8232 9.04957 22.5305L1.76929 15.26C1.47656 14.9673 1.47672 14.4924 1.76929 14.1995Z" fill="#1C252E"/>
</svg>
