<svg width="24" height="24" viewBox="0 0 24 24" fill="none" xmlns="http://www.w3.org/2000/svg">
<path d="M2.85156 16.8604C2.85156 16.4461 3.18735 16.1104 3.60156 16.1104C4.01578 16.1104 4.35156 16.4461 4.35156 16.8604C4.35156 18.021 5.45396 19.0508 7.18164 19.0508C8.89598 19.0508 10.002 18.0136 10.002 16.8604C10.002 16.4461 10.3377 16.1104 10.752 16.1104C11.166 16.1105 11.502 16.4463 11.502 16.8604V18.8906C11.5018 21.1191 9.46461 22.75 7.18164 22.75C4.90154 22.75 2.85171 21.1216 2.85156 18.8906V16.8604ZM9.74805 19.8525C9.00913 20.303 8.1071 20.5508 7.18164 20.5508C6.25384 20.5508 5.34973 20.3059 4.60938 19.8574C5.04045 20.6474 5.98182 21.25 7.18164 21.25C8.38229 21.25 9.32067 20.6456 9.74805 19.8525Z" fill="#1C252E"/>
<path d="M10.0002 14.1096C10.0001 13.4929 9.71527 12.9173 9.21021 12.4963L9.20044 12.4885C8.68875 12.0477 7.97335 11.7601 7.1604 11.76C6.34201 11.76 5.62989 12.0403 5.12427 12.4836V12.4846C4.62434 12.9221 4.3402 13.4946 4.34009 14.1096C4.34009 14.4655 4.43911 14.7935 4.61353 15.0842C5.04203 15.7747 5.97859 16.3 7.17017 16.3C8.36741 16.3 9.30089 15.7806 9.72681 15.0842C9.90126 14.7935 10.0002 14.4654 10.0002 14.1096ZM11.5002 14.1096C11.5002 14.7538 11.3185 15.3465 11.0129 15.8557L11.011 15.8596C10.2558 17.1012 8.77052 17.8 7.17017 17.8C5.56581 17.8 4.08482 17.0886 3.3313 15.8625L3.32642 15.8557L3.32739 15.8547C3.02203 15.3456 2.84009 14.7535 2.84009 14.1096C2.8402 13.0051 3.3562 12.0381 4.13599 11.3557L4.28735 11.2288C5.06355 10.6108 6.07134 10.26 7.1604 10.26C8.32715 10.2601 9.39178 10.6728 10.1799 11.3518H10.179C10.9883 12.0304 11.5001 13.0109 11.5002 14.1096Z" fill="#1C252E"/>
<path d="M10.002 14.1104C10.002 13.4942 9.71676 12.9136 9.22168 12.4785L9.02051 12.3203C8.52961 11.97 7.89299 11.75 7.18164 11.75C5.51327 11.75 4.35156 12.9002 4.35156 14.1104V16.8604C4.3518 18.0111 5.4645 19.0498 7.18164 19.0498C8.89763 19.0498 10.0017 18.022 10.002 16.8604V14.1104ZM11.502 16.8604C11.5017 19.1383 9.40529 20.5498 7.18164 20.5498C4.95908 20.5498 2.85179 19.1292 2.85156 16.8604V14.1104C2.85156 11.8805 4.89001 10.25 7.18164 10.25C8.27552 10.25 9.27914 10.613 10.0498 11.2178L10.2012 11.3418L10.2051 11.3457C10.9874 12.0302 11.502 13.0083 11.502 14.1104V16.8604Z" fill="#1C252E"/>
<path d="M21.2497 10.9695C21.2495 10.8508 21.1657 10.7372 21.0329 10.7068L20.9733 10.7H18.9196C18.5607 10.7 18.245 10.8391 18.0173 11.073C18.0128 11.0775 18.0081 11.0822 18.0036 11.0867C17.7709 11.3139 17.6278 11.6253 17.6208 11.9626L17.6266 12.1091L17.6276 12.1179C17.6807 12.7527 18.2908 13.2995 19.0397 13.2996H20.9811C21.1436 13.2898 21.2497 13.1635 21.2497 13.03V10.9695ZM22.7497 13.03C22.7497 13.9942 21.9798 14.7653 21.027 14.7996H19.0397C17.6289 14.7995 16.2596 13.7669 16.1325 12.2419L16.1335 12.241C16.0593 11.4315 16.3442 10.6725 16.8512 10.1208L16.9557 10.0134C17.4667 9.49575 18.1652 9.20002 18.9196 9.19995H21.027C21.9797 9.23415 22.7495 10.0055 22.7497 10.9695V13.03Z" fill="#1C252E"/>
<path d="M20.25 15.5V14.7998H19.04C17.6291 14.7998 16.2599 13.7672 16.1328 12.2422V12.2412C16.0543 11.3845 16.3789 10.584 16.9424 10.0264C17.4545 9.50041 18.159 9.20021 18.9199 9.2002H20.25V8.5C20.25 7.2847 19.8814 6.30298 19.2744 5.59961C18.6688 4.89803 17.7847 4.42534 16.6631 4.29492C16.651 4.29351 16.6389 4.29203 16.627 4.29004C16.4471 4.26006 16.2446 4.25 16 4.25H7C6.75575 4.25 6.52364 4.26792 6.30371 4.30176C6.29697 4.30279 6.28997 4.30286 6.2832 4.30371C5.17614 4.44266 4.30597 4.91714 3.70996 5.61621C3.11239 6.31731 2.75 7.29287 2.75 8.5V10.5C2.75 10.9142 2.41421 11.25 2 11.25C1.58579 11.25 1.25 10.9142 1.25 10.5V8.5C1.25 6.98713 1.70843 5.65246 2.56836 4.64355C3.42572 3.63775 4.6425 3.00381 6.07617 2.81934V2.81836C6.07876 2.81796 6.08139 2.81778 6.08398 2.81738C6.08819 2.81685 6.09247 2.81596 6.09668 2.81543V2.81641C6.39025 2.77235 6.69147 2.75 7 2.75H16C16.2641 2.75 16.5484 2.76081 16.8359 2.80566C18.2942 2.97523 19.5358 3.60689 20.4102 4.62012C21.2832 5.63175 21.75 6.9753 21.75 8.5V9.9502C21.7499 10.3643 21.4142 10.7002 21 10.7002H18.9199C18.5609 10.7002 18.2454 10.8393 18.0176 11.0732C18.0132 11.0778 18.0084 11.0825 18.0039 11.0869C17.7712 11.3142 17.6281 11.6255 17.6211 11.9629L17.627 12.1084L17.6279 12.1182H17.627C17.6801 12.753 18.2911 13.2998 19.04 13.2998H21C21.4142 13.2998 21.7499 13.6357 21.75 14.0498V15.5C21.75 17.1704 21.1899 18.6207 20.1553 19.6553C19.1207 20.6899 17.6704 21.25 16 21.25H13.5C13.0858 21.25 12.75 20.9142 12.75 20.5C12.75 20.0858 13.0858 19.75 13.5 19.75H16C17.3296 19.75 18.3793 19.3101 19.0947 18.5947C19.8101 17.8793 20.25 16.8296 20.25 15.5Z" fill="#1C252E"/>
</svg>
