<svg width="24" height="24" viewBox="0 0 24 24" fill="none" xmlns="http://www.w3.org/2000/svg">
<path d="M2.75 18.2998V7.04004C2.75 5.03648 2.96504 3.48963 3.89453 2.49609C4.84062 1.48482 6.32836 1.25002 8.21973 1.25H15.7803C17.6713 1.25002 19.1595 1.48518 20.1045 2.49707C21.0326 3.49106 21.2451 5.03756 21.2402 7.04004V18.3096C21.2402 19.0343 21.1423 19.6765 20.9307 20.1982C20.7179 20.7223 20.3662 21.1761 19.8398 21.4033C19.308 21.6329 18.7383 21.5707 18.2188 21.3467C17.7065 21.1258 17.2004 20.7332 16.7129 20.2129L16.7109 20.2109C16.442 19.9225 16.136 19.8194 15.8682 19.834C15.6 19.8486 15.3066 19.9848 15.0703 20.2998L15.0693 20.2988L14.0605 21.6494L14.0576 21.6523C13.5323 22.3462 12.7934 22.7529 11.9951 22.7529C11.1968 22.7529 10.457 22.3463 9.93164 21.6523L9.92969 21.6494L8.91992 20.2988V20.2998C8.68365 19.9849 8.39024 19.8487 8.12207 19.834C7.8541 19.8194 7.54732 19.9223 7.27832 20.2109L7.27734 20.2129C6.79215 20.731 6.2872 21.1225 5.77539 21.3428C5.25617 21.5661 4.6861 21.6275 4.1543 21.3984C3.62788 21.1716 3.27535 20.7185 3.06152 20.1934C2.84877 19.6707 2.75 19.0273 2.75 18.2998ZM4.25 18.2998C4.25 18.907 4.334 19.3425 4.4502 19.6279C4.56539 19.9108 4.68842 19.9958 4.74805 20.0215C4.80262 20.0449 4.9306 20.0732 5.18262 19.9648C5.44209 19.8531 5.78325 19.6139 6.18262 19.1875C6.73343 18.5971 7.4617 18.2956 8.20312 18.3359C8.89854 18.3738 9.55018 18.7091 10.0273 19.2822L10.1201 19.4004L11.1279 20.7471C11.4126 21.1231 11.7334 21.2529 11.9951 21.2529C12.2568 21.2529 12.5777 21.1231 12.8623 20.7471L13.8691 19.4004H13.8701C14.3537 18.7556 15.0454 18.3763 15.7871 18.3359C16.5285 18.2957 17.2568 18.5971 17.8076 19.1875L17.9551 19.3398C18.2938 19.6752 18.5848 19.8715 18.8125 19.9697C19.0652 20.0787 19.1919 20.0493 19.2451 20.0264C19.3037 20.0011 19.4263 19.9174 19.541 19.6348C19.6567 19.3497 19.7402 18.9147 19.7402 18.3096V7.03809C19.7453 5.0116 19.4918 4.03872 19.0078 3.52051C18.5403 3.02012 17.6686 2.75003 15.7803 2.75H8.21973C6.33142 2.75003 5.45908 3.02034 4.99023 3.52148C4.50483 4.04049 4.25 5.01381 4.25 7.04004V18.2998Z" fill="#1C252E"/>
<path d="M8.10547 10C8.65756 10.0002 9.10547 10.4479 9.10547 11C9.10547 11.5521 8.65756 11.9998 8.10547 12H8.0957C7.54359 11.9998 7.0957 11.5522 7.0957 11C7.0957 10.4478 7.54359 10.0002 8.0957 10H8.10547Z" fill="#1C252E"/>
<path d="M16.3984 10.25C16.8127 10.25 17.1484 10.5858 17.1484 11C17.1484 11.4142 16.8127 11.75 16.3984 11.75H10.8984C10.4842 11.75 10.1484 11.4142 10.1484 11C10.1484 10.5858 10.4842 10.25 10.8984 10.25H16.3984Z" fill="#1C252E"/>
<path d="M8.10547 6C8.65756 6.00023 9.10547 6.44785 9.10547 7C9.10547 7.55215 8.65756 7.99977 8.10547 8H8.0957C7.54359 7.9998 7.0957 7.55216 7.0957 7C7.0957 6.44784 7.54359 6.0002 8.0957 6H8.10547Z" fill="#1C252E"/>
<path d="M16.3984 6.25C16.8127 6.25 17.1484 6.58579 17.1484 7C17.1484 7.41421 16.8127 7.75 16.3984 7.75H10.8984C10.4842 7.75 10.1484 7.41421 10.1484 7C10.1484 6.58579 10.4842 6.25 10.8984 6.25H16.3984Z" fill="#1C252E"/>
</svg>
