<svg width="24" height="24" viewBox="0 0 24 24" fill="none" xmlns="http://www.w3.org/2000/svg">
<path d="M11.6635 2.03142C13.2176 1.95104 14.7329 2.54224 15.8305 3.63982H15.8295L20.3685 8.15838L20.3715 8.1613C22.5215 10.323 22.5237 13.8162 20.3705 15.9699L15.9789 20.3615C13.8171 22.5117 10.323 22.5142 8.16932 20.3605L3.63905 15.8302C2.54021 14.7313 1.95155 13.2164 2.02088 11.6564V11.6545L2.26112 6.65447V6.65252C2.38043 4.27825 4.27751 2.38036 6.66346 2.27166L11.6635 2.03045V2.03142ZM11.7387 3.52849L11.7357 3.52947L6.73573 3.76873L6.73377 3.7697C5.12096 3.84228 3.83981 5.12285 3.75916 6.72771L3.51893 11.7258C3.469 12.8648 3.90013 13.9693 4.70057 14.7697L9.22987 19.3C10.7962 20.8663 13.3431 20.8678 14.9213 19.298L19.309 14.9094C20.8743 13.344 20.8778 10.8003 19.3109 9.22185L14.7709 4.70134L14.7699 4.70037C13.9681 3.89861 12.8636 3.46973 11.7387 3.52849Z" fill="#1C252E"/>
<path d="M11.25 9.5C11.25 8.5335 10.4665 7.75 9.5 7.75C8.5335 7.75 7.75 8.5335 7.75 9.5C7.75 10.4665 8.5335 11.25 9.5 11.25C10.4665 11.25 11.25 10.4665 11.25 9.5ZM12.75 9.5C12.75 11.2949 11.2949 12.75 9.5 12.75C7.70507 12.75 6.25 11.2949 6.25 9.5C6.25 7.70507 7.70507 6.25 9.5 6.25C11.2949 6.25 12.75 7.70507 12.75 9.5Z" fill="#1C252E"/>
</svg>
