<svg width="24" height="24" viewBox="0 0 24 24" fill="none" xmlns="http://www.w3.org/2000/svg">
<path d="M20.5 11.4131C20.5 9.53313 20.2466 8.65678 19.7812 8.19141C19.3159 7.72603 18.4395 7.47266 16.5596 7.47266H7.19043C5.31061 7.47266 4.43771 7.72659 3.97363 8.19141C3.52524 8.64059 3.27589 9.47111 3.25391 11.2158C4.5973 11.555 5.59961 12.7782 5.59961 14.2227C5.59961 15.6674 4.59667 16.8896 3.25293 17.2285C3.2702 18.9741 3.51985 19.805 3.96875 20.2539C4.43412 20.7193 5.31048 20.9727 7.19043 20.9727H16.5703C18.4499 20.9726 19.3256 20.7192 19.791 20.2539C20.1986 19.8463 20.4434 19.1237 20.498 17.6875C19.161 17.348 18.1602 16.137 18.1602 14.6924C18.1603 13.2369 19.1584 12.028 20.5 11.6943V11.4131ZM22 12.3525C22 12.7668 21.6642 13.1025 21.25 13.1025C20.3722 13.1025 19.6603 13.8088 19.6602 14.6924C19.6602 15.5639 20.3799 16.2821 21.2598 16.2822C21.6738 16.2822 22.0095 16.6182 22.0098 17.0322C22.0098 18.9023 21.7937 20.3723 20.8516 21.3145C19.9095 22.2564 18.4401 22.4726 16.5703 22.4727H7.19043C5.32038 22.4727 3.85033 22.2566 2.9082 21.3145C1.96607 20.3723 1.75 18.9023 1.75 17.0322V16.5723C1.75021 16.1582 2.08592 15.8223 2.5 15.8223C3.37579 15.8223 4.09961 15.0984 4.09961 14.2227C4.09961 13.3469 3.37579 12.623 2.5 12.623C2.08592 12.623 1.75021 12.2871 1.75 11.873V11.4111L1.7627 10.7285C1.82041 9.18269 2.08975 7.95566 2.91211 7.13184C3.85306 6.18926 5.32042 5.97266 7.19043 5.97266H16.5596C18.4296 5.97266 19.8997 6.18873 20.8418 7.13086C21.7839 8.07299 22 9.54304 22 11.4131V12.3525Z" fill="#1C252E"/>
<path d="M13.0411 1.25C14.2755 1.25 15.37 2.07015 16.5616 3.26172L17.1612 3.8623C17.3019 4.00296 17.3809 4.19367 17.3809 4.39258C17.3809 4.59146 17.3018 4.78222 17.1612 4.92285C16.7553 5.3289 16.6639 5.92018 16.8907 6.40527C16.9991 6.63745 16.9814 6.9088 16.8438 7.125C16.7062 7.34134 16.4674 7.47266 16.211 7.47266H7.12117C6.81785 7.47266 6.54391 7.28999 6.42781 7.00977C6.31174 6.72954 6.37646 6.40688 6.5909 6.19238L9.52059 3.26172C10.7122 2.07014 11.8066 1.25003 13.0411 1.25ZM13.0411 2.75C12.4806 2.75003 11.7794 3.12496 10.5811 4.32324L8.93172 5.97266H15.2725C15.2512 5.45114 15.3761 4.92785 15.6417 4.46387L15.5011 4.32324C14.3027 3.1249 13.6016 2.75 13.0411 2.75Z" fill="#1C252E"/>
<path d="M9.12891 21.7227L9.12891 19.8477C9.12891 19.4334 9.46469 19.0977 9.87891 19.0977C10.2931 19.0977 10.6289 19.4334 10.6289 19.8477L10.6289 21.7227C10.6289 22.1369 10.2931 22.4727 9.87891 22.4727C9.46469 22.4727 9.12891 22.1369 9.12891 21.7227ZM9.12891 16.0977L9.12891 12.3477C9.12891 11.9334 9.46469 11.5977 9.87891 11.5977C10.2931 11.5977 10.6289 11.9334 10.6289 12.3477L10.6289 16.0977C10.6289 16.5119 10.2931 16.8477 9.87891 16.8477C9.46469 16.8477 9.12891 16.5119 9.12891 16.0977ZM9.12891 8.59766L9.12891 6.72266C9.12891 6.30844 9.46469 5.97266 9.87891 5.97266C10.2931 5.97266 10.6289 6.30844 10.6289 6.72266L10.6289 8.59766C10.6289 9.01187 10.2931 9.34766 9.87891 9.34766C9.46469 9.34766 9.12891 9.01187 9.12891 8.59766Z" fill="#1C252E"/>
</svg>
