<svg width="24" height="24" viewBox="0 0 24 24" fill="none" xmlns="http://www.w3.org/2000/svg">
<path d="M1.25 7.1499C1.25 6.35815 1.54756 5.57018 1.99023 4.92822C2.43294 4.2863 3.0643 3.72739 3.80566 3.44775H3.80664L8.78613 1.57764V1.57861C9.30703 1.38191 9.948 1.29738 10.5498 1.29736C11.1515 1.29736 11.7926 1.38198 12.3135 1.57861L12.3145 1.57764L17.2842 3.44775L17.2861 3.44873C18.4967 3.90766 19.4581 5.12433 19.7588 6.35107C19.8136 6.57476 19.7622 6.81146 19.6201 6.99268C19.478 7.17383 19.2605 7.2797 19.0303 7.27979H11.7305C11.631 7.27979 11.5342 7.28216 11.4326 7.28467C11.346 7.28681 11.2524 7.28801 11.1592 7.28857C10.2875 7.34105 9.99207 7.51922 9.84961 7.69971C9.67294 7.92375 9.54004 8.37792 9.54004 9.43018V14.8569L9.54883 15.2554C9.5868 16.1109 9.73663 16.4587 9.91309 16.6323C10.1184 16.8341 10.5616 16.9995 11.7402 16.9995H17.6602C17.9714 16.9996 18.2506 17.1921 18.3613 17.4829C18.472 17.7739 18.3908 18.1032 18.1582 18.3101C18.1028 18.3593 18.0485 18.4045 18.0049 18.4409C17.9587 18.4794 17.9232 18.5098 17.8887 18.5405C17.8731 18.5543 17.8565 18.5671 17.8398 18.5796L13.5693 21.7798L13.5684 21.7817C12.7115 22.4198 11.6183 22.7173 10.5586 22.7173C9.49872 22.7173 8.40474 22.4192 7.54395 21.7827L7.54102 21.7808L3.26172 18.5815L3.04492 18.4058C2.55009 17.9738 2.13334 17.3865 1.83105 16.7808C1.4855 16.0882 1.25004 15.2927 1.25 14.5601V7.1499ZM2.75 14.5601C2.75004 14.9972 2.89961 15.5612 3.17383 16.1108C3.41397 16.5921 3.71951 17.0027 4.02637 17.272L4.1582 17.3784L4.15918 17.3794L8.43555 20.5767C8.99467 20.9901 9.76108 21.2173 10.5586 21.2173C11.3554 21.2173 12.117 20.9906 12.6699 20.5796L15.4453 18.4995H11.7402C10.5689 18.4995 9.54106 18.3708 8.86133 17.7026C8.17808 17.031 8.04503 16.011 8.04004 14.8628V9.43018C8.04004 8.37284 8.14712 7.43606 8.67285 6.77002C9.23255 6.06116 10.1012 5.84945 11.0752 5.7915L11.1201 5.78955C11.204 5.78955 11.2918 5.78723 11.3955 5.78467C11.4962 5.78218 11.6102 5.77979 11.7305 5.77979H17.8691C17.5705 5.35386 17.169 5.00914 16.7559 4.85205L11.7861 2.98193L11.7852 2.98096C11.4863 2.86798 11.0375 2.79736 10.5498 2.79736C10.0623 2.79738 9.61424 2.86807 9.31543 2.98096L9.31348 2.98193L4.33398 4.85107C3.9355 5.00152 3.53179 5.33438 3.22461 5.77979C2.91754 6.22518 2.75 6.72187 2.75 7.1499V14.5601Z" fill="#1C252E"/>
<path d="M22.0002 10.47C22.4144 10.4701 22.7502 10.8058 22.7502 11.22C22.7502 11.6341 22.4144 11.9699 22.0002 11.97H8.80005C8.38584 11.97 8.05005 11.6342 8.05005 11.22C8.05005 10.8058 8.38584 10.47 8.80005 10.47H22.0002Z" fill="#1C252E"/>
<path d="M8.05005 9.41016C8.05005 8.35684 8.15742 7.42351 8.68286 6.75781C9.24107 6.05061 10.1072 5.83469 11.0813 5.77148C11.0975 5.77044 11.1139 5.76953 11.1301 5.76953C11.214 5.76953 11.3018 5.7672 11.4055 5.76465C11.5062 5.76217 11.6202 5.75977 11.7405 5.75977H19.0637L19.4944 5.76855C20.4835 5.80591 21.3453 5.9787 21.9387 6.56543C22.6208 7.23991 22.7502 8.26307 22.7502 9.41992V14.9766C22.7402 16.0925 22.5951 17.0859 21.9006 17.7354C21.221 18.3706 20.2075 18.4902 19.0598 18.4902H11.7405C10.5698 18.4902 9.54051 18.3606 8.86157 17.6895C8.17955 17.0152 8.05006 15.9923 8.05005 14.8398V9.41016ZM9.55005 14.8398C9.55006 15.9973 9.7158 16.4249 9.91626 16.623C10.1199 16.8242 10.5617 16.9902 11.7405 16.9902H19.0598C20.2214 16.9902 20.6683 16.8339 20.8762 16.6396C21.0689 16.4595 21.2397 16.0687 21.2502 14.9697V9.41992C21.2502 8.25689 21.0843 7.82986 20.884 7.63184C20.7053 7.45509 20.3448 7.30628 19.4661 7.26855L19.0569 7.25977H11.7405C11.641 7.25977 11.5442 7.26214 11.4426 7.26465C11.3579 7.26674 11.2663 7.26793 11.175 7.26855C10.302 7.32561 10.0037 7.50404 9.85962 7.68652C9.68257 7.91083 9.55005 8.36348 9.55005 9.41016V14.8398Z" fill="#1C252E"/>
<path d="M12.6501 14.5098C13.0643 14.5098 13.4001 14.8456 13.4001 15.2598C13.4001 15.6739 13.0643 16.0097 12.6501 16.0098H11.3201C10.9059 16.0098 10.5701 15.674 10.5701 15.2598C10.5701 14.8456 10.9059 14.5098 11.3201 14.5098H12.6501Z" fill="#1C252E"/>
<path d="M18.0195 14.5098C18.4337 14.5098 18.7695 14.8456 18.7695 15.2598C18.7695 15.674 18.4337 16.0098 18.0195 16.0098H14.75C14.3358 16.0098 14 15.674 14 15.2598C14 14.8456 14.3358 14.5098 14.75 14.5098H18.0195Z" fill="#1C252E"/>
</svg>
