<svg width="24" height="24" viewBox="0 0 24 24" fill="none" xmlns="http://www.w3.org/2000/svg">
<path d="M14.5798 8.19964C14.8727 7.90677 15.3474 7.90675 15.6403 8.19964C15.9332 8.49252 15.9332 8.9673 15.6403 9.26018L9.10027 15.8002C8.80738 16.0931 8.33261 16.0931 8.03972 15.8002C7.74684 15.5073 7.74686 15.0326 8.03972 14.7397L14.5798 8.19964Z" fill="#1C252E"/>
<path d="M9.45996 9.14038C9.45996 8.87541 9.24533 8.66016 8.98047 8.65991C8.71537 8.65991 8.5 8.87528 8.5 9.14038C8.50025 9.40524 8.7155 9.61987 8.98047 9.61987C9.2452 9.61963 9.45971 9.40511 9.45996 9.14038ZM10.96 9.14038C10.9597 10.2335 10.0736 11.1196 8.98047 11.1199C7.88712 11.1199 7.00025 10.2337 7 9.14038C7 8.04686 7.88694 7.15991 8.98047 7.15991C10.0738 7.16016 10.96 8.04703 10.96 9.14038Z" fill="#1C252E"/>
<path d="M16 14.8604C16 14.5954 15.7854 14.3801 15.5205 14.3799C15.2554 14.3799 15.04 14.5953 15.04 14.8604C15.0403 15.1252 15.2556 15.3398 15.5205 15.3398C15.7852 15.3396 15.9997 15.1251 16 14.8604ZM17.5 14.8604C17.4997 15.9535 16.6136 16.8396 15.5205 16.8398C14.4271 16.8398 13.5403 15.9536 13.54 14.8604C13.54 13.7668 14.427 12.8799 15.5205 12.8799C16.6138 12.8801 17.5 13.767 17.5 14.8604Z" fill="#1C252E"/>
<path d="M21.25 12C21.25 6.89137 17.1086 2.75 12 2.75C6.89137 2.75 2.75 6.89137 2.75 12C2.75 17.1086 6.89137 21.25 12 21.25C17.1086 21.25 21.25 17.1086 21.25 12ZM22.75 12C22.75 17.9371 17.9371 22.75 12 22.75C6.06294 22.75 1.25 17.9371 1.25 12C1.25 6.06294 6.06294 1.25 12 1.25C17.9371 1.25 22.75 6.06294 22.75 12Z" fill="#1C252E"/>
</svg>
