<svg width="24" height="24" viewBox="0 0 24 24" fill="none" xmlns="http://www.w3.org/2000/svg">
<path d="M20.75 18.2402V17.7998H19.5996C18.1889 17.7996 16.8195 16.7671 16.6924 15.2422V15.2412C16.6182 14.4319 16.9042 13.6727 17.4111 13.1211L17.5156 13.0137C18.0267 12.4958 18.7259 12.2002 19.4805 12.2002H20.75V11.5098C20.7499 9.85416 19.3958 8.50012 17.7402 8.5H6.25977C4.60417 8.50012 3.25013 9.85416 3.25 11.5098V14.5859C3.79268 14.3697 4.38333 14.25 5 14.25C7.62421 14.25 9.75 16.3758 9.75 19C9.75 19.8167 9.5421 20.5821 9.18066 21.25H17.7402C19.3958 21.2499 20.7499 19.8958 20.75 18.2402ZM22.25 12.9502C22.2499 13.3643 21.9142 13.7002 21.5 13.7002H19.4805C19.1214 13.7002 18.805 13.8393 18.5771 14.0732C18.5728 14.0777 18.568 14.0825 18.5635 14.0869C18.2977 14.3465 18.1493 14.716 18.1865 15.1084L18.1875 15.1182C18.2407 15.7528 18.8509 16.2996 19.5996 16.2998H21.5C21.9142 16.2998 22.2499 16.6357 22.25 17.0498V18.2402C22.2499 20.7243 20.2243 22.7499 17.7402 22.75H7.63965C7.3277 22.7499 7.04859 22.5565 6.93848 22.2646C6.82833 21.9726 6.91017 21.6426 7.14453 21.4365C7.82096 20.8416 8.25 19.9735 8.25 19C8.25 17.2042 6.79579 15.75 5 15.75C4.23848 15.75 3.53185 16.0172 2.96777 16.4668C2.74258 16.6463 2.43428 16.6806 2.1748 16.5557C1.91528 16.4306 1.75 16.1679 1.75 15.8799V11.5098C1.75013 9.02574 3.77573 7.00012 6.25977 7H17.7402C20.2243 7.00012 22.2499 9.02574 22.25 11.5098V12.9502Z" fill="#1C252E"/>
<path d="M14.0996 7.75036V3.94958C14.0993 3.14928 13.2975 2.59282 12.541 2.8734L12.54 2.87243L4.60547 5.87145C3.78851 6.18057 3.25 6.96052 3.25 7.8402V11.5101C3.24993 11.9243 2.91417 12.2601 2.5 12.2601C2.08583 12.2601 1.75007 11.9243 1.75 11.5101V7.8402C1.75 6.33995 2.67128 4.99906 4.07422 4.46813H4.0752L12.0146 1.46813L12.0195 1.46715C13.7427 0.828071 15.5993 2.09042 15.5996 3.94958V7.75036C15.5994 8.1644 15.2637 8.50036 14.8496 8.50036C14.4357 8.50014 14.0998 8.16427 14.0996 7.75036Z" fill="#1C252E"/>
<path d="M21.8085 13.9697C21.8083 13.8511 21.7246 13.7374 21.5917 13.707L21.5322 13.7002H19.4784C19.1195 13.7003 18.8038 13.8394 18.5761 14.0732C18.5717 14.0778 18.567 14.0825 18.5624 14.0869C18.3297 14.3141 18.1867 14.6256 18.1796 14.9629L18.1855 15.1094L18.1864 15.1182C18.2395 15.753 18.8497 16.2997 19.5986 16.2998H21.54C21.7024 16.2901 21.8085 16.1638 21.8085 16.0303V13.9697ZM23.3085 16.0303C23.3085 16.9944 22.5387 17.7656 21.5859 17.7998H19.5986C18.1877 17.7997 16.8184 16.7671 16.6913 15.2422L16.6923 15.2412C16.6181 14.4318 16.903 13.6727 17.4101 13.1211L17.5146 13.0137C18.0256 12.496 18.7241 12.2003 19.4784 12.2002H21.5859C22.5386 12.2344 23.3083 13.0058 23.3085 13.9697V16.0303Z" fill="#1C252E"/>
<path d="M14 11.25C14.4142 11.25 14.75 11.5858 14.75 12C14.75 12.4142 14.4142 12.75 14 12.75H7C6.58579 12.75 6.25 12.4142 6.25 12C6.25 11.5858 6.58579 11.25 7 11.25H14Z" fill="#1C252E"/>
<path d="M8.25 19C8.25 17.2042 6.79579 15.75 5 15.75C4.23848 15.75 3.53185 16.0172 2.96777 16.4668L2.96582 16.4678C2.22084 17.0591 1.75 17.9747 1.75 19C1.75 20.7958 3.20421 22.25 5 22.25C5.81622 22.25 6.56257 21.9439 7.14453 21.4365C7.82096 20.8416 8.25 19.9735 8.25 19ZM9.75 19C9.75 20.4265 9.11923 21.6984 8.13574 22.5635L8.13379 22.5645C7.29603 23.296 6.20287 23.75 5 23.75C2.37579 23.75 0.25 21.6242 0.25 19C0.25 17.5062 0.938383 16.1627 2.03223 15.2939L2.18848 15.1748C2.97833 14.5958 3.95153 14.25 5 14.25C7.62421 14.25 9.75 16.3758 9.75 19Z" fill="#1C252E"/>
<path d="M4.50003 17.75C4.50003 17.3358 4.83581 17 5.25003 17C5.66424 17 6.00003 17.3358 6.00003 17.75V19.25C6.00003 19.5134 5.86167 19.758 5.63577 19.8936L4.38577 20.6436C4.03062 20.8564 3.56953 20.7408 3.35647 20.3857C3.1436 20.0306 3.2592 19.5695 3.61428 19.3564L4.50003 18.8242V17.75Z" fill="#1C252E"/>
</svg>
