<svg width="24" height="24" viewBox="0 0 24 24" fill="none" xmlns="http://www.w3.org/2000/svg">
<path d="M21.25 12C21.25 10.7847 20.8814 9.80298 20.2744 9.09961C19.6688 8.39803 18.7847 7.92534 17.6631 7.79492C17.651 7.79351 17.6389 7.79203 17.627 7.79004C17.4471 7.76006 17.2446 7.75 17 7.75H7C6.75575 7.75 6.52364 7.76792 6.30371 7.80176C6.29697 7.80279 6.28997 7.80286 6.2832 7.80371C5.17614 7.94266 4.30597 8.41714 3.70996 9.11621C3.11239 9.81731 2.75 10.7929 2.75 12V17C2.75 18.3296 3.18986 19.3793 3.90527 20.0947C4.62069 20.8101 5.67044 21.25 7 21.25H17C18.3296 21.25 19.3793 20.8101 20.0947 20.0947C20.8101 19.3793 21.25 18.3296 21.25 17V12ZM22.75 17C22.75 18.6704 22.1899 20.1207 21.1553 21.1553C20.1207 22.1899 18.6704 22.75 17 22.75H7C5.32956 22.75 3.87931 22.1899 2.84473 21.1553C1.81014 20.1207 1.25 18.6704 1.25 17V12C1.25 10.4871 1.70843 9.15246 2.56836 8.14355C3.42572 7.13775 4.6425 6.50381 6.07617 6.31934V6.31836C6.07876 6.31796 6.08139 6.31778 6.08398 6.31738C6.08819 6.31685 6.09247 6.31596 6.09668 6.31543V6.31641C6.39025 6.27235 6.69147 6.25 7 6.25H17C17.2641 6.25 17.5484 6.26081 17.8359 6.30566C19.2942 6.47523 20.5358 7.10689 21.4102 8.12012C22.2832 9.13175 22.75 10.4753 22.75 12V17Z" fill="#1C252E"/>
<path d="M9.49308 2.48723C11.1555 0.837283 13.8473 0.837244 15.5097 2.48723L15.5146 2.49212V2.49309L17.2577 4.25579L17.3984 4.4013C18.0841 5.1421 18.455 6.0615 18.5009 7.0136C18.5118 7.24006 18.4193 7.45957 18.2499 7.61028C18.0805 7.76099 17.8515 7.82725 17.6278 7.78997C17.448 7.76 17.2454 7.74993 17.0009 7.74993H7.00089C6.75685 7.74995 6.52534 7.76789 6.30558 7.80169C6.02843 7.84433 5.75006 7.72848 5.58488 7.50188C5.41977 7.27531 5.39506 6.9753 5.52043 6.72454C5.70455 6.35629 5.95856 6.03252 6.24113 5.74993L9.49015 2.49016L9.49308 2.48723ZM14.453 3.55266C13.3755 2.48297 11.6273 2.48297 10.5497 3.55266L7.86027 6.24993H16.8202C16.6877 5.91478 16.4847 5.59951 16.205 5.32415L16.1982 5.31731L14.453 3.55169V3.55266Z" fill="#1C252E"/>
<path d="M16.25 14.5C16.25 12.9858 17.4858 11.75 19 11.75H22C22.4142 11.75 22.75 12.0858 22.75 12.5C22.75 12.9142 22.4142 13.25 22 13.25H19C18.3142 13.25 17.75 13.8142 17.75 14.5C17.75 15.1858 18.3142 15.75 19 15.75H22C22.4142 15.75 22.75 16.0858 22.75 16.5C22.75 16.9142 22.4142 17.25 22 17.25H19C17.4858 17.25 16.25 16.0142 16.25 14.5Z" fill="#1C252E"/>
</svg>
