<svg width="24" height="24" viewBox="0 0 24 24" fill="none" xmlns="http://www.w3.org/2000/svg">
<path d="M9.49308 2.48729C11.1555 0.837343 13.8473 0.837305 15.5097 2.48729L15.5146 2.49218V2.49315L17.2577 4.25585L17.3984 4.40136C18.0841 5.14217 18.455 6.06157 18.5009 7.01366C18.5118 7.24013 18.4193 7.45963 18.2499 7.61034C18.0805 7.76105 17.8515 7.82731 17.6278 7.79003C17.448 7.76006 17.2454 7.74999 17.0009 7.74999H7.00089C6.7569 7.75001 6.5253 7.76698 6.30558 7.80077C6.02843 7.84341 5.75005 7.72854 5.58488 7.50194C5.41976 7.27538 5.39507 6.97537 5.52042 6.7246C5.70456 6.35632 5.95858 6.03255 6.24113 5.74999L9.49015 2.49022L9.49308 2.48729ZM14.453 3.55272C13.3755 2.48303 11.6273 2.48303 10.5497 3.55272L7.86027 6.24999H16.8202C16.6877 5.91481 16.4847 5.59958 16.205 5.32421L16.1982 5.31737L14.453 3.55175V3.55272Z" fill="#1C252E"/>
<path d="M21.25 17V12C21.25 10.7847 20.8814 9.80298 20.2744 9.09961C19.6688 8.39803 18.7847 7.92534 17.6631 7.79492C17.651 7.79351 17.6389 7.79203 17.627 7.79004C17.4471 7.76006 17.2446 7.75 17 7.75H7C6.75575 7.75 6.52364 7.76792 6.30371 7.80176C6.29697 7.80279 6.28997 7.80286 6.2832 7.80371C5.17614 7.94266 4.30597 8.41714 3.70996 9.11621C3.11239 9.81731 2.75 10.7929 2.75 12V14.8184C3.41784 14.4571 4.18348 14.25 5 14.25C7.62421 14.25 9.75 16.3758 9.75 19C9.75 19.808 9.54306 20.5785 9.1748 21.25H17C18.3296 21.25 19.3793 20.8101 20.0947 20.0947C20.8101 19.3793 21.25 18.3296 21.25 17ZM22.75 17C22.75 18.6704 22.1899 20.1207 21.1553 21.1553C20.1207 22.1899 18.6704 22.75 17 22.75H7.62988C7.31468 22.75 7.03267 22.553 6.9248 22.2568C6.81699 21.9605 6.90683 21.6284 7.14844 21.4258C7.39137 21.222 7.60545 20.9679 7.77246 20.6816L7.78125 20.666C8.07909 20.183 8.25 19.6094 8.25 19C8.25 17.2042 6.79579 15.75 5 15.75C4.02652 15.75 3.15844 16.179 2.56348 16.8555C2.35735 17.0898 2.02737 17.1717 1.73535 17.0615C1.44346 16.9514 1.25015 16.6723 1.25 16.3604V12C1.25 10.4871 1.70843 9.15246 2.56836 8.14355C3.42572 7.13775 4.6425 6.50381 6.07617 6.31934V6.31836C6.07876 6.31796 6.08139 6.31778 6.08398 6.31738C6.08819 6.31685 6.09247 6.31596 6.09668 6.31543V6.31641C6.39025 6.27235 6.69147 6.25 7 6.25H17C17.2641 6.25 17.5484 6.26081 17.8359 6.30566C19.2942 6.47523 20.5358 7.10689 21.4102 8.12012C22.2832 9.13175 22.75 10.4753 22.75 12V17Z" fill="#1C252E"/>
<path d="M16.25 14.5C16.25 12.9858 17.4858 11.75 19 11.75H22C22.4142 11.75 22.75 12.0858 22.75 12.5C22.75 12.9142 22.4142 13.25 22 13.25H19C18.3142 13.25 17.75 13.8142 17.75 14.5C17.75 15.1858 18.3142 15.75 19 15.75H22C22.4142 15.75 22.75 16.0858 22.75 16.5C22.75 16.9142 22.4142 17.25 22 17.25H19C17.4858 17.25 16.25 16.0142 16.25 14.5Z" fill="#1C252E"/>
<path d="M8.25 19C8.25 17.2042 6.79579 15.75 5 15.75C3.20421 15.75 1.75 17.2042 1.75 19C1.75 19.5333 1.88008 20.0396 2.1123 20.4814L2.21875 20.666L2.22461 20.6768L2.33496 20.8496C2.91372 21.6944 3.88832 22.25 5 22.25C6.18582 22.25 7.21556 21.6178 7.77539 20.6768L7.78125 20.666C8.07909 20.183 8.25 19.6094 8.25 19ZM9.75 19C9.75 19.8906 9.50073 20.7371 9.05859 21.4541L9.05762 21.4531C8.23605 22.8264 6.72983 23.75 5 23.75C3.27017 23.75 1.76395 22.8264 0.942383 21.4531C0.500265 20.7362 0.25 19.8906 0.25 19C0.25 16.3758 2.37579 14.25 5 14.25C7.62421 14.25 9.75 16.3758 9.75 19Z" fill="#1C252E"/>
<path d="M6.0517 17.4688C6.3558 17.1875 6.831 17.2067 7.11225 17.5108C7.39312 17.8149 7.37422 18.2892 7.07026 18.5703L4.94037 20.54C4.64463 20.8135 4.18613 20.8044 3.90131 20.5195L2.91108 19.5303C2.61818 19.2374 2.61818 18.7617 2.91108 18.4688C3.20391 18.1762 3.67879 18.1762 3.97162 18.4688L4.45112 18.9483L6.0517 17.4688Z" fill="#1C252E"/>
</svg>
