<svg width="24" height="24" viewBox="0 0 24 24" fill="none" xmlns="http://www.w3.org/2000/svg">
<path d="M11.8983 2.25774C13.4524 2.17735 14.9677 2.76855 16.0653 3.86614H16.0643L20.6034 8.38469L20.6063 8.38762C22.7563 10.5493 22.7586 14.0425 20.6054 16.1962L16.2138 20.5878C14.052 22.738 10.5579 22.7405 8.40418 20.5868L3.87391 16.0566C2.77508 14.9576 2.18641 13.4427 2.25574 11.8827V11.8808L2.49598 6.88079V6.87883C2.61529 4.50457 4.51238 2.60668 6.89832 2.49797L11.8983 2.25676V2.25774ZM11.9735 3.75481L11.9706 3.75579L6.97059 3.99505L6.96864 3.99602C5.35582 4.0686 4.07467 5.34917 3.99403 6.95403L3.75379 11.9521C3.70386 13.0911 4.13499 14.1956 4.93543 14.996L9.46473 19.5263C11.0311 21.0926 13.5779 21.0941 15.1561 19.5243L19.5438 15.1357C21.1092 13.5703 21.1126 11.0266 19.5458 9.44817L15.0057 4.92766L15.0048 4.92669C14.203 4.12492 13.0984 3.69605 11.9735 3.75481Z" fill="#1C252E"/>
<path d="M11.4849 9.72632C11.4849 8.75982 10.7014 7.97632 9.73486 7.97632C8.76836 7.97632 7.98486 8.75982 7.98486 9.72632C7.98486 10.6928 8.76836 11.4763 9.73486 11.4763C10.7014 11.4763 11.4849 10.6928 11.4849 9.72632ZM12.9849 9.72632C12.9849 11.5212 11.5298 12.9763 9.73486 12.9763C7.93994 12.9763 6.48486 11.5212 6.48486 9.72632C6.48486 7.93139 7.93994 6.47632 9.73486 6.47632C11.5298 6.47632 12.9849 7.93139 12.9849 9.72632Z" fill="#1C252E"/>
<path d="M16.7045 12.696C16.9974 12.4031 17.4722 12.4031 17.7651 12.696C18.058 12.9889 18.058 13.4636 17.7651 13.7565L13.7651 17.7565C13.4722 18.0494 12.9974 18.0494 12.7045 17.7565C12.4116 17.4636 12.4116 16.9889 12.7045 16.696L16.7045 12.696Z" fill="#1C252E"/>
</svg>
