<svg width="24" height="24" viewBox="0 0 24 24" fill="none" xmlns="http://www.w3.org/2000/svg">
<path d="M21.25 9C21.25 6.57397 20.7603 5.0708 19.8447 4.15527C18.9292 3.23974 17.426 2.75 15 2.75H9C6.57397 2.75 5.0708 3.23974 4.15527 4.15527C3.23974 5.0708 2.75 6.57397 2.75 9V15C2.75 17.426 3.23974 18.9292 4.15527 19.8447C5.0708 20.7603 6.57397 21.25 9 21.25H15C17.426 21.25 18.9292 20.7603 19.8447 19.8447C20.7603 18.9292 21.25 17.426 21.25 15V9ZM22.75 15C22.75 17.574 22.2397 19.5708 20.9053 20.9053C19.5708 22.2397 17.574 22.75 15 22.75H9C6.42603 22.75 4.4292 22.2397 3.09473 20.9053C1.76026 19.5708 1.25 17.574 1.25 15V9C1.25 6.42603 1.76026 4.4292 3.09473 3.09473C4.4292 1.76026 6.42603 1.25 9 1.25H15C17.574 1.25 19.5708 1.76026 20.9053 3.09473C22.2397 4.4292 22.75 6.42603 22.75 9V15Z" fill="#1C252E"/>
<path d="M10.001 14.5607V12.9601C9.42794 12.4834 9.01931 11.8036 8.9082 11.0148L8.90918 11.0138C8.88398 10.8643 8.87112 10.7102 8.87109 10.5607C8.87109 8.55631 10.7686 7.01003 12.8301 7.55578L12.8311 7.55481C13.8907 7.83296 14.7439 8.68456 15.0244 9.74328L15.0645 9.90735C15.1465 10.2917 15.1494 10.672 15.0918 11.0294L15.0908 11.0284C14.9769 11.8115 14.5708 12.4862 14.001 12.9601V14.5607C14.0007 15.6647 13.105 16.5607 12.001 16.5607C10.897 16.5606 10.0012 15.6646 10.001 14.5607ZM10.376 10.6749L10.3887 10.7765L10.3916 10.7911L10.3936 10.8058C10.4607 11.2821 10.7437 11.6935 11.1465 11.9435L11.501 12.1632V14.5607C11.5012 14.8362 11.7254 15.0606 12.001 15.0607C12.2766 15.0607 12.5007 14.8363 12.501 14.5607V12.1632L12.8555 11.9435C13.2583 11.6935 13.5413 11.2821 13.6084 10.8058L13.6094 10.798L13.6104 10.7911C13.6445 10.5796 13.6371 10.3578 13.5771 10.1378L13.5752 10.131C13.434 9.59295 12.9891 9.1474 12.4512 9.00598L12.4482 9.005C11.3511 8.7135 10.3711 9.52618 10.3711 10.5607C10.3711 10.6004 10.3729 10.6389 10.376 10.6749Z" fill="#1C252E"/>
<path d="M22.002 10.1602V11.6602H14.3516V10.1602H22.002Z" fill="#1C252E"/>
<path d="M9.65039 10.1599V11.6599H2V10.1599H9.65039Z" fill="#1C252E"/>
</svg>
