<svg width="24" height="24" viewBox="0 0 24 24" fill="none" xmlns="http://www.w3.org/2000/svg">
<path d="M20.75 11.5098C20.7499 9.85417 19.3958 8.50013 17.7402 8.5H6.25977C4.60417 8.50013 3.25013 9.85417 3.25 11.5098V18.2402C3.25013 19.8958 4.60417 21.2499 6.25977 21.25H17.7402C19.3958 21.2499 20.7499 19.8958 20.75 18.2402V17.7998H19.5996C18.1888 17.7996 16.8195 16.7671 16.6924 15.2422V15.2412C16.6182 14.4318 16.9042 13.6727 17.4111 13.1211L17.5156 13.0137C18.0267 12.4958 18.7259 12.2002 19.4805 12.2002H20.75V11.5098ZM22.25 12.9502C22.2499 13.3643 21.9142 13.7002 21.5 13.7002H19.4805C19.1214 13.7002 18.805 13.8393 18.5771 14.0732C18.5728 14.0777 18.568 14.0825 18.5635 14.0869C18.2977 14.3465 18.1493 14.716 18.1865 15.1084L18.1875 15.1182C18.2407 15.7528 18.8509 16.2996 19.5996 16.2998H21.5C21.9142 16.2998 22.2499 16.6357 22.25 17.0498V18.2402C22.2499 20.7243 20.2243 22.7499 17.7402 22.75H6.25977C3.77574 22.7499 1.75013 20.7243 1.75 18.2402V11.5098C1.75013 9.02574 3.77574 7.00013 6.25977 7H17.7402C20.2243 7.00013 22.2499 9.02574 22.25 11.5098V12.9502Z" fill="#1C252E"/>
<path d="M14.0996 7.7497V3.94989C14.0995 3.14245 13.293 2.58859 12.5459 2.87177H12.5449L4.60547 5.87177C3.78854 6.1809 3.25 6.96086 3.25 7.84052V12.4099C3.25 12.8241 2.91421 13.1599 2.5 13.1599C2.08579 13.1599 1.75 12.8241 1.75 12.4099V7.84052C1.75 6.3403 2.67134 4.9994 4.07422 4.46845H4.0752L12.0146 1.46845L12.1768 1.41278C13.8609 0.892691 15.5995 2.15532 15.5996 3.94989V7.7497C15.5996 8.16391 15.2638 8.4997 14.8496 8.4997C14.4356 8.49949 14.0996 8.16378 14.0996 7.7497Z" fill="#1C252E"/>
<path d="M21.8085 13.9697C21.8083 13.8511 21.7246 13.7374 21.5917 13.707L21.5322 13.7002H19.4784C19.1195 13.7003 18.8038 13.8394 18.5761 14.0732C18.5717 14.0778 18.567 14.0825 18.5624 14.0869C18.3297 14.3141 18.1867 14.6256 18.1796 14.9629L18.1855 15.1094L18.1864 15.1182C18.2395 15.753 18.8497 16.2997 19.5986 16.2998H21.54C21.7024 16.2901 21.8085 16.1638 21.8085 16.0303V13.9697ZM23.3085 16.0303C23.3085 16.9944 22.5387 17.7656 21.5859 17.7998H19.5986C18.1877 17.7997 16.8184 16.7671 16.6913 15.2422L16.6923 15.2412C16.6181 14.4318 16.9031 13.6727 17.4101 13.1211L17.5146 13.0137C18.0256 12.496 18.7241 12.2003 19.4784 12.2002H21.5859C22.5386 12.2344 23.3083 13.0058 23.3085 13.9697V16.0303Z" fill="#1C252E"/>
<path d="M14 11.25C14.4142 11.25 14.75 11.5858 14.75 12C14.75 12.4142 14.4142 12.75 14 12.75H7C6.58579 12.75 6.25 12.4142 6.25 12C6.25 11.5858 6.58579 11.25 7 11.25H14Z" fill="#1C252E"/>
</svg>
