<svg width="24" height="24" viewBox="0 0 24 24" fill="none" xmlns="http://www.w3.org/2000/svg">
<path d="M21.25 17V12C21.25 9.6583 19.8164 8.01477 17.7451 7.75H7C6.70705 7.75 6.61311 7.75302 6.4375 7.81152C6.38846 7.82787 6.33749 7.83879 6.28613 7.84473C5.15395 7.97536 4.28441 8.44605 3.69531 9.13672C3.10375 9.83037 2.75 10.7994 2.75 12V13C2.75 13.4142 2.41421 13.75 2 13.75C1.58579 13.75 1.25 13.4142 1.25 13V12C1.25 10.5007 1.69634 9.16944 2.55469 8.16309C3.40144 7.17048 4.6061 6.54567 6.04199 6.36426C6.42591 6.24829 6.71248 6.25 7 6.25H17.7998C17.8297 6.25 17.86 6.25133 17.8896 6.25488C20.7996 6.60419 22.75 8.9548 22.75 12V17C22.75 18.6704 22.1899 20.1207 21.1553 21.1553C20.1207 22.1899 18.6704 22.75 17 22.75H12C11.5858 22.75 11.25 22.4142 11.25 22C11.25 21.5858 11.5858 21.25 12 21.25H17C18.3296 21.25 19.3793 20.8101 20.0947 20.0947C20.8101 19.3793 21.25 18.3296 21.25 17Z" fill="#1C252E"/>
<path d="M9.46947 2.46952C11.1623 0.776695 13.8371 0.776826 15.53 2.46952L17.3298 4.26933C18.0798 5.01931 18.4294 5.99297 18.5437 6.90702C18.5704 7.12041 18.5043 7.33464 18.362 7.49589C18.2197 7.65716 18.0147 7.7498 17.7995 7.7498H6.99974C6.70688 7.7498 6.61289 7.75279 6.43724 7.81132C6.16783 7.90112 5.87054 7.83137 5.66966 7.63066C5.46888 7.42987 5.39838 7.13248 5.48802 6.86308C5.65403 6.36507 5.99735 6.04125 6.26927 5.76933L9.46166 2.47831L9.46947 2.46952ZM14.4695 3.53007C13.3651 2.42593 11.6452 2.42253 10.5378 3.52128L7.8933 6.2498H16.8484C16.7151 5.90075 16.5255 5.58605 16.2693 5.32987L14.4695 3.53007Z" fill="#1C252E"/>
<path d="M16.25 14.5C16.25 12.9858 17.4858 11.75 19 11.75H22C22.4142 11.75 22.75 12.0858 22.75 12.5C22.75 12.9142 22.4142 13.25 22 13.25H19C18.3142 13.25 17.75 13.8142 17.75 14.5C17.75 15.1858 18.3142 15.75 19 15.75H22C22.4142 15.75 22.75 16.0858 22.75 16.5C22.75 16.9142 22.4142 17.25 22 17.25H19C17.4858 17.25 16.25 16.0142 16.25 14.5Z" fill="#1C252E"/>
<path d="M8.25195 18.2002C8.25195 16.8445 7.15745 15.7501 5.80176 15.75C4.44597 15.75 3.35156 16.8444 3.35156 18.2002C3.35166 19.5559 4.44603 20.6504 5.80176 20.6504C7.15739 20.6503 8.25185 19.5558 8.25195 18.2002ZM9.75195 18.2002C9.75185 20.3843 7.98583 22.1503 5.80176 22.1504C3.6176 22.1504 1.85166 20.3843 1.85156 18.2002C1.85156 16.016 3.61754 14.25 5.80176 14.25C7.98589 14.2501 9.75195 16.0161 9.75195 18.2002Z" fill="#1C252E"/>
<path d="M2.46967 20.4697C2.76256 20.1768 3.23732 20.1768 3.53022 20.4697C3.82311 20.7626 3.82311 21.2374 3.53022 21.5303L2.53022 22.5303C2.23732 22.8232 1.76256 22.8232 1.46967 22.5303C1.17678 22.2374 1.17678 21.7626 1.46967 21.4697L2.46967 20.4697Z" fill="#1C252E"/>
</svg>
