<svg width="24" height="24" viewBox="0 0 24 24" fill="none" xmlns="http://www.w3.org/2000/svg">
<path d="M2.75 18.2998V7.04004C2.75 5.03648 2.96504 3.48963 3.89453 2.49609C4.84062 1.48482 6.32836 1.25002 8.21973 1.25H15.7803C17.6713 1.25002 19.1595 1.48518 20.1045 2.49707C21.0326 3.49106 21.2451 5.03756 21.2402 7.04004V18.3096C21.2402 19.0343 21.1423 19.6765 20.9307 20.1982C20.7179 20.7223 20.3662 21.1761 19.8398 21.4033C19.308 21.6329 18.7383 21.5707 18.2188 21.3467C17.7065 21.1258 17.2004 20.7332 16.7129 20.2129L16.7109 20.2109C16.442 19.9225 16.136 19.8194 15.8682 19.834C15.6 19.8486 15.3066 19.9848 15.0703 20.2998L15.0693 20.2988L14.0605 21.6494L14.0576 21.6523C13.5323 22.3462 12.7934 22.7529 11.9951 22.7529C11.1968 22.7529 10.457 22.3463 9.93164 21.6523L9.92969 21.6494L8.91992 20.2988V20.2998C8.68365 19.9849 8.39024 19.8487 8.12207 19.834C7.8541 19.8194 7.54732 19.9223 7.27832 20.2109L7.27734 20.2129C6.79215 20.731 6.2872 21.1225 5.77539 21.3428C5.25617 21.5661 4.6861 21.6275 4.1543 21.3984C3.62788 21.1716 3.27535 20.7185 3.06152 20.1934C2.84877 19.6707 2.75 19.0273 2.75 18.2998ZM4.25 18.2998C4.25 18.907 4.334 19.3425 4.4502 19.6279C4.56539 19.9108 4.68842 19.9958 4.74805 20.0215C4.80262 20.0449 4.9306 20.0732 5.18262 19.9648C5.44209 19.8531 5.78325 19.6139 6.18262 19.1875C6.73343 18.5971 7.4617 18.2956 8.20312 18.3359C8.89854 18.3738 9.55018 18.7091 10.0273 19.2822L10.1201 19.4004L11.1279 20.7471C11.4126 21.1231 11.7334 21.2529 11.9951 21.2529C12.2568 21.2529 12.5777 21.1231 12.8623 20.7471L13.8691 19.4004H13.8701C14.3537 18.7556 15.0454 18.3763 15.7871 18.3359C16.5285 18.2957 17.2568 18.5971 17.8076 19.1875L17.9551 19.3398C18.2938 19.6752 18.5848 19.8715 18.8125 19.9697C19.0652 20.0787 19.1919 20.0493 19.2451 20.0264C19.3037 20.0011 19.4263 19.9174 19.541 19.6348C19.6567 19.3497 19.7402 18.9147 19.7402 18.3096V7.03809C19.7453 5.0116 19.4918 4.03872 19.0078 3.52051C18.5403 3.02012 17.6686 2.75003 15.7803 2.75H8.21973C6.33142 2.75003 5.45908 3.02034 4.99023 3.52148C4.50483 4.04049 4.25 5.01381 4.25 7.04004V18.2998Z" fill="#1C252E"/>
<path d="M14.4697 6.46967C14.7626 6.17678 15.2373 6.17678 15.5302 6.46967C15.8231 6.76256 15.8231 7.23732 15.5302 7.53022L9.53022 13.5302C9.23732 13.8231 8.76256 13.8231 8.46967 13.5302C8.17678 13.2373 8.17678 12.7626 8.46967 12.4697L14.4697 6.46967Z" fill="#1C252E"/>
<path d="M15.0039 12C15.556 12.0002 16.0039 12.4479 16.0039 13C16.0039 13.5521 15.556 13.9998 15.0039 14H14.9941C14.442 13.9998 13.9941 13.5522 13.9941 13C13.9941 12.4478 14.442 12.0002 14.9941 12H15.0039Z" fill="#1C252E"/>
<path d="M9.00391 6.5C9.556 6.50023 10.0039 6.94785 10.0039 7.5C10.0039 8.05215 9.556 8.49977 9.00391 8.5H8.99414C8.44202 8.4998 7.99414 8.05216 7.99414 7.5C7.99414 6.94784 8.44202 6.5002 8.99414 6.5H9.00391Z" fill="#1C252E"/>
</svg>
