<svg width="24" height="24" viewBox="0 0 24 24" fill="none" xmlns="http://www.w3.org/2000/svg">
<path d="M21.25 8.5C21.25 6.89295 20.7942 5.86869 20.1143 5.2373C19.4242 4.59664 18.385 4.25 17 4.25H7C5.61505 4.25 4.57576 4.59664 3.88574 5.2373C3.20579 5.86869 2.75 6.89295 2.75 8.5V15.5C2.75 17.107 3.20579 18.1313 3.88574 18.7627C4.57576 19.4034 5.61505 19.75 7 19.75H17C18.385 19.75 19.4242 19.4034 20.1143 18.7627C20.7942 18.1313 21.25 17.107 21.25 15.5V8.5ZM22.75 15.5C22.75 17.3929 22.2057 18.8687 21.1357 19.8623C20.0758 20.8466 18.615 21.25 17 21.25H7C5.38503 21.25 3.92424 20.8466 2.86426 19.8623C1.79429 18.8687 1.25 17.3929 1.25 15.5V8.5C1.25 6.60712 1.79429 5.13131 2.86426 4.1377C3.92424 3.15342 5.38503 2.75 7 2.75H17C18.615 2.75 20.0758 3.15342 21.1357 4.1377C22.2057 5.13131 22.75 6.60712 22.75 8.5V15.5Z" fill="#1C252E"/>
<path d="M14.25 12C14.25 10.7574 13.2426 9.75 12 9.75C10.7574 9.75 9.75 10.7574 9.75 12C9.75 13.2426 10.7574 14.25 12 14.25C13.2426 14.25 14.25 13.2426 14.25 12ZM15.75 12C15.75 14.0711 14.0711 15.75 12 15.75C9.92893 15.75 8.25 14.0711 8.25 12C8.25 9.92893 9.92893 8.25 12 8.25C14.0711 8.25 15.75 9.92893 15.75 12Z" fill="#1C252E"/>
<path d="M6.25 5V4C6.25 3.58579 6.58579 3.25 7 3.25C7.41421 3.25 7.75 3.58579 7.75 4V5C7.75 6.54155 7.50269 7.80785 6.65527 8.65527C5.80785 9.50269 4.54155 9.75 3 9.75H2C1.58579 9.75 1.25 9.41421 1.25 9C1.25 8.58579 1.58579 8.25 2 8.25H3C4.45845 8.25 5.19215 7.99731 5.59473 7.59473C5.99731 7.19215 6.25 6.45845 6.25 5Z" fill="#1C252E"/>
<path d="M16.25 5V4C16.25 3.58579 16.5858 3.25 17 3.25C17.4142 3.25 17.75 3.58579 17.75 4V5C17.75 6.45845 18.0027 7.19215 18.4053 7.59473C18.8079 7.99731 19.5415 8.25 21 8.25H22C22.4142 8.25 22.75 8.58579 22.75 9C22.75 9.41421 22.4142 9.75 22 9.75H21C19.4585 9.75 18.1921 9.50269 17.3447 8.65527C16.4973 7.80785 16.25 6.54155 16.25 5Z" fill="#1C252E"/>
<path d="M6.25 20V19C6.25 17.5415 5.99731 16.8079 5.59473 16.4053C5.19215 16.0027 4.45845 15.75 3 15.75H2C1.58579 15.75 1.25 15.4142 1.25 15C1.25 14.5858 1.58579 14.25 2 14.25H3C4.54155 14.25 5.80785 14.4973 6.65527 15.3447C7.50269 16.1921 7.75 17.4585 7.75 19V20C7.75 20.4142 7.41421 20.75 7 20.75C6.58579 20.75 6.25 20.4142 6.25 20Z" fill="#1C252E"/>
<path d="M16.25 20V19C16.25 17.4585 16.4973 16.1921 17.3447 15.3447C18.1921 14.4973 19.4585 14.25 21 14.25H22C22.4142 14.25 22.75 14.5858 22.75 15C22.75 15.4142 22.4142 15.75 22 15.75H21C19.5415 15.75 18.8079 16.0027 18.4053 16.4053C18.0027 16.8079 17.75 17.5415 17.75 19V20C17.75 20.4142 17.4142 20.75 17 20.75C16.5858 20.75 16.25 20.4142 16.25 20Z" fill="#1C252E"/>
</svg>
