<svg width="24" height="24" viewBox="0 0 24 24" fill="none" xmlns="http://www.w3.org/2000/svg">
<path d="M21.25 9C21.25 6.57397 20.7603 5.0708 19.8447 4.15527C18.9292 3.23974 17.426 2.75 15 2.75H9C6.57397 2.75 5.0708 3.23974 4.15527 4.15527C3.23974 5.0708 2.75 6.57397 2.75 9V15C2.75 17.426 3.23974 18.9292 4.15527 19.8447C5.0708 20.7603 6.57397 21.25 9 21.25H15C17.426 21.25 18.9292 20.7603 19.8447 19.8447C20.7603 18.9292 21.25 17.426 21.25 15V9ZM22.75 15C22.75 17.574 22.2397 19.5708 20.9053 20.9053C19.5708 22.2397 17.574 22.75 15 22.75H9C6.42603 22.75 4.4292 22.2397 3.09473 20.9053C1.76026 19.5708 1.25 17.574 1.25 15V9C1.25 6.42603 1.76026 4.4292 3.09473 3.09473C4.4292 1.76026 6.42603 1.25 9 1.25H15C17.574 1.25 19.5708 1.76026 20.9053 3.09473C22.2397 4.4292 22.75 6.42603 22.75 9V15Z" fill="#1C252E"/>
<path d="M14.5798 8.19964C14.8727 7.90677 15.3474 7.90675 15.6403 8.19964C15.9332 8.49252 15.9332 8.9673 15.6403 9.26018L9.10027 15.8002C8.80738 16.0931 8.33261 16.0931 8.03972 15.8002C7.74684 15.5073 7.74686 15.0326 8.03972 14.7397L14.5798 8.19964Z" fill="#1C252E"/>
<path d="M9.45996 9.14038C9.45996 8.87541 9.24533 8.66016 8.98047 8.65991C8.71537 8.65991 8.5 8.87528 8.5 9.14038C8.50025 9.40524 8.7155 9.61987 8.98047 9.61987C9.2452 9.61963 9.45971 9.40511 9.45996 9.14038ZM10.96 9.14038C10.9597 10.2335 10.0736 11.1196 8.98047 11.1199C7.88712 11.1199 7.00025 10.2337 7 9.14038C7 8.04686 7.88694 7.15991 8.98047 7.15991C10.0738 7.16016 10.96 8.04703 10.96 9.14038Z" fill="#1C252E"/>
<path d="M16 14.8604C16 14.5954 15.7854 14.3801 15.5205 14.3799C15.2554 14.3799 15.04 14.5953 15.04 14.8604C15.0403 15.1252 15.2556 15.3398 15.5205 15.3398C15.7852 15.3396 15.9997 15.1251 16 14.8604ZM17.5 14.8604C17.4997 15.9535 16.6136 16.8396 15.5205 16.8398C14.4271 16.8398 13.5403 15.9536 13.54 14.8604C13.54 13.7668 14.427 12.8799 15.5205 12.8799C16.6138 12.8801 17.5 13.767 17.5 14.8604Z" fill="#1C252E"/>
</svg>
