<svg width="24" height="24" viewBox="0 0 24 24" fill="none" xmlns="http://www.w3.org/2000/svg">
<path d="M22 7.75488C22.4142 7.75488 22.75 8.09067 22.75 8.50488C22.75 8.9191 22.4142 9.25488 22 9.25488H2C1.58579 9.25488 1.25 8.9191 1.25 8.50488C1.25 8.09067 1.58579 7.75488 2 7.75488H22Z" fill="#1C252E"/>
<path d="M8 15.7549C8.41421 15.7549 8.75 16.0907 8.75 16.5049C8.75 16.9191 8.41421 17.2549 8 17.2549H6C5.58579 17.2549 5.25 16.9191 5.25 16.5049C5.25 16.0907 5.58579 15.7549 6 15.7549H8Z" fill="#1C252E"/>
<path d="M14.5 15.7549C14.9142 15.7549 15.25 16.0907 15.25 16.5049C15.25 16.9191 14.9142 17.2549 14.5 17.2549H10.5C10.0858 17.2549 9.75 16.9191 9.75 16.5049C9.75 16.0907 10.0858 15.7549 10.5 15.7549H14.5Z" fill="#1C252E"/>
<path d="M21.25 16.1045V7.89453C21.25 6.13588 21.0087 5.33715 20.583 4.91699C20.1537 4.49358 19.3357 4.25488 17.5498 4.25488H6.44043C4.65943 4.25488 3.84403 4.49379 3.41602 4.91699C2.99101 5.33725 2.75003 6.13601 2.75 7.89453V16.1152C2.75003 17.8742 2.99163 18.672 3.41602 19.0908C3.84317 19.5123 4.65682 19.7501 6.4375 19.7451H17.5596C19.3405 19.7451 20.1559 19.5062 20.584 19.083C21.009 18.6627 21.25 17.8633 21.25 16.1045ZM22.75 16.1045C22.75 17.8556 22.546 19.2522 21.6387 20.1494C20.7342 21.0437 19.3286 21.2451 17.5596 21.2451H6.44043V21.2441C4.6726 21.249 3.26737 21.052 2.3623 20.1592C1.45428 19.2631 1.25003 17.8659 1.25 16.1152V7.89453C1.25003 6.14364 1.45411 4.74776 2.36133 3.85059C3.26581 2.95628 4.67143 2.75488 6.44043 2.75488H17.5498C19.3234 2.75488 20.7309 2.95585 21.6367 3.84961C22.5459 4.74686 22.75 6.14359 22.75 7.89453V16.1045Z" fill="#1C252E"/>
</svg>
