<svg width="24" height="24" viewBox="0 0 24 24" fill="none" xmlns="http://www.w3.org/2000/svg">
<path d="M19 11.8601C19.4142 11.8601 19.75 12.1959 19.75 12.6101C19.75 13.0243 19.4142 13.3601 19 13.3601H2C1.58579 13.3601 1.25 13.0243 1.25 12.6101C1.25 12.1959 1.58579 11.8601 2 11.8601H19Z" fill="#1C252E"/>
<path d="M18.25 10.2805C18.25 8.7875 18.0418 8.153 17.7158 7.8313C17.3863 7.50617 16.7353 7.30005 15.2197 7.30005H5.78027C5.5179 7.30005 5.27173 7.30867 5.0332 7.3186C3.90804 7.3864 3.44449 7.62152 3.19922 7.93091C2.92011 8.28306 2.75 8.93579 2.75 10.2805V17.2698C2.75 18.7628 2.95817 19.3973 3.28418 19.719C3.61369 20.0441 4.2648 20.2502 5.78027 20.2502H15.2197C16.7094 20.2502 17.3637 20.0521 17.6982 19.7375C18.0191 19.4357 18.2344 18.8434 18.25 17.4299V10.2805ZM19.75 17.4377C19.7349 18.8687 19.5451 20.0603 18.7266 20.8303C17.921 21.5881 16.6997 21.7502 15.2197 21.7502H5.78027C4.27587 21.7502 3.036 21.5813 2.23047 20.7864C1.42159 19.9881 1.25 18.7567 1.25 17.2698V10.2805C1.25 8.92528 1.39508 7.79212 2.02344 6.99927C2.68489 6.16471 3.71929 5.89459 4.95605 5.82153L4.96875 5.82056C5.2096 5.81052 5.48339 5.80005 5.78027 5.80005H15.2197C16.7241 5.80005 17.964 5.96904 18.7695 6.76392C19.5783 7.56222 19.75 8.7937 19.75 10.2805V17.4377Z" fill="#1C252E"/>
<path d="M21.25 6.73047C21.25 5.23745 21.0419 4.60295 20.7159 4.28125C20.3864 3.95612 19.7354 3.75 18.2198 3.75H8.78031C7.29045 3.75 6.63629 3.94808 6.3018 4.2627C6.0467 4.50268 5.86043 4.92616 5.78617 5.7998H15.2198C16.7242 5.7998 17.964 5.9688 18.7696 6.76367C19.5784 7.56198 19.75 8.7934 19.75 10.2803V16.5869C20.3286 16.4765 20.6226 16.2941 20.8008 16.0693C21.0799 15.7172 21.25 15.0645 21.25 13.7197V6.73047ZM22.75 13.7197C22.75 15.075 22.605 16.2081 21.9766 17.001C21.3151 17.8355 20.2807 18.1057 19.044 18.1787C18.8378 18.1908 18.6356 18.1172 18.4854 17.9756C18.3352 17.8339 18.25 17.6362 18.25 17.4297V10.2803C18.25 8.78724 18.0419 8.15275 17.7159 7.83105C17.3863 7.50598 16.7352 7.2998 15.2198 7.2998H5.78031C5.51721 7.2998 5.27043 7.30937 5.03129 7.31934C4.82577 7.3279 4.62527 7.25157 4.47758 7.1084C4.33015 6.96534 4.24798 6.76791 4.25004 6.5625C4.2651 5.1316 4.45499 3.93998 5.27348 3.16992C6.07902 2.41208 7.30029 2.25 8.78031 2.25H18.2198C19.7242 2.25 20.964 2.41899 21.7696 3.21387C22.5784 4.01217 22.75 5.24365 22.75 6.73047V13.7197Z" fill="#1C252E"/>
<path d="M6.96973 17.0601C7.38394 17.0601 7.71973 17.3958 7.71973 17.8101C7.71973 18.2243 7.38394 18.5601 6.96973 18.5601H5.25C4.83579 18.5601 4.5 18.2243 4.5 17.8101C4.5 17.3958 4.83579 17.0601 5.25 17.0601H6.96973Z" fill="#1C252E"/>
<path d="M12.5503 17.0601C12.9643 17.0603 13.3003 17.396 13.3003 17.8101C13.3003 18.2241 12.9643 18.5598 12.5503 18.5601H9.10986C8.69565 18.5601 8.35986 18.2243 8.35986 17.8101C8.35986 17.3958 8.69565 17.0601 9.10986 17.0601H12.5503Z" fill="#1C252E"/>
</svg>
