<svg width="24" height="24" viewBox="0 0 24 24" fill="none" xmlns="http://www.w3.org/2000/svg">
<path d="M18.5498 7.92041C18.5498 7.51244 18.5078 7.15183 18.4443 6.78564L18.3652 6.45654C18.1567 5.72143 17.779 5.21985 17.292 4.8833C16.7192 4.48758 15.9216 4.27008 14.9004 4.27002H6.11035C4.9054 4.27002 4.01568 4.5716 3.43066 5.11475C2.85572 5.64862 2.45996 6.52336 2.45996 7.92041V13.0698C2.45996 14.0798 2.66666 14.8138 2.99023 15.3384C3.30759 15.8527 3.76814 16.2168 4.375 16.4448H4.37598C4.56477 16.5135 4.75768 16.5686 4.94824 16.5991C4.96354 16.6016 4.97903 16.6045 4.99414 16.6079C5.32929 16.6833 5.70342 16.7202 6.11035 16.7202H14.9004C16.1052 16.7201 16.9951 16.4186 17.5801 15.8755C18.1549 15.3416 18.5498 14.4667 18.5498 13.0698V7.92041ZM20.0498 13.0698C20.0498 14.7525 19.5654 16.078 18.6006 16.9741C17.6457 17.8608 16.3352 18.2201 14.9004 18.2202H6.11035C5.61728 18.2202 5.12989 18.1764 4.66504 18.0718V18.0708C4.37348 18.0205 4.1017 17.9417 3.86328 17.855L3.85742 17.853C2.96789 17.5209 2.22524 16.9551 1.71387 16.1265C1.20763 15.3061 0.959961 14.2795 0.959961 13.0698V7.92041C0.959961 6.23752 1.4442 4.91124 2.40918 4.01514C3.36416 3.12838 4.67539 2.77002 6.11035 2.77002H14.9004C16.1187 2.77008 17.246 3.02738 18.1455 3.64893C19.0042 4.24233 19.5908 5.12357 19.8652 6.26318L19.916 6.49463L19.9189 6.51025C19.9939 6.93841 20.0498 7.39446 20.0498 7.92041V13.0698Z" fill="#1C252E"/>
<path d="M18.5507 13.0698V7.92042C18.5507 7.49342 18.5146 7.124 18.4462 6.79054C18.3956 6.54308 18.4732 6.28708 18.6523 6.10889C18.8315 5.93063 19.0885 5.8537 19.3359 5.90577C20.4227 6.13463 21.3741 6.64812 22.0468 7.51905C22.7163 8.38603 23.0507 9.53201 23.0507 10.9204V16.0698C23.0507 17.7528 22.5665 19.079 21.6015 19.9751C20.6466 20.8617 19.3361 21.2202 17.9013 21.2202H9.11126C8.30953 21.2202 7.54659 21.1119 6.86126 20.853V20.854C5.41426 20.319 4.43383 19.1885 4.09563 17.4858C4.04634 17.2371 4.12594 16.9803 4.30754 16.8032C4.48923 16.6261 4.74847 16.5532 4.99602 16.6089C5.33104 16.6842 5.70452 16.7202 6.11126 16.7202H14.9013C16.1062 16.7202 16.996 16.4187 17.581 15.8755C18.1558 15.3416 18.5507 14.4667 18.5507 13.0698ZM20.0507 13.0698C20.0507 14.7528 19.5665 16.079 18.6015 16.9751C17.6466 17.8617 16.3361 18.2202 14.9013 18.2202H6.11126C6.04871 18.2202 5.98606 18.2168 5.92376 18.2153C6.22358 18.7652 6.6597 19.1387 7.20989 19.3774L7.38079 19.4468L7.38665 19.4487C7.85977 19.6282 8.43533 19.7202 9.11126 19.7202H17.9013C19.1062 19.7202 19.996 19.4187 20.581 18.8755C21.1558 18.3416 21.5507 17.4667 21.5507 16.0698V10.9204C21.5507 9.76897 21.2757 8.97404 20.8603 8.43604C20.6439 8.15578 20.3725 7.92514 20.0468 7.74366C20.048 7.80195 20.0507 7.86103 20.0507 7.92042V13.0698Z" fill="#1C252E"/>
<path d="M12.3887 10.4995C12.3885 9.45586 11.5417 8.60986 10.498 8.60986C9.45452 8.61006 8.6086 9.45598 8.6084 10.4995C8.6084 11.5432 9.4544 12.3899 10.498 12.3901C11.5419 12.3901 12.3887 11.5433 12.3887 10.4995ZM13.8887 10.4995C13.8887 12.3718 12.3703 13.8901 10.498 13.8901C8.62597 13.8899 7.1084 12.3716 7.1084 10.4995C7.1086 8.62756 8.62609 7.11006 10.498 7.10986C12.3702 7.10986 13.8885 8.62743 13.8887 10.4995Z" fill="#1C252E"/>
<path d="M4.03003 12.7004V8.30005C4.03003 7.88584 4.36582 7.55005 4.78003 7.55005C5.19424 7.55005 5.53003 7.88584 5.53003 8.30005V12.7004C5.52983 13.1145 5.19412 13.4504 4.78003 13.4504C4.36594 13.4504 4.03023 13.1145 4.03003 12.7004Z" fill="#1C252E"/>
<path d="M15.4717 12.7007V8.30029C15.4717 7.88608 15.8075 7.55029 16.2217 7.55029C16.6359 7.55029 16.9717 7.88608 16.9717 8.30029V12.7007C16.9715 13.1147 16.6358 13.4507 16.2217 13.4507C15.8076 13.4507 15.4719 13.1147 15.4717 12.7007Z" fill="#1C252E"/>
</svg>
