<svg width="24" height="24" viewBox="0 0 24 24" fill="none" xmlns="http://www.w3.org/2000/svg">
<path d="M15.3495 3.39882C15.6424 3.10602 16.1172 3.10596 16.4101 3.39882C16.7028 3.69169 16.7028 4.1665 16.4101 4.45937L4.45986 16.4096C4.16699 16.7023 3.69218 16.7023 3.39931 16.4096C3.10645 16.1167 3.10651 15.6419 3.39931 15.349L15.3495 3.39882Z" fill="#1C252E"/>
<path d="M11.7711 16.5487C12.064 16.2559 12.5388 16.2559 12.8317 16.5487C13.1244 16.8416 13.1244 17.3164 12.8317 17.6093L11.6315 18.8095C11.3386 19.1022 10.8638 19.1022 10.5709 18.8095C10.2781 18.5166 10.2781 18.0418 10.5709 17.7489L11.7711 16.5487Z" fill="#1C252E"/>
<path d="M15.6524 12.6683C15.9453 12.3755 16.4201 12.3756 16.713 12.6683C17.0059 12.9612 17.0059 13.436 16.713 13.7289L14.3233 16.1185C14.0304 16.4114 13.5557 16.4114 13.2628 16.1185C12.9701 15.8256 12.97 15.3508 13.2628 15.058L15.6524 12.6683Z" fill="#1C252E"/>
<path d="M12.8838 1.25152C14.0155 1.24438 15.0041 1.99095 16.0518 3.03863L20.9619 7.94878C22.0095 8.99639 22.7562 9.98509 22.7491 11.1167C22.7417 12.2438 21.9873 13.234 20.9317 14.2896L14.292 20.9293C13.2362 21.985 12.2454 22.7395 11.1182 22.7466C9.98668 22.7536 8.9987 22.007 7.9512 20.9595L3.04104 16.0494C1.99508 15.0034 1.24467 14.0171 1.25003 12.8863C1.25558 11.7593 2.01152 10.7683 3.07132 9.70855L9.71097 3.0689C10.7667 2.01318 11.7567 1.25874 12.8838 1.25152ZM12.8936 2.75152C12.4358 2.7544 11.8357 3.06524 10.7715 4.12945L4.13186 10.7691C3.06181 11.8391 2.75219 12.4388 2.75003 12.8941C2.74799 13.3457 3.04774 13.935 4.10159 14.9888L9.01175 19.899C10.064 20.9511 10.6562 21.2495 11.1094 21.2466C11.5671 21.2436 12.1667 20.9325 13.2305 19.8687L19.8711 13.2291C20.9352 12.165 21.2461 11.5648 21.2491 11.107C21.2519 10.6537 20.9536 10.0615 19.9014 9.00933L14.9912 4.09917C13.939 3.04689 13.3469 2.74868 12.8936 2.75152Z" fill="#1C252E"/>
<path d="M22 21.2485C22.4142 21.2485 22.75 21.5843 22.75 21.9985C22.75 22.4127 22.4142 22.7485 22 22.7485H2C1.58579 22.7485 1.25 22.4127 1.25 21.9985C1.25 21.5843 1.58579 21.2485 2 21.2485H22Z" fill="#1C252E"/>
</svg>
