<svg width="24" height="24" viewBox="0 0 24 24" fill="none" xmlns="http://www.w3.org/2000/svg">
<path d="M13 10.4C13.4142 10.4 13.75 10.7358 13.75 11.15C13.75 11.5642 13.4142 11.9 13 11.9H7C6.58579 11.9 6.25 11.5642 6.25 11.15C6.25 10.7358 6.58579 10.4 7 10.4H13Z" fill="#1C252E"/>
<path d="M14.25 6.1496C14.2499 5.34852 13.9328 4.72885 13.4316 4.29901C12.9197 3.86005 12.178 3.59003 11.3096 3.59003H5.69043C4.06464 3.59003 2.75 4.90467 2.75 6.53046V11.1496C2.75 11.5638 2.41421 11.8996 2 11.8996C1.58579 11.8996 1.25 11.5638 1.25 11.1496V6.53046C1.25 4.07624 3.23622 2.09003 5.69043 2.09003H11.3096C12.4809 2.09003 13.5852 2.45454 14.4082 3.16034C15.2418 3.87534 15.7499 4.91107 15.75 6.1496C15.75 6.56381 15.4142 6.8996 15 6.8996C14.5858 6.8996 14.25 6.56381 14.25 6.1496Z" fill="#1C252E"/>
<path d="M19.25 10.15C19.25 8.36424 17.7858 6.90002 16 6.90002H6C4.20421 6.90002 2.75 8.35424 2.75 10.15V17.15C2.75 18.9458 4.20421 20.4 6 20.4H16C17.7958 20.4 19.25 18.9458 19.25 17.15V16.4498H19.0703C17.8346 16.4498 16.5694 15.6898 16.2158 14.3746L16.2148 14.3707C15.9465 13.3509 16.2627 12.3411 16.9424 11.6764C17.4545 11.1505 18.159 10.8502 18.9199 10.8502H19.25V10.15ZM20.75 11.6002C20.7499 12.0143 20.4141 12.3502 20 12.3502H18.9199C18.561 12.3502 18.2454 12.4893 18.0176 12.7233C18.0117 12.7293 18.0051 12.735 17.999 12.7408C17.6921 13.0355 17.5368 13.4955 17.6641 13.985C17.8105 14.5298 18.386 14.9498 19.0703 14.9498H20C20.4142 14.9498 20.7499 15.2857 20.75 15.6998V17.15C20.75 19.7742 18.6242 21.9 16 21.9H6C3.37579 21.9 1.25 19.7742 1.25 17.15V10.15C1.25 7.52581 3.37579 5.40002 6 5.40002H16C18.6142 5.40002 20.75 7.53581 20.75 10.15V11.6002Z" fill="#1C252E"/>
<path d="M21.2497 12.6205C21.2497 12.4795 21.13 12.35 20.9694 12.35H18.9196C18.5608 12.35 18.245 12.4891 18.0173 12.723C18.0128 12.7276 18.0081 12.7323 18.0036 12.7367C17.7709 12.9639 17.6279 13.2754 17.6208 13.6127L17.6266 13.7592L17.6276 13.7679C17.6807 14.4028 18.2908 14.9495 19.0397 14.9496H20.9694C21.1299 14.9496 21.2496 14.8211 21.2497 14.6801V12.6205ZM22.7497 14.6801C22.7496 15.659 21.9488 16.4496 20.9694 16.4496H19.0397C17.6289 16.4495 16.2596 15.4169 16.1325 13.892L16.1335 13.891C16.0593 13.0816 16.3442 12.3225 16.8512 11.7709L16.9557 11.6635C17.4667 11.1458 18.1652 10.85 18.9196 10.85H20.9694C21.9488 10.85 22.7497 11.6415 22.7497 12.6205V14.6801Z" fill="#1C252E"/>
</svg>
