<svg width="24" height="24" viewBox="0 0 24 24" fill="none" xmlns="http://www.w3.org/2000/svg">
<path d="M7.25 11.4001C7.25 10.9859 7.58579 10.6501 8 10.6501C8.41421 10.6501 8.75 10.9859 8.75 11.4001C8.7501 11.792 9.04959 12.0496 9.33008 12.0496H10.8301C11.0194 12.0495 11.2402 11.8729 11.2402 11.5798C11.2402 11.3249 11.1857 11.2581 11.1807 11.2517C11.1689 11.2367 11.127 11.1917 10.9521 11.1277L8.55176 10.2878L8.5498 10.2869C8.25615 10.1829 7.8993 10.0149 7.63086 9.67456C7.35476 9.32448 7.25 8.89352 7.25 8.41968C7.25014 7.37294 8.06964 6.44995 9.16016 6.44995H10.6699L10.8857 6.46362C11.9492 6.58758 12.75 7.51152 12.75 8.60034C12.7498 9.01438 12.4141 9.35034 12 9.35034C11.5859 9.35034 11.2502 9.01438 11.25 8.60034C11.25 8.26883 11.0285 8.02264 10.7646 7.96362L10.6494 7.94995H9.16016C8.97083 7.94995 8.75014 8.12669 8.75 8.41968C8.75 8.67582 8.80472 8.74094 8.80859 8.74585C8.8202 8.76054 8.86407 8.80645 9.04785 8.87183L11.4482 9.71167L11.4551 9.7146C11.7442 9.81918 12.0967 9.98811 12.3623 10.3279C12.6351 10.6768 12.7402 11.1058 12.7402 11.5798C12.7402 12.6267 11.9207 13.5495 10.8301 13.5496H9.33008C8.15068 13.5496 7.2501 12.5481 7.25 11.4001Z" fill="#1C252E"/>
<path d="M9.25 13.5903V12.8501C9.25 12.4359 9.58579 12.1001 10 12.1001C10.4142 12.1001 10.75 12.4359 10.75 12.8501V13.5903C10.7499 14.0044 10.4141 14.3403 10 14.3403C9.58586 14.3403 9.25013 14.0044 9.25 13.5903Z" fill="#1C252E"/>
<path d="M9.25 7.19019V6.40991C9.25 5.9957 9.58579 5.65991 10 5.65991C10.4142 5.65991 10.75 5.9957 10.75 6.40991V7.19019C10.7499 7.60427 10.4141 7.94019 10 7.94019C9.58588 7.94019 9.25015 7.60427 9.25 7.19019Z" fill="#1C252E"/>
<path d="M17.2305 9.99023C17.2305 5.99177 13.9887 2.75013 9.99023 2.75C5.99169 2.75 2.75 5.99169 2.75 9.99023C2.75013 13.9887 5.99177 17.2305 9.99023 17.2305C13.9886 17.2303 17.2303 13.9886 17.2305 9.99023ZM18.7305 9.99023C18.7303 14.817 14.817 18.7303 9.99023 18.7305C5.16334 18.7305 1.25013 14.8171 1.25 9.99023C1.25 5.16327 5.16327 1.25 9.99023 1.25C14.8171 1.25013 18.7305 5.16334 18.7305 9.99023Z" fill="#1C252E"/>
<path d="M21.2301 17.0302C21.2301 15.6231 20.536 14.3743 19.4723 13.6083C19.1361 13.3663 19.0593 12.8976 19.3014 12.5615C19.5434 12.2254 20.0121 12.1495 20.3482 12.3915C21.7844 13.4256 22.7301 15.1174 22.7301 17.0302C22.7299 20.1743 20.174 22.7304 17.0299 22.7304C15.0947 22.7303 13.4012 21.7717 12.3678 20.3134C12.1286 19.9755 12.2088 19.508 12.5465 19.2685C12.8844 19.029 13.3529 19.1083 13.5924 19.4462C14.3589 20.5277 15.6053 21.2303 17.0299 21.2304C19.3456 21.2304 21.2299 19.3459 21.2301 17.0302Z" fill="#1C252E"/>
</svg>
