<svg width="24" height="24" viewBox="0 0 24 24" fill="none" xmlns="http://www.w3.org/2000/svg">
<path d="M18.9326 12.9404C18.9326 11.5082 19.9101 10.2976 21.2422 9.96191V9.7002C21.2422 7.84401 20.9928 6.98694 20.5391 6.5332C20.0853 6.07952 19.2282 5.83008 17.3721 5.83008H11.7422V11.8701C11.7422 12.2843 11.4064 12.6201 10.9922 12.6201C10.5781 12.62 10.2422 12.2843 10.2422 11.8701V5.08008C10.2422 4.66592 10.578 4.33016 10.9922 4.33008H17.3721C19.2159 4.33008 20.6693 4.54139 21.6006 5.47266C22.5315 6.40394 22.7422 7.85665 22.7422 9.7002V10.6201C22.7422 11.0343 22.4064 11.3701 21.9922 11.3701C21.1307 11.3702 20.4326 12.0705 20.4326 12.9404C20.4328 13.7981 21.1287 14.4999 21.9922 14.5C22.4064 14.5 22.7421 14.8358 22.7422 15.25C22.7422 17.0936 22.5315 18.5463 21.6006 19.4775C20.6693 20.4088 19.2159 20.6201 17.3721 20.6201H10.9023C10.4881 20.6201 10.1524 20.2843 10.1523 19.8701C10.1523 19.4559 10.4881 19.1201 10.9023 19.1201H17.3721C19.2281 19.1201 20.0853 18.8707 20.5391 18.417C20.9357 18.0203 21.1753 17.3155 21.2295 15.9043C19.9052 15.5645 18.9328 14.361 18.9326 12.9404Z" fill="#1C252E"/>
<path d="M10.2433 13.87V11.4686L7.56555 4.97645L5.61731 5.7743C3.85295 6.50131 3.13138 7.07547 2.8761 7.69129C2.6292 8.28755 2.71985 9.16456 3.3761 10.8134C4.76252 10.6093 6.1623 11.3568 6.71497 12.7089L6.77356 12.8593C7.25001 14.176 6.77111 15.6282 5.67786 16.4198C6.12115 17.4648 6.51423 18.1393 6.91418 18.5546C7.29814 18.9532 7.69172 19.12 8.22375 19.12H10.2433V16.87C10.2433 16.4559 10.5793 16.1202 10.9933 16.12C11.4075 16.12 11.7433 16.4558 11.7433 16.87V19.87C11.7432 20.2842 11.4075 20.62 10.9933 20.62H8.22375C7.27587 20.62 6.49412 20.2819 5.83313 19.5956C5.20908 18.9477 4.70867 18.0059 4.22082 16.827L4.21692 16.8182L4.03723 16.368C3.96339 16.1832 3.96642 15.9767 4.04504 15.7938C4.12381 15.6108 4.27191 15.4659 4.45715 15.3925C5.27547 15.0678 5.67917 14.1142 5.33215 13.2909L5.32825 13.2811C4.99613 12.4615 4.04874 12.0597 3.20813 12.4042C3.02271 12.4801 2.81439 12.4787 2.63 12.4003C2.44551 12.3217 2.30041 12.1717 2.22668 11.9852L2.05579 11.5555V11.5546C1.34131 9.80608 0.978346 8.35359 1.49133 7.1161C2.00607 5.87495 3.29412 5.10908 5.04797 4.3866L5.04993 4.38563L7.68957 3.30555L7.76184 3.28016C8.12568 3.17259 8.5193 3.35553 8.66711 3.71375L11.6866 11.0341C11.7241 11.1248 11.7433 11.2221 11.7433 11.3202V13.87C11.7432 14.2842 11.4075 14.62 10.9933 14.62C10.5793 14.6198 10.2433 14.284 10.2433 13.87Z" fill="#1C252E"/>
<path d="M8.16211 19.1201C8.57632 19.1201 8.91211 19.4559 8.91211 19.8701C8.91211 20.2843 8.57632 20.6201 8.16211 20.6201H7.99219C7.57797 20.6201 7.24219 20.2843 7.24219 19.8701C7.24219 19.4559 7.57797 19.1201 7.99219 19.1201H8.16211Z" fill="#1C252E"/>
</svg>
