<svg width="24" height="24" viewBox="0 0 24 24" fill="none" xmlns="http://www.w3.org/2000/svg">
<path d="M21.25 17V12C21.25 10.7847 20.8814 9.80298 20.2744 9.09961C19.6688 8.39803 18.7847 7.92534 17.6631 7.79492C17.651 7.79351 17.6389 7.79203 17.627 7.79004C17.4471 7.76006 17.2446 7.75 17 7.75H7C6.75575 7.75 6.52364 7.76792 6.30371 7.80176C6.29697 7.80279 6.28997 7.80286 6.2832 7.80371C5.17614 7.94266 4.30597 8.41714 3.70996 9.11621C3.11239 9.81731 2.75 10.7929 2.75 12V14.8184C3.41784 14.4571 4.18348 14.25 5 14.25C7.62421 14.25 9.75 16.3758 9.75 19C9.75 19.808 9.54306 20.5785 9.1748 21.25H17C18.3296 21.25 19.3793 20.8101 20.0947 20.0947C20.8101 19.3793 21.25 18.3296 21.25 17ZM22.75 17C22.75 18.6704 22.1899 20.1207 21.1553 21.1553C20.1207 22.1899 18.6704 22.75 17 22.75H7.62988C7.31468 22.7499 7.03267 22.553 6.9248 22.2568C6.81699 21.9605 6.90683 21.6284 7.14844 21.4258C7.39136 21.222 7.60544 20.968 7.77246 20.6816L7.78125 20.666C8.07909 20.183 8.25 19.6093 8.25 19C8.25 17.2042 6.79579 15.75 5 15.75C4.02652 15.75 3.15844 16.179 2.56348 16.8555C2.35735 17.0898 2.02737 17.1717 1.73535 17.0615C1.44346 16.9514 1.25015 16.6723 1.25 16.3604V12C1.25 10.4871 1.70843 9.15246 2.56836 8.14355C3.42572 7.13775 4.6425 6.50381 6.07617 6.31934V6.31836C6.07876 6.31796 6.08139 6.31778 6.08398 6.31738C6.08819 6.31685 6.09247 6.31596 6.09668 6.31543V6.31641C6.39025 6.27235 6.69147 6.25 7 6.25H17C17.2641 6.25 17.5484 6.26081 17.8359 6.30566C19.2942 6.47523 20.5358 7.10689 21.4102 8.12012C22.2832 9.13175 22.75 10.4753 22.75 12V17Z" fill="#1C252E"/>
<path d="M9.49308 2.48737C11.1555 0.837402 13.8473 0.837362 15.5097 2.48737L15.5146 2.49225V2.49322L17.2577 4.25592L17.3984 4.40143C18.084 5.14223 18.455 6.06164 18.5009 7.01373C18.5118 7.2402 18.4193 7.4597 18.2499 7.61041C18.0805 7.76112 17.8515 7.82738 17.6278 7.7901C17.448 7.76013 17.2454 7.75006 17.0009 7.75006H7.00089C6.7569 7.75008 6.5253 7.76705 6.30558 7.80084C6.02843 7.84348 5.75005 7.72861 5.58488 7.50201C5.41976 7.27545 5.39507 6.97544 5.52042 6.72467C5.70457 6.35638 5.9586 6.03261 6.24113 5.75006L9.49015 2.4903L9.49308 2.48737ZM14.453 3.5528C13.3755 2.4831 11.6273 2.4831 10.5497 3.5528L7.86027 6.25006H16.8202C16.6877 5.91489 16.4847 5.59966 16.205 5.32428L16.1982 5.31744L14.453 3.55182V3.5528Z" fill="#1C252E"/>
<path d="M16.25 14.5C16.25 12.9858 17.4858 11.75 19 11.75H22C22.4142 11.75 22.75 12.0858 22.75 12.5C22.75 12.9142 22.4142 13.25 22 13.25H19C18.3142 13.25 17.75 13.8142 17.75 14.5C17.75 15.1858 18.3142 15.75 19 15.75H22C22.4142 15.75 22.75 16.0858 22.75 16.5C22.75 16.9142 22.4142 17.25 22 17.25H19C17.4858 17.25 16.25 16.0142 16.25 14.5Z" fill="#1C252E"/>
<path d="M8.25 19C8.25 17.2042 6.79579 15.75 5 15.75C4.02652 15.75 3.15844 16.179 2.56348 16.8555L2.5625 16.8545C2.05504 17.4365 1.75 18.1837 1.75 19C1.75 19.5333 1.88007 20.0396 2.1123 20.4814L2.21875 20.666L2.22461 20.6768L2.33496 20.8496C2.91372 21.6945 3.88832 22.25 5 22.25C5.82263 22.25 6.56415 21.9497 7.12793 21.4424C7.13442 21.4365 7.14175 21.4314 7.14844 21.4258C7.39136 21.222 7.60544 20.968 7.77246 20.6816L7.78125 20.666C8.07909 20.183 8.25 19.6093 8.25 19ZM9.75 19C9.75 19.8906 9.50073 20.7371 9.05859 21.4541L9.05762 21.4531C8.81046 21.8728 8.49493 22.2474 8.13086 22.5566C7.29466 23.3092 6.19728 23.75 5 23.75C3.27016 23.75 1.76394 22.8264 0.942383 21.4531C0.500273 20.7362 0.25 19.8906 0.25 19C0.25 17.7971 0.703984 16.704 1.43555 15.8662L1.43652 15.8643C2.30156 14.8808 3.57355 14.25 5 14.25C7.62421 14.25 9.75 16.3758 9.75 19Z" fill="#1C252E"/>
<path d="M3.4311 17.3996C3.72399 17.1067 4.19875 17.1067 4.49164 17.3996L6.60199 19.51C6.89452 19.8029 6.89477 20.2777 6.60199 20.5705C6.30922 20.8633 5.83437 20.863 5.54145 20.5705L3.4311 18.4601C3.1382 18.1673 3.1382 17.6925 3.4311 17.3996Z" fill="#1C252E"/>
<path d="M5.51011 17.4297C5.80301 17.137 6.27782 17.1368 6.57065 17.4297C6.8633 17.7225 6.8633 18.1974 6.57065 18.4902L4.4603 20.6006C4.16745 20.8932 3.6926 20.8932 3.39975 20.6006C3.10692 20.3077 3.10704 19.8329 3.39975 19.54L5.51011 17.4297Z" fill="#1C252E"/>
</svg>
