<svg width="24" height="24" viewBox="0 0 24 24" fill="none" xmlns="http://www.w3.org/2000/svg">
<path d="M10.1101 10.4001V11.1501H10.8601V17.4099C10.8601 17.8241 10.5243 18.1599 10.1101 18.1599H6.32007C5.90585 18.1599 5.57007 17.8241 5.57007 17.4099V12.2898C5.57023 11.2458 6.41579 10.4003 7.45972 10.4001H10.1101ZM7.07007 16.6599H9.36011V11.9001H7.45972C7.24416 11.9003 7.07023 12.0743 7.07007 12.2898V16.6599Z" fill="#1C252E"/>
<path d="M13.1414 7.73975C13.1412 7.51554 12.9685 7.35018 12.7615 7.3501H11.241C11.0255 7.35028 10.8515 7.52421 10.8513 7.73975V16.6499H13.1414V7.73975ZM14.6414 17.3999C14.6414 17.8141 14.3056 18.1499 13.8914 18.1499H10.1013C9.6871 18.1499 9.35132 17.8141 9.35132 17.3999V7.73975C9.35152 6.69584 10.197 5.85028 11.241 5.8501H12.7615C13.8141 5.85018 14.6412 6.70441 14.6414 7.73975V17.3999Z" fill="#1C252E"/>
<path d="M16.5486 12.1001C17.589 12.1003 18.4218 12.9499 18.4382 13.978V17.3999C18.4382 17.8141 18.1024 18.1499 17.6882 18.1499H13.8982C13.484 18.1499 13.1482 17.8141 13.1482 17.3999V12.8501C13.1482 12.4359 13.484 12.1001 13.8982 12.1001H16.5486ZM14.6482 16.6499H16.9382V14.0024L16.9285 13.9185C16.8876 13.7307 16.7229 13.6003 16.5486 13.6001H14.6482V16.6499Z" fill="#1C252E"/>
<path d="M21.25 9C21.25 6.57397 20.7603 5.0708 19.8447 4.15527C18.9292 3.23974 17.426 2.75 15 2.75H9C6.57397 2.75 5.0708 3.23974 4.15527 4.15527C3.23974 5.0708 2.75 6.57397 2.75 9V15C2.75 17.426 3.23974 18.9292 4.15527 19.8447C5.0708 20.7603 6.57397 21.25 9 21.25H15C17.426 21.25 18.9292 20.7603 19.8447 19.8447C20.7603 18.9292 21.25 17.426 21.25 15V9ZM22.75 15C22.75 17.574 22.2397 19.5708 20.9053 20.9053C19.5708 22.2397 17.574 22.75 15 22.75H9C6.42603 22.75 4.4292 22.2397 3.09473 20.9053C1.76026 19.5708 1.25 17.574 1.25 15V9C1.25 6.42603 1.76026 4.4292 3.09473 3.09473C4.4292 1.76026 6.42603 1.25 9 1.25H15C17.574 1.25 19.5708 1.76026 20.9053 3.09473C22.2397 4.4292 22.75 6.42603 22.75 9V15Z" fill="#1C252E"/>
</svg>
