<svg width="24" height="24" viewBox="0 0 24 24" fill="none" xmlns="http://www.w3.org/2000/svg">
<path d="M21.25 15V9C21.25 7.39295 20.7942 6.36869 20.1143 5.7373C19.4242 5.09664 18.385 4.75 17 4.75H7C5.61505 4.75 4.57576 5.09664 3.88574 5.7373C3.20579 6.36869 2.75 7.39295 2.75 9V11C2.75 11.4142 2.41421 11.75 2 11.75C1.58579 11.75 1.25 11.4142 1.25 11V9C1.25 7.10712 1.79429 5.63131 2.86426 4.6377C3.92424 3.65342 5.38503 3.25 7 3.25H17C18.615 3.25 20.0758 3.65342 21.1357 4.6377C22.2057 5.63131 22.75 7.10712 22.75 9V15C22.75 16.8929 22.2057 18.3687 21.1357 19.3623C20.0758 20.3466 18.615 20.75 17 20.75H12C11.5858 20.75 11.25 20.4142 11.25 20C11.25 19.5858 11.5858 19.25 12 19.25H17C18.385 19.25 19.4242 18.9034 20.1143 18.2627C20.7942 17.6313 21.25 16.607 21.25 15Z" fill="#1C252E"/>
<path d="M13.75 12C13.75 11.0335 12.9665 10.25 12 10.25C11.0335 10.25 10.25 11.0335 10.25 12C10.25 12.9665 11.0335 13.75 12 13.75C12.9665 13.75 13.75 12.9665 13.75 12ZM15.25 12C15.25 13.7949 13.7949 15.25 12 15.25C10.2051 15.25 8.75 13.7949 8.75 12C8.75 10.2051 10.2051 8.75 12 8.75C13.7949 8.75 15.25 10.2051 15.25 12Z" fill="#1C252E"/>
<path d="M17.75 14.5V9.5C17.75 9.08579 18.0858 8.75 18.5 8.75C18.9142 8.75 19.25 9.08579 19.25 9.5V14.5C19.25 14.9142 18.9142 15.25 18.5 15.25C18.0858 15.25 17.75 14.9142 17.75 14.5Z" fill="#1C252E"/>
<path d="M7.75 17.9404V16.6602C7.75 16.4344 7.56563 16.25 7.33984 16.25H2C1.58579 16.25 1.25 15.9142 1.25 15.5C1.25 15.0858 1.58579 14.75 2 14.75H7.33984C8.39406 14.75 9.25 15.6059 9.25 16.6602V17.9404C9.24977 18.3544 8.91407 18.6904 8.5 18.6904C8.08593 18.6904 7.75023 18.3544 7.75 17.9404Z" fill="#1C252E"/>
<path d="M2.68934 13.7496C2.98219 13.4568 3.45698 13.4569 3.74988 13.7496C4.04278 14.0425 4.04278 14.5173 3.74988 14.8102L3.06043 15.4996L3.74988 16.1891C4.04278 16.482 4.04278 16.9577 3.74988 17.2506C3.457 17.5431 2.98212 17.5433 2.68934 17.2506L1.46961 16.0299C1.17684 15.737 1.17676 15.2622 1.46961 14.9694L2.68934 13.7496Z" fill="#1C252E"/>
<path d="M1.25 19.6204V18.3401C1.25 17.9259 1.58579 17.5901 2 17.5901C2.41421 17.5901 2.75 17.9259 2.75 18.3401V19.6204C2.75017 19.8461 2.93452 20.0305 3.16016 20.0305H8.5C8.91421 20.0305 9.25 20.3663 9.25 20.7805C9.24977 21.1945 8.91407 21.5305 8.5 21.5305H3.16016C2.10599 21.5305 1.25017 20.6744 1.25 19.6204Z" fill="#1C252E"/>
<path d="M6.75091 19.03C7.04381 18.7371 7.51857 18.7371 7.81146 19.03L9.03119 20.2497C9.32406 20.5426 9.32404 21.0173 9.03119 21.3102L7.81146 22.5309C7.51862 22.8236 7.04375 22.8236 6.75091 22.5309C6.45809 22.2381 6.45823 21.7633 6.75091 21.4704L7.44037 20.78L6.75091 20.0905C6.45803 19.7976 6.45803 19.3229 6.75091 19.03Z" fill="#1C252E"/>
</svg>
