<svg width="24" height="24" viewBox="0 0 24 24" fill="none" xmlns="http://www.w3.org/2000/svg">
<path d="M21.2453 9C21.2453 6.99479 20.9765 6.0418 20.4651 5.53027C19.9536 5.0188 19.0005 4.75002 16.9953 4.75H6.99535C5.07881 4.75 4.12387 4.99638 3.59789 5.4668C3.16498 5.85398 2.88739 6.52065 2.78929 7.82324C4.75972 8.19239 6.24535 9.92602 6.24535 12C6.24535 14.0781 4.756 15.7991 2.78831 16.1729C2.88615 17.478 3.16454 18.1456 3.59789 18.5332C4.12387 19.0036 5.07881 19.25 6.99535 19.25H16.9953C19.0005 19.25 19.9536 18.9812 20.4651 18.4697C20.9765 17.9582 21.2453 17.0052 21.2453 15V9ZM22.7453 15C22.7453 16.9946 22.514 18.5418 21.5256 19.5303C20.5372 20.5187 18.9899 20.75 16.9953 20.75H6.99535C5.08196 20.75 3.58691 20.5359 2.59789 19.6514C1.58697 18.7472 1.30058 17.3272 1.25511 15.5186C1.25013 15.3172 1.32678 15.1221 1.46703 14.9775C1.60731 14.8331 1.79982 14.751 2.00121 14.75C3.52078 14.7421 4.74535 13.515 4.74535 12C4.74535 10.4814 3.51811 9.25 2.00511 9.25C1.80293 9.25 1.60916 9.16819 1.468 9.02344C1.32702 8.87878 1.25012 8.68337 1.25511 8.48145C1.30058 6.67284 1.58697 5.25278 2.59789 4.34863C3.58691 3.46411 5.08196 3.25 6.99535 3.25H16.9953C18.9899 3.25002 20.5372 3.48126 21.5256 4.46973C22.514 5.45824 22.7453 7.00544 22.7453 9V15Z" fill="#1C252E"/>
<path d="M8.24316 7.5V4C8.24316 3.58579 8.57895 3.25 8.99316 3.25C9.40738 3.25 9.74316 3.58579 9.74316 4V7.5C9.74316 7.91421 9.40738 8.25 8.99316 8.25C8.57895 8.25 8.24316 7.91421 8.24316 7.5Z" fill="#1C252E"/>
<path d="M8.24316 20V16.5C8.24316 16.0858 8.57895 15.75 8.99316 15.75C9.40738 15.75 9.74316 16.0858 9.74316 16.5V20C9.74316 20.4142 9.40738 20.75 8.99316 20.75C8.57895 20.75 8.24316 20.4142 8.24316 20Z" fill="#1C252E"/>
<path d="M13.6219 9.00194C14.0449 8.10658 15.2828 8.15544 15.6962 8.99803L15.6971 8.99706L16.2411 10.0937L17.4423 10.2676L17.4442 10.2685C18.3843 10.407 18.7936 11.5747 18.0858 12.2578L18.0868 12.2588L17.2137 13.1045L17.4237 14.2998L17.4413 14.4756C17.466 15.3381 16.535 15.9599 15.7323 15.5322L14.6591 14.9648L13.5848 15.5332L13.579 15.5371C12.7164 15.9822 11.7287 15.2498 11.8964 14.2998L12.1053 13.1035L11.2401 12.2558L11.2411 12.2549C10.5374 11.5714 10.9468 10.4068 11.8856 10.2685L11.8876 10.2676L13.0868 10.0937L13.621 9.00096L13.6219 9.00194ZM14.3592 10.9092L14.3583 10.9082C14.1878 11.2654 13.8631 11.4971 13.4813 11.5517L13.4823 11.5527L12.7704 11.6553L13.2801 12.1543L13.285 12.1601C13.5613 12.4364 13.6685 12.8059 13.6171 13.166C13.6159 13.1738 13.6145 13.1817 13.6132 13.1894L13.4911 13.8857L14.1141 13.5566C14.1191 13.554 14.1247 13.5523 14.1298 13.5498C14.4195 13.4049 14.7607 13.3864 15.0633 13.4951L15.1903 13.5498L15.205 13.5566L15.828 13.8857L15.7059 13.1894C15.7046 13.1817 15.7031 13.1738 15.702 13.166C15.6551 12.8372 15.7391 12.4402 16.0438 12.1523L16.0428 12.1514L16.5546 11.6543L15.8407 11.5517C15.4596 11.4931 15.1383 11.2433 14.9745 10.916L14.9725 10.9131L14.662 10.2871L14.3592 10.9092Z" fill="#1C252E"/>
</svg>
