<svg width="24" height="24" viewBox="0 0 24 24" fill="none" xmlns="http://www.w3.org/2000/svg">
<path d="M13.5 7.75C13.9142 7.75 14.25 8.08579 14.25 8.5C14.25 8.91421 13.9142 9.25 13.5 9.25H2C1.58579 9.25 1.25 8.91421 1.25 8.5C1.25 8.08579 1.58579 7.75 2 7.75H13.5Z" fill="#1C252E"/>
<path d="M8 15.75C8.41421 15.75 8.75 16.0858 8.75 16.5C8.75 16.9142 8.41421 17.25 8 17.25H6C5.58579 17.25 5.25 16.9142 5.25 16.5C5.25 16.0858 5.58579 15.75 6 15.75H8Z" fill="#1C252E"/>
<path d="M14.5 15.75C14.9142 15.75 15.25 16.0858 15.25 16.5C15.25 16.9142 14.9142 17.25 14.5 17.25H10.5C10.0858 17.25 9.75 16.9142 9.75 16.5C9.75 16.0858 10.0858 15.75 10.5 15.75H14.5Z" fill="#1C252E"/>
<path d="M1.25 16.1104V7.88965C1.25003 6.13876 1.45411 4.74287 2.36133 3.8457C3.26581 2.9514 4.67143 2.75 6.44043 2.75H13.5C13.9142 2.75 14.25 3.08579 14.25 3.5C14.25 3.91421 13.9142 4.25 13.5 4.25H6.44043C4.65943 4.25 3.84403 4.48891 3.41602 4.91211C2.99101 5.33237 2.75003 6.13113 2.75 7.88965V16.1104C2.75003 17.8689 2.99101 18.6676 3.41602 19.0879C3.84403 19.5111 4.65943 19.75 6.44043 19.75H17.5596C19.3406 19.75 20.156 19.5111 20.584 19.0879C21.009 18.6676 21.25 17.8689 21.25 16.1104V11.0303C21.25 10.6161 21.5858 10.2803 22 10.2803C22.4142 10.2803 22.75 10.6161 22.75 11.0303V16.1104C22.75 17.8612 22.5459 19.2571 21.6387 20.1543C20.7342 21.0486 19.3286 21.25 17.5596 21.25H6.44043C4.67143 21.25 3.26581 21.0486 2.36133 20.1543C1.45411 19.2571 1.25003 17.8612 1.25 16.1104Z" fill="#1C252E"/>
<path d="M21.4697 2.96967C21.7626 2.67678 22.2373 2.67678 22.5302 2.96967C22.8231 3.26256 22.8231 3.73732 22.5302 4.03022L18.5302 8.03022C18.2373 8.32311 17.7626 8.32311 17.4697 8.03022L15.9697 6.53022C15.6768 6.23732 15.6768 5.76256 15.9697 5.46967C16.2626 5.17678 16.7373 5.17678 17.0302 5.46967L17.9999 6.4394L21.4697 2.96967Z" fill="#1C252E"/>
</svg>
