<svg width="24" height="24" viewBox="0 0 24 24" fill="none" xmlns="http://www.w3.org/2000/svg">
<path d="M19.7402 7C19.7402 5.61861 19.3881 4.5782 18.7432 3.88672C18.1069 3.20461 17.0804 2.75004 15.4902 2.75H8.49023C6.87216 2.75 5.85199 3.20616 5.22656 3.88379C4.591 4.57247 4.25 5.61146 4.25 7V17C4.25 18.3885 4.59018 19.4277 5.22656 20.1162C5.85301 20.794 6.87622 21.25 8.5 21.25H15.5C17.0903 21.25 18.1166 20.7954 18.7529 20.1133C19.3979 19.4218 19.75 18.3815 19.75 17V15.8301C19.75 15.4975 19.6182 15.1824 19.3867 14.957L18.5498 14.1201C18.0322 13.6025 17.7402 12.9128 17.7402 12.1797V10C17.7402 9.03579 18.526 8.25 19.4902 8.25C19.6259 8.24987 19.7402 8.13571 19.7402 8V7ZM21.2402 8C21.2402 8.96414 20.4543 9.74987 19.4902 9.75C19.3544 9.75 19.2402 9.86421 19.2402 10V12.1797C19.2402 12.5065 19.368 12.8172 19.6104 13.0596L20.4404 13.8896H20.4395C20.9637 14.4037 21.25 15.1058 21.25 15.8301V17C21.25 18.6185 20.8371 20.0782 19.8496 21.1367C18.8534 22.2045 17.3796 22.75 15.5 22.75H8.5C6.59378 22.75 5.11606 22.206 4.125 21.1338C3.14419 20.0724 2.75 18.6113 2.75 17V7C2.75 5.38854 3.14458 3.92752 4.12402 2.86621C5.11361 1.79402 6.58851 1.25 8.49023 1.25H15.4902C17.3698 1.25005 18.8437 1.79546 19.8398 2.86328C20.8273 3.9218 21.2402 5.38155 21.2402 7V8Z" fill="#1C252E"/>
<path d="M13.9897 16.25C15.505 16.25 16.7256 17.4752 16.7397 18.9824L16.77 21.9727C16.7741 22.3867 16.4418 22.7252 16.0278 22.7295C15.6136 22.7336 15.2742 22.4015 15.27 21.9873L15.2397 18.9971C15.2335 18.3046 14.6742 17.75 13.9897 17.75H9.97998C9.28419 17.75 8.72998 18.3042 8.72998 19L8.73975 21.9678C8.74098 22.3818 8.40671 22.7182 7.99268 22.7197C7.57851 22.7211 7.24121 22.3868 7.23975 21.9727L7.22998 19.0029V19C7.22998 17.4758 8.45577 16.25 9.97998 16.25H13.9897Z" fill="#1C252E"/>
<path d="M9.00256 1.30992C9.41662 1.31708 9.74687 1.65859 9.73986 2.07262L9.69006 4.96324C9.68271 5.37714 9.34127 5.70658 8.92736 5.69957C8.51321 5.6924 8.18289 5.35103 8.19006 4.93687L8.23986 2.04723C8.24702 1.63323 8.58862 1.30302 9.00256 1.30992Z" fill="#1C252E"/>
<path d="M12.0026 1.30992C12.4166 1.31708 12.7469 1.65859 12.7399 2.07262L12.6901 4.96324C12.6827 5.37714 12.3413 5.70658 11.9274 5.69957C11.5132 5.6924 11.1829 5.35103 11.1901 4.93687L11.2399 2.04723C11.247 1.63323 11.5886 1.30302 12.0026 1.30992Z" fill="#1C252E"/>
<path d="M15.0035 1.28991C15.4174 1.29734 15.7469 1.63875 15.7399 2.05261L15.6901 4.93249C15.6829 5.34653 15.3414 5.67681 14.9274 5.66979C14.5133 5.6626 14.183 5.32116 14.1901 4.9071L14.2399 2.02721C14.247 1.61306 14.5894 1.28272 15.0035 1.28991Z" fill="#1C252E"/>
</svg>
