<svg width="24" height="24" viewBox="0 0 24 24" fill="none" xmlns="http://www.w3.org/2000/svg">
<path d="M16.9629 14.7927C17.3769 14.7929 17.7129 15.1286 17.7129 15.5427C17.7128 15.9567 17.3769 16.2925 16.9629 16.2927H16.9521C16.538 16.2927 16.2023 15.9568 16.2021 15.5427C16.2021 15.1285 16.5379 14.7927 16.9521 14.7927H16.9629ZM15.2979 13.1257C15.7121 13.1257 16.0479 13.4615 16.0479 13.8757C16.0478 14.2899 15.712 14.6257 15.2979 14.6257H15.2871C14.873 14.6257 14.5372 14.2899 14.5371 13.8757C14.5371 13.4615 14.8729 13.1257 15.2871 13.1257H15.2979ZM18.6318 13.1257C19.046 13.1257 19.3818 13.4615 19.3818 13.8757C19.3817 14.2899 19.046 14.6257 18.6318 14.6257H18.6211C18.207 14.6256 17.8712 14.2898 17.8711 13.8757C17.8711 13.4616 18.207 13.1259 18.6211 13.1257H18.6318ZM16.9629 11.4587C17.3769 11.459 17.7129 11.7947 17.7129 12.2087C17.7127 12.6227 17.3768 12.9585 16.9629 12.9587H16.9521C16.538 12.9587 16.2023 12.6228 16.2021 12.2087C16.2021 11.7945 16.5379 11.4587 16.9521 11.4587H16.9629Z" fill="#1C252E"/>
<path d="M6.25342 15.5424V14.6254H5.33643C4.92221 14.6254 4.58643 14.2896 4.58643 13.8754C4.58645 13.4612 4.92223 13.1254 5.33643 13.1254H6.25342V12.2084C6.25342 11.7942 6.5892 11.4584 7.00342 11.4584C7.41748 11.4586 7.75342 11.7943 7.75342 12.2084V13.1254H8.66943C9.08363 13.1254 9.41941 13.4612 9.41943 13.8754C9.41943 14.2896 9.08365 14.6254 8.66943 14.6254H7.75342V15.5424C7.75342 15.9565 7.41748 16.2922 7.00342 16.2924C6.5892 16.2924 6.25342 15.9566 6.25342 15.5424Z" fill="#1C252E"/>
<path d="M21.25 15.5337C21.25 13.5505 20.8491 11.9232 20.2061 10.8198C19.5694 9.72752 18.7424 9.20752 17.833 9.20752C17.1525 9.20757 16.6262 9.37253 15.8047 9.72607C14.7245 10.1909 13.4071 10.4565 12 10.4565C10.5929 10.4565 9.27546 10.1909 8.19531 9.72607C7.37374 9.37252 6.84748 9.20757 6.16699 9.20752C5.2576 9.20752 4.43055 9.72751 3.79395 10.8198C3.15092 11.9232 2.75 13.5505 2.75 15.5337C2.75001 18.37 3.14084 19.8789 4.0957 20.771C4.3232 20.9834 4.53436 21.0466 4.74316 21.0435C4.97652 21.0399 5.26802 20.9503 5.61328 20.7446C6.31246 20.3281 7.0334 19.5577 7.60254 18.7856C8.63834 17.3805 10.2086 16.4487 12 16.4487C13.7914 16.4487 15.3617 17.3805 16.3975 18.7856C16.9666 19.5577 17.6875 20.3281 18.3867 20.7446C18.732 20.9503 19.0235 21.0399 19.2568 21.0435C19.4656 21.0466 19.6768 20.9834 19.9043 20.771C20.8592 19.8789 21.25 18.37 21.25 15.5337ZM22.75 15.5337C22.75 18.3814 22.3916 20.4999 20.9287 21.8667C20.4267 22.3358 19.8429 22.5528 19.2334 22.5435C18.6486 22.5344 18.0977 22.3184 17.6182 22.0327C16.6673 21.4661 15.8061 20.5104 15.1904 19.6753C14.3923 18.5926 13.2436 17.9487 12 17.9487C10.7564 17.9487 9.60772 18.5926 8.80957 19.6753C8.19394 20.5104 7.33267 21.4661 6.38184 22.0327C5.90231 22.3184 5.35141 22.5344 4.7666 22.5435C4.15713 22.5528 3.57335 22.3358 3.07129 21.8667C1.60841 20.4999 1.25001 18.3814 1.25 15.5337C1.25 13.3738 1.68279 11.4628 2.49805 10.064C3.31977 8.65418 4.57649 7.70752 6.16699 7.70752C7.15281 7.70758 7.90292 7.96722 8.78809 8.34814C9.66061 8.72363 10.7734 8.95654 12 8.95654C13.2266 8.95654 14.3394 8.72363 15.2119 8.34814C16.0971 7.96721 16.8472 7.70758 17.833 7.70752C19.4235 7.70752 20.6802 8.6542 21.502 10.064C22.3172 11.4628 22.75 13.3738 22.75 15.5337Z" fill="#1C252E"/>
<path d="M17.1055 2.20605C17.1055 1.79195 17.4415 1.45622 17.8555 1.45605C18.2697 1.45605 18.6055 1.79184 18.6055 2.20605C18.6055 2.77164 18.6289 3.68115 18.0704 4.38965C17.4807 5.13744 16.4418 5.45697 14.919 5.45703C14.021 5.45703 13.4539 6.0269 13.0723 6.97461C12.6881 7.92903 12.5894 9.07257 12.5811 9.71875C12.5758 10.1329 12.2355 10.4643 11.8214 10.459C11.4072 10.4536 11.0758 10.1133 11.0811 9.69922C11.0904 8.97588 11.1959 7.61837 11.6807 6.41406C12.1684 5.20296 13.1364 3.95703 14.919 3.95703C16.3116 3.95697 16.7418 3.65079 16.8917 3.46094C17.0724 3.23176 17.1055 2.8907 17.1055 2.20605Z" fill="#1C252E"/>
</svg>
