<svg width="24" height="24" viewBox="0 0 24 24" fill="none" xmlns="http://www.w3.org/2000/svg">
<path d="M20.25 9C20.25 6.57397 19.7603 5.0708 18.8447 4.15527C17.9292 3.23974 16.426 2.75 14 2.75H10C7.57397 2.75 6.0708 3.23974 5.15527 4.15527C4.23974 5.0708 3.75 6.57397 3.75 9V15C3.75 17.426 4.23974 18.9292 5.15527 19.8447C6.0708 20.7603 7.57397 21.25 10 21.25H14C16.426 21.25 17.9292 20.7603 18.8447 19.8447C19.7603 18.9292 20.25 17.426 20.25 15V9ZM21.75 15C21.75 17.574 21.2397 19.5708 19.9053 20.9053C18.5708 22.2397 16.574 22.75 14 22.75H10C7.42603 22.75 5.4292 22.2397 4.09473 20.9053C2.76026 19.5708 2.25 17.574 2.25 15V9C2.25 6.42603 2.76026 4.4292 4.09473 3.09473C5.4292 1.76026 7.42603 1.25 10 1.25H14C16.574 1.25 18.5708 1.76026 19.9053 3.09473C21.2397 4.4292 21.75 6.42603 21.75 9V15Z" fill="#1C252E"/>
<path d="M6.25189 7.72955C9.52603 4.81704 14.4738 4.81704 17.748 7.72955C18.0209 7.97233 18.0798 8.37655 17.8867 8.68658L15.707 12.1866C15.59 12.3744 15.3957 12.5008 15.1767 12.5323C14.9578 12.5638 14.7364 12.4968 14.5712 12.3497C13.1056 11.0432 10.8942 11.0432 9.42865 12.3497C9.26352 12.4968 9.04211 12.5638 8.82318 12.5323C8.6042 12.5008 8.40987 12.3744 8.29291 12.1866L6.11322 8.68658C5.92011 8.37655 5.979 7.97233 6.25189 7.72955ZM16.2636 8.45416C13.7389 6.57599 10.2598 6.57568 7.73529 8.45416L9.13373 10.7003C10.8801 9.594 13.1187 9.5943 14.8652 10.7003L16.2636 8.45416Z" fill="#1C252E"/>
</svg>
