<svg width="24" height="24" viewBox="0 0 24 24" fill="none" xmlns="http://www.w3.org/2000/svg">
<path d="M12.4984 1.38618C13.1366 1.08896 13.809 1.30994 14.3539 1.69086L14.5795 1.86274L14.5804 1.86372L18.4301 5.07368C19.3232 5.818 19.3369 7.09878 18.4984 7.87153L18.4965 7.8725L13.9935 11.9995L18.4965 16.1274L18.4984 16.1284C19.3369 16.9011 19.3232 18.1819 18.4301 18.9262L14.5804 22.1362L14.5795 22.1372C14.0021 22.6163 13.2277 22.9534 12.4984 22.6137C11.7672 22.273 11.5298 21.4618 11.5297 20.7104V14.2582L6.14685 19.1928C5.84157 19.4726 5.36719 19.4521 5.08728 19.1469C4.80745 18.8416 4.828 18.3673 5.13318 18.0873L11.5297 12.2231V11.7758L5.13318 5.91254C4.82798 5.63264 4.80745 5.15827 5.08728 4.85297C5.36719 4.54778 5.84156 4.52724 6.14685 4.80707L11.5297 9.74067V3.2895C11.5298 2.53803 11.7672 1.72687 12.4984 1.38618ZM13.0297 20.7104C13.0297 20.9621 13.0708 21.1174 13.1078 21.1997C13.118 21.2224 13.1285 21.2368 13.1351 21.2465C13.1473 21.2455 13.1659 21.245 13.1918 21.2377C13.2799 21.2131 13.426 21.1442 13.6195 20.9838L17.4701 17.7739L17.5316 17.7123C17.655 17.5642 17.6403 17.3789 17.4828 17.2329L13.0297 13.1508V20.7104ZM13.0297 10.8481L17.4828 6.76704C17.6403 6.62095 17.655 6.43567 17.5316 6.28754L17.4701 6.22602L13.6195 3.01606V3.01508C13.4262 2.85496 13.2799 2.78677 13.1918 2.76215C13.1658 2.75491 13.1473 2.75342 13.1351 2.75239C13.1284 2.76209 13.1183 2.77697 13.1078 2.80024C13.0708 2.88253 13.0297 3.03779 13.0297 3.2895V10.8481Z" fill="#1C252E"/>
</svg>
