<svg width="24" height="24" viewBox="0 0 24 24" fill="none" xmlns="http://www.w3.org/2000/svg">
<path d="M20.6299 8.25C20.6299 7.48571 20.6098 6.84149 20.5283 6.28906C20.527 6.27995 20.5254 6.27087 20.5244 6.26172C20.3554 4.71729 19.9287 3.93895 19.2354 3.48242C18.4746 2.98151 17.232 2.75 15.1299 2.75H8.87988C6.77308 2.75002 5.53118 2.98177 4.77051 3.48242C4.07685 3.93915 3.64946 4.7178 3.47559 6.26367L3.47363 6.27734C3.39956 6.84219 3.37012 7.49644 3.37012 8.25V15.75C3.37012 16.3157 3.38652 16.8224 3.42969 17.2803L3.48242 17.7227L3.48535 17.748C3.65424 19.2868 4.0811 20.0629 4.77441 20.5186C5.53539 21.0186 6.7781 21.25 8.87988 21.25H15.1201C17.227 21.25 18.4695 21.0184 19.2305 20.5186C19.9241 20.0627 20.3506 19.2863 20.5244 17.7461L20.5264 17.7344C20.6007 17.1583 20.6299 16.5031 20.6299 15.75V8.25ZM22.1299 15.75C22.1299 16.5319 22.0991 17.2526 22.0146 17.9131L22.0156 17.9141C21.8194 19.6536 21.2858 20.9623 20.0547 21.7715C18.8906 22.5365 17.2429 22.75 15.1201 22.75H8.87988C6.76211 22.75 5.11512 22.5363 3.95117 21.7715C2.71954 20.9621 2.18527 19.6532 1.99414 17.9121L1.99512 17.9111C1.90068 17.2471 1.87012 16.5255 1.87012 15.75V8.25C1.87012 7.46356 1.90041 6.73719 1.98633 6.08203C2.18375 4.34507 2.71732 3.03805 3.94531 2.22949C5.10959 1.46302 6.75748 1.25002 8.87988 1.25H15.1299C17.2478 1.25 18.8963 1.4629 20.0605 2.22949C21.2921 3.04048 21.8246 4.35316 22.0156 6.09863H22.0146C22.1096 6.7588 22.1299 7.48508 22.1299 8.25V15.75Z" fill="#1C252E"/>
<path d="M21.2295 8.16998C21.6437 8.16998 21.9795 8.50577 21.9795 8.91998C21.9795 9.3342 21.6437 9.66998 21.2295 9.66998H17.1299C16.7157 9.66998 16.3799 9.3342 16.3799 8.91998C16.3799 8.50577 16.7157 8.16998 17.1299 8.16998H21.2295Z" fill="#1C252E"/>
<path d="M6.86963 8.16998C7.28384 8.16998 7.61963 8.50577 7.61963 8.91998C7.61963 9.3342 7.28384 9.66998 6.86963 9.66998H2.77002C2.35581 9.66998 2.02002 9.3342 2.02002 8.91998C2.02002 8.50577 2.35581 8.16998 2.77002 8.16998H6.86963Z" fill="#1C252E"/>
<path d="M16.3799 8.9198C16.3798 8.57026 16.2377 8.25185 15.9971 8.01746C15.9923 8.01281 15.9871 8.00758 15.9824 8.00281C15.7509 7.76519 15.4237 7.62005 15.0703 7.62H8.91992C8.20429 7.6201 7.62022 8.20417 7.62012 8.9198C7.62012 9.23874 7.73196 9.52151 7.91211 9.73523L7.99316 9.82214L8.00781 9.83679C8.23938 10.0745 8.56645 10.2196 8.91992 10.2196H15.0801C15.7959 10.2196 16.3799 9.63559 16.3799 8.9198ZM17.8799 8.9198C17.8799 10.464 16.6243 11.7196 15.0801 11.7196H8.91992C8.15371 11.7196 7.44094 11.4056 6.93262 10.8837L6.93359 10.8817C6.42948 10.3836 6.12012 9.68788 6.12012 8.9198C6.12022 7.37574 7.37586 6.1201 8.91992 6.12H15.0703C15.8292 6.12005 16.5347 6.42925 17.042 6.94226H17.043C17.0453 6.94455 17.0475 6.94778 17.0498 6.95007C17.0522 6.95249 17.0553 6.95448 17.0576 6.95691H17.0566C17.5676 7.46135 17.8798 8.15646 17.8799 8.9198Z" fill="#1C252E"/>
</svg>
