<svg width="24" height="24" viewBox="0 0 24 24" fill="none" xmlns="http://www.w3.org/2000/svg">
<path d="M17.0695 1.58921C17.9739 0.975803 19.2219 1.21742 19.8332 2.13218L21.6505 4.83921L21.756 5.01206C22.2322 5.89718 21.9655 7.031 21.1066 7.60386L15.4474 11.3929C15.1034 11.6232 14.638 11.5316 14.4074 11.1878L11.2072 6.41831C11.0963 6.25303 11.0563 6.05009 11.0949 5.85483C11.1334 5.6596 11.2479 5.48802 11.4132 5.37729L17.0695 1.59018V1.58921ZM18.5861 2.96616C18.437 2.74254 18.1262 2.6846 17.9113 2.83042L17.9074 2.83335L12.8712 6.20542L15.2355 9.72886L20.2726 6.35679L20.2746 6.35581C20.4979 6.20662 20.5551 5.89586 20.4093 5.681L20.4074 5.67807L18.588 2.96811L18.5861 2.96616Z" fill="#1C252E"/>
<path d="M11.7563 5.85614C12.1005 5.62563 12.5664 5.71777 12.7969 6.06194L15.3566 9.88375C15.5871 10.2279 15.4949 10.6938 15.1508 10.9243L10.3731 14.1242C10.0289 14.3547 9.56304 14.2625 9.33253 13.9184L6.77284 10.0966C6.54233 9.75239 6.63447 9.28652 6.97864 9.05601L11.7563 5.85614ZM10.1615 12.4605L13.6928 10.0953L11.9679 7.51986L8.43657 9.88499L10.1615 12.4605Z" fill="#1C252E"/>
<path d="M7.18903 9.2568C7.52432 9.07876 7.94654 9.18 8.16266 9.50192L10.4029 12.8418C10.5137 13.007 10.5547 13.21 10.5162 13.4052C10.4775 13.6006 10.3624 13.7731 10.1968 13.8838L6.24665 16.5234L6.23981 16.5283C5.44795 17.0446 4.36412 16.8501 3.8277 16.0488L2.6988 14.3681C2.15821 13.5656 2.36631 12.4795 3.17048 11.9375L3.17341 11.9365L7.1236 9.29586L7.18903 9.2568ZM4.00837 13.1806L4.00934 13.1816C3.90815 13.2498 3.87195 13.3762 3.91755 13.4853L3.94196 13.5312L5.07282 15.2109L5.0738 15.2138C5.138 15.3101 5.29325 15.3544 5.42048 15.2715L8.73883 13.0537L7.33356 10.959L4.00837 13.1806Z" fill="#1C252E"/>
<path d="M11.3686 11.8874C11.5413 11.511 11.9863 11.3458 12.3628 11.5183C12.7391 11.6909 12.9044 12.136 12.7319 12.5124L8.24169 22.3122C8.06916 22.6888 7.62412 22.8539 7.24755 22.6814C6.87115 22.5088 6.70592 22.0637 6.87841 21.6872L11.3686 11.8874Z" fill="#1C252E"/>
<path d="M11.6905 11.5164C12.0677 11.3455 12.5127 11.5131 12.6836 11.8904L17.1231 21.6902C17.294 22.0674 17.1271 22.5123 16.75 22.6834C16.3727 22.8543 15.9278 22.6866 15.7569 22.3094L11.3164 12.5095C11.1456 12.1323 11.3132 11.6873 11.6905 11.5164Z" fill="#1C252E"/>
</svg>
