<svg width="24" height="24" viewBox="0 0 24 24" fill="none" xmlns="http://www.w3.org/2000/svg">
<path d="M11.25 9.65991C11.25 9.2457 11.5858 8.90991 12 8.90991C12.4142 8.90991 12.75 9.2457 12.75 9.65991V12.1394L13.9307 13.3201C14.2231 13.613 14.2234 14.0879 13.9307 14.3806C13.6379 14.6734 13.163 14.6731 12.8701 14.3806L11.4697 12.9802C11.3291 12.8396 11.25 12.6488 11.25 12.45V9.65991Z" fill="#1C252E"/>
<path d="M17.75 12C17.75 8.82421 15.1758 6.25 12 6.25C8.82421 6.25 6.25 8.82421 6.25 12C6.25 13.8389 7.10707 15.4682 8.44727 16.5234C8.4643 16.5345 8.48285 16.5441 8.49902 16.5566C9.47196 17.3083 10.6815 17.75 12 17.75C13.3373 17.75 14.556 17.2992 15.5283 16.5391L15.5742 16.5088C16.8989 15.4539 17.75 13.8228 17.75 12ZM19.25 12C19.25 14.3201 18.1559 16.3945 16.4619 17.7207C16.436 17.741 16.408 17.7579 16.3799 17.7744C15.164 18.7011 13.6503 19.25 12 19.25C10.3694 19.25 8.86565 18.7113 7.65039 17.7949C7.62337 17.779 7.59631 17.7625 7.57129 17.7432C5.85554 16.4173 4.75 14.342 4.75 12C4.75 7.99579 7.99579 4.75 12 4.75C16.0042 4.75 19.25 7.99579 19.25 12Z" fill="#1C252E"/>
<path d="M15.9995 16.3799C16.225 16.3799 16.4391 16.4814 16.5816 16.6562C16.7238 16.831 16.7794 17.0605 16.7339 17.2812L16.2241 19.752C16.2217 19.7637 16.2193 19.7755 16.2163 19.7871C15.9413 20.8534 15.467 21.6288 14.7798 22.1221C14.0996 22.6103 13.31 22.75 12.5493 22.75H11.4595C10.6993 22.75 9.90772 22.6099 9.22609 22.1201C8.53661 21.6247 8.0622 20.8457 7.79249 19.7725C7.78959 19.7609 7.78703 19.749 7.78468 19.7373L7.29445 17.2979C7.25019 17.0775 7.3073 16.8487 7.44972 16.6748C7.59217 16.5009 7.805 16.3994 8.0298 16.3994H8.03957L8.16261 16.4102C8.28428 16.4304 8.39995 16.4805 8.49855 16.5566C9.47144 17.3084 10.6811 17.7499 11.9995 17.75C13.3369 17.75 14.5556 17.2992 15.5278 16.5391C15.6597 16.4359 15.8223 16.3799 15.9898 16.3799H15.9995ZM14.9224 18.6357C14.0295 19.0301 13.0417 19.25 11.9995 19.25C10.9666 19.25 9.98443 19.0338 9.09425 18.6426L9.24953 19.416C9.45985 20.2469 9.77922 20.6711 10.1011 20.9023C10.4318 21.1399 10.87 21.25 11.4595 21.25H12.5493C13.1386 21.25 13.575 21.14 13.9048 20.9033C14.2276 20.6716 14.5482 20.2458 14.7632 19.4121L14.9224 18.6357Z" fill="#1C252E"/>
<path d="M12.5493 1.25C13.31 1.25 14.0996 1.38969 14.7798 1.87793C15.3811 2.30954 15.8196 2.95683 16.104 3.82617L16.2163 4.21289L16.2241 4.24805L16.7339 6.71875C16.7794 6.93947 16.7239 7.169 16.5816 7.34375C16.4391 7.51859 16.225 7.62012 15.9995 7.62012H15.9898C15.8224 7.62011 15.6597 7.56404 15.5279 7.46094C14.5556 6.70079 13.3369 6.25 11.9995 6.25C10.6811 6.25006 9.47146 6.69162 8.49856 7.44336C8.36722 7.54484 8.20554 7.59961 8.03957 7.59961H8.02981C7.80501 7.59961 7.59218 7.49909 7.44973 7.3252C7.30728 7.15129 7.25019 6.92255 7.29445 6.70215L7.78469 4.2627L7.7925 4.22754C8.06221 3.15433 8.53662 2.37529 9.22609 1.87988C9.90774 1.39011 10.6993 1.25004 11.4595 1.25H12.5493ZM11.4595 2.75C10.87 2.75004 10.4318 2.86005 10.1011 3.09766C9.77933 3.32885 9.45986 3.75266 9.24953 4.58301L9.09426 5.35645C9.98435 4.96532 10.9667 4.75004 11.9995 4.75C13.0415 4.75 14.0297 4.96816 14.9224 5.3623L14.7613 4.58008C14.5463 3.75124 14.2266 3.32771 13.9048 3.09668C13.575 2.86001 13.1386 2.75 12.5493 2.75H11.4595Z" fill="#1C252E"/>
</svg>
