<svg width="24" height="24" viewBox="0 0 24 24" fill="none" xmlns="http://www.w3.org/2000/svg">
<path d="M21.25 16V8C21.25 6.67044 20.8101 5.62069 20.0947 4.90527C19.3793 4.18986 18.3296 3.75 17 3.75H7C5.67044 3.75 4.62069 4.18986 3.90527 4.90527C3.18986 5.62069 2.75 6.67044 2.75 8V9C2.75 9.41421 2.41421 9.75 2 9.75C1.58579 9.75 1.25 9.41421 1.25 9V8C1.25 6.32956 1.81014 4.87931 2.84473 3.84473C3.87931 2.81014 5.32956 2.25 7 2.25H17C18.6704 2.25 20.1207 2.81014 21.1553 3.84473C22.1899 4.87931 22.75 6.32956 22.75 8V16C22.75 17.6704 22.1899 19.1207 21.1553 20.1553C20.1207 21.1899 18.6704 21.75 17 21.75H16C15.5858 21.75 15.25 21.4142 15.25 21C15.25 20.5858 15.5858 20.25 16 20.25H17C18.3296 20.25 19.3793 19.8101 20.0947 19.0947C20.8101 18.3793 21.25 17.3296 21.25 16Z" fill="#1C252E"/>
<path d="M3.78489 10.9658C8.74502 11.5992 12.4 15.2673 13.0437 20.2236C13.0969 20.6341 12.8076 21.0099 12.3972 21.0635C11.9866 21.1168 11.6099 20.8275 11.5564 20.417C11.0001 16.1334 7.87514 13.0007 3.59543 12.4541C3.18466 12.4016 2.89373 12.026 2.94602 11.6152C2.99848 11.2044 3.37413 10.9135 3.78489 10.9658Z" fill="#1C252E"/>
<path d="M2.71454 14.3259C6.44547 14.7993 9.1997 17.5678 9.68329 21.2936C9.73651 21.7042 9.44728 22.0799 9.0368 22.1335C8.62618 22.1868 8.24951 21.8975 8.19598 21.487C7.79958 18.4329 5.57399 16.2009 2.52508 15.8141C2.11434 15.7619 1.82356 15.3861 1.87567 14.9753C1.92795 14.5645 2.30373 14.2738 2.71454 14.3259Z" fill="#1C252E"/>
<path d="M2.07664 18.1157C4.10226 18.3794 5.61922 19.8839 5.88328 21.9233C5.93644 22.3341 5.64661 22.71 5.23582 22.7632C4.82516 22.8161 4.44912 22.5264 4.39597 22.1157C4.21978 20.7555 3.23731 19.7803 1.88328 19.604C1.47259 19.5505 1.18246 19.1738 1.23582 18.7632C1.28928 18.3525 1.66596 18.0623 2.07664 18.1157Z" fill="#1C252E"/>
</svg>
