<svg width="24" height="24" viewBox="0 0 24 24" fill="none" xmlns="http://www.w3.org/2000/svg">
<path d="M2.25 17V7C2.25 5.32956 2.81014 3.87931 3.84473 2.84473C4.87931 1.81014 6.32956 1.25 8 1.25H12.9297C14.4599 1.25 15.9204 1.86001 17 2.93945L20.0703 6.00977C21.1407 7.08017 21.75 8.54108 21.75 10.0703V17C21.75 18.6704 21.1899 20.1207 20.1553 21.1553C19.1207 22.1899 17.6704 22.75 16 22.75H8C6.32956 22.75 4.87931 22.1899 3.84473 21.1553C2.81014 20.1207 2.25 18.6704 2.25 17ZM3.75 17C3.75 18.3296 4.18986 19.3793 4.90527 20.0947C5.62069 20.8101 6.67044 21.25 8 21.25H16C17.3296 21.25 18.3793 20.8101 19.0947 20.0947C19.8101 19.3793 20.25 18.3296 20.25 17V10.0703C20.25 8.93958 19.7993 7.8599 19.0098 7.07031L15.9395 4C15.1391 3.19979 14.0592 2.75 12.9297 2.75H8C6.67044 2.75 5.62069 3.18986 4.90527 3.90527C4.18986 4.62069 3.75 5.67044 3.75 7V17Z" fill="#1C252E"/>
<path d="M16.25 12.5C16.25 11.2642 15.2358 10.25 14 10.25H10C8.76421 10.25 7.75 11.2642 7.75 12.5V15.5C7.75 16.7358 8.76421 17.75 10 17.75H14C15.2358 17.75 16.25 16.7358 16.25 15.5V12.5ZM17.75 15.5C17.75 17.5642 16.0642 19.25 14 19.25H10C7.93579 19.25 6.25 17.5642 6.25 15.5V12.5C6.25 10.4358 7.93579 8.75 10 8.75H14C16.0642 8.75 17.75 10.4358 17.75 12.5V15.5Z" fill="#1C252E"/>
<path d="M11.25 18.5V9.5C11.25 9.08579 11.5858 8.75 12 8.75C12.4142 8.75 12.75 9.08579 12.75 9.5V18.5C12.75 18.9142 12.4142 19.25 12 19.25C11.5858 19.25 11.25 18.9142 11.25 18.5Z" fill="#1C252E"/>
<path d="M16.5 13.25C16.9142 13.25 17.25 13.5858 17.25 14C17.25 14.4142 16.9142 14.75 16.5 14.75H7.5C7.08579 14.75 6.75 14.4142 6.75 14C6.75 13.5858 7.08579 13.25 7.5 13.25H16.5Z" fill="#1C252E"/>
</svg>
