<svg width="24" height="24" viewBox="0 0 24 24" fill="none" xmlns="http://www.w3.org/2000/svg">
<path d="M17.81 18.4905V15.4602C17.81 14.8234 17.3054 14.3704 16.7201 14.3704C16.0833 14.3704 15.6303 14.8748 15.6303 15.4602V18.2698C15.6303 19.8054 16.914 21.0899 18.4496 21.0901C19.9854 21.0901 21.2699 19.8056 21.2699 18.2698V12.1096C21.2697 7.00773 17.1694 2.80012 11.9701 2.80005C6.77231 2.80005 2.66813 7.003 2.76993 12.2053V18.3801C2.76997 19.9072 4.05584 21.2004 5.59025 21.2004C7.1259 21.2003 8.40955 19.9158 8.40958 18.3801V15.5706C8.40958 14.9337 7.9051 14.4797 7.31974 14.4797C6.68309 14.4799 6.2299 14.9852 6.2299 15.5706V18.4905C6.22966 18.9045 5.89397 19.2405 5.4799 19.2405C5.06587 19.2404 4.73013 18.9045 4.7299 18.4905V15.5706C4.7299 14.216 5.79666 12.9799 7.31974 12.9797C8.67438 12.9797 9.90958 14.0474 9.90958 15.5706V18.3801C9.90955 20.7442 7.95432 22.7003 5.59025 22.7004C3.22469 22.7004 1.26997 20.733 1.26993 18.3801V12.22C1.15981 6.18908 5.93288 1.30005 11.9701 1.30005C18.0104 1.30012 22.7697 6.19198 22.7699 12.1096V18.2698C22.7699 20.634 20.8138 22.5901 18.4496 22.5901C16.0856 22.5899 14.1303 20.6339 14.1303 18.2698V15.4602C14.1303 14.1056 15.1969 12.8704 16.7201 12.8704C18.0747 12.8704 19.31 13.9371 19.31 15.4602V18.4905C19.3097 18.9045 18.974 19.2405 18.56 19.2405C18.1459 19.2405 17.8102 18.9045 17.81 18.4905Z" fill="#1C252E"/>
<path d="M9.89062 6.90335C10.2827 6.16977 11.2394 6.21565 11.6582 6.79789L11.7344 6.92191L13.1738 9.79398L13.5195 9.10453L13.5264 9.09085C13.7543 8.65785 14.2176 8.37024 14.7197 8.37015H15.5303C15.9443 8.37032 16.2803 8.70604 16.2803 9.12015C16.2802 9.53421 15.9443 9.86999 15.5303 9.87015H14.8135L14.1104 11.2754C13.7239 12.048 12.6256 12.0481 12.2393 11.2754L10.791 8.38773L10.373 9.15824L10.374 9.15921C10.1418 9.60041 9.68311 9.86999 9.19043 9.87015H8.45996C8.04579 9.87015 7.71003 9.53431 7.70996 9.12015C7.70996 8.70594 8.04575 8.37015 8.45996 8.37015H9.0957L9.89062 6.90335Z" fill="#1C252E"/>
</svg>
