<svg width="24" height="24" viewBox="0 0 24 24" fill="none" xmlns="http://www.w3.org/2000/svg">
<path d="M18.25 8.5C18.25 7.45142 17.9876 6.80015 17.5938 6.40625C17.1999 6.01235 16.5486 5.75 15.5 5.75H8.5C7.45142 5.75 6.80015 6.01235 6.40625 6.40625C6.01235 6.80015 5.75 7.45142 5.75 8.5V15.5C5.75 16.5486 6.01235 17.1999 6.40625 17.5938C6.80015 17.9876 7.45142 18.25 8.5 18.25H15.5C16.5486 18.25 17.1999 17.9876 17.5938 17.5938C17.9876 17.1999 18.25 16.5486 18.25 15.5V8.5ZM19.75 15.5C19.75 16.7814 19.4279 17.8807 18.6543 18.6543C17.8807 19.4279 16.7814 19.75 15.5 19.75H8.5C7.21858 19.75 6.11931 19.4279 5.3457 18.6543C4.5721 17.8807 4.25 16.7814 4.25 15.5V8.5C4.25 7.21858 4.5721 6.11931 5.3457 5.3457C6.11931 4.5721 7.21858 4.25 8.5 4.25H15.5C16.7814 4.25 17.8807 4.5721 18.6543 5.3457C19.4279 6.11931 19.75 7.21858 19.75 8.5V15.5Z" fill="#1C252E"/>
<path d="M16 1.25C16.4142 1.25 16.75 1.58579 16.75 2C16.75 2.41421 16.4142 2.75 16 2.75H8C7.58579 2.75 7.25 2.41421 7.25 2C7.25 1.58579 7.58579 1.25 8 1.25H16Z" fill="#1C252E"/>
<path d="M16 21.25C16.4142 21.25 16.75 21.5858 16.75 22C16.75 22.4142 16.4142 22.75 16 22.75H8C7.58579 22.75 7.25 22.4142 7.25 22C7.25 21.5858 7.58579 21.25 8 21.25H16Z" fill="#1C252E"/>
<path d="M11.25 14V10C11.25 9.58579 11.5858 9.25 12 9.25C12.4142 9.25 12.75 9.58579 12.75 10V14C12.75 14.4142 12.4142 14.75 12 14.75C11.5858 14.75 11.25 14.4142 11.25 14Z" fill="#1C252E"/>
<path d="M14.25 14V12C14.25 11.5858 14.5858 11.25 15 11.25C15.4142 11.25 15.75 11.5858 15.75 12V14C15.75 14.4142 15.4142 14.75 15 14.75C14.5858 14.75 14.25 14.4142 14.25 14Z" fill="#1C252E"/>
<path d="M8.25 14V13C8.25 12.5858 8.58579 12.25 9 12.25C9.41421 12.25 9.75 12.5858 9.75 13V14C9.75 14.4142 9.41421 14.75 9 14.75C8.58579 14.75 8.25 14.4142 8.25 14Z" fill="#1C252E"/>
</svg>
