<svg width="24" height="24" viewBox="0 0 24 24" fill="none" xmlns="http://www.w3.org/2000/svg">
<path d="M18.25 6C18.25 4.54155 17.9973 3.80785 17.5947 3.40527C17.1921 3.00269 16.4585 2.75 15 2.75H9C7.54155 2.75 6.80785 3.00269 6.40527 3.40527C6.00269 3.80785 5.75 4.54155 5.75 6V18C5.75 19.4585 6.00269 20.1921 6.40527 20.5947C6.80785 20.9973 7.54155 21.25 9 21.25H15C16.4585 21.25 17.1921 20.9973 17.5947 20.5947C17.9973 20.1921 18.25 19.4585 18.25 18V6ZM19.75 18C19.75 19.5415 19.5027 20.8079 18.6553 21.6553C17.8079 22.5027 16.5415 22.75 15 22.75H9C7.45845 22.75 6.19215 22.5027 5.34473 21.6553C4.49731 20.8079 4.25 19.5415 4.25 18V6C4.25 4.45845 4.49731 3.19215 5.34473 2.34473C6.19215 1.49731 7.45845 1.25 9 1.25H15C16.5415 1.25 17.8079 1.49731 18.6553 2.34473C19.5027 3.19215 19.75 4.45845 19.75 6V18Z" fill="#1C252E"/>
<path d="M14.25 15C14.25 13.7574 13.2426 12.75 12 12.75C10.7574 12.75 9.75 13.7574 9.75 15C9.75 16.2426 10.7574 17.25 12 17.25C13.2426 17.25 14.25 16.2426 14.25 15ZM15.75 15C15.75 17.0711 14.0711 18.75 12 18.75C9.92893 18.75 8.25 17.0711 8.25 15C8.25 12.9289 9.92893 11.25 12 11.25C14.0711 11.25 15.75 12.9289 15.75 15Z" fill="#1C252E"/>
<path d="M12.75 7.5C12.75 7.08579 12.4142 6.75 12 6.75C11.5858 6.75 11.25 7.08579 11.25 7.5C11.25 7.91421 11.5858 8.25 12 8.25C12.4142 8.25 12.75 7.91421 12.75 7.5ZM14.25 7.5C14.25 8.74264 13.2426 9.75 12 9.75C10.7574 9.75 9.75 8.74264 9.75 7.5C9.75 6.25736 10.7574 5.25 12 5.25C13.2426 5.25 14.25 6.25736 14.25 7.5Z" fill="#1C252E"/>
</svg>
