<svg width="24" height="24" viewBox="0 0 24 24" fill="none" xmlns="http://www.w3.org/2000/svg">
<path d="M10.33 14.9697C10.6229 14.6768 11.0977 14.6768 11.3906 14.9697L13.5009 17.08C13.7935 17.3729 13.7937 17.8478 13.5009 18.1406C13.2081 18.4333 12.7333 18.4331 12.4404 18.1406L10.33 16.0302C10.0371 15.7373 10.0371 15.2626 10.33 14.9697Z" fill="#1C252E"/>
<path d="M12.4198 14.9898C12.7127 14.6969 13.1875 14.6969 13.4804 14.9898C13.7732 15.2827 13.7732 15.7575 13.4804 16.0503L11.3603 18.1704C11.0674 18.4633 10.5926 18.4633 10.2997 18.1704C10.0068 17.8776 10.0069 17.4028 10.2997 17.1099L12.4198 14.9898Z" fill="#1C252E"/>
<path d="M5.4868 10.372C5.89999 10.3429 6.25845 10.6541 6.28758 11.0673C6.31672 11.4805 6.00546 11.839 5.59227 11.8681C1.84945 12.1323 1.84232 17.5558 5.57079 17.8398H7.45946C7.87358 17.8398 8.20931 18.1757 8.20946 18.5898C8.20946 19.004 7.87367 19.3398 7.45946 19.3398H5.53954C5.52201 19.3398 5.50428 19.3391 5.4868 19.3378C-0.122547 18.9421 -0.12256 10.7678 5.4868 10.372Z" fill="#1C252E"/>
<path d="M9.5537 1.96819C11.3093 1.50616 13.257 1.66921 14.8887 2.62834C16.4215 3.52948 17.6101 5.0963 18.1074 7.35198C20.3206 7.84746 21.849 9.55968 22.4414 11.5072C23.0808 13.6099 22.6619 16.0933 20.7637 17.7543L20.7627 17.7533C19.6279 18.7811 18.1642 19.3493 16.6299 19.3393L16.54 19.3403C16.1259 19.3403 15.7901 19.0044 15.79 18.5903C15.79 18.176 16.1258 17.8403 16.54 17.8403H16.6357C17.7945 17.8488 18.9032 17.4199 19.7656 16.6352L19.7764 16.6254C21.1577 15.4166 21.5036 13.5808 21.0058 11.9438C20.508 10.307 19.1994 8.97638 17.376 8.74455C17.0471 8.70278 16.7846 8.44953 16.7305 8.12248C16.3752 5.97248 15.3529 4.64141 14.1279 3.92131C12.8852 3.1909 11.3574 3.04516 9.93553 3.41936C8.51379 3.79363 7.25081 4.67381 6.52147 5.92424C5.80254 7.15707 5.56052 8.82091 6.29588 10.8666C6.43581 11.2563 6.23338 11.6855 5.84373 11.8256C5.45394 11.9657 5.02389 11.7633 4.88377 11.3735C4.01438 8.95455 4.26132 6.82323 5.22655 5.16838C6.18146 3.53126 7.79825 2.43026 9.5537 1.96819Z" fill="#1C252E"/>
<path d="M16.25 16.53C16.25 14.1842 14.3458 12.28 12 12.28C9.65421 12.28 7.75 14.1842 7.75 16.53C7.75 17.0824 7.85414 17.6016 8.04688 18.0671L8.13477 18.2634L8.14551 18.2859C8.17862 18.3604 8.2133 18.4324 8.25 18.5017L8.36621 18.7029L8.375 18.7175C9.10541 19.949 10.4554 20.78 12 20.78C13.5446 20.78 14.8946 19.949 15.625 18.7175L15.6338 18.7029C15.7143 18.5741 15.7882 18.435 15.8545 18.2859L15.8652 18.2634C16.114 17.7493 16.25 17.1614 16.25 16.53ZM17.75 16.53C17.75 17.3698 17.5687 18.1733 17.2246 18.8933L17.2256 18.8943C17.132 19.105 17.0257 19.3068 16.9062 19.4978L16.9053 19.4968C15.9137 21.1572 14.0892 22.28 12 22.28C9.91062 22.28 8.08531 21.1574 7.09375 19.4968C6.9745 19.306 6.86794 19.1047 6.77441 18.8943L6.77539 18.8933C6.43129 18.1733 6.25 17.3698 6.25 16.53C6.25 13.3558 8.82579 10.78 12 10.78C15.1742 10.78 17.75 13.3558 17.75 16.53Z" fill="#1C252E"/>
</svg>
