<svg width="24" height="24" viewBox="0 0 24 24" fill="none" xmlns="http://www.w3.org/2000/svg">
<path d="M20.75 9C20.75 7.31741 20.5627 6.36563 20.1895 5.79883C19.8607 5.29965 19.2934 4.97 18.0781 4.83594C18.0702 4.83506 18.0616 4.83317 18.0537 4.83203C17.6168 4.76964 17.1088 4.75 16.5 4.75H7.5C6.89118 4.75 6.38318 4.76964 5.94629 4.83203C5.93835 4.83317 5.92985 4.83506 5.92188 4.83594C4.7066 4.97 4.13934 5.29965 3.81055 5.79883C3.43729 6.36563 3.25 7.31741 3.25 9V15C3.25 16.6826 3.43729 17.6344 3.81055 18.2012C4.13934 18.7004 4.7066 19.03 5.92188 19.1641C5.92985 19.1649 5.93835 19.1668 5.94629 19.168C6.38318 19.2304 6.89118 19.25 7.5 19.25H16.5C17.1088 19.25 17.6168 19.2304 18.0537 19.168L18.0781 19.1641C19.2934 19.03 19.8607 18.7004 20.1895 18.2012C20.5627 17.6344 20.75 16.6826 20.75 15V9ZM22.25 15C22.25 16.6974 22.0816 18.0557 21.4424 19.0264C20.7587 20.0644 19.6565 20.4993 18.2422 20.6553L18.2412 20.6543C17.7049 20.729 17.1215 20.75 16.5 20.75H7.5C6.87811 20.75 6.29437 20.7291 5.75781 20.6543V20.6553C4.34354 20.4993 3.24131 20.0644 2.55762 19.0264C1.91838 18.0557 1.75 16.6974 1.75 15V9C1.75 7.30259 1.91838 5.94433 2.55762 4.97363C3.24131 3.93559 4.34354 3.50067 5.75781 3.34473V3.3457C6.29437 3.27089 6.87811 3.25 7.5 3.25H16.5C17.1215 3.25 17.7049 3.271 18.2412 3.3457L18.2422 3.34473C19.6565 3.50067 20.7587 3.93559 21.4424 4.97363C22.0816 5.94433 22.25 7.30259 22.25 9V15Z" fill="#1C252E"/>
<path d="M17 9.25C17.4142 9.25 17.75 9.58579 17.75 10C17.75 10.4142 17.4142 10.75 17 10.75H13.5C13.0858 10.75 12.75 10.4142 12.75 10C12.75 9.58579 13.0858 9.25 13.5 9.25H17Z" fill="#1C252E"/>
<path d="M17 14.75C17.4142 14.75 17.75 15.0858 17.75 15.5C17.75 15.9142 17.4142 16.25 17 16.25H7C6.58579 16.25 6.25 15.9142 6.25 15.5C6.25 15.0858 6.58579 14.75 7 14.75H17Z" fill="#1C252E"/>
<path d="M10.104 9C10.6561 9.00023 11.104 9.44785 11.104 10C11.104 10.5521 10.6561 10.9998 10.104 11H10.0942C9.54212 10.9998 9.09424 10.5522 9.09424 10C9.09424 9.44784 9.54212 9.0002 10.0942 9H10.104Z" fill="#1C252E"/>
<path d="M7.104 9C7.6561 9.00023 8.104 9.44785 8.104 10C8.104 10.5521 7.6561 10.9998 7.104 11H7.09424C6.54212 10.9998 6.09424 10.5522 6.09424 10C6.09424 9.44784 6.54212 9.0002 7.09424 9H7.104Z" fill="#1C252E"/>
</svg>
