<svg width="24" height="24" viewBox="0 0 24 24" fill="none" xmlns="http://www.w3.org/2000/svg">
<path d="M21.25 4.6897C21.2498 3.63223 20.3832 2.76001 19.3193 2.76001H4.68945C3.6321 2.76018 2.75994 3.62598 2.75977 4.6897V7.31958C2.75977 8.37708 3.62563 9.25007 4.68945 9.25024H19.3193C20.3751 9.25024 21.25 8.37537 21.25 7.31958V4.6897ZM22.75 7.31958C22.75 9.20379 21.2036 10.7502 19.3193 10.7502H4.68945C2.79357 10.7501 1.25977 9.20187 1.25977 7.31958V4.6897C1.25994 2.79392 2.80731 1.26018 4.68945 1.26001H19.3193C21.2153 1.26001 22.7498 2.80746 22.75 4.6897V7.31958Z" fill="#1C252E"/>
<path d="M21.25 16.6897C21.2498 15.6322 20.3832 14.76 19.3193 14.76H4.68945C3.6321 14.7602 2.75994 15.626 2.75977 16.6897V19.3196C2.75977 20.3771 3.62563 21.2501 4.68945 21.2502H19.3193C20.3751 21.2502 21.25 20.3754 21.25 19.3196V16.6897ZM22.75 19.3196C22.75 21.2038 21.2036 22.7502 19.3193 22.7502H4.68945C2.79357 22.7501 1.25977 21.2019 1.25977 19.3196V16.6897C1.25994 14.7939 2.80731 13.2602 4.68945 13.26H19.3193C21.2153 13.26 22.7498 14.8075 22.75 16.6897V19.3196Z" fill="#1C252E"/>
<path d="M5.25 7V5C5.25 4.58579 5.58579 4.25 6 4.25C6.41421 4.25 6.75 4.58579 6.75 5V7C6.75 7.41421 6.41421 7.75 6 7.75C5.58579 7.75 5.25 7.41421 5.25 7Z" fill="#1C252E"/>
<path d="M9.25 7V5C9.25 4.58579 9.58579 4.25 10 4.25C10.4142 4.25 10.75 4.58579 10.75 5V7C10.75 7.41421 10.4142 7.75 10 7.75C9.58579 7.75 9.25 7.41421 9.25 7Z" fill="#1C252E"/>
<path d="M5.25 19V17C5.25 16.5858 5.58579 16.25 6 16.25C6.41421 16.25 6.75 16.5858 6.75 17V19C6.75 19.4142 6.41421 19.75 6 19.75C5.58579 19.75 5.25 19.4142 5.25 19Z" fill="#1C252E"/>
<path d="M9.25 19V17C9.25 16.5858 9.58579 16.25 10 16.25C10.4142 16.25 10.75 16.5858 10.75 17V19C10.75 19.4142 10.4142 19.75 10 19.75C9.58579 19.75 9.25 19.4142 9.25 19Z" fill="#1C252E"/>
<path d="M18 5.25C18.4142 5.25 18.75 5.58579 18.75 6C18.75 6.41421 18.4142 6.75 18 6.75H14C13.5858 6.75 13.25 6.41421 13.25 6C13.25 5.58579 13.5858 5.25 14 5.25H18Z" fill="#1C252E"/>
<path d="M18 17.25C18.4142 17.25 18.75 17.5858 18.75 18C18.75 18.4142 18.4142 18.75 18 18.75H14C13.5858 18.75 13.25 18.4142 13.25 18C13.25 17.5858 13.5858 17.25 14 17.25H18Z" fill="#1C252E"/>
</svg>
