<svg width="24" height="24" viewBox="0 0 24 24" fill="none" xmlns="http://www.w3.org/2000/svg">
<path d="M7.75 12.0002V7.21997C7.75 6.80576 8.08579 6.46997 8.5 6.46997C8.91421 6.46997 9.25 6.80576 9.25 7.21997V12.0002C9.24987 12.4143 8.91413 12.7502 8.5 12.7502C8.08587 12.7502 7.75013 12.4143 7.75 12.0002Z" fill="#1C252E"/>
<path d="M7.75 22V19C7.75 18.5858 8.08579 18.25 8.5 18.25C8.91421 18.25 9.25 18.5858 9.25 19V22C9.25 22.4142 8.91421 22.75 8.5 22.75C8.08579 22.75 7.75 22.4142 7.75 22Z" fill="#1C252E"/>
<path d="M14.75 22.0002V7.21997C14.75 6.80576 15.0858 6.46997 15.5 6.46997C15.9142 6.46997 16.25 6.80576 16.25 7.21997V22.0002C16.2499 22.4143 15.9141 22.7502 15.5 22.7502C15.0859 22.7502 14.7501 22.4143 14.75 22.0002Z" fill="#1C252E"/>
<path d="M5.75001 4.84961C5.74992 4.51604 5.63527 4.19412 5.45215 3.95215C5.28046 3.7252 5.25126 3.42084 5.37793 3.16602C5.50469 2.91113 5.76515 2.75 6.04981 2.75H8.29981C9.70395 2.75 10.8495 3.89566 10.8496 5.2998C10.8496 5.98339 10.5738 6.62971 10.1074 7.09082L10.1084 7.0918C10.1059 7.09436 10.1021 7.09608 10.0996 7.09863C10.0967 7.10151 10.0948 7.10553 10.0918 7.1084L10.0908 7.10742C9.63144 7.57238 8.99554 7.84961 8.29981 7.84961H6.04981C5.76515 7.84961 5.50469 7.68848 5.37793 7.43359C5.25141 7.17879 5.28047 6.87433 5.45215 6.64746C5.63527 6.40542 5.75001 6.08363 5.75001 5.75V4.84961ZM7.25001 5.75C7.25001 5.95371 7.22652 6.15434 7.18653 6.34961H8.29981C8.59584 6.34961 8.8518 6.23289 9.03126 6.04785C9.03661 6.04233 9.04233 6.0366 9.04786 6.03125C9.23119 5.85334 9.34961 5.58797 9.34961 5.2998C9.34951 4.72412 8.87555 4.25 8.29981 4.25H7.18653C7.22654 4.44526 7.24998 4.6459 7.25001 4.84961V5.75Z" fill="#1C252E"/>
<path d="M5.75 5.75046V4.85007C5.75 4.52197 5.63785 4.20086 5.45215 3.9448C5.4004 3.87873 5.35315 3.82433 5.30957 3.78074C4.79023 3.26139 3.76397 3.04506 2.79004 4.05027C2.78431 4.06089 2.77698 4.07705 2.76953 4.09714C2.76135 4.11922 2.75527 4.13979 2.75195 4.15574C2.75001 4.16515 2.75002 4.1703 2.75 4.17038V6.50046C2.75 6.48997 2.74882 6.49387 2.75293 6.51218C2.75678 6.52928 2.76356 6.5504 2.77246 6.57175C2.77972 6.58914 2.78687 6.60227 2.79199 6.61081C3.38334 7.13184 3.93597 7.27684 4.36719 7.2446C4.80909 7.21144 5.19551 6.98866 5.45117 6.6489L5.45215 6.64695C5.63507 6.40504 5.7499 6.08382 5.75 5.75046ZM7.25 5.75046C7.2499 6.41586 7.02442 7.05268 6.64844 7.55027C6.1441 8.22051 5.37008 8.67386 4.47949 8.7407C3.58158 8.80796 2.63465 8.47942 1.78125 7.72019L1.78223 7.71921C1.58979 7.54904 1.46362 7.33099 1.3877 7.1489C1.30939 6.96097 1.25008 6.73183 1.25 6.50046V4.15964C1.25006 3.95094 1.30114 3.74326 1.36328 3.57566C1.42447 3.41064 1.52524 3.20691 1.68066 3.03952L1.6875 3.03171C3.2283 1.41776 5.23251 1.58198 6.37012 2.71921C6.41766 2.76676 6.46446 2.81684 6.50977 2.86863L6.6416 3.02976L6.65332 3.04538C7.02355 3.54784 7.25 4.18215 7.25 4.85007V5.75046Z" fill="#1C252E"/>
<path d="M16.7495 4.84961C16.7495 4.64592 16.773 4.44525 16.813 4.25H15.6997C15.1241 4.25012 14.65 4.72419 14.6499 5.2998C14.6499 5.58791 14.7684 5.85334 14.9517 6.03125C14.9572 6.03659 14.9629 6.04235 14.9683 6.04785C15.1477 6.23287 15.4037 6.34955 15.6997 6.34961H16.813C16.773 6.15436 16.7495 5.9537 16.7495 5.75V4.84961ZM18.2495 5.75C18.2495 6.0837 18.3652 6.4054 18.5483 6.64746C18.7199 6.87433 18.7481 7.17886 18.6216 7.43359C18.4948 7.68848 18.2344 7.84961 17.9497 7.84961H15.6997C15.0038 7.84955 14.3671 7.57269 13.9077 7.10742V7.1084C13.9049 7.10568 13.9027 7.10234 13.8999 7.09961C13.8973 7.09693 13.8937 7.09449 13.8911 7.0918L13.8921 7.09082C13.4258 6.62972 13.1499 5.98334 13.1499 5.2998C13.15 3.89573 14.2957 2.75012 15.6997 2.75H17.9497C18.2344 2.75 18.4948 2.91113 18.6216 3.16602C18.7482 3.42072 18.7198 3.72521 18.5483 3.95215C18.3652 4.19412 18.2496 4.51604 18.2495 4.84961V5.75Z" fill="#1C252E"/>
<path d="M16.75 5.75046V4.85007C16.75 4.18215 16.9764 3.54784 17.3467 3.04538L17.3584 3.02976C17.4447 2.91883 17.5349 2.81418 17.6299 2.71921C18.7675 1.58198 20.7717 1.41776 22.3125 3.03171L22.3193 3.03952C22.4748 3.20691 22.5755 3.41064 22.6367 3.57566C22.6989 3.74326 22.7499 3.95094 22.75 4.15964V6.50046C22.7499 6.73183 22.6906 6.96097 22.6123 7.1489C22.5364 7.33099 22.4102 7.54904 22.2178 7.71921L22.2188 7.72019C21.3653 8.47942 20.4184 8.80796 19.5205 8.7407C18.63 8.67386 17.8549 8.22142 17.3506 7.55124L17.3516 7.55027C16.9756 7.05268 16.7501 6.41586 16.75 5.75046ZM18.25 5.75046C18.2501 6.08382 18.3649 6.40504 18.5479 6.64695L18.5488 6.6489C18.8045 6.98866 19.1909 7.21144 19.6328 7.2446C20.0639 7.27683 20.6159 7.13144 21.207 6.61081C21.2122 6.60229 21.2202 6.58943 21.2275 6.57175C21.2364 6.5504 21.2432 6.52928 21.2471 6.51218C21.2512 6.49387 21.25 6.48997 21.25 6.50046V4.17038C21.25 4.1703 21.25 4.16515 21.248 4.15574C21.2447 4.13979 21.2387 4.11922 21.2305 4.09714C21.2229 4.07679 21.2147 4.06088 21.209 4.05027C20.2352 3.04562 19.2097 3.26148 18.6904 3.78074C18.6467 3.82444 18.5988 3.87851 18.5469 3.9448C18.3614 4.20078 18.25 4.52217 18.25 4.85007V5.75046Z" fill="#1C252E"/>
<path d="M9.25 13.5C9.25 13.0842 8.91579 12.75 8.5 12.75C8.08421 12.75 7.75 13.0842 7.75 13.5V17.5C7.75 17.9158 8.08421 18.25 8.5 18.25C8.91579 18.25 9.25 17.9158 9.25 17.5V13.5ZM10.75 17.5C10.75 18.7442 9.74421 19.75 8.5 19.75C7.25579 19.75 6.25 18.7442 6.25 17.5V13.5C6.25 12.2558 7.25579 11.25 8.5 11.25C9.74421 11.25 10.75 12.2558 10.75 13.5V17.5Z" fill="#1C252E"/>
</svg>
