<svg width="24" height="24" viewBox="0 0 24 24" fill="none" xmlns="http://www.w3.org/2000/svg">
<path d="M1.25 18.0801V10.3096C1.25008 8.96936 1.70014 7.7966 2.54102 6.95703C3.38194 6.11765 4.5549 5.67 5.88965 5.66992H9.71973C10.9482 5.66992 12.1286 6.15862 12.999 7.02832L15.3896 9.4082L15.3906 9.40918C16.261 10.2796 16.7499 11.4605 16.75 12.6895V18.0801C16.75 19.4206 16.3002 20.594 15.459 21.4336C14.6181 22.273 13.4451 22.7196 12.1104 22.7197H5.88965C4.5549 22.7196 3.38194 22.273 2.54102 21.4336C1.69985 20.594 1.25004 19.4206 1.25 18.0801ZM2.75 18.0801C2.75003 19.0794 3.0803 19.8518 3.60156 20.3721C4.12299 20.8923 4.89501 21.2196 5.88965 21.2197H12.1104C13.105 21.2196 13.877 20.8923 14.3984 20.3721C14.9197 19.8518 15.25 19.0794 15.25 18.0801V12.6895C15.2499 11.8594 14.9196 11.0609 14.3311 10.4717L11.9404 8.0918L11.9395 8.08984C11.35 7.50054 10.5505 7.16992 9.71973 7.16992H5.88965C4.89476 7.17 4.123 7.49812 3.60156 8.01855C3.08034 8.53882 2.75008 9.31031 2.75 10.3096V18.0801Z" fill="#1C252E"/>
<path d="M21.25 8.25024C21.25 7.41951 20.9194 6.61998 20.3301 6.03052L17.9395 3.63989C17.35 3.05059 16.5505 2.71997 15.7197 2.71997H11.8896C10.8961 2.72005 10.1237 3.04942 9.60156 3.57153C9.11312 4.05998 8.79318 4.76746 8.75391 5.67017H9.71973C10.9483 5.67017 12.1286 6.1588 12.999 7.02856L15.3896 9.40845L15.3906 9.40942C16.261 10.2799 16.7499 11.4607 16.75 12.6897V16.7795H18.1104C19.1039 16.7795 19.8763 16.4501 20.3984 15.928C20.9205 15.4058 21.25 14.6335 21.25 13.6399V8.25024ZM22.75 13.6399C22.75 14.9761 22.2993 16.1492 21.459 16.9895C20.6188 17.8296 19.4463 18.2795 18.1104 18.2795H16C15.5858 18.2795 15.25 17.9438 15.25 17.5295V12.6897C15.2499 11.8594 14.9198 11.0603 14.3311 10.4709L11.9404 8.09106L11.9395 8.09009C11.35 7.50073 10.5505 7.17017 9.71973 7.17017H8C7.58585 7.17017 7.25011 6.83429 7.25 6.42017V5.85962C7.25008 4.52352 7.70076 3.35124 8.54102 2.51099C9.38127 1.67073 10.5535 1.22005 11.8896 1.21997H15.7197C16.9487 1.21997 18.1295 1.70904 19 2.57935L21.3906 4.96997C22.2609 5.84045 22.75 7.02127 22.75 8.25024V13.6399Z" fill="#1C252E"/>
</svg>
