<svg width="24" height="24" viewBox="0 0 24 24" fill="none" xmlns="http://www.w3.org/2000/svg">
<path d="M10.4526 6.06076C11.5754 5.76658 12.8304 5.86868 13.8891 6.49142C14.8471 7.05492 15.5838 8.01048 15.9213 9.34494C17.2709 9.71922 18.1983 10.7972 18.5649 12.0012C18.9775 13.3565 18.7119 14.9757 17.4702 16.0666L17.4711 16.0676C16.7407 16.7249 15.7845 17.1088 14.7797 17.0988V17.0998H8.10982C8.09206 17.0998 8.07383 17.0991 8.05611 17.0979C4.64386 16.8546 4.32251 12.2392 7.19869 11.2697C6.95609 10.0747 7.15082 8.9991 7.66451 8.12033C8.28478 7.05942 9.32973 6.35505 10.4526 6.06076ZM13.1284 7.78439C12.4579 7.39003 11.622 7.305 10.8325 7.51193C10.0429 7.71886 9.35356 8.2039 8.95943 8.87814C8.5759 9.53449 8.43007 10.4406 8.84517 11.5959C8.98527 11.9857 8.78283 12.4158 8.39302 12.5559C8.32375 12.5807 8.253 12.5908 8.18306 12.5949C8.17629 12.5956 8.16938 12.5974 8.16256 12.5979C6.29569 12.7305 6.26429 15.4495 8.14595 15.5998H14.7885C15.4003 15.6074 16.0009 15.3729 16.4682 14.9524L16.476 14.9455C17.2074 14.3065 17.4008 13.3304 17.1294 12.4387C16.8578 11.5467 16.1542 10.8457 15.1958 10.7238C14.8667 10.6821 14.6032 10.4291 14.5493 10.1018C14.3489 8.8872 13.781 8.16825 13.1284 7.78439Z" fill="#1C252E"/>
<path d="M1.25 15C1.25 14.5858 1.58579 14.25 2 14.25C2.41421 14.25 2.75 14.5858 2.75 15C2.75 17.9656 4.80839 20.4416 7.57617 21.085L7.30664 20.6357C7.0937 20.2806 7.20933 19.8195 7.56445 19.6064C7.91956 19.3937 8.37973 19.5093 8.59277 19.8643L9.64355 21.6143C9.78237 21.8459 9.78533 22.1341 9.65234 22.3691C9.51921 22.6043 9.2702 22.75 9 22.75C4.71579 22.75 1.25 19.2842 1.25 15Z" fill="#1C252E"/>
<path d="M21.2499 9C21.2499 6.03395 19.1911 3.55703 16.4228 2.91406L16.6933 3.36426C16.9062 3.71942 16.7906 4.18049 16.4355 4.39355C16.0804 4.60631 15.6202 4.49074 15.4071 4.13574L14.3564 2.38574C14.2175 2.15415 14.2146 1.86586 14.3476 1.63086C14.4807 1.39573 14.7297 1.25 14.9999 1.25C19.2841 1.25 22.7499 4.71579 22.7499 9C22.7499 9.41421 22.4141 9.75 21.9999 9.75C21.5857 9.75 21.2499 9.41421 21.2499 9Z" fill="#1C252E"/>
</svg>
