<svg width="24" height="24" viewBox="0 0 24 24" fill="none" xmlns="http://www.w3.org/2000/svg">
<path d="M12.1185 6.00213C12.6992 5.72424 13.2674 6.01781 13.6107 6.30389V6.30486L15.6713 8.02459H15.6703C16.304 8.55117 16.3355 9.4818 15.7162 10.0422L13.5765 12.0051L15.7172 13.967H15.7162C16.3359 14.5271 16.3037 15.4577 15.6703 15.9846L15.6713 15.9855L13.6107 17.7062L13.6098 17.7072C13.2665 17.9922 12.7037 18.2763 12.1283 18.007C11.5516 17.737 11.4105 17.1211 11.4105 16.6701V13.9914L9.09706 16.1125C8.79176 16.3924 8.31742 16.3719 8.03749 16.0666C7.75772 15.7613 7.77814 15.2869 8.08339 15.007L11.3568 12.0051L8.08339 9.00311C7.77813 8.72321 7.75768 8.24884 8.03749 7.94354C8.31742 7.63823 8.79176 7.6177 9.09706 7.89764L11.4105 10.0178V7.34002C11.4105 6.89715 11.5441 6.27723 12.1185 6.00213ZM12.9105 16.3361L14.5697 14.9494L12.9105 13.4279V16.3361ZM12.9105 10.5812L14.5697 9.05975L12.9105 7.67303V10.5812Z" fill="#1C252E"/>
<path d="M21.25 12C21.25 6.89137 17.1086 2.75 12 2.75C6.89137 2.75 2.75 6.89137 2.75 12C2.75 17.1086 6.89137 21.25 12 21.25C17.1086 21.25 21.25 17.1086 21.25 12ZM22.75 12C22.75 17.9371 17.9371 22.75 12 22.75C6.06294 22.75 1.25 17.9371 1.25 12C1.25 6.06294 6.06294 1.25 12 1.25C17.9371 1.25 22.75 6.06294 22.75 12Z" fill="#1C252E"/>
</svg>
