<svg width="24" height="24" viewBox="0 0 24 24" fill="none" xmlns="http://www.w3.org/2000/svg">
<path d="M20.2002 6.73999C20.2002 5.0492 19.9707 4.29372 19.5781 3.90112C19.1854 3.50878 18.4303 3.28005 16.7402 3.28003H6.20996C4.51918 3.28003 3.76369 3.50852 3.37109 3.90112C2.97849 4.29372 2.75 5.0492 2.75 6.73999V12.74C2.75 14.4307 2.97852 15.1862 3.37109 15.5789C3.76369 15.9715 4.51918 16.1999 6.20996 16.2H10C10.4142 16.2 10.75 16.5358 10.75 16.95C10.75 17.3642 10.4142 17.7 10 17.7H6.20996C4.53079 17.6999 3.18044 17.5093 2.31055 16.6394C1.44068 15.7695 1.25 14.4192 1.25 12.74V6.73999C1.25 5.06082 1.44066 3.71047 2.31055 2.84058C3.18044 1.97069 4.53079 1.78003 6.20996 1.78003H16.7402C18.4191 1.78005 19.7688 1.97105 20.6387 2.84058C21.5086 3.71047 21.7002 5.06082 21.7002 6.73999C21.7002 7.15414 21.3643 7.48989 20.9502 7.48999C20.536 7.48999 20.2002 7.1542 20.2002 6.73999Z" fill="#1C252E"/>
<path d="M9.25 21.4695V16.95C9.25 16.5358 9.58579 16.2 10 16.2C10.4142 16.2 10.75 16.5358 10.75 16.95V21.4695C10.75 21.8838 10.4142 22.2195 10 22.2195C9.58579 22.2195 9.25 21.8838 9.25 21.4695Z" fill="#1C252E"/>
<path d="M10 12.2C10.4142 12.2 10.75 12.5358 10.75 12.95C10.75 13.3642 10.4142 13.7 10 13.7H2C1.58579 13.7 1.25 13.3642 1.25 12.95C1.25 12.5358 1.58579 12.2 2 12.2H10Z" fill="#1C252E"/>
<path d="M10 20.72C10.4142 20.72 10.75 21.0558 10.75 21.47C10.75 21.8842 10.4142 22.22 10 22.22H6.74023C6.32602 22.22 5.99023 21.8842 5.99023 21.47C5.99023 21.0558 6.32602 20.72 6.74023 20.72H10Z" fill="#1C252E"/>
<path d="M21.2495 12.8C21.2495 11.609 21.0835 11.1662 20.8784 10.9611C20.6733 10.7561 20.2303 10.59 19.0396 10.59H15.4897C14.2988 10.59 13.8559 10.7561 13.6509 10.9611C13.4458 11.1662 13.2798 11.609 13.2798 12.8V18.5099C13.2798 19.7008 13.4459 20.1437 13.6509 20.3488C13.8559 20.5539 14.2988 20.7199 15.4897 20.7199H19.0396C20.2304 20.7199 20.6733 20.5538 20.8784 20.3488C21.0835 20.1438 21.2495 19.701 21.2495 18.5099V12.8ZM22.7495 18.5099C22.7495 19.6889 22.6214 20.7269 21.939 21.4094C21.2565 22.0918 20.2185 22.2199 19.0396 22.2199H15.4897C14.3108 22.2199 13.2728 22.0918 12.5903 21.4094C11.9079 20.7269 11.7798 19.6889 11.7798 18.5099V12.8C11.7798 11.621 11.9079 10.583 12.5903 9.90057C13.2728 9.21812 14.3108 9.09003 15.4897 9.09003H19.0396C20.2185 9.09003 21.2565 9.21824 21.939 9.90057C22.6214 10.583 22.7495 11.621 22.7495 12.8V18.5099Z" fill="#1C252E"/>
<path d="M17.2534 17.25C17.8057 17.25 18.2534 17.6977 18.2534 18.25C18.2534 18.8023 17.8057 19.25 17.2534 19.25H17.2446C16.6923 19.25 16.2446 18.8023 16.2446 18.25C16.2446 17.6977 16.6923 17.25 17.2446 17.25H17.2534Z" fill="#1C252E"/>
</svg>
