<svg width="24" height="24" viewBox="0 0 24 24" fill="none" xmlns="http://www.w3.org/2000/svg">
<path d="M18.75 9.5C18.75 5.78421 15.7158 2.75 12 2.75C8.28421 2.75 5.25 5.78421 5.25 9.5V14.5C5.25 18.2158 8.28421 21.25 12 21.25C15.7158 21.25 18.75 18.2158 18.75 14.5V9.5ZM20.25 14.5C20.25 19.0442 16.5442 22.75 12 22.75C7.45579 22.75 3.75 19.0442 3.75 14.5V9.5C3.75 4.95579 7.45579 1.25 12 1.25C16.5442 1.25 20.25 4.95579 20.25 9.5V14.5Z" fill="#1C252E"/>
<path d="M12.75 7.5C12.75 7.08746 12.409 6.75 12 6.75C11.5842 6.75 11.25 7.08421 11.25 7.5V9.5C11.25 9.91579 11.5842 10.25 12 10.25C12.409 10.25 12.75 9.91254 12.75 9.5V7.5ZM14.25 9.5C14.25 10.7475 13.231 11.75 12 11.75C10.7558 11.75 9.75 10.7442 9.75 9.5V7.5C9.75 6.25579 10.7558 5.25 12 5.25C13.231 5.25 14.25 6.25254 14.25 7.5V9.5Z" fill="#1C252E"/>
<path d="M11.25 6V2C11.25 1.58579 11.5858 1.25 12 1.25C12.4142 1.25 12.75 1.58579 12.75 2V6C12.75 6.41421 12.4142 6.75 12 6.75C11.5858 6.75 11.25 6.41421 11.25 6Z" fill="#1C252E"/>
</svg>
