<svg width="24" height="24" viewBox="0 0 24 24" fill="none" xmlns="http://www.w3.org/2000/svg">
<path d="M17 21.25C17.4142 21.25 17.75 21.5858 17.75 22C17.75 22.4142 17.4142 22.75 17 22.75H7C6.58579 22.75 6.25 22.4142 6.25 22C6.25 21.5858 6.58579 21.25 7 21.25H17Z" fill="#1C252E"/>
<path d="M7.2041 7.30005C7.75619 7.30027 8.2041 7.7479 8.2041 8.30005C8.2041 8.85219 7.75619 9.29982 7.2041 9.30005H7.19434C6.64222 9.29985 6.19434 8.85221 6.19434 8.30005C6.19434 7.74789 6.64222 7.30025 7.19434 7.30005H7.2041Z" fill="#1C252E"/>
<path d="M10.5039 7.30005C11.056 7.30027 11.5039 7.7479 11.5039 8.30005C11.5039 8.85219 11.056 9.29982 10.5039 9.30005H10.4941C9.94202 9.29985 9.49414 8.85221 9.49414 8.30005C9.49414 7.74789 9.94202 7.30025 10.4941 7.30005H10.5039Z" fill="#1C252E"/>
<path d="M21.25 7.25977C21.25 5.48754 21.0537 4.47576 20.6533 3.86914C20.297 3.32927 19.6832 2.97896 18.3965 2.83496C18.3911 2.83435 18.3853 2.83374 18.3799 2.83301C17.9099 2.76976 17.3694 2.75001 16.7305 2.75H7.25977C6.62083 2.75001 6.08035 2.76975 5.61035 2.83301C5.60486 2.83375 5.59925 2.83434 5.59375 2.83496C4.30728 2.97893 3.69424 3.32946 3.33789 3.86914C2.93754 4.47576 2.74025 5.48753 2.74023 7.25977V13.5801C2.74024 15.3524 2.93753 16.3641 3.33789 16.9707C3.64966 17.4429 4.15764 17.7706 5.1416 17.9414L5.59375 18.0049L5.61035 18.0068C6.08036 18.0701 6.62081 18.0898 7.25977 18.0898H16.7305C17.3791 18.0898 17.9097 18.0701 18.3799 18.0068L18.3965 18.0049C19.6833 17.8609 20.297 17.5106 20.6533 16.9707C21.0536 16.364 21.25 15.3523 21.25 13.5801V7.25977ZM22.75 13.5801C22.75 15.3676 22.5723 16.7861 21.9053 17.7969C21.1966 18.8707 20.0548 19.3248 18.5791 19.4922L18.5801 19.4932C18.5772 19.4936 18.5742 19.4928 18.5713 19.4932C18.5687 19.4935 18.5661 19.4948 18.5635 19.4951L18.5625 19.4941C17.9979 19.5689 17.3945 19.5898 16.7305 19.5898H7.25977C6.60547 19.5898 5.99196 19.569 5.42676 19.4941V19.4951C5.42347 19.4947 5.42028 19.4935 5.41699 19.4932C5.41476 19.4929 5.41239 19.4935 5.41016 19.4932V19.4922C3.93515 19.3247 2.79444 18.8703 2.08594 17.7969C1.41882 16.786 1.24024 15.3677 1.24023 13.5801V7.25977C1.24025 5.47226 1.41884 4.05376 2.08594 3.04297C2.79445 1.96966 3.9352 1.51518 5.41016 1.34766C5.41239 1.34736 5.41475 1.34698 5.41699 1.34668C5.42028 1.34631 5.42347 1.34509 5.42676 1.34473V1.3457C5.99195 1.27082 6.60548 1.25001 7.25977 1.25H16.7305C17.3844 1.25 17.9976 1.27094 18.5625 1.3457L18.5635 1.34473C18.5664 1.34505 18.5694 1.34635 18.5723 1.34668C18.5748 1.34702 18.5775 1.34634 18.5801 1.34668L18.5791 1.34766C20.0548 1.51509 21.1966 1.96915 21.9053 3.04297C22.5724 4.05376 22.75 5.47228 22.75 7.25977V13.5801Z" fill="#1C252E"/>
<path d="M17.2598 7.57007C17.674 7.57007 18.0098 7.90585 18.0098 8.32007C18.0098 8.73428 17.674 9.07007 17.2598 9.07007H13.5801C13.1659 9.07007 12.8301 8.73428 12.8301 8.32007C12.8301 7.90585 13.1659 7.57007 13.5801 7.57007H17.2598Z" fill="#1C252E"/>
<path d="M17.2705 13.3599C17.6846 13.36 18.0205 13.6957 18.0205 14.1099C18.0205 14.524 17.6846 14.8597 17.2705 14.8599H6.74023C6.32602 14.8599 5.99023 14.5241 5.99023 14.1099C5.99023 13.6956 6.32602 13.3599 6.74023 13.3599H17.2705Z" fill="#1C252E"/>
</svg>
