<svg width="24" height="24" viewBox="0 0 24 24" fill="none" xmlns="http://www.w3.org/2000/svg">
<path d="M19.25 7C19.25 4.99464 18.9812 4.04177 18.4697 3.53027C17.9582 3.01878 17.0054 2.75 15 2.75H9C6.99464 2.75 6.04177 3.01878 5.53027 3.53027C5.01878 4.04177 4.75 4.99464 4.75 7V17C4.75 19.0054 5.01878 19.9582 5.53027 20.4697C6.04177 20.9812 6.99464 21.25 9 21.25H15C17.0054 21.25 17.9582 20.9812 18.4697 20.4697C18.9812 19.9582 19.25 19.0054 19.25 17V7ZM20.75 17C20.75 18.9946 20.5188 20.5418 19.5303 21.5303C18.5418 22.5188 16.9946 22.75 15 22.75H9C7.00536 22.75 5.45823 22.5188 4.46973 21.5303C3.48122 20.5418 3.25 18.9946 3.25 17V7C3.25 5.00536 3.48122 3.45823 4.46973 2.46973C5.45823 1.48122 7.00536 1.25 9 1.25H15C16.9946 1.25 18.5418 1.48122 19.5303 2.46973C20.5188 3.45823 20.75 5.00536 20.75 7V17Z" fill="#1C252E"/>
<path d="M14 4.75C14.4142 4.75 14.75 5.08579 14.75 5.5C14.75 5.91421 14.4142 6.25 14 6.25H10C9.58579 6.25 9.25 5.91421 9.25 5.5C9.25 5.08579 9.58579 4.75 10 4.75H14Z" fill="#1C252E"/>
<path d="M12.7998 17.5498C12.7997 17.1081 12.4418 16.75 12 16.75C11.5583 16.7501 11.2003 17.1081 11.2002 17.5498C11.2002 17.9916 11.5583 18.3495 12 18.3496C12.4418 18.3496 12.7998 17.9916 12.7998 17.5498ZM14.2998 17.5498C14.2998 18.8201 13.2703 19.8496 12 19.8496C10.7298 19.8495 9.7002 18.82 9.7002 17.5498C9.7003 16.2797 10.7299 15.2501 12 15.25C13.2702 15.25 14.2997 16.2796 14.2998 17.5498Z" fill="#1C252E"/>
</svg>
