<svg width="24" height="24" viewBox="0 0 24 24" fill="none" xmlns="http://www.w3.org/2000/svg">
<path d="M17.3296 11.6604C17.3296 11.4838 17.1869 11.3403 17.0103 11.3401C16.8335 11.3401 16.6899 11.4837 16.6899 11.6604C16.6901 11.837 16.8336 11.9797 17.0103 11.9797C17.1867 11.9796 17.3294 11.8369 17.3296 11.6604ZM18.8296 11.6604C18.8294 12.6653 18.0152 13.4796 17.0103 13.4797C16.0052 13.4797 15.1901 12.6654 15.1899 11.6604C15.1899 10.6552 16.0052 9.84009 17.0103 9.84009C18.0152 9.84025 18.8296 10.6553 18.8296 11.6604Z" fill="#1C252E"/>
<path d="M11.2695 10.5898C11.2696 9.47918 11.4446 8.49973 12.1123 7.83203C12.78 7.16442 13.7595 6.99023 14.8701 6.99023H19.1504C19.1838 6.99024 19.217 6.9908 19.25 6.99121V6C19.25 4.39464 19.0314 3.69157 18.6699 3.33008C18.3084 2.96858 17.6054 2.75 16 2.75H6C4.39464 2.75 3.69157 2.96858 3.33008 3.33008C2.96858 3.69157 2.75 4.39464 2.75 6V11.7002C2.75002 13.3054 2.9686 14.0086 3.33008 14.3701C3.6916 14.7316 4.39478 14.9502 6 14.9502H11.2695V10.5898ZM20.75 7.79004C20.75 8.00432 20.6582 8.20828 20.498 8.35059C20.3376 8.49292 20.1231 8.55973 19.9102 8.53418C19.6884 8.50759 19.4286 8.49025 19.1504 8.49023H14.8701C13.8411 8.49023 13.3952 8.67036 13.1729 8.89258C12.9506 9.11485 12.7696 9.56072 12.7695 10.5898V15.7002C12.7694 16.1143 12.4337 16.4502 12.0195 16.4502H6C4.40542 16.4502 3.10804 16.2691 2.26953 15.4307C1.43106 14.5922 1.25001 13.2948 1.25 11.7002V6C1.25 4.40536 1.43103 3.10804 2.26953 2.26953C3.10804 1.43103 4.40536 1.25 6 1.25H16C17.5946 1.25 18.892 1.43103 19.7305 2.26953C20.569 3.10804 20.75 4.40536 20.75 6V7.79004Z" fill="#1C252E"/>
<path d="M8.25 19.9998V15.7C8.25 15.2857 8.58579 14.95 9 14.95C9.41421 14.95 9.75 15.2857 9.75 15.7V19.9998C9.75 20.414 9.41421 20.7498 9 20.7498C8.58579 20.7498 8.25 20.414 8.25 19.9998Z" fill="#1C252E"/>
<path d="M12 11.15C12.4142 11.15 12.75 11.4858 12.75 11.9C12.75 12.3142 12.4142 12.65 12 12.65H2C1.58579 12.65 1.25 12.3142 1.25 11.9C1.25 11.4858 1.58579 11.15 2 11.15H12Z" fill="#1C252E"/>
<path d="M12 19.25C12.4142 19.25 12.75 19.5858 12.75 20C12.75 20.4142 12.4142 20.75 12 20.75H5.9502C5.53598 20.75 5.2002 20.4142 5.2002 20C5.2002 19.5858 5.53598 19.25 5.9502 19.25H12Z" fill="#1C252E"/>
<path d="M17.3296 11.6604C17.3296 11.4838 17.1869 11.3403 17.0103 11.3401C16.8335 11.3401 16.6899 11.4837 16.6899 11.6604C16.6901 11.837 16.8336 11.9797 17.0103 11.9797C17.1867 11.9796 17.3294 11.8369 17.3296 11.6604ZM18.8296 11.6604C18.8294 12.6653 18.0152 13.4796 17.0103 13.4797C16.0052 13.4797 15.1901 12.6654 15.1899 11.6604C15.1899 10.6552 16.0052 9.84009 17.0103 9.84009C18.0152 9.84025 18.8296 10.6553 18.8296 11.6604Z" fill="#1C252E"/>
<path d="M21.2505 10.5896C21.2504 9.71586 21.1195 9.25892 20.9419 9.00659C20.7937 8.79601 20.5306 8.61546 19.9106 8.53491L19.5513 8.50269C19.4238 8.49486 19.2891 8.48999 19.1499 8.48999H14.8696C13.8407 8.49004 13.3956 8.67106 13.1733 8.89331C12.9511 9.11557 12.7701 9.56065 12.77 10.5896V19.1501C12.77 20.1791 12.9502 20.6251 13.1724 20.8474C13.3946 21.0697 13.8406 21.2497 14.8696 21.2498H19.1499C20.179 21.2498 20.6248 21.0696 20.8472 20.8474C21.0694 20.6252 21.2505 20.1793 21.2505 19.1501V10.5896ZM18.3999 17.0105C18.3999 16.6032 18.2157 16.2231 17.9146 15.9539C17.6753 15.7488 17.3599 15.6199 17.0103 15.6199C16.6211 15.6199 16.2683 15.7825 16.0142 16.0437L15.9116 16.1609C15.73 16.3946 15.6196 16.6942 15.6196 17.0105C15.6199 17.7761 16.2446 18.4001 17.0103 18.4001C17.7758 18.4 18.3996 17.776 18.3999 17.0105ZM17.3296 11.6599C17.3296 11.4843 17.186 11.3397 17.0103 11.3396C16.8344 11.3396 16.69 11.4842 16.6899 11.6599C16.6899 11.8357 16.8345 11.9802 17.0103 11.9802C17.1859 11.9801 17.3296 11.8357 17.3296 11.6599ZM19.8999 17.0105C19.8996 18.6044 18.6042 19.9 17.0103 19.9001C15.4162 19.9001 14.1199 18.6045 14.1196 17.0105C14.1196 16.3471 14.35 15.7262 14.728 15.24L14.729 15.239C15.2521 14.5683 16.075 14.1199 17.0103 14.1199C17.6473 14.1199 18.2338 14.3272 18.7056 14.6687L18.9009 14.823L18.9087 14.8298C19.5054 15.3605 19.8999 16.1395 19.8999 17.0105ZM18.8296 11.6599C18.8296 12.664 18.0144 13.4801 17.0103 13.4802C16.006 13.4802 15.1899 12.6641 15.1899 11.6599C15.19 10.6557 16.0061 9.8396 17.0103 9.8396C18.0143 9.83972 18.8296 10.6558 18.8296 11.6599ZM22.7505 19.1501C22.7505 20.2608 22.5754 21.2403 21.9077 21.908C21.24 22.5756 20.2606 22.7498 19.1499 22.7498H14.8696C13.7591 22.7497 12.7795 22.5756 12.1118 21.908C11.4442 21.2403 11.27 20.2608 11.27 19.1501V10.5896C11.2701 9.47903 11.4442 8.49943 12.1118 7.83179C12.7795 7.16414 13.7591 6.99003 14.8696 6.98999H19.1499C19.4913 6.98999 19.8113 7.01229 20.0894 7.04565H20.0952C20.9509 7.1555 21.6872 7.45956 22.1685 8.14331C22.6207 8.78586 22.7505 9.63383 22.7505 10.5896V19.1501Z" fill="#1C252E"/>
<path d="M18.4004 17.0096C18.4003 16.6012 18.2148 16.2203 17.9121 15.951V15.9501C17.6732 15.7466 17.3579 15.62 17.0098 15.62C16.5657 15.6201 16.1679 15.8305 15.9111 16.1591L15.9121 16.16C15.7304 16.3937 15.6202 16.6933 15.6201 17.0096C15.6201 17.7753 16.2441 18.4001 17.0098 18.4003C17.7755 18.4003 18.4004 17.7754 18.4004 17.0096ZM19.9004 17.0096C19.9004 18.6038 18.604 19.9003 17.0098 19.9003C15.4157 19.9001 14.1201 18.6037 14.1201 17.0096C14.1202 16.3463 14.3504 15.7253 14.7285 15.2391L14.8301 15.1161C15.3549 14.5141 16.1329 14.1201 17.0098 14.12C17.7378 14.12 18.4002 14.3905 18.9004 14.8231L18.9082 14.829C19.5051 15.3595 19.9003 16.1386 19.9004 17.0096Z" fill="#1C252E"/>
<path d="M17.3296 11.6604C17.3296 11.4838 17.1869 11.3403 17.0103 11.3401C16.8335 11.3401 16.6899 11.4837 16.6899 11.6604C16.6901 11.837 16.8336 11.9797 17.0103 11.9797C17.1867 11.9796 17.3294 11.8369 17.3296 11.6604ZM18.8296 11.6604C18.8294 12.6653 18.0152 13.4796 17.0103 13.4797C16.0052 13.4797 15.1901 12.6654 15.1899 11.6604C15.1899 10.6552 16.0052 9.84009 17.0103 9.84009C18.0152 9.84025 18.8296 10.6553 18.8296 11.6604Z" fill="#1C252E"/>
</svg>
