<svg width="24" height="24" viewBox="0 0 24 24" fill="none" xmlns="http://www.w3.org/2000/svg">
<path d="M12.1185 6.00213C12.6992 5.72424 13.2674 6.01781 13.6107 6.30389V6.30486L15.6713 8.02459H15.6703C16.304 8.55117 16.3355 9.4818 15.7162 10.0422L13.5765 12.0051L15.7172 13.967H15.7162C16.3359 14.5271 16.3037 15.4577 15.6703 15.9846L15.6713 15.9855L13.6107 17.7062L13.6098 17.7072C13.2665 17.9922 12.7037 18.2763 12.1283 18.007C11.5516 17.737 11.4105 17.1211 11.4105 16.6701V13.9914L9.09706 16.1125C8.79176 16.3924 8.31742 16.3719 8.03749 16.0666C7.75772 15.7613 7.77814 15.2869 8.08339 15.007L11.3568 12.0051L8.08339 9.00311C7.77813 8.72321 7.75768 8.24884 8.03749 7.94354C8.31742 7.63823 8.79176 7.6177 9.09706 7.89764L11.4105 10.0178V7.34002C11.4105 6.89715 11.5441 6.27723 12.1185 6.00213ZM12.9105 16.3361L14.5697 14.9494L12.9105 13.4279V16.3361ZM12.9105 10.5812L14.5697 9.05975L12.9105 7.67303V10.5812Z" fill="#1C252E"/>
<path d="M19.25 7C19.25 5.67044 18.8101 4.62069 18.0947 3.90527C17.3793 3.18986 16.3296 2.75 15 2.75H9C7.67044 2.75 6.62069 3.18986 5.90527 3.90527C5.18986 4.62069 4.75 5.67044 4.75 7V17C4.75 18.3296 5.18986 19.3793 5.90527 20.0947C6.62069 20.8101 7.67044 21.25 9 21.25H15C16.3296 21.25 17.3793 20.8101 18.0947 20.0947C18.8101 19.3793 19.25 18.3296 19.25 17V7ZM20.75 17C20.75 18.6704 20.1899 20.1207 19.1553 21.1553C18.1207 22.1899 16.6704 22.75 15 22.75H9C7.32956 22.75 5.87931 22.1899 4.84473 21.1553C3.81014 20.1207 3.25 18.6704 3.25 17V7C3.25 5.32956 3.81014 3.87931 4.84473 2.84473C5.87931 1.81014 7.32956 1.25 9 1.25H15C16.6704 1.25 18.1207 1.81014 19.1553 2.84473C20.1899 3.87931 20.75 5.32956 20.75 7V17Z" fill="#1C252E"/>
</svg>
