<svg width="24" height="24" viewBox="0 0 24 24" fill="none" xmlns="http://www.w3.org/2000/svg">
<path d="M19.25 9.59961C19.2499 7.67382 18.8604 6.52056 18.1699 5.83008C17.4794 5.13959 16.3262 4.75005 14.4004 4.75H9.59961C7.67382 4.75005 6.52056 5.13959 5.83008 5.83008C5.13959 6.52056 4.75005 7.67382 4.75 9.59961V14.4004C4.75005 16.3262 5.13959 17.4794 5.83008 18.1699C6.52056 18.8604 7.67382 19.2499 9.59961 19.25C10.0138 19.25 10.3496 19.5858 10.3496 20C10.3496 20.4142 10.0138 20.75 9.59961 20.75C7.52582 20.7499 5.87893 20.3399 4.76953 19.2305C3.66013 18.1211 3.25005 16.4742 3.25 14.4004V9.59961C3.25005 7.52582 3.66013 5.87893 4.76953 4.76953C5.87893 3.66013 7.52582 3.25005 9.59961 3.25H14.4004C16.4742 3.25005 18.1211 3.66013 19.2305 4.76953C20.3399 5.87893 20.7499 7.52582 20.75 9.59961C20.75 10.0138 20.4142 10.3496 20 10.3496C19.5858 10.3496 19.25 10.0138 19.25 9.59961Z" fill="#1C252E"/>
<path d="M6.25 13.5V10.5C6.25 9.17603 6.51026 8.0542 7.28223 7.28223C8.0542 6.51026 9.17603 6.25 10.5 6.25H13.5C14.9601 6.25 16.175 6.56418 16.9395 7.53711C17.1952 7.8628 17.1391 8.33397 16.8135 8.58984C16.5081 8.82975 16.0744 8.7951 15.8105 8.52148L15.6943 8.38477C15.3445 8.00134 14.7188 7.75 13.5 7.75H10.5C9.32397 7.75 8.6958 7.98974 8.34277 8.34277C7.98974 8.6958 7.75 9.32397 7.75 10.5V13.5C7.75 14.7999 8.03612 15.428 8.45703 15.7637C8.78094 16.0219 8.83436 16.4935 8.57617 16.8174C8.31797 17.1412 7.84634 17.1947 7.52246 16.9365C6.5635 16.1721 6.25 14.9599 6.25 13.5Z" fill="#1C252E"/>
<path d="M7.25977 4V2C7.25977 1.58579 7.59555 1.25 8.00977 1.25C8.42398 1.25 8.75977 1.58579 8.75977 2V4C8.75977 4.41421 8.42398 4.75 8.00977 4.75C7.59555 4.75 7.25977 4.41421 7.25977 4Z" fill="#1C252E"/>
<path d="M11.25 4V2C11.25 1.58579 11.5858 1.25 12 1.25C12.4142 1.25 12.75 1.58579 12.75 2V4C12.75 4.41421 12.4142 4.75 12 4.75C11.5858 4.75 11.25 4.41421 11.25 4Z" fill="#1C252E"/>
<path d="M15.25 4V2C15.25 1.58579 15.5858 1.25 16 1.25C16.4142 1.25 16.75 1.58579 16.75 2V4C16.75 4.41421 16.4142 4.75 16 4.75C15.5858 4.75 15.25 4.41421 15.25 4Z" fill="#1C252E"/>
<path d="M22 7.25C22.4142 7.25 22.75 7.58579 22.75 8C22.75 8.41421 22.4142 8.75 22 8.75H20C19.5858 8.75 19.25 8.41421 19.25 8C19.25 7.58579 19.5858 7.25 20 7.25H22Z" fill="#1C252E"/>
<path d="M7.25977 22V20C7.25977 19.5858 7.59555 19.25 8.00977 19.25C8.42398 19.25 8.75977 19.5858 8.75977 20V22C8.75977 22.4142 8.42398 22.75 8.00977 22.75C7.59555 22.75 7.25977 22.4142 7.25977 22Z" fill="#1C252E"/>
<path d="M4 7.25C4.41421 7.25 4.75 7.58579 4.75 8C4.75 8.41421 4.41421 8.75 4 8.75H2C1.58579 8.75 1.25 8.41421 1.25 8C1.25 7.58579 1.58579 7.25 2 7.25H4Z" fill="#1C252E"/>
<path d="M4 11.25C4.41421 11.25 4.75 11.5858 4.75 12C4.75 12.4142 4.41421 12.75 4 12.75H2C1.58579 12.75 1.25 12.4142 1.25 12C1.25 11.5858 1.58579 11.25 2 11.25H4Z" fill="#1C252E"/>
<path d="M4 15.25C4.41421 15.25 4.75 15.5858 4.75 16C4.75 16.4142 4.41421 16.75 4 16.75H2C1.58579 16.75 1.25 16.4142 1.25 16C1.25 15.5858 1.58579 15.25 2 15.25H4Z" fill="#1C252E"/>
<path d="M17.5498 16.9998C17.5497 16.536 17.1738 16.16 16.71 16.16C16.2462 16.1601 15.8702 16.5361 15.8701 16.9998C15.8701 17.4637 16.2461 17.8396 16.71 17.8397C17.1739 17.8397 17.5498 17.4638 17.5498 16.9998ZM19.0498 16.9998C19.0498 18.2922 18.0023 19.3397 16.71 19.3397C15.4177 19.3396 14.3701 18.2921 14.3701 16.9998C14.3702 15.7076 15.4177 14.6601 16.71 14.66C18.0023 14.66 19.0497 15.7076 19.0498 16.9998Z" fill="#1C252E"/>
<path d="M21.2402 16.5298C21.2401 16.3941 21.1259 16.2798 20.9902 16.2798C20.3498 16.2798 19.7029 16.0471 19.3652 15.4604C19.0281 14.8744 19.1508 14.1983 19.4707 13.645L19.4727 13.6421C19.5375 13.5308 19.5051 13.376 19.3721 13.2983L18.4678 12.771C18.4025 12.7339 18.3149 12.7557 18.2744 12.8237L18.2734 12.8257L18.2188 12.9145C17.8992 13.467 17.3764 13.9126 16.7002 13.9126C16.0239 13.9126 15.5002 13.468 15.1807 12.9155V12.9145L15.127 12.8257L15.126 12.8237C15.0777 12.7426 14.9907 12.736 14.9434 12.7641L14.9375 12.7681L14.0273 13.2983L14.0176 13.3042L14.0166 13.3032C13.9025 13.368 13.8589 13.5239 13.9277 13.6421L13.9297 13.645C14.2495 14.1983 14.3723 14.8744 14.0352 15.4604C13.6975 16.0471 13.0506 16.2798 12.4102 16.2798C12.2745 16.2798 12.1603 16.3941 12.1602 16.5298V17.4604C12.1604 17.6137 12.279 17.7125 12.3965 17.7104L12.4102 17.7095V17.7104C13.0506 17.7104 13.6976 17.943 14.0352 18.5298C14.3723 19.1158 14.2496 19.7918 13.9297 20.3452L13.9277 20.3481C13.863 20.4595 13.8953 20.6143 14.0283 20.6919L14.9326 21.2192L14.9844 21.2358C15.0384 21.2423 15.0956 21.2176 15.126 21.1665L15.127 21.1645L15.1875 21.0639C15.5076 20.5164 16.0283 20.0776 16.7002 20.0776C17.372 20.0776 17.8928 20.5164 18.2129 21.0639L18.2734 21.1645L18.2744 21.1665C18.3227 21.2476 18.4097 21.2532 18.457 21.2251L18.4629 21.2222L19.373 20.6919L19.3828 20.686C19.4972 20.6214 19.5414 20.4664 19.4727 20.3481L19.4707 20.3452C19.1508 19.7918 19.028 19.1158 19.3652 18.5298C19.7028 17.943 20.3498 17.7104 20.9902 17.7104C21.1258 17.7104 21.24 17.596 21.2402 17.4604V16.5298ZM22.7402 17.4604C22.74 18.4244 21.9543 19.2104 20.9902 19.2104C20.773 19.2104 20.6904 19.2595 20.667 19.2788C20.662 19.3085 20.6602 19.405 20.7695 19.5942H20.7686C21.256 20.4322 20.9641 21.5088 20.127 21.9868L20.1279 21.9878L19.2178 22.5181L19.2168 22.5171C18.4252 22.9836 17.4359 22.6909 16.9854 21.9341V21.9331L16.9209 21.8257C16.8131 21.6392 16.7293 21.5919 16.7002 21.5806C16.6711 21.5918 16.5874 21.639 16.4795 21.8257L16.4736 21.8364L16.4727 21.8354L16.4141 21.9331C15.9547 22.7049 14.9632 22.9635 14.1885 22.521L14.1826 22.5181L13.2725 21.9878C12.4457 21.5055 12.1371 20.4409 12.6318 19.5923C12.7405 19.4037 12.7365 19.3081 12.7314 19.2788C12.7065 19.2588 12.624 19.2104 12.4102 19.2104V19.2085C11.4343 19.2187 10.6604 18.4223 10.6602 17.4604V16.5298C10.6603 15.5657 11.446 14.7798 12.4102 14.7798C12.6251 14.7798 12.707 14.7302 12.7314 14.7104C12.7364 14.6802 12.7399 14.5843 12.6318 14.397C12.1436 13.5588 12.435 12.4796 13.2725 12.0014L14.1768 11.4761V11.4751C14.9694 11.0035 15.9634 11.2973 16.415 12.0561H16.4141L16.4736 12.1538L16.4795 12.1645L16.5371 12.2544C16.6165 12.3669 16.6763 12.3993 16.7002 12.4087C16.7296 12.3972 16.8134 12.3504 16.9209 12.1645L16.9268 12.1538L16.9854 12.0561C17.4448 11.2843 18.4372 11.0266 19.2119 11.4692L19.2178 11.4722L20.1279 12.0014V12.0024C20.9537 12.4842 21.261 13.5459 20.7686 14.394L20.7695 14.395C20.661 14.5827 20.6621 14.6798 20.667 14.7104C20.6899 14.7295 20.7718 14.7798 20.9902 14.7798C21.9543 14.7798 22.7401 15.5657 22.7402 16.5298V17.4604Z" fill="#1C252E"/>
</svg>
