<svg width="24" height="24" viewBox="0 0 24 24" fill="none" xmlns="http://www.w3.org/2000/svg">
<path d="M11.25 19V16C11.25 15.5858 11.5858 15.25 12 15.25C12.4142 15.25 12.75 15.5858 12.75 16V19C12.75 19.4142 12.4142 19.75 12 19.75C11.5858 19.75 11.25 19.4142 11.25 19Z" fill="#1C252E"/>
<path d="M13.25 21C13.25 20.3096 12.6904 19.75 12 19.75C11.3096 19.75 10.75 20.3096 10.75 21C10.75 21.6904 11.3096 22.25 12 22.25C12.6904 22.25 13.25 21.6904 13.25 21ZM14.75 21C14.75 22.5188 13.5188 23.75 12 23.75C10.4812 23.75 9.25 22.5188 9.25 21C9.25 19.4812 10.4812 18.25 12 18.25C13.5188 18.25 14.75 19.4812 14.75 21Z" fill="#1C252E"/>
<path d="M18 20.25C18.4142 20.25 18.75 20.5858 18.75 21C18.75 21.4142 18.4142 21.75 18 21.75H14C13.5858 21.75 13.25 21.4142 13.25 21C13.25 20.5858 13.5858 20.25 14 20.25H18Z" fill="#1C252E"/>
<path d="M10 20.25C10.4142 20.25 10.75 20.5858 10.75 21C10.75 21.4142 10.4142 21.75 10 21.75H6C5.58579 21.75 5.25 21.4142 5.25 21C5.25 20.5858 5.58579 20.25 6 20.25H10Z" fill="#1C252E"/>
<path d="M4.25 12.5V5.5C4.25 4.10536 4.40642 2.93343 5.16992 2.16992C5.93343 1.40642 7.10536 1.25 8.5 1.25H9.5498C10.1405 1.25 10.6165 1.33588 11.0205 1.5791C11.3096 1.75319 11.5182 1.98628 11.6807 2.19336L11.8291 2.3877L11.8301 2.38965L12.874 3.78223L13.0244 3.96973C13.0529 4.0008 13.0651 4.00836 13.0674 4.00977C13.0674 4.00978 13.081 4.01863 13.126 4.02832C13.1757 4.03902 13.2606 4.0498 13.4004 4.0498H15.5C16.8946 4.0498 18.0666 4.20633 18.8301 4.96973C19.5935 5.73319 19.75 6.90527 19.75 8.2998V12.5C19.75 13.8946 19.5936 15.0666 18.8301 15.8301C18.0666 16.5936 16.8946 16.75 15.5 16.75H8.5C7.10536 16.75 5.93343 16.5936 5.16992 15.8301C4.40642 15.0666 4.25 13.8946 4.25 12.5ZM5.75 12.5C5.75 13.9054 5.94397 14.483 6.23047 14.7695C6.51696 15.056 7.09464 15.25 8.5 15.25H15.5C16.9054 15.25 17.483 15.056 17.7695 14.7695C18.056 14.483 18.25 13.9054 18.25 12.5V8.2998C18.25 6.89462 18.056 6.31675 17.7695 6.03027C17.483 5.74385 16.9052 5.5498 15.5 5.5498H13.4004C12.9826 5.5498 12.6137 5.48911 12.29 5.29297C11.9885 5.11013 11.7983 4.84322 11.6865 4.69824L11.6797 4.69043L10.6309 3.29199L10.3916 2.99023C10.3343 2.92626 10.2932 2.89107 10.2471 2.86328C10.1735 2.81902 10.0089 2.75 9.5498 2.75H8.5C7.09464 2.75 6.51696 2.94397 6.23047 3.23047C5.94397 3.51696 5.75 4.09464 5.75 5.5V12.5Z" fill="#1C252E"/>
</svg>
