<svg width="24" height="24" viewBox="0 0 24 24" fill="none" xmlns="http://www.w3.org/2000/svg">
<path d="M16 5C16 4.06637 15.8199 3.55388 15.5469 3.2627C15.2835 2.98181 14.784 2.75 13.75 2.75H10.25C9.21601 2.75 8.71646 2.98181 8.45312 3.2627C8.18014 3.55388 8 4.06637 8 5V6.25H16V5ZM17.5 7C17.5 7.41421 17.1642 7.75 16.75 7.75H7.25C6.83579 7.75 6.5 7.41421 6.5 7V5C6.5 3.93363 6.69486 2.94612 7.35938 2.2373C8.03354 1.51819 9.03399 1.25 10.25 1.25H13.75C14.966 1.25 15.9665 1.51819 16.6406 2.2373C17.3051 2.94612 17.5 3.93363 17.5 5V7Z" fill="#1C252E"/>
<path d="M15.2495 19V15.75H12.9702C12.556 15.75 12.2202 15.4142 12.2202 15C12.2202 14.5858 12.556 14.25 12.9702 14.25H15.9995C16.4137 14.25 16.7495 14.5858 16.7495 15V19C16.7495 20.1156 16.47 21.09 15.7798 21.7803C15.0895 22.4704 14.115 22.75 12.9995 22.75H10.9995C10.058 22.75 9.21647 22.5528 8.55711 22.0723C7.88286 21.5808 7.48875 20.8589 7.33152 19.9941C7.25748 19.5866 7.52851 19.1962 7.93601 19.1221C8.34335 19.0482 8.73393 19.3183 8.80808 19.7256C8.91084 20.2907 9.13676 20.6393 9.43992 20.8604C9.75791 21.0921 10.2514 21.25 10.9995 21.25H12.9995C13.8837 21.25 14.4095 21.0294 14.7192 20.7197C15.029 20.41 15.2495 19.8844 15.2495 19Z" fill="#1C252E"/>
<path d="M2.25 15V10C2.25 8.88439 2.52947 7.90999 3.21973 7.21973C3.90999 6.52947 4.88439 6.25 6 6.25H16.5898C17.0041 6.25 17.3398 6.58579 17.3398 7C17.3398 7.41421 17.0041 7.75 16.5898 7.75H6C5.11561 7.75 4.59001 7.97053 4.28027 8.28027C3.97053 8.59001 3.75 9.11561 3.75 10V15C3.75 15.8844 3.97053 16.41 4.28027 16.7197C4.59001 17.0295 5.11561 17.25 6 17.25C6.41421 17.25 6.75 17.5858 6.75 18C6.75 18.4142 6.41421 18.75 6 18.75C4.88439 18.75 3.90999 18.4705 3.21973 17.7803C2.52947 17.09 2.25 16.1156 2.25 15Z" fill="#1C252E"/>
<path d="M16 14.2505C16.4142 14.2505 16.75 14.5862 16.75 15.0005V17.2505H18C18.8844 17.2505 19.41 17.0289 19.7197 16.7192C20.0293 16.4095 20.2499 15.8843 20.25 15.0005V10.0005C20.25 8.96705 19.9551 8.4226 19.542 8.13522C19.202 7.89868 19.118 7.4313 19.3545 7.09128C19.5911 6.75155 20.0585 6.66829 20.3984 6.90475C21.3651 7.5774 21.75 8.694 21.75 10.0005V15.0005C21.7499 16.1159 21.4704 17.0906 20.7803 17.7807C20.09 18.4708 19.1155 18.7505 18 18.7505H16C15.5859 18.7505 15.2503 18.4145 15.25 18.0005V15.7505H13C12.5859 15.7505 12.2503 15.4145 12.25 15.0005C12.25 14.5862 12.5858 14.2505 13 14.2505H16Z" fill="#1C252E"/>
<path d="M17 14.25C17.4142 14.25 17.75 14.5858 17.75 15C17.75 15.4142 17.4142 15.75 17 15.75H15.79C15.3758 15.75 15.04 15.4142 15.04 15C15.04 14.5858 15.3758 14.25 15.79 14.25H17Z" fill="#1C252E"/>
<path d="M9 10.25C9.41421 10.25 9.75 10.5858 9.75 11C9.75 11.4142 9.41421 11.75 9 11.75H7C6.58579 11.75 6.25 11.4142 6.25 11C6.25 10.5858 6.58579 10.25 7 10.25H9Z" fill="#1C252E"/>
<path d="M21.4697 1.46973C21.7626 1.17684 22.2373 1.17684 22.5302 1.46973C22.8231 1.76262 22.8231 2.23738 22.5302 2.53028L2.53022 22.5303C2.23732 22.8232 1.76256 22.8232 1.46967 22.5303C1.17678 22.2374 1.17678 21.7626 1.46967 21.4697L21.4697 1.46973Z" fill="#1C252E"/>
</svg>
