<svg width="24" height="24" viewBox="0 0 24 24" fill="none" xmlns="http://www.w3.org/2000/svg">
<path d="M17.79 18.4904V15.4601C17.79 14.8234 17.2854 14.3704 16.7001 14.3703C16.0633 14.3703 15.6103 14.8748 15.6103 15.4601V18.2697C15.6103 19.8054 16.894 21.0898 18.4296 21.09C19.9654 21.09 21.2499 19.8055 21.2499 18.2697V12.1096C21.2497 7.00768 17.1494 2.80007 11.9501 2.79999C6.7523 2.79999 2.64812 7.00294 2.74991 12.2053V18.3801C2.74996 19.9072 4.03583 21.2004 5.57023 21.2004C7.10587 21.2002 8.38952 19.9157 8.38956 18.3801V15.5695C8.38932 14.933 7.88496 14.4797 7.29972 14.4797C6.66322 14.4798 6.21012 14.9844 6.20988 15.5695V18.4904C6.20964 18.9044 5.87395 19.2404 5.45988 19.2404C5.04584 19.2404 4.71011 18.9044 4.70988 18.4904V15.5695C4.71012 14.2152 5.77682 12.9798 7.29972 12.9797C8.6542 12.9797 9.88931 14.0466 9.88956 15.5695V18.3801C9.88952 20.7442 7.9343 22.7002 5.57023 22.7004C3.20468 22.7004 1.24996 20.7329 1.24991 18.3801V12.2199C1.1398 6.18903 5.91286 1.29999 11.9501 1.29999C17.9904 1.30007 22.7497 6.19192 22.7499 12.1096V18.2697C22.7499 20.6339 20.7938 22.59 18.4296 22.59C16.0655 22.5898 14.1103 20.6338 14.1103 18.2697V15.4601C14.1103 14.1055 15.1769 12.8703 16.7001 12.8703C18.0547 12.8704 19.29 13.937 19.29 15.4601V18.4904C19.2897 18.9044 18.954 19.2404 18.54 19.2404C18.1259 19.2404 17.7902 18.9044 17.79 18.4904Z" fill="#1C252E"/>
</svg>
