<svg width="24" height="24" viewBox="0 0 24 24" fill="none" xmlns="http://www.w3.org/2000/svg">
<path d="M9.75 4.83008C9.75 3.69256 8.81398 2.75 7.66992 2.75H5.78027C4.1145 2.75 2.75 4.11448 2.75 5.78027C2.75013 7.44594 4.11456 8.80957 5.78027 8.80957H6.71973C7.1338 8.80957 7.4695 9.14555 7.46973 9.55957V17.0996C7.46973 17.7254 7.98458 18.2402 8.61035 18.2402C9.23597 18.24 9.75 17.7253 9.75 17.0996V4.83008ZM11.25 17.0996C11.25 18.5537 10.0644 19.74 8.61035 19.7402C7.15612 19.7402 5.96973 18.5538 5.96973 17.0996V10.3096H5.78027C3.28615 10.3096 1.25013 8.27438 1.25 5.78027C1.25 3.28607 3.28605 1.25 5.78027 1.25H7.66992C9.64587 1.25 11.25 2.8676 11.25 4.83008V17.0996Z" fill="#1C252E"/>
<path d="M4.08984 5.78052C4.08984 4.8463 4.84606 4.09009 5.78027 4.09009C6.19429 4.09032 6.53027 4.42602 6.53027 4.84009C6.53027 5.25416 6.19429 5.58986 5.78027 5.59009C5.67449 5.59009 5.58984 5.67473 5.58984 5.78052C5.59007 5.88604 5.67457 5.96997 5.78027 5.96997C6.19427 5.9702 6.53024 6.30593 6.53027 6.71997C6.53027 7.13404 6.19429 7.46974 5.78027 7.46997C4.84627 7.46997 4.09007 6.7146 4.08984 5.78052Z" fill="#1C252E"/>
<path d="M12.75 17.0996V4.83008C12.75 2.8676 14.3541 1.25 16.3301 1.25H18.2197C20.7139 1.25 22.75 3.28607 22.75 5.78027C22.7499 8.27438 20.7139 10.3096 18.2197 10.3096H18.0303V17.0996C18.0303 18.5538 16.8439 19.7402 15.3896 19.7402C13.9356 19.74 12.75 18.5537 12.75 17.0996ZM14.25 17.0996C14.25 17.7253 14.764 18.24 15.3896 18.2402C16.0154 18.2402 16.5303 17.7254 16.5303 17.0996V9.55957C16.5305 9.14555 16.8662 8.80957 17.2803 8.80957H18.2197C19.8854 8.80957 21.2499 7.44594 21.25 5.78027C21.25 4.11448 19.8855 2.75 18.2197 2.75H16.3301C15.186 2.75 14.25 3.69256 14.25 4.83008V17.0996Z" fill="#1C252E"/>
<path d="M18.4106 5.78052C18.4106 5.67473 18.326 5.59009 18.2202 5.59009C17.806 5.59009 17.4702 5.2543 17.4702 4.84009C17.4702 4.42587 17.806 4.09009 18.2202 4.09009C19.1544 4.09009 19.9106 4.8463 19.9106 5.78052C19.9104 6.7146 19.1542 7.46997 18.2202 7.46997C17.806 7.46997 17.4702 7.13418 17.4702 6.71997C17.4702 6.30579 17.806 5.96997 18.2202 5.96997C18.3259 5.96997 18.4104 5.88604 18.4106 5.78052Z" fill="#1C252E"/>
<path d="M7.75 22V19C7.75 18.5858 8.08579 18.25 8.5 18.25C8.91421 18.25 9.25 18.5858 9.25 19V22C9.25 22.4142 8.91421 22.75 8.5 22.75C8.08579 22.75 7.75 22.4142 7.75 22Z" fill="#1C252E"/>
<path d="M14.75 22V19C14.75 18.5858 15.0858 18.25 15.5 18.25C15.9142 18.25 16.25 18.5858 16.25 19V22C16.25 22.4142 15.9142 22.75 15.5 22.75C15.0858 22.75 14.75 22.4142 14.75 22Z" fill="#1C252E"/>
</svg>
