<svg width="24" height="24" viewBox="0 0 24 24" fill="none" xmlns="http://www.w3.org/2000/svg">
<path d="M16.7501 6.91016C16.7501 6.27438 16.2257 5.75002 15.5899 5.75H8.41998C7.78419 5.75 7.25982 6.27437 7.25982 6.91016V12.0029C7.2556 12.9318 7.56915 13.7398 8.10845 14.3096C8.64209 14.8733 9.4397 15.25 10.5001 15.25H13.5001C14.5603 15.25 15.3585 14.8729 15.8936 14.3086C16.4343 13.7381 16.7501 12.9298 16.7501 12V6.91016ZM18.2501 12C18.2501 13.27 17.8155 14.4613 16.9815 15.3408C16.1417 16.2264 14.9397 16.75 13.5001 16.75H10.5001C9.06051 16.75 7.85747 16.2271 7.01861 15.3408C6.18554 14.4607 5.75415 13.268 5.75982 11.9971V6.91016C5.75982 5.44594 6.95576 4.25 8.41998 4.25H15.5899C17.0541 4.25002 18.2501 5.44596 18.2501 6.91016V12Z" fill="#1C252E"/>
<path d="M8.75 5V2C8.75 1.58579 9.08579 1.25 9.5 1.25C9.91421 1.25 10.25 1.58579 10.25 2V5C10.25 5.41421 9.91421 5.75 9.5 5.75C9.08579 5.75 8.75 5.41421 8.75 5Z" fill="#1C252E"/>
<path d="M13.75 5V2C13.75 1.58579 14.0858 1.25 14.5 1.25C14.9142 1.25 15.25 1.58579 15.25 2V5C15.25 5.41421 14.9142 5.75 14.5 5.75C14.0858 5.75 13.75 5.41421 13.75 5Z" fill="#1C252E"/>
<path d="M11.25 22V16C11.25 15.5858 11.5858 15.25 12 15.25C12.4142 15.25 12.75 15.5858 12.75 16V22C12.75 22.4142 12.4142 22.75 12 22.75C11.5858 22.75 11.25 22.4142 11.25 22Z" fill="#1C252E"/>
</svg>
