<svg width="24" height="24" viewBox="0 0 24 24" fill="none" xmlns="http://www.w3.org/2000/svg">
<path d="M21.25 12.7695V6.44043C21.25 4.6606 21.0086 3.84774 20.5801 3.41992C20.151 2.99163 19.3351 2.75 17.5498 2.75H6.44043C4.6605 2.75 3.84682 2.99107 3.41895 3.41895C2.99107 3.84682 2.75 4.6605 2.75 6.44043V12.7803C2.75002 14.5604 2.99172 15.3724 3.41895 15.7988C3.84594 16.225 4.65775 16.4649 6.4375 16.46H17.5596C19.3408 16.46 20.1535 16.2206 20.5811 15.7939C21.0082 15.3676 21.25 14.5552 21.25 12.7695ZM22.75 12.7695C22.75 14.5439 22.546 15.9518 21.6406 16.8555C20.7356 17.7587 19.3282 17.96 17.5596 17.96H6.44043V17.959C4.67126 17.9638 3.26457 17.7638 2.35938 16.8604C1.45417 15.9568 1.25002 14.5499 1.25 12.7803V6.44043C1.25 4.67036 1.45378 3.26302 2.3584 2.3584C3.26302 1.45378 4.67036 1.25 6.44043 1.25H17.5498C19.3245 1.25 20.7337 1.45419 21.6396 2.3584C22.5459 3.26312 22.75 4.67053 22.75 6.44043V12.7695Z" fill="#1C252E"/>
<path d="M11.25 22.0002V17.22C11.25 16.8058 11.5858 16.47 12 16.47C12.4142 16.47 12.75 16.8058 12.75 17.22V22.0002C12.7499 22.4143 12.4141 22.7502 12 22.7502C11.5859 22.7502 11.2501 22.4143 11.25 22.0002Z" fill="#1C252E"/>
<path d="M22 12.25C22.4142 12.25 22.75 12.5858 22.75 13C22.75 13.4142 22.4142 13.75 22 13.75H2C1.58579 13.75 1.25 13.4142 1.25 13C1.25 12.5858 1.58579 12.25 2 12.25H22Z" fill="#1C252E"/>
<path d="M16.5 21.25C16.9142 21.25 17.25 21.5858 17.25 22C17.25 22.4142 16.9142 22.75 16.5 22.75H7.5C7.08579 22.75 6.75 22.4142 6.75 22C6.75 21.5858 7.08579 21.25 7.5 21.25H16.5Z" fill="#1C252E"/>
</svg>
