<svg width="24" height="24" viewBox="0 0 24 24" fill="none" xmlns="http://www.w3.org/2000/svg">
<path d="M16.01 1.25C16.6842 1.25004 17.3327 1.51662 17.843 1.90723C18.29 2.24938 18.6739 2.71902 18.884 3.26953L18.9631 3.50977V3.5127L21.1633 11.583L21.1643 11.585C21.4318 12.5805 21.2673 13.5554 20.7043 14.291C20.1411 15.0267 19.243 15.4403 18.2101 15.4404H5.79023C4.75738 15.4404 3.85742 15.0268 3.29511 14.2881C2.73303 13.5496 2.57283 12.5715 2.84589 11.5723L5.04609 3.50293C5.22214 2.85048 5.64978 2.29421 6.15839 1.90527C6.66741 1.51614 7.31572 1.2501 7.98945 1.25H16.01ZM7.98945 2.75C7.70367 2.7501 7.36764 2.86884 7.06952 3.09668C6.77132 3.32472 6.56872 3.61805 6.49433 3.89453L6.49335 3.89746L4.29316 11.9668V11.9678C4.12631 12.5784 4.24667 13.0609 4.48945 13.3799C4.7322 13.6985 5.16336 13.9404 5.79023 13.9404H18.2101C18.8369 13.9403 19.2686 13.698 19.5129 13.3789C19.7573 13.0595 19.8775 12.579 19.715 11.9746V11.9736L17.5158 3.90723V3.90625C17.436 3.6216 17.2297 3.32569 16.9318 3.09766C16.6322 2.86833 16.2956 2.75004 16.01 2.75H7.98945Z" fill="#1C252E"/>
<path d="M11.25 22V15C11.25 14.5858 11.5858 14.25 12 14.25C12.4142 14.25 12.75 14.5858 12.75 15V22C12.75 22.4142 12.4142 22.75 12 22.75C11.5858 22.75 11.25 22.4142 11.25 22Z" fill="#1C252E"/>
<path d="M16 21.25C16.4142 21.25 16.75 21.5858 16.75 22C16.75 22.4142 16.4142 22.75 16 22.75H8C7.58579 22.75 7.25 22.4142 7.25 22C7.25 21.5858 7.58579 21.25 8 21.25H16Z" fill="#1C252E"/>
</svg>
