<svg width="24" height="24" viewBox="0 0 24 24" fill="none" xmlns="http://www.w3.org/2000/svg">
<path d="M2.25 17.01V7.01001C2.25 5.33957 2.81014 3.88932 3.84473 2.85474C4.87931 1.82015 6.32956 1.26001 8 1.26001H12.9297C14.4561 1.26001 15.9177 1.85744 17 2.9397L20.0703 6.01001C21.1412 7.08098 21.75 8.54195 21.75 10.0803V17.01C21.75 18.6804 21.1899 20.1307 20.1553 21.1653C19.1207 22.1999 17.6704 22.76 16 22.76H8C6.32956 22.76 4.87931 22.1999 3.84473 21.1653C2.81014 20.1307 2.25 18.6804 2.25 17.01ZM3.75 17.01C3.75 18.3396 4.18986 19.3893 4.90527 20.1047C5.62069 20.8202 6.67044 21.26 8 21.26H16C17.3296 21.26 18.3793 20.8202 19.0947 20.1047C19.8101 19.3893 20.25 18.3396 20.25 17.01V10.0803C20.25 8.93885 19.7987 7.85956 19.0098 7.07056L15.9395 4.00024C15.1418 3.20267 14.0631 2.76001 12.9297 2.76001H8C6.67044 2.76001 5.62069 3.19987 4.90527 3.91528C4.18986 4.6307 3.75 5.68045 3.75 7.01001V17.01Z" fill="#1C252E"/>
<path d="M8.96967 13.4697C9.26256 13.1768 9.73732 13.1768 10.0302 13.4697C10.3231 13.7626 10.3231 14.2373 10.0302 14.5302L8.56049 15.9999L10.0302 17.4697C10.3231 17.7626 10.3231 18.2373 10.0302 18.5302C9.73732 18.8231 9.26256 18.8231 8.96967 18.5302L6.96967 16.5302C6.67678 16.2373 6.67678 15.7626 6.96967 15.4697L8.96967 13.4697Z" fill="#1C252E"/>
<path d="M13.9697 13.4697C14.2626 13.1768 14.7373 13.1768 15.0302 13.4697L17.0302 15.4697C17.3231 15.7626 17.3231 16.2373 17.0302 16.5302L15.0302 18.5302C14.7373 18.8231 14.2626 18.8231 13.9697 18.5302C13.6768 18.2373 13.6768 17.7626 13.9697 17.4697L15.4394 15.9999L13.9697 14.5302C13.6768 14.2373 13.6768 13.7626 13.9697 13.4697Z" fill="#1C252E"/>
</svg>
