<svg width="24" height="24" viewBox="0 0 24 24" fill="none" xmlns="http://www.w3.org/2000/svg">
<path d="M5.25 8.25V6.25C5.25 5.83579 5.58579 5.5 6 5.5C6.41421 5.5 6.75 5.83579 6.75 6.25V8.25C6.75 8.66421 6.41421 9 6 9C5.58579 9 5.25 8.66421 5.25 8.25Z" fill="#1C252E"/>
<path d="M21.25 12V9C21.25 6.57397 20.7603 5.0708 19.8447 4.15527C18.9292 3.23974 17.426 2.75 15 2.75H9C6.57397 2.75 5.0708 3.23974 4.15527 4.15527C3.23974 5.0708 2.75 6.57397 2.75 9V15C2.75 17.426 3.23974 18.9292 4.15527 19.8447C5.0708 20.7603 6.57397 21.25 9 21.25H12C12.4142 21.25 12.75 21.5858 12.75 22C12.75 22.4142 12.4142 22.75 12 22.75H9C6.42603 22.75 4.4292 22.2397 3.09473 20.9053C1.76026 19.5708 1.25 17.574 1.25 15V9C1.25 6.42603 1.76026 4.4292 3.09473 3.09473C4.4292 1.76026 6.42603 1.25 9 1.25H15C17.574 1.25 19.5708 1.76026 20.9053 3.09473C22.2397 4.4292 22.75 6.42603 22.75 9V12C22.75 12.4142 22.4142 12.75 22 12.75C21.5858 12.75 21.25 12.4142 21.25 12Z" fill="#1C252E"/>
<path d="M9.25 8.25V6.25C9.25 5.83579 9.58579 5.5 10 5.5C10.4142 5.5 10.75 5.83579 10.75 6.25V8.25C10.75 8.66421 10.4142 9 10 9C9.58579 9 9.25 8.66421 9.25 8.25Z" fill="#1C252E"/>
<path d="M5.25 18V16C5.25 15.5858 5.58579 15.25 6 15.25C6.41421 15.25 6.75 15.5858 6.75 16V18C6.75 18.4142 6.41421 18.75 6 18.75C5.58579 18.75 5.25 18.4142 5.25 18Z" fill="#1C252E"/>
<path d="M9.25 18V16C9.25 15.5858 9.58579 15.25 10 15.25C10.4142 15.25 10.75 15.5858 10.75 16V18C10.75 18.4142 10.4142 18.75 10 18.75C9.58579 18.75 9.25 18.4142 9.25 18Z" fill="#1C252E"/>
<path d="M18 6.5C18.4142 6.5 18.75 6.83579 18.75 7.25C18.75 7.66421 18.4142 8 18 8H14C13.5858 8 13.25 7.66421 13.25 7.25C13.25 6.83579 13.5858 6.5 14 6.5H18Z" fill="#1C252E"/>
<path d="M22 11.25C22.4142 11.25 22.75 11.5858 22.75 12C22.75 12.4142 22.4142 12.75 22 12.75H2C1.58579 12.75 1.25 12.4142 1.25 12C1.25 11.5858 1.58579 11.25 2 11.25H22Z" fill="#1C252E"/>
<path d="M15.1099 22V20.1396C15.1101 19.7256 15.4458 19.3896 15.8599 19.3896H17.8599C18.274 19.3896 18.6097 19.7256 18.6099 20.1396C18.6099 20.5539 18.2741 20.8896 17.8599 20.8896H17.6733C17.9934 21.0759 18.355 21.2001 18.7495 21.2002C19.6724 21.2002 20.48 20.7011 20.9106 19.9551C21.1178 19.5964 21.5764 19.4736 21.9351 19.6807C22.2936 19.8878 22.4165 20.3464 22.2095 20.7051C21.5201 21.8991 20.2266 22.7002 18.7495 22.7002C17.879 22.7001 17.1568 22.3696 16.6099 21.9873V22C16.6099 22.4142 16.2741 22.75 15.8599 22.75C15.4456 22.75 15.1099 22.4142 15.1099 22ZM18.7495 14.71C19.7977 14.71 20.632 15.0632 21.2495 15.4746V15.25C21.2495 14.8359 21.5855 14.5002 21.9995 14.5C22.4137 14.5 22.7495 14.8358 22.7495 15.25V17.25C22.7495 17.2608 22.748 17.2715 22.7476 17.2822C22.7472 17.293 22.7464 17.3037 22.7456 17.3145C22.7428 17.3477 22.738 17.3802 22.731 17.4121C22.6898 17.6097 22.5729 17.7912 22.3862 17.9033C22.2348 17.9942 22.0643 18.0216 21.9019 18H19.9995C19.5855 17.9998 19.2495 17.6641 19.2495 17.25C19.2495 16.8359 19.5855 16.5002 19.9995 16.5H20.0278C19.6708 16.3295 19.246 16.21 18.7495 16.21C17.8164 16.2101 17.0108 16.7091 16.5806 17.4619C16.3751 17.8214 15.9177 17.9465 15.5581 17.7412C15.1985 17.5357 15.0733 17.0774 15.2788 16.7178C15.9685 15.5109 17.263 14.7101 18.7495 14.71Z" fill="#1C252E"/>
</svg>
