<svg width="24" height="24" viewBox="0 0 24 24" fill="none" xmlns="http://www.w3.org/2000/svg">
<path d="M5.25 8.25V6.25C5.25 5.83579 5.58579 5.5 6 5.5C6.41421 5.5 6.75 5.83579 6.75 6.25V8.25C6.75 8.66421 6.41421 9 6 9C5.58579 9 5.25 8.66421 5.25 8.25Z" fill="#1C252E"/>
<path d="M9.25 8.25V6.25C9.25 5.83579 9.58579 5.5 10 5.5C10.4142 5.5 10.75 5.83579 10.75 6.25V8.25C10.75 8.66421 10.4142 9 10 9C9.58579 9 9.25 8.66421 9.25 8.25Z" fill="#1C252E"/>
<path d="M21.25 9C21.25 6.57397 20.7603 5.0708 19.8447 4.15527C18.9292 3.23974 17.426 2.75 15 2.75H9C6.57397 2.75 5.0708 3.23974 4.15527 4.15527C3.23974 5.0708 2.75 6.57397 2.75 9V15C2.75 17.426 3.23974 18.9292 4.15527 19.8447C5.0708 20.7603 6.57397 21.25 9 21.25H15C17.426 21.25 18.9292 20.7603 19.8447 19.8447C20.7603 18.9292 21.25 17.426 21.25 15V9ZM22.75 15C22.75 17.574 22.2397 19.5708 20.9053 20.9053C19.5708 22.2397 17.574 22.75 15 22.75H9C6.42603 22.75 4.4292 22.2397 3.09473 20.9053C1.76026 19.5708 1.25 17.574 1.25 15V9C1.25 6.42603 1.76026 4.4292 3.09473 3.09473C4.4292 1.76026 6.42603 1.25 9 1.25H15C17.574 1.25 19.5708 1.76026 20.9053 3.09473C22.2397 4.4292 22.75 6.42603 22.75 9V15Z" fill="#1C252E"/>
<path d="M5.25 18V16C5.25 15.5858 5.58579 15.25 6 15.25C6.41421 15.25 6.75 15.5858 6.75 16V18C6.75 18.4142 6.41421 18.75 6 18.75C5.58579 18.75 5.25 18.4142 5.25 18Z" fill="#1C252E"/>
<path d="M9.25 18V16C9.25 15.5858 9.58579 15.25 10 15.25C10.4142 15.25 10.75 15.5858 10.75 16V18C10.75 18.4142 10.4142 18.75 10 18.75C9.58579 18.75 9.25 18.4142 9.25 18Z" fill="#1C252E"/>
<path d="M18 6.5C18.4142 6.5 18.75 6.83579 18.75 7.25C18.75 7.66421 18.4142 8 18 8H14C13.5858 8 13.25 7.66421 13.25 7.25C13.25 6.83579 13.5858 6.5 14 6.5H18Z" fill="#1C252E"/>
<path d="M18 16.25C18.4142 16.25 18.75 16.5858 18.75 17C18.75 17.4142 18.4142 17.75 18 17.75H14C13.5858 17.75 13.25 17.4142 13.25 17C13.25 16.5858 13.5858 16.25 14 16.25H18Z" fill="#1C252E"/>
<path d="M22 11.25C22.4142 11.25 22.75 11.5858 22.75 12C22.75 12.4142 22.4142 12.75 22 12.75H2C1.58579 12.75 1.25 12.4142 1.25 12C1.25 11.5858 1.58579 11.25 2 11.25H22Z" fill="#1C252E"/>
</svg>
