<svg width="24" height="24" viewBox="0 0 24 24" fill="none" xmlns="http://www.w3.org/2000/svg">
<path d="M20.25 7C20.25 5.61505 19.9034 4.57576 19.2627 3.88574C18.6313 3.20579 17.607 2.75 16 2.75H8C6.39295 2.75 5.36869 3.20579 4.7373 3.88574C4.09664 4.57576 3.75 5.61505 3.75 7V17C3.75 18.385 4.09664 19.4242 4.7373 20.1143C5.36869 20.7942 6.39295 21.25 8 21.25H16C17.607 21.25 18.6313 20.7942 19.2627 20.1143C19.9034 19.4242 20.25 18.385 20.25 17V7ZM21.75 17C21.75 18.615 21.3466 20.0758 20.3623 21.1357C19.3687 22.2057 17.8929 22.75 16 22.75H8C6.10712 22.75 4.63131 22.2057 3.6377 21.1357C2.65342 20.0758 2.25 18.615 2.25 17V7C2.25 5.38503 2.65342 3.92424 3.6377 2.86426C4.63131 1.79429 6.10712 1.25 8 1.25H16C17.8929 1.25 19.3687 1.79429 20.3623 2.86426C21.3466 3.92424 21.75 5.38503 21.75 7V17Z" fill="#1C252E"/>
<path d="M17.25 6.75C17.25 6.20421 16.7958 5.75 16.25 5.75H7.75C7.20421 5.75 6.75 6.20421 6.75 6.75V9.25C6.75 9.79579 7.20421 10.25 7.75 10.25H16.25C16.7958 10.25 17.25 9.79579 17.25 9.25V6.75ZM18.75 9.25C18.75 10.6242 17.6242 11.75 16.25 11.75H7.75C6.37579 11.75 5.25 10.6242 5.25 9.25V6.75C5.25 5.37579 6.37579 4.25 7.75 4.25H16.25C17.6242 4.25 18.75 5.37579 18.75 6.75V9.25Z" fill="#1C252E"/>
<path d="M9.76943 14.7497C10.0623 14.4568 10.5371 14.4569 10.83 14.7497C11.1229 15.0425 11.1229 15.5173 10.83 15.8102L8.53017 18.11C8.23728 18.4029 7.76252 18.4029 7.46962 18.11C7.17682 17.8171 7.17676 17.3423 7.46962 17.0495L9.76943 14.7497Z" fill="#1C252E"/>
<path d="M7.49994 14.7797C7.79284 14.4868 8.2676 14.4868 8.56049 14.7797L10.8603 17.0795C11.1532 17.3724 11.1532 17.8472 10.8603 18.1401C10.5674 18.433 10.0926 18.433 9.79975 18.1401L7.49994 15.8403C7.20705 15.5474 7.20705 15.0726 7.49994 14.7797Z" fill="#1C252E"/>
<path d="M16.5107 14.3301C17.0628 14.3303 17.5107 14.778 17.5107 15.3301C17.5107 15.8822 17.0628 16.3298 16.5107 16.3301H16.4902C15.9379 16.3301 15.4902 15.8824 15.4902 15.3301C15.4902 14.7778 15.9379 14.3301 16.4902 14.3301H16.5107Z" fill="#1C252E"/>
<path d="M13.4902 17.5005V17.48C13.4902 16.9277 13.9379 16.48 14.4902 16.48C15.0425 16.48 15.4902 16.9277 15.4902 17.48V17.5005C15.49 18.0525 15.0424 18.5005 14.4902 18.5005C13.9381 18.5005 13.4905 18.0525 13.4902 17.5005Z" fill="#1C252E"/>
</svg>
