<svg width="24" height="24" viewBox="0 0 24 24" fill="none" xmlns="http://www.w3.org/2000/svg">
<path d="M11.2766 7.9302C13.459 7.41136 15.3763 9.32821 14.8596 11.5103C14.614 12.5609 13.7664 13.4031 12.7171 13.6587L12.7132 13.6597C10.5299 14.1786 8.61108 12.26 9.13016 10.0767L9.13211 10.0708C9.38886 9.03033 10.2302 8.18891 11.2708 7.93215L11.2766 7.9302ZM13.4007 11.1665C13.6613 10.0703 12.7204 9.12913 11.6243 9.38919C11.1293 9.51353 10.7149 9.92849 10.5901 10.4234L10.555 10.6275C10.4478 11.6327 11.3374 12.4437 12.3645 12.2007C12.8742 12.0757 13.2854 11.6581 13.3997 11.1695L13.4007 11.1665Z" fill="#1C252E"/>
<path d="M20.04 10.79C20.04 6.34483 16.4363 2.75002 12 2.75C7.56421 2.75 3.95996 6.35425 3.95996 10.79C3.95998 13.1129 4.94691 15.2054 6.5293 16.6689C6.83339 16.9502 6.85156 17.4254 6.57031 17.7295C6.28904 18.0333 5.81474 18.0517 5.51074 17.7705C3.63326 16.0341 2.45998 13.5471 2.45996 10.79C2.45996 5.52582 6.73579 1.25 12 1.25C17.2636 1.25002 21.54 5.51528 21.54 10.79C21.54 13.5367 20.377 16.002 18.5225 17.7373C18.22 18.0203 17.7449 18.0046 17.4619 17.7021C17.1794 17.3998 17.1951 16.9255 17.4971 16.6426C19.0624 15.1779 20.04 13.1032 20.04 10.79Z" fill="#1C252E"/>
<path d="M16.7402 10.7903C16.7402 8.17458 14.6157 6.05017 12 6.05005C9.38421 6.05005 7.25977 8.1745 7.25977 10.7903C7.25983 12.0506 7.75128 13.1889 8.54688 14.0364C8.83038 14.3384 8.81469 14.8134 8.5127 15.0969C8.21078 15.3801 7.73658 15.3654 7.45312 15.0637C6.40884 13.9513 5.75983 12.4498 5.75977 10.7903C5.75977 7.34607 8.55579 4.55005 12 4.55005C15.4441 4.55017 18.2402 7.34614 18.2402 10.7903C18.2402 12.4518 17.5891 13.9413 16.5488 15.0608C16.2669 15.3639 15.7926 15.3815 15.4893 15.0999C15.1858 14.8179 15.1682 14.3427 15.4502 14.0393C16.2498 13.1789 16.7402 12.0485 16.7402 10.7903Z" fill="#1C252E"/>
<path d="M9.71626 16.19C10.8839 14.7301 13.1123 14.7233 14.2749 16.19L15.7124 17.9781H15.7133C17.2644 19.8938 15.8841 22.7398 13.4301 22.7398H10.56C8.09803 22.7397 6.74463 19.9003 8.27388 17.982L8.27583 17.9801L9.71626 16.19ZM13.101 17.1246C12.543 16.4175 11.4577 16.4116 10.8862 17.1275L10.8842 17.1305L9.44477 18.9205C8.69761 19.8621 9.36336 21.2397 10.56 21.2398H13.4301C14.636 21.2398 15.2959 19.8458 14.5473 18.9215L14.5454 18.9205L13.1059 17.1305L13.101 17.1246Z" fill="#1C252E"/>
</svg>
