<svg width="24" height="24" viewBox="0 0 24 24" fill="none" xmlns="http://www.w3.org/2000/svg">
<path d="M11.4984 1.38618C12.1366 1.08896 12.809 1.30994 13.3539 1.69086L13.5795 1.86274L13.5804 1.86372L17.4301 5.07368C18.3232 5.818 18.3369 7.09878 17.4984 7.87153L17.4965 7.8725L12.9935 11.9995L17.4965 16.1274L17.4984 16.1284C18.3369 16.9011 18.3232 18.1819 17.4301 18.9262L13.5804 22.1362L13.5795 22.1372C13.0021 22.6163 12.2277 22.9534 11.4984 22.6137C10.7672 22.273 10.5298 21.4618 10.5297 20.7104V14.2582L5.14685 19.1928C4.84157 19.4726 4.36719 19.4521 4.08728 19.1469C3.80745 18.8416 3.828 18.3673 4.13318 18.0873L10.5297 12.2231V11.7758L4.13318 5.91254C3.82798 5.63264 3.80745 5.15827 4.08728 4.85297C4.36719 4.54778 4.84156 4.52724 5.14685 4.80707L10.5297 9.74067V3.2895C10.5298 2.53803 10.7672 1.72687 11.4984 1.38618ZM12.0297 20.7104C12.0297 20.9621 12.0708 21.1174 12.1078 21.1997C12.118 21.2224 12.1285 21.2368 12.1351 21.2465C12.1473 21.2455 12.1659 21.245 12.1918 21.2377C12.2799 21.2131 12.426 21.1442 12.6195 20.9838L16.4701 17.7739L16.5316 17.7123C16.655 17.5642 16.6403 17.3789 16.4828 17.2329L12.0297 13.1508V20.7104ZM12.0297 10.8481L16.4828 6.76704C16.6403 6.62095 16.655 6.43567 16.5316 6.28754L16.4701 6.22602L12.6195 3.01606V3.01508C12.4262 2.85496 12.2799 2.78677 12.1918 2.76215C12.1658 2.75491 12.1473 2.75342 12.1351 2.75239C12.1284 2.76209 12.1183 2.77697 12.1078 2.80024C12.0708 2.88253 12.0297 3.03779 12.0297 3.2895V10.8481Z" fill="#1C252E"/>
<path d="M5.25 12C5.25 11.8619 5.13807 11.75 5 11.75C4.86193 11.75 4.75 11.8619 4.75 12C4.75 12.1381 4.86193 12.25 5 12.25C5.13807 12.25 5.25 12.1381 5.25 12ZM6.75 12C6.75 12.9665 5.9665 13.75 5 13.75C4.0335 13.75 3.25 12.9665 3.25 12C3.25 11.0335 4.0335 10.25 5 10.25C5.9665 10.25 6.75 11.0335 6.75 12Z" fill="#1C252E"/>
<path d="M19.25 12C19.25 11.8619 19.1381 11.75 19 11.75C18.8619 11.75 18.75 11.8619 18.75 12C18.75 12.1381 18.8619 12.25 19 12.25C19.1381 12.25 19.25 12.1381 19.25 12ZM20.75 12C20.75 12.9665 19.9665 13.75 19 13.75C18.0335 13.75 17.25 12.9665 17.25 12C17.25 11.0335 18.0335 10.25 19 10.25C19.9665 10.25 20.75 11.0335 20.75 12Z" fill="#1C252E"/>
</svg>
