<svg width="24" height="24" viewBox="0 0 24 24" fill="none" xmlns="http://www.w3.org/2000/svg">
<path d="M16 5C16 4.06637 15.8199 3.55388 15.5469 3.2627C15.2835 2.98181 14.784 2.75 13.75 2.75H10.25C9.21601 2.75 8.71646 2.98181 8.45312 3.2627C8.18014 3.55388 8 4.06637 8 5V6.25H16V5ZM17.5 7C17.5 7.41421 17.1642 7.75 16.75 7.75H7.25C6.83579 7.75 6.5 7.41421 6.5 7V5C6.5 3.93363 6.69486 2.94612 7.35938 2.2373C8.03354 1.51819 9.03399 1.25 10.25 1.25H13.75C14.966 1.25 15.9665 1.51819 16.6406 2.2373C17.3051 2.94612 17.5 3.93363 17.5 5V7Z" fill="#1C252E"/>
<path d="M15.25 15.75H8.75V19C8.75 19.8844 8.97053 20.41 9.28027 20.7197C9.59001 21.0295 10.1156 21.25 11 21.25H13C13.8844 21.25 14.41 21.0295 14.7197 20.7197C15.0295 20.41 15.25 19.8844 15.25 19V15.75ZM16.75 19C16.75 20.1156 16.4705 21.09 15.7803 21.7803C15.09 22.4705 14.1156 22.75 13 22.75H11C9.88439 22.75 8.90999 22.4705 8.21973 21.7803C7.52947 21.09 7.25 20.1156 7.25 19V15C7.25 14.5858 7.58579 14.25 8 14.25H16C16.4142 14.25 16.75 14.5858 16.75 15V19Z" fill="#1C252E"/>
<path d="M16 14.25C16.4142 14.25 16.75 14.5858 16.75 15V17.25H18C18.8844 17.25 19.41 17.0295 19.7197 16.7197C20.0295 16.41 20.25 15.8844 20.25 15V10C20.25 9.11561 20.0295 8.59001 19.7197 8.28027C19.41 7.97053 18.8844 7.75 18 7.75H6C5.11561 7.75 4.59001 7.97053 4.28027 8.28027C3.97053 8.59001 3.75 9.11561 3.75 10V15C3.75 15.8844 3.97053 16.41 4.28027 16.7197C4.59001 17.0295 5.11561 17.25 6 17.25H7.25V15C7.25 14.5858 7.58579 14.25 8 14.25H16ZM21.75 15C21.75 16.1156 21.4705 17.09 20.7803 17.7803C20.09 18.4705 19.1156 18.75 18 18.75H16C15.5858 18.75 15.25 18.4142 15.25 18V15.75H8.75V18C8.75 18.4142 8.41421 18.75 8 18.75H6C4.88439 18.75 3.90999 18.4705 3.21973 17.7803C2.52947 17.09 2.25 16.1156 2.25 15V10C2.25 8.88439 2.52947 7.90999 3.21973 7.21973C3.90999 6.52947 4.88439 6.25 6 6.25H18C19.1156 6.25 20.09 6.52947 20.7803 7.21973C21.4705 7.90999 21.75 8.88439 21.75 10V15Z" fill="#1C252E"/>
<path d="M17 14.25C17.4142 14.25 17.75 14.5858 17.75 15C17.75 15.4142 17.4142 15.75 17 15.75H7C6.58579 15.75 6.25 15.4142 6.25 15C6.25 14.5858 6.58579 14.25 7 14.25H17Z" fill="#1C252E"/>
<path d="M10 10.25C10.4142 10.25 10.75 10.5858 10.75 11C10.75 11.4142 10.4142 11.75 10 11.75H7C6.58579 11.75 6.25 11.4142 6.25 11C6.25 10.5858 6.58579 10.25 7 10.25H10Z" fill="#1C252E"/>
</svg>
