<svg width="24" height="24" viewBox="0 0 24 24" fill="none" xmlns="http://www.w3.org/2000/svg">
<path d="M9.84234 1.46654C11.3924 1.06048 13.1146 1.20407 14.5601 2.05151C15.9062 2.84067 16.9484 4.20452 17.3951 6.15404C21.4042 7.09887 22.9023 12.5398 19.6939 15.3445L19.6929 15.3435C18.6894 16.2501 17.3859 16.7588 16.0298 16.7488V16.7497H6.37066C6.35288 16.7497 6.33469 16.7491 6.31695 16.7478C1.63796 16.4144 1.31857 9.98896 5.44586 8.90307C5.01238 7.1282 5.27304 5.55305 6.01324 4.28881C6.86049 2.84185 8.29241 1.87265 9.84234 1.46654ZM13.8023 3.34545C12.7449 2.72551 11.4405 2.59891 10.2232 2.91772C9.00596 3.2366 7.92904 3.98648 7.30816 5.04662C6.69779 6.08912 6.48551 7.50356 7.11578 9.25658C7.25573 9.6463 7.05333 10.0755 6.66363 10.2156C6.58914 10.2423 6.51314 10.2528 6.43805 10.2556C6.43316 10.256 6.42832 10.2572 6.4234 10.2576C3.29059 10.4803 3.27017 15.0101 6.4068 15.2497H16.0367C17.0137 15.2581 17.9623 14.8905 18.6959 14.2244C18.6993 14.2212 18.7031 14.2186 18.7066 14.2156C21.0778 12.1428 19.7963 7.94229 16.6656 7.54369C16.3369 7.50184 16.0743 7.24947 16.0201 6.9226C15.7151 5.08371 14.8417 3.955 13.8023 3.34545Z" fill="#1C252E"/>
<path d="M11.25 19V16C11.25 15.5858 11.5858 15.25 12 15.25C12.4142 15.25 12.75 15.5858 12.75 16V19C12.75 19.4142 12.4142 19.75 12 19.75C11.5858 19.75 11.25 19.4142 11.25 19Z" fill="#1C252E"/>
<path d="M13.25 21C13.25 20.3096 12.6904 19.75 12 19.75C11.3096 19.75 10.75 20.3096 10.75 21C10.75 21.6904 11.3096 22.25 12 22.25C12.6904 22.25 13.25 21.6904 13.25 21ZM14.75 21C14.75 22.5188 13.5188 23.75 12 23.75C10.4812 23.75 9.25 22.5188 9.25 21C9.25 19.4812 10.4812 18.25 12 18.25C13.5188 18.25 14.75 19.4812 14.75 21Z" fill="#1C252E"/>
<path d="M18 20.25C18.4142 20.25 18.75 20.5858 18.75 21C18.75 21.4142 18.4142 21.75 18 21.75H14C13.5858 21.75 13.25 21.4142 13.25 21C13.25 20.5858 13.5858 20.25 14 20.25H18Z" fill="#1C252E"/>
<path d="M10 20.25C10.4142 20.25 10.75 20.5858 10.75 21C10.75 21.4142 10.4142 21.75 10 21.75H6C5.58579 21.75 5.25 21.4142 5.25 21C5.25 20.5858 5.58579 20.25 6 20.25H10Z" fill="#1C252E"/>
</svg>
