<svg width="24" height="24" viewBox="0 0 24 24" fill="none" xmlns="http://www.w3.org/2000/svg">
<path d="M19.25 9.59961C19.2499 7.67382 18.8604 6.52056 18.1699 5.83008C17.4794 5.13959 16.3262 4.75005 14.4004 4.75H9.59961C7.67382 4.75005 6.52056 5.13959 5.83008 5.83008C5.13959 6.52056 4.75005 7.67382 4.75 9.59961V14.4004C4.75005 16.3262 5.13959 17.4794 5.83008 18.1699C6.52056 18.8604 7.67382 19.2499 9.59961 19.25H14.4004C16.3262 19.2499 17.4794 18.8604 18.1699 18.1699C18.8604 17.4794 19.2499 16.3262 19.25 14.4004V9.59961ZM20.75 14.4004C20.7499 16.4742 20.3399 18.1211 19.2305 19.2305C18.1211 20.3399 16.4742 20.7499 14.4004 20.75H9.59961C7.52582 20.7499 5.87893 20.3399 4.76953 19.2305C3.66013 18.1211 3.25005 16.4742 3.25 14.4004V9.59961C3.25005 7.52582 3.66013 5.87893 4.76953 4.76953C5.87893 3.66013 7.52582 3.25005 9.59961 3.25H14.4004C16.4742 3.25005 18.1211 3.66013 19.2305 4.76953C20.3399 5.87893 20.7499 7.52582 20.75 9.59961V14.4004Z" fill="#1C252E"/>
<path d="M16.25 10.5C16.25 9.32397 16.0103 8.6958 15.6572 8.34277C15.3042 7.98974 14.676 7.75 13.5 7.75H10.5C9.32397 7.75 8.6958 7.98974 8.34277 8.34277C7.98974 8.6958 7.75 9.32397 7.75 10.5V13.5C7.75 14.676 7.98974 15.3042 8.34277 15.6572C8.6958 16.0103 9.32397 16.25 10.5 16.25H13.5C14.676 16.25 15.3042 16.0103 15.6572 15.6572C16.0103 15.3042 16.25 14.676 16.25 13.5V10.5ZM17.75 13.5C17.75 14.824 17.4897 15.9458 16.7178 16.7178C15.9458 17.4897 14.824 17.75 13.5 17.75H10.5C9.17603 17.75 8.0542 17.4897 7.28223 16.7178C6.51026 15.9458 6.25 14.824 6.25 13.5V10.5C6.25 9.17603 6.51026 8.0542 7.28223 7.28223C8.0542 6.51026 9.17603 6.25 10.5 6.25H13.5C14.824 6.25 15.9458 6.51026 16.7178 7.28223C17.4897 8.0542 17.75 9.17603 17.75 10.5V13.5Z" fill="#1C252E"/>
<path d="M7.25977 4V2C7.25977 1.58579 7.59555 1.25 8.00977 1.25C8.42398 1.25 8.75977 1.58579 8.75977 2V4C8.75977 4.41421 8.42398 4.75 8.00977 4.75C7.59555 4.75 7.25977 4.41421 7.25977 4Z" fill="#1C252E"/>
<path d="M11.25 4V2C11.25 1.58579 11.5858 1.25 12 1.25C12.4142 1.25 12.75 1.58579 12.75 2V4C12.75 4.41421 12.4142 4.75 12 4.75C11.5858 4.75 11.25 4.41421 11.25 4Z" fill="#1C252E"/>
<path d="M15.25 4V2C15.25 1.58579 15.5858 1.25 16 1.25C16.4142 1.25 16.75 1.58579 16.75 2V4C16.75 4.41421 16.4142 4.75 16 4.75C15.5858 4.75 15.25 4.41421 15.25 4Z" fill="#1C252E"/>
<path d="M22 7.25C22.4142 7.25 22.75 7.58579 22.75 8C22.75 8.41421 22.4142 8.75 22 8.75H20C19.5858 8.75 19.25 8.41421 19.25 8C19.25 7.58579 19.5858 7.25 20 7.25H22Z" fill="#1C252E"/>
<path d="M22 11.25C22.4142 11.25 22.75 11.5858 22.75 12C22.75 12.4142 22.4142 12.75 22 12.75H20C19.5858 12.75 19.25 12.4142 19.25 12C19.25 11.5858 19.5858 11.25 20 11.25H22Z" fill="#1C252E"/>
<path d="M22 15.25C22.4142 15.25 22.75 15.5858 22.75 16C22.75 16.4142 22.4142 16.75 22 16.75H20C19.5858 16.75 19.25 16.4142 19.25 16C19.25 15.5858 19.5858 15.25 20 15.25H22Z" fill="#1C252E"/>
<path d="M15.25 22V20C15.25 19.5858 15.5858 19.25 16 19.25C16.4142 19.25 16.75 19.5858 16.75 20V22C16.75 22.4142 16.4142 22.75 16 22.75C15.5858 22.75 15.25 22.4142 15.25 22Z" fill="#1C252E"/>
<path d="M11.2598 22V20C11.2598 19.5858 11.5956 19.25 12.0098 19.25C12.424 19.25 12.7598 19.5858 12.7598 20V22C12.7598 22.4142 12.424 22.75 12.0098 22.75C11.5956 22.75 11.2598 22.4142 11.2598 22Z" fill="#1C252E"/>
<path d="M7.25977 22V20C7.25977 19.5858 7.59555 19.25 8.00977 19.25C8.42398 19.25 8.75977 19.5858 8.75977 20V22C8.75977 22.4142 8.42398 22.75 8.00977 22.75C7.59555 22.75 7.25977 22.4142 7.25977 22Z" fill="#1C252E"/>
<path d="M4 7.25C4.41421 7.25 4.75 7.58579 4.75 8C4.75 8.41421 4.41421 8.75 4 8.75H2C1.58579 8.75 1.25 8.41421 1.25 8C1.25 7.58579 1.58579 7.25 2 7.25H4Z" fill="#1C252E"/>
<path d="M4 11.25C4.41421 11.25 4.75 11.5858 4.75 12C4.75 12.4142 4.41421 12.75 4 12.75H2C1.58579 12.75 1.25 12.4142 1.25 12C1.25 11.5858 1.58579 11.25 2 11.25H4Z" fill="#1C252E"/>
<path d="M4 15.25C4.41421 15.25 4.75 15.5858 4.75 16C4.75 16.4142 4.41421 16.75 4 16.75H2C1.58579 16.75 1.25 16.4142 1.25 16C1.25 15.5858 1.58579 15.25 2 15.25H4Z" fill="#1C252E"/>
<path d="M11.3487 9.32695C11.5547 8.96758 12.0138 8.84363 12.3731 9.04961C12.7322 9.2557 12.8564 9.71381 12.6505 10.073L11.9757 11.2498H12.5597C12.9326 11.2498 13.389 11.3896 13.6368 11.8221C13.8828 12.2514 13.775 12.7116 13.5899 13.032L12.6505 14.6727C12.4446 15.0319 11.9864 15.1567 11.627 14.951C11.2677 14.745 11.1427 14.2859 11.3487 13.9266L12.0235 12.7498H11.4395C11.0666 12.7497 10.6101 12.61 10.3624 12.1775C10.1154 11.7459 10.2252 11.2822 10.4122 10.9617L11.3487 9.32695Z" fill="#1C252E"/>
</svg>
