<svg width="24" height="24" viewBox="0 0 24 24" fill="none" xmlns="http://www.w3.org/2000/svg">
<path d="M1.25 12.7803V6.44043C1.25 4.67036 1.45378 3.26302 2.3584 2.3584C3.26302 1.45378 4.67036 1.25 6.44043 1.25H8C8.41421 1.25 8.75 1.58579 8.75 2C8.75 2.41421 8.41421 2.75 8 2.75H6.44043C4.6605 2.75 3.84682 2.99107 3.41895 3.41895C2.99107 3.84682 2.75 4.6605 2.75 6.44043V12.7803C2.75002 14.5598 2.99117 15.3729 3.41895 15.8008C3.84682 16.2287 4.6605 16.4697 6.44043 16.4697H17.5596C19.3409 16.4697 20.1535 16.2304 20.5811 15.8037C21.0081 15.3774 21.25 14.5657 21.25 12.7803V11.8896C21.2502 11.4756 21.5859 11.1396 22 11.1396C22.4141 11.1396 22.7498 11.4756 22.75 11.8896V12.7803C22.75 14.5545 22.5459 15.9626 21.6406 16.8662C20.7356 17.7691 19.3279 17.9697 17.5596 17.9697H6.44043C4.67036 17.9697 3.26302 17.7659 2.3584 16.8613C1.45394 15.9567 1.25002 14.5501 1.25 12.7803Z" fill="#1C252E"/>
<path d="M11.25 22.0002V17.22C11.25 16.8058 11.5858 16.47 12 16.47C12.4142 16.47 12.75 16.8058 12.75 17.22V22.0002C12.7499 22.4143 12.4141 22.7502 12 22.7502C11.5859 22.7502 11.2501 22.4143 11.25 22.0002Z" fill="#1C252E"/>
<path d="M22 12.25C22.4142 12.25 22.75 12.5858 22.75 13C22.75 13.4142 22.4142 13.75 22 13.75H2C1.58579 13.75 1.25 13.4142 1.25 13C1.25 12.5858 1.58579 12.25 2 12.25H22Z" fill="#1C252E"/>
<path d="M16.5 21.25C16.9142 21.25 17.25 21.5858 17.25 22C17.25 22.4142 16.9142 22.75 16.5 22.75H7.5C7.08579 22.75 6.75 22.4142 6.75 22C6.75 21.5858 7.08579 21.25 7.5 21.25H16.5Z" fill="#1C252E"/>
<path d="M18.9502 3.84985C18.9501 3.24414 18.4651 2.76001 17.8594 2.76001H13.2598C12.574 2.76001 12.0098 3.32422 12.0098 4.01001V7.52954C12.0098 7.87799 12.0983 8.1466 12.2383 8.3147C12.3583 8.4587 12.5901 8.62033 13.0996 8.62036H17.8594C18.4652 8.62036 18.9502 8.13533 18.9502 7.52954V3.84985ZM20.4502 7.52954C20.4502 8.96376 19.2936 10.1204 17.8594 10.1204H13.0996C12.2294 10.1203 11.5409 9.82145 11.0859 9.27563C10.651 8.75372 10.5098 8.10097 10.5098 7.52954V4.01001C10.5098 2.4958 11.7456 1.26001 13.2598 1.26001H17.8594C19.2935 1.26001 20.4501 2.41571 20.4502 3.84985V7.52954Z" fill="#1C252E"/>
<path d="M20.4873 2.84038C20.8967 2.56078 21.4774 2.3676 22.0254 2.65191C22.5777 2.93854 22.75 3.52928 22.75 4.02984V7.35991C22.75 7.85893 22.5788 8.45358 22.0225 8.73882C21.4698 9.02217 20.8876 8.81961 20.4805 8.53472L20.4795 8.53374L19.2695 7.68413C19.0696 7.54371 18.9502 7.31417 18.9502 7.06987V4.31011C18.9502 4.06581 19.0696 3.83628 19.2695 3.69585L20.4795 2.84624L20.4873 2.84038ZM20.4502 4.69878V6.68023L21.25 7.24175V4.13726L20.4502 4.69878Z" fill="#1C252E"/>
</svg>
