<svg width="24" height="24" viewBox="0 0 24 24" fill="none" xmlns="http://www.w3.org/2000/svg">
<path d="M21.25 9V7C21.25 5.67044 20.8101 4.62069 20.0947 3.90527C19.3793 3.18986 18.3296 2.75 17 2.75H7C5.67044 2.75 4.62069 3.18986 3.90527 3.90527C3.18986 4.62069 2.75 5.67044 2.75 7V9C2.75 9.41421 2.41421 9.75 2 9.75C1.58579 9.75 1.25 9.41421 1.25 9V7C1.25 5.32956 1.81014 3.87931 2.84473 2.84473C3.87931 1.81014 5.32956 1.25 7 1.25H17C18.6704 1.25 20.1207 1.81014 21.1553 2.84473C22.1899 3.87931 22.75 5.32956 22.75 7V9C22.75 9.41421 22.4142 9.75 22 9.75C21.5858 9.75 21.25 9.41421 21.25 9Z" fill="#1C252E"/>
<path d="M1.25 17V15C1.25 14.5858 1.58579 14.25 2 14.25C2.41421 14.25 2.75 14.5858 2.75 15V17C2.75 18.3296 3.18986 19.3793 3.90527 20.0947C4.62069 20.8101 5.67044 21.25 7 21.25H17C18.3296 21.25 19.3793 20.8101 20.0947 20.0947C20.8101 19.3793 21.25 18.3296 21.25 17V15C21.25 14.5858 21.5858 14.25 22 14.25C22.4142 14.25 22.75 14.5858 22.75 15V17C22.75 18.6704 22.1899 20.1207 21.1553 21.1553C20.1207 22.1899 18.6704 22.75 17 22.75H7C5.32956 22.75 3.87931 22.1899 2.84473 21.1553C1.81014 20.1207 1.25 18.6704 1.25 17Z" fill="#1C252E"/>
<path d="M6.0502 8.88403C6.25779 8.52565 6.71719 8.40309 7.07559 8.61059L11.9984 11.4622L16.8832 8.6311C17.2415 8.42335 17.7008 8.54532 17.9086 8.90356C18.1163 9.26183 17.9943 9.72112 17.6361 9.92895L12.3754 12.9788C12.1429 13.1134 11.856 13.1134 11.6234 12.9788L6.32364 9.90942C5.96526 9.70183 5.8427 9.24243 6.0502 8.88403Z" fill="#1C252E"/>
<path d="M11.25 17.7702V12.32C11.25 11.9058 11.5858 11.57 12 11.57C12.4142 11.57 12.75 11.9058 12.75 12.32V17.7702C12.7499 18.1843 12.4142 18.5202 12 18.5202C11.5858 18.5202 11.2501 18.1843 11.25 17.7702Z" fill="#1C252E"/>
<path d="M17.0205 10.31C17.0205 10.0596 16.926 9.72972 16.7373 9.40863C16.5485 9.08747 16.3075 8.84725 16.0898 8.72797L16.0859 8.72504L12.8857 6.94574L12.8809 6.94281C12.6755 6.82682 12.3585 6.74757 12.002 6.7475C11.6446 6.7475 11.3319 6.82732 11.1338 6.94086L7.9248 8.72504C7.70955 8.84462 7.46711 9.0877 7.27637 9.41058C7.08567 9.7334 6.99024 10.0622 6.99023 10.31V13.6996C6.99023 13.95 7.08475 14.2799 7.27344 14.601C7.43861 14.8821 7.64338 15.1015 7.83789 15.2319L7.9209 15.2827L7.9248 15.2846L11.125 17.0649C11.3247 17.1765 11.6416 17.2553 12.002 17.2553C12.3166 17.2552 12.6008 17.1952 12.8057 17.1039L12.8887 17.0629L16.0859 15.2846L16.168 15.2338C16.3611 15.103 16.5675 14.8824 16.7344 14.6C16.9251 14.2772 17.0205 13.9475 17.0205 13.6996V10.31ZM18.5205 13.6996C18.5205 14.2817 18.3156 14.8731 18.0264 15.3627C17.7372 15.8523 17.3191 16.3147 16.8145 16.5952L13.6152 18.3754L13.6123 18.3774C13.1295 18.6433 12.5446 18.7552 12.002 18.7553C11.4601 18.7553 10.8757 18.6425 10.3955 18.3745L7.19531 16.5952C6.68533 16.3142 6.26723 15.8513 5.97949 15.3618C5.6907 14.8704 5.49023 14.2793 5.49023 13.6996V10.31C5.49024 9.72784 5.69511 9.13655 5.98438 8.64691C6.27351 8.15756 6.6909 7.69489 7.19531 7.41449L10.3955 5.63422C10.8759 5.36118 11.46 5.2475 12.002 5.2475C12.5457 5.24756 13.1307 5.36327 13.6143 5.63519L16.8145 7.41449C17.3253 7.69537 17.7422 8.15867 18.0303 8.64886C18.3191 9.14026 18.5205 9.73038 18.5205 10.31V13.6996Z" fill="#1C252E"/>
</svg>
