<svg width="24" height="24" viewBox="0 0 24 24" fill="none" xmlns="http://www.w3.org/2000/svg">
<path d="M2.52089 7.06404C2.72839 6.70562 3.18781 6.58315 3.54628 6.7906L11.9994 11.6832L20.3939 6.82088C20.7524 6.61326 21.2117 6.73589 21.4193 7.09431C21.6268 7.45271 21.5042 7.91115 21.1459 8.11873L12.3764 13.1988C12.1439 13.3334 11.8569 13.3333 11.6244 13.1988L2.79433 8.08943C2.43591 7.88193 2.31344 7.42251 2.52089 7.06404Z" fill="#1C252E"/>
<path d="M11.25 21.6103V12.54C11.25 12.1258 11.5858 11.79 12 11.79C12.4142 11.79 12.75 12.1258 12.75 12.54V21.6103C12.7498 22.0244 12.4141 22.3603 12 22.3603C11.5859 22.3603 11.2502 22.0244 11.25 21.6103Z" fill="#1C252E"/>
<path d="M20.8604 9.16992C20.8603 8.64605 20.6673 8.01184 20.3184 7.41992C19.9693 6.82799 19.5068 6.35039 19.0469 6.0957L13.707 3.13574L13.7031 3.13379C13.2729 2.89237 12.6579 2.75005 12.001 2.75C11.3438 2.75 10.7282 2.89226 10.2979 3.13379L10.2939 3.13574L4.9541 6.0957C4.49414 6.35039 4.03165 6.82799 3.68262 7.41992C3.33367 8.01181 3.14064 8.64608 3.14062 9.16992V14.8301C3.14064 15.3539 3.33368 15.9882 3.68262 16.5801C3.98793 17.0979 4.38004 17.5278 4.78125 17.7979L4.9541 17.9043L10.2939 20.8643L10.2979 20.8662C10.7282 21.1077 11.3438 21.25 12.001 21.25C12.6579 21.2499 13.2729 21.1076 13.7031 20.8662L13.708 20.8633L14.8242 20.2471C14.457 19.5762 14.251 18.8068 14.251 18C14.251 16.5056 14.9396 15.1617 16.0342 14.293C16.85 13.643 17.8829 13.25 19.001 13.25C19.6632 13.25 20.2906 13.3835 20.8604 13.6279V9.16992ZM22.3604 14.8301C22.3604 14.8763 22.3623 14.9854 22.3359 15.1172C22.2835 15.3792 22.0957 15.5934 21.8428 15.6797C21.5897 15.7659 21.309 15.7108 21.1074 15.5352C20.5403 15.0411 19.8145 14.7501 19.001 14.75C18.2394 14.75 17.5319 15.0172 16.9678 15.4668L16.9668 15.4678C16.2217 16.0591 15.751 16.9746 15.751 18C15.751 18.6092 15.921 19.1831 16.2188 19.666C16.224 19.6746 16.2294 19.6836 16.2344 19.6924C16.295 19.8001 16.374 19.9098 16.4697 20.0215C16.6165 20.1928 16.6788 20.4216 16.6387 20.6436C16.5985 20.8655 16.4602 21.058 16.2627 21.167L14.4326 22.1768L14.4316 22.1758C13.723 22.572 12.8415 22.7499 12.001 22.75C11.1582 22.75 10.2732 22.5722 9.56348 22.1738V22.1729L4.22656 19.2158V19.2148C3.477 18.7995 2.83886 18.102 2.39062 17.3418C1.94234 16.5814 1.64063 15.686 1.64062 14.8301V9.16992C1.64064 8.31403 1.94234 7.41859 2.39062 6.6582C2.83895 5.89788 3.47682 5.19954 4.22656 4.78418L9.56738 1.82422C10.2764 1.42728 11.1597 1.25 12.001 1.25C12.8423 1.25005 13.7246 1.42822 14.4336 1.8252L14.4346 1.82422L19.7744 4.78418C20.5242 5.19952 21.162 5.89781 21.6104 6.6582C22.0587 7.41861 22.3603 8.31399 22.3604 9.16992V14.8301Z" fill="#1C252E"/>
<path d="M22.25 18C22.25 16.2042 20.7958 14.75 19 14.75C18.2385 14.75 17.5319 15.0172 16.9678 15.4668L16.9658 15.4678C16.2208 16.0591 15.75 16.9747 15.75 18C15.75 19.7958 17.2042 21.25 19 21.25C19.8162 21.25 20.5626 20.9439 21.1445 20.4365C21.821 19.8416 22.25 18.9735 22.25 18ZM23.75 18C23.75 19.4265 23.1192 20.6984 22.1357 21.5635L22.1338 21.5645C21.296 22.296 20.2029 22.75 19 22.75C16.3758 22.75 14.25 20.6242 14.25 18C14.25 16.5062 14.9384 15.1627 16.0322 14.2939L16.1885 14.1748C16.9783 13.5958 17.9515 13.25 19 13.25C21.6242 13.25 23.75 15.3758 23.75 18Z" fill="#1C252E"/>
<path d="M18.5003 16.75C18.5003 16.3358 18.8361 16 19.2503 16C19.6645 16 20.0003 16.3358 20.0003 16.75V18.25C20.0003 18.5134 19.8619 18.758 19.636 18.8936L18.386 19.6436C18.0309 19.8564 17.5698 19.7408 17.3567 19.3857C17.1438 19.0306 17.2594 18.5695 17.6145 18.3564L18.5003 17.8242V16.75Z" fill="#1C252E"/>
</svg>
