<svg width="24" height="24" viewBox="0 0 24 24" fill="none" xmlns="http://www.w3.org/2000/svg">
<path d="M21.2499 15C21.2499 14.5858 21.5857 14.25 21.9999 14.25C22.4141 14.25 22.7499 14.5858 22.7499 15C22.7499 19.2842 19.2841 22.75 14.9999 22.75C14.7297 22.75 14.4807 22.6043 14.3476 22.3691C14.2146 22.1341 14.2175 21.8459 14.3564 21.6143L15.4071 19.8643C15.6202 19.5093 16.0804 19.3937 16.4355 19.6064C16.7906 19.8195 16.9062 20.2806 16.6933 20.6357L16.4228 21.085C19.191 20.4419 21.2499 17.966 21.2499 15Z" fill="#1C252E"/>
<path d="M1.25 9C1.25 4.71579 4.71579 1.25 9 1.25C9.2702 1.25 9.51921 1.39573 9.65234 1.63086C9.78533 1.86586 9.78237 2.15415 9.64355 2.38574L8.59277 4.13574C8.37973 4.49074 7.91956 4.6063 7.56445 4.39355C7.20934 4.18048 7.09369 3.71942 7.30664 3.36426L7.57617 2.91406C4.80828 3.55737 2.75 6.03428 2.75 9C2.75 9.41421 2.41421 9.75 2 9.75C1.58579 9.75 1.25 9.41421 1.25 9Z" fill="#1C252E"/>
<path d="M13.0498 4.07501C13.257 3.71645 13.7156 3.59352 14.0742 3.8006L17.6777 5.88263L21.2422 3.81134C21.6002 3.60325 22.0594 3.72491 22.2676 4.08282C22.4757 4.44091 22.3541 4.90004 21.9961 5.10822L18.0557 7.39825C17.8233 7.5332 17.5364 7.53369 17.3037 7.39923L13.3242 5.09943C12.9657 4.89222 12.8427 4.43362 13.0498 4.07501Z" fill="#1C252E"/>
<path d="M16.9297 10.8201V6.73999C16.9297 6.32578 17.2655 5.98999 17.6797 5.98999C18.0939 5.98999 18.4297 6.32578 18.4297 6.73999V10.8201C18.4297 11.2343 18.0939 11.5701 17.6797 11.5701C17.2655 11.5701 16.9297 11.2343 16.9297 10.8201Z" fill="#1C252E"/>
<path d="M21.25 5.21973C21.2499 5.07382 21.1921 4.85923 21.0635 4.63965C20.9346 4.4197 20.7767 4.26713 20.6504 4.19824L20.6465 4.19629L18.2461 2.86621V2.86523C18.1299 2.80238 17.9263 2.75005 17.6787 2.75C17.4351 2.75 17.2284 2.80149 17.1035 2.86621L14.7031 4.19629C14.5785 4.26579 14.4189 4.42002 14.2881 4.6416C14.1572 4.86348 14.0997 5.07723 14.0996 5.21973V7.75977C14.0996 7.90571 14.1564 8.12108 14.2852 8.34082C14.3818 8.50573 14.4949 8.63273 14.5986 8.71484L14.6992 8.78125L14.7031 8.78418L17.1035 10.1143L17.1104 10.1182L17.2109 10.1641C17.3269 10.2068 17.4863 10.2373 17.6709 10.2373C17.9159 10.2373 18.1224 10.1831 18.2441 10.1152L18.2461 10.1143L20.6455 8.78418L20.7441 8.7168C20.848 8.63379 20.9631 8.50557 21.0615 8.33887C21.1926 8.11679 21.25 7.90231 21.25 7.75977V5.21973ZM22.75 7.75977C22.75 8.23721 22.5815 8.71367 22.3525 9.10156C22.1236 9.48927 21.7891 9.86508 21.374 10.0957H21.373L18.9736 11.4238L18.9746 11.4248C18.5764 11.6469 18.1031 11.7373 17.6709 11.7373C17.2418 11.7373 16.7711 11.6475 16.376 11.4248V11.4258L13.9756 10.0957V10.0947C13.5545 9.86341 13.2188 9.48794 12.9912 9.09961C12.7625 8.70938 12.5996 8.2338 12.5996 7.75977V5.21973C12.5997 4.74243 12.7673 4.26671 12.9961 3.87891C13.225 3.491 13.5603 3.11549 13.9756 2.88477V2.88379L16.376 1.55371L16.3838 1.5498C16.7798 1.33656 17.2502 1.25 17.6787 1.25C18.0529 1.25004 18.4595 1.31611 18.8193 1.47754L18.9707 1.55273L18.9727 1.55371L21.373 2.88379H21.3721C21.7941 3.11507 22.1304 3.49189 22.3584 3.88086C22.587 4.27097 22.7499 4.74588 22.75 5.21973V7.75977Z" fill="#1C252E"/>
<path d="M1.70058 15.074C1.90818 14.7157 2.36759 14.5931 2.72597 14.8006L6.31874 16.8826L9.89394 14.8113C10.2522 14.6036 10.7105 14.7256 10.9184 15.0838C11.1261 15.4421 11.0042 15.9014 10.6459 16.1092L6.6957 18.3992C6.46321 18.5338 6.17618 18.5339 5.94374 18.3992L1.97402 16.0994C1.61567 15.8918 1.49309 15.4324 1.70058 15.074Z" fill="#1C252E"/>
<path d="M5.57031 21.8201V17.74C5.57031 17.3258 5.9061 16.99 6.32031 16.99C6.73453 16.99 7.07031 17.3258 7.07031 17.74V21.8201C7.07028 22.2343 6.73451 22.5701 6.32031 22.5701C5.90612 22.5701 5.57035 22.2343 5.57031 21.8201Z" fill="#1C252E"/>
<path d="M9.90039 16.2197C9.90033 16.0738 9.84251 15.8592 9.71387 15.6396C9.58497 15.4197 9.42707 15.2671 9.30078 15.1982L9.29688 15.1963L6.90039 13.8682C6.77592 13.8024 6.56762 13.75 6.32129 13.75C6.07325 13.75 5.86915 13.8022 5.75293 13.8652L3.35352 15.1963C3.22893 15.2658 3.06924 15.42 2.93848 15.6416C2.80759 15.8635 2.75006 16.0772 2.75 16.2197V18.7598C2.75 18.9057 2.80678 19.1211 2.93555 19.3408C3.0322 19.5057 3.14525 19.6327 3.24902 19.7148L3.34961 19.7812L3.35352 19.7842L5.75391 21.1143L5.76074 21.1182L5.86133 21.1641C5.97732 21.2068 6.1367 21.2373 6.32129 21.2373C6.56633 21.2373 6.77277 21.1831 6.89453 21.1152L6.89648 21.1143L9.2959 19.7842L9.39453 19.7168C9.49837 19.6338 9.61353 19.5056 9.71191 19.3389C9.84295 19.1168 9.90039 18.9023 9.90039 18.7598V16.2197ZM11.4004 18.7598C11.4004 19.2372 11.2318 19.7137 11.0029 20.1016C10.774 20.4893 10.4395 20.8651 10.0244 21.0957H10.0234L7.62402 22.4238L7.625 22.4248C7.22678 22.6469 6.75351 22.7373 6.32129 22.7373C5.89214 22.7373 5.42146 22.6475 5.02637 22.4248V22.4258L2.63086 21.0977C2.20739 20.8666 1.87014 20.4895 1.6416 20.0996C1.4129 19.7094 1.25 19.2338 1.25 18.7598V16.2197C1.25005 15.7424 1.41765 15.2667 1.64648 14.8789C1.87542 14.491 2.21069 14.1155 2.62598 13.8848L2.62695 13.8838L5.02637 12.5537L5.0293 12.5527C5.42348 12.3364 5.89362 12.25 6.32129 12.25C6.74967 12.25 7.21927 12.3366 7.61523 12.5498L7.62402 12.5537L7.62305 12.5547L10.0234 13.8838H10.0225C10.4445 14.1151 10.7808 14.4919 11.0088 14.8809C11.2374 15.271 11.4003 15.7459 11.4004 16.2197V18.7598Z" fill="#1C252E"/>
</svg>
