<svg width="24" height="24" viewBox="0 0 24 24" fill="none" xmlns="http://www.w3.org/2000/svg">
<path d="M2.52089 7.06404C2.72839 6.70562 3.18781 6.58315 3.54628 6.7906L11.9994 11.6832L20.3939 6.82088C20.7524 6.61326 21.2117 6.73589 21.4193 7.09431C21.6268 7.45271 21.5042 7.91115 21.1459 8.11873L12.3764 13.1988C12.1439 13.3334 11.8569 13.3333 11.6244 13.1988L2.79433 8.08943C2.43591 7.88193 2.31344 7.42251 2.52089 7.06404Z" fill="#1C252E"/>
<path d="M11.25 21.6103V12.54C11.25 12.1258 11.5858 11.79 12 11.79C12.4142 11.79 12.75 12.1258 12.75 12.54V21.6103C12.7498 22.0244 12.4141 22.3603 12 22.3603C11.5859 22.3603 11.2502 22.0244 11.25 21.6103Z" fill="#1C252E"/>
<path d="M20.8604 12.8301V9.16992C20.8603 8.64605 20.6673 8.01184 20.3184 7.41992C19.9693 6.82799 19.5068 6.35039 19.0469 6.0957L13.707 3.13574L13.7031 3.13379C13.2729 2.89237 12.6579 2.75005 12.001 2.75C11.3438 2.75 10.7282 2.89226 10.2979 3.13379L10.2939 3.13574L4.9541 6.0957C4.49414 6.35039 4.03165 6.82799 3.68262 7.41992C3.33367 8.01181 3.14064 8.64608 3.14062 9.16992V14.8301C3.14064 15.3539 3.33368 15.9882 3.68262 16.5801C3.98793 17.0979 4.38004 17.5278 4.78125 17.7979L4.9541 17.9043L10.2939 20.8643L10.2979 20.8662C10.7282 21.1077 11.3438 21.25 12.001 21.25C12.6579 21.2499 13.2729 21.1076 13.7031 20.8662C14.0643 20.6634 14.5218 20.7921 14.7246 21.1533C14.9271 21.5145 14.7986 21.9711 14.4375 22.1738C13.7279 22.5721 12.8436 22.7499 12.001 22.75C11.1582 22.75 10.2732 22.5723 9.56348 22.1738V22.1729L4.22656 19.2158C3.47683 18.8005 2.83894 18.1021 2.39062 17.3418C1.94234 16.5814 1.64063 15.686 1.64062 14.8301V9.16992C1.64064 8.31403 1.94234 7.41859 2.39062 6.6582C2.83895 5.89788 3.47682 5.19954 4.22656 4.78418L9.56738 1.82422C10.2764 1.42728 11.1597 1.25 12.001 1.25C12.8423 1.25005 13.7246 1.42822 14.4336 1.8252L14.4346 1.82422L19.7744 4.78418C20.5242 5.19952 21.162 5.89781 21.6104 6.6582C22.0587 7.41861 22.3603 8.31399 22.3604 9.16992V12.8301C22.3603 13.2443 22.0246 13.5801 21.6104 13.5801C21.1963 13.5799 20.8604 13.2442 20.8604 12.8301Z" fill="#1C252E"/>
<path d="M21.6504 18.2002C21.6504 16.8471 20.5532 15.7501 19.2002 15.75C17.8471 15.75 16.75 16.8471 16.75 18.2002C16.7501 19.5532 17.8472 20.6504 19.2002 20.6504C20.5531 20.6503 21.6503 19.5532 21.6504 18.2002ZM23.1504 18.2002C23.1503 20.3816 21.3816 22.1503 19.2002 22.1504C17.0187 22.1504 15.2501 20.3816 15.25 18.2002C15.25 16.0187 17.0187 14.25 19.2002 14.25C21.3816 14.2501 23.1504 16.0187 23.1504 18.2002Z" fill="#1C252E"/>
<path d="M21.4697 20.4697C21.7626 20.1768 22.2373 20.1768 22.5302 20.4697L23.5302 21.4697C23.8231 21.7626 23.8231 22.2374 23.5302 22.5303C23.2373 22.8232 22.7626 22.8232 22.4697 22.5303L21.4697 21.5303C21.1768 21.2374 21.1768 20.7626 21.4697 20.4697Z" fill="#1C252E"/>
</svg>
