<svg width="24" height="24" viewBox="0 0 24 24" fill="none" xmlns="http://www.w3.org/2000/svg">
<path d="M2.52089 7.06398C2.72839 6.70556 3.18781 6.58309 3.54628 6.79054L11.9994 11.6831L20.3939 6.82082C20.7524 6.6132 21.2117 6.73583 21.4193 7.09425C21.6268 7.45265 21.5042 7.91109 21.1459 8.11867L12.3764 13.1987C12.1439 13.3334 11.8569 13.3333 11.6244 13.1987L2.79433 8.08937C2.43591 7.88187 2.31344 7.42245 2.52089 7.06398Z" fill="#1C252E"/>
<path d="M11.25 21.6102V12.5399C11.25 12.1257 11.5858 11.7899 12 11.7899C12.4142 11.7899 12.75 12.1257 12.75 12.5399V21.6102C12.7498 22.0243 12.4141 22.3602 12 22.3602C11.5859 22.3602 11.2502 22.0243 11.25 21.6102Z" fill="#1C252E"/>
<path d="M20.8604 9.16992C20.8603 8.64605 20.6673 8.01184 20.3184 7.41992C19.9693 6.82799 19.5068 6.35039 19.0469 6.0957L13.707 3.13574L13.7031 3.13379C13.2729 2.89237 12.6579 2.75005 12.001 2.75C11.3438 2.75 10.7282 2.89226 10.2979 3.13379L10.2939 3.13574L4.9541 6.0957C4.49414 6.35039 4.03165 6.82799 3.68262 7.41992C3.33367 8.01181 3.14064 8.64608 3.14062 9.16992V14.8301C3.14064 15.3539 3.33368 15.9882 3.68262 16.5801C3.98793 17.0979 4.38004 17.5278 4.78125 17.7979L4.9541 17.9043L10.2939 20.8643L10.2979 20.8662C10.7282 21.1077 11.3438 21.25 12.001 21.25C12.6579 21.2499 13.2729 21.1076 13.7031 20.8662L13.708 20.8633L14.8242 20.2471C14.457 19.5762 14.251 18.8068 14.251 18C14.251 16.5056 14.9396 15.1617 16.0342 14.293C16.85 13.643 17.8829 13.25 19.001 13.25C19.6632 13.25 20.2906 13.3835 20.8604 13.6279V9.16992ZM22.3604 14.8301C22.3604 14.8763 22.3623 14.9854 22.3359 15.1172C22.2835 15.3792 22.0957 15.5934 21.8428 15.6797C21.5897 15.7659 21.309 15.7108 21.1074 15.5352C20.5403 15.0411 19.8145 14.7501 19.001 14.75C18.2394 14.75 17.5319 15.0172 16.9678 15.4668L16.9668 15.4678C16.2217 16.0591 15.751 16.9746 15.751 18C15.751 18.6092 15.921 19.1831 16.2188 19.666C16.224 19.6746 16.2294 19.6836 16.2344 19.6924C16.295 19.8001 16.374 19.9098 16.4697 20.0215C16.6165 20.1928 16.6788 20.4216 16.6387 20.6436C16.5985 20.8655 16.4602 21.058 16.2627 21.167L14.4326 22.1768L14.4316 22.1758C13.723 22.572 12.8415 22.7499 12.001 22.75C11.1582 22.75 10.2732 22.5722 9.56348 22.1738V22.1729L4.22656 19.2158V19.2148C3.477 18.7995 2.83886 18.102 2.39062 17.3418C1.94234 16.5814 1.64063 15.686 1.64062 14.8301V9.16992C1.64064 8.31403 1.94234 7.41859 2.39062 6.6582C2.83895 5.89788 3.47682 5.19954 4.22656 4.78418L9.56738 1.82422C10.2764 1.42728 11.1597 1.25 12.001 1.25C12.8423 1.25005 13.7246 1.42822 14.4336 1.8252L14.4346 1.82422L19.7744 4.78418C20.5242 5.19952 21.162 5.89781 21.6104 6.6582C22.0587 7.41861 22.3603 8.31399 22.3604 9.16992V14.8301Z" fill="#1C252E"/>
<path d="M22.25 18C22.25 16.2042 20.7958 14.75 19 14.75C18.2385 14.75 17.5319 15.0172 16.9678 15.4668L16.9658 15.4678C16.2208 16.0591 15.75 16.9747 15.75 18C15.75 18.5333 15.8801 19.0396 16.1123 19.4814L16.2188 19.666L16.2246 19.6768L16.335 19.8496C16.9137 20.6944 17.8883 21.25 19 21.25C19.8226 21.25 20.5641 20.9497 21.1279 20.4424C21.1344 20.4365 21.1418 20.4314 21.1484 20.4258C21.3914 20.222 21.6055 19.9679 21.7725 19.6816L21.7812 19.666C22.0791 19.183 22.25 18.6094 22.25 18ZM23.75 18C23.75 18.8906 23.5007 19.7371 23.0586 20.4541L23.0576 20.4531C22.8104 20.8728 22.4949 21.2474 22.1309 21.5566C21.2947 22.3092 20.1973 22.75 19 22.75C17.2702 22.75 15.7639 21.8264 14.9424 20.4531C14.5003 19.7361 14.25 18.8906 14.25 18C14.25 16.5062 14.9384 15.1627 16.0322 14.2939L16.1885 14.1748C16.9783 13.5958 17.9515 13.25 19 13.25C21.6242 13.25 23.75 15.3758 23.75 18Z" fill="#1C252E"/>
<path d="M17.4179 16.4007C17.7101 16.1071 18.1848 16.1065 18.4784 16.3987L19.0136 16.931L19.5204 16.428C19.814 16.136 20.2888 16.1375 20.581 16.431C20.8731 16.7245 20.8724 17.1993 20.579 17.4915L20.077 17.9896L20.5985 18.5081C20.892 18.8002 20.8933 19.275 20.6015 19.5687C20.3093 19.8622 19.8345 19.8636 19.5409 19.5716L19.0145 19.0481L18.4589 19.6019C18.1653 19.894 17.6905 19.8924 17.3983 19.5989C17.1062 19.3054 17.1068 18.8306 17.4003 18.5384L17.9511 17.9896L17.4208 17.4612C17.1272 17.169 17.1257 16.6943 17.4179 16.4007Z" fill="#1C252E"/>
</svg>
