<svg width="24" height="24" viewBox="0 0 24 24" fill="none" xmlns="http://www.w3.org/2000/svg">
<path d="M1.25 17C1.25 16.5858 1.58579 16.25 2 16.25C2.41421 16.25 2.75 16.5858 2.75 17C2.75 18.2458 3.75421 19.25 5 19.25H5.35645C5.68459 18.0984 6.7458 17.25 8 17.25C9.2542 17.25 10.3154 18.0984 10.6436 19.25H13.3564C13.6846 18.0984 14.7458 17.25 16 17.25C17.2542 17.25 18.3154 18.0984 18.6436 19.25H19C20.2458 19.25 21.25 18.2458 21.25 17V14.75H19C18.0358 14.75 17.25 13.9642 17.25 13V10C17.25 9.03709 18.0337 8.25212 18.9961 8.25L17.9287 6.38281V6.38184C17.699 5.99005 17.2842 5.75 16.8398 5.75H15.75V12C15.75 13.5142 14.5142 14.75 13 14.75H12C11.5858 14.75 11.25 14.4142 11.25 14C11.25 13.5858 11.5858 13.25 12 13.25H13C13.6858 13.25 14.25 12.6858 14.25 12V2.75H6C4.78268 2.75 3.71789 3.42319 3.16504 4.41504C2.96338 4.77685 2.50634 4.90674 2.14453 4.70508C1.78292 4.50334 1.65288 4.04629 1.85449 3.68457C2.66165 2.23646 4.21735 1.25 6 1.25H15C15.4142 1.25 15.75 1.58579 15.75 2V4.25H16.8398C17.7716 4.25 18.6244 4.72282 19.1318 5.47852L19.2285 5.63379L19.2314 5.6377L20.9414 8.62793C21.0739 8.85993 21.0725 9.14482 20.9385 9.37598C20.8043 9.60726 20.5574 9.74998 20.29 9.75H19C18.8642 9.75 18.75 9.86421 18.75 10V13C18.75 13.1358 18.8642 13.25 19 13.25H22C22.4142 13.25 22.75 13.5858 22.75 14V17C22.75 19.0742 21.0742 20.75 19 20.75H18C17.5858 20.75 17.25 20.4142 17.25 20C17.25 19.3142 16.6858 18.75 16 18.75C15.3142 18.75 14.75 19.3142 14.75 20C14.75 20.4142 14.4142 20.75 14 20.75H10C9.58579 20.75 9.25 20.4142 9.25 20C9.25 19.3142 8.68579 18.75 8 18.75C7.31421 18.75 6.75 19.3142 6.75 20C6.75 20.4142 6.41421 20.75 6 20.75H5C2.92579 20.75 1.25 19.0742 1.25 17Z" fill="#1C252E"/>
<path d="M9.25 20C9.25 19.3096 8.69036 18.75 8 18.75C7.30964 18.75 6.75 19.3096 6.75 20C6.75 20.6904 7.30964 21.25 8 21.25C8.69036 21.25 9.25 20.6904 9.25 20ZM10.75 20C10.75 21.5188 9.51878 22.75 8 22.75C6.48122 22.75 5.25 21.5188 5.25 20C5.25 18.4812 6.48122 17.25 8 17.25C9.51878 17.25 10.75 18.4812 10.75 20Z" fill="#1C252E"/>
<path d="M17.25 20C17.25 19.3096 16.6904 18.75 16 18.75C15.3096 18.75 14.75 19.3096 14.75 20C14.75 20.6904 15.3096 21.25 16 21.25C16.6904 21.25 17.25 20.6904 17.25 20ZM18.75 20C18.75 21.5188 17.5188 22.75 16 22.75C14.4812 22.75 13.25 21.5188 13.25 20C13.25 18.4812 14.4812 17.25 16 17.25C17.5188 17.25 18.75 18.4812 18.75 20Z" fill="#1C252E"/>
<path d="M20.29 8.25L20.3896 8.25684C20.6197 8.28765 20.8246 8.42404 20.9414 8.62891L22.6514 11.6289C22.7158 11.742 22.75 11.8698 22.75 12V14C22.75 14.4142 22.4142 14.75 22 14.75H19C18.0358 14.75 17.25 13.9642 17.25 13V10C17.25 9.03579 18.0358 8.25 19 8.25H20.29ZM18.75 13C18.75 13.1358 18.8642 13.25 19 13.25H21.25V12.1973L19.8545 9.75H19C18.8642 9.75 18.75 9.86421 18.75 10V13Z" fill="#1C252E"/>
<path d="M8 7.25C8.41421 7.25 8.75 7.58579 8.75 8C8.75 8.41421 8.41421 8.75 8 8.75H2C1.58579 8.75 1.25 8.41421 1.25 8C1.25 7.58579 1.58579 7.25 2 7.25H8Z" fill="#1C252E"/>
<path d="M6 10.25C6.41421 10.25 6.75 10.5858 6.75 11C6.75 11.4142 6.41421 11.75 6 11.75H2C1.58579 11.75 1.25 11.4142 1.25 11C1.25 10.5858 1.58579 10.25 2 10.25H6Z" fill="#1C252E"/>
<path d="M4 13.25C4.41421 13.25 4.75 13.5858 4.75 14C4.75 14.4142 4.41421 14.75 4 14.75H2C1.58579 14.75 1.25 14.4142 1.25 14C1.25 13.5858 1.58579 13.25 2 13.25H4Z" fill="#1C252E"/>
</svg>
