<svg width="24" height="24" viewBox="0 0 24 24" fill="none" xmlns="http://www.w3.org/2000/svg">
<path d="M2.52089 7.06403C2.72839 6.70561 3.18781 6.58314 3.54628 6.79059L11.9994 11.6832L20.3939 6.82086C20.7524 6.61325 21.2117 6.73588 21.4193 7.0943C21.6268 7.4527 21.5043 7.91113 21.1459 8.11871L12.3764 13.1988C12.1439 13.3334 11.8569 13.3333 11.6244 13.1988L2.79433 8.08942C2.43591 7.88191 2.31344 7.4225 2.52089 7.06403Z" fill="#1C252E"/>
<path d="M11.25 21.6103V12.54C11.25 12.1258 11.5858 11.79 12 11.79C12.4142 11.79 12.75 12.1258 12.75 12.54V21.6103C12.7498 22.0244 12.4141 22.3603 12 22.3603C11.5859 22.3603 11.2502 22.0244 11.25 21.6103Z" fill="#1C252E"/>
<path d="M20.8711 9.16964C20.871 8.64576 20.6771 8.01151 20.3281 7.41964C19.9792 6.82791 19.5174 6.35112 19.0576 6.0964L19.0557 6.09542L13.7158 3.12569V3.12472C13.2785 2.88655 12.6596 2.74765 12.0029 2.74874C11.3437 2.74987 10.7281 2.89205 10.2979 3.13351L10.2939 3.13644L4.9541 6.0964C4.49414 6.35109 4.03165 6.8277 3.68262 7.41964C3.33366 8.01148 3.14071 8.64579 3.14062 9.16964V14.82C3.14063 15.3439 3.33367 15.9781 3.68262 16.57C4.03165 17.162 4.49414 17.6396 4.9541 17.8942H4.95508L10.293 20.864L10.4639 20.948C10.8801 21.1344 11.4266 21.2429 12.0059 21.2429C12.6677 21.2428 13.287 21.102 13.7178 20.864L19.0557 17.8942H19.0576C19.5176 17.6396 19.9791 17.1619 20.3281 16.57C20.6772 15.9781 20.8711 15.3439 20.8711 14.82V9.16964ZM22.3711 14.82C22.3711 15.676 22.0685 16.5713 21.6201 17.3317C21.1718 18.0921 20.5339 18.7894 19.7842 19.2048L19.7852 19.2058L14.4453 22.1755L14.1699 22.3132C13.5138 22.6091 12.7434 22.7429 12.0059 22.7429C11.163 22.7429 10.2765 22.5684 9.56738 22.1765L9.56641 22.1755L4.22656 19.2058V19.2048C3.47702 18.7894 2.83886 18.0919 2.39062 17.3317C1.94234 16.5714 1.64063 15.6759 1.64062 14.82V9.16964C1.64071 8.31376 1.94232 7.41827 2.39062 6.65792C2.83897 5.89756 3.47678 5.19925 4.22656 4.7839L9.56738 1.82394C10.2764 1.42703 11.1595 1.25014 12.001 1.24874C12.7388 1.24756 13.5081 1.38078 14.166 1.6755L14.4414 1.81222L14.4453 1.81417L19.7832 4.7839H19.7842C20.5341 5.19921 21.1717 5.89745 21.6201 6.65792C22.0685 7.41831 22.371 8.31369 22.3711 9.16964V14.82Z" fill="#1C252E"/>
</svg>
