<svg width="24" height="24" viewBox="0 0 24 24" fill="none" xmlns="http://www.w3.org/2000/svg">
<path d="M22.25 18C22.25 17.1507 21.9192 16.3787 21.377 15.7871L21.375 15.7842C21.2888 15.6894 21.2154 15.6192 21.1504 15.5703C21.1357 15.5593 21.1212 15.5472 21.1074 15.5352C20.5402 15.0408 19.8138 14.75 19 14.75C18.2385 14.75 17.5319 15.0172 16.9678 15.4668L16.9658 15.4678C16.2208 16.0591 15.75 16.9747 15.75 18C15.75 18.5333 15.8801 19.0396 16.1123 19.4814L16.2188 19.666L16.2334 19.6924C16.2637 19.7462 16.2986 19.8006 16.3379 19.8555L16.4697 20.0215L16.4775 20.0322C16.486 20.0408 16.4978 20.0532 16.5098 20.0664C16.52 20.0777 16.5299 20.0932 16.543 20.1094L16.5449 20.1084C17.1275 20.8043 18.0098 21.25 19 21.25C19.8226 21.25 20.5641 20.9497 21.1279 20.4424C21.1344 20.4365 21.1418 20.4314 21.1484 20.4258C21.3914 20.222 21.6055 19.9679 21.7725 19.6816L21.7812 19.666C22.0791 19.183 22.25 18.6094 22.25 18ZM23.75 18C23.75 18.8906 23.5007 19.7371 23.0586 20.4541L23.0576 20.4531C22.8105 20.8728 22.4949 21.2474 22.1309 21.5566C21.2947 22.3092 20.1973 22.75 19 22.75C17.5502 22.75 16.2519 22.0954 15.3945 21.0713C15.3927 21.0691 15.3914 21.0666 15.3896 21.0645C15.3816 21.0562 15.3709 21.0458 15.3604 21.0342C15.3512 21.024 15.3426 21.0102 15.3311 20.9961L15.3301 20.998C15.1919 20.8369 15.0584 20.6546 14.9424 20.4531C14.5003 19.7362 14.25 18.8906 14.25 18C14.25 16.5062 14.9384 15.1627 16.0322 14.2939L16.1885 14.1748C16.9783 13.5958 17.9515 13.25 19 13.25C20.1861 13.25 21.2601 13.6787 22.0928 14.4043C22.2485 14.5269 22.3813 14.661 22.4854 14.7754H22.4844C23.261 15.6236 23.75 16.7503 23.75 18Z" fill="#1C252E"/>
<path d="M18.25 19.5103V18.73H17.5098C17.0956 18.73 16.7598 18.3942 16.7598 17.98C16.7598 17.5658 17.0956 17.23 17.5098 17.23H18.25V16.52C18.25 16.1058 18.5858 15.77 19 15.77C19.4141 15.7701 19.75 16.1059 19.75 16.52V17.23H20.4902C20.9042 17.2302 21.2402 17.5659 21.2402 17.98C21.2402 18.394 20.9042 18.7297 20.4902 18.73H19.75V19.5103C19.7499 19.9243 19.414 20.2601 19 20.2603C18.5859 20.2603 18.2501 19.9244 18.25 19.5103Z" fill="#1C252E"/>
<path d="M2.52089 7.06398C2.72839 6.70556 3.18781 6.58309 3.54628 6.79054L11.9994 11.6831L20.3939 6.82082C20.7524 6.6132 21.2117 6.73583 21.4193 7.09425C21.6268 7.45265 21.5042 7.91109 21.1459 8.11867L12.3764 13.1987C12.1439 13.3334 11.8569 13.3333 11.6244 13.1987L2.79433 8.08937C2.43591 7.88187 2.31344 7.42245 2.52089 7.06398Z" fill="#1C252E"/>
<path d="M11.25 21.6102V12.5399C11.25 12.1257 11.5858 11.7899 12 11.7899C12.4142 11.7899 12.75 12.1257 12.75 12.5399V21.6102C12.7498 22.0243 12.4141 22.3602 12 22.3602C11.5859 22.3602 11.2502 22.0243 11.25 21.6102Z" fill="#1C252E"/>
<path d="M20.8604 9.16992C20.8603 8.64604 20.6674 8.01184 20.3184 7.41992C19.9693 6.82799 19.5068 6.35039 19.0469 6.0957L13.707 3.13574L13.7031 3.13379C13.2729 2.89237 12.6579 2.75005 12.001 2.75C11.3438 2.75 10.7282 2.89226 10.2979 3.13379L10.2939 3.13574L4.9541 6.0957C4.49414 6.35039 4.03165 6.82799 3.68262 7.41992C3.33367 8.01181 3.14064 8.64608 3.14062 9.16992V14.8301C3.14064 15.3539 3.33367 15.9882 3.68262 16.5801C3.98793 17.0979 4.38004 17.5278 4.78125 17.7979L4.9541 17.9043L10.2939 20.8643L10.2979 20.8662C10.7282 21.1077 11.3438 21.25 12.001 21.25C12.6579 21.2499 13.2729 21.1076 13.7031 20.8662L13.708 20.8633L14.8242 20.2471C14.457 19.5762 14.251 18.8068 14.251 18C14.251 16.5056 14.9396 15.1617 16.0342 14.293C16.85 13.643 17.8829 13.25 19.001 13.25C19.6632 13.25 20.2906 13.3835 20.8604 13.6279V9.16992ZM22.3604 14.8301C22.3604 14.8766 22.3623 14.9855 22.3359 15.1172C22.2835 15.3792 22.0957 15.5934 21.8428 15.6797C21.5897 15.7659 21.309 15.7108 21.1074 15.5352C20.5403 15.0411 19.8145 14.7501 19.001 14.75C18.2394 14.75 17.5319 15.0172 16.9678 15.4668L16.9668 15.4678C16.2217 16.0591 15.751 16.9746 15.751 18C15.751 18.6092 15.921 19.1831 16.2188 19.666C16.224 19.6746 16.2294 19.6836 16.2344 19.6924C16.295 19.8001 16.3741 19.9098 16.4697 20.0215C16.6165 20.1928 16.6788 20.4216 16.6387 20.6436C16.5985 20.8655 16.4602 21.058 16.2627 21.167L14.4326 22.1768L14.4316 22.1758C13.723 22.572 12.8415 22.75 12.001 22.75C11.1582 22.75 10.2732 22.5722 9.56348 22.1738V22.1729L4.22656 19.2158V19.2148C3.47701 18.7995 2.83886 18.102 2.39062 17.3418C1.94234 16.5814 1.64063 15.686 1.64062 14.8301V9.16992C1.64064 8.31403 1.94234 7.41859 2.39062 6.6582C2.83895 5.89788 3.47682 5.19954 4.22656 4.78418L9.56738 1.82422C10.2764 1.42728 11.1597 1.25 12.001 1.25C12.8423 1.25005 13.7246 1.42823 14.4336 1.8252L14.4346 1.82422L19.7744 4.78418C20.5242 5.19952 21.162 5.89781 21.6104 6.6582C22.0587 7.41861 22.3603 8.31399 22.3604 9.16992V14.8301Z" fill="#1C252E"/>
</svg>
