<svg width="24" height="24" viewBox="0 0 24 24" fill="none" xmlns="http://www.w3.org/2000/svg">
<path d="M21.25 9C21.25 6.57397 20.7603 5.0708 19.8447 4.15527C18.9292 3.23974 17.426 2.75 15 2.75H9C6.57397 2.75 5.0708 3.23974 4.15527 4.15527C3.23974 5.0708 2.75 6.57397 2.75 9V15C2.75 17.426 3.23974 18.9292 4.15527 19.8447C5.0708 20.7603 6.57397 21.25 9 21.25H15C17.426 21.25 18.9292 20.7603 19.8447 19.8447C20.7603 18.9292 21.25 17.426 21.25 15V9ZM22.75 15C22.75 17.574 22.2397 19.5708 20.9053 20.9053C19.5708 22.2397 17.574 22.75 15 22.75H9C6.42603 22.75 4.4292 22.2397 3.09473 20.9053C1.76026 19.5708 1.25 17.574 1.25 15V9C1.25 6.42603 1.76026 4.4292 3.09473 3.09473C4.4292 1.76026 6.42603 1.25 9 1.25H15C17.574 1.25 19.5708 1.76026 20.9053 3.09473C22.2397 4.4292 22.75 6.42603 22.75 9V15Z" fill="#1C252E"/>
<path d="M6.05215 8.88403C6.25974 8.52565 6.71914 8.40309 7.07754 8.61059L12.0004 11.4622L16.8852 8.6311C17.2435 8.42334 17.7027 8.54531 17.9106 8.90356C18.1183 9.26184 17.9963 9.72113 17.6381 9.92895L12.3773 12.9788C12.1448 13.1134 11.8579 13.1134 11.6254 12.9788L6.32559 9.90942C5.96721 9.70183 5.84465 9.24243 6.05215 8.88403Z" fill="#1C252E"/>
<path d="M11.252 17.7702V12.32C11.252 11.9058 11.5877 11.57 12.002 11.57C12.4162 11.57 12.752 11.9058 12.752 12.32V17.7702C12.7518 18.1843 12.4161 18.5202 12.002 18.5202C11.5878 18.5202 11.2521 18.1843 11.252 17.7702Z" fill="#1C252E"/>
<path d="M17.0205 10.3C17.0205 10.0496 16.926 9.71968 16.7373 9.3986C16.5485 9.07743 16.3075 8.83721 16.0898 8.71794L16.0859 8.71501L12.8857 6.93571C12.6787 6.82266 12.3603 6.74532 12.0039 6.74626C11.6452 6.74726 11.332 6.82703 11.1338 6.9406L7.9248 8.72575C7.70957 8.84533 7.46711 9.0875 7.27637 9.41032C7.08571 9.73305 6.99031 10.0619 6.99023 10.3097V13.7004C6.99032 13.9507 7.08481 14.2808 7.27344 14.6017C7.43853 14.8825 7.64354 15.1013 7.83789 15.2316L7.9209 15.2824L7.9248 15.2843L11.125 17.0646L11.126 17.0656C11.3257 17.1772 11.6416 17.2551 12.002 17.2551C12.3166 17.255 12.6008 17.195 12.8057 17.1037L12.8887 17.0627L16.0859 15.2843L16.168 15.2336C16.3611 15.1027 16.5675 14.8822 16.7344 14.5998C16.925 14.2771 17.0204 13.9482 17.0205 13.7004V10.3ZM18.5205 13.7004C18.5204 14.2823 18.3155 14.873 18.0264 15.3625C17.7371 15.8521 17.3192 16.3155 16.8145 16.5959L13.6152 18.3752L13.6123 18.3771C13.1295 18.643 12.5446 18.755 12.002 18.7551C11.4599 18.7551 10.8748 18.6435 10.3945 18.3752L7.19531 16.5959C6.68513 16.3149 6.26729 15.8512 5.97949 15.3615C5.69076 14.8702 5.49031 14.2799 5.49023 13.7004V10.3097C5.4903 9.72778 5.69525 9.13714 5.98438 8.64763C6.27354 8.15816 6.69078 7.69467 7.19531 7.41423L10.3955 5.63493C10.8757 5.36189 11.4585 5.24781 11.999 5.24626C12.4753 5.24494 12.9836 5.33067 13.4268 5.53044L13.6123 5.62321L13.6152 5.62419L16.8145 7.40446C17.3253 7.68534 17.7422 8.14865 18.0303 8.63884C18.319 9.13023 18.5205 9.72037 18.5205 10.3V13.7004Z" fill="#1C252E"/>
</svg>
