<svg width="24" height="24" viewBox="0 0 24 24" fill="none" xmlns="http://www.w3.org/2000/svg">
<path d="M2.52089 7.06404C2.72839 6.70562 3.18781 6.58315 3.54628 6.7906L11.9994 11.6832L20.3939 6.82088C20.7524 6.61326 21.2117 6.73589 21.4193 7.09431C21.6268 7.45271 21.5042 7.91115 21.1459 8.11873L12.3764 13.1988C12.1439 13.3334 11.8569 13.3333 11.6244 13.1988L2.79433 8.08943C2.43591 7.88193 2.31344 7.42251 2.52089 7.06404Z" fill="#1C252E"/>
<path d="M11.25 21.6103V12.54C11.25 12.1258 11.5858 11.79 12 11.79C12.4142 11.79 12.75 12.1258 12.75 12.54V21.6103C12.7498 22.0244 12.4141 22.3603 12 22.3603C11.5859 22.3603 11.2502 22.0244 11.25 21.6103Z" fill="#1C252E"/>
<path d="M20.8711 9.17969C20.871 8.6558 20.6771 8.02156 20.3281 7.42969C19.9792 6.83795 19.5174 6.36117 19.0576 6.10645L19.0557 6.10547L13.7158 3.13574C13.2792 2.89274 12.6602 2.75001 12.002 2.75C11.3435 2.75 10.7281 2.8923 10.2979 3.13379L10.2949 3.13574L4.95508 6.10547L4.9541 6.10645C4.49414 6.36113 4.03165 6.83775 3.68262 7.42969C3.33366 8.02153 3.1407 8.65584 3.14062 9.17969V14.8301C3.14064 15.3539 3.33368 15.9882 3.68262 16.5801C4.03165 17.172 4.49414 17.6496 4.9541 17.9043H4.95508L10.293 20.874L10.4639 20.958C10.8801 21.1444 11.4266 21.2529 12.0059 21.2529C12.6677 21.2529 13.287 21.112 13.7178 20.874L19.0557 17.9043H19.0576C19.5176 17.6496 19.9791 17.172 20.3281 16.5801C20.6771 15.9881 20.8711 15.354 20.8711 14.8301V9.17969ZM22.3711 14.8301C22.3711 15.6861 22.0685 16.5814 21.6201 17.3418C21.1718 18.1021 20.5339 18.7995 19.7842 19.2148L19.7852 19.2158L14.4453 22.1855L14.1699 22.3232C13.5138 22.6192 12.7434 22.7529 12.0059 22.7529C11.163 22.7529 10.2765 22.5784 9.56738 22.1865L9.56641 22.1855L4.22559 19.2158V19.2148C3.47635 18.7994 2.83871 18.1017 2.39062 17.3418C1.94234 16.5814 1.64063 15.686 1.64062 14.8301V9.17969C1.6407 8.3238 1.94232 7.42832 2.39062 6.66797C2.83908 5.90741 3.4775 5.20926 4.22754 4.79395L9.56641 1.82422V1.8252C10.2757 1.42776 11.1591 1.25 12.002 1.25C12.8461 1.25001 13.732 1.42732 14.4453 1.82422L19.7832 4.79395H19.7842C20.5341 5.20927 21.1717 5.90749 21.6201 6.66797C22.0685 7.42836 22.371 8.32373 22.3711 9.17969V14.8301Z" fill="#1C252E"/>
<path d="M16.2501 13.2396V10.0131L7.13482 4.74938C6.77612 4.54225 6.65327 4.08367 6.86041 3.72497C7.06754 3.36627 7.52612 3.24342 7.88482 3.45055L17.3751 8.93005C17.6071 9.06403 17.7501 9.31251 17.7501 9.58044V13.2396C17.7501 13.6537 17.4142 13.9895 17.0001 13.9896C16.5858 13.9896 16.2501 13.6538 16.2501 13.2396Z" fill="#1C252E"/>
</svg>
