<svg width="24" height="24" viewBox="0 0 24 24" fill="none" xmlns="http://www.w3.org/2000/svg">
<path d="M18.8947 13.2509C21.5173 13.1923 23.689 15.2678 23.7502 17.8896L23.7473 18.2245C23.7118 18.9913 23.4839 19.7133 23.1154 20.3437C22.8741 20.778 22.5532 21.1692 22.1994 21.4892L22.2004 21.4902C21.3789 22.252 20.2961 22.7145 19.1027 22.7499H19.0959C17.369 22.7854 15.8381 21.899 14.9904 20.5351L14.9894 20.5361C14.5368 19.8332 14.2621 18.9865 14.2502 18.0898L14.2512 18.0888C14.2184 16.5946 14.8838 15.2423 15.9504 14.3534L15.9533 14.3515C16.7542 13.6919 17.7742 13.2749 18.8937 13.2509H18.8947ZM18.926 14.7499C18.166 14.7662 17.4662 15.0486 16.9074 15.5087C16.2235 16.08 15.7835 16.9272 15.7512 17.872L15.7502 18.0624V18.0702C15.7573 18.5981 15.9003 19.1033 16.1418 19.5409L16.2512 19.7236L16.259 19.7363C16.8319 20.6639 17.8733 21.2711 19.0588 21.249C19.8847 21.2242 20.6216 20.9082 21.1799 20.3906L21.1887 20.3827C21.4315 20.1642 21.648 19.8984 21.8049 19.6161L21.8146 19.5986C22.1066 19.1037 22.2662 18.5316 22.2502 17.9296V17.9267C22.2107 16.1869 20.8145 14.7982 19.0949 14.7499H18.926Z" fill="#1C252E"/>
<path d="M20.0187 16.4309C20.3165 16.1431 20.7914 16.1507 21.0792 16.4485C21.367 16.7463 21.3584 17.2212 21.0607 17.509L18.9708 19.5295C18.6819 19.8087 18.224 19.8102 17.9327 19.5334L16.923 18.5735C16.6228 18.2881 16.6103 17.8131 16.8956 17.5129C17.181 17.2127 17.6559 17.2012 17.9562 17.4866L18.4444 17.9514L20.0187 16.4309Z" fill="#1C252E"/>
<path d="M2.52089 7.06404C2.72839 6.70562 3.18781 6.58315 3.54628 6.7906L11.9994 11.6832L20.3939 6.82088C20.7524 6.61326 21.2117 6.73589 21.4193 7.09431C21.6268 7.45271 21.5042 7.91115 21.1459 8.11873L12.3764 13.1988C12.1439 13.3334 11.8569 13.3333 11.6244 13.1988L2.79433 8.08943C2.43591 7.88193 2.31344 7.42251 2.52089 7.06404Z" fill="#1C252E"/>
<path d="M11.25 21.6103V12.54C11.25 12.1258 11.5858 11.79 12 11.79C12.4142 11.79 12.75 12.1258 12.75 12.54V21.6103C12.7498 22.0244 12.4141 22.3603 12 22.3603C11.5859 22.3603 11.2502 22.0244 11.25 21.6103Z" fill="#1C252E"/>
<path d="M20.8604 9.16992C20.8603 8.64605 20.6673 8.01184 20.3184 7.41992C19.9693 6.82799 19.5068 6.35039 19.0469 6.0957L13.707 3.13574L13.7031 3.13379C13.2729 2.89237 12.6579 2.75005 12.001 2.75C11.3438 2.75 10.7282 2.89226 10.2979 3.13379L10.2939 3.13574L4.9541 6.0957C4.49414 6.35039 4.03165 6.82799 3.68262 7.41992C3.33367 8.01181 3.14064 8.64608 3.14062 9.16992V14.8301C3.14064 15.3539 3.33368 15.9882 3.68262 16.5801C3.98793 17.0979 4.38004 17.5278 4.78125 17.7979L4.9541 17.9043L10.2939 20.8643L10.2979 20.8662C10.7282 21.1077 11.3438 21.25 12.001 21.25C12.6579 21.2499 13.2729 21.1076 13.7031 20.8662L13.708 20.8633L14.8242 20.2471C14.457 19.5762 14.251 18.8068 14.251 18C14.251 16.5056 14.9396 15.1617 16.0342 14.293C16.85 13.643 17.8829 13.25 19.001 13.25C19.6632 13.25 20.2906 13.3835 20.8604 13.6279V9.16992ZM22.3604 14.8301C22.3604 14.8763 22.3623 14.9854 22.3359 15.1172C22.2835 15.3792 22.0957 15.5934 21.8428 15.6797C21.5897 15.7659 21.309 15.7108 21.1074 15.5352C20.5403 15.0411 19.8145 14.7501 19.001 14.75C18.2394 14.75 17.5319 15.0172 16.9678 15.4668L16.9668 15.4678C16.2217 16.0591 15.751 16.9746 15.751 18C15.751 18.6092 15.921 19.1831 16.2188 19.666C16.224 19.6746 16.2294 19.6836 16.2344 19.6924C16.295 19.8001 16.374 19.9098 16.4697 20.0215C16.6165 20.1928 16.6788 20.4216 16.6387 20.6436C16.5985 20.8655 16.4602 21.058 16.2627 21.167L14.4326 22.1768L14.4316 22.1758C13.723 22.572 12.8415 22.7499 12.001 22.75C11.1582 22.75 10.2732 22.5722 9.56348 22.1738V22.1729L4.22656 19.2158V19.2148C3.477 18.7995 2.83886 18.102 2.39062 17.3418C1.94234 16.5814 1.64063 15.686 1.64062 14.8301V9.16992C1.64064 8.31403 1.94234 7.41859 2.39062 6.6582C2.83895 5.89788 3.47682 5.19954 4.22656 4.78418L9.56738 1.82422C10.2764 1.42728 11.1597 1.25 12.001 1.25C12.8423 1.25005 13.7246 1.42822 14.4336 1.8252L14.4346 1.82422L19.7744 4.78418C20.5242 5.19952 21.162 5.89781 21.6104 6.6582C22.0587 7.41861 22.3603 8.31399 22.3604 9.16992V14.8301Z" fill="#1C252E"/>
</svg>
