<svg width="24" height="24" viewBox="0 0 24 24" fill="none" xmlns="http://www.w3.org/2000/svg">
<path d="M6 2H18C19.1 2 20 2.9 20 4V8.32001H4V4C4 2.9 4.9 2 6 2Z" stroke="#1C252E" stroke-width="1.5" stroke-linecap="round" stroke-linejoin="round"/>
<path d="M4 8.32007H20.02V11.8801C20.02 12.9601 19.43 13.9601 18.49 14.4901L15.53 16.16C14.9 16.51 14.51 17.1801 14.51 17.9001V20.0001C14.51 21.1001 13.61 22.0001 12.51 22.0001H11.51C10.41 22.0001 9.51001 21.1001 9.51001 20.0001V17.9001C9.51001 17.1801 9.11999 16.51 8.48999 16.16L5.53003 14.4901C4.58003 13.9601 4 12.9601 4 11.8801" stroke="#1C252E" stroke-width="1.5" stroke-linecap="round" stroke-linejoin="round"/>
</svg>
