<svg width="24" height="24" viewBox="0 0 24 24" fill="none" xmlns="http://www.w3.org/2000/svg">
<path d="M16.7502 9.11998L14.9002 7.26998C14.2002 6.56998 13.2402 6.60998 12.7702 7.34998L11.7402 8.97998L15.0302 12.27L16.6602 11.24C17.3702 10.8 17.4102 9.76998 16.7502 9.11998Z" stroke="#1C252E" stroke-width="1.5" stroke-linecap="round" stroke-linejoin="round"/>
<path d="M11.74 8.98005L9.34996 8.84005C8.00996 8.76005 7.54996 9.17005 7.39996 10.44L6.79996 15.51C6.66996 16.58 7.43996 17.34 8.50996 17.22L13.58 16.62C14.85 16.47 15.31 16.01 15.18 14.67L15.04 12.28" stroke="#1C252E" stroke-width="1.5" stroke-linecap="round" stroke-linejoin="round"/>
<path d="M7.49023 16.52L9.34023 14.67" stroke="#1C252E" stroke-width="1.5" stroke-linecap="round" stroke-linejoin="round"/>
<path d="M2 9C2 4 4 2 9 2H15C20 2 22 4 22 9V15C22 20 20 22 15 22H9C4 22 2 20 2 15" stroke="#1C252E" stroke-width="1.5" stroke-linecap="round" stroke-linejoin="round"/>
</svg>
