<svg width="24" height="24" viewBox="0 0 24 24" fill="none" xmlns="http://www.w3.org/2000/svg">
<path d="M10.3799 17.3799H13.6099C16.2999 17.3799 17.3799 16.2999 17.3799 13.6099V10.3799C17.3799 7.68988 16.3099 6.61986 13.6099 6.60986H10.3799C7.68986 6.60986 6.60986 7.68988 6.60986 10.3799V13.6099" stroke="#1C252E" stroke-width="1.5" stroke-linecap="round" stroke-linejoin="round"/>
<path d="M22 5.76999V9C22 11.69 20.92 12.77 18.23 12.77H17.38V10.39C17.38 7.70001 16.3 6.62 13.61 6.62H11.23V5.76999C11.23 3.07999 12.31 2 15 2H18.23C20.92 2 22 3.07999 22 5.76999Z" stroke="#1C252E" stroke-width="1.5" stroke-linecap="round" stroke-linejoin="round"/>
<path d="M6.62 11.23H5.77C3.08 11.23 2 12.31 2 15V18.23C2 20.92 3.08 22 5.77 22H9C11.69 22 12.77 20.92 12.77 18.23V17.38" stroke="#1C252E" stroke-width="1.5" stroke-linecap="round" stroke-linejoin="round"/>
</svg>
