<svg width="24" height="24" viewBox="0 0 24 24" fill="none" xmlns="http://www.w3.org/2000/svg">
<path d="M4.62985 7.21L2.29985 11.45C1.41985 13.05 2.57985 15 4.39985 15H13.4298C15.2498 15 16.4098 13.05 15.5298 11.45L14.2498 9.12001L13.1998 7.21L11.0098 3.24C10.0998 1.59 7.71985 1.59 6.80985 3.24" stroke="#1C252E" stroke-width="1.5" stroke-linecap="round" stroke-linejoin="round"/>
<path d="M22 15.5C22 19.09 19.09 22 15.5 22C11.91 22 9 19.09 9 15.5C9 15.33 9.01 15.17 9.02 15H13.43C15.25 15 16.41 13.05 15.53 11.45L14.25 9.12C14.65 9.04 15.07 9 15.5 9C19.09 9 22 11.91 22 15.5Z" stroke="#1C252E" stroke-width="1.5" stroke-linecap="round" stroke-linejoin="round"/>
</svg>
