<svg width="24" height="24" viewBox="0 0 24 24" fill="none" xmlns="http://www.w3.org/2000/svg">
<path d="M2 9C2 4 4 2 9 2H15C20 2 22 4 22 9V15C22 20 20 22 15 22H9C4 22 2 20 2 15" stroke="#1C252E" stroke-width="1.5" stroke-linecap="round" stroke-linejoin="round"/>
<path d="M17 16.75H13.9L15.52 14.96C16.32 14.07 16.76 12.94 16.76 11.78C16.76 10.58 16.26 9.43002 15.37 8.58002C14.48 7.73002 13.27 7.25 12 7.25C10.74 7.25 9.53 7.73002 8.63 8.58002C7.74 9.43002 7.23999 10.58 7.23999 11.78C7.23999 12.95 7.67998 14.08 8.47998 14.96L10.1 16.75H7" stroke="#1C252E" stroke-width="1.5" stroke-linecap="round" stroke-linejoin="round"/>
</svg>
