<svg width="24" height="24" viewBox="0 0 24 24" fill="none" xmlns="http://www.w3.org/2000/svg">
<path d="M2 17.1C2 20.6 3.4 22 6.9 22H11.1C14.6 22 16 20.6 16 17.1V12.9C16 9.4 14.6 8 11.1 8H6.9C3.4 8 2 9.4 2 12.9" stroke="#1C252E" stroke-width="1.5" stroke-linecap="round" stroke-linejoin="round"/>
<path d="M19.5 2.32348C18.8454 2.10316 18.0501 2 17.1 2H12.9C9.4 2 8 3.4 8 6.9V8H11.1C14.6 8 16 9.4 16 12.9V16H17.1C20.6 16 22 14.6 22 11.1V6.9C22 6.17978 21.9407 5.54848 21.8161 5" stroke="#1C252E" stroke-width="1.5" stroke-linecap="round" stroke-linejoin="round"/>
</svg>
