<svg width="24" height="24" viewBox="0 0 24 24" fill="none" xmlns="http://www.w3.org/2000/svg">
<g clip-path="url(#clip0_167_894)">
<path d="M18.4601 7.79003C20.8901 10.22 20.4001 11.51 18.4601 13.45L12.8901 19.02C10.4901 21.41 9.66011 21.45 7.23011 19.02L3.77011 15.56C1.18011 12.97 1.38011 12.3 3.77011 9.90002L9.34011 4.33003C11.2801 2.39003 12.4101 1.74003 15.0001 4.33003" stroke="#1C252E" stroke-width="1.5" stroke-linecap="round" stroke-linejoin="round"/>
<path d="M19.2 16.79L18.54 17.88C17.61 19.43 18.33 20.7 20.14 20.7C21.95 20.7 22.67 19.43 21.74 17.88L21.08 16.79C20.56 15.93 19.71 15.93 19.2 16.79Z" stroke="#1C252E" stroke-width="1.5" stroke-linecap="round" stroke-linejoin="round"/>
<path d="M2 12.24C7.56 10.73 13.42 10.68 19 12.11L19.5 12.24" stroke="#1C252E" stroke-width="1.5" stroke-linecap="round" stroke-linejoin="round"/>
</g>
<defs>
<clipPath id="clip0_167_894">
<rect width="24" height="24" fill="white"/>
</clipPath>
</defs>
</svg>
