<svg width="24" height="24" viewBox="0 0 24 24" fill="none" xmlns="http://www.w3.org/2000/svg">
<path d="M13.725 7.27497L15 6L16.4999 4.5C17.3299 3.67 18.6699 3.67 19.4999 4.5C20.3299 5.33 20.3299 6.67 19.4999 7.5L6.49994 20.5C5.66994 21.33 4.32994 21.33 3.49994 20.5C2.66994 19.67 2.66994 18.33 3.49994 17.5L11 10" stroke="#1C252E" stroke-width="1.5" stroke-linecap="round" stroke-linejoin="round"/>
<path d="M18.0098 8.98999L15.0098 5.98999" stroke="#1C252E" stroke-width="1.5" stroke-linecap="round" stroke-linejoin="round"/>
<path d="M8.5 2.44L7 2L7.44 3.5L7 5L8.5 4.56L10 5L9.56 3.5" stroke="#1C252E" stroke-linecap="round" stroke-linejoin="round"/>
<path d="M4.5 8.44L6 8L5.56 9.5L6 11L4.5 10.56L3 11L3.44 9.5L3 8L4.5 8.44Z" stroke="#1C252E" stroke-linecap="round" stroke-linejoin="round"/>
<path d="M19.5 15.56L21 16L20.56 14.5L21 13L19.5 13.44L18 13L18.44 14.5" stroke="#1C252E" stroke-linecap="round" stroke-linejoin="round"/>
</svg>
