<svg width="24" height="24" viewBox="0 0 24 24" fill="none" xmlns="http://www.w3.org/2000/svg">
<path d="M6.62479 11.565L4.49979 16.39C3.13979 19.47 3.97979 22 8.15979 22H15.8298C19.9698 22 20.8498 19.48 19.4998 16.4L15.2798 6.74H15.4398C16.5498 6.74 17.5898 6.03 17.8598 4.95C18.0698 4.08 17.7898 3.26 17.2298 2.7C16.7998 2.27 16.2098 2 15.5498 2H8.43979C7.12979 2 6.06979 3.07 6.06979 4.37C6.06979 5.02 6.32979 5.62 6.76979 6.05C7.19979 6.48 7.79979 6.74 8.44979 6.74H8.74979L8.19487 8" stroke="#1C252E" stroke-width="1.5" stroke-linecap="round" stroke-linejoin="round"/>
<path d="M5.93994 13.12C5.93994 13.12 8.99994 13 11.9999 14C14.9999 15 17.8299 13.11 17.8299 13.11" stroke="#1C252E" stroke-width="1.5" stroke-linecap="round" stroke-linejoin="round"/>
</svg>
