<svg width="24" height="24" viewBox="0 0 24 24" fill="none" xmlns="http://www.w3.org/2000/svg">
<path d="M9 2C12.55 2 15.48 4.64 15.93 8.07C15.98 8.37 16 8.68 16 9C16 12.87 12.87 16 9 16C8.68 16 8.37 15.98 8.07 15.93C4.64 15.48 2 12.55 2 9C2 7.04004 2.80281 5.26989 4.09798 4" stroke="#1C252E" stroke-width="1.5" stroke-linecap="round" stroke-linejoin="round"/>
<path d="M22.0003 14.9998C22.0003 18.8698 18.8703 21.9998 15.0003 21.9998C11.4503 21.9998 8.52031 19.3598 8.07031 15.9298C8.37031 15.9798 8.68031 15.9998 9.00031 15.9998C12.8703 15.9998 16.0003 12.8698 16.0003 8.99982C16.0003 8.67982 15.9803 8.36982 15.9303 8.06982C19.3603 8.51982 22.0003 11.4498 22.0003 14.9998Z" stroke="#1C252E" stroke-width="1.5" stroke-linecap="round" stroke-linejoin="round"/>
<path d="M14.1504 14.1201L15.4604 15.4101" stroke="#1C252E" stroke-width="1.5" stroke-linecap="round" stroke-linejoin="round"/>
<path d="M17 12L16 11" stroke="#1C252E" stroke-width="1.5" stroke-linecap="round" stroke-linejoin="round"/>
<path d="M12 17L11 16" stroke="#1C252E" stroke-width="1.5" stroke-linecap="round" stroke-linejoin="round"/>
</svg>
