<svg width="24" height="24" viewBox="0 0 24 24" fill="none" xmlns="http://www.w3.org/2000/svg">
<path d="M10.7507 4.64L6.3207 2.45C3.9307 1.28 1.9707 2.47 1.9707 5.09V19.93C1.9707 21.07 2.9207 22 4.0807 22H11.5007C12.0507 22 12.5007 21.55 12.5007 21V7.41C12.5007 6.36 11.7107 5.11 10.7507 4.64ZM8.9707 13.75H5.5007C5.0907 13.75 4.7507 13.41 4.7507 13C4.7507 12.59 5.0907 12.25 5.5007 12.25H8.9707C9.3807 12.25 9.7207 12.59 9.7207 13C9.7207 13.41 9.3907 13.75 8.9707 13.75ZM8.9707 9.75H5.5007C5.0907 9.75 4.7507 9.41 4.7507 9C4.7507 8.59 5.0907 8.25 5.5007 8.25H8.9707C9.3807 8.25 9.7207 8.59 9.7207 9C9.7207 9.41 9.3907 9.75 8.9707 9.75Z" fill="#1C252E"/>
<path d="M22 18.04V19.5C22 20.88 20.88 22 19.5 22H14.97C14.43 22 14 21.57 14 21.03V18.87C15.07 19 16.2 18.69 17.01 18.04C17.69 18.59 18.56 18.92 19.51 18.92C20.44 18.92 21.31 18.59 22 18.04Z" fill="#1C252E"/>
<path d="M22 15.05V15.06C21.92 16.37 20.85 17.42 19.51 17.42C18.12 17.42 17.01 16.29 17.01 14.92C17.01 16.45 15.6 17.68 14 17.37V12C14 11.36 14.59 10.88 15.22 11.02L17.01 11.42L17.49 11.53L19.53 11.99C20.02 12.09 20.47 12.26 20.86 12.51C20.86 12.52 20.87 12.52 20.87 12.52C20.97 12.59 21.07 12.67 21.16 12.76C21.62 13.22 21.92 13.89 21.99 14.87C21.99 14.93 22 14.99 22 15.05Z" fill="#1C252E"/>
</svg>
