<svg width="24" height="24" viewBox="0 0 24 24" fill="none" xmlns="http://www.w3.org/2000/svg">
<path d="M11.3196 3H5.08961C3.09961 3 2.09961 4.01 2.09961 6.02V22H7.49961V18.25C7.49961 17.84 7.83961 17.5 8.24961 17.5C8.65961 17.5 8.99961 17.83 8.99961 18.25V22H14.2996V6.02C14.2996 4.01 13.3096 3 11.3196 3ZM10.7496 12.75H5.79961C5.38961 12.75 5.04961 12.41 5.04961 12C5.04961 11.59 5.38961 11.25 5.79961 11.25H10.7496C11.1596 11.25 11.4996 11.59 11.4996 12C11.4996 12.41 11.1596 12.75 10.7496 12.75ZM10.7496 9H5.79961C5.38961 9 5.04961 8.66 5.04961 8.25C5.04961 7.84 5.38961 7.5 5.79961 7.5H10.7496C11.1596 7.5 11.4996 7.84 11.4996 8.25C11.4996 8.66 11.1596 9 10.7496 9Z" fill="#1C252E"/>
<path d="M23 21.25H20.73V18.25C21.68 17.94 22.37 17.05 22.37 16V14C22.37 12.69 21.3 11.62 19.99 11.62C18.68 11.62 17.61 12.69 17.61 14V16C17.61 17.04 18.29 17.92 19.22 18.24V21.25H1C0.59 21.25 0.25 21.59 0.25 22C0.25 22.41 0.59 22.75 1 22.75H19.93C19.95 22.75 19.96 22.76 19.98 22.76C20 22.76 20.01 22.75 20.03 22.75H23C23.41 22.75 23.75 22.41 23.75 22C23.75 21.59 23.41 21.25 23 21.25Z" fill="#1C252E"/>
</svg>
