<svg width="24" height="24" viewBox="0 0 24 24" fill="none" xmlns="http://www.w3.org/2000/svg">
<path d="M9 10C10.1046 10 11 9.10457 11 8C11 6.89543 10.1046 6 9 6C7.89543 6 7 6.89543 7 8C7 9.10457 7.89543 10 9 10Z" stroke="#1C252E" stroke-width="1.5" stroke-linecap="round" stroke-linejoin="round"/>
<path d="M12 2H9C4 2 2 4 2 9V15C2 20 4 22 9 22H15C20 22 22 20 22 15V11" stroke="#1C252E" stroke-width="1.5" stroke-linecap="round" stroke-linejoin="round"/>
<path d="M18.945 7.7301C18.892 7.7301 18.8418 7.70599 18.8078 7.66426C18.2931 7.03285 17.7721 6.5579 17.3124 6.13886C16.5174 5.41411 15.8894 4.84166 15.8894 3.94898C15.8894 3.48941 16.0478 3.06093 16.3355 2.74249C16.6339 2.41207 17.0477 2.2301 17.5007 2.2301C18.0056 2.2301 18.4465 2.47716 18.776 2.94455C18.8432 3.03987 18.8991 3.13509 18.945 3.22311C18.9908 3.13509 19.0467 3.03987 19.1139 2.94455C19.4434 2.47716 19.8844 2.2301 20.3892 2.2301C20.8422 2.2301 21.256 2.41207 21.5545 2.74249C21.8421 3.06093 22.0005 3.48941 22.0005 3.94898C22.0005 4.84166 21.3725 5.4141 20.5775 6.13885C20.1178 6.55789 19.5968 7.03284 19.0822 7.66425C19.0481 7.70599 18.9979 7.7301 18.945 7.7301Z" stroke="#1C252E" stroke-width="1.5"/>
<path d="M2.67004 18.9501L7.60004 15.6401C8.39004 15.1101 9.53004 15.1701 10.24 15.7801L10.57 16.0701C11.35 16.7401 12.61 16.7401 13.39 16.0701L17.55 12.5001C18.33 11.8301 19.59 11.8301 20.37 12.5001L22 13.9001" stroke="#1C252E" stroke-width="1.5" stroke-linecap="round" stroke-linejoin="round"/>
</svg>
