<svg width="24" height="24" viewBox="0 0 24 24" fill="none" xmlns="http://www.w3.org/2000/svg">
<path d="M22 10V9C22 4 20 2 15 2H9C4 2 2 4 2 9V15C2 20 4 22 9 22H11" stroke="#1C252E" stroke-width="1.5" stroke-linecap="round" stroke-linejoin="round"/>
<path d="M15.27 21.9996C16.0652 21.9996 16.71 21.3549 16.71 20.5596C16.71 19.7643 16.0652 19.1196 15.27 19.1196C14.4747 19.1196 13.83 19.7643 13.83 20.5596C13.83 21.3549 14.4747 21.9996 15.27 21.9996Z" stroke="#1C252E" stroke-width="1.5" stroke-linecap="round" stroke-linejoin="round"/>
<path d="M22 19.5998V13.9599C22 12.7599 21.2499 12.5898 20.4799 12.7998L17.59 13.5899C17.07 13.7299 16.7 14.1498 16.7 14.7498V15.7598V16.4398V20.5698" stroke="#1C252E" stroke-width="1.5" stroke-linecap="round" stroke-linejoin="round"/>
<path d="M20.56 21.0397C21.3553 21.0397 22 20.395 22 19.5997C22 18.8044 21.3553 18.1597 20.56 18.1597C19.7647 18.1597 19.12 18.8044 19.12 19.5997C19.12 20.395 19.7647 21.0397 20.56 21.0397Z" stroke="#1C252E" stroke-width="1.5" stroke-linecap="round" stroke-linejoin="round"/>
<path d="M16.71 16.4297L22 14.9897" stroke="#1C252E" stroke-width="1.5" stroke-linecap="round" stroke-linejoin="round"/>
</svg>
