<svg width="24" height="24" viewBox="0 0 24 24" fill="none" xmlns="http://www.w3.org/2000/svg">
<path d="M16.0313 13.089C16.0313 15.2442 14.2841 16.9914 12.1289 16.9914C12.056 16.9914 11.9837 16.9894 11.9118 16.9855M14.593 10.0627C13.9211 9.51497 13.0633 9.18652 12.1289 9.18652C9.97362 9.18652 8.22644 10.9337 8.22644 13.089C8.22644 14.0166 8.55009 14.8686 9.09063 15.5383" stroke="#1C252E" stroke-width="1.5" stroke-linecap="round"/>
<path d="M2.68323 22.1307L21.7741 3.03979" stroke="#1C252E" stroke-width="1.5" stroke-linecap="round"/>
<path d="M2.94527 19.5401L3.58475 19.1482H3.58475L2.94527 19.5401ZM21.0198 19.5401L20.3803 19.1482V19.1482L21.0198 19.5401ZM19.4094 21.1506L19.0175 20.5111V20.5111L19.4094 21.1506ZM3.34027 21.1753C3.6482 21.4523 4.12241 21.4273 4.39945 21.1194C4.67649 20.8114 4.65145 20.3372 4.34352 20.0602L3.84189 20.6177L3.34027 21.1753ZM18.968 6.22167C19.3569 6.36438 19.7878 6.16485 19.9305 5.776C20.0732 5.38715 19.8737 4.95623 19.4848 4.81351L19.2264 5.51759L18.968 6.22167ZM21.9451 6.9504C21.7491 6.58552 21.2943 6.44865 20.9295 6.64469C20.5646 6.84073 20.4277 7.29545 20.6237 7.66034L21.2844 7.30537L21.9451 6.9504ZM7.27371 21.0659C6.86032 21.0398 6.50404 21.3538 6.47793 21.7672C6.45182 22.1806 6.76578 22.5369 7.17917 22.563L7.22644 21.8145L7.27371 21.0659ZM21.7386 9.11677H20.9886V13.5767H21.7386H22.4886V9.11677H21.7386ZM13.446 21.8694V21.1194H10.5191V21.8694V22.6194H13.446V21.8694ZM2.22644 13.5767H2.97644V9.11677H2.22644H1.47644V13.5767H2.22644ZM16.3728 3.5767H15.6228V3.75092H16.3728H17.1228V3.5767H16.3728ZM7.59229 3.75092H8.34229V3.5767H7.59229H6.84229V3.75092H7.59229ZM7.59229 3.5767H8.34229C8.34229 3.04799 8.7709 2.61938 9.29961 2.61938V1.86938V1.11938C7.94247 1.11938 6.84229 2.21956 6.84229 3.5767H7.59229ZM14.6655 1.86938V2.61938C15.1942 2.61938 15.6228 3.04799 15.6228 3.5767H16.3728H17.1228C17.1228 2.21956 16.0226 1.11938 14.6655 1.11938V1.86938ZM6.05919 5.28402V6.03402C7.32011 6.03402 8.34229 5.01184 8.34229 3.75092H7.59229H6.84229C6.84229 4.18341 6.49169 4.53402 6.05919 4.53402V5.28402ZM2.22644 13.5767H1.47644C1.47644 15.159 1.47565 16.3983 1.56966 17.3871C1.66473 18.387 1.86202 19.2078 2.30579 19.932L2.94527 19.5401L3.58475 19.1482C3.30969 18.6994 3.14756 18.1353 3.06293 17.2451C2.97723 16.3438 2.97644 15.188 2.97644 13.5767H2.22644ZM21.7386 13.5767H20.9886C20.9886 15.188 20.9878 16.3438 20.9021 17.2451C20.8175 18.1353 20.6554 18.6994 20.3803 19.1482L21.0198 19.5401L21.6593 19.932C22.1031 19.2078 22.3003 18.387 22.3954 17.3871C22.4894 16.3983 22.4886 15.159 22.4886 13.5767H21.7386ZM13.446 21.8694V22.6194C15.0282 22.6194 16.2676 22.6202 17.2564 22.5262C18.2563 22.4311 19.0771 22.2338 19.8012 21.79L19.4094 21.1506L19.0175 20.5111C18.5686 20.7861 18.0045 20.9483 17.1144 21.0329C16.2131 21.1186 15.0573 21.1194 13.446 21.1194V21.8694ZM21.0198 19.5401L20.3803 19.1482C20.0399 19.7037 19.5729 20.1707 19.0175 20.5111L19.4094 21.1506L19.8012 21.79C20.5585 21.326 21.1952 20.6893 21.6593 19.932L21.0198 19.5401ZM17.9059 5.28402V4.53402C17.4734 4.53402 17.1228 4.18341 17.1228 3.75092H16.3728H15.6228C15.6228 5.01184 16.645 6.03402 17.9059 6.03402V5.28402ZM2.22644 9.11677H2.97644C2.97644 7.41421 4.35664 6.03402 6.05919 6.03402V5.28402V4.53402C3.52821 4.53402 1.47644 6.58579 1.47644 9.11677H2.22644ZM9.29961 1.86938V2.61938H14.6655V1.86938V1.11938H9.29961V1.86938ZM3.84189 20.6177L4.34352 20.0602C4.04897 19.7952 3.79313 19.4883 3.58475 19.1482L2.94527 19.5401L2.30579 19.932C2.58989 20.3956 2.9387 20.814 3.34027 21.1753L3.84189 20.6177ZM19.2264 5.51759L19.4848 4.81351C18.9916 4.63249 18.4594 4.53402 17.9059 4.53402V5.28402V6.03402C18.2805 6.03402 18.6379 6.1005 18.968 6.22167L19.2264 5.51759ZM21.7386 9.11677H22.4886C22.4886 8.33467 22.2921 7.59624 21.9451 6.9504L21.2844 7.30537L20.6237 7.66034C20.8564 8.0933 20.9886 8.58847 20.9886 9.11677H21.7386ZM10.5191 21.8694V21.1194C9.15502 21.1194 8.11451 21.119 7.27371 21.0659L7.22644 21.8145L7.17917 22.563C8.07791 22.6197 9.17276 22.6194 10.5191 22.6194V21.8694Z" fill="#1C252E"/>
</svg>
