<svg width="24" height="24" viewBox="0 0 24 24" fill="none" xmlns="http://www.w3.org/2000/svg">
<path d="M17.2004 12.4C14.5504 12.4 12.4004 14.55 12.4004 17.2C12.4004 18.1 12.6504 18.95 13.1004 19.67C13.9304 21.06 15.4504 22 17.2004 22C18.9504 22 20.4804 21.06 21.3004 19.67C21.7404 18.95 22.0004 18.1 22.0004 17.2C22.0004 14.55 19.8504 12.4 17.2004 12.4ZM19.5804 16.57L17.0204 18.93C16.8804 19.06 16.6904 19.13 16.5104 19.13C16.3204 19.13 16.1304 19.06 15.9804 18.91L14.8004 17.73C14.5104 17.44 14.5104 16.96 14.8004 16.67C15.0904 16.38 15.5704 16.38 15.8604 16.67L16.5304 17.34L18.5604 15.46C18.8604 15.18 19.3404 15.2 19.6204 15.5C19.9004 15.81 19.8804 16.29 19.5804 16.57Z" fill="#1C252E"/>
<path opacity="0.4" d="M16.9629 2.5498C18.5194 2.5498 19.9413 3.1753 20.9668 4.31055C21.9552 5.40485 22.5 6.87778 22.5 8.45703C22.4999 10.4416 21.5945 11.9637 20.2168 13.4668C19.3924 12.7998 18.3427 12.4004 17.2002 12.4004C14.5503 12.4005 12.4004 14.5503 12.4004 17.2002C12.4004 18.1001 12.6506 18.95 13.1006 19.6699C13.1947 19.8276 13.2989 19.9786 13.4102 20.124C13.0979 20.4754 12.7838 20.8406 12.4717 21.2236C12.3548 21.3671 12.182 21.4502 12 21.4502C11.818 21.4502 11.6452 21.367 11.5283 21.2236C9.75997 19.054 7.96924 17.4214 6.38965 15.9814C3.65788 13.4912 1.50017 11.5242 1.5 8.45703C1.5 6.87778 2.04477 5.40485 3.0332 4.31055C4.05874 3.1753 5.48058 2.5498 7.03711 2.5498C8.77178 2.5498 10.2869 3.39899 11.4189 5.00488C11.6497 5.33231 11.8425 5.65952 12 5.96191C12.1574 5.65952 12.3503 5.33231 12.5811 5.00488C13.7131 3.39899 15.2282 2.5498 16.9629 2.5498Z" fill="#1C252E"/>
</svg>
