<svg width="24" height="24" viewBox="0 0 24 24" fill="none" xmlns="http://www.w3.org/2000/svg">
<path d="M13.3 8.11001L14.62 10.75C14.8 11.11 15.28 11.47 15.68 11.53L18.07 11.93C19.6 12.19 19.96 13.29 18.86 14.39L17 16.26C16.69 16.57 16.51 17.18 16.61 17.62L17.14 19.93C17.56 21.75 16.59 22.46 14.98 21.51L12.74 20.18C12.33 19.94 11.67 19.94 11.26 20.18L9.00997 21.5C7.39997 22.45 6.42997 21.74 6.84997 19.92L7.37997 17.61C7.47997 17.18 7.29997 16.57 6.98997 16.25L5.13997 14.4C4.03997 13.3 4.39997 12.19 5.92997 11.94L8.31997 11.54C8.71997 11.47 9.19997 11.12 9.37997 10.76L10.7 8.12001C11.41 6.68001 12.59 6.68001 13.3 8.11001Z" fill="#1C252E"/>
<path opacity="0.4" d="M6 9.75C5.59 9.75 5.25 9.41 5.25 9V2C5.25 1.59 5.59 1.25 6 1.25C6.41 1.25 6.75 1.59 6.75 2V9C6.75 9.41 6.41 9.75 6 9.75Z" fill="#1C252E"/>
<path opacity="0.4" d="M18 9.75C17.59 9.75 17.25 9.41 17.25 9V2C17.25 1.59 17.59 1.25 18 1.25C18.41 1.25 18.75 1.59 18.75 2V9C18.75 9.41 18.41 9.75 18 9.75Z" fill="#1C252E"/>
<path opacity="0.4" d="M12 4.75C11.59 4.75 11.25 4.41 11.25 4V2C11.25 1.59 11.59 1.25 12 1.25C12.41 1.25 12.75 1.59 12.75 2V4C12.75 4.41 12.41 4.75 12 4.75Z" fill="#1C252E"/>
</svg>
