<svg width="24" height="24" viewBox="0 0 24 24" fill="none" xmlns="http://www.w3.org/2000/svg">
<path opacity="0.4" d="M18 2H6C4.34 2 3 3.33 3 4.97V15.88C3 17.52 4.34 18.85 6 18.85H6.76C7.56 18.85 8.32 19.16 8.88 19.72L10.59 21.41C11.37 22.18 12.64 22.18 13.42 21.41L15.13 19.72C15.69 19.16 16.46 18.85 17.25 18.85H18C19.66 18.85 21 17.52 21 15.88V4.97C21 3.33 19.66 2 18 2Z" fill="#1C252E"/>
<path d="M16.68 10.5L15.51 14.06C15.36 14.65 14.73 15.13 14.09 15.13H12.24C11.92 15.13 11.47 15.02 11.27 14.82L9.8 13.67C9.77 14.31 9.48 14.58 8.77 14.58H8.29C7.55 14.58 7.25 14.29 7.25 13.59V8.82001C7.25 8.12001 7.55 7.83001 8.29 7.83001H8.78C9.52 7.83001 9.82 8.12001 9.82 8.82001V9.18001L11.76 6.30001C11.96 5.99001 12.47 5.77001 12.9 5.94001C13.37 6.10001 13.67 6.62001 13.57 7.08001L13.33 8.64001C13.3 8.77001 13.33 8.91001 13.42 9.00001C13.5 9.09001 13.62 9.15001 13.75 9.15001H15.7C16.08 9.15001 16.4 9.30001 16.59 9.57001C16.77 9.83001 16.8 10.16 16.68 10.5Z" fill="#1C252E"/>
</svg>
