<svg width="24" height="24" viewBox="0 0 24 24" fill="none" xmlns="http://www.w3.org/2000/svg">
<path d="M1.5 8.45666C1.5 11.5242 3.65795 13.4914 6.39005 15.9819L20.9672 4.31073C19.9417 3.17529 18.5196 2.54999 16.9629 2.54999C15.2281 2.54999 13.7127 3.39897 12.5806 5.00509C12.3497 5.33263 12.1575 5.65984 12 5.96232C11.8425 5.65984 11.6503 5.33263 11.4194 5.00509C10.2873 3.39897 8.77191 2.54999 7.03711 2.54999C5.48044 2.54999 4.05835 3.17529 3.03279 4.31073C2.04436 5.40503 1.5 6.87741 1.5 8.45666Z" fill="#1C252E"/>
<path opacity="0.4" d="M11.5281 21.2237C11.645 21.3671 11.8176 21.45 11.9996 21.45C12.1816 21.45 12.3542 21.3671 12.4711 21.2237C14.2395 19.054 16.0299 17.4218 17.6096 15.9819L17.6096 15.9818C20.3417 13.4914 22.4996 11.5242 22.4996 8.45666C22.4996 6.87742 21.9552 5.40503 20.9668 4.31073L6.38965 15.9819L6.39017 15.9824C7.96967 17.4222 9.75993 19.0542 11.5281 21.2237Z" fill="#1C252E"/>
</svg>
