<svg width="24" height="24" viewBox="0 0 24 24" fill="none" xmlns="http://www.w3.org/2000/svg">
<path opacity="0.4" d="M16.9629 2.5498C18.5194 2.5498 19.9413 3.1753 20.9668 4.31055C21.9552 5.40485 22.5 6.87778 22.5 8.45703C22.4998 11.5242 20.3421 13.4912 17.6104 15.9814C16.0307 17.4214 14.24 19.054 12.4717 21.2236C12.3548 21.3671 12.182 21.4502 12 21.4502C11.818 21.4502 11.6452 21.367 11.5283 21.2236C9.75997 19.054 7.96924 17.4214 6.38965 15.9814C3.65788 13.4912 1.50017 11.5242 1.5 8.45703C1.5 6.87778 2.04477 5.40485 3.0332 4.31055C4.05874 3.1753 5.48058 2.5498 7.03711 2.5498C8.77178 2.5498 10.2869 3.39899 11.4189 5.00488C11.6497 5.33231 11.8425 5.65952 12 5.96191C12.1574 5.65952 12.3503 5.33231 12.5811 5.00488C13.7131 3.39899 15.2282 2.5498 16.9629 2.5498Z" fill="#1C252E"/>
<path d="M14.8392 9.15236C13.9492 8.26236 13.2392 8.55212 12.6292 9.16212L9.08919 12.7022C8.94924 12.8422 8.81938 13.1021 8.78939 13.292L8.59896 14.6416C8.52896 15.1316 8.8697 15.4724 9.3597 15.4024L10.7093 15.2119C10.8992 15.1819 11.1691 15.0521 11.2992 14.9121L14.8392 11.3721C15.4492 10.7621 15.739 10.0523 14.8392 9.15236Z" fill="#1C252E"/>
</svg>
