<svg width="24" height="24" viewBox="0 0 24 24" fill="none" xmlns="http://www.w3.org/2000/svg">
<path opacity="0.4" d="M18 2C19.6599 2 20.9999 3.32985 21 4.96973V15.8799C21 17.5199 19.66 18.8496 18 18.8496H17.25C16.46 18.8496 15.6899 19.1598 15.1299 19.7197L13.4199 21.4102C12.6399 22.18 11.3698 22.1801 10.5898 21.4102L8.87988 19.7197C8.3199 19.1598 7.55967 18.8496 6.75977 18.8496H6C4.34 18.8496 3 17.5199 3 15.8799V4.96973C3.00015 3.32985 4.34009 2 6 2H18Z" fill="#1C252E"/>
<path d="M14.3633 6.5C13.5372 6.5 12.8155 6.90416 12.2764 7.66895C12.1664 7.82492 12.075 7.98096 12 8.125C11.925 7.98096 11.8336 7.82492 11.7236 7.66895C11.1845 6.90416 10.4628 6.5 9.63672 6.5C8.89545 6.5 8.21785 6.79818 7.72949 7.33887C7.2591 7.85987 7.00005 8.56076 7 9.3125C7 10.7732 8.02717 11.7106 9.32812 12.8965C10.0803 13.5822 10.9333 14.3594 11.7754 15.3926C11.8311 15.4608 11.9134 15.5 12 15.5C12.0866 15.5 12.1689 15.4608 12.2246 15.3926C13.0667 14.3594 13.9196 13.5822 14.6719 12.8965C15.9728 11.7106 17 10.7732 17 9.3125C17 8.56076 16.7409 7.85987 16.2705 7.33887C15.7821 6.79818 15.1046 6.5 14.3633 6.5Z" fill="#1C252E"/>
</svg>
