<svg width="24" height="24" viewBox="0 0 24 24" fill="none" xmlns="http://www.w3.org/2000/svg">
<path opacity="0.4" d="M12 2C17.52 2 22 6.48 22 12C22 17.52 17.52 22 12 22C6.48 22 2 17.52 2 12C2 6.48 6.48 2 12 2Z" fill="#1C252E"/>
<path d="M14.5996 8.0498C13.6909 8.0498 12.8967 8.49464 12.3037 9.33594C12.1828 9.50747 12.0825 9.67948 12 9.83789C11.9175 9.67948 11.8172 9.50747 11.6963 9.33594C11.1033 8.49464 10.3091 8.0498 9.40039 8.0498C8.58499 8.0498 7.83993 8.37791 7.30273 8.97266C6.78522 9.54573 6.50011 10.3166 6.5 11.1436C6.5 12.7504 7.63043 13.7814 9.06152 15.0859C9.88884 15.8401 10.8268 16.6947 11.7529 17.8311C11.8142 17.9062 11.9047 17.9502 12 17.9502C12.0953 17.9502 12.1858 17.9062 12.2471 17.8311C13.1732 16.6947 14.1111 15.8401 14.9385 15.0859C16.3696 13.7814 17.5 12.7504 17.5 11.1436C17.4999 10.3166 17.2148 9.54573 16.6973 8.97266C16.1601 8.3779 15.415 8.0498 14.5996 8.0498Z" fill="#1C252E"/>
</svg>
