<svg width="24" height="24" viewBox="0 0 24 24" fill="none" xmlns="http://www.w3.org/2000/svg">
<path opacity="0.4" d="M12.09 14.87C12.54 14.87 12.93 15.05 13.15 15.37C13.37 15.68 13.41 16.07 13.26 16.48L11.86 20.73C11.68 21.43 10.92 22 10.16 22H7.95004C7.57004 22 7.04004 21.87 6.79004 21.63L5.04004 20.28L5.06004 14.9L7.37004 11.46C7.62004 11.09 8.22004 10.83 8.74004 11.02C9.29004 11.21 9.66004 11.84 9.54004 12.39L9.25004 14.25C9.23004 14.42 9.27004 14.57 9.37004 14.69C9.46004 14.81 9.61004 14.87 9.76004 14.87H12.09Z" fill="#1C252E"/>
<path d="M5.06 14.47V14.9L5.04 20.28C5.01 21.04 4.66 21.37 3.82 21.37H3.24C2.36 21.37 2 21.03 2 20.19V14.48C2 13.64 2.36 13.3 3.24 13.29H3.82C4.7 13.29 5.06 13.63 5.06 14.47Z" fill="#1C252E"/>
<path opacity="0.4" d="M17.5498 2.34998L19.2998 3.69998L19.2798 9.07998L16.9698 12.52C16.7198 12.89 16.1198 13.15 15.5998 12.96C15.0498 12.77 14.6798 12.14 14.7998 11.59L15.0898 9.72998C15.1098 9.55998 15.0698 9.40998 14.9698 9.28998C14.8798 9.16998 14.7298 9.10998 14.5798 9.10998H12.2498C11.7998 9.10998 11.4098 8.92998 11.1898 8.60998C10.9798 8.29998 10.9298 7.90998 11.0798 7.49998L12.4798 3.24998C12.6598 2.54998 13.4198 1.97998 14.1798 1.97998H16.3898C16.7698 1.97998 17.3098 2.10998 17.5498 2.34998Z" fill="#1C252E"/>
<path d="M20.5293 2.60999H21.1093C21.9893 2.60999 22.3493 2.94999 22.3393 3.77999V9.50999C22.3393 10.35 21.9793 10.69 21.0993 10.69H20.5193C19.6393 10.69 19.2793 10.35 19.2793 9.50999V9.07999L19.2993 3.69999C19.3393 2.93999 19.6893 2.60999 20.5293 2.60999Z" fill="#1C252E"/>
</svg>
