<svg width="24" height="24" viewBox="0 0 24 24" fill="none" xmlns="http://www.w3.org/2000/svg">
<path opacity="0.4" d="M17.0449 1.5C18.6097 1.50006 20.0394 2.12912 21.0703 3.27051C22.0637 4.37047 22.6112 5.8502 22.6113 7.4375C22.6113 8.26595 22.4532 9.01442 22.1709 9.71484C21.4944 9.24936 20.6939 9.00009 19.8408 9C19.7814 9 19.7218 9.00225 19.6631 9.00488C19.6086 9.00339 19.554 9 19.499 9C18.276 9 17.2073 9.40413 16.4092 10.1689C16.2464 10.3249 16.111 10.481 16 10.625C15.889 10.481 15.7536 10.3249 15.5908 10.1689C14.7927 9.40413 13.724 9 12.501 9C12.4457 9 12.3907 9.00338 12.3359 9.00488C12.2777 9.00228 12.2191 9.00001 12.1602 9C10.9557 9 9.85509 9.49644 9.06152 10.3975C8.29673 11.2659 7.87507 12.4343 7.875 13.6875C7.875 13.7634 7.87667 13.8388 7.87988 13.9131C7.87643 13.9946 7.875 14.0768 7.875 14.1592C7.87505 15.4404 8.3182 16.4833 9.03418 17.4707C8.12569 16.5635 7.24266 15.7565 6.41602 15.0029C3.66947 12.4993 1.5 10.5213 1.5 7.4375C1.5001 5.85015 2.04755 4.37048 3.04102 3.27051C4.072 2.12907 5.5015 1.5 7.06641 1.5C8.81027 1.5 10.3336 2.35335 11.4717 3.96777C11.7038 4.29705 11.8973 4.62658 12.0557 4.93066C12.214 4.62658 12.4075 4.29705 12.6396 3.96777C13.7777 2.35342 15.3011 1.5 17.0449 1.5Z" fill="#1C252E"/>
<path d="M16 22.5C15.8873 22.5 15.7805 22.4474 15.7081 22.3563C14.6134 20.9787 13.505 19.9425 12.5272 19.0282C10.8359 17.4469 9.5 16.1979 9.5 14.2503C9.5 13.2476 9.83698 12.3127 10.4489 11.6179C11.0837 10.897 11.9641 10.5 12.9277 10.5C14.0017 10.5 14.9397 11.039 15.6406 12.0588C15.7835 12.2668 15.9025 12.4745 16 12.6666C16.0975 12.4745 16.2165 12.2668 16.3594 12.0588C17.0603 11.039 17.9983 10.5 19.0723 10.5C20.0359 10.5 20.9163 10.897 21.5511 11.6179C22.163 12.3127 22.5 13.2476 22.5 14.2503C22.5 16.1979 21.1641 17.4469 19.4728 19.0282C18.4949 19.9424 17.3866 20.9787 16.2919 22.3563C16.2195 22.4474 16.1127 22.5 16 22.5Z" fill="#1C252E"/>
</svg>
