<svg width="24" height="24" viewBox="0 0 24 24" fill="none" xmlns="http://www.w3.org/2000/svg">
<path opacity="0.4" d="M21.6719 5.28424C22.2098 6.21579 22.5 7.30783 22.5 8.45709C22.4998 11.5243 20.3421 13.4913 17.6104 15.9815C16.0307 17.4215 14.24 19.054 12.4717 21.2237C12.3548 21.3671 12.182 21.4502 12 21.4503C11.818 21.4503 11.6452 21.3671 11.5283 21.2237C10.5993 20.0839 9.66325 19.0934 8.75586 18.2003L21.6719 5.28424Z" fill="#1C252E"/>
<path d="M21.4697 1.46979C21.7626 1.1769 22.2373 1.1769 22.5302 1.46979C22.8231 1.76269 22.8231 2.23746 22.5302 2.53034L2.53022 22.5303C2.23734 22.8232 1.76257 22.8232 1.46967 22.5303C1.17678 22.2374 1.17678 21.7627 1.46967 21.4698L6.68549 16.253C6.58583 16.1619 6.48768 16.0709 6.38959 15.9815C3.65784 13.4913 1.50014 11.5243 1.49994 8.4571C1.49994 6.87785 2.04471 5.40491 3.03315 4.31061C4.05868 3.17537 5.48052 2.54987 7.03705 2.54987C8.7717 2.54989 10.2868 3.39907 11.4189 5.00495C11.6497 5.33235 11.8425 5.65961 11.9999 5.96198C12.1574 5.65959 12.3502 5.33237 12.581 5.00495C13.7131 3.39905 15.2282 2.54987 16.9628 2.54987C17.9419 2.54988 18.8675 2.79742 19.6747 3.26374L21.4697 1.46979Z" fill="#1C252E"/>
</svg>
