<svg width="24" height="24" viewBox="0 0 24 24" fill="none" xmlns="http://www.w3.org/2000/svg">
<path opacity="0.4" d="M6.54023 17.27C8.48023 17.27 10.3102 16.24 11.3102 14.57L12.6902 9.42004L10.0402 13.83C9.31023 15.04 7.97023 15.8 6.55023 15.8C4.45023 15.8 2.75023 14.1 2.75023 12C2.75023 9.90004 4.46023 8.20004 6.55023 8.20004C7.75023 8.20004 8.85023 8.77004 9.57023 9.74004C9.82023 10.07 10.2802 10.15 10.6202 9.90004C10.9502 9.65004 11.0202 9.18004 10.7802 8.85004C9.77023 7.46004 8.22023 6.67004 6.54023 6.67004C3.62023 6.67004 1.24023 9.05004 1.24023 11.97C1.24023 14.89 3.62023 17.27 6.54023 17.27Z" fill="#1C252E"/>
<path d="M13.2105 15.1201C14.2205 16.5101 15.7705 17.3001 17.4505 17.3001C20.3705 17.3001 22.7605 14.9401 22.7605 12.0201C22.7605 9.10009 20.3805 6.72009 17.4605 6.72009C15.5205 6.72009 13.6905 7.75009 12.6905 9.42009L11.3105 14.5701L13.9605 10.1601C14.6905 8.95009 16.0305 8.19009 17.4505 8.19009C19.5505 8.19009 21.2505 9.89009 21.2505 11.9901C21.2505 14.0901 19.5405 15.7901 17.4505 15.7901C16.2505 15.7901 15.1505 15.2201 14.4205 14.2301C14.1705 13.9001 13.7005 13.8201 13.3705 14.0701C13.0405 14.3201 12.9705 14.7901 13.2105 15.1201Z" fill="#1C252E"/>
</svg>
