<svg width="24" height="24" viewBox="0 0 24 24" fill="none" xmlns="http://www.w3.org/2000/svg">
<path opacity="0.4" d="M14 5V10H13C11.35 10 10 11.35 10 13V14H5C3.34 14 2 12.66 2 11V5C2 3.34 3.34 2 5 2H11C12.66 2 14 3.34 14 5Z" fill="#1C252E"/>
<path d="M5.19952 6.63014C4.96952 6.63014 4.72952 6.52013 4.58952 6.31013C4.34952 5.97013 4.42952 5.50015 4.76952 5.26015C5.54952 4.71015 6.59951 4.70013 7.38951 5.24013C7.72951 5.47013 7.81952 5.94017 7.58952 6.28017C7.35952 6.62017 6.88951 6.71012 6.54951 6.48012C6.27951 6.30012 5.91952 6.30013 5.64952 6.49013C5.49952 6.59013 5.34952 6.63014 5.19952 6.63014Z" fill="#1C252E"/>
<path d="M9.19952 6.63014C8.96952 6.63014 8.72952 6.52013 8.58952 6.31013C8.34952 5.97013 8.42952 5.50015 8.76952 5.26015C9.54952 4.71015 10.5995 4.70013 11.3895 5.24013C11.7295 5.47013 11.8195 5.94017 11.5895 6.28017C11.3595 6.62017 10.8895 6.71012 10.5495 6.48012C10.2795 6.30012 9.91952 6.30013 9.64952 6.49013C9.49952 6.59013 9.34952 6.63014 9.19952 6.63014Z" fill="#1C252E"/>
<path d="M8.15981 12.1702H5.83981C5.12981 12.1702 4.5498 11.5902 4.5498 10.8802C4.5498 8.98019 6.09981 7.43018 7.99981 7.43018C8.77981 7.43018 9.54981 7.70019 10.1598 8.19019C10.4798 8.45019 10.5398 8.92017 10.2798 9.24017C10.0198 9.56017 9.54981 9.62017 9.2298 9.36017C8.87981 9.08017 8.4598 8.93018 8.0098 8.93018C7.0098 8.93018 6.17981 9.69017 6.06981 10.6702H8.1698C8.5798 10.6702 8.9198 11.0102 8.9198 11.4202C8.9198 11.8302 8.56981 12.1702 8.15981 12.1702Z" fill="#1C252E"/>
<path d="M18.2197 16.6801C18.1497 16.6001 18.0497 16.5601 17.9397 16.5601H14.0597C13.9497 16.5601 13.8497 16.6001 13.7797 16.6801C13.7097 16.7601 13.6697 16.87 13.6897 16.97C13.8197 18.15 14.8097 19.05 15.9997 19.05C17.1897 19.05 18.1797 18.16 18.3097 16.97C18.3197 16.86 18.2897 16.7601 18.2197 16.6801Z" fill="#1C252E"/>
<path d="M19 10H13C11.35 10 10 11.35 10 13V19C10 20.65 11.35 22 13 22H19C20.65 22 22 20.65 22 19V13C22 11.35 20.65 10 19 10ZM12.59 13.17C12.83 12.83 13.3 12.75 13.64 12.99C13.91 13.18 14.27 13.18 14.54 13C14.88 12.76 15.35 12.85 15.58 13.2C15.81 13.54 15.73 14.01 15.38 14.24C14.99 14.5 14.54 14.64 14.09 14.64C13.62 14.64 13.16 14.5 12.77 14.22C12.43 13.97 12.35 13.5 12.59 13.17ZM16 20.17C14.1 20.17 12.55 18.62 12.55 16.72C12.55 16.01 13.13 15.43 13.84 15.43H18.16C18.87 15.43 19.45 16.01 19.45 16.72C19.45 18.62 17.9 20.17 16 20.17ZM19.38 14.23C18.99 14.49 18.54 14.63 18.09 14.63C17.62 14.63 17.16 14.49 16.77 14.21C16.43 13.97 16.35 13.5 16.59 13.16C16.83 12.82 17.3 12.74 17.64 12.98C17.91 13.17 18.27 13.17 18.54 12.99C18.88 12.75 19.35 12.84 19.58 13.19C19.81 13.54 19.72 14 19.38 14.23Z" fill="#1C252E"/>
</svg>
