<svg width="24" height="24" viewBox="0 0 24 24" fill="none" xmlns="http://www.w3.org/2000/svg">
<path opacity="0.4" d="M17 2.43005H7C4 2.43005 2 4.43005 2 7.43005V13.4301C2 16.4301 4 18.4301 7 18.4301V20.5601C7 21.3601 7.89 21.8401 8.55 21.3901L13 18.4301H17C20 18.4301 22 16.4301 22 13.4301V7.43005C22 4.43005 20 2.43005 17 2.43005Z" fill="#1C252E"/>
<path d="M11.9998 14.6C11.5798 14.6 11.2498 14.26 11.2498 13.85C11.2498 13.44 11.5798 13.1 11.9998 13.1C12.4198 13.1 12.7498 13.44 12.7498 13.85C12.7498 14.26 12.4198 14.6 11.9998 14.6ZM13.2598 10.45C12.8698 10.71 12.7498 10.88 12.7498 11.16V11.37C12.7498 11.78 12.4098 12.12 11.9998 12.12C11.5898 12.12 11.2498 11.78 11.2498 11.37V11.16C11.2498 10 12.0998 9.43 12.4198 9.21C12.7898 8.96 12.9098 8.78999 12.9098 8.52999C12.9098 8.02999 12.4998 7.61999 11.9998 7.61999C11.4998 7.61999 11.0898 8.02999 11.0898 8.52999C11.0898 8.93999 10.7498 9.27999 10.3398 9.27999C9.92984 9.27999 9.58984 8.93999 9.58984 8.52999C9.58984 7.19999 10.6698 6.12 11.9998 6.12C13.3298 6.12 14.4098 7.19999 14.4098 8.52999C14.4098 9.66999 13.5698 10.24 13.2598 10.45Z" fill="#1C252E"/>
</svg>
