<svg width="24" height="24" viewBox="0 0 24 24" fill="none" xmlns="http://www.w3.org/2000/svg">
<path d="M20.6904 13.92C20.6804 13.92 20.6804 13.91 20.6804 13.91V13.9C19.8004 12.98 18.5704 12.4 17.2004 12.4C14.5504 12.4 12.4004 14.55 12.4004 17.2C12.4004 18.43 12.8704 19.55 13.6304 20.4C14.5104 21.38 15.7804 22 17.2004 22C19.8504 22 22.0004 19.85 22.0004 17.2C22.0004 15.93 21.5004 14.78 20.6904 13.92ZM19.0104 19.07C18.8704 19.21 18.6704 19.29 18.4804 19.29C18.2904 19.29 18.1004 19.21 17.9504 19.07L17.2104 18.33L16.4504 19.1C16.3004 19.24 16.1104 19.32 15.9204 19.32C15.8204 19.32 15.7304 19.3 15.6404 19.26C15.5504 19.23 15.4604 19.17 15.3904 19.1C15.0904 18.8 15.0904 18.33 15.3904 18.04L16.1504 17.27L15.4204 16.53C15.1204 16.24 15.1204 15.76 15.4204 15.47C15.7104 15.18 16.1804 15.18 16.4804 15.47L17.2104 16.21L17.9204 15.5C18.2204 15.21 18.6904 15.21 18.9804 15.5C19.1504 15.67 19.2204 15.89 19.1904 16.11C19.1804 16.28 19.1104 16.44 18.9804 16.56L18.2704 17.27L19.0104 18.01C19.3104 18.3 19.3104 18.77 19.0104 19.07Z" fill="#1C252E"/>
<path opacity="0.4" d="M16.9629 2.5498C18.5194 2.5498 19.9413 3.1753 20.9668 4.31055C21.9552 5.40485 22.5 6.87778 22.5 8.45703C22.4999 10.4416 21.5945 11.9637 20.2168 13.4668C19.3924 12.7998 18.3427 12.4004 17.2002 12.4004C14.5503 12.4005 12.4004 14.5503 12.4004 17.2002C12.4004 18.1001 12.6506 18.95 13.1006 19.6699C13.1947 19.8276 13.2989 19.9786 13.4102 20.124C13.0979 20.4754 12.7838 20.8406 12.4717 21.2236C12.3548 21.3671 12.182 21.4502 12 21.4502C11.818 21.4502 11.6452 21.367 11.5283 21.2236C9.75997 19.054 7.96924 17.4214 6.38965 15.9814C3.65788 13.4912 1.50017 11.5242 1.5 8.45703C1.5 6.87778 2.04477 5.40485 3.0332 4.31055C4.05874 3.1753 5.48058 2.5498 7.03711 2.5498C8.77178 2.5498 10.2869 3.39899 11.4189 5.00488C11.6497 5.33231 11.8425 5.65952 12 5.96191C12.1574 5.65952 12.3503 5.33231 12.5811 5.00488C13.7131 3.39899 15.2282 2.5498 16.9629 2.5498Z" fill="#1C252E"/>
</svg>
