<svg width="24" height="24" viewBox="0 0 24 24" fill="none" xmlns="http://www.w3.org/2000/svg">
<path opacity="0.4" d="M18 2H6C4.34 2 3 3.33 3 4.97V15.88C3 17.52 4.34 18.85 6 18.85H6.76C7.56 18.85 8.32 19.16 8.88 19.72L10.59 21.41C11.37 22.18 12.64 22.18 13.42 21.41L15.13 19.72C15.69 19.16 16.46 18.85 17.25 18.85H18C19.66 18.85 21 17.52 21 15.88V4.97C21 3.33 19.66 2 18 2Z" fill="#1C252E"/>
<path d="M14.3203 7.36035C14.6403 6.85035 15.2503 6.62027 15.8203 6.78027C16.3901 6.95039 16.7903 7.47044 16.7803 8.07031V11.5898H17C17.41 11.5898 17.7499 11.9299 17.75 12.3398C17.75 12.7498 17.41 13.0801 17 13.0801H16.79V13.7695C16.79 14.1795 16.45 14.5195 16.04 14.5195C15.63 14.5195 15.29 14.1795 15.29 13.7695V13.0801H13.3203C12.8304 13.0801 12.3799 12.8202 12.1299 12.4004C11.8799 11.9704 11.8799 11.4395 12.1299 11.0195C12.8098 9.84964 13.6004 8.52023 14.3203 7.36035ZM8.69043 6.71973C10.0402 6.71996 11.1299 7.8103 11.1299 9.16016C11.1298 10.57 10.0697 11.2901 9.21973 11.8701C8.69003 12.2299 8.19049 12.5699 7.94043 13.0195H10.3799V13.0098C10.7898 13.0098 11.1298 13.3499 11.1299 13.7598C11.1299 14.1698 10.7899 14.5098 10.3799 14.5098H7.7002C7.26029 14.5098 6.84985 14.3003 6.58984 13.9404C6.33988 13.6005 6.28046 13.1802 6.40039 12.7803C6.75038 11.7103 7.61014 11.1303 8.37012 10.6104C9.16992 10.0705 9.6199 9.73013 9.62012 9.15039C9.62012 8.63039 9.19969 8.20996 8.67969 8.20996C8.15984 8.21013 7.75 8.64026 7.75 9.16016C7.7499 9.57007 7.40994 9.91016 7 9.91016C6.59006 9.91016 6.2501 9.57007 6.25 9.16016C6.25 7.82016 7.34043 6.71973 8.69043 6.71973ZM15.29 8.63965C14.7 9.59965 14.09 10.6303 13.54 11.5703H15.29V8.63965Z" fill="#1C252E"/>
</svg>
