<svg width="24" height="24" viewBox="0 0 24 24" fill="none" xmlns="http://www.w3.org/2000/svg">
<path opacity="0.4" d="M21.5599 10.7401L20.1999 9.16006C19.9399 8.86006 19.7299 8.30006 19.7299 7.90006V6.20006C19.7299 5.14006 18.8599 4.27006 17.7999 4.27006H16.0999C15.7099 4.27006 15.1399 4.06006 14.8399 3.80006L13.2599 2.44006C12.5699 1.85006 11.4399 1.85006 10.7399 2.44006L9.16988 3.81006C8.86988 4.06006 8.29988 4.27006 7.90988 4.27006H6.17988C5.11988 4.27006 4.24988 5.14006 4.24988 6.20006V7.91006C4.24988 8.30006 4.03988 8.86006 3.78988 9.16006L2.43988 10.7501C1.85988 11.4401 1.85988 12.5601 2.43988 13.2501L3.78988 14.8401C4.03988 15.1401 4.24988 15.7001 4.24988 16.0901V17.8001C4.24988 18.8601 5.11988 19.7301 6.17988 19.7301H7.90988C8.29988 19.7301 8.86988 19.9401 9.16988 20.2001L10.7499 21.5601C11.4399 22.1501 12.5699 22.1501 13.2699 21.5601L14.8499 20.2001C15.1499 19.9401 15.7099 19.7301 16.1099 19.7301H17.8099C18.8699 19.7301 19.7399 18.8601 19.7399 17.8001V16.1001C19.7399 15.7101 19.9499 15.1401 20.2099 14.8401L21.5699 13.2601C22.1499 12.5701 22.1499 11.4301 21.5599 10.7401Z" fill="#1C252E"/>
<path d="M16.68 12L15.51 15.56C15.36 16.15 14.73 16.63 14.09 16.63H12.24C11.92 16.63 11.47 16.52 11.27 16.32L9.8 15.17C9.77 15.81 9.48 16.08 8.77 16.08H8.29C7.55 16.08 7.25 15.79 7.25 15.09V10.31C7.25 9.61 7.55 9.32 8.29 9.32H8.78C9.52 9.32 9.82 9.61 9.82 10.31V10.67L11.76 7.79C11.96 7.48 12.47 7.26 12.9 7.43C13.37 7.59 13.67 8.11 13.57 8.57L13.33 10.13C13.31 10.27 13.34 10.4 13.43 10.5C13.51 10.59 13.63 10.65 13.76 10.65H15.71C16.09 10.65 16.41 10.8 16.6 11.07C16.77 11.33 16.8 11.66 16.68 12Z" fill="#1C252E"/>
</svg>
