<svg width="24" height="24" viewBox="0 0 24 24" fill="none" xmlns="http://www.w3.org/2000/svg">
<path d="M17.6201 8.12988C18.0343 8.12988 18.3701 8.46567 18.3701 8.87988C18.3701 9.2941 18.0343 9.62988 17.6201 9.62988H12.3701C11.9559 9.62988 11.6201 9.2941 11.6201 8.87988C11.6201 8.46567 11.9559 8.12988 12.3701 8.12988H17.6201Z" fill="#1C252E"/>
<path d="M8.84955 6.8498C9.14245 6.5569 9.61721 6.5569 9.9101 6.8498C10.203 7.14269 10.203 7.61745 9.9101 7.91034L7.6601 10.1603C7.36721 10.4532 6.89245 10.4532 6.59955 10.1603L5.84955 9.41034C5.55666 9.11745 5.55666 8.64269 5.84955 8.3498C6.14245 8.0569 6.61721 8.0569 6.9101 8.3498L7.12983 8.56952L8.84955 6.8498Z" fill="#1C252E"/>
<path d="M17.6201 15.1299C18.0343 15.1299 18.3701 15.4657 18.3701 15.8799C18.3701 16.2941 18.0343 16.6299 17.6201 16.6299H12.3701C11.9559 16.6299 11.6201 16.2941 11.6201 15.8799C11.6201 15.4657 11.9559 15.1299 12.3701 15.1299H17.6201Z" fill="#1C252E"/>
<path d="M8.84955 13.8498C9.14245 13.5569 9.61721 13.5569 9.9101 13.8498C10.203 14.1427 10.203 14.6175 9.9101 14.9103L7.6601 17.1603C7.36721 17.4532 6.89245 17.4532 6.59955 17.1603L5.84955 16.4103C5.55666 16.1175 5.55666 15.6427 5.84955 15.3498C6.14245 15.0569 6.61721 15.0569 6.9101 15.3498L7.12983 15.5695L8.84955 13.8498Z" fill="#1C252E"/>
<path d="M21.25 9C21.25 6.57397 20.7603 5.0708 19.8447 4.15527C18.9292 3.23974 17.426 2.75 15 2.75H9C6.57397 2.75 5.0708 3.23974 4.15527 4.15527C3.23974 5.0708 2.75 6.57397 2.75 9V15C2.75 17.426 3.23974 18.9292 4.15527 19.8447C5.0708 20.7603 6.57397 21.25 9 21.25H15C17.426 21.25 18.9292 20.7603 19.8447 19.8447C20.7603 18.9292 21.25 17.426 21.25 15V9ZM22.75 15C22.75 17.574 22.2397 19.5708 20.9053 20.9053C19.5708 22.2397 17.574 22.75 15 22.75H9C6.42603 22.75 4.4292 22.2397 3.09473 20.9053C1.76026 19.5708 1.25 17.574 1.25 15V9C1.25 6.42603 1.76026 4.4292 3.09473 3.09473C4.4292 1.76026 6.42603 1.25 9 1.25H15C17.574 1.25 19.5708 1.76026 20.9053 3.09473C22.2397 4.4292 22.75 6.42603 22.75 9V15Z" fill="#1C252E"/>
</svg>
