<svg width="24" height="24" viewBox="0 0 24 24" fill="none" xmlns="http://www.w3.org/2000/svg">
<path d="M8.80957 18V13C8.80957 12.5858 9.14536 12.25 9.55957 12.25C9.97378 12.25 10.3096 12.5858 10.3096 13V18C10.3096 18.4142 9.97378 18.75 9.55957 18.75C9.14536 18.75 8.80957 18.4142 8.80957 18Z" fill="#1C252E"/>
<path d="M12 14.75C12.4142 14.75 12.75 15.0858 12.75 15.5C12.75 15.9142 12.4142 16.25 12 16.25H7C6.58579 16.25 6.25 15.9142 6.25 15.5C6.25 15.0858 6.58579 14.75 7 14.75H12Z" fill="#1C252E"/>
<path d="M7.25 5V2C7.25 1.58579 7.58579 1.25 8 1.25C8.41421 1.25 8.75 1.58579 8.75 2V5C8.75 5.41421 8.41421 5.75 8 5.75C7.58579 5.75 7.25 5.41421 7.25 5Z" fill="#1C252E"/>
<path d="M15.25 5V2C15.25 1.58579 15.5858 1.25 16 1.25C16.4142 1.25 16.75 1.58579 16.75 2V5C16.75 5.41421 16.4142 5.75 16 5.75C15.5858 5.75 15.25 5.41421 15.25 5Z" fill="#1C252E"/>
<path d="M15.8375 2.66992C17.569 2.73215 19.0784 3.08459 20.1373 4.21484C21.1175 5.26121 21.5793 6.83557 21.6754 9.01074L21.69 9.4541L21.8199 15.624V15.625C21.8601 17.6948 21.6596 19.4937 20.6217 20.7676C19.5574 22.0736 17.7861 22.6329 15.2174 22.6895H15.2154L9.2154 22.8096C6.64543 22.861 4.85123 22.3727 3.73396 21.1104C2.64473 19.8795 2.37104 18.092 2.33064 16.0273L2.19099 9.84668V9.8457C2.1398 7.43877 2.5252 5.70368 3.52497 4.5459C4.53738 3.37356 6.03213 2.96172 7.75447 2.83203L7.79548 2.83008L15.7955 2.66992H15.8375ZM7.85212 4.3291C6.26309 4.45051 5.27643 4.81345 4.66072 5.52637C4.03071 6.2559 3.64143 7.52052 3.69001 9.8125L3.83064 15.9932V15.9951C3.87042 18.039 4.15697 19.3251 4.85701 20.1162C5.52971 20.8763 6.75529 21.3591 9.18513 21.3105L15.1842 21.1904L15.6256 21.1748C17.7627 21.0696 18.8579 20.5572 19.4586 19.8203C20.1255 19.0018 20.3606 17.705 20.3209 15.6553L20.191 9.48633L20.1773 9.06836C20.0865 7.0385 19.6616 5.90018 19.0435 5.24023C18.3988 4.55206 17.3961 4.22869 15.7935 4.16992L7.85212 4.3291Z" fill="#1C252E"/>
</svg>
