<svg width="24" height="24" viewBox="0 0 24 24" fill="none" xmlns="http://www.w3.org/2000/svg">
<path d="M12 13.25C12.4142 13.25 12.75 13.5858 12.75 14C12.75 14.4142 12.4142 14.75 12 14.75H7C6.58579 14.75 6.25 14.4142 6.25 14C6.25 13.5858 6.58579 13.25 7 13.25H12Z" fill="#1C252E"/>
<path d="M2.71967 1.67975C3.01256 1.38686 3.48732 1.38686 3.78022 1.67975L7.53022 5.42975C7.82311 5.72265 7.82311 6.19741 7.53022 6.4903C7.23732 6.78319 6.76256 6.78319 6.46967 6.4903L2.71967 2.7403C2.42678 2.44741 2.42678 1.97265 2.71967 1.67975Z" fill="#1C252E"/>
<path d="M6.42963 1.71967C6.72252 1.42678 7.19728 1.42678 7.49018 1.71967C7.78307 2.01256 7.78307 2.48732 7.49018 2.78022L3.74018 6.53022C3.44728 6.82311 2.97252 6.82311 2.67963 6.53022C2.38674 6.23732 2.38674 5.76256 2.67963 5.46967L6.42963 1.71967Z" fill="#1C252E"/>
<path d="M15 9.25C15.4142 9.25 15.75 9.58579 15.75 10C15.75 10.4142 15.4142 10.75 15 10.75H7C6.58579 10.75 6.25 10.4142 6.25 10C6.25 9.58579 6.58579 9.25 7 9.25H15Z" fill="#1C252E"/>
<path d="M20.25 16V7.99023C20.25 5.76017 19.8375 4.54544 19.1982 3.85352C18.5693 3.17268 17.5723 2.838 15.9727 2.75H10C9.58579 2.75 9.25 2.41421 9.25 2C9.25 1.58579 9.58579 1.25 10 1.25H16C16.0134 1.25 16.0267 1.25026 16.04 1.25098C17.7627 1.34409 19.263 1.71366 20.2998 2.83594C21.3281 3.94901 21.75 5.6403 21.75 7.99023V16C21.75 16.4142 21.4142 16.75 21 16.75C20.5858 16.75 20.25 16.4142 20.25 16Z" fill="#1C252E"/>
<path d="M2.25 15.9797V9.01001C2.25 8.5958 2.58579 8.26001 3 8.26001C3.41421 8.26001 3.75 8.5958 3.75 9.01001V15.9797C3.75 17.9716 4.0114 19.2223 4.69043 20.0012C5.34716 20.7544 6.5658 21.2502 9 21.2502H15C15.4142 21.2502 15.75 21.586 15.75 22.0002C15.7499 22.4143 15.4141 22.7502 15 22.7502H9C6.43442 22.7502 4.65288 22.2408 3.55957 20.9866C2.48864 19.758 2.25 17.9978 2.25 15.9797Z" fill="#1C252E"/>
<path d="M21 15.25C21.3033 15.25 21.5773 15.4326 21.6934 15.7129C21.8094 15.9931 21.7448 16.3158 21.5303 16.5303L15.5303 22.5303C15.3158 22.7448 14.9931 22.8094 14.7129 22.6934C14.4326 22.5773 14.25 22.3033 14.25 22V19C14.25 17.8844 14.5295 16.91 15.2197 16.2197C15.91 15.5295 16.8844 15.25 18 15.25H21ZM15.75 20.1895L19.1895 16.75H18C17.1156 16.75 16.59 16.9705 16.2803 17.2803C15.9705 17.59 15.75 18.1156 15.75 19V20.1895Z" fill="#1C252E"/>
</svg>
