<svg width="24" height="24" viewBox="0 0 24 24" fill="none" xmlns="http://www.w3.org/2000/svg">
<path d="M14.2792 11.6697C14.5721 11.3768 15.0469 11.3768 15.3398 11.6697C15.6327 11.9626 15.6327 12.4374 15.3398 12.7303L11.3398 16.7303C11.1991 16.8709 11.0084 16.95 10.8095 16.95C10.6106 16.95 10.4199 16.8709 10.2792 16.7303L8.77924 15.2303C8.48635 14.9374 8.48635 14.4626 8.77924 14.1697C9.07213 13.8769 9.54689 13.8768 9.83979 14.1697L10.8095 15.1395L14.2792 11.6697Z" fill="#1C252E"/>
<path d="M15.25 4.00004C15.25 3.09909 15.0247 2.91786 14.959 2.87407C14.8096 2.77447 14.5648 2.75004 14 2.75004H10C9.43524 2.75004 9.19041 2.77447 9.04102 2.87407C8.97532 2.91786 8.75 3.09909 8.75 4.00004C8.75 4.901 8.97532 5.08223 9.04102 5.12602C9.19041 5.22562 9.43524 5.25004 10 5.25004H14C14.901 5.25004 15.0822 5.02472 15.126 4.95903C15.2256 4.80964 15.25 4.56481 15.25 4.00004ZM16.75 4.00004C16.75 4.43528 16.7744 5.19045 16.374 5.79106C15.9178 6.47537 15.099 6.75004 14 6.75004H10C9.56476 6.75004 8.80959 6.77447 8.20898 6.37407C7.52468 5.91786 7.25 5.09909 7.25 4.00004C7.25 2.901 7.52468 2.08223 8.20898 1.62602C8.80959 1.22562 9.56476 1.25004 10 1.25004H14C14.4352 1.25004 15.1904 1.22562 15.791 1.62602C16.4753 2.08223 16.75 2.901 16.75 4.00004Z" fill="#1C252E"/>
<path d="M2.25 16.0005V10.0005C2.25 7.65986 2.67241 5.97159 3.7002 4.85888C4.73651 3.7371 6.2361 3.36417 7.95996 3.27098C8.37338 3.24888 8.72667 3.56651 8.74902 3.97997C8.77113 4.39339 8.4535 4.74668 8.04004 4.76903C6.43416 4.85589 5.43288 5.19329 4.80176 5.87645C4.16231 6.56877 3.75 7.78148 3.75 10.0005V16.0005C3.75004 17.9869 4.01139 19.2314 4.68945 20.0063C5.34591 20.7565 6.56481 21.2505 9 21.2505H15C17.4352 21.2505 18.6541 20.7565 19.3105 20.0063C19.9886 19.2314 20.25 17.9869 20.25 16.0005V10.0005C20.25 7.77604 19.8371 6.5643 19.1982 5.87352C18.5675 5.19176 17.5671 4.85595 15.96 4.76903C15.5465 4.74668 15.2289 4.39339 15.251 3.97997C15.2733 3.56651 15.6266 3.24888 16.04 3.27098C17.7624 3.36409 19.2621 3.7337 20.2988 4.85399C21.3273 5.96576 21.75 7.65519 21.75 10.0005V16.0005C21.75 18.0135 21.5111 19.7687 20.4395 20.9936C19.3459 22.2434 17.5647 22.7505 15 22.7505H9C6.43533 22.7505 4.65411 22.2434 3.56055 20.9936C2.48885 19.7687 2.25004 18.0135 2.25 16.0005Z" fill="#1C252E"/>
</svg>
