<svg width="24" height="24" viewBox="0 0 24 24" fill="none" xmlns="http://www.w3.org/2000/svg">
<path d="M21.25 12C21.25 6.89421 17.1058 2.75 12 2.75C6.89421 2.75 2.75 6.89421 2.75 12C2.75 17.1058 6.89421 21.25 12 21.25C17.1058 21.25 21.25 17.1058 21.25 12ZM22.75 12C22.75 17.9342 17.9342 22.75 12 22.75C6.06579 22.75 1.25 17.9342 1.25 12C1.25 6.06579 6.06579 1.25 12 1.25C17.9342 1.25 22.75 6.06579 22.75 12Z" fill="#1C252E"/>
<path d="M5.37012 12.0001C5.37012 9.99591 6.98602 8.38 8.99023 8.38C9.90952 8.38004 10.7473 8.72111 11.3818 9.29211C11.6897 9.56921 11.7146 10.0438 11.4375 10.3517C11.1604 10.6595 10.6858 10.6844 10.3779 10.4073C10.0126 10.0787 9.5306 9.88003 8.99023 9.88C7.81445 9.88 6.87012 10.8243 6.87012 12.0001C6.87018 13.1742 7.82279 14.1202 8.99023 14.1202C9.51181 14.1202 10.0021 13.9173 10.3906 13.5822C10.7043 13.3118 11.1777 13.3467 11.4482 13.6603C11.7186 13.9739 11.6836 14.4474 11.3701 14.7179C10.7387 15.2627 9.90856 15.6202 8.99023 15.6202C6.99776 15.6202 5.37018 14.006 5.37012 12.0001Z" fill="#1C252E"/>
<path d="M12.3701 12.0001C12.3701 9.99591 13.986 8.38 15.9902 8.38C16.9095 8.38004 17.7473 8.72111 18.3818 9.29211C18.6897 9.56921 18.7146 10.0438 18.4375 10.3517C18.1604 10.6595 17.6858 10.6844 17.3779 10.4073C17.0126 10.0787 16.5306 9.88003 15.9902 9.88C14.8144 9.88 13.8701 10.8243 13.8701 12.0001C13.8702 13.1742 14.8228 14.1202 15.9902 14.1202C16.5118 14.1202 17.0021 13.9173 17.3906 13.5822C17.7043 13.3118 18.1777 13.3467 18.4482 13.6603C18.7186 13.9739 18.6836 14.4474 18.3701 14.7179C17.7387 15.2627 16.9086 15.6202 15.9902 15.6202C13.9978 15.6202 12.3702 14.006 12.3701 12.0001Z" fill="#1C252E"/>
</svg>
