<svg width="24" height="24" viewBox="0 0 24 24" fill="none" xmlns="http://www.w3.org/2000/svg">
<path d="M15 11.45C15.4142 11.45 15.75 11.7858 15.75 12.2C15.75 12.6142 15.4142 12.95 15 12.95H8C7.58579 12.95 7.25 12.6142 7.25 12.2C7.25 11.7858 7.58579 11.45 8 11.45H15Z" fill="#1C252E"/>
<path d="M12.3799 15.45C12.7941 15.45 13.1299 15.7858 13.1299 16.2C13.1299 16.6142 12.7941 16.95 12.3799 16.95H8C7.58579 16.95 7.25 16.6142 7.25 16.2C7.25 15.7858 7.58579 15.45 8 15.45H12.3799Z" fill="#1C252E"/>
<path d="M15.25 3.99998C15.25 3.09903 15.0247 2.9178 14.959 2.87401C14.8096 2.77441 14.5648 2.74998 14 2.74998H10C9.43524 2.74998 9.19041 2.77441 9.04102 2.87401C8.97532 2.9178 8.75 3.09903 8.75 3.99998C8.75 4.90094 8.97532 5.08217 9.04102 5.12596C9.19041 5.22555 9.43524 5.24998 10 5.24998H14C14.901 5.24998 15.0822 5.02466 15.126 4.95897C15.2256 4.80958 15.25 4.56475 15.25 3.99998ZM16.75 3.99998C16.75 4.43522 16.7744 5.19039 16.374 5.791C15.9178 6.47531 15.099 6.74998 14 6.74998H10C9.56476 6.74998 8.80959 6.77441 8.20898 6.37401C7.52468 5.9178 7.25 5.09903 7.25 3.99998C7.25 2.90094 7.52468 2.08217 8.20898 1.62596C8.80959 1.22555 9.56476 1.24998 10 1.24998H14C14.4352 1.24998 15.1904 1.22555 15.791 1.62596C16.4753 2.08217 16.75 2.90094 16.75 3.99998Z" fill="#1C252E"/>
<path d="M2.25 16.0005V10.0005C2.25 7.65986 2.67241 5.97159 3.7002 4.85888C4.73651 3.7371 6.2361 3.36417 7.95996 3.27098C8.37338 3.24888 8.72667 3.56651 8.74902 3.97997C8.77113 4.39339 8.4535 4.74668 8.04004 4.76903C6.43416 4.85589 5.43288 5.19329 4.80176 5.87645C4.16231 6.56877 3.75 7.78148 3.75 10.0005V16.0005C3.75004 17.9869 4.01139 19.2314 4.68945 20.0063C5.34591 20.7565 6.56481 21.2505 9 21.2505H15C17.4352 21.2505 18.6541 20.7565 19.3105 20.0063C19.9886 19.2314 20.25 17.9869 20.25 16.0005V10.0005C20.25 7.77604 19.8371 6.5643 19.1982 5.87352C18.5675 5.19176 17.5671 4.85595 15.96 4.76903C15.5465 4.74668 15.2289 4.39339 15.251 3.97997C15.2733 3.56651 15.6266 3.24888 16.04 3.27098C17.7624 3.36409 19.2621 3.7337 20.2988 4.85399C21.3273 5.96576 21.75 7.65519 21.75 10.0005V16.0005C21.75 18.0135 21.5111 19.7687 20.4395 20.9936C19.3459 22.2434 17.5647 22.7505 15 22.7505H9C6.43533 22.7505 4.65411 22.2434 3.56055 20.9936C2.48885 19.7687 2.25004 18.0135 2.25 16.0005Z" fill="#1C252E"/>
</svg>
