<svg width="24" height="24" viewBox="0 0 24 24" fill="none" xmlns="http://www.w3.org/2000/svg">
<path d="M7.25 5V2C7.25 1.58579 7.58579 1.25 8 1.25C8.41421 1.25 8.75 1.58579 8.75 2V5C8.75 5.41421 8.41421 5.75 8 5.75C7.58579 5.75 7.25 5.41421 7.25 5Z" fill="#1C252E"/>
<path d="M15.25 5V2C15.25 1.58579 15.5858 1.25 16 1.25C16.4142 1.25 16.75 1.58579 16.75 2V5C16.75 5.41421 16.4142 5.75 16 5.75C15.5858 5.75 15.25 5.41421 15.25 5Z" fill="#1C252E"/>
<path d="M15 10.25C15.4142 10.25 15.75 10.5858 15.75 11C15.75 11.4142 15.4142 11.75 15 11.75H7C6.58579 11.75 6.25 11.4142 6.25 11C6.25 10.5858 6.58579 10.25 7 10.25H15Z" fill="#1C252E"/>
<path d="M12 14.25C12.4142 14.25 12.75 14.5858 12.75 15C12.75 15.4142 12.4142 15.75 12 15.75H7C6.58579 15.75 6.25 15.4142 6.25 15C6.25 14.5858 6.58579 14.25 7 14.25H12Z" fill="#1C252E"/>
<path d="M20.25 16V9.65039C20.25 7.35743 19.836 6.0993 19.1914 5.38184C18.5615 4.68114 17.5672 4.33777 15.9727 4.25H8.03027C6.43376 4.34258 5.43889 4.68552 4.80859 5.38574C4.16412 6.10184 3.75 7.35718 3.75 9.65039V15.8203C3.75003 17.8694 4.01146 19.1636 4.69629 19.9697C5.3541 20.744 6.57007 21.25 9 21.25H15C15.4142 21.25 15.75 21.5858 15.75 22C15.75 22.4142 15.4142 22.75 15 22.75H9C6.43 22.75 4.64591 22.2261 3.55371 20.9404C2.48862 19.6867 2.25002 17.8909 2.25 15.8203V9.65039C2.25 7.24388 2.67051 5.51827 3.69336 4.38184C4.72887 3.23144 6.23094 2.84949 7.95703 2.75098L8 2.75H16C16.0134 2.75 16.0267 2.75026 16.04 2.75098C17.7678 2.84437 19.2707 3.22653 20.3066 4.37891C21.3291 5.51652 21.75 7.244 21.75 9.65039V16C21.75 16.4142 21.4142 16.75 21 16.75C20.5858 16.75 20.25 16.4142 20.25 16Z" fill="#1C252E"/>
<path d="M21 15.25C21.3033 15.25 21.5773 15.4326 21.6934 15.7129C21.8094 15.9931 21.7448 16.3158 21.5303 16.5303L15.5303 22.5303C15.3158 22.7448 14.9931 22.8094 14.7129 22.6934C14.4326 22.5773 14.25 22.3033 14.25 22V19C14.25 17.8844 14.5295 16.91 15.2197 16.2197C15.91 15.5295 16.8844 15.25 18 15.25H21ZM15.75 20.1895L19.1895 16.75H18C17.1156 16.75 16.59 16.9705 16.2803 17.2803C15.9705 17.59 15.75 18.1156 15.75 19V20.1895Z" fill="#1C252E"/>
</svg>
