<svg width="24" height="24" viewBox="0 0 24 24" fill="none" xmlns="http://www.w3.org/2000/svg">
<path d="M1.25 15V9C1.25 6.42603 1.76026 4.4292 3.09473 3.09473C4.4292 1.76026 6.42603 1.25 9 1.25H14C14.4142 1.25 14.75 1.58579 14.75 2C14.75 2.41421 14.4142 2.75 14 2.75H9C6.57397 2.75 5.0708 3.23974 4.15527 4.15527C3.23974 5.0708 2.75 6.57397 2.75 9V15C2.75 17.426 3.23974 18.9292 4.15527 19.8447C5.0708 20.7603 6.57397 21.25 9 21.25H15C17.426 21.25 18.9292 20.7603 19.8447 19.8447C20.7603 18.9292 21.25 17.426 21.25 15V10C21.25 9.58579 21.5858 9.25 22 9.25C22.4142 9.25 22.75 9.58579 22.75 10V15C22.75 17.574 22.2397 19.5708 20.9053 20.9053C19.5708 22.2397 17.574 22.75 15 22.75H9C6.42603 22.75 4.4292 22.2397 3.09473 20.9053C1.76026 19.5708 1.25 17.574 1.25 15Z" fill="#1C252E"/>
<path d="M13.7129 1.30665C13.9931 1.19061 14.3158 1.25526 14.5303 1.46974L22.5303 9.46974C22.7448 9.68422 22.8094 10.0069 22.6934 10.2871C22.5773 10.5674 22.3033 10.75 22 10.75H18C16.4585 10.75 15.1921 10.5027 14.3447 9.65529C13.4973 8.80787 13.25 7.54156 13.25 6.00001V2.00001C13.25 1.69667 13.4326 1.42274 13.7129 1.30665ZM14.75 6.00001C14.75 7.45846 15.0027 8.19216 15.4053 8.59474C15.8079 8.99732 16.5415 9.25001 18 9.25001H20.1895L14.75 3.81056V6.00001Z" fill="#1C252E"/>
<path d="M10.9704 11.25C11.2577 11.25 11.5314 11.3405 11.7468 11.4551C11.9567 11.5668 12.1857 11.742 12.3445 11.9854L13.4753 13.6846H13.4743C13.9032 14.3234 13.8127 15.2289 13.2712 15.7705L10.8113 18.2305C10.1684 18.8733 9.11336 18.8731 8.47044 18.2305L6.01048 15.7705C5.46889 15.2289 5.37758 14.3235 5.80638 13.6846L6.93626 11.9844L6.95384 11.959C7.11713 11.7345 7.34134 11.5659 7.55345 11.4541C7.76319 11.3435 8.03378 11.2501 8.32005 11.25H10.9704ZM8.32103 12.7529C8.30383 12.7579 8.27965 12.767 8.25267 12.7812C8.22592 12.7954 8.20269 12.811 8.18529 12.8252C8.17874 12.8305 8.17284 12.8338 8.16966 12.8369L7.0554 14.5156L7.0515 14.5205C7.04687 14.5276 7.03148 14.5605 7.03685 14.6162C7.04234 14.6729 7.06472 14.7036 7.07103 14.71L9.53099 17.1699C9.55685 17.1957 9.59466 17.2129 9.64037 17.2129C9.68605 17.2129 9.72386 17.1956 9.74974 17.1699L12.2097 14.71C12.216 14.7036 12.2384 14.6729 12.2439 14.6162C12.2493 14.5602 12.2338 14.5274 12.2292 14.5205L12.2263 14.5156L11.0954 12.8154L11.0945 12.8145C11.0838 12.8053 11.0655 12.7919 11.0417 12.7793C11.0182 12.7668 10.9957 12.7578 10.9783 12.7529C10.9599 12.7478 10.9571 12.75 10.9704 12.75H8.3308C8.32852 12.7505 8.3253 12.7517 8.32103 12.7529Z" fill="#1C252E"/>
</svg>
