<svg width="24" height="24" viewBox="0 0 24 24" fill="none" xmlns="http://www.w3.org/2000/svg">
<path d="M1.25 15V9C1.25 6.42603 1.76026 4.4292 3.09473 3.09473C4.4292 1.76026 6.42603 1.25 9 1.25H14C14.4142 1.25 14.75 1.58579 14.75 2C14.75 2.41421 14.4142 2.75 14 2.75H9C6.57397 2.75 5.0708 3.23974 4.15527 4.15527C3.23974 5.0708 2.75 6.57397 2.75 9V15C2.75 17.426 3.23974 18.9292 4.15527 19.8447C5.0708 20.7603 6.57397 21.25 9 21.25H15C17.426 21.25 18.9292 20.7603 19.8447 19.8447C20.7603 18.9292 21.25 17.426 21.25 15V10C21.25 9.58579 21.5858 9.25 22 9.25C22.4142 9.25 22.75 9.58579 22.75 10V15C22.75 17.574 22.2397 19.5708 20.9053 20.9053C19.5708 22.2397 17.574 22.75 15 22.75H9C6.42603 22.75 4.4292 22.2397 3.09473 20.9053C1.76026 19.5708 1.25 17.574 1.25 15Z" fill="#1C252E"/>
<path d="M13.7129 1.30665C13.9931 1.19061 14.3158 1.25526 14.5303 1.46974L22.5303 9.46974C22.7448 9.68422 22.8094 10.0069 22.6934 10.2871C22.5773 10.5674 22.3033 10.75 22 10.75H18C16.4585 10.75 15.1921 10.5027 14.3447 9.65529C13.4973 8.80787 13.25 7.54156 13.25 6.00001V2.00001C13.25 1.69667 13.4326 1.42274 13.7129 1.30665ZM14.75 6.00001C14.75 7.45846 15.0027 8.19216 15.4053 8.59474C15.8079 8.99732 16.5415 9.25001 18 9.25001H20.1895L14.75 3.81056V6.00001Z" fill="#1C252E"/>
<path d="M11.5674 14.6092C11.5673 14.3321 11.4744 14.0989 11.333 13.9392C11.1928 13.7812 11.0039 13.6952 10.7861 13.6951C10.5915 13.6951 10.3873 13.779 10.1904 14.0633C10.1484 14.1239 10.112 14.1874 10.0811 14.2478L9.41309 15.5545L8.74512 14.2478C8.71412 14.1872 8.67775 14.124 8.63574 14.0633C8.43894 13.779 8.23467 13.6952 8.04004 13.6951C7.82214 13.6951 7.6334 13.7811 7.49316 13.9392C7.35163 14.0989 7.2579 14.3319 7.25781 14.6092C7.25781 15.0879 7.55096 15.419 8.37109 16.1805L8.71484 16.5017C8.93586 16.7116 9.17064 16.946 9.41211 17.2097C9.78442 16.8031 10.1444 16.4689 10.4551 16.1805C11.275 15.4192 11.5674 15.0879 11.5674 14.6092ZM13.0674 14.6092C13.0674 15.8592 12.1672 16.6379 11.4756 17.2801C11.0375 17.6868 10.5795 18.1125 10.1289 18.6756C9.95899 18.8879 9.69856 19.0212 9.41309 19.0213C9.12755 19.0213 8.86723 18.8879 8.69727 18.6756C8.24671 18.1125 7.7886 17.6867 7.35059 17.2801C6.65896 16.6379 5.75781 15.8592 5.75781 14.6092C5.7579 13.9967 5.9659 13.4 6.37109 12.9431L6.37207 12.9441C6.79928 12.4626 7.39675 12.1951 8.04004 12.1951C8.56792 12.1952 9.03305 12.3836 9.41211 12.7039C9.79139 12.3831 10.2578 12.1951 10.7861 12.1951C11.4294 12.1952 12.0269 12.4625 12.4541 12.9441L12.4551 12.9431C12.8603 13.4 13.0673 13.9967 13.0674 14.6092Z" fill="#1C252E"/>
</svg>
