<svg width="24" height="24" viewBox="0 0 24 24" fill="none" xmlns="http://www.w3.org/2000/svg">
<path d="M19.5898 3.25H4.41992V14.4697C4.41992 15.169 4.72805 15.8336 5.25977 16.2822L5.36914 16.3691L10.5791 20.2695L10.7412 20.3799C11.5673 20.8973 12.6398 20.8608 13.4307 20.2695L18.6406 16.3691H18.6416C19.2399 15.9222 19.5898 15.2155 19.5898 14.4697V3.25ZM21.0898 14.4697C21.0898 15.6839 20.5205 16.8383 19.5391 17.5713L19.5381 17.5703L14.3291 21.4707C13.0387 22.4356 11.2917 22.4958 9.94434 21.6514L9.68066 21.4707L4.4707 17.5703C3.48953 16.8373 2.91992 15.6837 2.91992 14.4697V1.75H21.0898V14.4697Z" fill="#1C252E"/>
<path d="M22 1.75C22.4142 1.75 22.75 2.08579 22.75 2.5C22.75 2.91421 22.4142 3.25 22 3.25H2C1.58579 3.25 1.25 2.91421 1.25 2.5C1.25 2.08579 1.58579 1.75 2 1.75H22Z" fill="#1C252E"/>
<path d="M16 7.25C16.4142 7.25 16.75 7.58579 16.75 8C16.75 8.41421 16.4142 8.75 16 8.75H8C7.58579 8.75 7.25 8.41421 7.25 8C7.25 7.58579 7.58579 7.25 8 7.25H16Z" fill="#1C252E"/>
<path d="M16 12.25C16.4142 12.25 16.75 12.5858 16.75 13C16.75 13.4142 16.4142 13.75 16 13.75H8C7.58579 13.75 7.25 13.4142 7.25 13C7.25 12.5858 7.58579 12.25 8 12.25H16Z" fill="#1C252E"/>
</svg>
