<svg width="24" height="24" viewBox="0 0 24 24" fill="none" xmlns="http://www.w3.org/2000/svg">
<path d="M15.25 4.00004C15.25 3.09909 15.0247 2.91786 14.959 2.87407C14.8096 2.77447 14.5648 2.75004 14 2.75004H10C9.43524 2.75004 9.19041 2.77447 9.04102 2.87407C8.97532 2.91786 8.75 3.09909 8.75 4.00004C8.75 4.901 8.97532 5.08223 9.04102 5.12602C9.19041 5.22562 9.43524 5.25004 10 5.25004H14C14.901 5.25004 15.0822 5.02472 15.126 4.95903C15.2256 4.80964 15.25 4.56481 15.25 4.00004ZM16.75 4.00004C16.75 4.43528 16.7744 5.19045 16.374 5.79106C15.9178 6.47537 15.099 6.75004 14 6.75004H10C9.56476 6.75004 8.80959 6.77447 8.20898 6.37407C7.52468 5.91786 7.25 5.09909 7.25 4.00004C7.25 2.901 7.52468 2.08223 8.20898 1.62602C8.80959 1.22562 9.56476 1.25004 10 1.25004H14C14.4352 1.25004 15.1904 1.22562 15.791 1.62602C16.4753 2.08223 16.75 2.901 16.75 4.00004Z" fill="#1C252E"/>
<path d="M2.25 16.0005V10.0005C2.25 7.65986 2.67241 5.97159 3.7002 4.85888C4.73651 3.7371 6.2361 3.36417 7.95996 3.27098C8.37338 3.24888 8.72667 3.56651 8.74902 3.97997C8.77113 4.39339 8.4535 4.74668 8.04004 4.76903C6.43416 4.85589 5.43288 5.19329 4.80176 5.87645C4.16231 6.56877 3.75 7.78148 3.75 10.0005V16.0005C3.75004 17.9869 4.01139 19.2314 4.68945 20.0063C5.34591 20.7565 6.56481 21.2505 9 21.2505H14C14.4142 21.2505 14.75 21.5863 14.75 22.0005C14.7497 22.4145 14.4141 22.7505 14 22.7505H9C6.43533 22.7505 4.65411 22.2434 3.56055 20.9936C2.48885 19.7687 2.25004 18.0135 2.25 16.0005Z" fill="#1C252E"/>
<path d="M20.2501 15.0005V10.0005C20.2501 7.77604 19.8372 6.5643 19.1984 5.87352C18.5676 5.19176 17.5672 4.85595 15.9601 4.76903C15.5466 4.74668 15.229 4.39339 15.2511 3.97997C15.2734 3.56651 15.6267 3.24888 16.0401 3.27098C17.7625 3.36409 19.2622 3.7337 20.2989 4.85399C21.3274 5.96576 21.7501 7.65519 21.7501 10.0005V15.0005C21.7499 15.4145 21.4142 15.7505 21.0001 15.7505C20.5861 15.7505 20.2504 15.4145 20.2501 15.0005Z" fill="#1C252E"/>
<path d="M20.25 19C20.25 18.5858 20.5858 18.25 21 18.25C21.4142 18.25 21.75 18.5858 21.75 19V22C21.75 22.4142 21.4142 22.75 21 22.75H18C17.5858 22.75 17.25 22.4142 17.25 22C17.25 21.5858 17.5858 21.25 18 21.25H20.25V19Z" fill="#1C252E"/>
<path d="M14.4697 15.4697C14.7626 15.1768 15.2373 15.1768 15.5302 15.4697L21.4902 21.4296C21.7831 21.7225 21.7831 22.1973 21.4902 22.4902C21.1973 22.7831 20.7225 22.7831 20.4296 22.4902L14.4697 16.5302C14.1768 16.2373 14.1768 15.7626 14.4697 15.4697Z" fill="#1C252E"/>
</svg>
