<svg width="24" height="24" viewBox="0 0 24 24" fill="none" xmlns="http://www.w3.org/2000/svg">
<path d="M8.60946 13.3896V10.4902C8.60946 10.1046 8.70426 9.70263 8.85457 9.34766C9.00365 8.99563 9.23101 8.63423 9.54403 8.36816L12.4024 5.84375C12.4943 5.74506 12.6121 5.57575 12.7061 5.36914C12.8055 5.15072 12.8497 4.95732 12.8497 4.83008V3.34961C12.8495 3.02402 12.5757 2.75007 12.2501 2.75H3.34969C3.04385 2.75013 2.75499 3.00217 2.75985 3.40039V4.95996C2.75985 5.0219 2.78685 5.16564 2.87118 5.35254C2.93229 5.48796 3.00679 5.6085 3.07918 5.69922L3.15047 5.7793L3.16414 5.79395L5.72469 8.49414L5.76766 8.54395C5.95541 8.78047 6.12475 9.08433 6.24813 9.39355C6.36975 9.69845 6.46975 10.0666 6.46981 10.4297V14C6.46981 14.4498 6.9955 14.7619 7.41024 14.5146L8.34188 13.9111L8.35555 13.9023C8.37302 13.8916 8.44597 13.8271 8.51766 13.6895C8.58749 13.5552 8.60946 13.439 8.60946 13.3896ZM14.3497 4.83008C14.3497 5.24264 14.2244 5.65389 14.0714 5.99023C13.917 6.32952 13.7043 6.65872 13.4679 6.90234C13.4545 6.91613 13.4403 6.92966 13.4259 6.94238L10.5264 9.50195L10.5157 9.51172C10.4288 9.58569 10.3213 9.72976 10.2354 9.93262C10.1508 10.1326 10.1095 10.3359 10.1095 10.4902V13.3896C10.1095 13.7402 9.99769 14.0948 9.84774 14.3828C9.7016 14.6634 9.4725 14.9685 9.15731 15.168L9.15829 15.1689L8.21786 15.7793C8.2127 15.7826 8.20747 15.7858 8.20223 15.7891C6.85806 16.6139 4.96981 15.7076 4.96981 14V10.4297C4.96974 10.323 4.93527 10.1515 4.85457 9.94922C4.7798 9.76182 4.68504 9.59879 4.60555 9.49414L2.07528 6.82617L2.07625 6.82422C1.83543 6.57889 1.63972 6.2705 1.50399 5.96973C1.36837 5.66919 1.25985 5.308 1.25985 4.95996V3.41016C1.24969 2.21298 2.1788 1.25013 3.34969 1.25H12.2501C13.4041 1.25007 14.3495 2.19564 14.3497 3.34961V4.83008Z" fill="#1C252E"/>
<path d="M1.25 14.9997V11.9997C1.25013 11.5856 1.58587 11.2497 2 11.2497C2.41413 11.2497 2.74987 11.5856 2.75 11.9997V14.9997C2.75 17.4256 3.23982 18.9288 4.15527 19.8444C5.0708 20.7599 6.57397 21.2497 9 21.2497H15C17.426 21.2497 18.9292 20.7599 19.8447 19.8444C20.7602 18.9288 21.25 17.4256 21.25 14.9997V8.99966C21.25 5.97992 20.4976 4.37375 19.042 3.55337L19.0391 3.55142C18.8756 3.45858 18.5743 3.35122 18.1533 3.24478C17.7476 3.14219 17.2839 3.05318 16.8311 2.98013C16.4222 2.91418 16.1441 2.5296 16.21 2.12075C16.2759 1.71185 16.6604 1.43374 17.0693 1.49966C17.5462 1.57658 18.0574 1.67332 18.5215 1.79067C18.9692 1.9039 19.432 2.0503 19.7783 2.24673L19.9775 2.36392C21.9923 3.61151 22.75 5.88057 22.75 8.99966V14.9997C22.75 17.5736 22.2397 19.5705 20.9053 20.9049C19.5708 22.2394 17.574 22.7497 15 22.7497H9C6.42603 22.7497 4.4292 22.2394 3.09473 20.9049C1.76035 19.5705 1.25 17.5736 1.25 14.9997Z" fill="#1C252E"/>
<path d="M18 12.25C18.4142 12.25 18.75 12.5858 18.75 13C18.75 13.4142 18.4142 13.75 18 13.75H13C12.5858 13.75 12.25 13.4142 12.25 13C12.25 12.5858 12.5858 12.25 13 12.25H18Z" fill="#1C252E"/>
<path d="M18 16.25C18.4142 16.25 18.75 16.5858 18.75 17C18.75 17.4142 18.4142 17.75 18 17.75H11C10.5858 17.75 10.25 17.4142 10.25 17C10.25 16.5858 10.5858 16.25 11 16.25H18Z" fill="#1C252E"/>
</svg>
