<svg width="24" height="24" viewBox="0 0 24 24" fill="none" xmlns="http://www.w3.org/2000/svg">
<path d="M1.25 15V9C1.25 6.42603 1.76026 4.4292 3.09473 3.09473C4.4292 1.76026 6.42603 1.25 9 1.25H14C14.4142 1.25 14.75 1.58579 14.75 2C14.75 2.41421 14.4142 2.75 14 2.75H9C6.57397 2.75 5.0708 3.23974 4.15527 4.15527C3.23974 5.0708 2.75 6.57397 2.75 9V15C2.75 17.426 3.23974 18.9292 4.15527 19.8447C5.0708 20.7603 6.57397 21.25 9 21.25C9.41421 21.25 9.75 21.5858 9.75 22C9.75 22.4142 9.41421 22.75 9 22.75C6.42603 22.75 4.4292 22.2397 3.09473 20.9053C1.76026 19.5708 1.25 17.574 1.25 15Z" fill="#1C252E"/>
<path d="M21.25 13V10C21.25 9.58579 21.5858 9.25 22 9.25C22.4142 9.25 22.75 9.58579 22.75 10V13C22.75 13.4142 22.4142 13.75 22 13.75C21.5858 13.75 21.25 13.4142 21.25 13Z" fill="#1C252E"/>
<path d="M13.7129 1.30665C13.9931 1.19061 14.3158 1.25526 14.5303 1.46974L22.5303 9.46974C22.7448 9.68422 22.8094 10.0069 22.6934 10.2871C22.5773 10.5674 22.3033 10.75 22 10.75H18C16.4585 10.75 15.1921 10.5027 14.3447 9.65529C13.4973 8.80787 13.25 7.54156 13.25 6.00001V2.00001C13.25 1.69667 13.4326 1.42274 13.7129 1.30665ZM14.75 6.00001C14.75 7.45846 15.0027 8.19216 15.4053 8.59474C15.8079 8.99732 16.5415 9.25001 18 9.25001H20.1895L14.75 3.81056V6.00001Z" fill="#1C252E"/>
<path d="M15.6766 13.3293C16.6394 13.0769 17.7194 13.1628 18.6337 13.6994C19.4457 14.1761 20.07 14.976 20.368 16.0783C22.7809 16.7964 23.6284 20.1237 21.6327 21.8654L21.6317 21.8644C21.0006 22.4373 20.1647 22.7502 19.3192 22.7502H13.7596C13.7416 22.7502 13.723 22.7495 13.705 22.7482C10.7416 22.5335 10.4579 18.6209 12.8534 17.6975C12.6813 16.7198 12.8506 15.8337 13.2792 15.1018C13.8151 14.1867 14.714 13.5817 15.6766 13.3293ZM17.8749 14.9934C17.3487 14.6845 16.6871 14.6155 16.0575 14.7805C15.4279 14.9455 14.8829 15.3306 14.5731 15.8596C14.2738 16.3708 14.1523 17.0864 14.4852 18.0168C14.6248 18.4068 14.4221 18.8362 14.0321 18.9758C13.9325 19.0114 13.8305 19.0242 13.7313 19.0178C12.3972 19.1913 12.4193 21.1357 13.7977 21.2502H19.3192C19.8074 21.2502 20.2845 21.0661 20.6317 20.7473C20.6364 20.743 20.6416 20.7387 20.6464 20.7346C21.8089 19.7196 21.1715 17.6441 19.6464 17.4543C19.3172 17.4131 19.0544 17.1605 18.9999 16.8332C18.8374 15.8562 18.3832 15.2919 17.8749 14.9934Z" fill="#1C252E"/>
</svg>
