<svg width="24" height="24" viewBox="0 0 24 24" fill="none" xmlns="http://www.w3.org/2000/svg">
<path d="M10.4697 12.4697C10.7626 12.1768 11.2374 12.1768 11.5303 12.4697L13.5303 14.4697L13.582 14.5264C13.5875 14.5331 13.5915 14.541 13.5967 14.5479C13.6006 14.5531 13.6046 14.5582 13.6084 14.5635C13.6193 14.5787 13.629 14.5945 13.6387 14.6104C13.6545 14.6363 13.6682 14.663 13.6807 14.6904C13.687 14.7044 13.6938 14.7181 13.6992 14.7324C13.7137 14.7703 13.7252 14.809 13.7334 14.8486C13.7353 14.8577 13.7358 14.8669 13.7373 14.876C13.7434 14.9122 13.7473 14.9485 13.748 14.9854C13.7483 14.9971 13.7474 15.0088 13.7471 15.0205C13.7461 15.0548 13.743 15.0889 13.7373 15.1231C13.7355 15.1338 13.7347 15.1446 13.7324 15.1553C13.723 15.1997 13.7112 15.2441 13.6934 15.2871C13.6761 15.3287 13.6536 15.3673 13.6299 15.4043C13.6014 15.4486 13.5691 15.4915 13.5303 15.5303L11.5303 17.5303C11.2374 17.8232 10.7626 17.8232 10.4697 17.5303C10.1768 17.2374 10.1768 16.7626 10.4697 16.4697L11.1895 15.75H7C6.58579 15.75 6.25 15.4142 6.25 15C6.25 14.5858 6.58579 14.25 7 14.25H11.1895L10.4697 13.5303C10.1768 13.2374 10.1768 12.7626 10.4697 12.4697Z" fill="#1C252E"/>
<path d="M1.25 15V9C1.25 6.42603 1.76026 4.4292 3.09473 3.09473C4.4292 1.76026 6.42603 1.25 9 1.25H14C14.4142 1.25 14.75 1.58579 14.75 2C14.75 2.41421 14.4142 2.75 14 2.75H9C6.57397 2.75 5.0708 3.23974 4.15527 4.15527C3.23974 5.0708 2.75 6.57397 2.75 9V15C2.75 17.426 3.23974 18.9292 4.15527 19.8447C5.0708 20.7603 6.57397 21.25 9 21.25H15C17.426 21.25 18.9292 20.7603 19.8447 19.8447C20.7603 18.9292 21.25 17.426 21.25 15V10C21.25 9.58579 21.5858 9.25 22 9.25C22.4142 9.25 22.75 9.58579 22.75 10V15C22.75 17.574 22.2397 19.5708 20.9053 20.9053C19.5708 22.2397 17.574 22.75 15 22.75H9C6.42603 22.75 4.4292 22.2397 3.09473 20.9053C1.76026 19.5708 1.25 17.574 1.25 15Z" fill="#1C252E"/>
<path d="M13.7129 1.30665C13.9931 1.19061 14.3158 1.25526 14.5303 1.46974L22.5303 9.46974C22.7448 9.68422 22.8094 10.0069 22.6934 10.2871C22.5773 10.5674 22.3033 10.75 22 10.75H18C16.4585 10.75 15.1921 10.5027 14.3447 9.65529C13.4973 8.80787 13.25 7.54156 13.25 6.00001V2.00001C13.25 1.69667 13.4326 1.42274 13.7129 1.30665ZM14.75 6.00001C14.75 7.45846 15.0027 8.19216 15.4053 8.59474C15.8079 8.99732 16.5415 9.25001 18 9.25001H20.1895L14.75 3.81056V6.00001Z" fill="#1C252E"/>
</svg>
