<svg width="24" height="24" viewBox="0 0 24 24" fill="none" xmlns="http://www.w3.org/2000/svg">
<path d="M1.25 15V9C1.25 6.42603 1.76026 4.4292 3.09473 3.09473C4.4292 1.76026 6.42603 1.25 9 1.25H11C11.4142 1.25 11.75 1.58579 11.75 2C11.75 2.41421 11.4142 2.75 11 2.75H9C6.57397 2.75 5.0708 3.23974 4.15527 4.15527C3.23974 5.0708 2.75 6.57397 2.75 9V15C2.75 17.426 3.23974 18.9292 4.15527 19.8447C5.0708 20.7603 6.57397 21.25 9 21.25H15C17.426 21.25 18.9292 20.7603 19.8447 19.8447C20.7603 18.9292 21.25 17.426 21.25 15V13C21.25 12.5858 21.5858 12.25 22 12.25C22.4142 12.25 22.75 12.5858 22.75 13V15C22.75 17.574 22.2397 19.5708 20.9053 20.9053C19.5708 22.2397 17.574 22.75 15 22.75H9C6.42603 22.75 4.4292 22.2397 3.09473 20.9053C1.76026 19.5708 1.25 17.574 1.25 15Z" fill="#1C252E"/>
<path d="M18.1965 1.01337C19.3098 0.904083 20.4135 1.39354 21.5099 2.48993C22.6064 3.58636 23.0958 4.69006 22.9865 5.80341C22.881 6.87733 22.2328 7.76704 21.5099 8.48993L13.6213 16.3786C13.3961 16.5965 13.1025 16.7876 12.8185 16.9304C12.5362 17.0723 12.203 17.1976 11.8859 17.2429L8.87614 17.6725H8.87224C8.13015 17.7747 7.42018 17.572 6.92204 17.0759C6.42325 16.5789 6.21952 15.8696 6.32829 15.1237L6.75798 12.1159C6.8029 11.7945 6.92649 11.4591 7.0695 11.1745C7.21274 10.8895 7.40636 10.5935 7.63005 10.3698L15.5099 2.48993C16.2328 1.76707 17.1226 1.11888 18.1965 1.01337ZM18.3429 2.50653C17.7871 2.56123 17.2074 2.91355 16.5705 3.55048L8.69059 11.4304C8.61428 11.5067 8.50708 11.6558 8.41032 11.8483C8.31352 12.041 8.25844 12.2156 8.24333 12.3239L8.24235 12.3259L7.81267 15.3356L7.81169 15.3386C7.76133 15.6816 7.8627 15.8959 7.98063 16.0134C8.09959 16.1318 8.31836 16.2339 8.66423 16.1872L11.674 15.7575C11.7769 15.7428 11.9496 15.6876 12.1447 15.5895C12.3326 15.4951 12.4842 15.3885 12.5705 15.3073L20.4494 7.42938C21.0864 6.79241 21.4387 6.21283 21.4933 5.65692C21.544 5.14027 21.353 4.45404 20.4494 3.55048C19.5458 2.64696 18.8596 2.45582 18.3429 2.50653Z" fill="#1C252E"/>
<path d="M14.7077 3.42827C15.1065 3.31657 15.5197 3.54902 15.6315 3.94781C16.2307 6.08485 17.904 7.75944 20.0544 8.3687C20.4528 8.48169 20.6839 8.89601 20.571 9.29449C20.458 9.69289 20.0437 9.92398 19.6452 9.81109C16.9957 9.06029 14.929 6.99489 14.1882 4.3521C14.0765 3.95331 14.3089 3.54007 14.7077 3.42827Z" fill="#1C252E"/>
</svg>
