<svg width="24" height="24" viewBox="0 0 24 24" fill="none" xmlns="http://www.w3.org/2000/svg">
<path d="M20.25 7C20.25 5.61505 19.9034 4.57576 19.2627 3.88574C18.6313 3.20579 17.607 2.75 16 2.75H8C6.39295 2.75 5.36869 3.20579 4.7373 3.88574C4.09664 4.57576 3.75 5.61505 3.75 7V17C3.75 18.385 4.09664 19.4242 4.7373 20.1143C5.36869 20.7942 6.39295 21.25 8 21.25H16C17.607 21.25 18.6313 20.7942 19.2627 20.1143C19.9034 19.4242 20.25 18.385 20.25 17V7ZM21.75 17C21.75 18.615 21.3466 20.0758 20.3623 21.1357C19.3687 22.2057 17.8929 22.75 16 22.75H8C6.10712 22.75 4.63131 22.2057 3.6377 21.1357C2.65342 20.0758 2.25 18.615 2.25 17V7C2.25 5.38503 2.65342 3.92424 3.6377 2.86426C4.63131 1.79429 6.10712 1.25 8 1.25H16C17.8929 1.25 19.3687 1.79429 20.3623 2.86426C21.3466 3.92424 21.75 5.38503 21.75 7V17Z" fill="#1C252E"/>
<path d="M15.5 1.25C15.9142 1.25 16.25 1.58579 16.25 2V9.86035C16.2497 10.9702 14.9436 11.4995 14.1562 10.7861L14.1514 10.7812L12 8.79688L9.84863 10.7812L9.84375 10.7861C9.05637 11.4995 7.75029 10.9702 7.75 9.86035V2C7.75 1.58579 8.08579 1.25 8.5 1.25H15.5ZM9.25 9.29199L11.1514 7.53906C11.6284 7.09404 12.3704 7.09436 12.8477 7.53906H12.8486L14.75 9.29199V2.75H9.25V9.29199Z" fill="#1C252E"/>
<path d="M17.5 13.25C17.9142 13.25 18.25 13.5858 18.25 14C18.25 14.4142 17.9142 14.75 17.5 14.75H13.25C12.8358 14.75 12.5 14.4142 12.5 14C12.5 13.5858 12.8358 13.25 13.25 13.25H17.5Z" fill="#1C252E"/>
<path d="M17.5 17.25C17.9142 17.25 18.25 17.5858 18.25 18C18.25 18.4142 17.9142 18.75 17.5 18.75H9C8.58579 18.75 8.25 18.4142 8.25 18C8.25 17.5858 8.58579 17.25 9 17.25H17.5Z" fill="#1C252E"/>
</svg>
