<svg width="24" height="24" viewBox="0 0 24 24" fill="none" xmlns="http://www.w3.org/2000/svg">
<path d="M20.25 7C20.25 5.61505 19.9034 4.57576 19.2627 3.88574C18.6313 3.20579 17.607 2.75 16 2.75H8C6.39295 2.75 5.36869 3.20579 4.7373 3.88574C4.09664 4.57576 3.75 5.61505 3.75 7V17C3.75 18.385 4.09664 19.4242 4.7373 20.1143C5.36869 20.7942 6.39295 21.25 8 21.25H16C17.607 21.25 18.6313 20.7942 19.2627 20.1143C19.9034 19.4242 20.25 18.385 20.25 17V7ZM21.75 17C21.75 18.615 21.3466 20.0758 20.3623 21.1357C19.3687 22.2057 17.8929 22.75 16 22.75H8C6.10712 22.75 4.63131 22.2057 3.6377 21.1357C2.65342 20.0758 2.25 18.615 2.25 17V7C2.25 5.38503 2.65342 3.92424 3.6377 2.86426C4.63131 1.79429 6.10712 1.25 8 1.25H16C17.8929 1.25 19.3687 1.79429 20.3623 2.86426C21.3466 3.92424 21.75 5.38503 21.75 7V17Z" fill="#1C252E"/>
<path d="M13.75 6.5V4.5C13.75 4.08579 14.0858 3.75 14.5 3.75C14.9142 3.75 15.25 4.08579 15.25 4.5V6.5C15.25 7.18579 15.8142 7.75 16.5 7.75H18.5C18.9142 7.75 19.25 8.08579 19.25 8.5C19.25 8.91421 18.9142 9.25 18.5 9.25H16.5C14.9858 9.25 13.75 8.01421 13.75 6.5Z" fill="#1C252E"/>
<path d="M12.4277 14.3684C12.4276 14.0913 12.3348 13.8581 12.1934 13.6985C12.0532 13.5404 11.8643 13.4544 11.6465 13.4543C11.4518 13.4543 11.2476 13.5383 11.0508 13.8225C11.0088 13.8832 10.9723 13.9466 10.9414 14.0071L10.2734 15.3137L9.60547 14.0071C9.57447 13.9465 9.5381 13.8832 9.49609 13.8225C9.2993 13.5382 9.09502 13.4544 8.90039 13.4543C8.6825 13.4543 8.49375 13.5403 8.35352 13.6985C8.21198 13.8581 8.11825 14.0912 8.11816 14.3684C8.11816 14.8472 8.41131 15.1782 9.23145 15.9397L9.5752 16.261C9.79621 16.4709 10.031 16.7053 10.2725 16.969C10.6448 16.5623 11.0047 16.2282 11.3154 15.9397C12.1354 15.1784 12.4277 14.8471 12.4277 14.3684ZM13.9277 14.3684C13.9277 15.6185 13.0276 16.3972 12.3359 17.0393C11.8979 17.446 11.4399 17.8717 10.9893 18.4348C10.8193 18.6472 10.5589 18.7804 10.2734 18.7805C9.9879 18.7805 9.72758 18.6471 9.55762 18.4348C9.10706 17.8718 8.64895 17.446 8.21094 17.0393C7.51931 16.3972 6.61816 15.6185 6.61816 14.3684C6.61825 13.756 6.82626 13.1593 7.23145 12.7024L7.23242 12.7034C7.65963 12.2218 8.2571 11.9543 8.90039 11.9543C9.42827 11.9544 9.8934 12.1429 10.2725 12.4631C10.6517 12.1424 11.1181 11.9543 11.6465 11.9543C12.2898 11.9544 12.8873 12.2217 13.3145 12.7034L13.3154 12.7024C13.7206 13.1593 13.9276 13.756 13.9277 14.3684Z" fill="#1C252E"/>
</svg>
