<svg width="24" height="24" viewBox="0 0 24 24" fill="none" xmlns="http://www.w3.org/2000/svg">
<path d="M21.25 12C21.25 6.89421 17.1058 2.75 12 2.75C6.89421 2.75 2.75 6.89421 2.75 12C2.75 17.1058 6.89421 21.25 12 21.25C17.1058 21.25 21.25 17.1058 21.25 12ZM22.75 12C22.75 17.9342 17.9342 22.75 12 22.75C6.06579 22.75 1.25 17.9342 1.25 12C1.25 6.06579 6.06579 1.25 12 1.25C17.9342 1.25 22.75 6.06579 22.75 12Z" fill="#1C252E"/>
<path d="M7.49023 12C7.49023 9.37579 9.61602 7.25 12.2402 7.25C13.4431 7.25 14.5363 7.70398 15.374 8.43555C15.6855 8.70802 15.7175 9.18133 15.4453 9.49316C15.1729 9.80516 14.6987 9.8369 14.3867 9.56445C13.8045 9.0562 13.0572 8.75 12.2402 8.75C10.4444 8.75 8.99023 10.2042 8.99023 12C8.99023 13.7958 10.4444 15.25 12.2402 15.25C13.0572 15.25 13.8045 14.9438 14.3867 14.4355C14.6987 14.1631 15.1729 14.1948 15.4453 14.5068C15.7175 14.8187 15.6855 15.292 15.374 15.5645C14.5363 16.296 13.4431 16.75 12.2402 16.75C9.61602 16.75 7.49023 14.6242 7.49023 12Z" fill="#1C252E"/>
</svg>
