<svg width="24" height="24" viewBox="0 0 24 24" fill="none" xmlns="http://www.w3.org/2000/svg">
<path d="M6.25 5C6.25 2.92579 7.92579 1.25 10 1.25H12.6201C13.0343 1.25006 13.3701 1.58583 13.3701 2C13.3701 2.41417 13.0343 2.74994 12.6201 2.75H10C8.75421 2.75 7.75 3.75421 7.75 5C7.75 5.41421 7.41421 5.75 7 5.75C6.58579 5.75 6.25 5.41421 6.25 5Z" fill="#1C252E"/>
<path d="M15.5996 1.25C16.0138 1.25 16.3496 1.58579 16.3496 2C16.3496 2.41421 16.0138 2.75 15.5996 2.75H11.5996C11.1854 2.75 10.8496 2.41421 10.8496 2C10.8496 1.58579 11.1854 1.25 11.5996 1.25H15.5996Z" fill="#1C252E"/>
<path d="M15.7129 1.30665C15.9931 1.19061 16.3158 1.25526 16.5303 1.46974L22.5303 7.46974C22.7448 7.68422 22.8094 8.00688 22.6934 8.28712C22.5773 8.56738 22.3033 8.75001 22 8.75001H19C17.8335 8.75001 16.8171 8.56521 16.126 7.87404C15.4348 7.18287 15.25 6.16656 15.25 5.00001V2.00001C15.25 1.69667 15.4326 1.42274 15.7129 1.30665ZM16.75 5.00001C16.75 6.08346 16.9402 6.56716 17.1865 6.81349C17.4329 7.05982 17.9165 7.25001 19 7.25001H20.1895L16.75 3.81056V5.00001Z" fill="#1C252E"/>
<path d="M1.25 16.4004V12.5996C1.25005 10.5258 1.66013 8.87893 2.76953 7.76953C3.87893 6.66013 5.52582 6.25005 7.59961 6.25H10.5996C11.0138 6.25 11.3496 6.58579 11.3496 7C11.3496 7.41421 11.0138 7.75 10.5996 7.75H7.59961C5.67382 7.75005 4.52056 8.13959 3.83008 8.83008C3.13959 9.52056 2.75005 10.6738 2.75 12.5996V16.4004C2.75005 18.3262 3.13959 19.4794 3.83008 20.1699C4.52056 20.8604 5.67382 21.2499 7.59961 21.25H11.4004C13.3262 21.2499 14.4794 20.8604 15.1699 20.1699C15.8604 19.4794 16.2499 18.3262 16.25 16.4004V13.4004C16.25 12.9862 16.5858 12.6504 17 12.6504C17.4142 12.6504 17.75 12.9862 17.75 13.4004V16.4004C17.7499 18.4742 17.3399 20.1211 16.2305 21.2305C15.1211 22.3399 13.4742 22.7499 11.4004 22.75H7.59961C5.52582 22.7499 3.87893 22.3399 2.76953 21.2305C1.66013 20.1211 1.25005 18.4742 1.25 16.4004Z" fill="#1C252E"/>
<path d="M10.3125 6.30665C10.5927 6.19061 10.9154 6.25526 11.1299 6.46974L17.5303 12.8701C17.7445 13.0846 17.8084 13.4074 17.6924 13.6875C17.5762 13.9674 17.303 14.1502 17 14.1504H13.7998C12.5584 14.1504 11.4919 13.9527 10.7695 13.2305C10.0471 12.5081 9.84963 11.4417 9.84961 10.2002V7.00001C9.84961 6.69667 10.0322 6.42274 10.3125 6.30665ZM11.3496 10.2002C11.3496 11.3585 11.5525 11.8924 11.8301 12.1699C12.1077 12.4474 12.6416 12.6504 13.7998 12.6504H15.1895L11.3496 8.81056V10.2002Z" fill="#1C252E"/>
<path d="M21.249 14.1904V8C21.249 7.58593 21.585 7.25023 21.999 7.25C22.4132 7.25 22.749 7.58579 22.749 8V14.1904C22.7488 16.1544 21.1535 17.75 19.1895 17.75C18.7752 17.75 18.4395 17.4142 18.4395 17C18.4395 16.5858 18.7752 16.25 19.1895 16.25C20.3251 16.25 21.2488 15.326 21.249 14.1904Z" fill="#1C252E"/>
</svg>
