<svg width="24" height="24" viewBox="0 0 24 24" fill="none" xmlns="http://www.w3.org/2000/svg">
<path d="M21 18.75C21.4142 18.75 21.75 19.0858 21.75 19.5C21.75 19.9142 21.4142 20.25 21 20.25H11C10.5858 20.25 10.25 19.9142 10.25 19.5C10.25 19.0858 10.5858 18.75 11 18.75H21Z" fill="#1C252E"/>
<path d="M21 11.75C21.4142 11.75 21.75 12.0858 21.75 12.5C21.75 12.9142 21.4142 13.25 21 13.25H11C10.5858 13.25 10.25 12.9142 10.25 12.5C10.25 12.0858 10.5858 11.75 11 11.75H21Z" fill="#1C252E"/>
<path d="M21 4.75C21.4142 4.75 21.75 5.08579 21.75 5.5C21.75 5.91421 21.4142 6.25 21 6.25H11C10.5858 6.25 10.25 5.91421 10.25 5.5C10.25 5.08579 10.5858 4.75 11 4.75H21Z" fill="#1C252E"/>
<path d="M6.46967 2.96967C6.76256 2.67678 7.23732 2.67678 7.53022 2.96967C7.82311 3.26256 7.82311 3.73732 7.53022 4.03022L4.53022 7.03022C4.23732 7.32311 3.76256 7.32311 3.46967 7.03022L2.46967 6.03022C2.17678 5.73732 2.17678 5.26256 2.46967 4.96967C2.76256 4.67678 3.23732 4.67678 3.53022 4.96967L3.99994 5.4394L6.46967 2.96967Z" fill="#1C252E"/>
<path d="M6.46967 9.96967C6.76256 9.67678 7.23732 9.67678 7.53022 9.96967C7.82311 10.2626 7.82311 10.7373 7.53022 11.0302L4.53022 14.0302C4.23732 14.3231 3.76256 14.3231 3.46967 14.0302L2.46967 13.0302C2.17678 12.7373 2.17678 12.2626 2.46967 11.9697C2.76256 11.6768 3.23732 11.6768 3.53022 11.9697L3.99994 12.4394L6.46967 9.96967Z" fill="#1C252E"/>
<path d="M6.46967 16.9697C6.76256 16.6768 7.23732 16.6768 7.53022 16.9697C7.82311 17.2626 7.82311 17.7373 7.53022 18.0302L4.53022 21.0302C4.23732 21.3231 3.76256 21.3231 3.46967 21.0302L2.46967 20.0302C2.17678 19.7373 2.17678 19.2626 2.46967 18.9697C2.76256 18.6768 3.23732 18.6768 3.53022 18.9697L3.99994 19.4394L6.46967 16.9697Z" fill="#1C252E"/>
</svg>
