<svg width="24" height="24" viewBox="0 0 24 24" fill="none" xmlns="http://www.w3.org/2000/svg">
<path d="M7.25 5V2C7.25 1.58579 7.58579 1.25 8 1.25C8.41421 1.25 8.75 1.58579 8.75 2V5C8.75 5.41421 8.41421 5.75 8 5.75C7.58579 5.75 7.25 5.41421 7.25 5Z" fill="#1C252E"/>
<path d="M15.25 5V2C15.25 1.58579 15.5858 1.25 16 1.25C16.4142 1.25 16.75 1.58579 16.75 2V5C16.75 5.41421 16.4142 5.75 16 5.75C15.5858 5.75 15.25 5.41421 15.25 5Z" fill="#1C252E"/>
<path d="M20.25 8.5C20.25 7.11505 19.9034 6.07576 19.2627 5.38574C18.6313 4.70579 17.607 4.25 16 4.25H8C6.39295 4.25 5.36869 4.70579 4.7373 5.38574C4.09664 6.07576 3.75 7.11505 3.75 8.5V17C3.75 18.385 4.09664 19.4242 4.7373 20.1143C5.36869 20.7942 6.39295 21.25 8 21.25H12.8926C12.7972 21.1174 12.7061 20.9817 12.6211 20.8418V20.8428C12.0698 19.9468 11.75 18.8712 11.75 17.75C11.75 15.8714 12.6136 14.168 13.9971 13.0771C15.0275 12.2414 16.3439 11.75 17.75 11.75C18.6416 11.75 19.4889 11.944 20.25 12.2939V8.5ZM21.75 13.6299C21.75 13.918 21.5848 14.1807 21.3252 14.3057C21.0656 14.4306 20.7574 14.3955 20.5322 14.2158C19.7723 13.6096 18.8063 13.25 17.75 13.25C16.6961 13.25 15.7119 13.618 14.9424 14.2422L14.9336 14.25C13.9026 15.0595 13.25 16.3329 13.25 17.75C13.25 18.5885 13.49 19.3927 13.8984 20.0566L13.9014 20.0615C14.2223 20.5905 14.6351 21.0441 15.1182 21.3916C15.3822 21.5818 15.4934 21.9207 15.3936 22.2305C15.2935 22.5401 15.0051 22.75 14.6797 22.75H8C6.10712 22.75 4.63131 22.2057 3.6377 21.1357C2.65342 20.0758 2.25 18.615 2.25 17V8.5C2.25 6.88503 2.65342 5.42424 3.6377 4.36426C4.63131 3.29429 6.10712 2.75 8 2.75H16C17.8929 2.75 19.3687 3.29429 20.3623 4.36426C21.3466 5.42424 21.75 6.88503 21.75 8.5V13.6299Z" fill="#1C252E"/>
<path d="M13 10.25C13.4142 10.25 13.75 10.5858 13.75 11C13.75 11.4142 13.4142 11.75 13 11.75H7C6.58579 11.75 6.25 11.4142 6.25 11C6.25 10.5858 6.58579 10.25 7 10.25H13Z" fill="#1C252E"/>
<path d="M9.62012 15.25C10.0343 15.2501 10.3701 15.5858 10.3701 16C10.3701 16.4142 10.0343 16.7499 9.62012 16.75H7C6.58579 16.75 6.25 16.4142 6.25 16C6.25 15.5858 6.58579 15.25 7 15.25H9.62012Z" fill="#1C252E"/>
<path d="M22.25 17.75C22.25 16.3189 21.5824 15.0431 20.5361 14.2197L20.5322 14.2168V14.2158C19.7723 13.6096 18.8063 13.25 17.75 13.25C16.6961 13.25 15.7119 13.618 14.9424 14.2422L14.9336 14.25C13.9026 15.0595 13.25 16.3329 13.25 17.75C13.25 18.5885 13.49 19.3927 13.8984 20.0566L13.9014 20.0615C14.1822 20.5244 14.5334 20.9291 14.9404 21.2559L15.1182 21.3916L15.123 21.3945C15.858 21.933 16.7638 22.25 17.75 22.25C18.8903 22.25 19.9143 21.8313 20.7012 21.1299L20.7217 21.1123C21.0591 20.8324 21.353 20.4816 21.5918 20.0723L21.6016 20.0566C22.01 19.3927 22.25 18.5885 22.25 17.75ZM23.75 17.75C23.75 18.865 23.4324 19.9342 22.8867 20.8271L22.8877 20.8281C22.5712 21.3706 22.1715 21.8523 21.6982 22.249C20.6452 23.1876 19.2697 23.75 17.75 23.75C16.4362 23.75 15.2213 23.3271 14.2363 22.6055V22.6045C13.5831 22.1334 13.0387 21.5293 12.6211 20.8418V20.8428C12.0698 19.9468 11.75 18.8712 11.75 17.75C11.75 15.8714 12.6136 14.168 13.9971 13.0771C15.0275 12.2414 16.3439 11.75 17.75 11.75C19.1519 11.75 20.4444 12.2291 21.4639 13.041L21.7188 13.2529C22.9654 14.3507 23.75 15.9603 23.75 17.75Z" fill="#1C252E"/>
<path d="M17 20.25C17 19.2842 16.2158 18.5 15.25 18.5C14.8358 18.5 14.5 18.1642 14.5 17.75C14.5 17.3358 14.8358 17 15.25 17C16.2158 17 17 16.2158 17 15.25C17 14.8358 17.3358 14.5 17.75 14.5C18.1642 14.5 18.5 14.8358 18.5 15.25C18.5 16.2158 19.2842 17 20.25 17C20.6642 17 21 17.3358 21 17.75C21 18.1642 20.6642 18.5 20.25 18.5C19.2842 18.5 18.5 19.2842 18.5 20.25C18.5 20.6642 18.1642 21 17.75 21C17.3358 21 17 20.6642 17 20.25ZM17.75 17.3252C17.6217 17.4795 17.4795 17.6217 17.3252 17.75C17.4793 17.8781 17.6219 18.0197 17.75 18.1738C17.878 18.0199 18.0199 17.878 18.1738 17.75C18.0197 17.6219 17.8781 17.4793 17.75 17.3252Z" fill="#1C252E"/>
</svg>
