<svg width="24" height="24" viewBox="0 0 24 24" fill="none" xmlns="http://www.w3.org/2000/svg">
<path d="M8.24994 17V12.8106L7.53022 13.5303C7.23732 13.8232 6.76256 13.8232 6.46967 13.5303C6.17678 13.2374 6.17678 12.7626 6.46967 12.4697L8.46967 10.4697C8.68415 10.2553 9.00681 10.1906 9.28705 10.3067C9.56731 10.4227 9.74994 10.6967 9.74994 11V17C9.74994 17.4142 9.41416 17.75 8.99994 17.75C8.58573 17.75 8.24994 17.4142 8.24994 17Z" fill="#1C252E"/>
<path d="M8.46967 10.4697C8.76256 10.1768 9.23732 10.1768 9.53022 10.4697L11.5302 12.4697C11.8231 12.7626 11.8231 13.2374 11.5302 13.5303C11.2373 13.8232 10.7626 13.8232 10.4697 13.5303L8.46967 11.5303C8.17678 11.2374 8.17678 10.7626 8.46967 10.4697Z" fill="#1C252E"/>
<path d="M1.25 15V9C1.25 6.42603 1.76026 4.4292 3.09473 3.09473C4.4292 1.76026 6.42603 1.25 9 1.25H14C14.4142 1.25 14.75 1.58579 14.75 2C14.75 2.41421 14.4142 2.75 14 2.75H9C6.57397 2.75 5.0708 3.23974 4.15527 4.15527C3.23974 5.0708 2.75 6.57397 2.75 9V15C2.75 17.426 3.23974 18.9292 4.15527 19.8447C5.0708 20.7603 6.57397 21.25 9 21.25H15C17.426 21.25 18.9292 20.7603 19.8447 19.8447C20.7603 18.9292 21.25 17.426 21.25 15V10C21.25 9.58579 21.5858 9.25 22 9.25C22.4142 9.25 22.75 9.58579 22.75 10V15C22.75 17.574 22.2397 19.5708 20.9053 20.9053C19.5708 22.2397 17.574 22.75 15 22.75H9C6.42603 22.75 4.4292 22.2397 3.09473 20.9053C1.76026 19.5708 1.25 17.574 1.25 15Z" fill="#1C252E"/>
<path d="M13.7129 1.30665C13.9931 1.19061 14.3158 1.25526 14.5303 1.46974L22.5303 9.46974C22.7448 9.68422 22.8094 10.0069 22.6934 10.2871C22.5773 10.5674 22.3033 10.75 22 10.75H18C16.4585 10.75 15.1921 10.5027 14.3447 9.65529C13.4973 8.80787 13.25 7.54156 13.25 6.00001V2.00001C13.25 1.69667 13.4326 1.42274 13.7129 1.30665ZM14.75 6.00001C14.75 7.45846 15.0027 8.19216 15.4053 8.59474C15.8079 8.99732 16.5415 9.25001 18 9.25001H20.1895L14.75 3.81056V6.00001Z" fill="#1C252E"/>
</svg>
