<svg width="24" height="24" viewBox="0 0 24 24" fill="none" xmlns="http://www.w3.org/2000/svg">
<path d="M7.25 5V2C7.25 1.58579 7.58579 1.25 8 1.25C8.41421 1.25 8.75 1.58579 8.75 2V5C8.75 5.41421 8.41421 5.75 8 5.75C7.58579 5.75 7.25 5.41421 7.25 5Z" fill="#1C252E"/>
<path d="M15.25 5V2C15.25 1.58579 15.5858 1.25 16 1.25C16.4142 1.25 16.75 1.58579 16.75 2V5C16.75 5.41421 16.4142 5.75 16 5.75C15.5858 5.75 15.25 5.41421 15.25 5Z" fill="#1C252E"/>
<path d="M15 12.25C15.4142 12.25 15.75 12.5858 15.75 13C15.75 13.4142 15.4142 13.75 15 13.75H7C6.58579 13.75 6.25 13.4142 6.25 13C6.25 12.5858 6.58579 12.25 7 12.25H15Z" fill="#1C252E"/>
<path d="M12 16.25C12.4142 16.25 12.75 16.5858 12.75 17C12.75 17.4142 12.4142 17.75 12 17.75H7C6.58579 17.75 6.25 17.4142 6.25 17C6.25 16.5858 6.58579 16.25 7 16.25H12Z" fill="#1C252E"/>
<path d="M20.25 9.65039C20.25 7.35743 19.836 6.0993 19.1914 5.38184C18.5615 4.68114 17.5672 4.33777 15.9727 4.25H8.03027C6.43376 4.34258 5.43889 4.68552 4.80859 5.38574C4.16412 6.10184 3.75 7.35718 3.75 9.65039V15.8301C3.75001 17.8792 4.01151 19.1733 4.69629 19.9795C5.35409 20.7538 6.57004 21.2598 9 21.2598H15C17.43 21.2598 18.6459 20.7538 19.3037 19.9795C19.9885 19.1733 20.25 17.8792 20.25 15.8301V9.65039ZM21.75 15.8301C21.75 17.9008 21.5114 19.6964 20.4463 20.9502C19.3541 22.2359 17.57 22.7598 15 22.7598H9C6.42996 22.7598 4.64591 22.2359 3.55371 20.9502C2.48864 19.6964 2.25001 17.9008 2.25 15.8301V9.65039C2.25 7.24388 2.67051 5.51827 3.69336 4.38184C4.72887 3.23144 6.23094 2.84949 7.95703 2.75098L8 2.75H16C16.0134 2.75 16.0267 2.75026 16.04 2.75098C17.7678 2.84437 19.2707 3.22653 20.3066 4.37891C21.3291 5.51652 21.75 7.244 21.75 9.65039V15.8301Z" fill="#1C252E"/>
</svg>
