<svg width="24" height="24" viewBox="0 0 24 24" fill="none" xmlns="http://www.w3.org/2000/svg">
<path d="M13.0003 14.25C13.4145 14.25 13.7503 14.5858 13.7503 15C13.7503 15.4142 13.4145 15.75 13.0003 15.75H8.81087L9.53059 16.4697C9.82349 16.7626 9.82349 17.2374 9.53059 17.5303C9.2377 17.8232 8.76294 17.8232 8.47005 17.5303L6.47005 15.5303C6.25557 15.3158 6.19092 14.9931 6.30696 14.7129C6.42304 14.4326 6.69697 14.25 7.00032 14.25H13.0003Z" fill="#1C252E"/>
<path d="M8.46967 12.4697C8.76256 12.1768 9.23732 12.1768 9.53022 12.4697C9.82311 12.7626 9.82311 13.2374 9.53022 13.5303L7.53022 15.5303C7.23732 15.8232 6.76256 15.8232 6.46967 15.5303C6.17678 15.2374 6.17678 14.7626 6.46967 14.4697L8.46967 12.4697Z" fill="#1C252E"/>
<path d="M1.25 15V9C1.25 6.42603 1.76026 4.4292 3.09473 3.09473C4.4292 1.76026 6.42603 1.25 9 1.25H14C14.4142 1.25 14.75 1.58579 14.75 2C14.75 2.41421 14.4142 2.75 14 2.75H9C6.57397 2.75 5.0708 3.23974 4.15527 4.15527C3.23974 5.0708 2.75 6.57397 2.75 9V15C2.75 17.426 3.23974 18.9292 4.15527 19.8447C5.0708 20.7603 6.57397 21.25 9 21.25H15C17.426 21.25 18.9292 20.7603 19.8447 19.8447C20.7603 18.9292 21.25 17.426 21.25 15V10C21.25 9.58579 21.5858 9.25 22 9.25C22.4142 9.25 22.75 9.58579 22.75 10V15C22.75 17.574 22.2397 19.5708 20.9053 20.9053C19.5708 22.2397 17.574 22.75 15 22.75H9C6.42603 22.75 4.4292 22.2397 3.09473 20.9053C1.76026 19.5708 1.25 17.574 1.25 15Z" fill="#1C252E"/>
<path d="M13.7129 1.30665C13.9931 1.19061 14.3158 1.25526 14.5303 1.46974L22.5303 9.46974C22.7448 9.68422 22.8094 10.0069 22.6934 10.2871C22.5773 10.5674 22.3033 10.75 22 10.75H18C16.4585 10.75 15.1921 10.5027 14.3447 9.65529C13.4973 8.80787 13.25 7.54156 13.25 6.00001V2.00001C13.25 1.69667 13.4326 1.42274 13.7129 1.30665ZM14.75 6.00001C14.75 7.45846 15.0027 8.19216 15.4053 8.59474C15.8079 8.99732 16.5415 9.25001 18 9.25001H20.1895L14.75 3.81056V6.00001Z" fill="#1C252E"/>
</svg>
