<svg width="24" height="24" viewBox="0 0 24 24" fill="none" xmlns="http://www.w3.org/2000/svg">
<path d="M19.7503 3.20996C21.0171 3.20996 22.0732 3.98535 22.514 5.05371H22.512C22.7671 5.64104 22.8133 6.29321 22.6595 6.93457L22.6585 6.94141L19.2894 20.4629C18.9676 21.8168 17.7615 22.75 16.3802 22.75H3.24053C1.21797 22.75 -0.213567 20.7724 0.384084 18.8467L4.59404 5.32715C4.9801 4.07845 6.13706 3.20996 7.45049 3.20996H19.7503ZM7.45049 4.70996C6.80453 4.70996 6.22114 5.14111 6.02666 5.77148V5.77344L1.8167 19.293C1.51489 20.267 2.24331 21.25 3.24053 21.25H16.3802C17.0789 21.25 17.6721 20.7823 17.8304 20.1162L21.2024 6.5791C21.2853 6.22891 21.2519 5.91039 21.1341 5.64355L21.1302 5.63477L21.1272 5.62598C20.908 5.09441 20.3834 4.70996 19.7503 4.70996H7.45049Z" fill="#1C252E"/>
<path d="M21.9453 5.25201C22.3583 5.22199 22.7179 5.5324 22.748 5.94537L23.7383 19.5655V19.5674C23.8583 21.2874 22.5086 22.7499 20.7803 22.7501H16C15.5858 22.7501 15.25 22.4143 15.25 22.0001C15.25 21.5858 15.5858 21.2501 16 21.2501H20.7803C21.6308 21.2499 22.3006 20.5336 22.2422 19.6749L21.252 6.05474C21.2219 5.64172 21.5323 5.28219 21.9453 5.25201Z" fill="#1C252E"/>
<path d="M9.99067 1.88427C10.0877 1.48166 10.4933 1.23362 10.8959 1.33056C11.2985 1.42759 11.5466 1.83319 11.4497 2.23583L10.4096 6.55517C10.3127 6.95788 9.90705 7.20583 9.50434 7.10888C9.10187 7.01182 8.85383 6.60713 8.95063 6.20459L9.99067 1.88427Z" fill="#1C252E"/>
<path d="M16.5873 1.89087C16.6752 1.48635 17.0743 1.22913 17.4789 1.31665C17.8838 1.40433 18.1409 1.8044 18.0532 2.20923L17.1137 6.54907C17.0259 6.95379 16.6259 7.21096 16.2211 7.12329C15.8167 7.0355 15.5596 6.63623 15.6469 6.23169L16.5873 1.89087Z" fill="#1C252E"/>
<path d="M15.7002 11.25C16.1144 11.25 16.4502 11.5858 16.4502 12C16.4502 12.4142 16.1144 12.75 15.7002 12.75H7.7002C7.28598 12.75 6.9502 12.4142 6.9502 12C6.9502 11.5858 7.28598 11.25 7.7002 11.25H15.7002Z" fill="#1C252E"/>
<path d="M14.7002 15.25C15.1144 15.25 15.4502 15.5858 15.4502 16C15.4502 16.4142 15.1144 16.75 14.7002 16.75H6.7002C6.28598 16.75 5.9502 16.4142 5.9502 16C5.9502 15.5858 6.28598 15.25 6.7002 15.25H14.7002Z" fill="#1C252E"/>
</svg>
