<svg width="24" height="24" viewBox="0 0 24 24" fill="none" xmlns="http://www.w3.org/2000/svg">
<g opacity="0.4">
<path d="M16 9.75H8C7.31 9.75 6.75 10.31 6.75 11V12.05C6.78 12.04 6.8 12.03 6.83 12.02C6.95 11.96 7.08 11.92 7.21 11.88C7.27 11.86 7.33 11.84 7.4 11.82C7.6 11.78 7.8 11.75 8.01 11.75H16.01C16.22 11.75 16.42 11.78 16.62 11.82C16.68 11.83 16.74 11.86 16.81 11.88C16.94 11.92 17.07 11.96 17.19 12.02C17.22 12.03 17.25 12.04 17.27 12.05V11C17.25 10.31 16.69 9.75 16 9.75Z" fill="#1C252E"/>
<path d="M16 13.25H8C7.31 13.25 6.75 13.81 6.75 14.5V15H9.5C9.91 15 10.25 15.34 10.25 15.75C10.25 16.71 11.04 17.5 12 17.5C12.96 17.5 13.75 16.71 13.75 15.75C13.75 15.34 14.09 15 14.5 15H17.25V14.5C17.25 13.81 16.69 13.25 16 13.25Z" fill="#1C252E"/>
<path d="M16 6.5H8C7.31 6.5 6.75 7.06 6.75 7.75V8.56C7.13 8.37 7.55 8.25 8 8.25H16C16.45 8.25 16.87 8.37 17.25 8.56V7.75C17.25 7.06 16.69 6.5 16 6.5Z" fill="#1C252E"/>
<path d="M16.19 2H7.81C4.17 2 2 4.17 2 7.81V16.18C2 19.83 4.17 22 7.81 22H16.18C19.82 22 21.99 19.83 21.99 16.19V7.81C22 4.17 19.83 2 16.19 2ZM19 16.5H15.16C14.82 17.93 13.53 19 12 19C10.47 19 9.18 17.93 8.84 16.5H5C4.59 16.5 4.25 16.16 4.25 15.75C4.25 15.34 4.59 15 5 15H5.25V7.75C5.25 6.23 6.48 5 8 5H16C17.52 5 18.75 6.23 18.75 7.75V15H19C19.41 15 19.75 15.34 19.75 15.75C19.75 16.16 19.41 16.5 19 16.5Z" fill="#1C252E"/>
</g>
<path fill-rule="evenodd" clip-rule="evenodd" d="M15.16 16.5C14.82 17.93 13.53 19 12 19C10.47 19 9.18 17.93 8.84 16.5H5C4.59 16.5 4.25 16.16 4.25 15.75C4.25 15.34 4.59 15 5 15H5.25V7.75C5.25 6.23 6.48 5 8 5H16C17.52 5 18.75 6.23 18.75 7.75V15H19C19.41 15 19.75 15.34 19.75 15.75C19.75 16.16 19.41 16.5 19 16.5H15.16ZM8 9.75H16C16.69 9.75 17.25 10.31 17.27 11V12.05C17.25 12.04 17.22 12.03 17.19 12.02C17.07 11.96 16.94 11.92 16.81 11.88C16.74 11.86 16.68 11.83 16.62 11.82C16.42 11.78 16.22 11.75 16.01 11.75H8.01C7.8 11.75 7.6 11.78 7.4 11.82C7.33 11.84 7.27 11.86 7.21 11.88C7.08 11.92 6.95 11.96 6.83 12.02C6.8 12.03 6.78 12.04 6.75 12.05V11C6.75 10.31 7.31 9.75 8 9.75ZM8 13.25H16C16.69 13.25 17.25 13.81 17.25 14.5V15H14.5C14.09 15 13.75 15.34 13.75 15.75C13.75 16.71 12.96 17.5 12 17.5C11.04 17.5 10.25 16.71 10.25 15.75C10.25 15.34 9.91 15 9.5 15H6.75V14.5C6.75 13.81 7.31 13.25 8 13.25ZM8 6.5H16C16.69 6.5 17.25 7.06 17.25 7.75V8.56C16.87 8.37 16.45 8.25 16 8.25H8C7.55 8.25 7.13 8.37 6.75 8.56V7.75C6.75 7.06 7.31 6.5 8 6.5Z" fill="#1C252E"/>
</svg>
