<svg width="24" height="24" viewBox="0 0 24 24" fill="none" xmlns="http://www.w3.org/2000/svg">
<path opacity="0.4" d="M17.4663 10.55C17.0463 10.96 16.8063 11.55 16.8663 12.18C16.9563 13.26 17.9463 14.05 19.0263 14.05H20.9863V15.5C20.9863 18.5 18.9863 20.5 15.9863 20.5H6.98633C3.98633 20.5 1.98633 18.5 1.98633 15.5V8.5C1.98633 5.78 3.62633 3.88 6.17633 3.56C6.43633 3.52 6.70633 3.5 6.98633 3.5H15.9863C16.2463 3.5 16.4963 3.50999 16.7363 3.54999C19.3163 3.84999 20.9863 5.76 20.9863 8.5V9.95001H18.9063C18.3463 9.95001 17.8363 10.17 17.4663 10.55Z" fill="#1C252E"/>
<path d="M22 10.97V13.03C22 13.58 21.56 14.03 21 14.05H19.04C17.96 14.05 16.97 13.26 16.88 12.18C16.82 11.55 17.06 10.96 17.48 10.55C17.85 10.17 18.36 9.94995 18.92 9.94995H21C21.56 9.96995 22 10.42 22 10.97Z" fill="#1C252E"/>
</svg>
