<svg width="24" height="24" viewBox="0 0 24 24" fill="none" xmlns="http://www.w3.org/2000/svg">
<path opacity="0.4" d="M20.6003 12.6049H22.5664V11.2033C22.5664 9.18843 20.9215 7.54346 18.9066 7.54346H7.73256C5.71772 7.54346 4.07275 9.18843 4.07275 11.2033V15.4568C4.74437 14.9215 5.59118 14.6003 6.50613 14.6003C8.65724 14.6003 10.3995 16.3425 10.3995 18.4937C10.3995 19.2237 10.1951 19.9147 9.83499 20.4988C9.63059 20.8492 9.36778 21.1606 9.06604 21.4137H18.9066C20.9215 21.4137 22.5664 19.7687 22.5664 17.7539V16.5956H20.7171C19.6658 16.5956 18.7022 15.8267 18.6146 14.7754C18.5562 14.1622 18.7898 13.588 19.1986 13.1889C19.5588 12.819 20.0552 12.6049 20.6003 12.6049Z" fill="#1C252E"/>
<path d="M16.0936 3.8449V7.54362H7.73256C5.71772 7.54362 4.07275 9.1886 4.07275 11.2034V7.63125C4.07275 6.47296 4.7833 5.44117 5.86372 5.03236L13.5921 2.11231C14.7991 1.66457 16.0936 2.55035 16.0936 3.8449Z" fill="#1C252E"/>
<path d="M23.5989 13.5979V15.603C23.5989 16.1384 23.1706 16.5764 22.6255 16.5958H20.7178C19.6665 16.5958 18.7029 15.8269 18.6153 14.7757C18.5569 14.1624 18.7905 13.5882 19.1993 13.1891C19.5595 12.8192 20.0559 12.6051 20.601 12.6051H22.6255C23.1706 12.6246 23.5989 13.0625 23.5989 13.5979Z" fill="#1C252E"/>
<path d="M15.2664 12.4102H8.45291C8.05384 12.4102 7.7229 12.0793 7.7229 11.6802C7.7229 11.2811 8.05384 10.9502 8.45291 10.9502H15.2664C15.6654 10.9502 15.9964 11.2811 15.9964 11.6802C15.9964 12.0793 15.6654 12.4102 15.2664 12.4102Z" fill="#1C252E"/>
<path d="M9.2594 15.7407C8.61243 15.0938 7.78651 14.7221 6.93307 14.6257C5.79743 14.495 4.62051 14.8735 3.7533 15.7407C3.2371 16.2569 2.89297 16.8901 2.73467 17.5577C2.41119 18.831 2.74843 20.242 3.7533 21.2468C4.44844 21.942 5.3363 22.3205 6.25169 22.3687C6.644 22.4031 7.05008 22.3687 7.44239 22.2655C8.11 22.1072 8.7432 21.763 9.2594 21.2468C10.7805 19.7258 10.7805 17.2618 9.2594 15.7407ZM5.79054 17.0347C5.79054 16.6355 6.1209 16.3051 6.52009 16.3051C6.92617 16.312 7.24965 16.6355 7.25654 17.0416L7.24968 17.7642L7.94483 17.7573C8.35091 17.7642 8.67439 18.0877 8.68127 18.4938C8.67439 18.8998 8.3509 19.2233 7.94483 19.2302L7.24968 19.2233L7.25655 19.946C7.24966 20.3521 6.92618 20.6756 6.5201 20.6825C6.3205 20.6756 6.14158 20.593 6.01081 20.4622C5.88004 20.3314 5.79743 20.1525 5.79054 19.9529L5.79056 19.2233L5.03348 19.2233C4.827 19.2233 4.64803 19.1407 4.51726 19.01C4.38649 18.8792 4.30392 18.7002 4.30392 18.4938C4.30392 18.0946 4.63429 17.7642 5.03348 17.7642L5.79056 17.7642L5.79054 17.0347Z" fill="#1C252E"/>
</svg>
