<svg width="24" height="24" viewBox="0 0 24 24" fill="none" xmlns="http://www.w3.org/2000/svg">
<path d="M18.4998 12.6499V16.3499C18.4998 19.4699 15.5898 21.9999 11.9998 21.9999C8.40976 21.9999 5.49976 19.4699 5.49976 16.3499V12.6499C5.49976 15.7699 8.40976 17.9999 11.9998 17.9999C15.5898 17.9999 18.4998 15.7699 18.4998 12.6499Z" fill="#1C252E"/>
<path opacity="0.4" d="M18.4998 7.6499V12.6499C18.4998 15.7699 15.5898 17.9999 11.9998 17.9999C8.40976 17.9999 5.49976 15.7699 5.49976 12.6499V7.6499C5.49976 8.5599 5.74976 9.3999 6.18976 10.1199C7.25976 11.8799 9.45976 12.9999 11.9998 12.9999C14.5398 12.9999 16.7398 11.8799 17.8098 10.1199C18.2498 9.3999 18.4998 8.5599 18.4998 7.6499Z" fill="#1C252E"/>
<path d="M18.4998 7.65C18.4998 8.56 18.2498 9.4 17.8098 10.12C16.7398 11.88 14.5398 13 11.9998 13C9.45976 13 7.25976 11.88 6.18976 10.12C5.74976 9.4 5.49976 8.56 5.49976 7.65C5.49976 4.53 8.40976 2 11.9998 2C13.7998 2 15.4198 2.63 16.5998 3.65C17.7698 4.68 18.4998 6.09 18.4998 7.65Z" fill="#1C252E"/>
</svg>
