<svg width="24" height="24" viewBox="0 0 24 24" fill="none" xmlns="http://www.w3.org/2000/svg">
<path opacity="0.4" d="M22.0004 9V16.46C22.0004 18.75 20.1404 20.6 17.8504 20.6H6.40039L9.97039 17.03L11.2504 15.75L18.0004 9H22.0004Z" fill="#1C252E"/>
<path opacity="0.4" d="M15.0005 9L4.00049 20C2.80049 19.28 2.00049 17.96 2.00049 16.46V9H15.0005Z" fill="#1C252E"/>
<path d="M22.0005 7.54027V9.00027H18.0005L21.4705 5.53027C21.8105 6.12027 22.0005 6.81027 22.0005 7.54027Z" fill="#1C252E"/>
<path d="M20.0005 3.9999L15.0005 8.9999H2.00049V7.5399C2.00049 5.2499 3.86049 3.3999 6.15049 3.3999H17.8505C18.6405 3.3999 19.3705 3.6199 20.0005 3.9999Z" fill="#1C252E"/>
<path d="M8.21049 15.79L6.75049 17.25H6.00049C5.59049 17.25 5.25049 16.91 5.25049 16.5C5.25049 16.09 5.59049 15.75 6.00049 15.75H8.00049C8.07049 15.75 8.14049 15.76 8.21049 15.79Z" fill="#1C252E"/>
<path d="M15.2505 16.5C15.2505 16.91 14.9105 17.25 14.5005 17.25H10.5005C10.3005 17.25 10.1105 17.16 9.97046 17.03L11.2505 15.75H14.5005C14.9105 15.75 15.2505 16.09 15.2505 16.5Z" fill="#1C252E"/>
<path d="M21.7704 2.22988C21.4704 1.92988 20.9804 1.92988 20.6804 2.22988L2.23037 20.6899C1.93037 20.9899 1.93037 21.4799 2.23037 21.7799C2.38037 21.9199 2.57037 21.9999 2.77037 21.9999C2.97037 21.9999 3.16037 21.9199 3.31037 21.7699L21.7704 3.30988C22.0804 3.00988 22.0804 2.52988 21.7704 2.22988Z" fill="#1C252E"/>
</svg>
