<svg width="24" height="24" viewBox="0 0 24 24" fill="none" xmlns="http://www.w3.org/2000/svg">
<path opacity="0.4" d="M7.00098 2H6.00098C3.00098 2 2.00098 3.79 2.00098 6V7V21C2.00098 21.83 2.94098 22.3 3.60098 21.8L5.31098 20.52C5.71098 20.22 6.27098 20.26 6.63098 20.62L8.29098 22.29C8.68098 22.68 9.32098 22.68 9.71098 22.29L11.391 20.61C11.741 20.26 12.301 20.22 12.691 20.52L14.401 21.8C15.061 22.29 16.001 21.82 16.001 21V4C16.001 2.9 16.901 2 18.001 2H7.00098ZM11.751 10.75H6.25098C5.84098 10.75 5.50098 10.41 5.50098 10C5.50098 9.59 5.84098 9.25 6.25098 9.25H11.751C12.161 9.25 12.501 9.59 12.501 10C12.501 10.41 12.161 10.75 11.751 10.75Z" fill="#1C252E"/>
<path d="M11.751 10.75H6.25098C5.84098 10.75 5.50098 10.41 5.50098 10C5.50098 9.59 5.84098 9.25 6.25098 9.25H11.751C12.161 9.25 12.501 9.59 12.501 10C12.501 10.41 12.161 10.75 11.751 10.75Z" fill="#1C252E"/>
<path d="M22.001 6.00008V8.42008C22.001 10.0001 21.001 11.0001 19.421 11.0001H16.001V4.01008C16.001 2.90008 16.911 1.99008 18.021 2.00008C19.111 2.01008 20.111 2.45008 20.831 3.17008C21.551 3.90008 22.001 4.90008 22.001 6.00008Z" fill="#1C252E"/>
</svg>
