<svg width="24" height="24" viewBox="0 0 24 24" fill="none" xmlns="http://www.w3.org/2000/svg">
<path opacity="0.4" d="M19.8506 12.9397C19.8506 13.7397 20.5006 14.3997 21.3006 14.3997C21.6806 14.3997 22.0006 14.7097 22.0006 15.0897C22.0006 18.9297 20.8406 20.0897 17.0006 20.0897H11.7506V18.4997C11.7506 18.1097 11.4506 17.7897 11.0706 17.7597V14.9097C11.4506 14.8797 11.7506 14.5597 11.7506 14.1697V9.82969C11.7506 9.43969 11.4506 9.11969 11.0706 9.08969V4.92969H17.0006C20.8406 4.92969 22.0006 6.08969 22.0006 9.92969V10.7797C22.0006 11.1697 21.6806 11.4797 21.3006 11.4797C20.5006 11.4797 19.8506 12.1297 19.8506 12.9397Z" fill="#1C252E"/>
<path d="M11.0706 9.08981C10.6606 9.08981 10.2506 9.41981 10.2506 9.82981V14.1698C10.2506 14.5798 10.5906 14.9198 11.0006 14.9198C11.0206 14.9198 11.0506 14.9198 11.0706 14.9098V17.7598C11.0506 17.7498 11.0206 17.7498 11.0006 17.7498C10.5906 17.7498 10.2506 18.0898 10.2506 18.4998V20.0898H8.49058C6.61058 20.0898 5.64058 18.6798 4.76058 16.5498L4.59058 16.1298C4.45058 15.7698 4.62058 15.3598 4.98058 15.2198C5.35058 15.0798 5.64058 14.7898 5.79058 14.4098C5.95058 14.0398 5.95058 13.6298 5.80058 13.2598C5.48058 12.4898 4.60058 12.1198 3.82058 12.4298C3.65058 12.5098 3.45058 12.5098 3.28058 12.4298C3.11058 12.3598 2.98058 12.2198 2.90058 12.0398L2.75058 11.6398C1.26058 8.01981 1.91058 6.46981 5.53058 4.96981L7.98058 3.95981C8.34058 3.80981 8.75058 3.97981 8.89058 4.33981L11.0706 9.08981Z" fill="#1C252E"/>
</svg>
