<svg width="24" height="24" viewBox="0 0 24 24" fill="none" xmlns="http://www.w3.org/2000/svg">
<path opacity="0.4" d="M21.9998 9V15C21.9998 18.5 19.9998 20 16.9998 20H8.44977C8.79977 19.41 8.99976 18.73 8.99976 18C8.99976 15.79 7.20976 14 4.99976 14C3.79976 14 2.72976 14.53 1.99976 15.36V9C1.99976 5.5 3.99976 4 6.99976 4H16.9998C19.9998 4 21.9998 5.5 21.9998 9Z" fill="#1C252E"/>
<path d="M11.9998 14.5C13.3805 14.5 14.4998 13.3807 14.4998 12C14.4998 10.6193 13.3805 9.5 11.9998 9.5C10.619 9.5 9.49976 10.6193 9.49976 12C9.49976 13.3807 10.619 14.5 11.9998 14.5Z" fill="#1C252E"/>
<path d="M18.4998 14.75C18.0898 14.75 17.7498 14.41 17.7498 14V10C17.7498 9.59 18.0898 9.25 18.4998 9.25C18.9098 9.25 19.2498 9.59 19.2498 10V14C19.2498 14.41 18.9098 14.75 18.4998 14.75Z" fill="#1C252E"/>
<path d="M5 14C3.8 14 2.73 14.53 2 15.36C1.38 16.07 1 16.99 1 18C1 18.75 1.21 19.46 1.58 20.06C2.27 21.22 3.54 22 5 22C6.01 22 6.93 21.63 7.63 21C7.94 20.74 8.21 20.42 8.42 20.06C8.79 19.46 9 18.75 9 18C9 15.79 7.21 14 5 14ZM6.6 19.58C6.45 19.73 6.26 19.8 6.07 19.8C5.88 19.8 5.69 19.73 5.54 19.58L5.01 19.05L4.46 19.6C4.31 19.75 4.12 19.82 3.93 19.82C3.74 19.82 3.55 19.75 3.4 19.6C3.11 19.31 3.11 18.83 3.4 18.54L3.95 17.99L3.42 17.46C3.13 17.17 3.13 16.69 3.42 16.4C3.71 16.11 4.19 16.11 4.48 16.4L5.01 16.93L5.51 16.43C5.8 16.14 6.28 16.14 6.57 16.43C6.86 16.72 6.86 17.2 6.57 17.49L6.07 17.99L6.6 18.52C6.89 18.81 6.89 19.28 6.6 19.58Z" fill="#1C252E"/>
</svg>
