<svg width="24" height="24" viewBox="0 0 24 24" fill="none" xmlns="http://www.w3.org/2000/svg">
<path d="M21.2505 22H2.75049C2.34049 22 2.00049 21.66 2.00049 21.25C2.00049 20.84 2.34049 20.5 2.75049 20.5H21.2505C21.6605 20.5 22.0005 20.84 22.0005 21.25C22.0005 21.66 21.6605 22 21.2505 22Z" fill="#1C252E"/>
<path opacity="0.4" d="M20.5904 13.6997L13.3604 20.9297C11.9404 22.3497 9.65037 22.3497 8.24037 20.9397L3.63037 16.3297L15.9904 3.96973L20.6004 8.57973C22.0104 9.98973 22.0104 12.2797 20.5904 13.6997Z" fill="#1C252E"/>
<path d="M15.9906 3.97016L3.62055 16.3302L2.71055 15.4202C1.30055 14.0102 1.30055 11.7202 2.72055 10.3002L9.95055 3.07016C11.3706 1.65016 13.6606 1.65016 15.0705 3.06016L15.9906 3.97016Z" fill="#1C252E"/>
<path d="M12.8903 17.5999L11.5403 18.9499C11.2603 19.2299 10.8103 19.2299 10.5303 18.9499C10.2503 18.6699 10.2503 18.2199 10.5303 17.9399L11.8803 16.5899C12.1603 16.3099 12.6103 16.3099 12.8903 16.5899C13.1703 16.8699 13.1703 17.3199 12.8903 17.5999Z" fill="#1C252E"/>
<path d="M17.2704 13.22L14.5804 15.91C14.3004 16.19 13.8504 16.19 13.5704 15.91C13.2904 15.63 13.2904 15.18 13.5704 14.9L16.2604 12.21C16.5404 11.93 16.9904 11.93 17.2704 12.21C17.5404 12.49 17.5404 12.94 17.2704 13.22Z" fill="#1C252E"/>
</svg>
