<svg width="24" height="24" viewBox="0 0 24 24" fill="none" xmlns="http://www.w3.org/2000/svg">
<path d="M21.9998 6V8.42C21.9998 10 20.9998 11 19.4198 11H15.9998V4.01C15.9998 2.9 16.9098 2 18.0198 2C19.1098 2.01 20.1098 2.45 20.8298 3.17C21.5498 3.9 21.9998 4.9 21.9998 6Z" fill="#1C252E"/>
<path opacity="0.4" d="M2 7V21C2 21.83 2.94 22.3 3.6 21.8L5.31 20.52C5.71 20.22 6.27 20.26 6.63 20.62L8.29 22.29C8.68 22.68 9.32 22.68 9.71 22.29L11.39 20.61C11.74 20.26 12.3 20.22 12.69 20.52L14.4 21.8C15.06 22.29 16 21.82 16 21V4C16 2.9 16.9 2 18 2H7H6C3 2 2 3.79 2 6V7Z" fill="#1C252E"/>
</svg>
