<svg width="24" height="24" viewBox="0 0 24 24" fill="none" xmlns="http://www.w3.org/2000/svg">
<path opacity="0.4" d="M17.0002 7C17.2602 7.00001 17.5103 7.00982 17.7502 7.0498C20.3301 7.34989 22.0002 9.26008 22.0002 12V17C22.0002 19.7599 19.7601 21.9999 17.0002 22H10.6501C10.2367 22 9.98942 21.5158 10.1747 21.1463C10.5427 20.4127 10.7502 19.5844 10.7502 18.707C10.7502 15.7885 8.46217 13.4095 5.58032 13.2637L5.30005 13.2568C4.42056 13.2568 3.59003 13.4646 2.85488 13.8337C2.4852 14.0193 2.00024 13.7719 2.00024 13.3583V12C2.00024 9.28009 3.63984 7.37966 6.1897 7.05957C6.4497 7.01957 6.72024 7 7.00024 7H17.0002Z" fill="#1C252E"/>
<path d="M17.7499 7.04997C17.5099 7.00997 17.2599 6.99998 16.9999 6.99998H6.99994C6.71994 6.99998 6.44994 7.01998 6.18994 7.05998C6.32994 6.77998 6.52994 6.52001 6.76994 6.28001L10.0199 3.02C11.3899 1.66 13.6099 1.66 14.9799 3.02L16.7299 4.78996C17.3699 5.41996 17.7099 6.21997 17.7499 7.04997Z" fill="#1C252E"/>
<path d="M22 12.5H19C17.9 12.5 17 13.4 17 14.5C17 15.6 17.9 16.5 19 16.5H22" fill="#1C252E"/>
<path d="M7.75019 18.7069C7.75019 17.3512 6.65569 16.2568 5.29999 16.2567C3.94421 16.2567 2.8498 17.3511 2.8498 18.7069C2.8499 20.0626 3.94427 21.1571 5.29999 21.1571C6.65562 21.157 7.75009 20.0626 7.75019 18.7069ZM9.25019 18.7069C9.25009 20.891 7.48406 22.657 5.29999 22.6571C4.47718 22.6571 3.71327 22.4066 3.08124 21.9774C3.06472 21.9978 3.04749 22.018 3.02851 22.037L2.02851 23.037C1.73561 23.3299 1.26085 23.3299 0.967961 23.037C0.675068 22.7441 0.675068 22.2693 0.967961 21.9764L1.96796 20.9764C1.98724 20.9572 2.00678 20.9385 2.02753 20.9218C1.59973 20.2904 1.34983 19.5283 1.3498 18.7069C1.3498 16.5227 3.11578 14.7567 5.29999 14.7567C7.48412 14.7568 9.25019 16.5228 9.25019 18.7069Z" fill="#1C252E"/>
<path d="M7.74994 18.7069C7.74994 17.3512 6.65544 16.2568 5.29975 16.2567C3.94396 16.2567 2.84955 17.3511 2.84955 18.7069C2.84965 20.0626 3.94402 21.1571 5.29975 21.1571C6.65538 21.157 7.74984 20.0626 7.74994 18.7069ZM9.24994 18.7069C9.24984 20.891 7.48382 22.657 5.29975 22.6571C4.47693 22.6571 3.71303 22.4066 3.081 21.9774C3.06447 21.9978 3.04725 22.018 3.02826 22.037L2.02826 23.037C1.73537 23.3299 1.26061 23.3299 0.967717 23.037C0.674823 22.7441 0.674824 22.2693 0.967717 21.9764L1.96772 20.9764C1.987 20.9572 2.00653 20.9385 2.02729 20.9218C1.59949 20.2904 1.34959 19.5283 1.34955 18.7069C1.34955 16.5227 3.11553 14.7567 5.29975 14.7567C7.48388 14.7568 9.24994 16.5228 9.24994 18.7069Z" fill="#1C252E"/>
</svg>
