<svg width="24" height="24" viewBox="0 0 24 24" fill="none" xmlns="http://www.w3.org/2000/svg">
<path d="M22 6.00008V8.42008C22 10.0001 21 11.0001 19.42 11.0001H16V4.01008C16 2.90008 16.91 1.99008 18.02 2.00008C19.11 2.01008 20.11 2.45008 20.83 3.17008C21.55 3.90008 22 4.90008 22 6.00008Z" fill="#1C252E"/>
<path opacity="0.4" d="M7 2H6C3 2 2 3.79 2 6V7V21C2 21.83 2.94 22.3 3.6 21.8L5.31 20.52C5.71 20.22 6.27 20.26 6.63 20.62L8.29 22.29C8.68 22.68 9.32 22.68 9.71 22.29L11.39 20.61C11.74 20.26 12.3 20.22 12.69 20.52L14.4 21.8C15.06 22.29 16 21.82 16 21V4C16 2.9 16.9 2 18 2H7ZM11.75 10.75H9.75V12.75C9.75 13.16 9.41 13.5 9 13.5C8.59 13.5 8.25 13.16 8.25 12.75V10.75H6.25C5.84 10.75 5.5 10.41 5.5 10C5.5 9.59 5.84 9.25 6.25 9.25H8.25V7.25C8.25 6.84 8.59 6.5 9 6.5C9.41 6.5 9.75 6.84 9.75 7.25V9.25H11.75C12.16 9.25 12.5 9.59 12.5 10C12.5 10.41 12.16 10.75 11.75 10.75Z" fill="#1C252E"/>
<path d="M11.75 10.75H9.75V12.75C9.75 13.16 9.41 13.5 9 13.5C8.59 13.5 8.25 13.16 8.25 12.75V10.75H6.25C5.84 10.75 5.5 10.41 5.5 10C5.5 9.59 5.84 9.25 6.25 9.25H8.25V7.25C8.25 6.84 8.59 6.5 9 6.5C9.41 6.5 9.75 6.84 9.75 7.25V9.25H11.75C12.16 9.25 12.5 9.59 12.5 10C12.5 10.41 12.16 10.75 11.75 10.75Z" fill="#1C252E"/>
</svg>
