<svg width="24" height="24" viewBox="0 0 24 24" fill="none" xmlns="http://www.w3.org/2000/svg">
<path opacity="0.4" d="M9.4205 2.15994L3.9205 4.21994C2.8705 4.60994 2.0105 5.85993 2.0105 6.97993V15.0799C2.0105 15.8899 2.54051 16.9599 3.19051 17.4399L8.69051 21.5499C9.66051 22.2799 11.2505 22.2799 12.2205 21.5499L17.7205 17.4399C18.3705 16.9499 18.9005 15.8899 18.9005 15.0799V6.97993C18.9005 5.85993 18.0405 4.60994 16.9905 4.21994L11.4905 2.15994C10.9205 1.94994 9.9905 1.94994 9.4205 2.15994Z" fill="#1C252E"/>
<path d="M19.2606 6.76001H12.4106C12.2106 6.76001 12.0206 6.77002 11.8406 6.77002C10.1206 6.87002 9.66064 7.50002 9.66064 9.46002V9.85002C9.66064 10.2642 9.99643 10.6 10.4106 10.6H21.2506C21.6649 10.6 22.0006 10.2642 22.0006 9.85002V9.46002C22.0006 7.30002 21.4506 6.76001 19.2606 6.76001Z" fill="#1C252E"/>
<path d="M10.4204 11.7C10.0062 11.7 9.67041 12.0357 9.67041 12.45V14.5399C9.67041 16.6999 10.2204 17.25 12.4104 17.25H19.2604C21.4104 17.25 21.9804 16.73 22.0004 14.66V12.45C22.0004 12.0357 21.6646 11.7 21.2504 11.7H10.4204ZM13.2704 15.47H12.0204C11.7204 15.47 11.4804 15.2299 11.4804 14.9299C11.4804 14.6299 11.7204 14.39 12.0204 14.39H13.2704C13.5704 14.39 13.8104 14.6299 13.8104 14.9299C13.8104 15.2299 13.5704 15.47 13.2704 15.47ZM17.3204 15.47H14.8304C14.5304 15.47 14.2904 15.2299 14.2904 14.9299C14.2904 14.6299 14.5304 14.39 14.8304 14.39H17.3204C17.6204 14.39 17.8604 14.6299 17.8604 14.9299C17.8704 15.2299 17.6204 15.47 17.3204 15.47Z" fill="#1C252E"/>
</svg>
