<svg width="24" height="24" viewBox="0 0 24 24" fill="none" xmlns="http://www.w3.org/2000/svg">
<path opacity="0.4" d="M22.0004 9.21035V14.7904C22.0004 18.8904 20.7504 20.1404 16.6504 20.1404H9.91045V17.1204C9.91045 16.7404 9.59045 16.4204 9.21045 16.4204V7.58035C9.59045 7.58035 9.91045 7.26035 9.91045 6.88035V3.86035H16.6504C20.7504 3.86035 22.0004 5.11035 22.0004 9.21035Z" fill="#1C252E"/>
<path d="M18.4704 11.9001C18.6404 11.7401 18.7004 11.4901 18.6304 11.2701C18.5604 11.0401 18.3704 10.8801 18.1304 10.8501L16.8504 10.6601C16.8004 10.6501 16.7604 10.6201 16.7404 10.5801L16.1704 9.42008C16.0704 9.21008 15.8504 9.08008 15.6204 9.08008C15.3804 9.08008 15.1704 9.21008 15.0604 9.42008L14.4904 10.5801C14.4704 10.6301 14.4204 10.6601 14.3704 10.6601L13.0904 10.8501C12.8604 10.8801 12.6604 11.0501 12.5904 11.2701C12.5204 11.5001 12.5804 11.7401 12.7504 11.9001L13.6804 12.8001C13.7204 12.8301 13.7304 12.8901 13.7204 12.9401L13.5004 14.2101C13.4604 14.4401 13.5504 14.6801 13.7504 14.8101C13.8604 14.8901 13.9804 14.9301 14.1104 14.9301C14.2104 14.9301 14.3104 14.9101 14.4004 14.8601L15.5504 14.2601C15.5904 14.2401 15.6504 14.2401 15.6904 14.2601L16.8404 14.8601C17.0504 14.9701 17.3004 14.9501 17.4904 14.8101C17.6804 14.6701 17.7804 14.4401 17.7404 14.2001L17.5204 12.9301C17.5104 12.8801 17.5304 12.8301 17.5604 12.7901L18.4704 11.9001Z" fill="#1C252E"/>
<path d="M9.21061 7.58035V16.4204C8.83061 16.4204 8.51061 16.7404 8.51061 17.1204V20.1404H7.35061C3.40061 20.1404 2.10061 18.9604 2.01061 15.2804C2.00061 15.0904 2.08061 14.9104 2.21061 14.7804C2.34061 14.6404 2.53061 14.5704 2.71061 14.5704C4.11061 14.5704 5.26061 13.4204 5.26061 12.0104C5.26061 10.6004 4.11061 9.44035 2.71061 9.44035C2.51061 9.44035 2.34061 9.37035 2.21061 9.23035C2.08061 9.10035 2.00061 8.91035 2.01061 8.73035C2.10061 5.04035 3.40061 3.86035 7.35061 3.86035H8.51061V6.88035C8.51061 7.27035 8.83061 7.58035 9.21061 7.58035Z" fill="#1C252E"/>
</svg>
