<svg width="24" height="24" viewBox="0 0 24 24" fill="none" xmlns="http://www.w3.org/2000/svg">
<path d="M15.25 9C15.25 8.71057 15.2321 8.44318 15.1904 8.19336C15.189 8.18494 15.1876 8.17643 15.1865 8.16797C14.7849 5.10681 12.169 2.75 9 2.75C5.54421 2.75 2.75 5.54421 2.75 9C2.75 12.07 4.96146 14.6211 7.88281 15.1426L8.19336 15.1904C8.44318 15.2321 8.71057 15.25 9 15.25C12.4558 15.25 15.25 12.4558 15.25 9ZM16.75 9C16.75 13.2842 13.2842 16.75 9 16.75C8.65806 16.75 8.31434 16.728 7.97266 16.6729C7.96392 16.6717 7.95501 16.6711 7.94629 16.6699C4.16027 16.16 1.25 12.9219 1.25 9C1.25 4.71579 4.71579 1.25 9 1.25C12.9219 1.25 16.1601 4.1602 16.6699 7.94629L16.707 8.20996C16.7378 8.4732 16.75 8.73719 16.75 9Z" fill="#1C252E"/>
<path d="M21.2501 14.9996C21.2499 12.1553 19.3515 9.75836 16.7491 9.00642C16.7456 13.2855 13.2859 16.7451 9.00691 16.7486C9.75885 19.351 12.1558 21.2494 15.0001 21.2496C18.4559 21.2496 21.2501 18.4554 21.2501 14.9996ZM22.7501 14.9996C22.7501 19.2838 19.2843 22.7496 15.0001 22.7496C11.0694 22.7494 7.82582 19.8264 7.32722 16.0279C7.29632 15.7923 7.37806 15.5553 7.5489 15.3902C7.71976 15.2252 7.95912 15.151 8.19343 15.19C8.44319 15.2316 8.71073 15.2496 9.00007 15.2496C12.4559 15.2496 15.2501 12.4554 15.2501 8.99959C15.2501 8.71024 15.2321 8.4427 15.1905 8.19294C15.1515 7.95863 15.2257 7.71927 15.3907 7.54841C15.5558 7.37757 15.7928 7.29583 16.0284 7.32673C19.8269 7.82533 22.7499 11.0689 22.7501 14.9996Z" fill="#1C252E"/>
<path d="M13.6161 13.5939C13.9067 13.2989 14.3815 13.2955 14.6766 13.5861L15.9862 14.8761C16.2813 15.1667 16.2855 15.6415 15.995 15.9366C15.7044 16.2317 15.2296 16.235 14.9344 15.9445L13.6239 14.6544C13.3289 14.3638 13.3255 13.8889 13.6161 13.5939Z" fill="#1C252E"/>
<path d="M15.4697 10.4697C15.7626 10.1768 16.2373 10.1768 16.5302 10.4697L17.5302 11.4697C17.8231 11.7626 17.8231 12.2373 17.5302 12.5302C17.2373 12.8231 16.7626 12.8231 16.4697 12.5302L15.4697 11.5302C15.1768 11.2373 15.1768 10.7626 15.4697 10.4697Z" fill="#1C252E"/>
<path d="M10.4697 15.4697C10.7626 15.1768 11.2373 15.1768 11.5302 15.4697L12.5302 16.4697C12.8231 16.7626 12.8231 17.2373 12.5302 17.5302C12.2373 17.8231 11.7626 17.8231 11.4697 17.5302L10.4697 16.5302C10.1768 16.2373 10.1768 15.7626 10.4697 15.4697Z" fill="#1C252E"/>
</svg>
