<svg width="24" height="24" viewBox="0 0 24 24" fill="none" xmlns="http://www.w3.org/2000/svg">
<g clip-path="url(#clip0_167_150)">
<path d="M12.6797 5.42969C12.6796 4.39965 12.4235 3.76726 12.043 3.38672C11.6624 3.00623 11.0301 2.75 10 2.75H5.42969C4.39965 2.75005 3.76726 3.00618 3.38672 3.38672C3.00618 3.76726 2.75005 4.39965 2.75 5.42969V12.5703C2.75005 13.6003 3.00618 14.2327 3.38672 14.6133C3.76726 14.9938 4.39965 15.2499 5.42969 15.25H8C8.41421 15.25 8.75 15.5858 8.75 16C8.75 16.4142 8.41421 16.75 8 16.75H5.42969C4.17004 16.7499 3.08803 16.4357 2.32617 15.6738C1.56431 14.912 1.25005 13.83 1.25 12.5703V5.42969C1.25005 4.17004 1.56431 3.08803 2.32617 2.32617C3.08803 1.56431 4.17004 1.25005 5.42969 1.25H10C11.2598 1.25 12.3426 1.56425 13.1045 2.32617C13.8661 3.08802 14.1796 4.17023 14.1797 5.42969C14.1797 5.8439 13.8439 6.17969 13.4297 6.17969C13.0156 6.17952 12.6797 5.8438 12.6797 5.42969Z" fill="#1C252E"/>
<path d="M21.2495 11.4297C21.2495 10.3997 20.9933 9.76726 20.6128 9.38672C20.2322 9.00623 19.5999 8.75 18.5698 8.75H13.9995C12.9695 8.75005 12.3371 9.00618 11.9565 9.38672C11.576 9.76726 11.3199 10.3997 11.3198 11.4297V18.5703C11.3199 19.6003 11.576 20.2327 11.9565 20.6133C12.3371 20.9938 12.9695 21.2499 13.9995 21.25H18.5698C19.5999 21.25 20.2322 20.9938 20.6128 20.6133C20.9933 20.2327 21.2495 19.6003 21.2495 18.5703V11.4297ZM22.7495 18.5703C22.7495 19.8298 22.4359 20.912 21.6743 21.6738C20.9124 22.4358 19.8296 22.75 18.5698 22.75H13.9995C12.7399 22.7499 11.6579 22.4357 10.896 21.6738C10.1341 20.912 9.81988 19.83 9.81982 18.5703V11.4297C9.81988 10.17 10.1341 9.08803 10.896 8.32617C11.6579 7.56431 12.7399 7.25005 13.9995 7.25H18.5698C19.8296 7.25 20.9124 7.56425 21.6743 8.32617C22.4359 9.08802 22.7495 10.1702 22.7495 11.4297V18.5703Z" fill="#1C252E"/>
<path d="M18.1299 14.25C18.5441 14.25 18.8799 14.5858 18.8799 15C18.8799 15.4142 18.5441 15.75 18.1299 15.75H14.8701C14.4559 15.75 14.1201 15.4142 14.1201 15C14.1201 14.5858 14.4559 14.25 14.8701 14.25H18.1299Z" fill="#1C252E"/>
<path d="M15.75 16.6298V13.37C15.75 12.9558 16.0858 12.62 16.5 12.62C16.9142 12.62 17.25 12.9558 17.25 13.37V16.6298C17.25 17.044 16.9142 17.3798 16.5 17.3798C16.0858 17.3798 15.75 17.044 15.75 16.6298Z" fill="#1C252E"/>
</g>
<defs>
<clipPath id="clip0_167_150">
<rect width="24" height="24" fill="white"/>
</clipPath>
</defs>
</svg>
