<svg width="24" height="24" viewBox="0 0 24 24" fill="none" xmlns="http://www.w3.org/2000/svg">
<path d="M6.15274 2.87749C7.34791 0.710626 10.4712 0.710728 11.6664 2.87749L13.8568 6.84819L14.9066 8.75835L16.1869 11.0884L16.2875 11.2867C17.2468 13.3475 15.7436 15.7493 13.4301 15.7496H4.39981C2.01148 15.7496 0.487041 13.1901 1.64298 11.0884L6.15274 2.87944V2.87749ZM10.3529 3.6021C9.72833 2.46975 8.09163 2.46869 7.46622 3.60015L2.95743 11.8111C2.35336 12.9094 3.14814 14.2496 4.39981 14.2496H13.4301C14.6426 14.2493 15.4269 12.9917 14.9252 11.9146L14.8725 11.8111L12.5424 7.57085L10.3529 3.6021Z" fill="#1C252E"/>
<path d="M21.25 15.5C21.25 12.3242 18.6758 9.75 15.5 9.75C15.484 9.75 15.4681 9.75085 15.4521 9.75098L16.1875 11.0889L16.2881 11.2871C17.247 13.3479 15.7433 15.75 13.4297 15.75H9.75684C9.88774 18.8098 12.408 21.25 15.5 21.25C18.6758 21.25 21.25 18.6758 21.25 15.5ZM22.75 15.5C22.75 19.5042 19.5042 22.75 15.5 22.75C11.4958 22.75 8.25 19.5042 8.25 15.5C8.25 15.3037 8.26182 15.1203 8.27148 14.9561L8.29395 14.8115C8.37789 14.487 8.67237 14.2502 9.01953 14.25H13.4297C14.6813 14.25 15.477 12.9098 14.873 11.8115L13.5928 9.48145C13.4778 9.27209 13.4695 9.02027 13.5703 8.80371C13.671 8.58727 13.8685 8.43171 14.1025 8.38477C14.5541 8.29446 15.0239 8.25 15.5 8.25C19.5042 8.25 22.75 11.4958 22.75 15.5Z" fill="#1C252E"/>
</svg>
