<svg width="24" height="24" viewBox="0 0 24 24" fill="none" xmlns="http://www.w3.org/2000/svg">
<path d="M21.25 9C21.25 6.57397 20.7603 5.0708 19.8447 4.15527C18.9292 3.23974 17.426 2.75 15 2.75H9C6.57397 2.75 5.0708 3.23974 4.15527 4.15527C3.23974 5.0708 2.75 6.57397 2.75 9V15C2.75 17.426 3.23974 18.9292 4.15527 19.8447C5.0708 20.7603 6.57397 21.25 9 21.25H15C17.426 21.25 18.9292 20.7603 19.8447 19.8447C20.7603 18.9292 21.25 17.426 21.25 15V9ZM22.75 15C22.75 17.574 22.2397 19.5708 20.9053 20.9053C19.5708 22.2397 17.574 22.75 15 22.75H9C6.42603 22.75 4.4292 22.2397 3.09473 20.9053C1.76026 19.5708 1.25 17.574 1.25 15V9C1.25 6.42603 1.76026 4.4292 3.09473 3.09473C4.4292 1.76026 6.42603 1.25 9 1.25H15C17.574 1.25 19.5708 1.76026 20.9053 3.09473C22.2397 4.4292 22.75 6.42603 22.75 9V15Z" fill="#1C252E"/>
<path d="M16.0098 11.7803C16.0098 10.7913 15.5979 9.83486 14.8516 9.12207C14.1049 8.40914 13.0821 8 12 8C10.9309 8 9.9063 8.40609 9.14746 9.12109L9.14844 9.12207C8.40211 9.83486 7.99023 10.7913 7.99023 11.7803C7.99029 12.6994 8.31418 13.5923 8.91211 14.3135L9.03516 14.4551L9.03613 14.457L10.6562 16.2471C10.855 16.4669 10.9052 16.7828 10.7852 17.0537C10.6649 17.3248 10.3962 17.5 10.0996 17.5H7C6.58579 17.5 6.25 17.1642 6.25 16.75C6.25 16.3358 6.58579 16 7 16H8.41016L7.9248 15.4639C7.00161 14.4481 6.4903 13.1395 6.49023 11.7803C6.49023 10.4573 7.00727 9.19288 7.92383 8.22656L8.11523 8.03516C9.15606 7.05216 10.5507 6.5 12 6.5C13.4577 6.5 14.8544 7.05124 15.8877 8.03809C16.9213 9.02529 17.5098 10.3693 17.5098 11.7803C17.5097 13.1311 16.9976 14.4379 16.0781 15.4609L16.0762 15.4629L15.5898 16H17C17.4142 16 17.75 16.3358 17.75 16.75C17.75 17.1642 17.4142 17.5 17 17.5H13.9004C13.6038 17.5 13.3351 17.3248 13.2148 17.0537C13.0948 16.7828 13.145 16.4669 13.3438 16.2471L14.9639 14.457C15.6431 13.7006 16.0097 12.7484 16.0098 11.7803Z" fill="#1C252E"/>
</svg>
