<svg width="24" height="24" viewBox="0 0 24 24" fill="none" xmlns="http://www.w3.org/2000/svg">
<path d="M11.7896 1.94507C12.3026 1.94507 12.8579 2.02958 13.3169 2.23511L13.3159 2.23608L19.2144 4.85425H19.2134C20.1384 5.2625 20.935 5.94807 20.9351 6.90991C20.9351 7.87207 20.1377 8.55831 19.2124 8.96655L13.3159 11.5837C12.8569 11.7892 12.3025 11.8748 11.7896 11.8748C11.2767 11.8747 10.7221 11.7902 10.2632 11.5847V11.5837L4.36768 8.96655L4.1958 8.88647C3.34566 8.47124 2.64502 7.81203 2.64502 6.90991C2.64511 5.94834 3.44105 5.26254 4.36572 4.85425L10.2632 2.23608C10.7221 2.03062 11.2767 1.94512 11.7896 1.94507ZM11.7896 3.44507C11.4178 3.44512 11.0874 3.50983 10.8765 3.60425L10.8745 3.60522L4.97412 6.22534L4.97314 6.22632C4.1997 6.56754 4.14519 6.87626 4.14502 6.90991C4.14502 6.93865 4.18562 7.17904 4.71436 7.46753L4.97314 7.59351L4.97412 7.59448L10.8745 10.2146L10.8765 10.2156C11.0874 10.31 11.4178 10.3747 11.7896 10.3748C12.1615 10.3748 12.4926 10.31 12.7036 10.2156L12.7056 10.2146L18.606 7.59448L18.6069 7.59351C19.3816 7.25175 19.4351 6.94276 19.4351 6.90991C19.4349 6.87626 19.3804 6.56755 18.6069 6.22632L18.606 6.22534L12.7056 3.60522L12.7036 3.60425C12.4926 3.50979 12.1615 3.44507 11.7896 3.44507Z" fill="#1C252E"/>
<path d="M2.25 11C2.25 10.5858 2.58579 10.25 3 10.25C3.41421 10.25 3.75 10.5858 3.75 11C3.75 11.2434 3.84642 11.5559 4.04004 11.8535C4.20941 12.1138 4.41906 12.3108 4.61816 12.4219L4.70312 12.4639L4.70508 12.4648L11.4951 15.4844H11.4941C11.8226 15.6294 12.1901 15.627 12.502 15.4863L12.5049 15.4844L19.2949 12.4648L19.2969 12.4639C19.5197 12.3655 19.7664 12.151 19.96 11.8535C20.1536 11.5559 20.25 11.2434 20.25 11C20.25 10.5858 20.5858 10.25 21 10.25C21.4142 10.25 21.75 10.5858 21.75 11C21.75 11.5966 21.5317 12.1895 21.2178 12.6719C20.904 13.1542 20.4502 13.5943 19.9033 13.8359L13.1152 16.8555L13.1143 16.8545C12.4072 17.1721 11.5968 17.1695 10.8867 16.8555H10.8848L4.09668 13.8359C3.54975 13.5943 3.09605 13.1542 2.78223 12.6719C2.46834 12.1895 2.25 11.5966 2.25 11Z" fill="#1C252E"/>
<path d="M2.25 16C2.25 15.5858 2.58579 15.25 3 15.25C3.41421 15.25 3.75 15.5858 3.75 16C3.75 16.6309 4.12326 17.2042 4.70605 17.4648H4.70508L11.4951 20.4844H11.4941C11.8226 20.6294 12.1901 20.627 12.502 20.4863L12.5049 20.4844L19.2939 17.4648L19.4004 17.4131C19.9219 17.1331 20.25 16.5917 20.25 16C20.25 15.5858 20.5858 15.25 21 15.25C21.4142 15.25 21.75 15.5858 21.75 16C21.75 17.229 21.0233 18.3356 19.9062 18.835H19.9053L13.1152 21.8555L13.1143 21.8545C12.4072 22.1721 11.5968 22.1695 10.8867 21.8555H10.8848L4.09473 18.835H4.09375C2.97667 18.3356 2.25 17.229 2.25 16Z" fill="#1C252E"/>
</svg>
