<svg width="24" height="24" viewBox="0 0 24 24" fill="none" xmlns="http://www.w3.org/2000/svg">
<path d="M16.2202 12.25C16.2202 10.449 15.8555 9.3833 15.2212 8.74902C14.5869 8.11474 13.5212 7.75 11.7202 7.75H7.22021C5.41919 7.75 4.35352 8.11474 3.71924 8.74902C3.08496 9.3833 2.72021 10.449 2.72021 12.25V16.75C2.72021 18.551 3.08496 19.6167 3.71924 20.251C4.35352 20.8853 5.41919 21.25 7.22021 21.25H11.7202C13.5212 21.25 14.5869 20.8853 15.2212 20.251C15.8555 19.6167 16.2202 18.551 16.2202 16.75V12.25ZM17.7202 16.75C17.7202 18.699 17.335 20.2583 16.2817 21.3115C15.2285 22.3647 13.6692 22.75 11.7202 22.75H7.22021C5.27124 22.75 3.71191 22.3647 2.65869 21.3115C1.60547 20.2583 1.22021 18.699 1.22021 16.75V12.25C1.22021 10.301 1.60547 8.7417 2.65869 7.68848C3.71191 6.63526 5.27124 6.25 7.22021 6.25H11.7202C13.6692 6.25 15.2285 6.63526 16.2817 7.68848C17.335 8.7417 17.7202 10.301 17.7202 12.25V16.75Z" fill="#1C252E"/>
<path d="M21.2197 7.5C21.2197 7.28829 21.2028 7.08153 21.1709 6.89844C21.1691 6.88781 21.1674 6.87691 21.166 6.86621C20.8639 4.53643 18.879 2.75 16.4697 2.75C14.277 2.75012 12.437 4.23023 11.8926 6.25195C13.7611 6.27439 15.2593 6.66663 16.2813 7.68848C17.303 8.71019 17.6952 10.2082 17.7178 12.0762C19.7396 11.5317 21.2197 9.69288 21.2197 7.5ZM22.7197 7.5C22.7197 10.7617 20.2298 13.4327 17.0362 13.7168C16.8267 13.7353 16.6191 13.6654 16.4639 13.5234C16.3086 13.3814 16.2197 13.1802 16.2197 12.9697V12.25C16.2197 10.449 15.855 9.3833 15.2207 8.74902C14.5864 8.11483 13.5206 7.75 11.7197 7.75H11C10.7895 7.75 10.5884 7.66114 10.4463 7.50586C10.3045 7.35064 10.2343 7.14302 10.2529 6.93359C10.5371 3.74003 13.2081 1.25014 16.4697 1.25C19.6293 1.25 22.2365 3.58722 22.6485 6.6416L22.6807 6.85156C22.7075 7.06449 22.7197 7.28368 22.7197 7.5Z" fill="#1C252E"/>
</svg>
