<svg width="24" height="24" viewBox="0 0 24 24" fill="none" xmlns="http://www.w3.org/2000/svg">
<g clip-path="url(#clip0_167_144)">
<path d="M11.8546 1.88433C13.0676 1.76827 14.2171 2.48602 15.5304 3.79937L18.9904 7.25933C20.2374 8.50638 20.9323 9.64469 20.8468 10.857C20.7638 12.032 19.9537 13.0167 18.9904 13.98L13.4191 19.5513C12.8124 20.1555 12.2675 20.6501 11.7501 20.9947C11.2263 21.3435 10.6785 21.574 10.0753 21.5777C9.47126 21.5813 8.92014 21.3562 8.3898 21.0074C7.86656 20.6632 7.31485 20.1658 6.69937 19.5503L3.23941 16.0904C2.5857 15.4367 2.06768 14.8657 1.71597 14.3355C1.35962 13.7983 1.13336 13.2429 1.15249 12.6353C1.17155 12.0323 1.42892 11.4988 1.78628 10.9976C2.14028 10.5013 2.64147 9.97011 3.23843 9.37066L8.80972 3.79937C9.29847 3.31063 9.77165 2.86618 10.2482 2.53277C10.7301 2.19562 11.2573 1.94151 11.8546 1.88433ZM11.9972 3.37749C11.7459 3.40161 11.465 3.51292 11.1085 3.76226C10.7469 4.01528 10.3512 4.37897 9.87027 4.85991L4.29995 10.4302C3.70268 11.03 3.28255 11.4828 3.00796 11.8677C2.73687 12.2478 2.65752 12.4942 2.65152 12.6822C2.64572 12.8658 2.70612 13.1146 2.96597 13.5064C3.23052 13.9052 3.65895 14.3888 4.29995 15.0298L7.75991 18.4898C8.35936 19.0892 8.82324 19.4974 9.21402 19.7544C9.59765 20.0068 9.85951 20.079 10.0666 20.0777C10.2745 20.0764 10.5366 20.0004 10.9191 19.7457C11.3082 19.4865 11.7674 19.0795 12.3605 18.4888L17.9298 12.9195C18.906 11.9432 19.3111 11.3127 19.3507 10.7505C19.3876 10.2254 19.1124 9.50244 17.9298 8.31988L14.4699 4.85991C13.1933 3.5833 12.4817 3.33111 11.9972 3.37749Z" fill="#1C252E"/>
<path d="M20.1361 15.395C20.821 15.395 21.3742 15.8267 21.722 16.4019H21.7211L22.3812 17.4917L22.3832 17.4946C22.9285 18.4038 23.0908 19.4108 22.6195 20.2417C22.1482 21.0721 21.2009 21.4497 20.14 21.4497C19.0789 21.4497 18.1308 21.0723 17.6595 20.2417C17.1882 19.4107 17.3514 18.4039 17.8968 17.4946L17.8978 17.4917L18.558 16.4019C18.9013 15.8261 19.4515 15.395 20.1361 15.395ZM20.1361 16.895C20.1288 16.895 20.1027 16.8961 20.055 16.9282C20.0041 16.9625 19.927 17.0344 19.8451 17.1724L19.8412 17.1782L19.182 18.2651C18.7976 18.9058 18.8556 19.31 18.9642 19.5015C19.073 19.6932 19.3911 19.9497 20.14 19.9497C20.8884 19.9497 21.2059 19.6932 21.3148 19.5015C21.4233 19.3102 21.481 18.9075 21.098 18.2681L20.4379 17.1782C20.3539 17.0393 20.2752 16.9659 20.222 16.9302C20.1718 16.8966 20.1436 16.895 20.1361 16.895Z" fill="#1C252E"/>
<path d="M1.80374 11.5158C7.3105 10.0203 13.1057 9.92608 18.6504 11.2511L19.1866 11.383L19.1885 11.3839L19.6885 11.5138C20.0894 11.6181 20.3298 12.028 20.2256 12.4289C20.1213 12.8295 19.7123 13.07 19.3116 12.966L18.8116 12.8361V12.8351C13.3587 11.4382 7.63101 11.488 2.19632 12.964C1.79674 13.0723 1.38499 12.8362 1.2764 12.4367C1.16783 12.0369 1.40401 11.6243 1.80374 11.5158Z" fill="#1C252E"/>
</g>
<defs>
<clipPath id="clip0_167_144">
<rect width="24" height="24" fill="white"/>
</clipPath>
</defs>
</svg>
