<svg width="24" height="24" viewBox="0 0 24 24" fill="none" xmlns="http://www.w3.org/2000/svg">
<path d="M8.25 6.5C8.25 4.98122 7.01878 3.75 5.5 3.75C3.98122 3.75 2.75 4.98122 2.75 6.5C2.75 8.01878 3.98122 9.25 5.5 9.25C7.01878 9.25 8.25 8.01878 8.25 6.5ZM9.75 6.5C9.75 8.84721 7.84721 10.75 5.5 10.75C3.15279 10.75 1.25 8.84721 1.25 6.5C1.25 4.15279 3.15279 2.25 5.5 2.25C7.84721 2.25 9.75 4.15279 9.75 6.5Z" fill="#1C252E"/>
<path d="M8.25 17.5C8.25 15.9812 7.01878 14.75 5.5 14.75C3.98122 14.75 2.75 15.9812 2.75 17.5C2.75 19.0188 3.98122 20.25 5.5 20.25C7.01878 20.25 8.25 19.0188 8.25 17.5ZM9.75 17.5C9.75 19.8472 7.84721 21.75 5.5 21.75C3.15279 21.75 1.25 19.8472 1.25 17.5C1.25 15.1528 3.15279 13.25 5.5 13.25C7.84721 13.25 9.75 15.1528 9.75 17.5Z" fill="#1C252E"/>
<path d="M21.5512 5.39946C21.883 5.15164 22.3531 5.21914 22.601 5.55083C22.8489 5.88258 22.7804 6.35265 22.4487 6.60063L9.09907 16.5811C8.76731 16.8291 8.29726 16.7605 8.04926 16.4288C7.8014 16.097 7.86893 15.6269 8.20063 15.379L21.5512 5.39946Z" fill="#1C252E"/>
<path d="M8.04931 7.53076C8.29745 7.19916 8.76749 7.13134 9.09912 7.37939L22.4497 17.3696C22.781 17.6179 22.8482 18.0879 22.6001 18.4194C22.3519 18.7509 21.8819 18.8189 21.5503 18.5708L8.20068 8.58056C7.86909 8.33243 7.80126 7.86239 8.04931 7.53076Z" fill="#1C252E"/>
</svg>
