<svg width="24" height="24" viewBox="0 0 24 24" fill="none" xmlns="http://www.w3.org/2000/svg">
<path d="M13.7195 6.02105C14.3444 5.99678 14.9552 6.26448 15.4305 6.7398L17.2762 8.5855C18.1991 9.49447 18.272 11.1233 17.0555 11.8775L17.0545 11.8765L15.4305 12.9039C15.1341 13.0911 14.7477 13.0482 14.4998 12.8003L11.2098 9.51031C10.9619 9.2624 10.919 8.87605 11.1063 8.57964L12.1356 6.94976L12.1365 6.94781C12.5013 6.37345 13.0831 6.04582 13.7195 6.02105ZM13.7781 7.5191C13.6422 7.52438 13.5083 7.58691 13.4031 7.7525L12.6942 8.87359L15.1356 11.315L16.2596 10.606L16.2654 10.6021C16.3869 10.5266 16.4624 10.3999 16.4695 10.2281C16.4769 10.051 16.4063 9.83499 16.2235 9.65484L16.2195 9.64996L14.3699 7.80035C14.1454 7.57579 13.9257 7.51344 13.7781 7.5191Z" fill="#1C252E"/>
<path d="M9.39519 8.09119L9.39421 8.09217L11.7839 8.23182C12.1973 8.25604 12.5131 8.61035 12.4889 9.02381C12.4647 9.43731 12.1095 9.75311 11.696 9.72889L9.30632 9.58924L9.30535 9.58826C8.67896 9.55088 8.47993 9.65008 8.40886 9.70935C8.33938 9.76732 8.2152 9.93528 8.14519 10.5277L7.5446 15.598V15.601C7.50457 15.9314 7.60524 16.1512 7.73406 16.2797C7.86369 16.4088 8.0882 16.5111 8.42156 16.475L13.4919 15.8754L13.6969 15.8461C14.1317 15.7738 14.2787 15.6692 14.3346 15.6039C14.3889 15.5404 14.4925 15.3527 14.4333 14.7426C14.4324 14.7332 14.4319 14.7237 14.4313 14.7142L14.2917 12.3236C14.2676 11.9102 14.5833 11.5558 14.9968 11.5316C15.4099 11.5077 15.7643 11.8226 15.7887 12.2357L15.9264 14.598L15.946 14.8705C15.9753 15.503 15.8783 16.107 15.4753 16.5785C15.0242 17.1062 14.3425 17.285 13.6686 17.3646L8.59831 17.9652H8.59343C7.85963 18.0474 7.16512 17.8308 6.67546 17.3431C6.18447 16.8541 5.96556 16.1584 6.05535 15.4193L6.65496 10.3519L6.69011 10.099C6.78546 9.51042 6.98244 8.94703 7.4489 8.55799C7.98031 8.11488 8.68173 8.0486 9.39519 8.09119Z" fill="#1C252E"/>
<path d="M8.80942 14.1397C9.10224 13.8469 9.57705 13.847 9.86996 14.1397C10.1629 14.4326 10.1629 14.9074 9.86996 15.2003L8.02035 17.0499C7.72746 17.3428 7.2527 17.3428 6.95981 17.0499C6.66711 16.757 6.66698 16.2822 6.95981 15.9893L8.80942 14.1397Z" fill="#1C252E"/>
<path d="M21.25 9C21.25 6.57397 20.7603 5.0708 19.8447 4.15527C18.9292 3.23974 17.426 2.75 15 2.75H9C6.57397 2.75 5.0708 3.23974 4.15527 4.15527C3.23974 5.0708 2.75 6.57397 2.75 9V15C2.75 17.426 3.23974 18.9292 4.15527 19.8447C5.0708 20.7603 6.57397 21.25 9 21.25H15C17.426 21.25 18.9292 20.7603 19.8447 19.8447C20.7603 18.9292 21.25 17.426 21.25 15V9ZM22.75 15C22.75 17.574 22.2397 19.5708 20.9053 20.9053C19.5708 22.2397 17.574 22.75 15 22.75H9C6.42603 22.75 4.4292 22.2397 3.09473 20.9053C1.76026 19.5708 1.25 17.574 1.25 15V9C1.25 6.42603 1.76026 4.4292 3.09473 3.09473C4.4292 1.76026 6.42603 1.25 9 1.25H15C17.574 1.25 19.5708 1.76026 20.9053 3.09473C22.2397 4.4292 22.75 6.42603 22.75 9V15Z" fill="#1C252E"/>
</svg>
