<svg width="24" height="24" viewBox="0 0 24 24" fill="none" xmlns="http://www.w3.org/2000/svg">
<path d="M10.4795 6.64968C10.7724 6.35682 11.2471 6.35687 11.54 6.64968L15.9307 11.0393C16.4435 11.5522 16.4435 12.3878 15.9307 12.9007L12.3369 16.4934C11.8544 16.9699 11.2748 17.3031 10.6074 17.301C9.94015 17.2989 9.36187 16.9617 8.87988 16.4798L6.48926 14.0901C6.00802 13.6088 5.67004 13.0294 5.66992 12.3616C5.66992 11.6923 6.00948 11.1136 6.49316 10.636L10.4795 6.64968ZM7.54688 11.7034C7.23056 12.0158 7.16992 12.2334 7.16992 12.3616C7.17004 12.491 7.23183 12.7115 7.5498 13.0296L9.94043 15.4192L10.0547 15.5276C10.3119 15.7527 10.4962 15.8007 10.6123 15.801C10.745 15.8015 10.9658 15.7395 11.2832 15.426L14.7393 11.97L11.0098 8.2405L7.54688 11.7034Z" fill="#1C252E"/>
<path d="M9.67963 5.84979C9.97251 5.5569 10.4473 5.55691 10.7402 5.84979L11.54 6.6496C11.8329 6.94248 11.8329 7.41724 11.54 7.71014C11.2471 8.00302 10.7723 8.00302 10.4794 7.71014L9.67963 6.91034C9.38674 6.61745 9.38674 6.14269 9.67963 5.84979Z" fill="#1C252E"/>
<path d="M15.4582 11.191C15.8719 11.1734 16.2216 11.4941 16.2395 11.9078C16.2573 12.3215 15.9364 12.6711 15.5227 12.689L6.49239 13.0797C6.07863 13.0975 5.72901 12.7757 5.71114 12.3619C5.69351 11.9483 6.01425 11.5985 6.42794 11.5807L15.4582 11.191Z" fill="#1C252E"/>
<path d="M16.4668 13.4201C16.6759 13.4191 16.8759 13.5055 17.0186 13.6583V13.6593H17.0195L17.0244 13.6642C17.0274 13.6674 17.0311 13.6724 17.0361 13.6779C17.046 13.6887 17.0601 13.7037 17.0771 13.7228C17.1115 13.7613 17.1598 13.8164 17.2168 13.8839C17.33 14.018 17.4821 14.2071 17.6357 14.424C17.7877 14.6385 17.9522 14.8957 18.0801 15.1642C18.2013 15.4189 18.3251 15.7558 18.3203 16.1105L18.3193 16.1095C18.3142 17.1151 17.4951 17.9503 16.4697 17.9503C15.4602 17.9501 14.6201 17.1283 14.6201 16.0997C14.6202 15.7507 14.7446 15.4179 14.8652 15.1661C14.9928 14.9 15.1559 14.6443 15.3066 14.4298C15.459 14.213 15.6097 14.0233 15.7217 13.8888C15.778 13.8212 15.8255 13.7663 15.8594 13.7277C15.8761 13.7087 15.8897 13.6936 15.8994 13.6827C15.9043 13.6773 15.9092 13.6723 15.9121 13.6691C15.9134 13.6676 15.9142 13.6661 15.915 13.6652L15.917 13.6632L15.9727 13.6085C16.1083 13.4884 16.2838 13.4209 16.4668 13.4201ZM16.1201 16.0997C16.1201 16.2909 16.2796 16.4501 16.4697 16.4503C16.6611 16.4503 16.8203 16.2899 16.8203 16.0997V16.09C16.8203 16.09 16.8204 16.0837 16.8184 16.0704C16.8162 16.0562 16.8121 16.0359 16.8047 16.0099C16.7895 15.9566 16.7639 15.8891 16.7256 15.8087C16.6615 15.6741 16.5713 15.5297 16.4727 15.3839C16.3735 15.5313 16.284 15.6784 16.2188 15.8146C16.1798 15.8958 16.1526 15.9644 16.1367 16.0187C16.129 16.045 16.1245 16.0656 16.1221 16.0802C16.1202 16.0919 16.1202 16.0982 16.1201 16.0997Z" fill="#1C252E"/>
<path d="M21.25 12C21.25 6.89137 17.1086 2.75 12 2.75C6.89137 2.75 2.75 6.89137 2.75 12C2.75 17.1086 6.89137 21.25 12 21.25C17.1086 21.25 21.25 17.1086 21.25 12ZM22.75 12C22.75 17.9371 17.9371 22.75 12 22.75C6.06294 22.75 1.25 17.9371 1.25 12C1.25 6.06294 6.06294 1.25 12 1.25C17.9371 1.25 22.75 6.06294 22.75 12Z" fill="#1C252E"/>
</svg>
