<svg width="24" height="24" viewBox="0 0 24 24" fill="none" xmlns="http://www.w3.org/2000/svg">
<path d="M16.2202 12.25C16.2202 10.449 15.8555 9.3833 15.2212 8.74902C14.5869 8.11474 13.5212 7.75 11.7202 7.75H7.22021C5.41919 7.75 4.35352 8.11474 3.71924 8.74902C3.08496 9.3833 2.72021 10.449 2.72021 12.25V16.75C2.72021 18.551 3.08496 19.6167 3.71924 20.251C4.35352 20.8853 5.41919 21.25 7.22021 21.25H11.7202C13.5212 21.25 14.5869 20.8853 15.2212 20.251C15.8555 19.6167 16.2202 18.551 16.2202 16.75V12.25ZM17.7202 16.75C17.7202 18.699 17.335 20.2583 16.2817 21.3115C15.2285 22.3647 13.6692 22.75 11.7202 22.75H7.22021C5.27124 22.75 3.71191 22.3647 2.65869 21.3115C1.60547 20.2583 1.22021 18.699 1.22021 16.75V12.25C1.22021 10.301 1.60547 8.7417 2.65869 7.68848C3.71191 6.63526 5.27124 6.25 7.22021 6.25H11.7202C13.6692 6.25 15.2285 6.63526 16.2817 7.68848C17.335 8.7417 17.7202 10.301 17.7202 12.25V16.75Z" fill="#1C252E"/>
<path d="M21.2202 9.15039V5.84961C21.2202 4.54883 20.9556 3.83307 20.5464 3.42383C20.1371 3.01459 19.4214 2.75005 18.1206 2.75H14.8198C13.519 2.75005 12.8033 3.01459 12.394 3.42383C11.9848 3.83307 11.7203 4.54883 11.7202 5.84961V6.25C13.6692 6.25 15.2285 6.63526 16.2817 7.68848C17.335 8.7417 17.7202 10.301 17.7202 12.25H18.1206C19.4214 12.2499 20.1371 11.9854 20.5464 11.5762C20.9556 11.1669 21.2202 10.4512 21.2202 9.15039ZM22.7202 9.15039C22.7202 10.5992 22.4351 11.8086 21.6069 12.6367C20.7788 13.4649 19.5694 13.7499 18.1206 13.75H16.9702C16.556 13.75 16.2202 13.4142 16.2202 13V12.25C16.2202 10.449 15.8555 9.3833 15.2212 8.74902C14.5869 8.11474 13.5212 7.75 11.7202 7.75H10.9702C10.556 7.75 10.2202 7.41421 10.2202 7V5.84961C10.2203 4.40081 10.5054 3.19143 11.3335 2.36328C12.1616 1.53514 13.371 1.25005 14.8198 1.25H18.1206C19.5694 1.25005 20.7788 1.53514 21.6069 2.36328C22.4351 3.19143 22.7202 4.40081 22.7202 5.84961V9.15039Z" fill="#1C252E"/>
</svg>
