<svg width="24" height="24" viewBox="0 0 24 24" fill="none" xmlns="http://www.w3.org/2000/svg">
<path d="M9.25001 16C9.25001 15.597 9.24835 15.15 9.30274 14.7334C9.35803 14.3102 9.47731 13.8571 9.75782 13.4512C10.3496 12.5951 11.4296 12.25 13 12.25H17C18.4936 12.25 18.8886 11.9822 19.0254 11.7998C19.1022 11.6972 19.17 11.5313 19.209 11.2197C19.2489 10.9008 19.25 10.5144 19.25 10V8C19.25 7.48556 19.2489 7.09923 19.209 6.78027C19.17 6.4687 19.1022 6.30276 19.0254 6.2002C18.8886 6.01779 18.4936 5.75 17 5.75H16C15.5858 5.75 15.25 5.41421 15.25 5C15.25 4.58579 15.5858 4.25 16 4.25H17C18.5062 4.25 19.6114 4.48246 20.2246 5.2998C20.5227 5.69724 20.6425 6.15677 20.6973 6.59473C20.7511 7.02571 20.75 7.51453 20.75 8V10C20.75 10.4855 20.7511 10.9743 20.6973 11.4053C20.6425 11.8432 20.5227 12.3028 20.2246 12.7002C19.6114 13.5175 18.5062 13.75 17 13.75H13C11.571 13.75 11.1506 14.0748 10.9922 14.3037C10.8979 14.4401 10.8295 14.6332 10.791 14.9277C10.7517 15.2292 10.75 15.573 10.75 16C10.75 16.4142 10.4142 16.75 10 16.75C9.58579 16.75 9.25001 16.4142 9.25001 16Z" fill="#1C252E"/>
<path d="M11.9996 1.25C12.3224 1.25 12.6094 1.45647 12.7115 1.7627C13.4129 3.86665 13.4129 6.13335 12.7115 8.2373C12.6094 8.54353 12.3224 8.75 11.9996 8.75H7.99962C7.67696 8.74992 7.39082 8.54337 7.28868 8.2373C6.58737 6.13335 6.58737 3.86665 7.28868 1.7627L7.33458 1.65332C7.46213 1.40838 7.71703 1.25007 7.99962 1.25H11.9996ZM8.55919 2.75C8.16535 4.22581 8.16535 5.77419 8.55919 7.25H11.4401C11.8339 5.77413 11.8339 4.22587 11.4401 2.75H8.55919Z" fill="#1C252E"/>
<path d="M8 1.25C8.25982 1.25 8.50101 1.38453 8.6377 1.60547C8.77427 1.82646 8.78693 2.10255 8.6709 2.33496C7.77647 4.12382 7.77647 5.87618 8.6709 7.66504C8.78693 7.89745 8.77427 8.17354 8.6377 8.39453C8.50101 8.61547 8.25982 8.75 8 8.75H7C5.88439 8.75 4.90999 8.47053 4.21973 7.78027C3.52947 7.09001 3.25 6.11561 3.25 5C3.25 3.88439 3.52947 2.90999 4.21973 2.21973C4.90999 1.52947 5.88439 1.25 7 1.25H8ZM4.75 5C4.75 5.88439 4.97053 6.40999 5.28027 6.71973C5.57548 7.01493 6.06683 7.22664 6.87793 7.24609C6.3776 5.75158 6.37741 4.24744 6.87793 2.75293C6.06681 2.77238 5.57548 2.98506 5.28027 3.28027C4.97053 3.59001 4.75 4.11561 4.75 5Z" fill="#1C252E"/>
<path d="M15.2498 5C15.2498 4.11561 15.0293 3.59001 14.7195 3.28027C14.4242 2.98494 13.9326 2.77223 13.1209 2.75293C13.6216 4.24763 13.6214 5.75139 13.1209 7.24609C13.9326 7.22679 14.4242 7.01505 14.7195 6.71973C15.0293 6.40999 15.2498 5.88439 15.2498 5ZM16.7498 5C16.7498 6.11561 16.4703 7.09001 15.7801 7.78027C15.0898 8.47053 14.1154 8.75 12.9998 8.75H11.9998C11.74 8.75 11.4988 8.61547 11.3621 8.39453C11.2255 8.17354 11.2129 7.89745 11.3289 7.66504C12.2233 5.87618 12.2233 4.12382 11.3289 2.33496C11.2129 2.10255 11.2255 1.82646 11.3621 1.60547C11.4988 1.38453 11.74 1.25 11.9998 1.25H12.9998C14.1154 1.25 15.0898 1.52947 15.7801 2.21973C16.4703 2.90999 16.7498 3.88439 16.7498 5Z" fill="#1C252E"/>
<path d="M11.2501 17.5C11.2501 17.2224 11.2342 17.0567 11.1691 16.9482C11.1484 16.9139 11.1169 16.8759 11.0421 16.8398C10.9583 16.7995 10.7948 16.75 10.5001 16.75H9.50013C9.20548 16.75 9.04201 16.7995 8.95814 16.8398C8.8834 16.8759 8.85186 16.9139 8.83119 16.9482C8.7661 17.0567 8.75014 17.2224 8.75014 17.5V20.5C8.75014 20.7776 8.7661 20.9433 8.83119 21.0518C8.85186 21.0861 8.8834 21.1241 8.95814 21.1602C9.04201 21.2005 9.20548 21.25 9.50013 21.25H10.5001C10.7948 21.25 10.9583 21.2005 11.0421 21.1602C11.1169 21.1241 11.1484 21.0861 11.1691 21.0518C11.2342 20.9433 11.2501 20.7776 11.2501 20.5V17.5ZM12.7501 20.5C12.7501 20.7223 12.7659 21.3068 12.4562 21.8232C12.0962 22.4232 11.4328 22.75 10.5001 22.75H9.50013C8.56749 22.75 7.90408 22.4232 7.54408 21.8232C7.23435 21.3068 7.25014 20.7223 7.25014 20.5V17.5C7.25014 17.2777 7.23435 16.6932 7.54408 16.1768C7.90408 15.5768 8.56749 15.25 9.50013 15.25H10.5001C11.4328 15.25 12.0962 15.5768 12.4562 16.1768C12.7659 16.6932 12.7501 17.2777 12.7501 17.5V20.5Z" fill="#1C252E"/>
</svg>
