<svg width="24" height="24" viewBox="0 0 24 24" fill="none" xmlns="http://www.w3.org/2000/svg">
<path d="M15.5498 1.25C16.4206 1.25 17.1978 1.60793 17.7598 2.16992C18.4931 2.90327 18.8639 3.98671 18.5889 5.12598L18.5879 5.13184L17.8594 4.9502L18.5869 5.13184C18.3039 6.26403 17.4103 7.05624 16.3672 7.35547L20.1875 16.0996H20.1865C20.8997 17.727 21.1159 19.4047 20.3779 20.7217C19.6184 22.0772 18.0267 22.7499 15.8301 22.75H8.16017C5.94567 22.75 4.34915 22.0758 3.59572 20.7129C2.86515 19.3913 3.09652 17.7107 3.81349 16.0869L7.64552 7.38477C7.1114 7.24398 6.62852 6.96653 6.24513 6.58496V6.58594C5.66111 6.01494 5.31938 5.22183 5.31935 4.37012C5.31935 2.65808 6.71336 1.25018 8.43947 1.25H15.5498ZM6.81935 4.37012C6.81938 4.7619 6.95648 5.12197 7.18849 5.39941L7.29396 5.51367L7.29982 5.51953C7.59077 5.81048 8.00138 5.99023 8.45021 5.99023H8.75002C9.00331 5.9903 9.23951 6.11795 9.37795 6.33008C9.51633 6.54223 9.5385 6.81014 9.43654 7.04199L5.18654 16.6924L5.18556 16.6934C4.54277 18.1493 4.51392 19.274 4.90822 19.9873C5.27979 20.6594 6.19468 21.25 8.16017 21.25H15.8301C17.7731 21.2499 18.6914 20.6627 19.0694 19.9883C19.4687 19.2754 19.4491 18.1535 18.8125 16.7012V16.7002L14.5928 7.04004C14.4915 6.80818 14.5138 6.54081 14.6524 6.3291C14.7909 6.1175 15.0273 5.99023 15.2803 5.99023H15.4395C16.2534 5.99023 16.9563 5.46972 17.1319 4.76855C17.2744 4.1699 17.0847 3.61596 16.6992 3.23047C16.4013 2.93252 15.999 2.75 15.5498 2.75H8.43947C7.5459 2.75019 6.81935 3.48238 6.81935 4.37012Z" fill="#1C252E"/>
<path d="M17.4146 12.486C17.7589 12.2568 18.2238 12.3492 18.4537 12.693C18.6837 13.0375 18.5911 13.504 18.2467 13.734L17.8297 13.11L18.2457 13.734L18.2447 13.735C18.2438 13.7356 18.2421 13.7371 18.2408 13.7379C18.2383 13.7396 18.2349 13.7413 18.231 13.7438C18.2231 13.749 18.2122 13.7558 18.1988 13.7643C18.1721 13.7812 18.1348 13.8044 18.0875 13.8327C17.9926 13.8894 17.8568 13.967 17.6861 14.0553C17.3452 14.2318 16.8582 14.4551 16.2691 14.6442C15.099 15.0198 13.4676 15.2796 11.7633 14.7116C10.339 14.2368 8.88726 14.0243 7.7828 13.9323C7.2331 13.8865 6.77468 13.871 6.45565 13.8669C6.29625 13.8648 6.17151 13.8656 6.08847 13.8669C6.04697 13.8675 6.01579 13.8683 5.99569 13.8688C5.98585 13.8691 5.97864 13.8687 5.97421 13.8688C5.972 13.8689 5.97008 13.8698 5.96933 13.8698C5.55548 13.886 5.20723 13.5629 5.19101 13.1491C5.17495 12.7353 5.49694 12.387 5.91073 12.3708H5.91464C5.91676 12.3707 5.91994 12.3699 5.92343 12.3698C5.93078 12.3695 5.94158 12.3692 5.95468 12.3688C5.98081 12.3681 6.01818 12.3676 6.06601 12.3669C6.16202 12.3654 6.30084 12.3646 6.47518 12.3669C6.82352 12.3714 7.3172 12.388 7.90683 12.4372C9.08231 12.5351 10.6613 12.7636 12.2369 13.2887C13.5323 13.7205 14.8163 13.5348 15.8111 13.2155C16.3044 13.0571 16.7133 12.8699 16.9967 12.7233C17.1377 12.6503 17.2466 12.5882 17.318 12.5456C17.3536 12.5243 17.3799 12.508 17.3961 12.4977C17.4042 12.4926 17.4097 12.4889 17.4127 12.487C17.4139 12.4862 17.4143 12.4852 17.4146 12.485V12.486Z" fill="#1C252E"/>
</svg>
