<svg width="24" height="24" viewBox="0 0 24 24" fill="none" xmlns="http://www.w3.org/2000/svg">
<g clip-path="url(#clip0_167_165)">
<path d="M19.7076 1.40737C20.5762 1.08346 21.4606 1.31367 22.0279 1.89663L22.0269 1.89761C22.5874 2.45352 22.8686 3.33031 22.5054 4.21792L22.5064 4.2189C20.9187 8.17789 16.9804 13.5036 13.649 16.175L11.6792 17.755C11.6691 17.7632 11.6585 17.7709 11.648 17.7785C11.3805 17.9711 11.0713 18.1744 10.7046 18.3185C10.4738 18.4092 10.2123 18.3791 10.0074 18.2394C9.80269 18.0997 9.68029 17.8681 9.68022 17.6203C9.68022 17.4648 9.67092 17.3062 9.64897 17.1671C9.64795 17.1607 9.64689 17.1541 9.64604 17.1476C9.55847 16.4789 9.25827 15.8487 8.69975 15.2902C8.13889 14.7294 7.46832 14.4085 6.79545 14.3166C6.5704 14.3047 6.46431 14.2948 6.34428 14.3068C6.08892 14.3322 5.83858 14.2245 5.68022 14.0226C5.52177 13.8204 5.47713 13.5508 5.56303 13.3087C5.70047 12.9215 5.91147 12.559 6.17436 12.2521L7.73197 10.2843L7.73393 10.2824C9.07755 8.60024 11.0869 6.7782 13.23 5.1896C15.373 3.60109 17.6978 2.20986 19.6919 1.41323L19.7076 1.40737ZM20.9527 2.94351C20.8012 2.78782 20.5476 2.69799 20.2398 2.80972C18.4058 3.54369 16.1988 4.85568 14.1226 6.39468C12.0442 7.93532 10.1432 9.66771 8.90678 11.215L8.90776 11.216L7.54252 12.9386C8.35225 13.1512 9.1179 13.5873 9.76029 14.2296C10.3874 14.8567 10.8064 15.5798 11.0162 16.3634L12.7105 15.005C15.839 12.4964 19.6214 7.38225 21.1138 3.66128L21.1167 3.65347C21.2251 3.39158 21.1553 3.14034 20.9673 2.95718C20.9626 2.95257 20.9573 2.94824 20.9527 2.94351Z" fill="#1C252E"/>
<path d="M9.65299 17.133C9.56298 16.4697 9.2641 15.8447 8.70963 15.2902L8.70572 15.2863C8.14908 14.7215 7.48065 14.4085 6.8024 14.3166C6.62451 14.3075 6.46303 14.3015 6.31705 14.3088C6.30989 14.3091 6.30274 14.3096 6.29557 14.3097C4.69144 14.3428 3.20997 15.4952 3.01529 17.2717L2.74576 19.7316L2.74479 19.7375C2.64146 20.6157 3.3844 21.3516 4.24674 21.255L4.24772 21.2541L6.69596 20.9855C7.52754 20.8755 8.20257 20.5268 8.6901 20.0392C9.33701 19.3822 9.68026 18.524 9.68033 17.6203C9.68033 17.4635 9.66542 17.3497 9.65299 17.133ZM11.1803 17.6203C11.1803 18.9146 10.6841 20.1546 9.75358 21.0968L9.75065 21.1008C9.01891 21.8325 8.03406 22.3232 6.88737 22.4738C6.88218 22.4745 6.87694 22.4752 6.87174 22.4758L4.41276 22.7443L4.41373 22.7453C2.59616 22.9487 1.03903 21.4043 1.25553 19.5627L1.52408 17.1086C1.8094 14.505 3.9885 12.8567 6.26432 12.8097V12.8107C6.37894 12.8057 6.49369 12.8051 6.60221 12.8078L6.91959 12.8215L6.97623 12.8263C7.98987 12.9575 8.97267 13.4222 9.77018 14.2297L9.91276 14.3781C10.6076 15.1278 11.019 16.0043 11.1432 16.9523C11.1457 16.9716 11.1481 16.9915 11.1491 17.0109C11.1562 17.1453 11.1803 17.4075 11.1803 17.6203Z" fill="#1C252E"/>
<path d="M13.4902 14.4705C13.4902 12.2747 11.7056 10.49 9.50977 10.49C9.09555 10.49 8.75977 10.1542 8.75977 9.73999C8.75977 9.32578 9.09555 8.98999 9.50977 8.98999C12.534 8.98999 14.9902 11.4462 14.9902 14.4705C14.99 14.8843 14.6541 15.2202 14.2402 15.2205C13.8262 15.2205 13.4905 14.8845 13.4902 14.4705Z" fill="#1C252E"/>
<path d="M19.5863 12.2036C19.8771 11.9088 20.3519 11.905 20.6468 12.1958L21.3871 12.9263L21.39 12.9292C22.2149 13.7542 22.7279 14.6742 22.7279 15.6851C22.7279 16.6959 22.2149 17.6151 21.39 18.44L18.43 21.3999C17.6115 22.2185 16.6922 22.7222 15.6849 22.7222C14.6777 22.7221 13.7583 22.2185 12.9398 21.3999C12.6471 21.107 12.647 20.6322 12.9398 20.3394C13.2326 20.0467 13.7075 20.0467 14.0003 20.3394C14.6517 20.9908 15.2122 21.2221 15.6849 21.2222C16.1577 21.2222 16.718 20.9908 17.3695 20.3394L20.3294 17.3794C20.9945 16.7144 21.2279 16.1542 21.2279 15.6851C21.2279 15.216 20.9945 14.6558 20.3294 13.9908V13.9898L19.5931 13.2642C19.2983 12.9733 19.2955 12.4985 19.5863 12.2036Z" fill="#1C252E"/>
<path d="M8.28467 1.2475C9.29186 1.2475 10.2113 1.75128 11.0298 2.56976L11.77 3.31C12.0628 3.6029 12.0629 4.07768 11.77 4.37054C11.4771 4.66323 11.0023 4.66328 10.7095 4.37054L9.96924 3.63031C9.31786 2.97898 8.75739 2.7475 8.28467 2.7475C7.81195 2.74755 7.25146 2.97894 6.6001 3.63031L3.64014 6.59027C2.98802 7.25244 2.75745 7.81269 2.75732 8.28461C2.75732 8.75744 2.98908 9.31896 3.64404 9.98285C3.93495 10.2777 3.9311 10.7535 3.63623 11.0444C3.34134 11.3349 2.86646 11.3313 2.57568 11.0366C1.76081 10.2105 1.25732 9.29167 1.25732 8.28461C1.25745 7.27773 1.76097 6.35953 2.57568 5.53363L5.53955 2.56976C6.35807 1.75124 7.27748 1.24755 8.28467 1.2475Z" fill="#1C252E"/>
<path d="M10.7201 3.31972C11.013 3.02692 11.4878 3.02686 11.7807 3.31972C12.0734 3.61259 12.0734 4.0874 11.7807 4.38027L8.08046 8.08046C7.78759 8.37322 7.31278 8.37322 7.01991 8.08046C6.72705 7.7876 6.72712 7.31281 7.01991 7.01991L10.7201 3.31972Z" fill="#1C252E"/>
<path d="M19.5908 12.1988C19.8841 11.9064 20.3589 11.9074 20.6513 12.2007C20.9436 12.4941 20.9427 12.9689 20.6493 13.2613L17.6894 16.2115C17.396 16.5037 16.9212 16.5028 16.6288 16.2095C16.3365 15.9161 16.3374 15.4414 16.6308 15.149L19.5908 12.1988Z" fill="#1C252E"/>
</g>
<defs>
<clipPath id="clip0_167_165">
<rect width="24" height="24" fill="white"/>
</clipPath>
</defs>
</svg>
