<svg width="24" height="24" viewBox="0 0 24 24" fill="none" xmlns="http://www.w3.org/2000/svg">
<path d="M21.2202 12C21.2202 9.10421 18.866 6.75 15.9702 6.75C14.9044 6.75 13.9173 7.06729 13.0923 7.61523C14.1078 8.79245 14.7202 10.3289 14.7202 12C14.7202 13.6708 14.1075 15.2066 13.0923 16.3838C13.9174 16.9319 14.9042 17.25 15.9702 17.25C18.866 17.25 21.2202 14.8958 21.2202 12ZM22.7202 12C22.7202 15.7242 19.6944 18.75 15.9702 18.75C14.2376 18.75 12.6593 18.0961 11.4663 17.0156C11.3086 16.8725 11.2191 16.6691 11.2202 16.4561C11.2214 16.2428 11.3136 16.0398 11.4732 15.8984C12.5472 14.9465 13.2202 13.5488 13.2202 12C13.2202 10.4512 12.5472 9.05353 11.4732 8.10156C11.3136 7.96015 11.2214 7.75715 11.2202 7.54395C11.2191 7.33095 11.3086 7.12746 11.4663 6.98438C12.6593 5.90391 14.2376 5.25 15.9702 5.25C19.6944 5.25 22.7202 8.27579 22.7202 12Z" fill="#1C252E"/>
<path d="M13.2202 12C13.2202 10.4512 12.5472 9.05353 11.4731 8.10156L11.4663 8.0957C10.5394 7.25636 9.31743 6.75 7.97021 6.75C5.07443 6.75 2.72021 9.10421 2.72021 12C2.72021 14.8958 5.07443 17.25 7.97021 17.25C9.31743 17.25 10.5394 16.7436 11.4663 15.9043L11.4731 15.8984C12.5472 14.9465 13.2202 13.5488 13.2202 12ZM14.7202 12C14.7202 13.988 13.8552 15.7868 12.4731 17.0146L12.4741 17.0156C11.2811 18.0961 9.70283 18.75 7.97021 18.75C4.246 18.75 1.22021 15.7242 1.22021 12C1.22021 8.27579 4.246 5.25 7.97021 5.25C9.70283 5.25 11.2811 5.90391 12.4741 6.98438H12.4731C13.8555 8.21228 14.7202 10.0118 14.7202 12Z" fill="#1C252E"/>
</svg>
