<svg width="24" height="24" viewBox="0 0 24 24" fill="none" xmlns="http://www.w3.org/2000/svg">
<path d="M10.8296 5.80005C11.0285 5.80005 11.2192 5.87918 11.3599 6.01978L16.5503 11.2102C17.1028 11.7631 17.1029 12.6574 16.5503 13.2102L12.3003 17.4602C11.7472 18.0133 11.095 18.3849 10.355 18.385C9.61484 18.385 8.96283 18.0134 8.40967 17.4602L5.57959 14.6301C5.02646 14.077 4.65479 13.4249 4.65479 12.6848C4.65487 11.9448 5.02649 11.2926 5.57959 10.7395L10.2993 6.01978C10.4399 5.87917 10.6307 5.8001 10.8296 5.80005ZM6.64014 11.8C6.25345 12.1867 6.15486 12.48 6.15479 12.6848C6.15479 12.8896 6.25334 13.1828 6.64014 13.5696L9.47021 16.3997C9.85705 16.7865 10.1501 16.885 10.355 16.885C10.5598 16.885 10.853 16.7864 11.2397 16.3997L15.4292 12.2102L10.8296 7.6106L6.64014 11.8Z" fill="#1C252E"/>
<path d="M9.34657 5.07264C9.63787 4.77825 10.1127 4.77557 10.4071 5.06678L11.3573 6.00721C11.6515 6.29856 11.6544 6.77338 11.3632 7.06776C11.0718 7.36219 10.5971 7.36398 10.3026 7.07264L9.35243 6.13319C9.05803 5.84189 9.05535 5.36709 9.34657 5.07264Z" fill="#1C252E"/>
<path d="M16.0969 11.421C16.5106 11.4029 16.8608 11.7232 16.8792 12.1368C16.8973 12.5507 16.5762 12.9009 16.1624 12.9191L5.47291 13.3898C5.0591 13.408 4.70889 13.0868 4.69068 12.673C4.67249 12.2592 4.99281 11.9091 5.4065 11.8907L16.0969 11.421Z" fill="#1C252E"/>
<path d="M17.3013 14.0601C17.5111 14.0605 17.7113 14.1485 17.853 14.3032L17.2993 14.8101C17.8111 14.3415 17.8501 14.3067 17.853 14.3042H17.854L17.855 14.3062C17.856 14.3072 17.8574 14.3084 17.8589 14.3101C17.8622 14.3137 17.8669 14.3194 17.8726 14.3257C17.8838 14.3382 17.8998 14.3561 17.9194 14.3784C17.9588 14.4233 18.014 14.487 18.0796 14.5659C18.2103 14.7231 18.3862 14.9441 18.564 15.1968C18.7402 15.4473 18.9292 15.7437 19.0767 16.0493C19.2174 16.341 19.3555 16.7108 19.3599 17.0913V17.1001C19.3598 18.2342 18.4335 19.1597 17.2993 19.1597C16.1653 19.1594 15.2398 18.2341 15.2397 17.1001C15.2397 16.7158 15.3775 16.3428 15.5181 16.0503C15.6655 15.7436 15.8546 15.4466 16.0317 15.1958C16.2106 14.9426 16.3882 14.7214 16.52 14.564C16.586 14.4851 16.6415 14.4214 16.6812 14.3765C16.701 14.354 16.7176 14.3353 16.729 14.3228C16.7345 14.3167 16.7394 14.3117 16.7427 14.3081C16.7442 14.3065 16.7456 14.3053 16.7466 14.3042L16.7476 14.3022H16.7485C16.8909 14.148 17.0914 14.0597 17.3013 14.0601ZM16.7397 17.1001C16.7398 17.4057 16.9938 17.6594 17.2993 17.6597C17.6037 17.6597 17.8567 17.408 17.8589 17.104C17.8568 17.0469 17.828 16.9139 17.7251 16.7007C17.626 16.4955 17.4873 16.2731 17.3374 16.0601C17.3245 16.0417 17.3103 16.0244 17.2974 16.0063C17.2842 16.0246 17.2704 16.0425 17.2573 16.061C17.1071 16.2738 16.9688 16.4956 16.8706 16.6997C16.7656 16.9181 16.7397 17.0495 16.7397 17.1001Z" fill="#1C252E"/>
<path d="M21.25 9C21.25 6.57397 20.7603 5.0708 19.8447 4.15527C18.9292 3.23974 17.426 2.75 15 2.75H9C6.57397 2.75 5.0708 3.23974 4.15527 4.15527C3.23974 5.0708 2.75 6.57397 2.75 9V15C2.75 17.426 3.23974 18.9292 4.15527 19.8447C5.0708 20.7603 6.57397 21.25 9 21.25H15C17.426 21.25 18.9292 20.7603 19.8447 19.8447C20.7603 18.9292 21.25 17.426 21.25 15V9ZM22.75 15C22.75 17.574 22.2397 19.5708 20.9053 20.9053C19.5708 22.2397 17.574 22.75 15 22.75H9C6.42603 22.75 4.4292 22.2397 3.09473 20.9053C1.76026 19.5708 1.25 17.574 1.25 15V9C1.25 6.42603 1.76026 4.4292 3.09473 3.09473C4.4292 1.76026 6.42603 1.25 9 1.25H15C17.574 1.25 19.5708 1.76026 20.9053 3.09473C22.2397 4.4292 22.75 6.42603 22.75 9V15Z" fill="#1C252E"/>
</svg>
