<svg width="24" height="24" viewBox="0 0 24 24" fill="none" xmlns="http://www.w3.org/2000/svg">
<path d="M21.2202 11.9998C21.2201 9.28083 20.0363 6.8231 18.1519 5.15112L18.145 5.14526C16.5193 3.66738 14.368 2.78003 11.9995 2.78003C6.91394 2.78018 2.77993 6.91419 2.77979 11.9998C2.77979 17.0855 6.91385 21.2203 11.9995 21.2205C14.3679 21.2205 16.5194 20.333 18.145 18.8552L18.1519 18.8494C20.0364 17.1773 21.2202 14.7188 21.2202 11.9998ZM22.7202 11.9998C22.7202 15.1607 21.3434 18.0235 19.1479 19.9714L19.147 19.9705C17.2534 21.6889 14.7478 22.7205 11.9995 22.7205C6.08542 22.7203 1.27979 17.9139 1.27979 11.9998C1.27993 6.08576 6.08551 1.28018 11.9995 1.28003C14.7477 1.28003 17.2535 2.31076 19.147 4.02905H19.1479C21.3432 5.97696 22.7201 8.83902 22.7202 11.9998Z" fill="#1C252E"/>
<path d="M9.2915 5.31312C10.0051 5.02776 10.8471 4.97088 11.5552 5.36097C12.3034 5.77323 12.7078 6.57408 12.7202 7.59047V16.3991C12.7078 17.4187 12.3048 18.2218 11.5542 18.6334C10.8449 19.0223 10.0026 18.9608 9.2915 18.6764H9.29053C6.64489 17.6159 4.77979 15.0255 4.77979 11.9996C4.77988 8.9734 6.6457 6.3856 9.28857 5.31507L9.2915 5.31312ZM6.27979 11.9996C6.27979 14.3938 7.75479 16.4443 9.84912 17.2838C10.2874 17.4589 10.6345 17.4265 10.8325 17.318C10.9892 17.2321 11.2126 17.0107 11.2202 16.3805V7.60902L11.2075 7.3932C11.1578 6.93173 10.9708 6.75119 10.8315 6.67445C10.6322 6.56462 10.2844 6.53217 9.84814 6.70668L9.84717 6.7057C7.75222 7.55606 6.27988 9.60755 6.27979 11.9996Z" fill="#1C252E"/>
</svg>
