<svg width="24" height="24" viewBox="0 0 24 24" fill="none" xmlns="http://www.w3.org/2000/svg">
<g clip-path="url(#clip0_167_278)">
<path d="M8.75 19.5V18.75H4.5C3.75284 18.75 3.06631 18.4516 2.56738 17.9463V17.9473L2.55273 17.9326V17.9316C2.04806 17.4328 1.75 16.7467 1.75 16C1.75 14.5942 2.82369 13.4317 4.18652 13.2715V13.2705C4.19 13.2699 4.1938 13.2701 4.19727 13.2695C4.21025 13.2681 4.22329 13.265 4.23633 13.2637V13.2656C4.34913 13.2513 4.44965 13.25 4.5 13.25H19.5C19.5485 13.25 19.6433 13.2519 19.751 13.2646L19.752 13.2627C19.7699 13.2642 19.7878 13.2687 19.8057 13.2705C19.8081 13.2709 19.811 13.2701 19.8135 13.2705L19.8125 13.2715C20.4478 13.3387 21.0068 13.6205 21.4326 14.0527H21.4336C22.0064 14.6116 22.3049 15.4022 22.2373 16.2402V16.2441C22.1096 17.7332 20.7855 18.75 19.3896 18.75H15.25V19.5C15.25 21.2942 13.7942 22.75 12 22.75C10.2058 22.75 8.75 21.2942 8.75 19.5ZM3.25 16C3.25 16.3026 3.35459 16.5754 3.53223 16.7861L3.61328 16.8721L3.62793 16.8867C3.8479 17.1128 4.15418 17.25 4.5 17.25H9.5C9.91421 17.25 10.25 17.5858 10.25 18V19.5C10.25 20.4658 11.0342 21.25 12 21.25C12.9658 21.25 13.75 20.4658 13.75 19.5V18C13.75 17.5858 14.0858 17.25 14.5 17.25H19.3896C20.1121 17.25 20.6876 16.7292 20.7422 16.1201C20.7746 15.7184 20.6337 15.3681 20.3867 15.127C20.3818 15.1221 20.3759 15.1173 20.3711 15.1123C20.1722 14.9073 19.9197 14.7822 19.6279 14.7578C19.6075 14.7561 19.5866 14.7534 19.5664 14.75C19.5764 14.7517 19.5792 14.7514 19.5684 14.751C19.5629 14.7508 19.5553 14.7501 19.5439 14.75H4.45605C4.44472 14.7501 4.43709 14.7508 4.43164 14.751C4.42081 14.7514 4.42359 14.7517 4.43359 14.75C4.4172 14.7527 4.40032 14.7552 4.38379 14.7568C3.75029 14.8196 3.25 15.3629 3.25 16Z" fill="#1C252E"/>
<path d="M17.1905 1.25C19.3915 1.25015 21.1208 3.14217 20.918 5.33984L20.919 5.34082L20.4395 14.0518C20.4277 14.2645 20.3256 14.4625 20.1592 14.5957C19.9928 14.729 19.7768 14.7851 19.5665 14.75C19.5763 14.7516 19.5797 14.7514 19.5694 14.751C19.5639 14.7508 19.5557 14.7501 19.544 14.75H4.45611C4.44475 14.7501 4.43712 14.7508 4.4317 14.751C4.42086 14.7514 4.42364 14.7517 4.43365 14.75C4.22348 14.785 4.00824 14.7288 3.84185 14.5957C3.67553 14.4625 3.57344 14.2645 3.56158 14.0518L3.08111 5.34082L3.08209 5.33984C2.87934 3.1421 4.60943 1.25 6.8106 1.25H17.1905ZM6.8106 2.75C5.48392 2.75 4.44159 3.89684 4.57623 5.22363C4.5774 5.23515 4.57852 5.24723 4.57916 5.25879L5.01861 13.25H18.9815L19.421 5.25879L19.4239 5.22363C19.5585 3.89692 18.517 2.75015 17.1905 2.75H6.8106Z" fill="#1C252E"/>
<path d="M7.24023 7V2C7.24023 1.58579 7.57602 1.25 7.99023 1.25C8.40445 1.25 8.74023 1.58579 8.74023 2V7C8.74023 7.41421 8.40445 7.75 7.99023 7.75C7.57602 7.75 7.24023 7.41421 7.24023 7Z" fill="#1C252E"/>
<path d="M11.25 4V2C11.25 1.58579 11.5858 1.25 12 1.25C12.4142 1.25 12.75 1.58579 12.75 2V4C12.75 4.41421 12.4142 4.75 12 4.75C11.5858 4.75 11.25 4.41421 11.25 4Z" fill="#1C252E"/>
</g>
<defs>
<clipPath id="clip0_167_278">
<rect width="24" height="24" fill="white"/>
</clipPath>
</defs>
</svg>
