<svg width="24" height="24" viewBox="0 0 24 24" fill="none" xmlns="http://www.w3.org/2000/svg">
<path d="M8.92 2.51942C10.6139 0.825883 13.3866 0.828487 15.088 2.51747L21.4805 8.91005L21.4825 8.91102C23.1717 10.6123 23.1742 13.386 21.4805 15.08L15.0899 21.4706C13.396 23.1642 10.6223 23.1618 8.92097 21.4725L8.92 21.4706L2.52937 15.08C0.835637 13.386 0.838141 10.6124 2.52742 8.91102L2.52937 8.91005L8.92 2.51942ZM14.0313 3.58192C12.9128 2.4715 11.0866 2.47425 9.98054 3.57997L3.58992 9.97059C2.48152 11.0893 2.48477 12.9141 3.58992 14.0194L9.97859 20.4081L10.1964 20.6024C11.3227 21.5131 12.9924 21.4467 14.0294 20.41L20.42 14.0194C21.525 12.9141 21.5283 11.0893 20.42 9.97059L14.0313 3.58192Z" fill="#1C252E"/>
</svg>
