<svg width="24" height="24" viewBox="0 0 24 24" fill="none" xmlns="http://www.w3.org/2000/svg">
<path d="M13.25 16.0001C13.25 15.5387 13.1884 15.0904 13.0771 14.6652C12.7253 14.7213 12.3654 14.7501 12 14.7501C11.388 14.7501 10.7915 14.6716 10.2227 14.5128V14.5138C8.39736 14.0151 6.8837 12.7736 6.02246 11.1349C4.10818 11.9152 2.75 13.8075 2.75 16.0001C2.75002 18.8959 5.10423 21.2501 8 21.2501C9.34721 21.2501 10.5692 20.7438 11.4961 19.9044L11.5029 19.8986C12.577 18.9466 13.25 17.5489 13.25 16.0001ZM14.75 16.0001C14.75 17.9881 13.885 19.7869 12.5029 21.0148L12.5039 21.0158C11.3109 22.0962 9.73261 22.7501 8 22.7501C4.2758 22.7501 1.25002 19.7243 1.25 16.0001C1.25 12.8935 3.36489 10.263 6.22363 9.48645L6.36133 9.46204C6.68381 9.43651 6.99402 9.62312 7.11719 9.93372C7.72086 11.4559 9.0167 12.6291 10.6172 13.0665L10.6221 13.0675C11.0519 13.1879 11.5137 13.2501 12 13.2501C12.4863 13.2501 12.9481 13.1879 13.3779 13.0675L13.5166 13.0431C13.8405 13.0154 14.1534 13.2016 14.2773 13.5138C14.5817 14.2806 14.75 15.1243 14.75 16.0001Z" fill="#1C252E"/>
<path d="M17.25 8C17.25 5.10421 14.8958 2.75 12 2.75C9.10421 2.75 6.75 5.10421 6.75 8C6.75 8.68395 6.88169 9.34049 7.11719 9.93359C7.72085 11.4558 9.0167 12.6289 10.6172 13.0664L10.6221 13.0674C11.0519 13.1877 11.5137 13.25 12 13.25C12.4863 13.25 12.9481 13.1877 13.3779 13.0674L13.3818 13.0664H13.3828C14.9833 12.6289 16.2791 11.4558 16.8828 9.93359C17.1183 9.34049 17.25 8.68395 17.25 8ZM18.75 8C18.75 8.87586 18.5817 9.71956 18.2773 10.4863C17.5015 12.4427 15.8388 13.9483 13.7812 14.5117C13.2113 14.6712 12.6134 14.75 12 14.75C11.3864 14.75 10.7879 14.6723 10.2178 14.5127V14.5117C8.16067 13.9481 6.49835 12.4424 5.72266 10.4863C5.41828 9.71956 5.25 8.87586 5.25 8C5.25 4.27579 8.27579 1.25 12 1.25C15.7242 1.25 18.75 4.27579 18.75 8Z" fill="#1C252E"/>
<path d="M21.25 15.9999C21.25 13.807 19.8913 11.9148 17.9766 11.1347C17.2353 12.5448 16.012 13.6603 14.5215 14.2617C14.6689 14.8166 14.75 15.4005 14.75 15.9999C14.75 17.6707 14.1373 19.2066 13.1221 20.3837C13.9471 20.9319 14.934 21.2499 16 21.2499C18.8958 21.2499 21.25 18.8957 21.25 15.9999ZM22.75 15.9999C22.75 19.7241 19.7242 22.7499 16 22.7499C14.2674 22.7499 12.6891 22.096 11.4961 21.0156C11.3383 20.8725 11.2489 20.669 11.25 20.456C11.2512 20.2428 11.3434 20.0398 11.5029 19.8984C12.577 18.9464 13.25 17.5487 13.25 15.9999C13.25 15.316 13.1183 14.6595 12.8828 14.0663C12.8042 13.8681 12.8139 13.6458 12.9092 13.455C13.0045 13.2641 13.177 13.1226 13.3828 13.0663C14.9833 12.6289 16.2791 11.4558 16.8828 9.93354C17.0235 9.57878 17.4081 9.38633 17.7764 9.48627C20.6351 10.2629 22.75 12.8933 22.75 15.9999Z" fill="#1C252E"/>
</svg>
