<svg width="24" height="24" viewBox="0 0 24 24" fill="none" xmlns="http://www.w3.org/2000/svg">
<path d="M12 1.25C14.9671 1.25 17.6558 2.45467 19.6006 4.39941C19.7412 4.53999 19.8202 4.73089 19.8203 4.92969C19.8203 5.12845 19.741 5.31934 19.6006 5.45996L5.45996 19.6006C5.16704 19.8932 4.6922 19.8934 4.39941 19.6006C2.45467 17.6558 1.25 14.9671 1.25 12C1.25 6.06579 6.06579 1.25 12 1.25ZM2.75 12C2.75 14.2829 3.58006 16.3709 4.95312 17.9854L17.9854 4.95312C16.3709 3.58006 14.2829 2.75 12 2.75C6.89421 2.75 2.75 6.89421 2.75 12Z" fill="#1C252E"/>
<path d="M21.2505 12.0003C21.2505 9.71681 20.4201 7.6277 19.0464 6.01304L6.01318 19.0462C7.62785 20.42 9.71696 21.2503 12.0005 21.2503C17.106 21.2502 21.2503 17.1059 21.2505 12.0003ZM22.7505 12.0003C22.7503 17.9343 17.9345 22.7502 12.0005 22.7503C9.03338 22.7503 6.34465 21.5447 4.3999 19.5999C4.25936 19.4593 4.18018 19.2685 4.18018 19.0697C4.18027 18.8709 4.25933 18.68 4.3999 18.5394L18.5396 4.39975C18.8324 4.10692 19.3072 4.10704 19.6001 4.39975C21.5448 6.3445 22.7505 9.03323 22.7505 12.0003Z" fill="#1C252E"/>
<path d="M7.22992 15.7087C7.52307 15.4161 7.99881 15.4165 8.29144 15.7097L13.9409 21.3698C14.2334 21.6629 14.2329 22.1377 13.9399 22.4304C13.6467 22.723 13.172 22.7225 12.8793 22.4294L7.22894 16.7702C6.93632 16.477 6.93677 16.0013 7.22992 15.7087Z" fill="#1C252E"/>
<path d="M10.7595 12.1797C11.0522 11.887 11.5271 11.8871 11.8201 12.1797L18.4001 18.749C18.6931 19.0417 18.6928 19.5165 18.4001 19.8096C18.1075 20.1026 17.6327 20.1032 17.3396 19.8105L10.7595 13.2402C10.4668 12.9475 10.467 12.4727 10.7595 12.1797Z" fill="#1C252E"/>
<path d="M14.2995 8.63962C14.5925 8.34711 15.0674 8.34692 15.3601 8.63962L21.6501 14.9404C21.9428 15.2335 21.9432 15.7083 21.6501 16.001C21.357 16.2936 20.8813 16.2931 20.5886 16L14.2995 9.70017C14.007 9.40719 14.0068 8.93232 14.2995 8.63962Z" fill="#1C252E"/>
</svg>
