<svg width="24" height="24" viewBox="0 0 24 24" fill="none" xmlns="http://www.w3.org/2000/svg">
<path d="M19.25 4C19.25 3.31421 18.6858 2.75 18 2.75H6C5.31421 2.75 4.75 3.31421 4.75 4V7.57031H19.25V4ZM20.75 8.32031C20.7498 8.73439 20.4141 9.07031 20 9.07031H4C3.58589 9.07031 3.25016 8.73439 3.25 8.32031V4C3.25 2.48579 4.48579 1.25 6 1.25H18C19.5142 1.25 20.75 2.48579 20.75 4V8.32031Z" fill="#1C252E"/>
<path d="M19.2705 9.07007H4.75V11.8796C4.75 12.6394 5.13236 13.3448 5.76562 13.7566L5.89551 13.8347L5.89844 13.8367L8.8584 15.5066H8.85742C9.72606 15.9908 10.2598 16.9119 10.2598 17.9001V19.9998C10.2598 20.6855 10.8241 21.2496 11.5098 21.2498H12.5098C13.1956 21.2498 13.7598 20.6855 13.7598 19.9998V17.9001C13.7598 16.9124 14.2932 15.9909 15.1611 15.5066L18.1211 13.8367H18.1221C18.8284 13.4382 19.2705 12.6861 19.2705 11.8796V9.07007ZM20.7705 11.8796C20.7705 13.1484 20.1212 14.3252 19.0732 15.0125L18.8584 15.1433L15.8984 16.8132L15.8945 16.8152C15.5052 17.0315 15.2598 17.4496 15.2598 17.9001V19.9998C15.2598 21.514 14.024 22.7498 12.5098 22.7498H11.5098C9.99566 22.7496 8.75977 21.5139 8.75977 19.9998V17.9001C8.75977 17.4496 8.51536 17.0315 8.12598 16.8152L8.12109 16.8132L5.16113 15.1433V15.1423C3.97392 14.4782 3.25 13.2278 3.25 11.8796V8.32007C3.25 7.90585 3.58579 7.57007 4 7.57007H20.0205C20.4345 7.57033 20.7705 7.90602 20.7705 8.32007V11.8796Z" fill="#1C252E"/>
</svg>
