<svg width="24" height="24" viewBox="0 0 24 24" fill="none" xmlns="http://www.w3.org/2000/svg">
<path d="M21.25 5.15039C21.25 4.09936 21.0351 3.5585 20.7383 3.26172C20.4415 2.96494 19.9006 2.75 18.8496 2.75H16.1504C15.0994 2.75 14.5585 2.96494 14.2617 3.26172C13.9649 3.5585 13.75 4.09936 13.75 5.15039V7.84961C13.75 8.90064 13.9649 9.4415 14.2617 9.73828C14.5585 10.0351 15.0994 10.25 16.1504 10.25H18.8496C19.9006 10.25 20.4415 10.0351 20.7383 9.73828C21.0351 9.4415 21.25 8.90064 21.25 7.84961V5.15039ZM22.75 7.84961C22.75 9.04858 22.5145 10.0831 21.7988 10.7988C21.0831 11.5145 20.0486 11.75 18.8496 11.75H16.1504C14.9514 11.75 13.9169 11.5145 13.2012 10.7988C12.4855 10.0831 12.25 9.04858 12.25 7.84961V5.15039C12.25 3.95142 12.4855 2.91689 13.2012 2.20117C13.9169 1.48546 14.9514 1.25 16.1504 1.25H18.8496C20.0486 1.25 21.0831 1.48546 21.7988 2.20117C22.5145 2.91689 22.75 3.95142 22.75 5.15039V7.84961Z" fill="#1C252E"/>
<path d="M10.25 16.1504C10.25 15.0994 10.0351 14.5585 9.73828 14.2617C9.4415 13.9649 8.90064 13.75 7.84961 13.75H5.15039C4.09936 13.75 3.5585 13.9649 3.26172 14.2617C2.96494 14.5585 2.75 15.0994 2.75 16.1504V18.8496C2.75 19.9006 2.96494 20.4415 3.26172 20.7383C3.5585 21.0351 4.09936 21.25 5.15039 21.25H7.84961C8.90064 21.25 9.4415 21.0351 9.73828 20.7383C10.0351 20.4415 10.25 19.9006 10.25 18.8496V16.1504ZM11.75 18.8496C11.75 20.0486 11.5145 21.0831 10.7988 21.7988C10.0831 22.5145 9.04858 22.75 7.84961 22.75H5.15039C3.95142 22.75 2.91689 22.5145 2.20117 21.7988C1.48545 21.0831 1.25 20.0486 1.25 18.8496V16.1504C1.25 14.9514 1.48545 13.9169 2.20117 13.2012C2.91689 12.4855 3.95142 12.25 5.15039 12.25H7.84961C9.04858 12.25 10.0831 12.4855 10.7988 13.2012C11.5145 13.9169 11.75 14.9514 11.75 16.1504V18.8496Z" fill="#1C252E"/>
<path d="M16.6299 13.6201V11.75H16.1504C14.9514 11.75 13.9169 11.5145 13.2012 10.7988C12.4856 10.0832 12.2501 9.0493 12.25 7.85059V7.37012H10.3799C9.10799 7.37015 8.41531 7.62766 8.02148 8.02148C7.62766 8.41531 7.37015 9.10799 7.37012 10.3799V12.25H7.85059C9.04929 12.2501 10.0832 12.4856 10.7988 13.2012C11.5145 13.9169 11.75 14.9514 11.75 16.1504V16.6299H13.6201C14.8922 16.6299 15.5847 16.3724 15.9785 15.9785C16.3724 15.5847 16.6299 14.8922 16.6299 13.6201ZM13.75 7.85059C13.7501 8.90117 13.965 9.44152 14.2617 9.73828C14.5585 10.0351 15.0994 10.25 16.1504 10.25H17.3799C17.7941 10.25 18.1298 10.5858 18.1299 11V13.6201C18.1299 15.0381 17.8527 16.2254 17.0391 17.0391C16.2254 17.8527 15.0381 18.1299 13.6201 18.1299H11C10.5858 18.1298 10.25 17.7941 10.25 17.3799V16.1504C10.25 15.0994 10.0351 14.5585 9.73828 14.2617C9.44152 13.965 8.90117 13.7501 7.85059 13.75H6.62012C6.2059 13.75 5.87012 13.4142 5.87012 13V10.3799C5.87015 8.96204 6.14734 7.77454 6.96094 6.96094C7.77454 6.14733 8.96203 5.87015 10.3799 5.87012H13C13.4142 5.87012 13.75 6.2059 13.75 6.62012V7.85059Z" fill="#1C252E"/>
</svg>
