<svg width="24" height="24" viewBox="0 0 24 24" fill="none" xmlns="http://www.w3.org/2000/svg">
<path d="M21.25 12C21.25 6.89137 17.1086 2.75 12 2.75C6.89137 2.75 2.75 6.89137 2.75 12C2.75 17.1086 6.89137 21.25 12 21.25C17.1086 21.25 21.25 17.1086 21.25 12ZM22.75 12C22.75 17.9371 17.9371 22.75 12 22.75C6.06294 22.75 1.25 17.9371 1.25 12C1.25 6.06294 6.06294 1.25 12 1.25C17.9371 1.25 22.75 6.06294 22.75 12Z" fill="#1C252E"/>
<path d="M13.9909 6.20231C14.2665 6.1407 14.6176 6.14593 14.9304 6.35953C15.2435 6.5734 15.3763 6.89911 15.4187 7.17887C15.4605 7.45488 15.4278 7.74735 15.3591 8.02848L15.3581 8.03043L14.5876 11.1427L15.5105 11.3722L15.5144 11.3732C15.9736 11.4896 16.5709 11.7874 16.6902 12.4416C16.809 13.0952 16.356 13.5847 15.9694 13.8547L15.9675 13.8566L10.7878 17.4445L10.7888 17.4455C10.5515 17.6109 10.2913 17.7469 10.0193 17.8078C9.74373 17.8694 9.39259 17.8641 9.0798 17.6505C8.76669 17.4367 8.63392 17.111 8.59152 16.8312C8.54972 16.5552 8.58236 16.2628 8.65109 15.9816L8.65207 15.9797L9.4216 12.8673L8.49875 12.6379L8.49582 12.6369C8.03649 12.5205 7.43905 12.2221 7.32004 11.5675C7.20139 10.9141 7.65433 10.4253 8.04074 10.1554L8.04269 10.1535L13.2224 6.56364V6.56461C13.4595 6.39939 13.7191 6.2631 13.9909 6.20231ZM9.10519 11.2423L10.5105 11.592C10.9122 11.6918 11.1577 12.0984 11.0583 12.5002L10.1814 16.0402L14.904 12.7668L13.4987 12.4181C13.0973 12.3182 12.8525 11.9116 12.9519 11.5099L13.8278 7.96793L9.10519 11.2423Z" fill="#1C252E"/>
</svg>
