<svg width="24" height="24" viewBox="0 0 24 24" fill="none" xmlns="http://www.w3.org/2000/svg">
<path d="M16.6294 10.3804C16.6294 9.10861 16.3723 8.41524 15.9771 8.02002C15.6307 7.6737 15.0545 7.43187 14.0601 7.37354L13.6069 7.35986H10.3794C9.10935 7.35993 8.41314 7.61909 8.01611 8.01611C7.61904 8.41319 7.35986 9.11002 7.35986 10.3804V13.6099C7.35986 14.88 7.61918 15.576 8.01611 15.9731C8.41314 16.3702 9.10934 16.6303 10.3794 16.6304H13.6099C14.8802 16.6304 15.5761 16.3702 15.9731 15.9731C16.3702 15.5761 16.6294 14.8802 16.6294 13.6099V10.3804ZM18.1294 13.6099C18.1294 15.0295 17.8491 16.2183 17.0337 17.0337C16.2183 17.8491 15.0295 18.1304 13.6099 18.1304H10.3794C8.95995 18.1303 7.77091 17.849 6.95557 17.0337C6.14032 16.2183 5.85986 15.0294 5.85986 13.6099V10.3804C5.85986 8.96072 6.14014 7.771 6.95557 6.95557C7.77091 6.14023 8.95995 5.85993 10.3794 5.85986H13.6128L14.1343 5.87549C15.3258 5.94375 16.3252 6.24711 17.0376 6.95947C17.8524 7.77426 18.1294 8.96213 18.1294 10.3804V13.6099Z" fill="#1C252E"/>
<path d="M21.2495 9V5.76953C21.2494 4.49947 20.9903 3.80327 20.5933 3.40625C20.1962 3.00931 19.5001 2.75 18.23 2.75H14.9995C13.7295 2.75006 13.0333 3.00923 12.6362 3.40625C12.2392 3.80327 11.98 4.49947 11.98 5.76953V5.87012H13.6099C15.0294 5.87012 16.2183 6.15057 17.0337 6.96582C17.8491 7.78119 18.1303 8.97016 18.1304 10.3896V12.0195H18.23C19.5003 12.0195 20.1962 11.7603 20.5933 11.3633C20.9903 10.9662 21.2495 10.2704 21.2495 9ZM22.7495 9C22.7495 10.4196 22.4692 11.6084 21.6538 12.4238C20.8384 13.2393 19.6496 13.5195 18.23 13.5195H17.3804C16.9662 13.5195 16.6304 13.1837 16.6304 12.7695V10.3896C16.6303 9.11953 16.3702 8.4234 15.9731 8.02637C15.576 7.62943 14.88 7.37012 13.6099 7.37012H11.23C10.8158 7.37012 10.48 7.03427 10.48 6.62012V5.76953C10.48 4.35009 10.7603 3.16104 11.5757 2.3457C12.391 1.53037 13.5801 1.25006 14.9995 1.25H18.23C19.6495 1.25 20.8384 1.53045 21.6538 2.3457C22.4692 3.16104 22.7495 4.35008 22.7495 5.76953V9Z" fill="#1C252E"/>
<path d="M5.87012 11.98H5.76953C4.49948 11.98 3.80327 12.2392 3.40625 12.6362C3.00923 13.0332 2.75006 13.7295 2.75 14.9995V18.23C2.75 19.5001 3.00931 20.1962 3.40625 20.5933C3.80327 20.9903 4.49948 21.2494 5.76953 21.2495H9C10.2703 21.2495 10.9662 20.9903 11.3633 20.5933C11.7603 20.1962 12.0195 19.5003 12.0195 18.23V18.1304H10.3896C8.97015 18.1303 7.78118 17.8491 6.96582 17.0337C6.15056 16.2183 5.87012 15.0294 5.87012 13.6099V11.98ZM7.37012 13.6099C7.37012 14.88 7.62942 15.576 8.02637 15.9731C8.4234 16.3702 9.11952 16.6303 10.3896 16.6304H12.7695C13.1837 16.6304 13.5195 16.9662 13.5195 17.3804V18.23C13.5195 19.6496 13.2393 20.8384 12.4238 21.6538C11.6084 22.4692 10.4196 22.7495 9 22.7495H5.76953C4.35009 22.7494 3.16104 22.4691 2.3457 21.6538C1.53045 20.8384 1.25 19.6495 1.25 18.23V14.9995C1.25006 13.5801 1.53036 12.391 2.3457 11.5757C3.16104 10.7603 4.35009 10.48 5.76953 10.48H6.62012C7.03428 10.48 7.37012 10.8158 7.37012 11.23V13.6099Z" fill="#1C252E"/>
</svg>
