<svg width="24" height="24" viewBox="0 0 24 24" fill="none" xmlns="http://www.w3.org/2000/svg">
<path d="M13.8496 12.5796C13.8496 11.5195 13.6328 10.9714 13.3311 10.6694C13.0291 10.3675 12.4805 10.1499 11.4199 10.1499H8.69043C7.62406 10.1499 7.07255 10.3672 6.76953 10.6694C6.46702 10.9712 6.25004 11.5191 6.25 12.5796V15.3101C6.25002 16.3745 6.46919 16.9255 6.77344 17.229C7.07809 17.5329 7.62998 17.7495 8.69043 17.7495H11.4102C12.4765 17.7495 13.0272 17.5328 13.3301 17.23C13.6329 16.9271 13.8496 16.3764 13.8496 15.3101V12.5796ZM15.3496 15.3101C15.3496 16.5236 15.1127 17.5684 14.3906 18.2905C13.6685 19.0126 12.6237 19.2495 11.4102 19.2495H8.69043C7.48092 19.2495 6.43672 19.0116 5.71387 18.2905C4.99087 17.5691 4.75002 16.5253 4.75 15.3101V12.5796C4.75004 11.3705 4.9878 10.3285 5.70996 9.60791C6.43195 8.88768 7.47682 8.6499 8.69043 8.6499H11.4199C12.6292 8.6499 13.6711 8.88751 14.3916 9.60791C15.1121 10.3284 15.3496 11.3703 15.3496 12.5796V15.3101Z" fill="#1C252E"/>
<path d="M17.75 11.4102V8.67969C17.75 7.61961 17.5332 7.07152 17.2314 6.76953C16.9295 6.46758 16.3809 6.25 15.3203 6.25H12.5908C11.5226 6.25 10.9713 6.46572 10.6689 6.7666C10.3704 7.06388 10.1554 7.60352 10.1514 8.65039H11.4102C12.6235 8.65039 13.6677 8.8875 14.3896 9.60742C15.1121 10.3281 15.3506 11.3707 15.3506 12.5801V13.8477C16.3907 13.8422 16.9314 13.6291 17.2305 13.3301C17.5333 13.0272 17.75 12.4765 17.75 11.4102ZM19.25 11.4102C19.25 12.6237 19.0131 13.6685 18.291 14.3906C17.5689 15.1127 16.5241 15.3496 15.3105 15.3496H14.6006C14.1864 15.3496 13.8506 15.0138 13.8506 14.5996V12.5801C13.8506 11.5197 13.6335 10.9718 13.3311 10.6699C13.028 10.3676 12.4765 10.1504 11.4102 10.1504H9.40039C8.98631 10.1504 8.6506 9.81442 8.65039 9.40039V8.67969C8.65043 7.46642 8.88788 6.42304 9.61133 5.70312C10.334 4.98409 11.3791 4.75 12.5908 4.75H15.3203C16.5296 4.75 17.5715 4.98761 18.292 5.70801C19.0125 6.42849 19.25 7.47045 19.25 8.67969V11.4102Z" fill="#1C252E"/>
<path d="M21.2499 15C21.2499 14.5858 21.5857 14.25 21.9999 14.25C22.4141 14.25 22.7499 14.5858 22.7499 15C22.7499 19.2842 19.2841 22.75 14.9999 22.75C14.7297 22.75 14.4807 22.6043 14.3476 22.3691C14.2146 22.1341 14.2175 21.8459 14.3564 21.6143L15.4071 19.8643C15.6202 19.5093 16.0804 19.3937 16.4355 19.6064C16.7906 19.8195 16.9062 20.2806 16.6933 20.6357L16.4228 21.085C19.191 20.4419 21.2499 17.966 21.2499 15Z" fill="#1C252E"/>
<path d="M1.25 9C1.25 4.71579 4.71579 1.25 9 1.25C9.2702 1.25 9.51921 1.39573 9.65234 1.63086C9.78533 1.86586 9.78237 2.15415 9.64355 2.38574L8.59277 4.13574C8.37973 4.49074 7.91956 4.6063 7.56445 4.39355C7.20934 4.18048 7.09369 3.71942 7.30664 3.36426L7.57617 2.91406C4.80828 3.55737 2.75 6.03428 2.75 9C2.75 9.41421 2.41421 9.75 2 9.75C1.58579 9.75 1.25 9.41421 1.25 9Z" fill="#1C252E"/>
</svg>
