<svg width="24" height="24" viewBox="0 0 24 24" fill="none" xmlns="http://www.w3.org/2000/svg">
<path d="M16.0038 3.25153C16.9074 3.21579 17.8154 3.60518 18.5399 4.32965L21.7206 7.50934H21.7196C23.1193 8.89881 23.1578 11.2571 21.453 12.3423L21.4511 12.3443L18.6503 14.1138C18.3539 14.301 17.9675 14.2582 17.7196 14.0103L12.0497 8.34039C11.8017 8.09243 11.7588 7.70517 11.9462 7.40875L13.7157 4.60895C14.2493 3.76046 15.088 3.28785 16.0038 3.25153ZM16.0634 4.75055C15.6526 4.76681 15.2616 4.96865 14.9852 5.40875L14.9843 5.41071L13.5341 7.70368L18.3554 12.525L20.6493 11.0757C21.3615 10.6204 21.5394 9.4426 20.662 8.57282L20.66 8.56989L17.4794 5.3902C17.004 4.91494 16.4872 4.73379 16.0634 4.75055Z" fill="#1C252E"/>
<path d="M5.14786 10.015C5.5591 10.0637 5.8536 10.4368 5.80508 10.848L4.82461 19.1283V19.1292C4.73917 19.84 4.95492 20.3914 5.30801 20.7445C5.66155 21.098 6.21663 21.3167 6.93496 21.2347L15.6508 20.2054L16.0189 20.1537C16.8207 20.0203 17.229 19.8056 17.4486 19.5482C17.6896 19.2657 17.8523 18.7518 17.7436 17.6644C17.7426 17.6543 17.7422 17.6442 17.7416 17.6341L17.5014 13.514C17.4773 13.1005 17.7929 12.7451 18.2064 12.721C18.6198 12.697 18.9742 13.0128 18.9984 13.4261L19.2367 17.515L19.2699 17.9613C19.319 18.9824 19.1549 19.8589 18.5893 20.5218C17.9527 21.2677 16.9593 21.5598 15.8285 21.6947H15.8275L7.10782 22.7249H7.10489C5.98327 22.8529 4.9589 22.5164 4.24746 21.805C3.53564 21.0932 3.20081 20.0697 3.33536 18.9505L4.31485 10.6722C4.36352 10.261 4.73665 9.96651 5.14786 10.015Z" fill="#1C252E"/>
<path d="M10.877 6.95206L12.627 7.06143C13.0404 7.08741 13.3541 7.44393 13.3282 7.85733C13.3021 8.27056 12.9465 8.58439 12.5332 8.5585L10.7832 8.44815C10.3699 8.42217 10.0562 8.06657 10.0821 7.65323C10.108 7.23988 10.4636 6.92615 10.877 6.95206Z" fill="#1C252E"/>
<path d="M7.92866 17.0607C8.22109 16.7674 8.69682 16.7664 8.99018 17.0588C9.28334 17.3512 9.28352 17.826 8.99116 18.1193L5.81147 21.3098C5.51914 21.603 5.04429 21.6038 4.75092 21.3117C4.45757 21.0193 4.45654 20.5435 4.74897 20.2502L7.92866 17.0607Z" fill="#1C252E"/>
<path d="M10.25 6.5C10.25 4.42421 8.57579 2.75 6.5 2.75C5.61698 2.75 4.80151 3.0578 4.16016 3.57422L3.99609 3.71094C3.22577 4.3917 2.75 5.38802 2.75 6.5C2.75 7.19668 2.94898 7.86363 3.29199 8.43262L3.29297 8.43457C3.71532 9.13836 4.36447 9.69336 5.14062 9.99219L5.29688 10.0488L5.31152 10.0537C5.67543 10.1831 6.0699 10.25 6.5 10.25C7.45055 10.25 8.30538 9.90097 8.96289 9.31836L8.97168 9.31055L9.17871 9.11719C9.37865 8.91457 9.55662 8.6852 9.70703 8.43457C9.88266 8.14186 10.0149 7.83405 10.1064 7.50098L10.1094 7.49121C10.2 7.17804 10.25 6.83834 10.25 6.5ZM11.75 6.5C11.75 6.98144 11.68 7.46154 11.5508 7.9082L11.5498 7.90723C11.4215 8.37087 11.236 8.80127 10.9932 9.20605C10.7157 9.66842 10.3662 10.0871 9.95605 10.4404L9.95703 10.4414C9.03457 11.2587 7.82934 11.75 6.5 11.75C5.91024 11.75 5.34459 11.6574 4.80859 11.4668V11.4658C3.62061 11.0659 2.63384 10.251 2.00684 9.20605V9.20508C1.53066 8.41454 1.25 7.48241 1.25 6.5C1.25 4.84631 2.00854 3.36105 3.22559 2.40137C4.12335 1.68059 5.26568 1.25 6.5 1.25C9.40421 1.25 11.75 3.59579 11.75 6.5Z" fill="#1C252E"/>
<path d="M8.16016 5.75C8.57422 5.75018 8.91016 6.0859 8.91016 6.5C8.91016 6.9141 8.57422 7.24982 8.16016 7.25H4.7998C4.38559 7.25 4.0498 6.91421 4.0498 6.5C4.0498 6.08579 4.38559 5.75 4.7998 5.75H8.16016Z" fill="#1C252E"/>
</svg>
