<svg width="24" height="24" viewBox="0 0 24 24" fill="none" xmlns="http://www.w3.org/2000/svg">
<path d="M20.7202 5C20.7202 4.11561 20.4997 3.59001 20.1899 3.28027C19.8802 2.97053 19.3546 2.75 18.4702 2.75H14.4702C13.5858 2.75 13.0602 2.97053 12.7505 3.28027C12.4407 3.59001 12.2202 4.11561 12.2202 5V19C12.2202 19.8844 12.4407 20.41 12.7505 20.7197C13.0602 21.0295 13.5858 21.25 14.4702 21.25H18.4702C19.3546 21.25 19.8802 21.0295 20.1899 20.7197C20.4997 20.41 20.7202 19.8844 20.7202 19V5ZM22.2202 19C22.2202 20.1156 21.9407 21.09 21.2505 21.7803C20.5602 22.4705 19.5858 22.75 18.4702 22.75H14.4702C13.3546 22.75 12.3802 22.4705 11.6899 21.7803C10.9997 21.09 10.7202 20.1156 10.7202 19V5C10.7202 3.88439 10.9997 2.90999 11.6899 2.21973C12.3802 1.52947 13.3546 1.25 14.4702 1.25H18.4702C19.5858 1.25 20.5602 1.52947 21.2505 2.21973C21.9407 2.90999 22.2202 3.88439 22.2202 5V19Z" fill="#1C252E"/>
<path d="M16.4702 5.25C16.8844 5.25 17.2202 5.58579 17.2202 6C17.2202 6.41421 16.8844 6.75 16.4702 6.75H11.4702C11.056 6.75 10.7202 6.41421 10.7202 6C10.7202 5.58579 11.056 5.25 11.4702 5.25H16.4702Z" fill="#1C252E"/>
<path d="M15.4702 17.25C15.8844 17.25 16.2202 17.5858 16.2202 18C16.2202 18.4142 15.8844 18.75 15.4702 18.75H11.4702C11.056 18.75 10.7202 18.4142 10.7202 18C10.7202 17.5858 11.056 17.25 11.4702 17.25H15.4702Z" fill="#1C252E"/>
<path d="M16.4776 13.2498C16.8916 13.2541 17.2239 13.5935 17.2198 14.0076C17.2156 14.4217 16.8761 14.7539 16.462 14.7498L11.462 14.7C11.0479 14.6957 10.7156 14.3563 10.7198 13.9422C10.7241 13.5281 11.0635 13.1958 11.4776 13.2L16.4776 13.2498Z" fill="#1C252E"/>
<path d="M14.4702 9.25C14.8844 9.25 15.2202 9.58579 15.2202 10C15.2202 10.4142 14.8844 10.75 14.4702 10.75H11.4702C11.056 10.75 10.7202 10.4142 10.7202 10C10.7202 9.58579 11.056 9.25 11.4702 9.25H14.4702Z" fill="#1C252E"/>
<path d="M7.68994 4.9502C7.68994 3.74441 6.69553 2.75 5.48975 2.75C4.27233 2.75002 3.27979 3.74607 3.27979 4.9502V17.9102C3.27981 18.0452 3.31123 18.2569 3.37646 18.4922C3.44152 18.7268 3.52482 18.9278 3.59619 19.0488L4.41162 20.4023L4.41357 20.4043C4.79582 21.0427 5.20728 21.2178 5.48486 21.2178C5.76245 21.2177 6.17395 21.0427 6.55615 20.4043L6.55713 20.4023L7.37354 19.0488C7.44491 18.9278 7.52821 18.7268 7.59326 18.4922C7.65849 18.2569 7.68992 18.0452 7.68994 17.9102V4.9502ZM9.18994 17.9102C9.18992 18.225 9.12577 18.5781 9.03857 18.8926C8.95116 19.2079 8.82408 19.5416 8.66553 19.8105L8.66162 19.8174L7.84229 21.1777L7.84131 21.1768C7.28357 22.1072 6.45157 22.7177 5.48486 22.7178C4.518 22.7178 3.6852 22.1074 3.12744 21.1768L2.30713 19.8174L2.3042 19.8105C2.14562 19.5416 2.01858 19.2079 1.93115 18.8926C1.84395 18.578 1.77981 18.225 1.77979 17.9102V4.9502C1.77979 2.91435 3.4472 1.25002 5.48975 1.25C7.52396 1.25 9.18994 2.91598 9.18994 4.9502V17.9102Z" fill="#1C252E"/>
<path d="M8.43994 6.25C8.85408 6.25008 9.18994 6.58584 9.18994 7C9.18994 7.41416 8.85408 7.74992 8.43994 7.75H2.52979C2.11557 7.75 1.77979 7.41421 1.77979 7C1.77979 6.58579 2.11557 6.25 2.52979 6.25H8.43994Z" fill="#1C252E"/>
</svg>
