<svg width="24" height="24" viewBox="0 0 24 24" fill="none" xmlns="http://www.w3.org/2000/svg">
<path d="M4.25 7C4.25 6.30964 3.69036 5.75 3 5.75C2.30964 5.75 1.75 6.30964 1.75 7C1.75 7.69036 2.30964 8.25 3 8.25C3.69036 8.25 4.25 7.69036 4.25 7ZM5.75 7C5.75 8.51878 4.51878 9.75 3 9.75C1.48122 9.75 0.25 8.51878 0.25 7C0.25 5.48122 1.48122 4.25 3 4.25C4.51878 4.25 5.75 5.48122 5.75 7Z" fill="#1C252E"/>
<path d="M22.25 7C22.25 6.30964 21.6904 5.75 21 5.75C20.3096 5.75 19.75 6.30964 19.75 7C19.75 7.69036 20.3096 8.25 21 8.25C21.6904 8.25 22.25 7.69036 22.25 7ZM23.75 7C23.75 8.51878 22.5188 9.75 21 9.75C19.4812 9.75 18.25 8.51878 18.25 7C18.25 5.48122 19.4812 4.25 21 4.25C22.5188 4.25 23.75 5.48122 23.75 7Z" fill="#1C252E"/>
<path d="M19 6.25C19.4142 6.25 19.75 6.58579 19.75 7C19.75 7.41421 19.4142 7.75 19 7.75H15C14.5858 7.75 14.25 7.41421 14.25 7C14.25 6.58579 14.5858 6.25 15 6.25H19Z" fill="#1C252E"/>
<path d="M9 6.25C9.41421 6.25 9.75 6.58579 9.75 7C9.75 7.41421 9.41421 7.75 9 7.75H5C4.58579 7.75 4.25 7.41421 4.25 7C4.25 6.58579 4.58579 6.25 5 6.25H9Z" fill="#1C252E"/>
<path d="M6.75 16.5C6.75 16.0842 6.41579 15.75 6 15.75H4C3.58421 15.75 3.25 16.0842 3.25 16.5V18.5C3.25 18.9158 3.58421 19.25 4 19.25H6C6.09965 19.25 6.1907 19.2292 6.28906 19.1826L6.31738 19.1689C6.56293 19.0651 6.75 18.8054 6.75 18.5V16.5ZM8.25 18.5C8.25 19.4037 7.70905 20.1942 6.92969 20.5371L6.93066 20.5381C6.92132 20.5425 6.91175 20.5465 6.90234 20.5508L6.90137 20.5498C6.62757 20.675 6.32868 20.75 6 20.75H4C2.75579 20.75 1.75 19.7442 1.75 18.5V16.5C1.75 15.2558 2.75579 14.25 4 14.25H6C7.24421 14.25 8.25 15.2558 8.25 16.5V18.5Z" fill="#1C252E"/>
<path d="M20.75 16.5C20.75 16.0842 20.4158 15.75 20 15.75H18C17.5842 15.75 17.25 16.0842 17.25 16.5V18.5C17.25 18.7671 17.3927 18.9995 17.5928 19.123L17.6826 19.1689L17.7109 19.1826C17.8093 19.2292 17.9004 19.25 18 19.25H20C20.4158 19.25 20.75 18.9158 20.75 18.5V16.5ZM22.25 18.5C22.25 19.7442 21.2442 20.75 20 20.75H18C17.671 20.75 17.3717 20.6752 17.0977 20.5498C17.0915 20.5472 17.0853 20.5447 17.0791 20.542C17.0759 20.5405 17.0725 20.5396 17.0693 20.5381V20.5371C16.2904 20.194 15.75 19.4034 15.75 18.5V16.5C15.75 15.2558 16.7558 14.25 18 14.25H20C21.2442 14.25 22.25 15.2558 22.25 16.5V18.5Z" fill="#1C252E"/>
<path d="M14.25 5.5C14.25 5.09421 13.9058 4.75 13.5 4.75H10.5C10.0942 4.75 9.75 5.09421 9.75 5.5V8.5C9.75 8.90579 10.0942 9.25 10.5 9.25H13.5C13.9058 9.25 14.25 8.90579 14.25 8.5V5.5ZM15.75 8.5C15.75 9.73421 14.7342 10.75 13.5 10.75H10.5C9.26579 10.75 8.25 9.73421 8.25 8.5V5.5C8.25 4.26579 9.26579 3.25 10.5 3.25H13.5C14.7342 3.25 15.75 4.26579 15.75 5.5V8.5Z" fill="#1C252E"/>
<path d="M18.25 14.5005C18.25 11.7825 16.7695 9.46645 14.6611 8.39892C14.2917 8.21177 14.144 7.76061 14.3311 7.39111C14.5182 7.02166 14.9694 6.87394 15.3389 7.06103C17.9705 8.39354 19.75 11.2385 19.75 14.5005C19.75 14.7015 19.738 14.8906 19.7149 15.0874C19.6665 15.4986 19.294 15.7928 18.8828 15.7446C18.4715 15.6962 18.1773 15.3239 18.2256 14.9126C18.2424 14.7698 18.25 14.6391 18.25 14.5005Z" fill="#1C252E"/>
<path d="M4.25 14.5005C4.25 11.2385 6.02956 8.39354 8.66113 7.06103C9.03063 6.87394 9.48179 7.02166 9.66895 7.39111C9.85603 7.76061 9.70832 8.21177 9.33887 8.39892C7.23051 9.46645 5.75 11.7825 5.75 14.5005C5.75002 14.6391 5.75762 14.7698 5.77441 14.9126C5.82271 15.3239 5.52851 15.6962 5.11719 15.7446C4.70597 15.7928 4.33354 15.4986 4.28516 15.0874C4.26201 14.8906 4.25002 14.7015 4.25 14.5005Z" fill="#1C252E"/>
</svg>
