<svg width="24" height="24" viewBox="0 0 24 24" fill="none" xmlns="http://www.w3.org/2000/svg">
<path d="M21.25 12C21.25 6.89137 17.1086 2.75 12 2.75C6.89137 2.75 2.75 6.89137 2.75 12C2.75 17.1086 6.89137 21.25 12 21.25C17.1086 21.25 21.25 17.1086 21.25 12ZM22.75 12C22.75 17.9371 17.9371 22.75 12 22.75C6.06294 22.75 1.25 17.9371 1.25 12C1.25 6.06294 6.06294 1.25 12 1.25C17.9371 1.25 22.75 6.06294 22.75 12Z" fill="#1C252E"/>
<path d="M16.0098 11.5303C16.0098 10.5413 15.5979 9.58486 14.8516 8.87207C14.1049 8.15914 13.0821 7.75 12 7.75C10.9309 7.75 9.9063 8.15609 9.14746 8.87109L9.14844 8.87207C8.40211 9.58486 7.99023 10.5413 7.99023 11.5303C7.99029 12.4494 8.31418 13.3423 8.91211 14.0635L9.03516 14.2051L9.03613 14.207L10.6562 15.9971C10.855 16.2169 10.9052 16.5328 10.7852 16.8037C10.6649 17.0748 10.3962 17.25 10.0996 17.25H7C6.58579 17.25 6.25 16.9142 6.25 16.5C6.25 16.0858 6.58579 15.75 7 15.75H8.41016L7.9248 15.2139C7.00161 14.1981 6.4903 12.8895 6.49023 11.5303C6.49023 10.2073 7.00727 8.94288 7.92383 7.97656L8.11523 7.78516C9.15606 6.80216 10.5507 6.25 12 6.25C13.4577 6.25 14.8544 6.80124 15.8877 7.78809C16.9213 8.77529 17.5098 10.1193 17.5098 11.5303C17.5097 12.8811 16.9976 14.1879 16.0781 15.2109L16.0762 15.2129L15.5898 15.75H17C17.4142 15.75 17.75 16.0858 17.75 16.5C17.75 16.9142 17.4142 17.25 17 17.25H13.9004C13.6038 17.25 13.3351 17.0748 13.2148 16.8037C13.0948 16.5328 13.145 16.2169 13.3438 15.9971L14.9639 14.207C15.6431 13.4506 16.0097 12.4984 16.0098 11.5303Z" fill="#1C252E"/>
</svg>
