<svg width="24" height="24" viewBox="0 0 24 24" fill="none" xmlns="http://www.w3.org/2000/svg">
<path d="M9.67969 2.54999C9.8786 2.54999 10.0703 2.62906 10.2109 2.76971L17.5605 10.1193C18.2234 10.7822 18.2234 11.8578 17.5605 12.5207L11.54 18.5402C10.7962 19.284 9.95162 19.7508 9.0166 19.7492C8.0828 19.7475 7.23366 19.279 6.48145 18.5324L2.46973 14.5207C1.71898 13.7699 1.24512 12.9221 1.24512 11.9846C1.24526 11.0472 1.7191 10.2 2.46973 9.4494L9.14941 2.76971C9.28996 2.62916 9.48093 2.5501 9.67969 2.54999ZM3.53027 10.5099C2.94123 11.099 2.74526 11.5872 2.74512 11.9846C2.74512 12.382 2.94102 12.8709 3.53027 13.4601L7.53809 17.468L7.75391 17.6691C8.24706 18.0975 8.66759 18.2484 9.01855 18.2492C9.41829 18.25 9.90349 18.0556 10.4795 17.4797L16.5 11.4601C16.5771 11.383 16.5771 11.257 16.5 11.1799L9.67969 4.35956L3.53027 10.5099Z" fill="#1C252E"/>
<path d="M7.81976 1.41974C8.11265 1.12685 8.58742 1.12685 8.88031 1.41974L10.2202 2.75958C10.5131 3.05247 10.513 3.52723 10.2202 3.82013C9.92726 4.113 9.4525 4.11301 9.15961 3.82013L7.81976 2.48029C7.52687 2.1874 7.52688 1.71263 7.81976 1.41974Z" fill="#1C252E"/>
<path d="M17.157 10.511C17.5708 10.4929 17.9211 10.814 17.9392 11.2278C17.957 11.6414 17.6361 11.991 17.2224 12.009L2.10228 12.6692C1.68866 12.687 1.33908 12.366 1.32103 11.9524C1.30312 11.5387 1.6241 11.1892 2.03782 11.1711L17.157 10.511Z" fill="#1C252E"/>
<path d="M16 21.25C16.4142 21.25 16.75 21.5858 16.75 22C16.75 22.4142 16.4142 22.75 16 22.75H3C2.58579 22.75 2.25 22.4142 2.25 22C2.25 21.5858 2.58579 21.25 3 21.25H16Z" fill="#1C252E"/>
<path d="M19.9502 18.2402C19.9502 18.0994 19.89 17.8634 19.7344 17.5391C19.5855 17.229 19.3799 16.8999 19.1621 16.5908C19.0562 16.4405 18.9499 16.2981 18.8496 16.1689C18.7494 16.298 18.6439 16.4406 18.5381 16.5908C18.3202 16.9 18.1137 17.2288 17.9648 17.5391C17.8092 17.8634 17.75 18.0994 17.75 18.2402C17.7501 18.8458 18.2441 19.3396 18.8496 19.3398C19.4553 19.3398 19.9501 18.8459 19.9502 18.2402ZM21.4502 18.2402C21.4501 19.6743 20.2837 20.8398 18.8496 20.8398C17.4157 20.8396 16.2501 19.6742 16.25 18.2402C16.25 17.7661 16.4221 17.2891 16.6133 16.8906C16.8113 16.4781 17.067 16.0736 17.3115 15.7266C17.5578 15.3771 17.803 15.0709 17.9854 14.8525C18.0769 14.743 18.1535 14.6545 18.208 14.5928C18.2353 14.5619 18.2571 14.5375 18.2725 14.5205C18.2799 14.5123 18.2857 14.5057 18.29 14.501C18.2922 14.4986 18.2946 14.4965 18.2959 14.4951L18.2969 14.4932L18.2979 14.4922C18.4398 14.338 18.64 14.2501 18.8496 14.25C19.0592 14.25 19.2594 14.338 19.4014 14.4922L18.8496 15C19.4014 14.4921 19.4023 14.4921 19.4023 14.4922V14.4932L19.4043 14.4951C19.4056 14.4965 19.4071 14.4986 19.4092 14.501C19.4135 14.5057 19.4201 14.512 19.4277 14.5205C19.4431 14.5375 19.4649 14.5619 19.4922 14.5928C19.5466 14.6545 19.6234 14.743 19.7148 14.8525C19.8972 15.0708 20.1415 15.3772 20.3877 15.7266C20.6323 16.0736 20.8889 16.4781 21.0869 16.8906C21.2781 17.289 21.4502 17.7661 21.4502 18.2402Z" fill="#1C252E"/>
</svg>
