<svg width="24" height="24" viewBox="0 0 24 24" fill="none" xmlns="http://www.w3.org/2000/svg">
<path d="M19.7076 1.40734C20.5762 1.08343 21.4606 1.31364 22.0279 1.8966L22.0269 1.89758C22.5874 2.45349 22.8686 3.33028 22.5054 4.21789L22.5064 4.21887C20.9187 8.17786 16.9804 13.5036 13.649 16.1749L11.6792 17.755C11.6691 17.7631 11.6585 17.7708 11.648 17.7784C11.3805 17.971 11.0713 18.1744 10.7046 18.3185C10.4738 18.4092 10.2123 18.3791 10.0074 18.2394C9.80269 18.0997 9.68029 17.868 9.68022 17.6202C9.68022 17.4648 9.67092 17.3062 9.64897 17.1671C9.64795 17.1606 9.64689 17.1541 9.64604 17.1476C9.55847 16.4789 9.25827 15.8487 8.69975 15.2902C8.13889 14.7293 7.46832 14.4085 6.79545 14.3165C6.5704 14.3046 6.46431 14.2948 6.34428 14.3068C6.08892 14.3321 5.83858 14.2245 5.68022 14.0226C5.52177 13.8204 5.47713 13.5508 5.56303 13.3087C5.70047 12.9215 5.91147 12.559 6.17436 12.2521L7.73197 10.2843L7.73393 10.2823C9.07755 8.60021 11.0869 6.77817 13.23 5.18957C15.373 3.60106 17.6978 2.20983 19.6919 1.4132L19.7076 1.40734ZM20.9527 2.94348C20.8012 2.78779 20.5476 2.69796 20.2398 2.80969C18.4058 3.54366 16.1988 4.85565 14.1226 6.39465C12.0442 7.93529 10.1432 9.66768 8.90678 11.215L8.90776 11.2159L7.54252 12.9386C8.35225 13.1512 9.1179 13.5872 9.76029 14.2296C10.3874 14.8567 10.8064 15.5798 11.0162 16.3634L12.7105 15.005C15.839 12.4964 19.6214 7.38222 21.1138 3.66125L21.1167 3.65344C21.2251 3.39155 21.1553 3.14031 20.9673 2.95715C20.9626 2.95254 20.9573 2.94821 20.9527 2.94348Z" fill="#1C252E"/>
<path d="M9.65299 17.133C9.56298 16.4697 9.2641 15.8447 8.70963 15.2902L8.70572 15.2863C8.14908 14.7215 7.48065 14.4085 6.8024 14.3166C6.62451 14.3075 6.46303 14.3015 6.31705 14.3088C6.30989 14.3091 6.30274 14.3096 6.29557 14.3098C4.69144 14.3428 3.20997 15.4953 3.01529 17.2717L2.74576 19.7316L2.74479 19.7375C2.64146 20.6157 3.3844 21.3516 4.24674 21.2551L4.24772 21.2541L6.69596 20.9855C7.52754 20.8756 8.20257 20.5268 8.6901 20.0393C9.33701 19.3822 9.68026 18.524 9.68033 17.6203C9.68033 17.4635 9.66542 17.3497 9.65299 17.133ZM11.1803 17.6203C11.1803 18.9146 10.6841 20.1546 9.75358 21.0969L9.75065 21.1008C9.01891 21.8325 8.03406 22.3233 6.88737 22.4738C6.88218 22.4745 6.87694 22.4752 6.87174 22.4758L4.41276 22.7443L4.41373 22.7453C2.59616 22.9488 1.03903 21.4043 1.25553 19.5627L1.52408 17.1086C1.8094 14.5051 3.9885 12.8568 6.26432 12.8098V12.8107C6.37894 12.8057 6.49369 12.8052 6.60221 12.8078L6.91959 12.8215L6.97623 12.8264C7.98987 12.9576 8.97267 13.4222 9.77018 14.2297L9.91276 14.3781C10.6076 15.1279 11.019 16.0044 11.1432 16.9523C11.1457 16.9716 11.1481 16.9916 11.1491 17.0109C11.1562 17.1453 11.1803 17.4075 11.1803 17.6203Z" fill="#1C252E"/>
<path d="M13.4902 14.4705C13.4902 12.2747 11.7056 10.49 9.50977 10.49C9.09555 10.49 8.75977 10.1542 8.75977 9.73999C8.75977 9.32578 9.09555 8.98999 9.50977 8.98999C12.534 8.98999 14.9902 11.4462 14.9902 14.4705C14.99 14.8843 14.6541 15.2202 14.2402 15.2205C13.8262 15.2205 13.4905 14.8845 13.4902 14.4705Z" fill="#1C252E"/>
</svg>
