<svg width="24" height="24" viewBox="0 0 24 24" fill="none" xmlns="http://www.w3.org/2000/svg">
<g clip-path="url(#clip0_167_254)">
<path d="M15.8396 15.6C16.1907 15.6 16.4953 15.8434 16.572 16.1859L17.2615 19.264L17.2957 19.4398C17.442 20.3162 17.1868 21.1419 16.6238 21.7523C16.0315 22.3945 15.1474 22.7503 14.1599 22.7504H9.86989C7.97627 22.7504 6.33425 21.1699 6.77907 19.2601L7.46755 16.1859L7.50661 16.0629C7.62091 15.7865 7.89263 15.6 8.19997 15.6H15.8396ZM8.24196 19.5941L8.24001 19.6C8.0652 20.35 8.70367 21.2504 9.86989 21.2504H14.1599C14.7923 21.2503 15.2535 21.0259 15.5213 20.7357C15.7807 20.4544 15.9049 20.0648 15.7986 19.5961L15.7976 19.5941L15.239 17.1H8.80056L8.24196 19.5941Z" fill="#1C252E"/>
<path d="M12.0086 1.245C12.9196 1.245 13.7909 1.65726 14.45 2.41003L14.5789 2.56531L19.7684 9.14539H19.7693C20.4477 10.0064 20.912 10.8729 20.824 11.8163C20.7363 12.7558 20.1215 13.5412 19.2684 14.3007H19.2674L16.3279 16.911C16.0182 17.186 15.5443 17.1573 15.2693 16.8475C14.9944 16.5378 15.0221 16.0639 15.3318 15.7889L18.2713 13.1796L18.5418 12.9286C19.1152 12.3676 19.3025 11.9809 19.3309 11.6766C19.3629 11.3326 19.2122 10.8631 18.5906 10.0741L13.4012 3.49402C12.9833 2.96534 12.4743 2.745 12.0086 2.745C11.5423 2.74503 11.0297 2.96671 10.6063 3.49792L5.4295 10.0741C4.80405 10.8679 4.63609 11.353 4.66387 11.7059C4.68724 12.0023 4.86459 12.3835 5.45001 12.9208L5.72735 13.161L5.74786 13.1796L8.68829 15.7889C8.99784 16.0639 9.02555 16.5378 8.75079 16.8475C8.47584 17.1572 8.00196 17.1858 7.69219 16.911L4.75176 14.3007V14.2997C3.86223 13.5618 3.24399 12.7774 3.16876 11.8241C3.09409 10.8771 3.5763 10.0015 4.25079 9.14539L9.43047 2.56628L9.4334 2.56238C10.1099 1.71369 11.0375 1.24503 12.0086 1.245Z" fill="#1C252E"/>
<path d="M11.2598 6.96985V2.67004C11.2598 2.25583 11.5956 1.92004 12.0098 1.92004C12.424 1.92004 12.7598 2.25583 12.7598 2.67004V6.96985C12.7598 7.38406 12.424 7.71985 12.0098 7.71985C11.5956 7.71985 11.2598 7.38406 11.2598 6.96985Z" fill="#1C252E"/>
</g>
<defs>
<clipPath id="clip0_167_254">
<rect width="24" height="24" fill="white"/>
</clipPath>
</defs>
</svg>
