<svg width="24" height="24" viewBox="0 0 24 24" fill="none" xmlns="http://www.w3.org/2000/svg">
<g clip-path="url(#clip0_167_248)">
<path d="M14.8426 2.66782C15.7159 2.63331 16.5911 3.01104 17.2899 3.70982L20.3202 6.74009C21.659 8.07916 21.6978 10.3484 20.0516 11.3934H20.0506L17.3807 13.0838C17.0844 13.2712 16.698 13.2281 16.45 12.9803L11.0496 7.57993C10.8018 7.33194 10.7588 6.94562 10.9461 6.64927L12.6366 3.97837C13.1498 3.16103 13.9575 2.70287 14.8426 2.66782ZM14.9022 4.16685C14.5237 4.18181 14.163 4.36787 13.9061 4.77818L13.9032 4.78111L12.534 6.94321L17.0858 11.495L19.2489 10.1258C19.9017 9.71039 20.0799 8.62113 19.2596 7.80064L16.2293 4.77036C15.7782 4.31931 15.2938 4.15141 14.9022 4.16685Z" fill="#1C252E"/>
<path d="M7.69447 6.06112H7.69545L11.6261 6.30135C12.0393 6.32673 12.3533 6.68213 12.3283 7.0953C12.303 7.50874 11.9478 7.82367 11.5343 7.79842L7.60561 7.55819C6.55459 7.49581 6.06458 7.64812 5.79799 7.86971C5.53444 8.08903 5.3102 8.52664 5.19545 9.52596V9.52791L4.21498 17.8482V17.8492C4.13465 18.5187 4.33877 19.0351 4.66811 19.3639C4.9979 19.6928 5.51485 19.8952 6.17983 19.815H6.18276L14.5011 18.8355L14.8537 18.7857C15.6192 18.6582 15.9995 18.4551 16.2013 18.2193C16.4212 17.9624 16.5775 17.4876 16.4738 16.4547C16.4727 16.4444 16.4724 16.4337 16.4718 16.4234L16.2413 12.4937C16.2172 12.0803 16.533 11.7259 16.9464 11.7017C17.3598 11.6776 17.714 11.9926 17.7384 12.4058L17.9689 16.3365H17.9679C18.0789 17.4801 17.9628 18.4685 17.341 19.1949C16.7241 19.9155 15.7632 20.1951 14.6788 20.3248H14.6779L6.35756 21.3053L6.35658 21.3043C5.28319 21.4329 4.29643 21.1114 3.60951 20.4264C2.92154 19.7401 2.59609 18.7508 2.72572 17.6705L3.70522 9.35213C3.83053 8.26297 4.11081 7.32077 4.83901 6.71541C5.56489 6.11204 6.55561 5.99353 7.69447 6.06112Z" fill="#1C252E"/>
<path d="M7.10926 15.8508C7.40167 15.5574 7.87644 15.5564 8.16981 15.8488C8.46307 16.1411 8.46392 16.616 8.17176 16.9094L5.14148 19.9494C4.84912 20.2427 4.37432 20.2436 4.08094 19.9513C3.7876 19.659 3.7867 19.1842 4.07898 18.8908L7.10926 15.8508Z" fill="#1C252E"/>
</g>
<defs>
<clipPath id="clip0_167_248">
<rect width="24" height="24" fill="white"/>
</clipPath>
</defs>
</svg>
