<svg width="24" height="24" viewBox="0 0 24 24" fill="none" xmlns="http://www.w3.org/2000/svg">
<path d="M15.9694 3.9693C17.0921 2.84655 18.907 2.84684 20.0299 3.9693C21.1528 5.0922 21.1528 6.90696 20.0299 8.02985L7.02994 21.0299C5.90705 22.1527 4.09229 22.1527 2.9694 21.0299C1.84693 19.9069 1.84665 18.0921 2.9694 16.9693L15.9694 3.9693ZM18.9694 5.02985C18.4323 4.49317 17.5669 4.49289 17.0299 5.02985L4.02994 18.0299C3.49298 18.5668 3.49327 19.4322 4.02994 19.9693C4.56705 20.5064 5.43229 20.5064 5.9694 19.9693L18.9694 6.96931C19.5065 6.4322 19.5065 5.56696 18.9694 5.02985Z" fill="#1C252E"/>
<path d="M14.4799 5.45972C14.7728 5.16683 15.2476 5.16683 15.5405 5.45972L18.5405 8.45972C18.8334 8.75261 18.8334 9.22737 18.5405 9.52027C18.2476 9.81316 17.7728 9.81316 17.4799 9.52027L14.4799 6.52027C14.187 6.22737 14.187 5.75261 14.4799 5.45972Z" fill="#1C252E"/>
<path d="M9.85913 1.52051C10.0346 1.46906 10.224 1.5172 10.3533 1.64649C10.4826 1.77577 10.5307 1.96518 10.4793 2.14063L10.0808 3.5L10.4793 4.85938C10.5307 5.03482 10.4826 5.22423 10.3533 5.35352C10.224 5.4828 10.0346 5.53095 9.85913 5.47949L8.49976 5.08106L7.14038 5.47949C6.96494 5.53095 6.77553 5.4828 6.64624 5.35352C6.51696 5.22423 6.46881 5.03482 6.52027 4.85938L6.9187 3.5L6.52027 2.14063C6.46881 1.96518 6.51696 1.77577 6.64624 1.64649C6.77553 1.5172 6.96494 1.46906 7.14038 1.52051L8.49976 1.91895L9.85913 1.52051ZM8.64038 2.91992C8.54858 2.94682 8.45093 2.94682 8.35913 2.91992L7.73609 2.73633L7.91968 3.35938C7.94658 3.45118 7.94658 3.54883 7.91968 3.64063L7.73609 4.2627L8.35913 4.08008L8.42847 4.06543C8.49911 4.05525 8.57137 4.05986 8.64038 4.08008L9.26245 4.2627L9.07984 3.64063C9.05294 3.54883 9.05294 3.45118 9.07984 3.35938L9.26245 2.73633L8.64038 2.91992Z" fill="#1C252E"/>
<path d="M5.85913 7.52051C6.03458 7.46906 6.22399 7.5172 6.35327 7.64649C6.48256 7.77577 6.5307 7.96518 6.47925 8.14063L6.08081 9.5L6.47925 10.8594C6.5307 11.0348 6.48256 11.2242 6.35327 11.3535C6.22399 11.4828 6.03458 11.5309 5.85913 11.4795L4.49976 11.0811L3.14038 11.4795C2.96494 11.5309 2.77553 11.4828 2.64624 11.3535C2.51696 11.2242 2.46881 11.0348 2.52027 10.8594L2.9187 9.5L2.52027 8.14063C2.46881 7.96518 2.51696 7.77577 2.64624 7.64649C2.77553 7.5172 2.96494 7.46906 3.14038 7.52051L4.49976 7.91895L5.85913 7.52051ZM4.64038 8.91992C4.54858 8.94682 4.45093 8.94682 4.35913 8.91992L3.73609 8.73633L3.91968 9.35938C3.94658 9.45118 3.94658 9.54883 3.91968 9.64063L3.73609 10.2627L4.35913 10.0801L4.42847 10.0654C4.49911 10.0553 4.57137 10.0599 4.64038 10.0801L5.26245 10.2627L5.07984 9.64063C5.05294 9.54883 5.05294 9.45118 5.07984 9.35938L5.26245 8.73633L4.64038 8.91992Z" fill="#1C252E"/>
<path d="M20.8591 12.5205C21.0346 12.4691 21.224 12.5172 21.3533 12.6465C21.4826 12.7758 21.5307 12.9652 21.4793 13.1406L21.0808 14.5L21.4793 15.8594C21.5307 16.0348 21.4826 16.2242 21.3533 16.3535C21.224 16.4828 21.0346 16.5309 20.8591 16.4795L19.4998 16.0811L18.1404 16.4795C17.9649 16.5309 17.7755 16.4828 17.6462 16.3535C17.517 16.2242 17.4688 16.0348 17.5203 15.8594L17.9187 14.5L17.5203 13.1406C17.4688 12.9652 17.517 12.7758 17.6462 12.6465C17.7755 12.5172 17.9649 12.4691 18.1404 12.5205L19.4998 12.9189L20.8591 12.5205ZM19.6404 13.9199C19.5486 13.9468 19.4509 13.9468 19.3591 13.9199L18.7361 13.7363L18.9197 14.3594C18.9466 14.4512 18.9466 14.5488 18.9197 14.6406L18.7361 15.2627L19.3591 15.0801L19.4285 15.0654C19.4991 15.0553 19.5714 15.0599 19.6404 15.0801L20.2625 15.2627L20.0798 14.6406C20.0529 14.5488 20.0529 14.4512 20.0798 14.3594L20.2625 13.7363L19.6404 13.9199Z" fill="#1C252E"/>
</svg>
