<svg width="24" height="24" viewBox="0 0 24 24" fill="none" xmlns="http://www.w3.org/2000/svg">
<path d="M21.25 12C21.25 6.89137 17.1086 2.75 12 2.75C6.89137 2.75 2.75 6.89137 2.75 12C2.75 17.1086 6.89137 21.25 12 21.25C17.1086 21.25 21.25 17.1086 21.25 12ZM22.75 12C22.75 17.9371 17.9371 22.75 12 22.75C6.06294 22.75 1.25 17.9371 1.25 12C1.25 6.06294 6.06294 1.25 12 1.25C17.9371 1.25 22.75 6.06294 22.75 12Z" fill="#1C252E"/>
<path d="M16.25 12C16.25 9.91012 14.7385 8.17104 12.75 7.81641V16.1826C14.7385 15.8279 16.25 14.0898 16.25 12ZM17.75 12C17.75 15.1742 15.1742 17.75 12 17.75C11.5858 17.75 11.25 17.4142 11.25 17V7C11.25 6.58579 11.5858 6.25 12 6.25C15.1742 6.25 17.75 8.82579 17.75 12Z" fill="#1C252E"/>
<path d="M12 6.25C12.4142 6.25 12.75 6.58579 12.75 7V17C12.75 17.4142 12.4142 17.75 12 17.75C8.82579 17.75 6.25 15.1742 6.25 12C6.25 8.82579 8.82579 6.25 12 6.25ZM7.75 12C7.75 14.0898 9.26155 15.8279 11.25 16.1826V7.81641C9.26146 8.17104 7.75 9.91012 7.75 12Z" fill="#1C252E"/>
<path d="M11.25 22V17C11.25 16.5858 11.5858 16.25 12 16.25C12.4142 16.25 12.75 16.5858 12.75 17V22C12.75 22.4142 12.4142 22.75 12 22.75C11.5858 22.75 11.25 22.4142 11.25 22Z" fill="#1C252E"/>
<path d="M11.25 7V2C11.25 1.58579 11.5858 1.25 12 1.25C12.4142 1.25 12.75 1.58579 12.75 2V7C12.75 7.41421 12.4142 7.75 12 7.75C11.5858 7.75 11.25 7.41421 11.25 7Z" fill="#1C252E"/>
</svg>
