<svg width="24" height="24" viewBox="0 0 24 24" fill="none" xmlns="http://www.w3.org/2000/svg">
<path d="M8.92 2.51942C10.6139 0.825883 13.3866 0.828487 15.088 2.51747L21.4805 8.91005L21.4825 8.91102C23.1717 10.6123 23.1742 13.386 21.4805 15.08L15.0899 21.4706C13.396 23.1642 10.6223 23.1618 8.92097 21.4725L8.92 21.4706L2.52937 15.08C0.835637 13.386 0.838141 10.6124 2.52742 8.91102L2.52937 8.91005L8.92 2.51942ZM14.0313 3.58192C12.9128 2.4715 11.0866 2.47425 9.98054 3.57997L3.58992 9.97059C2.48152 11.0893 2.48477 12.9141 3.58992 14.0194L9.97859 20.4081L10.1964 20.6024C11.3227 21.5131 12.9924 21.4467 14.0294 20.41L20.42 14.0194C21.525 12.9141 21.5283 11.0893 20.42 9.97059L14.0313 3.58192Z" fill="#1C252E"/>
<path d="M5.71967 5.71967C6.01256 5.42678 6.48732 5.42678 6.78022 5.71967L18.2802 17.2197C18.5731 17.5126 18.5731 17.9873 18.2802 18.2802C17.9873 18.5731 17.5126 18.5731 17.2197 18.2802L5.71967 6.78022C5.42678 6.48732 5.42678 6.01256 5.71967 5.71967Z" fill="#1C252E"/>
<path d="M17.2197 5.71967C17.5126 5.42678 17.9873 5.42678 18.2802 5.71967C18.5731 6.01256 18.5731 6.48732 18.2802 6.78022L6.78022 18.2802C6.48732 18.5731 6.01256 18.5731 5.71967 18.2802C5.42678 17.9873 5.42678 17.5126 5.71967 17.2197L17.2197 5.71967Z" fill="#1C252E"/>
</svg>
