<svg width="24" height="24" viewBox="0 0 24 24" fill="none" xmlns="http://www.w3.org/2000/svg">
<path d="M14.2602 18.4301L14.3891 18.4408C14.6827 18.492 14.9239 18.7153 14.9916 19.014L15.4008 20.8246L15.4028 20.8314C15.5428 21.4776 15.3719 22.106 14.9487 22.5648C14.533 23.0155 13.9258 23.2503 13.2699 23.2504H10.7494C9.49364 23.2502 8.30373 22.1871 8.61857 20.8217H8.61955L9.02873 19.014L9.06779 18.891C9.18262 18.6157 9.45367 18.4301 9.76017 18.4301H14.2602ZM10.0815 21.1556L10.0805 21.1586C10.0528 21.2784 10.0836 21.4071 10.1947 21.5267C10.309 21.6498 10.5025 21.7503 10.7494 21.7504H13.2699C13.5737 21.7503 13.7568 21.645 13.8461 21.5482C13.9268 21.4607 13.9752 21.3358 13.9379 21.1556L13.6606 19.9301H10.3588L10.0815 21.1556Z" fill="#1C252E"/>
<path d="M12.0151 9.97253C12.6053 9.97256 13.1624 10.2221 13.5923 10.6639L13.7681 10.8651L13.7691 10.8661L16.8169 14.7333C17.23 15.2536 17.5721 15.8452 17.5093 16.5253C17.4468 17.2016 17.0056 17.7322 16.4878 18.1913L14.7583 19.7303C14.4489 20.0055 13.975 19.9781 13.6997 19.6688C13.4244 19.3595 13.4521 18.8857 13.7612 18.6102L15.4917 17.0702L15.4927 17.0692C15.9443 16.6689 16.0085 16.4689 16.0161 16.3876C16.0233 16.3102 16 16.1155 15.6431 15.6659L15.6411 15.6639L12.5913 11.7938V11.7948C12.399 11.5516 12.1856 11.4726 12.0151 11.4725C11.8447 11.4725 11.6313 11.5516 11.439 11.7948L11.438 11.7938L8.38917 15.6639L8.38722 15.6659C8.02672 16.12 7.99392 16.3251 8.0005 16.4091C8.00539 16.4705 8.04541 16.6271 8.36281 16.9178L8.51613 17.0507L8.53859 17.0702L10.2691 18.6102C10.5781 18.8857 10.6058 19.3596 10.3306 19.6688C10.0552 19.9782 9.58039 20.0058 9.27101 19.7303L7.54152 18.1903H7.54054C7.00023 17.7417 6.55817 17.2114 6.50441 16.5262C6.45099 15.8452 6.80291 15.2491 7.21241 14.7333H7.21339L10.2612 10.8661V10.8651C10.7089 10.2986 11.3407 9.97253 12.0151 9.97253Z" fill="#1C252E"/>
<path d="M11.2598 13.6503V11.12C11.2598 10.7058 11.5956 10.37 12.0098 10.37C12.424 10.37 12.7598 10.7058 12.7598 11.12V13.6503C12.7596 14.0644 12.4239 14.4003 12.0098 14.4003C11.5956 14.4003 11.2599 14.0644 11.2598 13.6503Z" fill="#1C252E"/>
<path d="M10.62 1.39977C11.3829 0.637013 12.6179 0.636921 13.3807 1.39977L14.16 2.18004C14.9228 2.94294 14.9229 4.17791 14.16 4.94078L13.3807 5.72008C12.6178 6.48296 11.3829 6.48292 10.62 5.72008L9.83969 4.94078C9.07683 4.17793 9.07692 2.94294 9.83969 2.18004L10.62 1.39977ZM12.3192 2.46032C12.1421 2.28347 11.8576 2.28342 11.6805 2.46032L10.9002 3.24059C10.7233 3.41764 10.7234 3.70218 10.9002 3.87926L11.6805 4.65953C11.8576 4.83654 12.1421 4.83649 12.3192 4.65953L13.0995 3.87926C13.2764 3.70216 13.2765 3.41766 13.0995 3.24059L12.3192 2.46032Z" fill="#1C252E"/>
<path d="M21 11.0102C21 10.7644 20.7956 10.56 20.5498 10.56H19.4502C19.2044 10.56 19 10.7644 19 11.0102V12.1098C19 12.3557 19.2045 12.56 19.4502 12.56H20.5498C20.7955 12.56 21 12.3557 21 12.1098V11.0102ZM22.5 12.1098C22.5 13.184 21.6241 14.06 20.5498 14.06H19.4502C18.3759 14.06 17.5 13.184 17.5 12.1098V11.0102C17.5 9.93599 18.376 9.06 19.4502 9.06H20.5498C21.624 9.06 22.5 9.93599 22.5 11.0102V12.1098Z" fill="#1C252E"/>
<path d="M5 11.0102C5 10.7644 4.79558 10.56 4.5498 10.56H3.4502C3.20442 10.56 3 10.7644 3 11.0102V12.1098C3 12.3557 3.20447 12.56 3.4502 12.56H4.5498C4.79553 12.56 5 12.3557 5 12.1098V11.0102ZM6.5 12.1098C6.5 13.184 5.62408 14.06 4.5498 14.06H3.4502C2.37592 14.06 1.5 13.184 1.5 12.1098V11.0102C1.5 9.93599 2.37597 9.06 3.4502 9.06H4.5498C5.62403 9.06 6.5 9.93599 6.5 11.0102V12.1098Z" fill="#1C252E"/>
<path d="M12.7099 4.26972C13.0028 3.97683 13.4776 3.97683 13.7705 4.26972L19.0703 9.56952C19.3631 9.86242 19.3631 10.3372 19.0703 10.6301C18.7774 10.923 18.3026 10.923 18.0097 10.6301L12.7099 5.33027C12.417 5.03737 12.417 4.56261 12.7099 4.26972Z" fill="#1C252E"/>
<path d="M10.2294 4.26973C10.5223 3.97687 10.997 3.97694 11.2899 4.26973C11.5828 4.56262 11.5828 5.03738 11.2899 5.33028L5.99013 10.6301C5.69724 10.923 5.22248 10.923 4.92959 10.6301C4.63678 10.3372 4.63672 9.8624 4.92959 9.56953L10.2294 4.26973Z" fill="#1C252E"/>
</svg>
