<svg width="24" height="24" viewBox="0 0 24 24" fill="none" xmlns="http://www.w3.org/2000/svg">
<path d="M21 21.25C21.4142 21.25 21.75 21.5858 21.75 22C21.75 22.4142 21.4142 22.75 21 22.75H9C8.58579 22.75 8.25 22.4142 8.25 22C8.25 21.5858 8.58579 21.25 9 21.25H21Z" fill="#1C252E"/>
<path d="M12.8099 2.38022C14.2648 0.915125 16.6498 0.919288 18.1107 2.38022L21.6175 5.88706C23.0847 7.34171 23.0821 9.72914 21.6205 11.1908L11.1908 21.6205C9.73596 23.0855 7.35092 23.0812 5.88998 21.6205L2.38022 18.1107C0.964349 16.6948 0.9163 14.4105 2.24838 12.9466L2.38217 12.807L12.8099 2.38022ZM17.0501 3.44077C16.1718 2.5624 14.7377 2.56503 13.8724 3.43784L13.8705 3.44077L3.44077 13.8705L3.43784 13.8724C2.56505 14.7378 2.5624 16.1718 3.44077 17.0501L6.95053 20.5599C7.82891 21.4381 9.262 21.4346 10.1273 20.5619L10.1292 20.5599H10.1302L20.5599 10.1302C21.4383 9.25185 21.4347 7.81783 20.5619 6.95249L17.0501 3.44077Z" fill="#1C252E"/>
<path d="M6.58979 8.5998C6.88268 8.3069 7.35744 8.3069 7.65033 8.5998L15.4003 16.3498C15.6932 16.6427 15.6932 17.1175 15.4003 17.4103C15.1074 17.7032 14.6327 17.7032 14.3398 17.4103L6.58979 9.66034C6.29689 9.36745 6.29689 8.89269 6.58979 8.5998Z" fill="#1C252E"/>
<path d="M8.63935 11.4697C8.9319 11.1768 9.40678 11.1764 9.69989 11.4687C9.99305 11.7613 9.9935 12.2371 9.70087 12.5302L4.05146 18.1894C3.75882 18.4826 3.28309 18.483 2.98993 18.1904C2.69721 17.8977 2.69655 17.4229 2.98896 17.1298L8.63935 11.4697Z" fill="#1C252E"/>
<path d="M11.4701 14.2997C11.763 14.0069 12.2378 14.0068 12.5307 14.2997C12.8234 14.5926 12.8234 15.0674 12.5307 15.3602L6.87051 21.0204C6.57764 21.3132 6.10284 21.3132 5.80996 21.0204C5.51709 20.7275 5.51715 20.2528 5.80996 19.9599L11.4701 14.2997Z" fill="#1C252E"/>
</svg>
