<svg width="24" height="24" viewBox="0 0 24 24" fill="none" xmlns="http://www.w3.org/2000/svg">
<path d="M21.2202 12C21.2202 6.89137 17.0788 2.75 11.9702 2.75C6.86158 2.75 2.72021 6.89137 2.72021 12C2.72021 17.1086 6.86158 21.25 11.9702 21.25C17.0788 21.25 21.2202 17.1086 21.2202 12ZM22.7202 12C22.7202 17.9371 17.9073 22.75 11.9702 22.75C6.03315 22.75 1.22021 17.9371 1.22021 12C1.22021 6.06294 6.03315 1.25 11.9702 1.25C17.9073 1.25 22.7202 6.06294 22.7202 12Z" fill="#1C252E"/>
<path d="M15.75 12C15.75 9.92893 14.0711 8.25 12 8.25C9.92893 8.25 8.25 9.92893 8.25 12C8.25 14.0711 9.92893 15.75 12 15.75C14.0711 15.75 15.75 14.0711 15.75 12ZM17.25 12C17.25 14.8995 14.8995 17.25 12 17.25C9.1005 17.25 6.75 14.8995 6.75 12C6.75 9.1005 9.1005 6.75 12 6.75C14.8995 6.75 17.25 9.1005 17.25 12Z" fill="#1C252E"/>
<path d="M4.36897 4.40071C4.66137 4.10748 5.13619 4.1065 5.42952 4.39876L8.96956 7.92903C9.26283 8.22147 9.26388 8.69626 8.97151 8.98958C8.67916 9.28276 8.2043 9.28363 7.91096 8.99153L4.37092 5.46126C4.07769 5.16885 4.07672 4.69404 4.36897 4.40071Z" fill="#1C252E"/>
<path d="M7.91054 15.0087C8.20387 14.7165 8.67869 14.7175 8.97109 15.0107C9.26332 15.304 9.26236 15.7788 8.96914 16.0712L5.4291 19.6015C5.13576 19.8936 4.66091 19.8927 4.36855 19.5996C4.07616 19.3062 4.07723 18.8315 4.37051 18.539L7.91054 15.0087Z" fill="#1C252E"/>
<path d="M14.9788 15.0107C15.2712 14.7175 15.7461 14.7165 16.0394 15.0087L19.5794 18.539C19.8727 18.8315 19.8737 19.3062 19.5814 19.5996C19.289 19.8927 18.8142 19.8936 18.5208 19.6015L14.9808 16.0712C14.6876 15.7788 14.6866 15.304 14.9788 15.0107Z" fill="#1C252E"/>
<path d="M18.5209 4.39875C18.8142 4.10651 19.289 4.10748 19.5814 4.4007C19.8737 4.69403 19.8727 5.16885 19.5795 5.46125L16.0395 8.99152C15.7461 9.28364 15.2713 9.28275 14.9789 8.98957C14.6865 8.69625 14.6876 8.22147 14.9809 7.92902L18.5209 4.39875Z" fill="#1C252E"/>
</svg>
