<svg width="24" height="24" viewBox="0 0 24 24" fill="none" xmlns="http://www.w3.org/2000/svg">
<g clip-path="url(#clip0_167_203)">
<path d="M1.22021 15V9C1.22021 6.42603 1.73047 4.4292 3.06494 3.09473C4.39941 1.76026 6.39624 1.25 8.97021 1.25H10.9702C11.3844 1.25 11.7202 1.58579 11.7202 2C11.7202 2.41421 11.3844 2.75 10.9702 2.75H8.97021C6.54419 2.75 5.04102 3.23974 4.12549 4.15527C3.20996 5.0708 2.72021 6.57397 2.72021 9V15C2.72021 17.426 3.20996 18.9292 4.12549 19.8447C5.04102 20.7603 6.54419 21.25 8.97021 21.25H14.9702C17.3962 21.25 18.8994 20.7603 19.8149 19.8447C20.7305 18.9292 21.2202 17.426 21.2202 15V13C21.2202 12.5858 21.556 12.25 21.9702 12.25C22.3844 12.25 22.7202 12.5858 22.7202 13V15C22.7202 17.574 22.21 19.5708 20.8755 20.9053C19.541 22.2397 17.5442 22.75 14.9702 22.75H8.97021C6.39624 22.75 4.39941 22.2397 3.06494 20.9053C1.73047 19.5708 1.22021 17.574 1.22021 15Z" fill="#1C252E"/>
<path d="M20.1423 1.37961C20.9087 1.08625 21.6772 1.31591 22.1608 1.79953C22.651 2.28975 22.8902 3.06399 22.5759 3.84152L22.5739 3.84055C21.9274 5.45337 20.8114 7.3222 19.5398 9.04074C18.2676 10.7599 16.8063 12.3762 15.4499 13.4646L15.448 13.4665L13.8679 14.7263C13.8621 14.7309 13.8562 14.7355 13.8503 14.74C13.6099 14.9202 13.3508 15.0777 13.0437 15.198C12.8129 15.2883 12.5521 15.2594 12.3474 15.1198C12.1426 14.9801 12.0202 14.7476 12.0202 14.4997C12.0202 14.386 12.0128 14.2692 11.9968 14.1394C11.9289 13.6344 11.7053 13.1575 11.2849 12.7448L11.28 12.74C10.8513 12.3113 10.3494 12.0779 9.83956 12.0066C9.69002 11.9974 9.58518 11.9926 9.48702 11.9987C9.23499 12.0145 8.99211 11.9019 8.84053 11.6999C8.68898 11.498 8.64858 11.2334 8.73409 10.9958C8.84732 10.6813 9.01571 10.3769 9.24483 10.112H9.24385L10.5036 8.53195L10.5056 8.53098C11.5936 7.17486 13.2111 5.70853 14.9314 4.43137C16.6516 3.15422 18.5216 2.03123 20.1306 1.38449L20.1423 1.37961ZM21.1003 2.86008C21.0056 2.7654 20.857 2.71562 20.6872 2.77707C19.2367 3.36053 17.482 4.40594 15.8259 5.63547C14.1688 6.86574 12.6574 8.24566 11.6755 9.46945L11.6745 9.46848L10.7126 10.6755C11.3004 10.8658 11.8559 11.1963 12.3357 11.6745L12.57 11.9236C12.9177 12.325 13.1641 12.7714 13.32 13.2429L14.5105 12.2946C15.7339 11.3131 17.1086 9.80472 18.3337 8.14914C19.5588 6.49361 20.6007 4.7375 21.1843 3.28098L21.1853 3.27902C21.2223 3.18738 21.222 3.11145 21.2077 3.04953C21.1924 2.98355 21.1568 2.91661 21.1003 2.86008Z" fill="#1C252E"/>
<path d="M12.0303 14.4897C12.0303 14.3848 12.0227 14.2585 12.0069 14.1294L11.9746 13.9438C11.8813 13.5121 11.6648 13.1047 11.2901 12.7299C10.8614 12.3013 10.3595 12.0679 9.84964 11.9965C9.7001 11.9874 9.59525 11.9826 9.4971 11.9887C9.48643 11.9894 9.47556 11.9895 9.46487 11.9897C8.24207 12.0132 7.13154 12.8842 6.98538 14.2182L6.98636 14.2192L6.77542 16.1899V16.1919C6.70784 16.8057 7.22573 17.3108 7.81644 17.2446H7.82034L9.7764 17.0356L10.0049 16.9975C10.5264 16.8886 10.9544 16.6446 11.2793 16.3198C11.7686 15.8207 12.0303 15.1713 12.0303 14.4897ZM13.5303 14.4897C13.5303 15.5664 13.113 16.596 12.3448 17.3764L12.3408 17.3803C11.7322 17.9889 10.9176 18.4032 9.9639 18.5239C9.95914 18.5245 9.95402 18.5253 9.94925 18.5258L7.97952 18.7358L7.97855 18.7348C6.43147 18.9051 5.11198 17.5922 5.28421 16.0278L5.49417 14.06V14.059C5.72917 11.8946 7.53922 10.5262 9.43558 10.4897V10.4917C9.63844 10.4814 9.83212 10.4924 9.97659 10.5014C9.99379 10.5025 10.0113 10.5041 10.0283 10.5063C10.8723 10.618 11.6843 11.0031 12.3506 11.6694C12.921 12.2397 13.2816 12.9004 13.4385 13.6186L13.4932 13.9301L13.4942 13.937C13.5177 14.1255 13.5303 14.3165 13.5303 14.4897Z" fill="#1C252E"/>
<path d="M15.0698 11.98C15.0698 10.3029 13.7143 8.93994 12.0298 8.93994C11.6156 8.93994 11.2798 8.60415 11.2798 8.18994C11.2798 7.77573 11.6156 7.43994 12.0298 7.43994C14.5453 7.43994 16.5698 9.47706 16.5698 11.98C16.5698 12.3942 16.234 12.73 15.8198 12.73C15.4056 12.73 15.0698 12.3942 15.0698 11.98Z" fill="#1C252E"/>
</g>
<defs>
<clipPath id="clip0_167_203">
<rect width="24" height="24" fill="white"/>
</clipPath>
</defs>
</svg>
