<svg width="24" height="24" viewBox="0 0 24 24" fill="none" xmlns="http://www.w3.org/2000/svg">
<path d="M9.25 4.5C9.25 3.92044 9.06014 3.49569 8.78223 3.21777C8.50431 2.93986 8.07956 2.75 7.5 2.75H4.5C3.92044 2.75 3.49569 2.93986 3.21777 3.21777C2.93986 3.49569 2.75 3.92044 2.75 4.5V18C2.75 18.2124 2.77304 18.4315 2.81445 18.6494C2.84247 18.7706 2.86548 18.8673 2.89355 18.96C2.9372 19.0908 2.97412 19.1956 3.01172 19.2891C3.03378 19.3289 3.05152 19.3692 3.06543 19.4102C3.17567 19.6215 3.29546 19.817 3.42969 19.9951C3.52309 20.1046 3.61763 20.2087 3.72266 20.3232C3.75602 20.3596 3.79302 20.3951 3.83594 20.4326L3.9873 20.5557L3.99902 20.5654C4.17807 20.701 4.37509 20.8215 4.58789 20.9326C4.6296 20.9466 4.6703 20.9658 4.71094 20.9883C4.80128 21.0273 4.9011 21.0629 5.03418 21.1045C5.12882 21.1334 5.22736 21.1559 5.35156 21.1846C5.5693 21.2259 5.7879 21.25 6 21.25C6.33751 21.25 6.67429 21.2 6.97754 21.0996C7.08416 21.0608 7.16341 21.0315 7.23926 20.9971C7.24976 20.9923 7.26078 20.9877 7.27148 20.9834C7.5493 20.8723 7.81644 20.715 8.04883 20.5137L8.0791 20.4883C8.13945 20.4413 8.21618 20.3727 8.28906 20.2998L8.3291 20.2598C8.8967 19.6724 9.25 18.8702 9.25 18V4.5ZM4.82227 22.2207C4.83205 22.2126 4.84027 22.2082 4.84375 22.2051C4.85471 22.1953 4.86513 22.1856 4.87012 22.1807C4.85529 22.1955 4.83806 22.2073 4.82227 22.2207ZM2.08398 20.3486C2.11866 20.3622 2.15066 20.3712 2.17773 20.3779C2.14548 20.3703 2.11448 20.3603 2.08398 20.3486ZM1.98828 20.3037C1.99065 20.305 1.99373 20.3053 1.99609 20.3066C1.99209 20.3045 1.98833 20.302 1.98438 20.2998C1.98593 20.3007 1.98675 20.3028 1.98828 20.3037ZM1.77051 20.1152L1.80957 20.1602C1.78592 20.1365 1.7663 20.1095 1.74609 20.083C1.75404 20.0943 1.76229 20.1048 1.77051 20.1152ZM1.60059 19.6748C1.60086 19.683 1.60098 19.6915 1.60156 19.7002C1.60178 19.7034 1.60325 19.7066 1.60352 19.71C1.60229 19.6944 1.60086 19.6789 1.60059 19.6631V19.6748ZM1.79492 19.1562C1.79189 19.1597 1.78712 19.1673 1.7793 19.1768C1.79251 19.1612 1.8047 19.1445 1.81934 19.1299C1.81444 19.1349 1.80465 19.1453 1.79492 19.1562ZM10.75 18C10.75 19.2862 10.2257 20.4606 9.39746 21.3125L9.39062 21.3203L9.35059 21.3604C9.25289 21.458 9.13988 21.5578 9.03027 21.6455L9.03125 21.6465C8.67293 21.957 8.27039 22.1931 7.85938 22.3613L7.86035 22.3623C7.71969 22.4262 7.58264 22.4761 7.47656 22.5146C7.47021 22.517 7.46344 22.5193 7.45703 22.5215C6.98164 22.6799 6.48056 22.75 6 22.75C5.67533 22.75 5.35758 22.7137 5.05859 22.6562C5.04956 22.6545 5.04022 22.6525 5.03125 22.6504C4.90547 22.6214 4.74949 22.5862 4.58984 22.5371L4.58594 22.5361C4.4455 22.4922 4.28875 22.4373 4.12305 22.3662C4.08309 22.3541 4.04315 22.3404 4.00488 22.3213C3.69354 22.1656 3.38121 21.9812 3.08594 21.7568C3.07601 21.7493 3.06715 21.7405 3.05762 21.7324C2.91846 21.6248 2.76475 21.4979 2.61719 21.3369C2.50857 21.2184 2.3887 21.0875 2.26758 20.9443C2.2592 20.9344 2.25102 20.9244 2.24316 20.9141C2.01875 20.6188 1.83438 20.3064 1.67871 19.9951C1.66746 19.9726 1.65921 19.949 1.65039 19.9258C1.57594 19.7521 1.51683 19.571 1.46875 19.4268C1.46695 19.4213 1.46457 19.4156 1.46289 19.4102C1.4138 19.2505 1.37866 19.0946 1.34961 18.9688C1.34754 18.9598 1.34549 18.9504 1.34375 18.9414C1.28626 18.6424 1.25 18.3246 1.25 18V4.5C1.25 3.57956 1.56014 2.75431 2.15723 2.15723C2.75431 1.56014 3.57956 1.25 4.5 1.25H7.5C8.42044 1.25 9.24569 1.56014 9.84277 2.15723C10.4399 2.75431 10.75 3.57956 10.75 4.5V18Z" fill="#1C252E"/>
<path d="M21.25 16.5C21.25 15.9204 21.0601 15.4957 20.7822 15.2178C20.5043 14.9399 20.0796 14.75 19.5 14.75H15.9707L9.45996 21.25H19.5C20.0796 21.25 20.5043 21.0601 20.7822 20.7822C21.0601 20.5043 21.25 20.0796 21.25 19.5V16.5ZM22.75 19.5C22.75 20.4204 22.4399 21.2457 21.8428 21.8428C21.2457 22.4399 20.4204 22.75 19.5 22.75H6C5.58579 22.75 5.25 22.4142 5.25 22C5.25 21.5858 5.58579 21.25 6 21.25C6.33751 21.25 6.67429 21.2 6.97754 21.0996C7.08416 21.0608 7.16341 21.0315 7.23926 20.9971C7.24976 20.9923 7.26078 20.9877 7.27148 20.9834C7.5493 20.8723 7.81644 20.715 8.04883 20.5137L8.0791 20.4883C8.13945 20.4413 8.21618 20.3727 8.28906 20.2998L15.1299 13.4697C15.2705 13.3293 15.4614 13.25 15.6602 13.25H19.5C20.4204 13.25 21.2457 13.5601 21.8428 14.1572C22.4399 14.7543 22.75 15.5796 22.75 16.5V19.5Z" fill="#1C252E"/>
<path d="M1.96049 18.4732C2.35495 18.3525 2.77304 18.5727 2.89604 18.9664C3.21269 19.9813 4.01885 20.7875 5.03374 21.1041C5.42754 21.227 5.64859 21.6451 5.52788 22.0396C5.40715 22.4342 4.98949 22.6572 4.59428 22.5387C3.88258 22.3251 3.20546 21.9335 2.64506 21.3648V21.3658C2.07084 20.8035 1.67631 20.1219 1.46147 19.4059C1.34295 19.0108 1.56617 18.5941 1.96049 18.4732Z" fill="#1C252E"/>
<path d="M14.4802 4.08496C15.325 4.08499 16.129 4.44863 16.78 5.09961L18.9002 7.21973C19.5512 7.87076 19.9147 8.67479 19.9148 9.51953C19.9148 10.3644 19.5513 11.1692 18.9002 11.8203L9.3904 21.3203C9.09896 21.6113 8.62709 21.6132 8.33376 21.3242C8.04059 21.0349 8.0352 20.563 8.32204 20.2676C8.89375 19.6795 9.24976 18.8738 9.24978 18V8.33984C9.2498 8.14103 9.32896 7.95018 9.4695 7.80957L12.1795 5.09961C12.8306 4.44846 13.6353 4.08496 14.4802 4.08496ZM14.4802 5.58496C14.0851 5.58496 13.6489 5.7513 13.24 6.16016L10.7498 8.65039V17.8418L17.8396 10.7598C18.2485 10.3509 18.4148 9.91463 18.4148 9.51953C18.4147 9.12454 18.2483 8.68898 17.8396 8.28027L15.7195 6.16016C15.3108 5.7515 14.8753 5.58499 14.4802 5.58496Z" fill="#1C252E"/>
<path d="M6.25 18C6.25 17.8619 6.13807 17.75 6 17.75C5.86193 17.75 5.75 17.8619 5.75 18C5.75 18.1381 5.86193 18.25 6 18.25C6.13807 18.25 6.25 18.1381 6.25 18ZM7.75 18C7.75 18.9665 6.9665 19.75 6 19.75C5.0335 19.75 4.25 18.9665 4.25 18C4.25 17.0335 5.0335 16.25 6 16.25C6.9665 16.25 7.75 17.0335 7.75 18Z" fill="#1C252E"/>
</svg>
