<svg width="24" height="24" viewBox="0 0 24 24" fill="none" xmlns="http://www.w3.org/2000/svg">
<path d="M14.2607 18.4301L14.3896 18.4408C14.6832 18.492 14.9243 18.7153 14.9921 19.014L15.4013 20.8246L15.4032 20.8314C15.5433 21.4776 15.3723 22.106 14.9491 22.5648C14.5335 23.0155 13.9263 23.2503 13.2704 23.2504H10.7499C9.49412 23.2502 8.30422 22.1871 8.61906 20.8217H8.62004L9.02922 19.014L9.06828 18.891C9.18311 18.6158 9.45416 18.4301 9.76066 18.4301H14.2607ZM10.082 21.1556L10.081 21.1586C10.0533 21.2784 10.0841 21.4071 10.1952 21.5267C10.3095 21.6498 10.503 21.7503 10.7499 21.7504H13.2704C13.5742 21.7503 13.7573 21.645 13.8466 21.5482C13.9273 21.4607 13.9756 21.3358 13.9384 21.1556L13.6611 19.9301H10.3593L10.082 21.1556Z" fill="#1C252E"/>
<path d="M12.0151 9.97253C12.6053 9.97256 13.1624 10.2221 13.5923 10.6639L13.7681 10.8651L13.7691 10.8661L16.8169 14.7333C17.23 15.2536 17.5721 15.8452 17.5093 16.5253C17.4468 17.2016 17.0056 17.7322 16.4878 18.1913L14.7583 19.7303C14.4489 20.0055 13.975 19.9781 13.6997 19.6688C13.4244 19.3595 13.4521 18.8857 13.7612 18.6102L15.4917 17.0702L15.4927 17.0692C15.9443 16.6688 16.0085 16.4689 16.0161 16.3876C16.0233 16.3102 16 16.1155 15.6431 15.6659L15.6411 15.6639L12.5913 11.7938V11.7948C12.399 11.5516 12.1856 11.4726 12.0151 11.4725C11.8447 11.4725 11.6313 11.5516 11.439 11.7948L11.438 11.7938L8.38917 15.6639L8.38722 15.6659C8.02672 16.12 7.99392 16.3251 8.0005 16.4091C8.00538 16.4705 8.0454 16.6271 8.3628 16.9178L8.51612 17.0507L8.53859 17.0702L10.2691 18.6102C10.5781 18.8857 10.6058 19.3596 10.3306 19.6688C10.0552 19.9782 9.58039 20.0058 9.27101 19.7303L7.54152 18.1903H7.54054C7.00023 17.7417 6.55817 17.2114 6.50441 16.5262C6.45099 15.8452 6.80291 15.2491 7.21241 14.7333H7.21339L10.2612 10.8661V10.8651C10.7089 10.2986 11.3407 9.97253 12.0151 9.97253Z" fill="#1C252E"/>
<path d="M11.2603 13.6503V11.12C11.2603 10.7058 11.596 10.37 12.0103 10.37C12.4245 10.37 12.7603 10.7058 12.7603 11.12V13.6503C12.7601 14.0644 12.4244 14.4003 12.0103 14.4003C11.5961 14.4003 11.2604 14.0644 11.2603 13.6503Z" fill="#1C252E"/>
<path d="M12.77 3C12.77 2.86421 12.6558 2.75 12.52 2.75H11.52C11.3842 2.75 11.27 2.86421 11.27 3V4C11.27 4.13579 11.3842 4.25 11.52 4.25H12.52C12.6558 4.25 12.77 4.13579 12.77 4V3ZM14.27 4C14.27 4.96421 13.4842 5.75 12.52 5.75H11.52C10.5558 5.75 9.77002 4.96421 9.77002 4V3C9.77002 2.03579 10.5558 1.25 11.52 1.25H12.52C13.4842 1.25 14.27 2.03579 14.27 3V4Z" fill="#1C252E"/>
<path d="M4.52002 12.1699C4.51999 12.0341 4.40573 11.9199 4.27002 11.9199H3.27002C3.13431 11.9199 3.02005 12.0341 3.02002 12.1699V13.1699C3.02002 13.3057 3.13423 13.4199 3.27002 13.4199H4.27002C4.40581 13.4199 4.52002 13.3057 4.52002 13.1699V12.1699ZM6.02002 13.1699C6.02002 14.1341 5.23423 14.9199 4.27002 14.9199H3.27002C2.30581 14.9199 1.52002 14.1341 1.52002 13.1699V12.1699C1.52005 11.2058 2.30577 10.4199 3.27002 10.4199H4.27002C5.23427 10.4199 6.01999 11.2058 6.02002 12.1699V13.1699Z" fill="#1C252E"/>
<path d="M20.98 12.1699C20.9799 12.0341 20.8657 11.9199 20.73 11.9199H19.73C19.5943 11.9199 19.48 12.0341 19.48 12.1699V13.1699C19.48 13.3057 19.5942 13.4199 19.73 13.4199H20.73C20.8658 13.4199 20.98 13.3057 20.98 13.1699V12.1699ZM22.48 13.1699C22.48 14.1341 21.6942 14.9199 20.73 14.9199H19.73C18.7658 14.9199 17.98 14.1341 17.98 13.1699V12.1699C17.98 11.2058 18.7657 10.4199 19.73 10.4199H20.73C21.6942 10.4199 22.4799 11.2058 22.48 12.1699V13.1699Z" fill="#1C252E"/>
<path d="M3 11.1704C3 6.85384 6.25075 3.30892 10.4316 2.81494C10.843 2.76635 11.2161 3.06081 11.2646 3.47216C11.3132 3.88337 11.0195 4.2564 10.6084 4.30517C7.16946 4.71134 4.5 7.62709 4.5 11.1704C4.4998 11.5844 4.16409 11.9204 3.75 11.9204C3.33591 11.9204 3.0002 11.5844 3 11.1704Z" fill="#1C252E"/>
<path d="M19.5004 11.1703C19.5004 7.63573 16.8484 4.72839 13.4272 4.30412C13.0164 4.25291 12.7248 3.87811 12.7758 3.46721C12.827 3.0564 13.2018 2.76488 13.6127 2.81584C17.7713 3.33179 21.0004 6.86511 21.0004 11.1703C21.0002 11.5842 20.6643 11.9201 20.2504 11.9203C19.8363 11.9203 19.5006 11.5844 19.5004 11.1703Z" fill="#1C252E"/>
</svg>
