<svg width="24" height="24" viewBox="0 0 24 24" fill="none" xmlns="http://www.w3.org/2000/svg">
<g clip-path="url(#clip0_167_157)">
<path d="M21.25 10C21.25 9.11561 21.0295 8.59001 20.7197 8.28027C20.41 7.97053 19.8844 7.75 19 7.75H5C4.11561 7.75 3.59001 7.97053 3.28027 8.28027C2.97053 8.59001 2.75 9.11561 2.75 10V14C2.75 14.8844 2.97053 15.41 3.28027 15.7197C3.59001 16.0295 4.11561 16.25 5 16.25H19C19.8844 16.25 20.41 16.0295 20.7197 15.7197C21.0295 15.41 21.25 14.8844 21.25 14V10ZM22.75 14C22.75 15.1156 22.4705 16.09 21.7803 16.7803C21.09 17.4705 20.1156 17.75 19 17.75H5C3.88439 17.75 2.90999 17.4705 2.21973 16.7803C1.52947 16.09 1.25 15.1156 1.25 14V10C1.25 8.88439 1.52947 7.90999 2.21973 7.21973C2.90999 6.52947 3.88439 6.25 5 6.25H19C20.1156 6.25 21.09 6.52947 21.7803 7.21973C22.4705 7.90999 22.75 8.88439 22.75 10V14Z" fill="#1C252E"/>
<path d="M17.25 12V7C17.25 6.58579 17.5858 6.25 18 6.25C18.4142 6.25 18.75 6.58579 18.75 7V12C18.75 12.4142 18.4142 12.75 18 12.75C17.5858 12.75 17.25 12.4142 17.25 12Z" fill="#1C252E"/>
<path d="M5.25 11V7C5.25 6.58579 5.58579 6.25 6 6.25C6.41421 6.25 6.75 6.58579 6.75 7V11C6.75 11.4142 6.41421 11.75 6 11.75C5.58579 11.75 5.25 11.4142 5.25 11Z" fill="#1C252E"/>
<path d="M10.0577 6.24998C10.4718 6.25418 10.804 6.59364 10.7998 7.00779L10.75 12.0078C10.7457 12.4218 10.4063 12.7541 9.99223 12.75C9.57818 12.7457 9.2459 12.4063 9.25004 11.9922L9.29984 6.99216C9.30415 6.57812 9.64357 6.24584 10.0577 6.24998Z" fill="#1C252E"/>
<path d="M13.25 10V7C13.25 6.58579 13.5858 6.25 14 6.25C14.4142 6.25 14.75 6.58579 14.75 7V10C14.75 10.4142 14.4142 10.75 14 10.75C13.5858 10.75 13.25 10.4142 13.25 10Z" fill="#1C252E"/>
</g>
<defs>
<clipPath id="clip0_167_157">
<rect width="24" height="24" fill="white"/>
</clipPath>
</defs>
</svg>
