<svg width="24" height="24" viewBox="0 0 24 24" fill="none" xmlns="http://www.w3.org/2000/svg">
<path d="M12.4502 14.3997C12.4502 14.2418 12.4342 14.0878 12.4102 13.9387C12.2733 13.9512 12.1365 13.9602 12 13.9602C11.5946 13.9602 11.2089 13.8989 10.8564 13.805L10.8525 13.804C9.769 13.5085 8.85481 12.805 8.28516 11.8743C7.37733 12.3468 6.7501 13.3011 6.75 14.3997C6.75 15.9753 8.024 17.2501 9.59961 17.2503C10.3303 17.2503 10.9919 16.9814 11.4961 16.5247L11.501 16.5198C12.0867 15.9972 12.4502 15.2385 12.4502 14.3997ZM13.9502 14.3997C13.9502 15.6786 13.3945 16.8377 12.5029 17.635C11.7272 18.338 10.7087 18.7503 9.59961 18.7503C7.19556 18.7501 5.25 16.8038 5.25 14.3997C5.25012 12.3928 6.61567 10.7025 8.45508 10.2063L8.59277 10.1819C8.91523 10.157 9.22501 10.3439 9.34766 10.6546C9.67153 11.4761 10.3769 12.1182 11.2461 12.3557C11.4928 12.4213 11.7463 12.4602 12 12.4602C12.2703 12.4602 12.5161 12.4271 12.7344 12.3616L12.875 12.3333C13.2016 12.3002 13.5203 12.4858 13.6465 12.801C13.8421 13.29 13.9502 13.8348 13.9502 14.3997Z" fill="#1C252E"/>
<path d="M14.8501 9.59961C14.8499 8.024 13.5752 6.75 11.9995 6.75C10.424 6.7502 9.15011 8.02412 9.1499 9.59961C9.1499 9.9735 9.22111 10.3316 9.34814 10.6572L9.41357 10.8096C9.73707 11.5118 10.3412 12.0567 11.0854 12.3076L11.2476 12.3564L11.2651 12.3613C11.4834 12.4268 11.7293 12.4599 11.9995 12.46C12.2528 12.46 12.5061 12.4208 12.7524 12.3555C13.622 12.1183 14.3278 11.477 14.6519 10.6553C14.7785 10.3301 14.8501 9.97282 14.8501 9.59961ZM16.3501 9.59961C16.3501 10.1656 16.2412 10.7088 16.0483 11.2031L16.0474 11.2051C15.5514 12.4631 14.4772 13.4409 13.147 13.8037L13.1431 13.8047C12.7907 13.8987 12.4049 13.96 11.9995 13.96C11.6159 13.9599 11.2281 13.9134 10.8521 13.8027C10.8492 13.8019 10.8462 13.8016 10.8433 13.8008C10.8404 13.7999 10.8373 13.7997 10.8345 13.7988V13.7979C9.51551 13.432 8.44637 12.4697 7.95166 11.2031C7.75875 10.7088 7.6499 10.1656 7.6499 9.59961C7.65011 7.1957 9.59559 5.2502 11.9995 5.25C14.4036 5.25 16.3499 7.19558 16.3501 9.59961Z" fill="#1C252E"/>
<path d="M17.25 14.4006C17.25 13.3028 16.6232 12.346 15.7129 11.8673C15.273 12.5882 14.6295 13.1662 13.8623 13.5285C13.9191 13.8101 13.9502 14.1022 13.9502 14.4006C13.9501 15.3505 13.6469 16.2318 13.1279 16.9464C13.5127 17.1401 13.9444 17.2502 14.4004 17.2502C15.9759 17.25 17.2498 15.976 17.25 14.4006ZM18.75 14.4006C18.7498 16.8044 16.8043 18.75 14.4004 18.7502C13.2862 18.7502 12.2704 18.3251 11.501 17.6398C11.3407 17.4969 11.2493 17.2921 11.25 17.0773C11.2508 16.8626 11.3436 16.6585 11.5049 16.5168C12.085 16.0072 12.4501 15.2515 12.4502 14.4006C12.4502 14.0266 12.3781 13.6686 12.251 13.3429C12.1737 13.1448 12.1847 12.9226 12.2803 12.7326C12.3759 12.5428 12.5479 12.4028 12.7529 12.3468C13.6253 12.1089 14.3283 11.4748 14.6514 10.6476L14.7148 10.5207C14.8879 10.2451 15.2256 10.1078 15.5498 10.1974C17.3845 10.7045 18.75 12.3927 18.75 14.4006Z" fill="#1C252E"/>
<path d="M21.25 9C21.25 6.57397 20.7603 5.0708 19.8447 4.15527C18.9292 3.23974 17.426 2.75 15 2.75H9C6.57397 2.75 5.0708 3.23974 4.15527 4.15527C3.23974 5.0708 2.75 6.57397 2.75 9V15C2.75 17.426 3.23974 18.9292 4.15527 19.8447C5.0708 20.7603 6.57397 21.25 9 21.25H15C17.426 21.25 18.9292 20.7603 19.8447 19.8447C20.7603 18.9292 21.25 17.426 21.25 15V9ZM22.75 15C22.75 17.574 22.2397 19.5708 20.9053 20.9053C19.5708 22.2397 17.574 22.75 15 22.75H9C6.42603 22.75 4.4292 22.2397 3.09473 20.9053C1.76026 19.5708 1.25 17.574 1.25 15V9C1.25 6.42603 1.76026 4.4292 3.09473 3.09473C4.4292 1.76026 6.42603 1.25 9 1.25H15C17.574 1.25 19.5708 1.76026 20.9053 3.09473C22.2397 4.4292 22.75 6.42603 22.75 9V15Z" fill="#1C252E"/>
</svg>
