<svg width="24" height="24" viewBox="0 0 24 24" fill="none" xmlns="http://www.w3.org/2000/svg">
<path d="M10.9293 1.61824C11.5593 1.12824 12.4363 1.12855 13.067 1.61726L13.068 1.61629C14.0373 2.36505 15.9673 3.97478 17.6598 6.10457C19.341 8.22022 20.865 10.9453 20.86 13.9102L20.8483 14.3643C20.611 19.0287 16.7412 22.7499 12.0104 22.7501C7.27831 22.7501 3.40886 19.0185 3.1715 14.3546L3.15978 13.9005C3.14468 10.8972 4.65962 8.17279 6.33947 6.06551C8.02624 3.94964 9.95359 2.36433 10.9293 1.61922V1.61824ZM12.149 2.80184C12.0599 2.73278 11.9392 2.73259 11.8502 2.80184L11.8453 2.80672C10.9191 3.51358 9.09452 5.01539 7.51232 7.00008C5.9206 8.99674 4.64628 11.3907 4.65978 13.8956V13.9005C4.65999 17.9467 7.95531 21.2501 12.0104 21.2501C16.0665 21.2498 19.3599 17.9552 19.36 13.9102V13.9083C19.3644 11.4438 18.0834 9.0496 16.485 7.03816C14.8975 5.04045 13.0717 3.51502 12.151 2.80379L12.149 2.80184Z" fill="#1C252E"/>
<path d="M11.25 22V2C11.25 1.58579 11.5858 1.25 12 1.25C12.4142 1.25 12.75 1.58579 12.75 2V22C12.75 22.4142 12.4142 22.75 12 22.75C11.5858 22.75 11.25 22.4142 11.25 22Z" fill="#1C252E"/>
<path d="M19.3723 14.5453C19.7448 14.3643 20.1942 14.5195 20.3752 14.892C20.5562 15.2645 20.4001 15.7139 20.0275 15.8949L12.3283 19.6351C11.9557 19.8161 11.5064 19.6601 11.3254 19.2875C11.1447 18.9151 11.2999 18.4666 11.6721 18.2855L19.3723 14.5453Z" fill="#1C252E"/>
<path d="M19.0422 9.70519C19.4147 9.52425 19.864 9.67945 20.0451 10.0519C20.2261 10.4245 20.07 10.8738 19.6974 11.0548L12.3283 14.6349C11.9557 14.8159 11.5063 14.6598 11.3254 14.2872C11.1448 13.9148 11.2998 13.4663 11.672 13.2853L19.0422 9.70519Z" fill="#1C252E"/>
<path d="M16.7009 5.83618C17.0733 5.6548 17.5225 5.8095 17.7039 6.18189C17.8851 6.5542 17.7304 7.00244 17.3582 7.18384L12.3279 9.63403C11.9556 9.81529 11.5073 9.6606 11.3259 9.28833C11.1445 8.91594 11.2992 8.46678 11.6716 8.2854L16.7009 5.83618Z" fill="#1C252E"/>
</svg>
