<svg width="24" height="24" viewBox="0 0 24 24" fill="none" xmlns="http://www.w3.org/2000/svg">
<path opacity="0.4" d="M7.81 2C6.32 2 5.08 2.36 4.13 3.05C3.71 3.34 3.34 3.71 3.05 4.13C2.36 5.08 2 6.32 2 7.81V16.19C2 19.83 4.17 22 7.81 22H15.28L16.78 21.98C18.01 21.9 19.05 21.55 19.87 20.95C20.29 20.66 20.66 20.29 20.95 19.87C21.64 18.92 22 17.68 22 16.19V7.81C22 4.37 20.06 2.24 16.78 2.03L15.28 2H7.81Z" fill="#1C252E"/>
<path d="M21.98 7.21997H2.03L2 8.71997H22L21.98 7.21997Z" fill="#1C252E"/>
<path d="M8.90988 14.44L11.4699 11.88C11.7599 11.59 12.2399 11.59 12.5299 11.88L15.0899 14.44C15.2399 14.59 15.3099 14.78 15.3099 14.97C15.3099 15.16 15.2399 15.35 15.0899 15.5C14.7999 15.79 14.3199 15.79 14.0299 15.5L11.9999 13.48L9.96988 15.5C9.67988 15.79 9.19988 15.79 8.90988 15.5C8.61988 15.21 8.61988 14.74 8.90988 14.44Z" fill="#1C252E"/>
</svg>
