<svg width="24" height="24" viewBox="0 0 24 24" fill="none" xmlns="http://www.w3.org/2000/svg">
<path opacity="0.4" d="M16.19 2H7.81C4.17 2 2 4.17 2 7.81V16.18C2 19.83 4.17 22 7.81 22H16.18C19.82 22 21.99 19.83 21.99 16.19V7.81C22 4.17 19.83 2 16.19 2Z" fill="#1C252E"/>
<path d="M9.84961 16.45C9.84961 17.58 8.92961 18.5 7.79961 18.5C6.66961 18.5 5.74961 17.58 5.74961 16.45C5.74961 15.58 6.28961 14.85 7.04961 14.55V10.26C6.20961 9.94999 5.59961 9.14999 5.59961 8.19999C5.59961 6.98999 6.58961 5.99999 7.79961 5.99999C9.00961 5.99999 9.99961 6.98999 9.99961 8.19999C9.99961 9.14999 9.38961 9.94999 8.54961 10.26V14.55C9.30961 14.85 9.84961 15.59 9.84961 16.45ZM16.7496 18.5C15.6196 18.5 14.6996 17.58 14.6996 16.45C14.6996 15.58 15.2396 14.85 15.9996 14.55V8.74999C15.9996 8.60999 15.8896 8.49999 15.7496 8.49999H14.6196L14.8296 8.66999C15.1496 8.93999 15.1896 9.40999 14.9296 9.72999C14.7796 9.90999 14.5596 9.99999 14.3496 9.99999C14.1796 9.99999 14.0096 9.93999 13.8696 9.82999L12.0696 8.32999C11.8996 8.17999 11.7996 7.96999 11.7996 7.74999C11.7996 7.52999 11.8996 7.31999 12.0696 7.16999L13.8696 5.66999C14.1896 5.40999 14.6596 5.44999 14.9296 5.76999C15.1996 6.08999 15.1496 6.55999 14.8296 6.82999L14.6196 6.99999H15.7496C16.7096 6.99999 17.4996 7.78999 17.4996 8.74999V14.55C18.2596 14.85 18.7996 15.59 18.7996 16.45C18.7996 17.58 17.8796 18.5 16.7496 18.5Z" fill="#1C252E"/>
</svg>
