<svg width="24" height="24" viewBox="0 0 24 24" fill="none" xmlns="http://www.w3.org/2000/svg">
<path opacity="0.4" d="M12 2C6.48 2 2 6.48 2 12C2 17.52 6.48 22 12 22C17.52 22 22 17.52 22 12C22 6.48 17.52 2 12 2Z" fill="#1C252E"/>
<path d="M8.53043 13.47C8.82043 13.76 8.82043 14.24 8.53043 14.53C8.38043 14.68 8.19043 14.75 8.00043 14.75C7.81043 14.75 7.62043 14.68 7.47043 14.53L5.47043 12.53C5.18043 12.24 5.18043 11.76 5.47043 11.47L7.47043 9.47003C7.76043 9.18003 8.24043 9.18003 8.53043 9.47003C8.82043 9.76003 8.82043 10.24 8.53043 10.53L7.06043 12L8.53043 13.47ZM13.6904 9.96003L11.6904 14.63C11.5704 14.91 11.2904 15.08 11.0004 15.08C10.9004 15.08 10.8004 15.06 10.7104 15.02C10.3304 14.86 10.1504 14.42 10.3204 14.03L12.3204 9.36003C12.4804 8.98003 12.9204 8.80003 13.3004 8.97003C13.6804 9.14003 13.8504 9.58003 13.6904 9.96003ZM18.5304 12.53L16.5304 14.53C16.3804 14.68 16.1904 14.75 16.0004 14.75C15.8104 14.75 15.6204 14.68 15.4704 14.53C15.1804 14.24 15.1804 13.76 15.4704 13.47L16.9404 12L15.4704 10.53C15.1804 10.24 15.1804 9.76003 15.4704 9.47003C15.7604 9.18003 16.2404 9.18003 16.5304 9.47003L18.5304 11.47C18.8204 11.76 18.8204 12.24 18.5304 12.53Z" fill="#1C252E"/>
</svg>
