<svg width="24" height="24" viewBox="0 0 24 24" fill="none" xmlns="http://www.w3.org/2000/svg">
<path opacity="0.4" d="M16 1.96997H8C4 1.96997 2 3.96997 2 7.96997V12.97C2 17.97 4 18.97 8 18.97H8.5C8.78 18.97 9.14 19.15 9.3 19.37L10.8 21.37C11.46 22.25 12.54 22.25 13.2 21.37L14.7 19.37C14.89 19.12 15.19 18.97 15.5 18.97H16C20 18.97 22 16.97 22 12.97V7.96997C22 3.96997 20 1.96997 16 1.96997Z" fill="#1C252E"/>
<path d="M8.53043 12.17C8.82043 12.46 8.82043 12.94 8.53043 13.23C8.38043 13.38 8.19043 13.45 8.00043 13.45C7.81043 13.45 7.62043 13.38 7.47043 13.23L5.47043 11.23C5.18043 10.94 5.18043 10.46 5.47043 10.17L7.47043 8.16998C7.76043 7.87998 8.24043 7.87998 8.53043 8.16998C8.82043 8.45998 8.82043 8.93998 8.53043 9.22998L7.06043 10.7L8.53043 12.17ZM13.6904 8.65998L11.6904 13.33C11.5704 13.61 11.2904 13.78 11.0004 13.78C10.9004 13.78 10.8004 13.76 10.7004 13.72C10.3204 13.56 10.1404 13.12 10.3104 12.73L12.3104 8.05998C12.4704 7.67998 12.9104 7.49998 13.3004 7.66998C13.6804 7.83998 13.8504 8.27998 13.6904 8.65998ZM18.5304 11.23L16.5304 13.23C16.3804 13.38 16.1904 13.45 16.0004 13.45C15.8104 13.45 15.6204 13.38 15.4704 13.23C15.1804 12.94 15.1804 12.46 15.4704 12.17L16.9404 10.7L15.4704 9.22998C15.1804 8.93998 15.1804 8.45998 15.4704 8.16998C15.7604 7.87998 16.2404 7.87998 16.5304 8.16998L18.5304 10.17C18.8204 10.46 18.8204 10.94 18.5304 11.23Z" fill="#1C252E"/>
</svg>
