<svg width="24" height="24" viewBox="0 0 24 24" fill="none" xmlns="http://www.w3.org/2000/svg">
<path opacity="0.4" d="M16.19 2H7.81C4.17 2 2 4.17 2 7.81V16.18C2 19.83 4.17 22 7.81 22H16.18C19.82 22 21.99 19.83 21.99 16.19V7.81C22 4.17 19.83 2 16.19 2Z" fill="#1C252E"/>
<path d="M10.6504 4.80983C11.0503 4.84993 11.3398 5.22044 11.2998 5.62038L10.9102 9.12038H13.75L14.1602 5.46023C14.2101 5.06039 14.5699 4.77012 14.9697 4.80983C15.3697 4.84983 15.6601 5.22038 15.6201 5.62038L15.2305 9.12038H18.8398C19.2398 9.12038 19.5702 9.44993 19.5703 9.84987C19.5703 10.2498 19.2203 10.5803 18.8203 10.5803H15.0498L14.7305 13.43H18.1006C18.5004 13.4302 18.8301 13.7606 18.8301 14.1604C18.8298 14.5601 18.5003 14.8897 18.1006 14.8899H14.5703L14.1602 18.5501C14.1201 18.9199 13.8004 19.2002 13.4307 19.2005H13.3506C12.9506 19.1605 12.6602 18.7899 12.7002 18.3899L13.0898 14.8899H10.25L9.83984 18.5501C9.7998 18.92 9.48025 19.2004 9.11035 19.2005H9.03027C8.63027 19.1605 8.33988 18.7899 8.37988 18.3899L8.77051 14.8899H5.18066C4.7808 14.8899 4.45043 14.5602 4.4502 14.1604C4.4502 13.7604 4.78066 13.43 5.18066 13.43H8.9502L9.27051 10.5803H5.90039C5.50039 10.5803 5.16992 10.2499 5.16992 9.84987C5.16999 9.44993 5.50043 9.12038 5.90039 9.12038H9.43066L9.83984 5.46023C9.87984 5.06023 10.2504 4.76983 10.6504 4.80983ZM10.4199 13.4202H13.2598L13.5801 10.5803H10.7402L10.4199 13.4202Z" fill="#1C252E"/>
</svg>
