<svg width="24" height="24" viewBox="0 0 24 24" fill="none" xmlns="http://www.w3.org/2000/svg">
<path opacity="0.4" d="M7.81 2C6.32 2 5.08 2.36 4.13 3.05C3.71 3.34 3.34 3.71 3.05 4.13C2.36 5.08 2 6.32 2 7.81V16.19C2 19.83 4.17 22 7.81 22H15.28L16.78 21.98C18.01 21.9 19.05 21.55 19.87 20.95C20.29 20.66 20.66 20.29 20.95 19.87C21.64 18.92 22 17.68 22 16.19V7.81C22 4.37 20.06 2.24 16.78 2.03L15.28 2H7.81Z" fill="#1C252E"/>
<path d="M12.1204 12.53L9.56039 15.09C9.41039 15.24 9.22039 15.31 9.03039 15.31C8.84039 15.31 8.65039 15.24 8.50039 15.09C8.21039 14.8 8.21039 14.32 8.50039 14.03L10.5204 12L8.50039 9.97001C8.20039 9.68001 8.20039 9.2 8.50039 8.91C8.80039 8.62 9.27039 8.62 9.56039 8.91L12.1204 11.47C12.4104 11.76 12.4104 12.24 12.1204 12.53Z" fill="#1C252E"/>
<path d="M15.2803 22V2L16.7803 2.03V21.98L15.2803 22Z" fill="#1C252E"/>
</svg>
