<svg width="24" height="24" viewBox="0 0 24 24" fill="none" xmlns="http://www.w3.org/2000/svg">
<path opacity="0.4" d="M16 2H8C4.5 2 3 4 3 7V17C3 20 4.5 22 8 22H16C19.5 22 21 20 21 17V7C21 4 19.5 2 16 2Z" fill="#1C252E"/>
<path d="M10.5304 16.47C10.8204 16.76 10.8204 17.24 10.5304 17.53C10.3804 17.68 10.1904 17.75 10.0004 17.75C9.81043 17.75 9.62043 17.68 9.47043 17.53L7.47043 15.53C7.18043 15.24 7.18043 14.76 7.47043 14.47L9.47043 12.47C9.76043 12.18 10.2404 12.18 10.5304 12.47C10.8204 12.76 10.8204 13.24 10.5304 13.53L9.06043 15L10.5304 16.47ZM16.5304 15.53L14.5304 17.53C14.3804 17.68 14.1904 17.75 14.0004 17.75C13.8104 17.75 13.6204 17.68 13.4704 17.53C13.1804 17.24 13.1804 16.76 13.4704 16.47L14.9404 15L13.4704 13.53C13.1804 13.24 13.1804 12.76 13.4704 12.47C13.7604 12.18 14.2404 12.18 14.5304 12.47L16.5304 14.47C16.8204 14.76 16.8204 15.24 16.5304 15.53ZM18.5004 9.25H16.5004C14.9804 9.25 13.7504 8.02 13.7504 6.5V4.5C13.7504 4.09 14.0904 3.75 14.5004 3.75C14.9104 3.75 15.2504 4.09 15.2504 4.5V6.5C15.2504 7.19 15.8104 7.75 16.5004 7.75H18.5004C18.9104 7.75 19.2504 8.09 19.2504 8.5C19.2504 8.91 18.9104 9.25 18.5004 9.25Z" fill="#1C252E"/>
</svg>
