<svg width="24" height="24" viewBox="0 0 24 24" fill="none" xmlns="http://www.w3.org/2000/svg">
<path opacity="0.4" d="M16.19 2H7.81C4.17 2 2 4.17 2 7.81V16.18C2 19.83 4.17 22 7.81 22H16.18C19.82 22 21.99 19.83 21.99 16.19V7.81C22 4.17 19.83 2 16.19 2Z" fill="#1C252E"/>
<path d="M16.1998 18.25C15.0698 18.25 14.1498 17.33 14.1498 16.2C14.1498 15.54 14.4698 14.96 14.9598 14.58C14.5398 13.48 13.4898 12.72 12.3098 12.76L10.2498 12.77H10.2398C9.62977 12.77 9.04977 12.59 8.55977 12.28V14.3C9.31977 14.6 9.85977 15.34 9.85977 16.2C9.85977 17.33 8.93977 18.25 7.80977 18.25C6.67977 18.25 5.75977 17.33 5.75977 16.2C5.75977 15.33 6.29977 14.6 7.05977 14.3V9.95C6.29977 9.6 5.75977 8.84 5.75977 7.95C5.75977 6.74 6.74977 5.75 7.95977 5.75C9.16977 5.75 10.1598 6.74 10.1598 7.95C10.1598 8.93 9.50977 9.75 8.61977 10.04C8.81977 10.77 9.47977 11.28 10.2398 11.28C10.2398 11.28 10.2398 11.28 10.2498 11.28L12.3098 11.27C12.3198 11.27 12.3198 11.27 12.3298 11.27C14.1698 11.27 15.8198 12.44 16.4198 14.18C17.4498 14.29 18.2598 15.15 18.2598 16.21C18.2498 17.33 17.3298 18.25 16.1998 18.25Z" fill="#1C252E"/>
</svg>
