<svg width="24" height="24" viewBox="0 0 24 24" fill="none" xmlns="http://www.w3.org/2000/svg">
<path opacity="0.4" d="M5.75 16.11V7.89C7.04 7.56 8 6.4 8 5C8 3.34 6.66 2 5 2C3.34 2 2 3.34 2 5C2 6.4 2.96 7.56 4.25 7.89V16.1C2.96 16.44 2 17.6 2 19C2 20.66 3.34 22 5 22C6.66 22 8 20.66 8 19C8 17.6 7.04 16.44 5.75 16.11Z" fill="#1C252E"/>
<path d="M19.75 16.11V6.49999C19.75 4.97999 18.52 3.74999 17 3.74999H14.07L15.48 2.57999C15.8 2.30999 15.84 1.83999 15.58 1.51999C15.31 1.19999 14.84 1.15999 14.52 1.41999L11.52 3.91999C11.35 4.05999 11.25 4.26999 11.25 4.49999C11.25 4.72999 11.35 4.92999 11.52 5.07999L14.52 7.57999C14.66 7.69999 14.83 7.74999 15 7.74999C15.21 7.74999 15.43 7.65999 15.58 7.47999C15.85 7.15999 15.8 6.68999 15.48 6.41999L14.07 5.24999H17C17.69 5.24999 18.25 5.80999 18.25 6.49999V16.11C16.96 16.44 16 17.6 16 19C16 20.66 17.34 22 19 22C20.66 22 22 20.66 22 19C22 17.6 21.04 16.44 19.75 16.11Z" fill="#1C252E"/>
</svg>
