<svg width="24" height="24" viewBox="0 0 24 24" fill="none" xmlns="http://www.w3.org/2000/svg">
<path opacity="0.4" d="M2 7.81V16.19C2 17.68 2.36 18.92 3.05 19.87C3.34 20.29 3.71 20.66 4.13 20.95C4.95 21.55 5.99 21.9 7.22 21.98L8.72 22H16.19C19.83 22 22 19.83 22 16.19V7.81C22 6.32 21.64 5.08 20.95 4.13C20.66 3.71 20.29 3.34 19.87 3.05C18.92 2.36 17.68 2 16.19 2H8.72L7.22 2.03C3.94 2.24 2 4.37 2 7.81Z" fill="#1C252E"/>
<path d="M15.4996 14.03C15.7896 14.32 15.7896 14.8 15.4996 15.09C15.3496 15.24 15.1596 15.31 14.9696 15.31C14.7796 15.31 14.5896 15.24 14.4396 15.09L11.8796 12.53C11.5896 12.24 11.5896 11.76 11.8796 11.47L14.4396 8.91C14.7296 8.62 15.2096 8.62 15.4996 8.91C15.7896 9.2 15.7896 9.68001 15.4996 9.97001L13.4796 12L15.4996 14.03Z" fill="#1C252E"/>
<path d="M7.21973 21.98V2.03L8.71973 2V22L7.21973 21.98Z" fill="#1C252E"/>
</svg>
