<svg width="24" height="24" viewBox="0 0 24 24" fill="none" xmlns="http://www.w3.org/2000/svg">
<path opacity="0.4" d="M16.19 2H7.81C4.17 2 2 4.17 2 7.81V16.18C2 19.83 4.17 22 7.81 22H16.18C19.82 22 21.99 19.83 21.99 16.19V7.81C22 4.17 19.83 2 16.19 2Z" fill="#1C252E"/>
<path d="M10.1302 14.5C10.4202 14.79 10.4202 15.27 10.1302 15.56C9.9802 15.71 9.7902 15.78 9.6002 15.78C9.4102 15.78 9.2202 15.71 9.07019 15.56L6.5802 13.07C5.9902 12.48 5.9902 11.53 6.5802 10.94L9.07019 8.45003C9.36019 8.16003 9.8402 8.16003 10.1302 8.45003C10.4202 8.74003 10.4202 9.22003 10.1302 9.51003L7.6402 12L10.1302 14.5ZM17.4202 13.06L14.9302 15.55C14.7802 15.7 14.5902 15.77 14.4002 15.77C14.2102 15.77 14.0202 15.7 13.8702 15.55C13.5802 15.26 13.5802 14.78 13.8702 14.49L16.3602 12L13.8702 9.50003C13.5802 9.21003 13.5802 8.73003 13.8702 8.44003C14.1602 8.15003 14.6402 8.15003 14.9302 8.44003L17.4202 10.93C18.0102 11.52 18.0102 12.48 17.4202 13.06Z" fill="#1C252E"/>
</svg>
