<svg width="24" height="24" viewBox="0 0 24 24" fill="none" xmlns="http://www.w3.org/2000/svg">
<path d="M2.02 16.78H21.97L22 15.28H2L2.02 16.78Z" fill="#1C252E"/>
<path d="M15.0904 9.55996L12.5304 12.12C12.2404 12.41 11.7604 12.41 11.4704 12.12L8.91043 9.55996C8.76043 9.40996 8.69043 9.21996 8.69043 9.02996C8.69043 8.83996 8.76043 8.63996 8.91043 8.49996C9.20043 8.19996 9.68043 8.19996 9.97043 8.49996L12.0004 10.52L14.0304 8.48996C14.3204 8.19996 14.8004 8.19996 15.0904 8.48996C15.3804 8.77996 15.3804 9.25996 15.0904 9.55996Z" fill="#1C252E"/>
<path opacity="0.4" d="M7.81 2C6.32 2 5.08 2.36 4.13 3.05C3.71 3.34 3.34 3.71 3.05 4.13C2.36 5.08 2 6.32 2 7.81V16.19C2 19.83 4.17 22 7.81 22H15.28L16.78 21.98C18.01 21.9 19.05 21.55 19.87 20.95C20.29 20.66 20.66 20.29 20.95 19.87C21.64 18.92 22 17.68 22 16.19V7.81C22 4.37 20.06 2.24 16.78 2.03L15.28 2H7.81Z" fill="#1C252E"/>
</svg>
