<svg width="24" height="24" viewBox="0 0 24 24" fill="none" xmlns="http://www.w3.org/2000/svg">
<path d="M21.25 9C21.25 6.57397 20.7603 5.0708 19.8447 4.15527C18.9292 3.23974 17.426 2.75 15 2.75H9C6.57397 2.75 5.0708 3.23974 4.15527 4.15527C3.23974 5.0708 2.75 6.57397 2.75 9V15C2.75 17.426 3.23974 18.9292 4.15527 19.8447C5.0708 20.7603 6.57397 21.25 9 21.25H15C17.426 21.25 18.9292 20.7603 19.8447 19.8447C20.7603 18.9292 21.25 17.426 21.25 15V9ZM22.75 15C22.75 17.574 22.2397 19.5708 20.9053 20.9053C19.5708 22.2397 17.574 22.75 15 22.75H9C6.42603 22.75 4.4292 22.2397 3.09473 20.9053C1.76026 19.5708 1.25 17.574 1.25 15V9C1.25 6.42603 1.76026 4.4292 3.09473 3.09473C4.4292 1.76026 6.42603 1.25 9 1.25H15C17.574 1.25 19.5708 1.76026 20.9053 3.09473C22.2397 4.4292 22.75 6.42603 22.75 9V15Z" fill="#1C252E"/>
<path d="M21.9805 12.24C22.3945 12.2402 22.7305 12.5759 22.7305 12.99C22.7305 13.404 22.3945 13.7397 21.9805 13.74H18.2402C17.7669 13.74 17.3352 14.0073 17.1211 14.4353L16.2314 16.2244L16.2305 16.2253C15.7645 17.1571 14.8161 17.7498 13.7695 17.7498H10.2402C9.95247 17.7498 8.5391 17.7478 7.77148 16.24L7.76855 16.2341L6.87891 14.4451C6.66477 14.0171 6.23306 13.7498 5.75977 13.7498H2C1.58579 13.7498 1.25 13.414 1.25 12.9998C1.25013 12.5857 1.58586 12.2498 2 12.2498H5.75977C6.80619 12.2498 7.75471 12.8425 8.2207 13.7742L8.22168 13.7761L9.1084 15.5593L9.17676 15.6814C9.53231 16.2518 10.06 16.2498 10.2402 16.2498H13.7695C14.243 16.2498 14.6756 15.9826 14.8896 15.5544L15.7783 13.7664L15.7793 13.7644C16.2453 12.8327 17.1937 12.24 18.2402 12.24H21.9805Z" fill="#1C252E"/>
<path d="M13.6699 6.25C14.0841 6.25004 14.4199 6.58581 14.4199 7C14.4199 7.41419 14.0841 7.74996 13.6699 7.75H10.3398C9.92563 7.75 9.58984 7.41421 9.58984 7C9.58984 6.58579 9.92563 6.25 10.3398 6.25H13.6699Z" fill="#1C252E"/>
<path d="M14.5 9.25C14.9142 9.25 15.25 9.58579 15.25 10C15.25 10.4142 14.9142 10.75 14.5 10.75H9.5C9.08579 10.75 8.75 10.4142 8.75 10C8.75 9.58579 9.08579 9.25 9.5 9.25H14.5Z" fill="#1C252E"/>
</svg>
