<svg width="24" height="24" viewBox="0 0 24 24" fill="none" xmlns="http://www.w3.org/2000/svg">
<path d="M21.2302 6.79004C21.2302 5.31142 20.8594 4.3383 20.2507 3.72949C19.642 3.12076 18.6688 2.75007 17.1902 2.75H10.7898C9.43104 2.75 8.49917 3.0638 7.88843 3.58301C7.44198 3.96257 7.10805 4.50212 6.92359 5.25H13.1902C14.9011 5.25007 16.3227 5.67953 17.3113 6.66797C18.3 7.65668 18.7302 9.07884 18.7302 10.79V14.6562C19.4784 14.4724 20.0181 14.1405 20.3972 13.6953C20.9158 13.0863 21.2302 12.1544 21.2302 10.79V6.79004ZM22.7302 10.79C22.7302 12.3657 22.3687 13.6945 21.5398 14.668C20.7028 15.6509 19.4837 16.1606 18.0037 16.2871C17.7782 16.3064 17.556 16.2227 17.3992 16.0596C17.2425 15.8965 17.1681 15.6717 17.1961 15.4473C17.2208 15.2491 17.2302 15.0324 17.2302 14.79V10.79C17.2302 9.31142 16.8594 8.3383 16.2507 7.72949C15.642 7.12076 14.6688 6.75007 13.1902 6.75H6.7898C6.54748 6.75 6.33077 6.7594 6.13257 6.78418C5.90828 6.81214 5.68329 6.7376 5.52027 6.58105C5.35726 6.42429 5.27359 6.2019 5.29273 5.97656C5.41939 4.49515 5.93284 3.27594 6.91675 2.43945C7.89099 1.61137 9.21877 1.25 10.7898 1.25H17.1902C18.9011 1.25007 20.3227 1.67953 21.3113 2.66797C22.3 3.65668 22.7302 5.07884 22.7302 6.79004V10.79Z" fill="#1C252E"/>
<path d="M13.5039 12.25C14.0562 12.25 14.5039 12.6977 14.5039 13.25C14.5039 13.8023 14.0562 14.25 13.5039 14.25H13.4951C12.9428 14.25 12.4951 13.8023 12.4951 13.25C12.4951 12.6977 12.9428 12.25 13.4951 12.25H13.5039Z" fill="#1C252E"/>
<path d="M10.0039 12.25C10.5562 12.25 11.0039 12.6977 11.0039 13.25C11.0039 13.8023 10.5562 14.25 10.0039 14.25H9.99512C9.44283 14.25 8.99512 13.8023 8.99512 13.25C8.99512 12.6977 9.44283 12.25 9.99512 12.25H10.0039Z" fill="#1C252E"/>
<path d="M6.50391 12.25C7.05619 12.25 7.50391 12.6977 7.50391 13.25C7.50391 13.8023 7.05619 14.25 6.50391 14.25H6.49512C5.94283 14.25 5.49512 13.8023 5.49512 13.25C5.49512 12.6977 5.94283 12.25 6.49512 12.25H6.50391Z" fill="#1C252E"/>
<path d="M17.2305 10.79C17.2305 9.31143 16.8596 8.3383 16.251 7.72949C15.6422 7.12076 14.669 6.75007 13.1904 6.75H6.79004C6.54771 6.75 6.33101 6.7594 6.13281 6.78418C6.12319 6.78538 6.11317 6.78628 6.10352 6.78711C4.89513 6.89049 4.09398 7.28765 3.58301 7.88867C3.06381 8.49941 2.75 9.43129 2.75 10.79V14.79C2.75 16.7255 3.14406 17.6413 3.69238 18.1201C4.26594 18.6208 5.20753 18.8301 6.79004 18.8301H7.19043C7.45288 18.8302 7.69751 18.9137 7.88184 19.0068C8.02052 19.0769 8.1717 19.1755 8.30273 19.3047L8.42578 19.4443L8.42969 19.4502L9.62988 21.0498L9.63086 21.0518C9.77682 21.2472 9.91479 21.2822 9.99023 21.2822C10.0657 21.2822 10.2029 21.2468 10.3486 21.0518L10.3496 21.0498L11.5498 19.4502C11.8414 19.0613 12.304 18.8301 12.79 18.8301H13.1904C14.5499 18.83 15.4816 18.5185 16.0918 18.001C16.692 17.4917 17.0889 16.6905 17.1924 15.4766L17.1953 15.4473C17.2201 15.2491 17.2305 15.0324 17.2305 14.79V10.79ZM18.7305 14.79C18.7305 15.0676 18.7198 15.3511 18.6846 15.6328C18.5538 17.1055 18.0408 18.3143 17.0625 19.1445C16.0878 19.9715 14.7601 20.33 13.1904 20.3301H12.79C12.7849 20.3301 12.7765 20.3315 12.7676 20.3359C12.759 20.3403 12.7531 20.3456 12.75 20.3496L11.5498 21.9502L11.5488 21.9492C11.1649 22.4627 10.6091 22.7821 9.99023 22.7822C9.37098 22.7822 8.81366 22.4632 8.42969 21.9492L7.24609 20.3711C7.23767 20.3646 7.22319 20.3549 7.20508 20.3457C7.1887 20.3374 7.1748 20.3327 7.16602 20.3301H6.79004C5.18273 20.3301 3.72905 20.1442 2.70508 19.25C1.65603 18.3338 1.25 16.8544 1.25 14.79V10.79C1.25 9.21901 1.61138 7.89123 2.43945 6.91699C3.27047 5.93951 4.47895 5.42773 5.94727 5.29688V5.2959C6.22898 5.2607 6.51245 5.25 6.79004 5.25H13.1904C14.9013 5.25007 16.3229 5.67952 17.3115 6.66797C18.3002 7.65668 18.7305 9.07884 18.7305 10.79V14.79Z" fill="#1C252E"/>
</svg>
