<svg width="24" height="24" viewBox="0 0 24 24" fill="none" xmlns="http://www.w3.org/2000/svg">
<path d="M21.25 16V8C21.25 6.11561 20.7795 4.84001 19.9697 4.03027C19.16 3.22053 17.8844 2.75 16 2.75H8C6.11561 2.75 4.84001 3.22053 4.03027 4.03027C3.22053 4.84001 2.75 6.11561 2.75 8V21C2.75 21.1358 2.86421 21.25 3 21.25H16C17.8844 21.25 19.16 20.7795 19.9697 19.9697C20.7795 19.16 21.25 17.8844 21.25 16ZM22.75 16C22.75 18.1156 22.2205 19.84 21.0303 21.0303C19.84 22.2205 18.1156 22.75 16 22.75H3C2.03579 22.75 1.25 21.9642 1.25 21V8C1.25 5.88439 1.77947 4.15999 2.96973 2.96973C4.15999 1.77947 5.88439 1.25 8 1.25H16C18.1156 1.25 19.84 1.77947 21.0303 2.96973C22.2205 4.15999 22.75 5.88439 22.75 8V16Z" fill="#1C252E"/>
<path d="M15.5 11.25C15.9142 11.25 16.25 11.5858 16.25 12C16.25 12.4142 15.9142 12.75 15.5 12.75H8.5C8.08579 12.75 7.75 12.4142 7.75 12C7.75 11.5858 8.08579 11.25 8.5 11.25H15.5Z" fill="#1C252E"/>
<path d="M11.25 15.5V8.5C11.25 8.08579 11.5858 7.75 12 7.75C12.4142 7.75 12.75 8.08579 12.75 8.5V15.5C12.75 15.9142 12.4142 16.25 12 16.25C11.5858 16.25 11.25 15.9142 11.25 15.5Z" fill="#1C252E"/>
</svg>
