<svg width="24" height="24" viewBox="0 0 24 24" fill="none" xmlns="http://www.w3.org/2000/svg">
<path d="M20.25 16C20.25 15.4357 20.2483 14.961 20.1934 14.54C20.1393 14.1258 20.0397 13.8248 19.8828 13.5977C19.5994 13.1875 18.9292 12.75 17 12.75C16.5491 12.75 16.3322 12.7981 16.1924 12.8525C16.0521 12.9072 15.9376 12.986 15.6953 13.167L14.7256 14.1953L14.7246 14.1943C13.2468 15.7698 10.7487 15.7665 9.26465 14.1953L9.2627 14.1924L8.30176 13.165C8.06142 12.9856 7.94734 12.907 7.80762 12.8525C7.66781 12.7981 7.45095 12.75 7 12.75C5.07084 12.75 4.40058 13.1875 4.11719 13.5977C3.96028 13.8248 3.86074 14.1258 3.80664 14.54C3.75169 14.961 3.75 15.4357 3.75 16V17C3.75 17.7019 3.75167 18.3081 3.82227 18.8486C3.89198 19.3822 4.02283 19.7907 4.24219 20.1084C4.65068 20.6999 5.57111 21.25 8 21.25H16C17.8613 21.25 18.8617 20.7337 19.4229 20.0566C20.0077 19.3509 20.25 18.3133 20.25 17V16ZM21.75 17C21.75 18.4466 21.4923 19.9095 20.5772 21.0137C19.6383 22.1464 18.1385 22.75 16 22.75H8C5.4289 22.75 3.84933 22.1794 3.00782 20.9609C2.60243 20.3738 2.42051 19.7053 2.33399 19.043C2.24834 18.3873 2.25 17.6781 2.25 17V16C2.25 15.4595 2.24837 14.8818 2.31836 14.3457C2.38926 13.8028 2.53982 13.2417 2.88282 12.7451C3.59943 11.7078 4.92917 11.25 7 11.25C7.54882 11.25 7.97235 11.307 8.35254 11.4551C8.72369 11.5997 9.0036 11.8152 9.25 12C9.2851 12.0263 9.31769 12.0558 9.34766 12.0879L10.3545 13.165H10.3555C11.2508 14.1129 12.7504 14.1092 13.6328 13.167L13.6348 13.165L14.6543 12.085C14.6836 12.054 14.7159 12.0256 14.75 12C14.9964 11.8152 15.2763 11.5997 15.6475 11.4551C16.0277 11.307 16.4512 11.25 17 11.25C19.0708 11.25 20.4006 11.7078 21.1172 12.7451C21.4602 13.2417 21.6108 13.8028 21.6816 14.3457C21.7516 14.8818 21.75 15.4595 21.75 16V17Z" fill="#1C252E"/>
<path d="M18.25 12V6C18.25 5.43565 18.2483 4.961 18.1934 4.54004C18.1393 4.12579 18.0397 3.82479 17.8828 3.59766C17.5994 3.18745 16.9292 2.75 15 2.75H9C7.07084 2.75 6.40058 3.18745 6.11719 3.59766C5.96028 3.82479 5.86074 4.12579 5.80664 4.54004C5.75169 4.961 5.75 5.43565 5.75 6V12C5.75 12.4142 5.41422 12.75 5 12.75C4.58579 12.75 4.25 12.4142 4.25 12V6C4.25 5.45951 4.24837 4.88182 4.31836 4.3457C4.38926 3.80284 4.53982 3.24169 4.88282 2.74512C5.59943 1.70782 6.92917 1.25 9 1.25H15C17.0708 1.25 18.4006 1.70782 19.1172 2.74512C19.4602 3.24169 19.6107 3.80284 19.6816 4.3457C19.7516 4.88182 19.75 5.45951 19.75 6V12C19.75 12.4142 19.4142 12.75 19 12.75C18.5858 12.75 18.25 12.4142 18.25 12Z" fill="#1C252E"/>
<path d="M13.8799 8.48001C14.2941 8.48005 14.6299 8.81582 14.6299 9.23001C14.6299 9.6442 14.2941 9.97997 13.8799 9.98001H10.5498C10.1356 9.98001 9.7998 9.64422 9.7998 9.23001C9.7998 8.8158 10.1356 8.48001 10.5498 8.48001H13.8799Z" fill="#1C252E"/>
<path d="M14.7197 5.48001C15.1339 5.48001 15.4697 5.8158 15.4697 6.23001C15.4697 6.64422 15.1339 6.98001 14.7197 6.98001H9.71973C9.30551 6.98001 8.96973 6.64422 8.96973 6.23001C8.96973 5.8158 9.30551 5.48001 9.71973 5.48001H14.7197Z" fill="#1C252E"/>
</svg>
