<svg width="24" height="24" viewBox="0 0 24 24" fill="none" xmlns="http://www.w3.org/2000/svg">
<path d="M17.5303 12.8997V9.76001C17.5303 8.62692 17.2447 7.90979 16.8096 7.4729C16.3755 7.03722 15.6676 6.7555 14.5527 6.76001H9.51953C9.34411 6.76003 9.17069 6.76934 9.00879 6.78638C9.00377 6.78691 8.99819 6.78693 8.99316 6.78735C8.06956 6.86582 7.48317 7.1651 7.11621 7.59595C6.74112 8.0365 6.50004 8.72615 6.5 9.76978V12.9104C6.50005 14.4165 6.80691 15.0741 7.18262 15.4026C7.58338 15.753 8.26676 15.9201 9.50977 15.9202H9.82031C10.0613 15.9202 10.2797 15.9984 10.4355 16.0774C10.5529 16.1369 10.6853 16.2231 10.8027 16.3381L10.9141 16.4631L10.9209 16.4719L11.8604 17.7297L11.9248 17.802C11.944 17.819 11.9605 17.8295 11.9727 17.8362C11.9955 17.8486 12.0091 17.8498 12.0146 17.8499C12.0199 17.8499 12.0334 17.8488 12.0566 17.8362C12.0809 17.823 12.1224 17.7932 12.1699 17.7297L13.1084 16.4719H13.1094C13.377 16.1005 13.8022 15.9202 14.21 15.9202H14.5195C15.5631 15.9202 16.2527 15.679 16.6934 15.304C17.1243 14.937 17.4244 14.3507 17.5029 13.427L17.5039 13.4114C17.521 13.2493 17.5303 13.0753 17.5303 12.8997ZM19.0303 12.8997C19.0303 13.124 19.019 13.3507 18.9961 13.5686L18.9951 13.5676C18.8915 14.7574 18.4768 15.7563 17.666 16.4465C16.8616 17.1312 15.7756 17.4202 14.5195 17.4202H14.2725L13.3711 18.6282L13.3701 18.6301C13.043 19.0662 12.5613 19.3499 12.0146 19.3499C11.4681 19.3497 10.9872 19.0661 10.6602 18.6301L10.6592 18.6282L9.75781 17.4202H9.50977C8.24314 17.4201 7.04696 17.2769 6.19531 16.5325C5.31862 15.766 5.00004 14.5438 5 12.9104V9.76978C5.00004 8.51387 5.28905 7.42857 5.97363 6.62427C6.66373 5.81373 7.66215 5.39892 8.85156 5.29517V5.29419C9.06928 5.27127 9.29537 5.26002 9.51953 5.26001H14.5498V5.26099C15.9035 5.25599 17.0602 5.5982 17.873 6.41431C18.6853 7.22989 19.0303 8.39321 19.0303 9.76001V12.8997Z" fill="#1C252E"/>
<path d="M21.25 9C21.25 6.57397 20.7603 5.0708 19.8447 4.15527C18.9292 3.23974 17.426 2.75 15 2.75H9C6.57397 2.75 5.0708 3.23974 4.15527 4.15527C3.23974 5.0708 2.75 6.57397 2.75 9V15C2.75 17.426 3.23974 18.9292 4.15527 19.8447C5.0708 20.7603 6.57397 21.25 9 21.25H15C17.426 21.25 18.9292 20.7603 19.8447 19.8447C20.7603 18.9292 21.25 17.426 21.25 15V9ZM22.75 15C22.75 17.574 22.2397 19.5708 20.9053 20.9053C19.5708 22.2397 17.574 22.75 15 22.75H9C6.42603 22.75 4.4292 22.2397 3.09473 20.9053C1.76026 19.5708 1.25 17.574 1.25 15V9C1.25 6.42603 1.76026 4.4292 3.09473 3.09473C4.4292 1.76026 6.42603 1.25 9 1.25H15C17.574 1.25 19.5708 1.76026 20.9053 3.09473C22.2397 4.4292 22.75 6.42603 22.75 9V15Z" fill="#1C252E"/>
</svg>
