<svg width="24" height="24" viewBox="0 0 24 24" fill="none" xmlns="http://www.w3.org/2000/svg">
<path d="M21.25 11.5V8.5C21.25 6.89295 20.7942 5.86869 20.1143 5.2373C19.4242 4.59664 18.385 4.25 17 4.25H7C5.61505 4.25 4.57576 4.59664 3.88574 5.2373C3.20579 5.86869 2.75 6.89295 2.75 8.5V15.5C2.75 17.107 3.20579 18.1313 3.88574 18.7627C4.57576 19.4034 5.61505 19.75 7 19.75H12C12.4142 19.75 12.75 20.0858 12.75 20.5C12.75 20.9142 12.4142 21.25 12 21.25H7C5.38503 21.25 3.92424 20.8466 2.86426 19.8623C1.79429 18.8687 1.25 17.3929 1.25 15.5V8.5C1.25 6.60712 1.79429 5.13131 2.86426 4.1377C3.92424 3.15342 5.38503 2.75 7 2.75H17C18.615 2.75 20.0758 3.15342 21.1357 4.1377C22.2057 5.13131 22.75 6.60712 22.75 8.5V11.5C22.75 11.9142 22.4142 12.25 22 12.25C21.5858 12.25 21.25 11.9142 21.25 11.5Z" fill="#1C252E"/>
<path d="M16.532 8.4141C16.8556 8.15573 17.3272 8.20867 17.5857 8.53227C17.844 8.85591 17.7911 9.32751 17.4675 9.58598L14.3376 12.086L14.3366 12.087C13.0334 13.1244 10.9564 13.1243 9.65305 12.087L9.6511 12.085L6.53098 9.585C6.20776 9.32599 6.15577 8.85453 6.41477 8.53129C6.67379 8.20807 7.14525 8.15608 7.46848 8.41508L10.5866 10.9131C11.3433 11.5155 12.6464 11.5155 13.4031 10.9131L16.532 8.4141Z" fill="#1C252E"/>
<path d="M20.6504 18.2002C20.6504 16.8471 19.5532 15.7501 18.2002 15.75C16.8471 15.75 15.75 16.8471 15.75 18.2002C15.7501 19.5532 16.8471 20.6504 18.2002 20.6504C19.5531 20.6503 20.6503 19.5531 20.6504 18.2002ZM22.1504 18.2002C22.1503 20.3816 20.3816 22.1503 18.2002 22.1504C16.0187 22.1504 14.2501 20.3816 14.25 18.2002C14.25 16.0187 16.0187 14.25 18.2002 14.25C20.3816 14.2501 22.1504 16.0187 22.1504 18.2002Z" fill="#1C252E"/>
<path d="M20.4697 20.4697C20.7626 20.1768 21.2373 20.1768 21.5302 20.4697L22.5302 21.4697C22.8231 21.7626 22.8231 22.2373 22.5302 22.5302C22.2373 22.8231 21.7626 22.8231 21.4697 22.5302L20.4697 21.5302C20.1768 21.2373 20.1768 20.7626 20.4697 20.4697Z" fill="#1C252E"/>
</svg>
