<svg width="24" height="24" viewBox="0 0 24 24" fill="none" xmlns="http://www.w3.org/2000/svg">
<path d="M21.25 16V8C21.25 6.11561 20.7795 4.84001 19.9697 4.03027C19.16 3.22053 17.8844 2.75 16 2.75H8C6.11561 2.75 4.84001 3.22053 4.03027 4.03027C3.22053 4.84001 2.75 6.11561 2.75 8V21C2.75 21.1358 2.86421 21.25 3 21.25H16C17.8844 21.25 19.16 20.7795 19.9697 19.9697C20.7795 19.16 21.25 17.8844 21.25 16ZM22.75 16C22.75 18.1156 22.2205 19.84 21.0303 21.0303C19.84 22.2205 18.1156 22.75 16 22.75H3C2.03579 22.75 1.25 21.9642 1.25 21V8C1.25 5.88439 1.77947 4.15999 2.96973 2.96973C4.15999 1.77947 5.88439 1.25 8 1.25H16C18.1156 1.25 19.84 1.77947 21.0303 2.96973C22.2205 4.15999 22.75 5.88439 22.75 8V16Z" fill="#1C252E"/>
<path d="M14.3116 6.2624C15.148 6.18278 15.9453 6.56033 16.6993 7.31904C17.4561 8.0759 17.8287 8.87578 17.7452 9.71065C17.6655 10.5055 17.1875 11.1433 16.7002 11.6306L11.5098 16.82C11.3333 16.9965 11.1097 17.1379 10.9063 17.238C10.7019 17.3386 10.4568 17.4282 10.2159 17.4626H10.2149L8.23442 17.7429H8.23344C7.67695 17.8202 7.12534 17.6706 6.73247 17.278C6.33966 16.8852 6.18946 16.3336 6.26665 15.7771L6.26762 15.7751L6.54692 13.7946V13.7937C6.58131 13.553 6.67108 13.3085 6.77153 13.1042C6.87165 12.9007 7.01296 12.6763 7.1895 12.4997L12.3799 7.30928C12.8723 6.81702 13.5135 6.3385 14.3116 6.2624ZM14.4532 7.75557C14.1766 7.78208 13.8478 7.96263 13.4405 8.36983L8.25005 13.5603C8.22658 13.5838 8.173 13.655 8.11821 13.7663C8.06398 13.8766 8.03796 13.9663 8.03227 14.0056L7.752 15.9821C7.72932 16.1455 7.78092 16.2054 7.79301 16.2175C7.80595 16.2302 7.86495 16.2789 8.02641 16.2565L10.004 15.9772L10.0967 15.9528C10.138 15.939 10.1888 15.9195 10.2442 15.8923C10.3554 15.8375 10.4258 15.7829 10.4493 15.7595L15.6397 10.569C16.0422 10.1665 16.2242 9.83882 16.252 9.56123C16.2758 9.32374 16.2025 8.94344 15.6397 8.38057L15.6377 8.37861C15.0727 7.80925 14.6906 7.73293 14.4532 7.75557Z" fill="#1C252E"/>
<path d="M11.9673 7.85722C12.3661 7.74567 12.7804 7.97899 12.8921 8.37772C13.262 9.69714 14.2956 10.7382 15.6206 11.1072C16.0196 11.2183 16.2532 11.632 16.1421 12.031C16.031 12.4301 15.6173 12.6636 15.2183 12.5525C13.3835 12.0416 11.957 10.6024 11.4468 8.78202C11.3353 8.38328 11.5686 7.96896 11.9673 7.85722Z" fill="#1C252E"/>
</svg>
