<svg width="24" height="24" viewBox="0 0 24 24" fill="none" xmlns="http://www.w3.org/2000/svg">
<path d="M8.25 5.25C8.25 5.0805 8.25963 4.91375 8.27637 4.75H6.5C5.26511 4.75 4.35056 5.0588 3.74805 5.61816C3.15559 6.1683 2.75 7.06795 2.75 8.5V13.9004C2.75007 15.3321 3.1557 16.2312 3.74805 16.7812C4.35056 17.3407 5.26497 17.6504 6.5 17.6504H15.5C16.735 17.6504 17.6494 17.3407 18.252 16.7812C18.8443 16.2312 19.2499 15.3321 19.25 13.9004V13.123C19.0862 13.1398 18.9195 13.1504 18.75 13.1504H16.376L13.6768 14.9541L13.6689 14.959L13.668 14.958C12.7496 15.5553 11.5 14.9076 11.5 13.79V13.0908C10.6672 12.9597 9.92619 12.6069 9.35938 12.04C8.6275 11.308 8.25008 10.2864 8.25 9.15039V5.25ZM9.75 9.15039C9.75008 9.95371 10.0123 10.5717 10.4199 10.9795C10.8278 11.3874 11.4463 11.6504 12.25 11.6504C12.6642 11.6504 13 11.9862 13 12.4004V13.6016L15.7334 11.7764L15.8301 11.7217C15.9297 11.6747 16.0393 11.6504 16.1504 11.6504H18.75C19.1218 11.6504 19.4593 11.592 19.7568 11.4902C19.9859 11.4119 20.2395 11.449 20.4365 11.5898C20.6333 11.7307 20.75 11.9582 20.75 12.2002V13.9004C20.7499 15.6182 20.2549 16.9686 19.2725 17.8809C18.3 18.7837 16.9649 19.1504 15.5 19.1504H6.5C5.03513 19.1504 3.70001 18.7837 2.72754 17.8809C1.74506 16.9686 1.25007 15.6182 1.25 13.9004V8.5C1.25 6.78205 1.74499 5.4319 2.72754 4.51953C3.70002 3.61652 5.03504 3.25 6.5 3.25H9.2002C9.44222 3.25006 9.66978 3.3666 9.81055 3.56348C9.95135 3.76045 9.98755 4.01407 9.90918 4.24316C9.80748 4.54062 9.75 4.87815 9.75 5.25V9.15039Z" fill="#1C252E"/>
<path d="M21.25 5.25C21.25 4.44544 20.9853 3.83299 20.5762 3.42383C20.167 3.01466 19.5546 2.75 18.75 2.75H12.25C11.0397 2.75 10.2289 3.34435 9.90723 4.25098C9.80714 4.54658 9.75 4.88131 9.75 5.25V9.15039C9.75008 9.95371 10.0123 10.5717 10.4199 10.9795C10.8278 11.3874 11.4463 11.6504 12.25 11.6504C12.6642 11.6504 13 11.9862 13 12.4004V13.6016L15.7334 11.7764L15.8301 11.7217C15.9297 11.6747 16.0393 11.6504 16.1504 11.6504H18.75C19.1218 11.6504 19.4593 11.592 19.7568 11.4902C20.6591 11.1667 21.2499 10.357 21.25 9.15039V5.25ZM22.75 9.15039C22.7499 10.92 21.8242 12.349 20.251 12.9072L20.2432 12.9092C19.7808 13.0674 19.278 13.1504 18.75 13.1504H16.376L13.6768 14.9541L13.6689 14.959L13.668 14.958C12.7496 15.5553 11.5 14.9076 11.5 13.79V13.0908C10.6672 12.9597 9.92619 12.6069 9.35938 12.04C8.6275 11.308 8.25008 10.2864 8.25 9.15039V5.25C8.25 4.72205 8.33204 4.21926 8.49023 3.75684L8.49316 3.74902L8.6084 3.46191C9.2319 2.06385 10.5909 1.25 12.25 1.25H18.75C19.8954 1.25 20.9084 1.63495 21.6367 2.36328C22.3651 3.09162 22.75 4.10456 22.75 5.25V9.15039Z" fill="#1C252E"/>
<path d="M14.6006 21.25C15.0147 21.2501 15.3506 21.5859 15.3506 22C15.3506 22.4141 15.0147 22.7499 14.6006 22.75H7.40039C6.98618 22.75 6.65039 22.4142 6.65039 22C6.65039 21.5858 6.98618 21.25 7.40039 21.25H14.6006Z" fill="#1C252E"/>
<path d="M10.25 21.9996V18.4C10.25 17.9858 10.5858 17.65 11 17.65C11.4142 17.65 11.75 17.9858 11.75 18.4V21.9996C11.75 22.4138 11.4142 22.7496 11 22.7496C10.5858 22.7496 10.25 22.4138 10.25 21.9996Z" fill="#1C252E"/>
<path d="M18.5039 6.5C18.9181 6.5 19.2539 6.83579 19.2539 7.25C19.2539 7.66421 18.9181 8 18.5039 8H18.4951C18.0809 8 17.7451 7.66421 17.7451 7.25C17.7451 6.83579 18.0809 6.5 18.4951 6.5H18.5039Z" fill="#1C252E"/>
<path d="M15.7041 6.5C16.1183 6.5 16.4541 6.83579 16.4541 7.25C16.4541 7.66421 16.1183 8 15.7041 8H15.6953C15.2811 8 14.9453 7.66421 14.9453 7.25C14.9453 6.83579 15.2811 6.5 15.6953 6.5H15.7041Z" fill="#1C252E"/>
<path d="M12.9043 6.5C13.3185 6.5 13.6543 6.83579 13.6543 7.25C13.6543 7.66421 13.3185 8 12.9043 8H12.8955C12.4813 8 12.1455 7.66421 12.1455 7.25C12.1455 6.83579 12.4813 6.5 12.8955 6.5H12.9043Z" fill="#1C252E"/>
</svg>
