<svg width="24" height="24" viewBox="0 0 24 24" fill="none" xmlns="http://www.w3.org/2000/svg">
<path d="M1.25 13V8C1.25 5.88439 1.77947 4.15999 2.96973 2.96973C4.15999 1.77947 5.88439 1.25 8 1.25H12C12.4142 1.25 12.75 1.58579 12.75 2C12.75 2.41421 12.4142 2.75 12 2.75H8C6.11561 2.75 4.84001 3.22053 4.03027 4.03027C3.22053 4.84001 2.75 6.11561 2.75 8V13C2.75 15.4353 3.24393 16.6541 3.99414 17.3105C4.76914 17.9886 6.01338 18.25 8 18.25H8.5C8.7828 18.25 9.05802 18.338 9.27441 18.4453C9.48696 18.5507 9.72666 18.7168 9.89941 18.9502H9.90039L11.4004 20.9502C11.6095 21.2288 11.8338 21.3096 12 21.3096C12.1662 21.3096 12.3905 21.2288 12.5996 20.9502L14.1025 18.9463C14.4322 18.5125 14.9521 18.25 15.5 18.25H16C17.8844 18.25 19.16 17.7795 19.9697 16.9697C20.7795 16.16 21.25 14.8844 21.25 13V8C21.25 7.58579 21.5858 7.25 22 7.25C22.4142 7.25 22.75 7.58579 22.75 8V13C22.75 15.1156 22.2205 16.84 21.0303 18.0303C19.84 19.2205 18.1156 19.75 16 19.75H15.5C15.428 19.75 15.3472 19.7873 15.2969 19.8535L13.7998 21.8496C13.349 22.4507 12.7037 22.8096 12 22.8096C11.2963 22.8096 10.651 22.4507 10.2002 21.8496L8.7002 19.8496C8.70173 19.8514 8.69726 19.8468 8.68457 19.8369C8.6665 19.8228 8.64061 19.805 8.6084 19.7891C8.57624 19.7731 8.54511 19.7625 8.52051 19.7559C8.49436 19.7488 8.4876 19.75 8.5 19.75H8C5.98674 19.75 4.23087 19.5113 3.00586 18.4395C1.75617 17.3459 1.25 15.5646 1.25 13Z" fill="#1C252E"/>
<path d="M20.1553 3.50037C20.1552 3.22328 20.0623 2.9901 19.9209 2.83044C19.7807 2.67237 19.5918 2.58637 19.374 2.5863C19.1794 2.5863 18.9752 2.67025 18.7783 2.95447C18.7363 3.01515 18.6999 3.07857 18.6689 3.13904L18.001 4.44568L17.333 3.13904C17.302 3.07842 17.2656 3.01516 17.2236 2.95447C17.0268 2.67019 16.8226 2.58639 16.6279 2.5863C16.41 2.5863 16.2213 2.67231 16.0811 2.83044C15.9395 2.99011 15.8458 3.22312 15.8457 3.50037C15.8457 3.97912 16.1389 4.3102 16.959 5.07166L17.3027 5.39294C17.5237 5.60283 17.7585 5.83723 18 6.10095C18.3723 5.69428 18.7322 5.36014 19.043 5.07166C19.8629 4.31036 20.1553 3.97906 20.1553 3.50037ZM21.6553 3.50037C21.6553 4.75043 20.7551 5.52913 20.0635 6.17126C19.6254 6.57798 19.1674 7.00368 18.7168 7.56677C18.5469 7.77913 18.2865 7.91239 18.001 7.91248C17.7154 7.91248 17.4551 7.77909 17.2852 7.56677C16.8346 7.00372 16.3765 6.57795 15.9385 6.17126C15.2469 5.52912 14.3457 4.75044 14.3457 3.50037C14.3458 2.88795 14.5538 2.29124 14.959 1.83435L14.96 1.83533C15.3872 1.3538 15.9846 1.0863 16.6279 1.0863C17.1558 1.08637 17.6209 1.27481 18 1.59509C18.3793 1.27433 18.8456 1.0863 19.374 1.0863C20.0173 1.08637 20.6148 1.35369 21.042 1.83533L21.043 1.83435C21.4482 2.29124 21.6552 2.88795 21.6553 3.50037Z" fill="#1C252E"/>
<path d="M16.0059 10C16.558 10.0002 17.0059 10.4479 17.0059 11C17.0059 11.5521 16.558 11.9998 16.0059 12H15.9961C15.444 11.9998 14.9961 11.5522 14.9961 11C14.9961 10.4478 15.444 10.0002 15.9961 10H16.0059Z" fill="#1C252E"/>
<path d="M12.0049 10C12.557 10.0002 13.0049 10.4479 13.0049 11C13.0049 11.5521 12.557 11.9998 12.0049 12H11.9951C11.443 11.9998 10.9951 11.5522 10.9951 11C10.9951 10.4478 11.443 10.0002 11.9951 10H12.0049Z" fill="#1C252E"/>
<path d="M8.00391 10C8.556 10.0002 9.00391 10.4479 9.00391 11C9.00391 11.5521 8.556 11.9998 8.00391 12H7.99414C7.44202 11.9998 6.99414 11.5522 6.99414 11C6.99414 10.4478 7.44202 10.0002 7.99414 10H8.00391Z" fill="#1C252E"/>
</svg>
