<svg width="24" height="24" viewBox="0 0 24 24" fill="none" xmlns="http://www.w3.org/2000/svg">
<path d="M21.25 11.5V8.5C21.25 6.89295 20.7942 5.86869 20.1143 5.2373C19.4242 4.59664 18.385 4.25 17 4.25H7C5.61505 4.25 4.57576 4.59664 3.88574 5.2373C3.20579 5.86869 2.75 6.89295 2.75 8.5V15.5C2.75 17.107 3.20579 18.1313 3.88574 18.7627C4.57576 19.4034 5.61505 19.75 7 19.75H12C12.4142 19.75 12.75 20.0858 12.75 20.5C12.75 20.9142 12.4142 21.25 12 21.25H7C5.38503 21.25 3.92424 20.8466 2.86426 19.8623C1.79429 18.8687 1.25 17.3929 1.25 15.5V8.5C1.25 6.60712 1.79429 5.13131 2.86426 4.1377C3.92424 3.15342 5.38503 2.75 7 2.75H17C18.615 2.75 20.0758 3.15342 21.1357 4.1377C22.2057 5.13131 22.75 6.60712 22.75 8.5V11.5C22.75 11.9142 22.4142 12.25 22 12.25C21.5858 12.25 21.25 11.9142 21.25 11.5Z" fill="#1C252E"/>
<path d="M16.532 8.4141C16.8556 8.15573 17.3272 8.20867 17.5857 8.53227C17.844 8.85591 17.7911 9.32751 17.4675 9.58598L14.3376 12.086L14.3366 12.087C13.0334 13.1244 10.9564 13.1243 9.65305 12.087L9.6511 12.085L6.53098 9.585C6.20776 9.32599 6.15577 8.85453 6.41477 8.53129C6.67379 8.20807 7.14525 8.15608 7.46848 8.41508L10.5866 10.9131C11.3433 11.5155 12.6464 11.5155 13.4031 10.9131L16.532 8.4141Z" fill="#1C252E"/>
<path d="M20.1337 13.4567C20.7966 13.3888 21.4067 13.686 21.9501 14.2292C22.4966 14.7757 22.798 15.3877 22.7323 16.0524C22.6704 16.6776 22.2977 17.1628 21.9501 17.5104L18.41 21.0505L18.409 21.0495C18.2639 21.199 18.0888 21.3097 17.9432 21.3825C17.7874 21.4604 17.5977 21.5311 17.4071 21.5612L17.3944 21.5632V21.5622L16.0448 21.7517L16.0458 21.7526C15.6041 21.8157 15.1483 21.6998 14.8192 21.3708C14.4901 21.0417 14.3744 20.5859 14.4374 20.1442L14.6268 18.7956L14.6288 18.7829C14.6594 18.5892 14.7319 18.4011 14.8094 18.2477C14.887 18.0945 14.9973 17.9223 15.1395 17.78L18.6796 14.2399C19.0272 13.8923 19.5115 13.5206 20.1337 13.4567ZM20.287 14.9489C20.1791 14.96 20.0024 15.0381 19.7401 15.3005L16.2001 18.8405C16.1978 18.8432 16.1932 18.8492 16.1864 18.8591C16.1746 18.8762 16.1612 18.899 16.1483 18.9245C16.1353 18.9501 16.125 18.975 16.118 18.9948C16.114 19.0065 16.112 19.014 16.1112 19.0173L16.1102 19.0163L15.9364 20.2526L17.1737 20.0778C17.1776 20.0769 17.1866 20.0756 17.2001 20.071C17.2214 20.0636 17.2469 20.0535 17.2723 20.0407C17.2979 20.0279 17.3183 20.015 17.3319 20.0056C17.3388 20.0007 17.3417 19.9977 17.3417 19.9977L20.8895 16.4499C21.1518 16.1876 21.2295 16.0123 21.2401 15.905C21.2468 15.8373 21.2428 15.644 20.8895 15.2907C20.5437 14.9449 20.3541 14.9421 20.287 14.9489Z" fill="#1C252E"/>
<path d="M18.4992 14.5573C18.8982 14.4465 19.312 14.68 19.4231 15.0788C19.6527 15.9054 20.2948 16.5475 21.1213 16.7771C21.5204 16.888 21.7536 17.3018 21.6428 17.7009C21.5319 18.0998 21.1189 18.3331 20.7199 18.2224C19.3866 17.852 18.3483 16.8144 17.9777 15.4812C17.8669 15.0822 18.1004 14.6684 18.4992 14.5573Z" fill="#1C252E"/>
</svg>
