<svg width="24" height="24" viewBox="0 0 24 24" fill="none" xmlns="http://www.w3.org/2000/svg">
<path d="M15.5 9.75C15.9142 9.75 16.25 10.0858 16.25 10.5C16.25 10.9142 15.9142 11.25 15.5 11.25H8.5C8.08579 11.25 7.75 10.9142 7.75 10.5C7.75 10.0858 8.08579 9.75 8.5 9.75H15.5Z" fill="#1C252E"/>
<path d="M21.25 7.42993C21.25 6.10037 20.8101 5.05062 20.0947 4.33521C19.3793 3.61979 18.3296 3.17993 17 3.17993H7C5.67044 3.17993 4.62069 3.61979 3.90527 4.33521C3.18986 5.05062 2.75 6.10037 2.75 7.42993V13.4299C2.75 14.7595 3.18986 15.8092 3.90527 16.5247C4.62069 17.2401 5.67044 17.6799 7 17.6799H11C11.1478 17.6799 11.292 17.7241 11.415 17.8059L15.8652 20.7659H15.8662C16.031 20.8757 16.25 20.7568 16.25 20.5598V18.4299C16.25 18.0157 16.5858 17.6799 17 17.6799C18.3296 17.6799 19.3793 17.2401 20.0947 16.5247C20.8101 15.8092 21.25 14.7595 21.25 13.4299V7.42993ZM22.75 13.4299C22.75 15.1004 22.1899 16.5506 21.1553 17.5852C20.2789 18.4616 19.1041 18.9955 17.75 19.1389V20.5598C17.75 21.9627 16.1893 22.7839 15.0342 22.0139L10.7744 19.1799H7C5.32956 19.1799 3.87931 18.6198 2.84473 17.5852C1.81014 16.5506 1.25 15.1004 1.25 13.4299V7.42993C1.25 5.7595 1.81014 4.30924 2.84473 3.27466C3.87931 2.24007 5.32956 1.67993 7 1.67993H17C18.6704 1.67993 20.1207 2.24007 21.1553 3.27466C22.1899 4.30924 22.75 5.7595 22.75 7.42993V13.4299Z" fill="#1C252E"/>
</svg>
