<svg width="24" height="24" viewBox="0 0 24 24" fill="none" xmlns="http://www.w3.org/2000/svg">
<path d="M1.25 15.5V8.5C1.25 6.60712 1.79429 5.13131 2.86426 4.1377C3.92424 3.15342 5.38503 2.75 7 2.75H12C12.4142 2.75 12.75 3.08579 12.75 3.5C12.75 3.91421 12.4142 4.25 12 4.25H7C5.61505 4.25 4.57576 4.59664 3.88574 5.2373C3.20579 5.86869 2.75 6.89295 2.75 8.5V15.5C2.75 17.107 3.20579 18.1313 3.88574 18.7627C4.57576 19.4034 5.61505 19.75 7 19.75H17C18.385 19.75 19.4242 19.4034 20.1143 18.7627C20.7942 18.1313 21.25 17.107 21.25 15.5V11.5C21.25 11.0858 21.5858 10.75 22 10.75C22.4142 10.75 22.75 11.0858 22.75 11.5V15.5C22.75 17.3929 22.2057 18.8687 21.1357 19.8623C20.0758 20.8466 18.615 21.25 17 21.25H7C5.38503 21.25 3.92424 20.8466 2.86426 19.8623C1.79429 18.8687 1.25 17.3929 1.25 15.5Z" fill="#1C252E"/>
<path d="M6.41386 8.53227C6.67233 8.20867 7.14393 8.15573 7.46757 8.41411L10.5965 10.9131C11.3531 11.5155 12.6563 11.5155 13.4129 10.9131C13.7369 10.6553 14.2087 10.7093 14.4666 11.0332C14.7244 11.3573 14.6705 11.829 14.3465 12.087C13.0431 13.1243 10.9662 13.1244 9.66288 12.087L9.66191 12.086L6.53203 9.58598C6.20842 9.32751 6.15548 8.85591 6.41386 8.53227Z" fill="#1C252E"/>
<path d="M18.4997 1.25244C19.1787 1.25244 19.6877 1.7 20.0202 2.24756L20.152 2.48682L20.153 2.48975L20.4332 3.05908C20.4345 3.06104 20.436 3.06389 20.4381 3.06689C20.4434 3.07452 20.4513 3.08456 20.4616 3.09619C20.4828 3.12015 20.5117 3.14604 20.5456 3.17139C20.6206 3.22749 20.683 3.24959 20.7028 3.25342H20.7018L21.0573 3.30908L21.0631 3.31006C21.7683 3.42758 22.4549 3.79244 22.6842 4.51221C22.9127 5.22956 22.5674 5.92657 22.0631 6.43701L21.7165 6.78369C21.7151 6.78546 21.7135 6.78778 21.7116 6.79053C21.7056 6.79902 21.6983 6.81113 21.6901 6.82666C21.6731 6.85868 21.657 6.89962 21.6442 6.94482C21.6314 6.99002 21.624 7.0327 21.6217 7.06787C21.6199 7.09568 21.621 7.11214 21.6217 7.11768L21.6696 7.31592L21.6715 7.32568C21.8406 8.07849 21.8184 8.98103 21.1393 9.47803C20.46 9.97521 19.6006 9.71926 18.945 9.32861L18.6852 9.1792L18.6832 9.17822C18.6687 9.16985 18.6037 9.14502 18.4997 9.14502C18.3954 9.14505 18.3303 9.16994 18.3161 9.17822L18.3151 9.1792L18.0543 9.32959L18.0534 9.32861C17.394 9.72299 16.5314 9.98074 15.8512 9.47998C15.1714 8.97926 15.1554 8.0729 15.3297 7.3208L15.3307 7.31592L15.3776 7.11768C15.3783 7.11219 15.3794 7.09579 15.3776 7.06787C15.3753 7.03274 15.3689 6.98997 15.3561 6.94482C15.3433 6.89962 15.3262 6.85867 15.3092 6.82666C15.301 6.81121 15.2937 6.79899 15.2877 6.79053C15.2819 6.78228 15.278 6.77881 15.278 6.77881L14.9362 6.43701C14.4319 5.92657 14.0866 5.22952 14.3151 4.51221C14.5444 3.79248 15.2311 3.42766 15.9362 3.31006L15.943 3.30908L16.317 3.24951C16.3216 3.24818 16.3342 3.24477 16.3532 3.23584C16.3814 3.22253 16.4151 3.20235 16.4498 3.17627C16.4846 3.15024 16.5142 3.12249 16.5368 3.09717C16.5478 3.08475 16.5566 3.07389 16.5622 3.06592C16.5673 3.05852 16.569 3.0542 16.569 3.0542L16.8463 2.48975L16.8483 2.48682C17.1704 1.83672 17.7239 1.25255 18.4997 1.25244ZM18.4528 2.7876C18.3899 2.83896 18.2934 2.94832 18.192 3.15283L17.9127 3.72021L17.9108 3.7251C17.7756 3.99547 17.5616 4.21792 17.3502 4.37646C17.14 4.53413 16.8647 4.67972 16.5631 4.72998L16.5573 4.73096L16.1823 4.78857L16.1832 4.78955C15.8604 4.84335 15.7674 4.9404 15.7467 4.96826C15.747 5.00179 15.7631 5.13881 15.9997 5.37939H16.0006L16.3502 5.72998L16.361 5.74072C16.5824 5.97181 16.7223 6.26715 16.7985 6.53564C16.8744 6.80347 16.9107 7.12753 16.8424 7.43994L16.8395 7.45361L16.7897 7.65869C16.7246 7.93942 16.7272 8.12473 16.7457 8.22705C16.7475 8.23676 16.7508 8.24496 16.7526 8.25244C16.7589 8.25191 16.7662 8.25346 16.7741 8.25244C16.8735 8.23947 17.0471 8.18573 17.2926 8.0376L17.3053 8.03076L17.5651 7.88037C17.8603 7.70948 18.1997 7.64505 18.4997 7.64502C18.7995 7.64502 19.139 7.70957 19.4342 7.88037L19.695 8.03076L19.7057 8.03662C19.9483 8.18216 20.1197 8.2347 20.2184 8.24756C20.2264 8.2486 20.2344 8.24703 20.2409 8.24756C20.2428 8.2398 20.2468 8.2314 20.2487 8.22119C20.2678 8.11927 20.2707 7.93549 20.2077 7.65479V7.65381L20.1598 7.45361L20.1569 7.43994C20.0886 7.1276 20.1249 6.80342 20.2008 6.53564C20.277 6.26715 20.4169 5.97181 20.6383 5.74072L20.9997 5.37939C21.2341 5.14094 21.253 5.00439 21.2536 4.96924C21.2342 4.94264 21.1431 4.84397 20.817 4.78955H20.8161L20.443 4.73096C20.4345 4.72962 20.426 4.7277 20.4176 4.72607C20.1275 4.66993 19.8595 4.53233 19.6471 4.37354C19.4353 4.21511 19.2243 3.99467 19.0895 3.7251L19.0866 3.72021L18.8063 3.15088V3.1499C18.7055 2.94726 18.6101 2.83871 18.5475 2.7876C18.5256 2.76969 18.5094 2.76112 18.4997 2.75635C18.49 2.76115 18.4743 2.77007 18.4528 2.7876Z" fill="#1C252E"/>
</svg>
