<svg width="24" height="24" viewBox="0 0 24 24" fill="none" xmlns="http://www.w3.org/2000/svg">
<path d="M20.6504 18.2002C20.6504 16.8472 19.5532 15.7501 18.2002 15.75C16.8471 15.75 15.75 16.8471 15.75 18.2002C15.7501 19.5532 16.8472 20.6504 18.2002 20.6504C19.5531 20.6503 20.6503 19.5531 20.6504 18.2002ZM22.1504 18.2002C22.1504 19.0213 21.8985 19.7833 21.4697 20.415C21.4907 20.4319 21.5108 20.4503 21.5303 20.4697L22.5303 21.4697C22.8232 21.7626 22.8232 22.2374 22.5303 22.5303C22.2374 22.8232 21.7626 22.8232 21.4697 22.5303L20.4697 21.5303C20.4503 21.5108 20.4319 21.4907 20.415 21.4697C19.7833 21.8985 19.0213 22.1504 18.2002 22.1504C16.0187 22.1504 14.2501 20.3816 14.25 18.2002C14.25 16.0187 16.0187 14.25 18.2002 14.25C20.3816 14.2501 22.1504 16.0187 22.1504 18.2002Z" fill="#1C252E"/>
<path d="M16.0059 10C16.558 10.0002 17.0059 10.4479 17.0059 11C17.0059 11.5521 16.558 11.9998 16.0059 12H15.9961C15.444 11.9998 14.9961 11.5522 14.9961 11C14.9961 10.4478 15.444 10.0002 15.9961 10H16.0059Z" fill="#1C252E"/>
<path d="M12.0049 10C12.557 10.0002 13.0049 10.4479 13.0049 11C13.0049 11.5521 12.557 11.9998 12.0049 12H11.9951C11.443 11.9998 10.9951 11.5522 10.9951 11C10.9951 10.4478 11.443 10.0002 11.9951 10H12.0049Z" fill="#1C252E"/>
<path d="M8.00391 10C8.556 10.0002 9.00391 10.4479 9.00391 11C9.00391 11.5521 8.556 11.9998 8.00391 12H7.99414C7.44202 11.9998 6.99414 11.5522 6.99414 11C6.99414 10.4478 7.44202 10.0002 7.99414 10H8.00391Z" fill="#1C252E"/>
<path d="M21.25 12.97V7.96997C21.25 6.08558 20.7795 4.80998 19.9697 4.00024C19.16 3.1905 17.8844 2.71997 16 2.71997H8C6.11561 2.71997 4.84001 3.1905 4.03027 4.00024C3.22053 4.80998 2.75 6.08558 2.75 7.96997V12.97C2.75 15.4053 3.24393 16.6241 3.99414 17.2805C4.76914 17.9585 6.01338 18.22 8 18.22H8.5C8.78431 18.22 9.05771 18.309 9.27246 18.4163C9.43459 18.4973 9.60686 18.61 9.75488 18.7551L9.89355 18.9114L9.90039 18.9202L11.4004 20.9202C11.6095 21.1988 11.8338 21.2795 12 21.2795C12.1662 21.2795 12.3905 21.1988 12.5996 20.9202C12.8481 20.5888 13.319 20.5212 13.6504 20.7698C13.9816 21.0183 14.0482 21.4883 13.7998 21.8196C13.349 22.4207 12.7037 22.7795 12 22.7795C11.2963 22.7795 10.651 22.4207 10.2002 21.8196L8.70605 19.8274V19.8284C8.70306 19.8253 8.69566 19.8179 8.68262 19.8079C8.66178 19.7918 8.6343 19.774 8.60254 19.7581C8.57058 19.7421 8.54063 19.7312 8.51758 19.7249C8.49304 19.7182 8.48717 19.72 8.5 19.72H8C5.98674 19.72 4.23087 19.4813 3.00586 18.4094C1.75617 17.3158 1.25 15.5345 1.25 12.97V7.96997C1.25 5.85436 1.77947 4.12996 2.96973 2.9397C4.15999 1.74944 5.88439 1.21997 8 1.21997H16C18.1156 1.21997 19.84 1.74944 21.0303 2.9397C22.2205 4.12996 22.75 5.85436 22.75 7.96997V12.97C22.75 13.3842 22.4142 13.72 22 13.72C21.5858 13.72 21.25 13.3842 21.25 12.97Z" fill="#1C252E"/>
</svg>
