<svg width="24" height="24" viewBox="0 0 24 24" fill="none" xmlns="http://www.w3.org/2000/svg">
<path d="M11.2499 9.00001V3.81056L10.5302 4.53029C10.2373 4.82318 9.76256 4.82318 9.46967 4.53029C9.17678 4.23739 9.17678 3.76263 9.46967 3.46974L11.4697 1.46974C11.6841 1.25526 12.0068 1.19061 12.2871 1.30665C12.5673 1.42274 12.7499 1.69667 12.7499 2.00001V9.00001C12.7499 9.41423 12.4142 9.75001 11.9999 9.75001C11.5857 9.75001 11.2499 9.41423 11.2499 9.00001Z" fill="#1C252E"/>
<path d="M11.4697 1.46973C11.7626 1.17684 12.2373 1.17684 12.5302 1.46973L14.5302 3.46973C14.8231 3.76262 14.8231 4.23738 14.5302 4.53028C14.2373 4.82317 13.7626 4.82317 13.4697 4.53028L11.4697 2.53028C11.1768 2.23738 11.1768 1.76262 11.4697 1.46973Z" fill="#1C252E"/>
<path d="M6.39062 12.25C7.05452 12.2501 7.6541 12.6207 7.95117 13.2148L9.12109 15.5547C9.33513 15.9828 9.76689 16.2499 10.2402 16.25H13.7705C14.2439 16.25 14.6756 15.9828 14.8896 15.5547L16.0596 13.2148C16.3585 12.617 16.9706 12.2501 17.6201 12.25H21.9805C22.3947 12.25 22.7305 12.5858 22.7305 13C22.7305 13.4142 22.3947 13.75 21.9805 13.75H17.6201C17.5299 13.7501 17.4423 13.8038 17.4014 13.8857L16.2314 16.2256C15.7655 17.1574 14.817 17.75 13.7705 17.75H10.2402C9.19376 17.7499 8.24519 17.1574 7.7793 16.2256L6.60938 13.8857C6.5665 13.8 6.4866 13.7501 6.39062 13.75H1.98047C1.56626 13.75 1.23047 13.4142 1.23047 13C1.23047 12.5858 1.56626 12.25 1.98047 12.25H6.39062Z" fill="#1C252E"/>
<path d="M1.25 15.0001V12.0001C1.25 9.79912 1.62265 8.02466 2.56445 6.71985C3.52603 5.38764 4.98961 4.66713 6.89062 4.38782C7.30033 4.32764 7.68182 4.611 7.74219 5.02063C7.80237 5.43033 7.519 5.81183 7.10938 5.8722C5.47057 6.11292 4.43364 6.69258 3.78027 7.59778C3.10718 8.53047 2.75 9.9313 2.75 12.0001V15.0001C2.75002 17.4261 3.23976 18.9293 4.15527 19.8449C5.07081 20.7603 6.57402 21.2501 9 21.2501H15C17.426 21.2501 18.9292 20.7603 19.8447 19.8449C20.7602 18.9293 21.25 17.4261 21.25 15.0001V12.0001C21.25 9.9313 20.8928 8.53047 20.2197 7.59778C19.5664 6.69258 18.5294 6.11292 16.8906 5.8722C16.481 5.81183 16.1976 5.43033 16.2578 5.02063C16.3182 4.611 16.6997 4.32764 17.1094 4.38782C19.0104 4.66713 20.474 5.38764 21.4355 6.71985C22.3773 8.02466 22.75 9.79912 22.75 12.0001V15.0001C22.75 17.574 22.2397 19.5709 20.9053 20.9054C19.5708 22.2398 17.5739 22.7501 15 22.7501H9C6.42607 22.7501 4.4292 22.2398 3.09473 20.9054C1.76028 19.5709 1.25002 17.574 1.25 15.0001Z" fill="#1C252E"/>
</svg>
