<svg width="24" height="24" viewBox="0 0 24 24" fill="none" xmlns="http://www.w3.org/2000/svg">
<path d="M21.9805 12.24C22.3947 12.24 22.7305 12.5758 22.7305 12.99C22.7305 13.4042 22.3947 13.74 21.9805 13.74H18.2402C17.7675 13.7401 17.3354 14.0062 17.1211 14.4333L16.2324 16.2244L16.2314 16.2253C15.7655 17.1572 14.8171 17.7497 13.7705 17.7498H10.2402C9.95385 17.7498 8.53579 17.7481 7.7793 16.2351V16.2341L6.88867 14.4441V14.4431C6.67422 14.0163 6.24311 13.7498 5.77051 13.7498H1.98047C1.56626 13.7498 1.23047 13.414 1.23047 12.9998C1.2306 12.5857 1.56633 12.2498 1.98047 12.2498H5.77051C6.7518 12.2498 7.6468 12.7711 8.13867 13.6042L8.23145 13.7742L8.23242 13.7761L9.12109 15.5642C9.46426 16.2505 10.0458 16.2498 10.2402 16.2498H13.7705C14.2439 16.2497 14.6756 15.9826 14.8896 15.5544L15.7793 13.7664V13.7644C16.2452 12.8326 17.1938 12.2401 18.2402 12.24H21.9805Z" fill="#1C252E"/>
<path d="M21.25 5C21.25 3.75736 20.2426 2.75 19 2.75C17.7574 2.75 16.75 3.75736 16.75 5C16.75 6.24264 17.7574 7.25 19 7.25C20.2426 7.25 21.25 6.24264 21.25 5ZM22.75 5C22.75 7.07107 21.0711 8.75 19 8.75C16.9289 8.75 15.25 7.07107 15.25 5C15.25 2.92893 16.9289 1.25 19 1.25C21.0711 1.25 22.75 2.92893 22.75 5Z" fill="#1C252E"/>
<path d="M1.25 15V9C1.25 6.42603 1.76026 4.4292 3.09473 3.09473C4.4292 1.76026 6.42603 1.25 9 1.25H14C14.4142 1.25 14.75 1.58579 14.75 2C14.75 2.41421 14.4142 2.75 14 2.75H9C6.57397 2.75 5.0708 3.23974 4.15527 4.15527C3.23974 5.0708 2.75 6.57397 2.75 9V15C2.75 17.426 3.23974 18.9292 4.15527 19.8447C5.0708 20.7603 6.57397 21.25 9 21.25H15C17.426 21.25 18.9292 20.7603 19.8447 19.8447C20.7603 18.9292 21.25 17.426 21.25 15V10C21.25 9.58579 21.5858 9.25 22 9.25C22.4142 9.25 22.75 9.58579 22.75 10V15C22.75 17.574 22.2397 19.5708 20.9053 20.9053C19.5708 22.2397 17.574 22.75 15 22.75H9C6.42603 22.75 4.4292 22.2397 3.09473 20.9053C1.76026 19.5708 1.25 17.574 1.25 15Z" fill="#1C252E"/>
</svg>
