<svg width="24" height="24" viewBox="0 0 24 24" fill="none" xmlns="http://www.w3.org/2000/svg">
<path d="M21.25 8C21.25 6.11561 20.7795 4.84001 19.9697 4.03027C19.16 3.22053 17.8844 2.75 16 2.75H8C6.11561 2.75 4.84001 3.22053 4.03027 4.03027C3.22053 4.84001 2.75 6.11561 2.75 8V13C2.75 15.4353 3.24393 16.6541 3.99414 17.3105C4.76914 17.9886 6.01338 18.25 8 18.25H8.5C8.7828 18.25 9.05802 18.338 9.27441 18.4453C9.48696 18.5507 9.72666 18.7168 9.89941 18.9502H9.90039L11.4004 20.9502C11.6095 21.2288 11.8338 21.3096 12 21.3096C12.1662 21.3096 12.3905 21.2288 12.5996 20.9502L14.1025 18.9463C14.4322 18.5125 14.9521 18.25 15.5 18.25H16C17.8844 18.25 19.16 17.7795 19.9697 16.9697C20.7795 16.16 21.25 14.8844 21.25 13V8ZM22.75 13C22.75 15.1156 22.2205 16.84 21.0303 18.0303C19.84 19.2205 18.1156 19.75 16 19.75H15.5C15.428 19.75 15.3472 19.7873 15.2969 19.8535L13.7998 21.8496C13.349 22.4507 12.7037 22.8096 12 22.8096C11.2963 22.8096 10.651 22.4507 10.2002 21.8496L8.7002 19.8496C8.70173 19.8514 8.69726 19.8468 8.68457 19.8369C8.6665 19.8228 8.64061 19.805 8.6084 19.7891C8.57624 19.7731 8.54511 19.7625 8.52051 19.7559C8.49436 19.7488 8.4876 19.75 8.5 19.75H8C5.98674 19.75 4.23087 19.5113 3.00586 18.4395C1.75617 17.3459 1.25 15.5646 1.25 13V8C1.25 5.88439 1.77947 4.15999 2.96973 2.96973C4.15999 1.77947 5.88439 1.25 8 1.25H16C18.1156 1.25 19.84 1.77947 21.0303 2.96973C22.2205 4.15999 22.75 5.88439 22.75 8V13Z" fill="#1C252E"/>
<path d="M17 7.25C17.4142 7.25 17.75 7.58579 17.75 8C17.75 8.41421 17.4142 8.75 17 8.75H7C6.58579 8.75 6.25 8.41421 6.25 8C6.25 7.58579 6.58579 7.25 7 7.25H17Z" fill="#1C252E"/>
<path d="M13 12.25C13.4142 12.25 13.75 12.5858 13.75 13C13.75 13.4142 13.4142 13.75 13 13.75H7C6.58579 13.75 6.25 13.4142 6.25 13C6.25 12.5858 6.58579 12.25 7 12.25H13Z" fill="#1C252E"/>
</svg>
