<svg width="24" height="24" viewBox="0 0 24 24" fill="none" xmlns="http://www.w3.org/2000/svg">
<path d="M21.25 6.25C21.25 5.14544 20.8849 4.28338 20.3008 3.69922C19.7166 3.11505 18.8546 2.75 17.75 2.75H9.25C8.14544 2.75 7.28338 3.11505 6.69922 3.69922C6.11505 4.28338 5.75 5.14544 5.75 6.25V8.25H12.1904C13.3806 8.2501 14.4311 8.64985 15.1855 9.4043C15.9401 10.1589 16.3398 11.21 16.3398 12.4004V16.4697C16.3398 16.6917 16.3247 16.9134 16.2949 17.1318L16.8428 17.4941L16.8516 17.499C16.8711 17.5123 16.8845 17.5153 16.8945 17.5156C16.9075 17.516 16.9252 17.5122 16.9443 17.502C16.9635 17.4916 16.9778 17.4776 16.9863 17.4639C16.9934 17.4525 17 17.4366 17 17.4102V15.5996C17.0002 15.1856 17.3359 14.8496 17.75 14.8496C18.8531 14.8496 19.719 14.488 20.2959 13.9033L20.3027 13.8965H20.3037C20.8884 13.3196 21.25 12.4528 21.25 11.3496V6.25ZM22.75 11.3496C22.75 12.7826 22.2739 14.0534 21.3633 14.9561C20.6209 15.7085 19.6282 16.165 18.5 16.3037V17.4102C18.4999 18.6747 17.0854 19.4623 16.0166 18.7451L15.0469 18.1064C14.7726 17.9254 14.6486 17.5861 14.7402 17.2705C14.8062 17.0432 14.8398 16.7759 14.8398 16.4697V12.4004C14.8398 11.5511 14.5602 10.9012 14.125 10.4658C13.6897 10.0305 13.0398 9.75009 12.1904 9.75H5.40039C5.29353 9.75 5.19093 9.75732 5.05762 9.76758C4.84932 9.7836 4.64351 9.71226 4.49023 9.57031C4.33713 9.42849 4.25014 9.2292 4.25 9.02051V6.25C4.25 4.80456 4.73534 3.54201 5.63867 2.63867C6.54201 1.73534 7.80456 1.25 9.25 1.25H17.75C19.1954 1.25 20.458 1.73534 21.3613 2.63867C22.2647 3.54201 22.75 4.80456 22.75 6.25V11.3496Z" fill="#1C252E"/>
<path d="M14.8398 12.4004C14.8398 11.5511 14.5602 10.9012 14.125 10.4658C13.6897 10.0305 13.0398 9.75009 12.1904 9.75H5.40039C5.29537 9.75 5.19442 9.75662 5.06445 9.7666C4.32452 9.83685 3.75881 10.1321 3.37695 10.5605C2.99337 10.9911 2.75 11.6086 2.75 12.4004V16.4697C2.75 17.3184 3.02971 17.9692 3.4707 18.4102C3.90054 18.8397 4.55017 19.1201 5.40039 19.1201C5.81442 19.1203 6.15039 19.456 6.15039 19.8701V21.1777L9.05469 19.2461L9.15039 19.1914C9.24986 19.1446 9.35888 19.1202 9.46973 19.1201H12.1904C13.5611 19.12 14.4545 18.401 14.7324 17.2969C14.7346 17.2882 14.7377 17.2791 14.7402 17.2705C14.8062 17.0432 14.8398 16.7759 14.8398 16.4697V12.4004ZM16.3398 16.4697C16.3398 16.8834 16.2947 17.2968 16.1807 17.6895L16.1797 17.6885C15.7097 19.5088 14.17 20.62 12.1904 20.6201H9.69629L6.87402 22.4971L6.875 22.498C5.90839 23.1634 4.65062 22.4407 4.65039 21.3203V20.5625C3.77105 20.429 2.99819 20.0585 2.41016 19.4707C1.65115 18.7117 1.25 17.6611 1.25 16.4697V12.4004C1.25 11.2924 1.5966 10.3044 2.25781 9.5625C2.92006 8.81945 3.85316 8.37408 4.93066 8.27344L4.94238 8.27246C5.06901 8.26272 5.22728 8.25 5.40039 8.25H12.1904C13.3806 8.2501 14.4311 8.64985 15.1855 9.4043C15.9401 10.1589 16.3398 11.21 16.3398 12.4004V16.4697Z" fill="#1C252E"/>
</svg>
