<svg width="24" height="24" viewBox="0 0 24 24" fill="none" xmlns="http://www.w3.org/2000/svg">
<path d="M6 12.8003V10.1704C6 9.10321 6.24655 8.16279 6.84277 7.46045C7.44719 6.74849 8.31785 6.38907 9.33594 6.30225V6.3042C9.51779 6.28261 9.69943 6.27003 9.88965 6.27002H14.0967L14.5273 6.2876C15.5136 6.36174 16.366 6.66835 16.9912 7.29346C17.707 8.00921 18 9.01806 18 10.1802V12.8101C18 13 17.9873 13.1813 17.9658 13.3628L17.9678 13.3638C17.8811 14.386 17.5217 15.257 16.8086 15.8608C16.1055 16.456 15.1649 16.6997 14.0996 16.6997H13.9531L13.2295 17.6606C12.9379 18.0507 12.5022 18.313 12 18.313C11.4978 18.313 11.0621 18.0507 10.7705 17.6606L10.0469 16.6997H9.90039C8.83821 16.6997 7.79423 16.5818 7.04395 15.9263C6.26861 15.2488 6.00004 14.1793 6 12.8003ZM7.5 12.8003C7.50004 14.0509 7.75666 14.5564 8.03125 14.7964C8.33097 15.0582 8.8627 15.1997 9.90039 15.1997H10.1602C10.3881 15.1997 10.5896 15.2746 10.7285 15.3452C10.8711 15.4177 11.0328 15.5294 11.1602 15.6851C11.1666 15.6929 11.1736 15.7013 11.1797 15.7095L11.9697 16.7593L11.9717 16.7622C11.9813 16.7751 11.9925 16.7828 12 16.7905C12.0075 16.7828 12.0187 16.7751 12.0283 16.7622L12.0303 16.7593L12.8203 15.7095L12.8252 15.7026C13.063 15.3935 13.4403 15.1998 13.8398 15.1997H14.0996C14.9542 15.1997 15.4994 15.0036 15.8389 14.7163C16.168 14.4377 16.4093 13.9842 16.4727 13.2368L16.4756 13.2065C16.4916 13.0783 16.5 12.9495 16.5 12.8101V10.1802C16.5 9.25229 16.2674 8.69075 15.9307 8.354C15.6349 8.05833 15.1628 7.8397 14.4189 7.78369L14.083 7.77002H9.88965C9.7502 7.77003 9.62144 7.7784 9.49316 7.79443C9.48347 7.79565 9.47361 7.79653 9.46387 7.79736C8.72211 7.86058 8.26685 8.10168 7.98633 8.43213C7.69778 8.77233 7.5 9.31802 7.5 10.1704V12.8003Z" fill="#1C252E"/>
<path d="M21.25 12C21.25 6.89137 17.1086 2.75 12 2.75C6.89137 2.75 2.75 6.89137 2.75 12C2.75 17.1086 6.89137 21.25 12 21.25C17.1086 21.25 21.25 17.1086 21.25 12ZM22.75 12C22.75 17.9371 17.9371 22.75 12 22.75C6.06294 22.75 1.25 17.9371 1.25 12C1.25 6.06294 6.06294 1.25 12 1.25C17.9371 1.25 22.75 6.06294 22.75 12Z" fill="#1C252E"/>
</svg>
