<svg width="24" height="24" viewBox="0 0 24 24" fill="none" xmlns="http://www.w3.org/2000/svg">
<path d="M1.25 13V8C1.25 5.88439 1.77947 4.15999 2.96973 2.96973C4.15999 1.77947 5.88439 1.25 8 1.25H14C14.4142 1.25 14.75 1.58579 14.75 2C14.75 2.41421 14.4142 2.75 14 2.75H8C6.11561 2.75 4.84001 3.22053 4.03027 4.03027C3.22053 4.84001 2.75 6.11561 2.75 8V13C2.75 15.4353 3.24393 16.6541 3.99414 17.3105C4.76914 17.9886 6.01338 18.25 8 18.25H8.5C8.7828 18.25 9.05802 18.338 9.27441 18.4453C9.48696 18.5507 9.72666 18.7168 9.89941 18.9502H9.90039L11.4004 20.9502C11.6095 21.2288 11.8338 21.3096 12 21.3096C12.1662 21.3096 12.3905 21.2288 12.5996 20.9502L14.1025 18.9463C14.4322 18.5125 14.9521 18.25 15.5 18.25H16C17.8844 18.25 19.16 17.7795 19.9697 16.9697C20.7795 16.16 21.25 14.8844 21.25 13V10C21.25 9.58579 21.5858 9.25 22 9.25C22.4142 9.25 22.75 9.58579 22.75 10V13C22.75 15.1156 22.2205 16.84 21.0303 18.0303C19.84 19.2205 18.1156 19.75 16 19.75H15.5C15.428 19.75 15.3472 19.7873 15.2969 19.8535L13.7998 21.8496C13.349 22.4507 12.7037 22.8096 12 22.8096C11.2963 22.8096 10.651 22.4507 10.2002 21.8496L8.7002 19.8496C8.70173 19.8514 8.69726 19.8468 8.68457 19.8369C8.6665 19.8228 8.64061 19.805 8.6084 19.7891C8.57624 19.7731 8.54511 19.7625 8.52051 19.7559C8.49436 19.7488 8.4876 19.75 8.5 19.75H8C5.98674 19.75 4.23087 19.5113 3.00586 18.4395C1.75617 17.3459 1.25 15.5646 1.25 13Z" fill="#1C252E"/>
<path d="M21.25 4.5C21.25 3.5335 20.4665 2.75 19.5 2.75C18.5335 2.75 17.75 3.5335 17.75 4.5C17.75 5.4665 18.5335 6.25 19.5 6.25C20.4665 6.25 21.25 5.4665 21.25 4.5ZM22.75 4.5C22.75 6.29493 21.2949 7.75 19.5 7.75C17.7051 7.75 16.25 6.29493 16.25 4.5C16.25 2.70507 17.7051 1.25 19.5 1.25C21.2949 1.25 22.75 2.70507 22.75 4.5Z" fill="#1C252E"/>
<path d="M16.0059 10C16.558 10.0002 17.0059 10.4479 17.0059 11C17.0059 11.5521 16.558 11.9998 16.0059 12H15.9961C15.444 11.9998 14.9961 11.5522 14.9961 11C14.9961 10.4478 15.444 10.0002 15.9961 10H16.0059Z" fill="#1C252E"/>
<path d="M12.0049 10C12.557 10.0002 13.0049 10.4479 13.0049 11C13.0049 11.5521 12.557 11.9998 12.0049 12H11.9951C11.443 11.9998 10.9951 11.5522 10.9951 11C10.9951 10.4478 11.443 10.0002 11.9951 10H12.0049Z" fill="#1C252E"/>
<path d="M8.00391 10C8.556 10.0002 9.00391 10.4479 9.00391 11C9.00391 11.5521 8.556 11.9998 8.00391 12H7.99414C7.44202 11.9998 6.99414 11.5522 6.99414 11C6.99414 10.4478 7.44202 10.0002 7.99414 10H8.00391Z" fill="#1C252E"/>
</svg>
