<svg width="24" height="24" viewBox="0 0 24 24" fill="none" xmlns="http://www.w3.org/2000/svg">
<path d="M21.25 7.42993C21.25 6.10037 20.8101 5.05062 20.0947 4.33521C19.3793 3.61979 18.3296 3.17993 17 3.17993H7C5.67044 3.17993 4.62069 3.61979 3.90527 4.33521C3.18986 5.05062 2.75 6.10037 2.75 7.42993V13.3147C3.42189 12.9538 4.18907 12.7502 5 12.7502C6.39452 12.7502 7.66571 13.3517 8.52637 14.3274C9.28478 15.1688 9.75 16.2863 9.75 17.5002C9.75 17.5604 9.74651 17.6202 9.74414 17.6799H11C11.1481 17.6799 11.2928 17.7238 11.416 17.8059L15.8652 20.7756C16.0189 20.878 16.25 20.7704 16.25 20.5598V18.4299C16.25 18.0157 16.5858 17.6799 17 17.6799C18.3302 17.6799 19.3798 17.2396 20.0898 16.5295C20.8106 15.8087 21.25 14.7588 21.25 13.4299V7.42993ZM22.75 13.4299C22.75 15.1009 22.1895 16.5509 21.1504 17.5901C20.278 18.4625 19.1035 18.9956 17.75 19.1389V20.5598C17.75 21.9492 16.2006 22.8013 15.0342 22.0237H15.0332L10.7725 19.1799H8.87988C8.64692 19.1799 8.42709 19.0717 8.28516 18.887C8.1432 18.7022 8.09524 18.4617 8.15527 18.2366C8.21791 18.0017 8.24997 17.7569 8.25 17.5002C8.25 16.6743 7.93458 15.9109 7.41309 15.3323L7.40625 15.3245C6.82701 14.6649 5.96157 14.2502 5 14.2502C4.08896 14.2502 3.26043 14.623 2.66699 15.2327C2.47505 15.4299 2.19061 15.5067 1.92578 15.4319C1.66109 15.357 1.45882 15.1427 1.39844 14.8743C1.2939 14.4096 1.25 13.923 1.25 13.4299V7.42993C1.25 5.7595 1.81014 4.30924 2.84473 3.27466C3.87931 2.24007 5.32956 1.67993 7 1.67993H17C18.6704 1.67993 20.1207 2.24007 21.1553 3.27466C22.1899 4.30924 22.75 5.7595 22.75 7.42993V13.4299Z" fill="#1C252E"/>
<path d="M8.25 17.5C8.25 16.6739 7.93467 15.9107 7.41309 15.332L7.40625 15.3252C6.82701 14.6655 5.96171 14.25 5 14.25C4.08896 14.25 3.26043 14.6237 2.66699 15.2334C2.09913 15.8178 1.75 16.6218 1.75 17.5C1.75 18.0333 1.88008 18.5396 2.1123 18.9814L2.21875 19.166L2.22656 19.1797C2.34475 19.3806 2.49034 19.5703 2.65723 19.7402L2.83105 19.9033L2.8457 19.916C3.41253 20.4343 4.16406 20.75 5 20.75C6.18582 20.75 7.21556 20.1178 7.77539 19.1768L7.78223 19.166C7.94845 18.8969 8.07669 18.5844 8.14844 18.2656L8.15527 18.2363C8.21788 18.0014 8.25 17.7566 8.25 17.5ZM9.75 17.5C9.75 17.8731 9.70256 18.2379 9.61035 18.5938L9.61133 18.5947C9.50309 19.0757 9.31222 19.5434 9.05859 19.9541L9.05762 19.9531C8.23605 21.3264 6.72983 22.25 5 22.25C3.78295 22.25 2.68017 21.7901 1.84863 21.0361C1.49284 20.7277 1.18356 20.3597 0.942383 19.9531C0.500257 19.2361 0.25 18.3906 0.25 17.5C0.25 16.2186 0.761025 15.042 1.59277 14.1865C2.45932 13.2964 3.67119 12.75 5 12.75C6.3947 12.75 7.6657 13.3523 8.52637 14.3281H8.52734C9.28561 15.1695 9.75 16.2862 9.75 17.5Z" fill="#1C252E"/>
<path d="M3.41875 15.9007C3.71097 15.6074 4.1858 15.6066 4.4793 15.8987L6.59941 18.0081C6.89294 18.3003 6.89347 18.7751 6.60137 19.0687C6.30917 19.3622 5.83441 19.3638 5.54082 19.0716L3.4207 16.9612C3.1274 16.669 3.12664 16.1942 3.41875 15.9007Z" fill="#1C252E"/>
<path d="M5.52044 15.9287C5.81395 15.6365 6.28877 15.6373 6.58098 15.9306C6.87307 16.2241 6.87228 16.6989 6.57903 16.9912L4.45891 19.1015C4.16533 19.3937 3.69057 19.3922 3.39837 19.0986C3.1062 18.805 3.10674 18.3302 3.40032 18.038L5.52044 15.9287Z" fill="#1C252E"/>
<path d="M15.5 9.75C15.9142 9.75 16.25 10.0858 16.25 10.5C16.25 10.9142 15.9142 11.25 15.5 11.25H8.5C8.08579 11.25 7.75 10.9142 7.75 10.5C7.75 10.0858 8.08579 9.75 8.5 9.75H15.5Z" fill="#1C252E"/>
</svg>
