<svg width="24" height="24" viewBox="0 0 24 24" fill="none" xmlns="http://www.w3.org/2000/svg">
<path d="M16.25 9C16.25 8.07134 16.0295 7.1967 15.6309 6.4082L15.626 6.39844C14.5872 4.26772 12.2461 2.75 9.5 2.75C5.72421 2.75 2.75 5.59251 2.75 9C2.75 10.895 3.66418 12.6052 5.13086 13.7627L5.43164 13.9863L5.50879 14.0488C5.58208 14.1165 5.64109 14.1986 5.68262 14.29L7.02051 17.2354L7.05762 17.2939C7.15755 17.4137 7.34577 17.4163 7.44531 17.2979L7.99414 16.6396L8.92285 15.5205C9.06534 15.349 9.27702 15.25 9.5 15.25C13.2758 15.25 16.25 12.4075 16.25 9ZM17.75 9C17.75 13.2167 14.2017 16.5652 9.85938 16.7412L9.14746 17.5986L9.14648 17.6006L8.5957 18.2598L8.59473 18.2617C7.76858 19.2461 6.19813 19.0297 5.65918 17.8652L5.65723 17.8604L4.39648 15.0859C2.49525 13.6739 1.25 11.4839 1.25 9C1.25 4.66749 4.9958 1.25 9.5 1.25C12.7899 1.25 15.6662 3.06755 16.9697 5.73145L17.1465 6.1084C17.5359 7.00034 17.75 7.97495 17.75 9Z" fill="#1C252E"/>
<path d="M16.2498 8.99971C16.2498 8.07128 16.0292 7.19722 15.6307 6.40889C15.4994 6.14935 15.5306 5.83715 15.7098 5.60811C15.889 5.37914 16.1842 5.27369 16.4676 5.33858C20.0369 6.15723 22.7498 9.18964 22.7498 12.8601C22.7498 15.3438 21.5044 17.533 19.6033 18.945L18.3426 21.7204L18.3406 21.7253C17.8072 22.8775 16.2374 23.1281 15.4031 22.1189L14.1395 20.5993C11.6441 20.4983 9.41475 19.3575 7.98711 17.5915C7.76255 17.3137 7.76495 16.9162 7.99297 16.6413L8.92266 15.5212L8.9793 15.4597C9.11822 15.3258 9.30474 15.2498 9.49981 15.2497C13.2756 15.2497 16.2498 12.4072 16.2498 8.99971ZM17.7498 8.99971C17.7498 13.2165 14.2016 16.565 9.85919 16.7409L9.56036 17.1013C10.6873 18.245 12.2892 18.9987 14.0906 19.0983L14.4998 19.1101L14.5828 19.1149C14.7746 19.1362 14.9522 19.2306 15.077 19.3806L16.5565 21.1608L16.5584 21.1628C16.6643 21.2912 16.8928 21.2818 16.9793 21.0954L18.3172 18.1501L18.3641 18.0622C18.417 17.9777 18.487 17.9041 18.5691 17.8464C20.2101 16.6921 21.2498 14.8812 21.2498 12.8601C21.2498 10.4529 19.7597 8.32529 17.5447 7.2878C17.6789 7.83772 17.7498 8.41033 17.7498 8.99971Z" fill="#1C252E"/>
<path d="M12 8.25C12.4142 8.25 12.75 8.58579 12.75 9C12.75 9.41421 12.4142 9.75 12 9.75H7C6.58579 9.75 6.25 9.41421 6.25 9C6.25 8.58579 6.58579 8.25 7 8.25H12Z" fill="#1C252E"/>
</svg>
