<svg width="24" height="24" viewBox="0 0 24 24" fill="none" xmlns="http://www.w3.org/2000/svg">
<path d="M21.25 10.2402C21.25 6.15225 17.6851 2.75004 13.1699 2.75C8.82254 2.75 5.35718 5.90381 5.10547 9.78711C5.84523 9.49669 6.65333 9.33984 7.5 9.33984C10.9056 9.33992 13.75 11.9294 13.75 15.2305C13.7499 16.1247 13.5334 16.972 13.1514 17.7295L13.1699 17.7305L13.2705 17.7363C13.3699 17.7498 13.4659 17.7834 13.5527 17.835L17.7432 20.3252L17.748 20.3281C17.9125 20.4277 18.14 20.3016 18.1152 20.082L17.7256 16.9219C17.6916 16.6467 17.8121 16.375 18.0391 16.2158C19.999 14.8421 21.2499 12.6718 21.25 10.2402ZM22.75 10.2402C22.7499 13.0486 21.379 15.5338 19.2666 17.1709L19.6045 19.8984V19.9004C19.7775 21.3374 18.2306 22.3685 16.9766 21.6143L12.957 19.2256C12.5378 19.2176 12.1249 19.1882 11.7188 19.1328C11.4473 19.0958 11.2171 18.9141 11.1191 18.6582C11.0213 18.4022 11.0714 18.1131 11.249 17.9043C11.8812 17.161 12.2499 16.2307 12.25 15.2305C12.25 12.8517 10.1743 10.8399 7.5 10.8398C6.48429 10.8398 5.55632 11.1279 4.78906 11.6279C4.57192 11.7694 4.29734 11.7893 4.0625 11.6797C3.82778 11.5701 3.66578 11.347 3.63477 11.0898C3.6001 10.801 3.58985 10.5189 3.58984 10.2402C3.58984 5.22824 7.92516 1.25 13.1699 1.25C18.4146 1.25004 22.75 5.22826 22.75 10.2402Z" fill="#1C252E"/>
<path d="M12.25 15.2297C12.2498 12.851 10.1742 10.8401 7.5 10.8401C6.48429 10.8401 5.55632 11.1282 4.78906 11.6282L4.78418 11.6321C3.54014 12.4269 2.75011 13.7485 2.75 15.2297C2.75 16.6431 3.47212 17.9119 4.62793 18.7141C4.85726 18.8734 4.97932 19.147 4.94434 19.4241L4.72656 21.1331L7.11719 19.7151L7.20703 19.6702C7.29944 19.6309 7.39892 19.6096 7.5 19.6096C9.04178 19.6096 10.3972 18.9353 11.2412 17.9124L11.249 17.9045C11.8813 17.1611 12.25 16.2302 12.25 15.2297ZM13.75 15.2297C13.75 16.6093 13.2393 17.8796 12.3916 18.8762L12.3906 18.8752C11.2958 20.1971 9.6035 21.0434 7.71582 21.1038L5.27344 22.5549L5.27246 22.554C4.28096 23.1526 3.07497 22.3181 3.20508 21.2122L3.20605 21.2053L3.40137 19.6643C2.08912 18.5974 1.25 17.0129 1.25 15.2297C1.25011 13.1935 2.33792 11.4169 3.9707 10.3713L4.16309 10.2512C5.13547 9.6667 6.27736 9.34009 7.5 9.34009C10.9056 9.34009 13.7498 11.9287 13.75 15.2297Z" fill="#1C252E"/>
</svg>
