<svg width="24" height="24" viewBox="0 0 24 24" fill="none" xmlns="http://www.w3.org/2000/svg">
<path d="M1.25 15.5V8.5C1.25 6.60712 1.79429 5.13131 2.86426 4.1377C3.92424 3.15342 5.38503 2.75 7 2.75H14C14.4142 2.75 14.75 3.08579 14.75 3.5C14.75 3.91421 14.4142 4.25 14 4.25H7C5.61505 4.25 4.57576 4.59664 3.88574 5.2373C3.20579 5.86869 2.75 6.89295 2.75 8.5V15.5C2.75 17.107 3.20579 18.1313 3.88574 18.7627C4.57576 19.4034 5.61505 19.75 7 19.75H17C18.385 19.75 19.4242 19.4034 20.1143 18.7627C20.7942 18.1313 21.25 17.107 21.25 15.5V10.5C21.25 10.0858 21.5858 9.75 22 9.75C22.4142 9.75 22.75 10.0858 22.75 10.5V15.5C22.75 17.3929 22.2057 18.8687 21.1357 19.8623C20.0758 20.8466 18.615 21.25 17 21.25H7C5.38503 21.25 3.92424 20.8466 2.86426 19.8623C1.79429 18.8687 1.25 17.3929 1.25 15.5Z" fill="#1C252E"/>
<path d="M6.41386 8.53227C6.67233 8.20867 7.14393 8.15573 7.46757 8.41411L10.5965 10.9131C11.3531 11.5155 12.6563 11.5155 13.4129 10.9131L14.5926 9.97368C14.9165 9.71559 15.3882 9.76885 15.6463 10.0928C15.9043 10.4168 15.851 10.8884 15.5271 11.1465L14.3475 12.087H14.3465C13.0431 13.1243 10.9662 13.1244 9.66288 12.087L9.66191 12.086L6.53203 9.58598C6.20842 9.32751 6.15548 8.85591 6.41386 8.53227Z" fill="#1C252E"/>
<path d="M21.25 5.5C21.25 4.5335 20.4665 3.75 19.5 3.75C18.5335 3.75 17.75 4.5335 17.75 5.5C17.75 6.4665 18.5335 7.25 19.5 7.25C20.4665 7.25 21.25 6.4665 21.25 5.5ZM22.75 5.5C22.75 7.29493 21.2949 8.75 19.5 8.75C17.7051 8.75 16.25 7.29493 16.25 5.5C16.25 3.70507 17.7051 2.25 19.5 2.25C21.2949 2.25 22.75 3.70507 22.75 5.5Z" fill="#1C252E"/>
</svg>
