<svg width="24" height="24" viewBox="0 0 24 24" fill="none" xmlns="http://www.w3.org/2000/svg">
<path d="M11.2499 8.00001V3.81056L10.5302 4.53029C10.2373 4.82318 9.76256 4.82318 9.46967 4.53029C9.17678 4.23739 9.17678 3.76263 9.46967 3.46974L11.4697 1.46974C11.6841 1.25526 12.0068 1.19061 12.2871 1.30665C12.5673 1.42274 12.7499 1.69667 12.7499 2.00001V8.00001C12.7499 8.41423 12.4142 8.75001 11.9999 8.75001C11.5857 8.75001 11.2499 8.41423 11.2499 8.00001Z" fill="#1C252E"/>
<path d="M11.4697 1.46973C11.7626 1.17684 12.2373 1.17684 12.5302 1.46973L14.5302 3.46973C14.8231 3.76262 14.8231 4.23738 14.5302 4.53028C14.2373 4.82317 13.7626 4.82317 13.4697 4.53028L11.4697 2.53028C11.1768 2.23738 11.1768 1.76262 11.4697 1.46973Z" fill="#1C252E"/>
<path d="M20.25 16C20.25 15.4357 20.2483 14.961 20.1934 14.54C20.1393 14.1258 20.0397 13.8248 19.8828 13.5977C19.5994 13.1875 18.9292 12.75 17 12.75C16.5491 12.75 16.3322 12.7981 16.1924 12.8525C16.0521 12.9072 15.9376 12.986 15.6953 13.167L14.7256 14.1953L14.7246 14.1943C13.2468 15.7698 10.7487 15.7665 9.26465 14.1953L9.2627 14.1924L8.30176 13.165C8.06142 12.9856 7.94734 12.907 7.80762 12.8525C7.66781 12.7981 7.45095 12.75 7 12.75C5.07084 12.75 4.40058 13.1875 4.11719 13.5977C3.96028 13.8248 3.86074 14.1258 3.80664 14.54C3.75169 14.961 3.75 15.4357 3.75 16V17C3.75 17.7019 3.75167 18.3081 3.82227 18.8486C3.89198 19.3822 4.02283 19.7907 4.24219 20.1084C4.65068 20.6999 5.57111 21.25 8 21.25H16C17.8613 21.25 18.8617 20.7337 19.4229 20.0566C20.0077 19.3509 20.25 18.3133 20.25 17V16ZM21.75 17C21.75 18.4466 21.4923 19.9095 20.5772 21.0137C19.6383 22.1464 18.1385 22.75 16 22.75H8C5.4289 22.75 3.84933 22.1794 3.00782 20.9609C2.60243 20.3738 2.42051 19.7053 2.33399 19.043C2.24834 18.3873 2.25 17.6781 2.25 17V16C2.25 15.4595 2.24837 14.8818 2.31836 14.3457C2.38926 13.8028 2.53982 13.2417 2.88282 12.7451C3.59943 11.7078 4.92917 11.25 7 11.25C7.54882 11.25 7.97235 11.307 8.35254 11.4551C8.72369 11.5997 9.0036 11.8152 9.25 12C9.2851 12.0263 9.31769 12.0558 9.34766 12.0879L10.3545 13.165H10.3555C11.2508 14.1129 12.7504 14.1092 13.6328 13.167L13.6348 13.165L14.6543 12.085C14.6836 12.054 14.7159 12.0256 14.75 12C14.9964 11.8152 15.2763 11.5997 15.6475 11.4551C16.0277 11.307 16.4512 11.25 17 11.25C19.0708 11.25 20.4006 11.7078 21.1172 12.7451C21.4602 13.2417 21.6108 13.8028 21.6816 14.3457C21.7516 14.8818 21.75 15.4595 21.75 16V17Z" fill="#1C252E"/>
<path d="M4.2501 12V9.99997C4.2501 9.05545 4.23129 7.92384 4.71299 7.02145C5.25168 6.01239 6.29237 5.45203 7.92783 5.29391C8.34008 5.25406 8.70627 5.55552 8.74619 5.96774C8.78604 6.37998 8.48458 6.74617 8.07236 6.7861C6.70795 6.91799 6.24852 7.33263 6.03721 7.72848C5.76893 8.23107 5.7501 8.93453 5.7501 9.99997V12C5.7501 12.4142 5.41431 12.75 5.0001 12.75C4.58589 12.75 4.2501 12.4142 4.2501 12Z" fill="#1C252E"/>
<path d="M18.2496 12V9.99997C18.2496 8.93453 18.2308 8.23107 17.9625 7.72848C17.7512 7.33263 17.2918 6.91799 15.9274 6.7861C15.5151 6.74617 15.2137 6.37998 15.2535 5.96774C15.2935 5.55552 15.6597 5.25406 16.0719 5.29391C17.7074 5.45203 18.7481 6.01239 19.2867 7.02145C19.7684 7.92384 19.7496 9.05545 19.7496 9.99997V12C19.7496 12.4142 19.4138 12.75 18.9996 12.75C18.5854 12.75 18.2496 12.4142 18.2496 12Z" fill="#1C252E"/>
</svg>
