<svg width="24" height="24" viewBox="0 0 24 24" fill="none" xmlns="http://www.w3.org/2000/svg">
<path d="M21.25 7.42993C21.25 6.10037 20.8101 5.05062 20.0947 4.33521C19.3793 3.61979 18.3296 3.17993 17 3.17993H7C5.67044 3.17993 4.62069 3.61979 3.90527 4.33521C3.18986 5.05062 2.75 6.10037 2.75 7.42993V13.3147C3.42189 12.9538 4.18907 12.7502 5 12.7502C6.39452 12.7502 7.66571 13.3517 8.52637 14.3274C9.28478 15.1688 9.75 16.2863 9.75 17.5002C9.75 17.5604 9.74651 17.6202 9.74414 17.6799H11C11.1481 17.6799 11.2928 17.7238 11.416 17.8059L15.8652 20.7756C16.0189 20.878 16.25 20.7704 16.25 20.5598V18.4299C16.25 18.0157 16.5858 17.6799 17 17.6799C18.3302 17.6799 19.3798 17.2396 20.0898 16.5295C20.8106 15.8087 21.25 14.7588 21.25 13.4299V7.42993ZM22.75 13.4299C22.75 15.1009 22.1895 16.5509 21.1504 17.5901C20.278 18.4625 19.1035 18.9956 17.75 19.1389V20.5598C17.75 21.9492 16.2006 22.8013 15.0342 22.0237H15.0332L10.7725 19.1799H8.87988C8.64692 19.1799 8.42709 19.0717 8.28516 18.887C8.1432 18.7022 8.09524 18.4617 8.15527 18.2366C8.21791 18.0017 8.24997 17.7569 8.25 17.5002C8.25 16.6743 7.93458 15.9109 7.41309 15.3323L7.40625 15.3245C6.82701 14.6649 5.96157 14.2502 5 14.2502C4.08896 14.2502 3.26043 14.623 2.66699 15.2327C2.47505 15.4299 2.19061 15.5067 1.92578 15.4319C1.66109 15.357 1.45882 15.1427 1.39844 14.8743C1.2939 14.4096 1.25 13.923 1.25 13.4299V7.42993C1.25 5.7595 1.81014 4.30924 2.84473 3.27466C3.87931 2.24007 5.32956 1.67993 7 1.67993H17C18.6704 1.67993 20.1207 2.24007 21.1553 3.27466C22.1899 4.30924 22.75 5.7595 22.75 7.42993V13.4299Z" fill="#1C252E"/>
<path d="M8.25 17.5C8.25 15.7042 6.79579 14.25 5 14.25C4.23848 14.25 3.53185 14.5172 2.96777 14.9668L2.96582 14.9678C2.22084 15.5591 1.75 16.4747 1.75 17.5C1.75 19.2958 3.20421 20.75 5 20.75C5.81622 20.75 6.56257 20.4439 7.14453 19.9365C7.82096 19.3416 8.25 18.4735 8.25 17.5ZM9.75 17.5C9.75 18.9265 9.11924 20.1984 8.13574 21.0635L8.13379 21.0645C7.29603 21.796 6.20287 22.25 5 22.25C2.37579 22.25 0.25 20.1242 0.25 17.5C0.25 16.0062 0.938383 14.6627 2.03223 13.7939L2.18848 13.6748C2.97833 13.0958 3.95153 12.75 5 12.75C7.62421 12.75 9.75 14.8758 9.75 17.5Z" fill="#1C252E"/>
<path d="M4.50027 16.25C4.50027 15.8358 4.83606 15.5 5.25027 15.5C5.66448 15.5 6.00027 15.8358 6.00027 16.25V17.75C6.00027 18.0134 5.86192 18.258 5.63601 18.3936L4.38601 19.1436C4.03087 19.3564 3.56977 19.2408 3.35672 18.8857C3.14384 18.5306 3.25944 18.0695 3.61453 17.8564L4.50027 17.3242V16.25Z" fill="#1C252E"/>
<path d="M15.5 9.75C15.9142 9.75 16.25 10.0858 16.25 10.5C16.25 10.9142 15.9142 11.25 15.5 11.25H8.5C8.08579 11.25 7.75 10.9142 7.75 10.5C7.75 10.0858 8.08579 9.75 8.5 9.75H15.5Z" fill="#1C252E"/>
</svg>
