<svg width="24" height="24" viewBox="0 0 24 24" fill="none" xmlns="http://www.w3.org/2000/svg">
<path d="M21.25 15.5V8.5C21.25 6.89295 20.7942 5.86869 20.1143 5.2373C19.4242 4.59664 18.385 4.25 17 4.25H7C5.61505 4.25 4.57576 4.59664 3.88574 5.2373C3.20579 5.86869 2.75 6.89295 2.75 8.5C2.75 8.91421 2.41421 9.25 2 9.25C1.58579 9.25 1.25 8.91421 1.25 8.5C1.25 6.60712 1.79429 5.13131 2.86426 4.1377C3.92424 3.15342 5.38503 2.75 7 2.75H17C18.615 2.75 20.0758 3.15342 21.1357 4.1377C22.2057 5.13131 22.75 6.60712 22.75 8.5V15.5C22.75 17.3929 22.2057 18.8687 21.1357 19.8623C20.0758 20.8466 18.615 21.25 17 21.25H7C6.58579 21.25 6.25 20.9142 6.25 20.5C6.25 20.0858 6.58579 19.75 7 19.75H17C18.385 19.75 19.4242 19.4034 20.1143 18.7627C20.7942 18.1313 21.25 17.107 21.25 15.5Z" fill="#1C252E"/>
<path d="M16.532 8.4141C16.8556 8.15573 17.3272 8.20867 17.5857 8.53227C17.844 8.85591 17.7911 9.32751 17.4675 9.58598L14.3376 12.086L14.3366 12.087C13.0334 13.1244 10.9564 13.1243 9.65305 12.087L9.6511 12.085L6.53098 9.585C6.20776 9.32599 6.15577 8.85453 6.41477 8.53129C6.67379 8.20807 7.14525 8.15608 7.46848 8.41508L10.5866 10.9131C11.3433 11.5155 12.6464 11.5155 13.4031 10.9131L16.532 8.4141Z" fill="#1C252E"/>
<path d="M8 15.75C8.41421 15.75 8.75 16.0858 8.75 16.5C8.75 16.9142 8.41421 17.25 8 17.25H2C1.58579 17.25 1.25 16.9142 1.25 16.5C1.25 16.0858 1.58579 15.75 2 15.75H8Z" fill="#1C252E"/>
<path d="M5 11.75C5.41421 11.75 5.75 12.0858 5.75 12.5C5.75 12.9142 5.41421 13.25 5 13.25H2C1.58579 13.25 1.25 12.9142 1.25 12.5C1.25 12.0858 1.58579 11.75 2 11.75H5Z" fill="#1C252E"/>
</svg>
