<svg width="24" height="24" viewBox="0 0 24 24" fill="none" xmlns="http://www.w3.org/2000/svg">
<path d="M21.25 13V9C21.25 6.57397 20.7603 5.0708 19.8447 4.15527C18.9292 3.23974 17.426 2.75 15 2.75H9C6.57397 2.75 5.0708 3.23974 4.15527 4.15527C3.23974 5.0708 2.75 6.57397 2.75 9V15C2.75 17.426 3.23974 18.9292 4.15527 19.8447C5.0708 20.7603 6.57397 21.25 9 21.25H13C13.4142 21.25 13.75 21.5858 13.75 22C13.75 22.4142 13.4142 22.75 13 22.75H9C6.42603 22.75 4.4292 22.2397 3.09473 20.9053C1.76026 19.5708 1.25 17.574 1.25 15V9C1.25 6.42603 1.76026 4.4292 3.09473 3.09473C4.4292 1.76026 6.42603 1.25 9 1.25H15C17.574 1.25 19.5708 1.76026 20.9053 3.09473C22.2397 4.4292 22.75 6.42603 22.75 9V13C22.75 13.4142 22.4142 13.75 22 13.75C21.5858 13.75 21.25 13.4142 21.25 13Z" fill="#1C252E"/>
<path d="M20.4296 16.5127C20.6987 16.1979 21.1724 16.1607 21.4872 16.4297C21.802 16.6988 21.8392 17.1725 21.5702 17.4873L18.1503 21.4873C18.0147 21.6459 17.8187 21.7406 17.6102 21.749C17.4019 21.7575 17.1996 21.6791 17.0516 21.5322L15.4716 19.9619C15.1778 19.67 15.1758 19.1952 15.4677 18.9014C15.7596 18.6075 16.2344 18.6065 16.5282 18.8984L17.5341 19.8975L20.4296 16.5127Z" fill="#1C252E"/>
<path d="M6.25 13.5V10.5C6.25 10.0858 6.58579 9.75 7 9.75C7.41421 9.75 7.75 10.0858 7.75 10.5V13.5C7.75 13.9142 7.41421 14.25 7 14.25C6.58579 14.25 6.25 13.9142 6.25 13.5Z" fill="#1C252E"/>
<path d="M11.25 13.5V10.5C11.25 10.0858 11.5858 9.75 12 9.75C12.4142 9.75 12.75 10.0858 12.75 10.5V13.5C12.75 13.9142 12.4142 14.25 12 14.25C11.5858 14.25 11.25 13.9142 11.25 13.5Z" fill="#1C252E"/>
<path d="M16.25 13.5V10.5C16.25 10.0858 16.5858 9.75 17 9.75C17.4142 9.75 17.75 10.0858 17.75 10.5V13.5C17.75 13.9142 17.4142 14.25 17 14.25C16.5858 14.25 16.25 13.9142 16.25 13.5Z" fill="#1C252E"/>
</svg>
