<svg width="24" height="24" viewBox="0 0 24 24" fill="none" xmlns="http://www.w3.org/2000/svg">
<path d="M6.12988 18.1503V16.08C6.12988 15.6657 6.46567 15.33 6.87988 15.33C7.2941 15.33 7.62988 15.6657 7.62988 16.08V18.1503C7.62971 18.5643 7.29399 18.9003 6.87988 18.9003C6.46577 18.9003 6.13005 18.5643 6.12988 18.1503Z" fill="#1C252E"/>
<path d="M11.25 18.1497V14.01C11.25 13.5958 11.5858 13.26 12 13.26C12.4142 13.26 12.75 13.5958 12.75 14.01V18.1497C12.75 18.5639 12.4142 18.8997 12 18.8997C11.5858 18.8997 11.25 18.5639 11.25 18.1497Z" fill="#1C252E"/>
<path d="M16.3701 18.1498V11.9301C16.3701 11.5158 16.7059 11.1801 17.1201 11.1801C17.5343 11.1801 17.8701 11.5158 17.8701 11.9301V18.1498C17.8701 18.564 17.5343 18.8998 17.1201 18.8998C16.7059 18.8998 16.3701 18.564 16.3701 18.1498Z" fill="#1C252E"/>
<path d="M16.5488 5.36371C16.8174 5.04841 17.2911 5.0102 17.6065 5.27875C17.9218 5.54735 17.959 6.02105 17.6904 6.33637L17.2305 6.87641L17.2295 6.87738C14.5778 9.97622 11.0222 12.1701 7.06153 13.1577C6.65972 13.2578 6.25269 13.0135 6.15235 12.6118C6.05216 12.2099 6.29648 11.8029 6.69825 11.7026C10.3574 10.7902 13.6416 8.76372 16.0898 5.90277L16.5488 5.36371Z" fill="#1C252E"/>
<path d="M16.3701 8.7699V6.59998H14.1904C13.7762 6.59998 13.4404 6.26419 13.4404 5.84998C13.4404 5.43576 13.7762 5.09998 14.1904 5.09998H17.1201C17.5343 5.09998 17.8701 5.43576 17.8701 5.84998V8.7699C17.8701 9.18411 17.5343 9.5199 17.1201 9.5199C16.706 9.51973 16.3701 9.18401 16.3701 8.7699Z" fill="#1C252E"/>
<path d="M21.25 9C21.25 6.57397 20.7603 5.0708 19.8447 4.15527C18.9292 3.23974 17.426 2.75 15 2.75H9C6.57397 2.75 5.0708 3.23974 4.15527 4.15527C3.23974 5.0708 2.75 6.57397 2.75 9V15C2.75 17.426 3.23974 18.9292 4.15527 19.8447C5.0708 20.7603 6.57397 21.25 9 21.25H15C17.426 21.25 18.9292 20.7603 19.8447 19.8447C20.7603 18.9292 21.25 17.426 21.25 15V9ZM22.75 15C22.75 17.574 22.2397 19.5708 20.9053 20.9053C19.5708 22.2397 17.574 22.75 15 22.75H9C6.42603 22.75 4.4292 22.2397 3.09473 20.9053C1.76026 19.5708 1.25 17.574 1.25 15V9C1.25 6.42603 1.76026 4.4292 3.09473 3.09473C4.4292 1.76026 6.42603 1.25 9 1.25H15C17.574 1.25 19.5708 1.76026 20.9053 3.09473C22.2397 4.4292 22.75 6.42603 22.75 9V15Z" fill="#1C252E"/>
</svg>
