<svg width="24" height="24" viewBox="0 0 24 24" fill="none" xmlns="http://www.w3.org/2000/svg">
<path d="M21 21.25C21.4142 21.25 21.75 21.5858 21.75 22C21.75 22.4142 21.4142 22.75 21 22.75H3C2.58579 22.75 2.25 22.4142 2.25 22C2.25 21.5858 2.58579 21.25 3 21.25H21Z" fill="#1C252E"/>
<path d="M5.84961 9.38C5.84961 9.24422 5.7354 9.13 5.59961 9.13H4C3.86421 9.13 3.75 9.24422 3.75 9.38V18.0001C3.75007 18.1359 3.86425 18.2501 4 18.2501H5.59961C5.73536 18.2501 5.84954 18.1359 5.84961 18.0001V9.38ZM7.34961 18.0001C7.34954 18.9643 6.56378 19.7501 5.59961 19.7501H4C3.03583 19.7501 2.25007 18.9643 2.25 18.0001V9.38C2.25 8.41579 3.03579 7.63 4 7.63H5.59961C6.56382 7.63 7.34961 8.41579 7.34961 9.38V18.0001Z" fill="#1C252E"/>
<path d="M13.0498 6.18994C13.0498 6.05415 12.9356 5.93994 12.7998 5.93994H11.2002C11.0644 5.93994 10.9502 6.05415 10.9502 6.18994V17.9995C10.9502 18.1353 11.0644 18.2495 11.2002 18.2495H12.7998C12.9356 18.2495 13.0498 18.1353 13.0498 17.9995V6.18994ZM14.5498 17.9995C14.5498 18.9637 13.764 19.7495 12.7998 19.7495H11.2002C10.236 19.7495 9.4502 18.9637 9.4502 17.9995V6.18994C9.4502 5.22573 10.236 4.43994 11.2002 4.43994H12.7998C13.764 4.43994 14.5498 5.22573 14.5498 6.18994V17.9995Z" fill="#1C252E"/>
<path d="M20.25 3C20.25 2.86421 20.1358 2.75 20 2.75H18.4004C18.2646 2.75 18.1504 2.86421 18.1504 3V18C18.1504 18.1358 18.2646 18.25 18.4004 18.25H20C20.1358 18.25 20.25 18.1358 20.25 18V3ZM21.75 18C21.75 18.9642 20.9642 19.75 20 19.75H18.4004C17.4362 19.75 16.6504 18.9642 16.6504 18V3C16.6504 2.03579 17.4362 1.25 18.4004 1.25H20C20.9642 1.25 21.75 2.03579 21.75 3V18Z" fill="#1C252E"/>
</svg>
