<svg width="24" height="24" viewBox="0 0 24 24" fill="none" xmlns="http://www.w3.org/2000/svg">
<path d="M21.25 13V9C21.25 6.57397 20.7603 5.0708 19.8447 4.15527C18.9292 3.23974 17.426 2.75 15 2.75H9C6.57397 2.75 5.0708 3.23974 4.15527 4.15527C3.23974 5.0708 2.75 6.57397 2.75 9V15C2.75 17.426 3.23974 18.9292 4.15527 19.8447C5.0708 20.7603 6.57397 21.25 9 21.25H13C13.4142 21.25 13.75 21.5858 13.75 22C13.75 22.4142 13.4142 22.75 13 22.75H9C6.42603 22.75 4.4292 22.2397 3.09473 20.9053C1.76026 19.5708 1.25 17.574 1.25 15V9C1.25 6.42603 1.76026 4.4292 3.09473 3.09473C4.4292 1.76026 6.42603 1.25 9 1.25H15C17.574 1.25 19.5708 1.76026 20.9053 3.09473C22.2397 4.4292 22.75 6.42603 22.75 9V13C22.75 13.4142 22.4142 13.75 22 13.75C21.5858 13.75 21.25 13.4142 21.25 13Z" fill="#1C252E"/>
<path d="M16.077 9.05007C16.3308 8.72287 16.8024 8.66354 17.1297 8.91726C17.4569 9.17106 17.5162 9.64268 17.2625 9.96999L14.9529 12.9495L14.9481 12.9553C14.3532 13.7076 13.2562 13.8444 12.491 13.2532L12.4861 13.2493L10.661 11.8137L10.617 11.7854C10.5102 11.7328 10.379 11.7603 10.3035 11.8567L7.92365 14.9475C7.67087 15.2756 7.20001 15.337 6.87189 15.0843C6.54392 14.8315 6.48345 14.3606 6.73615 14.0325L9.11603 10.9426V10.9417C9.67288 10.221 10.6764 10.0533 11.4315 10.5237L11.5789 10.6262L11.5838 10.6301L13.4119 12.0686C13.5265 12.1545 13.687 12.1313 13.7713 12.0247L16.077 9.05007Z" fill="#1C252E"/>
<path d="M18.4997 14.2524C19.1787 14.2524 19.6877 14.7 20.0202 15.2476L20.152 15.4868L20.153 15.4897L20.4332 16.0591C20.4345 16.061 20.436 16.0639 20.4381 16.0669C20.4434 16.0745 20.4513 16.0846 20.4616 16.0962C20.4828 16.1201 20.5117 16.146 20.5456 16.1714C20.6206 16.2275 20.683 16.2496 20.7028 16.2534H20.7018L21.0573 16.3091L21.0631 16.3101C21.7683 16.4276 22.4549 16.7924 22.6842 17.5122C22.9127 18.2296 22.5674 18.9266 22.0631 19.437L21.7165 19.7837C21.7151 19.7855 21.7135 19.7878 21.7116 19.7905C21.7056 19.799 21.6983 19.8111 21.6901 19.8267C21.6731 19.8587 21.657 19.8996 21.6442 19.9448C21.6314 19.99 21.624 20.0327 21.6217 20.0679C21.6199 20.0957 21.621 20.1121 21.6217 20.1177L21.6696 20.3159L21.6715 20.3257C21.8406 21.0785 21.8184 21.981 21.1393 22.478C20.46 22.9752 19.6006 22.7193 18.945 22.3286L18.6852 22.1792L18.6832 22.1782C18.6687 22.1699 18.6037 22.145 18.4997 22.145C18.3954 22.1451 18.3303 22.1699 18.3161 22.1782L18.3151 22.1792L18.0543 22.3296L18.0534 22.3286C17.394 22.723 16.5314 22.9807 15.8512 22.48C15.1714 21.9793 15.1554 21.0729 15.3297 20.3208L15.3307 20.3159L15.3776 20.1177C15.3783 20.1122 15.3794 20.0958 15.3776 20.0679C15.3753 20.0327 15.3689 19.99 15.3561 19.9448C15.3433 19.8996 15.3262 19.8587 15.3092 19.8267C15.301 19.8112 15.2937 19.799 15.2877 19.7905C15.2819 19.7823 15.278 19.7788 15.278 19.7788L14.9362 19.437C14.4319 18.9266 14.0866 18.2295 14.3151 17.5122C14.5444 16.7925 15.2311 16.4277 15.9362 16.3101L15.943 16.3091L16.317 16.2495C16.3216 16.2482 16.3342 16.2448 16.3532 16.2358C16.3814 16.2225 16.4151 16.2023 16.4498 16.1763C16.4846 16.1502 16.5142 16.1225 16.5368 16.0972C16.5478 16.0848 16.5566 16.0739 16.5622 16.0659C16.5673 16.0585 16.569 16.0542 16.569 16.0542L16.8463 15.4897L16.8483 15.4868C17.1704 14.8367 17.7239 14.2525 18.4997 14.2524ZM18.4528 15.7876C18.3899 15.839 18.2934 15.9483 18.192 16.1528L17.9127 16.7202L17.9108 16.7251C17.7756 16.9955 17.5616 17.2179 17.3502 17.3765C17.14 17.5341 16.8647 17.6797 16.5631 17.73L16.5573 17.731L16.1823 17.7886L16.1832 17.7896C15.8604 17.8434 15.7674 17.9404 15.7467 17.9683C15.747 18.0018 15.7631 18.1388 15.9997 18.3794H16.0006L16.3502 18.73L16.361 18.7407C16.5824 18.9718 16.7223 19.2672 16.7985 19.5356C16.8744 19.8035 16.9107 20.1275 16.8424 20.4399L16.8395 20.4536L16.7897 20.6587C16.7246 20.9394 16.7272 21.1247 16.7457 21.2271C16.7475 21.2368 16.7508 21.245 16.7526 21.2524C16.7589 21.2519 16.7662 21.2535 16.7741 21.2524C16.8735 21.2395 17.0471 21.1857 17.2926 21.0376L17.3053 21.0308L17.5651 20.8804C17.8603 20.7095 18.1997 20.645 18.4997 20.645C18.7995 20.645 19.139 20.7096 19.4342 20.8804L19.695 21.0308L19.7057 21.0366C19.9483 21.1822 20.1197 21.2347 20.2184 21.2476C20.2264 21.2486 20.2344 21.247 20.2409 21.2476C20.2428 21.2398 20.2468 21.2314 20.2487 21.2212C20.2678 21.1193 20.2707 20.9355 20.2077 20.6548V20.6538L20.1598 20.4536L20.1569 20.4399C20.0886 20.1276 20.1249 19.8034 20.2008 19.5356C20.277 19.2672 20.4169 18.9718 20.6383 18.7407L20.9997 18.3794C21.2341 18.1409 21.253 18.0044 21.2536 17.9692C21.2342 17.9426 21.1431 17.844 20.817 17.7896H20.8161L20.443 17.731C20.4345 17.7296 20.426 17.7277 20.4176 17.7261C20.1275 17.6699 19.8595 17.5323 19.6471 17.3735C19.4353 17.2151 19.2243 16.9947 19.0895 16.7251L19.0866 16.7202L18.8063 16.1509V16.1499C18.7055 15.9473 18.6101 15.8387 18.5475 15.7876C18.5256 15.7697 18.5094 15.7611 18.4997 15.7563C18.49 15.7612 18.4743 15.7701 18.4528 15.7876Z" fill="#1C252E"/>
</svg>
