<svg width="24" height="24" viewBox="0 0 24 24" fill="none" xmlns="http://www.w3.org/2000/svg">
<path d="M21.25 9C21.25 6.57397 20.7603 5.0708 19.8447 4.15527C18.9292 3.23974 17.426 2.75 15 2.75H9C6.57397 2.75 5.0708 3.23974 4.15527 4.15527C3.23974 5.0708 2.75 6.57397 2.75 9V15C2.75 17.426 3.23974 18.9292 4.15527 19.8447C5.0708 20.7603 6.57397 21.25 9 21.25H15C17.426 21.25 18.9292 20.7603 19.8447 19.8447C20.7603 18.9292 21.25 17.426 21.25 15V9ZM22.75 15C22.75 17.574 22.2397 19.5708 20.9053 20.9053C19.5708 22.2397 17.574 22.75 15 22.75H9C6.42603 22.75 4.4292 22.2397 3.09473 20.9053C1.76026 19.5708 1.25 17.574 1.25 15V9C1.25 6.42603 1.76026 4.4292 3.09473 3.09473C4.4292 1.76026 6.42603 1.25 9 1.25H15C17.574 1.25 19.5708 1.76026 20.9053 3.09473C22.2397 4.4292 22.75 6.42603 22.75 9V15Z" fill="#1C252E"/>
<path d="M16.75 7.5C16.75 6.81421 16.1858 6.25 15.5 6.25C14.8142 6.25 14.25 6.81421 14.25 7.5V16.5C14.25 17.1882 14.8067 17.75 15.5 17.75C16.1858 17.75 16.75 17.1858 16.75 16.5V7.5ZM18.25 16.5C18.25 18.0142 17.0142 19.25 15.5 19.25C13.9733 19.25 12.75 18.0118 12.75 16.5V7.5C12.75 5.98579 13.9858 4.75 15.5 4.75C17.0142 4.75 18.25 5.98579 18.25 7.5V16.5Z" fill="#1C252E"/>
<path d="M9.75 13C9.75 12.3142 9.18579 11.75 8.5 11.75C7.81421 11.75 7.25 12.3142 7.25 13V16.5C7.25 17.1882 7.80665 17.75 8.5 17.75C9.18579 17.75 9.75 17.1858 9.75 16.5V13ZM11.25 16.5C11.25 18.0142 10.0142 19.25 8.5 19.25C6.97335 19.25 5.75 18.0118 5.75 16.5V13C5.75 11.4858 6.98579 10.25 8.5 10.25C10.0142 10.25 11.25 11.4858 11.25 13V16.5Z" fill="#1C252E"/>
</svg>
