<svg width="24" height="24" viewBox="0 0 24 24" fill="none" xmlns="http://www.w3.org/2000/svg">
<path d="M1.25 19V2C1.25 1.58579 1.58579 1.25 2 1.25C2.41421 1.25 2.75 1.58579 2.75 2V19C2.75 20.2458 3.75421 21.25 5 21.25H22C22.4142 21.25 22.75 21.5858 22.75 22C22.75 22.4142 22.4142 22.75 22 22.75H5C2.92579 22.75 1.25 21.0742 1.25 19Z" fill="#1C252E"/>
<path d="M20.4305 6.51172C20.7 6.19745 21.1737 6.16129 21.4881 6.43066C21.8024 6.70018 21.8385 7.17382 21.5692 7.48828L16.9696 12.8584L16.9676 12.8604C15.9236 14.0692 14.0683 14.1397 12.9393 13.0107L11.9891 12.0605L11.9862 12.0566C11.4807 11.5454 10.6383 11.5734 10.158 12.127L10.159 12.1279L5.56917 17.4883C5.29969 17.8025 4.82603 17.8386 4.51155 17.5693C4.19733 17.2999 4.1612 16.8262 4.4305 16.5117L9.02034 11.1523L9.0223 11.1494C10.0615 9.94644 11.9165 9.85529 13.0506 11L13.9998 11.9492C14.5107 12.4601 15.3558 12.4308 15.8319 11.8799L20.4305 6.51172Z" fill="#1C252E"/>
</svg>
