<svg width="24" height="24" viewBox="0 0 24 24" fill="none" xmlns="http://www.w3.org/2000/svg">
<path d="M20.2402 2.75H3.74023V14.0957L3.75195 14.3906C3.80061 15.0448 4.00044 15.466 4.2666 15.7314C4.57043 16.0344 5.07625 16.25 5.90039 16.25H18.0898C18.9145 16.25 19.4204 16.0346 19.7227 15.7324C20.0249 15.4302 20.2402 14.9242 20.2402 14.0996V2.75ZM21.7402 14.0996C21.7402 15.175 21.456 16.1202 20.7832 16.793C20.1104 17.4658 19.1652 17.75 18.0898 17.75H5.90039C4.82489 17.75 3.8807 17.4657 3.20703 16.7939C2.53368 16.1223 2.24589 15.1781 2.24023 14.1035V2C2.24023 1.58579 2.57602 1.25 2.99023 1.25H20.9902C21.4044 1.25 21.7402 1.58579 21.7402 2V14.0996Z" fill="#1C252E"/>
<path d="M22 1.25C22.4142 1.25 22.75 1.58579 22.75 2C22.75 2.41421 22.4142 2.75 22 2.75H2C1.58579 2.75 1.25 2.41421 1.25 2C1.25 1.58579 1.58579 1.25 2 1.25H22Z" fill="#1C252E"/>
<path d="M11.25 17C11.25 16.5858 11.5858 16.25 12 16.25C12.4142 16.25 12.75 16.5858 12.75 17V20C12.75 20.2841 12.589 20.5439 12.3349 20.6709L8.33494 22.6709C7.96453 22.8558 7.51426 22.7053 7.32908 22.335C7.14414 21.9646 7.29466 21.5143 7.66502 21.3291L11.25 19.5361V17Z" fill="#1C252E"/>
<path d="M11.3291 19.665C11.5143 19.2947 11.9645 19.1441 12.3349 19.3291L16.3349 21.3291C16.7053 21.5143 16.8558 21.9645 16.6709 22.3349C16.4857 22.7053 16.0354 22.8558 15.665 22.6709L11.665 20.6709C11.2947 20.4857 11.1441 20.0354 11.3291 19.665Z" fill="#1C252E"/>
<path d="M16.0196 7.42386C16.3375 7.15871 16.8108 7.20172 17.0762 7.51956C17.3414 7.83752 17.2983 8.31083 16.9805 8.5762L13.8311 11.2061C13.8271 11.2094 13.8225 11.2126 13.8184 11.2159C13.5406 11.438 13.1831 11.5447 12.8213 11.4844C12.4569 11.4235 12.1495 11.2032 11.959 10.8897L11.9571 10.8858L10.9053 9.13284L7.9805 11.5762C7.66254 11.8414 7.18923 11.7983 6.92386 11.4805C6.65871 11.1625 6.70172 10.6892 7.01956 10.4239L10.169 7.79397V7.79495C10.451 7.55857 10.8163 7.44804 11.1846 7.51273C11.5511 7.57721 11.8543 7.80297 12.041 8.11038L12.043 8.11429L13.0938 9.86624L16.0196 7.42386Z" fill="#1C252E"/>
</svg>
