<svg width="24" height="24" viewBox="0 0 24 24" fill="none" xmlns="http://www.w3.org/2000/svg">
<path d="M21.25 9C21.25 6.57397 20.7603 5.0708 19.8447 4.15527C18.9292 3.23974 17.426 2.75 15 2.75H9C6.57397 2.75 5.0708 3.23974 4.15527 4.15527C3.23974 5.0708 2.75 6.57397 2.75 9V15C2.75 17.426 3.23974 18.9292 4.15527 19.8447C5.0708 20.7603 6.57397 21.25 9 21.25H15C17.426 21.25 18.9292 20.7603 19.8447 19.8447C20.7603 18.9292 21.25 17.426 21.25 15V9ZM22.75 15C22.75 17.574 22.2397 19.5708 20.9053 20.9053C19.5708 22.2397 17.574 22.75 15 22.75H9C6.42603 22.75 4.4292 22.2397 3.09473 20.9053C1.76026 19.5708 1.25 17.574 1.25 15V9C1.25 6.42603 1.76026 4.4292 3.09473 3.09473C4.4292 1.76026 6.42603 1.25 9 1.25H15C17.574 1.25 19.5708 1.76026 20.9053 3.09473C22.2397 4.4292 22.75 6.42603 22.75 9V15Z" fill="#1C252E"/>
<path d="M16.077 9.05004C16.3308 8.72285 16.8024 8.66351 17.1297 8.91722C17.4569 9.17103 17.5162 9.64265 17.2625 9.96996L14.9529 12.9494L14.9481 12.9553C14.3532 13.7075 13.2562 13.8444 12.491 13.2532L12.4862 13.2493L10.661 11.8137L10.617 11.7854C10.5102 11.7327 10.379 11.7603 10.3035 11.8567L7.92365 14.9475C7.67087 15.2756 7.20001 15.3369 6.87189 15.0842C6.54391 14.8314 6.48345 14.3605 6.73615 14.0325L9.11603 10.9426V10.9416C9.67288 10.221 10.6764 10.0533 11.4315 10.5237L11.5789 10.6262L11.5838 10.6301L13.4119 12.0686C13.5265 12.1545 13.687 12.1313 13.7713 12.0246L16.077 9.05004Z" fill="#1C252E"/>
</svg>
