<svg width="24" height="24" viewBox="0 0 24 24" fill="none" xmlns="http://www.w3.org/2000/svg">
<path d="M6.25 13.9402V10.74C6.25 10.3258 6.58579 9.98999 7 9.98999C7.41421 9.98999 7.75 10.3258 7.75 10.74V13.9402C7.74989 14.3543 7.41415 14.6902 7 14.6902C6.58585 14.6902 6.25011 14.3543 6.25 13.9402Z" fill="#1C252E"/>
<path d="M11.25 15.6797V9C11.25 8.58579 11.5858 8.25 12 8.25C12.4142 8.25 12.75 8.58579 12.75 9V15.6797C12.75 16.0939 12.4142 16.4297 12 16.4297C11.5858 16.4297 11.25 16.0939 11.25 15.6797Z" fill="#1C252E"/>
<path d="M16.25 13.9402V10.74C16.25 10.3258 16.5858 9.98999 17 9.98999C17.4142 9.98999 17.75 10.3258 17.75 10.74V13.9402C17.7499 14.3543 17.4141 14.6902 17 14.6902C16.5859 14.6902 16.2501 14.3543 16.25 13.9402Z" fill="#1C252E"/>
<path d="M21.25 9C21.25 6.57397 20.7603 5.0708 19.8447 4.15527C18.9292 3.23974 17.426 2.75 15 2.75H9C6.57397 2.75 5.0708 3.23974 4.15527 4.15527C3.23974 5.0708 2.75 6.57397 2.75 9V15C2.75 17.426 3.23974 18.9292 4.15527 19.8447C5.0708 20.7603 6.57397 21.25 9 21.25H15C17.426 21.25 18.9292 20.7603 19.8447 19.8447C20.7603 18.9292 21.25 17.426 21.25 15V9ZM22.75 15C22.75 17.574 22.2397 19.5708 20.9053 20.9053C19.5708 22.2397 17.574 22.75 15 22.75H9C6.42603 22.75 4.4292 22.2397 3.09473 20.9053C1.76026 19.5708 1.25 17.574 1.25 15V9C1.25 6.42603 1.76026 4.4292 3.09473 3.09473C4.4292 1.76026 6.42603 1.25 9 1.25H15C17.574 1.25 19.5708 1.76026 20.9053 3.09473C22.2397 4.4292 22.75 6.42603 22.75 9V15Z" fill="#1C252E"/>
</svg>
