<svg width="24" height="24" viewBox="0 0 24 24" fill="none" xmlns="http://www.w3.org/2000/svg">
<path d="M15.9697 8.96973C16.2626 8.67684 16.7373 8.67684 17.0302 8.96973C17.3231 9.26262 17.3231 9.73738 17.0302 10.0303L12.83 14.2305C12.6713 14.3891 12.4499 14.4683 12.2265 14.4463C12.0029 14.4242 11.8004 14.3031 11.6757 14.1162L10.583 12.4766L8.03022 15.0303C7.73732 15.3232 7.26256 15.3232 6.96967 15.0303C6.67678 14.7374 6.67678 14.2626 6.96967 13.9697L10.1699 10.7695L10.2324 10.7139C10.3842 10.5928 10.578 10.5345 10.7734 10.5537C10.997 10.5759 11.1995 10.6969 11.3242 10.8838L12.416 12.5225L15.9697 8.96973Z" fill="#1C252E"/>
<path d="M15.75 11.5V10.25H14.5C14.0858 10.25 13.75 9.91421 13.75 9.5C13.75 9.08579 14.0858 8.75 14.5 8.75H16.5C16.9142 8.75 17.25 9.08579 17.25 9.5V11.5C17.25 11.9142 16.9142 12.25 16.5 12.25C16.0858 12.25 15.75 11.9142 15.75 11.5Z" fill="#1C252E"/>
<path d="M21.25 9C21.25 6.57397 20.7603 5.0708 19.8447 4.15527C18.9292 3.23974 17.426 2.75 15 2.75H9C6.57397 2.75 5.0708 3.23974 4.15527 4.15527C3.23974 5.0708 2.75 6.57397 2.75 9V15C2.75 17.426 3.23974 18.9292 4.15527 19.8447C5.0708 20.7603 6.57397 21.25 9 21.25H15C17.426 21.25 18.9292 20.7603 19.8447 19.8447C20.7603 18.9292 21.25 17.426 21.25 15V9ZM22.75 15C22.75 17.574 22.2397 19.5708 20.9053 20.9053C19.5708 22.2397 17.574 22.75 15 22.75H9C6.42603 22.75 4.4292 22.2397 3.09473 20.9053C1.76026 19.5708 1.25 17.574 1.25 15V9C1.25 6.42603 1.76026 4.4292 3.09473 3.09473C4.4292 1.76026 6.42603 1.25 9 1.25H15C17.574 1.25 19.5708 1.76026 20.9053 3.09473C22.2397 4.4292 22.75 6.42603 22.75 9V15Z" fill="#1C252E"/>
</svg>
