<svg width="24" height="24" viewBox="0 0 24 24" fill="none" xmlns="http://www.w3.org/2000/svg">
<path d="M12.4717 2.37579C13.4378 1.68056 14.8228 1.75207 16.4902 2.24005H16.4912C18.869 2.93941 20.9061 4.92427 21.6875 7.27911L21.7598 7.5086V7.50958C22.2478 9.17711 22.3193 10.562 21.624 11.5281C20.9186 12.5083 19.6501 12.7498 18.3203 12.7498H15C13.8836 12.7498 12.8882 12.4695 12.1924 11.6971C11.5127 10.9425 11.25 9.86061 11.25 8.56036V5.68048C11.25 4.35059 11.4915 3.08125 12.4717 2.37579ZM12.75 8.56036C12.7501 9.69963 12.9875 10.3379 13.3076 10.6932C13.6118 11.0306 14.1167 11.2498 15 11.2498H18.3203C19.59 11.2498 20.1617 10.9918 20.4062 10.6522C20.6609 10.2984 20.7919 9.54324 20.3203 7.93146C19.7422 5.96617 18.0337 4.25753 16.0684 3.6795V3.67853C14.4569 3.20706 13.7014 3.33898 13.3477 3.59357C13.008 3.83819 12.75 4.41064 12.75 5.68048V8.56036Z" fill="#1C252E"/>
<path d="M9.1097 3.27466C9.51557 3.1919 9.91171 3.45474 9.99447 3.8606C10.077 4.26633 9.81524 4.66263 9.40951 4.74536C5.18057 5.60777 2.11672 9.68112 2.86068 14.301H2.8597C3.42847 17.7723 6.22915 20.5706 9.69857 21.1292L9.69955 21.1301C14.3369 21.8831 18.4105 18.8012 19.264 14.552C19.3457 14.146 19.7418 13.8835 20.1478 13.9651C20.5537 14.0468 20.8162 14.4419 20.7347 14.8479C19.7281 19.8586 14.9219 23.4976 9.45931 22.6106V22.6096C5.35028 21.9477 2.05116 18.6484 1.37923 14.5413V14.5393C0.503215 9.09933 4.11881 4.29239 9.1097 3.27466Z" fill="#1C252E"/>
</svg>
