<svg width="24" height="24" viewBox="0 0 24 24" fill="none" xmlns="http://www.w3.org/2000/svg">
<path d="M21.2197 9C21.2197 6.57397 20.73 5.0708 19.8145 4.15527C18.8989 3.23974 17.3958 2.75 14.9697 2.75H8.96973C6.5437 2.75 5.04053 3.23974 4.125 4.15527C3.20947 5.0708 2.71973 6.57397 2.71973 9V15C2.71973 17.426 3.20947 18.9292 4.125 19.8447C5.04053 20.7603 6.5437 21.25 8.96973 21.25H14.9697C17.3958 21.25 18.8989 20.7603 19.8145 19.8447C20.73 18.9292 21.2197 17.426 21.2197 15V9ZM22.7197 15C22.7197 17.574 22.2095 19.5708 20.875 20.9053C19.5405 22.2397 17.5437 22.75 14.9697 22.75H8.96973C6.39575 22.75 4.39892 22.2397 3.06445 20.9053C1.72998 19.5708 1.21973 17.574 1.21973 15V9C1.21973 6.42603 1.72998 4.4292 3.06445 3.09473C4.39892 1.76026 6.39575 1.25 8.96973 1.25H14.9697C17.5437 1.25 19.5405 1.76026 20.875 3.09473C22.2095 4.4292 22.7197 6.42603 22.7197 9V15Z" fill="#1C252E"/>
<path d="M14.5928 9.83778C15.2064 9.80536 15.5889 10.2726 15.7725 10.62H15.7734L16.8125 12.5897L16.8135 12.5907C16.8897 12.7359 17.0559 12.9118 17.291 13.0536C17.5264 13.1955 17.7586 13.2597 17.9199 13.2597H21.9795C22.3936 13.2597 22.7293 13.5956 22.7295 14.0097C22.7295 14.4239 22.3937 14.7597 21.9795 14.7597H17.9199C17.4215 14.7597 16.9237 14.5842 16.5166 14.3388C16.1093 14.0931 15.7191 13.7338 15.4854 13.289V13.288L14.6982 11.7977L12.6074 17.1054L12.6064 17.1083C12.5195 17.3256 12.3988 17.5436 12.2285 17.7186C12.0549 17.897 11.7888 18.0673 11.4443 18.0673C11.1002 18.0671 10.8347 17.8969 10.6611 17.7186C10.4908 17.5436 10.3701 17.3256 10.2832 17.1083L10.2822 17.1063L9.14356 14.2284L9.07129 14.0878C8.98174 13.9442 8.84187 13.7962 8.66016 13.6727C8.4178 13.5082 8.16398 13.4296 7.96973 13.4296L1.97266 13.4501C1.55845 13.4515 1.22111 13.1163 1.21973 12.702C1.2186 12.2882 1.55294 11.9517 1.9668 11.9501L7.9668 11.9296H7.96973C8.52529 11.9296 9.06689 12.1362 9.50196 12.4315C9.88292 12.6902 10.2308 13.0504 10.4502 13.4823L10.5361 13.6718L10.5371 13.6737L11.4434 15.9647L13.502 10.745C13.6465 10.3776 13.977 9.87043 14.5928 9.83778Z" fill="#1C252E"/>
</svg>
