<svg width="24" height="24" viewBox="0 0 24 24" fill="none" xmlns="http://www.w3.org/2000/svg">
<path d="M1.25 17.7703V10.3602C1.25 9.6499 1.47408 8.88081 1.80371 8.20881C2.13355 7.53656 2.60541 6.88652 3.16895 6.44807L8.55957 2.24788C9.38422 1.60651 10.4481 1.29369 11.4834 1.26936C12.454 1.2466 13.4614 1.47568 14.2871 1.9969L14.4502 2.1053L20.6289 6.4344L20.8564 6.60725C21.3766 7.03371 21.8158 7.6204 22.1357 8.23323C22.5013 8.93355 22.75 9.7427 22.75 10.4998V17.7801C22.7499 20.5031 20.5254 22.74 17.79 22.7401H6.20996C3.47357 22.74 1.25019 20.5021 1.25 17.7703ZM2.75 17.7703C2.75019 19.6783 4.30662 21.24 6.20996 21.2401H17.79C19.6946 21.24 21.2499 19.677 21.25 17.7801V10.4998C21.25 10.0471 21.0935 9.47614 20.8066 8.92659C20.5197 8.37705 20.1415 7.9228 19.7715 7.66487L19.7695 7.66389L13.5898 3.33381C13.0439 2.95179 12.2955 2.75017 11.5186 2.76838C10.7416 2.78665 10.0057 3.02395 9.48047 3.43245L4.09082 7.63167C3.75455 7.89321 3.41047 8.33889 3.15039 8.86897C2.89018 9.39933 2.75 9.94067 2.75 10.3602V17.7703Z" fill="#1C252E"/>
<path d="M15.75 12C15.75 10.7642 14.7358 9.75 13.5 9.75H10.5C9.26421 9.75 8.25 10.7642 8.25 12V15C8.25 16.2358 9.26421 17.25 10.5 17.25H13.5C14.7358 17.25 15.75 16.2358 15.75 15V12ZM17.25 15C17.25 17.0642 15.5642 18.75 13.5 18.75H10.5C8.43579 18.75 6.75 17.0642 6.75 15V12C6.75 9.93579 8.43579 8.25 10.5 8.25H13.5C15.5642 8.25 17.25 9.93579 17.25 12V15Z" fill="#1C252E"/>
<path d="M11.25 18V9C11.25 8.58579 11.5858 8.25 12 8.25C12.4142 8.25 12.75 8.58579 12.75 9V18C12.75 18.4142 12.4142 18.75 12 18.75C11.5858 18.75 11.25 18.4142 11.25 18Z" fill="#1C252E"/>
<path d="M16.5 12.75C16.9142 12.75 17.25 13.0858 17.25 13.5C17.25 13.9142 16.9142 14.25 16.5 14.25H7.5C7.08579 14.25 6.75 13.9142 6.75 13.5C6.75 13.0858 7.08579 12.75 7.5 12.75H16.5Z" fill="#1C252E"/>
</svg>
