<svg width="24" height="24" viewBox="0 0 24 24" fill="none" xmlns="http://www.w3.org/2000/svg">
<path d="M21.25 8C21.25 5.99464 20.9812 5.04177 20.4697 4.53027C19.9582 4.01878 19.0054 3.75 17 3.75H7C4.99464 3.75 4.04177 4.01878 3.53027 4.53027C3.01878 5.04177 2.75 5.99464 2.75 8V16C2.75 18.0054 3.01878 18.9582 3.53027 19.4697C4.04177 19.9812 4.99464 20.25 7 20.25H17C19.0054 20.25 19.9582 19.9812 20.4697 19.4697C20.9812 18.9582 21.25 18.0054 21.25 16V8ZM22.75 16C22.75 17.9946 22.5188 19.5418 21.5303 20.5303C20.5418 21.5188 18.9946 21.75 17 21.75H7C5.00536 21.75 3.45823 21.5188 2.46973 20.5303C1.48122 19.5418 1.25 17.9946 1.25 16V8C1.25 6.00536 1.48122 4.45823 2.46973 3.46973C3.45823 2.48122 5.00536 2.25 7 2.25H17C18.9946 2.25 20.5418 2.48122 21.5303 3.46973C22.5188 4.45823 22.75 6.00536 22.75 8V16Z" fill="#1C252E"/>
<path d="M19 7.25C19.4142 7.25 19.75 7.58579 19.75 8C19.75 8.41421 19.4142 8.75 19 8.75H14C13.5858 8.75 13.25 8.41421 13.25 8C13.25 7.58579 13.5858 7.25 14 7.25H19Z" fill="#1C252E"/>
<path d="M19 11.25C19.4142 11.25 19.75 11.5858 19.75 12C19.75 12.4142 19.4142 12.75 19 12.75H15C14.5858 12.75 14.25 12.4142 14.25 12C14.25 11.5858 14.5858 11.25 15 11.25H19Z" fill="#1C252E"/>
<path d="M19 15.25C19.4142 15.25 19.75 15.5858 19.75 16C19.75 16.4142 19.4142 16.75 19 16.75H17C16.5858 16.75 16.25 16.4142 16.25 16C16.25 15.5858 16.5858 15.25 17 15.25H19Z" fill="#1C252E"/>
<path d="M9.56055 9.47955C9.56032 8.89433 9.08528 8.41998 8.5 8.41998C7.91492 8.42022 7.44066 8.89447 7.44043 9.47955C7.44043 10.0648 7.91478 10.5399 8.5 10.5401C9.08542 10.5401 9.56055 10.065 9.56055 9.47955ZM11.0605 9.47955C11.0605 10.8934 9.91385 12.0401 8.5 12.0401C7.08635 12.0399 5.94043 10.8933 5.94043 9.47955C5.94066 8.06604 7.08649 6.92022 8.5 6.91998C9.91371 6.91998 11.0603 8.0659 11.0605 9.47955Z" fill="#1C252E"/>
<path d="M7.66661 12.8635C8.22189 12.8091 8.77844 12.8094 9.32579 12.8635C9.32844 12.8638 9.33192 12.8633 9.33458 12.8635L9.3336 12.8645C11.1391 13.0298 12.5712 14.4507 12.7457 16.2581C12.7855 16.6703 12.484 17.0365 12.0719 17.0764C11.6596 17.1162 11.2933 16.8139 11.2535 16.4016C11.1481 15.3117 10.2839 14.4547 9.19297 14.3567H9.18516C8.73536 14.3117 8.27482 14.3115 7.81309 14.3567H7.81211C6.7128 14.4628 5.85076 15.3157 5.74571 16.4016C5.7059 16.8139 5.33965 17.1162 4.92735 17.0764C4.51518 17.0365 4.21377 16.6703 4.25352 16.2581C4.42862 14.4445 5.86654 13.0388 7.66661 12.8645V12.8635Z" fill="#1C252E"/>
</svg>
