<svg width="24" height="24" viewBox="0 0 24 24" fill="none" xmlns="http://www.w3.org/2000/svg">
<path d="M1.25 17.7703V10.3602C1.25 9.6499 1.47408 8.88081 1.80371 8.20881C2.13355 7.53656 2.60541 6.88652 3.16895 6.44807L8.55957 2.24788C9.38422 1.60651 10.4481 1.29369 11.4834 1.26936C12.454 1.2466 13.4614 1.47568 14.2871 1.9969L14.4502 2.1053L20.6289 6.4344L20.8564 6.60725C21.3766 7.03371 21.8158 7.6204 22.1357 8.23323C22.5013 8.93355 22.75 9.7427 22.75 10.4998V17.7801C22.7499 20.5031 20.5254 22.74 17.79 22.7401H6.20996C3.47357 22.74 1.25019 20.5021 1.25 17.7703ZM2.75 17.7703C2.75019 19.6783 4.30662 21.24 6.20996 21.2401H17.79C19.6946 21.24 21.2499 19.677 21.25 17.7801V10.4998C21.25 10.0471 21.0935 9.47614 20.8066 8.92659C20.5197 8.37705 20.1415 7.9228 19.7715 7.66487L19.7695 7.66389L13.5898 3.33381C13.0439 2.95179 12.2955 2.75017 11.5186 2.76838C10.7416 2.78665 10.0057 3.02395 9.48047 3.43245L4.09082 7.63167C3.75455 7.89321 3.41047 8.33889 3.15039 8.86897C2.89018 9.39933 2.75 9.94067 2.75 10.3602V17.7703Z" fill="#1C252E"/>
<path d="M6.96967 10.9697C7.26256 10.6768 7.73732 10.6768 8.03022 10.9697L10.583 13.5225L11.6757 11.8838C11.8004 11.6969 12.0029 11.5759 12.2265 11.5537C12.4499 11.5317 12.6713 11.6109 12.83 11.7695L17.0302 15.9697C17.3231 16.2626 17.3231 16.7374 17.0302 17.0303C16.7373 17.3232 16.2626 17.3232 15.9697 17.0303L12.416 13.4766L11.3242 15.1162C11.1995 15.3031 10.997 15.4242 10.7734 15.4463C10.55 15.4683 10.3286 15.3891 10.1699 15.2305L6.96967 12.0303C6.67678 11.7374 6.67678 11.2626 6.96967 10.9697Z" fill="#1C252E"/>
<path d="M15.75 14.5C15.75 14.0858 16.0858 13.75 16.5 13.75C16.9142 13.75 17.25 14.0858 17.25 14.5V16.5C17.25 16.9142 16.9142 17.25 16.5 17.25H14.5C14.0858 17.25 13.75 16.9142 13.75 16.5C13.75 16.0858 14.0858 15.75 14.5 15.75H15.75V14.5Z" fill="#1C252E"/>
</svg>
