<svg width="24" height="24" viewBox="0 0 24 24" fill="none" xmlns="http://www.w3.org/2000/svg">
<path d="M6.96967 8.96973C7.26256 8.67684 7.73732 8.67684 8.03022 8.96973L10.583 11.5225L11.6757 9.88379C11.8004 9.69686 12.0029 9.57585 12.2265 9.55372C12.4499 9.53174 12.6713 9.61089 12.83 9.76954L17.0302 13.9697C17.3231 14.2626 17.3231 14.7374 17.0302 15.0303C16.7373 15.3232 16.2626 15.3232 15.9697 15.0303L12.416 11.4766L11.3242 13.1162C11.1995 13.3031 10.997 13.4242 10.7734 13.4463C10.55 13.4683 10.3286 13.3891 10.1699 13.2305L6.96967 10.0303C6.67678 9.73738 6.67678 9.26262 6.96967 8.96973Z" fill="#1C252E"/>
<path d="M15.75 12.5C15.75 12.0858 16.0858 11.75 16.5 11.75C16.9142 11.75 17.25 12.0858 17.25 12.5V14.5C17.25 14.9142 16.9142 15.25 16.5 15.25H14.5C14.0858 15.25 13.75 14.9142 13.75 14.5C13.75 14.0858 14.0858 13.75 14.5 13.75H15.75V12.5Z" fill="#1C252E"/>
<path d="M21.25 9C21.25 6.57397 20.7603 5.0708 19.8447 4.15527C18.9292 3.23974 17.426 2.75 15 2.75H9C6.57397 2.75 5.0708 3.23974 4.15527 4.15527C3.23974 5.0708 2.75 6.57397 2.75 9V15C2.75 17.426 3.23974 18.9292 4.15527 19.8447C5.0708 20.7603 6.57397 21.25 9 21.25H15C17.426 21.25 18.9292 20.7603 19.8447 19.8447C20.7603 18.9292 21.25 17.426 21.25 15V9ZM22.75 15C22.75 17.574 22.2397 19.5708 20.9053 20.9053C19.5708 22.2397 17.574 22.75 15 22.75H9C6.42603 22.75 4.4292 22.2397 3.09473 20.9053C1.76026 19.5708 1.25 17.574 1.25 15V9C1.25 6.42603 1.76026 4.4292 3.09473 3.09473C4.4292 1.76026 6.42603 1.25 9 1.25H15C17.574 1.25 19.5708 1.76026 20.9053 3.09473C22.2397 4.4292 22.75 6.42603 22.75 9V15Z" fill="#1C252E"/>
</svg>
