<svg width="24" height="24" viewBox="0 0 24 24" fill="none" xmlns="http://www.w3.org/2000/svg">
<path d="M6.0589 4.48038C5.1789 4.48038 4.4589 5.20036 4.4589 6.08036V8.23038C4.4589 8.59038 4.2489 9.10039 3.9889 9.36039L2.46891 10.8804C1.84891 11.5004 1.84891 12.5204 2.46891 13.1404L3.9889 14.6604C4.2489 14.9104 4.4589 15.4204 4.4589 15.7904V17.9403C4.4589 18.8203 5.1789 19.5404 6.0589 19.5404H8.2089C8.5689 19.5404 9.0789 19.7504 9.3389 20.0104L10.8589 21.5304C11.4789 22.1504 12.4989 22.1504 13.1189 21.5304L14.6389 20.0104M9.3389 4.01041L10.8589 2.49039C11.4789 1.87039 12.4989 1.87039 13.1189 2.49039L14.6389 4.01041C14.8989 4.27041 15.4089 4.48038 15.7689 4.48038H17.9189C18.7989 4.48038 19.5189 5.20036 19.5189 6.08036V8.23038C19.5189 8.59038 19.7289 9.10039 19.9889 9.36039L21.5089 10.8804C22.1289 11.5004 22.1289 12.5204 21.5089 13.1404L19.9889 14.6604C19.7289 14.9204 19.5189 15.4304 19.5189 15.7904V17.9403C19.5189 18.8203 18.7989 19.5404 17.9189 19.5404" stroke="#1C252E" stroke-width="1.5" stroke-linecap="round" stroke-linejoin="round"/>
<path d="M9 15L15 9" stroke="#1C252E" stroke-width="1.5" stroke-linecap="round" stroke-linejoin="round"/>
<path d="M14.4946 14.5H14.5036" stroke="#1C252E" stroke-width="2" stroke-linecap="round" stroke-linejoin="round"/>
<path d="M9.49463 9.5H9.50361" stroke="#1C252E" stroke-width="2" stroke-linecap="round" stroke-linejoin="round"/>
</svg>
