<svg width="24" height="24" viewBox="0 0 24 24" fill="none" xmlns="http://www.w3.org/2000/svg">
<path d="M1.70996 13.07C1.70996 15.29 2.61996 16.59 4.11996 17.15C4.33996 17.23 4.57996 17.3 4.82996 17.34C5.22996 17.43 5.65995 17.47 6.10995 17.47H14.9C17.54 17.47 19.3 16.15 19.3 13.07V7.91998C19.3 7.44998 19.25 7.04001 19.18 6.64001C18.75 4.47001 17.14 3.52002 14.9 3.52002H6.10995C3.46995 3.52002 1.70996 4.83998 1.70996 7.91998" stroke="#1C252E" stroke-width="1.5" stroke-miterlimit="10" stroke-linecap="round" stroke-linejoin="round"/>
<path d="M22.1574 17.4701C22.2518 17.0513 22.3011 16.5853 22.3011 16.0701V10.9201C22.3011 8.38011 21.0811 7.04014 19.1811 6.64014C19.2611 7.03014 19.3011 7.4501 19.3011 7.9201V13.0701C19.3011 16.1501 17.5411 17.4701 14.9011 17.4701H6.11105C5.66105 17.4701 5.23105 17.4301 4.83105 17.3401C5.12105 18.8001 5.93106 19.7101 7.12106 20.1501C7.70106 20.3701 8.37105 20.4701 9.11105 20.4701H17.9011C18.4793 20.4701 19.0154 20.4068 19.5 20.2755" stroke="#1C252E" stroke-width="1.5" stroke-miterlimit="10" stroke-linecap="round" stroke-linejoin="round"/>
<path d="M10.4984 13.1399C11.9564 13.1399 13.1384 11.9579 13.1384 10.4999C13.1384 9.04185 11.9564 7.85986 10.4984 7.85986C9.04038 7.85986 7.8584 9.04185 7.8584 10.4999C7.8584 11.9579 9.04038 13.1399 10.4984 13.1399Z" stroke="#1C252E" stroke-width="1.5" stroke-miterlimit="10" stroke-linecap="round" stroke-linejoin="round"/>
<path d="M4.78003 8.30005V12.7001" stroke="#1C252E" stroke-width="1.5" stroke-miterlimit="10" stroke-linecap="round" stroke-linejoin="round"/>
<path d="M16.2217 8.30029V12.7003" stroke="#1C252E" stroke-width="1.5" stroke-miterlimit="10" stroke-linecap="round" stroke-linejoin="round"/>
</svg>
