<svg width="24" height="24" viewBox="0 0 24 24" fill="none" xmlns="http://www.w3.org/2000/svg">
<path d="M22 6V8.42C22 10 21 11 19.42 11H16V4.01C16 2.9 16.91 2 18.02 2C19.11 2.01 20.11 2.45 20.83 3.17C21.55 3.9 22 4.9 22 6Z" stroke="#1C252E" stroke-width="1.5" stroke-miterlimit="10" stroke-linecap="round" stroke-linejoin="round"/>
<path d="M2 7V6C2 3.79 3 2 6 2H7H18C16.9 2 16 2.9 16 4V21C16 21.82 15.06 22.29 14.4 21.8L12.69 20.52C12.3 20.22 11.74 20.26 11.39 20.61L9.71 22.29C9.32 22.68 8.68 22.68 8.29 22.29L6.63 20.62C6.27 20.26 5.71 20.22 5.31 20.52L3.6 21.8C2.94 22.3 2 21.83 2 21V12.5" stroke="#1C252E" stroke-width="1.5" stroke-miterlimit="10" stroke-linecap="round" stroke-linejoin="round"/>
<path d="M6.27002 13.73L11.73 8.27002" stroke="#1C252E" stroke-width="1.5" stroke-linecap="round" stroke-linejoin="round"/>
<path d="M11.9248 13.5H11.9338" stroke="#1C252E" stroke-width="2" stroke-linecap="round" stroke-linejoin="round"/>
<path d="M6.19482 8.5H6.20381" stroke="#1C252E" stroke-width="2" stroke-linecap="round" stroke-linejoin="round"/>
</svg>
