<svg width="24" height="24" viewBox="0 0 24 24" fill="none" xmlns="http://www.w3.org/2000/svg">
<path d="M10.11 11.1501H7.46005C6.83005 11.1501 6.32007 11.6601 6.32007 12.2901V17.4101H10.11V11.1501V11.1501Z" stroke="#1C252E" stroke-width="1.5" stroke-miterlimit="10" stroke-linecap="round" stroke-linejoin="round"/>
<path d="M12.7613 6.6001H11.2413C10.6113 6.6001 10.1013 7.11011 10.1013 7.74011V17.4001H13.8913V7.74011C13.8913 7.11011 13.3913 6.6001 12.7613 6.6001Z" stroke="#1C252E" stroke-width="1.5" stroke-miterlimit="10" stroke-linecap="round" stroke-linejoin="round"/>
<path d="M16.5482 12.8501H13.8982V17.4001H17.6882V13.9901C17.6782 13.3601 17.1682 12.8501 16.5482 12.8501Z" stroke="#1C252E" stroke-width="1.5" stroke-miterlimit="10" stroke-linecap="round" stroke-linejoin="round"/>
<path d="M2 9C2 4 4 2 9 2H15C20 2 22 4 22 9V15C22 20 20 22 15 22H9C4 22 2 20 2 15" stroke="#1C252E" stroke-width="1.5" stroke-linecap="round" stroke-linejoin="round"/>
</svg>
