<svg width="24" height="24" viewBox="0 0 24 24" fill="none" xmlns="http://www.w3.org/2000/svg">
<path d="M3.5 7.04C3.5 3.01 4.44 2 8.22 2H15.78C19.56 2 20.5 3.01 20.49 7.04V18.31C20.49 20.97 19.04 21.6 17.26 19.7C16.44 18.82 15.19 18.89 14.47 19.85L13.46 21.2C12.65 22.27 11.34 22.27 10.53 21.2L9.52 19.85C8.8 18.89 7.55 18.82 6.73 19.7C4.96 21.59 3.5 20.97 3.5 18.3V14.5" stroke="#1C252E" stroke-width="1.5" stroke-linecap="round" stroke-linejoin="round"/>
<path d="M9 13L15 7" stroke="#1C252E" stroke-width="1.5" stroke-linecap="round" stroke-linejoin="round"/>
<path d="M14.9946 13H15.0036" stroke="#1C252E" stroke-width="2" stroke-linecap="round" stroke-linejoin="round"/>
<path d="M8.99463 7.5H9.00361" stroke="#1C252E" stroke-width="2" stroke-linecap="round" stroke-linejoin="round"/>
</svg>
