<svg width="24" height="24" viewBox="0 0 24 24" fill="none" xmlns="http://www.w3.org/2000/svg">
<path d="M4.85 14.2227C4.85 15.5127 3.79 16.5727 2.5 16.5727V17.0327C2.5 20.7827 3.44 21.7227 7.19 21.7227H16.57C20.32 21.7227 21.26 20.7827 21.26 17.0327C19.97 17.0327 18.91 15.9827 18.91 14.6927C18.91 13.3927 19.96 12.3527 21.25 12.3527V11.4127C21.25 7.66266 20.31 6.72266 16.56 6.72266H7.19C3.44 6.72266 2.51 7.66266 2.5 11.4127V11.8727" stroke="#1C252E" stroke-width="1.5" stroke-linecap="round" stroke-linejoin="round"/>
<path d="M16.2111 6.7225H7.12109L10.0511 3.7925C12.4411 1.4025 13.6411 1.4025 16.0311 3.7925L16.6311 4.3925C16.0011 5.0225 15.8511 5.9525 16.2111 6.7225Z" stroke="#1C252E" stroke-width="1.5" stroke-linecap="round" stroke-linejoin="round"/>
<path d="M9.87891 6.72266L9.87891 21.7227" stroke="#1C252E" stroke-width="1.5" stroke-linecap="round" stroke-linejoin="round" stroke-dasharray="5 5"/>
</svg>
