<svg width="24" height="24" viewBox="0 0 24 24" fill="none" xmlns="http://www.w3.org/2000/svg">
<path d="M2 14.5599C2 15.7299 2.77001 17.2799 3.71001 17.9799L7.99001 21.1799C9.41001 22.2299 11.71 22.2299 13.12 21.1799L17.39 17.9799C17.48 17.8999 17.57 17.8299 17.66 17.7499H11.74C9.39001 17.7499 8.79999 17.1598 8.78999 14.8598V9.42986C8.78999 7.31986 9.27 6.64987 11.12 6.53987C11.31 6.53987 11.51 6.52986 11.73 6.52986H19.03C18.78 5.50986 17.97 4.50986 17.02 4.14986L12.05 2.27986C11.23 1.96986 9.87 1.96986 9.05 2.27986L4.07001 4.14986C2.93001 4.57986 2 5.92986 2 7.14986" stroke="#1C252E" stroke-width="1.5" stroke-linecap="round" stroke-linejoin="round"/>
<path d="M8.80005 11.22H22" stroke="#1C252E" stroke-width="1.5" stroke-miterlimit="10" stroke-linecap="round" stroke-linejoin="round"/>
<path d="M22 9.41977V14.9698C21.98 17.1898 21.37 17.7397 19.06 17.7397H11.7401C9.39005 17.7397 8.80005 17.1498 8.80005 14.8398V9.40976C8.80005 7.30976 9.28005 6.63974 11.1301 6.51974C11.3201 6.51974 11.5201 6.50977 11.7401 6.50977H19.06C21.41 6.51977 22 7.09977 22 9.41977Z" stroke="#1C252E" stroke-width="1.5" stroke-linecap="round" stroke-linejoin="round"/>
<path d="M11.3201 15.2598H12.6501" stroke="#1C252E" stroke-width="1.5" stroke-miterlimit="10" stroke-linecap="round" stroke-linejoin="round"/>
<path d="M14.75 15.2598H18.02" stroke="#1C252E" stroke-width="1.5" stroke-miterlimit="10" stroke-linecap="round" stroke-linejoin="round"/>
</svg>
