<svg width="24" height="24" viewBox="0 0 24 24" fill="none" xmlns="http://www.w3.org/2000/svg">
<path d="M2 11V9C2 4 4 2 9 2H15C20 2 22 4 22 9V15C22 20 20 22 15 22H9C4.4097 22 2.3479 20.3143 2.04083 16.1692" stroke="#1C252E" stroke-width="1.5" stroke-linecap="round" stroke-linejoin="round"/>
<path d="M14.3511 10.9101C14.2511 11.6201 13.8311 12.2201 13.2511 12.5801V14.5601C13.2511 15.2501 12.6911 15.8101 12.0011 15.8101C11.3111 15.8101 10.7511 15.2501 10.7511 14.5601V12.5801C10.1711 12.2201 9.75109 11.6201 9.65109 10.9101C9.63109 10.8001 9.62109 10.6801 9.62109 10.5601C9.62109 9.04012 11.0611 7.86012 12.6411 8.28012C13.4411 8.49012 14.0911 9.14012 14.3011 9.94012C14.3911 10.2701 14.4011 10.6001 14.3511 10.9101Z" stroke="#1C252E" stroke-width="1.5" stroke-miterlimit="10"/>
<path d="M14.3516 10.9102H18.1766" stroke="#1C252E" stroke-width="1.5" stroke-miterlimit="10" stroke-linecap="round"/>
<path d="M9.64999 10.9099H2" stroke="#1C252E" stroke-width="1.5" stroke-miterlimit="10"/>
</svg>
