<svg width="24" height="24" viewBox="0 0 24 24" fill="none" xmlns="http://www.w3.org/2000/svg">
<path d="M2.00488 8.5C2.09488 4.92 3.16488 4 6.99488 4H16.9949C20.9949 4 21.9949 5 21.9949 9V15C21.9949 19 20.9949 20 16.9949 20H6.99488C3.16488 20 2.09488 19.08 2.00488 15.5C3.93488 15.49 5.49488 13.93 5.49488 12" stroke="#1C252E" stroke-width="1.5" stroke-linecap="round" stroke-linejoin="round"/>
<path d="M8.99316 4V7.5" stroke="#1C252E" stroke-width="1.5" stroke-linecap="round" stroke-linejoin="round"/>
<path d="M8.99316 16.5V20" stroke="#1C252E" stroke-width="1.5" stroke-linecap="round" stroke-linejoin="round"/>
<path d="M16.445 13.0602C16.425 12.9202 16.465 12.7802 16.565 12.6902L17.565 11.7202C17.815 11.4802 17.675 11.0602 17.335 11.0102L15.955 10.8102C15.825 10.7902 15.705 10.7002 15.645 10.5802L15.025 9.33016C14.875 9.02016 14.435 9.02016 14.295 9.33016L13.685 10.5802C13.625 10.7102 13.515 10.7902 13.375 10.8102L11.995 11.0102C11.655 11.0602 11.515 11.4802 11.765 11.7202L12.755 12.6902C12.855 12.7902 12.895 12.9202 12.875 13.0602L12.635 14.4302C12.575 14.7702 12.925 15.0302 13.235 14.8702L14.465 14.2202C14.585 14.1602 14.735 14.1602 14.855 14.2202L16.085 14.8702" stroke="#1C252E" stroke-width="1.5" stroke-linecap="round" stroke-linejoin="round"/>
</svg>
