<svg width="24" height="24" viewBox="0 0 24 24" fill="none" xmlns="http://www.w3.org/2000/svg">
<path d="M2 17C2 20 4 22 7 22H17C20 22 22 20 22 17V12C22 9.26 20.33 7.34999 17.75 7.04999C17.51 7.00999 17.26 7 17 7H7C6.72 7 6.45 7.02 6.19 7.06C3.64 7.38 2 9.28 2 12" stroke="#1C252E" stroke-width="1.5" stroke-linecap="round" stroke-linejoin="round"/>
<path d="M17.7514 7.05C17.5114 7.01 17.2614 7.00001 17.0014 7.00001H7.00141C6.72141 7.00001 6.45141 7.02001 6.19141 7.06001C6.33141 6.78001 6.53141 6.52001 6.77141 6.28001L10.0214 3.02C11.3914 1.66 13.6114 1.66 14.9814 3.02L16.7314 4.79002C17.3714 5.42002 17.7114 6.22 17.7514 7.05Z" stroke="#1C252E" stroke-width="1.5" stroke-linecap="round" stroke-linejoin="round"/>
<path d="M22 12.5H19C17.9 12.5 17 13.4 17 14.5C17 15.6 17.9 16.5 19 16.5H22" stroke="#1C252E" stroke-width="1.5" stroke-linecap="round" stroke-linejoin="round"/>
</svg>
