<svg width="24" height="24" viewBox="0 0 24 24" fill="none" xmlns="http://www.w3.org/2000/svg">
<path d="M12 5.56006H22" stroke="#1C252E" stroke-width="1.5" stroke-miterlimit="10" stroke-linecap="round" stroke-linejoin="round"/>
<path d="M19.78 2H14.22C12.44 2 12 2.44 12 4.2V8.31C12 10.07 12.44 10.51 14.22 10.51H19.78C21.56 10.51 22 10.07 22 8.31V5.5" stroke="#1C252E" stroke-width="1.5" stroke-linecap="round" stroke-linejoin="round"/>
<path d="M2 17.0601H12" stroke="#1C252E" stroke-width="1.5" stroke-miterlimit="10" stroke-linecap="round" stroke-linejoin="round"/>
<path d="M9.78 22.01C11.56 22.01 12 21.57 12 19.81V15.7C12 13.94 11.56 13.5 9.78 13.5H4.22C2.44 13.5 2 13.94 2 15.7V19.81C2 21.57 2.44 22.01 4.22 22.01" stroke="#1C252E" stroke-width="1.5" stroke-linecap="round" stroke-linejoin="round"/>
<path d="M22 15C22 18.87 18.87 22 15 22L16.05 20.25" stroke="#1C252E" stroke-width="1.5" stroke-linecap="round" stroke-linejoin="round"/>
<path d="M2 9C2 5.13 5.13 2 9 2L7.95001 3.75" stroke="#1C252E" stroke-width="1.5" stroke-linecap="round" stroke-linejoin="round"/>
</svg>
