<svg width="24" height="24" viewBox="0 0 24 24" fill="none" xmlns="http://www.w3.org/2000/svg">
<path d="M2 9.5V9C2 5 3 4 7 4H17C21 4 22 5 22 9V10C20.62 10 19.5 11.12 19.5 12.5C19.5 13.88 20.62 15 22 15C22 19 21 20 17 20H7C3 20 2 19 2 15V14.5C3.38 14.5 4.5 13.38 4.5 12" stroke="#1C252E" stroke-width="1.5" stroke-linecap="round" stroke-linejoin="round"/>
<path d="M9 14.75L15 8.75" stroke="#1C252E" stroke-width="1.5" stroke-linecap="round" stroke-linejoin="round"/>
<path d="M14.9946 14.75H15.0036" stroke="#1C252E" stroke-width="2" stroke-linecap="round" stroke-linejoin="round"/>
<path d="M8.99463 9.25H9.00361" stroke="#1C252E" stroke-width="2" stroke-linecap="round" stroke-linejoin="round"/>
</svg>
