<svg width="24" height="24" viewBox="0 0 24 24" fill="none" xmlns="http://www.w3.org/2000/svg">
<path d="M5.67904 16.8092L8.69989 19.83C10.5599 21.69 13.5799 21.69 15.4499 19.83L19.8399 15.44C21.6999 13.58 21.6999 10.56 19.8399 8.69005L15.2999 4.17005C14.3499 3.22005 13.0399 2.71005 11.6999 2.78005L6.69989 3.02005C4.69989 3.11005 3.10989 4.70005 3.00989 6.69005L2.76989 11.69C2.74401 12.2724 2.82419 12.8473 3 13.3891" stroke="#1C252E" stroke-width="1.5" stroke-linecap="round" stroke-linejoin="round"/>
<path d="M12 9.5C12 10.8807 10.8807 12 9.5 12C8.11929 12 7 10.8807 7 9.5C7 8.11929 8.11929 7 9.5 7" stroke="#1C252E" stroke-width="1.5" stroke-linecap="round"/>
</svg>
