<svg width="24" height="24" viewBox="0 0 24 24" fill="none" xmlns="http://www.w3.org/2000/svg">
<path d="M5.9139 17.0355L8.93476 20.0564C10.7948 21.9164 13.8148 21.9164 15.6848 20.0564L20.0748 15.6664C21.9348 13.8064 21.9348 10.7864 20.0748 8.91637L15.5348 4.39637C14.5848 3.44637 13.2748 2.93637 11.9348 3.00637L6.93476 3.24637C4.93476 3.33637 3.34476 4.92637 3.24476 6.91637L3.00476 11.9164C2.97887 12.4987 3.05905 13.0736 3.23486 13.6154" stroke="#1C252E" stroke-width="1.5" stroke-linecap="round" stroke-linejoin="round"/>
<path d="M12.2349 9.72632C12.2349 11.107 11.1156 12.2263 9.73486 12.2263C8.35415 12.2263 7.23486 11.107 7.23486 9.72632C7.23486 8.34561 8.35415 7.22632 9.73486 7.22632" stroke="#1C252E" stroke-width="1.5" stroke-linecap="round"/>
<path d="M13.2349 17.2263L17.2349 13.2263" stroke="#1C252E" stroke-width="1.5" stroke-miterlimit="10" stroke-linecap="round" stroke-linejoin="round"/>
</svg>
