<svg width="24" height="24" viewBox="0 0 24 24" fill="none" xmlns="http://www.w3.org/2000/svg">
<path d="M2 15.2V9C2 8.45153 2.04911 7.95217 2.14349 7.5M8.5 20H17C20 20 22 18.5 22 15V9C22 5.5 20 4 17 4H7C6.4665 4 5.96463 4.04744 5.5 4.14512" stroke="#1C252E" stroke-width="1.5" stroke-miterlimit="10" stroke-linecap="round" stroke-linejoin="round"/>
<path d="M14.5 12C14.5 10.6193 13.3807 9.5 12 9.5C10.6193 9.5 9.5 10.6193 9.5 12C9.5 13.3807 10.6193 14.5 12 14.5" stroke="#1C252E" stroke-width="1.5" stroke-miterlimit="10" stroke-linecap="round" stroke-linejoin="round"/>
<path d="M18.5 9.5V14.5" stroke="#1C252E" stroke-width="1.5" stroke-miterlimit="10" stroke-linecap="round" stroke-linejoin="round"/>
<path d="M9 18C9 18.75 8.78998 19.46 8.41998 20.06C7.72998 21.22 6.46 22 5 22C3.54 22 2.27002 21.22 1.58002 20.06C1.21002 19.46 1 18.75 1 18C1 15.79 2.79 14 5 14C7.21 14 9 15.79 9 18Z" stroke="#1C252E" stroke-width="1.5" stroke-miterlimit="10" stroke-linecap="round" stroke-linejoin="round"/>
<path d="M7.75 15.25L2.25 20.75" stroke="#1C252E" stroke-width="1.5" stroke-miterlimit="10" stroke-linecap="round" stroke-linejoin="round"/>
</svg>
