<svg width="24" height="24" viewBox="0 0 24 24" fill="none" xmlns="http://www.w3.org/2000/svg">
<path fill-rule="evenodd" clip-rule="evenodd" d="M11.5 2C16.74 2 21 6.26 21 11.5C21 13.8611 20.1319 16.0205 18.7021 17.6836L21.7881 20.7236C22.083 21.0143 22.0865 21.4891 21.7959 21.7842C21.5052 22.0791 21.0304 22.0826 20.7354 21.792L17.6387 18.7412C15.9817 20.1479 13.8397 21 11.5 21C6.26 21 2 16.74 2 11.5C2 6.26 6.26 2 11.5 2ZM11.7002 8.4502C11.2902 8.4502 10.9502 8.7902 10.9502 9.2002V10.9502H9.2002C8.7902 10.9502 8.4502 11.2902 8.4502 11.7002C8.4503 12.1101 8.79026 12.4502 9.2002 12.4502H10.9502V14.2002C10.9503 14.6101 11.2903 14.9502 11.7002 14.9502C12.11 14.9501 12.4501 14.61 12.4502 14.2002V12.4502H14.2002C14.61 12.4501 14.9501 12.11 14.9502 11.7002C14.9502 11.2903 14.6101 10.9503 14.2002 10.9502H12.4502V9.2002C12.4502 8.79026 12.1101 8.4503 11.7002 8.4502Z" fill="#1C252E"/>
</svg>
