<svg width="24" height="24" viewBox="0 0 24 24" fill="none" xmlns="http://www.w3.org/2000/svg">
<path fill-rule="evenodd" clip-rule="evenodd" d="M11.5 2C16.74 2 21 6.26 21 11.5C21 13.8611 20.1319 16.0205 18.7021 17.6836L21.7881 20.7236C22.083 21.0143 22.0865 21.4891 21.7959 21.7842C21.5052 22.0791 21.0304 22.0826 20.7354 21.792L17.6387 18.7412C15.9817 20.1479 13.8397 21 11.5 21C6.26 21 2 16.74 2 11.5C2 6.26 6.26 2 11.5 2ZM9 10.9502C8.59 10.9502 8.25 11.2902 8.25 11.7002C8.25011 12.1101 8.59007 12.4502 9 12.4502H14C14.4099 12.4502 14.7499 12.1101 14.75 11.7002C14.75 11.2902 14.41 10.9502 14 10.9502H9Z" fill="#1C252E"/>
</svg>
