<svg width="24" height="24" viewBox="0 0 24 24" fill="none" xmlns="http://www.w3.org/2000/svg">
<path fill-rule="evenodd" clip-rule="evenodd" d="M11.5 2C16.74 2 21 6.26 21 11.5C21 13.8611 20.1319 16.0205 18.7021 17.6836L21.7881 20.7236C22.083 21.0143 22.0865 21.4891 21.7959 21.7842C21.5052 22.0791 21.0304 22.0826 20.7354 21.792L17.6387 18.7412C15.9817 20.1479 13.8397 21 11.5 21C6.26 21 2 16.74 2 11.5C2 6.26 6.26 2 11.5 2ZM13.627 8C12.8835 8 12.2342 8.35934 11.749 9.03906C11.6501 9.17769 11.5675 9.31631 11.5 9.44434C11.4325 9.31631 11.3499 9.17769 11.251 9.03906C10.7658 8.35934 10.1165 8 9.37305 8C8.70602 8 8.09673 8.26467 7.65723 8.74512C7.23365 9.20827 7.00004 9.8316 7 10.5C7 11.7984 7.92481 12.6314 9.0957 13.6855C9.77268 14.2951 10.54 14.9859 11.2979 15.9043C11.3479 15.965 11.422 16 11.5 16C11.578 16 11.6521 15.965 11.7021 15.9043C12.46 14.9859 13.2273 14.2951 13.9043 13.6855C15.0752 12.6314 16 11.7984 16 10.5C16 9.8316 15.7664 9.20827 15.3428 8.74512C14.9033 8.26467 14.294 8 13.627 8Z" fill="#1C252E"/>
</svg>
