<svg width="24" height="24" viewBox="0 0 24 24" fill="none" xmlns="http://www.w3.org/2000/svg">
<path fill-rule="evenodd" clip-rule="evenodd" d="M11.5 2C16.74 2 21 6.26 21 11.5C21 13.8611 20.1319 16.0205 18.7021 17.6836L21.7881 20.7236C22.083 21.0143 22.0865 21.4891 21.7959 21.7842C21.5052 22.0791 21.0304 22.0826 20.7354 21.792L17.6387 18.7412C15.9817 20.1479 13.8397 21 11.5 21C6.26 21 2 16.74 2 11.5C2 6.26 6.26 2 11.5 2ZM8.5 12.25C8.09 12.25 7.75 12.59 7.75 13C7.75 13.41 8.09 13.75 8.5 13.75H11.5C11.91 13.75 12.25 13.41 12.25 13C12.25 12.59 11.91 12.25 11.5 12.25H8.5ZM8.5 9.25C8.09 9.25 7.75 9.59 7.75 10C7.75 10.41 8.09 10.75 8.5 10.75H14.5C14.91 10.75 15.25 10.41 15.25 10C15.25 9.59 14.91 9.25 14.5 9.25H8.5Z" fill="#1C252E"/>
</svg>
