<svg width="24" height="24" viewBox="0 0 24 24" fill="none" xmlns="http://www.w3.org/2000/svg">
<path d="M12 21C11.8267 21 11.6623 20.9211 11.551 20.7845C9.8668 18.7181 8.1616 17.1637 6.65719 15.7923C4.0552 13.4204 2 11.5469 2 8.6254C2 7.12136 2.51844 5.71908 3.4598 4.67689C4.43652 3.59553 5.7909 3 7.27344 3C8.92563 3 10.3688 3.80855 11.447 5.33819C11.6669 5.65014 11.85 5.96176 12 6.24984C12.15 5.96176 12.3331 5.65014 12.553 5.33819C13.6312 3.80855 15.0744 3 16.7266 3C18.2091 3 19.5635 3.59553 20.5402 4.67689C21.4816 5.71908 22 7.12136 22 8.6254C22 11.5469 19.9448 13.4204 17.3428 15.7923C15.8384 17.1637 14.1332 18.7181 12.449 20.7845C12.3377 20.9211 12.1733 21 12 21Z" stroke="#1C252E" stroke-width="1.5"/>
</svg>
