<svg width="24" height="24" viewBox="0 0 24 24" fill="none" xmlns="http://www.w3.org/2000/svg">
<path d="M11.552 20.8749L10.9706 21.3487L10.9706 21.3488L11.552 20.8749ZM6.65816 15.8827L7.16343 15.3284L7.16342 15.3284L6.65816 15.8827ZM3.46078 4.76729L4.01735 5.27001L4.01736 5.27L3.46078 4.76729ZM11.448 5.42859L12.061 4.99649V4.99649L11.448 5.42859ZM12.001 6.34024L11.3358 6.68661L12.0011 7.96437L12.6662 6.68654L12.001 6.34024ZM12.5539 5.42859L11.9409 4.99649V4.99649L12.5539 5.42859ZM17.3438 15.8826L17.8491 16.4369V16.4369L17.3438 15.8826ZM12.45 20.8749L11.8686 20.401L11.8686 20.4011L12.45 20.8749ZM10.0045 18.0272C9.71475 17.7312 9.2399 17.7262 8.94391 18.0159C8.64793 18.3057 8.64288 18.7806 8.93265 19.0765L9.46858 18.5519L10.0045 18.0272ZM22.5773 7.1504C22.4856 6.74647 22.0838 6.49339 21.6798 6.58514C21.2759 6.67688 21.0228 7.0787 21.1146 7.48262L21.846 7.31651L22.5773 7.1504ZM12.001 21.0904V20.3404C12.0575 20.3404 12.105 20.3664 12.1333 20.401L11.552 20.8749L10.9706 21.3488C11.2216 21.6566 11.5978 21.8404 12.001 21.8404V21.0904ZM6.65816 15.8827L7.16342 15.3284C4.49352 12.8946 2.75098 11.246 2.75098 8.71579H2.00098H1.25098C1.25098 12.0286 3.61882 14.127 6.15291 16.437L6.65816 15.8827ZM2.00098 8.71579H2.75098C2.75098 7.38313 3.20979 6.16406 4.01735 5.27001L3.46078 4.76729L2.90421 4.26456C1.82904 5.45489 1.25098 7.04037 1.25098 8.71579H2.00098ZM3.46078 4.76729L4.01736 5.27C4.84907 4.34917 5.99981 3.84039 7.27441 3.84039V3.09039V2.34039C5.58394 2.34039 4.02593 3.02267 2.9042 4.26457L3.46078 4.76729ZM7.27441 3.09039V3.84039C8.64752 3.84039 9.8757 4.49975 10.835 5.86069L11.448 5.42859L12.061 4.99649C10.8639 3.29815 9.20568 2.34039 7.27441 2.34039V3.09039ZM11.448 5.42859L10.835 5.86068C11.0326 6.14105 11.1986 6.42329 11.3358 6.68661L12.001 6.34024L12.6662 5.99386C12.5033 5.68102 12.3032 5.34002 12.061 4.99649L11.448 5.42859ZM12.001 6.34024L12.6662 6.68654C12.8033 6.42332 12.9693 6.14108 13.167 5.86068L12.5539 5.42859L11.9409 4.99649C11.6988 5.33998 11.4986 5.68099 11.3357 5.99393L12.001 6.34024ZM12.5539 5.42859L13.167 5.86069C14.1263 4.49975 15.3544 3.84039 16.7275 3.84039V3.09039V2.34039C14.7963 2.34039 13.138 3.29815 11.9409 4.99649L12.5539 5.42859ZM22.001 8.71579H21.251C21.251 11.2459 19.5084 12.8946 16.8386 15.3284L17.3438 15.8826L17.8491 16.4369C20.3831 14.1269 22.751 12.0286 22.751 8.71579H22.001ZM17.3438 15.8826L16.8386 15.3284C15.3353 16.6987 13.5919 18.2866 11.8686 20.401L12.45 20.8749L13.0314 21.3487C14.6764 19.3303 16.3435 17.8094 17.8491 16.4369L17.3438 15.8826ZM12.45 20.8749L11.8686 20.4011C11.8969 20.3664 11.9444 20.3404 12.001 20.3404V21.0904V21.8404C12.4042 21.8404 12.7805 21.6566 13.0314 21.3487L12.45 20.8749ZM7.40034 16.5615L7.90825 16.0096C7.65489 15.7764 7.40558 15.5492 7.16343 15.3284L6.65816 15.8827L6.1529 16.4369C6.39544 16.658 6.64212 16.8829 6.89243 17.1133L7.40034 16.5615ZM16.7275 3.09039V3.84039C17.7456 3.84039 18.6816 4.16501 19.4383 4.75943L19.9016 4.16962L20.3649 3.57981C19.3368 2.77227 18.0725 2.34039 16.7275 2.34039V3.09039ZM11.552 20.8749L12.1333 20.4011C11.4205 19.5265 10.7052 18.7429 10.0045 18.0272L9.46858 18.5519L8.93265 19.0765C9.60722 19.7656 10.2912 20.5152 10.9706 21.3487L11.552 20.8749ZM21.846 7.31651L21.1146 7.48262C21.2043 7.87769 21.251 8.29116 21.251 8.71579H22.001H22.751C22.751 8.18129 22.6922 7.65633 22.5773 7.1504L21.846 7.31651Z" fill="#1C252E"/>
<path d="M22 2L2 22" stroke="#1C252E" stroke-width="1.5" stroke-linecap="round" stroke-linejoin="round"/>
</svg>
