<svg width="24" height="24" viewBox="0 0 24 24" fill="none" xmlns="http://www.w3.org/2000/svg">
<path d="M17.9999 6.34C17.8599 6.34 17.4199 6.37001 17.4199 6.79001C17.4199 7.08001 17.6399 7.25 17.9999 7.25C18.3599 7.25 18.5799 7.08001 18.5799 6.79001C18.5799 6.46001 18.2799 6.34 17.9999 6.34Z" fill="#1C252E"/>
<path d="M18.0001 5.51001C18.2701 5.51001 18.4401 5.36 18.4401 5.13C18.4401 4.85 18.2101 4.76001 18.0001 4.76001C17.7901 4.76001 17.5601 4.86 17.5601 5.13C17.5601 5.36 17.7301 5.51001 18.0001 5.51001Z" fill="#1C252E"/>
<path d="M18 2C15.9 2 14.19 3.61 14.02 5.66C14 5.77 14 5.89 14 6C14 8.21 15.79 10 18 10C18.35 10 18.68 9.96 19 9.87C20.73 9.43 22 7.86 22 6C22 3.79 20.21 2 18 2ZM18 8.20001C17.01 8.20001 16.4 7.70001 16.4 6.89001C16.4 6.50001 16.58 6.15 16.9 5.91C16.66 5.7 16.53 5.40999 16.53 5.07999C16.53 4.30999 17.12 3.79999 17.99 3.79999C18.86 3.79999 19.45 4.31999 19.45 5.07999C19.45 5.40999 19.33 5.7 19.08 5.91C19.41 6.14 19.59 6.49001 19.59 6.89001C19.6 7.70001 18.99 8.20001 18 8.20001Z" fill="#1C252E"/>
<path d="M18 11.5C16.85 11.5 15.78 11.15 14.9 10.54C14.83 10.49 14.74 10.54 14.74 10.62L14.75 15.44C14.75 15.86 14.41 16.19 14 16.19C13.59 16.19 13.25 15.86 13.25 15.44V10.5C13.25 10.17 13.47 9.89001 13.77 9.79001C13.85 9.76001 13.9 9.65 13.84 9.59C13.01 8.63 12.5 7.38001 12.5 6.01001C12.5 5.84001 12.51 5.65999 12.53 5.48999C12.53 5.44999 12.54 5.42 12.54 5.38C12.57 5.15 12.45 4.92999 12.25 4.82999L11.35 4.39999C10.81 4.14999 10.19 4.14999 9.64999 4.39999L3.14999 7.45999C2.44999 7.78999 2 8.48999 2 9.26999V16.73C2 17.51 2.44999 18.21 3.14999 18.54L9.64999 21.6C10.19 21.85 10.81 21.85 11.35 21.6L17.85 18.54C18.55 18.21 19 17.51 19 16.73V12.02C19 11.71 18.71 11.47 18.4 11.49C18.27 11.5 18.14 11.5 18 11.5ZM11.75 13.5C11.75 15.02 10.52 16.25 9 16.25C7.48 16.25 6.25 15.02 6.25 13.5V10.5C6.25 10.09 6.59 9.75 7 9.75C7.41 9.75 7.75 10.09 7.75 10.5V13.5C7.75 14.19 8.31 14.75 9 14.75C9.69 14.75 10.25 14.19 10.25 13.5V10.5C10.25 10.09 10.59 9.75 11 9.75C11.41 9.75 11.75 10.09 11.75 10.5V13.5Z" fill="#1C252E"/>
</svg>
