<svg width="24" height="24" viewBox="0 0 24 24" fill="none" xmlns="http://www.w3.org/2000/svg">
<path d="M17.4704 8.58997L14.3404 11.09C13.6804 11.62 12.8404 11.88 12.0004 11.88C11.1604 11.88 10.3104 11.62 9.66044 11.09L6.53044 8.58997C6.21044 8.32997 6.16044 7.85997 6.41044 7.52997C6.67044 7.20997 7.14044 7.14997 7.46044 7.40997L10.5904 9.90997C11.3504 10.52 12.6404 10.52 13.4004 9.90997L16.5304 7.40997C16.8504 7.14997 17.3304 7.19997 17.5804 7.52997C17.8404 7.85997 17.7904 8.32997 17.4704 8.58997Z" fill="#1C252E"/>
<path d="M21.0239 18.5979C21.0239 17.3244 19.9913 16.2919 18.7179 16.2918C17.4443 16.2918 16.4118 17.3243 16.4118 18.5979C16.4119 19.8713 17.4444 20.9039 18.7179 20.9039C19.9912 20.9038 21.0238 19.8712 21.0239 18.5979ZM22.4357 18.5979C22.4357 19.3707 22.1987 20.0878 21.7951 20.6824C21.8148 20.6983 21.8337 20.7156 21.8521 20.7339L22.7933 21.6751C23.0689 21.9508 23.0689 22.3976 22.7933 22.6733C22.5176 22.9489 22.0707 22.9489 21.7951 22.6733L20.8539 21.7321C20.8356 21.7138 20.8183 21.6948 20.8024 21.6751C20.2078 22.0787 19.4906 22.3157 18.7179 22.3157C16.6647 22.3157 15.0001 20.651 15 18.5979C15 16.5446 16.6646 14.88 18.7179 14.88C20.771 14.8801 22.4357 16.5447 22.4357 18.5979Z" fill="#1C252E"/>
<path opacity="0.4" d="M17 3C20 3 22 4.5 22 8V15C22 15.58 21.9432 16.1047 21.8379 16.5771C21.1752 15.5561 20.0256 14.8799 18.7178 14.8799C16.6647 14.8799 15.0001 16.5446 15 18.5977C15 19.0938 15.098 19.5672 15.2744 20H7C4 20 2 18.5 2 15V8C2 4.5 4 3 7 3H17Z" fill="#1C252E"/>
</svg>
