<svg width="24" height="24" viewBox="0 0 24 24" fill="none" xmlns="http://www.w3.org/2000/svg">
<path opacity="0.4" d="M17 2C19.76 2 22 4.23047 22 6.98047V13.96C22 16.71 19.76 18.9404 17 18.9404H15.5C15.1901 18.9404 14.8902 19.09 14.7002 19.3398L13.2002 21.3301C12.5402 22.2101 11.4598 22.2101 10.7998 21.3301L9.2998 19.3398C9.12974 19.1199 8.76992 18.9404 8.5 18.9404H7C4.24 18.9404 2 16.71 2 13.96V6.98047C2 4.23047 4.24 2 7 2H17Z" fill="#1C252E"/>
<path fill-rule="evenodd" clip-rule="evenodd" d="M11.8662 6.78711C9.68469 6.78711 7.91602 8.55578 7.91602 10.7373C7.91619 12.9187 9.6848 14.6875 11.8662 14.6875C12.6873 14.6875 13.4493 14.4356 14.0811 14.0068C14.0979 14.0278 14.1163 14.0479 14.1357 14.0674L15.1357 15.0674C15.4286 15.3602 15.9034 15.3602 16.1963 15.0674C16.4892 14.7745 16.4891 14.2997 16.1963 14.0068L15.1963 13.0068C15.1768 12.9874 15.1567 12.969 15.1357 12.9521C15.5645 12.3204 15.8163 11.5583 15.8164 10.7373C15.8164 8.55585 14.0477 6.78721 11.8662 6.78711ZM14.3164 10.7373C14.3164 9.38426 13.2192 8.28721 11.8662 8.28711C10.5131 8.28711 9.41602 9.38421 9.41602 10.7373C9.41619 12.0903 10.5132 13.1875 11.8662 13.1875C13.2191 13.1874 14.3162 12.0902 14.3164 10.7373Z" fill="#1C252E"/>
</svg>
