<svg width="24" height="24" viewBox="0 0 24 24" fill="none" xmlns="http://www.w3.org/2000/svg">
<path d="M18.6897 11.53C18.1197 11.38 17.4497 11.3 16.6497 11.3C15.5397 11.3 15.1297 11.57 14.5597 12C14.5297 12.02 14.4997 12.05 14.4697 12.08L13.5197 13.09C12.7297 13.94 11.2797 13.94 10.4797 13.09L9.52969 12.09C9.49969 12.05 9.46969 12.02 9.43969 12C8.85969 11.57 8.44969 11.3 7.34969 11.3C6.54969 11.3 5.87969 11.37 5.30969 11.53C2.92969 12.17 2.92969 14.06 2.92969 15.72V16.65C2.92969 19.16 2.92969 22 8.27969 22H15.7197C19.2697 22 21.0697 20.2 21.0697 16.65V15.72C21.0697 14.06 21.0697 12.17 18.6897 11.53Z" fill="#1C252E"/>
<path opacity="0.4" d="M14.79 2H9.21004C4.79004 2 4.79004 4.35 4.79004 6.42V12.21C4.79004 12.43 4.89004 12.63 5.06004 12.76C5.23004 12.89 5.46004 12.94 5.67004 12.88C6.12004 12.76 6.68004 12.7 7.35004 12.7C8.02004 12.7 8.16004 12.78 8.56004 13.08L9.47004 14.04C10.12 14.74 11.05 15.14 12.01 15.14C12.97 15.14 13.89 14.74 14.55 14.04L15.46 13.08C15.86 12.78 16 12.7 16.67 12.7C17.34 12.7 17.9 12.76 18.35 12.88C18.56 12.94 18.78 12.89 18.96 12.76C19.13 12.63 19.23 12.42 19.23 12.21V6.42C19.21 4.35 19.21 2 14.79 2Z" fill="#1C252E"/>
<path d="M13.5505 9.5H10.4505C10.0705 9.5 9.75047 9.18 9.75047 8.8C9.75047 8.41 10.0705 8.1 10.4505 8.1H13.5505C13.9305 8.1 14.2505 8.41 14.2505 8.8C14.2505 9.18 13.9305 9.5 13.5505 9.5ZM14.3305 6.71H9.67047C9.29047 6.71 8.98047 6.39 8.98047 6.01C8.98047 5.62 9.29047 5.31 9.67047 5.31H14.3305C14.7105 5.31 15.0205 5.62 15.0205 6.01C15.0205 6.39 14.7105 6.71 14.3305 6.71Z" fill="#1C252E"/>
</svg>
