<svg width="24" height="24" viewBox="0 0 24 24" fill="none" xmlns="http://www.w3.org/2000/svg">
<path opacity="0.4" d="M16.19 2H7.81C4.17 2 2 4.17 2 7.81V16.18C2 19.83 4.17 22 7.81 22H16.18C19.82 22 21.99 19.83 21.99 16.19V7.81C22 4.17 19.83 2 16.19 2Z" fill="#1C252E"/>
<path d="M21.3 12.23H17.82C16.84 12.23 15.97 12.77 15.53 13.65L14.69 15.31C14.49 15.71 14.09 15.96 13.65 15.96H10.37C10.06 15.96 9.62 15.89 9.33 15.31L8.49 13.66C8.05 12.79 7.17 12.24 6.2 12.24H2.7C2.31 12.24 2 12.55 2 12.94V16.2C2 19.83 4.18 22 7.82 22H16.2C19.63 22 21.74 20.12 22 16.78V12.93C22 12.55 21.69 12.23 21.3 12.23Z" fill="#1C252E"/>
<path d="M10.4505 6.40997H13.5505C13.9305 6.40997 14.2505 6.71997 14.2505 7.09997C14.2505 7.48997 13.9305 7.79997 13.5505 7.79997H10.4505C10.0705 7.79997 9.75047 7.48997 9.75047 7.09997C9.75047 6.71997 10.0705 6.40997 10.4505 6.40997ZM14.3305 10.59H9.67047C9.29047 10.59 8.98047 10.28 8.98047 9.89997C8.98047 9.50997 9.29047 9.19997 9.67047 9.19997H14.3305C14.7105 9.19997 15.0205 9.50997 15.0205 9.89997C15.0205 10.28 14.7105 10.59 14.3305 10.59Z" fill="#1C252E"/>
</svg>
