<svg width="24" height="24" viewBox="0 0 24 24" fill="none" xmlns="http://www.w3.org/2000/svg">
<path opacity="0.4" d="M14.6953 4H9.28532C5 4 5 5.96728 5 7.70015V12.5472C5 12.7314 5.09695 12.8988 5.26177 13.0076C5.42659 13.1164 5.64958 13.1583 5.85319 13.1081C6.28947 13.0076 6.83241 12.9574 7.48199 12.9574C8.13158 12.9574 8.26731 13.0244 8.65513 13.2755L9.5374 14.0791C10.1676 14.6651 11.0693 15 12 15C12.9307 15 13.8227 14.6651 14.4626 14.0791L15.3449 13.2755C15.7327 13.0244 15.8684 12.9574 16.518 12.9574C17.1676 12.9574 17.7105 13.0076 18.1468 13.1081C18.3504 13.1583 18.5637 13.1164 18.7382 13.0076C18.903 12.8988 19 12.723 19 12.5472V7.70015C18.9806 5.96728 18.9806 4 14.6953 4Z" fill="#1C252E"/>
<path d="M14.2753 6.8C14.0153 6.54 13.5853 6.54 13.3253 6.8L12.6753 7.45V2.67C12.6753 2.3 12.3653 2 11.9953 2C11.6253 2 11.3153 2.3 11.3153 2.67V7.44L10.6753 6.8C10.4153 6.54 9.98527 6.54 9.72527 6.8C9.46527 7.06 9.46527 7.49 9.72527 7.75L11.5253 9.55C11.5353 9.56 11.5353 9.56 11.5453 9.56C11.6053 9.61 11.6653 9.66 11.7453 9.69C11.8253 9.72 11.9153 9.74 12.0053 9.74C12.0953 9.74 12.1753 9.72 12.2653 9.69C12.3453 9.66 12.4253 9.61 12.4853 9.54L14.2853 7.74C14.5353 7.49 14.5353 7.06 14.2753 6.8Z" fill="#1C252E"/>
<path d="M18.6897 11.53C18.1197 11.38 17.4497 11.3 16.6497 11.3C15.5397 11.3 15.1297 11.57 14.5597 12C14.5297 12.02 14.4997 12.05 14.4697 12.08L13.5197 13.09C12.7197 13.93 11.2797 13.94 10.4797 13.08L9.52969 12.08C9.49969 12.05 9.46969 12.02 9.43969 12C8.86969 11.57 8.45969 11.3 7.34969 11.3C6.54969 11.3 5.87969 11.38 5.30969 11.53C2.92969 12.17 2.92969 14.06 2.92969 15.72V16.65C2.92969 19.16 2.92969 22 8.27969 22H15.7197C19.2697 22 21.0697 20.2 21.0697 16.65V15.72C21.0697 14.06 21.0697 12.17 18.6897 11.53Z" fill="#1C252E"/>
</svg>
