<svg width="24" height="24" viewBox="0 0 24 24" fill="none" xmlns="http://www.w3.org/2000/svg">
<path d="M14.2804 4.95C14.0204 5.21 13.5904 5.21 13.3304 4.95L12.6804 4.3V9.07C12.6804 9.44 12.3804 9.75 12.0004 9.75C11.6204 9.75 11.3204 9.45 11.3204 9.07V4.3L10.6704 4.95C10.4104 5.21 9.98039 5.21 9.72039 4.95C9.46039 4.69 9.46039 4.26 9.72039 4L11.5204 2.2C11.5304 2.19 11.5304 2.19 11.5404 2.19C11.6004 2.14 11.6604 2.09 11.7404 2.06C11.8304 2.02 11.9104 2 12.0004 2C12.0904 2 12.1704 2.02 12.2604 2.05C12.3404 2.08 12.4204 2.13 12.4804 2.2L14.2804 4C14.5404 4.26 14.5404 4.69 14.2804 4.95Z" fill="#1C252E"/>
<path opacity="0.4" d="M14.6953 6H9.28532C5 6 5 7.60959 5 9.0274V12.9932C5 13.1438 5.09695 13.2808 5.26177 13.3699C5.42659 13.4589 5.64958 13.4932 5.85319 13.4521C6.28947 13.3699 6.83241 13.3288 7.48199 13.3288C8.13158 13.3288 8.26731 13.3836 8.65513 13.589L9.5374 14.2466C10.1676 14.726 11.0693 15 12 15C12.9307 15 13.8227 14.726 14.4626 14.2466L15.3449 13.589C15.7327 13.3836 15.8684 13.3288 16.518 13.3288C17.1676 13.3288 17.7105 13.3699 18.1468 13.4521C18.3504 13.4932 18.5637 13.4589 18.7382 13.3699C18.903 13.2808 19 13.137 19 12.9932V9.0274C18.9806 7.60959 18.9806 6 14.6953 6Z" fill="#1C252E"/>
<path d="M18.6897 11.53C18.1197 11.38 17.4497 11.3 16.6497 11.3C15.5397 11.3 15.1297 11.57 14.5597 12C14.5297 12.02 14.4997 12.05 14.4697 12.08L13.5197 13.09C12.7197 13.93 11.2797 13.94 10.4797 13.08L9.52969 12.08C9.49969 12.05 9.46969 12.02 9.43969 12C8.86969 11.57 8.45969 11.3 7.34969 11.3C6.54969 11.3 5.87969 11.38 5.30969 11.53C2.92969 12.17 2.92969 14.06 2.92969 15.72V16.65C2.92969 19.16 2.92969 22 8.27969 22H15.7197C19.2697 22 21.0697 20.2 21.0697 16.65V15.72C21.0697 14.06 21.0697 12.17 18.6897 11.53Z" fill="#1C252E"/>
</svg>
