<svg width="24" height="24" viewBox="0 0 24 24" fill="none" xmlns="http://www.w3.org/2000/svg">
<path opacity="0.4" d="M16.1971 4H7.8129C4.17108 4 2 5.953 2 9.229V16.762C2 20.047 4.17108 22 7.8129 22H16.1871C19.8289 22 22 20.047 22 16.771V9.229C22.01 5.953 19.8389 4 16.1971 4Z" fill="#1C252E"/>
<path d="M14.5304 6.47C14.2404 6.18 13.7604 6.18 13.4704 6.47L12.7504 7.19V2C12.7504 1.59 12.4104 1.25 12.0004 1.25C11.5904 1.25 11.2504 1.59 11.2504 2V7.19L10.5304 6.47C10.2404 6.18 9.76043 6.18 9.47043 6.47C9.18043 6.76 9.18043 7.24 9.47043 7.53L11.4704 9.53C11.4804 9.54 11.4904 9.54 11.4904 9.55C11.5504 9.61 11.6304 9.66 11.7104 9.7C11.8104 9.73 11.9004 9.75 12.0004 9.75C12.1004 9.75 12.1904 9.73 12.2804 9.69C12.3704 9.65 12.4504 9.6 12.5304 9.53L14.5304 7.53C14.8204 7.24 14.8204 6.76 14.5304 6.47Z" fill="#1C252E"/>
<path d="M21.3 12.23H17.82C16.84 12.23 15.97 12.77 15.53 13.65L14.69 15.31C14.49 15.71 14.09 15.96 13.65 15.96H10.37C10.06 15.96 9.62 15.89 9.33 15.31L8.49 13.66C8.05 12.79 7.17 12.24 6.2 12.24H2.7C2.31 12.24 2 12.55 2 12.94V16.2C2 19.83 4.18 22 7.82 22H16.2C19.63 22 21.74 20.12 22 16.78V12.93C22 12.55 21.69 12.23 21.3 12.23Z" fill="#1C252E"/>
</svg>
