<svg width="24" height="24" viewBox="0 0 24 24" fill="none" xmlns="http://www.w3.org/2000/svg">
<path d="M22.0003 12.86C22.0003 15.15 20.8203 17.1801 19.0003 18.4601L17.6603 21.41C17.3503 22.08 16.4503 22.2101 15.9803 21.6401L14.5003 19.86C12.0803 19.86 9.92031 18.7901 8.57031 17.1201L9.50031 16.0001C13.6403 16.0001 17.0003 12.8701 17.0003 9.00006C17.0003 7.95006 16.7503 6.96007 16.3003 6.07007C19.5703 6.82007 22.0003 9.58005 22.0003 12.86Z" fill="#1C252E"/>
<path opacity="0.4" d="M16.3 6.07C15.13 3.67 12.52 2 9.5 2C5.36 2 2 5.13 2 9C2 11.29 3.18 13.32 5 14.6L6.34 17.55C6.65 18.22 7.55 18.34 8.02 17.78L8.57 17.12L9.5 16C13.64 16 17 12.87 17 9C17 7.95 16.75 6.96 16.3 6.07ZM12 9.75H7C6.59 9.75 6.25 9.41 6.25 9C6.25 8.59 6.59 8.25 7 8.25H12C12.41 8.25 12.75 8.59 12.75 9C12.75 9.41 12.41 9.75 12 9.75Z" fill="#1C252E"/>
<path d="M12 9.75H7C6.59 9.75 6.25 9.41 6.25 9C6.25 8.59 6.59 8.25 7 8.25H12C12.41 8.25 12.75 8.59 12.75 9C12.75 9.41 12.41 9.75 12 9.75Z" fill="#1C252E"/>
</svg>
