<svg width="24" height="24" viewBox="0 0 24 24" fill="none" xmlns="http://www.w3.org/2000/svg">
<path d="M6.74683 2.06549C7.29669 1.99425 7.75 2.45112 7.75 3.00557V6.8C7.75 7.35229 7.30228 7.8 6.75 7.8H3C2.44772 7.8 1.9918 7.35027 2.05867 6.80204C2.38633 4.11548 4.07187 2.41205 6.74683 2.06549Z" fill="#1C252E"/>
<path d="M20.93 7.8H17.25C16.6977 7.8 16.25 7.35228 16.25 6.8V3.00625C16.25 2.45153 16.7041 1.99459 17.2542 2.06633C19.8878 2.40978 21.5645 4.0681 21.93 6.68C22.01 7.27 21.53 7.8 20.93 7.8Z" fill="#1C252E"/>
<path d="M6.75 16.3C7.30228 16.3 7.75 16.7478 7.75 17.3V20.92C7.75 21.52 7.22 22 6.62 21.92C4.05088 21.5378 2.43008 19.8911 2.07373 17.3102C1.99752 16.7582 2.4555 16.3 3.01274 16.3H6.75Z" fill="#1C252E"/>
<path d="M7.75 10.3C7.75 9.74776 7.30228 9.30005 6.75 9.30005H3C2.44772 9.30005 2 9.74776 2 10.3V13.8C2 14.3523 2.44772 14.8 3 14.8H6.75C7.30228 14.8 7.75 14.3523 7.75 13.8V10.3Z" fill="#1C252E"/>
<path d="M14.75 10.3C14.75 9.74776 14.3023 9.30005 13.75 9.30005H10.25C9.69772 9.30005 9.25 9.74776 9.25 10.3V13.8C9.25 14.3523 9.69772 14.8 10.25 14.8H13.75C14.3 14.8 14.75 14.35 14.75 13.8V10.3Z" fill="#1C252E"/>
<path d="M19.083 15.333C19.0828 15.011 18.8221 14.75 18.5 14.75H17.6113C17.2893 14.75 17.0275 15.011 17.0273 15.333V15.9482C17.3829 15.9294 17.7377 15.917 18.0557 15.917C18.3733 15.917 18.7277 15.9294 19.083 15.9482V15.333ZM20.583 16.0576C20.6502 16.0636 20.7149 16.0685 20.7764 16.0742C21.526 16.1435 22.133 16.7223 22.2236 17.4785C22.2857 17.9966 22.3613 18.7439 22.3613 19.333C22.3613 19.922 22.2857 20.6693 22.2236 21.1875C22.1331 21.9438 21.5261 22.5225 20.7764 22.5918C20.0679 22.6572 18.9202 22.75 18.0557 22.75C17.191 22.75 16.0425 22.6572 15.334 22.5918C14.5844 22.5224 13.9782 21.9436 13.8877 21.1875C13.8256 20.6693 13.75 19.922 13.75 19.333C13.75 18.7439 13.8256 17.9966 13.8877 17.4785C13.9783 16.7225 14.5845 16.1436 15.334 16.0742C15.3954 16.0685 15.4603 16.0636 15.5273 16.0576V15.333C15.5275 14.1826 16.4608 13.25 17.6113 13.25H18.5C19.6505 13.25 20.5828 14.1826 20.583 15.333V16.0576Z" fill="#1C252E"/>
<path d="M14.75 3C14.75 2.44771 14.3023 2 13.75 2H10.25C9.69772 2 9.25 2.44772 9.25 3V6.8C9.25 7.35229 9.69772 7.8 10.25 7.8H13.75C14.3023 7.8 14.75 7.35228 14.75 6.8V3Z" fill="#1C252E"/>
</svg>
