<svg width="24" height="24" viewBox="0 0 24 24" fill="none" xmlns="http://www.w3.org/2000/svg">
<path d="M5.36087 10.76V8.66C5.36087 4.98 8.34087 2 12.0209 2C15.6809 2 18.6809 5 18.6909 8.66V10.76C18.6909 11.43 18.9709 12.46 19.3209 13.04L20.5909 15.16C21.3209 16.38 20.7409 17.96 19.3909 18.41C14.6109 20 9.44087 20 4.66087 18.41C3.22087 17.93 2.68087 16.47 3.46087 15.16" stroke="#1C252E" stroke-width="1.5" stroke-miterlimit="10" stroke-linecap="round"/>
<path d="M12 6.43994V9.76994" stroke="#1C252E" stroke-width="1.5" stroke-miterlimit="10" stroke-linecap="round"/>
<path d="M15.3299 18.82C15.3299 20.65 13.8299 22.15 11.9999 22.15C11.0899 22.15 10.2499 21.77 9.64992 21.17C9.04992 20.57 8.66992 19.73 8.66992 18.82" stroke="#1C252E" stroke-width="1.5" stroke-miterlimit="10"/>
</svg>
