<svg width="24" height="24" viewBox="0 0 24 24" fill="none" xmlns="http://www.w3.org/2000/svg">
<path d="M19 2C17.3431 2 16 3.34315 16 5C16 6.65685 17.3431 8 19 8C20.6569 8 22 6.65685 22 5C22 4.55273 21.9021 4.12832 21.7266 3.74703" stroke="#1C252E" stroke-width="1.5" stroke-linecap="round" stroke-linejoin="round"/>
<path d="M14.0209 2.2C13.3609 2.07 12.6909 2 12.0009 2C7.34409 2 3.42742 5.18849 2.31641 9.5M21.8009 10.01C21.9309 10.65 22.0009 11.32 22.0009 12C22.0009 17.52 17.5209 22 12.0009 22C7.34409 22 3.42742 18.8115 2.31641 14.5" stroke="#1C252E" stroke-width="1.5" stroke-linecap="round" stroke-linejoin="round"/>
</svg>
