<svg width="24" height="24" viewBox="0 0 24 24" fill="none" xmlns="http://www.w3.org/2000/svg">
<path d="M12.0001 7.89001L10.9301 9.75001C10.6901 10.16 10.8901 10.5 11.3601 10.5H12.6301C13.1101 10.5 13.3001 10.84 13.0601 11.25L12.0001 13.11" stroke="#1C252E" stroke-width="1.5" stroke-linecap="round" stroke-linejoin="round"/>
<path d="M4.10938 9.89999C4.10938 12.78 5.99938 15.49 8.29938 16.88V18.04C8.29938 18.57 8.15938 19 9.25938 18.99H14.7694C15.8394 18.99 15.7294 18.32 15.7294 18.03V16.87C18.9594 14.92 21.1594 10.46 19.0694 6.25999C18.0394 4.18999 16.0594 2.68999 13.7994 2.18999C10.91 1.56041 8.20714 2.51076 6.39406 4.34299" stroke="#1C252E" stroke-width="1.5" stroke-linecap="round" stroke-linejoin="round"/>
<path d="M8.5 22C10.79 21.35 13.21 21.35 15.5 22" stroke="#1C252E" stroke-width="1.5" stroke-linecap="round" stroke-linejoin="round"/>
</svg>
