<svg width="24" height="24" viewBox="0 0 24 24" fill="none" xmlns="http://www.w3.org/2000/svg">
<path d="M4.10938 9.90005C4.10938 12.7801 5.99938 15.4901 8.29938 16.8801V18.0401C8.29938 18.5701 8.15938 19.0001 9.25938 18.9901H14.7694C15.8394 18.9901 15.7294 18.3201 15.7294 18.0301V16.8701C18.9594 14.9201 21.1594 10.4601 19.0694 6.26005C18.0394 4.19005 16.0594 2.69005 13.7994 2.19005C10.91 1.56047 8.20714 2.51082 6.39406 4.34305" stroke="#1C252E" stroke-width="1.5" stroke-linecap="round" stroke-linejoin="round"/>
<path d="M10 9C10 7.89543 10.8985 7 12.0031 7C13.1043 7 14 7.89269 14 8.99388V9.20543C14 9.99883 13.5517 10.7241 12.8421 11.0789C12.326 11.337 12 11.8645 12 12.4415V12.5M12 14.4375V14.5" stroke="#1C252E" stroke-width="1.5" stroke-linecap="round"/>
<path d="M8.5 22C10.79 21.35 13.21 21.35 15.5 22" stroke="#1C252E" stroke-width="1.5" stroke-linecap="round" stroke-linejoin="round"/>
</svg>
