<svg width="24" height="24" viewBox="0 0 24 24" fill="none" xmlns="http://www.w3.org/2000/svg">
<path d="M6.02058 11.8V8.91C6.02058 5.6 8.71058 2.91 12.0206 2.91C15.3206 2.91 18.0206 5.61 18.0206 8.91V11.8C18.0206 12.41 18.2806 13.34 18.5806 13.86L19.7306 15.77C20.3906 16.87 19.8606 18.3 18.6506 18.7C14.3406 20.14 9.69058 20.14 5.38058 18.7C4.08058 18.26 3.59058 16.95 4.30058 15.77" stroke="#1C252E" stroke-width="1.5" stroke-miterlimit="10" stroke-linecap="round"/>
<path d="M13.8699 3.2C13.5599 3.11 13.2399 3.04 12.9099 3C11.9499 2.88 11.0299 2.95 10.1699 3.2C10.4599 2.46 11.1799 1.94 12.0199 1.94C12.8599 1.94 13.5799 2.46 13.8699 3.2Z" stroke="#1C252E" stroke-width="1.5" stroke-miterlimit="10" stroke-linecap="round" stroke-linejoin="round"/>
<path d="M15.0195 19.06C15.0195 20.71 13.6695 22.06 12.0195 22.06C11.1995 22.06 10.4395 21.72 9.89953 21.18C9.35953 20.64 9.01953 19.88 9.01953 19.06" stroke="#1C252E" stroke-width="1.5" stroke-miterlimit="10"/>
</svg>
