<svg width="24" height="24" viewBox="0 0 24 24" fill="none" xmlns="http://www.w3.org/2000/svg">
<path opacity="0.4" fill-rule="evenodd" clip-rule="evenodd" d="M6 9.70005V12.5C6 14 7.3 15.3 8.8 15.3H12.5C13 15.3 13.4 14.9 13.4 14.4V11.6C13.4 10.1 12.2 8.80005 10.6 8.80005H6.9C6.4 8.80005 6 9.20005 6 9.70005Z" stroke="#1C252E" stroke-width="1.5" stroke-miterlimit="10"/>
<path opacity="0.4" fill-rule="evenodd" clip-rule="evenodd" d="M18.0002 9.19995V14.8L15.2002 12.9V11.1L18.0002 9.19995Z" stroke="#1C252E" stroke-width="1.5" stroke-miterlimit="10" stroke-linecap="round" stroke-linejoin="round"/>
<path d="M12 22C17.5228 22 22 17.5228 22 12C22 6.47715 17.5228 2 12 2C6.47715 2 2 6.47715 2 12C2 17.5228 6.47715 22 12 22Z" stroke="#1C252E" stroke-width="1.5" stroke-miterlimit="10"/>
</svg>
