<svg width="24" height="24" viewBox="0 0 24 24" fill="none" xmlns="http://www.w3.org/2000/svg">
<path fill-rule="evenodd" clip-rule="evenodd" d="M18.6 19.4C19.1 18.6 19.4 18.1 19.8 17.2C16.7 16 16.2 11.6 19.3 10C18.4 8.80001 17.1 8.20001 15.8 8.20001C14.9 8.20001 14.3 8.40001 13.7 8.60001C13.2 8.80001 12.8 8.90001 12.3 8.90001C11.7 8.90001 11.3 8.70001 10.7 8.50001C10.1 8.30001 9.50004 8.10001 8.80004 8.10001C7.40004 8.10001 5.90004 8.90001 5.00004 10.4C3.70004 12.4 3.90004 16.3 6.00004 19.5C6.90004 20.7 7.90004 22 9.20004 22C9.80004 22 10.1 21.8 10.5 21.7C11 21.5 11.5 21.3 12.3 21.3C13.2 21.3 13.6 21.5 14.1 21.7C14.5 21.9 14.8 22 15.4 22C16.8 22 17.8 20.5 18.6 19.4Z" stroke="#1C252E" stroke-width="1.5" stroke-miterlimit="10" stroke-linecap="round" stroke-linejoin="round"/>
<path opacity="0.4" fill-rule="evenodd" clip-rule="evenodd" d="M15.4001 2C15.6001 3.1 15.1001 4.2 14.5001 5C13.9001 5.8 12.8001 6.5 11.7001 6.4C11.5001 5.3 12.0001 4.3 12.6001 3.5C13.3001 2.7 14.4001 2.1 15.4001 2Z" stroke="#1C252E" stroke-width="1.5" stroke-miterlimit="10" stroke-linecap="round" stroke-linejoin="round"/>
</svg>
