<svg width="24" height="24" viewBox="0 0 24 24" fill="none" xmlns="http://www.w3.org/2000/svg">
<path d="M8.78516 2.92024C10.2952 1.75024 12.7054 1.69036 14.2754 2.79036L20.0352 6.81966C21.1351 7.58964 22.0048 9.24995 22.0049 10.5999V17.3802C22.0048 19.93 19.9355 22.0001 17.3857 22.0003H6.60547C4.0556 22.0003 1.98557 19.9202 1.98535 17.3704V10.47C1.98535 9.21011 2.77546 7.61044 3.77539 6.8304L8.78516 2.92024ZM10.6006 8.51009C8.68074 8.51009 7.1106 10.0696 7.11035 11.9993V14.7894C7.11035 16.7094 8.68059 18.2796 10.6006 18.2796H13.3906C15.3105 18.2795 16.8799 16.7193 16.8799 14.7894V11.9993C16.8796 10.0796 15.3202 8.51011 13.4004 8.51009H10.6006ZM11.3008 16.8802H10.6006C9.45059 16.8802 8.51074 15.9394 8.51074 14.7894V14.0902H11.3008V16.8802ZM15.4902 14.7894C15.4902 15.9394 14.5504 16.8802 13.4004 16.8802H12.7002V14.0902H15.4902V14.7894ZM11.3008 12.6995H8.51074V11.9993C8.51099 10.8495 9.45074 9.9095 10.6006 9.9095H11.3008V12.6995ZM13.4004 9.9095C14.5502 9.90952 15.49 10.8496 15.4902 11.9993V12.6995H12.7002V9.9095H13.4004Z" fill="#1C252E"/>
</svg>
