<svg width="24" height="24" viewBox="0 0 24 24" fill="none" xmlns="http://www.w3.org/2000/svg">
<path d="M21.6702 6.95C21.0302 4.77999 19.2202 2.97 17.0502 2.33C15.4002 1.85 14.2602 1.89 13.4702 2.48C12.5202 3.19 12.4102 4.47 12.4102 5.38V7.87C12.4102 10.33 13.5302 11.58 15.7302 11.58H18.6002C19.5002 11.58 20.7902 11.47 21.5002 10.52C22.1102 9.74 22.1602 8.6 21.6702 6.95Z" fill="#1C252E"/>
<path d="M18.9104 13.36C18.6504 13.06 18.2704 12.89 17.8804 12.89H14.3004C12.5404 12.89 11.1104 11.46 11.1104 9.7V6.12C11.1104 5.73 10.9404 5.35 10.6404 5.09C10.3504 4.83 9.95039 4.71 9.57039 4.76C7.22039 5.06 5.06039 6.35 3.65039 8.29C2.23039 10.24 1.71039 12.62 2.16039 15C2.81039 18.44 5.56039 21.19 9.01039 21.84C9.56039 21.95 10.1104 22 10.6604 22C12.4704 22 14.2204 21.44 15.7104 20.35C17.6504 18.94 18.9404 16.78 19.2404 14.43C19.2904 14.04 19.1704 13.65 18.9104 13.36Z" fill="#1C252E"/>
</svg>
