<svg width="24" height="24" viewBox="0 0 24 24" fill="none" xmlns="http://www.w3.org/2000/svg">
<path d="M20.0402 6.82L14.2802 2.79C12.7102 1.69 10.3002 1.75 8.79023 2.92L3.78023 6.83C2.78023 7.61 1.99023 9.21 1.99023 10.47V17.37C1.99023 19.92 4.06023 22 6.61023 22H17.3902C19.9402 22 22.0102 19.93 22.0102 17.38V10.6C22.0102 9.25 21.1402 7.59 20.0402 6.82ZM16.8802 16.19C16.8802 16.28 16.8602 16.37 16.8302 16.46C16.7602 16.63 16.6202 16.77 16.4502 16.84C16.3602 16.88 16.2702 16.89 16.1802 16.89H14.3202C13.9302 16.89 13.6202 16.58 13.6202 16.19C13.6202 15.8 13.9302 15.49 14.3202 15.49H14.5002L12.3902 13.38L11.3702 14.9C11.2502 15.07 11.0702 15.19 10.8602 15.21C10.6402 15.23 10.4502 15.16 10.3002 15.01L7.32023 12.03C7.05023 11.76 7.05023 11.32 7.32023 11.04C7.59023 10.76 8.03023 10.77 8.31024 11.04L10.6902 13.42L11.7102 11.9C11.8302 11.73 12.0102 11.61 12.2202 11.59C12.4402 11.57 12.6302 11.64 12.7802 11.79L15.5002 14.51V14.33C15.5002 13.94 15.8102 13.63 16.2002 13.63C16.5902 13.63 16.9002 13.94 16.9002 14.33V16.19H16.8802Z" fill="#1C252E"/>
</svg>
