<svg width="24" height="24" viewBox="0 0 24 24" fill="none" xmlns="http://www.w3.org/2000/svg">
<path d="M20.0505 10.63L15.3805 8.62L14.3405 8.18C14.1805 8.1 14.0405 7.89 14.0405 7.71V4.65C14.0405 3.69 13.3305 2.55 12.4705 2.11C12.1705 1.96 11.8105 1.96 11.5105 2.11C10.6605 2.55 9.95055 3.7 9.95055 4.66V7.72C9.95055 7.9 9.81055 8.11 9.65055 8.19L3.95055 10.64C3.32055 10.9 2.81055 11.69 2.81055 12.37V13.69C2.81055 14.54 3.45055 14.96 4.24055 14.62L9.25055 12.46C9.64055 12.29 9.96055 12.5 9.96055 12.93V14.04V15.84C9.96055 16.07 9.83055 16.4 9.67055 16.56L7.35055 18.89C7.11055 19.13 7.00055 19.6 7.11055 19.94L7.56055 21.3C7.74055 21.89 8.41055 22.17 8.96055 21.89L11.3405 19.89C11.7005 19.58 12.2905 19.58 12.6505 19.89L15.0305 21.89C15.5805 22.16 16.2505 21.89 16.4505 21.3L16.9005 19.94C17.0105 19.61 16.9005 19.13 16.6605 18.89L14.3405 16.56C14.1705 16.4 14.0405 16.07 14.0405 15.84V12.93C14.0405 12.5 14.3505 12.3 14.7505 12.46L19.7605 14.62C20.5505 14.96 21.1905 14.54 21.1905 13.69V12.37C21.1905 11.69 20.6805 10.9 20.0505 10.63Z" fill="#1C252E"/>
</svg>
