<svg width="24" height="24" viewBox="0 0 24 24" fill="none" xmlns="http://www.w3.org/2000/svg">
<path d="M18.7109 9.49C18.6109 9.49 18.5109 9.47001 18.4109 9.43001C18.0309 9.26 17.8609 8.82 18.0209 8.44C18.2109 8.01 18.1009 7.38 17.7509 6.86C17.4009 6.33 16.8709 5.97 16.3909 6C15.9509 6 15.6409 5.67 15.6309 5.26C15.6309 4.84 15.9609 4.51 16.3709 4.5C17.4009 4.48 18.3709 5.07 19.0009 6.02C19.6409 6.98 19.7909 8.13 19.4009 9.03C19.2809 9.32 19.0009 9.49 18.7109 9.49Z" fill="#1C252E"/>
<path d="M21.8201 10.48C21.7501 10.48 21.6901 10.47 21.6201 10.45C21.2201 10.34 20.9901 9.93001 21.1001 9.53001C21.4801 8.17001 21.1601 6.55001 20.2501 5.19001C19.3401 3.83001 17.9601 2.92001 16.5501 2.75001C16.1401 2.70001 15.8501 2.33001 15.9001 1.92001C15.9501 1.51001 16.3301 1.21001 16.7301 1.27001C18.5601 1.49001 20.3401 2.65001 21.4901 4.37001C22.6401 6.09001 23.0301 8.17001 22.5401 9.95001C22.4501 10.26 22.1501 10.48 21.8201 10.48Z" fill="#1C252E"/>
<path d="M17.1209 11.78C17.1209 12.08 16.8709 12.33 16.5709 12.33H3.43086C3.13086 12.33 2.88086 12.08 2.88086 11.78C2.88086 11.48 3.13086 11.23 3.43086 11.23H4.17086L4.45086 9.90999C4.71086 8.62999 5.26086 7.45999 7.44086 7.45999H12.5709C14.7509 7.45999 15.2909 8.63999 15.5609 9.90999L15.8409 11.23H16.5809C16.8709 11.23 17.1209 11.48 17.1209 11.78Z" fill="#1C252E"/>
<path d="M17.4305 15.91C17.3205 14.71 17.0005 13.42 14.6605 13.42H5.34053C3.00054 13.42 2.68053 14.71 2.57053 15.91L2.16053 20.36C2.11053 20.91 2.29053 21.47 2.67053 21.89C3.06053 22.31 3.60053 22.55 4.19053 22.55H5.56053C6.74053 22.55 6.97053 21.87 7.12053 21.43L7.27053 20.99C7.44054 20.49 7.48054 20.36 8.14054 20.36H11.8805C12.5405 20.36 12.5605 20.43 12.7505 20.99L12.9005 21.43C13.0505 21.88 13.2705 22.55 14.4605 22.55H15.8305C16.4105 22.55 16.9605 22.31 17.3505 21.89C17.7305 21.47 17.9105 20.92 17.8605 20.36L17.4305 15.91ZM7.81053 17.43H5.62053C5.32053 17.43 5.07053 17.18 5.07053 16.88C5.07053 16.58 5.32053 16.33 5.62053 16.33H7.81053C8.11054 16.33 8.36053 16.58 8.36053 16.88C8.36053 17.18 8.11054 17.43 7.81053 17.43ZM14.3805 17.43H12.1905C11.8905 17.43 11.6405 17.18 11.6405 16.88C11.6405 16.58 11.8905 16.33 12.1905 16.33H14.3805C14.6805 16.33 14.9305 16.58 14.9305 16.88C14.9305 17.18 14.6805 17.43 14.3805 17.43Z" fill="#1C252E"/>
</svg>
