<svg width="24" height="24" viewBox="0 0 24 24" fill="none" xmlns="http://www.w3.org/2000/svg">
<path opacity="0.4" d="M21.9697 12C21.9697 14.49 21.0597 16.77 19.5497 18.52C19.2197 18.9 18.8697 19.26 18.4897 19.57C16.7497 21.09 14.4697 22 11.9697 22C9.47973 22 7.19973 21.09 5.44973 19.58C5.06973 19.25 4.71973 18.9 4.38973 18.52C2.87973 16.77 1.96973 14.49 1.96973 12C1.96973 9.51 2.87973 7.23 4.39973 5.48C4.71973 5.1 5.07973 4.74 5.45973 4.42C7.20973 2.91 9.47973 2 11.9697 2C14.4697 2 16.7497 2.91 18.4897 4.43C18.8697 4.75 19.2297 5.1 19.5497 5.49C21.0597 7.24 21.9697 9.51 21.9697 12Z" fill="#1C252E"/>
<path d="M15.6496 14.6199L19.5496 18.5199C19.2196 18.8999 18.8696 19.2599 18.4896 19.5699L14.5896 15.6699C13.8496 16.1899 12.9596 16.4999 11.9996 16.4999C11.0196 16.4999 10.1196 16.1799 9.37965 15.6499L5.44965 19.5799C5.06965 19.2499 4.71965 18.8999 4.38965 18.5199L8.32965 14.5899C7.80965 13.8499 7.49965 12.9599 7.49965 11.9999C7.49965 11.0399 7.80965 10.1499 8.32965 9.40992L4.39965 5.47992C4.71965 5.09992 5.07965 4.73992 5.45965 4.41992L9.37965 8.34992C10.1196 7.81992 11.0196 7.49992 11.9996 7.49992C12.9596 7.49992 13.8496 7.80992 14.5896 8.32992L18.4896 4.42992C18.8696 4.74992 19.2296 5.09992 19.5496 5.48992L15.6496 9.37992C16.1796 10.1199 16.4996 11.0199 16.4996 11.9999C16.4996 12.9799 16.1796 13.8799 15.6496 14.6199Z" fill="#1C252E"/>
</svg>
