<svg width="24" height="24" viewBox="0 0 24 24" fill="none" xmlns="http://www.w3.org/2000/svg">
<path d="M21.9697 5.5V9.5C21.9697 11.43 20.3997 13 18.4697 13H16.9697V12.25C16.9697 9.35 14.6197 7 11.7197 7H10.9697V5.5C10.9697 3.57 12.5397 2 14.4697 2H18.4697C20.4097 2 21.9697 3.57 21.9697 5.5Z" fill="#1C252E"/>
<path opacity="0.4" d="M11.7197 7H10.9697H6.96973C4.20973 7 1.96973 9.24 1.96973 12V17C1.96973 19.76 4.20973 22 6.96973 22H11.9697C14.7297 22 16.9697 19.76 16.9697 17V13V12.25C16.9697 9.35 14.6197 7 11.7197 7Z" fill="#1C252E"/>
</svg>
