<svg width="24" height="24" viewBox="0 0 24 24" fill="none" xmlns="http://www.w3.org/2000/svg">
<path d="M6.5 2C5.44 2 4.46 2.37 3.69 2.99C2.65 3.81 2 5.08 2 6.5C2 7.34 2.24 8.14 2.65 8.82C3.19 9.72 4.04 10.42 5.06 10.76C5.51 10.92 5.99 11 6.5 11C7.64 11 8.67 10.58 9.46 9.88C9.81 9.58 10.11 9.22 10.35 8.82C10.56 8.47 10.72 8.1 10.83 7.7C10.94 7.32 11 6.91 11 6.5C11 4.01 8.99 2 6.5 2ZM8.16 7.25H7.27V8.18C7.27 8.59 6.93 8.93 6.52 8.93C6.11 8.93 5.77 8.6 5.77 8.18V7.25H4.8C4.39 7.25 4.05 6.91 4.05 6.5C4.05 6.09 4.39 5.75 4.8 5.75H5.77V4.82C5.77 4.41 6.11 4.07 6.52 4.07C6.93 4.07 7.27 4.4 7.27 4.82V5.75H8.16C8.57 5.75 8.91 6.09 8.91 6.5C8.91 6.91 8.58 7.25 8.16 7.25Z" fill="#1C252E"/>
<path d="M21.7101 11.3499L18.7001 13.2499L12.6201 7.16993L14.5101 4.15992C15.3901 2.76992 17.1601 2.70995 18.4501 3.99995L21.8601 7.40992C23.0801 8.63992 23.0001 10.5299 21.7101 11.3499Z" fill="#1C252E"/>
<path opacity="0.4" d="M16.0003 21.2899L6.64034 22.39C5.99034 22.47 5.41034 22.3699 4.92034 22.1299C4.40034 21.8699 3.99034 21.4699 3.73034 20.9399C3.49034 20.4499 3.40034 19.8799 3.47034 19.2399L4.51033 10.53C4.68033 10.62 4.87034 10.6999 5.06034 10.7599C5.51034 10.9199 5.99034 10.9999 6.50034 10.9999C7.64034 10.9999 8.67035 10.5799 9.46035 9.87994C9.81035 9.57994 10.1103 9.21995 10.3503 8.81995C10.5603 8.46995 10.7203 8.09995 10.8303 7.69995C10.8903 7.49995 10.9303 7.28995 10.9603 7.06995L12.6203 7.16992L18.7003 13.2599L18.9603 17.6799C19.2103 20.1599 18.3503 21.0199 16.0003 21.2899Z" fill="#1C252E"/>
<path d="M8.78023 18.28L4.93022 22.13C4.40022 21.87 4.00023 21.47 3.74023 20.94L7.59023 17.09C7.93023 16.76 8.46023 16.76 8.78023 17.09C9.11023 17.42 9.11023 17.95 8.78023 18.28Z" fill="#1C252E"/>
</svg>
