<svg width="24" height="24" viewBox="0 0 24 24" fill="none" xmlns="http://www.w3.org/2000/svg">
<path d="M21.9697 12C21.9697 15.31 19.2797 18 15.9697 18C14.4297 18 13.0297 17.42 11.9697 16.46C13.1997 15.37 13.9697 13.77 13.9697 12C13.9697 10.23 13.1997 8.63 11.9697 7.54C13.0297 6.58 14.4297 6 15.9697 6C19.2797 6 21.9697 8.69 21.9697 12Z" fill="#1C252E"/>
<path opacity="0.4" d="M13.9697 12C13.9697 13.77 13.1997 15.37 11.9697 16.46C10.9097 17.42 9.50973 18 7.96973 18C4.65973 18 1.96973 15.31 1.96973 12C1.96973 8.69 4.65973 6 7.96973 6C9.50973 6 10.9097 6.58 11.9697 7.54C13.1997 8.63 13.9697 10.23 13.9697 12Z" fill="#1C252E"/>
</svg>
