<svg width="24" height="24" viewBox="0 0 24 24" fill="none" xmlns="http://www.w3.org/2000/svg">
<path opacity="0.4" d="M16.19 2.00024H7.81C4.17 2.00024 2 4.17024 2 7.81024V16.1802C2 19.8302 4.17 22.0002 7.81 22.0002H16.18C19.82 22.0002 21.99 19.8302 21.99 16.1902V7.81024C22 4.17024 19.83 2.00024 16.19 2.00024Z" fill="#1C252E"/>
<path d="M21.8303 3.55022C20.7803 6.16022 18.4003 9.57022 16.1203 11.8002C15.7903 9.74022 14.1503 8.13022 12.0703 7.84022C14.3103 5.56022 17.7403 3.14022 20.3603 2.08022C20.8203 1.90022 21.2903 2.04022 21.5703 2.33022C21.8803 2.63022 22.0203 3.09022 21.8303 3.55022Z" fill="#1C252E"/>
<path opacity="0.4" d="M16.1197 11.7903C15.7197 12.1803 15.3197 12.5403 14.9397 12.8403L13.3697 14.1003C13.1697 14.2403 12.9697 14.3603 12.7497 14.4603C12.7497 14.3103 12.7297 14.1603 12.7197 14.0003C12.6297 13.3403 12.3297 12.7103 11.7897 12.1703C11.2397 11.6303 10.5797 11.3203 9.90969 11.2303C9.74969 11.2103 9.57969 11.2103 9.42969 11.2103C9.51969 10.9603 9.64969 10.7303 9.81969 10.5403L11.0697 8.97032C11.3697 8.59032 11.7097 8.21032 12.0797 7.83032C14.1497 8.12032 15.7997 9.74032 16.1197 11.7903Z" fill="#1C252E"/>
<path d="M12.7501 14.4702C12.7501 15.3502 12.4101 16.1902 11.7801 16.8202C11.2901 17.3102 10.6401 17.6502 9.84007 17.7502L7.88007 17.9702C6.81007 18.0902 5.89007 17.1702 6.01007 16.0902L6.23007 14.1302C6.42007 12.3802 7.88007 11.2602 9.43007 11.2302C9.58007 11.2202 9.75007 11.2302 9.91007 11.2502C10.5901 11.3402 11.2401 11.6502 11.7901 12.1902C12.3201 12.7202 12.6301 13.3602 12.7201 14.0202C12.7301 14.1702 12.7501 14.3202 12.7501 14.4702Z" fill="#1C252E"/>
</svg>
