<svg width="24" height="24" viewBox="0 0 24 24" fill="none" xmlns="http://www.w3.org/2000/svg">
<path d="M20.0201 10.6999L17.2201 12.4699L11.5601 6.80992L13.3201 4.00992C14.1401 2.71992 15.7801 2.65992 16.9901 3.85992L20.1701 7.03992C21.3001 8.16992 21.2301 9.92992 20.0201 10.6999Z" fill="#1C252E"/>
<path opacity="0.4" d="M14.7103 19.95L6.0003 20.98C5.4003 21.05 4.8603 20.96 4.4103 20.74C3.9203 20.5 3.5403 20.12 3.3003 19.63C3.0803 19.18 3.0003 18.64 3.0603 18.05L4.1003 9.32998C4.3503 7.14998 5.1603 6.43999 7.4603 6.56999L11.5803 6.81999L17.2403 12.48L17.4803 16.6C17.6903 18.9 16.9003 19.7 14.7103 19.95Z" fill="#1C252E"/>
<path d="M7.98004 17.1499L4.40004 20.7299C3.91004 20.4899 3.53004 20.1099 3.29004 19.6199L6.88004 16.0299C7.19004 15.7299 7.69004 15.7299 7.99004 16.0299C8.30004 16.3499 8.30004 16.8399 7.98004 17.1499Z" fill="#1C252E"/>
</svg>
