<svg width="24" height="24" viewBox="0 0 24 24" fill="none" xmlns="http://www.w3.org/2000/svg">
<path opacity="0.4" d="M20.95 14.55L18.28 17.22L17.22 18.28L14.55 20.95C13.15 22.35 10.85 22.35 9.45002 20.95L6.78001 18.28L5.72001 17.22L3.05 14.55C1.65 13.15 1.65 10.85 3.05 9.45002L5.72001 6.78001L6.78001 5.72001L9.45002 3.05C10.85 1.65 13.15 1.65 14.55 3.05L17.22 5.72001L18.28 6.78001L20.95 9.45002C22.35 10.85 22.35 13.15 20.95 14.55Z" fill="#1C252E"/>
<path d="M13.0597 12L18.2797 17.22L17.2197 18.28L11.9997 13.06L6.77972 18.28L5.71973 17.22L10.9397 12L5.71973 6.77997L6.77972 5.71997L11.9997 10.94L17.2197 5.71997L18.2797 6.77997L13.0597 12Z" fill="#1C252E"/>
</svg>
