<svg width="24" height="24" viewBox="0 0 24 24" fill="none" xmlns="http://www.w3.org/2000/svg">
<path d="M14.66 14.2701C14.16 14.7601 13.66 15.2101 13.18 15.5901L11.21 17.1701C10.96 17.3501 10.71 17.5001 10.43 17.6201C10.43 17.4301 10.41 17.2401 10.39 17.0401C10.28 16.2101 9.90002 15.4201 9.23002 14.7501C8.54002 14.0701 7.72002 13.6801 6.87002 13.5701C6.67002 13.5501 6.46002 13.5401 6.27002 13.5501C6.38002 13.2401 6.55002 12.9501 6.76002 12.7101L8.32002 10.7401C8.69002 10.2701 9.12002 9.79006 9.59002 9.31006C12.19 9.67006 14.25 11.6901 14.66 14.2701Z" fill="#1C252E"/>
<path d="M21.0401 13.28L20.1201 12.38L12.3701 20.12L13.3001 21.05C14.0801 21.83 14.8901 22.22 15.6901 22.22C16.4901 22.22 17.3001 21.83 18.0801 21.05L21.0401 18.09C22.6301 16.49 22.6301 14.88 21.0401 13.28Z" fill="#1C252E"/>
<path d="M10.6898 2.93C9.11976 1.36 7.46977 1.36 5.89977 2.93L2.92977 5.89C1.36977 7.46 1.36977 9.11 2.92977 10.68L3.84977 11.6L11.5998 3.85L10.6898 2.93Z" fill="#1C252E"/>
<path opacity="0.4" d="M21.8098 3.94003C20.4998 7.21003 17.5098 11.48 14.6598 14.27C14.2498 11.69 12.1898 9.67003 9.58984 9.31003C12.3898 6.45003 16.6898 3.42003 19.9698 2.10003C20.5498 1.88003 21.1298 2.05003 21.4898 2.41003C21.8698 2.79003 22.0498 3.36003 21.8098 3.94003Z" fill="#1C252E"/>
<path opacity="0.4" d="M10.4298 17.62C10.4298 18.72 10.0098 19.77 9.20976 20.56C8.59976 21.18 7.77977 21.6 6.77977 21.72L4.32976 21.99C2.98976 22.14 1.83976 20.99 1.98976 19.64L2.25976 17.18C2.49976 14.99 4.32976 13.59 6.26976 13.55C6.45976 13.54 6.66976 13.55 6.86976 13.57C7.71976 13.68 8.53976 14.07 9.22976 14.75C9.89976 15.42 10.2798 16.21 10.3898 17.04C10.4098 17.24 10.4298 17.43 10.4298 17.62Z" fill="#1C252E"/>
</svg>
