<svg width="24" height="24" viewBox="0 0 24 24" fill="none" xmlns="http://www.w3.org/2000/svg">
<path d="M13.2598 22.0099H10.6998C9.7798 22.0099 9.0998 21.2698 9.2698 20.4698L9.6898 18.6199H14.2798L14.6998 20.4698C14.8898 21.3198 14.2398 22.0099 13.2598 22.0099Z" fill="#1C252E"/>
<path opacity="0.4" d="M16.04 17.0499L14.27 18.6199H9.68002L7.91002 17.0499C6.88002 16.2099 6.88002 15.5599 7.66002 14.5699L10.78 10.6299C11 10.3599 11.25 10.1699 11.52 10.0799C11.81 9.97988 12.13 9.97988 12.42 10.0799C12.69 10.1799 12.94 10.3599 13.16 10.6299L16.28 14.5699C17.07 15.5599 17.03 16.1799 16.04 17.0499Z" fill="#1C252E"/>
<path d="M20.5501 9.44001H19.4501C19.3001 9.44001 19.1501 9.47001 19.0101 9.51001L14.0201 4.52001C14.5001 3.90001 14.4601 3.01001 13.8901 2.45001L13.1101 1.67001C12.5201 1.08001 11.4801 1.08001 10.8801 1.67001L10.1001 2.45001C9.54012 3.01001 9.50012 3.90001 9.98012 4.52001L4.99012 9.51001C4.85012 9.47001 4.70012 9.44001 4.55012 9.44001H3.45012C2.58012 9.44001 1.87012 10.15 1.87012 11.02V12.12C1.87012 12.99 2.58012 13.7 3.45012 13.7H4.55012C5.42012 13.7 6.13012 12.99 6.13012 12.12V11.02C6.13012 10.87 6.10012 10.72 6.06012 10.58L11.0501 5.59001C11.3201 5.80001 11.6601 5.91001 12.0001 5.91001C12.3401 5.91001 12.6801 5.79001 12.9601 5.58001L17.9501 10.57C17.9101 10.71 17.8801 10.86 17.8801 11.01V12.11C17.8801 12.98 18.5901 13.69 19.4601 13.69H20.5601C21.4301 13.69 22.1401 12.98 22.1401 12.11V11.01C22.1201 10.14 21.4201 9.44001 20.5501 9.44001Z" fill="#1C252E"/>
</svg>
