<svg width="24" height="24" viewBox="0 0 24 24" fill="none" xmlns="http://www.w3.org/2000/svg">
<path d="M14.25 9C14.25 8.72386 14.0261 8.5 13.75 8.5C13.4739 8.5 13.25 8.72386 13.25 9C13.25 9.27614 13.4739 9.5 13.75 9.5C14.0261 9.5 14.25 9.27614 14.25 9ZM15.25 9C15.25 9.82843 14.5784 10.5 13.75 10.5C12.9216 10.5 12.25 9.82843 12.25 9C12.25 8.17157 12.9216 7.5 13.75 7.5C14.5784 7.5 15.25 8.17157 15.25 9Z" fill="#1C252E"/>
<path d="M10.75 9C10.75 8.72386 10.5261 8.5 10.25 8.5C9.97386 8.5 9.75 8.72386 9.75 9C9.75 9.27614 9.97386 9.5 10.25 9.5C10.5261 9.5 10.75 9.27614 10.75 9ZM11.75 9C11.75 9.82843 11.0784 10.5 10.25 10.5C9.42157 10.5 8.75 9.82843 8.75 9C8.75 8.17157 9.42157 7.5 10.25 7.5C11.0784 7.5 11.75 8.17157 11.75 9Z" fill="#1C252E"/>
<path d="M16 12C16 11.7239 15.7761 11.5 15.5 11.5C15.2239 11.5 15 11.7239 15 12C15 12.2761 15.2239 12.5 15.5 12.5C15.7761 12.5 16 12.2761 16 12ZM17 12C17 12.8284 16.3284 13.5 15.5 13.5C14.6716 13.5 14 12.8284 14 12C14 11.1716 14.6716 10.5 15.5 10.5C16.3284 10.5 17 11.1716 17 12Z" fill="#1C252E"/>
<path d="M17.3999 9C17.3999 8.86193 17.288 8.75 17.1499 8.75C17.0118 8.75 16.8999 8.86193 16.8999 9C16.8999 9.13807 17.0118 9.25 17.1499 9.25C17.288 9.25 17.3999 9.13807 17.3999 9ZM18.3999 9C18.3999 9.69036 17.8403 10.25 17.1499 10.25C16.4595 10.25 15.8999 9.69036 15.8999 9C15.8999 8.30964 16.4595 7.75 17.1499 7.75C17.8403 7.75 18.3999 8.30964 18.3999 9Z" fill="#1C252E"/>
<path d="M17.3999 15C17.3999 14.8619 17.288 14.75 17.1499 14.75C17.0118 14.75 16.8999 14.8619 16.8999 15C16.8999 15.1381 17.0118 15.25 17.1499 15.25C17.288 15.25 17.3999 15.1381 17.3999 15ZM18.3999 15C18.3999 15.6904 17.8403 16.25 17.1499 16.25C16.4595 16.25 15.8999 15.6904 15.8999 15C15.8999 14.3096 16.4595 13.75 17.1499 13.75C17.8403 13.75 18.3999 14.3096 18.3999 15Z" fill="#1C252E"/>
<path d="M20 12C20 11.8619 19.8881 11.75 19.75 11.75C19.6119 11.75 19.5 11.8619 19.5 12C19.5 12.1381 19.6119 12.25 19.75 12.25C19.8881 12.25 20 12.1381 20 12ZM21 12C21 12.6904 20.4404 13.25 19.75 13.25C19.0596 13.25 18.5 12.6904 18.5 12C18.5 11.3096 19.0596 10.75 19.75 10.75C20.4404 10.75 21 11.3096 21 12Z" fill="#1C252E"/>
<path d="M7.05005 9C7.05005 8.86193 6.93812 8.75 6.80005 8.75C6.66198 8.75 6.55005 8.86193 6.55005 9C6.55005 9.13807 6.66198 9.25 6.80005 9.25C6.93812 9.25 7.05005 9.13807 7.05005 9ZM8.05005 9C8.05005 9.69036 7.4904 10.25 6.80005 10.25C6.10969 10.25 5.55005 9.69036 5.55005 9C5.55005 8.30964 6.10969 7.75 6.80005 7.75C7.4904 7.75 8.05005 8.30964 8.05005 9Z" fill="#1C252E"/>
<path d="M7.05005 15C7.05005 14.8619 6.93812 14.75 6.80005 14.75C6.66198 14.75 6.55005 14.8619 6.55005 15C6.55005 15.1381 6.66198 15.25 6.80005 15.25C6.93812 15.25 7.05005 15.1381 7.05005 15ZM8.05005 15C8.05005 15.6904 7.4904 16.25 6.80005 16.25C6.10969 16.25 5.55005 15.6904 5.55005 15C5.55005 14.3096 6.10969 13.75 6.80005 13.75C7.4904 13.75 8.05005 14.3096 8.05005 15Z" fill="#1C252E"/>
<path d="M4.44995 12C4.44995 11.8619 4.33802 11.75 4.19995 11.75C4.06188 11.75 3.94995 11.8619 3.94995 12C3.94995 12.1381 4.06188 12.25 4.19995 12.25C4.33802 12.25 4.44995 12.1381 4.44995 12ZM5.44995 12C5.44995 12.6904 4.89031 13.25 4.19995 13.25C3.5096 13.25 2.94995 12.6904 2.94995 12C2.94995 11.3096 3.5096 10.75 4.19995 10.75C4.89031 10.75 5.44995 11.3096 5.44995 12Z" fill="#1C252E"/>
<path d="M16.1499 5.20001C16.1499 5.06194 16.038 4.95001 15.8999 4.95001C15.7618 4.95001 15.6499 5.06194 15.6499 5.20001C15.6499 5.33808 15.7618 5.45001 15.8999 5.45001C16.038 5.45001 16.1499 5.33808 16.1499 5.20001ZM17.1499 5.20001C17.1499 5.89037 16.5903 6.45001 15.8999 6.45001C15.2095 6.45001 14.6499 5.89037 14.6499 5.20001C14.6499 4.50966 15.2095 3.95001 15.8999 3.95001C16.5903 3.95001 17.1499 4.50966 17.1499 5.20001Z" fill="#1C252E"/>
<path d="M8.3501 5.20001C8.3501 5.06194 8.23817 4.95001 8.1001 4.95001C7.96203 4.95001 7.8501 5.06194 7.8501 5.20001C7.8501 5.33808 7.96203 5.45001 8.1001 5.45001C8.23817 5.45001 8.3501 5.33808 8.3501 5.20001ZM9.3501 5.20001C9.3501 5.89037 8.79045 6.45001 8.1001 6.45001C7.40974 6.45001 6.8501 5.89037 6.8501 5.20001C6.8501 4.50966 7.40974 3.95001 8.1001 3.95001C8.79045 3.95001 9.3501 4.50966 9.3501 5.20001Z" fill="#1C252E"/>
<path d="M12.3 6C12.3 5.86193 12.1881 5.75 12.05 5.75C11.912 5.75 11.8 5.86193 11.8 6C11.8 6.13807 11.912 6.25 12.05 6.25C12.1881 6.25 12.3 6.13807 12.3 6ZM13.3 6C13.3 6.69036 12.7404 7.25 12.05 7.25C11.3597 7.25 10.8 6.69036 10.8 6C10.8 5.30964 11.3597 4.75 12.05 4.75C12.7404 4.75 13.3 5.30964 13.3 6Z" fill="#1C252E"/>
<path d="M16.1499 19C16.1499 18.8619 16.038 18.75 15.8999 18.75C15.7618 18.75 15.6499 18.8619 15.6499 19C15.6499 19.1381 15.7618 19.25 15.8999 19.25C16.038 19.25 16.1499 19.1381 16.1499 19ZM17.1499 19C17.1499 19.6904 16.5903 20.25 15.8999 20.25C15.2095 20.25 14.6499 19.6904 14.6499 19C14.6499 18.3096 15.2095 17.75 15.8999 17.75C16.5903 17.75 17.1499 18.3096 17.1499 19Z" fill="#1C252E"/>
<path d="M8.3501 19C8.3501 18.8619 8.23817 18.75 8.1001 18.75C7.96203 18.75 7.8501 18.8619 7.8501 19C7.8501 19.1381 7.96203 19.25 8.1001 19.25C8.23817 19.25 8.3501 19.1381 8.3501 19ZM9.3501 19C9.3501 19.6904 8.79045 20.25 8.1001 20.25C7.40974 20.25 6.8501 19.6904 6.8501 19C6.8501 18.3096 7.40974 17.75 8.1001 17.75C8.79045 17.75 9.3501 18.3096 9.3501 19Z" fill="#1C252E"/>
<path d="M12.3 18.2C12.3 18.0619 12.1881 17.95 12.05 17.95C11.912 17.95 11.8 18.0619 11.8 18.2C11.8 18.3381 11.912 18.45 12.05 18.45C12.1881 18.45 12.3 18.3381 12.3 18.2ZM13.3 18.2C13.3 18.8904 12.7404 19.45 12.05 19.45C11.3597 19.45 10.8 18.8904 10.8 18.2C10.8 17.5097 11.3597 16.95 12.05 16.95C12.7404 16.95 13.3 17.5097 13.3 18.2Z" fill="#1C252E"/>
<path d="M9 12C9 11.7239 8.77614 11.5 8.5 11.5C8.22386 11.5 8 11.7239 8 12C8 12.2761 8.22386 12.5 8.5 12.5C8.77614 12.5 9 12.2761 9 12ZM10 12C10 12.8284 9.32843 13.5 8.5 13.5C7.67157 13.5 7 12.8284 7 12C7 11.1716 7.67157 10.5 8.5 10.5C9.32843 10.5 10 11.1716 10 12Z" fill="#1C252E"/>
<path d="M10.75 15C10.75 14.7239 10.5261 14.5 10.25 14.5C9.97386 14.5 9.75 14.7239 9.75 15C9.75 15.2761 9.97386 15.5 10.25 15.5C10.5261 15.5 10.75 15.2761 10.75 15ZM11.75 15C11.75 15.8284 11.0784 16.5 10.25 16.5C9.42157 16.5 8.75 15.8284 8.75 15C8.75 14.1716 9.42157 13.5 10.25 13.5C11.0784 13.5 11.75 14.1716 11.75 15Z" fill="#1C252E"/>
<path d="M14.25 15C14.25 14.7239 14.0261 14.5 13.75 14.5C13.4739 14.5 13.25 14.7239 13.25 15C13.25 15.2761 13.4739 15.5 13.75 15.5C14.0261 15.5 14.25 15.2761 14.25 15ZM15.25 15C15.25 15.8284 14.5784 16.5 13.75 16.5C12.9216 16.5 12.25 15.8284 12.25 15C12.25 14.1716 12.9216 13.5 13.75 13.5C14.5784 13.5 15.25 14.1716 15.25 15Z" fill="#1C252E"/>
<path d="M11 2.45001C11 1.89773 11.4477 1.45001 12 1.45001C12.5523 1.45001 13 1.89773 13 2.45001C13 3.0023 12.5523 3.45001 12 3.45001C11.4477 3.45001 11 3.0023 11 2.45001Z" fill="#1C252E"/>
<path d="M16.75 2.84998C16.75 2.43576 17.0858 2.09998 17.5 2.09998C17.9142 2.09998 18.25 2.43576 18.25 2.84998C18.25 3.26419 17.9142 3.59998 17.5 3.59998C17.0858 3.59998 16.75 3.26419 16.75 2.84998Z" fill="#1C252E"/>
<path d="M16.75 21.2C16.75 20.7858 17.0858 20.45 17.5 20.45C17.9142 20.45 18.25 20.7858 18.25 21.2C18.25 21.6142 17.9142 21.95 17.5 21.95C17.0858 21.95 16.75 21.6142 16.75 21.2Z" fill="#1C252E"/>
<path d="M19.25 16.5C19.25 16.0858 19.5858 15.75 20 15.75C20.4142 15.75 20.75 16.0858 20.75 16.5C20.75 16.9142 20.4142 17.25 20 17.25C19.5858 17.25 19.25 16.9142 19.25 16.5Z" fill="#1C252E"/>
<path d="M19.25 7C19.25 6.58579 19.5858 6.25 20 6.25C20.4142 6.25 20.75 6.58579 20.75 7C20.75 7.41421 20.4142 7.75 20 7.75C19.5858 7.75 19.25 7.41421 19.25 7Z" fill="#1C252E"/>
<path d="M3.25 16.5C3.25 16.0858 3.58579 15.75 4 15.75C4.41421 15.75 4.75 16.0858 4.75 16.5C4.75 16.9142 4.41421 17.25 4 17.25C3.58579 17.25 3.25 16.9142 3.25 16.5Z" fill="#1C252E"/>
<path d="M3.25 7C3.25 6.58579 3.58579 6.25 4 6.25C4.41421 6.25 4.75 6.58579 4.75 7C4.75 7.41421 4.41421 7.75 4 7.75C3.58579 7.75 3.25 7.41421 3.25 7Z" fill="#1C252E"/>
<path d="M5.75 2.84998C5.75 2.43576 6.08579 2.09998 6.5 2.09998C6.91421 2.09998 7.25 2.43576 7.25 2.84998C7.25 3.26419 6.91421 3.59998 6.5 3.59998C6.08579 3.59998 5.75 3.26419 5.75 2.84998Z" fill="#1C252E"/>
<path d="M5.75 21.2C5.75 20.7858 6.08579 20.45 6.5 20.45C6.91421 20.45 7.25 20.7858 7.25 21.2C7.25 21.6142 6.91421 21.95 6.5 21.95C6.08579 21.95 5.75 21.6142 5.75 21.2Z" fill="#1C252E"/>
<path d="M11 21.5C11 20.9477 11.4477 20.5 12 20.5C12.5523 20.5 13 20.9477 13 21.5C13 22.0523 12.5523 22.5 12 22.5C11.4477 22.5 11 22.0523 11 21.5Z" fill="#1C252E"/>
<path d="M0.550049 12C0.550049 11.4477 0.997764 11 1.55005 11C2.10233 11 2.55005 11.4477 2.55005 12C2.55005 12.5523 2.10233 13 1.55005 13C0.997764 13 0.550049 12.5523 0.550049 12Z" fill="#1C252E"/>
<path d="M21.5 12C21.5 11.4477 21.9477 11 22.5 11C23.0523 11 23.5 11.4477 23.5 12C23.5 12.5523 23.0523 13 22.5 13C21.9477 13 21.5 12.5523 21.5 12Z" fill="#1C252E"/>
</svg>
