<svg width="24" height="24" viewBox="0 0 24 24" fill="none" xmlns="http://www.w3.org/2000/svg">
<path d="M10.9202 1.82517C11.5197 1.05924 12.6789 1.05959 13.2786 1.82517L13.2796 1.8242L18.2796 7.92478L18.3001 7.95017C18.6614 8.43215 18.6132 9.02396 18.3128 9.42478C18.0223 9.81212 17.4601 10.0457 16.8997 9.78611V9.78709L12.1399 7.70506C12.0762 7.68494 12.0404 7.6777 12.0237 7.67576C12.016 7.67947 12.0082 7.68403 12.0003 7.68748L7.20047 9.78709L7.1995 9.78611C6.64917 10.0403 6.0653 9.82506 5.77567 9.3906C5.46934 8.93072 5.53727 8.3377 5.93192 7.91111L10.9202 1.8242V1.82517ZM12.0804 2.77537L7.93973 7.82615L11.3997 6.31248V6.31345C11.8278 6.11228 12.2381 6.15515 12.637 6.28806C12.6584 6.29521 12.6798 6.30343 12.7005 6.31248L16.3157 7.89451L12.1194 2.77537C12.1127 2.76712 12.1063 2.75851 12.0999 2.74998C12.0935 2.75852 12.0871 2.76711 12.0804 2.77537Z" fill="#1C252E"/>
<path d="M16.8998 14.2138C17.4601 13.9542 18.0223 14.1878 18.3128 14.5752C18.6133 14.976 18.6615 15.5678 18.3001 16.0498C18.2937 16.0584 18.2865 16.0668 18.2796 16.0752L13.2796 22.1758L13.2787 22.1748C12.6789 22.9404 11.5197 22.9407 10.9203 22.1748V22.1758L5.93198 16.0879C5.53776 15.6613 5.46952 15.069 5.77573 14.6094C6.06536 14.1749 6.64924 13.9597 7.19956 14.2138L7.20053 14.2129L12.0003 16.3125C12.0081 16.3159 12.0162 16.3196 12.0238 16.3232C12.0405 16.3213 12.0762 16.3141 12.14 16.2939L16.8998 14.2129V14.2138ZM12.7005 17.6875C12.6798 17.6965 12.6585 17.7047 12.6371 17.7119C12.2381 17.8449 11.828 17.8869 11.3998 17.6855V17.6875L7.93979 16.1728L12.0804 21.2246L12.0999 21.25C12.1063 21.2414 12.1127 21.2328 12.1195 21.2246L16.3158 16.1045L12.7005 17.6875Z" fill="#1C252E"/>
<path d="M11.7454 8.69498C11.9372 8.62566 12.1504 8.63686 12.3352 8.72916L17.5354 11.3288C17.7894 11.4558 17.9503 11.7157 17.9504 11.9997C17.9504 12.2837 17.7894 12.5435 17.5354 12.6706L12.3352 15.2712C12.1241 15.3766 11.8753 15.3767 11.6643 15.2712L6.46509 12.6706C6.211 12.5435 6.05005 12.2837 6.05005 11.9997C6.0502 11.7157 6.21112 11.4558 6.46509 11.3288L11.6643 8.72916L11.7454 8.69498ZM8.47681 11.9997L11.9993 13.7614L15.5227 11.9997L11.9993 10.238L8.47681 11.9997Z" fill="#1C252E"/>
</svg>
