<svg width="24" height="24" viewBox="0 0 24 24" fill="none" xmlns="http://www.w3.org/2000/svg">
<path d="M2.12606 2.05444C2.54756 1.5539 3.19082 1.44044 3.79598 1.55737L3.79695 1.55639L16.797 3.25659L16.796 3.25756C16.9744 3.27566 17.152 3.33745 17.2852 3.40405C17.4224 3.47265 17.6293 3.60272 17.7843 3.82299L20.8126 6.85229C21.5703 7.48092 21.4571 8.54083 21.0001 9.15014C20.9963 9.15514 20.9922 9.15989 20.9884 9.16479L11.5889 21.0652L11.587 21.0642C11.2144 21.5544 10.6616 21.9666 9.98152 21.8816C9.30239 21.7965 8.86136 21.2606 8.61434 20.7048C8.6104 20.696 8.60718 20.6865 8.60359 20.6775L1.9034 3.87768C1.89814 3.86447 1.89326 3.85113 1.88875 3.83764C1.68935 3.23944 1.69999 2.56052 2.12606 2.05444ZM3.28816 3.02026C3.28233 3.02172 3.27784 3.02297 3.27449 3.02417C3.26389 3.05318 3.24265 3.14744 3.30672 3.34741L9.98543 20.0955L10.0372 20.2019C10.0878 20.2945 10.1338 20.3482 10.1641 20.3767C10.1654 20.3779 10.1669 20.3786 10.168 20.3796C10.2129 20.3535 10.2959 20.2896 10.4005 20.1501L10.4112 20.1355L19.7989 8.24975C19.8448 8.1886 19.8665 8.11123 19.8634 8.05151C19.8619 8.02477 19.8561 8.00978 19.8536 8.00463C19.852 8.00141 19.8513 8.00096 19.8497 7.99975C19.8214 7.97853 19.7946 7.95541 19.7696 7.93042L16.67 4.83081C16.6428 4.80359 16.6175 4.77387 16.5948 4.74292L3.60262 3.0437C3.58068 3.04082 3.55878 3.03678 3.53719 3.03198C3.40174 3.0019 3.32214 3.01176 3.28816 3.02026Z" fill="#1C252E"/>
<path d="M2.43944 2.40196C2.71443 2.09246 3.18834 2.06461 3.49803 2.33946L11.498 9.43907C11.6762 9.59722 11.7686 9.83075 11.7471 10.068L10.7471 21.068C10.7095 21.4805 10.3441 21.7842 9.93163 21.7467C9.5194 21.709 9.21551 21.3445 9.25291 20.9322L10.2178 10.3092L2.50194 3.46056C2.19243 3.18557 2.16458 2.71166 2.43944 2.40196Z" fill="#1C252E"/>
<path d="M16.4698 3.46967C16.7627 3.17678 17.2375 3.17678 17.5303 3.46967C17.8232 3.76256 17.8232 4.23732 17.5303 4.53022L13.2813 8.77826L19.8526 7.46479C20.2587 7.38357 20.6541 7.64661 20.7354 8.05268C20.8166 8.45873 20.5535 8.8541 20.1475 8.93549L11.1475 10.7353C10.8235 10.8001 10.4949 10.6449 10.3389 10.3535C10.1832 10.0621 10.2362 9.7033 10.4698 9.46967L16.4698 3.46967Z" fill="#1C252E"/>
</svg>
