<svg width="24" height="24" viewBox="0 0 24 24" fill="none" xmlns="http://www.w3.org/2000/svg">
<path d="M22 2.25C22.4142 2.25 22.75 2.58579 22.75 3C22.75 3.41421 22.4142 3.75 22 3.75H2C1.58579 3.75 1.25 3.41421 1.25 3C1.25 2.58579 1.58579 2.25 2 2.25H22Z" fill="#1C252E"/>
<path d="M19.9997 5.6499C21.4909 5.6499 22.353 7.30562 21.529 8.50537L21.53 8.50635L13.53 20.9067C12.8018 22.1241 11.1448 21.9936 10.3894 20.936C10.3826 20.9265 10.3762 20.9166 10.3698 20.9067L2.36984 8.50635C2.35505 8.48341 2.34103 8.45947 2.32883 8.43506C1.68156 7.13986 2.63887 5.65017 3.99973 5.6499H19.9997ZM3.99973 7.1499C3.76788 7.15021 3.53372 7.44205 3.65988 7.73779L11.6169 20.0728C11.725 20.2185 11.8693 20.2749 11.988 20.2749C12.1042 20.2748 12.1934 20.2243 12.2487 20.1274C12.2554 20.1158 12.263 20.1045 12.2702 20.0933L20.2702 7.69287L20.2898 7.66357C20.431 7.46543 20.2963 7.1499 19.9997 7.1499H3.99973Z" fill="#1C252E"/>
</svg>
