<svg width="24" height="24" viewBox="0 0 24 24" fill="none" xmlns="http://www.w3.org/2000/svg">
<path d="M22.2499 15.97C22.2499 15.5558 22.5857 15.22 22.9999 15.22C23.4141 15.22 23.7499 15.5558 23.7499 15.97C23.7499 20.2542 20.2841 23.72 15.9999 23.72C15.7297 23.72 15.4807 23.5742 15.3476 23.3391C15.2146 23.1041 15.2175 22.8158 15.3564 22.5842L16.4071 20.8342C16.6202 20.4792 17.0804 20.3637 17.4355 20.5764C17.7906 20.7895 17.9062 21.2506 17.6933 21.6057L17.4228 22.0549C20.191 21.4119 22.2499 18.9359 22.2499 15.97Z" fill="#1C252E"/>
<path d="M0.25 7.96997C0.25 3.68576 3.71579 0.219971 8 0.219971C8.2702 0.219971 8.51921 0.365699 8.65234 0.60083C8.78533 0.835835 8.78237 1.12412 8.64355 1.35571L7.59277 3.10571C7.37973 3.46071 6.91956 3.57627 6.56445 3.36353C6.20933 3.15045 6.09369 2.68939 6.30664 2.33423L6.57617 1.88403C3.80828 2.52734 1.75 5.00425 1.75 7.96997C1.75 8.38418 1.41421 8.71997 1 8.71997C0.585786 8.71997 0.25 8.38418 0.25 7.96997Z" fill="#1C252E"/>
<path d="M9.81055 14.1999C9.81046 14.0227 9.61436 13.82 9.42969 13.82H7.37012V14.5798H9.42969C9.64115 14.5798 9.81055 14.41 9.81055 14.1999ZM11.3105 14.1999C11.3105 15.2298 10.4782 16.0798 9.42969 16.0798H6.62012C6.2059 16.0798 5.87012 15.744 5.87012 15.3298V13.07C5.87012 12.6558 6.2059 12.32 6.62012 12.32H9.42969C10.4849 12.32 11.3105 13.2371 11.3105 14.1999Z" fill="#1C252E"/>
<path d="M10.3799 16.4599C10.3798 16.3867 10.3486 16.3029 10.2588 16.2245C10.1664 16.144 10.0202 16.08 9.83984 16.08H7.37012V16.8398H9.83984C10.0162 16.8398 10.1624 16.7761 10.2568 16.6933C10.3503 16.6113 10.3799 16.526 10.3799 16.4599ZM11.8799 16.4599C11.8799 17.5836 10.8686 18.3398 9.83984 18.3398H6.62012C6.2059 18.3398 5.87012 18.004 5.87012 17.5898V15.33C5.87012 14.9158 6.2059 14.58 6.62012 14.58H9.83984C10.864 14.58 11.8798 15.3223 11.8799 16.4599Z" fill="#1C252E"/>
<path d="M7.67017 18.7001V17.58C7.67017 17.1658 8.00595 16.83 8.42017 16.83C8.83438 16.83 9.17017 17.1658 9.17017 17.58V18.7001C9.1701 19.1143 8.83434 19.4501 8.42017 19.4501C8.00599 19.4501 7.67023 19.1143 7.67017 18.7001Z" fill="#1C252E"/>
<path d="M7.67017 13.0701V11.95C7.67017 11.5358 8.00595 11.2 8.42017 11.2C8.83438 11.2 9.17017 11.5358 9.17017 11.95V13.0701C9.1701 13.4843 8.83434 13.8201 8.42017 13.8201C8.00599 13.8201 7.67023 13.4843 7.67017 13.0701Z" fill="#1C252E"/>
<path d="M14.095 15.1121C14.093 15.0501 14.0908 14.9786 14.0901 14.9051C13.8829 12.2521 11.7633 10.1321 9.10962 9.92755C8.93381 9.91719 8.81106 9.90997 8.67993 9.90997C5.68423 9.91002 3.26008 12.3342 3.26001 15.3299C3.26001 18.3257 5.68418 20.7498 8.67993 20.7498C11.6757 20.7498 14.0999 18.3257 14.0999 15.3299C14.0999 15.2587 14.0975 15.1901 14.095 15.1121ZM15.5999 15.3299C15.5999 19.1541 12.5041 22.2498 8.67993 22.2498C4.85576 22.2498 1.76001 19.1541 1.76001 15.3299C1.76008 11.5058 4.85579 8.41002 8.67993 8.40997C8.77372 8.40997 8.86476 8.41265 8.95239 8.41681L9.20435 8.43146L9.21704 8.43243C12.6163 8.69061 15.3301 11.4042 15.5881 14.8035C15.5896 14.8223 15.5901 14.8413 15.5901 14.8602C15.5901 14.9207 15.5924 14.9829 15.595 15.0633C15.5974 15.1401 15.5999 15.2313 15.5999 15.3299Z" fill="#1C252E"/>
<path d="M20.7498 8.66992C20.7497 5.67417 18.3256 3.25 15.3298 3.25C12.3903 3.25004 10.0025 5.58412 9.91382 8.50195C12.7516 9.01033 14.989 11.2473 15.4978 14.085C18.4157 13.9964 20.7498 11.6095 20.7498 8.66992ZM22.2498 8.66992C22.2498 12.4941 19.1541 15.5898 15.3298 15.5898H14.8396C14.4475 15.5897 14.1222 15.2874 14.0925 14.8965C13.8905 12.2361 11.7637 10.1102 9.10327 9.9082C8.71226 9.87852 8.41001 9.55227 8.40991 9.16016V8.66992C8.40995 4.84576 11.5057 1.75004 15.3298 1.75C19.154 1.75 22.2497 4.84573 22.2498 8.66992Z" fill="#1C252E"/>
</svg>
