<svg width="24" height="24" viewBox="0 0 24 24" fill="none" xmlns="http://www.w3.org/2000/svg">
<path d="M11.9875 2.05005C12.648 2.05005 13.2493 2.37024 13.674 2.91821H13.675L17.2746 7.21899L17.3273 7.28931C17.3432 7.31357 17.3583 7.33852 17.3713 7.3645C17.3878 7.39744 17.4097 7.43843 17.4455 7.50317C17.4778 7.56155 17.5198 7.63701 17.5588 7.71509C17.6125 7.82245 17.7203 8.04578 17.7443 8.30103L19.4357 16.8547L19.4396 16.8772C19.5856 17.7537 19.173 18.7712 18.3859 19.2434C18.3805 19.2467 18.3748 19.2501 18.3693 19.2532L13.0695 22.2532C13.0584 22.2595 13.0468 22.265 13.0353 22.2708C12.6984 22.4392 12.2982 22.5002 11.9504 22.5002C11.6025 22.5002 11.2016 22.4393 10.8645 22.2708C10.853 22.265 10.8414 22.2595 10.8303 22.2532L5.53047 19.2532C5.52495 19.2501 5.5193 19.2467 5.51387 19.2434C4.72692 18.7712 4.31427 17.7537 4.46015 16.8772L4.46406 16.8547L6.16426 8.25415L6.19062 8.15747C6.20147 8.12576 6.21466 8.09474 6.22969 8.0647C6.2628 7.99844 6.30027 7.90532 6.35371 7.77173C6.4002 7.65551 6.46264 7.49821 6.52949 7.3645L6.57246 7.28931C6.58851 7.26479 6.60635 7.24151 6.62519 7.21899L10.2248 2.91821C10.2282 2.91415 10.2321 2.91048 10.2355 2.90649C10.702 2.37338 11.3222 2.05006 11.9875 2.05005ZM11.9875 3.55005C11.8278 3.55006 11.5979 3.62699 11.3645 3.8938L7.84394 8.0979C7.81752 8.15729 7.78494 8.23173 7.74629 8.32837C7.71182 8.41454 7.66657 8.52232 7.61933 8.6272L5.93867 17.1272C5.88714 17.4484 6.07245 17.8266 6.2834 17.9553L11.5393 20.9299C11.604 20.9611 11.7518 21.0002 11.9504 21.0002C12.1478 21.0002 12.2943 20.961 12.3596 20.9299L17.6154 17.9553C17.8268 17.8271 18.0119 17.4489 17.9602 17.1272L16.2639 8.54517C16.2593 8.52202 16.2594 8.4983 16.257 8.47485C16.2515 8.45931 16.2396 8.43031 16.217 8.38501C16.1937 8.33835 16.1662 8.28882 16.133 8.22876C16.1163 8.19848 16.0966 8.16184 16.0764 8.12427L12.5246 3.8811C12.5161 3.87097 12.5081 3.86042 12.5002 3.84985C12.3262 3.61782 12.1389 3.55005 11.9875 3.55005ZM16.2502 8.39966C16.2502 8.4351 16.2542 8.46105 16.257 8.47388C16.2546 8.44925 16.2502 8.42444 16.2502 8.39966Z" fill="#1C252E"/>
<path d="M16.0926 8.25099C16.2303 7.86033 16.659 7.65529 17.0496 7.79298C17.4399 7.93077 17.645 8.35859 17.5076 8.74903L13.2078 20.9492C13.1975 20.9786 13.1846 21.0073 13.1707 21.0352C12.93 21.5167 12.4521 21.75 12.0125 21.75C11.585 21.75 11.0704 21.5126 10.8943 20.9541L6.49492 8.75489C6.35446 8.36542 6.55582 7.93566 6.94512 7.79493C7.33459 7.65447 7.76435 7.85582 7.90508 8.24513L12.0467 19.7285L16.0926 8.25099Z" fill="#1C252E"/>
</svg>
