<svg width="24" height="24" viewBox="0 0 24 24" fill="none" xmlns="http://www.w3.org/2000/svg">
<path d="M21.25 12C21.25 6.89137 17.1086 2.75 12 2.75C6.89137 2.75 2.75 6.89137 2.75 12C2.75 17.1086 6.89137 21.25 12 21.25C17.1086 21.25 21.25 17.1086 21.25 12ZM22.75 12C22.75 17.9371 17.9371 22.75 12 22.75C6.06294 22.75 1.25 17.9371 1.25 12C1.25 6.06294 6.06294 1.25 12 1.25C17.9371 1.25 22.75 6.06294 22.75 12Z" fill="#1C252E"/>
<path d="M16.25 12C16.25 9.61421 14.3858 7.75 12 7.75H8.75V16.25H12C14.3858 16.25 16.25 14.3858 16.25 12ZM17.75 12C17.75 15.2142 15.2142 17.75 12 17.75H8C7.58579 17.75 7.25 17.4142 7.25 17V7C7.25 6.58579 7.58579 6.25 8 6.25H12C15.2142 6.25 17.75 8.78579 17.75 12Z" fill="#1C252E"/>
<path d="M18.5 9.25C18.9142 9.25 19.25 9.58579 19.25 10C19.25 10.4142 18.9142 10.75 18.5 10.75H6.5C6.08579 10.75 5.75 10.4142 5.75 10C5.75 9.58579 6.08579 9.25 6.5 9.25H18.5Z" fill="#1C252E"/>
<path d="M18.5 13.25C18.9142 13.25 19.25 13.5858 19.25 14C19.25 14.4142 18.9142 14.75 18.5 14.75H6.5C6.08579 14.75 5.75 14.4142 5.75 14C5.75 13.5858 6.08579 13.25 6.5 13.25H18.5Z" fill="#1C252E"/>
</svg>
