<svg width="24" height="24" viewBox="0 0 24 24" fill="none" xmlns="http://www.w3.org/2000/svg">
<path d="M16.3698 6.46967C16.6627 6.17678 17.1375 6.17678 17.4304 6.46967C20.4233 9.46256 20.4233 14.4377 17.4304 17.4306C17.1375 17.7232 16.6627 17.7232 16.3698 17.4306C16.077 17.1378 16.0771 16.663 16.3698 16.3701C18.7769 13.963 18.7769 9.93732 16.3698 7.53022C16.0769 7.23732 16.0769 6.76256 16.3698 6.46967Z" fill="#1C252E"/>
<path d="M6.57011 6.56967C6.86302 6.27697 7.33783 6.27684 7.63066 6.56967C7.92329 6.86251 7.92329 7.33737 7.63066 7.63022C5.22355 10.0373 5.22355 14.063 7.63066 16.4701C7.92316 16.763 7.92342 17.2378 7.63066 17.5306C7.33789 17.8234 6.86303 17.8231 6.57011 17.5306C3.57722 14.5377 3.57722 9.56256 6.57011 6.56967Z" fill="#1C252E"/>
<path d="M8.94995 13.5999C8.95006 13.1857 9.2858 12.8499 9.69995 12.8499C10.1141 12.8499 10.4498 13.1857 10.45 13.5999C10.45 14.0855 10.814 14.4502 11.2996 14.4504H12.9998C13.3204 14.4504 13.6501 14.1518 13.6501 13.8C13.6501 13.4621 13.5763 13.3384 13.5417 13.2932C13.5014 13.2405 13.4273 13.1798 13.2361 13.1018L10.5076 12.1272C10.1108 12.0603 9.68467 11.9159 9.37085 11.554C9.03558 11.1671 8.95 10.6747 8.94995 10.2004C8.94995 8.98623 9.88613 8.05005 11.1003 8.05005H12.9001C14.2141 8.05015 15.2496 9.08569 15.2498 10.3997C15.2498 10.8139 14.914 11.1497 14.4998 11.1497C14.0856 11.1496 13.7498 10.8138 13.7498 10.3997C13.7496 9.91413 13.3857 9.55015 12.9001 9.55005H11.1003C10.7146 9.55005 10.45 9.81465 10.45 10.2004C10.45 10.4793 10.4976 10.5613 10.5046 10.5715C10.5133 10.5786 10.5476 10.6014 10.6394 10.6252L10.8064 10.6575L10.8796 10.6721C10.904 10.6781 10.9282 10.6851 10.9519 10.6936L13.7527 11.6936L13.7781 11.7034C14.0761 11.8226 14.4495 12.0111 14.7332 12.3821C15.0236 12.7619 15.1501 13.2382 15.1501 13.8C15.1501 15.0483 14.0791 15.9504 12.9998 15.9504H11.2996C9.98553 15.9502 8.94995 14.9139 8.94995 13.5999Z" fill="#1C252E"/>
<path d="M11.25 16.2004V7.80005C11.25 7.38584 11.5858 7.05005 12 7.05005C12.4142 7.05005 12.75 7.38584 12.75 7.80005V16.2004C12.7498 16.6145 12.4141 16.9504 12 16.9504C11.5859 16.9504 11.2502 16.6145 11.25 16.2004Z" fill="#1C252E"/>
<path d="M21.25 12C21.25 6.89137 17.1086 2.75 12 2.75C6.89137 2.75 2.75 6.89137 2.75 12C2.75 17.1086 6.89137 21.25 12 21.25C17.1086 21.25 21.25 17.1086 21.25 12ZM22.75 12C22.75 17.9371 17.9371 22.75 12 22.75C6.06294 22.75 1.25 17.9371 1.25 12C1.25 6.06294 6.06294 1.25 12 1.25C17.9371 1.25 22.75 6.06294 22.75 12Z" fill="#1C252E"/>
</svg>
