<svg width="24" height="24" viewBox="0 0 24 24" fill="none" xmlns="http://www.w3.org/2000/svg">
<path d="M21.25 3C21.25 2.87044 21.2098 2.82108 21.1943 2.80566C21.1789 2.79025 21.1296 2.75 21 2.75H9C8.87044 2.75 8.82108 2.79025 8.80566 2.80566C8.79025 2.82108 8.75 2.87044 8.75 3V6C8.75 6.12956 8.79025 6.17892 8.80566 6.19434C8.82108 6.20975 8.87044 6.25 9 6.25H21C21.1296 6.25 21.1789 6.20975 21.1943 6.19434C21.2098 6.17892 21.25 6.12956 21.25 6V3ZM22.75 6C22.75 6.47044 22.5895 6.9203 22.2549 7.25488C21.9203 7.58947 21.4704 7.75 21 7.75H9C8.52956 7.75 8.0797 7.58947 7.74512 7.25488C7.41053 6.9203 7.25 6.47044 7.25 6V3C7.25 2.52956 7.41053 2.0797 7.74512 1.74512C8.0797 1.41053 8.52956 1.25 9 1.25H21C21.4704 1.25 21.9203 1.41053 22.2549 1.74512C22.5895 2.0797 22.75 2.52956 22.75 3V6Z" fill="#1C252E"/>
<path d="M12 16.25C12.4142 16.25 12.75 16.5858 12.75 17V22C12.75 22.4142 12.4142 22.75 12 22.75H7C6.58579 22.75 6.25 22.4142 6.25 22V17C6.25 16.5858 6.58579 16.25 7 16.25H12ZM7.75 21.25H11.25V17.75H7.75V21.25Z" fill="#1C252E"/>
<path d="M7 8.75C7.41421 8.75 7.75 9.08579 7.75 9.5V14.5C7.75 14.9142 7.41421 15.25 7 15.25H2C1.58579 15.25 1.25 14.9142 1.25 14.5V9.5C1.25 9.08579 1.58579 8.75 2 8.75H7ZM2.75 13.75H6.25V10.25H2.75V13.75Z" fill="#1C252E"/>
<path d="M18 8.84998C18.4142 8.84998 18.75 9.18576 18.75 9.59998V14.3002C18.7499 14.7143 18.4141 15.0502 18 15.0502H9.5C9.08585 15.0502 8.75011 14.7143 8.75 14.3002V9.59998C8.75 9.18576 9.08579 8.84998 9.5 8.84998H18ZM10.25 13.5502H17.25V10.35H10.25V13.5502Z" fill="#1C252E"/>
</svg>
