<svg width="24" height="24" viewBox="0 0 24 24" fill="none" xmlns="http://www.w3.org/2000/svg">
<path d="M11.0761 5.58352C11.5654 4.85008 12.5928 4.84031 13.0986 5.55129L13.0995 5.55032L14.5995 7.55032L14.624 7.58352C15.1382 8.35483 15.3324 9.47921 14.7353 10.395L14.7363 10.396L11.4423 15.6851C11.0307 16.3711 10.2066 16.9497 9.29974 16.9497H6.4804C6.27435 16.985 6.06246 16.9584 5.87005 16.8648C5.63991 16.7527 5.48364 16.5695 5.39153 16.3853C5.21582 16.0338 5.22634 15.5912 5.45403 15.2222H5.45208L11.0517 5.6216L11.0761 5.58352ZM7.05657 15.4497H9.29974C9.5929 15.4497 9.96878 15.2276 10.1572 14.9136L10.163 14.9038L13.4628 9.60305C13.4669 9.59649 13.4712 9.58995 13.4755 9.58352C13.6616 9.30425 13.6578 8.8438 13.3798 8.42239L12.1279 6.75344L7.05657 15.4497Z" fill="#1C252E"/>
<path d="M14.5759 11.9834C15.0417 11.2851 15.9971 11.2416 16.5241 11.8525L16.6237 11.9834L16.6452 12.0166L18.5446 15.2168H18.5427C19.0484 16.0246 18.469 17.0498 17.4997 17.0498H13.6999C12.7306 17.0498 12.1513 16.0246 12.6569 15.2168H12.655L14.5554 12.0166L14.5759 11.9834ZM14.2019 15.5498H16.9978L15.5993 13.1943L14.2019 15.5498Z" fill="#1C252E"/>
<path d="M21.25 12C21.25 6.89137 17.1086 2.75 12 2.75C6.89137 2.75 2.75 6.89137 2.75 12C2.75 17.1086 6.89137 21.25 12 21.25C17.1086 21.25 21.25 17.1086 21.25 12ZM22.75 12C22.75 17.9371 17.9371 22.75 12 22.75C6.06294 22.75 1.25 17.9371 1.25 12C1.25 6.06294 6.06294 1.25 12 1.25C17.9371 1.25 22.75 6.06294 22.75 12Z" fill="#1C252E"/>
</svg>
