<svg width="24" height="24" viewBox="0 0 24 24" fill="none" xmlns="http://www.w3.org/2000/svg">
<path d="M21.25 5.7002C21.25 4.12738 19.8989 2.75011 18.2002 2.75H17.7002C16.1144 2.75 14.75 4.11441 14.75 5.7002V10.9307C16.7226 10.5843 18.2405 9.91774 19.3066 9.26172L19.3145 9.25684C20.5649 8.50646 21.2499 7.16514 21.25 5.7002ZM22.75 5.7002C22.7499 7.63258 21.8368 9.48779 20.0918 10.5381L20.0928 10.5391C18.7056 11.3926 16.7029 12.2313 14.0898 12.5449L13.25 12.6455V5.7002C13.25 3.28598 15.286 1.25 17.7002 1.25H18.2002C20.7013 1.2501 22.75 3.27313 22.75 5.7002Z" fill="#1C252E"/>
<path d="M21.2505 9.76953C21.0386 9.94042 20.803 10.1224 20.5386 10.3047C19.2716 11.178 17.3967 12.1164 14.8501 12.5449V18.2998C14.8501 19.8989 16.1277 21.25 17.8003 21.25H18.3003C19.8993 21.2499 21.2505 19.9724 21.2505 18.2998V9.76953ZM22.7505 18.2998C22.7505 20.8271 20.7011 22.7499 18.3003 22.75H17.8003C15.2729 22.75 13.3501 20.7007 13.3501 18.2998V11.2393L14.0054 11.1562C16.622 10.8232 18.4854 9.89861 19.687 9.07031C20.289 8.65535 20.7266 8.26315 21.0093 7.98047C21.1504 7.83932 21.2531 7.72582 21.3179 7.65039C21.3501 7.61294 21.3725 7.58455 21.3862 7.56738C21.393 7.55898 21.3976 7.55276 21.3999 7.5498L21.4019 7.54785L22.7505 5.75V18.2998Z" fill="#1C252E"/>
<path d="M9.25 13.0681C7.27712 13.4145 5.75956 14.0829 4.69336 14.739L4.68555 14.7429C3.43513 15.4933 2.75012 16.8347 2.75 18.2996C2.75 19.8853 4.11441 21.2498 5.7002 21.2498H6.2998C7.89887 21.2498 9.25 19.9722 9.25 18.2996V13.0681ZM10.75 18.2996C10.75 20.8269 8.70074 22.7498 6.2998 22.7498H5.7002C3.28598 22.7498 1.25 20.7138 1.25 18.2996C1.25012 16.3648 2.16483 14.5063 3.91406 13.4568C5.30097 12.6047 7.30131 11.768 9.91016 11.4548L10.75 11.3542V18.2996Z" fill="#1C252E"/>
<path d="M9.25 5.7002C9.25 4.12738 7.89892 2.75011 6.2002 2.75H5.7002C4.11441 2.75 2.75 4.11441 2.75 5.7002V14.2344C2.96568 14.0614 3.20705 13.878 3.47754 13.6934C4.75859 12.8188 6.65755 11.8784 9.25 11.4512V5.7002ZM10.75 12.7617L10.0928 12.8438C7.42459 13.1773 5.5363 14.1036 4.32324 14.9316C3.71545 15.3466 3.27493 15.7382 2.99121 16.0205C2.84956 16.1615 2.74745 16.2753 2.68262 16.3506C2.65021 16.3882 2.62694 16.4166 2.61328 16.4336L2.59961 16.4502V16.4512L2.59863 16.4521L1.25 18.25V5.7002C1.25 3.28598 3.28598 1.25 5.7002 1.25H6.2002C8.70129 1.25011 10.75 3.27313 10.75 5.7002V12.7617Z" fill="#1C252E"/>
<path d="M14.123 12.6401C13.4497 12.7523 12.6829 12.7495 12 12.7495C11.283 12.7495 10.6496 12.7516 10.123 12.8394L9.87695 11.3599C10.5503 11.2477 11.3171 11.2495 12 11.2495C12.717 11.2495 13.3504 11.2474 13.877 11.1597L14.123 12.6401Z" fill="#1C252E"/>
</svg>
