<svg width="24" height="24" viewBox="0 0 24 24" fill="none" xmlns="http://www.w3.org/2000/svg">
<path d="M7.70508 9.31032C7.92145 9.21773 8.17122 9.23174 8.37793 9.35232L9.57812 10.0515L9.59277 10.0613L10.8936 10.8611C11.1151 10.9976 11.25 11.2395 11.25 11.4998V14.2996C11.25 14.563 11.1116 14.8076 10.8857 14.9431L8.38574 16.4431C8.14833 16.5855 7.85167 16.5855 7.61426 16.4431L5.11426 14.9431C4.88835 14.8076 4.75 14.563 4.75 14.2996V11.4998C4.75 11.2363 4.88835 10.9918 5.11426 10.8562L7.61426 9.35622L7.70508 9.31032ZM6.25 11.9246V13.8748L8 14.9256L9.75 13.8748V11.9187L8.80664 11.3386V11.3377L8.00586 10.8709L6.25 11.9246Z" fill="#1C252E"/>
<path d="M15.6221 9.35248C15.8584 9.21464 16.1511 9.21576 16.3857 9.35639L18.8857 10.8564C19.1116 10.9919 19.25 11.2365 19.25 11.4999V14.2997C19.25 14.5632 19.1116 14.8078 18.8857 14.9433L16.3857 16.4433C16.1483 16.5856 15.8517 16.5856 15.6143 16.4433L13.1143 14.9433C12.8884 14.8078 12.75 14.5632 12.75 14.2997V11.4999C12.75 11.2396 12.8849 10.9978 13.1064 10.8613L14.4072 10.0615L14.4219 10.0517L15.6221 9.35248ZM15.1924 11.3378L14.25 11.9189V13.8749L16 14.9257L17.75 13.8749V11.9247L15.9932 10.871L15.1924 11.3378Z" fill="#1C252E"/>
<path d="M11.7302 7.09981C11.9324 7.0219 12.1606 7.03511 12.3542 7.13887L15.1541 8.63887C15.3978 8.76944 15.5496 9.02352 15.5496 9.30001V10.7004C15.5494 10.9607 15.4148 11.2026 15.1931 11.3391L14.2498 11.9191V13.2004C14.2496 13.4637 14.1113 13.7075 13.8855 13.843L12.3855 14.7434C12.1481 14.8857 11.8514 14.8858 11.614 14.7434L10.114 13.843C9.88829 13.7075 9.74989 13.4637 9.74976 13.2004V11.9182L8.8064 11.3391C8.58482 11.2026 8.45009 10.9606 8.44995 10.7004V9.30001C8.44995 9.02361 8.60188 8.76948 8.84546 8.63887L11.6462 7.13887L11.7302 7.09981ZM9.94995 9.74923V10.2805L10.8933 10.8615C11.1149 10.9981 11.2498 11.2399 11.2498 11.5002V12.7746L11.9998 13.2248L12.7498 12.7746V11.5002C12.7498 11.2398 12.8854 10.998 13.1072 10.8615L14.0496 10.2815V9.74825L11.9998 8.65059L9.94995 9.74923Z" fill="#1C252E"/>
<path d="M21.25 12C21.25 6.89137 17.1086 2.75 12 2.75C6.89137 2.75 2.75 6.89137 2.75 12C2.75 17.1086 6.89137 21.25 12 21.25C17.1086 21.25 21.25 17.1086 21.25 12ZM22.75 12C22.75 17.9371 17.9371 22.75 12 22.75C6.06294 22.75 1.25 17.9371 1.25 12C1.25 6.06294 6.06294 1.25 12 1.25C17.9371 1.25 22.75 6.06294 22.75 12Z" fill="#1C252E"/>
</svg>
