<svg width="24" height="24" viewBox="0 0 24 24" fill="none" xmlns="http://www.w3.org/2000/svg">
<path d="M15.9777 9.28423C16.2399 9.20277 16.5258 9.27068 16.7228 9.46196C18.5282 11.2151 19.4477 12.906 19.7306 14.5001C20.0143 16.0988 19.642 17.5121 19.0255 18.6758C17.823 20.9458 15.5899 22.4014 15.38 22.5762C15.2454 22.6884 15.0758 22.7499 14.9005 22.7501H14.7999C14.6297 22.75 14.4641 22.6924 14.3312 22.586C14.1322 22.4268 12.8213 21.5321 11.9855 20.167C11.5585 19.4697 11.2298 18.6139 11.2374 17.6348C11.2451 16.6472 11.5943 15.6053 12.4035 14.545C13.8896 12.5632 14.6688 11.3422 15.0724 10.6299C15.2739 10.2744 15.3791 10.0517 15.4308 9.92876L15.4718 9.82036C15.4711 9.82308 15.4701 9.82767 15.4689 9.83306C15.4683 9.83567 15.4676 9.83864 15.4669 9.84185C15.4666 9.8434 15.4663 9.84504 15.466 9.84673L15.465 9.84966V9.85161C15.5192 9.58296 15.7159 9.3656 15.9777 9.28423ZM16.3771 11.3702C15.931 12.1574 15.1109 13.4354 13.5997 15.4502L13.5958 15.4551C12.9552 16.2946 12.7422 17.028 12.7374 17.6465C12.7326 18.2737 12.9417 18.8562 13.2648 19.3838C13.7381 20.1568 14.4025 20.736 14.8536 21.0928C15.5745 20.5487 16.8972 19.4879 17.6993 17.9737C18.1952 17.0376 18.467 15.9637 18.254 14.7627C18.075 13.754 17.5421 12.5947 16.4103 11.3077C16.399 11.3277 16.3888 11.3495 16.3771 11.3702Z" fill="#1C252E"/>
<path d="M13.0501 7.79994C13.0501 5.92806 12.3984 4.19403 11.6868 3.06751C11.1591 4.78683 9.88887 7.82673 7.19659 11.3546L7.19366 11.3576C5.51428 13.5362 5.46559 15.7526 6.19464 17.5421C6.80398 19.0377 7.95363 20.2267 9.17511 20.8478C8.79832 20.1199 8.37331 19.113 8.25323 17.8722C8.25276 17.8673 8.25263 17.8624 8.25226 17.8576C8.07704 15.5797 9.4826 13.658 10.6927 12.0812C11.328 11.2534 11.9207 10.5127 12.3665 9.77552C12.8096 9.04273 13.0501 8.4014 13.0501 7.79994ZM14.5501 7.79994C14.5501 8.79827 14.1532 9.71929 13.6497 10.5519C13.1487 11.3803 12.4843 12.2096 11.8821 12.9943C10.6174 14.6423 9.62362 16.1204 9.74835 17.7423C9.88407 19.1084 10.4768 20.1291 10.8763 20.8283C10.9713 20.9946 11.074 21.1749 11.1448 21.3322C11.1808 21.412 11.2225 21.5148 11.2484 21.6281C11.2724 21.7333 11.3002 21.9212 11.2337 22.132C11.155 22.3811 10.9772 22.5594 10.7708 22.6544C10.5964 22.7346 10.4269 22.745 10.3187 22.7443C10.1017 22.7428 9.85295 22.6891 9.60968 22.6251C9.60461 22.6238 9.59909 22.6227 9.59405 22.6212C7.60165 22.052 5.70933 20.3249 4.80597 18.1076C3.88538 15.8478 3.98548 13.065 6.00421 10.4445L6.51691 9.75501C8.81987 6.57076 9.87807 3.9049 10.2952 2.49037L10.3753 2.20716C10.5032 1.71331 10.8896 1.39564 11.3177 1.30384C11.6865 1.22481 12.0849 1.31013 12.4007 1.55482L12.5306 1.67005L12.5999 1.75013C13.5872 3.06658 14.5501 5.32172 14.5501 7.79994Z" fill="#1C252E"/>
</svg>
