<svg width="24" height="24" viewBox="0 0 24 24" fill="none" xmlns="http://www.w3.org/2000/svg">
<path d="M21.25 12C21.25 6.89137 17.1086 2.75 12 2.75C6.89137 2.75 2.75 6.89137 2.75 12C2.75 17.1086 6.89137 21.25 12 21.25C17.1086 21.25 21.25 17.1086 21.25 12ZM22.75 12C22.75 17.9371 17.9371 22.75 12 22.75C6.06294 22.75 1.25 17.9371 1.25 12C1.25 6.06294 6.06294 1.25 12 1.25C17.9371 1.25 22.75 6.06294 22.75 12Z" fill="#1C252E"/>
<path d="M11.9997 5.1499C12.2594 5.1499 12.5007 5.28453 12.6374 5.50537L15.238 9.70557C15.381 9.93683 15.3879 10.2278 15.2556 10.4653C15.1232 10.7028 14.8722 10.85 14.6003 10.8501H9.40009C9.12815 10.8501 8.87727 10.7028 8.74482 10.4653C8.61248 10.2278 8.61938 9.93685 8.7624 9.70557L11.362 5.50537C11.4987 5.28464 11.7401 5.15004 11.9997 5.1499ZM10.7458 9.3501H13.2536L11.9997 7.32373L10.7458 9.3501Z" fill="#1C252E"/>
<path d="M8.60639 11.1499C8.86834 11.1522 9.11002 11.2911 9.24409 11.5161L11.7441 15.7163C11.882 15.948 11.8851 16.2358 11.7519 16.4702C11.6186 16.7047 11.3693 16.8501 11.0996 16.8501H5.99995C5.728 16.8501 5.47712 16.7029 5.34467 16.4654C5.21233 16.2278 5.21923 15.9369 5.36225 15.7056L7.96186 11.5054C8.09979 11.2826 8.34437 11.1477 8.60639 11.1499ZM7.34565 15.3501H9.78022L8.58686 13.3452L7.34565 15.3501Z" fill="#1C252E"/>
<path d="M15.3931 11.1499C15.6552 11.1477 15.8997 11.2826 16.0377 11.5054L18.6373 15.7056C18.7804 15.9369 18.7872 16.2277 18.6549 16.4654C18.5224 16.7028 18.2715 16.8501 17.9996 16.8501H12.9C12.6302 16.8501 12.3809 16.7047 12.2476 16.4702C12.1146 16.2358 12.1176 15.948 12.2554 15.7163L14.7554 11.5161L14.8111 11.4361C14.9507 11.2588 15.164 11.152 15.3931 11.1499ZM14.2193 15.3501H16.6539L15.4117 13.3452L14.2193 15.3501Z" fill="#1C252E"/>
</svg>
