<svg width="24" height="24" viewBox="0 0 24 24" fill="none" xmlns="http://www.w3.org/2000/svg">
<path d="M16.3496 7.90039C16.3496 7.24015 15.8118 6.7501 15.2002 6.75H8.90039C8.2146 6.75 7.75 7.2146 7.75 7.90039V16.0996C7.75 16.7599 8.28866 17.25 8.90039 17.25H15.0996C15.7872 17.25 16.2751 16.7731 16.3496 16.1523V7.90039ZM17.8496 16.2002C17.8496 16.225 17.8491 16.2498 17.8467 16.2744C17.7101 17.6405 16.6021 18.75 15.0996 18.75H8.90039C7.51212 18.75 6.25 17.6393 6.25 16.0996V7.90039C6.25 6.38618 7.38618 5.25 8.90039 5.25H15.2002C16.5884 5.2501 17.8496 6.36077 17.8496 7.90039V16.2002Z" fill="#1C252E"/>
<path d="M11.25 10.5V8.5C11.25 8.08579 11.5858 7.75 12 7.75C12.4142 7.75 12.75 8.08579 12.75 8.5V10.5C12.75 10.9142 12.4142 11.25 12 11.25C11.5858 11.25 11.25 10.9142 11.25 10.5Z" fill="#1C252E"/>
<path d="M14 9.75C14.4142 9.75 14.75 10.0858 14.75 10.5C14.75 10.9142 14.4142 11.25 14 11.25H10C9.58579 11.25 9.25 10.9142 9.25 10.5C9.25 10.0858 9.58579 9.75 10 9.75H14Z" fill="#1C252E"/>
<path d="M11.25 15.5V13.5C11.25 13.0858 11.5858 12.75 12 12.75C12.4142 12.75 12.75 13.0858 12.75 13.5V15.5C12.75 15.9142 12.4142 16.25 12 16.25C11.5858 16.25 11.25 15.9142 11.25 15.5Z" fill="#1C252E"/>
<path d="M14 12.75C14.4142 12.75 14.75 13.0858 14.75 13.5C14.75 13.9142 14.4142 14.25 14 14.25H10C9.58579 14.25 9.25 13.9142 9.25 13.5C9.25 13.0858 9.58579 12.75 10 12.75H14Z" fill="#1C252E"/>
<path d="M21.25 9C21.25 6.57397 20.7603 5.0708 19.8447 4.15527C18.9292 3.23974 17.426 2.75 15 2.75H9C6.57397 2.75 5.0708 3.23974 4.15527 4.15527C3.23974 5.0708 2.75 6.57397 2.75 9V15C2.75 17.426 3.23974 18.9292 4.15527 19.8447C5.0708 20.7603 6.57397 21.25 9 21.25H15C17.426 21.25 18.9292 20.7603 19.8447 19.8447C20.7603 18.9292 21.25 17.426 21.25 15V9ZM22.75 15C22.75 17.574 22.2397 19.5708 20.9053 20.9053C19.5708 22.2397 17.574 22.75 15 22.75H9C6.42603 22.75 4.4292 22.2397 3.09473 20.9053C1.76026 19.5708 1.25 17.574 1.25 15V9C1.25 6.42603 1.76026 4.4292 3.09473 3.09473C4.4292 1.76026 6.42603 1.25 9 1.25H15C17.574 1.25 19.5708 1.76026 20.9053 3.09473C22.2397 4.4292 22.75 6.42603 22.75 9V15Z" fill="#1C252E"/>
</svg>
