<svg width="24" height="24" viewBox="0 0 24 24" fill="none" xmlns="http://www.w3.org/2000/svg">
<path d="M9.25781 6.89355C9.31659 6.48372 9.69653 6.19925 10.1064 6.25781C10.5163 6.31659 10.8007 6.69653 10.7422 7.10645L9.32812 17.0039C9.65211 16.8121 9.97848 16.6695 10.2812 16.5654C10.7407 16.4075 11.1618 16.3292 11.4678 16.29C11.6214 16.2704 11.7486 16.261 11.8398 16.2559C11.8854 16.2533 11.9222 16.2517 11.9492 16.251C11.9628 16.2506 11.9739 16.2501 11.9824 16.25H11.999C11.9993 16.25 11.9999 16.25 12 16.7002V16.25C15.6858 16.25 18.75 13.1858 18.75 9.5C18.75 5.81421 15.6858 2.75 12 2.75C8.31421 2.75 5.25 5.81421 5.25 9.5C5.25 10.6858 5.52331 11.7482 6.04297 12.6143C6.25606 12.9694 6.14131 13.4304 5.78613 13.6436C5.43095 13.8567 4.96995 13.7409 4.75684 13.3857C4.07654 12.2519 3.75 10.9141 3.75 9.5C3.75 4.98579 7.48579 1.25 12 1.25C16.5142 1.25 20.25 4.98579 20.25 9.5C20.25 14.0142 16.5142 17.749 12 17.749L12.001 17.75H11.9893C11.9763 17.7504 11.9545 17.7513 11.9248 17.7529C11.8646 17.7563 11.7722 17.7636 11.6572 17.7783C11.4258 17.8079 11.1089 17.8674 10.7686 17.9844C10.0878 18.2184 9.37595 18.6577 8.98926 19.4951C8.97891 19.5215 8.96971 19.5488 8.95996 19.5762L8.74219 21.1064C8.68636 21.4957 8.33955 21.7757 7.94727 21.748C7.55467 21.7201 7.25 21.3936 7.25 21C7.25 20.3582 7.32754 19.7647 7.49512 19.2305L9.25781 6.89355Z" fill="#1C252E"/>
<path d="M13 21C13 20.4477 13.4477 20 14 20C14.5523 20 15 20.4477 15 21C15 21.5523 14.5523 22 14 22C13.4477 22 13 21.5523 13 21Z" fill="#1C252E"/>
</svg>
