<svg width="24" height="24" viewBox="0 0 24 24" fill="none" xmlns="http://www.w3.org/2000/svg">
<path d="M11.5263 1.41796C11.8209 1.17765 12.2556 1.19512 12.5302 1.46972L18.5302 7.46972C18.8231 7.76261 18.8231 8.23737 18.5302 8.53027L16.5302 10.5303C16.2373 10.8232 15.7626 10.8232 15.4697 10.5303L11.9999 7.06054L8.53022 10.5303C8.23732 10.8232 7.76256 10.8232 7.46967 10.5303L5.46967 8.53027C5.17678 8.23737 5.17678 7.76261 5.46967 7.46972L11.4697 1.46972L11.5263 1.41796ZM7.06049 7.99999L7.99994 8.93945L11.4697 5.46972L11.5263 5.41796C11.8209 5.17765 12.2556 5.19512 12.5302 5.46972L15.9999 8.93945L16.9394 7.99999L11.9999 3.06054L7.06049 7.99999Z" fill="#1C252E"/>
<path d="M15.5263 13.418C15.8209 13.1777 16.2556 13.1951 16.5302 13.4697L18.5302 15.4697C18.8231 15.7626 18.8231 16.2374 18.5302 16.5303L12.5302 22.5303C12.2373 22.8232 11.7626 22.8232 11.4697 22.5303L5.46967 16.5303C5.17678 16.2374 5.17678 15.7626 5.46967 15.4697L7.46967 13.4697L7.52631 13.418C7.82089 13.1777 8.25561 13.1951 8.53022 13.4697L11.9999 16.9394L15.4697 13.4697L15.5263 13.418ZM12.5302 18.5303C12.2373 18.8232 11.7626 18.8232 11.4697 18.5303L7.99994 15.0605L7.06049 16L11.9999 20.9394L16.9394 16L15.9999 15.0605L12.5302 18.5303Z" fill="#1C252E"/>
<path d="M19.2551 9.17154C19.548 8.87879 20.0229 8.87869 20.3157 9.17154L22.5786 11.4344C22.8713 11.7273 22.8713 12.2022 22.5786 12.495L20.3157 14.7579C20.0229 15.0507 19.548 15.0507 19.2551 14.7579L16.9922 12.495C16.6993 12.2022 16.6993 11.7273 16.9922 11.4344L19.2551 9.17154ZM19.7854 13.1669L20.9876 11.9647L19.7854 10.7625L18.5832 11.9647L19.7854 13.1669Z" fill="#1C252E"/>
<path d="M3.7551 9.17142C4.048 8.87866 4.5229 8.87857 4.81575 9.17142L7.07861 11.4343C7.37131 11.7271 7.37131 12.2021 7.07861 12.4949L4.81575 14.7578C4.5229 15.0506 4.048 15.0505 3.7551 14.7578L1.49224 12.4949C1.19935 12.202 1.19935 11.7272 1.49224 11.4343L3.7551 9.17142ZM4.28542 13.1668L5.48763 11.9646L4.28542 10.7624L3.08321 11.9646L4.28542 13.1668Z" fill="#1C252E"/>
<path d="M11.3987 8.99483C11.6916 8.70193 12.1665 8.70193 12.4594 8.99483L14.9342 11.4697C15.2271 11.7626 15.2271 12.2374 14.9342 12.5303L12.4594 15.0052C12.1665 15.2981 11.6916 15.2981 11.3987 15.0052L8.92388 12.5303C8.63099 12.2374 8.63099 11.7626 8.92388 11.4697L11.3987 8.99483ZM11.9291 13.4142L13.3433 12L11.9291 10.5858L10.5149 12L11.9291 13.4142Z" fill="#1C252E"/>
</svg>
