<svg width="24" height="24" viewBox="0 0 24 24" fill="none" xmlns="http://www.w3.org/2000/svg">
<path d="M12.0001 6.25C12.2965 6.25 12.5653 6.42447 12.6857 6.69531L16.6857 15.6953C16.8539 16.0738 16.6833 16.5173 16.3048 16.6855C15.9263 16.8538 15.4828 16.6832 15.3146 16.3047L12.0001 8.84668L8.68566 16.3047C8.51743 16.6832 8.07394 16.8538 7.69543 16.6855C7.31691 16.5173 7.14634 16.0738 7.31457 15.6953L11.3146 6.69531L11.3663 6.59863C11.5024 6.38364 11.7407 6.25 12.0001 6.25Z" fill="#1C252E"/>
<path d="M12 11.25C12.4142 11.25 12.75 11.5858 12.75 12C12.75 12.4142 12.4142 12.75 12 12.75H8C7.58579 12.75 7.25 12.4142 7.25 12C7.25 11.5858 7.58579 11.25 8 11.25H12Z" fill="#1C252E"/>
<path d="M21.25 12C21.25 6.89137 17.1086 2.75 12 2.75C6.89137 2.75 2.75 6.89137 2.75 12C2.75 17.1086 6.89137 21.25 12 21.25C17.1086 21.25 21.25 17.1086 21.25 12ZM22.75 12C22.75 17.9371 17.9371 22.75 12 22.75C6.06294 22.75 1.25 17.9371 1.25 12C1.25 6.06294 6.06294 1.25 12 1.25C17.9371 1.25 22.75 6.06294 22.75 12Z" fill="#1C252E"/>
</svg>
