<svg width="24" height="24" viewBox="0 0 24 24" fill="none" xmlns="http://www.w3.org/2000/svg">
<path d="M11.25 8.50025V7.33228L7.5 5.16529L3.75 7.33228V11.6663L7.5 13.8342L11.625 11.4504C11.9836 11.2434 12.4422 11.3663 12.6494 11.7249C12.8566 12.0835 12.7336 12.5421 12.375 12.7493L7.875 15.3499C7.64301 15.4837 7.35699 15.4837 7.125 15.3499L2.625 12.7493C2.39307 12.6153 2.25 12.3677 2.25 12.0999V6.89966C2.25014 6.63195 2.39318 6.38419 2.625 6.25025L7.125 3.65064L7.21387 3.6067C7.42734 3.51857 7.67181 3.53331 7.875 3.65064L12.375 6.25025C12.6068 6.38419 12.7499 6.63195 12.75 6.89966V8.50025C12.7499 8.91437 12.4141 9.25025 12 9.25025C11.5859 9.25025 11.2501 8.91437 11.25 8.50025Z" fill="#1C252E"/>
<path d="M16.214 8.80665C16.4274 8.71852 16.6719 8.73326 16.8751 8.85059L21.3751 11.4502C21.6069 11.5841 21.7499 11.8319 21.7501 12.0996V17.2998C21.7501 17.5677 21.607 17.8152 21.3751 17.9492L16.8751 20.5498C16.6431 20.6837 16.3571 20.6837 16.1251 20.5498L11.6251 17.9492C11.3932 17.8152 11.2501 17.5677 11.2501 17.2998V15.5996C11.2503 15.1856 11.586 14.8496 12.0001 14.8496C12.4142 14.8496 12.7499 15.1856 12.7501 15.5996V16.8662L16.5001 19.0342L20.2501 16.8662V12.5322L16.5001 10.3652L12.3751 12.749C12.0165 12.9562 11.558 12.834 11.3507 12.4756C11.1434 12.1169 11.2664 11.6574 11.6251 11.4502L16.1251 8.85059L16.214 8.80665Z" fill="#1C252E"/>
</svg>
