<svg width="24" height="24" viewBox="0 0 24 24" fill="none" xmlns="http://www.w3.org/2000/svg">
<path d="M12.5496 7.19971C12.5494 6.914 12.2855 6.6499 11.9998 6.6499C11.7141 6.65002 11.4501 6.91406 11.45 7.19971V16.8003C11.4502 17.0859 11.7142 17.35 11.9998 17.3501C12.3662 17.3501 12.5496 17.1094 12.5496 16.8999V7.19971ZM14.0496 16.8999C14.0496 18.0904 13.0333 18.8501 11.9998 18.8501C10.8858 18.85 9.95017 17.9143 9.94995 16.8003V7.19971C9.95006 6.08564 10.8857 5.15001 11.9998 5.1499C13.1139 5.1499 14.0495 6.08558 14.0496 7.19971V16.8999Z" fill="#1C252E"/>
<path d="M6.0507 8.52761C6.55732 7.56709 7.70088 7.33668 8.61418 7.64186L8.79484 7.71022L8.83488 7.7278L8.87199 7.74831L17.2724 12.5491L17.2948 12.5618L17.3163 12.5755C18.2271 13.1828 18.5414 14.3929 18.0702 15.3352L18.0497 15.3772L18.0243 15.4163C17.417 16.3271 16.2069 16.6414 15.2646 16.1702L15.246 16.1614L15.2275 16.1507L6.82805 11.3508H6.82707C5.71618 10.8218 5.49255 9.54587 6.0302 8.56472H6.02922C6.03088 8.56139 6.0334 8.55826 6.03508 8.55495C6.03999 8.54609 6.04371 8.53642 6.04875 8.52761H6.0507ZM8.18059 9.08034C7.74188 8.90353 7.44062 9.09641 7.37102 9.23561L7.36125 9.25417L7.35149 9.27175C7.23879 9.46897 7.23111 9.64174 7.26164 9.75515C7.2897 9.85906 7.35735 9.9509 7.49504 10.01L7.53508 10.0276L7.57219 10.0491L15.9404 14.8313C16.1857 14.9506 16.5447 14.8764 16.7441 14.6214C16.8437 14.3679 16.7597 14.0148 16.4931 13.8303L8.18059 9.08034Z" fill="#1C252E"/>
<path d="M15.2279 7.84996C16.2755 7.18883 17.4844 7.77474 18.0238 8.58336C18.7287 9.64076 18.1357 10.8776 17.3158 11.4242L17.2943 11.4379L17.2719 11.4515L8.87244 16.2513L8.83533 16.2728L8.79529 16.2894C7.87182 16.6851 6.62905 16.5023 6.07557 15.516L5.95838 15.3158C5.44593 14.307 6.01522 13.1887 6.78358 12.6761L6.80604 12.6615L6.82752 12.6488L15.2279 7.84898V7.84996ZM16.3549 9.09215C16.2102 9.04764 16.1 9.06836 16.016 9.12437L15.9945 9.13805L15.9721 9.15074L7.60584 13.932C7.44972 14.0397 7.33861 14.1952 7.29237 14.3451C7.25901 14.4535 7.26213 14.5425 7.28944 14.6156L7.32459 14.6839L7.34998 14.723L7.37049 14.764C7.44012 14.9033 7.74202 15.0955 8.18104 14.9183L16.4926 10.1683C16.6496 10.0605 16.7617 9.90473 16.808 9.75426C16.8525 9.60971 16.8317 9.50036 16.7758 9.41637C16.6679 9.25456 16.5082 9.13944 16.3549 9.09215Z" fill="#1C252E"/>
<path d="M21.25 12C21.25 6.89137 17.1086 2.75 12 2.75C6.89137 2.75 2.75 6.89137 2.75 12C2.75 17.1086 6.89137 21.25 12 21.25C17.1086 21.25 21.25 17.1086 21.25 12ZM22.75 12C22.75 17.9371 17.9371 22.75 12 22.75C6.06294 22.75 1.25 17.9371 1.25 12C1.25 6.06294 6.06294 1.25 12 1.25C17.9371 1.25 22.75 6.06294 22.75 12Z" fill="#1C252E"/>
</svg>
