<svg width="24" height="24" viewBox="0 0 24 24" fill="none" xmlns="http://www.w3.org/2000/svg">
<path d="M19.75 8.0997C19.7499 7.65336 19.4845 7.23029 19.165 7.0704C19.1504 7.06309 19.1352 7.05521 19.1211 7.04696L12.6211 3.24716C12.6085 3.23978 12.5961 3.23182 12.584 3.22372C12.2359 2.99175 11.7641 2.99175 11.416 3.22372C11.4039 3.23182 11.3915 3.23978 11.3789 3.24716L4.9043 7.03134C4.4658 7.32781 4.25007 7.71343 4.25 8.0997V15.7999C4.25 16.1906 4.45373 16.5628 4.71875 16.7569L4.83496 16.8292L4.87891 16.8526L11.3789 20.6524L11.416 20.6759C11.7641 20.9079 12.2359 20.9079 12.584 20.6759L12.6211 20.6524L19.0947 16.8673C19.5334 16.5707 19.75 16.1863 19.75 15.7999V8.0997ZM21.25 15.7999C21.25 16.8102 20.6697 17.6216 19.916 18.1241C19.9038 18.1322 19.8915 18.1402 19.8789 18.1475L13.3789 21.9474L13.3779 21.9464C12.5427 22.4822 11.4562 22.4825 10.6211 21.9464V21.9474L4.12109 18.1475V18.1466C3.26712 17.6962 2.75 16.7373 2.75 15.7999V8.0997C2.75008 7.08948 3.33034 6.27791 4.08398 5.77548L4.12109 5.75204L10.6211 1.95223V1.95321C11.4561 1.41714 12.5427 1.41744 13.3779 1.95321L19.8789 5.75204H19.8779C20.7326 6.20213 21.2499 7.16189 21.25 8.0997V15.7999Z" fill="#1C252E"/>
<path d="M11.7061 5.31061C11.9251 5.21718 12.178 5.23199 12.3858 5.35651L17.3858 8.35651C17.7409 8.56956 17.8565 9.03066 17.6436 9.3858C17.4305 9.74089 16.9694 9.85649 16.6143 9.64362L12 6.87506L8.45803 9.00006L17.3858 14.3565C17.6117 14.492 17.75 14.7366 17.75 15.0001C17.75 15.2635 17.6117 15.5081 17.3858 15.6436L12.3858 18.6436C12.1484 18.7859 11.8517 18.7859 11.6143 18.6436L6.61428 15.6436C6.2592 15.4306 6.1436 14.9695 6.35647 14.6143C6.56953 14.2592 7.03062 14.1436 7.38577 14.3565L12 17.1251L15.541 15.0001L6.61428 9.64362C6.38838 9.50807 6.25003 9.26351 6.25003 9.00006C6.25003 8.73661 6.38838 8.49205 6.61428 8.35651L11.6143 5.35651L11.7061 5.31061Z" fill="#1C252E"/>
<path d="M10.9697 9.46967C11.2626 9.17678 11.7373 9.17678 12.0302 9.46967C12.3231 9.76256 12.3231 10.2373 12.0302 10.5302L10.0302 12.5302C9.73732 12.8231 9.26256 12.8231 8.96967 12.5302C8.67678 12.2373 8.67678 11.7626 8.96967 11.4697L10.9697 9.46967Z" fill="#1C252E"/>
<path d="M13.9697 11.4697C14.2626 11.1768 14.7373 11.1768 15.0302 11.4697C15.3231 11.7626 15.3231 12.2373 15.0302 12.5302L13.0302 14.5302C12.7373 14.8231 12.2626 14.8231 11.9697 14.5302C11.6768 14.2373 11.6768 13.7626 11.9697 13.4697L13.9697 11.4697Z" fill="#1C252E"/>
</svg>
