<svg width="24" height="24" viewBox="0 0 24 24" fill="none" xmlns="http://www.w3.org/2000/svg">
<path d="M16.7061 2.31061C16.9251 2.21718 17.178 2.23199 17.3857 2.35651L22.3857 5.35651C22.6116 5.49205 22.75 5.73661 22.75 6.00006V18.0001C22.75 18.2635 22.6116 18.5081 22.3857 18.6436L17.3857 21.6436C17.1484 21.7859 16.8516 21.7859 16.6143 21.6436L6.61426 15.6436C6.38835 15.5081 6.25 15.2635 6.25 15.0001V9.00006C6.25 8.72986 6.39573 8.48085 6.63086 8.34772C6.86586 8.21473 7.15415 8.21769 7.38574 8.35651L16.25 13.6749V9.42487L11.6143 6.64362C11.3884 6.50807 11.25 6.26351 11.25 6.00006C11.25 5.73661 11.3884 5.49205 11.6143 5.35651L16.6143 2.35651L16.7061 2.31061ZM13.458 6.00006L17.3857 8.35651C17.6116 8.49205 17.75 8.73661 17.75 9.00006V15.0001C17.75 15.2703 17.6043 15.5193 17.3691 15.6524C17.1341 15.7854 16.8459 15.7824 16.6143 15.6436L7.75 10.3243V14.5743L17 20.1251L21.25 17.5743V6.42487L17 3.87506L13.458 6.00006Z" fill="#1C252E"/>
<path d="M6.70605 2.31061C6.92508 2.21718 7.17801 2.23199 7.38574 2.35651L12.3857 5.35651C12.7408 5.56956 12.8564 6.03066 12.6436 6.3858C12.4305 6.74089 11.9694 6.85649 11.6143 6.64362L7 3.87506L2.75 6.42487V17.5743L6.97852 20.1124L11.2842 17.2462C11.6289 17.0166 12.0946 17.1095 12.3242 17.4542C12.5538 17.7989 12.46 18.2646 12.1152 18.4942L7.41602 21.6241C7.17498 21.7846 6.86263 21.7925 6.61426 21.6436L1.61426 18.6436C1.38835 18.5081 1.25 18.2635 1.25 18.0001V6.00006C1.25 5.73661 1.38835 5.49205 1.61426 5.35651L6.61426 2.35651L6.70605 2.31061Z" fill="#1C252E"/>
</svg>
