<svg width="24" height="24" viewBox="0 0 24 24" fill="none" xmlns="http://www.w3.org/2000/svg">
<path d="M21.25 12C21.25 6.89137 17.1086 2.75 12 2.75C6.89137 2.75 2.75 6.89137 2.75 12C2.75 17.1086 6.89137 21.25 12 21.25C17.1086 21.25 21.25 17.1086 21.25 12ZM22.75 12C22.75 17.9371 17.9371 22.75 12 22.75C6.06294 22.75 1.25 17.9371 1.25 12C1.25 6.06294 6.06294 1.25 12 1.25C17.9371 1.25 22.75 6.06294 22.75 12Z" fill="#1C252E"/>
<path d="M7.05005 13V11C7.05005 8.98579 8.78584 7.25 10.8 7.25H15.8C16.2143 7.25 16.55 7.58579 16.55 8C16.55 8.41421 16.2143 8.75 15.8 8.75H10.8C9.61426 8.75 8.55005 9.81421 8.55005 11V13C8.55005 14.1858 9.61426 15.25 10.8 15.25H15.8C16.2143 15.25 16.55 15.5858 16.55 16C16.55 16.4142 16.2143 16.75 15.8 16.75H10.8C8.78584 16.75 7.05005 15.0142 7.05005 13Z" fill="#1C252E"/>
<path d="M15.8 11.25C16.2143 11.25 16.55 11.5858 16.55 12C16.55 12.4142 16.2143 12.75 15.8 12.75H7.80005C7.38584 12.75 7.05005 12.4142 7.05005 12C7.05005 11.5858 7.38584 11.25 7.80005 11.25H15.8Z" fill="#1C252E"/>
</svg>
