<svg width="24" height="24" viewBox="0 0 24 24" fill="none" xmlns="http://www.w3.org/2000/svg">
<path d="M16.5301 2.59998C17.23 2.59999 17.9429 2.84879 18.536 3.21521C19.1283 3.58121 19.6698 4.10722 19.9813 4.73572L22.3817 9.55603H22.3807C22.7562 10.3077 22.8266 11.1809 22.6756 11.9779C22.5245 12.7753 22.14 13.5613 21.5262 14.1234L21.5242 14.1254L14.5946 20.4154L14.5926 20.4164C13.1569 21.7144 10.8523 21.7146 9.41683 20.4164L9.41585 20.4154L2.48616 14.1254C1.86518 13.5625 1.47973 12.7755 1.32991 11.9769C1.18015 11.1785 1.25383 10.3052 1.62874 9.55505L4.02913 4.73572C4.33611 4.10646 4.87524 3.58136 5.46468 3.21619C6.05691 2.84935 6.76983 2.60009 7.46956 2.59998H16.5301ZM7.46956 4.09998C7.10953 4.10009 6.66717 4.2361 6.25472 4.49158C5.8418 4.7474 5.52841 5.07968 5.37483 5.39685L5.3719 5.40466H5.37093L2.97151 10.224L2.97054 10.225C2.76573 10.6346 2.70437 11.1668 2.80452 11.7006C2.90469 12.2344 3.15516 12.707 3.49397 13.014V13.015L10.4227 19.3041L10.5916 19.4408C11.4646 20.082 12.7763 20.0367 13.5867 19.3041L20.5135 13.017L20.6356 12.8939C20.9102 12.5895 21.1133 12.1668 21.202 11.6986C21.3032 11.1638 21.2428 10.6328 21.0389 10.225V10.224L18.6385 5.40466L18.6375 5.40271C18.4789 5.08202 18.1615 4.74773 17.7469 4.49158C17.3325 4.2356 16.8901 4.09999 16.5301 4.09998H7.46956Z" fill="#1C252E"/>
<path d="M11.25 14.5V8.5C11.25 8.08579 11.5858 7.75 12 7.75C12.4142 7.75 12.75 8.08579 12.75 8.5V14.5C12.75 14.9142 12.4142 15.25 12 15.25C11.5858 15.25 11.25 14.9142 11.25 14.5Z" fill="#1C252E"/>
<path d="M16 7.75C16.4142 7.75 16.75 8.08579 16.75 8.5C16.75 8.91421 16.4142 9.25 16 9.25H8C7.58579 9.25 7.25 8.91421 7.25 8.5C7.25 8.08579 7.58579 7.75 8 7.75H16Z" fill="#1C252E"/>
</svg>
