<svg width="24" height="24" viewBox="0 0 24 24" fill="none" xmlns="http://www.w3.org/2000/svg">
<path d="M14.4999 7.75C14.7826 7.75 15.0411 7.90899 15.1689 8.16113C15.2965 8.41344 15.2719 8.71651 15.1044 8.94434L12.6044 12.3447C12.4631 12.5368 12.2384 12.6504 11.9999 12.6504C11.7614 12.6504 11.5367 12.5368 11.3954 12.3447L8.89541 8.94434C8.72795 8.71651 8.70331 8.41344 8.83096 8.16113C8.95869 7.90899 9.21723 7.75 9.49991 7.75H14.4999ZM11.9999 10.6338L13.0175 9.25H10.9823L11.9999 10.6338Z" fill="#1C252E"/>
<path d="M21.25 12C21.25 6.89137 17.1086 2.75 12 2.75C6.89137 2.75 2.75 6.89137 2.75 12C2.75 17.1086 6.89137 21.25 12 21.25C17.1086 21.25 21.25 17.1086 21.25 12ZM22.75 12C22.75 17.9371 17.9371 22.75 12 22.75C6.06294 22.75 1.25 17.9371 1.25 12C1.25 6.06294 6.06294 1.25 12 1.25C17.9371 1.25 22.75 6.06294 22.75 12Z" fill="#1C252E"/>
<path d="M16.3897 9.56428C16.6304 9.22732 17.0986 9.14896 17.4356 9.38948C17.7726 9.63017 17.8509 10.0983 17.6104 10.4354L12.6104 17.4354C12.4696 17.6325 12.2423 17.7498 12.0001 17.7498C11.7579 17.7498 11.5305 17.6325 11.3897 17.4354L6.38972 10.4354C6.14921 10.0983 6.22756 9.63017 6.56453 9.38948C6.90157 9.14896 7.36974 9.22732 7.61043 9.56428L12.0001 15.7098L16.3897 9.56428Z" fill="#1C252E"/>
</svg>
