<svg width="24" height="24" viewBox="0 0 24 24" fill="none" xmlns="http://www.w3.org/2000/svg">
<path d="M14.7256 8.21881C15.0168 7.98045 15.4458 7.99432 15.7217 8.26178L19.0225 11.461C19.1681 11.6023 19.25 11.7971 19.25 12.0001C19.2499 12.2028 19.1679 12.397 19.0225 12.5381L15.7217 15.7383C15.4276 16.0232 14.9596 16.0199 14.6699 15.7305L12 13.0606L9.33008 15.7305C9.04042 16.0199 8.57237 16.0232 8.27832 15.7383L4.97754 12.5381C4.83207 12.397 4.75005 12.2028 4.75 12.0001C4.75 11.7971 4.83187 11.6023 4.97754 11.461L8.27832 8.26178L8.33496 8.211C8.62982 7.97759 9.05851 7.99812 9.33008 8.26959L12 10.9395L14.6699 8.26959L14.7256 8.21881ZM6.57715 11.9991L8.79199 14.1465L10.9395 12.0001L8.79102 9.85162L6.57715 11.9991ZM13.0605 12.0001L15.207 14.1465L17.4219 11.9991L15.208 9.85162L13.0605 12.0001Z" fill="#1C252E"/>
<path d="M21.25 12C21.25 6.89137 17.1086 2.75 12 2.75C6.89137 2.75 2.75 6.89137 2.75 12C2.75 17.1086 6.89137 21.25 12 21.25C17.1086 21.25 21.25 17.1086 21.25 12ZM22.75 12C22.75 17.9371 17.9371 22.75 12 22.75C6.06294 22.75 1.25 17.9371 1.25 12C1.25 6.06294 6.06294 1.25 12 1.25C17.9371 1.25 22.75 6.06294 22.75 12Z" fill="#1C252E"/>
</svg>
