<svg width="24" height="24" viewBox="0 0 24 24" fill="none" xmlns="http://www.w3.org/2000/svg">
<path d="M10.9654 1.78318C11.4256 1.4058 12.0745 1.40574 12.5347 1.78318L12.6304 1.8701L14.3306 3.56932C14.8234 4.06211 14.8232 4.83715 14.3306 5.33006L9.23002 10.4306C8.73711 10.9232 7.96207 10.9234 7.46928 10.4306L5.77006 8.73045C5.27717 8.23756 5.27717 7.4626 5.77006 6.96971L10.8697 1.8701L10.9654 1.78318ZM7.01029 7.84959L8.34916 9.18943L13.0894 4.4492L11.7496 3.11033L7.01029 7.84959Z" fill="#1C252E"/>
<path d="M14.8648 5.6832C15.3579 5.27859 16.0676 5.30792 16.5298 5.77012L18.23 7.46933C18.7229 7.96223 18.7229 8.73718 18.23 9.23008L9.23002 18.2301C8.73713 18.723 7.96217 18.723 7.46928 18.2301L5.77006 16.5299C5.27717 16.037 5.27717 15.263 5.77006 14.7701L14.7701 5.77012L14.8648 5.6832ZM7.01029 15.65L8.34916 16.9889L16.9888 8.34922L15.6499 7.01035L7.01029 15.65Z" fill="#1C252E"/>
<path d="M18.7649 9.58323C19.258 9.17861 19.9678 9.20795 20.43 9.67014L22.1302 11.3694C22.6231 11.8623 22.6231 12.6372 22.1302 13.1301L13.1302 22.1301C12.6373 22.623 11.8623 22.623 11.3694 22.1301L9.67021 20.4299C9.17731 19.937 9.17731 19.163 9.67021 18.6701L18.6702 9.67014L18.7649 9.58323ZM10.9104 19.55L12.2493 20.8889L20.889 12.2492L19.5501 10.9104L10.9104 19.55Z" fill="#1C252E"/>
<path d="M3.56938 9.17015C4.06227 8.67725 4.83723 8.67725 5.33012 9.17015L7.03031 10.8694C7.52318 11.3622 7.52311 12.1372 7.03031 12.6301L5.33012 14.3303C4.83722 14.8231 4.06224 14.8232 3.56938 14.3303L1.87016 12.6301C1.37726 12.1372 1.37726 11.3623 1.87016 10.8694L3.56938 9.17015ZM3.11039 11.7492L4.44926 13.0891L5.7891 11.7492L4.44926 10.4104L3.11039 11.7492Z" fill="#1C252E"/>
</svg>
