<svg width="24" height="24" viewBox="0 0 24 24" fill="none" xmlns="http://www.w3.org/2000/svg">
<path d="M4.25 16.0002V7.09979C4.25007 6.08957 4.83034 5.278 5.58398 4.77557L5.63379 4.7453L10.6338 1.94549C11.4343 1.43894 12.5275 1.39406 13.3047 1.96795L18.2764 4.85077H18.2754C19.1316 5.30032 19.6504 6.26158 19.6504 7.20038V16.0002C19.6503 16.845 19.2325 17.6544 18.5684 18.1857C18.5585 18.1936 18.5483 18.2008 18.5381 18.2082L13.5381 21.8088L13.5361 21.8107C12.5755 22.4969 11.325 22.4967 10.3643 21.8107L10.3613 21.8088L5.36133 18.2082V18.2072C4.98095 17.9614 4.70997 17.5998 4.53613 17.2365C4.35268 16.8529 4.25003 16.4174 4.25 16.0002ZM5.75 16.0002C5.75003 16.1828 5.7972 16.3978 5.88867 16.589C5.9584 16.7348 6.03987 16.8379 6.11426 16.9035L6.18555 16.9572L6.23828 16.9914L11.2383 20.591C11.6765 20.9027 12.2239 20.9028 12.6621 20.591L17.6348 17.0099C17.9679 16.7414 18.1503 16.3538 18.1504 16.0002V7.20038C18.1504 6.75386 17.8841 6.33091 17.5645 6.17108C17.5506 6.16415 17.5368 6.15639 17.5234 6.14862L12.5234 3.2492C12.4912 3.23052 12.4607 3.20898 12.4316 3.18573C12.2274 3.02233 11.7903 2.97437 11.416 3.22381C11.3999 3.23456 11.3831 3.24462 11.3662 3.25409L6.40234 6.03338C5.96536 6.32965 5.75007 6.71419 5.75 7.09979V16.0002Z" fill="#1C252E"/>
<path d="M11.2676 2.83686C11.3576 2.43269 11.7588 2.17769 12.1631 2.26752C12.5672 2.35751 12.8222 2.75878 12.7324 3.16303L10.7656 12.0097L12.5361 21.0556C12.6156 21.462 12.3507 21.8568 11.9443 21.9365C11.5378 22.016 11.143 21.7502 11.0635 21.3437L9.26366 12.1435C9.24392 12.0422 9.24518 11.9376 9.26756 11.8369L11.2676 2.83686Z" fill="#1C252E"/>
<path d="M18.1368 6.64363C18.4992 6.44325 18.9558 6.57435 19.1564 6.9366C19.3567 7.29898 19.2256 7.7556 18.8634 7.95613L11.504 12.0245L18.5851 16.2559C18.9405 16.4684 19.0561 16.9288 18.8439 17.2843C18.6314 17.6397 18.1711 17.7563 17.8155 17.544L9.61534 12.6436C9.38499 12.506 9.24563 12.2557 9.2501 11.9874C9.2546 11.7192 9.40216 11.4738 9.63682 11.3438L18.1368 6.64363Z" fill="#1C252E"/>
</svg>
