<svg width="24" height="24" viewBox="0 0 24 24" fill="none" xmlns="http://www.w3.org/2000/svg">
<path d="M5.50012 1.25C6.42401 1.25001 7.35628 1.57495 8.08704 2.2334L8.23059 2.37012L8.23743 2.37695L11.7296 5.96973H11.7306C11.8377 6.07671 12.063 6.07679 12.17 5.96973L15.7697 2.37012C16.5195 1.62027 17.5146 1.25 18.5001 1.25H19.9005C20.6897 1.25017 21.347 1.69507 21.6183 2.35059C21.8919 3.01175 21.7291 3.78111 21.13 4.33008L15.4308 10.0303C13.5379 11.9232 10.3627 11.9231 8.46985 10.0303L2.76965 4.33008C2.1951 3.75539 2.09123 2.97123 2.37805 2.33105C2.66194 1.69776 3.30569 1.25012 4.09973 1.25H5.50012ZM4.09973 2.75C3.89418 2.75011 3.78826 2.85278 3.74719 2.94434C3.72516 2.99349 3.71916 3.04412 3.72766 3.0918C3.73561 3.13635 3.7595 3.19877 3.8302 3.26953L9.5304 8.96973C10.8374 10.2767 13.0621 10.2766 14.3693 8.96973L20.0695 3.26953C20.0812 3.25776 20.094 3.24631 20.1066 3.23535C20.2014 3.15231 20.2315 3.08263 20.2413 3.04297C20.2516 3.00144 20.2471 2.96138 20.2316 2.92383C20.2026 2.85454 20.1103 2.75015 19.9005 2.75H18.5001C17.8856 2.75 17.2804 2.98051 16.8302 3.43066L13.2306 7.03027C12.5377 7.72312 11.363 7.72304 10.67 7.03027L10.6622 7.02246L7.17004 3.43066L6.99426 3.27148C6.5685 2.92587 6.03777 2.75001 5.50012 2.75H4.09973Z" fill="#1C252E"/>
<path d="M8.46958 13.97C10.3625 12.0771 13.5376 12.0771 15.4305 13.97L21.1307 19.6702C22.3017 20.8419 21.4689 22.75 19.9002 22.7502H18.4999C17.5143 22.7502 16.5192 22.38 15.7694 21.6301L12.1698 18.0305C12.0627 17.9234 11.8374 17.9234 11.7303 18.0305L8.13071 21.6301C7.5128 22.248 6.52877 22.7502 5.49985 22.7502H4.09946C2.53238 22.7499 1.70015 20.8461 2.86606 19.6741H2.86509L8.4647 13.9748L8.46958 13.97ZM14.37 15.0305C13.0629 13.7234 10.8372 13.7234 9.53013 15.0305L3.93442 20.7258L3.93052 20.7307C3.7025 20.9587 3.86881 21.2499 4.09946 21.2502H5.49985C6.07088 21.2502 6.68709 20.9516 7.06919 20.5696L10.6698 16.97C11.3627 16.2771 12.5374 16.2771 13.2303 16.97L16.8299 20.5696C17.2801 21.0197 17.8854 21.2502 18.4999 21.2502H19.9002C20.1309 21.2499 20.2973 20.9588 20.0692 20.7307L14.37 15.0305Z" fill="#1C252E"/>
</svg>
