<svg width="24" height="24" viewBox="0 0 24 24" fill="none" xmlns="http://www.w3.org/2000/svg">
<path d="M21.25 8.5C21.25 5.32421 18.6758 2.75 15.5 2.75C12.3716 2.75 9.82811 5.24806 9.75293 8.3584C12.7488 8.88118 15.1174 11.2504 15.6406 14.2461C18.7514 14.1714 21.25 11.6288 21.25 8.5ZM22.75 8.5C22.75 12.5042 19.5042 15.75 15.5 15.75C15.3049 15.75 15.1037 15.7384 14.9355 15.7285C14.5619 15.7063 14.2619 15.4122 14.2324 15.0391C14.0114 12.2367 11.7633 9.98858 8.96094 9.76758C8.58778 9.7381 8.29368 9.43808 8.27148 9.06445C8.26159 8.89626 8.25 8.69505 8.25 8.5C8.25 4.49579 11.4958 1.25 15.5 1.25C19.5042 1.25 22.75 4.49579 22.75 8.5Z" fill="#1C252E"/>
<path d="M14.2324 15.0391L14.2061 14.7783C13.871 12.1002 11.679 9.98421 8.9668 9.76758C8.7985 9.75771 8.64236 9.75 8.5 9.75C5.32421 9.75 2.75 12.3242 2.75 15.5C2.75 18.6758 5.32421 21.25 8.5 21.25C11.6758 21.25 14.25 18.6758 14.25 15.5C14.25 15.3593 14.2421 15.2051 14.2324 15.0391ZM15.75 15.5C15.75 19.5042 12.5042 22.75 8.5 22.75C4.49579 22.75 1.25 19.5042 1.25 15.5C1.25 11.4958 4.49579 8.25 8.5 8.25C8.59749 8.25 8.69642 8.25275 8.79199 8.25684L9.06445 8.27148L9.0791 8.27246C12.6167 8.55153 15.4485 11.3833 15.7275 14.9209C15.7279 14.9257 15.7282 14.9307 15.7285 14.9355C15.7384 15.1037 15.75 15.3049 15.75 15.5Z" fill="#1C252E"/>
<path d="M8.5 12.25C8.77483 12.25 9.02791 12.4002 9.15918 12.6416L9.93262 14.0664L11.3584 14.8408C11.5998 14.9721 11.75 15.2252 11.75 15.5C11.75 15.7748 11.5998 16.0279 11.3584 16.1592L9.93262 16.9326L9.15918 18.3584C9.02791 18.5998 8.77483 18.75 8.5 18.75C8.22517 18.75 7.97209 18.5998 7.84082 18.3584L7.06641 16.9326L5.6416 16.1592C5.40017 16.0279 5.25 15.7748 5.25 15.5C5.25 15.2252 5.40017 14.9721 5.6416 14.8408L7.06641 14.0664L7.84082 12.6416L7.89551 12.5557C8.03558 12.365 8.25944 12.25 8.5 12.25ZM8.2793 14.9775C8.21014 15.1049 8.10486 15.2101 7.97754 15.2793L7.57129 15.5L7.97754 15.7207C8.10486 15.7899 8.21014 15.8951 8.2793 16.0225L8.5 16.4277L8.7207 16.0225L8.7793 15.9307C8.84383 15.8444 8.92705 15.7725 9.02246 15.7207L9.42773 15.5L9.02246 15.2793C8.89514 15.2101 8.78986 15.1049 8.7207 14.9775L8.5 14.5713L8.2793 14.9775Z" fill="#1C252E"/>
</svg>
