<svg width="24" height="24" viewBox="0 0 24 24" fill="none" xmlns="http://www.w3.org/2000/svg">
<path d="M21.25 12C21.25 6.89137 17.1086 2.75 12 2.75C6.89137 2.75 2.75 6.89137 2.75 12C2.75 17.1086 6.89137 21.25 12 21.25C17.1086 21.25 21.25 17.1086 21.25 12ZM22.75 12C22.75 17.9371 17.9371 22.75 12 22.75C6.06294 22.75 1.25 17.9371 1.25 12C1.25 6.06294 6.06294 1.25 12 1.25C17.9371 1.25 22.75 6.06294 22.75 12Z" fill="#1C252E"/>
<path d="M16.4243 8.51953C16.6265 8.27724 16.9586 8.18749 17.2554 8.29492C17.5523 8.40242 17.7505 8.68424 17.7505 9V14.25H20.8999C21.3141 14.25 21.6499 14.5858 21.6499 15C21.6499 15.4142 21.3141 15.75 20.8999 15.75H17.0005C16.5863 15.75 16.2505 15.4142 16.2505 15V11.0713L12.5767 15.4805C12.4342 15.6514 12.2229 15.7499 12.0005 15.75C11.7781 15.75 11.5668 15.6512 11.4243 15.4805L7.75049 11.0713V15C7.75049 15.4141 7.41452 15.7498 7.00049 15.75H3.1001C2.68588 15.75 2.3501 15.4142 2.3501 15C2.3501 14.5858 2.68588 14.25 3.1001 14.25H6.25049V9C6.25049 8.6843 6.44782 8.40246 6.74463 8.29492C7.04153 8.18743 7.37451 8.27695 7.57666 8.51953L12.0005 13.8281L16.4243 8.51953Z" fill="#1C252E"/>
</svg>
