<svg width="24" height="24" viewBox="0 0 24 24" fill="none" xmlns="http://www.w3.org/2000/svg">
<path d="M13.9497 10.6003C13.9497 9.13692 12.7637 7.95016 11.3003 7.94995C9.83674 7.94995 8.6499 9.13679 8.6499 10.6003C8.65011 12.0637 9.83687 13.2498 11.3003 13.2498C12.7635 13.2495 13.9495 12.0636 13.9497 10.6003ZM15.4497 10.6003C15.4495 12.892 13.592 14.7495 11.3003 14.7498C9.00844 14.7498 7.15011 12.8921 7.1499 10.6003C7.1499 8.30836 9.00831 6.44995 11.3003 6.44995C13.5921 6.45016 15.4497 8.30849 15.4497 10.6003Z" fill="#1C252E"/>
<path d="M14.5698 14.2697C14.8627 13.9768 15.3374 13.9768 15.6303 14.2697C15.9232 14.5626 15.9232 15.0374 15.6303 15.3303L12.6303 18.3303C12.3374 18.6232 11.8627 18.6232 11.5698 18.3303C11.2769 18.0374 11.2769 17.5626 11.5698 17.2697L14.5698 14.2697Z" fill="#1C252E"/>
<path d="M21.25 12C21.25 6.89137 17.1086 2.75 12 2.75C6.89137 2.75 2.75 6.89137 2.75 12C2.75 17.1086 6.89137 21.25 12 21.25C17.1086 21.25 21.25 17.1086 21.25 12ZM22.75 12C22.75 17.9371 17.9371 22.75 12 22.75C6.06294 22.75 1.25 17.9371 1.25 12C1.25 6.06294 6.06294 1.25 12 1.25C17.9371 1.25 22.75 6.06294 22.75 12Z" fill="#1C252E"/>
<path d="M15.5 7.3125C15.5 6.76022 15.9477 6.3125 16.5 6.3125C17.0523 6.3125 17.5 6.76022 17.5 7.3125C17.5 7.86478 17.0523 8.3125 16.5 8.3125C15.9477 8.3125 15.5 7.86478 15.5 7.3125Z" fill="#1C252E"/>
</svg>
