<svg width="24" height="24" viewBox="0 0 24 24" fill="none" xmlns="http://www.w3.org/2000/svg">
<path d="M21.25 12C21.25 9.65279 19.3472 7.75 17 7.75C14.6528 7.75 12.75 9.65279 12.75 12C12.75 14.3472 14.6528 16.25 17 16.25C19.3472 16.25 21.25 14.3472 21.25 12ZM22.75 12C22.75 15.1756 20.1756 17.75 17 17.75C13.8244 17.75 11.25 15.1756 11.25 12C11.25 8.82436 13.8244 6.25 17 6.25C20.1756 6.25 22.75 8.82436 22.75 12Z" fill="#1C252E"/>
<path d="M16.25 17C16.25 14.6528 14.3472 12.75 12 12.75C9.65279 12.75 7.75 14.6528 7.75 17C7.75 19.3472 9.65279 21.25 12 21.25C14.3472 21.25 16.25 19.3472 16.25 17ZM17.75 17C17.75 20.1756 15.1756 22.75 12 22.75C8.82436 22.75 6.25 20.1756 6.25 17C6.25 13.8244 8.82436 11.25 12 11.25C15.1756 11.25 17.75 13.8244 17.75 17Z" fill="#1C252E"/>
<path d="M16.25 7C16.25 4.65279 14.3472 2.75 12 2.75C9.65279 2.75 7.75 4.65279 7.75 7C7.75 9.34721 9.65279 11.25 12 11.25C14.3472 11.25 16.25 9.34721 16.25 7ZM17.75 7C17.75 10.1756 15.1756 12.75 12 12.75C8.82436 12.75 6.25 10.1756 6.25 7C6.25 3.82436 8.82436 1.25 12 1.25C15.1756 1.25 17.75 3.82436 17.75 7Z" fill="#1C252E"/>
<path d="M11.25 12C11.25 9.65279 9.34721 7.75 7 7.75C4.65279 7.75 2.75 9.65279 2.75 12C2.75 14.3472 4.65279 16.25 7 16.25C9.34721 16.25 11.25 14.3472 11.25 12ZM12.75 12C12.75 15.1756 10.1756 17.75 7 17.75C3.82436 17.75 1.25 15.1756 1.25 12C1.25 8.82436 3.82436 6.25 7 6.25C10.1756 6.25 12.75 8.82436 12.75 12Z" fill="#1C252E"/>
</svg>
