<svg width="24" height="24" viewBox="0 0 24 24" fill="none" xmlns="http://www.w3.org/2000/svg">
<path d="M17.4336 2.55005L17.6504 2.92603L22.8652 12.0002L17.4336 21.4504H6.56641L1.13477 12.0002L6.34961 2.92603L6.56641 2.55005H17.4336ZM2.86426 11.9993L7.43457 19.9504H16.5654L21.1348 11.9993L16.5654 4.05005H7.43457L2.86426 11.9993Z" fill="#1C252E"/>
<path d="M11.3335 13.25L13.6626 17.2949L13.4546 17.666L11.3403 21.4502H6.56006L4.4458 17.666L4.23779 17.2949L4.44971 16.9258L6.56689 13.25H11.3335ZM5.96143 17.3057L7.43994 19.9502H10.4604L11.937 17.3047L10.4673 14.75H7.43311L5.96143 17.3057Z" fill="#1C252E"/>
<path d="M14.729 7.25L18.647 13.9199L18.8677 14.2969L14.9487 21.0752L14.7329 21.4502H6.56104L2.5376 14.2969L6.56494 7.25H14.729ZM4.26123 14.3027L7.43896 19.9502H13.8667L17.1313 14.3027L13.8706 8.75H7.43506L4.26123 14.3027Z" fill="#1C252E"/>
</svg>
