<svg width="24" height="24" viewBox="0 0 24 24" fill="none" xmlns="http://www.w3.org/2000/svg">
<path d="M16.5 9.75C16.9142 9.75 17.25 10.0858 17.25 10.5C17.25 10.9142 16.9142 11.25 16.5 11.25H7.5C7.08579 11.25 6.75 10.9142 6.75 10.5C6.75 10.0858 7.08579 9.75 7.5 9.75H16.5Z" fill="#1C252E"/>
<path d="M8.57028 5.88571C8.9096 5.64835 9.37674 5.73101 9.61423 6.07028L12.414 10.0703C12.6514 10.4095 12.5695 10.8766 12.2304 11.1142C11.8911 11.3518 11.4231 11.269 11.1855 10.9297L8.38571 6.92966C8.14835 6.59034 8.23101 6.1232 8.57028 5.88571Z" fill="#1C252E"/>
<path d="M14.1855 6.07037C14.4231 5.73104 14.8911 5.64827 15.2304 5.8858C15.5695 6.12339 15.6514 6.59053 15.414 6.92975L12.6142 10.9297C12.3767 11.269 11.9096 11.3517 11.5703 11.1143C11.231 10.8768 11.1483 10.4097 11.3857 10.0704L14.1855 6.07037Z" fill="#1C252E"/>
<path d="M16.5 12.75C16.9142 12.75 17.25 13.0858 17.25 13.5C17.25 13.9142 16.9142 14.25 16.5 14.25H7.5C7.08579 14.25 6.75 13.9142 6.75 13.5C6.75 13.0858 7.08579 12.75 7.5 12.75H16.5Z" fill="#1C252E"/>
<path d="M11.1855 13.0704C11.4231 12.731 11.8911 12.6483 12.2304 12.8858C12.5695 13.1234 12.6514 13.5905 12.414 13.9297L9.61423 17.9297C9.37674 18.269 8.9096 18.3517 8.57028 18.1143C8.23101 17.8768 8.14835 17.4097 8.38571 17.0704L11.1855 13.0704Z" fill="#1C252E"/>
<path d="M11.5703 12.8857C11.9096 12.6483 12.3767 12.731 12.6142 13.0703L15.414 17.0703C15.6514 17.4095 15.5695 17.8766 15.2304 18.1142C14.8911 18.3518 14.4231 18.269 14.1855 17.9297L11.3857 13.9297C11.1483 13.5903 11.231 13.1232 11.5703 12.8857Z" fill="#1C252E"/>
<path d="M21.25 12C21.25 6.89137 17.1086 2.75 12 2.75C6.89137 2.75 2.75 6.89137 2.75 12C2.75 17.1086 6.89137 21.25 12 21.25C17.1086 21.25 21.25 17.1086 21.25 12ZM22.75 12C22.75 17.9371 17.9371 22.75 12 22.75C6.06294 22.75 1.25 17.9371 1.25 12C1.25 6.06294 6.06294 1.25 12 1.25C17.9371 1.25 22.75 6.06294 22.75 12Z" fill="#1C252E"/>
</svg>
