<svg width="24" height="24" viewBox="0 0 24 24" fill="none" xmlns="http://www.w3.org/2000/svg">
<path d="M11.7061 5.51056C11.9252 5.41713 12.1781 5.43194 12.3858 5.55646L16.8858 8.25665C17.241 8.46973 17.3566 8.93078 17.1436 9.28595C16.9305 9.64113 16.4695 9.7559 16.1143 9.54279L12.0001 7.07404L7.88583 9.54279C7.53065 9.7559 7.06965 9.64113 6.85654 9.28595C6.64354 8.93078 6.75921 8.46973 7.11435 8.25665L11.6143 5.55646L11.7061 5.51056Z" fill="#1C252E"/>
<path d="M6.75 9C6.75 8.58579 7.08579 8.25 7.5 8.25C7.91421 8.25 8.25 8.58579 8.25 9V13.7754L11.6143 11.7568L11.7061 11.71C11.9251 11.6166 12.178 11.6323 12.3857 11.7568L15.75 13.7754V9C15.75 8.58579 16.0858 8.25 16.5 8.25C16.9142 8.25 17.25 8.58579 17.25 9V15.0996C17.25 15.3698 17.1043 15.6198 16.8691 15.7529C16.6341 15.8858 16.3458 15.882 16.1143 15.7432L12 13.2744L7.88574 15.7432C7.6542 15.882 7.36588 15.8858 7.13086 15.7529C6.89573 15.6198 6.75 15.3698 6.75 15.0996V9Z" fill="#1C252E"/>
<path d="M13.7776 15.5801C14.1197 15.347 14.5862 15.4354 14.8196 15.7773C15.0529 16.1196 14.9645 16.587 14.6223 16.8203L12.4221 18.3203C12.1673 18.4937 11.8321 18.4939 11.5774 18.3203L9.37719 16.8203C9.03498 16.587 8.94659 16.1196 9.17992 15.7773C9.41327 15.4351 9.88067 15.3467 10.2229 15.5801L11.9993 16.792L13.7776 15.5801Z" fill="#1C252E"/>
<path d="M21.25 12C21.25 6.89137 17.1086 2.75 12 2.75C6.89137 2.75 2.75 6.89137 2.75 12C2.75 17.1086 6.89137 21.25 12 21.25C17.1086 21.25 21.25 17.1086 21.25 12ZM22.75 12C22.75 17.9371 17.9371 22.75 12 22.75C6.06294 22.75 1.25 17.9371 1.25 12C1.25 6.06294 6.06294 1.25 12 1.25C17.9371 1.25 22.75 6.06294 22.75 12Z" fill="#1C252E"/>
</svg>
