<svg width="24" height="24" viewBox="0 0 24 24" fill="none" xmlns="http://www.w3.org/2000/svg">
<path d="M19.9997 2.75C21.4005 2.75 22.2698 4.33219 21.4099 5.53613L21.4001 5.5498L19.9001 7.5498L19.8991 7.54883C19.5217 8.08766 18.963 8.25 18.4997 8.25H3.99972C2.59909 8.24986 1.72964 6.66776 2.58956 5.46387L2.59444 5.45703L2.6003 5.4502L4.1003 3.4502C4.47764 2.91182 5.03657 2.75004 5.49972 2.75H19.9997ZM5.49972 4.25C5.43085 4.25002 5.39157 4.26196 5.37276 4.27051C5.36395 4.27452 5.35711 4.27827 5.35128 4.2832C5.34551 4.28809 5.33609 4.29818 5.32394 4.31641L5.31222 4.33301L5.29952 4.34961L3.80929 6.33496C3.73046 6.44532 3.73995 6.54286 3.77804 6.61621C3.82003 6.69696 3.89778 6.74993 3.99972 6.75H18.4997C18.5684 6.75 18.6078 6.73804 18.6267 6.72949C18.6354 6.72551 18.6424 6.72167 18.6482 6.7168C18.6539 6.71192 18.6633 6.70185 18.6755 6.68359L18.6872 6.66699L18.6999 6.65039L20.1892 4.66406C20.2679 4.55383 20.2604 4.45711 20.2224 4.38379C20.1804 4.30298 20.1018 4.25 19.9997 4.25H5.49972Z" fill="#1C252E"/>
<path d="M18.4997 9.25C18.963 9.25 19.5217 9.41234 19.8991 9.95117L19.9001 9.9502L21.4001 11.9502L21.4099 11.9639C22.2698 13.1678 21.4005 14.75 19.9997 14.75H5.49972C5.03657 14.75 4.47764 14.5882 4.1003 14.0498L2.6003 12.0498L2.59444 12.043L2.58956 12.0361C1.72964 10.8322 2.59909 9.25014 3.99972 9.25H18.4997ZM3.99972 10.75C3.89778 10.7501 3.82003 10.803 3.77804 10.8838C3.73995 10.9571 3.73144 11.0537 3.81026 11.1641H3.80929L5.29952 13.1504L5.31222 13.167L5.32394 13.1836C5.33609 13.2018 5.34551 13.2119 5.35128 13.2168C5.35711 13.2217 5.36395 13.2255 5.37276 13.2295C5.39157 13.238 5.43085 13.25 5.49972 13.25H19.9997C20.1018 13.25 20.1804 13.197 20.2224 13.1162C20.2604 13.0429 20.2679 12.9462 20.1892 12.8359V12.835L18.6999 10.8496L18.6872 10.833L18.6755 10.8164C18.6633 10.7982 18.6539 10.7881 18.6482 10.7832C18.6424 10.7783 18.6354 10.7745 18.6267 10.7705C18.6078 10.762 18.5684 10.75 18.4997 10.75H3.99972Z" fill="#1C252E"/>
<path d="M19.9997 15.75C21.4005 15.75 22.2698 17.3322 21.4099 18.5361L21.4001 18.5498L19.9001 20.5498L19.8991 20.5488C19.5217 21.0877 18.963 21.25 18.4997 21.25H3.99972C2.59909 21.2499 1.72964 19.6678 2.58956 18.4639L2.59444 18.457L2.6003 18.4502L4.1003 16.4502C4.47764 15.9118 5.03657 15.75 5.49972 15.75H19.9997ZM5.49972 17.25C5.43085 17.25 5.39157 17.262 5.37276 17.2705C5.36395 17.2745 5.35711 17.2783 5.35128 17.2832C5.34551 17.2881 5.33609 17.2982 5.32394 17.3164L5.31222 17.333L5.29952 17.3496L3.80929 19.335C3.73046 19.4453 3.73995 19.5429 3.77804 19.6162C3.82003 19.697 3.89778 19.7499 3.99972 19.75H18.4997C18.5684 19.75 18.6078 19.738 18.6267 19.7295C18.6354 19.7255 18.6424 19.7217 18.6482 19.7168C18.6539 19.7119 18.6633 19.7018 18.6755 19.6836L18.6872 19.667L18.6999 19.6504L20.1892 17.6641C20.2679 17.5538 20.2604 17.4571 20.2224 17.3838C20.1804 17.303 20.1018 17.25 19.9997 17.25H5.49972Z" fill="#1C252E"/>
</svg>
