<svg width="24" height="24" viewBox="0 0 24 24" fill="none" xmlns="http://www.w3.org/2000/svg">
<path d="M4.25007 13.5C4.25007 11.1858 6.18586 9.25 8.50007 9.25H11.1895L6.68953 4.75H3.81062L6.23054 7.16992C6.44489 7.38442 6.5087 7.70713 6.39265 7.9873C6.2765 8.26729 6.00341 8.45012 5.70027 8.4502H5.69734C3.92381 9.44858 2.75007 11.3464 2.75007 13.5C2.75007 16.6858 5.31429 19.25 8.50007 19.25H11.1895L9.68953 17.75H8.50007C6.18586 17.75 4.25007 15.8142 4.25007 13.5ZM5.75007 13.5C5.75007 14.9858 7.01429 16.25 8.50007 16.25H10.0001C10.199 16.25 10.3897 16.3291 10.5303 16.4697L13.5303 19.4697C13.7448 19.6842 13.8095 20.0069 13.6934 20.2871C13.5773 20.5674 13.3034 20.75 13.0001 20.75H8.50007C4.48586 20.75 1.25007 17.5142 1.25007 13.5C1.25007 11.0173 2.49044 8.79984 4.41804 7.47852L1.4698 4.53027C1.25532 4.31579 1.19067 3.99313 1.30672 3.71289C1.4228 3.43263 1.69673 3.25 2.00007 3.25H7.00007C7.19899 3.25 7.3897 3.32907 7.53035 3.46973L13.5303 9.46973C13.7448 9.68421 13.8095 10.0069 13.6934 10.2871C13.5773 10.5674 13.3034 10.75 13.0001 10.75H8.50007C7.01429 10.75 5.75007 12.0142 5.75007 13.5Z" fill="#1C252E"/>
<path d="M21.2501 10.5C21.2501 7.31421 18.6859 4.75 15.5001 4.75H12.8106L14.3106 6.25H15.5001C17.8143 6.25 19.7501 8.18579 19.7501 10.5C19.7501 12.8142 17.8143 14.75 15.5001 14.75H12.8106L17.3106 19.25H20.1895L17.7696 16.8301C17.5553 16.6156 17.4914 16.2929 17.6075 16.0127C17.7236 15.7327 17.9967 15.5499 18.2999 15.5498H18.3028C20.0763 14.5514 21.2501 12.6536 21.2501 10.5ZM22.7501 10.5C22.7501 12.9827 21.5089 15.1992 19.5811 16.5205L22.5303 19.4697C22.7448 19.6842 22.8095 20.0069 22.6934 20.2871C22.5773 20.5674 22.3034 20.75 22.0001 20.75H17.0001C16.8012 20.75 16.6105 20.6709 16.4698 20.5303L10.4698 14.5303C10.2553 14.3158 10.1907 13.9931 10.3067 13.7129C10.4228 13.4326 10.6967 13.25 11.0001 13.25H15.5001C16.9859 13.25 18.2501 11.9858 18.2501 10.5C18.2501 9.01421 16.9859 7.75 15.5001 7.75H14.0001C13.8012 7.75 13.6105 7.67093 13.4698 7.53027L10.4698 4.53027C10.2553 4.31579 10.1907 3.99313 10.3067 3.71289C10.4228 3.43263 10.6967 3.25 11.0001 3.25H15.5001C19.5143 3.25 22.7501 6.48579 22.7501 10.5Z" fill="#1C252E"/>
</svg>
