<svg width="24" height="24" viewBox="0 0 24 24" fill="none" xmlns="http://www.w3.org/2000/svg">
<path d="M7.44995 16.5V7.5C7.44995 7.08579 7.78574 6.75 8.19995 6.75C8.61416 6.75 8.94995 7.08579 8.94995 7.5V16.5C8.94995 16.9142 8.61416 17.25 8.19995 17.25C7.78574 17.25 7.44995 16.9142 7.44995 16.5Z" fill="#1C252E"/>
<path d="M15.05 16.5V7.5C15.05 7.08579 15.3858 6.75 15.8 6.75C16.2143 6.75 16.55 7.08579 16.55 7.5V16.5C16.55 16.9142 16.2143 17.25 15.8 17.25C15.3858 17.25 15.05 16.9142 15.05 16.5Z" fill="#1C252E"/>
<path d="M15.7996 9.3501C16.2138 9.3501 16.5496 9.68588 16.5496 10.1001C16.5496 10.5143 16.2138 10.8501 15.7996 10.8501H8.19995C7.78574 10.8501 7.44995 10.5143 7.44995 10.1001C7.44995 9.68588 7.78574 9.3501 8.19995 9.3501H15.7996Z" fill="#1C252E"/>
<path d="M15.7996 13.1499C16.2138 13.1499 16.5496 13.4857 16.5496 13.8999C16.5496 14.3141 16.2138 14.6499 15.7996 14.6499H8.19995C7.78574 14.6499 7.44995 14.3141 7.44995 13.8999C7.44995 13.4857 7.78574 13.1499 8.19995 13.1499H15.7996Z" fill="#1C252E"/>
<path d="M21.25 12C21.25 6.89137 17.1086 2.75 12 2.75C6.89137 2.75 2.75 6.89137 2.75 12C2.75 17.1086 6.89137 21.25 12 21.25C17.1086 21.25 21.25 17.1086 21.25 12ZM22.75 12C22.75 17.9371 17.9371 22.75 12 22.75C6.06294 22.75 1.25 17.9371 1.25 12C1.25 6.06294 6.06294 1.25 12 1.25C17.9371 1.25 22.75 6.06294 22.75 12Z" fill="#1C252E"/>
</svg>
