<svg width="24" height="24" viewBox="0 0 24 24" fill="none" xmlns="http://www.w3.org/2000/svg">
<path d="M21.25 12C21.25 6.89137 17.1086 2.75 12 2.75C6.89137 2.75 2.75 6.89137 2.75 12C2.75 17.1086 6.89137 21.25 12 21.25C17.1086 21.25 21.25 17.1086 21.25 12ZM22.75 12C22.75 17.9371 17.9371 22.75 12 22.75C6.06294 22.75 1.25 17.9371 1.25 12C1.25 6.06294 6.06294 1.25 12 1.25C17.9371 1.25 22.75 6.06294 22.75 12Z" fill="#1C252E"/>
<path d="M12.5 5.25C12.7841 5.25 13.0438 5.41095 13.1709 5.66504L15.6709 10.665C15.8558 11.0354 15.7053 11.4857 15.3349 11.6709C14.9645 11.8558 14.5143 11.7053 14.3291 11.335L12.0361 6.75H11.9638L9.67088 11.335C9.4857 11.7053 9.03543 11.8558 8.66502 11.6709C8.29466 11.4857 8.14414 11.0354 8.32908 10.665L10.8291 5.66504C10.9561 5.41095 11.2159 5.25 11.5 5.25H12.5Z" fill="#1C252E"/>
<path d="M15.665 12.3291C16.0354 12.1441 16.4857 12.2947 16.6709 12.665L17.6709 14.665C17.8459 15.0155 17.7217 15.442 17.3857 15.6435L12.3857 18.6435C12.1484 18.7858 11.8516 18.7858 11.6142 18.6435L6.61425 15.6435C6.27832 15.442 6.15412 15.0155 6.32909 14.665L7.32909 12.665C7.51427 12.2947 7.96454 12.1441 8.33495 12.3291C8.70531 12.5143 8.85583 12.9645 8.67089 13.3349L7.98144 14.7138L12 17.125L16.0185 14.7138L15.3291 13.3349C15.1442 12.9645 15.2947 12.5143 15.665 12.3291Z" fill="#1C252E"/>
</svg>
