<svg width="24" height="24" viewBox="0 0 24 24" fill="none" xmlns="http://www.w3.org/2000/svg">
<path d="M20.1499 9.79984V6.86527L11.9995 2.83598L3.8501 6.86527V9.79984C3.8501 10.2141 3.51431 10.5498 3.1001 10.5498C2.68588 10.5498 2.3501 10.2141 2.3501 9.79984V6.40043C2.3501 6.11513 2.51232 5.85402 2.76807 5.72758L11.6675 1.32816C11.877 1.2246 12.123 1.2246 12.3325 1.32816L21.2329 5.72758C21.4885 5.85407 21.6499 6.11524 21.6499 6.40043V9.79984C21.6499 10.2141 21.3141 10.5498 20.8999 10.5498C20.4858 10.5497 20.1499 10.214 20.1499 9.79984Z" fill="#1C252E"/>
<path d="M2.3501 14.2C2.3501 13.7857 2.68588 13.45 3.1001 13.45C3.51431 13.45 3.8501 13.7857 3.8501 14.2V17.1335L11.9995 21.1628L20.1499 17.1335V14.2C20.1499 13.7858 20.4858 13.4501 20.8999 13.45C21.3141 13.45 21.6499 13.7857 21.6499 14.2V17.6003C21.6498 17.8853 21.4883 18.1458 21.2329 18.2722L12.3325 22.6726C12.1231 22.7761 11.8769 22.7762 11.6675 22.6726L2.76807 18.2722C2.51243 18.1458 2.35025 17.8855 2.3501 17.6003V14.2Z" fill="#1C252E"/>
<path d="M11.25 21.9995V16.3999C11.25 15.9857 11.5858 15.6499 12 15.6499C12.4142 15.6499 12.75 15.9857 12.75 16.3999V21.9995C12.75 22.4137 12.4142 22.7495 12 22.7495C11.5858 22.7495 11.25 22.4137 11.25 21.9995Z" fill="#1C252E"/>
<path d="M15.6499 12.0005C15.6499 9.98478 14.0161 8.35031 12.0005 8.3501C9.98465 8.3501 8.3501 9.98465 8.3501 12.0005C8.35031 14.0161 9.98478 15.6499 12.0005 15.6499C14.016 15.6497 15.6497 14.016 15.6499 12.0005ZM17.1499 12.0005C17.1497 14.8444 14.8444 17.1497 12.0005 17.1499C9.15635 17.1499 6.85031 14.8446 6.8501 12.0005C6.8501 9.15622 9.15622 6.8501 12.0005 6.8501C14.8446 6.85031 17.1499 9.15635 17.1499 12.0005Z" fill="#1C252E"/>
</svg>
