<svg width="24" height="24" viewBox="0 0 24 24" fill="none" xmlns="http://www.w3.org/2000/svg">
<path d="M1.25 12C1.25 10.4975 1.57085 8.99984 2.10742 7.71191C2.26673 7.32956 2.70652 7.1483 3.08887 7.30762C3.47091 7.467 3.65125 7.90591 3.49219 8.28809C3.02886 9.40006 2.75 10.7026 2.75 12C2.75 17.0858 6.91421 21.25 12 21.25C17.0858 21.25 21.25 17.0858 21.25 12C21.25 6.91421 17.0858 2.75 12 2.75C10.7026 2.75 9.40006 3.02886 8.28809 3.49219C7.90591 3.65125 7.467 3.47091 7.30762 3.08887C7.1483 2.70652 7.32956 2.26673 7.71191 2.10742C8.99984 1.57085 10.4975 1.25 12 1.25C17.9142 1.25 22.75 6.08579 22.75 12C22.75 17.9142 17.9142 22.75 12 22.75C6.08579 22.75 1.25 17.9142 1.25 12Z" fill="#1C252E"/>
<path d="M15.2505 12.0002C15.2505 10.1145 13.686 8.55016 11.8003 8.55005C9.91451 8.55005 8.3501 10.1145 8.3501 12.0002C8.35021 13.8859 9.91457 15.4504 11.8003 15.4504H15.2505V12.0002ZM16.7505 16.2004C16.7503 16.6143 16.4144 16.9502 16.0005 16.9504H11.8003C9.08614 16.9504 6.85021 14.7144 6.8501 12.0002C6.8501 9.28603 9.08608 7.05005 11.8003 7.05005C14.5144 7.05016 16.7505 9.2861 16.7505 12.0002V16.2004Z" fill="#1C252E"/>
<path d="M5.75 5C5.75 4.58579 5.41421 4.25 5 4.25C4.58579 4.25 4.25 4.58579 4.25 5C4.25 5.41421 4.58579 5.75 5 5.75C5.41421 5.75 5.75 5.41421 5.75 5ZM7.25 5C7.25 6.24264 6.24264 7.25 5 7.25C3.75736 7.25 2.75 6.24264 2.75 5C2.75 3.75736 3.75736 2.75 5 2.75C6.24264 2.75 7.25 3.75736 7.25 5Z" fill="#1C252E"/>
</svg>
