<svg width="24" height="24" viewBox="0 0 24 24" fill="none" xmlns="http://www.w3.org/2000/svg">
<path d="M14.8154 10.2617C14.8154 9.70595 14.2854 9.1308 13.6846 9.1308H9.75V11.3925H13.6846C14.3088 11.3925 14.8154 10.8859 14.8154 10.2617ZM16.3154 10.2617C16.3154 11.7143 15.1372 12.8925 13.6846 12.8925H9C8.58584 12.8925 8.25009 12.5567 8.25 12.1425V8.3808C8.25 7.96658 8.58579 7.6308 9 7.6308H13.6846C15.1606 7.6308 16.3154 8.92505 16.3154 10.2617Z" fill="#1C252E"/>
<path d="M15.75 14.0116C15.75 13.4766 15.223 12.8807 14.3535 12.8807H9.75V15.1425H14.3535C15.2229 15.1425 15.7499 14.5466 15.75 14.0116ZM17.25 14.0116C17.2499 15.5534 15.8609 16.6425 14.3535 16.6425H9C8.58584 16.6425 8.25009 16.3066 8.25 15.8925V12.1307C8.25 11.7165 8.58579 11.3807 9 11.3807H14.3535C15.861 11.3807 17.25 12.4697 17.25 14.0116Z" fill="#1C252E"/>
<path d="M11.5269 17.7617V15.8808C11.5269 15.4666 11.8626 15.1308 12.2769 15.1308C12.6911 15.1308 13.0269 15.4666 13.0269 15.8808V17.7617C13.0268 18.1758 12.691 18.5117 12.2769 18.5117C11.8627 18.5117 11.5269 18.1758 11.5269 17.7617Z" fill="#1C252E"/>
<path d="M9.18457 17.7617V15.8808C9.18457 15.4666 9.52036 15.1308 9.93457 15.1308C10.3488 15.1308 10.6846 15.4666 10.6846 15.8808V17.7617C10.6845 18.1758 10.3488 18.5117 9.93457 18.5117C9.52039 18.5117 9.18462 18.1758 9.18457 17.7617Z" fill="#1C252E"/>
<path d="M11.5269 8.38086V6.5C11.5269 6.08579 11.8626 5.75 12.2769 5.75C12.6911 5.75 13.0269 6.08579 13.0269 6.5V8.38086C13.0268 8.79503 12.691 9.13086 12.2769 9.13086C11.8627 9.13086 11.5269 8.79503 11.5269 8.38086Z" fill="#1C252E"/>
<path d="M9.18457 8.38086V6.5C9.18457 6.08579 9.52036 5.75 9.93457 5.75C10.3488 5.75 10.6846 6.08579 10.6846 6.5V8.38086C10.6845 8.79503 10.3488 9.13086 9.93457 9.13086C9.52039 9.13086 9.18462 8.79503 9.18457 8.38086Z" fill="#1C252E"/>
<path d="M10.7773 7.6308C11.1914 7.63102 11.5273 7.96672 11.5273 8.3808C11.5273 8.79487 11.1914 9.13057 10.7773 9.1308H7.5C7.08579 9.1308 6.75 8.79501 6.75 8.3808C6.75 7.96658 7.08579 7.6308 7.5 7.6308H10.7773Z" fill="#1C252E"/>
<path d="M10.7773 15.1308C11.1914 15.131 11.5273 15.4667 11.5273 15.8808C11.5273 16.2949 11.1914 16.6306 10.7773 16.6308H7.5C7.08579 16.6308 6.75 16.295 6.75 15.8808C6.75 15.4666 7.08579 15.1308 7.5 15.1308H10.7773Z" fill="#1C252E"/>
<path d="M21.25 12C21.25 6.89137 17.1086 2.75 12 2.75C6.89137 2.75 2.75 6.89137 2.75 12C2.75 17.1086 6.89137 21.25 12 21.25C17.1086 21.25 21.25 17.1086 21.25 12ZM22.75 12C22.75 17.9371 17.9371 22.75 12 22.75C6.06294 22.75 1.25 17.9371 1.25 12C1.25 6.06294 6.06294 1.25 12 1.25C17.9371 1.25 22.75 6.06294 22.75 12Z" fill="#1C252E"/>
</svg>
