<svg width="24" height="24" viewBox="0 0 24 24" fill="none" xmlns="http://www.w3.org/2000/svg">
<path d="M11.9984 1.4975C12.8078 1.4975 13.5764 1.88524 14.1254 2.58148L17.8529 7.23773C18.4092 7.92492 18.6174 8.75719 18.4447 9.54535C18.2722 10.3327 17.7359 11.0025 16.9477 11.3998L16.9457 11.4008L13.2162 13.2709L13.2104 13.2739C12.8349 13.4577 12.391 13.5297 11.9897 13.5297C11.5884 13.5297 11.1452 13.4577 10.7699 13.2739L10.7641 13.2709L7.0336 11.4008V11.3998C6.2445 11.0074 5.70713 10.3404 5.53457 9.55316C5.36179 8.76485 5.57148 7.93142 6.12539 7.24066L9.86465 2.58051C10.4181 1.88537 11.1886 1.49761 11.9984 1.4975ZM11.9984 2.9975C11.6872 2.99761 11.3337 3.14343 11.0375 3.51605L11.0346 3.51898L7.29532 8.17914C6.99923 8.54838 6.93318 8.92519 7.00039 9.23187C7.05916 9.49999 7.23226 9.77201 7.55508 9.97504L7.70352 10.058L7.70645 10.06L11.4301 11.9262L11.5316 11.9662C11.6481 12.0032 11.8071 12.0297 11.9897 12.0297C12.2333 12.0297 12.4356 11.9823 12.5502 11.9262L16.2729 10.06L16.4213 9.97601C16.7465 9.76895 16.9209 9.49323 16.9799 9.22406C17.047 8.91733 16.9805 8.54471 16.6869 8.18207L16.685 8.17914L12.9545 3.51898L12.9496 3.51312V3.51215C12.6591 3.14251 12.3092 2.9975 11.9984 2.9975Z" fill="#1C252E"/>
<path d="M11.25 7.55975V2.29999C11.25 1.88577 11.5858 1.54999 12 1.54999C12.4142 1.54999 12.75 1.88577 12.75 2.29999V7.55975C12.75 7.97397 12.4142 8.30975 12 8.30975C11.5858 8.30975 11.25 7.97397 11.25 7.55975Z" fill="#1C252E"/>
<path d="M11.6546 6.89397C11.907 6.7629 12.2173 6.78545 12.4505 6.96037L16.6497 10.1098C16.981 10.3583 17.0484 10.8282 16.8001 11.1596C16.5516 11.4909 16.0817 11.5584 15.7503 11.31L12.0003 8.49651L8.25031 11.31C7.91894 11.5585 7.44904 11.491 7.20051 11.1596C6.95204 10.8282 7.0186 10.3583 7.34992 10.1098L11.5501 6.96037L11.6546 6.89397Z" fill="#1C252E"/>
<path d="M14.9356 13.745C17.0939 12.7857 19.093 15.3901 17.5908 17.2245L14.1309 21.4549C13.5747 22.1353 12.8074 22.5096 12.0039 22.5096C11.2008 22.5096 10.4325 22.1356 9.87208 21.4579L9.86915 21.454L6.41895 17.2245L6.41993 17.2235C4.94632 15.4364 6.79586 12.9544 8.8711 13.6649L9.07325 13.744L9.07618 13.745L10.6846 14.4647H10.6856C11.468 14.8141 12.36 14.8377 13.167 14.5301L13.3272 14.4637L14.9336 13.745H14.9356ZM8.46387 15.1141C7.76756 14.8103 7.16588 15.5715 7.49805 16.1571L7.57813 16.2713L7.58106 16.2762L11.0283 20.5018L11.1426 20.6278C11.416 20.8985 11.7244 21.0096 12.0039 21.0096C12.3228 21.0096 12.6759 20.8652 12.9697 20.5057V20.5047L16.4297 16.2752V16.2743C16.9259 15.6689 16.266 14.7943 15.5449 15.1141L15.5459 15.1151L13.9365 15.8348L13.9336 15.8358C12.7782 16.3469 11.4741 16.3796 10.3057 15.9305L10.0742 15.8348L8.46387 15.1151V15.1141Z" fill="#1C252E"/>
</svg>
