<svg width="24" height="24" viewBox="0 0 24 24" fill="none" xmlns="http://www.w3.org/2000/svg">
<path d="M3.05005 12.0002C3.05005 7.09201 6.98008 3.05005 12.0002 3.05005C13.7273 3.05008 15.3655 3.48298 16.7932 4.36157C17.1458 4.57871 17.2554 5.04012 17.0383 5.39282C16.8213 5.74555 16.3598 5.8559 16.0071 5.63892C14.8349 4.91757 13.473 4.55008 12.0002 4.55005C7.82041 4.55005 4.55005 7.90848 4.55005 12.0002C4.55007 12.7326 4.64127 13.3635 4.82153 13.9944C4.93503 14.3925 4.70404 14.8074 4.30591 14.9211C3.90783 15.0348 3.49311 14.8044 3.37915 14.4065C3.15945 13.6375 3.05007 12.8677 3.05005 12.0002Z" fill="#1C252E"/>
<path d="M19.4497 12.1004C19.4497 11.3636 19.3579 10.624 19.1723 9.88168C19.0721 9.47992 19.3165 9.07294 19.7182 8.9725C20.1201 8.87207 20.527 9.11657 20.6274 9.5184C20.8418 10.376 20.9497 11.2373 20.9497 12.1004C20.9495 17.0084 17.0203 21.0494 12.0005 21.0496C10.2413 21.0496 8.60612 20.4998 7.20652 19.6385C6.85418 19.4213 6.74456 18.9599 6.9614 18.6073C7.17849 18.2545 7.64086 18.1441 7.99363 18.3612C9.19395 19.0998 10.5597 19.5496 12.0005 19.5496C16.18 19.5494 19.4495 16.1919 19.4497 12.1004Z" fill="#1C252E"/>
<path d="M21.6388 4.34289C22.0017 4.14336 22.4577 4.27588 22.6573 4.63879C22.8569 5.00171 22.7243 5.45775 22.3614 5.65734L2.36144 16.6573C1.99852 16.8569 1.54249 16.7243 1.34289 16.3614C1.14336 15.9985 1.27588 15.5425 1.63879 15.3429L21.6388 4.34289Z" fill="#1C252E"/>
<path d="M21.6388 7.84289C22.0017 7.64336 22.4577 7.77588 22.6573 8.13879C22.8569 8.50171 22.7243 8.95775 22.3614 9.15734L2.36144 20.1573C1.99852 20.3569 1.54249 20.2243 1.34289 19.8614C1.14336 19.4985 1.27588 19.0425 1.63879 18.8429L21.6388 7.84289Z" fill="#1C252E"/>
</svg>
