<svg width="24" height="24" viewBox="0 0 24 24" fill="none" xmlns="http://www.w3.org/2000/svg">
<path d="M21.25 12C21.25 6.89137 17.1086 2.75 12 2.75C6.89137 2.75 2.75 6.89137 2.75 12C2.75 17.1086 6.89137 21.25 12 21.25C17.1086 21.25 21.25 17.1086 21.25 12ZM22.75 12C22.75 17.9371 17.9371 22.75 12 22.75C6.06294 22.75 1.25 17.9371 1.25 12C1.25 6.06294 6.06294 1.25 12 1.25C17.9371 1.25 22.75 6.06294 22.75 12Z" fill="#1C252E"/>
<path d="M16.5 7.25C16.9142 7.25 17.25 7.58579 17.25 8V16C17.25 16.4142 16.9142 16.75 16.5 16.75H7.5C7.08579 16.75 6.75 16.4142 6.75 16C6.75 15.5858 7.08579 15.25 7.5 15.25H15.75V8.75H7.5C7.08579 8.75 6.75 8.41421 6.75 8C6.75 7.58579 7.08579 7.25 7.5 7.25H16.5Z" fill="#1C252E"/>
<path d="M11.75 8C11.75 7.58579 12.0858 7.25 12.5 7.25C12.9142 7.25 13.25 7.58579 13.25 8V12C13.25 12.4142 12.9142 12.75 12.5 12.75H7.5C7.08579 12.75 6.75 12.4142 6.75 12C6.75 11.5858 7.08579 11.25 7.5 11.25H11.75V8Z" fill="#1C252E"/>
</svg>
