<svg width="24" height="24" viewBox="0 0 24 24" fill="none" xmlns="http://www.w3.org/2000/svg">
<path d="M1.44995 5.19965C1.45024 4.24558 2.50941 3.61241 3.37866 4.08929L3.54956 4.19965L3.63159 4.27191L18.4324 19.1713C18.5779 19.3179 18.656 19.5186 18.6492 19.725C18.6423 19.9313 18.551 20.1255 18.3962 20.2621C16.5574 21.8847 14.0706 22.8575 11.3699 22.7495V22.7485C5.72725 22.6311 1.44995 17.7599 1.44995 12.1996V5.19965ZM2.94995 12.1996C2.94995 17.0342 6.66517 21.1591 11.4148 21.2504C11.4197 21.2505 11.4246 21.2502 11.4294 21.2504C13.4354 21.3307 15.2994 20.7102 16.7791 19.6362L2.94995 5.71234V12.1996Z" fill="#1C252E"/>
<path d="M20.9499 11.7003C20.9499 6.87073 17.2398 2.84166 12.5857 2.75015C12.5803 2.75004 12.5744 2.74939 12.5691 2.74917C10.653 2.66934 8.7974 3.2871 7.31612 4.36441L20.9499 18.1837V11.7003ZM22.4499 18.7003C22.4496 19.7179 21.2445 20.3705 20.3503 19.7003C20.3205 19.678 20.2924 19.6526 20.2663 19.6261L5.66573 4.82632C5.52112 4.67959 5.44278 4.47949 5.44991 4.27359C5.45713 4.06768 5.54932 3.87377 5.70382 3.73745C7.53925 2.118 10.0257 1.14157 12.6316 1.25015L12.6306 1.25112C18.1684 1.3687 22.4499 6.13546 22.4499 11.7003V18.7003Z" fill="#1C252E"/>
</svg>
