<svg width="24" height="24" viewBox="0 0 24 24" fill="none" xmlns="http://www.w3.org/2000/svg">
<path d="M10.5 3.20972V3.19995C10.5 2.37152 11.1716 1.69995 12 1.69995C12.8284 1.69995 13.5 2.37152 13.5 3.19995V3.20972C13.5 4.03814 12.8284 4.70972 12 4.70972C11.1716 4.70972 10.5 4.03814 10.5 3.20972Z" fill="#1C252E"/>
<path d="M10.5 7.70972V7.69995C10.5 6.87152 11.1716 6.19995 12 6.19995C12.8284 6.19995 13.5 6.87152 13.5 7.69995V7.70972C13.5 8.53814 12.8284 9.20972 12 9.20972C11.1716 9.20972 10.5 8.53814 10.5 7.70972Z" fill="#1C252E"/>
<path d="M10.5 11.7097V11.7C10.5 10.8715 11.1716 10.2 12 10.2C12.8284 10.2 13.5 10.8715 13.5 11.7V11.7097C13.5 12.5381 12.8284 13.2097 12 13.2097C11.1716 13.2097 10.5 12.5381 10.5 11.7097Z" fill="#1C252E"/>
<path d="M11 15.7097V15.7C11 15.1477 11.4477 14.7 12 14.7C12.5523 14.7 13 15.1477 13 15.7V15.7097C13 16.262 12.5523 16.7097 12 16.7097C11.4477 16.7097 11 16.262 11 15.7097Z" fill="#1C252E"/>
<path d="M11.25 19.2097V19.2C11.25 18.7857 11.5858 18.45 12 18.45C12.4142 18.45 12.75 18.7857 12.75 19.2V19.2097C12.75 19.6239 12.4142 19.9597 12 19.9597C11.5858 19.9597 11.25 19.6239 11.25 19.2097Z" fill="#1C252E"/>
<path d="M11.5 22.2097V22.2C11.5 21.9238 11.7239 21.7 12 21.7C12.2761 21.7 12.5 21.9238 12.5 22.2V22.2097C12.5 22.4859 12.2761 22.7097 12 22.7097C11.7239 22.7097 11.5 22.4859 11.5 22.2097Z" fill="#1C252E"/>
<path d="M2 7.70972V7.69995C2 6.87152 2.67157 6.19995 3.5 6.19995C4.32843 6.19995 5 6.87152 5 7.69995V7.70972C5 8.53814 4.32843 9.20972 3.5 9.20972C2.67157 9.20972 2 8.53814 2 7.70972Z" fill="#1C252E"/>
<path d="M19 7.70972V7.69995C19 6.87152 19.6716 6.19995 20.5 6.19995C21.3284 6.19995 22 6.87152 22 7.69995V7.70972C22 8.53814 21.3284 9.20972 20.5 9.20972C19.6716 9.20972 19 8.53814 19 7.70972Z" fill="#1C252E"/>
<path d="M19.5 11.7097V11.7C19.5 11.1477 19.9477 10.7 20.5 10.7C21.0523 10.7 21.5 11.1477 21.5 11.7V11.7097C21.5 12.262 21.0523 12.7097 20.5 12.7097C19.9477 12.7097 19.5 12.262 19.5 11.7097Z" fill="#1C252E"/>
<path d="M2.5 11.7097V11.7C2.5 11.1477 2.94772 10.7 3.5 10.7C4.05228 10.7 4.5 11.1477 4.5 11.7V11.7097C4.5 12.262 4.05228 12.7097 3.5 12.7097C2.94772 12.7097 2.5 12.262 2.5 11.7097Z" fill="#1C252E"/>
<path d="M19.75 14.7097V14.7C19.75 14.2857 20.0858 13.95 20.5 13.95C20.9142 13.95 21.25 14.2857 21.25 14.7V14.7097C21.25 15.1239 20.9142 15.4597 20.5 15.4597C20.0858 15.4597 19.75 15.1239 19.75 14.7097Z" fill="#1C252E"/>
<path d="M20 17.7097V17.7C20 17.4238 20.2239 17.2 20.5 17.2C20.7761 17.2 21 17.4238 21 17.7V17.7097C21 17.9859 20.7761 18.2097 20.5 18.2097C20.2239 18.2097 20 17.9859 20 17.7097Z" fill="#1C252E"/>
<path d="M2.75 14.7097V14.7C2.75 14.2857 3.08579 13.95 3.5 13.95C3.91421 13.95 4.25 14.2857 4.25 14.7V14.7097C4.25 15.1239 3.91421 15.4597 3.5 15.4597C3.08579 15.4597 2.75 15.1239 2.75 14.7097Z" fill="#1C252E"/>
<path d="M3 17.7097V17.7C3 17.4238 3.22386 17.2 3.5 17.2C3.77614 17.2 4 17.4238 4 17.7V17.7097C4 17.9859 3.77614 18.2097 3.5 18.2097C3.22386 18.2097 3 17.9859 3 17.7097Z" fill="#1C252E"/>
<path d="M6.30005 9.70972V9.69995C6.30005 8.87152 6.97162 8.19995 7.80005 8.19995C8.62848 8.19995 9.30005 8.87152 9.30005 9.69995V9.70972C9.30005 10.5381 8.62848 11.2097 7.80005 11.2097C6.97162 11.2097 6.30005 10.5381 6.30005 9.70972Z" fill="#1C252E"/>
<path d="M6.25 5.50977V5.5C6.25 4.67157 6.92157 4 7.75 4C8.57843 4 9.25 4.67157 9.25 5.5V5.50977C9.25 6.33819 8.57843 7.00977 7.75 7.00977C6.92157 7.00977 6.25 6.33819 6.25 5.50977Z" fill="#1C252E"/>
<path d="M14.7 9.70972V9.69995C14.7 8.87152 15.3715 8.19995 16.2 8.19995C17.0284 8.19995 17.7 8.87152 17.7 9.69995V9.70972C17.7 10.5381 17.0284 11.2097 16.2 11.2097C15.3715 11.2097 14.7 10.5381 14.7 9.70972Z" fill="#1C252E"/>
<path d="M14.75 5.50977V5.5C14.75 4.67157 15.4216 4 16.25 4C17.0784 4 17.75 4.67157 17.75 5.5V5.50977C17.75 6.33819 17.0784 7.00977 16.25 7.00977C15.4216 7.00977 14.75 6.33819 14.75 5.50977Z" fill="#1C252E"/>
<path d="M6.80005 13.7097V13.7C6.80005 13.1477 7.24776 12.7 7.80005 12.7C8.35233 12.7 8.80005 13.1477 8.80005 13.7V13.7097C8.80005 14.262 8.35233 14.7097 7.80005 14.7097C7.24776 14.7097 6.80005 14.262 6.80005 13.7097Z" fill="#1C252E"/>
<path d="M7.05005 16.7097V16.7C7.05005 16.2857 7.38584 15.95 7.80005 15.95C8.21426 15.95 8.55005 16.2857 8.55005 16.7V16.7097C8.55005 17.1239 8.21426 17.4597 7.80005 17.4597C7.38584 17.4597 7.05005 17.1239 7.05005 16.7097Z" fill="#1C252E"/>
<path d="M7.30005 19.7097V19.7C7.30005 19.4238 7.52391 19.2 7.80005 19.2C8.07619 19.2 8.30005 19.4238 8.30005 19.7V19.7097C8.30005 19.9859 8.07619 20.2097 7.80005 20.2097C7.52391 20.2097 7.30005 19.9859 7.30005 19.7097Z" fill="#1C252E"/>
<path d="M15.2 13.7097V13.7C15.2 13.1477 15.6477 12.7 16.2 12.7C16.7522 12.7 17.2 13.1477 17.2 13.7V13.7097C17.2 14.262 16.7522 14.7097 16.2 14.7097C15.6477 14.7097 15.2 14.262 15.2 13.7097Z" fill="#1C252E"/>
<path d="M15.45 16.7097V16.7C15.45 16.2857 15.7857 15.95 16.2 15.95C16.6142 15.95 16.95 16.2857 16.95 16.7V16.7097C16.95 17.1239 16.6142 17.4597 16.2 17.4597C15.7857 17.4597 15.45 17.1239 15.45 16.7097Z" fill="#1C252E"/>
<path d="M15.7 19.7097V19.7C15.7 19.4238 15.9238 19.2 16.2 19.2C16.4761 19.2 16.7 19.4238 16.7 19.7V19.7097C16.7 19.9859 16.4761 20.2097 16.2 20.2097C15.9238 20.2097 15.7 19.9859 15.7 19.7097Z" fill="#1C252E"/>
</svg>
