<svg width="24" height="24" viewBox="0 0 24 24" fill="none" xmlns="http://www.w3.org/2000/svg">
<path d="M20.75 10.2002C20.75 6.72136 17.8928 3.9502 14.5 3.9502H9.5C9.08579 3.9502 8.75 3.61441 8.75 3.2002C8.75 2.78598 9.08579 2.4502 9.5 2.4502H14.5C18.7072 2.4502 22.25 5.87903 22.25 10.2002C22.25 14.4074 18.8212 17.9502 14.5 17.9502H3.5C3.08579 17.9502 2.75 17.6144 2.75 17.2002C2.75 16.786 3.08579 16.4502 3.5 16.4502H14.5C17.9788 16.4502 20.75 13.593 20.75 10.2002Z" fill="#1C252E"/>
<path d="M16.7498 10.5005C16.7498 8.9147 15.3853 7.55029 13.7996 7.55029H3.19995C2.78574 7.55029 2.44995 7.21451 2.44995 6.80029C2.44995 6.38608 2.78574 6.05029 3.19995 6.05029H13.7996C16.2138 6.05029 18.2498 8.08627 18.2498 10.5005C18.2496 12.9146 16.2137 14.9507 13.7996 14.9507H7.99976C7.58576 14.9506 7.24997 14.6147 7.24976 14.2007C7.24976 13.7865 7.58563 13.4508 7.99976 13.4507H13.7996C15.3853 13.4507 16.7496 12.0862 16.7498 10.5005Z" fill="#1C252E"/>
<path d="M8.5 10.0503C8.91421 10.0503 9.25 10.3861 9.25 10.8003C9.25 11.2145 8.91421 11.5503 8.5 11.5503H5.5C5.08579 11.5503 4.75 11.2145 4.75 10.8003C4.75 10.3861 5.08579 10.0503 5.5 10.0503H8.5Z" fill="#1C252E"/>
<path d="M6.5 20.0503C6.91421 20.0503 7.25 20.3861 7.25 20.8003C7.25 21.2145 6.91421 21.5503 6.5 21.5503H2.5C2.08579 21.5503 1.75 21.2145 1.75 20.8003C1.75 20.3861 2.08579 20.0503 2.5 20.0503H6.5Z" fill="#1C252E"/>
</svg>
