<svg width="24" height="24" viewBox="0 0 24 24" fill="none" xmlns="http://www.w3.org/2000/svg">
<path d="M10.1497 14.7V13.0887C9.42904 12.4984 9.0501 11.5845 9.05005 10.7C9.05005 8.72689 10.8942 7.15087 12.9817 7.67266L13.0618 7.69219L13.135 7.7293C13.8336 8.07862 14.7437 8.81443 15.0227 9.90216C15.3707 11.1783 14.8942 12.3614 14.05 13.076V14.7C14.05 15.8539 13.0731 16.6502 12.0999 16.6502C10.946 16.6501 10.1498 15.6731 10.1497 14.7ZM10.55 10.7C10.5501 11.2711 10.8388 11.8011 11.2717 12.0486L11.6497 12.2645V14.7C11.6497 14.796 11.693 14.9147 11.7825 15.0096C11.8664 15.0984 11.9747 15.1501 12.0999 15.1502C12.196 15.1502 12.3154 15.1071 12.4104 15.0174C12.4992 14.9335 12.55 14.8252 12.55 14.7V12.284L12.9026 12.0643C13.4453 11.7251 13.7823 11.0515 13.5764 10.2967L13.5745 10.2899L13.5725 10.282C13.453 9.80412 13.0098 9.36825 12.5393 9.11212C11.4607 8.89075 10.55 9.69735 10.55 10.7Z" fill="#1C252E"/>
<path d="M1.25 12C1.25 6.08579 6.08579 1.25 12 1.25C16.8406 1.25 20.918 4.47477 22.3135 8.76855C22.4412 9.16227 22.2256 9.58479 21.832 9.71289C21.4381 9.84092 21.0147 9.62538 20.8867 9.23145C19.6821 5.52539 16.1593 2.75 12 2.75C6.91421 2.75 2.75 6.91421 2.75 12C2.75 17.0858 6.91421 21.25 12 21.25C16.1709 21.25 19.6749 18.5656 20.7803 14.7891C20.8967 14.3917 21.3135 14.1639 21.7109 14.2803C22.1083 14.3967 22.3361 14.8135 22.2197 15.2109C20.925 19.6342 16.829 22.75 12 22.75C6.08579 22.75 1.25 17.9142 1.25 12Z" fill="#1C252E"/>
</svg>
