<svg width="24" height="24" viewBox="0 0 24 24" fill="none" xmlns="http://www.w3.org/2000/svg">
<path d="M11.956 4.45099C12.2673 4.43276 12.5573 4.60956 12.6845 4.89435L15.1845 10.494C15.3501 10.8648 15.1903 11.3006 14.8241 11.4764L9.82414 13.8758C9.5551 14.0049 9.23546 13.9625 9.00968 13.7674C8.78387 13.5721 8.69507 13.2614 8.7841 12.9764L11.2841 4.97639L11.3271 4.86896C11.4449 4.62934 11.6836 4.46698 11.956 4.45099ZM10.7294 11.7772L13.5175 10.4393L12.1239 7.31623L10.7294 11.7772Z" fill="#1C252E"/>
<path d="M9.66487 9.52928C10.0353 9.34434 10.4856 9.49486 10.6707 9.86521C10.8557 10.2356 10.7051 10.6859 10.3348 10.8711L7.94514 12.0654L13.3397 13.8896C13.3723 13.9007 13.4046 13.9143 13.4354 13.9297L13.4735 13.9482L16.1346 12.4101L13.8797 11.7168C13.4838 11.595 13.2608 11.1752 13.3826 10.7793C13.5045 10.3836 13.9244 10.1616 14.3201 10.2832L18.2205 11.4834C18.5056 11.5711 18.7114 11.8198 18.7449 12.1162C18.7783 12.4125 18.633 12.7004 18.3748 12.8496L13.8748 15.4492C13.6567 15.5752 13.3902 15.5833 13.1649 15.4707L12.8084 15.2929L5.7596 12.9111C5.47283 12.8142 5.27268 12.5539 5.25178 12.2519C5.23096 11.9499 5.39406 11.6647 5.66487 11.5293L9.66487 9.52928Z" fill="#1C252E"/>
<path d="M9.14145 12.9413C9.50535 12.7435 9.96121 12.8782 10.159 13.242L11.8338 16.3241L12.2879 14.9637C12.4189 14.5708 12.8442 14.3581 13.2372 14.4891C13.6299 14.6201 13.8425 15.0446 13.7118 15.4374L12.7118 18.4374C12.6174 18.7206 12.3636 18.9207 12.0663 18.9471C11.7687 18.9734 11.4833 18.8209 11.3407 18.5584L8.84067 13.9588C8.6429 13.5949 8.7776 13.1391 9.14145 12.9413Z" fill="#1C252E"/>
<path d="M21.25 12C21.25 6.89137 17.1086 2.75 12 2.75C6.89137 2.75 2.75 6.89137 2.75 12C2.75 17.1086 6.89137 21.25 12 21.25C17.1086 21.25 21.25 17.1086 21.25 12ZM22.75 12C22.75 17.9371 17.9371 22.75 12 22.75C6.06294 22.75 1.25 17.9371 1.25 12C1.25 6.06294 6.06294 1.25 12 1.25C17.9371 1.25 22.75 6.06294 22.75 12Z" fill="#1C252E"/>
</svg>
