<svg width="24" height="24" viewBox="0 0 24 24" fill="none" xmlns="http://www.w3.org/2000/svg">
<path d="M14.0995 5.6499C14.3324 5.6499 14.5522 5.75825 14.6942 5.94287C14.8361 6.12741 14.8848 6.3673 14.8251 6.59229L12.9755 13.5503H16.2001C16.422 13.5504 16.6328 13.6487 16.7753 13.8188C16.9175 13.989 16.9773 14.2138 16.9384 14.4321L16.4384 17.2319C16.3744 17.5895 16.0633 17.85 15.7001 17.8501H7.99988C7.76524 17.8501 7.54402 17.7402 7.40222 17.5532C7.26043 17.3662 7.21484 17.1229 7.2782 16.897L10.2782 6.19775L10.3212 6.08057C10.4431 5.82105 10.7058 5.6499 10.9999 5.6499H14.0995ZM8.98816 16.3501H15.0721L15.3046 15.0503H11.9999C11.767 15.0503 11.5471 14.9419 11.4052 14.7573C11.2632 14.5727 11.2154 14.332 11.2753 14.1069L13.1249 7.1499H11.5682L8.98816 16.3501Z" fill="#1C252E"/>
<path d="M14.8567 10.2637C15.2633 10.1846 15.6574 10.45 15.7366 10.8565C15.8158 11.263 15.5503 11.657 15.1439 11.7364L7.44366 13.2364C7.03713 13.3156 6.64303 13.0501 6.56378 12.6436C6.48458 12.2371 6.75004 11.843 7.15655 11.7637L14.8567 10.2637Z" fill="#1C252E"/>
<path d="M21.25 12C21.25 6.89137 17.1086 2.75 12 2.75C6.89137 2.75 2.75 6.89137 2.75 12C2.75 17.1086 6.89137 21.25 12 21.25C17.1086 21.25 21.25 17.1086 21.25 12ZM22.75 12C22.75 17.9371 17.9371 22.75 12 22.75C6.06294 22.75 1.25 17.9371 1.25 12C1.25 6.06294 6.06294 1.25 12 1.25C17.9371 1.25 22.75 6.06294 22.75 12Z" fill="#1C252E"/>
</svg>
