<svg width="24" height="24" viewBox="0 0 24 24" fill="none" xmlns="http://www.w3.org/2000/svg">
<path d="M5.8501 12.1001C5.8501 8.7039 8.56849 5.8501 12.0005 5.8501C13.3576 5.85018 14.7215 6.30011 15.7603 7.10791C16.0872 7.36221 16.1464 7.83368 15.8921 8.16064C15.6378 8.48755 15.1663 8.54677 14.8394 8.29248C14.0783 7.70057 13.043 7.35019 12.0005 7.3501C9.43249 7.3501 7.3501 9.4963 7.3501 12.1001C7.3501 14.6859 9.4147 16.7505 12.0005 16.7505C13.4389 16.7503 14.8293 15.9822 15.7056 14.8433C15.9581 14.515 16.429 14.4531 16.7573 14.7056C17.0856 14.9581 17.1473 15.429 16.895 15.7573C15.7714 17.218 13.9616 18.2504 12.0005 18.2505C8.58627 18.2505 5.8501 15.5143 5.8501 12.1001Z" fill="#1C252E"/>
<path d="M17.8503 10.2002C17.8503 9.95173 17.6486 9.75011 17.4001 9.75C17.1516 9.75 16.95 9.95167 16.95 10.2002C16.9501 10.4486 17.1517 10.6504 17.4001 10.6504C17.6485 10.6503 17.8502 10.4486 17.8503 10.2002ZM19.3503 10.2002C19.3502 11.277 18.4769 12.1503 17.4001 12.1504C16.3233 12.1504 15.4501 11.2771 15.45 10.2002C15.45 9.12324 16.3232 8.25 17.4001 8.25C18.477 8.25011 19.3503 9.1233 19.3503 10.2002Z" fill="#1C252E"/>
<path d="M21.25 12C21.25 6.89137 17.1086 2.75 12 2.75C6.89137 2.75 2.75 6.89137 2.75 12C2.75 17.1086 6.89137 21.25 12 21.25C17.1086 21.25 21.25 17.1086 21.25 12ZM22.75 12C22.75 17.9371 17.9371 22.75 12 22.75C6.06294 22.75 1.25 17.9371 1.25 12C1.25 6.06294 6.06294 1.25 12 1.25C17.9371 1.25 22.75 6.06294 22.75 12Z" fill="#1C252E"/>
</svg>
