<svg width="24" height="24" viewBox="0 0 24 24" fill="none" xmlns="http://www.w3.org/2000/svg">
<path d="M15.7001 2.25C15.9138 2.25003 16.129 2.30087 16.3104 2.3916C16.4008 2.43678 16.5137 2.50763 16.6141 2.61523C16.6724 2.67768 16.7454 2.77509 16.7948 2.9043L23.4247 14.4814C23.5788 14.6904 23.6249 14.9268 23.6249 15.1123C23.6249 15.3366 23.5627 15.5511 23.4706 15.7354L23.4491 15.7783L23.4218 15.8184L19.7225 21.3184L19.6815 21.3789L19.6298 21.4307C19.5216 21.5389 19.2291 21.8495 18.7001 21.8496H12.2001C11.6705 21.8496 11.3774 21.5386 11.2694 21.4307L11.2157 21.377L11.1737 21.3125L8.31141 16.9736L6.07215 20.7363C5.85945 21.2179 5.37546 21.375 5.03699 21.375C4.66598 21.3749 4.23633 21.2076 3.97547 20.8164L0.576055 15.7158L0.549687 15.6768L0.52918 15.6357C0.323607 15.2246 0.323607 14.7754 0.52918 14.3643L0.550664 14.3213L0.578008 14.2812L4.22059 8.86426C4.26894 8.75472 4.33354 8.6711 4.38562 8.61523C4.48606 8.50763 4.59899 8.43678 4.68934 8.3916C4.87079 8.30087 5.086 8.25003 5.29969 8.25H10.1796L7.75574 4.18359L7.74109 4.16016L7.72937 4.13574C7.25107 3.17913 8.00891 2.25 8.90027 2.25H15.7001ZM12.8202 9.75H12.7723L15.1473 13.8223H15.1454C15.3907 14.2204 15.3639 14.6839 15.2059 15.0264C15.0359 15.3949 14.6524 15.75 14.0995 15.75H9.29773L9.3241 15.7842L9.32605 15.7871L12.3348 20.3496H18.5663L22.0721 15.1377L15.5507 3.75H9.24305L12.8202 9.75ZM1.90125 15L4.98621 19.6279L7.25574 15.8164L7.26551 15.7998L7.27625 15.7842C7.28417 15.7723 7.29344 15.7615 7.30164 15.75H7.20789L10.6366 9.75H5.43348L1.90125 15ZM9.79285 14.25H13.661L11.7059 10.9004L9.79285 14.25Z" fill="#1C252E"/>
</svg>
