<svg width="24" height="24" viewBox="0 0 24 24" fill="none" xmlns="http://www.w3.org/2000/svg">
<path d="M13 7.75C13.4142 7.75 13.75 8.08579 13.75 8.5C13.75 8.91421 13.4142 9.25 13 9.25H2C1.58579 9.25 1.25 8.91421 1.25 8.5C1.25 8.08579 1.58579 7.75 2 7.75H13Z" fill="#1C252E"/>
<path d="M8 15.75C8.41421 15.75 8.75 16.0858 8.75 16.5C8.75 16.9142 8.41421 17.25 8 17.25H6C5.58579 17.25 5.25 16.9142 5.25 16.5C5.25 16.0858 5.58579 15.75 6 15.75H8Z" fill="#1C252E"/>
<path d="M14.5 15.75C14.9142 15.75 15.25 16.0858 15.25 16.5C15.25 16.9142 14.9142 17.25 14.5 17.25H10.5C10.0858 17.25 9.75 16.9142 9.75 16.5C9.75 16.0858 10.0858 15.75 10.5 15.75H14.5Z" fill="#1C252E"/>
<path d="M1.25 16.1104V7.88965C1.25003 6.13876 1.45411 4.74287 2.36133 3.8457C3.26581 2.9514 4.67142 2.75 6.44043 2.75H13.2803C13.6944 2.75015 14.0303 3.08588 14.0303 3.5C14.0303 3.91412 13.6944 4.24985 13.2803 4.25H6.44043C4.65944 4.25 3.84403 4.48891 3.41602 4.91211C2.99101 5.33237 2.75003 6.13114 2.75 7.88965V16.1104C2.75003 17.8689 2.99101 18.6676 3.41602 19.0879C3.84403 19.5111 4.65944 19.75 6.44043 19.75H17.5596C19.3406 19.75 20.156 19.5111 20.584 19.0879C21.009 18.6676 21.25 17.8689 21.25 16.1104V11.3301C21.25 10.9159 21.5858 10.5801 22 10.5801C22.4142 10.5801 22.75 10.9159 22.75 11.3301V16.1104C22.75 17.8612 22.5459 19.2571 21.6387 20.1543C20.7342 21.0486 19.3286 21.25 17.5596 21.25H6.44043C4.67142 21.25 3.26581 21.0486 2.36133 20.1543C1.45411 19.2571 1.25003 17.8612 1.25 16.1104Z" fill="#1C252E"/>
<path d="M20.6299 4.5C20.6299 4.26714 20.3791 4 20.1299 4H17.75V5H20.1299C20.4057 5 20.6299 4.77579 20.6299 4.5ZM22.1299 4.5C22.1299 5.60421 21.2341 6.5 20.1299 6.5H17C16.5858 6.5 16.25 6.16421 16.25 5.75V3.25C16.25 2.83579 16.5858 2.5 17 2.5H20.1299C21.2607 2.5 22.1299 3.49286 22.1299 4.5Z" fill="#1C252E"/>
<path d="M21.25 7C21.25 6.81564 21.0436 6.50014 20.5703 6.5H17.75V7.5H20.5703C21.0436 7.49986 21.25 7.18436 21.25 7ZM22.75 7C22.75 8.19549 21.6767 8.99985 20.5703 9H17C16.5858 9 16.25 8.66421 16.25 8.25V5.75C16.25 5.33579 16.5858 5 17 5H20.5703C21.6767 5.00015 22.75 5.80451 22.75 7Z" fill="#1C252E"/>
<path d="M18.01 9.5V8.25C18.01 7.83579 18.3458 7.5 18.76 7.5C19.1742 7.5 19.51 7.83579 19.51 8.25V9.5C19.51 9.91421 19.1742 10.25 18.76 10.25C18.3458 10.25 18.01 9.91421 18.01 9.5Z" fill="#1C252E"/>
<path d="M18.01 3.25V2C18.01 1.58579 18.3458 1.25 18.76 1.25C19.1742 1.25 19.51 1.58579 19.51 2V3.25C19.51 3.66421 19.1742 4 18.76 4C18.3458 4 18.01 3.66421 18.01 3.25Z" fill="#1C252E"/>
<path d="M18.1904 2.5C18.6044 2.50023 18.9404 2.83593 18.9404 3.25C18.9404 3.66407 18.6044 3.99977 18.1904 4H16C15.5858 4 15.25 3.66421 15.25 3.25C15.25 2.83579 15.5858 2.5 16 2.5H18.1904Z" fill="#1C252E"/>
<path d="M18.1904 7.5C18.6044 7.50023 18.9404 7.83593 18.9404 8.25C18.9404 8.66407 18.6044 8.99977 18.1904 9H16C15.5858 9 15.25 8.66421 15.25 8.25C15.25 7.83579 15.5858 7.5 16 7.5H18.1904Z" fill="#1C252E"/>
</svg>
