<svg width="24" height="24" viewBox="0 0 24 24" fill="none" xmlns="http://www.w3.org/2000/svg">
<path d="M20.2996 2.30005C21.128 2.30005 21.7996 2.97162 21.7996 3.80005C21.7996 4.62848 21.128 5.30005 20.2996 5.30005H20.2C19.3715 5.30005 18.7 4.62848 18.7 3.80005C18.7 2.97162 19.3715 2.30005 20.2 2.30005H20.2996Z" fill="#1C252E"/>
<path d="M3.79956 18.7C4.62799 18.7 5.29956 19.3715 5.29956 20.2C5.29956 21.0284 4.62799 21.7 3.79956 21.7H3.69995C2.87152 21.7 2.19995 21.0284 2.19995 20.2C2.19995 19.3715 2.87152 18.7 3.69995 18.7H3.79956Z" fill="#1C252E"/>
<path d="M4.25 12C4.25 7.68579 7.68579 4.25 12 4.25C13.4583 4.25 14.7818 4.6997 15.959 5.3418C16.3226 5.54014 16.4571 5.99574 16.2588 6.35938C16.0605 6.72293 15.6048 6.8564 15.2412 6.6582C14.2184 6.10031 13.1417 5.75 12 5.75C8.51421 5.75 5.75 8.51421 5.75 12C5.75 13.1515 6.10627 14.3289 6.6582 15.3408C6.85652 15.7044 6.72287 16.16 6.35938 16.3584C5.99588 16.5567 5.54027 16.4229 5.3418 16.0596C4.69376 14.8715 4.25 13.4485 4.25 12Z" fill="#1C252E"/>
<path d="M18.2503 12.0002C18.2503 10.8488 17.8939 9.67127 17.3421 8.65941C17.1438 8.29581 17.2774 7.84021 17.6409 7.64183C18.0045 7.44352 18.4601 7.57717 18.6585 7.94066C19.3065 9.12872 19.7503 10.5518 19.7503 12.0002C19.7502 16.3143 16.3144 19.7501 12.0003 19.7502C10.4839 19.7502 9.13824 19.4223 7.89776 18.633C7.5483 18.4107 7.44491 17.9464 7.66729 17.5969C7.88971 17.2478 8.35311 17.1452 8.70244 17.3674C9.66186 17.978 10.7169 18.2502 12.0003 18.2502C15.4859 18.2501 18.2502 15.4859 18.2503 12.0002Z" fill="#1C252E"/>
</svg>
