<svg width="24" height="24" viewBox="0 0 24 24" fill="none" xmlns="http://www.w3.org/2000/svg">
<path d="M8.10254 2.01494C11.977 1.24004 17.1812 1.23405 22.3857 4.35673L22.75 4.57548V5.04228C22.7496 5.06699 22.7484 5.10284 22.7471 5.14775C22.7444 5.23753 22.7398 5.36705 22.7295 5.53154C22.7089 5.86093 22.6678 6.33271 22.5869 6.91533C22.4251 8.08038 22.1016 9.69467 21.4561 11.5022C20.164 15.1199 17.5715 19.5314 12.3857 22.6429L12.0332 22.8548L11.665 22.6712L12 22.0003L11.6641 22.6702H11.6631C11.6624 22.6698 11.6612 22.6688 11.6602 22.6683C11.6581 22.6672 11.6555 22.666 11.6523 22.6644C11.6459 22.6611 11.6371 22.6564 11.626 22.6507C11.6036 22.639 11.5715 22.6226 11.5312 22.6009C11.4508 22.5574 11.336 22.4932 11.1914 22.4085C10.9024 22.2392 10.4946 21.9865 10.0078 21.6458C9.03479 20.9647 7.74016 19.9285 6.44531 18.5042C3.85116 15.6506 1.25009 11.2285 1.25 5.00029V4.57548L1.61426 4.35673L2 5.00029C1.64668 4.41142 1.61743 4.36111 1.61523 4.35673V4.35576C1.61587 4.35538 1.61726 4.35532 1.61816 4.35478C1.62013 4.35361 1.62279 4.35178 1.62598 4.3499C1.63234 4.34614 1.64118 4.34076 1.65234 4.33427C1.67469 4.32129 1.70698 4.30264 1.74805 4.27959C1.83033 4.23341 1.9499 4.16806 2.10352 4.08818C2.41117 3.92821 2.85753 3.70938 3.42285 3.46709C4.55318 2.98266 6.16624 2.40224 8.10254 2.01494ZM21.2314 5.42021C16.5644 2.76668 11.9265 2.77988 8.39746 3.48564C6.58409 3.84832 5.07172 4.39298 4.01465 4.84599C3.48667 5.07227 3.07311 5.27458 2.79492 5.41923C2.78131 5.42632 2.76785 5.43295 2.75488 5.43974C2.87301 10.9792 5.2105 14.9167 7.55469 17.4954C8.75962 18.8208 9.96527 19.7849 10.8672 20.4163C11.3177 20.7316 11.6914 20.9635 11.9492 21.1145C11.959 21.1203 11.969 21.1256 11.9785 21.1311C16.55 18.2579 18.8669 14.2931 20.0439 10.9974C20.6483 9.3051 20.9499 7.79414 21.1006 6.70927C21.1758 6.16744 21.213 5.73331 21.2314 5.43779C21.2318 5.43199 21.2311 5.42591 21.2314 5.42021Z" fill="#1C252E"/>
<path d="M16.5765 2.05986C16.9851 1.99177 17.3717 2.26847 17.4398 2.67705C17.5077 3.08545 17.2319 3.47213 16.8236 3.54033L16.2415 3.63603C16.2378 3.63695 16.2335 3.63874 16.2288 3.63994C16.2016 3.64692 16.1582 3.65962 16.1009 3.67705C15.9855 3.71211 15.8158 3.76926 15.6126 3.85576C15.2036 4.02988 14.6729 4.31555 14.1741 4.76006C13.2133 5.61647 12.2826 7.13521 12.7396 9.87724C12.7783 10.1104 12.7048 10.3481 12.5413 10.5188L12.0003 10.0003L12.5413 10.5198H12.5403L12.5325 10.5276C12.5279 10.5324 12.5218 10.5392 12.514 10.5472C12.4983 10.5631 12.4758 10.5849 12.4476 10.6126C12.391 10.6681 12.3098 10.7461 12.2064 10.8401C11.9998 11.028 11.7027 11.2828 11.3362 11.555C10.6125 12.0924 9.57436 12.7311 8.39582 13.0276C7.19664 13.3292 5.82086 13.2805 4.52863 12.389C3.26241 11.5152 2.18385 9.90543 1.38312 7.32256C1.26047 6.92692 1.4826 6.50673 1.87824 6.38408C2.2738 6.26161 2.69409 6.48267 2.81672 6.87822C3.56585 9.29465 4.49977 10.547 5.38019 11.1546C6.23484 11.7443 7.14129 11.796 8.02961 11.5726C8.93834 11.344 9.79372 10.8321 10.4417 10.3509C10.7609 10.1138 11.0192 9.89205 11.1966 9.73076C11.1984 9.72913 11.1997 9.72652 11.2015 9.7249C10.8106 6.69857 11.8924 4.7841 13.1761 3.63994C13.8272 3.0597 14.5089 2.69548 15.0247 2.47588C15.2838 2.36561 15.5048 2.29002 15.6644 2.2415C15.7443 2.21721 15.8097 2.19987 15.8568 2.18779C15.8802 2.18177 15.8991 2.17651 15.9134 2.17314C15.9204 2.1715 15.9263 2.17029 15.931 2.16924C15.9333 2.1687 15.9361 2.16865 15.9378 2.16826L15.9398 2.16728H15.9407C15.9412 2.16719 15.9416 2.16699 16.0755 2.7874L15.9417 2.16728C15.9533 2.16479 15.9652 2.16239 15.9769 2.16045L16.5765 2.05986ZM16.2581 3.63213L16.2591 3.6331H16.2601L16.2611 3.63213C16.2609 3.63216 16.2598 3.63173 16.2581 3.63213Z" fill="#1C252E"/>
<path d="M11.3106 9.70415C11.4739 9.32367 11.9153 9.14747 12.2959 9.31059C16.0163 10.9051 17.3074 13.2417 17.5694 15.2793C17.6964 16.2674 17.576 17.1428 17.4268 17.7676C17.3518 18.0814 17.2683 18.3368 17.2022 18.5166C17.1691 18.6067 17.1399 18.6783 17.1182 18.7295C17.1074 18.7551 17.0987 18.7758 17.0918 18.7911C17.0885 18.7986 17.0853 18.8047 17.0831 18.8096C17.0819 18.8121 17.081 18.8147 17.0801 18.8165L17.0791 18.8184L17.0782 18.8194C17.0737 18.8178 17.0222 18.7939 16.4004 18.5L17.0782 18.8204C16.9011 19.1948 16.4536 19.3548 16.0791 19.1778C15.706 19.0011 15.5461 18.5564 15.7207 18.1827C15.7208 18.1825 15.7213 18.1816 15.7217 18.1807V18.1797L15.7227 18.1778C15.7253 18.172 15.7299 18.1609 15.7364 18.1456C15.7494 18.1148 15.7697 18.0653 15.794 17.9991C15.8427 17.8665 15.9084 17.6685 15.9678 17.42C16.0873 16.9198 16.179 16.2324 16.0811 15.4707C15.8931 14.0084 14.9836 12.095 11.7041 10.6895C11.3237 10.5262 11.1475 10.0848 11.3106 9.70415Z" fill="#1C252E"/>
</svg>
