<svg width="24" height="24" viewBox="0 0 24 24" fill="none" xmlns="http://www.w3.org/2000/svg">
<path d="M21.25 8.5C21.25 5.32421 18.6758 2.75 15.5 2.75C12.3716 2.75 9.82811 5.24806 9.75293 8.3584C12.7488 8.88118 15.1174 11.2504 15.6406 14.2461C18.7514 14.1714 21.25 11.6288 21.25 8.5ZM22.75 8.5C22.75 12.5042 19.5042 15.75 15.5 15.75C15.3049 15.75 15.1037 15.7384 14.9355 15.7285C14.5619 15.7063 14.2619 15.4122 14.2324 15.0391C14.0114 12.2367 11.7633 9.98858 8.96094 9.76758C8.58778 9.7381 8.29368 9.43808 8.27148 9.06445C8.26159 8.89626 8.25 8.69505 8.25 8.5C8.25 4.49579 11.4958 1.25 15.5 1.25C19.5042 1.25 22.75 4.49579 22.75 8.5Z" fill="#1C252E"/>
<path d="M14.2324 15.0391L14.2061 14.7783C13.871 12.1002 11.679 9.98421 8.9668 9.76758C8.7985 9.75771 8.64236 9.75 8.5 9.75C5.32421 9.75 2.75 12.3242 2.75 15.5C2.75 18.6758 5.32421 21.25 8.5 21.25C11.6758 21.25 14.25 18.6758 14.25 15.5C14.25 15.3593 14.2421 15.2051 14.2324 15.0391ZM15.75 15.5C15.75 19.5042 12.5042 22.75 8.5 22.75C4.49579 22.75 1.25 19.5042 1.25 15.5C1.25 11.4958 4.49579 8.25 8.5 8.25C8.59749 8.25 8.69642 8.25275 8.79199 8.25684L9.06445 8.27148L9.0791 8.27246C12.6167 8.55153 15.4485 11.3833 15.7275 14.9209C15.7279 14.9257 15.7282 14.9307 15.7285 14.9355C15.7384 15.1037 15.75 15.3049 15.75 15.5Z" fill="#1C252E"/>
<path d="M5.58984 1.25C7.15992 1.25 7.91108 3.14273 6.83496 4.23633L6.83008 4.24023L4.24023 6.83008C3.13531 7.935 1.25 7.14456 1.25 5.58984V3C1.25 2.03579 2.03579 1.25 3 1.25H5.58984ZM2.75 5.58984C2.75 5.81513 3.02461 5.92461 3.17969 5.76953L5.76562 3.18359C5.84301 3.10478 5.85864 3.00438 5.81738 2.9043C5.77687 2.80634 5.69935 2.75 5.58984 2.75H3C2.86421 2.75 2.75 2.86421 2.75 3V5.58984Z" fill="#1C252E"/>
<path d="M21.2503 18.4099C21.2502 18.1848 20.9757 18.0755 20.8206 18.2302L18.2346 20.8162L18.1878 20.8787C18.1524 20.9449 18.1509 21.0203 18.1819 21.0955C18.2224 21.1937 18.3008 21.2498 18.4104 21.2498H21.0003C21.1359 21.2496 21.2503 21.1355 21.2503 20.9998V18.4099ZM22.7503 20.9998C22.7503 21.9639 21.9643 22.7496 21.0003 22.7498H18.4104C16.8405 22.7498 16.0895 20.8581 17.1653 19.7644L17.1692 19.7595L19.76 17.1697C20.865 16.0651 22.7502 16.8554 22.7503 18.4099V20.9998Z" fill="#1C252E"/>
</svg>
