<svg width="24" height="24" viewBox="0 0 24 24" fill="none" xmlns="http://www.w3.org/2000/svg">
<path d="M21.2497 9.5C21.2497 7.88853 20.7908 6.59051 19.9538 5.70117C19.124 4.81964 17.8383 4.25 15.9997 4.25H7.69307L7.04952 6.9502H14.6999C15.9329 6.9502 16.9182 7.28945 17.5808 8.02148C18.2303 8.73943 18.4499 9.70497 18.4499 10.7002V10.9004C18.4498 12.5812 17.9878 14.1105 16.948 15.2246C15.8997 16.3475 14.3568 16.9502 12.4001 16.9502H5.58174L4.86592 19.75H13.4997C16.0856 19.75 18.0009 18.9319 19.2712 17.6064C20.5466 16.2756 21.2497 14.3519 21.2497 12V9.5ZM22.7497 12C22.7497 14.648 21.9537 16.9744 20.3542 18.6436C18.7495 20.318 16.4138 21.25 13.4997 21.25H3.9001C3.66843 21.25 3.4494 21.143 3.30733 20.96C3.16541 20.7771 3.11626 20.5387 3.17354 20.3145L4.27315 16.0137C4.35815 15.682 4.65737 15.4504 4.99971 15.4502H12.4001C14.0432 15.4502 15.1505 14.9531 15.8523 14.2012C16.5623 13.4404 16.9498 12.3192 16.9499 10.9004V10.7002C16.9499 9.89567 16.7697 9.3604 16.4694 9.02832C16.182 8.71065 15.6667 8.4502 14.6999 8.4502H6.1003C5.87084 8.4502 5.65366 8.34509 5.51143 8.16504C5.3692 7.98497 5.31766 7.7496 5.3708 7.52637L6.3708 3.32617L6.41084 3.2041C6.52735 2.93236 6.79657 2.75 7.1003 2.75H15.9997C18.161 2.75 19.8764 3.4305 21.0466 4.67383C22.2093 5.90946 22.7497 7.61165 22.7497 9.5V12Z" fill="#1C252E"/>
<path d="M11.5 9.75C11.7329 9.75 11.9527 9.85824 12.0947 10.043C12.2366 10.2277 12.2846 10.4682 12.2246 10.6934L11.8242 12.1934C11.5325 13.4376 10.4221 14.2499 9.20015 14.25H1.99995C1.76697 14.25 1.54718 14.1418 1.40522 13.957C1.26327 13.7723 1.2153 13.5318 1.27534 13.3066L1.67573 11.8066C1.96738 10.5624 3.07782 9.75009 4.29975 9.75H11.5ZM4.29975 11.25C3.73193 11.2501 3.25138 11.6249 3.13179 12.1631C3.12954 12.1732 3.12761 12.1834 3.12495 12.1934L2.97651 12.75H9.20015C9.76797 12.7499 10.2485 12.3751 10.3681 11.8369L10.375 11.8066L10.5234 11.25H4.29975Z" fill="#1C252E"/>
</svg>
