<svg width="24" height="24" viewBox="0 0 24 24" fill="none" xmlns="http://www.w3.org/2000/svg">
<path d="M21.25 9C21.25 5.54822 18.4518 2.75 15 2.75C11.5482 2.75 8.75 5.54822 8.75 9C8.75 12.4518 11.5482 15.25 15 15.25C18.4518 15.25 21.25 12.4518 21.25 9ZM22.75 9C22.75 13.2802 19.2802 16.75 15 16.75C10.7198 16.75 7.25 13.2802 7.25 9C7.25 4.71979 10.7198 1.25 15 1.25C19.2802 1.25 22.75 4.71979 22.75 9Z" fill="#1C252E"/>
<path d="M15.25 15C15.25 11.5482 12.4518 8.75 9 8.75C5.54822 8.75 2.75 11.5482 2.75 15C2.75 18.4518 5.54822 21.25 9 21.25C12.4518 21.25 15.25 18.4518 15.25 15ZM16.75 15C16.75 19.2802 13.2802 22.75 9 22.75C4.71979 22.75 1.25 19.2802 1.25 15C1.25 10.7198 4.71979 7.25 9 7.25C13.2802 7.25 16.75 10.7198 16.75 15Z" fill="#1C252E"/>
</svg>
