<svg width="24" height="24" viewBox="0 0 24 24" fill="none" xmlns="http://www.w3.org/2000/svg">
<path d="M14.7001 2.3501C15.5632 2.35012 16.1817 2.91873 16.4355 3.56299C16.6876 4.20344 16.6267 5.03388 16.0302 5.63037L13.33 8.33057C12.9575 8.70285 12.4487 8.8501 11.9999 8.8501C11.5511 8.85007 11.0423 8.70292 10.6698 8.33057L7.96964 5.63037C7.38001 5.04068 7.30649 4.23578 7.5673 3.59326C7.82585 2.95683 8.42657 2.4339 9.2255 2.354L9.29972 2.3501H14.7001ZM9.35246 3.8501C9.16265 3.87709 9.02091 4.00027 8.95695 4.15771C8.89326 4.31488 8.92021 4.45979 9.03019 4.56982L11.7304 7.27002C11.758 7.29757 11.8491 7.35007 11.9999 7.3501C12.1506 7.3501 12.2416 7.29761 12.2694 7.27002L14.9696 4.56982C15.073 4.46647 15.1125 4.29718 15.04 4.11279C14.9688 3.9321 14.8369 3.85012 14.7001 3.8501H9.35246Z" fill="#1C252E"/>
<path d="M11.9999 15.1499C12.4487 15.1499 12.9575 15.2971 13.33 15.6694L16.0302 18.3696C16.6267 18.9661 16.6876 19.7966 16.4355 20.437C16.1817 21.0813 15.5632 21.6499 14.7001 21.6499H9.29972C9.27493 21.6499 9.25017 21.6485 9.2255 21.646C8.42657 21.5661 7.82585 21.0432 7.5673 20.4067C7.30649 19.7642 7.38001 18.9593 7.96964 18.3696L10.6698 15.6694C11.0423 15.2971 11.5511 15.1499 11.9999 15.1499ZM11.9999 16.6499C11.8491 16.6499 11.758 16.7024 11.7304 16.73L9.03019 19.4302C8.92021 19.5402 8.89326 19.6851 8.95695 19.8423C9.02091 19.9997 9.16265 20.1229 9.35246 20.1499H14.7001C14.8369 20.1499 14.9688 20.0679 15.04 19.8872C15.1125 19.7028 15.073 19.5335 14.9696 19.4302L12.2694 16.73C12.2416 16.7024 12.1506 16.6499 11.9999 16.6499Z" fill="#1C252E"/>
<path d="M3.76514 7.60091C4.34377 6.54905 5.72964 6.46873 6.53076 7.26985L10.0308 10.7699C10.7232 11.4626 10.7232 12.537 10.0308 13.2298L6.53076 16.7298C6.13231 17.1283 5.6059 17.3265 5.06592 17.2562C4.53319 17.1867 4.0778 16.8691 3.77588 16.4163C3.77216 16.4108 3.76871 16.4044 3.76514 16.3988L1.60107 12.9554C1.37076 12.695 1.2252 12.3653 1.2251 12.0003C1.2251 11.6363 1.37001 11.3073 1.59912 11.0472L3.76514 7.60091ZM5.21826 8.23176C5.15175 8.24008 5.10191 8.27307 5.0708 8.33528C5.0599 8.35707 5.04763 8.37813 5.03467 8.39876L2.83545 11.8988C2.81274 11.9349 2.78581 11.9686 2.75732 12.0003C2.78566 12.0319 2.81283 12.0649 2.83545 12.1009L5.02393 15.5843L5.09619 15.6741C5.16612 15.7454 5.22752 15.7647 5.25928 15.7689C5.29418 15.7734 5.36875 15.7707 5.47021 15.6693L8.97021 12.1693C9.03355 12.1057 9.0502 12.045 9.05029 12.0003C9.05029 11.9556 9.03382 11.8941 8.97021 11.8304L5.47021 8.3304C5.38347 8.24365 5.28796 8.22309 5.21826 8.23176Z" fill="#1C252E"/>
<path d="M18.9677 6.81768C19.4386 6.87655 19.9394 7.12031 20.2343 7.60088H20.2352L22.4013 11.0472C22.6303 11.3073 22.7753 11.6364 22.7753 12.0003C22.7752 12.3648 22.63 12.6942 22.4003 12.9544L20.2352 16.3987C20.2317 16.4044 20.2282 16.4107 20.2245 16.4163C19.9226 16.8691 19.4672 17.1867 18.9345 17.2562C18.3944 17.3266 17.8681 17.1283 17.4696 16.7298L13.9696 13.2298C13.2771 12.537 13.277 11.4626 13.9696 10.7698L17.4696 7.26983C17.4891 7.25034 17.5096 7.2314 17.5311 7.21417C17.956 6.87428 18.4894 6.75803 18.9677 6.81768ZM18.7821 8.30694C18.6694 8.29285 18.5612 8.32139 18.4862 8.37335L15.0302 11.8304C14.9665 11.8941 14.9501 11.9555 14.9501 12.0003C14.9502 12.045 14.9668 12.1057 15.0302 12.1692L18.5302 15.6692C18.6312 15.7703 18.705 15.7733 18.7401 15.7689C18.7816 15.7634 18.8735 15.7314 18.9696 15.5911L21.1649 12.1009L21.2138 12.0325C21.2228 12.0211 21.2324 12.0102 21.2421 11.9993C21.2139 11.9679 21.1874 11.9345 21.1649 11.8987L18.9647 8.39874C18.9621 8.39453 18.9595 8.3903 18.9569 8.38604C18.9507 8.37561 18.9067 8.32254 18.7821 8.30694Z" fill="#1C252E"/>
</svg>
