<svg width="24" height="24" viewBox="0 0 24 24" fill="none" xmlns="http://www.w3.org/2000/svg">
<path d="M19.5005 4.25L19.6001 4.25684C19.8291 4.28761 20.0339 4.42245 20.1509 4.62598L22.8501 9.32617C22.9815 9.55481 22.9837 9.83625 22.855 10.0664L17.6548 19.3662C17.5248 19.5985 17.2813 19.7447 17.0151 19.75C16.7489 19.7553 16.5 19.6186 16.3608 19.3916L14.4605 16.292C14.3164 16.057 14.3133 15.7618 14.4517 15.5234L17.8335 9.69727L15.3501 5.37402C15.2168 5.14193 15.217 4.85568 15.3511 4.62402C15.4852 4.39251 15.7329 4.25 16.0005 4.25H19.5005ZM19.3501 9.32617C19.4835 9.55841 19.4834 9.84447 19.3491 10.0762L15.9731 15.8887L16.9692 17.5156L21.3374 9.70508L19.0659 5.75H17.2964L19.3501 9.32617Z" fill="#1C252E"/>
<path d="M12.5005 4.25L12.6001 4.25684C12.8291 4.28761 13.0339 4.42245 13.1509 4.62598L15.8501 9.32617C15.9815 9.55481 15.9837 9.83626 15.855 10.0664L10.6548 19.3662C10.5248 19.5985 10.2813 19.7447 10.0151 19.75C9.74892 19.7553 9.49999 19.6186 9.36085 19.3916L7.46045 16.292C7.31643 16.057 7.31325 15.7618 7.45167 15.5234L10.8335 9.69727L8.3501 5.37402C8.21678 5.14193 8.217 4.85568 8.35108 4.62402C8.48519 4.39251 8.73293 4.25 9.00049 4.25H12.5005ZM12.3501 9.32617C12.4835 9.55841 12.4834 9.84447 12.3491 10.0762L8.97315 15.8887L9.96924 17.5156L14.3374 9.70508L12.0659 5.75H10.2964L12.3501 9.32617Z" fill="#1C252E"/>
<path d="M5.29992 4.25C5.57068 4.25 5.82033 4.39598 5.95324 4.63184L8.65343 9.43262C8.7841 9.66505 8.78145 9.94964 8.6466 10.1797L6.94738 13.0791C6.81268 13.3089 6.5653 13.4504 6.29894 13.4502C6.03277 13.4499 5.78677 13.308 5.65246 13.0781L1.15246 5.37891C1.01693 5.147 1.01589 4.85995 1.14953 4.62695C1.28324 4.39394 1.53126 4.25 1.79992 4.25H5.29992ZM6.29992 11.2139L7.1339 9.79199L4.86144 5.75H3.10754L6.29992 11.2139Z" fill="#1C252E"/>
</svg>
