<svg width="24" height="24" viewBox="0 0 24 24" fill="none" xmlns="http://www.w3.org/2000/svg">
<path d="M20.1504 8.20018C20.1504 7.75367 19.8841 7.33072 19.5645 7.17089C19.5546 7.16594 19.5448 7.16065 19.5352 7.15526L12.5586 3.26757C12.1723 3.07678 11.7249 3.07696 11.3389 3.26854L4.40039 7.03514C3.99997 7.30985 3.75 7.77777 3.75 8.20018V15.7998C3.75 16.2461 4.01548 16.6691 4.33496 16.8291C4.34495 16.8341 4.35548 16.8393 4.36523 16.8447L11.3438 20.7334C11.7288 20.9227 12.1738 20.9216 12.5586 20.7314L19.5 16.8633C19.9349 16.5672 20.1504 16.1845 20.1504 15.7998V8.20018ZM21.6504 15.7998C21.6504 16.81 21.07 17.6215 20.3164 18.124C20.2998 18.1351 20.2821 18.1456 20.2646 18.1553L13.2646 22.0557C13.2551 22.061 13.2452 22.0664 13.2354 22.0713C12.4244 22.4766 11.476 22.4765 10.665 22.0713C10.6551 22.0663 10.6445 22.0611 10.6348 22.0557L3.63477 18.1553V18.1543C2.77252 17.707 2.25 16.7423 2.25 15.7998V8.20018C2.25 7.22823 2.79377 6.30325 3.58398 5.77636L3.64258 5.7412L10.6426 1.94042L10.665 1.9287C11.4254 1.54873 12.3067 1.52477 13.082 1.85741L13.2354 1.9287L13.2646 1.94432L20.2646 5.84472H20.2637C21.1269 6.29162 21.6504 7.25712 21.6504 8.20018V15.7998Z" fill="#1C252E"/>
</svg>
