<svg width="24" height="24" viewBox="0 0 24 24" fill="none" xmlns="http://www.w3.org/2000/svg">
<path d="M21.25 12C21.25 6.89137 17.1086 2.75 12 2.75C6.89137 2.75 2.75 6.89137 2.75 12C2.75 17.1086 6.89137 21.25 12 21.25C17.1086 21.25 21.25 17.1086 21.25 12ZM22.75 12C22.75 17.9371 17.9371 22.75 12 22.75C6.06294 22.75 1.25 17.9371 1.25 12C1.25 6.06294 6.06294 1.25 12 1.25C17.9371 1.25 22.75 6.06294 22.75 12Z" fill="#1C252E"/>
<path d="M10.0503 14.5V12.4257L7.3501 10.8193V14.5C7.3501 14.9142 7.01431 15.25 6.6001 15.25C6.18588 15.25 5.8501 14.9142 5.8501 14.5V9.49996C5.8501 9.2303 5.99462 8.98095 6.229 8.84762C6.46349 8.71431 6.75211 8.71747 6.98389 8.85543L11.1841 11.3554C11.4111 11.4907 11.5503 11.7357 11.5503 12V14.5C11.5503 14.9141 11.2144 15.2499 10.8003 15.25C10.3861 15.25 10.0503 14.9142 10.0503 14.5Z" fill="#1C252E"/>
<path d="M16.6504 14.5001V10.8194L13.9502 12.4259V14.5001C13.9502 14.9143 13.6144 15.2501 13.2002 15.2501C12.786 15.2501 12.4502 14.9143 12.4502 14.5001V12.0001C12.4502 11.7357 12.5893 11.4908 12.8164 11.3555L17.0166 8.85554C17.2482 8.71768 17.5361 8.71467 17.7705 8.84773C18.005 8.98104 18.1504 9.23034 18.1504 9.50007V14.5001C18.1504 14.9142 17.8145 15.25 17.4004 15.2501C16.9862 15.2501 16.6504 14.9143 16.6504 14.5001Z" fill="#1C252E"/>
</svg>
