<svg width="24" height="24" viewBox="0 0 24 24" fill="none" xmlns="http://www.w3.org/2000/svg">
<path d="M2.72843 8.92999C2.92772 8.92971 3.11974 9.0088 3.26066 9.14972L4.99992 10.89C5.29281 11.1828 5.29281 11.6576 4.99992 11.9505C4.70701 12.2431 4.23218 12.2433 3.93937 11.9505L2.73039 10.7415L1.53215 11.9485C1.24012 12.2423 0.765338 12.2435 0.471598 11.9515C0.177883 11.6594 0.175703 11.1847 0.467692 10.8909L2.19816 9.15167L2.31242 9.05695C2.43461 8.97507 2.57918 8.93029 2.72843 8.92999Z" fill="#1C252E"/>
<path d="M22.4792 12.0497C22.7721 11.7569 23.2478 11.7569 23.5407 12.0497C23.8333 12.3426 23.8333 12.8175 23.5407 13.1103L21.8005 14.8505C21.5077 15.1433 21.0328 15.1432 20.7399 14.8505L18.9997 13.1103C18.7068 12.8174 18.7068 12.3426 18.9997 12.0497C19.2926 11.7569 19.7674 11.7569 20.0602 12.0497L21.2692 13.2587L22.4792 12.0497Z" fill="#1C252E"/>
<path d="M20.5102 14.3201V11.9998C20.5101 7.29476 16.6965 3.49024 12.0004 3.48999C9.31839 3.48999 6.91862 4.73844 5.35396 6.68042C5.09409 7.00297 4.62182 7.05358 4.29927 6.7937C3.97696 6.53378 3.92619 6.06147 4.18599 5.73901C6.02134 3.46121 8.84268 1.98999 12.0004 1.98999C17.5238 1.99024 22.0101 6.46528 22.0102 11.9998V14.3201C22.0102 14.7342 21.6743 15.0699 21.2602 15.0701C20.846 15.0701 20.5102 14.7343 20.5102 14.3201Z" fill="#1C252E"/>
<path d="M1.98999 12.0003V9.67999C1.98999 9.26578 2.32578 8.92999 2.73999 8.92999C3.1542 8.92999 3.48999 9.26578 3.48999 9.67999V12.0003C3.49016 16.7053 7.30365 20.5099 11.9998 20.5101C14.6818 20.5101 17.0816 19.2617 18.6462 17.3196C18.9061 16.9971 19.3784 16.9465 19.7009 17.2064C20.023 17.4662 20.0736 17.9377 19.8142 18.2601C17.9789 20.538 15.1577 22.0101 11.9998 22.0101C6.47628 22.0099 1.99016 17.5348 1.98999 12.0003Z" fill="#1C252E"/>
<path d="M14.3799 10.25C14.3799 9.76655 13.9085 9.25 13.3799 9.25H9.75V11.25H13.3799C13.9357 11.25 14.3799 10.8058 14.3799 10.25ZM15.8799 10.25C15.8799 11.6342 14.7641 12.75 13.3799 12.75H9C8.58579 12.75 8.25 12.4142 8.25 12V8.5C8.25 8.08579 8.58579 7.75 9 7.75H13.3799C14.7912 7.75 15.8799 8.99345 15.8799 10.25Z" fill="#1C252E"/>
<path d="M15.25 13.75C15.25 13.2871 14.7852 12.75 14 12.75H9.75V14.75H14C14.7852 14.75 15.25 14.2129 15.25 13.75ZM16.75 13.75C16.75 15.2271 15.4148 16.25 14 16.25H9C8.58579 16.25 8.25 15.9142 8.25 15.5V12C8.25 11.5858 8.58579 11.25 9 11.25H14C15.4148 11.25 16.75 12.2729 16.75 13.75Z" fill="#1C252E"/>
<path d="M11.05 17.25V15.5C11.05 15.0858 11.3858 14.75 11.8 14.75C12.2143 14.75 12.55 15.0858 12.55 15.5V17.25C12.55 17.6642 12.2143 18 11.8 18C11.3858 18 11.05 17.6642 11.05 17.25Z" fill="#1C252E"/>
<path d="M11.05 8.5V6.75C11.05 6.33579 11.3858 6 11.8 6C12.2143 6 12.55 6.33579 12.55 6.75V8.5C12.55 8.91421 12.2143 9.25 11.8 9.25C11.3858 9.25 11.05 8.91421 11.05 8.5Z" fill="#1C252E"/>
</svg>
