<svg width="24" height="24" viewBox="0 0 24 24" fill="none" xmlns="http://www.w3.org/2000/svg">
<path d="M17.644 1.39483C19.3837 0.762582 20.9973 2.7101 19.7924 4.26007L19.7856 4.26886L19.7787 4.27667L13.7104 11.6497L17.3539 15.2933L17.3764 15.3196C18.1794 16.2832 17.8827 17.7805 16.6957 18.2894L16.6889 18.2923L6.38909 22.5921L6.38812 22.5911C5.46788 22.9972 4.60127 22.6001 4.16644 21.9583C3.74326 21.3336 3.67407 20.3883 4.34808 19.6927L11.6606 11.722L8.06976 8.13019C7.60088 7.66131 7.5011 7.0075 7.61663 6.46808C7.73331 5.92359 8.09291 5.37277 8.70452 5.11065L8.71234 5.10772L17.6117 1.40753L17.6274 1.40069L17.644 1.39483ZM5.44183 20.7191L5.43011 20.7308C5.36518 20.7958 5.34663 20.8555 5.34417 20.9085C5.34136 20.971 5.36148 21.0469 5.40862 21.1165C5.4555 21.1857 5.5144 21.2274 5.56683 21.2444C5.60953 21.2583 5.67925 21.2672 5.78948 21.2171L5.80023 21.2122L5.81097 21.2083L16.1078 16.9085C16.3152 16.8168 16.4155 16.5247 16.2309 16.2913L12.7221 12.7835L5.44183 20.7191ZM18.6274 2.91534C18.5419 2.80289 18.3837 2.72311 18.1586 2.80401L9.29437 6.48858L9.29534 6.48956C9.20699 6.52748 9.11674 6.62708 9.08343 6.78253C9.04917 6.94285 9.09926 7.03859 9.1303 7.06964L12.6459 10.5853L18.6078 3.33722C18.6802 3.24364 18.6974 3.16638 18.6967 3.1087C18.6959 3.04491 18.6735 2.97612 18.6274 2.91534Z" fill="#1C252E"/>
</svg>
