<svg width="24" height="24" viewBox="0 0 24 24" fill="none" xmlns="http://www.w3.org/2000/svg">
<path d="M11.6357 1.34463C11.8623 1.21878 12.1377 1.21878 12.3643 1.34463L21.3643 6.34463C21.6023 6.47693 21.75 6.72759 21.75 6.9999V11.9999C21.75 12.2446 21.6302 12.4738 21.4297 12.6142L18.416 14.7226L21.3613 16.3427C21.601 16.4745 21.75 16.7264 21.75 16.9999V21.9999C21.75 22.2725 21.6017 22.524 21.3633 22.6561C21.1249 22.7881 20.8336 22.7801 20.6025 22.6356L16.959 20.3583L12.335 22.6708C12.1136 22.7813 11.852 22.7753 11.6357 22.6552L2.63574 17.6552C2.39774 17.5229 2.25 17.2722 2.25 16.9999V6.9999C2.25 6.72759 2.39774 6.47693 2.63574 6.34463L11.6357 1.34463ZM3.75 7.44033V16.5585L12.0176 21.1522L16.665 18.829L16.7539 18.7909C16.9666 18.717 17.2036 18.743 17.3975 18.8642L20.25 20.6464V17.4433L16.6387 15.4569C16.4118 15.3321 16.2651 15.0993 16.251 14.8407C16.237 14.582 16.3581 14.334 16.5703 14.1854L20.25 11.6093V7.44033L12 2.85732L3.75 7.44033Z" fill="#1C252E"/>
<path d="M11.7207 5.70366C11.9295 5.61989 12.1669 5.63412 12.3662 5.74566L17.3662 8.54546C17.603 8.67807 17.7499 8.92837 17.75 9.19976V14.8003C17.7499 15.0717 17.603 15.3221 17.3662 15.4546L12.3662 18.2544C12.1387 18.3818 11.8613 18.3818 11.6338 18.2544L6.63379 15.4546C6.39705 15.3221 6.25014 15.0717 6.25 14.8003V9.19976C6.25007 8.92837 6.39699 8.67807 6.63379 8.54546L11.6338 5.74566L11.7207 5.70366ZM7.75 9.63823V14.3609L12 16.7408L16.25 14.3609V9.63823L12 7.25835L7.75 9.63823Z" fill="#1C252E"/>
<path d="M2.34289 6.63879C2.54249 6.27588 2.99852 6.14336 3.36144 6.34289L7.36144 8.54308C7.72438 8.7427 7.85696 9.1987 7.65734 9.56164C7.45775 9.92449 7.00168 10.057 6.63879 9.85754L2.63879 7.65734C2.27588 7.45775 2.14336 7.00171 2.34289 6.63879Z" fill="#1C252E"/>
<path d="M6.63859 14.1427C7.00151 13.9432 7.45755 14.0757 7.65715 14.4386C7.85667 14.8015 7.72415 15.2576 7.36125 15.4571L3.36125 17.6573C2.99835 17.8568 2.54228 17.7243 2.34269 17.3614C2.14307 16.9985 2.27565 16.5425 2.63859 16.3429L6.63859 14.1427Z" fill="#1C252E"/>
<path d="M20.6386 6.34289C21.0015 6.14336 21.4575 6.27588 21.6571 6.63879C21.8567 7.00171 21.7241 7.45775 21.3612 7.65734L17.3612 9.85754C16.9984 10.057 16.5423 9.92449 16.3427 9.56164C16.1431 9.1987 16.2756 8.7427 16.6386 8.54308L20.6386 6.34289Z" fill="#1C252E"/>
<path d="M11.25 6V2C11.25 1.58579 11.5858 1.25 12 1.25C12.4142 1.25 12.75 1.58579 12.75 2V6C12.75 6.41421 12.4142 6.75 12 6.75C11.5858 6.75 11.25 6.41421 11.25 6Z" fill="#1C252E"/>
<path d="M11.25 22V18C11.25 17.5858 11.5858 17.25 12 17.25C12.4142 17.25 12.75 17.5858 12.75 18V22C12.75 22.4142 12.4142 22.75 12 22.75C11.5858 22.75 11.25 22.4142 11.25 22Z" fill="#1C252E"/>
<path d="M17.75 15V20H16.25V15H17.75Z" fill="#1C252E"/>
</svg>
