<svg width="24" height="24" viewBox="0 0 24 24" fill="none" xmlns="http://www.w3.org/2000/svg">
<path d="M11.25 13V8C11.25 7.58579 11.5858 7.25 12 7.25C12.4142 7.25 12.75 7.58579 12.75 8V13C12.75 13.4142 12.4142 13.75 12 13.75C11.5858 13.75 11.25 13.4142 11.25 13Z" fill="#1C252E"/>
<path d="M20 13.25C20 8.83421 16.4158 5.25 12 5.25C7.58421 5.25 4 8.83421 4 13.25C4 17.6658 7.58421 21.25 12 21.25C12.4142 21.25 12.75 21.5858 12.75 22C12.75 22.4142 12.4142 22.75 12 22.75C6.75579 22.75 2.5 18.4942 2.5 13.25C2.5 8.00579 6.75579 3.75 12 3.75C17.2442 3.75 21.5 8.00579 21.5 13.25C21.5 13.6642 21.1642 14 20.75 14C20.3358 14 20 13.6642 20 13.25Z" fill="#1C252E"/>
<path d="M15 1.25C15.4142 1.25 15.75 1.58579 15.75 2C15.75 2.41421 15.4142 2.75 15 2.75H9C8.58579 2.75 8.25 2.41421 8.25 2C8.25 1.58579 8.58579 1.25 9 1.25H15Z" fill="#1C252E"/>
<path d="M15.1914 15.2336C15.9129 14.8182 16.7759 14.9506 17.5361 15.3918L17.5371 15.3908L19.5371 16.551C20.2953 16.9912 20.8408 17.6729 20.8408 18.5051C20.8408 19.3372 20.2951 20.018 19.5371 20.4582L17.5371 21.6184C16.7767 22.0599 15.9131 22.1914 15.1914 21.7756C14.47 21.3599 14.1504 20.5475 14.1504 19.6701V17.3401C14.1504 16.4627 14.47 15.6493 15.1914 15.2336ZM15.6504 19.6701C15.6504 20.2224 15.8408 20.4199 15.9395 20.4768C16.0378 20.5334 16.3046 20.5999 16.7842 20.3215L18.7842 19.1614L18.9463 19.0578C19.2833 18.8185 19.3408 18.6038 19.3408 18.5051C19.3408 18.3924 19.2656 18.1285 18.7842 17.8489L16.7842 16.6887C16.3046 16.4103 16.0378 16.4768 15.9395 16.5334C15.8408 16.5904 15.6504 16.7878 15.6504 17.3401V19.6701Z" fill="#1C252E"/>
</svg>
