<svg width="24" height="24" viewBox="0 0 24 24" fill="none" xmlns="http://www.w3.org/2000/svg">
<path d="M7.25 5V2C7.25 1.58579 7.58579 1.25 8 1.25C8.41421 1.25 8.75 1.58579 8.75 2V5C8.75 5.41421 8.41421 5.75 8 5.75C7.58579 5.75 7.25 5.41421 7.25 5Z" fill="#1C252E"/>
<path d="M15.25 5V2C15.25 1.58579 15.5858 1.25 16 1.25C16.4142 1.25 16.75 1.58579 16.75 2V5C16.75 5.41421 16.4142 5.75 16 5.75C15.5858 5.75 15.25 5.41421 15.25 5Z" fill="#1C252E"/>
<path d="M20.25 8.505C20.25 7.12005 19.9034 6.08076 19.2627 5.39075C18.6313 4.71079 17.607 4.255 16 4.255H8C6.39295 4.255 5.36869 4.71079 4.7373 5.39075C4.09664 6.08076 3.75 7.12005 3.75 8.505V17.005C3.75 18.39 4.09664 19.4292 4.7373 20.1193C5.36869 20.7992 6.39295 21.255 8 21.255H16C17.607 21.255 18.6313 20.7992 19.2627 20.1193C19.9034 19.4292 20.25 18.39 20.25 17.005V8.505ZM21.75 17.005C21.75 18.62 21.3466 20.0808 20.3623 21.1407C19.3687 22.2107 17.8929 22.755 16 22.755H8C6.10712 22.755 4.63131 22.2107 3.6377 21.1407C2.65342 20.0808 2.25 18.62 2.25 17.005V8.505C2.25 6.89003 2.65342 5.42925 3.6377 4.36926C4.63131 3.29929 6.10712 2.755 8 2.755H16C17.8929 2.755 19.3687 3.29929 20.3623 4.36926C21.3466 5.42925 21.75 6.89003 21.75 8.505V17.005Z" fill="#1C252E"/>
<path d="M20.75 16.85C21.1642 16.85 21.5 17.1858 21.5 17.6C21.5 18.0142 21.1642 18.35 20.75 18.35H3.25C2.83579 18.35 2.5 18.0142 2.5 17.6C2.5 17.1858 2.83579 16.85 3.25 16.85H20.75Z" fill="#1C252E"/>
<path d="M12 8.25C10.77 8.25 9.73 8.92 9.73 10.22C9.73 10.84 10.02 11.31 10.46 11.61C9.85 11.97 9.5 12.55 9.5 13.23C9.5 14.47 10.45 15.24 12 15.24C13.54 15.24 14.5 14.47 14.5 13.23C14.5 12.55 14.15 11.96 13.53 11.61C13.98 11.3 14.26 10.84 14.26 10.22C14.26 8.92 13.23 8.25 12 8.25ZM12 11.09C11.48 11.09 11.1 10.78 11.1 10.29C11.1 9.79 11.48 9.5 12 9.5C12.52 9.5 12.9 9.79 12.9 10.29C12.9 10.78 12.52 11.09 12 11.09ZM12 14C11.34 14 10.86 13.67 10.86 13.07C10.86 12.47 11.34 12.15 12 12.15C12.66 12.15 13.14 12.48 13.14 13.07C13.14 13.67 12.66 14 12 14Z" fill="#1C252E"/>
</svg>
