<svg width="24" height="24" viewBox="0 0 24 24" fill="none" xmlns="http://www.w3.org/2000/svg">
<path d="M7.25 5V2C7.25 1.58579 7.58579 1.25 8 1.25C8.41421 1.25 8.75 1.58579 8.75 2V5C8.75 5.41421 8.41421 5.75 8 5.75C7.58579 5.75 7.25 5.41421 7.25 5Z" fill="#1C252E"/>
<path d="M15.25 5V2C15.25 1.58579 15.5858 1.25 16 1.25C16.4142 1.25 16.75 1.58579 16.75 2V5C16.75 5.41421 16.4142 5.75 16 5.75C15.5858 5.75 15.25 5.41421 15.25 5Z" fill="#1C252E"/>
<path d="M20.5 8.33997C20.9142 8.33997 21.25 8.67575 21.25 9.08997C21.25 9.50418 20.9142 9.83997 20.5 9.83997H3.5C3.08579 9.83997 2.75 9.50418 2.75 9.08997C2.75 8.67575 3.08579 8.33997 3.5 8.33997H20.5Z" fill="#1C252E"/>
<path d="M21.25 19C21.25 18.1835 20.9442 17.4365 20.4365 16.8545C19.8416 16.1784 18.9732 15.75 18 15.75C16.2042 15.75 14.75 17.2042 14.75 19C14.75 19.5333 14.8801 20.0396 15.1123 20.4814L15.2188 20.666L15.2275 20.6816C15.3529 20.8965 15.5051 21.093 15.6758 21.2637L15.8516 21.4258L15.8721 21.4424C16.4359 21.9497 17.1774 22.25 18 22.25C19.1858 22.25 20.2156 21.6178 20.7754 20.6768L20.7812 20.666C21.0791 20.183 21.25 19.6094 21.25 19ZM22.75 19C22.75 19.8906 22.5007 20.7371 22.0586 21.4541L22.0576 21.4531C21.2361 22.8264 19.7298 23.75 18 23.75C16.8027 23.75 15.7044 23.3102 14.8682 22.5576V22.5566C14.5043 22.2475 14.1894 21.8726 13.9424 21.4531C13.5003 20.7362 13.25 19.8906 13.25 19C13.25 16.3758 15.3758 14.25 18 14.25C19.3374 14.25 20.5388 14.8047 21.3965 15.6846L21.5635 15.8643L21.5645 15.8662C22.296 16.704 22.75 17.7971 22.75 19Z" fill="#1C252E"/>
<path d="M19.0497 17.4692C19.3538 17.1879 19.829 17.2071 20.1103 17.5112C20.3912 17.8153 20.3723 18.2896 20.0683 18.5707L17.9384 20.5405C17.6427 20.8139 17.1842 20.8048 16.8994 20.52L15.9091 19.5307C15.6162 19.2378 15.6162 18.7621 15.9091 18.4692C16.202 18.1766 16.6768 18.1766 16.9697 18.4692L17.4492 18.9487L19.0497 17.4692Z" fill="#1C252E"/>
<path d="M20.25 8.5C20.25 7.11505 19.9034 6.07576 19.2627 5.38574C18.6313 4.70579 17.607 4.25 16 4.25H8C6.39295 4.25 5.36869 4.70579 4.7373 5.38574C4.09664 6.07576 3.75 7.11505 3.75 8.5V17C3.75 18.385 4.09664 19.4242 4.7373 20.1143C5.36869 20.7942 6.39295 21.25 8 21.25H13.8252C13.4569 20.5785 13.25 19.808 13.25 19C13.25 16.3758 15.3758 14.25 18 14.25C18.8165 14.25 19.5822 14.4571 20.25 14.8184V8.5ZM21.75 16.3604C21.7498 16.6723 21.5565 16.9514 21.2646 17.0615C20.9726 17.1717 20.6426 17.0898 20.4365 16.8555C19.8416 16.179 18.9735 15.75 18 15.75C16.2042 15.75 14.75 17.2042 14.75 19C14.75 19.5333 14.8801 20.0396 15.1123 20.4814L15.2188 20.666L15.2275 20.6816C15.3945 20.9679 15.6086 21.222 15.8516 21.4258C16.0932 21.6284 16.183 21.9605 16.0752 22.2568C15.9673 22.553 15.6853 22.75 15.3701 22.75H8C6.10712 22.75 4.63131 22.2057 3.6377 21.1357C2.65342 20.0758 2.25 18.615 2.25 17V8.5C2.25 6.88503 2.65342 5.42424 3.6377 4.36426C4.63131 3.29429 6.10712 2.75 8 2.75H16C17.8929 2.75 19.3687 3.29429 20.3623 4.36426C21.3466 5.42424 21.75 6.88503 21.75 8.5V16.3604Z" fill="#1C252E"/>
<path d="M12.0059 12.7C12.558 12.7002 13.0059 13.1479 13.0059 13.7C13.0059 14.2522 12.558 14.6998 12.0059 14.7H11.9961C11.444 14.6998 10.9961 14.2522 10.9961 13.7C10.9961 13.1478 11.444 12.7002 11.9961 12.7H12.0059Z" fill="#1C252E"/>
<path d="M8.30273 12.7C8.85483 12.7002 9.30273 13.1479 9.30273 13.7C9.30273 14.2522 8.85483 14.6998 8.30273 14.7H8.29297C7.74085 14.6998 7.29297 14.2522 7.29297 13.7C7.29297 13.1478 7.74085 12.7002 8.29297 12.7H8.30273Z" fill="#1C252E"/>
<path d="M8.30273 15.7C8.85483 15.7002 9.30273 16.1479 9.30273 16.7C9.30273 17.2522 8.85483 17.6998 8.30273 17.7H8.29297C7.74085 17.6998 7.29297 17.2522 7.29297 16.7C7.29297 16.1478 7.74085 15.7002 8.29297 15.7H8.30273Z" fill="#1C252E"/>
</svg>
