<svg width="24" height="24" viewBox="0 0 24 24" fill="none" xmlns="http://www.w3.org/2000/svg">
<path d="M7.25 5V2C7.25 1.58579 7.58579 1.25 8 1.25C8.41421 1.25 8.75 1.58579 8.75 2V5C8.75 5.41421 8.41421 5.75 8 5.75C7.58579 5.75 7.25 5.41421 7.25 5Z" fill="#1C252E"/>
<path d="M15.25 5V2C15.25 1.58579 15.5858 1.25 16 1.25C16.4142 1.25 16.75 1.58579 16.75 2V5C16.75 5.41421 16.4142 5.75 16 5.75C15.5858 5.75 15.25 5.41421 15.25 5Z" fill="#1C252E"/>
<path d="M20.5 8.33997C20.9142 8.33997 21.25 8.67575 21.25 9.08997C21.25 9.50418 20.9142 9.83997 20.5 9.83997H3.5C3.08579 9.83997 2.75 9.50418 2.75 9.08997C2.75 8.67575 3.08579 8.33997 3.5 8.33997H20.5Z" fill="#1C252E"/>
<path d="M20.25 12V8.5C20.25 7.11505 19.9034 6.07576 19.2627 5.38574C18.6313 4.70579 17.607 4.25 16 4.25H8C6.39295 4.25 5.36869 4.70579 4.7373 5.38574C4.09664 6.07576 3.75 7.11505 3.75 8.5V17C3.75 18.385 4.09664 19.4242 4.7373 20.1143C5.36869 20.7942 6.39295 21.25 8 21.25H12C12.4142 21.25 12.75 21.5858 12.75 22C12.75 22.4142 12.4142 22.75 12 22.75H8C6.10712 22.75 4.63131 22.2057 3.6377 21.1357C2.65342 20.0758 2.25 18.615 2.25 17V8.5C2.25 6.88503 2.65342 5.42424 3.6377 4.36426C4.63131 3.29429 6.10712 2.75 8 2.75H16C17.8929 2.75 19.3687 3.29429 20.3623 4.36426C21.3466 5.42424 21.75 6.88503 21.75 8.5V12C21.75 12.4142 21.4142 12.75 21 12.75C20.5858 12.75 20.25 12.4142 20.25 12Z" fill="#1C252E"/>
<path d="M20.1327 14.4567C20.7956 14.3888 21.4058 14.686 21.9491 15.2292C22.4956 15.7757 22.7971 16.3877 22.7313 17.0524C22.6694 17.6776 22.2967 18.1628 21.9491 18.5104L18.409 22.0505L18.4081 22.0495C18.263 22.199 18.0878 22.3097 17.9423 22.3825C17.7864 22.4604 17.5967 22.5311 17.4061 22.5612L17.3934 22.5632V22.5622L16.0438 22.7517L16.0448 22.7526C15.6031 22.8157 15.1473 22.6998 14.8182 22.3708C14.4892 22.0417 14.3734 21.5859 14.4364 21.1442L14.6258 19.7956L14.6278 19.7829C14.6584 19.5892 14.7309 19.4011 14.8085 19.2477C14.886 19.0945 14.9963 18.9223 15.1385 18.78L18.6786 15.2399C19.0262 14.8923 19.5106 14.5206 20.1327 14.4567ZM20.286 15.9489C20.1781 15.96 20.0015 16.0381 19.7391 16.3005L16.1991 19.8405C16.1969 19.8432 16.1922 19.8492 16.1854 19.8591C16.1736 19.8762 16.1602 19.899 16.1473 19.9245C16.1344 19.9501 16.124 19.975 16.1171 19.9948C16.113 20.0065 16.111 20.014 16.1102 20.0173L16.1092 20.0163L15.9354 21.2526L17.1727 21.0778C17.1766 21.0769 17.1856 21.0756 17.1991 21.071C17.2204 21.0636 17.2459 21.0535 17.2714 21.0407C17.297 21.0279 17.3173 21.015 17.3309 21.0056C17.3379 21.0007 17.3407 20.9977 17.3407 20.9977L20.8885 17.4499C21.1509 17.1876 21.2285 17.0123 21.2391 16.905C21.2458 16.8373 21.2418 16.644 20.8885 16.2907C20.5427 15.9449 20.3531 15.9421 20.286 15.9489Z" fill="#1C252E"/>
<path d="M18.4983 15.5573C18.8972 15.4465 19.3111 15.68 19.4221 16.0788C19.6517 16.9054 20.2938 17.5475 21.1203 17.7771C21.5194 17.888 21.7527 18.3018 21.6418 18.7009C21.5309 19.0998 21.1179 19.3331 20.719 19.2224C19.3856 18.852 18.3473 17.8144 17.9768 16.4812C17.8659 16.0822 18.0994 15.6684 18.4983 15.5573Z" fill="#1C252E"/>
<path d="M12.0059 12.7C12.558 12.7002 13.0059 13.1479 13.0059 13.7C13.0059 14.2522 12.558 14.6998 12.0059 14.7H11.9961C11.444 14.6998 10.9961 14.2522 10.9961 13.7C10.9961 13.1478 11.444 12.7002 11.9961 12.7H12.0059Z" fill="#1C252E"/>
<path d="M8.30273 12.7C8.85483 12.7002 9.30273 13.1479 9.30273 13.7C9.30273 14.2522 8.85483 14.6998 8.30273 14.7H8.29297C7.74085 14.6998 7.29297 14.2522 7.29297 13.7C7.29297 13.1478 7.74085 12.7002 8.29297 12.7H8.30273Z" fill="#1C252E"/>
<path d="M8.30273 15.7C8.85483 15.7002 9.30273 16.1479 9.30273 16.7C9.30273 17.2522 8.85483 17.6998 8.30273 17.7H8.29297C7.74085 17.6998 7.29297 17.2522 7.29297 16.7C7.29297 16.1478 7.74085 15.7002 8.29297 15.7H8.30273Z" fill="#1C252E"/>
</svg>
