<svg width="24" height="24" viewBox="0 0 24 24" fill="none" xmlns="http://www.w3.org/2000/svg">
<path d="M15.2399 1.25C16.2896 1.25003 17.1653 1.48627 17.8395 1.93066C18.5203 2.37954 18.9543 3.01506 19.1452 3.72559C19.5207 5.1238 18.9433 6.70448 17.7633 7.77441L13.1149 12L17.7643 16.2246H17.7633C18.9437 17.2945 19.5207 18.876 19.1452 20.2744C18.9543 20.9849 18.5203 21.6205 17.8395 22.0693C17.1653 22.5137 16.2896 22.75 15.2399 22.75H8.75943C7.70972 22.75 6.83397 22.5137 6.15982 22.0693C5.479 21.6205 5.045 20.9849 4.85415 20.2744C4.47866 18.8762 5.05507 17.2945 6.23501 16.2246L10.8835 12L6.23501 7.77539V7.77441C5.0554 6.70449 4.47871 5.12356 4.85415 3.72559C5.045 3.01506 5.479 2.37954 6.15982 1.93066C6.83397 1.48626 7.70972 1.25004 8.75943 1.25H15.2399ZM7.2438 17.335V17.3359C6.39426 18.106 6.10053 19.1342 6.3024 19.8857C6.40032 20.2501 6.61746 20.575 6.98501 20.8174C7.35917 21.064 7.92957 21.25 8.75943 21.25H15.2399C16.0698 21.25 16.6401 21.064 17.0143 20.8174C17.3819 20.5751 17.599 20.2501 17.6969 19.8857C17.8988 19.1343 17.6057 18.1059 16.7565 17.3359L16.7555 17.335L11.9997 13.0127L7.2438 17.335ZM8.75943 2.75C7.92957 2.75004 7.35917 2.93596 6.98501 3.18262C6.61746 3.42495 6.40032 3.74985 6.3024 4.11426C6.11317 4.81872 6.35925 5.76645 7.09048 6.5166L7.2438 6.66406V6.66504L11.9997 10.9863L16.7555 6.66504L16.7565 6.66406C17.6057 5.89407 17.8988 4.86566 17.6969 4.11426C17.599 3.74986 17.3819 3.42495 17.0143 3.18262C16.6401 2.93597 16.0698 2.75003 15.2399 2.75H8.75943Z" fill="#1C252E"/>
</svg>
