<svg width="24" height="24" viewBox="0 0 24 24" fill="none" xmlns="http://www.w3.org/2000/svg">
<path d="M21.25 12C21.25 6.89421 17.1058 2.75 12 2.75C6.89421 2.75 2.75 6.89421 2.75 12C2.75 17.1058 6.89421 21.25 12 21.25C17.1058 21.25 21.25 17.1058 21.25 12ZM22.75 12C22.75 17.9342 17.9342 22.75 12 22.75C6.06579 22.75 1.25 17.9342 1.25 12C1.25 6.06579 6.06579 1.25 12 1.25C17.9342 1.25 22.75 6.06579 22.75 12Z" fill="#1C252E"/>
<path d="M10.8809 11.6096V7.51001C10.8809 7.0958 11.2166 6.76001 11.6309 6.76001C12.0451 6.76001 12.3809 7.0958 12.3809 7.51001V11.6096C12.3809 11.7632 12.4399 11.9865 12.5703 12.2151C12.668 12.3862 12.7828 12.5211 12.8896 12.6106L12.9932 12.6848L12.9951 12.6858L16.0947 14.5364C16.4504 14.7486 16.5668 15.209 16.3545 15.5647C16.1421 15.9201 15.6817 16.0366 15.3262 15.8245L12.2266 13.9739V13.9729C11.8191 13.7307 11.4907 13.3512 11.2666 12.9583C11.042 12.5644 10.8809 12.0861 10.8809 11.6096Z" fill="#1C252E"/>
</svg>
