<svg width="24" height="24" viewBox="0 0 24 24" fill="none" xmlns="http://www.w3.org/2000/svg">
<path d="M7.25 5V2C7.25 1.58579 7.58579 1.25 8 1.25C8.41421 1.25 8.75 1.58579 8.75 2V5C8.75 5.41421 8.41421 5.75 8 5.75C7.58579 5.75 7.25 5.41421 7.25 5Z" fill="#1C252E"/>
<path d="M15.25 5V2C15.25 1.58579 15.5858 1.25 16 1.25C16.4142 1.25 16.75 1.58579 16.75 2V5C16.75 5.41421 16.4142 5.75 16 5.75C15.5858 5.75 15.25 5.41421 15.25 5Z" fill="#1C252E"/>
<path d="M20.5 8.33997C20.9142 8.33997 21.25 8.67575 21.25 9.08997C21.25 9.50418 20.9142 9.83997 20.5 9.83997H3.5C3.08579 9.83997 2.75 9.50418 2.75 9.08997C2.75 8.67575 3.08579 8.33997 3.5 8.33997H20.5Z" fill="#1C252E"/>
<path d="M20.25 8.5C20.25 7.11505 19.9034 6.07576 19.2627 5.38574C18.6313 4.70579 17.607 4.25 16 4.25H8C6.39295 4.25 5.36869 4.70579 4.7373 5.38574C4.09664 6.07576 3.75 7.11505 3.75 8.5V17C3.75 18.385 4.09664 19.4242 4.7373 20.1143C5.36869 20.7942 6.39295 21.25 8 21.25H16C17.607 21.25 18.6313 20.7942 19.2627 20.1143C19.9034 19.4242 20.25 18.385 20.25 17V8.5ZM21.75 17C21.75 18.615 21.3466 20.0758 20.3623 21.1357C19.3687 22.2057 17.8929 22.75 16 22.75H8C6.10712 22.75 4.63131 22.2057 3.6377 21.1357C2.65342 20.0758 2.25 18.615 2.25 17V8.5C2.25 6.88503 2.65342 5.42424 3.6377 4.36426C4.63131 3.29429 6.10712 2.75 8 2.75H16C17.8929 2.75 19.3687 3.29429 20.3623 4.36426C21.3466 5.42424 21.75 6.88503 21.75 8.5V17Z" fill="#1C252E"/>
<path d="M15.7051 12.7C16.2572 12.7002 16.7051 13.1479 16.7051 13.7C16.7051 14.2522 16.2572 14.6998 15.7051 14.7H15.6953C15.1432 14.6998 14.6953 14.2522 14.6953 13.7C14.6953 13.1478 15.1432 12.7002 15.6953 12.7H15.7051Z" fill="#1C252E"/>
<path d="M15.7051 15.7C16.2572 15.7002 16.7051 16.1479 16.7051 16.7C16.7051 17.2522 16.2572 17.6998 15.7051 17.7H15.6953C15.1432 17.6998 14.6953 17.2522 14.6953 16.7C14.6953 16.1478 15.1432 15.7002 15.6953 15.7H15.7051Z" fill="#1C252E"/>
<path d="M12.0059 12.7C12.558 12.7002 13.0059 13.1479 13.0059 13.7C13.0059 14.2522 12.558 14.6998 12.0059 14.7H11.9961C11.444 14.6998 10.9961 14.2522 10.9961 13.7C10.9961 13.1478 11.444 12.7002 11.9961 12.7H12.0059Z" fill="#1C252E"/>
<path d="M12.0059 15.7C12.558 15.7002 13.0059 16.1479 13.0059 16.7C13.0059 17.2522 12.558 17.6998 12.0059 17.7H11.9961C11.444 17.6998 10.9961 17.2522 10.9961 16.7C10.9961 16.1478 11.444 15.7002 11.9961 15.7H12.0059Z" fill="#1C252E"/>
<path d="M8.30273 12.7C8.85483 12.7002 9.30273 13.1479 9.30273 13.7C9.30273 14.2522 8.85483 14.6998 8.30273 14.7H8.29297C7.74085 14.6998 7.29297 14.2522 7.29297 13.7C7.29297 13.1478 7.74085 12.7002 8.29297 12.7H8.30273Z" fill="#1C252E"/>
<path d="M8.30273 15.7C8.85483 15.7002 9.30273 16.1479 9.30273 16.7C9.30273 17.2522 8.85483 17.6998 8.30273 17.7H8.29297C7.74085 17.6998 7.29297 17.2522 7.29297 16.7C7.29297 16.1478 7.74085 15.7002 8.29297 15.7H8.30273Z" fill="#1C252E"/>
</svg>
