<svg width="24" height="24" viewBox="0 0 24 24" fill="none" xmlns="http://www.w3.org/2000/svg">
<path d="M7.25 5V2C7.25 1.58579 7.58579 1.25 8 1.25C8.41421 1.25 8.75 1.58579 8.75 2V5C8.75 5.41421 8.41421 5.75 8 5.75C7.58579 5.75 7.25 5.41421 7.25 5Z" fill="#1C252E"/>
<path d="M15.25 5V2C15.25 1.58579 15.5858 1.25 16 1.25C16.4142 1.25 16.75 1.58579 16.75 2V5C16.75 5.41421 16.4142 5.75 16 5.75C15.5858 5.75 15.25 5.41421 15.25 5Z" fill="#1C252E"/>
<path d="M20.5 8.33997C20.9142 8.33997 21.25 8.67575 21.25 9.08997C21.25 9.50418 20.9142 9.83997 20.5 9.83997H3.5C3.08579 9.83997 2.75 9.50418 2.75 9.08997C2.75 8.67575 3.08579 8.33997 3.5 8.33997H20.5Z" fill="#1C252E"/>
<path d="M21.25 19C21.25 17.2051 19.7949 15.75 18 15.75C16.2051 15.75 14.75 17.2051 14.75 19C14.75 20.7949 16.2051 22.25 18 22.25C19.7949 22.25 21.25 20.7949 21.25 19ZM22.75 19C22.75 21.6234 20.6234 23.75 18 23.75C15.3766 23.75 13.25 21.6234 13.25 19C13.25 16.3766 15.3766 14.25 18 14.25C20.6234 14.25 22.75 16.3766 22.75 19Z" fill="#1C252E"/>
<path d="M17.25 20.5802V19.7999H16.5098C16.0956 19.7999 15.7598 19.4641 15.7598 19.0499C15.7598 18.6357 16.0956 18.2999 16.5098 18.2999H17.25V17.59C17.25 17.1758 17.5858 16.84 18 16.84C18.4141 16.8401 18.75 17.1758 18.75 17.59V18.2999H19.4902C19.9042 18.3002 20.2402 18.6359 20.2402 19.0499C20.2402 19.464 19.9042 19.7997 19.4902 19.7999H18.75V20.5802C18.7499 20.9942 18.414 21.3301 18 21.3302C17.5859 21.3302 17.2501 20.9943 17.25 20.5802Z" fill="#1C252E"/>
<path d="M20.25 8.5C20.25 7.11505 19.9034 6.07576 19.2627 5.38574C18.6313 4.70579 17.607 4.25 16 4.25H8C6.39295 4.25 5.36869 4.70579 4.7373 5.38574C4.09664 6.07576 3.75 7.11505 3.75 8.5V17C3.75 18.385 4.09664 19.4242 4.7373 20.1143C5.36869 20.7942 6.39295 21.25 8 21.25H13.8252C13.4569 20.5785 13.25 19.808 13.25 19C13.25 16.3758 15.3758 14.25 18 14.25C18.8165 14.25 19.5822 14.4571 20.25 14.8184V8.5ZM21.75 16.3604C21.7498 16.6723 21.5565 16.9514 21.2646 17.0615C20.9726 17.1717 20.6426 17.0898 20.4365 16.8555C19.8416 16.179 18.9735 15.75 18 15.75C16.2042 15.75 14.75 17.2042 14.75 19C14.75 19.5333 14.8801 20.0396 15.1123 20.4814L15.2188 20.666L15.2275 20.6816C15.3945 20.9679 15.6086 21.222 15.8516 21.4258C16.0932 21.6284 16.183 21.9605 16.0752 22.2568C15.9673 22.553 15.6853 22.75 15.3701 22.75H8C6.10712 22.75 4.63131 22.2057 3.6377 21.1357C2.65342 20.0758 2.25 18.615 2.25 17V8.5C2.25 6.88503 2.65342 5.42424 3.6377 4.36426C4.63131 3.29429 6.10712 2.75 8 2.75H16C17.8929 2.75 19.3687 3.29429 20.3623 4.36426C21.3466 5.42424 21.75 6.88503 21.75 8.5V16.3604Z" fill="#1C252E"/>
<path d="M12.0059 12.7C12.558 12.7002 13.0059 13.1479 13.0059 13.7C13.0059 14.2522 12.558 14.6998 12.0059 14.7H11.9961C11.444 14.6998 10.9961 14.2522 10.9961 13.7C10.9961 13.1478 11.444 12.7002 11.9961 12.7H12.0059Z" fill="#1C252E"/>
<path d="M8.30273 12.7C8.85483 12.7002 9.30273 13.1479 9.30273 13.7C9.30273 14.2522 8.85483 14.6998 8.30273 14.7H8.29297C7.74085 14.6998 7.29297 14.2522 7.29297 13.7C7.29297 13.1478 7.74085 12.7002 8.29297 12.7H8.30273Z" fill="#1C252E"/>
<path d="M8.30273 15.7C8.85483 15.7002 9.30273 16.1479 9.30273 16.7C9.30273 17.2522 8.85483 17.6998 8.30273 17.7H8.29297C7.74085 17.6998 7.29297 17.2522 7.29297 16.7C7.29297 16.1478 7.74085 15.7002 8.29297 15.7H8.30273Z" fill="#1C252E"/>
</svg>
