<svg width="24" height="24" viewBox="0 0 24 24" fill="none" xmlns="http://www.w3.org/2000/svg">
<path d="M7.25 5V2C7.25 1.58579 7.58579 1.25 8 1.25C8.41421 1.25 8.75 1.58579 8.75 2V5C8.75 5.41421 8.41421 5.75 8 5.75C7.58579 5.75 7.25 5.41421 7.25 5Z" fill="#1C252E"/>
<path d="M15.25 5V2C15.25 1.58579 15.5858 1.25 16 1.25C16.4142 1.25 16.75 1.58579 16.75 2V5C16.75 5.41421 16.4142 5.75 16 5.75C15.5858 5.75 15.25 5.41421 15.25 5Z" fill="#1C252E"/>
<path d="M20.6504 18.2002C20.6504 16.8472 19.5532 15.7501 18.2002 15.75C16.8471 15.75 15.75 16.8471 15.75 18.2002C15.7501 19.5532 16.8472 20.6504 18.2002 20.6504C19.5531 20.6503 20.6503 19.5531 20.6504 18.2002ZM22.1504 18.2002C22.1503 20.3816 20.3816 22.1503 18.2002 22.1504C16.0187 22.1504 14.2501 20.3816 14.25 18.2002C14.25 16.0187 16.0187 14.25 18.2002 14.25C20.3816 14.2501 22.1504 16.0187 22.1504 18.2002Z" fill="#1C252E"/>
<path d="M20.4697 20.4697C20.7626 20.1768 21.2373 20.1768 21.5302 20.4697L22.5302 21.4697C22.8231 21.7626 22.8231 22.2374 22.5302 22.5303C22.2373 22.8232 21.7626 22.8232 21.4697 22.5303L20.4697 21.5303C20.1768 21.2374 20.1768 20.7626 20.4697 20.4697Z" fill="#1C252E"/>
<path d="M20.5 8.33997C20.9142 8.33997 21.25 8.67575 21.25 9.08997C21.25 9.50418 20.9142 9.83997 20.5 9.83997H3.5C3.08579 9.83997 2.75 9.50418 2.75 9.08997C2.75 8.67575 3.08579 8.33997 3.5 8.33997H20.5Z" fill="#1C252E"/>
<path d="M20.25 13V8.5C20.25 7.11505 19.9034 6.07576 19.2627 5.38574C18.6313 4.70579 17.607 4.25 16 4.25H8C6.39295 4.25 5.36869 4.70579 4.7373 5.38574C4.09664 6.07576 3.75 7.11505 3.75 8.5V17C3.75 18.385 4.09664 19.4242 4.7373 20.1143C5.36869 20.7942 6.39295 21.25 8 21.25H13.3701C13.7843 21.2501 14.1201 21.5858 14.1201 22C14.1201 22.4142 13.7843 22.7499 13.3701 22.75H8C6.10712 22.75 4.63131 22.2057 3.6377 21.1357C2.65342 20.0758 2.25 18.615 2.25 17V8.5C2.25 6.88503 2.65342 5.42424 3.6377 4.36426C4.63131 3.29429 6.10712 2.75 8 2.75H16C17.8929 2.75 19.3687 3.29429 20.3623 4.36426C21.3466 5.42424 21.75 6.88503 21.75 8.5V13C21.75 13.4142 21.4142 13.75 21 13.75C20.5858 13.75 20.25 13.4142 20.25 13Z" fill="#1C252E"/>
<path d="M12.0059 12.7C12.558 12.7002 13.0059 13.1479 13.0059 13.7C13.0059 14.2522 12.558 14.6998 12.0059 14.7H11.9961C11.444 14.6998 10.9961 14.2522 10.9961 13.7C10.9961 13.1478 11.444 12.7002 11.9961 12.7H12.0059Z" fill="#1C252E"/>
<path d="M8.30273 12.7C8.85483 12.7002 9.30273 13.1479 9.30273 13.7C9.30273 14.2522 8.85483 14.6998 8.30273 14.7H8.29297C7.74085 14.6998 7.29297 14.2522 7.29297 13.7C7.29297 13.1478 7.74085 12.7002 8.29297 12.7H8.30273Z" fill="#1C252E"/>
<path d="M8.30273 15.7C8.85483 15.7002 9.30273 16.1479 9.30273 16.7C9.30273 17.2522 8.85483 17.6998 8.30273 17.7H8.29297C7.74085 17.6998 7.29297 17.2522 7.29297 16.7C7.29297 16.1478 7.74085 15.7002 8.29297 15.7H8.30273Z" fill="#1C252E"/>
</svg>
