<svg width="24" height="24" viewBox="0 0 24 24" fill="none" xmlns="http://www.w3.org/2000/svg">
<path d="M19.8604 7.11957C19.8602 6.68705 19.6904 6.18571 19.3799 5.73676C19.0692 5.28758 18.6607 4.9529 18.2578 4.80219H18.2568L13.2734 2.93402V2.935C12.9546 2.8187 12.4946 2.74752 12.0029 2.7475C11.5104 2.7475 11.0583 2.81902 10.7529 2.93304V2.93207L5.76367 4.80219H5.7627C5.35972 4.95287 4.9514 5.28752 4.64062 5.73676C4.33005 6.18574 4.16027 6.68702 4.16016 7.11957V14.5502C4.16021 14.9912 4.31136 15.557 4.58887 16.1088C4.86633 16.6604 5.23194 17.1223 5.58887 17.3891L9.88867 20.5991L9.89062 20.6C10.4427 21.015 11.2087 21.2445 12.0098 21.2446C12.8109 21.2446 13.5778 21.0151 14.1299 20.6L14.1318 20.5991L18.4316 17.3891L18.5654 17.2807C18.8784 17.0061 19.1888 16.5917 19.4316 16.1088C19.7091 15.5571 19.8603 14.9911 19.8604 14.5502V7.11957ZM21.3604 14.5502C21.3603 15.2891 21.1213 16.0882 20.7715 16.7836C20.4216 17.4792 19.9219 18.1471 19.3291 18.5903V18.5912L15.0303 21.7983L15.0312 21.7993C14.1734 22.4442 13.0736 22.7446 12.0098 22.7446C10.9467 22.7445 9.84878 22.4443 8.99121 21.8002L4.69141 18.5912V18.5903C4.09855 18.1472 3.59897 17.4792 3.24902 16.7836C2.89922 16.0882 2.66021 15.2891 2.66016 14.5502V7.11957C2.66026 6.32238 2.96052 5.52897 3.40723 4.88324C3.85389 4.23761 4.49045 3.67723 5.2373 3.39789L10.2266 1.52777H10.2275C10.7522 1.33183 11.3956 1.2475 12.0029 1.2475C12.6111 1.24752 13.2561 1.33217 13.7871 1.52582L13.793 1.52777L18.7832 3.39789L19.0576 3.51508C19.686 3.81835 20.2224 4.31821 20.6133 4.88324C21.06 5.52897 21.3602 6.32238 21.3604 7.11957V14.5502Z" fill="#1C252E"/>
<path d="M15.25 11.5C15.25 9.70507 13.7949 8.25 12 8.25C10.2051 8.25 8.75 9.70507 8.75 11.5C8.75 13.2949 10.2051 14.75 12 14.75C13.7949 14.75 15.25 13.2949 15.25 11.5ZM16.75 11.5C16.75 14.1234 14.6234 16.25 12 16.25C9.37665 16.25 7.25 14.1234 7.25 11.5C7.25 8.87665 9.37665 6.75 12 6.75C14.6234 6.75 16.75 8.87665 16.75 11.5Z" fill="#1C252E"/>
<path d="M11.5001 11.1797V10.25C11.5001 9.83579 11.8359 9.5 12.2501 9.5C12.6643 9.5 13.0001 9.83579 13.0001 10.25V11.1797C13.0001 11.7816 12.691 12.3595 12.1476 12.6807L11.3888 13.1416C11.0345 13.356 10.5731 13.2428 10.3585 12.8887C10.1441 12.5344 10.2573 12.0729 10.6114 11.8584L11.3722 11.3984L11.3839 11.3916C11.4532 11.3513 11.5001 11.2735 11.5001 11.1797Z" fill="#1C252E"/>
</svg>
