<svg width="24" height="24" viewBox="0 0 24 24" fill="none" xmlns="http://www.w3.org/2000/svg">
<path d="M7.93973 14.51C7.31973 14.28 6.76972 13.83 6.41972 13.19C5.61972 11.73 6.10972 9.83001 7.52972 8.95001L9.86972 7.5C11.2797 6.62 13.0997 7.09999 13.8997 8.54999C14.6997 10.01 14.2097 11.91 12.7897 12.79L12.4797 13.01" stroke="#1C252E" stroke-width="1.5" stroke-linecap="round" stroke-linejoin="round"/>
<path d="M16.1102 9.44995C16.7302 9.67995 17.2802 10.1299 17.6302 10.7699C18.4302 12.2299 17.9402 14.1299 16.5202 15.0099L14.1802 16.4599C12.7702 17.3399 10.9502 16.8599 10.1502 15.4099C9.35019 13.9499 9.84019 12.05 11.2602 11.17L11.5702 10.95" stroke="#1C252E" stroke-width="1.5" stroke-linecap="round" stroke-linejoin="round"/>
<path d="M12 22C17.5228 22 22 17.5228 22 12C22 6.47715 17.5228 2 12 2C6.47715 2 2 6.47715 2 12C2 17.5228 6.47715 22 12 22Z" stroke="#1C252E" stroke-width="1.5" stroke-linecap="round" stroke-linejoin="round"/>
</svg>
