<svg width="24" height="24" viewBox="0 0 24 24" fill="none" xmlns="http://www.w3.org/2000/svg">
<path d="M9 22H15C20 22 22 20 22 15V9C22 4 20 2 15 2H9C4 2 2 4 2 9V15C2 20 4 22 9 22Z" stroke="#1C252E" stroke-width="1.5" stroke-linecap="round" stroke-linejoin="round"/>
<path d="M6.99043 15.08L8.93042 17.02C9.57042 17.66 10.6304 17.66 11.2704 17.02L17.0204 11.27C17.6604 10.63 17.6604 9.57 17.0204 8.93L15.0804 6.99001C14.4404 6.35001 13.3804 6.35001 12.7404 6.99001L6.99043 12.74C6.34043 13.38 6.34043 14.43 6.99043 15.08Z" stroke="#1C252E" stroke-width="1.5" stroke-linecap="round" stroke-linejoin="round"/>
<path d="M9.31055 10.42L13.5806 14.69" stroke="#1C252E" stroke-width="1.5" stroke-linecap="round" stroke-linejoin="round"/>
</svg>
