<svg width="24" height="24" viewBox="0 0 24 24" fill="none" xmlns="http://www.w3.org/2000/svg">
<path d="M2.62012 15.75C2.62012 16.52 2.65012 17.21 2.74012 17.83C3.10012 21.11 4.66012 22 8.88012 22H15.1201C19.3501 22 20.9001 21.11 21.2701 17.83C21.3501 17.21 21.3801 16.52 21.3801 15.75V8.25C21.3801 7.48 21.3601 6.79 21.2701 6.18C20.9101 2.89 19.3501 2 15.1301 2H8.88012C4.65012 2 3.10012 2.89 2.73012 6.18C2.65012 6.79 2.62012 7.48 2.62012 8.25V10.5" stroke="#1C252E" stroke-width="1.5" stroke-linecap="round" stroke-linejoin="round"/>
<path d="M21.2299 8.91998H17.1299" stroke="#1C252E" stroke-width="1.5" stroke-linecap="round" stroke-linejoin="round"/>
<path d="M6.87002 8.91998H2.77002" stroke="#1C252E" stroke-width="1.5" stroke-linecap="round" stroke-linejoin="round"/>
<path d="M17.1301 8.92C17.1301 10.05 16.2101 10.97 15.0801 10.97H8.92012C8.36012 10.97 7.84012 10.74 7.47012 10.36C7.10012 9.99999 6.87012 9.49 6.87012 8.92C6.87012 7.79 7.79012 6.87 8.92012 6.87H15.0701C15.6301 6.87 16.1501 7.1 16.5201 7.48C16.9001 7.85 17.1301 8.36 17.1301 8.92Z" stroke="#1C252E" stroke-width="1.5" stroke-linecap="round" stroke-linejoin="round"/>
</svg>
