<svg width="24" height="24" viewBox="0 0 24 24" fill="none" xmlns="http://www.w3.org/2000/svg">
<path d="M8.58984 15.5599L15.2098 9.4899C15.4898 9.2399 15.4798 8.83992 15.1898 8.59992L13.1299 6.87992C12.5899 6.42992 12.1599 6.63991 12.1599 7.33991V16.6699C12.1599 17.3699 12.5999 17.5699 13.1299 17.1299L15.1898 15.4099C15.4798 15.1699 15.4898 14.7699 15.2098 14.5199L8.58984 8.44992" stroke="#1C252E" stroke-width="1.5" stroke-miterlimit="10" stroke-linecap="round" stroke-linejoin="round"/>
<path d="M4 7V17C4 20 6 22 9 22H15C18 22 20 20 20 17V7C20 4 18 2 15 2H9" stroke="#1C252E" stroke-width="1.5" stroke-miterlimit="10" stroke-linecap="round" stroke-linejoin="round"/>
</svg>
