<svg width="24" height="24" viewBox="0 0 24 24" fill="none" xmlns="http://www.w3.org/2000/svg">
<path d="M16.9629 14.7927C17.3769 14.7929 17.7129 15.1286 17.7129 15.5427C17.7128 15.9567 17.3769 16.2925 16.9629 16.2927H16.9521C16.538 16.2927 16.2023 15.9568 16.2021 15.5427C16.2021 15.1285 16.5379 14.7927 16.9521 14.7927H16.9629ZM15.2979 13.1257C15.7121 13.1257 16.0479 13.4615 16.0479 13.8757C16.0478 14.2899 15.712 14.6257 15.2979 14.6257H15.2871C14.873 14.6257 14.5372 14.2899 14.5371 13.8757C14.5371 13.4615 14.8729 13.1257 15.2871 13.1257H15.2979ZM18.6318 13.1257C19.046 13.1257 19.3818 13.4615 19.3818 13.8757C19.3817 14.2899 19.046 14.6257 18.6318 14.6257H18.6211C18.207 14.6256 17.8712 14.2898 17.8711 13.8757C17.8711 13.4616 18.207 13.1259 18.6211 13.1257H18.6318ZM16.9629 11.4587C17.3769 11.459 17.7129 11.7947 17.7129 12.2087C17.7127 12.6227 17.3768 12.9585 16.9629 12.9587H16.9521C16.538 12.9587 16.2023 12.6228 16.2021 12.2087C16.2021 11.7945 16.5379 11.4587 16.9521 11.4587H16.9629Z" fill="#1C252E"/>
<path d="M7.00309 12.2084V13.8754M7.00309 13.8754V15.5425M7.00309 13.8754H8.66976M7.00309 13.8754H5.33643" stroke="#1C252E" stroke-width="1.5" stroke-linecap="round" stroke-linejoin="round"/>
<path d="M2.34223 12.5C2.95188 10.0306 4.33581 8.45752 6.16669 8.45752C7.00002 8.45752 7.6383 8.66969 8.4918 9.03699C9.46815 9.45715 10.6831 9.70626 12 9.70626C13.3169 9.70626 14.5319 9.45716 15.5082 9.03699C16.3618 8.66969 17 8.45756 17.8334 8.45756C20.3334 8.45756 22 11.3905 22 15.5336C22 18.3757 21.6255 20.1892 20.4166 21.3187C18.9572 22.6822 16.979 20.8378 15.7942 19.2305C14.8772 17.9865 13.5176 17.1986 12 17.1986C10.4825 17.1986 9.12287 17.9865 8.20589 19.2304C7.02104 20.8378 5.04285 22.6822 3.58346 21.3187C2.76917 20.5579 2.33344 19.4868 2.13574 18" stroke="#1C252E" stroke-width="1.5" stroke-linecap="round" stroke-linejoin="round"/>
<path d="M17.8558 2.20605C17.8558 3.45634 17.8352 4.70662 14.9185 4.70662C12.2378 4.70662 11.8486 8.33966 11.8311 9.70911" stroke="#1C252E" stroke-width="1.5" stroke-linecap="round" stroke-linejoin="round"/>
</svg>
