<svg width="24" height="24" viewBox="0 0 24 24" fill="none" xmlns="http://www.w3.org/2000/svg">
<path d="M2.5 15C2.5 18.38 3.21 19.62 5.84 19.91C6.33 19.98 6.88 20 7.5 20H16.5C17.12 20 17.67 19.98 18.16 19.91C20.79 19.62 21.5 18.38 21.5 15V9C21.5 5.62 20.79 4.38 18.16 4.09C17.67 4.02 17.12 4 16.5 4H7.5C6.88 4 6.33 4.02 5.84 4.09C3.21 4.38 2.5 5.62 2.5 9" stroke="#1C252E" stroke-width="1.5" stroke-linecap="round" stroke-linejoin="round"/>
<path d="M13.5 10H17" stroke="#1C252E" stroke-width="1.5" stroke-linecap="round" stroke-linejoin="round"/>
<path d="M7 15.5H7.02H17" stroke="#1C252E" stroke-width="1.5" stroke-linecap="round" stroke-linejoin="round"/>
<path d="M10.0947 10H10.1037" stroke="#1C252E" stroke-width="2" stroke-linecap="round" stroke-linejoin="round"/>
<path d="M7.09473 10H7.10371" stroke="#1C252E" stroke-width="2" stroke-linecap="round" stroke-linejoin="round"/>
</svg>
