<svg width="24" height="24" viewBox="0 0 24 24" fill="none" xmlns="http://www.w3.org/2000/svg">
<path d="M2 18.0799C2 20.4199 3.56 21.9699 5.89 21.9699H12.11C14.44 21.9699 16 20.4199 16 18.0799V12.6899C16 11.6599 15.59 10.6699 14.86 9.93992L12.47 7.55992C11.74 6.82992 10.75 6.41992 9.72 6.41992H5.89C3.56 6.41992 2 7.96992 2 10.3099" stroke="#1C252E" stroke-width="1.5" stroke-linecap="round" stroke-linejoin="round"/>
<path d="M22 8.24997V13.64C22 15.97 20.44 17.53 18.11 17.53H16V12.69C16 11.66 15.59 10.67 14.86 9.93997L12.47 7.55997C11.74 6.82997 10.75 6.41997 9.72 6.41997H8V5.85997C8 3.52997 9.56 1.96997 11.89 1.96997H15.72C16.75 1.96997 17.74 2.37997 18.47 3.10997L20.86 5.49997C21.59 6.22997 22 7.21997 22 8.24997Z" stroke="#1C252E" stroke-width="1.5" stroke-linecap="round" stroke-linejoin="round"/>
</svg>
