<svg width="24" height="24" viewBox="0 0 24 24" fill="none" xmlns="http://www.w3.org/2000/svg">
<path d="M12.9699 17.61L10.8599 15.5" stroke="#1C252E" stroke-width="1.5" stroke-miterlimit="10" stroke-linecap="round" stroke-linejoin="round"/>
<path d="M12.9501 15.52L10.8301 17.64" stroke="#1C252E" stroke-width="1.5" stroke-miterlimit="10" stroke-linecap="round" stroke-linejoin="round"/>
<path d="M5.53978 11.12C0.859785 11.45 0.859785 18.26 5.53978 18.59H7.45978" stroke="#1C252E" stroke-width="1.5" stroke-miterlimit="10" stroke-linecap="round" stroke-linejoin="round"/>
<path d="M16.4493 18.59H16.5393C17.8893 18.6 19.1793 18.1 20.1793 17.19C23.4593 14.32 21.7093 8.55002 17.3793 8.00002C16.0979 0.245461 6.62189 1.34162 5.18994 7" stroke="#1C252E" stroke-width="1.5" stroke-miterlimit="10" stroke-linecap="round" stroke-linejoin="round"/>
<path d="M17 16.53C17 17.27 16.84 17.97 16.54 18.59C16.46 18.77 16.37 18.94 16.27 19.1C15.41 20.55 13.82 21.53 12 21.53C10.18 21.53 8.59 20.55 7.73 19.1C7.63 18.94 7.54 18.77 7.46 18.59C7.16 17.97 7 17.27 7 16.53C7 13.77 9.24 11.53 12 11.53C14.76 11.53 17 13.77 17 16.53Z" stroke="#1C252E" stroke-width="1.5" stroke-miterlimit="10" stroke-linecap="round" stroke-linejoin="round"/>
</svg>
