<svg width="24" height="24" viewBox="0 0 24 24" fill="none" xmlns="http://www.w3.org/2000/svg">
<path d="M3.5 7C3.5 4 4.97 2 8.49 2H15.49C18.96 2 20.49 4 20.49 7V8C20.49 8.55 20.04 9 19.49 9C18.94 9 18.49 9.45 18.49 10V12.18C18.49 12.71 18.7 13.21 19.08 13.59L19.91 14.42C20.29 14.79 20.5 15.3 20.5 15.83V17C20.5 20 18.97 22 15.5 22H8.5C4.97 22 3.5 20 3.5 17V14.42" stroke="#1C252E" stroke-width="1.5" stroke-linecap="round" stroke-linejoin="round"/>
<path d="M7.98998 21.97L7.97998 19C7.97998 17.89 8.86998 17 9.97998 17H13.99C15.09 17 15.98 17.89 15.99 18.99L16.02 21.98" stroke="#1C252E" stroke-width="1.5" stroke-linecap="round" stroke-linejoin="round"/>
<path d="M13.9702 7.78003H7.97021" stroke="#1C252E" stroke-width="1.5" stroke-linecap="round" stroke-linejoin="round"/>
</svg>
