<svg width="24" height="24" viewBox="0 0 24 24" fill="none" xmlns="http://www.w3.org/2000/svg">
<path d="M3 7C3 4 5 2 8 2H12.93C14.26 2 15.53 2.53 16.47 3.47L19.54 6.54C20.47 7.47 21 8.74 21 10.07V17C21 20 19 22 16 22H8C5 22 3 20 3 17V14" stroke="#1C252E" stroke-width="1.5" stroke-linecap="round" stroke-linejoin="round"/>
<path d="M10 18.5H14C15.65 18.5 17 17.15 17 15.5V12.5C17 10.85 15.65 9.5 14 9.5H10C8.35 9.5 7 10.85 7 12.5V15.5C7 17.15 8.35 18.5 10 18.5Z" stroke="#1C252E" stroke-width="1.5" stroke-linecap="round" stroke-linejoin="round"/>
<path d="M12 9.5V18.5" stroke="#1C252E" stroke-width="1.5" stroke-linecap="round" stroke-linejoin="round"/>
<path d="M7.5 14H16.5" stroke="#1C252E" stroke-width="1.5" stroke-linecap="round" stroke-linejoin="round"/>
</svg>
