<svg width="24" height="24" viewBox="0 0 24 24" fill="none" xmlns="http://www.w3.org/2000/svg">
<path d="M13.5991 14.51L13.0691 13.98L13.5691 13.48C13.8591 13.19 13.8591 12.71 13.5691 12.42C13.2791 12.13 12.7991 12.13 12.5091 12.42L12.0091 12.92L11.4791 12.39C11.1891 12.1 10.7091 12.1 10.4191 12.39C10.1291 12.68 10.1291 13.16 10.4191 13.45L10.9491 13.98L10.3991 14.53C10.1091 14.82 10.1091 15.3 10.3991 15.59C10.5491 15.74 10.7391 15.81 10.9291 15.81C11.1191 15.81 11.3091 15.74 11.4591 15.59L12.0091 15.04L12.5391 15.57C12.6891 15.72 12.8791 15.79 13.0691 15.79C13.2591 15.79 13.4491 15.72 13.5991 15.57C13.8891 15.28 13.8891 14.81 13.5991 14.51Z" fill="#1C252E"/>
<path opacity="0.4" d="M21.8504 11.41L21.2304 18.19C21.0204 20.19 20.2004 22.23 15.8004 22.23H8.18039C3.78039 22.23 2.96039 20.19 2.76039 18.2L2.15039 11.69C2.16039 11.7 2.17039 11.71 2.19039 11.72C2.53039 11.94 2.86039 12.16 3.22039 12.36C3.36039 12.45 3.51039 12.53 3.66039 12.61C4.79039 13.23 6.00039 13.72 7.25039 14.06C7.75039 14.21 8.26039 14.32 8.78039 14.41C8.98039 16.01 10.3504 17.25 12.0004 17.25C13.6704 17.25 15.0504 15.98 15.2304 14.35V14.34C15.7404 14.24 16.2504 14.11 16.7504 13.96C18.0004 13.57 19.2104 13.05 20.3404 12.39C20.4004 12.36 20.4504 12.33 20.4904 12.3C20.9504 12.05 21.3904 11.76 21.8104 11.46C21.8304 11.45 21.8404 11.43 21.8504 11.41Z" fill="#1C252E"/>
<path d="M21.0891 6.97999C20.2391 6.03999 18.8291 5.56999 16.7591 5.56999H16.5191V5.52999C16.5191 3.84999 16.5191 1.76999 12.7591 1.76999H11.2391C7.47906 1.76999 7.47906 3.84999 7.47906 5.52999V5.56999H7.23906C5.16906 5.56999 3.74906 6.03999 2.90906 6.97999C1.91906 8.08999 1.94906 9.55999 2.04906 10.57L2.05906 10.64L2.14906 11.69C2.15906 11.7 2.17906 11.71 2.19906 11.72C2.53906 11.94 2.86906 12.16 3.22906 12.36C3.36906 12.45 3.51906 12.53 3.66906 12.61C4.79906 13.23 6.00906 13.72 7.24906 14.06C7.27906 16.65 9.39906 18.75 11.9991 18.75C14.6191 18.75 16.7491 16.62 16.7491 14V13.96C18.0091 13.58 19.2191 13.05 20.3491 12.39C20.4091 12.36 20.4491 12.33 20.4991 12.3C20.9591 12.05 21.3991 11.76 21.8191 11.46C21.8291 11.45 21.8491 11.43 21.8591 11.41L21.8991 11.05L21.9491 10.58C21.9591 10.52 21.9591 10.47 21.9691 10.4C22.0491 9.39999 22.0291 8.01999 21.0891 6.97999ZM8.90906 5.52999C8.90906 3.82999 8.90906 3.18999 11.2391 3.18999H12.7591C15.0891 3.18999 15.0891 3.82999 15.0891 5.52999V5.56999H8.90906V5.52999ZM11.9991 17.25C10.3491 17.25 8.97906 16.01 8.77906 14.41C8.75906 14.28 8.74906 14.14 8.74906 14C8.74906 12.21 10.2091 10.75 11.9991 10.75C13.7891 10.75 15.2491 12.21 15.2491 14C15.2491 14.12 15.2391 14.23 15.2291 14.34V14.35C15.0491 15.98 13.6691 17.25 11.9991 17.25Z" fill="#1C252E"/>
</svg>
