<svg width="24" height="24" viewBox="0 0 24 24" fill="none" xmlns="http://www.w3.org/2000/svg">
<path opacity="0.4" d="M13.89 2.88002L9.19999 2.14002C5.28999 1.53002 3.47999 2.85002 2.85999 6.76002L2.11999 11.45C1.71999 14.01 2.13999 15.67 3.58999 16.68C4.34999 17.22 5.38999 17.58 6.73999 17.79L11.43 18.53C15.34 19.14 17.15 17.82 17.77 13.91L18.5 9.22002C18.62 8.45002 18.67 7.76002 18.63 7.15002C18.5 4.65002 17.03 3.37002 13.89 2.88002ZM8.23999 9.35002C7.06999 9.35002 6.11999 8.40002 6.11999 7.24002C6.11999 6.07002 7.06999 5.12002 8.23999 5.12002C9.39999 5.12002 10.35 6.07002 10.35 7.24002C10.35 8.40002 9.39999 9.35002 8.23999 9.35002Z" fill="#1C252E"/>
<path d="M20.4998 13.47L18.9998 17.98C17.7498 21.74 15.7498 22.74 11.9898 21.49L7.47984 19.99C5.20984 19.24 3.94984 18.2 3.58984 16.68C4.34984 17.22 5.38984 17.58 6.73984 17.79L11.4298 18.53C15.3398 19.14 17.1498 17.82 17.7698 13.91L18.4998 9.22002C18.6198 8.45002 18.6698 7.76002 18.6298 7.15002C21.0198 8.42002 21.5398 10.34 20.4998 13.47Z" fill="#1C252E"/>
<path d="M10.3491 7.24C10.3491 8.39999 9.39914 9.35 8.23914 9.35C7.06914 9.35 6.11914 8.39999 6.11914 7.24C6.11914 6.07 7.06914 5.12 8.23914 5.12C9.39914 5.12 10.3491 6.07 10.3491 7.24Z" fill="#1C252E"/>
</svg>
