<svg width="24" height="24" viewBox="0 0 24 24" fill="none" xmlns="http://www.w3.org/2000/svg">
<path d="M9.65143 7.6277C11.513 5.77822 14.5164 5.77596 16.3702 7.62965L16.3721 7.63161C18.2216 9.49318 18.2239 12.4966 16.3702 14.3504L14.1505 16.5701C13.0776 17.643 11.3327 17.643 10.2598 16.5701C9.18694 15.4972 9.18693 13.7523 10.2598 12.6795L11.67 11.2693C11.9629 10.9768 12.4378 10.9766 12.7305 11.2693C13.0233 11.5621 13.0231 12.0369 12.7305 12.3298L11.3204 13.74C10.8333 14.2271 10.8333 15.0224 11.3204 15.5095C11.8075 15.9966 12.6028 15.9966 13.0899 15.5095L15.3096 13.2898C16.5753 12.0242 16.5783 9.96876 15.3096 8.6902C14.0435 7.42415 11.9875 7.42206 10.709 8.69215L10.7081 8.69118L8.2901 11.1101C7.2431 12.1571 7.24332 13.8521 8.2901 14.8992C8.58299 15.1921 8.58299 15.6678 8.2901 15.9607C7.99724 16.2533 7.52237 16.2533 7.22955 15.9607C5.59666 14.3278 5.59666 11.6825 7.22955 10.0496L9.65143 7.6277Z" fill="#1C252E"/>
<path d="M21.25 12C21.25 6.89137 17.1086 2.75 12 2.75C6.89137 2.75 2.75 6.89137 2.75 12C2.75 17.1086 6.89137 21.25 12 21.25C17.1086 21.25 21.25 17.1086 21.25 12ZM22.75 12C22.75 17.9371 17.9371 22.75 12 22.75C6.06294 22.75 1.25 17.9371 1.25 12C1.25 6.06294 6.06294 1.25 12 1.25C17.9371 1.25 22.75 6.06294 22.75 12Z" fill="#1C252E"/>
</svg>
