<svg width="24" height="24" viewBox="0 0 24 24" fill="none" xmlns="http://www.w3.org/2000/svg">
<path d="M11.2197 15.5V12C11.2197 11.5858 11.5555 11.25 11.9697 11.25C12.3839 11.25 12.7197 11.5858 12.7197 12V15.5C12.7197 17.0158 13.9539 18.25 15.4697 18.25C16.9855 18.25 18.2197 17.0158 18.2197 15.5V10C18.2197 6.54421 15.4255 3.75 11.9697 3.75C8.51394 3.75 5.71973 6.54421 5.71973 10V16C5.71973 18.8958 8.07394 21.25 10.9697 21.25C11.3839 21.25 11.7197 21.5858 11.7197 22C11.7197 22.4142 11.3839 22.75 10.9697 22.75C7.24551 22.75 4.21973 19.7242 4.21973 16V10C4.21973 5.71579 7.68551 2.25 11.9697 2.25C16.2539 2.25 19.7197 5.71579 19.7197 10V15.5C19.7197 17.8442 17.8139 19.75 15.4697 19.75C13.1255 19.75 11.2197 17.8442 11.2197 15.5Z" fill="#1C252E"/>
</svg>
