<svg width="24" height="24" viewBox="0 0 24 24" fill="none" xmlns="http://www.w3.org/2000/svg">
<path d="M21.25 9C21.25 6.57397 20.7603 5.0708 19.8447 4.15527C18.9292 3.23974 17.426 2.75 15 2.75H9C6.57397 2.75 5.0708 3.23974 4.15527 4.15527C3.23974 5.0708 2.75 6.57397 2.75 9V15C2.75 17.426 3.23974 18.9292 4.15527 19.8447C5.0708 20.7603 6.57397 21.25 9 21.25H15C17.426 21.25 18.9292 20.7603 19.8447 19.8447C20.7603 18.9292 21.25 17.426 21.25 15V9ZM22.75 15C22.75 17.574 22.2397 19.5708 20.9053 20.9053C19.5708 22.2397 17.574 22.75 15 22.75H9C6.42603 22.75 4.4292 22.2397 3.09473 20.9053C1.76026 19.5708 1.25 17.574 1.25 15V9C1.25 6.42603 1.76026 4.4292 3.09473 3.09473C4.4292 1.76026 6.42603 1.25 9 1.25H15C17.574 1.25 19.5708 1.76026 20.9053 3.09473C22.2397 4.4292 22.75 6.42603 22.75 9V15Z" fill="#1C252E"/>
<path d="M16.25 9.1604C16.25 8.92461 16.0454 8.71997 15.8096 8.71997H14.3203C14.0493 8.71997 13.8799 8.89944 13.8799 9.1604V10.6497C13.8799 10.9106 14.0493 11.0901 14.3203 11.0901H16.25V9.1604ZM17.75 11.8401C17.75 12.2542 17.4141 12.59 17 12.5901H14.3203C13.1714 12.5901 12.3799 11.6887 12.3799 10.6497V9.1604C12.3799 8.12136 13.1714 7.21997 14.3203 7.21997H15.8096C16.8738 7.21997 17.75 8.09619 17.75 9.1604V11.8401Z" fill="#1C252E"/>
<path d="M16.2501 11.8401C16.2501 11.4259 16.586 11.0902 17.0001 11.0901C17.4144 11.0901 17.7501 11.4259 17.7501 11.8401C17.7501 13.2487 17.6263 14.2353 17.1984 14.9993C16.7615 15.7792 16.0648 16.2173 15.2921 16.675C14.9358 16.886 14.4759 16.7687 14.2648 16.4124C14.0537 16.056 14.1721 15.5961 14.5285 15.385C15.3256 14.9128 15.6742 14.6508 15.8898 14.2659C16.1143 13.8648 16.2501 13.2212 16.2501 11.8401Z" fill="#1C252E"/>
<path d="M10.1104 9.1604C10.1104 8.92461 9.90571 8.71997 9.66992 8.71997H8.18066C7.90961 8.71997 7.74023 8.89944 7.74023 9.1604V10.6497C7.74023 10.9106 7.90961 11.0901 8.18066 11.0901H10.1104V9.1604ZM11.6104 11.8401C11.6103 12.2542 11.2745 12.59 10.8604 12.5901H8.18066C7.03171 12.5901 6.24023 11.6887 6.24023 10.6497V9.1604C6.24023 8.12136 7.03171 7.21997 8.18066 7.21997H9.66992C10.7341 7.21997 11.6104 8.09619 11.6104 9.1604V11.8401Z" fill="#1C252E"/>
<path d="M10.1105 11.8401C10.1105 11.4259 10.4464 11.0902 10.8605 11.0901C11.2747 11.0901 11.6105 11.4259 11.6105 11.8401C11.6105 13.2487 11.4866 14.2353 11.0587 14.9993C10.6219 15.7792 9.92517 16.2173 9.15248 16.675C8.79612 16.886 8.33621 16.7687 8.12514 16.4124C7.9141 16.056 8.03246 15.5961 8.38881 15.385C9.18593 14.9128 9.53452 14.6508 9.75014 14.2659C9.97469 13.8648 10.1105 13.2212 10.1105 11.8401Z" fill="#1C252E"/>
</svg>
