<svg width="24" height="24" viewBox="0 0 24 24" fill="none" xmlns="http://www.w3.org/2000/svg">
<path d="M21.25 9C21.25 6.57397 20.7603 5.0708 19.8447 4.15527C18.9292 3.23974 17.426 2.75 15 2.75H9C6.57397 2.75 5.0708 3.23974 4.15527 4.15527C3.23974 5.0708 2.75 6.57397 2.75 9V15C2.75 17.426 3.23974 18.9292 4.15527 19.8447C5.0708 20.7603 6.57397 21.25 9 21.25H15C17.426 21.25 18.9292 20.7603 19.8447 19.8447C20.7603 18.9292 21.25 17.426 21.25 15V9ZM22.75 15C22.75 17.574 22.2397 19.5708 20.9053 20.9053C19.5708 22.2397 17.574 22.75 15 22.75H9C6.42603 22.75 4.4292 22.2397 3.09473 20.9053C1.76026 19.5708 1.25 17.574 1.25 15V9C1.25 6.42603 1.76026 4.4292 3.09473 3.09473C4.4292 1.76026 6.42603 1.25 9 1.25H15C17.574 1.25 19.5708 1.76026 20.9053 3.09473C22.2397 4.4292 22.75 6.42603 22.75 9V15Z" fill="#1C252E"/>
<path d="M12.2102 6.45927C13.143 5.52667 14.6777 5.52685 15.6106 6.45927L17.551 8.3997C18.4838 9.33254 18.4837 10.8672 17.551 11.8001L11.801 17.5501C10.8681 18.483 9.33351 18.483 8.40061 17.5501L6.46018 15.6106C5.5196 14.67 5.51345 13.1414 6.46409 12.2054L12.2102 6.45927ZM14.55 7.52079C14.2029 7.17368 13.6178 7.17368 13.2707 7.52079L7.51683 13.2747C7.16764 13.6186 7.16138 14.1907 7.52073 14.5501L9.46116 16.4895C9.80827 16.8366 10.3934 16.8366 10.7405 16.4895L16.4905 10.7395C16.8374 10.3924 16.8375 9.8073 16.4905 9.46024L14.55 7.52079Z" fill="#1C252E"/>
<path d="M8.78022 9.88971C9.07311 9.59682 9.54787 9.59682 9.84076 9.88971L14.1113 14.1592C14.4041 14.4521 14.4042 14.9279 14.1113 15.2208C13.8184 15.5137 13.3426 15.5136 13.0497 15.2208L8.78022 10.9503C8.48732 10.6574 8.48732 10.1826 8.78022 9.88971Z" fill="#1C252E"/>
</svg>
