<svg width="24" height="24" viewBox="0 0 24 24" fill="none" xmlns="http://www.w3.org/2000/svg">
<path d="M12 3.75C12.4142 3.75 12.75 4.08579 12.75 4.5C12.75 4.91421 12.4142 5.25 12 5.25H3C2.58579 5.25 2.25 4.91421 2.25 4.5C2.25 4.08579 2.58579 3.75 3 3.75H12Z" fill="#1C252E"/>
<path d="M12 8.75C12.4142 8.75 12.75 9.08579 12.75 9.5C12.75 9.91421 12.4142 10.25 12 10.25H3C2.58579 10.25 2.25 9.91421 2.25 9.5C2.25 9.08579 2.58579 8.75 3 8.75H12Z" fill="#1C252E"/>
<path d="M21 13.75C21.4142 13.75 21.75 14.0858 21.75 14.5C21.75 14.9142 21.4142 15.25 21 15.25H3C2.58579 15.25 2.25 14.9142 2.25 14.5C2.25 14.0858 2.58579 13.75 3 13.75H21Z" fill="#1C252E"/>
<path d="M21 18.75C21.4142 18.75 21.75 19.0858 21.75 19.5C21.75 19.9142 21.4142 20.25 21 20.25H3C2.58579 20.25 2.25 19.9142 2.25 19.5C2.25 19.0858 2.58579 18.75 3 18.75H21Z" fill="#1C252E"/>
</svg>
