<svg width="24" height="24" viewBox="0 0 24 24" fill="none" xmlns="http://www.w3.org/2000/svg">
<path d="M21 3.75C21.4142 3.75 21.75 4.08579 21.75 4.5C21.75 4.91421 21.4142 5.25 21 5.25H14C13.5858 5.25 13.25 4.91421 13.25 4.5C13.25 4.08579 13.5858 3.75 14 3.75H21Z" fill="#1C252E"/>
<path d="M21 8.75C21.4142 8.75 21.75 9.08579 21.75 9.5C21.75 9.91421 21.4142 10.25 21 10.25H14C13.5858 10.25 13.25 9.91421 13.25 9.5C13.25 9.08579 13.5858 8.75 14 8.75H21Z" fill="#1C252E"/>
<path d="M21 13.75C21.4142 13.75 21.75 14.0858 21.75 14.5C21.75 14.9142 21.4142 15.25 21 15.25H3C2.58579 15.25 2.25 14.9142 2.25 14.5C2.25 14.0858 2.58579 13.75 3 13.75H21Z" fill="#1C252E"/>
<path d="M21 18.75C21.4142 18.75 21.75 19.0858 21.75 19.5C21.75 19.9142 21.4142 20.25 21 20.25H3C2.58579 20.25 2.25 19.9142 2.25 19.5C2.25 19.0858 2.58579 18.75 3 18.75H21Z" fill="#1C252E"/>
<path d="M8.75 5.57031C8.75 5.08503 8.64778 4.93956 8.60449 4.89648C8.56001 4.85235 8.41096 4.75 7.91992 4.75H5.07031C4.5851 4.75 4.43889 4.85213 4.39551 4.89551C4.35213 4.93889 4.25 5.0851 4.25 5.57031V8.41992C4.25 8.91096 4.35235 9.06001 4.39648 9.10449C4.43956 9.14778 4.58503 9.25 5.07031 9.25H7.91992C8.41096 9.25 8.56001 9.14765 8.60449 9.10352C8.64778 9.06044 8.75 8.91497 8.75 8.42969V5.57031ZM10.25 8.42969C10.25 9.0644 10.1273 9.70507 9.66309 10.167C9.19983 10.628 8.55815 10.75 7.91992 10.75H5.07031C4.4356 10.75 3.79493 10.6273 3.33301 10.1631C2.87205 9.69983 2.75 9.05815 2.75 8.41992V5.57031C2.75 4.93553 2.87334 4.29658 3.33496 3.83496C3.79658 3.37334 4.43553 3.25 5.07031 3.25H7.91992C8.55815 3.25 9.19983 3.37205 9.66309 3.83301C10.1273 4.29493 10.25 4.9356 10.25 5.57031V8.42969Z" fill="#1C252E"/>
</svg>
