<svg width="24" height="24" viewBox="0 0 24 24" fill="none" xmlns="http://www.w3.org/2000/svg">
<path d="M16.9194 13.6499C17.2032 13.6499 17.4631 13.8102 17.5903 14.064L19.7299 18.3335C19.9155 18.7038 19.7662 19.1547 19.396 19.3403C19.0258 19.5259 18.5748 19.3764 18.3891 19.0063L16.9194 16.0737L15.4507 19.0063C15.265 19.3765 14.814 19.5258 14.4438 19.3403C14.0735 19.1547 13.9233 18.7038 14.1089 18.3335L16.2495 14.064L16.3032 13.9731C16.4419 13.7727 16.6713 13.65 16.9194 13.6499Z" fill="#1C252E"/>
<path d="M18.6895 17.1599C19.1037 17.1599 19.4395 17.4957 19.4395 17.9099C19.4395 18.3241 19.1037 18.6599 18.6895 18.6599H15.1699C14.7557 18.6599 14.4199 18.3241 14.4199 17.9099C14.4199 17.4957 14.7557 17.1599 15.1699 17.1599H18.6895Z" fill="#1C252E"/>
<path d="M21.25 16.9202C21.25 14.5254 19.3066 12.5901 16.9199 12.5901C14.5251 12.5901 12.5898 14.5334 12.5898 16.9202C12.5899 19.3149 14.5332 21.2502 16.9199 21.2502C19.3156 21.2502 21.2499 19.3159 21.25 16.9202ZM22.75 16.9202C22.7499 20.1443 20.1441 22.7502 16.9199 22.7502C13.7067 22.7502 11.0899 20.1453 11.0898 16.9202C11.0898 13.7069 13.6948 11.0901 16.9199 11.0901C20.1331 11.0901 22.75 13.695 22.75 16.9202Z" fill="#1C252E"/>
<path d="M8.94043 1.25C10.0828 1.25007 11.0787 1.52599 11.7754 2.22266C12.4718 2.91923 12.7346 3.90153 12.71 5.02051V8.92188L12.7061 9.34473C12.6654 10.3137 12.3907 11.16 11.7754 11.7754C11.0758 12.4749 10.0778 12.7334 8.94043 12.709V12.71H5.01953V12.709C3.89983 12.7286 2.91767 12.4634 2.22168 11.7656C1.52579 11.068 1.25 10.0725 1.25 8.92969V5.00977C1.25004 3.89037 1.52905 2.91279 2.22266 2.2207C2.91609 1.52899 3.896 1.25008 5.01953 1.25H8.94043ZM2.75 8.92969C2.75 9.85685 2.97414 10.3972 3.2832 10.707C3.58903 11.0136 4.11118 11.2276 5.00488 11.21H8.95801C9.88292 11.2323 10.4132 11.0165 10.7148 10.7148C11.0165 10.4132 11.2323 9.88291 11.21 8.95801V5.00098C11.232 4.10814 11.0193 3.58786 10.7148 3.2832C10.4066 2.97499 9.86765 2.75007 8.94043 2.75H5.01953C4.12358 2.75008 3.59365 2.9716 3.28223 3.28223C2.97113 3.59255 2.75004 4.11958 2.75 5.00977V8.92969Z" fill="#1C252E"/>
<path d="M9.00977 5.09985C9.42398 5.09985 9.75977 5.43564 9.75977 5.84985C9.75977 6.26407 9.42398 6.59985 9.00977 6.59985H4.9502C4.53598 6.59985 4.2002 6.26407 4.2002 5.84985C4.2002 5.43564 4.53598 5.09985 4.9502 5.09985H9.00977Z" fill="#1C252E"/>
<path d="M6.2207 5.84961V5.16992C6.2207 4.75571 6.55649 4.41992 6.9707 4.41992C7.38492 4.41992 7.7207 4.75571 7.7207 5.16992V5.84961C7.7207 6.26382 7.38492 6.59961 6.9707 6.59961C6.55649 6.59961 6.2207 6.26382 6.2207 5.84961Z" fill="#1C252E"/>
<path d="M7.24023 5.83984C7.24023 5.4257 7.57611 5.08995 7.99023 5.08984C8.40445 5.08984 8.74023 5.42563 8.74023 5.83984C8.74023 7.97713 7.06106 9.75977 4.94043 9.75977C4.52622 9.75977 4.19043 9.42398 4.19043 9.00977C4.19046 8.59558 4.52624 8.25977 4.94043 8.25977C6.1798 8.25977 7.24023 7.20255 7.24023 5.83984Z" fill="#1C252E"/>
<path d="M6.71316 7.39749C7.04577 7.15071 7.51613 7.22023 7.76297 7.55276C8.11097 8.02181 8.56321 8.25966 9.01004 8.25979C9.42417 8.25979 9.7599 8.59569 9.76004 9.00979C9.76004 9.42401 9.42425 9.75979 9.01004 9.75979C7.99721 9.75966 7.12971 9.21794 6.55789 8.44729C6.31112 8.11469 6.38063 7.64432 6.71316 7.39749Z" fill="#1C252E"/>
<path d="M1.25 15C1.25 14.5858 1.58579 14.25 2 14.25C2.41421 14.25 2.75 14.5858 2.75 15C2.75 17.9656 4.80839 20.4416 7.57617 21.085L7.30664 20.6357C7.09369 20.2806 7.20934 19.8195 7.56445 19.6064C7.91956 19.3937 8.37973 19.5093 8.59277 19.8643L9.64355 21.6143C9.78237 21.8459 9.78533 22.1341 9.65234 22.3691C9.51921 22.6043 9.2702 22.75 9 22.75C4.71579 22.75 1.25 19.2842 1.25 15Z" fill="#1C252E"/>
<path d="M21.2499 9C21.2499 6.03395 19.1911 3.55703 16.4228 2.91406L16.6933 3.36426C16.9062 3.71942 16.7906 4.18048 16.4355 4.39355C16.0804 4.6063 15.6202 4.49074 15.4071 4.13574L14.3564 2.38574C14.2175 2.15415 14.2146 1.86586 14.3476 1.63086C14.4807 1.39573 14.7297 1.25 14.9999 1.25C19.2841 1.25 22.7499 4.71579 22.7499 9C22.7499 9.41421 22.4141 9.75 21.9999 9.75C21.5857 9.75 21.2499 9.41421 21.2499 9Z" fill="#1C252E"/>
</svg>
