<svg width="24" height="24" viewBox="0 0 24 24" fill="none" xmlns="http://www.w3.org/2000/svg">
<path d="M16.9902 8.20996C17.4042 8.21022 17.7402 8.54591 17.7402 8.95996C17.7402 9.37401 17.4042 9.7097 16.9902 9.70996H7.00977C6.59555 9.70996 6.25977 9.37417 6.25977 8.95996C6.25977 8.54575 6.59555 8.20996 7.00977 8.20996H16.9902Z" fill="#1C252E"/>
<path d="M11.25 8.95972V7.28003C11.25 6.86582 11.5858 6.53003 12 6.53003C12.4142 6.53003 12.75 6.86582 12.75 7.28003V8.95972C12.75 9.37393 12.4142 9.70972 12 9.70972C11.5858 9.70972 11.25 9.37393 11.25 8.95972Z" fill="#1C252E"/>
<path d="M13.75 8.93994C13.75 8.52573 14.0858 8.18994 14.5 8.18994C14.9142 8.18994 15.25 8.52573 15.25 8.93994C15.25 13.6284 11.5795 17.4702 7 17.4702C6.58589 17.4702 6.25016 17.1343 6.25 16.7202C6.25 16.306 6.58579 15.9702 7 15.9702C10.7005 15.9702 13.75 12.8515 13.75 8.93994Z" fill="#1C252E"/>
<path d="M11.9959 13.6534C12.3254 13.4026 12.7958 13.4665 13.0467 13.796C14.0894 15.165 15.4858 15.9697 16.9998 15.9698C17.414 15.9698 17.7497 16.3057 17.7498 16.7198C17.7498 17.134 17.414 17.4698 16.9998 17.4698C14.914 17.4697 13.1106 16.355 11.8534 14.7042C11.6026 14.3747 11.6665 13.9043 11.9959 13.6534Z" fill="#1C252E"/>
<path d="M21.25 12C21.25 6.89137 17.1086 2.75 12 2.75C6.89137 2.75 2.75 6.89137 2.75 12C2.75 17.1086 6.89137 21.25 12 21.25C17.1086 21.25 21.25 17.1086 21.25 12ZM22.75 12C22.75 17.9371 17.9371 22.75 12 22.75C6.06294 22.75 1.25 17.9371 1.25 12C1.25 6.06294 6.06294 1.25 12 1.25C17.9371 1.25 22.75 6.06294 22.75 12Z" fill="#1C252E"/>
</svg>
