<svg width="24" height="24" viewBox="0 0 24 24" fill="none" xmlns="http://www.w3.org/2000/svg">
<path d="M8.26952 5.25008C11.2924 2.22719 16.2076 2.22719 19.2305 5.25008C22.2528 8.27289 22.2528 13.1873 19.2305 16.21L15.3398 20.1007C13.6769 21.7633 10.9919 21.7634 9.32909 20.1007C7.66628 18.4379 7.66645 15.7528 9.32909 14.0899L11.7998 11.6192C12.0927 11.3268 12.5676 11.3265 12.8603 11.6192C13.1532 11.9121 13.1532 12.3879 12.8603 12.6807L10.3896 15.1505C9.31278 16.2276 9.31261 17.9631 10.3896 19.0401C11.4667 20.1171 13.2022 20.117 14.2793 19.0401L18.1689 15.1495C20.606 12.7124 20.606 8.74773 18.1689 6.31063C15.7318 3.87358 11.7671 3.87354 9.33006 6.31063L5.08983 10.5499C3.04344 12.5963 3.04186 15.9225 5.0908 17.9805C5.38301 18.274 5.38219 18.7488 5.08885 19.0411C4.79534 19.3334 4.32057 19.3326 4.0283 19.0391C1.39754 16.3971 1.39576 12.1229 4.02928 9.48934L8.26952 5.25008Z" fill="#1C252E"/>
</svg>
