<svg width="24" height="24" viewBox="0 0 24 24" fill="none" xmlns="http://www.w3.org/2000/svg">
<path d="M21.25 9C21.25 6.57397 20.7603 5.0708 19.8447 4.15527C18.9292 3.23974 17.426 2.75 15 2.75H9C6.57397 2.75 5.0708 3.23974 4.15527 4.15527C3.23974 5.0708 2.75 6.57397 2.75 9V15C2.75 17.426 3.23974 18.9292 4.15527 19.8447C5.0708 20.7603 6.57397 21.25 9 21.25H15C17.426 21.25 18.9292 20.7603 19.8447 19.8447C20.7603 18.9292 21.25 17.426 21.25 15V9ZM22.75 15C22.75 17.574 22.2397 19.5708 20.9053 20.9053C19.5708 22.2397 17.574 22.75 15 22.75H9C6.42603 22.75 4.4292 22.2397 3.09473 20.9053C1.76026 19.5708 1.25 17.574 1.25 15V9C1.25 6.42603 1.76026 4.4292 3.09473 3.09473C4.4292 1.76026 6.42603 1.25 9 1.25H15C17.574 1.25 19.5708 1.76026 20.9053 3.09473C22.2397 4.4292 22.75 6.42603 22.75 9V15Z" fill="#1C252E"/>
<path d="M17.4697 5.46967C17.7626 5.17678 18.2373 5.17678 18.5302 5.46967C18.8231 5.76256 18.8231 6.23732 18.5302 6.53022L6.53022 18.5302C6.23732 18.8231 5.76256 18.8231 5.46967 18.5302C5.17678 18.2373 5.17678 17.7626 5.46967 17.4697L17.4697 5.46967Z" fill="#1C252E"/>
<path d="M17.25 10V6.75H14C13.5858 6.75 13.25 6.41421 13.25 6C13.25 5.58579 13.5858 5.25 14 5.25H18C18.4142 5.25 18.75 5.58579 18.75 6V10C18.75 10.4142 18.4142 10.75 18 10.75C17.5858 10.75 17.25 10.4142 17.25 10Z" fill="#1C252E"/>
<path d="M5.25 14C5.25 13.5858 5.58579 13.25 6 13.25C6.41421 13.25 6.75 13.5858 6.75 14V17.25H10C10.4142 17.25 10.75 17.5858 10.75 18C10.75 18.4142 10.4142 18.75 10 18.75H6C5.58579 18.75 5.25 18.4142 5.25 18V14Z" fill="#1C252E"/>
<path d="M5.46967 5.46967C5.76256 5.17678 6.23732 5.17678 6.53022 5.46967L18.5302 17.4697C18.8231 17.7626 18.8231 18.2373 18.5302 18.5302C18.2373 18.8231 17.7626 18.8231 17.4697 18.5302L5.46967 6.53022C5.17678 6.23732 5.17678 5.76256 5.46967 5.46967Z" fill="#1C252E"/>
<path d="M5.25 10V6C5.25 5.58579 5.58579 5.25 6 5.25H10C10.4142 5.25 10.75 5.58579 10.75 6C10.75 6.41421 10.4142 6.75 10 6.75H6.75V10C6.75 10.4142 6.41421 10.75 6 10.75C5.58579 10.75 5.25 10.4142 5.25 10Z" fill="#1C252E"/>
<path d="M17.25 14C17.25 13.5858 17.5858 13.25 18 13.25C18.4142 13.25 18.75 13.5858 18.75 14V18C18.75 18.4142 18.4142 18.75 18 18.75H14C13.5858 18.75 13.25 18.4142 13.25 18C13.25 17.5858 13.5858 17.25 14 17.25H17.25V14Z" fill="#1C252E"/>
</svg>
