<svg width="24" height="24" viewBox="0 0 24 24" fill="none" xmlns="http://www.w3.org/2000/svg">
<path d="M9.65143 7.6277C11.513 5.77822 14.5164 5.77596 16.3702 7.62965L16.3721 7.63161C18.2216 9.49318 18.2239 12.4966 16.3702 14.3504L14.1505 16.5701C13.0776 17.643 11.3327 17.643 10.2598 16.5701C9.18694 15.4972 9.18693 13.7523 10.2598 12.6795L11.67 11.2693C11.9629 10.9768 12.4378 10.9766 12.7305 11.2693C13.0233 11.5621 13.0231 12.0369 12.7305 12.3298L11.3204 13.74C10.8333 14.2271 10.8333 15.0224 11.3204 15.5095C11.8075 15.9966 12.6028 15.9966 13.0899 15.5095L15.3096 13.2898C16.5753 12.0242 16.5783 9.96876 15.3096 8.6902C14.0435 7.42415 11.9875 7.42206 10.709 8.69215L10.7081 8.69118L8.2901 11.1101C7.2431 12.1571 7.24332 13.8521 8.2901 14.8992C8.58299 15.1921 8.58299 15.6678 8.2901 15.9607C7.99724 16.2533 7.52237 16.2533 7.22955 15.9607C5.59666 14.3278 5.59666 11.6825 7.22955 10.0496L9.65143 7.6277Z" fill="#1C252E"/>
<path d="M21.25 9C21.25 6.57397 20.7603 5.0708 19.8447 4.15527C18.9292 3.23974 17.426 2.75 15 2.75H9C6.57397 2.75 5.0708 3.23974 4.15527 4.15527C3.23974 5.0708 2.75 6.57397 2.75 9V15C2.75 17.426 3.23974 18.9292 4.15527 19.8447C5.0708 20.7603 6.57397 21.25 9 21.25H15C17.426 21.25 18.9292 20.7603 19.8447 19.8447C20.7603 18.9292 21.25 17.426 21.25 15V9ZM22.75 15C22.75 17.574 22.2397 19.5708 20.9053 20.9053C19.5708 22.2397 17.574 22.75 15 22.75H9C6.42603 22.75 4.4292 22.2397 3.09473 20.9053C1.76026 19.5708 1.25 17.574 1.25 15V9C1.25 6.42603 1.76026 4.4292 3.09473 3.09473C4.4292 1.76026 6.42603 1.25 9 1.25H15C17.574 1.25 19.5708 1.76026 20.9053 3.09473C22.2397 4.4292 22.75 6.42603 22.75 9V15Z" fill="#1C252E"/>
</svg>
