<svg width="24" height="24" viewBox="0 0 24 24" fill="none" xmlns="http://www.w3.org/2000/svg">
<path d="M4.12988 4.5C4.12988 2.98579 5.36567 1.75 6.87988 1.75H12C15.0342 1.75006 17.5 4.21583 17.5 7.25C17.5 10.2842 15.0342 12.7499 12 12.75H4.87988C4.46567 12.75 4.12988 12.4142 4.12988 12V4.5ZM5.62988 11.25H12C14.2057 11.2499 16 9.45575 16 7.25C16 5.04425 14.2057 3.25006 12 3.25H6.87988C6.1941 3.25 5.62988 3.81421 5.62988 4.5V11.25Z" fill="#1C252E"/>
<path d="M18.3799 16.75C18.3799 14.5442 16.5857 12.75 14.3799 12.75H5.62988V19.5C5.62988 20.1858 6.1941 20.75 6.87988 20.75H14.3799C16.5857 20.75 18.3799 18.9558 18.3799 16.75ZM19.8799 16.75C19.8799 19.7842 17.4141 22.25 14.3799 22.25H6.87988C5.36567 22.25 4.12988 21.0142 4.12988 19.5V12C4.12988 11.5858 4.46567 11.25 4.87988 11.25H14.3799C17.4141 11.25 19.8799 13.7158 19.8799 16.75Z" fill="#1C252E"/>
</svg>
