<svg width="24" height="24" viewBox="0 0 24 24" fill="none" xmlns="http://www.w3.org/2000/svg">
<path d="M21.25 5.8501C21.25 4.84433 20.4257 4.02002 19.4199 4.02002H16.2002C15.1053 4.02002 14.3701 4.82307 14.3701 5.8501V9.06982C14.3701 10.0969 15.1054 10.8999 16.2002 10.8999H21.25V5.8501ZM22.75 11.6499C22.75 12.0641 22.4142 12.3999 22 12.3999H16.2002C14.235 12.3999 12.8701 10.8828 12.8701 9.06982V5.8501C12.8701 4.03713 14.2351 2.52002 16.2002 2.52002H19.4199C21.2541 2.52002 22.75 4.01587 22.75 5.8501V11.6499Z" fill="#1C252E"/>
<path d="M21.2508 11.6499C21.2508 11.2357 21.5866 10.8999 22.0008 10.8999C22.4149 10.9 22.7508 11.2358 22.7508 11.6499C22.7508 14.6885 22.4736 16.6234 21.6639 18.064C20.8457 19.5194 19.5391 20.3633 17.8534 21.3647C17.4974 21.5761 17.0376 21.4589 16.826 21.103C16.6145 20.7469 16.7316 20.2863 17.0877 20.0747C18.8016 19.0565 19.7596 18.3902 20.3563 17.3286C20.9616 16.2518 21.2508 14.6613 21.2508 11.6499Z" fill="#1C252E"/>
<path d="M9.62988 5.8501C9.62988 4.84433 8.80561 4.02002 7.7998 4.02002H4.57031C3.47546 4.02002 2.74023 4.82307 2.74023 5.8501V9.06982C2.74023 10.0969 3.47548 10.8999 4.57031 10.8999H9.62988V5.8501ZM11.1299 11.6499C11.1299 12.0641 10.7941 12.3999 10.3799 12.3999C10.3783 12.3999 10.3766 12.3989 10.375 12.3989C10.3734 12.3989 10.3717 12.3999 10.3701 12.3999H4.57031C2.60514 12.3999 1.24023 10.8828 1.24023 9.06982V5.8501C1.24023 4.03713 2.60517 2.52002 4.57031 2.52002H7.7998C9.634 2.52002 11.1299 4.01587 11.1299 5.8501V11.6499Z" fill="#1C252E"/>
<path d="M9.62095 11.6499C9.62095 11.2357 9.95674 10.8999 10.371 10.8999C10.785 10.9001 11.121 11.2358 11.121 11.6499C11.121 14.6885 10.8438 16.6234 10.034 18.064C9.21579 19.5194 7.90918 20.3633 6.22349 21.3647C5.86748 21.5761 5.40772 21.4589 5.19615 21.103C4.98458 20.7469 5.10176 20.2863 5.45787 20.0747C7.17169 19.0565 8.12969 18.3902 8.72642 17.3286C9.33169 16.2518 9.62095 14.6613 9.62095 11.6499Z" fill="#1C252E"/>
</svg>
