<svg width="24" height="24" viewBox="0 0 24 24" fill="none" xmlns="http://www.w3.org/2000/svg">
<path d="M17.8604 5.9303V4.41956C17.8601 3.81395 17.3654 3.31995 16.7598 3.31995H3.83984C3.23437 3.32016 2.74045 3.81408 2.74023 4.41956V5.9303C2.74004 6.34435 2.40433 6.6803 1.99023 6.6803C1.57614 6.6803 1.24042 6.34435 1.24023 5.9303V4.41956C1.24045 2.98565 2.40594 1.82016 3.83984 1.81995H16.7598C18.1938 1.81995 19.3601 2.98552 19.3604 4.41956V5.9303C19.3602 6.34431 19.0244 6.68023 18.6104 6.6803C18.1963 6.6803 17.8605 6.34435 17.8604 5.9303Z" fill="#1C252E"/>
<path d="M9.5498 18.1002V3.31995C9.5498 2.90573 9.88559 2.56995 10.2998 2.56995C10.714 2.56995 11.0498 2.90573 11.0498 3.31995V18.1002C11.0497 18.5143 10.7139 18.8502 10.2998 18.8502C9.88568 18.8502 9.54995 18.5143 9.5498 18.1002Z" fill="#1C252E"/>
<path d="M12.4805 17.35C12.8946 17.35 13.2305 17.6858 13.2305 18.1C13.2305 18.5142 12.8946 18.8499 12.4805 18.85H6.90039C6.48618 18.85 6.15039 18.5142 6.15039 18.1C6.15039 17.6858 6.48618 17.35 6.90039 17.35H12.4805Z" fill="#1C252E"/>
<path d="M21.2598 12.4601V11.6603C21.2598 11.3445 21.0052 11.09 20.6895 11.09H13.6797C13.2655 11.09 12.9297 10.7542 12.9297 10.34C12.9297 9.92575 13.2655 9.58997 13.6797 9.58997H20.6895C21.8337 9.58997 22.7598 10.5161 22.7598 11.6603V12.4601C22.7597 12.8742 22.4239 13.21 22.0098 13.2101C21.5956 13.2101 21.2598 12.8742 21.2598 12.4601Z" fill="#1C252E"/>
<path d="M15.3301 21.4296V10.87C15.3301 10.4558 15.6659 10.12 16.0801 10.12C16.4943 10.12 16.8301 10.4558 16.8301 10.87V21.4296C16.8301 21.8438 16.4943 22.1796 16.0801 22.1796C15.6659 22.1796 15.3301 21.8438 15.3301 21.4296Z" fill="#1C252E"/>
<path d="M18.2207 20.6801C18.6348 20.6802 18.9707 21.0159 18.9707 21.4301C18.9707 21.8442 18.6348 22.1799 18.2207 22.1801H13.9404C13.5262 22.1801 13.1904 21.8443 13.1904 21.4301C13.1904 21.0158 13.5262 20.6801 13.9404 20.6801H18.2207Z" fill="#1C252E"/>
</svg>
