<svg width="24" height="24" viewBox="0 0 24 24" fill="none" xmlns="http://www.w3.org/2000/svg">
<path d="M16.9902 8.20996C17.4042 8.21022 17.7402 8.54591 17.7402 8.95996C17.7402 9.37401 17.4042 9.7097 16.9902 9.70996H7.00977C6.59555 9.70996 6.25977 9.37417 6.25977 8.95996C6.25977 8.54575 6.59555 8.20996 7.00977 8.20996H16.9902Z" fill="#1C252E"/>
<path d="M11.25 8.95972V7.28003C11.25 6.86582 11.5858 6.53003 12 6.53003C12.4142 6.53003 12.75 6.86582 12.75 7.28003V8.95972C12.75 9.37393 12.4142 9.70972 12 9.70972C11.5858 9.70972 11.25 9.37393 11.25 8.95972Z" fill="#1C252E"/>
<path d="M13.75 8.93994C13.75 8.52573 14.0858 8.18994 14.5 8.18994C14.9142 8.18994 15.25 8.52573 15.25 8.93994C15.25 13.6284 11.5795 17.4702 7 17.4702C6.58589 17.4702 6.25016 17.1343 6.25 16.7202C6.25 16.306 6.58579 15.9702 7 15.9702C10.7005 15.9702 13.75 12.8515 13.75 8.93994Z" fill="#1C252E"/>
<path d="M11.9959 13.6534C12.3254 13.4026 12.7958 13.4665 13.0467 13.796C14.0894 15.165 15.4858 15.9697 16.9998 15.9698C17.414 15.9698 17.7497 16.3057 17.7498 16.7198C17.7498 17.134 17.414 17.4698 16.9998 17.4698C14.914 17.4697 13.1106 16.355 11.8534 14.7042C11.6026 14.3747 11.6665 13.9043 11.9959 13.6534Z" fill="#1C252E"/>
<path d="M21.25 9C21.25 6.57397 20.7603 5.0708 19.8447 4.15527C18.9292 3.23974 17.426 2.75 15 2.75H9C6.57397 2.75 5.0708 3.23974 4.15527 4.15527C3.23974 5.0708 2.75 6.57397 2.75 9V15C2.75 17.426 3.23974 18.9292 4.15527 19.8447C5.0708 20.7603 6.57397 21.25 9 21.25H15C17.426 21.25 18.9292 20.7603 19.8447 19.8447C20.7603 18.9292 21.25 17.426 21.25 15V9ZM22.75 15C22.75 17.574 22.2397 19.5708 20.9053 20.9053C19.5708 22.2397 17.574 22.75 15 22.75H9C6.42603 22.75 4.4292 22.2397 3.09473 20.9053C1.76026 19.5708 1.25 17.574 1.25 15V9C1.25 6.42603 1.76026 4.4292 3.09473 3.09473C4.4292 1.76026 6.42603 1.25 9 1.25H15C17.574 1.25 19.5708 1.76026 20.9053 3.09473C22.2397 4.4292 22.75 6.42603 22.75 9V15Z" fill="#1C252E"/>
</svg>
