<svg width="24" height="24" viewBox="0 0 24 24" fill="none" xmlns="http://www.w3.org/2000/svg">
<path d="M12.5293 10.4098C12.8221 10.1169 13.2969 10.117 13.5898 10.4098C16.132 12.952 16.1338 17.0674 13.5888 19.6012C11.0484 22.1303 6.93371 22.1458 4.3984 19.5992C1.86933 17.0589 1.85401 12.9441 4.40035 10.4088C4.6938 10.1167 5.16864 10.1175 5.4609 10.4108C5.7531 10.7043 5.75237 11.1791 5.45895 11.4713C3.50568 13.4159 3.51041 16.5811 5.4609 18.5406C7.4055 20.4939 10.5707 20.4892 12.5302 18.5387C14.4851 16.5925 14.487 13.4281 12.5293 11.4703C12.2366 11.1775 12.2366 10.7026 12.5293 10.4098Z" fill="#1C252E"/>
<path d="M10.0586 4.39074C12.6938 1.74435 16.9688 1.75949 19.6094 4.38879C22.2556 7.02401 22.2406 11.2991 19.6113 13.9396C19.319 14.2328 18.8442 14.2337 18.5508 13.9415C18.2572 13.6493 18.2565 13.1745 18.5488 12.881C20.5994 10.8215 20.6043 7.49606 18.5508 5.45129C16.4913 3.40069 13.1658 3.39582 11.1211 5.44933C9.07207 7.50734 9.07369 10.8336 11.1201 12.88C11.4129 13.1729 11.413 13.6477 11.1201 13.9405C10.8272 14.2332 10.3524 14.2333 10.0596 13.9405C7.42604 11.307 7.42781 7.03275 10.0586 4.39074Z" fill="#1C252E"/>
</svg>
