<svg width="24" height="24" viewBox="0 0 24 24" fill="none" xmlns="http://www.w3.org/2000/svg">
<path d="M9.47458 6.86237C11.1955 5.78983 13.4066 6.32757 14.458 8.02057L14.5566 8.18757L14.5576 8.18952C15.5426 9.98726 14.9516 12.3117 13.2099 13.4102L12.914 13.6212C12.5763 13.8608 12.1079 13.7819 11.8681 13.4444C11.6284 13.1066 11.7081 12.6382 12.0459 12.3985L12.3554 12.1788L12.3945 12.1524C13.4722 11.4846 13.8517 10.0253 13.2431 8.91217L13.123 8.71882C12.4831 7.79679 11.2446 7.52543 10.2666 8.13581L10.2646 8.13776L7.92478 9.58796C6.84678 10.2562 6.46741 11.7159 7.07712 12.8292L7.0781 12.8301C7.3386 13.3064 7.7444 13.6375 8.20017 13.8067C8.58849 13.9508 8.78654 14.3822 8.64255 14.7706C8.49848 15.1589 8.06703 15.357 7.67868 15.213C6.94359 14.9402 6.28778 14.4232 5.84665 13.6973L5.76169 13.5499C4.77213 11.7433 5.37319 9.40423 7.13474 8.31257L9.47458 6.86237Z" fill="#1C252E"/>
<path d="M15.4074 9.18923C15.5514 8.80088 15.9829 8.60278 16.3713 8.74685C17.1552 9.03768 17.8488 9.6065 18.2882 10.4099L18.3761 10.5808C19.239 12.3615 18.6218 14.5897 16.9152 15.6472L14.5763 17.0955L14.5773 17.0965C12.8007 18.2051 10.5 17.5968 9.49332 15.7722L9.49234 15.7703C8.50746 13.9727 9.09759 11.6472 10.839 10.5486L11.1359 10.3386C11.4737 10.0989 11.9421 10.1786 12.1818 10.5164C12.4213 10.8542 12.3418 11.3216 12.0041 11.5613L11.6945 11.782C11.6818 11.791 11.6686 11.7992 11.6554 11.8074C10.5778 12.4752 10.1983 13.9345 10.8068 15.0476C11.4001 16.1229 12.74 16.4751 13.7834 15.824L13.7853 15.822L16.1252 14.3728C17.2034 13.7046 17.5827 12.244 16.9728 11.1306V11.1297C16.7123 10.6533 16.3057 10.3223 15.8498 10.1531C15.4614 10.009 15.2633 9.57758 15.4074 9.18923Z" fill="#1C252E"/>
<path d="M21.25 12C21.25 6.89137 17.1086 2.75 12 2.75C6.89137 2.75 2.75 6.89137 2.75 12C2.75 17.1086 6.89137 21.25 12 21.25C17.1086 21.25 21.25 17.1086 21.25 12ZM22.75 12C22.75 17.9371 17.9371 22.75 12 22.75C6.06294 22.75 1.25 17.9371 1.25 12C1.25 6.06294 6.06294 1.25 12 1.25C17.9371 1.25 22.75 6.06294 22.75 12Z" fill="#1C252E"/>
</svg>
