<svg width="24" height="24" viewBox="0 0 24 24" fill="none" xmlns="http://www.w3.org/2000/svg">
<path d="M21.25 9C21.25 6.57397 20.7603 5.0708 19.8447 4.15527C18.9292 3.23974 17.426 2.75 15 2.75H9C6.57397 2.75 5.0708 3.23974 4.15527 4.15527C3.23974 5.0708 2.75 6.57397 2.75 9V15C2.75 17.426 3.23974 18.9292 4.15527 19.8447C5.0708 20.7603 6.57397 21.25 9 21.25H15C17.426 21.25 18.9292 20.7603 19.8447 19.8447C20.7603 18.9292 21.25 17.426 21.25 15V9ZM22.75 15C22.75 17.574 22.2397 19.5708 20.9053 20.9053C19.5708 22.2397 17.574 22.75 15 22.75H9C6.42603 22.75 4.4292 22.2397 3.09473 20.9053C1.76026 19.5708 1.25 17.574 1.25 15V9C1.25 6.42603 1.76026 4.4292 3.09473 3.09473C4.4292 1.76026 6.42603 1.25 9 1.25H15C17.574 1.25 19.5708 1.76026 20.9053 3.09473C22.2397 4.4292 22.75 6.42603 22.75 9V15Z" fill="#1C252E"/>
<path d="M10.1201 13.3503C10.1201 13.0894 9.95074 12.9099 9.67969 12.9099H7.75V14.8396C7.75 15.0754 7.95464 15.28 8.19043 15.28H9.67969C9.95074 15.28 10.1201 15.1006 10.1201 14.8396V13.3503ZM11.6201 14.8396C11.6201 15.8786 10.8286 16.78 9.67969 16.78H8.19043C7.12622 16.78 6.25 15.9038 6.25 14.8396V12.1599C6.25 11.7457 6.58579 11.4099 7 11.4099H9.67969C10.8286 11.4099 11.6201 12.3113 11.6201 13.3503V14.8396Z" fill="#1C252E"/>
<path d="M6.25 12.1605C6.25 10.752 6.37399 9.76519 6.80176 9.00127C7.23862 8.22128 7.93527 7.78225 8.70801 7.32451C9.06435 7.11364 9.5243 7.2319 9.73535 7.58819C9.94615 7.94445 9.82876 8.40443 9.47266 8.61553C8.67549 9.08774 8.32599 9.34876 8.11035 9.73369C7.88573 10.1347 7.75 10.7791 7.75 12.1605C7.74977 12.5745 7.41407 12.9105 7 12.9105C6.58593 12.9105 6.25023 12.5745 6.25 12.1605Z" fill="#1C252E"/>
<path d="M16.2598 13.3503C16.2598 13.0894 16.0904 12.9099 15.8193 12.9099H13.8896V14.8396C13.8896 15.0754 14.0943 15.28 14.3301 15.28H15.8193C16.0904 15.28 16.2598 15.1006 16.2598 14.8396V13.3503ZM17.7598 14.8396C17.7598 15.8786 16.9683 16.78 15.8193 16.78H14.3301C13.2659 16.78 12.3896 15.9038 12.3896 14.8396V12.1599C12.3896 11.7457 12.7254 11.4099 13.1396 11.4099H15.8193C16.9683 11.4099 17.7598 12.3113 17.7598 13.3503V14.8396Z" fill="#1C252E"/>
<path d="M12.3896 12.1605C12.3896 10.752 12.5136 9.76519 12.9414 9.00127C13.3783 8.22128 14.0749 7.78225 14.8477 7.32452C15.204 7.11364 15.6639 7.2319 15.875 7.58819C16.0858 7.94446 15.9684 8.40444 15.6123 8.61553C14.8151 9.08774 14.4656 9.34876 14.25 9.7337C14.0254 10.1347 13.8896 10.7791 13.8896 12.1605C13.8894 12.5745 13.5537 12.9105 13.1396 12.9105C12.7256 12.9105 12.3899 12.5745 12.3896 12.1605Z" fill="#1C252E"/>
</svg>
