<svg width="24" height="24" viewBox="0 0 24 24" fill="none" xmlns="http://www.w3.org/2000/svg">
<path d="M20.5801 7.16968V5.35034C20.5801 4.62219 19.9932 4.03003 19.2598 4.03003H4.74023C4.01209 4.03003 3.41992 4.61691 3.41992 5.35034V7.16968C3.41992 7.58389 3.08414 7.91968 2.66992 7.91968C2.25571 7.91968 1.91992 7.58389 1.91992 7.16968V5.35034C1.91992 3.78377 3.18838 2.53003 4.74023 2.53003H19.2598C20.8263 2.53003 22.0801 3.79849 22.0801 5.35034V7.16968C22.0801 7.58384 21.7442 7.91959 21.3301 7.91968C20.9159 7.91968 20.5801 7.58389 20.5801 7.16968Z" fill="#1C252E"/>
<path d="M11.25 20.7203V4.10999C11.25 3.69577 11.5858 3.35999 12 3.35999C12.4142 3.35999 12.75 3.69577 12.75 4.10999V20.7203C12.7498 21.1344 12.4141 21.4703 12 21.4703C11.5859 21.4703 11.2502 21.1344 11.25 20.7203Z" fill="#1C252E"/>
<path d="M15.9395 19.97C16.3537 19.97 16.6895 20.3058 16.6895 20.72C16.6895 21.1342 16.3537 21.47 15.9395 21.47H8.05957C7.64536 21.47 7.30957 21.1342 7.30957 20.72C7.30957 20.3058 7.64536 19.97 8.05957 19.97H15.9395Z" fill="#1C252E"/>
</svg>
