<svg width="24" height="24" viewBox="0 0 24 24" fill="none" xmlns="http://www.w3.org/2000/svg">
<path d="M21 21.25C21.4142 21.25 21.75 21.5858 21.75 22C21.75 22.4142 21.4142 22.75 21 22.75H3C2.58579 22.75 2.25 22.4142 2.25 22C2.25 21.5858 2.58579 21.25 3 21.25H21Z" fill="#1C252E"/>
<path d="M21 1.25C21.4142 1.25 21.75 1.58579 21.75 2C21.75 2.41421 21.4142 2.75 21 2.75H3C2.58579 2.75 2.25 2.41421 2.25 2C2.25 1.58579 2.58579 1.25 3 1.25H21Z" fill="#1C252E"/>
<path d="M11.25 18V6C11.25 5.58579 11.5858 5.25 12 5.25C12.4142 5.25 12.75 5.58579 12.75 6V18C12.75 18.4142 12.4142 18.75 12 18.75C11.5858 18.75 11.25 18.4142 11.25 18Z" fill="#1C252E"/>
<path d="M11.5263 4.30796C11.8209 4.06769 12.2556 4.08513 12.5302 4.35972L15.3603 7.18979C15.653 7.48268 15.6531 7.95748 15.3603 8.25034C15.0674 8.54319 14.5926 8.54312 14.2997 8.25034L11.9999 5.95054L9.70012 8.25034C9.40724 8.54318 8.93246 8.54318 8.63957 8.25034C8.34669 7.95746 8.34672 7.48269 8.63957 7.18979L11.4697 4.35972L11.5263 4.30796Z" fill="#1C252E"/>
<path d="M14.2997 15.3597C14.5926 15.0669 15.0674 15.0668 15.3603 15.3597C15.6531 15.6526 15.6531 16.1274 15.3603 16.4202L12.5302 19.2503C12.2373 19.5432 11.7626 19.5431 11.4697 19.2503L8.63959 16.4202C8.3467 16.1273 8.3467 15.6526 8.63959 15.3597C8.93248 15.0668 9.40725 15.0668 9.70014 15.3597L11.9999 17.6595L14.2997 15.3597Z" fill="#1C252E"/>
</svg>
