<svg width="24" height="24" viewBox="0 0 24 24" fill="none" xmlns="http://www.w3.org/2000/svg">
<path d="M7.73619 7.11286C9.30259 5.46406 11.8519 5.41577 13.4862 6.95759L13.6415 7.11189L13.6434 7.11384C15.2381 8.7933 15.2382 11.5272 13.6434 13.2066L13.6424 13.2056L12.5536 14.356C12.2687 14.6564 11.7946 14.669 11.494 14.3843C11.1934 14.0994 11.1799 13.6244 11.4647 13.3238L12.5555 12.1744V12.1734C13.6001 11.0734 13.6009 9.24876 12.5575 8.14802C11.5217 7.06583 9.8462 7.0688 8.8231 8.14607V8.14704L6.63267 10.4459C5.58757 11.5464 5.58853 13.3727 6.63365 14.4732H6.63267C7.08822 14.9523 7.67007 15.2197 8.24791 15.273C8.66027 15.311 8.96442 15.6761 8.92662 16.0884C8.88863 16.5009 8.52268 16.8052 8.11021 16.7672C7.22724 16.6857 6.36512 16.3002 5.68052 15.6422L5.54576 15.5064C3.95089 13.827 3.9509 11.0931 5.54576 9.41364L5.54674 9.41267L7.73619 7.11286Z" fill="#1C252E"/>
<path d="M15.8885 7.23291C16.8306 7.31968 17.7496 7.75286 18.4539 8.49366C20.0487 10.1731 20.0487 12.907 18.4539 14.5864L18.453 14.5874L16.2635 16.8872L16.2625 16.8862C14.6457 18.5882 11.9823 18.5855 10.3582 16.8882L10.3563 16.8862C8.76145 15.2068 8.76143 12.4729 10.3563 10.7935L11.4461 9.64405C11.7311 9.34366 12.2051 9.33094 12.5057 9.61573C12.8063 9.90067 12.819 10.3756 12.534 10.6763L11.4442 11.8257V11.8267C10.3997 12.9265 10.3991 14.7503 11.4422 15.8511L11.6434 16.0415C12.6847 16.9292 14.2174 16.8631 15.1766 15.853L17.3661 13.5532C18.411 12.4527 18.411 10.6274 17.3661 9.52686C16.9104 9.04776 16.3287 8.78028 15.7508 8.72705C15.3387 8.68889 15.0354 8.32379 15.0731 7.91162C15.1111 7.49926 15.4762 7.1951 15.8885 7.23291Z" fill="#1C252E"/>
<path d="M21.25 9C21.25 6.57397 20.7603 5.0708 19.8447 4.15527C18.9292 3.23974 17.426 2.75 15 2.75H9C6.57397 2.75 5.0708 3.23974 4.15527 4.15527C3.23974 5.0708 2.75 6.57397 2.75 9V15C2.75 17.426 3.23974 18.9292 4.15527 19.8447C5.0708 20.7603 6.57397 21.25 9 21.25H15C17.426 21.25 18.9292 20.7603 19.8447 19.8447C20.7603 18.9292 21.25 17.426 21.25 15V9ZM22.75 15C22.75 17.574 22.2397 19.5708 20.9053 20.9053C19.5708 22.2397 17.574 22.75 15 22.75H9C6.42603 22.75 4.4292 22.2397 3.09473 20.9053C1.76026 19.5708 1.25 17.574 1.25 15V9C1.25 6.42603 1.76026 4.4292 3.09473 3.09473C4.4292 1.76026 6.42603 1.25 9 1.25H15C17.574 1.25 19.5708 1.76026 20.9053 3.09473C22.2397 4.4292 22.75 6.42603 22.75 9V15Z" fill="#1C252E"/>
</svg>
