<svg width="24" height="24" viewBox="0 0 24 24" fill="none" xmlns="http://www.w3.org/2000/svg">
<path d="M9.62988 14.9302C9.62988 13.9031 8.89464 13.1001 7.7998 13.1001H2.75V18.1499C2.75 19.1557 3.57427 19.98 4.58008 19.98H7.7998C8.89467 19.98 9.62988 19.1769 9.62988 18.1499V14.9302ZM11.1299 18.1499C11.1299 19.9629 9.76494 21.48 7.7998 21.48H4.58008C2.74589 21.48 1.25 19.9841 1.25 18.1499V12.3501C1.25 11.9359 1.58579 11.6001 2 11.6001H7.7998C9.76497 11.6001 11.1299 13.1172 11.1299 14.9302V18.1499Z" fill="#1C252E"/>
<path d="M1.25 12.3504C1.25 9.31196 1.52626 7.37698 2.33594 5.93638C3.15411 4.48076 4.46084 3.63708 6.14648 2.6356C6.50259 2.42403 6.96324 2.54121 7.1748 2.89732C7.3862 3.25337 7.26905 3.71311 6.91309 3.92466C5.19895 4.94306 4.24033 5.61001 3.64355 6.67173C3.03843 7.74859 2.75 9.3394 2.75 12.3504C2.7498 12.7645 2.41409 13.1004 2 13.1004C1.58591 13.1004 1.2502 12.7645 1.25 12.3504Z" fill="#1C252E"/>
<path d="M21.2598 14.9302C21.2598 13.9031 20.5245 13.1001 19.4297 13.1001H14.3799V18.1499C14.3799 19.1557 15.2042 19.98 16.21 19.98H19.4297C20.5245 19.98 21.2598 19.1769 21.2598 18.1499V14.9302ZM22.7598 18.1499C22.7598 19.9629 21.3948 21.48 19.4297 21.48H16.21C14.3758 21.48 12.8799 19.9841 12.8799 18.1499V12.3501C12.8799 11.9359 13.2157 11.6001 13.6299 11.6001H19.4297C21.3948 11.6001 22.7598 13.1172 22.7598 14.9302V18.1499Z" fill="#1C252E"/>
<path d="M12.8799 12.3504C12.8799 9.31195 13.1562 7.37698 13.9658 5.93638C14.784 4.48075 16.0907 3.63709 17.7764 2.6356C18.1325 2.42403 18.5931 2.54121 18.8047 2.89732C19.0161 3.25335 18.8989 3.7131 18.543 3.92466C16.8288 4.94306 15.8702 5.61001 15.2734 6.67173C14.6683 7.74859 14.3799 9.33939 14.3799 12.3504C14.3797 12.7645 14.044 13.1004 13.6299 13.1004C13.2158 13.1004 12.8801 12.7645 12.8799 12.3504Z" fill="#1C252E"/>
</svg>
