<svg width="24" height="24" viewBox="0 0 24 24" fill="none" xmlns="http://www.w3.org/2000/svg">
<path d="M18.8701 2.25C19.2843 2.25 19.6201 2.58579 19.6201 3C19.6201 3.41421 19.2843 3.75 18.8701 3.75H9.62012C9.2059 3.75 8.87012 3.41421 8.87012 3C8.87012 2.58579 9.2059 2.25 9.62012 2.25H18.8701Z" fill="#1C252E"/>
<path d="M14.3701 20.25C14.7843 20.25 15.1201 20.5858 15.1201 21C15.1201 21.4142 14.7843 21.75 14.3701 21.75H5.12012C4.7059 21.75 4.37012 21.4142 4.37012 21C4.37012 20.5858 4.7059 20.25 5.12012 20.25H14.3701Z" fill="#1C252E"/>
<path d="M13.5225 2.8184C13.6229 2.41663 14.0299 2.17219 14.4317 2.2725C14.8335 2.37295 15.0779 2.77991 14.9776 3.18168L10.4776 21.1817C10.3771 21.5835 9.97017 21.8279 9.5684 21.7276C9.16663 21.6271 8.92219 21.2202 9.0225 20.8184L13.5225 2.8184Z" fill="#1C252E"/>
</svg>
