<svg width="24" height="24" viewBox="0 0 24 24" fill="none" xmlns="http://www.w3.org/2000/svg">
<path d="M12.1999 11.8L10.7899 13.21C10.0099 13.99 10.0099 15.26 10.7899 16.04C11.5699 16.82 12.8399 16.82 13.6199 16.04L15.8399 13.82C17.3999 12.26 17.3999 9.72999 15.8399 8.15999C14.2799 6.59999 11.7499 6.59999 10.1799 8.15999L7.75988 10.58C6.41988 11.92 6.41988 14.09 7.75988 15.43" stroke="#1C252E" stroke-width="1.5" stroke-linecap="round" stroke-linejoin="round"/>
<path d="M2.0979 7.24564C2.55358 3.52632 4.63205 2 9 2H15C20 2 22 4 22 9V15C22 20 20 22 15 22H9C4 22 2 20 2 15V12" stroke="#1C252E" stroke-width="1.5" stroke-linecap="round" stroke-linejoin="round"/>
</svg>
