<svg width="24" height="24" viewBox="0 0 24 24" fill="none" xmlns="http://www.w3.org/2000/svg">
<path d="M2 9C2 4 4 2 9 2H15C20 2 22 4 22 9V15C22 20 20 22 15 22H9C4 22 2 20 2 15" stroke="#1C252E" stroke-width="1.5" stroke-linecap="round" stroke-linejoin="round"/>
<path d="M7 12.1599H9.68C10.39 12.1599 10.87 12.6999 10.87 13.3499V14.84C10.87 15.49 10.39 16.03 9.68 16.03H8.19C7.54 16.03 7 15.49 7 14.84V12.1599" stroke="#1C252E" stroke-width="1.5" stroke-linecap="round" stroke-linejoin="round"/>
<path d="M7 12.16C7 9.36997 7.52 8.89997 9.09 7.96997" stroke="#1C252E" stroke-width="1.5" stroke-linecap="round" stroke-linejoin="round"/>
<path d="M13.1396 12.1599H15.8196C16.5296 12.1599 17.0097 12.6999 17.0097 13.3499V14.84C17.0097 15.49 16.5296 16.03 15.8196 16.03H14.3297C13.6797 16.03 13.1396 15.49 13.1396 14.84V12.1599" stroke="#1C252E" stroke-width="1.5" stroke-linecap="round" stroke-linejoin="round"/>
<path d="M13.1396 12.16C13.1396 9.36997 13.6597 8.89997 15.2297 7.96997" stroke="#1C252E" stroke-width="1.5" stroke-linecap="round" stroke-linejoin="round"/>
</svg>
