<svg width="24" height="24" viewBox="0 0 24 24" fill="none" xmlns="http://www.w3.org/2000/svg">
<path d="M8.17961 16.02C7.41961 15.95 6.66961 15.6 6.08961 14.99C4.76961 13.6 4.76961 11.32 6.08961 9.93001L8.27961 7.63002C9.59961 6.24002 11.7696 6.24002 13.0996 7.63002C14.4196 9.02002 14.4196 11.3 13.0996 12.69L12.0096 13.84" stroke="#1C252E" stroke-width="1.5" stroke-linecap="round" stroke-linejoin="round"/>
<path d="M15.8192 7.97998C16.5792 8.04998 17.3292 8.39998 17.9092 9.00998C19.2292 10.4 19.2292 12.68 17.9092 14.07L15.7192 16.37C14.3992 17.76 12.2292 17.76 10.8992 16.37C9.57918 14.98 9.57918 12.7 10.8992 11.31L11.9892 10.16" stroke="#1C252E" stroke-width="1.5" stroke-linecap="round" stroke-linejoin="round"/>
<path d="M2 9C2 4 4 2 9 2H15C20 2 22 4 22 9V15C22 20 20 22 15 22H9C4 22 2 20 2 15" stroke="#1C252E" stroke-width="1.5" stroke-linecap="round" stroke-linejoin="round"/>
</svg>
