<svg width="24" height="24" viewBox="0 0 24 24" fill="none" xmlns="http://www.w3.org/2000/svg">
<path opacity="0.4" d="M16.19 2H7.81C4.17 2 2 4.17 2 7.81V16.18C2 19.83 4.17 22 7.81 22H16.18C19.82 22 21.99 19.83 21.99 16.19V7.81C22 4.17 19.83 2 16.19 2Z" fill="#1C252E"/>
<path d="M10.5399 8.12013C12.0099 6.65018 14.4095 6.65027 15.8895 8.12013C17.3695 9.59013 17.3695 11.9897 15.8895 13.4697C14.8595 14.4897 13.3897 14.8104 12.0897 14.4004L11.0302 15.4502C10.9402 15.5402 10.7796 15.5402 10.6796 15.4502L9.70985 14.4795C9.56982 14.3398 9.32947 14.3396 9.17958 14.4795C9.02968 14.6194 9.03985 14.8598 9.17958 15.0098L10.1503 15.9795C10.2502 16.0795 10.2502 16.2401 10.1503 16.3301L9.74012 16.7402C9.57011 16.9202 9.23986 17.03 8.99989 17L7.91004 16.8496C7.55004 16.7996 7.22004 16.4596 7.16004 16.0996L7.00965 15.0098C6.96978 14.7698 7.08995 14.4395 7.24989 14.2695L9.5995 11.9199C9.19959 10.62 9.51004 9.15008 10.5399 8.12013ZM13.2499 9.50001C12.5595 9.50001 11.9999 10.0597 11.9999 10.75C11.9999 11.4403 12.5595 12 13.2499 12C13.9402 11.9999 14.4999 11.4403 14.4999 10.75C14.4999 10.0597 13.9402 9.50008 13.2499 9.50001Z" fill="#1C252E"/>
</svg>
