<svg width="24" height="24" viewBox="0 0 24 24" fill="none" xmlns="http://www.w3.org/2000/svg">
<path opacity="0.4" d="M19.7906 4.22001C16.8306 1.27001 12.0306 1.27001 9.09063 4.22001C7.02063 6.27001 6.40063 9.22001 7.20063 11.82L2.50063 16.52C2.17063 16.86 1.94063 17.53 2.01063 18.01L2.31063 20.19C2.42063 20.91 3.09063 21.59 3.81063 21.69L5.99063 21.99C6.47063 22.06 7.14063 21.84 7.48063 21.49L8.30063 20.67C8.50063 20.48 8.50063 20.16 8.30063 19.96L6.36063 18.02C6.07063 17.73 6.07063 17.25 6.36063 16.96C6.65063 16.67 7.13063 16.67 7.42063 16.96L9.37063 18.91C9.56063 19.1 9.88063 19.1 10.0706 18.91L12.1906 16.8C14.7806 17.61 17.7306 16.98 19.7906 14.93C22.7406 11.98 22.7406 7.17001 19.7906 4.22001Z" fill="#1C252E"/>
<path d="M14.5 12C13.12 12 12 10.88 12 9.5C12 8.12 13.12 7 14.5 7C15.88 7 17 8.12 17 9.5C17 10.88 15.88 12 14.5 12Z" fill="#1C252E"/>
</svg>
