<svg width="24" height="24" viewBox="0 0 24 24" fill="none" xmlns="http://www.w3.org/2000/svg">
<path opacity="0.4" d="M8.16667 12.7558C8.12764 12.5195 8.09836 12.2635 8.09836 12.0075C8.09836 9.83178 9.84494 8.06951 12.0013 8.06951C12.255 8.06951 12.5087 8.09904 12.7429 8.13842L16.0018 4.85016C14.7529 4.22008 13.3966 3.88535 12.0013 3.88535H11.9916C7.86419 3.88535 4.14662 6.80934 2.05854 11.7122C1.98049 11.8992 1.98049 12.1158 2.05854 12.293C2.7318 13.8781 3.5807 15.2564 4.55643 16.3984L8.16667 12.7558Z" fill="#1C252E"/>
<path fill-rule="evenodd" clip-rule="evenodd" d="M11.998 15.9319C11.1882 15.9319 10.4271 15.6759 9.80261 15.2526L10.8662 14.1795C11.1979 14.3567 11.5882 14.4551 11.998 14.4551C13.3348 14.4551 14.4276 13.3525 14.4276 12.0037C14.4276 11.5902 14.33 11.1964 14.1544 10.8617L15.218 9.78855C15.6375 10.4186 15.8912 11.1866 15.8912 12.0037C15.8912 14.1696 14.1446 15.9319 11.998 15.9319ZM21.9408 11.7083C21.0431 9.60149 19.843 7.84907 18.4281 6.54952L20.204 4.75771C20.4967 4.4722 20.4967 3.99964 20.204 3.71413C19.921 3.42862 19.4624 3.42862 19.1697 3.71413L18.2525 4.63957C18.2427 4.65926 18.2232 4.67895 18.2037 4.69864C18.194 4.71833 18.1744 4.73802 18.1549 4.75771L3.72376 19.3186L3.69448 19.358C3.49934 19.6435 3.53837 20.0373 3.7823 20.2834C3.9189 20.4311 4.11405 20.5 4.29944 20.5C4.48483 20.5 4.67022 20.4311 4.81658 20.2834L6.70952 18.3735C8.29997 19.5056 10.1051 20.1259 11.9883 20.1259H11.998C16.1351 20.1259 19.8527 17.1921 21.9408 12.2892C22.0188 12.112 22.0188 11.8954 21.9408 11.7083Z" fill="#1C252E"/>
</svg>
