<svg width="24" height="24" viewBox="0 0 24 24" fill="none" xmlns="http://www.w3.org/2000/svg">
<path opacity="0.4" d="M18.5002 4.10995L13.5102 2.23995C12.6802 1.92995 11.3202 1.92995 10.4902 2.23995L5.50016 4.10995C4.35016 4.53995 3.41016 5.89995 3.41016 7.11995V14.5499C3.41016 15.7299 4.19016 17.2799 5.14016 17.9899L9.44016 21.1999C10.8502 22.2599 13.1702 22.2599 14.5802 21.1999L18.8802 17.9899C19.8302 17.2799 20.6102 15.7299 20.6102 14.5499V7.11995C20.5902 5.89995 19.6502 4.53995 18.5002 4.10995Z" fill="#1C252E"/>
<path d="M11.9299 7.02991C13.1099 7.02991 14.0699 7.98991 14.0699 9.16991C14.0699 10.3299 13.1599 11.2599 12.0099 11.2999H11.9899H11.9699C11.9499 11.2999 11.9299 11.2999 11.9099 11.2999C10.7099 11.2599 9.80992 10.3299 9.80992 9.16991C9.79992 7.98991 10.7599 7.02991 11.9299 7.02991ZM14.1899 16.3599C13.5799 16.7599 12.7899 16.9699 11.9999 16.9699C11.2099 16.9699 10.4099 16.7699 9.80992 16.3599C9.23992 15.9799 8.92992 15.4599 8.91992 14.8899C8.91992 14.3299 9.23992 13.7899 9.80992 13.4099C11.0199 12.6099 12.9899 12.6099 14.1999 13.4099C14.7699 13.7899 15.0899 14.3099 15.0899 14.8799C15.0799 15.4399 14.7599 15.9799 14.1899 16.3599Z" fill="#1C252E"/>
</svg>
