<svg width="24" height="24" viewBox="0 0 24 24" fill="none" xmlns="http://www.w3.org/2000/svg">
<path d="M16.9662 8.46154V5.89744C16.9662 3.74359 15.2076 2 13.0352 2H10.9662C8.79378 2 7.03516 3.74359 7.03516 5.89744V8.46154L8.69033 8.25641V5.89744C8.69033 4.66667 9.72481 3.64103 10.9662 3.64103H13.0352C14.2765 3.64103 15.311 4.66667 15.311 5.89744V8.35897L16.9662 8.46154Z" fill="#1C252E"/>
<path opacity="0.4" fill-rule="evenodd" clip-rule="evenodd" d="M20.7931 11.0256C20.6897 9.69227 19.6552 8.66663 18.3103 8.56407C17.8966 8.56407 17.3793 8.4615 16.9655 8.4615L15.3103 8.35894C14.1724 8.25637 13.0345 8.15381 12 8.15381C10.9655 8.15381 9.82759 8.15381 8.68965 8.25637L7.03448 8.4615C6.51724 8.4615 6.10345 8.56407 5.68966 8.56407C4.34483 8.66663 3.31034 9.69227 3.2069 11.0256C3.10345 12.1538 3 13.8974 3 15.1282C3 16.3589 3.10345 18 3.2069 19.2307C3.31034 20.5641 4.34483 21.5897 5.68966 21.6923C7.55172 21.8974 10.0345 22 12 22C13.9655 22 16.4483 21.7948 18.3103 21.6923C19.6552 21.5897 20.6897 20.5641 20.7931 19.2307C20.8966 18.1025 21 16.4615 21 15.1282C21 13.7948 20.8966 12.2564 20.7931 11.0256ZM12 16.9743C12.5172 16.9743 12.8276 16.5641 12.8276 16.1538V14.1025C12.8276 13.5897 12.5172 13.282 12 13.282C11.4828 13.282 11.1724 13.6923 11.1724 14.1025V16.1538C11.1724 16.6666 11.4828 16.9743 12 16.9743Z" fill="#1C252E"/>
<path d="M12.827 16.1539C12.827 16.5642 12.5167 16.9744 11.9995 16.9744C11.4822 16.9744 11.1719 16.6667 11.1719 16.1539V14.1026C11.1719 13.6924 11.4822 13.2821 11.9995 13.2821C12.5167 13.2821 12.827 13.5898 12.827 14.1026V16.1539Z" fill="#1C252E"/>
</svg>
