<svg width="24" height="24" viewBox="0 0 24 24" fill="none" xmlns="http://www.w3.org/2000/svg">
<path d="M22 9.75C21.59 9.75 21.25 9.41 21.25 9V7C21.25 4.42 19.58 2.75 17 2.75H15C14.59 2.75 14.25 2.41 14.25 2C14.25 1.59 14.59 1.25 15 1.25H17C20.44 1.25 22.75 3.56 22.75 7V9C22.75 9.41 22.41 9.75 22 9.75Z" fill="#1C252E"/>
<path d="M2 9.75C1.59 9.75 1.25 9.41 1.25 9V7C1.25 3.56 3.56 1.25 7 1.25H9C9.41 1.25 9.75 1.59 9.75 2C9.75 2.41 9.41 2.75 9 2.75H7C4.42 2.75 2.75 4.42 2.75 7V9C2.75 9.41 2.41 9.75 2 9.75Z" fill="#1C252E"/>
<path d="M17 22.75H15C14.59 22.75 14.25 22.41 14.25 22C14.25 21.59 14.59 21.25 15 21.25H17C19.58 21.25 21.25 19.58 21.25 17V15C21.25 14.59 21.59 14.25 22 14.25C22.41 14.25 22.75 14.59 22.75 15V17C22.75 20.44 20.44 22.75 17 22.75Z" fill="#1C252E"/>
<path d="M9 22.75H7C3.56 22.75 1.25 20.44 1.25 17V15C1.25 14.59 1.59 14.25 2 14.25C2.41 14.25 2.75 14.59 2.75 15V17C2.75 19.58 4.42 21.25 7 21.25H9C9.41 21.25 9.75 21.59 9.75 22C9.75 22.41 9.41 22.75 9 22.75Z" fill="#1C252E"/>
<path opacity="0.4" d="M15.5298 7.40005C15.1898 7.06005 14.7998 6.77005 14.3798 6.53005C14.2398 6.46005 14.0898 6.39005 13.9398 6.32005C13.7898 6.26005 13.6398 6.20005 13.4798 6.16005C13.3198 6.11005 13.1598 6.07005 12.9998 6.03005C12.9898 6.03005 12.9698 6.03005 12.9598 6.02005C12.6498 5.96005 12.3298 5.93005 12.0098 5.93005H11.9898C11.6698 5.93005 11.3598 5.96005 11.0498 6.02005C11.0098 6.03005 10.9698 6.03005 10.9398 6.05005C10.7998 6.08005 10.6598 6.11005 10.5198 6.16005C10.3498 6.20005 10.1798 6.27005 10.0098 6.34005C9.87977 6.40005 9.74977 6.47005 9.62977 6.53005C9.47977 6.61005 9.34977 6.70005 9.20977 6.79005C8.94977 6.97005 8.69977 7.17005 8.46977 7.40005C8.35977 7.51005 8.24977 7.63005 8.14977 7.75005C8.04976 7.88005 7.94977 8.00005 7.85977 8.14005C7.76977 8.27005 7.68977 8.41005 7.60977 8.55005C7.22977 9.26005 7.00977 10.0701 7.00977 10.9301V13.0701C7.00977 14.8001 7.88977 16.3201 9.20977 17.2101C9.32977 17.3001 9.45977 17.3701 9.58977 17.4501L10.1398 17.7101C10.4198 17.8201 10.7098 17.9101 10.9998 17.9701C11.3198 18.0301 11.6498 18.0701 11.9898 18.0701C11.9998 18.0701 11.9998 18.0701 12.0098 18.0701C12.3498 18.0701 12.6798 18.0301 12.9998 17.9701C13.2998 17.9101 13.5898 17.8201 13.8698 17.7101C14.0598 17.6301 14.2398 17.5401 14.4098 17.4501C15.9498 16.6001 16.9898 14.9501 16.9898 13.0701V10.9301C16.9898 9.55005 16.4298 8.30005 15.5298 7.40005Z" fill="#1C252E"/>
<path d="M12 8.37012C13.3197 8.37033 14.3992 9.44987 14.3994 10.7695V13.2402C14.3993 14.56 13.3197 15.6394 12 15.6396C10.6801 15.6396 9.59974 14.5601 9.59961 13.2402V10.7695C9.59986 9.44974 10.6802 8.37012 12 8.37012ZM12 9.87012C11.5102 9.87017 11.1008 10.2698 11.1006 10.7695V13.2402C11.1007 13.7401 11.5001 14.1396 12 14.1396C12.4999 14.1396 12.9003 13.7401 12.9004 13.2402V10.7695C12.9001 10.2697 12.4898 9.87012 12 9.87012Z" fill="#1C252E"/>
</svg>
