<svg width="24" height="24" viewBox="0 0 24 24" fill="none" xmlns="http://www.w3.org/2000/svg">
<path d="M12.0001 14.38C13.3146 14.38 14.3801 13.3144 14.3801 12C14.3801 10.6856 13.3146 9.62 12.0001 9.62C10.6857 9.62 9.62012 10.6856 9.62012 12C9.62012 13.3144 10.6857 14.38 12.0001 14.38Z" fill="#1C252E"/>
<path opacity="0.4" d="M20.0003 18.75C19.8403 18.75 19.6903 18.7 19.5503 18.6C19.2203 18.35 19.1503 17.88 19.4003 17.55C20.6103 15.94 21.2503 14.02 21.2503 12C21.2503 9.98003 20.6103 8.06003 19.4003 6.45003C19.1503 6.12003 19.2203 5.65003 19.5503 5.40003C19.8803 5.15003 20.3503 5.22003 20.6003 5.55003C22.0103 7.42003 22.7503 9.65003 22.7503 12C22.7503 14.35 22.0103 16.58 20.6003 18.45C20.4503 18.65 20.2303 18.75 20.0003 18.75Z" fill="#1C252E"/>
<path opacity="0.4" d="M4 18.75C3.77 18.75 3.55 18.65 3.4 18.45C1.99 16.58 1.25 14.35 1.25 12C1.25 9.65003 1.99 7.42003 3.4 5.55003C3.65 5.22003 4.12 5.15003 4.45 5.40003C4.78 5.65003 4.85 6.12003 4.6 6.45003C3.39 8.06003 2.75 9.98003 2.75 12C2.75 14.02 3.39 15.94 4.6 17.55C4.85 17.88 4.78 18.35 4.45 18.6C4.32 18.7 4.16 18.75 4 18.75Z" fill="#1C252E"/>
<path opacity="0.4" d="M16.8001 16.3501C16.6401 16.3501 16.4901 16.3001 16.3501 16.2001C16.0201 15.9501 15.9501 15.4801 16.2001 15.1501C16.8901 14.2401 17.2501 13.1501 17.2501 12.0001C17.2501 10.8501 16.8901 9.76005 16.2001 8.85005C15.9501 8.52005 16.0201 8.05005 16.3501 7.80005C16.6801 7.55005 17.1501 7.62005 17.4001 7.95005C18.2801 9.13005 18.7501 10.5301 18.7501 12.0001C18.7501 13.4701 18.2801 14.8801 17.4001 16.0501C17.2501 16.2501 17.0301 16.3501 16.8001 16.3501Z" fill="#1C252E"/>
<path opacity="0.4" d="M7.2 16.3501C6.97 16.3501 6.75 16.2501 6.6 16.0501C5.72 14.8801 5.25 13.4701 5.25 12.0001C5.25 10.5301 5.72 9.12005 6.6 7.95005C6.85 7.62005 7.32 7.55005 7.65 7.80005C7.98 8.05005 8.05 8.52005 7.8 8.85005C7.11 9.76005 6.75 10.8501 6.75 12.0001C6.75 13.1501 7.11 14.2401 7.8 15.1501C8.05 15.4801 7.98 15.9501 7.65 16.2001C7.52 16.3001 7.36 16.3501 7.2 16.3501Z" fill="#1C252E"/>
</svg>
