<svg width="24" height="24" viewBox="0 0 24 24" fill="none" xmlns="http://www.w3.org/2000/svg">
<path opacity="0.4" fill-rule="evenodd" clip-rule="evenodd" d="M12 15.8691C9.8439 15.8691 8.09756 14.1333 8.09756 12C8.09756 9.85697 9.8439 8.12121 12 8.12121C14.1463 8.12121 15.8927 9.85697 15.8927 12C15.8927 14.1333 14.1463 15.8691 12 15.8691ZM21.9415 11.7091C20.8976 9.29455 19.4439 7.36485 17.7366 6.04606C16.0293 4.71758 14.0683 4 12 4H11.9902C7.86341 4 4.14634 6.88 2.05854 11.7091C1.98049 11.8933 1.98049 12.1067 2.05854 12.2812C4.14634 17.1103 7.86341 20 11.9902 20H12C16.1366 20 19.8537 17.1103 21.9415 12.2812C22.0195 12.1067 22.0195 11.8933 21.9415 11.7091Z" fill="#1C252E"/>
<path d="M14.4308 11.9979C14.4308 13.3264 13.3381 14.4124 12.0015 14.4124C10.6552 14.4124 9.5625 13.3264 9.5625 11.9979C9.5625 11.833 9.58201 11.6779 9.61128 11.5227H9.66006C10.743 11.5227 11.621 10.6694 11.6601 9.60271C11.7674 9.58332 11.8845 9.57362 12.0015 9.57362C13.3381 9.57362 14.4308 10.6597 14.4308 11.9979Z" fill="#1C252E"/>
</svg>
