<svg width="24" height="24" viewBox="0 0 24 24" fill="none" xmlns="http://www.w3.org/2000/svg">
<path opacity="0.4" d="M20.9098 11.1199V6.72995C20.9098 5.90995 20.2898 4.97995 19.5198 4.66995L13.9498 2.38995C12.6998 1.87995 11.2898 1.87995 10.0398 2.38995L4.46984 4.66995C3.70984 4.97995 3.08984 5.90995 3.08984 6.72995V11.1199C3.08984 16.0099 6.63984 20.5899 11.4898 21.9299C11.8198 22.0199 12.1798 22.0199 12.5098 21.9299C17.3598 20.5899 20.9098 16.0099 20.9098 11.1199Z" fill="#1C252E"/>
<path d="M12.75 12.87V15.5C12.75 15.91 12.41 16.25 12 16.25C11.59 16.25 11.25 15.91 11.25 15.5V12.87C10.24 12.55 9.5 11.61 9.5 10.5C9.5 9.12 10.62 8 12 8C13.38 8 14.5 9.12 14.5 10.5C14.5 11.62 13.76 12.55 12.75 12.87Z" fill="#1C252E"/>
</svg>
