<svg width="24" height="24" viewBox="0 0 24 24" fill="none" xmlns="http://www.w3.org/2000/svg">
<path opacity="0.4" d="M18.3103 8.56419C19.6552 8.66675 20.6897 9.69239 20.7931 11.0257C20.8966 12.2565 21 13.795 21 15.1283C21 16.4616 20.8966 18.1026 20.7931 19.2309C20.6897 20.5642 19.6552 21.5898 18.3103 21.6924C16.4483 21.795 13.9655 22.0001 12 22.0001C10.0345 22.0001 7.55172 21.8975 5.68966 21.6924C4.34483 21.5898 3.31034 20.5642 3.2069 19.2309C3.10345 18.0001 3 16.3591 3 15.1283C3 13.8975 3.10345 12.1539 3.2069 11.0257C3.31034 9.69239 4.34483 8.66675 5.68966 8.56419C6.10345 8.56419 6.51724 8.46162 7.03448 8.46162L8.68965 8.25649C9.82759 8.15393 10.9655 8.15393 12 8.15393C13.0345 8.15393 14.1724 8.25649 15.3103 8.35906L16.9655 8.46162C17.3793 8.46162 17.8966 8.56419 18.3103 8.56419Z" fill="#1C252E"/>
<path d="M8.69033 5.89744V8.25641L7.03516 8.46154V5.89744C7.03516 3.74359 8.79378 2 10.9662 2H13.0352C15.0371 2 16.6876 3.48063 16.9343 5.39852C16.9696 5.6724 16.7423 5.89744 16.4662 5.89744H15.811C15.5349 5.89744 15.3167 5.67061 15.2541 5.40166C15.0215 4.40307 14.1052 3.64103 13.0352 3.64103H10.9662C9.72481 3.64103 8.69033 4.66667 8.69033 5.89744Z" fill="#1C252E"/>
<path fill-rule="evenodd" clip-rule="evenodd" d="M11.9995 16.9744C12.5167 16.9744 12.827 16.5642 12.827 16.1539V14.1026C12.827 13.5898 12.5167 13.2821 11.9995 13.2821C11.4822 13.2821 11.1719 13.6924 11.1719 14.1026V16.1539C11.1719 16.6667 11.4822 16.9744 11.9995 16.9744Z" fill="#1C252E"/>
</svg>
