<svg width="24" height="24" viewBox="0 0 24 24" fill="none" xmlns="http://www.w3.org/2000/svg">
<path d="M19.9597 8.96002C19.2897 8.22002 18.2797 7.79002 16.8797 7.64002V6.88002C16.8797 5.51002 16.2997 4.19002 15.2797 3.27002C14.2497 2.33002 12.9097 1.89002 11.5197 2.02002C9.12975 2.25002 7.11975 4.56002 7.11975 7.06002V7.64002C5.71975 7.79002 4.70975 8.22002 4.03975 8.96002C3.06975 10.04 3.09975 11.48 3.20975 12.48L3.90975 18.05C4.11975 20 4.90975 22 9.20975 22H14.7897C19.0897 22 19.8797 20 20.0897 18.06L20.7897 12.47C20.8997 11.48 20.9297 10.04 19.9597 8.96002ZM11.6597 3.41002C12.6597 3.32002 13.6097 3.63002 14.3497 4.30002C15.0797 4.96002 15.4897 5.90002 15.4897 6.88002V7.58002H8.50975V7.06002C8.50975 5.28002 9.97975 3.57002 11.6597 3.41002ZM11.9997 18.58C9.90975 18.58 8.20975 16.88 8.20975 14.79C8.20975 12.7 9.90975 11 11.9997 11C14.0897 11 15.7897 12.7 15.7897 14.79C15.7897 16.88 14.0897 18.58 11.9997 18.58Z" fill="#1C252E"/>
<path d="M13.5991 15.31L13.0691 14.78L13.5691 14.28C13.8591 13.99 13.8591 13.51 13.5691 13.22C13.2791 12.93 12.7991 12.93 12.5091 13.22L12.0091 13.72L11.4791 13.19C11.1891 12.9 10.7091 12.9 10.4191 13.19C10.1291 13.48 10.1291 13.96 10.4191 14.25L10.9491 14.78L10.3991 15.33C10.1091 15.62 10.1091 16.1 10.3991 16.39C10.5491 16.54 10.7391 16.61 10.9291 16.61C11.1191 16.61 11.3091 16.54 11.4591 16.39L12.0091 15.84L12.5391 16.37C12.6891 16.52 12.8791 16.59 13.0691 16.59C13.2591 16.59 13.4491 16.52 13.5991 16.37C13.8891 16.08 13.8891 15.61 13.5991 15.31Z" fill="#1C252E"/>
</svg>
