<svg width="24" height="24" viewBox="0 0 24 24" fill="none" xmlns="http://www.w3.org/2000/svg">
<path d="M19.9597 8.96002C19.2897 8.22002 18.2797 7.79002 16.8797 7.64002V6.88002C16.8797 5.51002 16.2997 4.19002 15.2797 3.27002C14.2497 2.33002 12.9097 1.89002 11.5197 2.02002C9.12975 2.25002 7.11975 4.56002 7.11975 7.06002V7.64002C5.71975 7.79002 4.70975 8.22002 4.03975 8.96002C3.06975 10.04 3.09975 11.48 3.20975 12.48L3.90975 18.05C4.11975 20 4.90975 22 9.20975 22H14.7897C19.0897 22 19.8797 20 20.0897 18.06L20.7897 12.47C20.8997 11.48 20.9297 10.04 19.9597 8.96002ZM11.6597 3.41002C12.6597 3.32002 13.6097 3.63002 14.3497 4.30002C15.0797 4.96002 15.4897 5.90002 15.4897 6.88002V7.58002H8.50975V7.06002C8.50975 5.28002 9.97975 3.57002 11.6597 3.41002ZM11.9997 18.58C9.90975 18.58 8.20975 16.88 8.20975 14.79C8.20975 12.7 9.90975 11 11.9997 11C14.0897 11 15.7897 12.7 15.7897 14.79C15.7897 16.88 14.0897 18.58 11.9997 18.58Z" fill="#1C252E"/>
<path d="M11.4309 16.64C11.2409 16.64 11.0509 16.57 10.9009 16.42L9.91086 15.43C9.62086 15.14 9.62086 14.66 9.91086 14.37C10.2009 14.08 10.6809 14.08 10.9709 14.37L11.4509 14.85L13.0509 13.37C13.3509 13.09 13.8309 13.11 14.1109 13.41C14.3909 13.71 14.3709 14.19 14.0709 14.47L11.9409 16.44C11.7909 16.57 11.6109 16.64 11.4309 16.64Z" fill="#1C252E"/>
</svg>
