<svg width="24" height="24" viewBox="0 0 24 24" fill="none" xmlns="http://www.w3.org/2000/svg">
<path d="M19.9597 8.95999C19.2897 8.21999 18.2797 7.78999 16.8797 7.63999V6.87999C16.8797 5.50999 16.2997 4.18999 15.2797 3.26999C14.2497 2.32999 12.9097 1.88999 11.5197 2.01999C9.12975 2.24999 7.11975 4.55999 7.11975 7.05999V7.63999C5.71975 7.78999 4.70975 8.21999 4.03975 8.95999C3.06975 10.04 3.09975 11.48 3.20975 12.48L3.90975 18.05C4.11975 20 4.90975 22 9.20975 22H14.7897C19.0897 22 19.8797 20 20.0897 18.06L20.7897 12.47C20.8997 11.48 20.9297 10.04 19.9597 8.95999ZM11.6597 3.40999C12.6597 3.31999 13.6097 3.62999 14.3497 4.29999C15.0797 4.95999 15.4897 5.89999 15.4897 6.87999V7.57999H8.50975V7.05999C8.50975 5.27999 9.97975 3.56999 11.6597 3.40999ZM11.9997 18.58C9.90975 18.58 8.20975 16.88 8.20975 14.79C8.20975 12.7 9.90975 11 11.9997 11C14.0897 11 15.7897 12.7 15.7897 14.79C15.7897 16.88 14.0897 18.58 11.9997 18.58Z" fill="#1C252E"/>
<path d="M10.9999 16.58C10.7499 16.58 10.4999 16.45 10.3599 16.22C10.1499 15.87 10.2599 15.4 10.6199 15.19L11.5099 14.66V13.58C11.5099 13.17 11.8499 12.83 12.2599 12.83C12.6699 12.83 12.9999 13.16 12.9999 13.58V15.08C12.9999 15.34 12.8599 15.59 12.6399 15.72L11.3899 16.47C11.2699 16.54 11.1299 16.58 10.9999 16.58Z" fill="#1C252E"/>
</svg>
