<svg width="24" height="24" viewBox="0 0 24 24" fill="none" xmlns="http://www.w3.org/2000/svg">
<path d="M3.16992 7.44L11.9999 12.55L20.7699 7.46997" stroke="#1C252E" stroke-width="1.5" stroke-linecap="round" stroke-linejoin="round"/>
<path d="M12 21.61V12.54" stroke="#1C252E" stroke-width="1.5" stroke-linecap="round" stroke-linejoin="round"/>
<path d="M2.39062 9.17565C2.39062 7.79565 3.38063 6.11565 4.59063 5.44565L9.93062 2.48565C11.0706 1.84565 12.9306 1.84565 14.0806 2.47565L19.4206 5.44565C20.6306 6.11565 21.6206 7.79565 21.6206 9.17565V14.8257C21.6206 16.2057 20.6306 17.8857 19.4206 18.5557L14.0806 21.5257C12.9406 22.1557 11.0706 22.1557 9.93062 21.5257L4.59063 18.5557C3.38063 17.8857 2.39062 16.2057 2.39062 14.8257V14.0056" stroke="#1C252E" stroke-width="1.5" stroke-linecap="round" stroke-linejoin="round"/>
<path d="M16.9998 13.24V9.58002L7.50977 4.09998" stroke="#1C252E" stroke-width="1.5" stroke-linecap="round" stroke-linejoin="round"/>
</svg>
