<svg width="24" height="24" viewBox="0 0 24 24" fill="none" xmlns="http://www.w3.org/2000/svg">
<path d="M2.13082 7C2.64745 3.45898 4.72949 2 9 2H15C20 2 22 4 22 9V15C22 20 20 22 15 22H9C4 22 2 20 2 15V12" stroke="#1C252E" stroke-width="1.5" stroke-linecap="round" stroke-linejoin="round"/>
<path d="M6.70117 9.26001L12.0012 12.33L17.2612 9.28001" stroke="#1C252E" stroke-width="1.5" stroke-linecap="round" stroke-linejoin="round"/>
<path d="M12.002 17.77V12.32" stroke="#1C252E" stroke-width="1.5" stroke-linecap="round" stroke-linejoin="round"/>
<path d="M10.7603 6.29001L7.56024 8.07001C6.84024 8.47001 6.24023 9.48001 6.24023 10.31V13.7C6.24023 14.53 6.83024 15.54 7.56024 15.94L10.7603 17.72C11.4403 18.1 12.5602 18.1 13.2502 17.72L16.4503 15.94C17.1703 15.54 17.7702 14.53 17.7702 13.7V10.3C17.7702 9.47001 17.1803 8.46001 16.4503 8.06001L13.2502 6.28001C12.5602 5.90001 11.4403 5.90001 10.7603 6.29001Z" stroke="#1C252E" stroke-width="1.5" stroke-linecap="round" stroke-linejoin="round"/>
</svg>
