<svg width="24" height="24" viewBox="0 0 24 24" fill="none" xmlns="http://www.w3.org/2000/svg">
<path d="M6.70117 9.26001L12.0012 12.33L17.2612 9.28001" stroke="#1C252E" stroke-width="1.5" stroke-linecap="round" stroke-linejoin="round"/>
<path d="M12.002 17.77V12.32" stroke="#1C252E" stroke-width="1.5" stroke-linecap="round" stroke-linejoin="round"/>
<path d="M6.24023 10.31C6.24023 9.48001 6.84024 8.47001 7.56024 8.07001L10.7603 6.29001C11.4403 5.90001 12.5602 5.90001 13.2502 6.28001L16.4503 8.06001C17.1803 8.46001 17.7702 9.47001 17.7702 10.3V13.7C17.7702 14.53 17.1703 15.54 16.4503 15.94L13.2502 17.72C12.5602 18.1 11.4403 18.1 10.7603 17.72L7.56024 15.94C7.20088 15.7431 6.87544 15.3984 6.63761 15" stroke="#1C252E" stroke-width="1.5" stroke-linecap="round" stroke-linejoin="round"/>
<path d="M22 15C22 18.87 18.87 22 15 22L16.05 20.25" stroke="#1C252E" stroke-width="1.5" stroke-linecap="round" stroke-linejoin="round"/>
<path d="M2 9C2 5.13 5.13 2 9 2L7.95001 3.75" stroke="#1C252E" stroke-width="1.5" stroke-linecap="round" stroke-linejoin="round"/>
</svg>
