<svg width="24" height="24" viewBox="0 0 24 24" fill="none" xmlns="http://www.w3.org/2000/svg">
<path d="M22.9992 17.91C23.0192 18.66 22.8192 19.37 22.4592 19.98C22.2592 20.34 21.9892 20.67 21.6892 20.94C20.9992 21.58 20.0892 21.97 19.0792 22C17.6192 22.03 16.3292 21.28 15.6192 20.13C15.2392 19.54 15.0092 18.83 14.9992 18.08C14.9692 16.82 15.5292 15.68 16.4292 14.93C17.1092 14.37 17.9692 14.02 18.9092 14C21.1192 13.95 22.9492 15.7 22.9992 17.91Z" stroke="#1C252E" stroke-width="1.5" stroke-miterlimit="10" stroke-linecap="round" stroke-linejoin="round"/>
<path d="M17.4395 18.03L18.4495 18.99L20.5395 16.97" stroke="#1C252E" stroke-width="1.5" stroke-linecap="round" stroke-linejoin="round"/>
<path d="M3.16992 7.44L11.9999 12.55L20.7699 7.46997" stroke="#1C252E" stroke-width="1.5" stroke-linecap="round" stroke-linejoin="round"/>
<path d="M12 21.61V12.54" stroke="#1C252E" stroke-width="1.5" stroke-linecap="round" stroke-linejoin="round"/>
<path d="M4.59062 18.56L9.93062 21.52C11.0706 22.16 12.9306 22.16 14.0706 21.52L15.9006 20.51C15.7806 20.37 15.6706 20.22 15.5806 20.06C15.2106 19.46 15.0006 18.75 15.0006 18C15.0006 16.74 15.5806 15.61 16.5006 14.88C17.1906 14.33 18.0606 14 19.0006 14C20.0006 14 20.9006 14.36 21.6006 14.97C21.6106 14.92 21.6106 14.88 21.6106 14.83V9.17C21.6106 7.79 20.6206 6.11002 19.4106 5.44002L14.0706 2.48C12.9306 1.84 11.0706 1.84 9.93062 2.48L4.59062 5.44002C3.38062 6.11002 2.39062 7.79 2.39062 9.17V14.83" stroke="#1C252E" stroke-width="1.5" stroke-linecap="round" stroke-linejoin="round"/>
</svg>
