<svg width="24" height="24" viewBox="0 0 24 24" fill="none" xmlns="http://www.w3.org/2000/svg">
<path d="M18.1404 21.62C17.2604 21.88 16.2204 22 15.0004 22H9.00035C7.78035 22 6.74035 21.88 5.86035 21.62" stroke="#1C252E" stroke-width="1.5" stroke-linecap="round" stroke-linejoin="round"/>
<path d="M5.86 21.62C3.14 20.85 2 18.78 2 15V9C2 4 4 2 9 2H15C20 2 22 4 22 9V15C22 18.78 20.86 20.85 18.14 21.62" stroke="#1C252E" stroke-width="1.5" stroke-linecap="round" stroke-linejoin="round"/>
<path opacity="0.4" d="M5.86035 21.62C6.08035 19.02 8.75035 16.97 12.0004 16.97C15.2504 16.97 17.9204 19.02 18.1404 21.62" stroke="#1C252E" stroke-width="1.5" stroke-linecap="round" stroke-linejoin="round"/>
<path opacity="0.4" d="M15.5799 10.58C15.5799 12.56 13.9799 14.17 11.9999 14.17C10.0199 14.17 8.41992 12.56 8.41992 10.58C8.41992 8.60002 10.0199 7 11.9999 7C13.9799 7 15.5799 8.60002 15.5799 10.58Z" stroke="#1C252E" stroke-width="1.5" stroke-linecap="round" stroke-linejoin="round"/>
</svg>
