<svg width="24" height="24" viewBox="0 0 24 24" fill="none" xmlns="http://www.w3.org/2000/svg">
<path d="M2.13082 7C2.64745 3.45898 4.72949 2 9 2H15C20 2 22 4 22 9V15C22 20 20 22 15 22H9C4 22 2 20 2 15V12" stroke="#1C252E" stroke-width="1.5" stroke-linecap="round" stroke-linejoin="round"/>
<path d="M15.5 18.5C16.6 18.5 17.5 17.6 17.5 16.5V7.5C17.5 6.4 16.6 5.5 15.5 5.5C14.4 5.5 13.5 6.4 13.5 7.5V16.5C13.5 17.6 14.39 18.5 15.5 18.5Z" stroke="#1C252E" stroke-width="1.5" stroke-linecap="round" stroke-linejoin="round"/>
<path d="M8.5 18.5C9.6 18.5 10.5 17.6 10.5 16.5V13C10.5 11.9 9.6 11 8.5 11C7.4 11 6.5 11.9 6.5 13V16.5C6.5 17.6 7.39 18.5 8.5 18.5Z" stroke="#1C252E" stroke-width="1.5" stroke-linecap="round" stroke-linejoin="round"/>
</svg>
