<svg width="24" height="24" viewBox="0 0 24 24" fill="none" xmlns="http://www.w3.org/2000/svg">
<path d="M2 10.36C2 9.22998 2.73 7.73998 3.63 7.03998L9.02 2.83998C10.37 1.78998 12.62 1.73998 14.02 2.71998L20.2 7.04998C21.19 7.73998 22 9.28998 22 10.5V17.78C22 20.09 20.11 21.99 17.79 21.99H6.21C3.89 21.99 2 20.09 2 17.77V15.5" stroke="#1C252E" stroke-width="1.5" stroke-linecap="round" stroke-linejoin="round"/>
<path d="M16.5 12V15C16.5 16.65 15.15 18 13.5 18H10.5C8.85 18 7.5 16.65 7.5 15V12C7.5 10.35 8.85 9 10.5 9H13.5" stroke="#1C252E" stroke-width="1.5" stroke-linecap="round" stroke-linejoin="round"/>
<path d="M12 9V18" stroke="#1C252E" stroke-width="1.5" stroke-linecap="round" stroke-linejoin="round"/>
<path d="M7.5 13.5H16.5" stroke="#1C252E" stroke-width="1.5" stroke-linecap="round" stroke-linejoin="round"/>
</svg>
