<svg width="24" height="24" viewBox="0 0 24 24" fill="none" xmlns="http://www.w3.org/2000/svg">
<path d="M7.17904 2.10241C7.72725 2.03342 8.32343 2 8.96973 2H14.9697C19.9697 2 21.9697 4 21.9697 9V15C21.9697 20 19.9697 22 14.9697 22H8.96973C3.96973 22 1.96973 20 1.96973 15V9C1.96973 8.27051 2.0123 7.60488 2.10055 7" stroke="#1C252E" stroke-width="1.5" stroke-linecap="round" stroke-linejoin="round"/>
<path d="M1.96973 12.7L7.96973 12.68C8.71973 12.68 9.55973 13.25 9.83973 13.95L10.9797 16.83C11.2397 17.48 11.6497 17.48 11.9097 16.83L14.1997 11.02C14.4197 10.46 14.8297 10.44 15.1097 10.97L16.1497 12.94C16.4597 13.53 17.2597 14.01 17.9197 14.01H21.9797" stroke="#1C252E" stroke-width="1.5" stroke-linecap="round" stroke-linejoin="round"/>
</svg>
