<svg width="24" height="24" viewBox="0 0 24 24" fill="none" xmlns="http://www.w3.org/2000/svg">
<path d="M14.3498 2H9.64977C8.60977 2 7.75977 2.84 7.75977 3.88V4.82C7.75977 5.86 8.59977 6.7 9.63977 6.7H14.3498C15.3898 6.7 16.2298 5.86 16.2298 4.82V3.88C16.2398 2.84 15.3898 2 14.3498 2Z" fill="#1C252E"/>
<path opacity="0.4" d="M16.24 3.65002H7.76004C5.29004 3.65002 3.29004 5.66002 3.29004 8.12002V17.53C3.29004 19.99 5.30004 22 7.76004 22H16.23C18.7 22 20.7 19.99 20.7 17.53V8.12002C20.71 5.65002 18.7 3.65002 16.24 3.65002Z" fill="#1C252E"/>
<path d="M15.34 12.73L11.34 16.73C11.19 16.88 11 16.95 10.81 16.95C10.62 16.95 10.43 16.88 10.28 16.73L8.78004 15.23C8.49004 14.94 8.49004 14.46 8.78004 14.17C9.07004 13.88 9.55004 13.88 9.84004 14.17L10.81 15.14L14.28 11.67C14.57 11.38 15.05 11.38 15.34 11.67C15.63 11.96 15.63 12.44 15.34 12.73Z" fill="#1C252E"/>
</svg>
