<svg width="24" height="24" viewBox="0 0 24 24" fill="none" xmlns="http://www.w3.org/2000/svg">
<path d="M8.29004 6.29C7.87004 6.29 7.54004 5.95 7.54004 5.54V2.75C7.54004 2.34 7.87004 2 8.29004 2C8.71004 2 9.04004 2.34 9.04004 2.75V5.53C9.04004 5.95 8.71004 6.29 8.29004 6.29Z" fill="#1C252E"/>
<path d="M15.71 6.29C15.29 6.29 14.96 5.95 14.96 5.54V2.75C14.96 2.33 15.3 2 15.71 2C16.13 2 16.46 2.34 16.46 2.75V5.53C16.46 5.95 16.13 6.29 15.71 6.29Z" fill="#1C252E"/>
<path d="M21.5004 15.8201C21.5004 15.9701 21.4504 16.1201 21.3204 16.2501C19.8704 17.7101 17.2904 20.3101 15.8104 21.8001C15.6804 21.9401 15.5104 22.0001 15.3404 22.0001C15.0104 22.0001 14.6904 21.7401 14.6904 21.3601V17.8601C14.6904 16.4001 15.9304 15.1901 17.4504 15.1901C18.4004 15.1801 19.7204 15.1801 20.8504 15.1801C21.2404 15.1801 21.5004 15.4901 21.5004 15.8201Z" fill="#1C252E"/>
<path d="M21.5004 15.8201C21.5004 15.9701 21.4504 16.1201 21.3204 16.2501C19.8704 17.7101 17.2904 20.3101 15.8104 21.8001C15.6804 21.9401 15.5104 22.0001 15.3404 22.0001C15.0104 22.0001 14.6904 21.7401 14.6904 21.3601V17.8601C14.6904 16.4001 15.9304 15.1901 17.4504 15.1901C18.4004 15.1801 19.7204 15.1801 20.8504 15.1801C21.2404 15.1801 21.5004 15.4901 21.5004 15.8201Z" fill="#1C252E"/>
<g opacity="0.4">
<path d="M12 17.42H7.36C6.95 17.42 6.61 17.08 6.61 16.67C6.61 16.25 6.95 15.91 7.36 15.91H12C12.42 15.91 12.75 16.25 12.75 16.67C12.75 17.08 12.42 17.42 12 17.42ZM14.78 13.71H7.36C6.95 13.71 6.61 13.37 6.61 12.96C6.61 12.54 6.95 12.2 7.36 12.2H14.78C15.2 12.2 15.54 12.54 15.54 12.96C15.54 13.37 15.2 13.71 14.78 13.71Z" fill="#1C252E"/>
<path fill-rule="evenodd" clip-rule="evenodd" d="M19.57 4.5C18.91 4.01 17.96 4.48 17.96 5.31V5.41C17.96 6.58 17.12 7.66 15.95 7.78C14.6 7.92 13.46 6.86 13.46 5.54V4.5C13.46 3.95 13.01 3.5 12.46 3.5H11.54C10.99 3.5 10.54 3.95 10.54 4.5V5.54C10.54 6.33 10.13 7.03 9.51 7.42C9.42 7.48 9.32 7.53 9.22 7.58C9.13 7.63 9.03 7.67 8.92 7.7C8.8 7.74 8.67 7.77 8.53 7.78C8.37 7.8 8.21 7.8 8.05 7.78C7.91 7.77 7.78 7.74 7.66 7.7C7.56 7.67 7.46 7.63 7.36 7.58C7.26 7.53 7.16 7.48 7.07 7.42C6.44 6.98 6.04 6.22 6.04 5.41V5.31C6.04 4.54 5.22 4.08 4.57 4.41C4.56 4.42 4.55 4.42 4.54 4.43C4.5 4.45 4.47 4.47 4.43 4.5C4.4 4.53 4.36 4.55 4.33 4.58C4.05 4.8 3.8 5.05 3.59 5.32C3.48 5.44 3.39 5.57 3.31 5.7C3.3 5.71 3.29 5.72 3.28 5.74C3.19 5.87 3.11 6.02 3.04 6.16C3.02 6.18 3.01 6.19 3.01 6.21C2.95 6.33 2.89 6.45 2.85 6.58C2.82 6.63 2.81 6.67 2.79 6.72C2.73 6.87 2.69 7.02 2.65 7.17C2.61 7.31 2.58 7.46 2.56 7.61C2.54 7.72 2.53 7.83 2.52 7.95C2.51 8.09 2.5 8.23 2.5 8.37V17.13C2.5 19.82 4.68 22 7.37 22L15.3399 22.0001C15.5099 22.0001 15.6799 21.9401 15.8099 21.8001C17.2899 20.3101 19.8699 17.7101 21.3199 16.2501C21.4499 16.1201 21.4999 15.9701 21.4999 15.8201L21.5 8.37C21.5 6.78 20.74 5.39 19.57 4.5ZM7.36 17.42H12C12.42 17.42 12.75 17.08 12.75 16.67C12.75 16.25 12.42 15.91 12 15.91H7.36C6.95 15.91 6.61 16.25 6.61 16.67C6.61 17.08 6.95 17.42 7.36 17.42ZM7.36 13.71H14.78C15.2 13.71 15.54 13.37 15.54 12.96C15.54 12.54 15.2 12.2 14.78 12.2H7.36C6.95 12.2 6.61 12.54 6.61 12.96C6.61 13.37 6.95 13.71 7.36 13.71Z" fill="#1C252E"/>
</g>
<path d="M12 17.42H7.36C6.95 17.42 6.61 17.08 6.61 16.67C6.61 16.25 6.95 15.91 7.36 15.91H12C12.42 15.91 12.75 16.25 12.75 16.67C12.75 17.08 12.42 17.42 12 17.42ZM14.78 13.71H7.36C6.95 13.71 6.61 13.37 6.61 12.96C6.61 12.54 6.95 12.2 7.36 12.2H14.78C15.2 12.2 15.54 12.54 15.54 12.96C15.54 13.37 15.2 13.71 14.78 13.71Z" fill="#1C252E"/>
</svg>
