<svg width="24" height="24" viewBox="0 0 24 24" fill="none" xmlns="http://www.w3.org/2000/svg">
<path d="M14.3498 2H9.64977C8.60977 2 7.75977 2.84 7.75977 3.88V4.82C7.75977 5.86 8.59977 6.7 9.63977 6.7H14.3498C15.3898 6.7 16.2298 5.86 16.2298 4.82V3.88C16.2398 2.84 15.3898 2 14.3498 2Z" fill="#1C252E"/>
<path opacity="0.4" d="M16.24 3.65002H7.76004C5.29004 3.65002 3.29004 5.66002 3.29004 8.12002V17.53C3.29004 19.99 5.30004 22 7.76004 22H16.23C18.7 22 20.7 19.99 20.7 17.53V8.12002C20.71 5.65002 18.7 3.65002 16.24 3.65002Z" fill="#1C252E"/>
<path d="M15.53 17.53C15.38 17.68 15.19 17.75 15 17.75C14.81 17.75 14.62 17.68 14.47 17.53L9.75004 12.81V14C9.75004 14.41 9.41004 14.75 9.00004 14.75C8.59004 14.75 8.25004 14.41 8.25004 14V11C8.25004 10.59 8.59004 10.25 9.00004 10.25H12C12.41 10.25 12.75 10.59 12.75 11C12.75 11.41 12.41 11.75 12 11.75H10.81L15.53 16.47C15.82 16.76 15.82 17.24 15.53 17.53Z" fill="#1C252E"/>
</svg>
