<svg width="24" height="24" viewBox="0 0 24 24" fill="none" xmlns="http://www.w3.org/2000/svg">
<path d="M14.3498 2H9.64977C8.60977 2 7.75977 2.84 7.75977 3.88V4.82C7.75977 5.86 8.59977 6.7 9.63977 6.7H14.3498C15.3898 6.7 16.2298 5.86 16.2298 4.82V3.88C16.2398 2.84 15.3898 2 14.3498 2Z" fill="#1C252E"/>
<path opacity="0.4" d="M16.24 3.65002H7.76004C5.29004 3.65002 3.29004 5.66002 3.29004 8.12002V17.53C3.29004 19.99 5.30004 22 7.76004 22H16.23C18.7 22 20.7 19.99 20.7 17.53V8.12002C20.71 5.65002 18.7 3.65002 16.24 3.65002Z" fill="#1C252E"/>
<path d="M14.53 16.69C14.38 16.84 14.19 16.91 14 16.91C13.81 16.91 13.62 16.84 13.47 16.69L12.02 15.24L10.53 16.73C10.38 16.88 10.19 16.95 10 16.95C9.81004 16.95 9.62004 16.88 9.47004 16.73C9.18004 16.44 9.18004 15.96 9.47004 15.67L10.96 14.18L9.51004 12.73C9.22004 12.44 9.22004 11.96 9.51004 11.67C9.80004 11.38 10.28 11.38 10.57 11.67L12.02 13.12L13.42 11.72C13.71 11.43 14.19 11.43 14.48 11.72C14.77 12.01 14.77 12.49 14.48 12.78L13.08 14.18L14.53 15.63C14.82 15.92 14.82 16.39 14.53 16.69Z" fill="#1C252E"/>
</svg>
