<svg width="24" height="24" viewBox="0 0 24 24" fill="none" xmlns="http://www.w3.org/2000/svg">
<path d="M7.40034 16.5615C7.14851 16.3297 6.90051 16.1036 6.65816 15.8827C4.05617 13.5108 2.00098 11.6373 2.00098 8.71579C2.00098 8.23623 2.05368 7.76701 2.156 7.31651M19.9016 4.16962C19.0092 3.46864 17.9091 3.09039 16.7275 3.09039C15.0754 3.09039 13.6321 3.89895 12.5539 5.42859C12.3341 5.74053 12.1509 6.05216 12.001 6.34024C11.851 6.05216 11.6679 5.74053 11.448 5.42859C10.3698 3.89895 8.9266 3.09039 7.27441 3.09039C6.83627 3.09039 6.40932 3.14241 6 3.24361M9.46858 18.5519C10.1562 19.2542 10.8559 20.0208 11.552 20.8749C11.6633 21.0115 11.8277 21.0904 12.001 21.0904C12.1743 21.0904 12.3387 21.0115 12.45 20.8749C14.1342 18.8084 15.8394 17.254 17.3438 15.8826C19.9458 13.5107 22.001 11.6373 22.001 8.71579C22.001 8.23623 21.9483 7.76701 21.846 7.31651" stroke="#1C252E" stroke-width="1.5" stroke-linecap="round"/>
<path d="M22 2L2 22" stroke="#1C252E" stroke-width="1.5" stroke-linecap="round" stroke-linejoin="round"/>
</svg>
