<svg width="24" height="24" viewBox="0 0 24 24" fill="none" xmlns="http://www.w3.org/2000/svg">
<path d="M4.92025 11.43L2.94027 13.73C1.38027 15.55 2.06028 16.93 4.45028 16.81L7.79024 16.64C8.39024 16.61 9.15024 17 9.47024 17.52L11.2302 20.37C12.4902 22.41 14.0103 22.18 14.6203 19.86L15.3903 16.92C15.5303 16.37 16.1003 15.78 16.6403 15.61L19.8703 14.6C21.7703 14 22.0303 12.53 20.4403 11.33L17.9603 9.44999C17.5403 9.13999 17.2102 8.44997 17.2202 7.92997L17.2902 4.13999C17.3302 2.08999 16.0003 1.38998 14.3403 2.58998L11.2603 4.80998C10.8403 5.11998 10.0903 5.22999 9.59029 5.06999L6.64028 4.09999C4.75028 3.47999 3.69029 4.52997 4.28029 6.42997" stroke="#1C252E" stroke-width="1.5" stroke-linecap="round" stroke-linejoin="round"/>
<path d="M21.9099 22L18.8799 18.97" stroke="#1C252E" stroke-width="1.5" stroke-linecap="round" stroke-linejoin="round"/>
</svg>
