<svg width="24" height="24" viewBox="0 0 24 24" fill="none" xmlns="http://www.w3.org/2000/svg">
<path d="M17.2004 22C19.8513 22 22.0004 19.851 22.0004 17.2C22.0004 14.549 19.8513 12.4 17.2004 12.4C14.5494 12.4 12.4004 14.549 12.4004 17.2C12.4004 19.851 14.5494 22 17.2004 22Z" stroke="#1C252E" stroke-width="1.5" stroke-miterlimit="10" stroke-linecap="round" stroke-linejoin="round"/>
<path d="M18.9902 17.26H15.4102" stroke="#1C252E" stroke-width="1.5" stroke-miterlimit="10" stroke-linecap="round" stroke-linejoin="round"/>
<path d="M17.2002 15.51V19.1" stroke="#1C252E" stroke-width="1.5" stroke-miterlimit="10" stroke-linecap="round" stroke-linejoin="round"/>
<path d="M13.2856 19.9944C13.0081 20.3084 12.7303 20.6348 12.4529 20.975C12.3416 21.1116 12.1772 21.1906 12.0039 21.1906C11.8306 21.1906 11.6662 21.1116 11.5549 20.9751C9.87088 18.9089 8.16587 17.3546 6.66158 15.9833C4.05959 13.6114 2.00391 11.7375 2.00391 8.81595C2.00391 8.42169 2.03953 8.03442 2.10906 7.6588M20.0549 13.3401C21.2404 11.988 22.0039 10.5966 22.0039 8.81595C22.0039 7.31191 21.4855 5.90964 20.5441 4.86744C19.5674 3.78608 18.213 3.19055 16.7305 3.19055C15.0783 3.19055 13.6351 3.99911 12.5569 5.52874C12.337 5.84069 12.1539 6.15232 12.0039 6.4404C11.8539 6.15232 11.6708 5.84069 11.4509 5.52874C10.3727 3.99911 8.92953 3.19055 7.27734 3.19055C6.94582 3.19055 6.6207 3.22033 6.30479 3.27866" stroke="#1C252E" stroke-width="1.5" stroke-linecap="round"/>
</svg>
