<svg width="24" height="24" viewBox="0 0 24 24" fill="none" xmlns="http://www.w3.org/2000/svg">
<path d="M19.7399 17.8101V16.11C19.7399 15.71 19.9499 15.15 20.2099 14.85L21.5699 13.27C22.1599 12.57 22.1599 11.44 21.5699 10.75L20.2099 9.17004C19.9499 8.87004 19.7399 8.30003 19.7399 7.91003V6.20996C19.7399 5.14996 18.8699 4.28002 17.8099 4.28002H16.1099C15.7099 4.28002 15.1499 4.07005 14.8499 3.81005L13.2699 2.44995C12.5699 1.85995 11.4399 1.85995 10.7499 2.44995L9.16989 3.81005M16.1099 19.74C15.7199 19.74 15.1499 19.95 14.8499 20.21L13.2699 21.5699C12.5799 22.1599 11.4499 22.1599 10.7499 21.5699L9.16989 20.21C8.86989 19.95 8.30988 19.74 7.90988 19.74H6.17987C5.11987 19.74 4.24988 18.8701 4.24988 17.8101V16.1C4.24988 15.71 4.03989 15.15 3.78989 14.85L2.43988 13.26C1.85988 12.57 1.85988 11.45 2.43988 10.76L3.78989 9.17004C4.03989 8.87004 4.24988 8.31004 4.24988 7.92004V6.20996C4.24988 5.14996 5.11987 4.28002 6.17987 4.28002" stroke="#1C252E" stroke-width="1.5" stroke-linecap="round" stroke-linejoin="round"/>
<path d="M9.89014 14.82L11.3401 15.94C11.5301 16.13 11.9501 16.22 12.2301 16.22H14.0001C14.5601 16.22 15.1701 15.8 15.3101 15.24L16.4301 11.82C16.6601 11.17 16.2401 10.6 15.5401 10.6H13.6701C13.3901 10.6 13.1601 10.3701 13.2001 10.0401L13.4301 8.54008C13.5201 8.12008 13.2401 7.65005 12.8201 7.51005C12.4501 7.37005 11.9801 7.56 11.7901 7.84L9.87012 10.69" stroke="#1C252E" stroke-width="1.5" stroke-miterlimit="10"/>
<path d="M7.5 14.8199V10.24C7.5 9.57999 7.78 9.34998 8.44 9.34998H8.91C9.56 9.34998 9.85001 9.57999 9.85001 10.24V14.8199C9.85001 15.4699 9.57 15.71 8.91 15.71H8.44C7.78 15.71 7.5 15.4799 7.5 14.8199Z" stroke="#1C252E" stroke-width="1.5" stroke-linecap="round" stroke-linejoin="round"/>
</svg>
