<svg width="24" height="24" viewBox="0 0 24 24" fill="none" xmlns="http://www.w3.org/2000/svg">
<path d="M5.27991 18.65L5.84991 16.18C5.97991 15.6 5.74991 14.79 5.32991 14.37L2.84991 11.89C1.38991 10.43 1.85991 8.95001 3.89991 8.61001M16.0399 7.67001C15.8099 7.48001 15.5999 7.26001 15.4899 7.03001L13.7299 3.51001C12.7699 1.60001 11.2099 1.60001 10.2599 3.51001L8.49991 7.03001C8.37884 7.2772 8.15598 7.5193 7.89679 7.71009" stroke="#1C252E" stroke-width="1.5" stroke-linecap="round" stroke-linejoin="round"/>
<path d="M20.0995 8.60999C22.1395 8.94999 22.6195 10.43 21.1495 11.89L18.6695 14.37C18.2495 14.79 18.0195 15.6 18.1495 16.18L18.8595 19.25C19.4195 21.68 18.1295 22.62 15.9795 21.35L12.9895 19.58C12.4495 19.26 11.5595 19.26 11.0095 19.58L8.01953 21.35" stroke="#1C252E" stroke-width="1.5" stroke-linecap="round" stroke-linejoin="round"/>
<path d="M22 2L2 22" stroke="#1C252E" stroke-width="1.5" stroke-linecap="round" stroke-linejoin="round"/>
</svg>
