<svg width="24" height="24" viewBox="0 0 24 24" fill="none" xmlns="http://www.w3.org/2000/svg">
<path d="M21.0436 11.9647C21.6475 10.9999 22.0039 9.96505 22.0039 8.74845C22.0039 7.2444 21.4855 5.84213 20.5441 4.79994C19.5674 3.71857 18.213 3.12305 16.7305 3.12305C15.0783 3.12305 13.6351 3.9316 12.5569 5.46124C12.337 5.77319 12.1539 6.08481 12.0039 6.37289C11.8539 6.08481 11.6708 5.77319 11.4509 5.46124C10.3727 3.9316 8.92953 3.12305 7.27734 3.12305C6.8378 3.12305 6.40953 3.17539 5.99902 3.27723M13.0069 20.2464C12.8222 20.461 12.6374 20.6812 12.4529 20.9075C12.3416 21.0441 12.1772 21.123 12.0039 21.123C11.8306 21.123 11.6662 21.0441 11.5549 20.9076C9.87088 18.8414 8.16587 17.2871 6.66158 15.9158C4.05959 13.5439 2.00391 11.67 2.00391 8.74845C2.00391 8.32216 2.04555 7.90405 2.12667 7.5" stroke="#1C252E" stroke-width="1.5" stroke-linecap="round"/>
<path d="M17.74 21C19.5073 21 20.94 19.5673 20.94 17.8C20.94 16.0327 19.5073 14.6 17.74 14.6C15.9727 14.6 14.54 16.0327 14.54 17.8C14.54 19.5673 15.9727 21 17.74 21Z" stroke="#1C252E" stroke-width="1.5" stroke-linecap="round" stroke-linejoin="round"/>
<path d="M21.54 21.6L20.54 20.6" stroke="#1C252E" stroke-width="1.5" stroke-linecap="round" stroke-linejoin="round"/>
</svg>
