<svg width="24" height="24" viewBox="0 0 24 24" fill="none" xmlns="http://www.w3.org/2000/svg">
<path d="M2 9.80005C2 12.8 3.2 14 6.2 14H10C10.05 11.21 11.21 10.05 14 10V6.19995C14 3.19995 12.8 2 9.8 2H6.2C3.2 2 2 3.19995 2 6.19995" stroke="#1C252E" stroke-width="1.5" stroke-linecap="round" stroke-linejoin="round"/>
<path d="M6.96019 5.86996C6.43019 5.50996 5.7302 5.50998 5.2002 5.88998" stroke="#1C252E" stroke-width="1.5" stroke-miterlimit="10" stroke-linecap="round" stroke-linejoin="round"/>
<path d="M10.9602 5.86996C10.4302 5.50996 9.7302 5.50998 9.2002 5.88998" stroke="#1C252E" stroke-width="1.5" stroke-miterlimit="10" stroke-linecap="round" stroke-linejoin="round"/>
<path d="M8.15981 11.42H5.83981C5.53981 11.42 5.2998 11.18 5.2998 10.88C5.2998 9.39 6.50981 8.18005 7.99981 8.18005C8.63981 8.18005 9.2298 8.40002 9.6898 8.77002" stroke="#1C252E" stroke-width="1.5" stroke-miterlimit="10" stroke-linecap="round" stroke-linejoin="round"/>
<path d="M22 14.2C22 11.2 20.8 10 17.8 10H14C11.21 10.05 10.05 11.21 10 14V17.8C10 20.8 11.2 22 14.2 22H17.8C20.8 22 22 20.8 22 17.8" stroke="#1C252E" stroke-width="1.5" stroke-linecap="round" stroke-linejoin="round"/>
<path d="M14.9602 13.62C14.4302 13.98 13.7302 13.98 13.2002 13.6" stroke="#1C252E" stroke-width="1.5" stroke-miterlimit="10" stroke-linecap="round" stroke-linejoin="round"/>
<path d="M18.9602 13.62C18.4302 13.98 17.7302 13.98 17.2002 13.6" stroke="#1C252E" stroke-width="1.5" stroke-miterlimit="10" stroke-linecap="round" stroke-linejoin="round"/>
<path d="M13.8398 16.1801H18.1598C18.4598 16.1801 18.6998 16.42 18.6998 16.72C18.6998 18.21 17.4898 19.42 15.9998 19.42C14.5098 19.42 13.2998 18.21 13.2998 16.72C13.2998 16.42 13.5398 16.1801 13.8398 16.1801Z" stroke="#1C252E" stroke-width="1.5" stroke-miterlimit="10" stroke-linecap="round" stroke-linejoin="round"/>
</svg>
