<svg width="24" height="24" viewBox="0 0 24 24" fill="none" xmlns="http://www.w3.org/2000/svg">
<path d="M22.0004 17.2C22.0004 18.1 21.7504 18.95 21.3004 19.67C20.4704 21.06 18.9504 22 17.2004 22C15.4504 22 13.9204 21.06 13.1004 19.67C12.6604 18.95 12.4004 18.1 12.4004 17.2C12.4004 14.55 14.5504 12.4 17.2004 12.4C19.8504 12.4 22.0004 14.55 22.0004 17.2Z" stroke="#1C252E" stroke-width="1.5" stroke-miterlimit="10" stroke-linecap="round" stroke-linejoin="round"/>
<path d="M15.3301 17.2L16.5101 18.38L19.0701 16.02" stroke="#1C252E" stroke-width="1.5" stroke-linecap="round" stroke-linejoin="round"/>
<path d="M13.2856 19.9944C13.0081 20.3084 12.7303 20.6348 12.4529 20.975C12.3416 21.1116 12.1772 21.1906 12.0039 21.1906C11.8306 21.1906 11.6662 21.1116 11.5549 20.9751C9.87088 18.9089 8.16587 17.3546 6.66158 15.9833C4.05959 13.6114 2.00391 11.7375 2.00391 8.81595C2.00391 8.36588 2.05033 7.92492 2.14062 7.5M20.0549 13.3401C21.2404 11.988 22.0039 10.5966 22.0039 8.81595C22.0039 7.31191 21.4855 5.90964 20.5441 4.86744C19.5674 3.78608 18.213 3.19055 16.7305 3.19055C15.0783 3.19055 13.6351 3.99911 12.5569 5.52874C12.337 5.84069 12.1539 6.15232 12.0039 6.4404C11.8539 6.15232 11.6708 5.84069 11.4509 5.52874C10.3727 3.99911 8.92953 3.19055 7.27734 3.19055C6.83815 3.19055 6.41021 3.24281 6 3.34449" stroke="#1C252E" stroke-width="1.5" stroke-linecap="round"/>
</svg>
