<svg width="24" height="24" viewBox="0 0 24 24" fill="none" xmlns="http://www.w3.org/2000/svg">
<path d="M21.0446 11.9647C21.6485 10.9999 22.0049 9.96505 22.0049 8.74845C22.0049 7.2444 21.4864 5.84213 20.5451 4.79994C19.5684 3.71857 18.214 3.12305 16.7314 3.12305C15.0793 3.12305 13.6361 3.9316 12.5579 5.46124C12.338 5.77319 12.1548 6.08481 12.0049 6.37289C11.8549 6.08481 11.6718 5.77319 11.4519 5.46124C10.3737 3.9316 8.93051 3.12305 7.27832 3.12305C6.83878 3.12305 6.41051 3.17539 6 3.27723M13.0078 20.2464C12.8231 20.461 12.6384 20.6812 12.4539 20.9075C12.3426 21.0441 12.1782 21.123 12.0049 21.123C11.8316 21.123 11.6672 21.0441 11.5559 20.9076C9.87186 18.8414 8.16685 17.2871 6.66256 15.9158C4.06056 13.5439 2.00488 11.67 2.00488 8.74845C2.00488 8.32216 2.04653 7.90405 2.12765 7.5" stroke="#1C252E" stroke-width="1.5" stroke-linecap="round"/>
<path d="M19.21 15.74L15.67 19.2801C15.53 19.4201 15.4 19.68 15.37 19.87L15.18 21.22C15.11 21.71 15.45 22.05 15.94 21.98L17.29 21.79C17.48 21.76 17.75 21.63 17.88 21.49L21.42 17.95C22.03 17.34 22.32 16.63 21.42 15.73C20.53 14.84 19.82 15.13 19.21 15.74Z" stroke="#1C252E" stroke-width="1.5" stroke-miterlimit="10" stroke-linecap="round" stroke-linejoin="round"/>
<path d="M18.7002 16.25C19.0002 17.33 19.8402 18.17 20.9202 18.47" stroke="#1C252E" stroke-width="1.5" stroke-miterlimit="10" stroke-linecap="round" stroke-linejoin="round"/>
</svg>
