<svg width="24" height="24" viewBox="0 0 24 24" fill="none" xmlns="http://www.w3.org/2000/svg">
<path d="M3.89991 8.61C1.85991 8.95 1.38991 10.43 2.84991 11.89L5.32991 14.37C5.74991 14.79 5.97991 15.6 5.84991 16.18L5.13991 19.25C4.57991 21.67 5.87991 22.62 8.01991 21.35L11.0099 19.58C11.5599 19.26 12.4499 19.26 12.9899 19.58L15.9799 21.35C18.1299 22.62 19.4199 21.68 18.8599 19.25L18.1499 16.18C18.0199 15.6 18.2499 14.79 18.6699 14.37L21.1499 11.89C22.6199 10.43 22.1399 8.95 20.0999 8.61L16.9099 8.08C16.3699 7.99 15.7299 7.52 15.4899 7.03L13.7299 3.51C12.7799 1.6 11.2199 1.6 10.2599 3.51L8.49991 7.03C8.39525 7.24369 8.21451 7.45357 8 7.62979" stroke="#1C252E" stroke-width="1.5" stroke-linecap="round" stroke-linejoin="round"/>
</svg>
