<svg width="24" height="24" viewBox="0 0 24 24" fill="none" xmlns="http://www.w3.org/2000/svg">
<path d="M3.4598 4.67689C2.51844 5.71908 2 7.12136 2 8.6254C2 11.5469 4.0552 13.4204 6.65719 15.7923C8.1616 17.1637 9.8668 18.7181 11.551 20.7845C11.6623 20.9211 11.8267 21 12 21C12.1733 21 12.3377 20.9211 12.449 20.7845C14.1332 18.7181 15.8384 17.1637 17.3428 15.7923C19.9448 13.4204 22 11.5469 22 8.6254C22 7.12136 21.4816 5.71908 20.5402 4.67689C19.5635 3.59553 18.2091 3 16.7266 3C15.0744 3 13.6312 3.80855 12.553 5.33819C12.3331 5.65014 12.15 5.96176 12 6.24984C11.85 5.96176 11.6669 5.65014 11.447 5.33819C10.3688 3.80855 8.92563 3 7.27344 3" stroke="#1C252E" stroke-width="1.5" stroke-linecap="round"/>
</svg>
