<svg width="24" height="24" viewBox="0 0 24 24" fill="none" xmlns="http://www.w3.org/2000/svg">
<path d="M15.2592 22C15.1992 22 15.1292 21.99 15.0692 21.97C13.0592 21.4 10.9492 21.4 8.93918 21.97C8.56918 22.07 8.17918 21.86 8.07918 21.49C7.96918 21.12 8.18918 20.73 8.55918 20.63C10.8192 19.99 13.1992 19.99 15.4592 20.63C15.8292 20.74 16.0492 21.12 15.9392 21.49C15.8392 21.8 15.5592 22 15.2592 22Z" fill="#1C252E"/>
<path d="M4.17914 19.08C3.98914 19.08 3.79914 19.01 3.64914 18.86C3.35914 18.57 3.35914 18.09 3.64914 17.8L19.4991 1.94998C19.7891 1.65998 20.2691 1.65998 20.5591 1.94998C20.8491 2.23998 20.8491 2.71998 20.5591 3.00998L4.70914 18.86C4.55914 19.01 4.36914 19.08 4.17914 19.08Z" fill="#1C252E"/>
<path opacity="0.4" d="M16.6307 3.42001L5.4907 14.56C4.5307 13.2 3.9707 11.6 3.9707 10.05C3.9707 7.60001 5.0607 5.31001 6.9707 3.77001C8.8807 2.23001 11.3807 1.66001 13.8307 2.20001C14.8407 2.42001 15.7907 2.84001 16.6307 3.42001Z" fill="#1C252E"/>
<path opacity="0.4" d="M16.1694 16.92V17.62C16.1794 17.88 16.1994 18.38 15.8094 18.78C15.5294 19.06 15.1194 19.21 14.5794 19.21H9.44937C9.03937 19.21 8.51937 19.16 8.16937 18.81C7.83937 18.46 7.84938 18.03 7.85938 17.75V16.92C7.40938 16.62 6.98937 16.28 6.60938 15.9L17.9494 4.56C18.4494 5.09 18.8794 5.7 19.2094 6.36C21.2294 10.42 19.2794 14.83 16.1694 16.92Z" fill="#1C252E"/>
</svg>
