<svg width="24" height="24" viewBox="0 0 24 24" fill="none" xmlns="http://www.w3.org/2000/svg">
<path opacity="0.4" fill-rule="evenodd" clip-rule="evenodd" d="M13.8307 2.20001C16.1607 2.71001 18.1707 4.26001 19.2107 6.36001C21.2307 10.42 19.2807 14.83 16.1807 16.92V17.62C16.1907 17.89 16.2007 18.39 15.8207 18.78C15.5407 19.06 15.1307 19.21 14.5907 19.21H9.4607C9.0507 19.21 8.5307 19.17 8.1807 18.81C7.8407 18.46 7.8507 18.03 7.8607 17.75V16.92C5.5207 15.35 3.9707 12.64 3.9707 10.05C3.9707 7.60001 5.0607 5.31001 6.9807 3.78001C8.8907 2.24001 11.3907 1.66001 13.8307 2.20001Z" fill="#1C252E"/>
<path d="M10 9C10 7.89543 10.8985 7 12.0031 7C13.1043 7 14 7.89269 14 8.99388V9.20543C14 9.99883 13.5517 10.7241 12.8421 11.0789C12.326 11.337 12 11.8645 12 12.4415V12.5M12 14.4375V14.5" stroke="#1C252E" stroke-width="1.5" stroke-linecap="round"/>
<path d="M15.2592 22C15.1992 22 15.1292 21.99 15.0692 21.97C13.0592 21.4 10.9492 21.4 8.93918 21.97C8.56918 22.07 8.17918 21.86 8.07918 21.49C7.96918 21.12 8.18918 20.73 8.55918 20.63C10.8192 19.99 13.1992 19.99 15.4592 20.63C15.8292 20.74 16.0492 21.12 15.9392 21.49C15.8392 21.8 15.5592 22 15.2592 22Z" fill="#1C252E"/>
</svg>
