<svg width="24" height="24" viewBox="0 0 24 24" fill="none" xmlns="http://www.w3.org/2000/svg">
<path opacity="0.4" d="M19.2107 6.36001C18.1707 4.26001 16.1607 2.71001 13.8307 2.20001C11.3907 1.66001 8.8907 2.24001 6.9807 3.78001C5.0607 5.31001 3.9707 7.60001 3.9707 10.05C3.9707 12.64 5.5207 15.35 7.8607 16.92V17.75C7.8507 18.03 7.8407 18.46 8.1807 18.81C8.5307 19.17 9.0507 19.21 9.4607 19.21H14.5907C15.1307 19.21 15.5407 19.06 15.8207 18.78C16.2007 18.39 16.1907 17.89 16.1807 17.62V16.92C19.2807 14.83 21.2307 10.42 19.2107 6.36001Z" fill="#1C252E"/>
<path d="M15.2592 22C15.1992 22 15.1292 21.99 15.0692 21.97C13.0592 21.4 10.9492 21.4 8.93918 21.97C8.56918 22.07 8.17918 21.86 8.07918 21.49C7.96918 21.12 8.18918 20.73 8.55918 20.63C10.8192 19.99 13.1992 19.99 15.4592 20.63C15.8292 20.74 16.0492 21.12 15.9392 21.49C15.8392 21.8 15.5592 22 15.2592 22Z" fill="#1C252E"/>
<path d="M12.0004 13.85C11.8704 13.85 11.7404 13.82 11.6304 13.75C11.2704 13.54 11.1504 13.08 11.3504 12.73L12.2004 11.25H11.3604C10.8604 11.25 10.4504 11.03 10.2304 10.66C10.0104 10.28 10.0304 9.82002 10.2804 9.38002L11.3504 7.52002C11.5604 7.16002 12.0204 7.04002 12.3704 7.24002C12.7304 7.45002 12.8504 7.91002 12.6504 8.26002L11.8004 9.75002H12.6404C13.1404 9.75002 13.5504 9.97002 13.7704 10.34C13.9904 10.72 13.9704 11.18 13.7204 11.62L12.6504 13.48C12.5104 13.72 12.2604 13.85 12.0004 13.85Z" fill="#1C252E"/>
</svg>
