<svg width="24" height="24" viewBox="0 0 24 24" fill="none" xmlns="http://www.w3.org/2000/svg">
<path d="M16 6C16 4.34315 14.6569 3 13 3H11C9.34315 3 8 4.34315 8 6V9.18283M8 9.18283C7.27523 9.23707 6.59609 9.29586 6.03249 9.34793C5.12797 9.43148 4.40615 10.1259 4.29814 11.0278C4.15936 12.1867 4 13.7824 4 15C4 16.2176 4.15936 17.8133 4.29814 18.9722C4.40615 19.8741 5.12797 20.5685 6.03249 20.6521C7.62492 20.7992 10.1396 21 12 21C13.8604 21 16.3751 20.7992 17.9675 20.6521C18.872 20.5685 19.5938 19.8741 19.7019 18.9722C19.8406 17.8133 20 16.2176 20 15C20 13.7824 19.8406 12.1867 19.7019 11.0278C19.5938 10.1259 18.872 9.43148 17.9675 9.34793C17.4039 9.29586 16.7248 9.23707 16 9.18283C14.677 9.08383 13.2019 9 12 9C10.7981 9 9.32301 9.08383 8 9.18283Z" stroke="#1C252E" stroke-width="1.5" stroke-linecap="round"/>
<path d="M12 14V16" stroke="#1C252E" stroke-width="1.5" stroke-linecap="round"/>
</svg>
