<svg width="24" height="24" viewBox="0 0 24 24" fill="none" xmlns="http://www.w3.org/2000/svg">
<path d="M20.5902 10.55V7.12C20.5902 5.89 19.6502 4.53 18.5002 4.1L13.5102 2.23C12.6802 1.92 11.3202 1.92 10.4902 2.23L5.50016 4.11C4.35016 4.54 3.41016 5.9 3.41016 7.12V14.55C3.41016 15.73 4.19016 17.28 5.14016 17.99L9.44016 21.2C10.1402 21.74 11.0702 22 12.0002 22" stroke="#1C252E" stroke-width="1.5" stroke-linecap="round" stroke-linejoin="round"/>
<path d="M16.1145 20.2287C18.3868 20.2287 20.229 18.3866 20.229 16.1143C20.229 13.8421 18.3868 12 16.1145 12C13.8421 12 12 13.8421 12 16.1143C12 18.3866 13.8421 20.2287 16.1145 20.2287Z" stroke="#1C252E" stroke-width="1.5" stroke-linecap="round" stroke-linejoin="round"/>
<path d="M21.0001 21L19.5 19.5" stroke="#1C252E" stroke-width="1.5" stroke-linecap="round" stroke-linejoin="round"/>
</svg>
