<svg width="24" height="24" viewBox="0 0 24 24" fill="none" xmlns="http://www.w3.org/2000/svg">
<path d="M17.75 7.41039C17.75 6.07148 17.2902 5.36417 16.7871 5.08617C16.2836 4.80814 15.4404 4.79557 14.3086 5.50512L11.3887 7.3352L11.373 7.34496C10.9475 7.59765 10.4459 7.75024 9.92969 7.75024H8.5C7.61561 7.75024 7.09001 7.97077 6.78027 8.28051C6.47059 8.59026 6.25 9.11595 6.25 10.0002V14.0002C6.25004 14.8845 6.47056 15.4102 6.78027 15.72C7.09003 16.0296 7.61571 16.2502 8.5 16.2502H9.92969C10.3815 16.2502 10.8218 16.3671 11.21 16.5657L11.373 16.6555L11.3809 16.6594L11.3887 16.6643L14.3086 18.4944C15.4393 19.2033 16.282 19.1895 16.7861 18.9104C17.2905 18.6309 17.75 17.923 17.75 16.5901V7.41039ZM19.25 16.5901C19.25 18.227 18.674 19.5788 17.5137 20.2219C16.4252 20.825 15.0808 20.6616 13.7725 19.9211L13.5117 19.7659L10.5986 17.9397C10.3864 17.8156 10.1505 17.7502 9.92969 17.7502H8.5C7.38445 17.7502 6.40998 17.4707 5.71973 16.7805C5.02951 16.0903 4.75004 15.1158 4.75 14.0002V10.0002C4.75 8.88469 5.02954 7.91022 5.71973 7.21996C6.40999 6.5297 7.38439 6.25024 8.5 6.25024H9.92969C10.1534 6.25024 10.393 6.18224 10.6074 6.05492L13.5117 4.23461L13.7725 4.07934C15.0798 3.33906 16.4237 3.17196 17.5127 3.77367C18.6746 4.41569 19.25 5.76932 19.25 7.41039V16.5901Z" fill="#1C252E"/>
</svg>
