<svg width="24" height="24" viewBox="0 0 24 24" fill="none" xmlns="http://www.w3.org/2000/svg">
<path d="M21.25 13C21.25 11.781 20.986 10.8996 20.5703 10.2764C20.1597 9.66094 19.5618 9.23821 18.7793 8.99707L18.7734 8.99512C18.261 8.83286 17.6697 8.75 17 8.75H7C6.33027 8.75 5.739 8.83286 5.22656 8.99512L5.2207 8.99707C4.43818 9.23821 3.8403 9.66094 3.42969 10.2764C3.01398 10.8996 2.75 11.781 2.75 13V17C2.75 18.607 3.20579 19.6313 3.88574 20.2627C4.57576 20.9034 5.61505 21.25 7 21.25H17C18.385 21.25 19.4242 20.9034 20.1143 20.2627C20.7942 19.6313 21.25 18.607 21.25 17V13ZM22.75 17C22.75 18.8929 22.2057 20.3687 21.1357 21.3623C20.0758 22.3466 18.615 22.75 17 22.75H7C5.38503 22.75 3.92424 22.3466 2.86426 21.3623C1.79429 20.3687 1.25 18.8929 1.25 17V13C1.25 11.5692 1.56092 10.3751 2.18262 9.44336C2.80945 8.50407 3.71207 7.8923 4.7793 7.56348V7.56445C5.46537 7.34792 6.21183 7.25 7 7.25H17C17.7878 7.25 18.5339 7.34812 19.2197 7.56445L19.2207 7.56348C20.2879 7.8923 21.1905 8.50407 21.8174 9.44336C22.4391 10.3751 22.75 11.5692 22.75 13V17Z" fill="#1C252E"/>
<path d="M18.25 7C18.25 6.31421 17.6858 5.75 17 5.75H7C6.31421 5.75 5.75 6.31421 5.75 7V7.3418C6.15233 7.28042 6.56989 7.25 7 7.25H17C17.4301 7.25 17.8477 7.28042 18.25 7.3418V7ZM19.75 8.28027C19.7499 8.51913 19.636 8.74354 19.4434 8.88477C19.2505 9.02602 19.0014 9.0673 18.7734 8.99512C18.261 8.83286 17.6697 8.75 17 8.75H7C6.33027 8.75 5.739 8.83286 5.22656 8.99512C4.99863 9.0673 4.74954 9.02602 4.55664 8.88477C4.36401 8.74354 4.25008 8.51913 4.25 8.28027V7C4.25 5.48579 5.48579 4.25 7 4.25H17C18.5142 4.25 19.75 5.48579 19.75 7V8.28027Z" fill="#1C252E"/>
<path d="M15.25 3.50977C15.2499 3.09417 14.9058 2.75013 14.4902 2.75H9.50977C9.09417 2.75013 8.75013 3.09417 8.75 3.50977V4.25H15.25V3.50977ZM16.75 5C16.75 5.41421 16.4142 5.75 16 5.75H8C7.58579 5.75 7.25 5.41421 7.25 5V3.50977C7.25013 2.26574 8.26574 1.25013 9.50977 1.25H14.4902C15.7343 1.25013 16.7499 2.26574 16.75 3.50977V5Z" fill="#1C252E"/>
<path d="M9.63965 18.1304C9.63965 17.8157 9.38497 17.5602 9.07031 17.5601C8.75551 17.5601 8.5 17.8156 8.5 18.1304C8.50016 18.445 8.75561 18.6997 9.07031 18.6997C9.38487 18.6995 9.63948 18.4449 9.63965 18.1304ZM11.1396 18.1304C11.1395 19.2734 10.2133 20.1995 9.07031 20.1997C7.92718 20.1997 7.00016 19.2735 7 18.1304C7 16.9871 7.92708 16.0601 9.07031 16.0601C10.2134 16.0602 11.1396 16.9872 11.1396 18.1304Z" fill="#1C252E"/>
<path d="M14.4996 17.2499V12.08C14.4996 11.8792 14.4675 11.7756 14.4479 11.7324C14.4325 11.6985 14.4269 11.7033 14.4381 11.7099C14.4354 11.7086 14.4123 11.6977 14.3541 11.6962C14.2851 11.6945 14.1879 11.7064 14.066 11.7412L14.0563 11.7441L11.4069 12.4638H11.4059C11.3032 12.4916 11.2455 12.5378 11.2135 12.5781C11.1838 12.6156 11.1501 12.6807 11.15 12.7998V18.1298C11.15 18.544 10.8142 18.8798 10.4 18.8798C9.98581 18.8798 9.65002 18.544 9.65002 18.1298V12.7998C9.65015 11.8909 10.2271 11.2298 11.0133 11.0165L13.6637 10.2958V10.2968C14.0919 10.176 14.6804 10.113 15.1969 10.416C15.772 10.7533 15.9996 11.381 15.9996 12.08V17.2499C15.9996 17.6642 15.6638 17.9999 15.2496 17.9999C14.8356 17.9997 14.4996 17.664 14.4996 17.2499Z" fill="#1C252E"/>
<path d="M14.4996 17.2505C14.4996 16.9358 14.245 16.6803 13.9303 16.6802C13.6155 16.6802 13.36 16.9357 13.36 17.2505C13.3602 17.5652 13.6156 17.8198 13.9303 17.8198C14.2449 17.8197 14.4995 17.565 14.4996 17.2505ZM15.9996 17.2505C15.9995 18.3935 15.0733 19.3197 13.9303 19.3198C12.7872 19.3198 11.8602 18.3936 11.86 17.2505C11.86 16.1073 12.7871 15.1802 13.9303 15.1802C15.0734 15.1803 15.9996 16.1074 15.9996 17.2505Z" fill="#1C252E"/>
<path d="M15.0533 12.3067C15.4528 12.1982 15.8643 12.4337 15.9732 12.8331C16.082 13.2328 15.8465 13.6452 15.4469 13.754L10.5972 15.0743C10.1976 15.1831 9.78512 14.9466 9.67634 14.5469C9.56778 14.1475 9.80336 13.7359 10.2027 13.627L15.0533 12.3067Z" fill="#1C252E"/>
</svg>
