<svg width="24" height="24" viewBox="0 0 24 24" fill="none" xmlns="http://www.w3.org/2000/svg">
<path d="M5.66895 3.29462C7.24221 2.38572 9.28102 2.58504 11.335 3.7702L17.5146 7.32977C19.5688 8.51505 20.7625 10.1821 20.7627 11.9997C20.7627 13.7039 19.7136 15.2756 17.8896 16.4421L17.5146 16.6696L11.334 20.2292L11.335 20.2302C9.28109 21.4153 7.24218 21.6146 5.66895 20.7057C4.09579 19.7968 3.25004 17.9306 3.25 15.5602V8.44012C3.25 6.06968 4.09575 4.20361 5.66895 3.29462ZM4.75 15.5602C4.75004 17.6097 5.46967 18.8584 6.41895 19.4069C7.36812 19.9554 8.80906 19.9551 10.585 18.9304L16.7656 15.3698C18.5409 14.3452 19.2627 13.0968 19.2627 11.9997C19.2625 10.9711 18.6283 9.80927 17.0859 8.82391L16.7656 8.62958L10.5859 5.07001C8.80999 4.04525 7.36814 4.045 6.41895 4.59344C5.46969 5.14199 4.75 6.39065 4.75 8.44012V15.5602Z" fill="#1C252E"/>
</svg>
