<svg width="24" height="24" viewBox="0 0 24 24" fill="none" xmlns="http://www.w3.org/2000/svg">
<path d="M21.25 9C21.25 6.57397 20.7603 5.0708 19.8447 4.15527C18.9292 3.23974 17.426 2.75 15 2.75H9C6.57397 2.75 5.0708 3.23974 4.15527 4.15527C3.23974 5.0708 2.75 6.57397 2.75 9V15C2.75 17.426 3.23974 18.9292 4.15527 19.8447C5.0708 20.7603 6.57397 21.25 9 21.25H14.0254C13.5333 20.4518 13.25 19.5105 13.25 18.5C13.25 16.8463 14.0085 15.3611 15.2256 14.4014C16.1234 13.6806 17.2657 13.25 18.5 13.25C19.5105 13.25 20.4518 13.5333 21.25 14.0254V9ZM22.75 15C22.75 15.2127 22.7505 15.4691 22.7266 15.7207C22.6977 16.0238 22.4886 16.28 22.1973 16.3682C21.9058 16.4563 21.5894 16.3594 21.3975 16.123C20.7153 15.2829 19.6769 14.75 18.5 14.75C17.617 14.75 16.8015 15.0578 16.1602 15.5742L15.9961 15.7109C15.2258 16.3917 14.75 17.388 14.75 18.5C14.75 19.677 15.2829 20.7153 16.123 21.3975C16.3594 21.5894 16.4562 21.9058 16.3682 22.1973C16.28 22.4886 16.0238 22.6977 15.7207 22.7266C15.4691 22.7505 15.2129 22.75 15 22.75H9C6.42603 22.75 4.4292 22.2397 3.09473 20.9053C1.76026 19.5708 1.25 17.574 1.25 15V9C1.25 6.42603 1.76026 4.4292 3.09473 3.09473C4.4292 1.76026 6.42603 1.25 9 1.25H15C17.574 1.25 19.5708 1.76026 20.9053 3.09473C22.2397 4.4292 22.75 6.42603 22.75 9V15Z" fill="#1C252E"/>
<path d="M21.48 6.35986C21.8942 6.35986 22.23 6.69565 22.23 7.10986C22.23 7.52408 21.8942 7.85986 21.48 7.85986H2.52002C2.10581 7.85986 1.77002 7.52408 1.77002 7.10986C1.77002 6.69565 2.10581 6.35986 2.52002 6.35986H21.48Z" fill="#1C252E"/>
<path d="M7.77002 6.97021V2.10986C7.77002 1.69565 8.10581 1.35986 8.52002 1.35986C8.93423 1.35986 9.27002 1.69565 9.27002 2.10986V6.97021C9.26982 7.38426 8.93411 7.72021 8.52002 7.72021C8.10593 7.72021 7.77022 7.38426 7.77002 6.97021Z" fill="#1C252E"/>
<path d="M14.73 6.52002V2.10986C14.73 1.69565 15.0658 1.35986 15.48 1.35986C15.8942 1.35986 16.23 1.69565 16.23 2.10986V6.52002C16.2299 6.93418 15.8942 7.27002 15.48 7.27002C15.0658 7.27002 14.73 6.93418 14.73 6.52002Z" fill="#1C252E"/>
<path d="M22.25 18.5C22.25 17.5974 21.9326 16.7668 21.4033 16.1299L21.3975 16.123C20.7153 15.2829 19.6769 14.75 18.5 14.75C17.617 14.75 16.8015 15.0578 16.1602 15.5742L15.9961 15.7109C15.2258 16.3917 14.75 17.388 14.75 18.5C14.75 19.6033 15.218 20.5852 15.9688 21.2656L16.123 21.3975L16.1299 21.4033C16.7668 21.9326 17.5975 22.25 18.5 22.25C19.4415 22.25 20.2969 21.8971 20.9707 21.3193C21.7527 20.6211 22.25 19.6207 22.25 18.5ZM23.75 18.5C23.75 20.0789 23.0472 21.4777 21.9697 22.4395L21.96 22.4482C21.0352 23.2458 19.8343 23.75 18.5 23.75C17.2458 23.75 16.0798 23.3088 15.1777 22.5615V22.5625C13.9979 21.6046 13.25 20.143 13.25 18.5C13.25 16.8463 14.0085 15.3611 15.2256 14.4014C16.1234 13.6806 17.2657 13.25 18.5 13.25C20.14 13.25 21.5987 13.9949 22.5566 15.1709L22.6943 15.3428C23.3614 16.2199 23.75 17.3213 23.75 18.5Z" fill="#1C252E"/>
<path d="M18.0304 17.0898C18.0304 16.6756 18.3662 16.3398 18.7804 16.3398C19.1944 16.3401 19.5304 16.6758 19.5304 17.0898V18.7803C19.5303 19.0435 19.3918 19.2874 19.1661 19.4229L17.7658 20.2627C17.4106 20.4758 16.9496 20.361 16.7365 20.0059C16.5234 19.6507 16.6391 19.1897 16.9943 18.9766L18.0304 18.3545V17.0898Z" fill="#1C252E"/>
</svg>
