<svg width="24" height="24" viewBox="0 0 24 24" fill="none" xmlns="http://www.w3.org/2000/svg">
<path d="M14.25 7.56982C14.25 6.2309 13.7902 5.52359 13.2871 5.2456C12.7836 4.96756 11.9404 4.955 10.8086 5.66454L7.88867 7.49462L7.87305 7.50439C7.44747 7.75707 6.94594 7.90966 6.42969 7.90966H5C4.11561 7.90966 3.59001 8.13019 3.28027 8.43993C2.97059 8.74969 2.75 9.27537 2.75 10.1597V14.1597C2.75004 15.0439 2.97056 15.5697 3.28027 15.8794C3.59003 16.1891 4.11571 16.4097 5 16.4097H6.42969C6.88151 16.4097 7.32183 16.5266 7.70996 16.7251L7.87305 16.8149L7.88086 16.8188L7.88867 16.8237L10.8086 18.6538C11.9393 19.3627 12.782 19.3489 13.2861 19.0698C13.7905 18.7904 14.25 18.0824 14.25 16.7495V7.56982ZM15.75 16.7495C15.75 18.3864 15.174 19.7382 14.0137 20.3813C12.9252 20.9844 11.5808 20.8211 10.2725 20.0806L10.0117 19.9253L7.09863 18.0991C6.88642 17.9751 6.65046 17.9097 6.42969 17.9097H5C3.88445 17.9097 2.90998 17.6301 2.21973 16.9399C1.52951 16.2497 1.25004 15.2752 1.25 14.1597V10.1597C1.25 9.04411 1.52954 8.06964 2.21973 7.37939C2.90999 6.68913 3.88439 6.40966 5 6.40966H6.42969C6.65343 6.40966 6.893 6.34166 7.10742 6.21435L10.0117 4.39404L10.2725 4.23876C11.5798 3.49849 12.9237 3.33138 14.0127 3.9331C15.1746 4.57511 15.75 5.92874 15.75 7.56982V16.7495Z" fill="#1C252E"/>
<path d="M17.5097 9.62919C17.8026 9.33629 18.2774 9.33629 18.5703 9.62919L22.5302 13.5891C22.8231 13.882 22.8231 14.3568 22.5302 14.6497C22.2373 14.9426 21.7626 14.9426 21.4697 14.6497L17.5097 10.6897C17.2168 10.3968 17.2168 9.92208 17.5097 9.62919Z" fill="#1C252E"/>
<path d="M21.4297 9.66918C21.7226 9.3763 22.1974 9.37631 22.4903 9.66918C22.7832 9.96208 22.7832 10.4368 22.4903 10.7297L18.5303 14.6897C18.2374 14.9826 17.7627 14.9826 17.4698 14.6897C17.1769 14.3968 17.1769 13.922 17.4698 13.6291L21.4297 9.66918Z" fill="#1C252E"/>
</svg>
