<svg width="24" height="24" viewBox="0 0 24 24" fill="none" xmlns="http://www.w3.org/2000/svg">
<path d="M5.25 13V8C5.25 4.27579 8.27579 1.25 12 1.25C15.1632 1.25 17.8049 3.42291 18.5469 6.3457C18.6486 6.747 18.4061 7.15479 18.0049 7.25684C17.6035 7.35873 17.1948 7.11619 17.0928 6.71484C16.5147 4.43763 14.4568 2.75 12 2.75C9.10421 2.75 6.75 5.10421 6.75 8V13C6.75 14.2786 7.20455 15.4493 7.96484 16.3584C8.23061 16.6761 8.18877 17.1493 7.87109 17.415C7.55339 17.6808 7.08023 17.639 6.81445 17.3213C5.83502 16.1504 5.25 14.6411 5.25 13Z" fill="#1C252E"/>
<path d="M17.2501 12.9995V9.98001C17.2501 9.5658 17.5859 9.23001 18.0001 9.23001C18.4143 9.23005 18.7501 9.56582 18.7501 9.98001V12.9995C18.7501 16.7237 15.7243 19.7495 12.0001 19.7495C11.1823 19.7495 10.3825 19.6049 9.65638 19.3326C9.26867 19.187 9.0725 18.7545 9.2179 18.3667C9.36334 17.9789 9.79588 17.7818 10.1837 17.9273C10.7375 18.1349 11.358 18.2495 12.0001 18.2495C14.8959 18.2495 17.2501 15.8953 17.2501 12.9995Z" fill="#1C252E"/>
<path d="M20.2497 13V11C20.2497 10.5859 20.5856 10.2502 20.9997 10.25C21.4139 10.25 21.7497 10.5858 21.7497 11V13C21.7497 18.3842 17.3839 22.75 11.9997 22.75C9.43205 22.7499 7.09107 21.7526 5.34833 20.1289C5.04543 19.8465 5.02892 19.3714 5.31122 19.0684C5.5936 18.7655 6.06876 18.7489 6.37177 19.0312C7.84884 20.4073 9.82774 21.2499 11.9997 21.25C16.5555 21.25 20.2497 17.5558 20.2497 13Z" fill="#1C252E"/>
<path d="M20.9697 2.45972C21.2626 2.16683 21.7373 2.16683 22.0302 2.45972C22.3231 2.75261 22.3231 3.22737 22.0302 3.52027L3.03022 22.5203C2.73732 22.8132 2.26256 22.8132 1.96967 22.5203C1.67678 22.2274 1.67678 21.7526 1.96967 21.4597L20.9697 2.45972Z" fill="#1C252E"/>
<path d="M10.8 5.50024V2.26001C10.8 1.8458 11.1358 1.51001 11.55 1.51001C11.9643 1.51001 12.3 1.8458 12.3 2.26001V5.50024C12.2999 5.91435 11.9642 6.25024 11.55 6.25024C11.1359 6.25024 10.8002 5.91435 10.8 5.50024Z" fill="#1C252E"/>
<path d="M7.75 7.5V3.5C7.75 3.08579 8.08579 2.75 8.5 2.75C8.91421 2.75 9.25 3.08579 9.25 3.5V7.5C9.25 7.91421 8.91421 8.25 8.5 8.25C8.08579 8.25 7.75 7.91421 7.75 7.5Z" fill="#1C252E"/>
</svg>
