<svg width="24" height="24" viewBox="0 0 24 24" fill="none" xmlns="http://www.w3.org/2000/svg">
<path d="M16.5216 6.97595C17.7283 7.03754 18.6633 8.0073 19.2394 9.35486L22.3693 16.6644L22.3702 16.6654C23.6015 19.5503 21.4875 22.7504 18.3497 22.7504H5.58997C2.35353 22.7503 0.239746 19.3343 1.69934 16.4349L3.41907 12.9857L3.42005 12.9828C3.96611 11.8967 4.84314 11.1711 5.89466 11.058C6.88219 10.9518 7.83119 11.4067 8.57141 12.2494L8.71692 12.4232L8.71985 12.4261V12.4271L8.93567 12.7015L9.12512 12.9174C9.57 13.3753 10.0233 13.5179 10.3878 13.4877C10.804 13.4531 11.2947 13.1769 11.6837 12.476L13.5743 9.0658C14.286 7.78375 15.3153 6.9146 16.5216 6.97595ZM16.4454 8.474C16.0845 8.45565 15.484 8.71674 14.8859 9.79431L14.8849 9.79334L12.9962 13.2035C12.4252 14.2325 11.5406 14.8974 10.5118 14.9828C9.48354 15.0681 8.5012 14.5586 7.76477 13.6381L7.75989 13.6332L7.54309 13.3568C7.01225 12.6903 6.4664 12.5049 6.05481 12.5492C5.64162 12.5938 5.14367 12.8932 4.75989 13.6566L3.04114 17.1049L3.04016 17.1078C2.08222 19.0078 3.46741 21.2503 5.58997 21.2504H18.3497C20.4117 21.2504 21.7985 19.1501 20.9904 17.2552L17.8605 9.94568V9.9447C17.3765 8.81252 16.8061 8.49241 16.4454 8.474Z" fill="#1C252E"/>
<path d="M9.21997 5C9.21997 3.75736 8.21261 2.75 6.96997 2.75C5.72733 2.75 4.71997 3.75736 4.71997 5C4.71997 6.24264 5.72733 7.25 6.96997 7.25C8.21261 7.25 9.21997 6.24264 9.21997 5ZM10.72 5C10.72 7.07107 9.04104 8.75 6.96997 8.75C4.8989 8.75 3.21997 7.07107 3.21997 5C3.21997 2.92893 4.8989 1.25 6.96997 1.25C9.04104 1.25 10.72 2.92893 10.72 5Z" fill="#1C252E"/>
</svg>
