<svg width="24" height="24" viewBox="0 0 24 24" fill="none" xmlns="http://www.w3.org/2000/svg">
<path d="M21.0137 5.28027C21.4277 5.28229 21.7616 5.61913 21.7598 6.0332C21.7579 6.44737 21.421 6.78203 21.0068 6.78027L16.457 6.75977H16.4522C15.8415 6.75306 15.2627 7.04264 14.8945 7.52637L14.8242 7.62598L8.4336 17.2061C7.79221 18.1679 6.70635 18.7402 5.54981 18.7402H5.54688L2.99708 18.7295C2.58287 18.7279 2.24838 18.3908 2.25001 17.9766C2.25184 17.5625 2.58886 17.2279 3.00294 17.2295L5.54981 17.2393C6.21303 17.2393 6.82689 16.9118 7.18555 16.374H7.18653L13.5762 6.79395C14.213 5.83881 15.2957 5.25009 16.4619 5.26074L16.4629 5.25977L21.0137 5.28027Z" fill="#1C252E"/>
<path d="M20.4697 17.4497C20.7626 17.1568 21.2373 17.1568 21.5302 17.4497C21.8231 17.7425 21.8231 18.2173 21.5302 18.5102L19.5302 20.5102C19.2373 20.8031 18.7626 20.8031 18.4697 20.5102C18.1768 20.2173 18.1768 19.7425 18.4697 19.4497L20.4697 17.4497Z" fill="#1C252E"/>
<path d="M5.60743 5.25098C6.72298 5.24014 7.76863 5.77846 8.41797 6.68164L9.49903 8.18164C9.74104 8.51777 9.66422 8.98647 9.32813 9.22852C8.99201 9.47053 8.5233 9.39468 8.28125 9.05859L7.20118 7.55859V7.55762C6.83163 7.04315 6.23986 6.74285 5.61817 6.75H5.61329L3.00293 6.75977C2.58872 6.76135 2.25159 6.42691 2.25 6.0127C2.24861 5.59867 2.58301 5.26138 2.99707 5.25977L5.60157 5.25098V5.25L5.60254 5.25098L5.60743 5.25V5.25098Z" fill="#1C252E"/>
<path d="M12.51 14.7882C12.8371 14.5341 13.3076 14.5931 13.5618 14.9201L14.7825 16.4894L14.7835 16.4914C15.1497 16.9653 15.7291 17.2489 16.3391 17.2492L21.0071 17.2296C21.4211 17.228 21.7582 17.5626 21.76 17.9767C21.7618 18.3909 21.4272 18.7279 21.013 18.7296L16.343 18.7502H16.3401C15.2709 18.7502 14.2516 18.2545 13.5979 17.4093V17.4103L12.3782 15.84C12.1241 15.5129 12.183 15.0424 12.51 14.7882Z" fill="#1C252E"/>
<path d="M18.4697 3.48969C18.7626 3.1968 19.2373 3.1968 19.5302 3.48969L21.5302 5.48969C21.8231 5.78258 21.8231 6.25734 21.5302 6.55024C21.2373 6.84313 20.7626 6.84313 20.4697 6.55024L18.4697 4.55024C18.1768 4.25734 18.1768 3.78258 18.4697 3.48969Z" fill="#1C252E"/>
</svg>
