<svg width="24" height="24" viewBox="0 0 24 24" fill="none" xmlns="http://www.w3.org/2000/svg">
<path d="M1.25 8.34037C1.25 6.26646 3.50112 4.96177 5.30273 6.02006L5.30371 6.01908L8.47363 7.83939L8.47461 7.84037L11.6445 9.67045L11.6562 9.67631V9.67728C11.9113 9.83034 12.1441 10.0141 12.3418 10.2574C12.4504 10.391 12.5098 10.5578 12.5098 10.73V13.2896C12.5098 13.4618 12.4504 13.6295 12.3418 13.7632C12.1441 14.0064 11.9112 14.1903 11.6562 14.3433L11.6445 14.3492L8.47461 16.1792L8.47363 16.1802L5.30371 18.0005L5.30273 17.9995C3.50403 19.0358 1.25 17.7376 1.25 15.6597V8.34037ZM2.75 15.6597C2.75 16.5813 3.75462 17.1629 4.55566 16.7007L4.55664 16.6997L7.72656 14.8794L10.8848 13.0562C10.9326 13.0275 10.9734 12.999 11.0098 12.9722V11.0474C10.9733 11.0205 10.9319 10.9923 10.8838 10.9634V10.9624L7.72461 9.1392V9.13822L4.55664 7.32084L4.54785 7.31498C3.75099 6.84307 2.75 7.41779 2.75 8.34037V15.6597Z" fill="#1C252E"/>
<path d="M11.01 8.34049C11.01 6.2663 13.262 4.96111 15.0637 6.02018L18.2336 7.83951L18.2346 7.84049L21.4045 9.67057L21.4084 9.67252C23.2004 10.7202 23.2081 13.3087 21.4045 14.3493L18.2346 16.1794L18.2336 16.1803L15.0637 18.0006L15.0627 17.9997C13.264 19.0359 11.01 17.7377 11.01 15.6598V8.34049ZM12.51 15.6598C12.51 16.5814 13.5146 17.163 14.3157 16.7008L14.3167 16.6999L17.4866 14.8796L20.6555 13.0504C21.4507 12.5915 21.4594 11.4428 20.6545 10.9694L17.4846 9.13932V9.13834L14.3167 7.32096L14.3079 7.3151C13.511 6.84319 12.51 7.41791 12.51 8.34049V15.6598Z" fill="#1C252E"/>
</svg>
