<svg width="24" height="24" viewBox="0 0 24 24" fill="none" xmlns="http://www.w3.org/2000/svg">
<path d="M21.25 12C21.25 6.89421 17.1058 2.75 12 2.75C6.89421 2.75 2.75 6.89421 2.75 12C2.75 17.1058 6.89421 21.25 12 21.25C12.9169 21.25 13.8013 21.1136 14.6348 20.8623C14.3865 20.2882 14.25 19.6564 14.25 19C14.25 17.5062 14.9384 16.1627 16.0322 15.2939L16.1885 15.1748C16.9783 14.5958 17.9515 14.25 19 14.25C19.6605 14.25 20.292 14.3921 20.8662 14.6396C21.117 13.8042 21.25 12.9167 21.25 12ZM22.75 12C22.75 13.4056 22.482 14.7623 21.9746 16.0039C21.8886 16.2143 21.7111 16.3738 21.4932 16.4385C21.2754 16.5031 21.0403 16.4661 20.8535 16.3369C20.3209 15.9682 19.678 15.75 19 15.75C18.2385 15.75 17.5319 16.0172 16.9678 16.4668L16.9658 16.4678C16.2208 17.0591 15.75 17.9747 15.75 19C15.75 19.5333 15.8801 20.0396 16.1123 20.4814L16.2188 20.666L16.2314 20.6875C16.2448 20.7109 16.2663 20.7432 16.2998 20.7822C16.4564 20.9651 16.5155 21.2122 16.459 21.4463C16.4024 21.6804 16.2366 21.8727 16.0137 21.9639C14.7754 22.47 13.4192 22.75 12 22.75C6.06579 22.75 1.25 17.9342 1.25 12C1.25 6.06579 6.06579 1.25 12 1.25C17.9342 1.25 22.75 6.06579 22.75 12Z" fill="#1C252E"/>
<path d="M9.79993 8.20855C10.6026 7.74296 11.5797 7.87925 12.465 8.39019L12.464 8.39116L13.6642 9.07964L14.8634 9.77007H14.8654C15.7498 10.2806 16.3575 11.0576 16.3575 11.9849C16.3575 12.9123 15.7498 13.6892 14.8654 14.1998L14.8634 14.2007L12.464 15.5806L12.463 15.5796C11.58 16.0888 10.6043 16.2302 9.8009 15.7662C8.99693 15.3018 8.63 14.3842 8.63 13.3599V10.6099C8.63006 9.58908 8.99816 8.6737 9.79993 8.20855ZM10.13 13.3599C10.13 14.0653 10.3724 14.3641 10.5509 14.4673C10.7295 14.5705 11.1084 14.6308 11.715 14.2808L11.7159 14.2798L14.1163 12.9C14.7207 12.5507 14.8575 12.1923 14.8575 11.9849C14.8575 11.7774 14.7203 11.4191 14.1154 11.0699L11.7159 9.68999C11.1115 9.34113 10.7326 9.40219 10.5529 9.5064C10.3722 9.61121 10.1301 9.91099 10.13 10.6099V13.3599Z" fill="#1C252E"/>
<path d="M22.25 19C22.25 17.2042 20.7958 15.75 19 15.75C18.2385 15.75 17.5319 16.0172 16.9678 16.4668L16.9658 16.4678C16.2208 17.0591 15.75 17.9747 15.75 19C15.75 19.5333 15.8801 20.0396 16.1123 20.4814L16.2188 20.666L16.2246 20.6768L16.335 20.8496C16.9137 21.6944 17.8883 22.25 19 22.25C19.8226 22.25 20.5641 21.9497 21.1279 21.4424C21.1344 21.4365 21.1418 21.4314 21.1484 21.4258C21.3914 21.222 21.6055 20.9679 21.7725 20.6816L21.7812 20.666C22.0791 20.183 22.25 19.6094 22.25 19ZM23.75 19C23.75 19.8906 23.5007 20.7371 23.0586 21.4541L23.0576 21.4531C22.8104 21.8728 22.4949 22.2474 22.1309 22.5566C21.2947 23.3092 20.1973 23.75 19 23.75C17.2702 23.75 15.7639 22.8264 14.9424 21.4531C14.5003 20.7361 14.25 19.8906 14.25 19C14.25 17.5062 14.9384 16.1627 16.0322 15.2939L16.1885 15.1748C16.9783 14.5958 17.9515 14.25 19 14.25C21.6242 14.25 23.75 16.3758 23.75 19Z" fill="#1C252E"/>
<path d="M20.4905 18.23C20.9045 18.2302 21.2405 18.5659 21.2405 18.98C21.2405 19.394 20.9045 19.7297 20.4905 19.73H17.51C17.0958 19.73 16.76 19.3942 16.76 18.98C16.76 18.5658 17.0958 18.23 17.51 18.23H20.4905Z" fill="#1C252E"/>
<path d="M18.25 20.5103V17.52C18.25 17.1058 18.5858 16.77 19 16.77C19.4142 16.77 19.75 17.1058 19.75 17.52V20.5103C19.7499 20.9244 19.4141 21.2603 19 21.2603C18.5859 21.2603 18.2501 20.9244 18.25 20.5103Z" fill="#1C252E"/>
</svg>
