<svg width="24" height="24" viewBox="0 0 24 24" fill="none" xmlns="http://www.w3.org/2000/svg">
<path d="M15.2103 14.6504C15.2103 14.2178 14.859 13.8702 14.43 13.8701H12.14C11.899 13.8701 11.6726 13.7539 11.5316 13.5586C11.3908 13.3633 11.3522 13.1123 11.428 12.8838L12.1878 10.5938L12.2347 10.4834C12.3622 10.2385 12.6171 10.0802 12.8997 10.0801H15.9603C16.3743 10.0802 16.7103 10.416 16.7103 10.8301C16.7103 11.2442 16.3743 11.5799 15.9603 11.5801H13.4407L13.179 12.3701H14.43C15.681 12.3702 16.7103 13.383 16.7103 14.6504C16.7101 15.9013 15.6972 16.9297 14.43 16.9297H12.14C11.7257 16.9297 11.39 16.5939 11.39 16.1797C11.3902 15.7656 11.7259 15.4297 12.14 15.4297H14.43C14.8625 15.4297 15.2101 15.0792 15.2103 14.6504Z" fill="#1C252E"/>
<path d="M8.78997 16.1698V12.786L8.59758 13.0008C8.32079 13.309 7.84714 13.3343 7.53899 13.0575C7.23092 12.7807 7.20559 12.307 7.48235 11.9989L8.98235 10.329C9.18995 10.0979 9.51844 10.0186 9.80852 10.1297C10.0985 10.241 10.29 10.5193 10.29 10.8299V16.1698C10.29 16.584 9.95418 16.9198 9.53997 16.9198C9.12575 16.9198 8.78997 16.584 8.78997 16.1698Z" fill="#1C252E"/>
<path d="M11.4145 1.53149C11.6736 1.2083 12.146 1.1562 12.4692 1.41528C12.7921 1.6743 12.8442 2.14587 12.5854 2.46899L10.605 4.93969C10.3458 5.26258 9.87433 5.31391 9.55126 5.05493C9.22808 4.79585 9.17598 4.3244 9.43505 4.00122L11.4145 1.53149Z" fill="#1C252E"/>
<path d="M2.35999 13.1094C2.36007 10.933 3.11179 8.94747 4.31018 7.34961C4.55875 7.0184 5.02868 6.95171 5.35999 7.2002C5.69115 7.44876 5.75882 7.91871 5.51038 8.25C4.4889 9.61196 3.86007 11.286 3.85999 13.1094C3.85999 17.605 7.50402 21.2498 11.9996 21.25C16.4954 21.25 20.1403 17.6052 20.1403 13.1094C20.1401 8.61376 16.4953 4.96973 11.9996 4.96973C11.3864 4.96976 10.7843 5.05139 10.191 5.19043C9.78783 5.28481 9.38418 5.03407 9.28967 4.63086C9.19521 4.2276 9.44599 3.82401 9.84924 3.72949C10.5357 3.56864 11.2533 3.46976 11.9996 3.46973C17.3237 3.46973 21.6401 7.78533 21.6403 13.1094C21.6403 18.4336 17.3238 22.75 11.9996 22.75C6.67559 22.7498 2.35999 18.4335 2.35999 13.1094Z" fill="#1C252E"/>
</svg>
