<svg width="24" height="24" viewBox="0 0 24 24" fill="none" xmlns="http://www.w3.org/2000/svg">
<path d="M21.25 10V9C21.25 6.57397 20.7603 5.0708 19.8447 4.15527C18.9292 3.23974 17.426 2.75 15 2.75H9C6.57397 2.75 5.0708 3.23974 4.15527 4.15527C3.23974 5.0708 2.75 6.57397 2.75 9V15C2.75 17.426 3.23974 18.9292 4.15527 19.8447C5.0708 20.7603 6.57397 21.25 9 21.25H11C11.4142 21.25 11.75 21.5858 11.75 22C11.75 22.4142 11.4142 22.75 11 22.75H9C6.42603 22.75 4.4292 22.2397 3.09473 20.9053C1.76026 19.5708 1.25 17.574 1.25 15V9C1.25 6.42603 1.76026 4.4292 3.09473 3.09473C4.4292 1.76026 6.42603 1.25 9 1.25H15C17.574 1.25 19.5708 1.76026 20.9053 3.09473C22.2397 4.4292 22.75 6.42603 22.75 9V10C22.75 10.4142 22.4142 10.75 22 10.75C21.5858 10.75 21.25 10.4142 21.25 10Z" fill="#1C252E"/>
<path d="M16.76 20C16.76 19.3096 16.2004 18.75 15.51 18.75C14.8197 18.75 14.26 19.3096 14.26 20C14.26 20.6904 14.8197 21.25 15.51 21.25C16.2004 21.25 16.76 20.6904 16.76 20ZM18.26 20C18.26 21.5188 17.0288 22.75 15.51 22.75C13.9912 22.75 12.76 21.5188 12.76 20C12.76 18.4812 13.9912 17.25 15.51 17.25C17.0288 17.25 18.26 18.4812 18.26 20Z" fill="#1C252E"/>
<path d="M16.76 20V13.0098C16.76 12.5956 17.0958 12.2598 17.51 12.2598C17.9242 12.2598 18.26 12.5956 18.26 13.0098V20C18.2599 20.4141 17.9241 20.75 17.51 20.75C17.0959 20.75 16.7601 20.4141 16.76 20Z" fill="#1C252E"/>
<path d="M16.76 13.6098V13.0199C16.76 12.4404 16.9886 11.8954 17.4563 11.558C17.8653 11.2631 18.3665 11.1925 18.8508 11.3012L19.0569 11.3578L19.0579 11.3588L21.2678 12.099L21.2708 12.1C21.7089 12.2488 22.0716 12.5532 22.3215 12.8988C22.5717 13.2448 22.7502 13.6879 22.7502 14.1596V14.7494C22.7502 15.3266 22.5198 15.8694 22.0559 16.2064C21.591 16.5441 21.0023 16.5948 20.4524 16.4115L20.4514 16.4105L18.2415 15.6713L18.2385 15.6703C17.8004 15.5215 17.4386 15.2161 17.1887 14.8705C16.9385 14.5245 16.76 14.0815 16.76 13.6098ZM18.26 13.6098C18.26 13.708 18.3014 13.8502 18.4036 13.9916C18.506 14.1333 18.6292 14.2182 18.7209 14.2494L20.928 14.9887H20.927C21.0971 15.0454 21.164 14.9999 21.1741 14.9926C21.1853 14.9844 21.2502 14.9317 21.2502 14.7494V14.1596C21.2502 14.0613 21.2079 13.9191 21.1057 13.7777C21.0034 13.6363 20.881 13.5512 20.7893 13.5199V13.5189L18.5833 12.7807V12.7816C18.4087 12.7234 18.3408 12.7693 18.3333 12.7748C18.3241 12.7815 18.26 12.8331 18.26 13.0199V13.6098Z" fill="#1C252E"/>
</svg>
