<svg width="24" height="24" viewBox="0 0 24 24" fill="none" xmlns="http://www.w3.org/2000/svg">
<path d="M5.25 14.1499V9.85986C5.25 9.44565 5.58579 9.10986 6 9.10986C6.41421 9.10986 6.75 9.44565 6.75 9.85986V14.1499C6.75 14.5641 6.41421 14.8999 6 14.8999C5.58579 14.8999 5.25 14.5641 5.25 14.1499Z" fill="#1C252E"/>
<path d="M8.25 15.5698V8.43018C8.25 8.01596 8.58579 7.68018 9 7.68018C9.41421 7.68018 9.75 8.01596 9.75 8.43018V15.5698C9.75 15.984 9.41421 16.3198 9 16.3198C8.58579 16.3198 8.25 15.984 8.25 15.5698Z" fill="#1C252E"/>
<path d="M11.25 17V7C11.25 6.58579 11.5858 6.25 12 6.25C12.4142 6.25 12.75 6.58579 12.75 7V17C12.75 17.4142 12.4142 17.75 12 17.75C11.5858 17.75 11.25 17.4142 11.25 17Z" fill="#1C252E"/>
<path d="M14.25 15.5698V8.43018C14.25 8.01596 14.5858 7.68018 15 7.68018C15.4142 7.68018 15.75 8.01596 15.75 8.43018V15.5698C15.75 15.984 15.4142 16.3198 15 16.3198C14.5858 16.3198 14.25 15.984 14.25 15.5698Z" fill="#1C252E"/>
<path d="M17.25 14.1499V9.85986C17.25 9.44565 17.5858 9.10986 18 9.10986C18.4142 9.10986 18.75 9.44565 18.75 9.85986V14.1499C18.75 14.5641 18.4142 14.8999 18 14.8999C17.5858 14.8999 17.25 14.5641 17.25 14.1499Z" fill="#1C252E"/>
<path d="M21.25 9C21.25 6.57397 20.7603 5.0708 19.8447 4.15527C18.9292 3.23974 17.426 2.75 15 2.75H9C6.57397 2.75 5.0708 3.23974 4.15527 4.15527C3.23974 5.0708 2.75 6.57397 2.75 9V15C2.75 17.426 3.23974 18.9292 4.15527 19.8447C5.0708 20.7603 6.57397 21.25 9 21.25H15C17.426 21.25 18.9292 20.7603 19.8447 19.8447C20.7603 18.9292 21.25 17.426 21.25 15V9ZM22.75 15C22.75 17.574 22.2397 19.5708 20.9053 20.9053C19.5708 22.2397 17.574 22.75 15 22.75H9C6.42603 22.75 4.4292 22.2397 3.09473 20.9053C1.76026 19.5708 1.25 17.574 1.25 15V9C1.25 6.42603 1.76026 4.4292 3.09473 3.09473C4.4292 1.76026 6.42603 1.25 9 1.25H15C17.574 1.25 19.5708 1.76026 20.9053 3.09473C22.2397 4.4292 22.75 6.42603 22.75 9V15Z" fill="#1C252E"/>
</svg>
