<svg width="24" height="24" viewBox="0 0 24 24" fill="none" xmlns="http://www.w3.org/2000/svg">
<path d="M17.25 8C17.25 5.10421 14.8958 2.75 12 2.75C9.10421 2.75 6.75 5.10421 6.75 8V13C6.75 15.8958 9.10421 18.25 12 18.25C14.8958 18.25 17.25 15.8958 17.25 13V8ZM18.75 13C18.75 16.7242 15.7242 19.75 12 19.75C8.27579 19.75 5.25 16.7242 5.25 13V8C5.25 4.27579 8.27579 1.25 12 1.25C15.7242 1.25 18.75 4.27579 18.75 8V13Z" fill="#1C252E"/>
<path d="M2.25 13V11C2.25 10.5858 2.58579 10.25 3 10.25C3.41421 10.25 3.75 10.5858 3.75 11V13C3.75 17.5558 7.44421 21.25 12 21.25C16.5558 21.25 20.25 17.5558 20.25 13V11C20.25 10.5858 20.5858 10.25 21 10.25C21.4142 10.25 21.75 10.5858 21.75 11V13C21.75 18.3842 17.3842 22.75 12 22.75C6.61579 22.75 2.25 18.3842 2.25 13Z" fill="#1C252E"/>
<path d="M8.8532 6.7757C10.7992 6.06518 12.9209 6.06518 14.8669 6.7757C15.256 6.91778 15.4562 7.34853 15.3141 7.73762C15.172 8.12624 14.742 8.32656 14.3532 8.18488C12.7393 7.59555 10.9807 7.59555 9.36687 8.18488C8.97806 8.32656 8.54812 8.12624 8.40593 7.73762C8.26385 7.34853 8.46411 6.91778 8.8532 6.7757Z" fill="#1C252E"/>
<path d="M9.83078 9.75692C11.1609 9.39113 12.569 9.39113 13.8991 9.75692C14.2983 9.86685 14.5332 10.2796 14.4236 10.6788C14.3137 11.0782 13.9001 11.313 13.5007 11.2032C12.4311 10.9091 11.2988 10.9091 10.2292 11.2032C9.82983 11.313 9.4162 11.0782 9.30637 10.6788C9.1967 10.2796 9.43167 9.86688 9.83078 9.75692Z" fill="#1C252E"/>
</svg>
