<svg width="24" height="24" viewBox="0 0 24 24" fill="none" xmlns="http://www.w3.org/2000/svg">
<path d="M21.25 12C21.25 10.393 20.7942 9.36869 20.1143 8.7373C19.4242 8.09664 18.385 7.75 17 7.75H7C5.61505 7.75 4.57576 8.09664 3.88574 8.7373C3.20579 9.36869 2.75 10.393 2.75 12V17C2.75 18.607 3.20579 19.6313 3.88574 20.2627C4.57576 20.9034 5.61505 21.25 7 21.25H17C18.385 21.25 19.4242 20.9034 20.1143 20.2627C20.7942 19.6313 21.25 18.607 21.25 17V12ZM22.75 17C22.75 18.8929 22.2057 20.3687 21.1357 21.3623C20.0758 22.3466 18.615 22.75 17 22.75H7C5.38503 22.75 3.92424 22.3466 2.86426 21.3623C1.79429 20.3687 1.25 18.8929 1.25 17V12C1.25 10.1071 1.79429 8.63131 2.86426 7.6377C3.92424 6.65342 5.38503 6.25 7 6.25H17C18.615 6.25 20.0758 6.65342 21.1357 7.6377C22.2057 8.63131 22.75 10.1071 22.75 12V17Z" fill="#1C252E"/>
<path d="M18 3.75C18.4142 3.75 18.75 4.08579 18.75 4.5C18.75 4.91421 18.4142 5.25 18 5.25H6C5.58579 5.25 5.25 4.91421 5.25 4.5C5.25 4.08579 5.58579 3.75 6 3.75H18Z" fill="#1C252E"/>
<path d="M15 1.25C15.4142 1.25 15.75 1.58579 15.75 2C15.75 2.41421 15.4142 2.75 15 2.75H9C8.58579 2.75 8.25 2.41421 8.25 2C8.25 1.58579 8.58579 1.25 9 1.25H15Z" fill="#1C252E"/>
<path d="M9.51025 17.7402C9.51025 17.3979 9.2325 17.1202 8.89014 17.1201C8.54772 17.1201 8.27002 17.3978 8.27002 17.7402C8.27009 18.0826 8.54776 18.3604 8.89014 18.3604C9.23246 18.3603 9.51019 18.0826 9.51025 17.7402ZM11.0103 17.7402C11.0102 18.911 10.0609 19.8603 8.89014 19.8604C7.71933 19.8604 6.77009 18.911 6.77002 17.7402C6.77002 16.5694 7.71929 15.6201 8.89014 15.6201C10.0609 15.6202 11.0103 16.5694 11.0103 17.7402Z" fill="#1C252E"/>
<path d="M14.5305 16.8303V11.4797C14.5305 11.2687 14.4969 11.1573 14.4749 11.1086C14.4646 11.0861 14.4567 11.077 14.4553 11.0754C14.4549 11.0751 14.4274 11.0589 14.3518 11.0568C14.2751 11.0548 14.1697 11.0677 14.0383 11.1037L11.301 11.8518L11.302 11.8527C11.1844 11.8857 11.1172 11.938 11.0803 11.9846C11.0461 12.0279 11.0101 12.1003 11.01 12.2297V17.7404C11.0099 18.1545 10.6741 18.4904 10.26 18.4904C9.84589 18.4904 9.51016 18.1545 9.51001 17.7404V12.2297C9.5102 11.2978 10.0997 10.6319 10.8977 10.4084L10.9016 10.4064L13.6418 9.65644C14.0801 9.53639 14.6852 9.47106 15.2131 9.78047C15.798 10.1233 16.0304 10.7623 16.0305 11.4797V16.8303C16.0305 17.2443 15.6945 17.58 15.2805 17.5803C14.8663 17.5803 14.5306 17.2444 14.5305 16.8303Z" fill="#1C252E"/>
<path d="M14.5303 16.8301C14.5303 16.4877 14.2526 16.21 13.9102 16.21C13.5677 16.21 13.29 16.4877 13.29 16.8301C13.2901 17.1724 13.5678 17.4502 13.9102 17.4502C14.2525 17.4501 14.5302 17.1724 14.5303 16.8301ZM16.0303 16.8301C16.0302 18.0009 15.0809 18.9501 13.9102 18.9502C12.7394 18.9502 11.7901 18.0009 11.79 16.8301C11.79 15.6592 12.7393 14.71 13.9102 14.71C15.0809 14.71 16.0303 15.6592 16.0303 16.8301Z" fill="#1C252E"/>
<path d="M15.0823 11.7361C15.4819 11.627 15.8941 11.8629 16.0032 12.2625C16.1121 12.662 15.8772 13.0742 15.4778 13.1834L10.4573 14.5535C10.0577 14.6624 9.6454 14.4266 9.53637 14.0271C9.42738 13.6275 9.66317 13.2153 10.0627 13.1062L15.0823 11.7361Z" fill="#1C252E"/>
</svg>
