<svg width="24" height="24" viewBox="0 0 24 24" fill="none" xmlns="http://www.w3.org/2000/svg">
<path d="M15.25 6C15.25 4.20421 13.7958 2.75 12 2.75C10.2042 2.75 8.75 4.20421 8.75 6V11.5C8.75 13.2958 10.2042 14.75 12 14.75C13.7958 14.75 15.25 13.2958 15.25 11.5V6ZM16.75 11.5C16.75 14.1242 14.6242 16.25 12 16.25C9.37579 16.25 7.25 14.1242 7.25 11.5V6C7.25 3.37579 9.37579 1.25 12 1.25C14.6242 1.25 16.75 3.37579 16.75 6V11.5Z" fill="#1C252E"/>
<path d="M3.59998 11.3502V9.64999C3.59998 9.23578 3.93576 8.89999 4.34998 8.89999C4.76419 8.89999 5.09998 9.23578 5.09998 9.64999V11.3502C5.10008 15.1559 8.19464 18.2496 12.0004 18.2496C15.8059 18.2494 18.8997 15.1558 18.8998 11.3502V9.64999C18.8998 9.23585 19.2357 8.9001 19.6498 8.89999C20.064 8.89999 20.3998 9.23578 20.3998 9.64999V11.3502C20.3997 15.9842 16.6343 19.7494 12.0004 19.7496C7.36622 19.7496 3.60008 15.9843 3.59998 11.3502Z" fill="#1C252E"/>
<path d="M10.3522 5.72547C11.4187 5.33454 12.5816 5.33448 13.6481 5.72547C14.037 5.86807 14.2369 6.29947 14.0943 6.68836C13.9517 7.07721 13.5203 7.27626 13.1315 7.13367C12.3983 6.86496 11.6009 6.86485 10.8678 7.13367C10.479 7.27612 10.0485 7.07709 9.90587 6.68836C9.76328 6.29947 9.96326 5.86807 10.3522 5.72547Z" fill="#1C252E"/>
<path d="M11.0085 7.82489C11.664 7.65176 12.3462 7.65174 13.0017 7.82489C13.4021 7.93076 13.6407 8.34148 13.5349 8.74189C13.429 9.142 13.0191 9.38055 12.6189 9.27509C12.2144 9.16825 11.7958 9.16825 11.3913 9.27509C10.991 9.38078 10.5802 9.14221 10.4744 8.74189C10.3686 8.34141 10.6081 7.93068 11.0085 7.82489Z" fill="#1C252E"/>
<path d="M11.25 22V19C11.25 18.5858 11.5858 18.25 12 18.25C12.4142 18.25 12.75 18.5858 12.75 19V22C12.75 22.4142 12.4142 22.75 12 22.75C11.5858 22.75 11.25 22.4142 11.25 22Z" fill="#1C252E"/>
</svg>
