<svg width="24" height="24" viewBox="0 0 24 24" fill="none" xmlns="http://www.w3.org/2000/svg">
<path d="M11.5312 1.41523C11.8544 1.15625 12.3259 1.20829 12.5849 1.53144L14.5654 4.00117C14.8242 4.32425 14.772 4.7958 14.4492 5.05488C14.126 5.31393 13.6536 5.26275 13.3945 4.93964L11.415 2.46894C11.156 2.14575 11.208 1.67428 11.5312 1.41523Z" fill="#1C252E"/>
<path d="M2.35999 13.1094C2.36018 7.78545 6.67571 3.46992 11.9996 3.46973C12.7462 3.46973 13.4644 3.56858 14.151 3.72949C14.5542 3.824 14.805 4.22762 14.7106 4.63086C14.6161 5.03401 14.2124 5.28468 13.8092 5.19043C13.2158 5.05136 12.613 4.96973 11.9996 4.96973C7.50414 4.96992 3.86018 8.61388 3.85999 13.1094C3.85999 17.605 7.50402 21.2498 11.9996 21.25C16.4954 21.25 20.1403 17.6052 20.1403 13.1094C20.1402 11.2861 19.5113 9.61195 18.4899 8.25C18.2414 7.91865 18.3089 7.44873 18.6403 7.2002C18.9716 6.95168 19.4415 7.01829 19.6901 7.34961C20.8885 8.94746 21.6402 10.933 21.6403 13.1094C21.6403 18.4336 17.3238 22.75 11.9996 22.75C6.67559 22.7498 2.35999 18.4335 2.35999 13.1094Z" fill="#1C252E"/>
<path d="M8.78997 15.9198V12.536L8.59758 12.7508C8.32079 13.059 7.84714 13.0843 7.53899 12.8075C7.23092 12.5307 7.20559 12.057 7.48235 11.7489L8.98235 10.079C9.18995 9.84788 9.51844 9.76859 9.80852 9.87974C10.0985 9.99096 10.29 10.2693 10.29 10.5799V15.9198C10.29 16.334 9.95418 16.6698 9.53997 16.6698C9.12575 16.6698 8.78997 16.334 8.78997 15.9198Z" fill="#1C252E"/>
<path d="M15.25 12.5801C15.25 11.8943 14.6858 11.3301 14 11.3301C13.3118 11.3301 12.75 11.8867 12.75 12.5801V13.9297C12.75 14.6155 13.3142 15.1797 14 15.1797C14.6858 15.1797 15.25 14.6155 15.25 13.9297V12.5801ZM16.75 13.9297C16.75 15.4439 15.5142 16.6797 14 16.6797C12.4858 16.6797 11.25 15.4439 11.25 13.9297V12.5801C11.25 11.0534 12.4882 9.83008 14 9.83008C15.5142 9.83008 16.75 11.0659 16.75 12.5801V13.9297Z" fill="#1C252E"/>
</svg>
