<svg width="24" height="24" viewBox="0 0 24 24" fill="none" xmlns="http://www.w3.org/2000/svg">
<path d="M3.01001 7.22018C3.01001 4.66982 5.76717 3.09386 7.96411 4.35983L12.1145 6.75045H12.1155L16.2639 9.14987C18.4644 10.4184 18.4653 13.5912 16.2649 14.8598L16.2639 14.8589L12.1155 17.2592L12.1145 17.2602L7.96411 19.6499C5.7651 20.9172 3.01035 19.3281 3.01001 16.7905V7.22018ZM4.51001 16.7905C4.51035 18.1721 6.01446 19.042 7.21509 18.3501H7.21606L11.3645 15.9604L15.5149 13.561L15.5159 13.56C16.7148 12.8685 16.7149 11.1411 15.5159 10.4497H15.5149L11.3655 8.04928L7.21606 5.65963H7.21509C6.01217 4.96649 4.51001 5.83086 4.51001 7.22018V16.7905Z" fill="#1C252E"/>
<path d="M19.49 18.1804V5.82007C19.49 5.40585 19.8258 5.07007 20.24 5.07007C20.6542 5.07007 20.99 5.40585 20.99 5.82007V18.1804C20.9898 18.5945 20.6541 18.9304 20.24 18.9304C19.8259 18.9304 19.4902 18.5945 19.49 18.1804Z" fill="#1C252E"/>
</svg>
