<svg width="24" height="24" viewBox="0 0 24 24" fill="none" xmlns="http://www.w3.org/2000/svg">
<path d="M21.25 9C21.25 6.57397 20.7603 5.0708 19.8447 4.15527C18.9292 3.23974 17.426 2.75 15 2.75H9C6.57397 2.75 5.0708 3.23974 4.15527 4.15527C3.23974 5.0708 2.75 6.57397 2.75 9V15C2.75 17.426 3.23974 18.9292 4.15527 19.8447C5.0708 20.7603 6.57397 21.25 9 21.25H15C17.426 21.25 18.9292 20.7603 19.8447 19.8447C20.7603 18.9292 21.25 17.426 21.25 15V9ZM22.75 15C22.75 17.574 22.2397 19.5708 20.9053 20.9053C19.5708 22.2397 17.574 22.75 15 22.75H9C6.42603 22.75 4.4292 22.2397 3.09473 20.9053C1.76026 19.5708 1.25 17.574 1.25 15V9C1.25 6.42603 1.76026 4.4292 3.09473 3.09473C4.4292 1.76026 6.42603 1.25 9 1.25H15C17.574 1.25 19.5708 1.76026 20.9053 3.09473C22.2397 4.4292 22.75 6.42603 22.75 9V15Z" fill="#1C252E"/>
<path d="M9.23962 15.5405C9.23962 15.0878 8.87302 14.7204 8.42029 14.7202C7.96741 14.7202 7.59998 15.0877 7.59998 15.5405C7.60014 15.9933 7.96752 16.3599 8.42029 16.3599C8.87292 16.3597 9.23946 15.9932 9.23962 15.5405ZM10.7396 15.5405C10.7395 16.8216 9.70135 17.8597 8.42029 17.8599C7.13909 17.8599 6.10014 16.8217 6.09998 15.5405C6.09998 14.2592 7.13899 13.2202 8.42029 13.2202C9.70145 13.2204 10.7396 14.2593 10.7396 15.5405Z" fill="#1C252E"/>
<path d="M15 14.4898V8.35015C15 8.09688 14.9593 7.95317 14.9258 7.87945C14.8966 7.81521 14.8712 7.79805 14.8584 7.79058C14.8087 7.76173 14.6402 7.71873 14.2998 7.81304L14.2979 7.81402L11.1621 8.67144C10.8918 8.74741 10.75 8.9212 10.75 9.2105V15.5503C10.75 15.9645 10.4142 16.3003 10 16.3003C9.58581 16.3003 9.25004 15.9645 9.25 15.5503V9.2105C9.25 8.19991 9.88832 7.47215 10.7578 7.22808L10.7617 7.2271L13.9023 6.36675V6.36773C14.3914 6.23259 15.0472 6.1641 15.6143 6.49468C16.2397 6.85938 16.5 7.5463 16.5 8.35015V14.4898C16.5 14.904 16.1642 15.2398 15.75 15.2398C15.3358 15.2398 15 14.904 15 14.4898Z" fill="#1C252E"/>
<path d="M14.9996 14.4907C14.9996 14.038 14.633 13.6706 14.1803 13.6704C13.7274 13.6704 13.36 14.0378 13.36 14.4907C13.3602 14.9435 13.7275 15.3101 14.1803 15.3101C14.6329 15.3099 14.9995 14.9434 14.9996 14.4907ZM16.4996 14.4907C16.4995 15.7718 15.4614 16.8099 14.1803 16.8101C12.8991 16.8101 11.8602 15.7719 11.86 14.4907C11.86 13.2094 12.899 12.1704 14.1803 12.1704C15.4615 12.1706 16.4996 13.2095 16.4996 14.4907Z" fill="#1C252E"/>
<path d="M15.5525 8.7468C15.9521 8.63787 16.3644 8.87358 16.4734 9.27316C16.5823 9.6728 16.3466 10.0851 15.947 10.1941L10.1872 11.7644C9.78771 11.8732 9.37538 11.6374 9.26633 11.238C9.15741 10.8384 9.39312 10.4261 9.79269 10.3171L15.5525 8.7468Z" fill="#1C252E"/>
</svg>
