<svg width="24" height="24" viewBox="0 0 24 24" fill="none" xmlns="http://www.w3.org/2000/svg">
<path d="M20.33 8.5801C20.33 7.72019 19.8742 6.93452 19.1298 6.49709V6.49612L13.1981 3.07131L13.0555 2.99612C12.3337 2.64432 11.4856 2.67054 10.7948 3.06936L4.85925 6.49612C4.11619 6.93292 3.66003 7.72902 3.66003 8.5801V15.4199C3.66003 16.2835 4.11874 17.0757 4.85535 17.501L10.7919 20.9287C11.5425 21.3577 12.4584 21.356 13.1952 20.9307L19.1346 17.501C19.8753 17.0637 20.33 16.2695 20.33 15.4199V8.5801ZM21.83 15.4199C21.83 16.8086 21.0871 18.0936 19.8905 18.7969L19.8846 18.7998L13.9452 22.2295C12.742 22.9242 11.2571 22.9225 10.0477 22.2315L10.0448 22.2295L4.10535 18.7998C2.90195 18.1051 2.16003 16.8164 2.16003 15.4199V8.5801C2.16003 7.19132 2.90372 5.90639 4.10046 5.20315L4.10535 5.20022L10.0448 1.77053C11.173 1.11922 12.5487 1.08017 13.7128 1.64748L13.9423 1.76858L13.9452 1.77053L19.8846 5.20022L19.8905 5.20315C21.086 5.90575 21.83 7.18011 21.83 8.5801V15.4199Z" fill="#1C252E"/>
<path d="M10.0859 8.58434C10.8366 8.1504 11.7399 8.28628 12.5439 8.75134L14.625 9.95055L14.626 9.95153C15.4304 10.4173 15.9971 11.1337 15.9971 12.0004C15.997 12.867 15.4304 13.5834 14.626 14.0492L14.625 14.0502L12.5449 15.2504L12.5439 15.2494C11.7398 15.7145 10.8366 15.8495 10.0859 15.4154C9.33545 14.9814 9.00007 14.1307 9 13.2006V10.8002C9.00002 9.86996 9.33537 9.01841 10.0859 8.58434ZM10.5 13.2006C10.5001 13.8101 10.71 14.0442 10.8369 14.1175C10.9634 14.1906 11.269 14.2553 11.7939 13.9515L11.7949 13.9506L13.875 12.7504C14.3995 12.4464 14.497 12.1486 14.4971 12.0004C14.4971 11.8522 14.3999 11.5535 13.875 11.2494L11.7949 10.0502L11.7939 10.0492C11.2688 9.74526 10.9634 9.81014 10.8369 9.88317C10.71 9.95657 10.5 10.1905 10.5 10.8002V13.2006Z" fill="#1C252E"/>
</svg>
