<svg width="24" height="24" viewBox="0 0 24 24" fill="none" xmlns="http://www.w3.org/2000/svg">
<path d="M21.25 9C21.25 6.57397 20.7603 5.0708 19.8447 4.15527C18.9292 3.23974 17.426 2.75 15 2.75H9C6.57397 2.75 5.0708 3.23974 4.15527 4.15527C3.23974 5.0708 2.75 6.57397 2.75 9V15C2.75 17.426 3.23974 18.9292 4.15527 19.8447C5.0708 20.7603 6.57397 21.25 9 21.25H14.0352C14.0255 21.2342 14.0143 21.219 14.0049 21.2031V21.2021C13.5298 20.4123 13.25 19.4812 13.25 18.5C13.25 17.0799 13.8099 15.7828 14.7334 14.8359C15.6894 13.8567 17.0308 13.25 18.5 13.25C19.5043 13.25 20.4496 13.534 21.25 14.0283V9ZM22.75 15C22.75 15.224 22.7502 15.4787 22.7266 15.7383C22.6976 16.0546 22.4728 16.3181 22.165 16.3965C21.8569 16.4747 21.5329 16.3504 21.3564 16.0859C21.3459 16.0702 21.3274 16.0481 21.3096 16.0303C21.287 16.0077 21.2695 15.9871 21.2568 15.9717L21.2256 15.9326C20.5562 15.2053 19.5797 14.75 18.5 14.75C17.515 14.75 16.6112 15.131 15.9385 15.7559L15.8066 15.8838C15.1502 16.5569 14.75 17.4802 14.75 18.5C14.75 19.1967 14.949 19.8636 15.292 20.4326L15.2949 20.4365C15.4716 20.7337 15.6951 21.0048 15.9453 21.2275C15.9938 21.2644 16.0259 21.2954 16.04 21.3096C16.0594 21.3289 16.0749 21.3414 16.1504 21.4043C16.3826 21.5981 16.4759 21.9122 16.3867 22.2012C16.2973 22.4904 16.0426 22.6978 15.7412 22.7266C15.4891 22.7506 15.2218 22.75 15 22.75H9C6.42603 22.75 4.4292 22.2397 3.09473 20.9053C1.76026 19.5708 1.25 17.574 1.25 15V9C1.25 6.42603 1.76026 4.4292 3.09473 3.09473C4.4292 1.76026 6.42603 1.25 9 1.25H15C17.574 1.25 19.5708 1.76026 20.9053 3.09473C22.2397 4.4292 22.75 6.42603 22.75 9V15Z" fill="#1C252E"/>
<path d="M21.48 6.35986C21.8942 6.35986 22.23 6.69565 22.23 7.10986C22.23 7.52408 21.8942 7.85986 21.48 7.85986H2.52002C2.10581 7.85986 1.77002 7.52408 1.77002 7.10986C1.77002 6.69565 2.10581 6.35986 2.52002 6.35986H21.48Z" fill="#1C252E"/>
<path d="M7.77002 6.97021V2.10986C7.77002 1.69565 8.10581 1.35986 8.52002 1.35986C8.93423 1.35986 9.27002 1.69565 9.27002 2.10986V6.97021C9.26982 7.38426 8.93411 7.72021 8.52002 7.72021C8.10593 7.72021 7.77022 7.38426 7.77002 6.97021Z" fill="#1C252E"/>
<path d="M14.73 6.52002V2.10986C14.73 1.69565 15.0658 1.35986 15.48 1.35986C15.8942 1.35986 16.23 1.69565 16.23 2.10986V6.52002C16.2299 6.93418 15.8942 7.27002 15.48 7.27002C15.0658 7.27002 14.73 6.93418 14.73 6.52002Z" fill="#1C252E"/>
<path d="M22.25 18.5C22.25 17.61 21.9345 16.7885 21.4033 16.1494C21.3865 16.1292 21.371 16.1078 21.3564 16.0859C21.3459 16.0702 21.3274 16.0481 21.3096 16.0303C21.287 16.0077 21.2695 15.9871 21.2568 15.9717L21.2256 15.9326C20.5562 15.2053 19.5797 14.75 18.5 14.75C17.515 14.75 16.6112 15.131 15.9385 15.7559L15.8066 15.8838C15.1502 16.5569 14.75 17.4802 14.75 18.5C14.75 19.1967 14.949 19.8636 15.292 20.4326L15.2949 20.4365C15.4716 20.7337 15.6951 21.0048 15.9453 21.2275C15.9938 21.2644 16.0259 21.2954 16.04 21.3096C16.0548 21.3244 16.0679 21.3341 16.1064 21.3662C16.1254 21.3794 16.1453 21.3913 16.1631 21.4062C16.7904 21.9345 17.6 22.25 18.5 22.25C19.865 22.25 21.0565 21.5185 21.707 20.4346C21.9006 20.1053 22.0505 19.7448 22.1416 19.3721L22.1445 19.3584C22.2158 19.0891 22.25 18.8041 22.25 18.5ZM23.75 18.5C23.75 18.9111 23.7037 19.3215 23.5977 19.7275C23.4692 20.253 23.2611 20.7517 22.9961 21.2012L22.9932 21.2061C22.0836 22.7219 20.4148 23.75 18.5 23.75C17.2401 23.75 16.09 23.3054 15.1973 22.5537L15.6699 21.9912V21.9805L15.1895 22.5557C15.1552 22.5271 15.0994 22.4783 15.0381 22.4219C15.0168 22.4069 14.9962 22.3912 14.9766 22.374C14.5947 22.0399 14.2636 21.6383 14.0049 21.2031V21.2021C13.5298 20.4123 13.25 19.4812 13.25 18.5C13.25 17.0799 13.8099 15.7828 14.7334 14.8359C15.6894 13.8567 17.0308 13.25 18.5 13.25C20.0257 13.25 21.4171 13.9026 22.3672 14.958H22.3662C22.3767 14.9696 22.3863 14.9795 22.3936 14.9883C22.4063 15.0038 22.4165 15.0173 22.4238 15.0273C22.4252 15.0292 22.4265 15.0315 22.4277 15.0332C22.4724 15.0821 22.5159 15.1349 22.5566 15.1904C23.3055 16.0914 23.75 17.2501 23.75 18.5Z" fill="#1C252E"/>
<path d="M20.1804 17.73C20.5945 17.7302 20.9304 18.0659 20.9304 18.48C20.9304 18.8941 20.5945 19.2298 20.1804 19.23H16.8201C16.4059 19.23 16.0701 18.8942 16.0701 18.48C16.0701 18.0658 16.4059 17.73 16.8201 17.73H20.1804Z" fill="#1C252E"/>
<path d="M17.75 20.2002V16.8398C17.75 16.4256 18.0858 16.0898 18.5 16.0898C18.9142 16.0898 19.25 16.4256 19.25 16.8398V20.2002C19.2498 20.6142 18.9141 20.9502 18.5 20.9502C18.0859 20.9502 17.7502 20.6142 17.75 20.2002Z" fill="#1C252E"/>
</svg>
