<svg width="24" height="24" viewBox="0 0 24 24" fill="none" xmlns="http://www.w3.org/2000/svg">
<path d="M1.25 15V9C1.25 6.42603 1.76026 4.4292 3.09473 3.09473C4.4292 1.76026 6.42603 1.25 9 1.25H15C17.2556 1.25 19.0616 1.6376 20.373 2.63281C20.703 2.88322 20.768 3.35364 20.5176 3.68359C20.2672 4.0135 19.7967 4.07755 19.4668 3.82715C18.5382 3.12243 17.1243 2.75 15 2.75H9C6.57397 2.75 5.0708 3.23974 4.15527 4.15527C3.23974 5.0708 2.75 6.57397 2.75 9V15C2.75 17.2377 3.17032 18.6871 3.94629 19.6201C4.21118 19.9386 4.16805 20.4119 3.84961 20.6768C3.53119 20.9415 3.05784 20.8984 2.79297 20.5801C1.68909 19.2531 1.25 17.3821 1.25 15Z" fill="#1C252E"/>
<path d="M21.251 14.9998V8.99978C21.251 8.66388 21.2416 8.33966 21.2226 8.03688C21.1968 7.62358 21.5105 7.26697 21.9238 7.24099C22.3372 7.21515 22.6938 7.52976 22.7197 7.94313C22.7408 8.28018 22.751 8.63588 22.751 8.99978V14.9998C22.751 17.5737 22.2406 19.5706 20.9062 20.905C19.5718 22.2395 17.5749 22.7498 15.001 22.7498H9.00096C8.23618 22.7498 7.51374 22.7087 6.84178 22.6004C6.43297 22.5344 6.15495 22.1498 6.22068 21.741C6.28663 21.3321 6.67121 21.0541 7.08006 21.1199C7.64802 21.2115 8.28583 21.2498 9.00096 21.2498H15.001C17.427 21.2498 18.9302 20.76 19.8457 19.8445C20.7611 18.929 21.251 17.4257 21.251 14.9998Z" fill="#1C252E"/>
<path d="M9.25 8C9.25 7.30964 8.69036 6.75 8 6.75C7.30964 6.75 6.75 7.30964 6.75 8C6.75 8.69036 7.30964 9.25 8 9.25C8.69036 9.25 9.25 8.69036 9.25 8ZM10.75 8C10.75 9.51878 9.51878 10.75 8 10.75C6.48122 10.75 5.25 9.51878 5.25 8C5.25 6.48122 6.48122 5.25 8 5.25C9.51878 5.25 10.75 6.48122 10.75 8Z" fill="#1C252E"/>
<path d="M21.4697 1.46967C21.7626 1.17678 22.2373 1.17678 22.5302 1.46967C22.8231 1.76256 22.8231 2.23732 22.5302 2.53022L2.53022 22.5302C2.23732 22.8231 1.76256 22.8231 1.46967 22.5302C1.17678 22.2373 1.17678 21.7626 1.46967 21.4697L21.4697 1.46967Z" fill="#1C252E"/>
<path d="M17.0195 10.8797C18.0253 9.87389 19.6128 9.81106 20.6913 10.6912L20.9003 10.8797L20.9013 10.8816L22.5312 12.5213C22.8232 12.8151 22.822 13.2898 22.5283 13.5818C22.2345 13.8738 21.7597 13.8726 21.4677 13.5789L19.8398 11.9402L19.7451 11.8543C19.2884 11.4814 18.6315 11.4815 18.1747 11.8543L18.08 11.9402L13.0507 16.9803C12.4578 17.5731 11.4922 17.5731 10.8994 16.9803C10.6065 16.6874 10.6065 16.2126 10.8994 15.9197C11.1923 15.6268 11.667 15.6268 11.9599 15.9197C11.9621 15.9219 11.9642 15.923 11.9658 15.9236C11.9678 15.9244 11.9709 15.9246 11.9746 15.9246C11.9786 15.9246 11.9823 15.9245 11.9843 15.9236C11.9858 15.923 11.9871 15.9218 11.9892 15.9197L17.0195 10.8797Z" fill="#1C252E"/>
</svg>
