<svg width="24" height="24" viewBox="0 0 24 24" fill="none" xmlns="http://www.w3.org/2000/svg">
<path d="M21.22 12C21.22 6.89137 17.0786 2.75 11.97 2.75C6.86134 2.75 2.71997 6.89137 2.71997 12C2.71997 17.1086 6.86134 21.25 11.97 21.25C17.0786 21.25 21.22 17.1086 21.22 12ZM22.72 12C22.72 17.9371 17.907 22.75 11.97 22.75C6.03291 22.75 1.21997 17.9371 1.21997 12C1.21997 6.06294 6.03291 1.25 11.97 1.25C17.907 1.25 22.72 6.06294 22.72 12Z" fill="#1C252E"/>
<path d="M15.48 10.73C15.48 9.74426 15.2774 9.25134 15.0112 8.98584C14.7445 8.72007 14.2514 8.52002 13.27 8.52002H10.73C9.74426 8.52002 9.25134 8.72257 8.98584 8.98877C8.72006 9.25545 8.52002 9.74861 8.52002 10.73V13.27C8.52002 14.2497 8.72145 14.7439 8.98877 15.0112C9.2561 15.2786 9.75027 15.48 10.73 15.48H13.27C14.2558 15.48 14.7487 15.2774 15.0142 15.0112C15.2799 14.7445 15.48 14.2514 15.48 13.27V10.73ZM16.98 13.27C16.98 14.3983 16.7598 15.3849 16.0757 16.0708C15.3912 16.757 14.4042 16.98 13.27 16.98H10.73C9.59973 16.98 8.61338 16.7569 7.92822 16.0718C7.24307 15.3866 7.02002 14.4003 7.02002 13.27V10.73C7.02002 9.60174 7.24025 8.61507 7.92432 7.9292C8.6088 7.24302 9.59581 7.02002 10.73 7.02002H13.27C14.3983 7.02002 15.3849 7.24024 16.0708 7.92432C16.757 8.6088 16.98 9.5958 16.98 10.73V13.27Z" fill="#1C252E"/>
</svg>
