<svg width="24" height="24" viewBox="0 0 24 24" fill="none" xmlns="http://www.w3.org/2000/svg">
<path d="M21.22 12C21.22 6.89137 17.0786 2.75 11.97 2.75C6.86134 2.75 2.71997 6.89137 2.71997 12C2.71997 17.1086 6.86134 21.25 11.97 21.25C17.0786 21.25 21.22 17.1086 21.22 12ZM22.72 12C22.72 17.9371 17.907 22.75 11.97 22.75C6.03291 22.75 1.21997 17.9371 1.21997 12C1.21997 6.06294 6.03291 1.25 11.97 1.25C17.907 1.25 22.72 6.06294 22.72 12Z" fill="#1C252E"/>
<path d="M9.32495 7.79523C10.1733 7.30508 11.2075 7.40475 12.1892 7.9134L12.3855 8.02082L15.2859 9.70051C16.3247 10.3007 17.0094 11.1945 17.0095 12.2396C17.0095 13.2848 16.3238 14.1793 15.2849 14.7796L15.2839 14.7786L12.3855 16.4593C11.3468 17.0594 10.23 17.207 9.32495 16.6839C8.42029 16.161 7.99006 15.1199 7.98999 13.9202V10.5599C7.99001 9.36011 8.42024 8.31821 9.32495 7.79523ZM9.48999 13.9202C9.49006 14.8001 9.79474 15.224 10.075 15.3861C10.3549 15.5479 10.8734 15.6002 11.6345 15.1605L14.5339 13.4808C15.295 13.0411 15.5095 12.5643 15.5095 12.2396C15.5094 11.9149 15.2956 11.4389 14.5349 10.9993L11.6345 9.31867C10.8735 8.87914 10.3549 8.93226 10.075 9.09406C9.79474 9.25616 9.49001 9.67994 9.48999 10.5599V13.9202Z" fill="#1C252E"/>
</svg>
