<svg width="24" height="24" viewBox="0 0 24 24" fill="none" xmlns="http://www.w3.org/2000/svg">
<path d="M15.6404 3.70703C15.6402 3.17859 15.2118 2.75023 14.6834 2.75H9.31714C8.78852 2.75 8.36026 3.17845 8.36011 3.70703V3.88184C8.35994 5.14253 7.33761 6.1649 6.07691 6.16504C4.37445 6.16504 2.99407 7.54466 2.9939 9.24707V13.707C2.9939 15.3183 2.99512 16.4747 3.08081 17.376C3.16545 18.2659 3.32726 18.8305 3.6023 19.2793C3.94258 19.8345 4.40943 20.3013 4.9646 20.6416C5.41342 20.9166 5.97795 21.0784 6.86792 21.1631C7.76921 21.2488 8.92555 21.25 10.5369 21.25H13.4636C15.0747 21.25 16.2304 21.2488 17.1316 21.1631C18.0217 21.0785 18.5861 20.9167 19.0349 20.6416C19.5903 20.3013 20.0578 19.8347 20.3982 19.2793C20.6732 18.8305 20.835 18.266 20.9197 17.376C21.0054 16.4747 21.0056 15.3183 21.0056 13.707V9.24707C21.0054 7.54474 19.6259 6.16517 17.9236 6.16504C16.6628 6.16504 15.6405 5.14262 15.6404 3.88184V3.70703ZM15.1521 13.2197C15.1521 11.4787 13.7408 10.0674 11.9998 10.0674C10.2588 10.0675 8.84741 11.4788 8.84741 13.2197C8.84753 14.9606 10.2589 16.3719 11.9998 16.3721C13.7407 16.3721 15.152 14.9607 15.1521 13.2197ZM16.6521 13.2197C16.652 15.7891 14.5692 17.8721 11.9998 17.8721C9.43047 17.8719 7.34753 15.789 7.34741 13.2197C7.34741 10.6503 9.4304 8.56751 11.9998 8.56738C14.5692 8.56738 16.6521 10.6503 16.6521 13.2197ZM17.1404 3.88184C17.1405 4.31419 17.4912 4.66504 17.9236 4.66504C20.4543 4.66517 22.5054 6.71631 22.5056 9.24707V13.707C22.5056 15.2892 22.5068 16.5288 22.4128 17.5176C22.3178 18.5175 22.1203 19.3383 21.6765 20.0625C21.2125 20.8197 20.5763 21.4568 19.8191 21.9209C19.095 22.3646 18.274 22.5621 17.2742 22.6572C16.2855 22.7512 15.0458 22.75 13.4636 22.75H10.5369C8.95469 22.75 7.71505 22.7512 6.72632 22.6572C5.72648 22.5622 4.90551 22.3646 4.1814 21.9209C3.42411 21.4568 2.78706 20.8198 2.323 20.0625C1.87931 19.3384 1.68174 18.5174 1.58667 17.5176C1.49268 16.5288 1.4939 15.2892 1.4939 13.707V9.24707C1.49407 6.71623 3.54603 4.66504 6.07691 4.66504C6.50918 4.6649 6.85994 4.31411 6.86011 3.88184V3.70703C6.86026 2.35002 7.9601 1.25 9.31714 1.25H14.6834C16.0402 1.25023 17.1402 2.35017 17.1404 3.70703V3.88184Z" fill="#1C252E"/>
<path d="M16.8778 9.31716C16.8778 9.85598 17.3146 10.2928 17.8534 10.2928C18.3922 10.2928 18.829 9.85598 18.829 9.31716C18.829 8.77835 18.3922 8.34155 17.8534 8.34155C17.3146 8.34155 16.8778 8.77835 16.8778 9.31716Z" fill="#1C252E"/>
</svg>
