<svg width="24" height="24" viewBox="0 0 24 24" fill="none" xmlns="http://www.w3.org/2000/svg">
<path d="M21.2498 8.34046C21.2498 7.41785 20.2488 6.84307 19.4519 7.31507L19.4431 7.32093L16.2742 9.13831L16.2751 9.13929L13.115 10.9625C13.067 10.9913 13.0264 11.0206 12.99 11.0475V12.9723C13.0238 12.9973 13.0615 13.0238 13.1052 13.0504L16.2732 14.8795L19.4431 16.6998L19.4451 16.7008C20.2461 17.1626 21.2498 16.5812 21.2498 15.6598V8.34046ZM22.7498 15.6598C22.7498 17.7382 20.494 19.0375 18.6951 17.9996V17.9987L15.5261 16.1803L15.5251 16.1793L12.3552 14.3492L12.3445 14.3434C12.0894 14.1903 11.8557 14.0067 11.658 13.7633C11.5493 13.6296 11.49 13.4619 11.49 13.2897V10.7301C11.49 10.5579 11.5494 10.3911 11.658 10.2575C11.8558 10.014 12.0893 9.83049 12.3445 9.67737L12.3552 9.67054L15.5251 7.84046L15.5261 7.83948L18.697 6.01917V6.02015C20.4987 4.96167 22.7498 6.26648 22.7498 8.34046V15.6598Z" fill="#1C252E"/>
<path d="M11.4901 8.34044C11.4901 7.4179 10.4891 6.84324 9.69229 7.31505L9.6835 7.32091L6.51358 9.14025L6.5126 9.13927L3.34756 10.9664L3.34854 10.9674C2.54059 11.4397 2.54835 12.5909 3.34463 13.0504L6.5126 14.8795H6.51358L9.6835 16.6998L9.68447 16.7008C10.4855 17.1629 11.4901 16.5813 11.4901 15.6598V8.34044ZM12.9901 15.6598C12.9901 17.7379 10.7352 19.0366 8.93643 17.9996L5.76651 16.1803L5.76553 16.1793L2.59463 14.3492V14.3483C0.792137 13.3073 0.800051 10.7199 2.5917 9.67247L2.59463 9.67052L5.76553 7.84044L5.76651 7.83946L8.93643 6.02013C10.7382 4.96117 12.9901 6.26629 12.9901 8.34044V15.6598Z" fill="#1C252E"/>
</svg>
