<svg width="24" height="24" viewBox="0 0 24 24" fill="none" xmlns="http://www.w3.org/2000/svg">
<path d="M22 2.25C22.4142 2.25 22.75 2.58579 22.75 3C22.75 3.41421 22.4142 3.75 22 3.75H2C1.58579 3.75 1.25 3.41421 1.25 3C1.25 2.58579 1.58579 2.25 2 2.25H22Z" fill="#1C252E"/>
<path d="M11 8.25C11.4142 8.25 11.75 8.58579 11.75 9C11.75 9.41421 11.4142 9.75 11 9.75H2C1.58579 9.75 1.25 9.41421 1.25 9C1.25 8.58579 1.58579 8.25 2 8.25H11Z" fill="#1C252E"/>
<path d="M8 14.25C8.41421 14.25 8.75 14.5858 8.75 15C8.75 15.4142 8.41421 15.75 8 15.75H2C1.58579 15.75 1.25 15.4142 1.25 15C1.25 14.5858 1.58579 14.25 2 14.25H8Z" fill="#1C252E"/>
<path d="M6 20.25C6.41421 20.25 6.75 20.5858 6.75 21C6.75 21.4142 6.41421 21.75 6 21.75H2C1.58579 21.75 1.25 21.4142 1.25 21C1.25 20.5858 1.58579 20.25 2 20.25H6Z" fill="#1C252E"/>
<path d="M13.2704 19.8198C13.2702 19.0302 12.6294 18.3901 11.8397 18.3901C11.0502 18.3903 10.4102 19.0303 10.41 19.8198C10.41 20.6095 11.0501 21.2503 11.8397 21.2505C12.6295 21.2505 13.2704 20.6096 13.2704 19.8198ZM14.7704 19.8198C14.7704 21.438 13.4579 22.7505 11.8397 22.7505C10.2217 22.7503 8.91003 21.4379 8.91003 19.8198C8.9102 18.2019 10.2218 16.8903 11.8397 16.8901C13.4578 16.8901 14.7702 18.2018 14.7704 19.8198Z" fill="#1C252E"/>
<path d="M21.2505 18.37V9.86019C21.2505 9.10699 21.0222 8.90401 20.9087 8.83773C20.7368 8.73749 20.4059 8.69874 19.9048 8.83382L19.9038 8.83285L15.5581 10.0233C15.0654 10.1616 14.7701 10.5068 14.77 11.0496V19.8202C14.7698 20.2342 14.4341 20.5702 14.02 20.5702C13.6059 20.5702 13.2702 20.2342 13.27 19.8202V11.0496C13.2701 9.77384 14.0734 8.87925 15.1587 8.57699L15.1626 8.57601L19.5122 7.38656L19.5151 7.38558C20.1638 7.21076 20.9782 7.14237 21.6636 7.54183C22.4076 7.97566 22.7505 8.80379 22.7505 9.86019V18.37C22.7504 18.7839 22.4144 19.1197 22.0005 19.12C21.5863 19.12 21.2506 18.7841 21.2505 18.37Z" fill="#1C252E"/>
<path d="M21.2504 18.3696C21.2502 17.58 20.6094 16.9399 19.8197 16.9399C19.0302 16.9401 18.3902 17.5801 18.39 18.3696C18.39 19.1593 19.0301 19.8001 19.8197 19.8003C20.6095 19.8003 21.2504 19.1594 21.2504 18.3696ZM22.7504 18.3696C22.7504 19.9878 21.4379 21.3003 19.8197 21.3003C18.2017 21.3001 16.89 19.9877 16.89 18.3696C16.8902 16.7517 18.2018 15.4401 19.8197 15.4399C21.4378 15.4399 22.7502 16.7516 22.7504 18.3696Z" fill="#1C252E"/>
<path d="M21.8023 10.6961C22.2019 10.5869 22.614 10.8229 22.7232 11.2225C22.8322 11.6219 22.5973 12.0342 22.1978 12.1434L14.2173 14.323C13.8179 14.432 13.4057 14.197 13.2964 13.7977C13.1873 13.3981 13.4232 12.9849 13.8228 12.8758L21.8023 10.6961Z" fill="#1C252E"/>
</svg>
