<svg width="24" height="24" viewBox="0 0 24 24" fill="none" xmlns="http://www.w3.org/2000/svg">
<path d="M15.2103 14.6504C15.2103 14.2178 14.859 13.8702 14.43 13.8701H12.14C11.899 13.8701 11.6726 13.7539 11.5316 13.5586C11.3908 13.3633 11.3522 13.1123 11.428 12.8838L12.1878 10.5938L12.2347 10.4834C12.3622 10.2385 12.6171 10.0802 12.8997 10.0801H15.9603C16.3743 10.0802 16.7103 10.416 16.7103 10.8301C16.7103 11.2442 16.3743 11.5799 15.9603 11.5801H13.4407L13.179 12.3701H14.43C15.681 12.3702 16.7103 13.383 16.7103 14.6504C16.7101 15.9013 15.6972 16.9297 14.43 16.9297H12.14C11.7257 16.9297 11.39 16.5939 11.39 16.1797C11.3902 15.7656 11.7259 15.4297 12.14 15.4297H14.43C14.8625 15.4297 15.2101 15.0792 15.2103 14.6504Z" fill="#1C252E"/>
<path d="M8.78997 16.1698V12.786L8.59758 13.0008C8.32079 13.309 7.84714 13.3343 7.53899 13.0575C7.23092 12.7807 7.20559 12.307 7.48235 11.9989L8.98235 10.329C9.18995 10.0979 9.51844 10.0186 9.80852 10.1297C10.0985 10.241 10.29 10.5193 10.29 10.8299V16.1698C10.29 16.584 9.95418 16.9198 9.53997 16.9198C9.12575 16.9198 8.78997 16.584 8.78997 16.1698Z" fill="#1C252E"/>
<path d="M11.5312 1.41523C11.8544 1.15625 12.3259 1.20828 12.5849 1.53144L14.5654 4.00117C14.8242 4.32425 14.772 4.7958 14.4492 5.05488C14.126 5.31393 13.6536 5.26274 13.3945 4.93964L11.415 2.46894C11.156 2.14575 11.208 1.67428 11.5312 1.41523Z" fill="#1C252E"/>
<path d="M2.35999 13.1094C2.36018 7.78545 6.67571 3.46992 11.9996 3.46973C12.7462 3.46973 13.4644 3.56858 14.151 3.72949C14.5542 3.824 14.805 4.22762 14.7106 4.63086C14.6161 5.034 14.2123 5.28466 13.8092 5.19043C13.2158 5.05136 12.613 4.96973 11.9996 4.96973C7.50414 4.96992 3.86018 8.61388 3.85999 13.1094C3.85999 17.605 7.50402 21.2498 11.9996 21.25C16.4954 21.25 20.1403 17.6052 20.1403 13.1094C20.1402 11.2861 19.5113 9.61195 18.4899 8.25C18.2414 7.91865 18.3089 7.44874 18.6403 7.2002C18.9716 6.95168 19.4415 7.0183 19.6901 7.34961C20.8885 8.94747 21.6402 10.933 21.6403 13.1094C21.6403 18.4336 17.3238 22.75 11.9996 22.75C6.67559 22.7498 2.35999 18.4335 2.35999 13.1094Z" fill="#1C252E"/>
</svg>
