<svg width="24" height="24" viewBox="0 0 24 24" fill="none" xmlns="http://www.w3.org/2000/svg">
<path d="M21.22 12C21.22 6.89137 17.0786 2.75 11.97 2.75C6.86134 2.75 2.71997 6.89137 2.71997 12C2.71997 17.1086 6.86134 21.25 11.97 21.25C17.0786 21.25 21.22 17.1086 21.22 12ZM22.72 12C22.72 17.9371 17.907 22.75 11.97 22.75C6.03291 22.75 1.21997 17.9371 1.21997 12C1.21997 6.06294 6.03291 1.25 11.97 1.25C17.907 1.25 22.72 6.06294 22.72 12Z" fill="#1C252E"/>
<path d="M10.0098 8.05005C10.3276 8.05005 10.7467 8.10366 11.0713 8.4104C11.4066 8.7274 11.4697 9.14954 11.4697 9.46997V14.5305C11.4697 14.8509 11.4068 15.2756 11.0674 15.593C10.741 15.8981 10.3198 15.9504 10 15.9504H8.70996C8.39211 15.9504 7.973 15.8968 7.64844 15.5901C7.31322 15.2732 7.25006 14.8509 7.25 14.5305V9.46997C7.25001 9.14958 7.31326 8.72739 7.64844 8.4104C7.973 8.10367 8.39211 8.05005 8.70996 8.05005H10.0098ZM8.75 14.4504H9.96973V9.55005H8.75V14.4504Z" fill="#1C252E"/>
<path d="M15.29 8.05005C15.6079 8.05005 16.027 8.10366 16.3516 8.4104C16.6868 8.72739 16.75 9.14957 16.75 9.46997V14.5305C16.7499 14.8509 16.6868 15.2732 16.3516 15.5901C16.027 15.8968 15.6079 15.9504 15.29 15.9504H14C13.6821 15.9504 13.263 15.8968 12.9385 15.5901C12.6033 15.2732 12.5401 14.8509 12.54 14.5305V9.46997C12.54 9.14958 12.6033 8.72739 12.9385 8.4104C13.263 8.10367 13.6821 8.05005 14 8.05005H15.29ZM14.04 14.4504H15.25V9.55005H14.04V14.4504Z" fill="#1C252E"/>
</svg>
