<svg width="24" height="24" viewBox="0 0 24 24" fill="none" xmlns="http://www.w3.org/2000/svg">
<path d="M21.25 9C21.25 6.57397 20.7603 5.0708 19.8447 4.15527C18.9292 3.23974 17.426 2.75 15 2.75H9C6.57397 2.75 5.0708 3.23974 4.15527 4.15527C3.23974 5.0708 2.75 6.57397 2.75 9V15C2.75 17.426 3.23974 18.9292 4.15527 19.8447C5.0708 20.7603 6.57397 21.25 9 21.25H15C17.426 21.25 18.9292 20.7603 19.8447 19.8447C20.7603 18.9292 21.25 17.426 21.25 15V9ZM22.75 15C22.75 17.574 22.2397 19.5708 20.9053 20.9053C19.5708 22.2397 17.574 22.75 15 22.75H9C6.42603 22.75 4.4292 22.2397 3.09473 20.9053C1.76026 19.5708 1.25 17.574 1.25 15V9C1.25 6.42603 1.76026 4.4292 3.09473 3.09473C4.4292 1.76026 6.42603 1.25 9 1.25H15C17.574 1.25 19.5708 1.76026 20.9053 3.09473C22.2397 4.4292 22.75 6.42603 22.75 9V15Z" fill="#1C252E"/>
<path d="M17.75 14.5996C17.7499 13.9239 17.6104 13.6456 17.4824 13.5176C17.3544 13.3896 17.0761 13.2501 16.4004 13.25H12.5996C11.9239 13.2501 11.6456 13.3896 11.5176 13.5176C11.3896 13.6456 11.2501 13.9239 11.25 14.5996V16.4004C11.2501 17.0761 11.3896 17.3544 11.5176 17.4824C11.6456 17.6104 11.9239 17.7499 12.5996 17.75H16.4004C17.0761 17.7499 17.3544 17.6104 17.4824 17.4824C17.6104 17.3544 17.7499 17.0761 17.75 16.4004V14.5996ZM19.25 16.4004C19.2499 17.2242 19.0899 17.9961 18.543 18.543C17.9961 19.0899 17.2242 19.2499 16.4004 19.25H12.5996C11.7758 19.2499 11.0039 19.0899 10.457 18.543C9.91015 17.9961 9.75005 17.2242 9.75 16.4004V14.5996C9.75005 13.7758 9.91015 13.0039 10.457 12.457C11.0039 11.9101 11.7758 11.7501 12.5996 11.75H16.4004C17.2242 11.7501 17.9961 11.9101 18.543 12.457C19.0899 13.0039 19.2499 13.7758 19.25 14.5996V16.4004Z" fill="#1C252E"/>
</svg>
