<svg width="24" height="24" viewBox="0 0 24 24" fill="none" xmlns="http://www.w3.org/2000/svg">
<path d="M19.4903 7.2202C19.4903 5.83075 17.9872 4.96617 16.7842 5.65965L12.6348 8.05027L12.6339 8.0493L8.48542 10.4497H8.48444C7.28516 11.1411 7.28525 12.8685 8.48444 13.56L8.48542 13.561L12.6358 15.9604H12.6348L16.7842 18.3501C17.9849 19.0422 19.49 18.1722 19.4903 16.7905V7.2202ZM20.9903 16.7905C20.99 19.3283 18.2343 20.9176 16.0352 19.6499V19.6489L11.8858 17.2602L11.8848 17.2593L7.73542 14.8589C5.53528 13.5901 5.53499 10.4184 7.73542 9.14988L11.8848 6.75047H11.8858L16.0352 4.36082V4.35984C18.2323 3.09332 20.9903 4.66964 20.9903 7.2202V16.7905Z" fill="#1C252E"/>
<path d="M3.01001 18.1804V5.82007C3.01001 5.40585 3.3458 5.07007 3.76001 5.07007C4.17422 5.07007 4.51001 5.40585 4.51001 5.82007V18.1804C4.50981 18.5945 4.1741 18.9304 3.76001 18.9304C3.34592 18.9304 3.01021 18.5945 3.01001 18.1804Z" fill="#1C252E"/>
</svg>
