<svg width="24" height="24" viewBox="0 0 24 24" fill="none" xmlns="http://www.w3.org/2000/svg">
<path d="M11.22 18C11.22 16.2051 9.7649 14.75 7.96997 14.75C6.17505 14.75 4.71997 16.2051 4.71997 18C4.71997 19.7949 6.17505 21.25 7.96997 21.25C9.7649 21.25 11.22 19.7949 11.22 18ZM12.72 18C12.72 20.6234 10.5933 22.75 7.96997 22.75C5.34662 22.75 3.21997 20.6234 3.21997 18C3.21997 15.3766 5.34662 13.25 7.96997 13.25C10.5933 13.25 12.72 15.3766 12.72 18Z" fill="#1C252E"/>
<path d="M11.22 18V4C11.22 3.58579 11.5558 3.25 11.97 3.25C12.3842 3.25 12.72 3.58579 12.72 4V18C12.72 18.4142 12.3842 18.75 11.97 18.75C11.5558 18.75 11.22 18.4142 11.22 18Z" fill="#1C252E"/>
<path d="M11.2299 5.18009V3.99943C11.225 3.04119 11.6038 2.20062 12.309 1.69279C13.0145 1.18489 13.9339 1.09167 14.8461 1.39884L14.8471 1.39787L19.267 2.86857L19.269 2.86955C19.9787 3.10832 20.5868 3.61118 21.0141 4.20158C21.4412 4.79182 21.7298 5.52728 21.7299 6.2797V7.44963C21.7299 8.41067 21.3532 9.25304 20.6479 9.76213C19.9428 10.271 19.0255 10.3633 18.1147 10.0619H18.1137L13.6928 8.59123H13.6908C12.9812 8.35245 12.373 7.84862 11.9457 7.25822C11.5186 6.66799 11.23 5.93249 11.2299 5.18009ZM12.7299 5.18009C12.73 5.55745 12.8814 5.99221 13.1615 6.37931C13.441 6.76527 13.8071 7.0467 14.1664 7.16838L18.5863 8.6381H18.5854C19.1244 8.81655 19.5226 8.72385 19.7699 8.54533C20.017 8.36687 20.2299 8.01842 20.2299 7.44963V6.2797C20.2298 5.90235 20.0784 5.46758 19.7983 5.08049C19.5188 4.69453 19.1527 4.41306 18.7934 4.29142L14.3735 2.8217L14.3696 2.82072C13.8333 2.63956 13.4345 2.73085 13.186 2.90959C12.9377 3.08828 12.7263 3.43544 12.7299 3.99455V5.18009Z" fill="#1C252E"/>
</svg>
