<svg width="24" height="24" viewBox="0 0 24 24" fill="none" xmlns="http://www.w3.org/2000/svg">
<path d="M21.25 9C21.25 6.57397 20.7603 5.0708 19.8447 4.15527C18.9292 3.23974 17.426 2.75 15 2.75H9C6.57397 2.75 5.0708 3.23974 4.15527 4.15527C3.23974 5.0708 2.75 6.57397 2.75 9V15C2.75 17.426 3.23974 18.9292 4.15527 19.8447C5.0708 20.7603 6.57397 21.25 9 21.25H14.0361C14.0274 21.2358 14.0174 21.2223 14.0088 21.208L14.0078 21.207C13.531 20.4161 13.25 19.4832 13.25 18.5C13.25 17.0799 13.8099 15.7828 14.7334 14.8359C15.6894 13.8567 17.0308 13.25 18.5 13.25C19.5052 13.25 20.4499 13.5314 21.25 14.0273V9ZM22.75 15C22.75 15.224 22.7502 15.4787 22.7266 15.7383C22.6976 16.0546 22.4728 16.3181 22.165 16.3965C21.8569 16.4747 21.5329 16.3504 21.3564 16.0859C21.3459 16.0702 21.3274 16.0481 21.3096 16.0303L21.1455 15.8525C20.4818 15.1682 19.543 14.75 18.5 14.75C17.515 14.75 16.6112 15.131 15.9385 15.7559L15.8066 15.8838C15.1502 16.5569 14.75 17.4802 14.75 18.5C14.75 19.1962 14.9484 19.8629 15.291 20.4316C15.4348 20.6692 15.606 20.8897 15.7979 21.084L16.04 21.3096C16.0594 21.3289 16.0749 21.3414 16.1504 21.4043C16.3826 21.5981 16.4759 21.9122 16.3867 22.2012C16.2973 22.4904 16.0426 22.6978 15.7412 22.7266C15.4891 22.7506 15.2218 22.75 15 22.75H9C6.42603 22.75 4.4292 22.2397 3.09473 20.9053C1.76026 19.5708 1.25 17.574 1.25 15V9C1.25 6.42603 1.76026 4.4292 3.09473 3.09473C4.4292 1.76026 6.42603 1.25 9 1.25H15C17.574 1.25 19.5708 1.76026 20.9053 3.09473C22.2397 4.4292 22.75 6.42603 22.75 9V15Z" fill="#1C252E"/>
<path d="M21.48 6.35986C21.8942 6.35986 22.23 6.69565 22.23 7.10986C22.23 7.52408 21.8942 7.85986 21.48 7.85986H2.52002C2.10581 7.85986 1.77002 7.52408 1.77002 7.10986C1.77002 6.69565 2.10581 6.35986 2.52002 6.35986H21.48Z" fill="#1C252E"/>
<path d="M7.77002 6.97021V2.10986C7.77002 1.69565 8.10581 1.35986 8.52002 1.35986C8.93423 1.35986 9.27002 1.69565 9.27002 2.10986V6.97021C9.26982 7.38426 8.93411 7.72021 8.52002 7.72021C8.10593 7.72021 7.77022 7.38426 7.77002 6.97021Z" fill="#1C252E"/>
<path d="M14.73 6.52002V2.10986C14.73 1.69565 15.0658 1.35986 15.48 1.35986C15.8942 1.35986 16.23 1.69565 16.23 2.10986V6.52002C16.2299 6.93418 15.8942 7.27002 15.48 7.27002C15.0658 7.27002 14.73 6.93418 14.73 6.52002Z" fill="#1C252E"/>
<path d="M22.25 18.5C22.25 17.61 21.9345 16.7885 21.4033 16.1494C21.3865 16.1292 21.371 16.1078 21.3564 16.0859C21.3459 16.0702 21.3274 16.0481 21.3096 16.0303L21.1455 15.8525C20.4818 15.1682 19.543 14.75 18.5 14.75C17.515 14.75 16.6112 15.131 15.9385 15.7559L15.8066 15.8838C15.1502 16.5569 14.75 17.4802 14.75 18.5C14.75 19.1962 14.9484 19.8629 15.291 20.4316C15.4348 20.6692 15.606 20.8897 15.7979 21.084L16.04 21.3096C16.0548 21.3244 16.0679 21.3341 16.1064 21.3662C16.1254 21.3794 16.1453 21.3913 16.1631 21.4062C16.7904 21.9345 17.6 22.25 18.5 22.25C19.865 22.25 21.0565 21.5185 21.707 20.4346C21.9006 20.1053 22.0505 19.7448 22.1416 19.3721L22.1445 19.3584C22.2158 19.0891 22.25 18.8041 22.25 18.5ZM23.75 18.5C23.75 18.9111 23.7037 19.3215 23.5977 19.7275C23.4692 20.253 23.2611 20.7517 22.9961 21.2012L22.9932 21.2061C22.0836 22.7219 20.4148 23.75 18.5 23.75C17.2401 23.75 16.09 23.3054 15.1973 22.5537L15.6699 21.9912V21.9805L15.1895 22.5557C15.1527 22.525 15.0908 22.4713 15.0244 22.4092L15.0234 22.4111C14.6177 22.0651 14.2771 21.6512 14.0088 21.208L14.0078 21.207C13.531 20.4161 13.25 19.4832 13.25 18.5C13.25 17.0799 13.8099 15.7828 14.7334 14.8359C15.6894 13.8567 17.0308 13.25 18.5 13.25C20.0292 13.25 21.4189 13.8998 22.3701 14.9697L22.4922 15.1035C22.515 15.1311 22.5352 15.1612 22.5566 15.1904C23.3055 16.0914 23.75 17.2501 23.75 18.5Z" fill="#1C252E"/>
<path d="M16.7897 16.7695C17.0826 16.4766 17.5574 16.4766 17.8503 16.7695L20.2302 19.1494C20.5231 19.4422 20.5231 19.917 20.2302 20.2099C19.9373 20.5028 19.4625 20.5028 19.1696 20.2099L16.7897 17.83C16.4968 17.5371 16.4968 17.0624 16.7897 16.7695Z" fill="#1C252E"/>
<path d="M19.1496 16.7895C19.4424 16.4966 19.9172 16.4966 20.2101 16.7895C20.503 17.0824 20.503 17.5571 20.2101 17.85L17.8302 20.2299C17.5373 20.5228 17.0626 20.5228 16.7697 20.2299C16.4769 19.937 16.4768 19.4622 16.7697 19.1694L19.1496 16.7895Z" fill="#1C252E"/>
</svg>
