<svg width="24" height="24" viewBox="0 0 24 24" fill="none" xmlns="http://www.w3.org/2000/svg">
<path d="M21.22 12C21.22 6.89137 17.0786 2.75 11.97 2.75C6.86134 2.75 2.71997 6.89137 2.71997 12C2.71997 17.1086 6.86134 21.25 11.97 21.25C17.0786 21.25 21.22 17.1086 21.22 12ZM22.72 12C22.72 17.9371 17.907 22.75 11.97 22.75C6.03291 22.75 1.21997 17.9371 1.21997 12C1.21997 6.06294 6.03291 1.25 11.97 1.25C17.907 1.25 22.72 6.06294 22.72 12Z" fill="#1C252E"/>
<path d="M15.48 12.0005C15.48 10.0787 13.9222 8.52027 12.0005 8.52002C10.0785 8.52002 8.52002 10.0785 8.52002 12.0005C8.52027 13.9222 10.0787 15.48 12.0005 15.48C13.9221 15.4797 15.4797 13.9221 15.48 12.0005ZM16.98 12.0005C16.9797 14.7505 14.7505 16.9797 12.0005 16.98C9.25027 16.98 7.02027 14.7507 7.02002 12.0005C7.02002 9.25011 9.25011 7.02002 12.0005 7.02002C14.7507 7.02027 16.98 9.25027 16.98 12.0005Z" fill="#1C252E"/>
</svg>
