<svg width="24" height="24" viewBox="0 0 24 24" fill="none" xmlns="http://www.w3.org/2000/svg">
<path d="M21.25 9C21.25 6.57397 20.7603 5.0708 19.8447 4.15527C18.9292 3.23974 17.426 2.75 15 2.75H9C6.57397 2.75 5.0708 3.23974 4.15527 4.15527C3.23974 5.0708 2.75 6.57397 2.75 9V15C2.75 17.426 3.23974 18.9292 4.15527 19.8447C5.0708 20.7603 6.57397 21.25 9 21.25H15C17.426 21.25 18.9292 20.7603 19.8447 19.8447C20.7603 18.9292 21.25 17.426 21.25 15V9ZM22.75 15C22.75 17.574 22.2397 19.5708 20.9053 20.9053C19.5708 22.2397 17.574 22.75 15 22.75H9C6.42603 22.75 4.4292 22.2397 3.09473 20.9053C1.76026 19.5708 1.25 17.574 1.25 15V9C1.25 6.42603 1.76026 4.4292 3.09473 3.09473C4.4292 1.76026 6.42603 1.25 9 1.25H15C17.574 1.25 19.5708 1.76026 20.9053 3.09473C22.2397 4.4292 22.75 6.42603 22.75 9V15Z" fill="#1C252E"/>
<path d="M17.4996 16.3301C17.9138 16.3301 18.2496 16.6659 18.2496 17.0801C18.2496 17.4943 17.9138 17.8301 17.4996 17.8301H15.65C15.2358 17.8301 14.9 17.4943 14.9 17.0801C14.9 16.6659 15.2358 16.3301 15.65 16.3301H17.4996Z" fill="#1C252E"/>
<path d="M12.9697 16.3301C13.3839 16.3301 13.7197 16.6659 13.7197 17.0801C13.7197 17.4943 13.3839 17.8301 12.9697 17.8301H6.5C6.08579 17.8301 5.75 17.4943 5.75 17.0801C5.75 16.6659 6.08579 16.3301 6.5 16.3301H12.9697Z" fill="#1C252E"/>
<path d="M17.5002 12.5701C17.9143 12.5702 18.2502 12.9059 18.2502 13.3201C18.2502 13.7342 17.9143 14.0699 17.5002 14.0701H11.97C11.5558 14.0701 11.22 13.7343 11.22 13.3201C11.22 12.9059 11.5558 12.5701 11.97 12.5701H17.5002Z" fill="#1C252E"/>
<path d="M9.26953 12.5701C9.68374 12.5701 10.0195 12.9059 10.0195 13.3201C10.0195 13.7343 9.68374 14.0701 9.26953 14.0701H6.5C6.08579 14.0701 5.75 13.7343 5.75 13.3201C5.75 12.9059 6.08579 12.5701 6.5 12.5701H9.26953Z" fill="#1C252E"/>
</svg>
