<svg width="24" height="24" viewBox="0 0 24 24" fill="none" xmlns="http://www.w3.org/2000/svg">
<path d="M10.25 8C10.25 7.30964 9.69036 6.75 9 6.75C8.30964 6.75 7.75 7.30964 7.75 8C7.75 8.69036 8.30964 9.25 9 9.25C9.69036 9.25 10.25 8.69036 10.25 8ZM11.75 8C11.75 9.51878 10.5188 10.75 9 10.75C7.48122 10.75 6.25 9.51878 6.25 8C6.25 6.48122 7.48122 5.25 9 5.25C10.5188 5.25 11.75 6.48122 11.75 8Z" fill="#1C252E"/>
<path d="M1.25 15V9C1.25 6.42603 1.76026 4.4292 3.09473 3.09473C4.4292 1.76026 6.42603 1.25 9 1.25H12C12.4142 1.25 12.75 1.58579 12.75 2C12.75 2.41421 12.4142 2.75 12 2.75H9C6.57397 2.75 5.0708 3.23974 4.15527 4.15527C3.23974 5.0708 2.75 6.57397 2.75 9V15C2.75 17.426 3.23974 18.9292 4.15527 19.8447C5.0708 20.7603 6.57397 21.25 9 21.25H15C17.426 21.25 18.9292 20.7603 19.8447 19.8447C20.7603 18.9292 21.25 17.426 21.25 15V11C21.25 10.5858 21.5858 10.25 22 10.25C22.4142 10.25 22.75 10.5858 22.75 11V15C22.75 17.574 22.2397 19.5708 20.9053 20.9053C19.5708 22.2397 17.574 22.75 15 22.75H9C6.42603 22.75 4.4292 22.2397 3.09473 20.9053C1.76026 19.5708 1.25 17.574 1.25 15Z" fill="#1C252E"/>
<path d="M21.2507 3.94885C21.2507 3.66072 21.1516 3.41503 20.9978 3.24475C20.8444 3.07511 20.6342 2.98016 20.3894 2.9801C20.1637 2.9801 19.9378 3.07806 19.7273 3.37659C19.6824 3.44025 19.643 3.5059 19.6101 3.56897L18.9451 4.84729L18.28 3.56995C18.2471 3.50668 18.2078 3.44032 18.1628 3.37659C17.9523 3.07798 17.7265 2.9801 17.5007 2.9801C17.2559 2.9801 17.0457 3.07512 16.8923 3.24475C16.7385 3.41503 16.6394 3.66072 16.6394 3.94885C16.6394 4.45019 16.9552 4.79795 17.8181 5.58459L18.1785 5.91663C18.4207 6.14248 18.6802 6.39396 18.9451 6.6803C19.3471 6.24566 19.7363 5.89066 20.072 5.58459C20.935 4.79794 21.2507 4.45019 21.2507 3.94885ZM22.7507 3.94885C22.7507 5.23283 21.8099 6.03016 21.0828 6.69299C20.6219 7.11308 20.1393 7.55489 19.6638 8.13831C19.4902 8.35132 19.2279 8.48007 18.9451 8.4801C18.6623 8.4801 18.3999 8.35126 18.2263 8.13831C17.7508 7.55491 17.2682 7.11308 16.8074 6.69299C16.0802 6.03015 15.1394 5.23287 15.1394 3.94885C15.1394 3.31794 15.3576 2.70643 15.7791 2.23987C16.2225 1.74893 16.8398 1.4801 17.5007 1.4801C18.0558 1.4801 18.5456 1.68024 18.9441 2.02209C19.3428 1.67972 19.8338 1.4801 20.3894 1.4801C21.0503 1.48016 21.6677 1.74896 22.1111 2.23987C22.5325 2.70642 22.7507 3.31798 22.7507 3.94885Z" fill="#1C252E"/>
<path d="M17.0616 11.9311C18.1226 11.0199 19.7974 11.0198 20.8585 11.9311L22.4883 13.3315C22.8025 13.6014 22.8393 14.0749 22.5694 14.3891C22.2996 14.7032 21.826 14.7387 21.5118 14.4692L19.8809 13.0688C19.3821 12.6406 18.538 12.6406 18.0391 13.0688H18.0382L13.878 16.6382C12.8169 17.5496 11.1422 17.5506 10.0811 16.6391L10.0753 16.6333L9.75104 16.3481C9.30293 15.9636 8.53437 15.9165 8.01764 16.2632L3.08796 19.5727C2.74407 19.8036 2.27781 19.7115 2.04694 19.3677C1.81647 19.0238 1.90833 18.5584 2.25202 18.3276L7.18171 15.0171C8.17835 14.3484 9.56928 14.3706 10.5401 15.0639L10.7286 15.2114L10.7354 15.2163L11.0655 15.5063H11.0645C11.5642 15.9298 12.4045 15.9282 12.9014 15.5014V15.5005L17.0616 11.9311Z" fill="#1C252E"/>
</svg>
