<svg width="24" height="24" viewBox="0 0 24 24" fill="none" xmlns="http://www.w3.org/2000/svg">
<path d="M21.25 9C21.25 6.57397 20.7603 5.0708 19.8447 4.15527C18.9292 3.23974 17.426 2.75 15 2.75H9C6.57397 2.75 5.0708 3.23974 4.15527 4.15527C3.23974 5.0708 2.75 6.57397 2.75 9V15C2.75 17.426 3.23974 18.9292 4.15527 19.8447C5.0708 20.7603 6.57397 21.25 9 21.25H15C17.426 21.25 18.9292 20.7603 19.8447 19.8447C20.7603 18.9292 21.25 17.426 21.25 15V9ZM22.75 15C22.75 17.574 22.2397 19.5708 20.9053 20.9053C19.5708 22.2397 17.574 22.75 15 22.75H9C6.42603 22.75 4.4292 22.2397 3.09473 20.9053C1.76026 19.5708 1.25 17.574 1.25 15V9C1.25 6.42603 1.76026 4.4292 3.09473 3.09473C4.4292 1.76026 6.42603 1.25 9 1.25H15C17.574 1.25 19.5708 1.76026 20.9053 3.09473C22.2397 4.4292 22.75 6.42603 22.75 9V15Z" fill="#1C252E"/>
<path d="M21.48 16.3601C21.8942 16.3601 22.23 16.6959 22.23 17.1101C22.23 17.5243 21.8942 17.8601 21.48 17.8601H2.52002C2.10581 17.8601 1.77002 17.5243 1.77002 17.1101C1.77002 16.6959 2.10581 16.3601 2.52002 16.3601H21.48Z" fill="#1C252E"/>
<path d="M21.48 6.36011C21.8942 6.36011 22.23 6.69589 22.23 7.11011C22.23 7.52432 21.8942 7.86011 21.48 7.86011H2.52002C2.10581 7.86011 1.77002 7.52432 1.77002 7.11011C1.77002 6.69589 2.10581 6.36011 2.52002 6.36011H21.48Z" fill="#1C252E"/>
<path d="M6.21997 21.4597V17.1101C6.21997 16.6959 6.55576 16.3601 6.96997 16.3601C7.38418 16.3601 7.71997 16.6959 7.71997 17.1101V21.4597C7.71997 21.8739 7.38418 22.2097 6.96997 22.2097C6.55576 22.2097 6.21997 21.8739 6.21997 21.4597Z" fill="#1C252E"/>
<path d="M11.25 21.9705V17.1101C11.25 16.6959 11.5858 16.3601 12 16.3601C12.4142 16.3601 12.75 16.6959 12.75 17.1101V21.9705C12.7498 22.3845 12.4141 22.7205 12 22.7205C11.5859 22.7205 11.2502 22.3845 11.25 21.9705Z" fill="#1C252E"/>
<path d="M16.22 21.5203V17.1101C16.22 16.6959 16.5558 16.3601 16.97 16.3601C17.3842 16.3601 17.72 16.6959 17.72 17.1101V21.5203C17.7199 21.9344 17.3841 22.2703 16.97 22.2703C16.5558 22.2703 16.2201 21.9344 16.22 21.5203Z" fill="#1C252E"/>
<path d="M6.21997 6.45972V2.11011C6.21997 1.69589 6.55576 1.36011 6.96997 1.36011C7.38418 1.36011 7.71997 1.69589 7.71997 2.11011V6.45972C7.71997 6.87393 7.38418 7.20972 6.96997 7.20972C6.55576 7.20972 6.21997 6.87393 6.21997 6.45972Z" fill="#1C252E"/>
<path d="M11.25 6.97046V2.11011C11.25 1.69589 11.5858 1.36011 12 1.36011C12.4142 1.36011 12.75 1.69589 12.75 2.11011V6.97046C12.7498 7.38451 12.4141 7.72046 12 7.72046C11.5859 7.72046 11.2502 7.38451 11.25 6.97046Z" fill="#1C252E"/>
<path d="M11.25 18.03V7.03003C11.25 6.61582 11.5858 6.28003 12 6.28003C12.4142 6.28003 12.75 6.61582 12.75 7.03003V18.03C12.75 18.4442 12.4142 18.78 12 18.78C11.5858 18.78 11.25 18.4442 11.25 18.03Z" fill="#1C252E"/>
<path d="M16.22 6.52026V2.11011C16.22 1.69589 16.5558 1.36011 16.97 1.36011C17.3842 1.36011 17.72 1.69589 17.72 2.11011V6.52026C17.7199 6.93441 17.3841 7.27026 16.97 7.27026C16.5558 7.27026 16.2201 6.93441 16.22 6.52026Z" fill="#1C252E"/>
</svg>
