<svg width="24" height="24" viewBox="0 0 24 24" fill="none" xmlns="http://www.w3.org/2000/svg">
<path d="M20.25 12.3496V8.65039C20.25 6.34936 19.7851 4.93351 18.9258 4.07422C18.0665 3.21494 16.6506 2.75 14.3496 2.75H8.65039C6.34937 2.75 4.9335 3.21494 4.07422 4.07422C3.21494 4.93351 2.75 6.34936 2.75 8.65039V14.3496C2.75 16.6506 3.21494 18.0665 4.07422 18.9258C4.9335 19.7851 6.34937 20.25 8.65039 20.25H12.3496C12.7638 20.25 13.0996 20.5858 13.0996 21C13.0996 21.4142 12.7638 21.75 12.3496 21.75H8.65039C6.20142 21.75 4.29189 21.2645 3.01367 19.9863C1.73546 18.7081 1.25 16.7986 1.25 14.3496V8.65039C1.25 6.20142 1.73546 4.2919 3.01367 3.01367C4.29189 1.73545 6.20142 1.25 8.65039 1.25H14.3496C16.7986 1.25 18.7081 1.73545 19.9863 3.01367C21.2645 4.2919 21.75 6.20142 21.75 8.65039V12.3496C21.75 12.7638 21.4142 13.0996 21 13.0996C20.5858 13.0996 20.25 12.7638 20.25 12.3496Z" fill="#1C252E"/>
<path d="M7.42041 12.9702C7.42041 12.5837 7.10675 12.2701 6.72021 12.27C6.33358 12.27 6.02002 12.5836 6.02002 12.9702C6.02015 13.3567 6.33371 13.6704 6.72021 13.6704C7.10663 13.6703 7.42028 13.3566 7.42041 12.9702ZM8.92041 12.9702C8.92028 14.1851 7.93508 15.1703 6.72021 15.1704C5.50526 15.1704 4.52015 14.1851 4.52002 12.9702C4.52002 11.7552 5.50522 10.77 6.72021 10.77C7.93512 10.7701 8.92041 11.7552 8.92041 12.9702Z" fill="#1C252E"/>
<path d="M12.7299 11.9994V6.34021C12.7299 6.11186 12.6937 5.98766 12.6674 5.93006C12.6454 5.88222 12.63 5.87678 12.6293 5.87635C12.603 5.86118 12.4662 5.81799 12.1595 5.90271L12.1576 5.90369L9.26794 6.69373H9.26501C9.04872 6.75196 8.93005 6.89336 8.93005 7.13025V12.9701C8.92991 13.3842 8.59418 13.7201 8.18005 13.7201C7.76593 13.7201 7.4302 13.3842 7.43005 12.9701V7.13025C7.43005 6.22732 7.97603 5.55544 8.72302 5.29236L8.87537 5.24549L11.7621 4.45642V4.4574C12.2152 4.33243 12.838 4.26398 13.3812 4.57849C13.9839 4.92765 14.2299 5.58533 14.2299 6.34021V11.9994C14.2299 12.4136 13.8941 12.7494 13.4799 12.7494C13.0657 12.7493 12.7299 12.4135 12.7299 11.9994Z" fill="#1C252E"/>
<path d="M12.7305 12C12.7305 11.6135 12.4168 11.2999 12.0303 11.2998C11.6437 11.2998 11.3301 11.6134 11.3301 12C11.3302 12.3865 11.6437 12.7002 12.0303 12.7002C12.4167 12.7001 12.7304 12.3865 12.7305 12ZM14.2305 12C14.2304 13.2149 13.2452 14.2001 12.0303 14.2002C10.8153 14.2002 9.83018 13.2149 9.83008 12C9.83008 10.785 10.8152 9.7998 12.0303 9.7998C13.2452 9.79991 14.2305 10.785 14.2305 12Z" fill="#1C252E"/>
<path d="M13.2823 6.65653C13.6819 6.54742 14.0941 6.78331 14.2032 7.1829C14.3122 7.58235 14.0773 7.99462 13.6779 8.1038L8.36731 9.55399C7.96784 9.66287 7.55549 9.42709 7.44641 9.02762C7.33739 8.62809 7.57324 8.21583 7.97278 8.10673L13.2823 6.65653Z" fill="#1C252E"/>
<path d="M20.3904 18.0801C20.3904 16.727 19.2932 15.63 17.9402 15.6299C16.5871 15.6299 15.49 16.727 15.49 18.0801C15.4901 19.4331 16.5872 20.5303 17.9402 20.5303C19.2931 20.5302 20.3903 19.433 20.3904 18.0801ZM21.8904 18.0801C21.8903 20.2614 20.1216 22.0302 17.9402 22.0303C15.7587 22.0303 13.9901 20.2615 13.99 18.0801C13.99 15.8986 15.7587 14.1299 17.9402 14.1299C20.1216 14.13 21.8904 15.8986 21.8904 18.0801Z" fill="#1C252E"/>
<path d="M20.2097 20.3496C20.5026 20.0567 20.9773 20.0567 21.2702 20.3496L22.2702 21.3496C22.5631 21.6424 22.5631 22.1172 22.2702 22.4101C21.9773 22.703 21.5026 22.703 21.2097 22.4101L20.2097 21.4101C19.9168 21.1172 19.9168 20.6424 20.2097 20.3496Z" fill="#1C252E"/>
</svg>
