<svg width="24" height="24" viewBox="0 0 24 24" fill="none" xmlns="http://www.w3.org/2000/svg">
<path d="M10.25 8C10.25 7.30964 9.69036 6.75 9 6.75C8.30964 6.75 7.75 7.30964 7.75 8C7.75 8.69036 8.30964 9.25 9 9.25C9.69036 9.25 10.25 8.69036 10.25 8ZM11.75 8C11.75 9.51878 10.5188 10.75 9 10.75C7.48122 10.75 6.25 9.51878 6.25 8C6.25 6.48122 7.48122 5.25 9 5.25C10.5188 5.25 11.75 6.48122 11.75 8Z" fill="#1C252E"/>
<path d="M1.25 15V9C1.25 6.42603 1.76026 4.4292 3.09473 3.09473C4.4292 1.76026 6.42603 1.25 9 1.25H13C13.4142 1.25 13.75 1.58579 13.75 2C13.75 2.41421 13.4142 2.75 13 2.75H9C6.57397 2.75 5.0708 3.23974 4.15527 4.15527C3.23974 5.0708 2.75 6.57397 2.75 9V15C2.75 17.426 3.23974 18.9292 4.15527 19.8447C5.0708 20.7603 6.57397 21.25 9 21.25H15C17.426 21.25 18.9292 20.7603 19.8447 19.8447C20.7603 18.9292 21.25 17.426 21.25 15V10C21.25 9.58579 21.5858 9.25 22 9.25C22.4142 9.25 22.75 9.58579 22.75 10V15C22.75 17.574 22.2397 19.5708 20.9053 20.9053C19.5708 22.2397 17.574 22.75 15 22.75H9C6.42603 22.75 4.4292 22.2397 3.09473 20.9053C1.76026 19.5708 1.25 17.574 1.25 15Z" fill="#1C252E"/>
<path d="M21.25 4.25C21.6642 4.25 22 4.58579 22 5C22 5.41421 21.6642 5.75 21.25 5.75H15.75C15.3358 5.75 15 5.41421 15 5C15 4.58579 15.3358 4.25 15.75 4.25H21.25Z" fill="#1C252E"/>
<path d="M17.75 7.75V2.25C17.75 1.83579 18.0858 1.5 18.5 1.5C18.9142 1.5 19.25 1.83579 19.25 2.25V7.75C19.25 8.16421 18.9142 8.5 18.5 8.5C18.0858 8.5 17.75 8.16421 17.75 7.75Z" fill="#1C252E"/>
<path d="M17.0616 11.9311C18.1226 11.0199 19.7974 11.0198 20.8585 11.9311L22.4883 13.3315C22.8025 13.6014 22.8393 14.0749 22.5694 14.3891C22.2996 14.7032 21.826 14.7387 21.5118 14.4692L19.8809 13.0688C19.3821 12.6406 18.538 12.6406 18.0391 13.0688H18.0382L13.878 16.6382C12.8169 17.5496 11.1422 17.5506 10.0811 16.6391L10.0753 16.6333L9.75104 16.3481C9.30293 15.9636 8.53437 15.9165 8.01764 16.2632L3.08796 19.5727C2.74407 19.8036 2.27781 19.7115 2.04694 19.3677C1.81647 19.0238 1.90833 18.5584 2.25202 18.3276L7.18171 15.0171C8.17835 14.3484 9.56928 14.3706 10.5401 15.0639L10.7286 15.2114L10.7354 15.2163L11.0655 15.5063H11.0645C11.5642 15.9298 12.4045 15.9282 12.9014 15.5014V15.5005L17.0616 11.9311Z" fill="#1C252E"/>
</svg>
