<svg width="24" height="24" viewBox="0 0 24 24" fill="none" xmlns="http://www.w3.org/2000/svg">
<path d="M14.25 8.37035V7.41039C14.25 6.07148 13.7902 5.36417 13.2871 5.08617C12.7836 4.80814 11.9404 4.79557 10.8086 5.50512L7.88867 7.3352C7.88361 7.33837 7.87818 7.34191 7.87305 7.34496C7.44747 7.59765 6.94594 7.75024 6.42969 7.75024H5C4.11561 7.75024 3.59001 7.97077 3.28027 8.28051C2.97059 8.59026 2.75 9.11595 2.75 10.0002V14.0002C2.75004 14.8845 2.97056 15.4102 3.28027 15.72C3.59003 16.0296 4.11571 16.2502 5 16.2502H7C7.41421 16.2502 7.75 16.586 7.75 17.0002C7.74989 17.4144 7.41414 17.7502 7 17.7502H5C3.88445 17.7502 2.90998 17.4707 2.21973 16.7805C1.52951 16.0903 1.25004 15.1158 1.25 14.0002V10.0002C1.25 8.88469 1.52954 7.91022 2.21973 7.21996C2.90999 6.5297 3.88439 6.25024 5 6.25024H6.42969C6.65343 6.25024 6.893 6.18224 7.10742 6.05492L10.0117 4.23461L10.2725 4.07934C11.5798 3.33906 12.9237 3.17196 14.0127 3.77367C15.1746 4.41569 15.75 5.76932 15.75 7.41039V8.37035C15.7498 8.78442 15.4141 9.12035 15 9.12035C14.5859 9.12035 14.2502 8.78442 14.25 8.37035Z" fill="#1C252E"/>
<path d="M14.2498 16.5897V12.95C14.2498 12.5359 14.5857 12.2001 14.9998 12.2C15.414 12.2 15.7498 12.5358 15.7498 12.95V16.5897C15.7498 18.2267 15.1741 19.5794 14.0135 20.2225C12.8526 20.8657 11.4006 20.6363 10.0116 19.7654C9.66063 19.5454 9.55422 19.0822 9.77425 18.7313C9.99431 18.3804 10.4575 18.2749 10.8084 18.4949C11.9393 19.2039 12.7829 19.1892 13.2869 18.91C13.7912 18.6303 14.2498 17.9222 14.2498 16.5897Z" fill="#1C252E"/>
<path d="M18.5205 8.72861C18.9025 8.56871 19.3419 8.74812 19.502 9.12998C20.5023 11.5197 20.2029 14.3126 18.5996 16.4503C18.351 16.7813 17.8811 16.8481 17.5498 16.5997C17.2187 16.3511 17.1519 15.8812 17.4004 15.5499C18.6769 13.8477 18.9176 11.6201 18.1182 9.71006C17.9582 9.32799 18.1385 8.88858 18.5205 8.72861Z" fill="#1C252E"/>
<path d="M20.8593 7.10859C21.241 6.94814 21.68 7.12744 21.8408 7.50898C23.4125 11.2404 22.9427 15.6033 20.4297 18.9504C20.181 19.2815 19.711 19.3484 19.3798 19.0998C19.0486 18.8511 18.9818 18.3812 19.2304 18.05C21.4174 15.1371 21.8273 11.3396 20.459 8.09101C20.2982 7.7093 20.4776 7.26937 20.8593 7.10859Z" fill="#1C252E"/>
<path d="M21.4697 1.46973C21.7626 1.17684 22.2373 1.17684 22.5302 1.46973C22.8231 1.76262 22.8231 2.23738 22.5302 2.53028L2.53022 22.5303C2.23732 22.8232 1.76256 22.8232 1.46967 22.5303C1.17678 22.2374 1.17678 21.7626 1.46967 21.4697L21.4697 1.46973Z" fill="#1C252E"/>
</svg>
