<svg width="24" height="24" viewBox="0 0 24 24" fill="none" xmlns="http://www.w3.org/2000/svg">
<path d="M15.9902 7.78998C15.9902 6.25114 15.7248 5.46511 15.29 5.03021C14.8552 4.59536 14.0691 4.33005 12.5303 4.33002H6.20996C4.67099 4.33002 3.88507 4.59534 3.4502 5.03021C3.01532 5.46508 2.75 6.25101 2.75 7.78998V16.2099C2.75 17.1541 2.98645 18.0145 3.49609 18.6259C3.98571 19.2133 4.80958 19.6699 6.20996 19.6699H12.5303C14.0629 19.6698 14.8496 19.4051 15.2861 18.9697C15.7223 18.5343 15.9902 17.7474 15.9902 16.2099V7.78998ZM17.4902 16.2099C17.4902 17.8324 17.227 19.1515 16.3457 20.0312C15.4647 20.9102 14.1467 21.1698 12.5303 21.1699H6.20996C4.45046 21.1699 3.16913 20.5769 2.34375 19.5869C1.53844 18.6208 1.25 17.3757 1.25 16.2099V7.78998C1.25 6.16899 1.50953 4.84978 2.38965 3.96967C3.26977 3.08955 4.58898 2.83002 6.20996 2.83002H12.5303C14.1512 2.83005 15.4705 3.08959 16.3506 3.96967C17.2306 4.84978 17.4902 6.16907 17.4902 7.78998V16.2099Z" fill="#1C252E"/>
<path d="M21.2498 8.1903C21.2498 7.48977 21.0186 7.27267 20.9226 7.22253C20.8267 7.17249 20.5187 7.10759 19.95 7.50476L17.49 9.22937V14.7596L19.9509 16.4862L19.9529 16.4872C20.5229 16.8895 20.8308 16.824 20.9246 16.7753C21.0191 16.7259 21.2497 16.5103 21.2498 15.8104V8.1903ZM22.7498 15.8104C22.7497 16.779 22.4216 17.6888 21.616 18.1073C20.8098 18.526 19.8775 18.2702 19.0876 17.7128V17.7118L16.3093 15.7635C16.1094 15.6232 15.9901 15.3946 15.99 15.1503V8.83972C15.9901 8.59542 16.1094 8.36679 16.3093 8.22644L19.0896 6.27624L19.0906 6.27527C19.8814 5.72288 20.8129 5.47271 21.6169 5.89245C22.4209 6.31231 22.7498 7.22084 22.7498 8.1903V15.8104Z" fill="#1C252E"/>
<path d="M12.25 9.5C12.25 9.08579 11.9142 8.75 11.5 8.75C11.0858 8.75 10.75 9.08579 10.75 9.5C10.75 9.91421 11.0858 10.25 11.5 10.25C11.9142 10.25 12.25 9.91421 12.25 9.5ZM13.75 9.5C13.75 10.7426 12.7426 11.75 11.5 11.75C10.2574 11.75 9.25 10.7426 9.25 9.5C9.25 8.25736 10.2574 7.25 11.5 7.25C12.7426 7.25 13.75 8.25736 13.75 9.5Z" fill="#1C252E"/>
</svg>
