<svg width="24" height="24" viewBox="0 0 24 24" fill="none" xmlns="http://www.w3.org/2000/svg">
<path d="M21.25 10C21.25 8.67044 20.8101 7.62069 20.0947 6.90527C19.3793 6.18986 18.3296 5.75 17 5.75H7C5.67044 5.75 4.62069 6.18986 3.90527 6.90527C3.18986 7.62069 2.75 8.67044 2.75 10V17C2.75 18.3296 3.18986 19.3793 3.90527 20.0947C4.62069 20.8101 5.67044 21.25 7 21.25H17C18.3296 21.25 19.3793 20.8101 20.0947 20.0947C20.8101 19.3793 21.25 18.3296 21.25 17V10ZM22.75 17C22.75 18.6704 22.1899 20.1207 21.1553 21.1553C20.1207 22.1899 18.6704 22.75 17 22.75H7C5.32956 22.75 3.87931 22.1899 2.84473 21.1553C1.81014 20.1207 1.25 18.6704 1.25 17V10C1.25 8.32956 1.81014 6.87931 2.84473 5.84473C3.87931 4.81014 5.32956 4.25 7 4.25H17C18.6704 4.25 20.1207 4.81014 21.1553 5.84473C22.1899 6.87931 22.75 8.32956 22.75 10V17Z" fill="#1C252E"/>
<path d="M6.25 5V2C6.25 1.58579 6.58579 1.25 7 1.25C7.41421 1.25 7.75 1.58579 7.75 2V5C7.75 5.41421 7.41421 5.75 7 5.75C6.58579 5.75 6.25 5.41421 6.25 5Z" fill="#1C252E"/>
<path d="M10.25 13.5C10.25 12.5335 9.4665 11.75 8.5 11.75C7.5335 11.75 6.75 12.5335 6.75 13.5C6.75 14.4665 7.5335 15.25 8.5 15.25C9.4665 15.25 10.25 14.4665 10.25 13.5ZM11.75 13.5C11.75 15.2949 10.2949 16.75 8.5 16.75C6.70507 16.75 5.25 15.2949 5.25 13.5C5.25 11.7051 6.70507 10.25 8.5 10.25C10.2949 10.25 11.75 11.7051 11.75 13.5Z" fill="#1C252E"/>
<path d="M18.5 10.25C18.9142 10.25 19.25 10.5858 19.25 11C19.25 11.4142 18.9142 11.75 18.5 11.75H14.5C14.0858 11.75 13.75 11.4142 13.75 11C13.75 10.5858 14.0858 10.25 14.5 10.25H18.5Z" fill="#1C252E"/>
<path d="M15 14.25C15.4142 14.25 15.75 14.5858 15.75 15C15.75 15.4142 15.4142 15.75 15 15.75H14.5C14.0858 15.75 13.75 15.4142 13.75 15C13.75 14.5858 14.0858 14.25 14.5 14.25H15Z" fill="#1C252E"/>
<path d="M18.5 14.25C18.9142 14.25 19.25 14.5858 19.25 15C19.25 15.4142 18.9142 15.75 18.5 15.75H18C17.5858 15.75 17.25 15.4142 17.25 15C17.25 14.5858 17.5858 14.25 18 14.25H18.5Z" fill="#1C252E"/>
</svg>
