<svg width="24" height="24" viewBox="0 0 24 24" fill="none" xmlns="http://www.w3.org/2000/svg">
<path d="M15.25 6.2998V6C15.25 4.20421 13.7958 2.75 12 2.75C10.2042 2.75 8.75 4.20421 8.75 6V11C8.75 11.4142 8.41421 11.75 8 11.75C7.58579 11.75 7.25 11.4142 7.25 11V6C7.25 3.37579 9.37579 1.25 12 1.25C14.6242 1.25 16.75 3.37579 16.75 6V6.2998C16.75 6.71402 16.4142 7.0498 16 7.0498C15.5858 7.0498 15.25 6.71402 15.25 6.2998Z" fill="#1C252E"/>
<path d="M15.2499 11.5V11C15.2499 10.5858 15.5857 10.25 15.9999 10.25C16.4141 10.25 16.7499 10.5858 16.7499 11V11.5C16.7499 14.1242 14.6241 16.25 11.9999 16.25C10.6129 16.25 9.35226 15.6563 8.48331 14.6924C8.20601 14.3847 8.23031 13.9101 8.538 13.6328C8.84554 13.3558 9.31927 13.3803 9.59659 13.6875C10.1876 14.3433 11.0472 14.75 11.9999 14.75C13.7957 14.75 15.2499 13.2958 15.2499 11.5Z" fill="#1C252E"/>
<path d="M18.9002 11.3502V9.64999C18.9002 9.23578 19.2359 8.89999 19.6502 8.89999C20.0643 8.90006 20.4002 9.23582 20.4002 9.64999V11.3502C20.4001 15.9843 16.6339 19.7496 11.9998 19.7496C9.78232 19.7495 7.77255 18.8922 6.27027 17.4996C5.96665 17.218 5.94868 16.7438 6.23023 16.44C6.51183 16.1364 6.98609 16.1185 7.28981 16.4C8.5274 17.5473 10.1774 18.2495 11.9998 18.2496C15.8055 18.2496 18.9001 15.1559 18.9002 11.3502Z" fill="#1C252E"/>
<path d="M3.59998 11.3502V9.64999C3.59998 9.23578 3.93576 8.89999 4.34998 8.89999C4.76419 8.89999 5.09998 9.23578 5.09998 9.64999V11.3502C5.1 12.3092 5.28917 13.2101 5.64001 14.0377C5.80154 14.419 5.62384 14.8585 5.24255 15.0201C4.86119 15.1818 4.42082 15.004 4.25916 14.6227C3.83009 13.6104 3.6 12.5109 3.59998 11.3502Z" fill="#1C252E"/>
<path d="M19.5394 2.30972C19.8322 2.01674 20.3069 2.01693 20.5999 2.30972C20.8928 2.60247 20.8935 3.07727 20.6009 3.37027L4.46025 19.5197C4.16746 19.8127 3.69269 19.8134 3.39971 19.5207C3.10673 19.2279 3.10694 18.7531 3.39971 18.4601L19.5394 2.30972Z" fill="#1C252E"/>
<path d="M10.25 6V3C10.25 2.58579 10.5858 2.25 11 2.25C11.4142 2.25 11.75 2.58579 11.75 3V6C11.75 6.41421 11.4142 6.75 11 6.75C10.5858 6.75 10.25 6.41421 10.25 6Z" fill="#1C252E"/>
<path d="M11.25 22V19C11.25 18.5858 11.5858 18.25 12 18.25C12.4142 18.25 12.75 18.5858 12.75 19V22C12.75 22.4142 12.4142 22.75 12 22.75C11.5858 22.75 11.25 22.4142 11.25 22Z" fill="#1C252E"/>
</svg>
