<svg width="24" height="24" viewBox="0 0 24 24" fill="none" xmlns="http://www.w3.org/2000/svg">
<path d="M20.25 8.65039C20.25 6.34936 19.7851 4.93351 18.9258 4.07422C18.0665 3.21493 16.6506 2.75 14.3496 2.75H8.65039C6.34937 2.75 4.9335 3.21493 4.07422 4.07422C3.21494 4.93351 2.75 6.34936 2.75 8.65039V14.3496C2.75 16.6506 3.21494 18.0665 4.07422 18.9258C4.9335 19.7851 6.34937 20.25 8.65039 20.25H13.8252C13.4569 19.5785 13.25 18.808 13.25 18C13.25 15.3758 15.3758 13.25 18 13.25C18.8105 13.25 19.5791 13.4537 20.25 13.8154V8.65039ZM21.75 14.3496C21.75 14.7038 21.7399 15.0503 21.7188 15.3779C21.6992 15.6806 21.499 15.9422 21.2119 16.04C20.9247 16.1378 20.6064 16.0531 20.4062 15.8252C19.827 15.1655 18.9617 14.75 18 14.75C16.2042 14.75 14.75 16.2042 14.75 18C14.75 18.5333 14.8801 19.0396 15.1123 19.4814L15.2188 19.666L15.2266 19.6797C15.3842 19.9476 15.5909 20.1952 15.8311 20.4033C16.0609 20.6025 16.1477 20.9207 16.0508 21.209C15.9537 21.4972 15.6922 21.699 15.3887 21.7188C15.0608 21.7399 14.7138 21.75 14.3496 21.75H8.65039C6.20142 21.75 4.29189 21.2645 3.01367 19.9863C1.73545 18.7081 1.25 16.7986 1.25 14.3496V8.65039C1.25 6.20142 1.73545 4.2919 3.01367 3.01367C4.29189 1.73545 6.20142 1.25 8.65039 1.25H14.3496C16.7986 1.25 18.7081 1.73545 19.9863 3.01367C21.2645 4.2919 21.75 6.20142 21.75 8.65039V14.3496Z" fill="#1C252E"/>
<path d="M7.42041 12.9702C7.42041 12.5837 7.10676 12.2701 6.72021 12.27C6.33358 12.27 6.02002 12.5837 6.02002 12.9702C6.02015 13.3567 6.3337 13.6704 6.72021 13.6704C7.10664 13.6703 7.42028 13.3566 7.42041 12.9702ZM8.92041 12.9702C8.92028 14.1851 7.93508 15.1703 6.72021 15.1704C5.50526 15.1704 4.52015 14.1851 4.52002 12.9702C4.52002 11.7552 5.50522 10.77 6.72021 10.77C7.93512 10.7701 8.92041 11.7552 8.92041 12.9702Z" fill="#1C252E"/>
<path d="M12.7198 11.9994V6.34021C12.7198 6.11186 12.6837 5.98766 12.6573 5.93005C12.6354 5.88222 12.62 5.87678 12.6193 5.87634C12.593 5.86118 12.4562 5.81799 12.1495 5.90271L12.1476 5.90369L9.25793 6.69373H9.255C9.03873 6.75196 8.92004 6.89335 8.92004 7.13025V12.9701C8.9199 13.3842 8.58417 13.7201 8.17004 13.7201C7.75592 13.7201 7.42019 13.3842 7.42004 12.9701V7.13025C7.42004 6.22733 7.966 5.55544 8.71301 5.29236L8.86536 5.24548L11.7521 4.45642V4.4574C12.2052 4.33243 12.828 4.26398 13.3712 4.57849C13.9739 4.92765 14.2198 5.58532 14.2198 6.34021V11.9994C14.2198 12.4136 13.8841 12.7494 13.4698 12.7494C13.0557 12.7493 12.7198 12.4135 12.7198 11.9994Z" fill="#1C252E"/>
<path d="M12.7305 12C12.7305 11.6135 12.4168 11.2999 12.0303 11.2998C11.6437 11.2998 11.3301 11.6134 11.3301 12C11.3302 12.3865 11.6437 12.7002 12.0303 12.7002C12.4167 12.7001 12.7304 12.3865 12.7305 12ZM14.2305 12C14.2304 13.2149 13.2452 14.2001 12.0303 14.2002C10.8153 14.2002 9.83018 13.2149 9.83008 12C9.83008 10.785 10.8152 9.7998 12.0303 9.7998C13.2452 9.79991 14.2305 10.785 14.2305 12Z" fill="#1C252E"/>
<path d="M13.2726 6.65652C13.6719 6.54756 14.0841 6.78272 14.1935 7.18191C14.3028 7.58142 14.0676 7.99446 13.6681 8.10379L8.36831 9.55398C7.96878 9.66329 7.55574 9.42715 7.44644 9.02762C7.33748 8.62834 7.57264 8.2161 7.97183 8.10672L13.2726 6.65652Z" fill="#1C252E"/>
<path d="M21.25 18C21.25 17.1739 20.9347 16.4107 20.4131 15.832L20.4062 15.8252C19.827 15.1655 18.9617 14.75 18 14.75C16.2042 14.75 14.75 16.2042 14.75 18C14.75 18.5333 14.8801 19.0396 15.1123 19.4814L15.2188 19.666L15.2266 19.6797C15.3448 19.8806 15.4904 20.0703 15.6572 20.2402L15.8311 20.4033L15.8457 20.416C16.4125 20.9343 17.1641 21.25 18 21.25C19.1858 21.25 20.2156 20.6178 20.7754 19.6768L20.7812 19.666C21.0791 19.183 21.25 18.6094 21.25 18ZM22.75 18C22.75 18.8906 22.5007 19.7371 22.0586 20.4541L22.0576 20.4531C21.2361 21.8264 19.7298 22.75 18 22.75C16.7829 22.75 15.6802 22.2901 14.8486 21.5361C14.4928 21.2277 14.1836 20.8597 13.9424 20.4531C13.5003 19.7362 13.25 18.8906 13.25 18C13.25 15.3758 15.3758 13.25 18 13.25C19.3947 13.25 20.6657 13.8523 21.5264 14.8281H21.5273C22.2856 15.6695 22.75 16.7862 22.75 18Z" fill="#1C252E"/>
<path d="M16.4187 16.4007C16.711 16.1074 17.1858 16.1066 17.4793 16.3987L19.5994 18.5081C19.8929 18.8003 19.8935 19.2751 19.6014 19.5687C19.3092 19.8622 18.8344 19.8638 18.5408 19.5716L16.4207 17.4612C16.1274 17.169 16.1266 16.6942 16.4187 16.4007Z" fill="#1C252E"/>
<path d="M18.5208 16.429C18.8143 16.1369 19.2891 16.1376 19.5814 16.431C19.8734 16.7245 19.8726 17.1993 19.5794 17.4915L17.4593 19.6019C17.1657 19.8941 16.6909 19.8925 16.3987 19.599C16.1066 19.3054 16.1071 18.8306 16.4007 18.5384L18.5208 16.429Z" fill="#1C252E"/>
</svg>
