<svg width="24" height="24" viewBox="0 0 24 24" fill="none" xmlns="http://www.w3.org/2000/svg">
<path d="M8.65027 18.8801C8.65027 17.5713 7.58901 16.5101 6.28015 16.51C4.97124 16.51 3.91003 17.5712 3.91003 18.8801C3.9101 20.189 4.97128 21.2502 6.28015 21.2502C7.58897 21.2502 8.6502 20.1889 8.65027 18.8801ZM10.1503 18.8801C10.1502 21.0174 8.4174 22.7502 6.28015 22.7502C4.14285 22.7502 2.4101 21.0174 2.41003 18.8801C2.41003 16.7428 4.14281 15.01 6.28015 15.01C8.41744 15.0101 10.1503 16.7428 10.1503 18.8801Z" fill="#1C252E"/>
<path d="M20.0905 16.8005V4.60034C20.0905 3.4501 19.7382 3.02263 19.4401 2.84838C19.0844 2.64069 18.5079 2.60859 17.7574 2.81323L11.5172 4.51342C10.6828 4.74032 10.15 5.3602 10.15 6.30053V18.8699C10.15 19.2841 9.81424 19.6199 9.40002 19.6199C8.98581 19.6199 8.65002 19.2841 8.65002 18.8699V6.30053C8.65002 4.64104 9.67732 3.45938 11.1227 3.06616L17.3629 1.36694C18.2619 1.12177 19.3252 1.04416 20.1969 1.55346C21.1263 2.09672 21.5905 3.15058 21.5905 4.60034V16.8005C21.5902 17.2144 21.2543 17.5503 20.8405 17.5505C20.4264 17.5505 20.0907 17.2145 20.0905 16.8005Z" fill="#1C252E"/>
<path d="M20.0902 16.8C20.0902 15.4912 19.029 14.43 17.7201 14.4299C16.4112 14.4299 15.35 15.4911 15.35 16.8C15.35 18.1089 16.4112 19.1702 17.7201 19.1702C19.0289 19.1701 20.0901 18.1089 20.0902 16.8ZM21.5902 16.8C21.5901 18.9373 19.8573 20.6701 17.7201 20.6702C15.5828 20.6702 13.85 18.9373 13.85 16.8C13.85 14.6627 15.5828 12.9299 17.7201 12.9299C19.8574 12.93 21.5902 14.6627 21.5902 16.8Z" fill="#1C252E"/>
<path d="M20.6422 5.67626C21.0418 5.56728 21.4541 5.80304 21.5631 6.20263C21.6721 6.60214 21.4371 7.01441 21.0377 7.12353L9.59728 10.2436C9.19771 10.3526 8.78537 10.1168 8.67639 9.71728C8.5674 9.31766 8.80313 8.90536 9.20275 8.79638L20.6422 5.67626Z" fill="#1C252E"/>
</svg>
