<svg width="24" height="24" viewBox="0 0 24 24" fill="none" xmlns="http://www.w3.org/2000/svg">
<path d="M10.25 8C10.25 7.30964 9.69036 6.75 9 6.75C8.30964 6.75 7.75 7.30964 7.75 8C7.75 8.69036 8.30964 9.25 9 9.25C9.69036 9.25 10.25 8.69036 10.25 8ZM11.75 8C11.75 9.51878 10.5188 10.75 9 10.75C7.48122 10.75 6.25 9.51878 6.25 8C6.25 6.48122 7.48122 5.25 9 5.25C10.5188 5.25 11.75 6.48122 11.75 8Z" fill="#1C252E"/>
<path d="M1.25 15V9C1.25 6.42603 1.76026 4.4292 3.09473 3.09473C4.4292 1.76026 6.42603 1.25 9 1.25H13C13.4142 1.25 13.75 1.58579 13.75 2C13.75 2.41421 13.4142 2.75 13 2.75H9C6.57397 2.75 5.0708 3.23974 4.15527 4.15527C3.23974 5.0708 2.75 6.57397 2.75 9V15C2.75 17.426 3.23974 18.9292 4.15527 19.8447C5.0708 20.7603 6.57397 21.25 9 21.25H15C17.426 21.25 18.9292 20.7603 19.8447 19.8447C20.7603 18.9292 21.25 17.426 21.25 15V10C21.25 9.58579 21.5858 9.25 22 9.25C22.4142 9.25 22.75 9.58579 22.75 10V15C22.75 17.574 22.2397 19.5708 20.9053 20.9053C19.5708 22.2397 17.574 22.75 15 22.75H9C6.42603 22.75 4.4292 22.2397 3.09473 20.9053C1.76026 19.5708 1.25 17.574 1.25 15Z" fill="#1C252E"/>
<path d="M20.0958 1.26012C20.7727 1.19485 21.3932 1.5076 21.9503 2.06969L22.1466 2.28063C22.5762 2.77972 22.8053 3.32709 22.7482 3.91637C22.6866 4.5506 22.307 5.04408 21.9503 5.40075L18.3204 9.03063C18.1695 9.18156 17.9835 9.29248 17.8302 9.36657C17.6741 9.44199 17.4847 9.51074 17.297 9.5404L17.2872 9.54235L15.8966 9.74255H15.8937C15.4451 9.80526 14.987 9.68447 14.6564 9.35387C14.3256 9.02313 14.2049 8.56428 14.2677 8.11559V8.11364L14.4679 6.72301H14.4699C14.4961 6.51381 14.5693 6.31808 14.6447 6.16735C14.7252 6.00625 14.8382 5.83129 14.9796 5.68981L18.6095 2.05993C18.9639 1.70551 19.4583 1.32175 20.0958 1.26012ZM20.2394 2.75231C20.1269 2.76328 19.9454 2.8451 19.67 3.12048L16.0402 6.75036C16.0442 6.74635 16.0378 6.75262 16.0245 6.77184C16.0121 6.7899 15.9981 6.81303 15.9855 6.83825C15.9728 6.86359 15.9645 6.8863 15.9591 6.9027C15.9547 6.91622 15.9533 6.91948 15.9542 6.91344C15.9534 6.92121 15.9534 6.92914 15.9523 6.93688L15.7628 8.24548L17.0626 8.05895C17.0646 8.0585 17.0758 8.05593 17.0958 8.04919C17.1199 8.04108 17.1489 8.02997 17.1779 8.01598C17.2067 8.00202 17.2306 7.98756 17.2482 7.97594C17.2675 7.96319 17.2696 7.96038 17.2599 7.97008L20.8898 4.33923C21.1625 4.06644 21.2439 3.88503 21.255 3.77184C21.2622 3.69783 21.2552 3.49567 20.8898 3.13024L20.8868 3.12731C20.5149 2.75143 20.3112 2.74537 20.2394 2.75231Z" fill="#1C252E"/>
<path d="M18.4169 2.38835C18.8155 2.27615 19.2294 2.5083 19.3417 2.9069C19.581 3.75552 20.245 4.41871 21.0937 4.65788C21.4923 4.77028 21.7246 5.18501 21.6122 5.58366C21.4998 5.98228 21.0851 6.21456 20.6864 6.10221C19.3352 5.72139 18.2792 4.66439 17.8984 3.31315C17.7862 2.91454 18.0183 2.50068 18.4169 2.38835Z" fill="#1C252E"/>
<path d="M17.0616 11.9311C18.1226 11.0199 19.7974 11.0198 20.8585 11.9311L22.4883 13.3315C22.8025 13.6014 22.8393 14.0749 22.5694 14.3891C22.2996 14.7032 21.826 14.7387 21.5118 14.4692L19.8809 13.0688C19.3821 12.6406 18.538 12.6406 18.0391 13.0688H18.0382L13.878 16.6382C12.8169 17.5496 11.1422 17.5506 10.0811 16.6391L10.0753 16.6333L9.75104 16.3481C9.30293 15.9636 8.53437 15.9165 8.01764 16.2632L3.08796 19.5727C2.74407 19.8036 2.27781 19.7115 2.04694 19.3677C1.81647 19.0238 1.90833 18.5584 2.25202 18.3276L7.18171 15.0171C8.17835 14.3484 9.56928 14.3706 10.5401 15.0639L10.7286 15.2114L10.7354 15.2163L11.0655 15.5063H11.0645C11.5642 15.9298 12.4045 15.9282 12.9014 15.5014V15.5005L17.0616 11.9311Z" fill="#1C252E"/>
</svg>
