<svg width="24" height="24" viewBox="0 0 24 24" fill="none" xmlns="http://www.w3.org/2000/svg">
<path d="M9.90039 4.88965C9.90034 4.29788 9.77184 4.07945 9.6709 3.98438C9.55842 3.87851 9.29534 3.75 8.63965 3.75H5.00977C4.35465 3.75003 4.09207 3.87856 3.97949 3.98438C3.87855 4.07945 3.75005 4.29788 3.75 4.88965V19.1104C3.75005 19.7021 3.87855 19.9205 3.97949 20.0156C4.09207 20.1214 4.35465 20.25 5.00977 20.25H8.63965C9.29534 20.25 9.55842 20.1215 9.6709 20.0156C9.77184 19.9205 9.90034 19.7021 9.90039 19.1104V4.88965ZM11.4004 19.1104C11.4003 19.8682 11.2432 20.5951 10.6992 21.1074C10.1666 21.609 9.4237 21.75 8.63965 21.75H5.00977C4.2259 21.75 3.48368 21.6088 2.95117 21.1074C2.40722 20.5951 2.25005 19.8682 2.25 19.1104V4.88965C2.25005 4.13181 2.40722 3.40491 2.95117 2.89258C3.48368 2.39125 4.2259 2.25003 5.00977 2.25H8.63965C9.4237 2.25 10.1666 2.39104 10.6992 2.89258C11.2432 3.40491 11.4003 4.13181 11.4004 4.88965V19.1104Z" fill="#1C252E"/>
<path d="M20.2504 4.88965C20.2503 4.29788 20.1218 4.07945 20.0209 3.98438C19.9084 3.87851 19.6453 3.75 18.9896 3.75H15.3597C14.7105 3.75003 14.4459 3.8779 14.3314 3.98535C14.2289 4.08162 14.1 4.30116 14.1 4.88965V19.1104C14.1 19.7021 14.2285 19.9205 14.3295 20.0156C14.442 20.1214 14.7046 20.25 15.3597 20.25H18.9896C19.6453 20.25 19.9084 20.1215 20.0209 20.0156C20.1218 19.9205 20.2503 19.7021 20.2504 19.1104V4.88965ZM21.7504 19.1104C21.7503 19.8682 21.5931 20.5951 21.0492 21.1074C20.5166 21.609 19.7737 21.75 18.9896 21.75H15.3597C14.5759 21.75 13.8337 21.6088 13.3011 21.1074C12.7572 20.5951 12.6 19.8682 12.6 19.1104V4.88965C12.6 4.12867 12.7612 3.40277 13.306 2.8916C13.8389 2.39188 14.5794 2.25003 15.3597 2.25H18.9896C19.7737 2.25 20.5166 2.39104 21.0492 2.89258C21.5931 3.40491 21.7503 4.13181 21.7504 4.88965V19.1104Z" fill="#1C252E"/>
</svg>
