<svg width="24" height="24" viewBox="0 0 24 24" fill="none" xmlns="http://www.w3.org/2000/svg">
<path d="M7.74771 9.15501C10.0926 6.80173 13.9094 6.80261 16.2536 9.15697L16.4674 9.38158C18.605 11.7469 18.5348 15.3903 16.2526 17.6628L16.2536 17.6638C13.8996 20.0178 10.0905 20.02 7.74478 17.6628V17.6618C5.3926 15.3077 5.39115 11.5001 7.74771 9.15501ZM15.1852 10.2224C13.4303 8.45893 10.5701 8.45902 8.81509 10.2224L8.81216 10.2253C7.1047 11.9247 7.04961 14.6531 8.65298 16.4275L8.81411 16.5964L8.81509 16.5984C10.5694 18.3609 13.4203 18.3623 15.1862 16.5964L15.1881 16.5954C16.9508 14.8412 16.952 11.9903 15.1862 10.2243L15.1852 10.2224Z" fill="#1C252E"/>
<path d="M11.4666 12.8768C11.7613 12.5821 12.2393 12.5821 12.534 12.8768C12.8282 13.1714 12.8282 13.6486 12.534 13.9432L10.9432 15.534C10.6486 15.8282 10.1714 15.8282 9.87679 15.534C9.58208 15.2393 9.58209 14.7613 9.87679 14.4666L11.4666 12.8768Z" fill="#1C252E"/>
<path d="M18.1457 5.99839C18.4897 5.63157 19.0741 5.62835 19.4231 5.98765L19.424 5.98667C19.775 6.33793 19.7587 6.89577 19.4348 7.24156L19.4289 7.24839L19.424 7.25328C19.0728 7.60455 18.5141 7.58913 18.1682 7.26499C17.7767 6.89803 17.8362 6.3285 18.1457 5.99839ZM18.8557 6.54039L18.8518 6.5355L18.8254 6.51792C18.8155 6.51408 18.8048 6.51309 18.7942 6.51304C18.7726 6.51304 18.7415 6.52078 18.716 6.54624L18.7893 6.61949L18.7805 6.62828L18.7707 6.61949L18.7063 6.68003C18.7075 6.68169 18.7088 6.68328 18.7102 6.68492C18.7352 6.70943 18.7652 6.72007 18.7902 6.72007C18.8101 6.72003 18.8315 6.71125 18.8527 6.69664L18.7805 6.62828L18.7893 6.61949L18.8606 6.69078C18.8647 6.68737 18.8713 6.68614 18.8752 6.68199C18.8847 6.67175 18.8934 6.65474 18.8938 6.63023C18.8941 6.60346 18.8825 6.56808 18.8557 6.54039ZM18.7053 6.55796C18.6904 6.57383 18.6828 6.59522 18.6828 6.61656C18.6829 6.63457 18.6895 6.65783 18.7063 6.68003L18.7707 6.61949L18.7053 6.55796Z" fill="#1C252E"/>
<path d="M17.9631 5.82746C18.4039 5.3572 19.1514 5.35203 19.5998 5.81086L19.6008 5.80989C19.6047 5.81381 19.6077 5.81862 19.6115 5.82258C19.6131 5.82431 19.6157 5.82572 19.6174 5.82746L19.6164 5.82844C20.0504 6.28113 20.0234 6.98025 19.6174 7.4134C19.612 7.41911 19.6063 7.42447 19.6008 7.43C19.1489 7.88188 18.4361 7.8587 17.9972 7.44758C17.4901 6.97217 17.5739 6.24265 17.9631 5.82746ZM19.0373 6.37043L18.7804 6.61067L18.7892 6.61946L18.7804 6.62825L18.7707 6.61946L18.5236 6.8509C18.5257 6.85333 18.5272 6.85632 18.5295 6.85871C18.6704 7.00246 18.8919 7.00459 19.0373 6.86848L18.7804 6.62825L18.7892 6.61946L19.0383 6.8675C19.0439 6.86215 19.0514 6.85864 19.0568 6.85286C19.1434 6.76053 19.2045 6.54362 19.0373 6.37043ZM18.5226 6.38704C18.4157 6.50114 18.391 6.70062 18.5236 6.8509L18.7707 6.61946L18.5226 6.38704ZM19.0226 6.35286C18.9038 6.24163 18.6911 6.21757 18.5392 6.36946L18.7804 6.61067L19.0373 6.37043C19.0321 6.36511 19.0282 6.35809 19.0226 6.35286Z" fill="#1C252E"/>
<path d="M4.56559 19.5785C4.90953 19.2116 5.49399 19.2085 5.84294 19.5677L5.84391 19.5668C6.19493 19.918 6.17868 20.4758 5.85466 20.8216C5.48771 21.213 4.91818 21.1545 4.58806 20.8451L4.57634 20.8334C4.22528 20.482 4.24142 19.9243 4.56559 19.5785ZM5.28337 20.1263L5.13786 20.2709C5.16144 20.2905 5.18741 20.3002 5.21013 20.3002C5.2365 20.3001 5.2694 20.2895 5.29509 20.2621C5.30986 20.2462 5.31755 20.2247 5.31755 20.2035C5.31744 20.1819 5.30866 20.1516 5.28337 20.1263ZM5.21989 20.096C5.19171 20.0957 5.15334 20.108 5.12516 20.138C5.11029 20.1539 5.1027 20.1753 5.1027 20.1966C5.10276 20.2161 5.11099 20.2414 5.13102 20.265L5.27165 20.1156C5.26139 20.106 5.24464 20.0964 5.21989 20.096Z" fill="#1C252E"/>
<path d="M4.38289 19.4075C4.82375 18.9373 5.57124 18.9321 6.01961 19.3909L6.02058 19.3899C6.02434 19.3937 6.02666 19.3988 6.03035 19.4026C6.03217 19.4045 6.03538 19.4056 6.03719 19.4075L6.03621 19.4085C6.47034 19.8612 6.44329 20.5603 6.03719 20.9934C5.56182 21.5003 4.83223 21.4166 4.41707 21.0276C4.41119 21.0221 4.40519 21.0158 4.39949 21.01C3.94783 20.5581 3.97173 19.8462 4.38289 19.4075ZM5.46004 19.9495L4.96004 20.4485C5.10741 20.5879 5.33565 20.5831 5.47664 20.4329C5.58802 20.3141 5.61201 20.1015 5.46004 19.9495ZM4.94246 19.9671C4.83318 20.0838 4.80916 20.2904 4.95222 20.4417C4.95436 20.4438 4.95689 20.4455 4.95906 20.4475L5.20808 20.1819L4.96101 19.9495C4.95501 19.9552 4.94835 19.9608 4.94246 19.9671ZM5.44246 19.9329C5.35034 19.8468 5.13372 19.7848 4.96101 19.9495L5.20808 20.1819L5.44246 19.9329Z" fill="#1C252E"/>
<path d="M20.9557 12.7884C21.2996 12.4216 21.8841 12.4184 22.233 12.7777L22.234 12.7767C22.5849 13.128 22.5687 13.6858 22.2447 14.0316L22.2389 14.0384L22.234 14.0433C21.8827 14.3946 21.324 14.3792 20.9781 14.055C20.5867 13.6881 20.6462 13.1185 20.9557 12.7884ZM21.6656 13.3304L21.6617 13.3255L21.6353 13.308C21.6255 13.3041 21.6147 13.3031 21.6041 13.3031C21.5825 13.3031 21.5514 13.3108 21.526 13.3363L21.5992 13.4095L21.5904 13.4183L21.5807 13.4095L21.5162 13.4701C21.5174 13.4717 21.5187 13.4733 21.5201 13.475C21.5452 13.4995 21.5751 13.5101 21.6002 13.5101C21.62 13.5101 21.6414 13.5013 21.6627 13.4867L21.5904 13.4183L21.5992 13.4095L21.6705 13.4808C21.6747 13.4774 21.6812 13.4762 21.6851 13.472C21.6946 13.4618 21.7033 13.4448 21.7037 13.4203C21.704 13.3935 21.6925 13.3581 21.6656 13.3304ZM21.5152 13.348C21.5003 13.3639 21.4928 13.3853 21.4928 13.4066C21.4928 13.4246 21.4995 13.4479 21.5162 13.4701L21.5807 13.4095L21.5152 13.348Z" fill="#1C252E"/>
<path d="M20.7731 12.6175C21.214 12.1472 21.9615 12.1421 22.4098 12.6009L22.4108 12.5999C22.4147 12.6038 22.4177 12.6087 22.4216 12.6126C22.4232 12.6144 22.4258 12.6158 22.4274 12.6175L22.4264 12.6185C22.8605 13.0712 22.8335 13.7703 22.4274 14.2034C22.4221 14.2091 22.4163 14.2145 22.4108 14.22C21.9589 14.6719 21.2461 14.6487 20.8073 14.2376C20.3002 13.7622 20.384 13.0327 20.7731 12.6175ZM21.8473 13.1605L21.5905 13.4007L21.5993 13.4095L21.5905 13.4183L21.5807 13.4095L21.3337 13.6409C21.3358 13.6434 21.3373 13.6464 21.3395 13.6488C21.4805 13.7925 21.702 13.7946 21.8473 13.6585L21.5905 13.4183L21.5993 13.4095L21.8483 13.6575C21.854 13.6522 21.8614 13.6487 21.8669 13.6429C21.9534 13.5506 22.0146 13.3337 21.8473 13.1605ZM21.3327 13.1771C21.2258 13.2912 21.201 13.4907 21.3337 13.6409L21.5807 13.4095L21.3327 13.1771ZM21.8327 13.1429C21.7138 13.0317 21.5012 13.0076 21.3493 13.1595L21.5905 13.4007L21.8473 13.1605C21.8422 13.1551 21.8383 13.1481 21.8327 13.1429Z" fill="#1C252E"/>
<path d="M1.75627 12.7768C2.10143 12.4316 2.66836 12.4123 3.02287 12.7777L3.02385 12.7768C3.37488 13.128 3.35863 13.6858 3.03459 14.0317C2.66764 14.4231 2.09811 14.3645 1.76799 14.0551L1.75627 14.0434C1.40521 13.692 1.42135 13.1343 1.74553 12.7885L1.75041 12.7826L1.75627 12.7768ZM2.31779 13.4809C2.3397 13.4987 2.36685 13.5102 2.39396 13.5102C2.42509 13.5101 2.44953 13.4975 2.4633 13.4838L2.38908 13.4096L2.31779 13.4809ZM2.3051 13.3481C2.29022 13.3639 2.28264 13.3853 2.28264 13.4067C2.28269 13.4261 2.29093 13.4514 2.31096 13.475L2.38029 13.4008L2.31779 13.3383C2.31376 13.3417 2.30882 13.3441 2.3051 13.3481ZM2.39787 13.4008L2.47502 13.4721C2.48979 13.4562 2.49748 13.4348 2.49748 13.4135C2.49737 13.3919 2.48859 13.3616 2.4633 13.3363L2.39787 13.4008ZM2.39982 13.3061C2.3778 13.3058 2.3513 13.3159 2.32658 13.3334L2.38908 13.391L2.45158 13.3256C2.44131 13.316 2.42455 13.3064 2.39982 13.3061Z" fill="#1C252E"/>
<path d="M1.57954 12.6C2.01731 12.1622 2.74298 12.133 3.19966 12.601L3.20064 12.6C3.20439 12.6037 3.20671 12.6089 3.2104 12.6127C3.21223 12.6146 3.21543 12.6156 3.21724 12.6176L3.21626 12.6185C3.65041 13.0712 3.62335 13.7703 3.21724 14.2035C2.74187 14.7103 2.01228 14.6267 1.59712 14.2377C1.59124 14.2322 1.58524 14.2258 1.57954 14.2201C1.12789 13.7682 1.15178 13.0563 1.56294 12.6176C1.56841 12.6117 1.5739 12.6056 1.57954 12.6ZM2.14009 13.6586C2.29549 13.8061 2.5212 13.7793 2.64009 13.6605L2.38911 13.4096L2.14009 13.6586ZM2.12251 13.1771C2.01325 13.2938 1.98923 13.5005 2.13228 13.6517C2.13441 13.6539 2.13695 13.6555 2.13911 13.6576L2.38033 13.4008L2.14009 13.1605C2.13443 13.166 2.12807 13.1712 2.12251 13.1771ZM2.3979 13.4008L2.65669 13.643C2.76808 13.5241 2.79206 13.3115 2.64009 13.1596L2.3979 13.4008ZM2.62251 13.143C2.53039 13.0569 2.31377 12.9949 2.14107 13.1596L2.38814 13.392L2.62251 13.143Z" fill="#1C252E"/>
<path d="M18.1565 19.5664C18.5016 19.2212 19.0686 19.2018 19.4231 19.5673L19.424 19.5664C19.775 19.9176 19.7587 20.4755 19.4348 20.8212L19.4289 20.8281L19.424 20.833C19.0728 21.1842 18.5141 21.1688 18.1682 20.8447C17.7767 20.4777 17.8362 19.9082 18.1457 19.5781L18.1506 19.5722L18.1565 19.5664ZM18.7707 20.1992L18.7063 20.2597C18.7075 20.2614 18.7088 20.263 18.7102 20.2646C18.7328 20.2865 18.7639 20.2998 18.7942 20.2998C18.8206 20.2997 18.8413 20.2894 18.8557 20.2783L18.7707 20.1992ZM18.8557 20.1201L18.8518 20.1152L18.8254 20.0976C18.8155 20.0938 18.8048 20.0928 18.7942 20.0927C18.7745 20.0927 18.7477 20.0997 18.7238 20.1201L18.8752 20.2617C18.8847 20.2514 18.8934 20.2344 18.8938 20.2099C18.8941 20.1832 18.8825 20.1478 18.8557 20.1201ZM18.7053 20.1377C18.6904 20.1535 18.6828 20.1749 18.6828 20.1962C18.6829 20.2143 18.6895 20.2375 18.7063 20.2597L18.7707 20.1992L18.7053 20.1377Z" fill="#1C252E"/>
<path d="M17.9797 19.3901C18.4175 18.9523 19.1431 18.923 19.5998 19.391L19.6008 19.3901C19.6045 19.3938 19.6068 19.399 19.6105 19.4028C19.6123 19.4047 19.6156 19.4057 19.6174 19.4076L19.6164 19.4086C20.0504 19.8613 20.0234 20.5604 19.6174 20.9936C19.612 20.9993 19.6063 21.0046 19.6008 21.0102C19.1489 21.4621 18.4361 21.4389 17.9972 21.0278C17.4901 20.5523 17.5739 19.8228 17.9631 19.4076C17.9685 19.4018 17.974 19.3957 17.9797 19.3901ZM18.7707 20.1996L18.5236 20.4311C18.5257 20.4335 18.5272 20.4365 18.5295 20.4389C18.6848 20.5976 18.9176 20.5716 19.0392 20.4506L18.7707 20.1996ZM19.0373 19.9506L18.7892 20.1821L19.0568 20.433C19.1434 20.3407 19.2045 20.1238 19.0373 19.9506ZM18.5226 19.9672C18.4157 20.0813 18.391 20.2808 18.5236 20.4311L18.7707 20.1996L18.5226 19.9672ZM19.0226 19.933C18.904 19.822 18.692 19.7977 18.5402 19.9487L18.7892 20.1821L19.0373 19.9506C19.0321 19.9453 19.0282 19.9383 19.0226 19.933Z" fill="#1C252E"/>
<path d="M4.56559 5.99839C4.90953 5.63153 5.49399 5.6284 5.84294 5.98765L5.84391 5.98667C6.19493 6.33794 6.17868 6.89575 5.85466 7.24156C5.48771 7.63296 4.91818 7.57442 4.58806 7.26499L4.57634 7.25328C4.22528 6.90194 4.24142 6.34418 4.56559 5.99839ZM5.28337 6.54624L5.13786 6.69078C5.16144 6.71045 5.18741 6.72007 5.21013 6.72007C5.2365 6.72005 5.2694 6.70938 5.29509 6.68199C5.30986 6.66614 5.31755 6.64465 5.31755 6.62339C5.31744 6.60184 5.30866 6.57154 5.28337 6.54624ZM5.21989 6.51597C5.19171 6.51565 5.15334 6.52792 5.12516 6.55796C5.11029 6.57383 5.1027 6.59522 5.1027 6.61656C5.10276 6.63603 5.11099 6.66128 5.13102 6.68492L5.27165 6.5355C5.26139 6.52593 5.24464 6.51628 5.21989 6.51597Z" fill="#1C252E"/>
<path d="M4.38289 5.82743C4.82375 5.35718 5.57124 5.35206 6.01961 5.81083L6.02058 5.80985C6.02434 5.81361 6.02666 5.81876 6.03035 5.82255C6.03217 5.82446 6.03538 5.8255 6.03719 5.82743L6.03621 5.82841C6.47034 6.2811 6.44329 6.98019 6.03719 7.41337C5.56182 7.92023 4.83223 7.83654 4.41707 7.44755C4.41119 7.44204 4.40519 7.43567 4.39949 7.42997C3.94783 6.97804 3.97173 6.26617 4.38289 5.82743ZM5.46004 6.36942L4.96004 6.86845C5.10741 7.00783 5.33565 7.00305 5.47664 6.85282C5.58802 6.73402 5.61201 6.5214 5.46004 6.36942ZM4.94246 6.387C4.83318 6.50372 4.80916 6.71034 4.95222 6.86161C4.95436 6.86374 4.95689 6.86541 4.95906 6.86747L5.20808 6.60185L4.96101 6.36942C4.95501 6.37515 4.94835 6.38072 4.94246 6.387ZM5.44246 6.35282C5.35034 6.26672 5.13372 6.20475 4.96101 6.36942L5.20808 6.60185L5.44246 6.35282Z" fill="#1C252E"/>
<path d="M11.3557 3.17815C11.6945 2.81688 12.2307 2.83246 12.5686 3.10784L12.634 3.16643L12.6955 3.23479C12.9818 3.58686 12.9487 4.09812 12.6447 4.42229C12.2778 4.81351 11.7082 4.75415 11.3781 4.44475C10.9867 4.07778 11.0462 3.50826 11.3557 3.17815ZM12.01 3.6967C11.9881 3.69643 11.9613 3.70485 11.9367 3.72209L11.9152 3.73772C11.9004 3.75358 11.8928 3.77498 11.8928 3.79631C11.8928 3.81781 11.9008 3.84808 11.926 3.87346C11.9488 3.89625 11.9744 3.90349 11.9943 3.90373C12.0169 3.90389 12.0544 3.89455 12.0852 3.86174C12.0947 3.85147 12.1034 3.83452 12.1037 3.80998C12.104 3.78533 12.0929 3.75455 12.0705 3.72795L12.0617 3.71526L12.0412 3.70256C12.0326 3.69909 12.0223 3.69686 12.01 3.6967Z" fill="#1C252E"/>
<path d="M11.1731 3.00722C11.6111 2.53994 12.2973 2.56407 12.7278 2.91542L12.8108 2.98964L12.8899 3.07753C13.2579 3.52982 13.213 4.18186 12.8274 4.59316C12.352 5.10021 11.6224 5.01639 11.2072 4.62734C10.7001 4.15188 10.7838 3.42239 11.1731 3.00722ZM12.2326 3.53261C12.1373 3.44353 11.9079 3.37985 11.7326 3.56679C11.6213 3.68552 11.5976 3.89823 11.7492 4.05019C11.8208 4.12175 11.9093 4.15262 11.9904 4.1537C12.0755 4.15474 12.1829 4.12215 12.2668 4.03261C12.356 3.93744 12.4198 3.70806 12.2326 3.53261Z" fill="#1C252E"/>
</svg>
