<svg width="24" height="24" viewBox="0 0 24 24" fill="none" xmlns="http://www.w3.org/2000/svg">
<path d="M5.25 14.1499V9.85986C5.25 9.44565 5.58579 9.10986 6 9.10986C6.41421 9.10986 6.75 9.44565 6.75 9.85986V14.1499C6.75 14.5641 6.41421 14.8999 6 14.8999C5.58579 14.8999 5.25 14.5641 5.25 14.1499Z" fill="#1C252E"/>
<path d="M8.25 15.5698V8.43018C8.25 8.01596 8.58579 7.68018 9 7.68018C9.41421 7.68018 9.75 8.01596 9.75 8.43018V15.5698C9.75 15.984 9.41421 16.3198 9 16.3198C8.58579 16.3198 8.25 15.984 8.25 15.5698Z" fill="#1C252E"/>
<path d="M11.25 17V7C11.25 6.58579 11.5858 6.25 12 6.25C12.4142 6.25 12.75 6.58579 12.75 7V17C12.75 17.4142 12.4142 17.75 12 17.75C11.5858 17.75 11.25 17.4142 11.25 17Z" fill="#1C252E"/>
<path d="M14.25 15.5698V8.43018C14.25 8.01596 14.5858 7.68018 15 7.68018C15.4142 7.68018 15.75 8.01596 15.75 8.43018V15.5698C15.75 15.984 15.4142 16.3198 15 16.3198C14.5858 16.3198 14.25 15.984 14.25 15.5698Z" fill="#1C252E"/>
<path d="M17.25 14.1499V9.85986C17.25 9.44565 17.5858 9.10986 18 9.10986C18.4142 9.10986 18.75 9.44565 18.75 9.85986V14.1499C18.75 14.5641 18.4142 14.8999 18 14.8999C17.5858 14.8999 17.25 14.5641 17.25 14.1499Z" fill="#1C252E"/>
<path d="M21.25 12C21.25 6.89137 17.1086 2.75 12 2.75C6.89137 2.75 2.75 6.89137 2.75 12C2.75 17.1086 6.89137 21.25 12 21.25C17.1086 21.25 21.25 17.1086 21.25 12ZM22.75 12C22.75 17.9371 17.9371 22.75 12 22.75C6.06294 22.75 1.25 17.9371 1.25 12C1.25 6.06294 6.06294 1.25 12 1.25C17.9371 1.25 22.75 6.06294 22.75 12Z" fill="#1C252E"/>
</svg>
