<svg width="24" height="24" viewBox="0 0 24 24" fill="none" xmlns="http://www.w3.org/2000/svg">
<path d="M21.25 9C21.25 6.57397 20.7603 5.0708 19.8447 4.15527C18.9292 3.23974 17.426 2.75 15 2.75H9C6.57397 2.75 5.0708 3.23974 4.15527 4.15527C3.23974 5.0708 2.75 6.57397 2.75 9V15C2.75 17.426 3.23974 18.9292 4.15527 19.8447C5.0708 20.7603 6.57397 21.25 9 21.25H15C17.426 21.25 18.9292 20.7603 19.8447 19.8447C20.7603 18.9292 21.25 17.426 21.25 15V9ZM22.75 15C22.75 17.574 22.2397 19.5708 20.9053 20.9053C19.5708 22.2397 17.574 22.75 15 22.75H9C6.42603 22.75 4.4292 22.2397 3.09473 20.9053C1.76026 19.5708 1.25 17.574 1.25 15V9C1.25 6.42603 1.76026 4.4292 3.09473 3.09473C4.4292 1.76026 6.42603 1.25 9 1.25H15C17.574 1.25 19.5708 1.76026 20.9053 3.09473C22.2397 4.4292 22.75 6.42603 22.75 9V15Z" fill="#1C252E"/>
<path d="M10.9902 15.1802C10.9902 14.4236 10.3767 13.8101 9.62012 13.8101C8.86349 13.8101 8.25 14.4235 8.25 15.1802C8.25007 15.9367 8.86353 16.5503 9.62012 16.5503C10.3767 16.5502 10.9902 15.9367 10.9902 15.1802ZM12.4902 15.1802C12.4902 16.7651 11.2051 18.0502 9.62012 18.0503C8.0351 18.0503 6.75007 16.7652 6.75 15.1802C6.75 13.5951 8.03506 12.3101 9.62012 12.3101C11.2051 12.3101 12.4902 13.5952 12.4902 15.1802Z" fill="#1C252E"/>
<path d="M10.99 15.1802V7.77002C10.99 7.35581 11.3258 7.02002 11.74 7.02002C12.1542 7.02002 12.49 7.35581 12.49 7.77002V15.1802C12.4899 15.5943 12.1541 15.9302 11.74 15.9302C11.3258 15.9302 10.9901 15.5943 10.99 15.1802Z" fill="#1C252E"/>
<path d="M10.99 8.38951V7.77037C10.99 7.17422 11.2273 6.61309 11.7058 6.26549C12.1854 5.91731 12.7929 5.867 13.366 6.05944L13.3669 6.05846L15.7068 6.83873C16.1677 6.99236 16.5468 7.31088 16.8074 7.67272C17.0679 8.03463 17.2498 8.4954 17.2498 8.98033V9.59948C17.2498 10.2024 17.0089 10.7644 16.5271 11.1102C16.0466 11.4551 15.4404 11.503 14.8728 11.3104L12.533 10.5311C12.072 10.3775 11.6929 10.059 11.4324 9.69713C11.1719 9.33522 10.99 8.87445 10.99 8.38951ZM12.49 8.38951C12.49 8.50455 12.5382 8.66464 12.6501 8.82018C12.7621 8.97574 12.8985 9.07192 13.0076 9.10826L15.3474 9.88854L15.3523 9.89049C15.5432 9.95581 15.6301 9.90797 15.6531 9.89147C15.6768 9.8742 15.7498 9.80518 15.7498 9.59948V8.98033C15.7498 8.86527 15.7016 8.70525 15.5896 8.54967C15.4777 8.39428 15.3421 8.29802 15.2332 8.26158L12.8904 7.48033C12.6946 7.41422 12.6086 7.46345 12.5867 7.47936C12.5624 7.49708 12.49 7.56727 12.49 7.77037V8.38951Z" fill="#1C252E"/>
</svg>
