<svg width="24" height="24" viewBox="0 0 24 24" fill="none" xmlns="http://www.w3.org/2000/svg">
<path d="M1.25 16.2098V7.78992C1.25 6.16893 1.50953 4.84972 2.38965 3.9696C3.26977 3.08949 4.58898 2.82996 6.20996 2.82996H12.5195C13.8619 2.82996 15.0256 3.00382 15.8906 3.55066C16.8134 4.13415 17.2738 5.05929 17.375 6.24792H17.377C17.3967 6.45241 17.3952 6.81196 17.3916 7.07605C17.3897 7.21773 17.3862 7.34939 17.3838 7.44519C17.3826 7.49318 17.3816 7.53304 17.3809 7.56042C17.3805 7.57382 17.3801 7.58436 17.3799 7.59167V7.60339C17.3668 8.01736 17.0204 8.34296 16.6064 8.32996C16.1925 8.31688 15.8679 7.97043 15.8809 7.55652V7.54675C15.8811 7.54015 15.8815 7.53015 15.8818 7.51746C15.8826 7.4917 15.8836 7.45395 15.8848 7.40808C15.8871 7.31608 15.8898 7.19002 15.8916 7.05554C15.8955 6.76771 15.894 6.49807 15.8838 6.39246L15.8828 6.38269C15.8123 5.53608 15.5236 5.09411 15.0889 4.81921C14.5939 4.50624 13.7869 4.32996 12.5195 4.32996H6.20996C4.67099 4.32996 3.88507 4.59528 3.4502 5.03015C3.01532 5.46502 2.75 6.25094 2.75 7.78992V16.2098C2.75 17.3329 3.08713 18.3393 3.83008 18.9569L4.43555 19.3895C4.7725 19.6302 4.85082 20.0984 4.61035 20.4354C4.36965 20.7724 3.90149 20.8508 3.56445 20.6102L2.93359 20.16C2.92056 20.1507 2.90791 20.1409 2.89551 20.1307C1.66894 19.1272 1.25 17.5992 1.25 16.2098Z" fill="#1C252E"/>
<path d="M15.9905 16.2097V10.95C15.9905 10.5357 16.3263 10.2 16.7405 10.2C17.1545 10.2002 17.4905 10.5359 17.4905 10.95V16.2097C17.4905 17.8307 17.23 19.1499 16.3499 20.03C15.4697 20.9101 14.1505 21.1697 12.5295 21.1697H7.26001C6.8458 21.1697 6.51001 20.8339 6.51001 20.4197C6.51016 20.0056 6.84589 19.6697 7.26001 19.6697H12.5295C14.0684 19.6697 14.8544 19.4043 15.2893 18.9695C15.7242 18.5346 15.9905 17.7487 15.9905 16.2097Z" fill="#1C252E"/>
<path d="M16.1257 14.7195C16.3636 14.3804 16.8315 14.2981 17.1706 14.5359L19.9509 16.4861L19.9529 16.4871C20.5229 16.8894 20.8308 16.8248 20.9245 16.7761C21.0188 16.7271 21.2497 16.5112 21.2497 15.8103V6.73999C21.2497 6.32585 21.5856 5.99012 21.9997 5.98999C22.414 5.98999 22.7497 6.32578 22.7497 6.73999V15.8103C22.7497 16.7789 22.4216 17.6887 21.616 18.1072C20.8098 18.5259 19.8775 18.2702 19.0876 17.7126V17.7117L16.3093 15.7644C15.9703 15.5266 15.8881 15.0586 16.1257 14.7195Z" fill="#1C252E"/>
<path d="M21.4897 1.65973C21.7826 1.36684 22.2573 1.36684 22.5502 1.65973C22.8431 1.95263 22.8431 2.42739 22.5502 2.72028L2.55024 22.7203C2.25734 23.0132 1.78258 23.0132 1.48969 22.7203C1.1968 22.4274 1.1968 21.9526 1.48969 21.6597L21.4897 1.65973Z" fill="#1C252E"/>
</svg>
