<svg width="24" height="24" viewBox="0 0 24 24" fill="none" xmlns="http://www.w3.org/2000/svg">
<path d="M21.25 9C21.25 6.57397 20.7603 5.0708 19.8447 4.15527C18.9292 3.23974 17.426 2.75 15 2.75H9C6.57397 2.75 5.0708 3.23974 4.15527 4.15527C3.23974 5.0708 2.75 6.57397 2.75 9V15C2.75 17.426 3.23974 18.9292 4.15527 19.8447C5.0708 20.7603 6.57397 21.25 9 21.25H15C17.426 21.25 18.9292 20.7603 19.8447 19.8447C20.7603 18.9292 21.25 17.426 21.25 15V9ZM22.75 15C22.75 17.574 22.2397 19.5708 20.9053 20.9053C19.5708 22.2397 17.574 22.75 15 22.75H9C6.42603 22.75 4.4292 22.2397 3.09473 20.9053C1.76026 19.5708 1.25 17.574 1.25 15V9C1.25 6.42603 1.76026 4.4292 3.09473 3.09473C4.4292 1.76026 6.42603 1.25 9 1.25H15C17.574 1.25 19.5708 1.76026 20.9053 3.09473C22.2397 4.4292 22.75 6.42603 22.75 9V15Z" fill="#1C252E"/>
<path d="M6.14001 21.48V2.52002C6.14001 2.10581 6.4758 1.77002 6.89001 1.77002C7.30423 1.77002 7.64001 2.10581 7.64001 2.52002V21.48C7.64001 21.8942 7.30423 22.23 6.89001 22.23C6.4758 22.23 6.14001 21.8942 6.14001 21.48Z" fill="#1C252E"/>
<path d="M16.14 21.48V2.52002C16.14 2.10581 16.4758 1.77002 16.89 1.77002C17.3042 1.77002 17.64 2.10581 17.64 2.52002V21.48C17.64 21.8942 17.3042 22.23 16.89 22.23C16.4758 22.23 16.14 21.8942 16.14 21.48Z" fill="#1C252E"/>
<path d="M6.88965 6.21997C7.30386 6.21997 7.63965 6.55576 7.63965 6.96997C7.63965 7.38418 7.30386 7.71997 6.88965 7.71997H2.54004C2.12583 7.71997 1.79004 7.38418 1.79004 6.96997C1.79004 6.55576 2.12583 6.21997 2.54004 6.21997H6.88965Z" fill="#1C252E"/>
<path d="M6.89038 11.25C7.30443 11.2502 7.64038 11.5859 7.64038 12C7.64038 12.4141 7.30443 12.7498 6.89038 12.75H2.03003C1.61582 12.75 1.28003 12.4142 1.28003 12C1.28003 11.5858 1.61582 11.25 2.03003 11.25H6.89038Z" fill="#1C252E"/>
<path d="M6.89014 16.22C7.30428 16.2201 7.64014 16.5558 7.64014 16.97C7.64014 17.3841 7.30428 17.7199 6.89014 17.72H2.47998C2.06577 17.72 1.72998 17.3842 1.72998 16.97C1.72998 16.5558 2.06577 16.22 2.47998 16.22H6.89014Z" fill="#1C252E"/>
<path d="M21.8896 6.21997C22.3039 6.21997 22.6396 6.55576 22.6396 6.96997C22.6396 7.38418 22.3039 7.71997 21.8896 7.71997H17.54C17.1258 7.71997 16.79 7.38418 16.79 6.96997C16.79 6.55576 17.1258 6.21997 17.54 6.21997H21.8896Z" fill="#1C252E"/>
<path d="M21.8904 11.25C22.3044 11.2502 22.6404 11.5859 22.6404 12C22.6404 12.4141 22.3044 12.7498 21.8904 12.75H17.03C16.6158 12.75 16.28 12.4142 16.28 12C16.28 11.5858 16.6158 11.25 17.03 11.25H21.8904Z" fill="#1C252E"/>
<path d="M16.97 11.25C17.3842 11.25 17.72 11.5858 17.72 12C17.72 12.4142 17.3842 12.75 16.97 12.75H5.96997C5.55576 12.75 5.21997 12.4142 5.21997 12C5.21997 11.5858 5.55576 11.25 5.96997 11.25H16.97Z" fill="#1C252E"/>
<path d="M21.8901 16.22C22.3043 16.2201 22.6401 16.5558 22.6401 16.97C22.6401 17.3841 22.3043 17.7199 21.8901 17.72H17.48C17.0658 17.72 16.73 17.3842 16.73 16.97C16.73 16.5558 17.0658 16.22 17.48 16.22H21.8901Z" fill="#1C252E"/>
</svg>
