<svg width="24" height="24" viewBox="0 0 24 24" fill="none" xmlns="http://www.w3.org/2000/svg">
<path d="M21.25 12C21.25 6.89421 17.1058 2.75 12 2.75C6.89421 2.75 2.75 6.89421 2.75 12C2.75 17.1058 6.89421 21.25 12 21.25C12.9169 21.25 13.8013 21.1136 14.6348 20.8623C14.3865 20.2882 14.25 19.6564 14.25 19C14.25 17.5062 14.9384 16.1627 16.0322 15.2939L16.1885 15.1748C16.9783 14.5958 17.9515 14.25 19 14.25C19.6605 14.25 20.292 14.3921 20.8662 14.6396C21.117 13.8042 21.25 12.9167 21.25 12ZM22.75 12C22.75 13.4056 22.482 14.7623 21.9746 16.0039C21.8886 16.2143 21.7111 16.3738 21.4932 16.4385C21.2754 16.5031 21.0403 16.4661 20.8535 16.3369C20.3209 15.9682 19.678 15.75 19 15.75C18.2385 15.75 17.5319 16.0172 16.9678 16.4668L16.9658 16.4678C16.2208 17.0591 15.75 17.9747 15.75 19C15.75 19.5333 15.8801 20.0396 16.1123 20.4814L16.2188 20.666L16.2314 20.6875C16.2448 20.7109 16.2663 20.7432 16.2998 20.7822C16.4564 20.9651 16.5155 21.2122 16.459 21.4463C16.4024 21.6804 16.2366 21.8727 16.0137 21.9639C14.7754 22.47 13.4192 22.75 12 22.75C6.06579 22.75 1.25 17.9342 1.25 12C1.25 6.06579 6.06579 1.25 12 1.25C17.9342 1.25 22.75 6.06579 22.75 12Z" fill="#1C252E"/>
<path d="M9.79993 8.20855C10.6026 7.74296 11.5797 7.87925 12.465 8.39019L12.464 8.39116L13.6642 9.07964L14.8634 9.77007H14.8654C15.7498 10.2806 16.3575 11.0576 16.3575 11.9849C16.3575 12.9123 15.7498 13.6892 14.8654 14.1998L14.8634 14.2007L12.464 15.5806L12.463 15.5796C11.58 16.0888 10.6043 16.2302 9.8009 15.7662C8.99693 15.3018 8.63 14.3842 8.63 13.3599V10.6099C8.63006 9.58908 8.99816 8.6737 9.79993 8.20855ZM10.13 13.3599C10.13 14.0653 10.3724 14.3641 10.5509 14.4673C10.7295 14.5705 11.1084 14.6308 11.715 14.2808L11.7159 14.2798L14.1163 12.9C14.7207 12.5507 14.8575 12.1923 14.8575 11.9849C14.8575 11.7774 14.7203 11.4191 14.1154 11.0699L11.7159 9.68999C11.1115 9.34113 10.7326 9.40219 10.5529 9.5064C10.3722 9.61121 10.1301 9.91099 10.13 10.6099V13.3599Z" fill="#1C252E"/>
<path d="M22.25 19C22.25 17.8966 21.6995 16.9228 20.8535 16.3369C20.3209 15.9682 19.678 15.75 19 15.75C18.2385 15.75 17.5319 16.0172 16.9678 16.4668L16.9658 16.4678C16.2208 17.0591 15.75 17.9747 15.75 19C15.75 19.5333 15.8801 20.0396 16.1123 20.4814L16.2188 20.666L16.2314 20.6875L16.2998 20.7822L16.3525 20.8516C16.9177 21.6909 17.8877 22.25 19 22.25C19.8226 22.25 20.5641 21.9497 21.1279 21.4424C21.1344 21.4365 21.1418 21.4314 21.1484 21.4258C21.3914 21.222 21.6055 20.9679 21.7725 20.6816L21.7812 20.666C22.0791 20.183 22.25 19.6094 22.25 19ZM23.75 19C23.75 19.8906 23.5007 20.7371 23.0586 21.4541L23.0576 21.4531C22.8104 21.8728 22.4949 22.2474 22.1309 22.5566C21.2947 23.3092 20.1973 23.75 19 23.75C17.3832 23.75 15.9622 22.9396 15.125 21.7129C15.0583 21.6312 14.9973 21.5447 14.9434 21.4531L14.9414 21.4541C14.4993 20.7371 14.25 19.8906 14.25 19C14.25 17.5062 14.9384 16.1627 16.0322 15.2939L16.1885 15.1748C16.9783 14.5958 17.9515 14.25 19 14.25C20.002 14.25 20.9396 14.5722 21.707 15.1035C22.9407 15.9577 23.75 17.3837 23.75 19Z" fill="#1C252E"/>
<path d="M17.4188 17.4007C17.711 17.1074 18.1858 17.1066 18.4793 17.3987L20.5994 19.5081C20.8929 19.8003 20.8935 20.2751 20.6014 20.5687C20.3092 20.8622 19.8344 20.8638 19.5408 20.5716L17.4207 18.4612C17.1274 18.169 17.1266 17.6942 17.4188 17.4007Z" fill="#1C252E"/>
<path d="M19.5208 17.4288C19.8143 17.1367 20.2891 17.1374 20.5814 17.4307C20.8734 17.7242 20.8726 18.1991 20.5794 18.4913L18.4593 20.6016C18.1657 20.8938 17.6909 20.8923 17.3987 20.5987C17.1066 20.3051 17.1071 19.8304 17.4007 19.5382L19.5208 17.4288Z" fill="#1C252E"/>
</svg>
