<svg width="24" height="24" viewBox="0 0 24 24" fill="none" xmlns="http://www.w3.org/2000/svg">
<path d="M8.78997 15.9198V12.536L8.59758 12.7508C8.32079 13.059 7.84714 13.0843 7.53899 12.8075C7.23092 12.5307 7.20559 12.057 7.48235 11.7489L8.98235 10.079C9.18995 9.84788 9.51844 9.76859 9.80852 9.87974C10.0985 9.99096 10.29 10.2693 10.29 10.5799V15.9198C10.29 16.334 9.95418 16.6698 9.53997 16.6698C9.12575 16.6698 8.78997 16.334 8.78997 15.9198Z" fill="#1C252E"/>
<path d="M11.4145 1.53125C11.6736 1.20806 12.146 1.15596 12.4692 1.41504C12.7922 1.67406 12.8442 2.14562 12.5854 2.46875L10.605 4.93945C10.3458 5.26233 9.87434 5.31367 9.55126 5.05468C9.22808 4.7956 9.17597 4.32416 9.43505 4.00097L11.4145 1.53125Z" fill="#1C252E"/>
<path d="M2.35999 13.1096C2.36007 10.9332 3.11179 8.9477 4.31018 7.34985C4.55874 7.01863 5.02867 6.95195 5.35999 7.20044C5.69117 7.449 5.75884 7.91894 5.51038 8.25024C4.4889 9.61221 3.86007 11.2863 3.85999 13.1096C3.85999 17.6053 7.50402 21.25 11.9996 21.2502C16.4954 21.2502 20.1403 17.6054 20.1403 13.1096C20.1401 8.614 16.4953 4.96997 11.9996 4.96997C11.3863 4.97 10.7843 5.05163 10.191 5.19067C9.78782 5.28507 9.38418 5.03433 9.28967 4.6311C9.19521 4.22785 9.44599 3.82425 9.84924 3.72974C10.5356 3.56889 11.2533 3.47 11.9996 3.46997C17.3237 3.46997 21.6401 7.78557 21.6403 13.1096C21.6403 18.4338 17.3238 22.7502 11.9996 22.7502C6.67559 22.75 2.35999 18.4337 2.35999 13.1096Z" fill="#1C252E"/>
<path d="M15.25 12.5801C15.25 11.8943 14.6858 11.3301 14 11.3301C13.3118 11.3301 12.75 11.8867 12.75 12.5801V13.9297C12.75 14.6155 13.3142 15.1797 14 15.1797C14.6858 15.1797 15.25 14.6155 15.25 13.9297V12.5801ZM16.75 13.9297C16.75 15.4439 15.5142 16.6797 14 16.6797C12.4858 16.6797 11.25 15.4439 11.25 13.9297V12.5801C11.25 11.0534 12.4882 9.83008 14 9.83008C15.5142 9.83008 16.75 11.0659 16.75 12.5801V13.9297Z" fill="#1C252E"/>
</svg>
