<svg width="24" height="24" viewBox="0 0 24 24" fill="none" xmlns="http://www.w3.org/2000/svg">
<path d="M1.23999 11.8398C1.24009 7.83715 4.50434 4.57024 8.48999 4.57024H8.49194L14.5691 4.58489L13.4812 3.54095C13.1822 3.25424 13.172 2.77935 13.4587 2.4804C13.7455 2.18168 14.2204 2.17229 14.5193 2.45891L16.9587 4.79876C17.18 5.01094 17.2502 5.33674 17.1355 5.62102C17.0207 5.90505 16.7446 6.09049 16.4382 6.08977L8.48901 6.07024C5.33523 6.07078 2.74009 8.6629 2.73999 11.8398C2.73999 13.4222 3.3848 14.8645 4.43042 15.9101C4.72302 16.203 4.72321 16.6778 4.43042 16.9706C4.13762 17.2633 3.66275 17.2632 3.36987 16.9706C2.05549 15.6563 1.23999 13.8374 1.23999 11.8398Z" fill="#1C252E"/>
<path d="M21.2602 12.1596C21.2601 10.5774 20.6153 9.13581 19.5698 8.09027C19.2769 7.79737 19.2769 7.32261 19.5698 7.02972C19.8627 6.73684 20.3374 6.73683 20.6303 7.02972C21.9446 8.34402 22.7601 10.1621 22.7602 12.1596C22.7602 16.1622 19.4958 19.43 15.5102 19.4301H15.5083L9.43013 19.4135L10.519 20.4584C10.8179 20.7451 10.828 21.22 10.5415 21.519C10.2548 21.8179 9.77987 21.8281 9.48091 21.5414L7.04048 19.2016C6.81927 18.9894 6.75001 18.6636 6.8647 18.3793C6.97942 18.0951 7.25545 17.9088 7.56197 17.9096L15.5102 17.9291C18.6644 17.929 21.2602 15.3368 21.2602 12.1596Z" fill="#1C252E"/>
<path d="M15 11.25C15.4142 11.25 15.75 11.5858 15.75 12C15.75 12.4142 15.4142 12.75 15 12.75H9C8.58579 12.75 8.25 12.4142 8.25 12C8.25 11.5858 8.58579 11.25 9 11.25H15Z" fill="#1C252E"/>
</svg>
