<svg width="24" height="24" viewBox="0 0 24 24" fill="none" xmlns="http://www.w3.org/2000/svg">
<path d="M18.5388 4.40067C18.8312 4.10751 19.306 4.1065 19.5993 4.39872C23.8035 8.59208 23.8027 15.3974 19.6003 19.5999C19.3074 19.8928 18.8327 19.8928 18.5398 19.5999C18.2471 19.307 18.2469 18.8322 18.5398 18.5393C22.157 14.9219 22.1562 9.06776 18.5407 5.46122C18.2476 5.1688 18.2466 4.69397 18.5388 4.40067Z" fill="#1C252E"/>
<path d="M4.39982 4.39982C4.69272 4.10698 5.1675 4.10694 5.46037 4.39982C5.75319 4.69269 5.75319 5.16748 5.46037 5.46036C1.84289 9.07785 1.84357 14.9329 5.45939 18.5395C5.75258 18.832 5.75379 19.3068 5.46135 19.6C5.16889 19.8932 4.69408 19.8933 4.4008 19.601C0.196626 15.4076 0.197307 8.60233 4.39982 4.39982Z" fill="#1C252E"/>
<path d="M15.0545 20.701C15.446 20.5657 15.8732 20.7735 16.0086 21.1649C16.144 21.5564 15.9362 21.9836 15.5448 22.119C14.3897 22.5184 13.1983 22.6992 12.0067 22.7098H11.9999C10.7989 22.7098 9.60598 22.517 8.45493 22.119C8.06347 21.9836 7.85572 21.5564 7.99106 21.1649C8.12643 20.7734 8.55371 20.5657 8.94516 20.701C9.93244 21.0424 10.9577 21.2093 11.995 21.2098C13.0426 21.2003 14.0703 21.0413 15.0545 20.701Z" fill="#1C252E"/>
<path d="M11.9998 1.29004C13.2006 1.29004 14.3937 1.48291 15.5447 1.88086C15.9361 2.01621 16.1438 2.44353 16.0086 2.83496C15.8732 3.22643 15.4459 3.4342 15.0545 3.29883C14.0657 2.95696 13.0387 2.79004 11.9998 2.79004C10.9608 2.79006 9.93391 2.95691 8.9451 3.29883C8.55363 3.4342 8.12636 3.22643 7.991 2.83496C7.85581 2.44356 8.06348 2.0162 8.45486 1.88086C9.60589 1.48286 10.7989 1.29006 11.9998 1.29004Z" fill="#1C252E"/>
<path d="M9.32495 7.56525C10.1733 7.0751 11.2075 7.17478 12.1892 7.68342L12.3855 7.79084L15.2859 9.47053C16.3247 10.0707 17.0094 10.9645 17.0095 12.0096C17.0095 13.0549 16.3239 13.9494 15.2849 14.5496L15.2839 14.5487L12.3855 16.2293C11.3468 16.8295 10.23 16.977 9.32495 16.4539C8.42029 15.931 7.99006 14.8899 7.98999 13.6903V10.3299C7.99001 9.13013 8.42024 8.08823 9.32495 7.56525ZM9.48999 13.6903C9.49006 14.5701 9.79474 14.994 10.075 15.1561C10.3549 15.3179 10.8734 15.3702 11.6345 14.9305L14.5339 13.2508C15.295 12.8111 15.5095 12.3343 15.5095 12.0096C15.5094 11.6849 15.2956 11.2089 14.5349 10.7694L11.6345 9.08869C10.8735 8.64917 10.3549 8.70227 10.075 8.86408C9.79474 9.02618 9.49001 9.44998 9.48999 10.3299V13.6903Z" fill="#1C252E"/>
</svg>
