<svg width="24" height="24" viewBox="0 0 24 24" fill="none" xmlns="http://www.w3.org/2000/svg">
<path d="M20.25 7V3.75H17C16.5858 3.75 16.25 3.41421 16.25 3C16.25 2.58579 16.5858 2.25 17 2.25H21C21.4142 2.25 21.75 2.58579 21.75 3V7C21.75 7.41421 21.4142 7.75 21 7.75C20.5858 7.75 20.25 7.41421 20.25 7Z" fill="#1C252E"/>
<path d="M20.4697 2.46967C20.7626 2.17678 21.2373 2.17678 21.5302 2.46967C21.8231 2.76256 21.8231 3.23732 21.5302 3.53022L15.5302 9.53022C15.2373 9.82311 14.7626 9.82311 14.4697 9.53022C14.1768 9.23732 14.1768 8.76256 14.4697 8.46967L20.4697 2.46967Z" fill="#1C252E"/>
<path d="M2.25 17C2.25 16.5858 2.58579 16.25 3 16.25C3.41421 16.25 3.75 16.5858 3.75 17V20.25H7C7.41421 20.25 7.75 20.5858 7.75 21C7.75 21.4142 7.41421 21.75 7 21.75H3C2.58579 21.75 2.25 21.4142 2.25 21V17Z" fill="#1C252E"/>
<path d="M8.46967 14.4697C8.76256 14.1768 9.23732 14.1768 9.53022 14.4697C9.82311 14.7626 9.82311 15.2373 9.53022 15.5302L3.53022 21.5302C3.23732 21.8231 2.76256 21.8231 2.46967 21.5302C2.17678 21.2373 2.17678 20.7626 2.46967 20.4697L8.46967 14.4697Z" fill="#1C252E"/>
<path d="M1.25 12C1.25 6.06579 6.06579 1.25 12 1.25C12.7403 1.25 13.4695 1.32536 14.167 1.46484C14.573 1.54605 14.8368 1.94068 14.7559 2.34668C14.6746 2.75281 14.2792 3.0167 13.873 2.93555C13.2705 2.81504 12.6396 2.75 12 2.75C6.89421 2.75 2.75 6.89421 2.75 12C2.75 12.6392 2.81446 13.2592 2.93457 13.8506C3.01701 14.2564 2.75541 14.6528 2.34961 14.7354C1.94371 14.8178 1.54733 14.5553 1.46484 14.1494C1.32498 13.4609 1.25 12.7407 1.25 12Z" fill="#1C252E"/>
<path d="M21.2505 12.0001C21.2505 11.3717 21.1856 10.751 21.0649 10.1475C20.9837 9.74139 21.2467 9.34599 21.6528 9.26471C22.0589 9.1835 22.4543 9.44662 22.5356 9.85261C22.6749 10.549 22.7505 11.2686 22.7505 12.0001C22.7505 17.9341 17.9345 22.7498 12.0005 22.7501C11.2601 22.7501 10.53 22.6747 9.83251 22.5352C9.4267 22.4538 9.16366 22.0593 9.24462 21.6534C9.32585 21.2472 9.72126 20.9833 10.1274 21.0645C10.7299 21.185 11.361 21.2501 12.0005 21.2501C17.106 21.2498 21.2505 17.1057 21.2505 12.0001Z" fill="#1C252E"/>
</svg>
