<svg width="24" height="24" viewBox="0 0 24 24" fill="none" xmlns="http://www.w3.org/2000/svg">
<path d="M13.1603 14.6504C13.1603 14.2178 12.809 13.8701 12.3801 13.8701H10.09C9.84912 13.8701 9.62262 13.7539 9.48163 13.5586C9.34087 13.3633 9.30229 13.1123 9.37812 12.8838L10.1379 10.5938L10.1848 10.4834C10.3123 10.2385 10.5672 10.0802 10.8498 10.0801H13.9103C14.3244 10.0802 14.6603 10.416 14.6603 10.8301C14.6603 11.2442 14.3244 11.5799 13.9103 11.5801H11.3908L11.1291 12.3701H12.3801C13.6311 12.3701 14.6603 13.383 14.6603 14.6504C14.6602 15.9013 13.6473 16.9297 12.3801 16.9297H10.09C9.67582 16.9297 9.34003 16.5939 9.34003 16.1797C9.34023 15.7656 9.67594 15.4297 10.09 15.4297H12.3801C12.8126 15.4297 13.1602 15.0792 13.1603 14.6504Z" fill="#1C252E"/>
<path d="M11.4145 1.53125C11.6736 1.20806 12.146 1.15596 12.4692 1.41504C12.7922 1.67406 12.8442 2.14562 12.5854 2.46875L10.605 4.93945C10.3458 5.26233 9.87434 5.31367 9.55126 5.05468C9.22808 4.7956 9.17597 4.32416 9.43505 4.00097L11.4145 1.53125Z" fill="#1C252E"/>
<path d="M2.35999 13.1096C2.36007 10.9332 3.11179 8.9477 4.31018 7.34985C4.55874 7.01863 5.02867 6.95195 5.35999 7.20044C5.69117 7.449 5.75884 7.91894 5.51038 8.25024C4.4889 9.61221 3.86007 11.2863 3.85999 13.1096C3.85999 17.6053 7.50402 21.25 11.9996 21.2502C16.4954 21.2502 20.1403 17.6054 20.1403 13.1096C20.1401 8.614 16.4953 4.96997 11.9996 4.96997C11.3863 4.97 10.7843 5.05163 10.191 5.19067C9.78782 5.28507 9.38418 5.03433 9.28967 4.6311C9.19521 4.22785 9.44599 3.82425 9.84924 3.72974C10.5356 3.56889 11.2533 3.47 11.9996 3.46997C17.3237 3.46997 21.6401 7.78557 21.6403 13.1096C21.6403 18.4338 17.3238 22.7502 11.9996 22.7502C6.67559 22.75 2.35999 18.4337 2.35999 13.1096Z" fill="#1C252E"/>
</svg>
