<svg width="24" height="24" viewBox="0 0 24 24" fill="none" xmlns="http://www.w3.org/2000/svg">
<path d="M21.25 9C21.25 6.57397 20.7603 5.0708 19.8447 4.15527C18.9292 3.23974 17.426 2.75 15 2.75H9C6.57397 2.75 5.0708 3.23974 4.15527 4.15527C3.23974 5.0708 2.75 6.57397 2.75 9V15C2.75 17.426 3.23974 18.9292 4.15527 19.8447C5.0708 20.7603 6.57397 21.25 9 21.25H15C17.426 21.25 18.9292 20.7603 19.8447 19.8447C20.7603 18.9292 21.25 17.426 21.25 15V9ZM22.75 15C22.75 17.574 22.2397 19.5708 20.9053 20.9053C19.5708 22.2397 17.574 22.75 15 22.75H9C6.42603 22.75 4.4292 22.2397 3.09473 20.9053C1.76026 19.5708 1.25 17.574 1.25 15V9C1.25 6.42603 1.76026 4.4292 3.09473 3.09473C4.4292 1.76026 6.42603 1.25 9 1.25H15C17.574 1.25 19.5708 1.76026 20.9053 3.09473C22.2397 4.4292 22.75 6.42603 22.75 9V15Z" fill="#1C252E"/>
<path d="M21.48 6.36011C21.8942 6.36011 22.23 6.69589 22.23 7.11011C22.23 7.52432 21.8942 7.86011 21.48 7.86011H2.52002C2.10581 7.86011 1.77002 7.52432 1.77002 7.11011C1.77002 6.69589 2.10581 6.36011 2.52002 6.36011H21.48Z" fill="#1C252E"/>
<path d="M7.77002 6.97046V2.11011C7.77002 1.69589 8.10581 1.36011 8.52002 1.36011C8.93423 1.36011 9.27002 1.69589 9.27002 2.11011V6.97046C9.26983 7.38451 8.93412 7.72046 8.52002 7.72046C8.10592 7.72046 7.77021 7.38451 7.77002 6.97046Z" fill="#1C252E"/>
<path d="M14.73 6.52026V2.11011C14.73 1.69589 15.0658 1.36011 15.48 1.36011C15.8942 1.36011 16.23 1.69589 16.23 2.11011V6.52026C16.2299 6.93441 15.8941 7.27026 15.48 7.27026C15.0658 7.27026 14.7301 6.93441 14.73 6.52026Z" fill="#1C252E"/>
<path d="M10.0859 11.0341C10.8366 10.6001 11.7399 10.736 12.5439 11.201L14.625 12.4003L14.626 12.4012C15.4304 12.867 15.9971 13.5834 15.9971 14.4501C15.997 15.3167 15.4304 16.0331 14.626 16.4989L14.625 16.4999L12.5449 17.7001L12.5439 17.6991C11.7398 18.1642 10.8366 18.2993 10.0859 17.8651C9.33545 17.4311 9.00007 16.5804 9 15.6503V13.2499C9.00003 12.3197 9.33539 11.4681 10.0859 11.0341ZM10.5 15.6503C10.5001 16.2598 10.71 16.4939 10.8369 16.5673C10.9634 16.6403 11.269 16.7051 11.7939 16.4012L11.7949 16.4003L13.875 15.2001C14.3995 14.8961 14.497 14.5983 14.4971 14.4501C14.4971 14.3019 14.3999 14.0032 13.875 13.6991L11.7949 12.4999L11.7939 12.4989C11.2688 12.195 10.9634 12.2598 10.8369 12.3329C10.71 12.4063 10.5 12.6402 10.5 13.2499V15.6503Z" fill="#1C252E"/>
</svg>
