<svg width="24" height="24" viewBox="0 0 24 24" fill="none" xmlns="http://www.w3.org/2000/svg">
<path d="M21.25 10V9C21.25 6.57397 20.7603 5.0708 19.8447 4.15527C18.9292 3.23974 17.426 2.75 15 2.75H9C6.57397 2.75 5.0708 3.23974 4.15527 4.15527C3.23974 5.0708 2.75 6.57397 2.75 9V15C2.75 17.426 3.23974 18.9292 4.15527 19.8447C5.0708 20.7603 6.57397 21.25 9 21.25H11C11.4142 21.25 11.75 21.5858 11.75 22C11.75 22.4142 11.4142 22.75 11 22.75H9C6.42603 22.75 4.4292 22.2397 3.09473 20.9053C1.76026 19.5708 1.25 17.574 1.25 15V9C1.25 6.42603 1.76026 4.4292 3.09473 3.09473C4.4292 1.76026 6.42603 1.25 9 1.25H15C17.574 1.25 19.5708 1.76026 20.9053 3.09473C22.2397 4.4292 22.75 6.42603 22.75 9V10C22.75 10.4142 22.4142 10.75 22 10.75C21.5858 10.75 21.25 10.4142 21.25 10Z" fill="#1C252E"/>
<path d="M15.9598 20.5601C15.9598 20.1791 15.6513 19.8699 15.2704 19.8696C14.8893 19.8696 14.58 20.179 14.58 20.5601C14.5802 20.9409 14.8895 21.2495 15.2704 21.2495C15.6511 21.2493 15.9596 20.9408 15.9598 20.5601ZM17.4598 20.5601C17.4596 21.7692 16.4796 22.7493 15.2704 22.7495C14.061 22.7495 13.0802 21.7694 13.08 20.5601C13.08 19.3506 14.0609 18.3696 15.2704 18.3696C16.4797 18.3699 17.4598 19.3507 17.4598 20.5601Z" fill="#1C252E"/>
<path d="M21.2498 19.5999V13.9593C21.2497 13.734 21.2144 13.611 21.1882 13.5531C21.1662 13.5046 21.15 13.4988 21.1492 13.4984C21.13 13.4872 21.0491 13.4593 20.8787 13.4818L20.6775 13.5228L17.7878 14.3128L17.7087 14.3392C17.5409 14.4083 17.45 14.5421 17.45 14.7493V20.5697C17.45 20.9839 17.1142 21.3197 16.7 21.3197C16.2857 21.3197 15.95 20.9839 15.95 20.5697V14.7493C15.9501 13.8466 16.4961 13.1755 17.2429 12.9124L17.3953 12.8656L20.282 12.0765H20.283C20.7417 11.9514 21.3658 11.8858 21.908 12.2034C22.5072 12.5546 22.7497 13.2107 22.7498 13.9593V19.5999C22.7496 20.014 22.4139 20.3499 21.9998 20.3499C21.5857 20.3498 21.2499 20.0139 21.2498 19.5999Z" fill="#1C252E"/>
<path d="M21.2499 19.6001C21.2499 19.2192 20.9413 18.9099 20.5604 18.9097C20.1794 18.9097 19.87 19.219 19.87 19.6001C19.8702 19.981 20.1795 20.2896 20.5604 20.2896C20.9412 20.2893 21.2496 19.9808 21.2499 19.6001ZM22.7499 19.6001C22.7496 20.8093 21.7696 21.7893 20.5604 21.7896C19.3511 21.7896 18.3702 20.8094 18.37 19.6001C18.37 18.3906 19.3509 17.4097 20.5604 17.4097C21.7697 17.4099 22.7499 18.3907 22.7499 19.6001Z" fill="#1C252E"/>
<path d="M21.8027 14.2663C22.2023 14.1575 22.6147 14.3931 22.7236 14.7926C22.8324 15.1922 22.5967 15.6046 22.1972 15.7135L16.9072 17.154C16.5075 17.2628 16.0951 17.0263 15.9863 16.6266C15.8777 16.2272 16.1133 15.8156 16.5127 15.7067L21.8027 14.2663Z" fill="#1C252E"/>
</svg>
