<svg width="24" height="24" viewBox="0 0 24 24" fill="none" xmlns="http://www.w3.org/2000/svg">
<path d="M21.25 9C21.25 6.57397 20.7603 5.0708 19.8447 4.15527C18.9292 3.23974 17.426 2.75 15 2.75H9C6.57397 2.75 5.0708 3.23974 4.15527 4.15527C3.23974 5.0708 2.75 6.57397 2.75 9V15C2.75 17.426 3.23974 18.9292 4.15527 19.8447C5.0708 20.7603 6.57397 21.25 9 21.25H15C17.426 21.25 18.9292 20.7603 19.8447 19.8447C20.7603 18.9292 21.25 17.426 21.25 15V9ZM22.75 15C22.75 17.574 22.2397 19.5708 20.9053 20.9053C19.5708 22.2397 17.574 22.75 15 22.75H9C6.42603 22.75 4.4292 22.2397 3.09473 20.9053C1.76026 19.5708 1.25 17.574 1.25 15V9C1.25 6.42603 1.76026 4.4292 3.09473 3.09473C4.4292 1.76026 6.42603 1.25 9 1.25H15C17.574 1.25 19.5708 1.76026 20.9053 3.09473C22.2397 4.4292 22.75 6.42603 22.75 9V15Z" fill="#1C252E"/>
<path d="M9.58984 8.97998C9.5898 8.33387 9.06609 7.81006 8.41992 7.81006C7.77381 7.81009 7.25004 8.33385 7.25 8.97998C7.25 9.62614 7.77378 10.1499 8.41992 10.1499C9.06612 10.1499 9.58984 9.62613 9.58984 8.97998ZM11.0898 8.97998C11.0898 10.4546 9.8945 11.6499 8.41992 11.6499C6.94534 11.6499 5.75 10.4546 5.75 8.97998C5.75004 7.50544 6.94537 6.31009 8.41992 6.31006C9.89447 6.31006 11.0898 7.50539 11.0898 8.97998Z" fill="#1C252E"/>
<path d="M9.58984 15.02C9.5898 14.3739 9.06609 13.8501 8.41992 13.8501C7.77381 13.8501 7.25004 14.3739 7.25 15.02C7.25 15.6662 7.77378 16.1899 8.41992 16.1899C9.06612 16.1899 9.58984 15.6662 9.58984 15.02ZM11.0898 15.02C11.0898 16.4946 9.8945 17.6899 8.41992 17.6899C6.94534 17.6899 5.75 16.4946 5.75 15.02C5.75004 13.5455 6.94537 12.3501 8.41992 12.3501C9.89447 12.3501 11.0898 13.5454 11.0898 15.02Z" fill="#1C252E"/>
<path d="M17.0505 8.09938C17.3822 7.85131 17.8522 7.91913 18.1003 8.25074C18.3484 8.58244 18.2807 9.05245 17.949 9.30055L10.6091 14.7908C10.2775 15.0387 9.80743 14.9709 9.55933 14.6394C9.31126 14.3078 9.3791 13.8377 9.7107 13.5896L17.0505 8.09938Z" fill="#1C252E"/>
<path d="M9.55937 9.34086C9.80746 9.00917 10.2775 8.9414 10.6092 9.1895L17.949 14.6797C18.2807 14.9278 18.3485 15.3978 18.1004 15.7295C17.8522 16.061 17.3822 16.1289 17.0506 15.8809L9.71074 10.3907C9.37904 10.1426 9.31128 9.67256 9.55937 9.34086Z" fill="#1C252E"/>
</svg>
