<svg width="24" height="24" viewBox="0 0 24 24" fill="none" xmlns="http://www.w3.org/2000/svg">
<path d="M21.25 9C21.25 6.57397 20.7603 5.0708 19.8447 4.15527C18.9292 3.23974 17.426 2.75 15 2.75H9C6.57397 2.75 5.0708 3.23974 4.15527 4.15527C3.23974 5.0708 2.75 6.57397 2.75 9V15C2.75 17.426 3.23974 18.9292 4.15527 19.8447C5.0708 20.7603 6.57397 21.25 9 21.25H14.0342C14.0252 21.2353 14.0157 21.2209 14.0068 21.2061V21.2051C13.5307 20.4145 13.25 19.4824 13.25 18.5C13.25 16.8463 14.0085 15.3611 15.2256 14.4014C16.1234 13.6806 17.2657 13.25 18.5 13.25C19.5105 13.25 20.4518 13.5333 21.25 14.0254V9ZM22.75 15C22.75 15.2128 22.7505 15.4691 22.7266 15.7207C22.6977 16.0238 22.4886 16.28 22.1973 16.3682C21.9058 16.4563 21.5894 16.3594 21.3975 16.123C20.7153 15.2829 19.6769 14.75 18.5 14.75C17.617 14.75 16.8015 15.0578 16.1602 15.5742L15.9961 15.7109C15.2258 16.3917 14.75 17.388 14.75 18.5C14.75 19.1967 14.949 19.8636 15.292 20.4326L15.293 20.4346C15.518 20.8095 15.7999 21.1313 16.1289 21.3945C16.3672 21.5854 16.4661 21.9018 16.3789 22.1943C16.2916 22.487 16.0354 22.6975 15.7314 22.7266C15.4796 22.7505 15.2226 22.75 15 22.75H9C6.42603 22.75 4.4292 22.2397 3.09473 20.9053C1.76026 19.5708 1.25 17.574 1.25 15V9C1.25 6.42603 1.76026 4.4292 3.09473 3.09473C4.4292 1.76026 6.42603 1.25 9 1.25H15C17.574 1.25 19.5708 1.76026 20.9053 3.09473C22.2397 4.4292 22.75 6.42603 22.75 9V15Z" fill="#1C252E"/>
<path d="M21.48 6.35986C21.8942 6.35986 22.23 6.69565 22.23 7.10986C22.23 7.52408 21.8942 7.85986 21.48 7.85986H2.52002C2.10581 7.85986 1.77002 7.52408 1.77002 7.10986C1.77002 6.69565 2.10581 6.35986 2.52002 6.35986H21.48Z" fill="#1C252E"/>
<path d="M7.77002 6.97021V2.10986C7.77002 1.69565 8.10581 1.35986 8.52002 1.35986C8.93423 1.35986 9.27002 1.69565 9.27002 2.10986V6.97021C9.26982 7.38426 8.93411 7.72021 8.52002 7.72021C8.10593 7.72021 7.77022 7.38426 7.77002 6.97021Z" fill="#1C252E"/>
<path d="M14.73 6.52002V2.10986C14.73 1.69565 15.0658 1.35986 15.48 1.35986C15.8942 1.35986 16.23 1.69565 16.23 2.10986V6.52002C16.2299 6.93418 15.8942 7.27002 15.48 7.27002C15.0658 7.27002 14.73 6.93418 14.73 6.52002Z" fill="#1C252E"/>
<path d="M22.25 18.5C22.25 17.5974 21.9326 16.7668 21.4033 16.1299L21.3975 16.123C20.7153 15.2829 19.6769 14.75 18.5 14.75C17.617 14.75 16.8015 15.0578 16.1602 15.5742L15.9961 15.7109C15.2258 16.3917 14.75 17.388 14.75 18.5C14.75 19.1967 14.949 19.8636 15.292 20.4326L15.293 20.4346C15.5111 20.7981 15.7834 21.1105 16.0996 21.3691C16.116 21.3807 16.1339 21.3904 16.1494 21.4033C16.7885 21.9345 17.61 22.25 18.5 22.25C19.4506 22.25 20.3054 21.901 20.9629 21.3184L20.9717 21.3105L21.1787 21.1172C21.3786 20.9146 21.5566 20.6852 21.707 20.4346L21.708 20.4326C22.051 19.8636 22.25 19.1967 22.25 18.5ZM23.75 18.5C23.75 19.4826 23.4685 20.4144 22.9922 21.2051C22.7147 21.6675 22.3662 22.0871 21.9561 22.4404L21.957 22.4414C21.0346 23.2587 19.8293 23.75 18.5 23.75C17.2784 23.75 16.1447 23.3247 15.2529 22.6064C15.2323 22.5931 15.2107 22.5809 15.1914 22.5654C14.7206 22.1887 14.3218 21.7309 14.0068 21.2061V21.2051C13.5307 20.4145 13.25 19.4824 13.25 18.5C13.25 16.8463 14.0085 15.3611 15.2256 14.4014C16.1234 13.6806 17.2657 13.25 18.5 13.25C20.14 13.25 21.5987 13.9949 22.5566 15.1709L22.6943 15.3428C23.3614 16.2199 23.75 17.3213 23.75 18.5Z" fill="#1C252E"/>
<path d="M19.751 16.8394C20.0549 16.5585 20.5293 16.5767 20.8105 16.8805C21.0918 17.1845 21.0735 17.6597 20.7695 17.941L18.3691 20.1607C18.0734 20.4342 17.6149 20.425 17.3301 20.1402L16.2197 19.0309C15.9269 18.738 15.927 18.2632 16.2197 17.9703C16.5126 17.6774 16.9874 17.6774 17.2802 17.9703L17.8799 18.5689L19.751 16.8394Z" fill="#1C252E"/>
</svg>
