<svg width="24" height="24" viewBox="0 0 24 24" fill="none" xmlns="http://www.w3.org/2000/svg">
<path d="M11.5312 1.41523C11.8544 1.15625 12.3259 1.20828 12.5849 1.53144L14.5654 4.00117C14.8242 4.32425 14.772 4.7958 14.4492 5.05488C14.126 5.31393 13.6536 5.26274 13.3945 4.93964L11.415 2.46894C11.156 2.14575 11.208 1.67428 11.5312 1.41523Z" fill="#1C252E"/>
<path d="M2.35999 13.1094C2.36018 7.78545 6.67571 3.46992 11.9996 3.46973C12.7462 3.46973 13.4644 3.56858 14.151 3.72949C14.5542 3.824 14.805 4.22762 14.7106 4.63086C14.6161 5.034 14.2123 5.28466 13.8092 5.19043C13.2158 5.05136 12.613 4.96973 11.9996 4.96973C7.50414 4.96992 3.86018 8.61388 3.85999 13.1094C3.85999 17.605 7.50402 21.2498 11.9996 21.25C16.4954 21.25 20.1403 17.6052 20.1403 13.1094C20.1402 11.2861 19.5113 9.61195 18.4899 8.25C18.2414 7.91865 18.3089 7.44874 18.6403 7.2002C18.9716 6.95168 19.4415 7.0183 19.6901 7.34961C20.8885 8.94747 21.6402 10.933 21.6403 13.1094C21.6403 18.4336 17.3238 22.75 11.9996 22.75C6.67559 22.7498 2.35999 18.4335 2.35999 13.1094Z" fill="#1C252E"/>
<path d="M13.1603 14.6504C13.1603 14.2178 12.809 13.8702 12.3801 13.8701H10.09C9.84912 13.8701 9.62262 13.7539 9.48163 13.5586C9.34087 13.3633 9.30229 13.1123 9.37812 12.8838L10.1379 10.5938L10.1848 10.4834C10.3123 10.2385 10.5672 10.0801 10.8498 10.0801H13.9103C14.3244 10.0803 14.6603 10.416 14.6603 10.8301C14.6603 11.2442 14.3244 11.5799 13.9103 11.5801H11.3908L11.1291 12.3701H12.3801C13.6311 12.3702 14.6603 13.383 14.6603 14.6504C14.6602 15.9013 13.6473 16.9297 12.3801 16.9297H10.09C9.67582 16.9297 9.34003 16.5939 9.34003 16.1797C9.34023 15.7656 9.67594 15.4297 10.09 15.4297H12.3801C12.8125 15.4297 13.1602 15.0792 13.1603 14.6504Z" fill="#1C252E"/>
</svg>
