<svg width="24" height="24" viewBox="0 0 24 24" fill="none" xmlns="http://www.w3.org/2000/svg">
<path d="M21.25 9C21.25 6.57397 20.7603 5.0708 19.8447 4.15527C18.9292 3.23974 17.426 2.75 15 2.75H9C6.57397 2.75 5.0708 3.23974 4.15527 4.15527C3.23974 5.0708 2.75 6.57397 2.75 9V15C2.75 17.426 3.23974 18.9292 4.15527 19.8447C5.0708 20.7603 6.57397 21.25 9 21.25H15C17.426 21.25 18.9292 20.7603 19.8447 19.8447C20.7603 18.9292 21.25 17.426 21.25 15V9ZM22.75 15C22.75 17.574 22.2397 19.5708 20.9053 20.9053C19.5708 22.2397 17.574 22.75 15 22.75H9C6.42603 22.75 4.4292 22.2397 3.09473 20.9053C1.76026 19.5708 1.25 17.574 1.25 15V9C1.25 6.42603 1.76026 4.4292 3.09473 3.09473C4.4292 1.76026 6.42603 1.25 9 1.25H15C17.574 1.25 19.5708 1.76026 20.9053 3.09473C22.2397 4.4292 22.75 6.42603 22.75 9V15Z" fill="#1C252E"/>
<path d="M6.25 21.5V2.5C6.25 2.08579 6.58579 1.75 7 1.75C7.41421 1.75 7.75 2.08579 7.75 2.5V21.5C7.75 21.9142 7.41421 22.25 7 22.25C6.58579 22.25 6.25 21.9142 6.25 21.5Z" fill="#1C252E"/>
<path d="M12.2104 15.3101C12.2104 14.9015 11.8788 14.5699 11.4702 14.5698C11.0615 14.5698 10.73 14.9014 10.73 15.3101C10.7301 15.7186 11.0616 16.0503 11.4702 16.0503C11.8787 16.0502 12.2103 15.7186 12.2104 15.3101ZM13.7104 15.3101C13.7103 16.547 12.7071 17.5502 11.4702 17.5503C10.2332 17.5503 9.23011 16.5471 9.22998 15.3101C9.22998 14.0729 10.2331 13.0698 11.4702 13.0698C12.7072 13.0699 13.7104 14.073 13.7104 15.3101Z" fill="#1C252E"/>
<path d="M17.6797 14.31V8.47987C17.6797 8.24423 17.642 8.11407 17.6133 8.05116C17.5889 7.99785 17.5699 7.9875 17.5635 7.98378C17.526 7.96196 17.3751 7.91861 17.0527 8.00429L14.0771 8.81386L14.0762 8.81288C13.835 8.88129 13.71 9.03686 13.71 9.28944V15.2992C13.71 15.7134 13.3742 16.0492 12.96 16.0492C12.5457 16.0492 12.21 15.7134 12.21 15.2992V9.28944C12.2101 8.30378 12.8438 7.59878 13.6797 7.36659L13.6836 7.36562L16.6631 6.55605L16.667 6.55507C17.1343 6.43085 17.7692 6.36721 18.3193 6.68788C18.9283 7.04304 19.1797 7.70874 19.1797 8.47987V14.31C19.1795 14.724 18.8438 15.06 18.4297 15.06C18.0157 15.0598 17.6798 14.724 17.6797 14.31Z" fill="#1C252E"/>
<path d="M17.6704 14.3101C17.6704 13.9015 17.3388 13.5699 16.9302 13.5698C16.5215 13.5698 16.1899 13.9014 16.1899 14.3101C16.1901 14.7186 16.5216 15.0503 16.9302 15.0503C17.3387 15.0502 17.6703 14.7186 17.6704 14.3101ZM19.1704 14.3101C19.1703 15.547 18.1671 16.5502 16.9302 16.5503C15.6931 16.5503 14.6901 15.5471 14.6899 14.3101C14.6899 13.0729 15.6931 12.0698 16.9302 12.0698C18.1672 12.0699 19.1704 13.073 19.1704 14.3101Z" fill="#1C252E"/>
<path d="M18.2325 8.82635C18.6321 8.71751 19.0444 8.9532 19.1534 9.35272C19.2622 9.75237 19.0267 10.1648 18.627 10.2736L13.1573 11.7639C12.7578 11.8727 12.3454 11.6369 12.2364 11.2375C12.1275 10.8379 12.3632 10.4255 12.7628 10.3166L18.2325 8.82635Z" fill="#1C252E"/>
</svg>
