<svg width="24" height="24" viewBox="0 0 24 24" fill="none" xmlns="http://www.w3.org/2000/svg">
<path d="M21.25 9C21.25 6.57397 20.7603 5.0708 19.8447 4.15527C18.9292 3.23974 17.426 2.75 15 2.75H9C6.57397 2.75 5.0708 3.23974 4.15527 4.15527C3.23974 5.0708 2.75 6.57397 2.75 9V15C2.75 17.426 3.23974 18.9292 4.15527 19.8447C5.0708 20.7603 6.57397 21.25 9 21.25H15C17.426 21.25 18.9292 20.7603 19.8447 19.8447C20.7603 18.9292 21.25 17.426 21.25 15V9ZM22.75 15C22.75 17.574 22.2397 19.5708 20.9053 20.9053C19.5708 22.2397 17.574 22.75 15 22.75H9C6.42603 22.75 4.4292 22.2397 3.09473 20.9053C1.76026 19.5708 1.25 17.574 1.25 15V9C1.25 6.42603 1.76026 4.4292 3.09473 3.09473C4.4292 1.76026 6.42603 1.25 9 1.25H15C17.574 1.25 19.5708 1.76026 20.9053 3.09473C22.2397 4.4292 22.75 6.42603 22.75 9V15Z" fill="#1C252E"/>
<path d="M9.60779 7.93209C10.4637 7.44032 11.5115 7.58599 12.474 8.1401L12.475 8.14107L15.0336 9.61959C15.998 10.1749 16.6476 11.0116 16.6478 11.9995C16.6478 12.9875 15.9991 13.825 15.0345 14.3803L15.0336 14.3794L13.7552 15.1196L12.475 15.8588L12.474 15.8598C11.5097 16.415 10.4618 16.5562 9.60681 16.0629C8.75145 15.5694 8.34998 14.5915 8.34998 13.4799V10.52C8.34998 9.40491 8.75047 8.4248 9.60779 7.93209ZM9.84998 13.4799C9.84998 14.2682 10.1237 14.6301 10.3558 14.7641C10.5592 14.8815 10.9309 14.9398 11.4799 14.6879L11.726 14.56L14.2845 13.0805L14.2855 13.0795C14.9709 12.6849 15.1478 12.2664 15.1478 11.9995C15.1476 11.7325 14.9705 11.3148 14.2855 10.9204L14.2845 10.9194L11.726 9.43892C11.0385 9.04313 10.5864 9.09982 10.3549 9.23287C10.1247 9.36522 9.84998 9.72519 9.84998 10.52V13.4799Z" fill="#1C252E"/>
</svg>
