<svg width="24" height="24" viewBox="0 0 24 24" fill="none" xmlns="http://www.w3.org/2000/svg">
<path d="M21.0173 2.64006C21.3101 2.34718 21.7849 2.34721 22.0778 2.64006C22.3707 2.93295 22.3707 3.40771 22.0778 3.7006L2.98698 22.7914C2.69409 23.0843 2.21933 23.0843 1.92643 22.7914C1.63359 22.4985 1.63356 22.0238 1.92643 21.7309L21.0173 2.64006Z" fill="#1C252E"/>
<path d="M8.42071 3.88636C8.42071 3.35918 8.84807 2.93182 9.37526 2.93182H14.6253C15.1524 2.93182 15.5798 3.35918 15.5798 3.88636V4.05682C15.5798 5.28063 16.5719 6.27273 17.7957 6.27273C18.0618 6.27273 18.3198 6.30697 18.5657 6.3713C18.8734 6.45179 19.2127 6.40009 19.4376 6.1752C19.7853 5.82746 19.7136 5.24244 19.2485 5.08253C18.7931 4.92593 18.3043 4.84091 17.7957 4.84091C17.3627 4.84091 17.0116 4.48986 17.0116 4.05682V3.88636C17.0116 2.56841 15.9432 1.5 14.6253 1.5H9.37526C8.0573 1.5 6.98889 2.56841 6.98889 3.88636V4.05682C6.98889 4.48986 6.63784 4.84091 6.2048 4.84091C3.73835 4.84091 1.73889 6.84036 1.73889 9.30682V13.708C1.73889 15.2385 1.73888 16.4384 1.83002 17.3969C1.92292 18.3739 2.11553 19.1739 2.5477 19.8792C2.8439 20.3625 3.21223 20.7955 3.63845 21.1639C3.8915 21.3826 4.26681 21.346 4.50333 21.1095L5.11157 20.5012C5.12062 20.4922 5.11875 20.4771 5.10785 20.4704C4.56198 20.1359 4.10303 19.6769 3.76852 19.131C3.49738 18.6886 3.33834 18.1336 3.25541 17.2614C3.17147 16.3785 3.17071 15.2466 3.17071 13.6705V9.30682C3.17071 7.63114 4.52912 6.27273 6.2048 6.27273C7.42861 6.27273 8.42071 5.28063 8.42071 4.05682V3.88636Z" fill="#1C252E"/>
<path d="M6.97752 20.9835C6.79348 20.966 6.60975 21.028 6.47902 21.1587L6.41437 21.2233C5.99065 21.6471 6.18727 22.3436 6.78353 22.4032C6.80295 22.4051 6.82243 22.407 6.84199 22.4089C7.80052 22.5 9.00033 22.5 10.5308 22.5H13.4697C15.0001 22.5 16.2 22.5 17.1585 22.4089C18.1355 22.316 18.9356 22.1234 19.6408 21.6912C20.3793 21.2386 21.0002 20.6177 21.4528 19.8792C21.885 19.1739 22.0776 18.3739 22.1705 17.3969C22.2616 16.4384 22.2616 15.2386 22.2616 13.7081V9.30682C22.2616 8.49477 22.0449 7.73334 21.6661 7.07722C21.4523 6.70689 20.9503 6.68737 20.648 6.98974C20.3875 7.25019 20.3714 7.66068 20.5312 7.99256C20.7226 8.3902 20.8298 8.83599 20.8298 9.30682V13.6705C20.8298 15.2466 20.829 16.3785 20.7451 17.2614C20.6622 18.1336 20.5031 18.6886 20.232 19.131C19.8975 19.6769 19.4385 20.1359 18.8927 20.4704C18.4502 20.7415 17.8952 20.9006 17.023 20.9835C16.1401 21.0674 15.0083 21.0682 13.4321 21.0682H10.5684C8.99226 21.0682 7.86039 21.0674 6.97752 20.9835Z" fill="#1C252E"/>
<path d="M15.345 12.2927C15.7465 11.8912 16.4217 12.0344 16.4956 12.5974C16.5211 12.7924 16.5343 12.9912 16.5343 13.1932C16.5343 15.6973 14.5044 17.7273 12.0003 17.7273C11.7983 17.7273 11.5994 17.7141 11.4045 17.6885C10.8415 17.6146 10.6982 16.9395 11.0997 16.538C11.2876 16.3501 11.5563 16.2753 11.8215 16.2904C11.8807 16.2938 11.9403 16.2955 12.0003 16.2955C13.7136 16.2955 15.1025 14.9065 15.1025 13.1932C15.1025 13.1332 15.1008 13.0736 15.0975 13.0145C15.0824 12.7493 15.1572 12.4805 15.345 12.2927Z" fill="#1C252E"/>
<path d="M14.942 10.6708C15.2048 10.408 15.2219 9.98129 14.939 9.74029C14.1476 9.06604 13.1214 8.65909 12.0003 8.65909C9.49615 8.65909 7.46616 10.6891 7.46616 13.1932C7.46616 14.3144 7.87311 15.3405 8.54736 16.1319C8.78836 16.4148 9.21506 16.3977 9.47784 16.135C9.77192 15.8409 9.74106 15.3594 9.4954 15.0238C9.11976 14.5107 8.89798 13.8778 8.89798 13.1932C8.89798 11.4798 10.2869 10.0909 12.0003 10.0909C12.6849 10.0909 13.3177 10.3127 13.8309 10.6883C14.1664 10.934 14.648 10.9648 14.942 10.6708Z" fill="#1C252E"/>
</svg>
