<svg width="24" height="24" viewBox="0 0 24 24" fill="none" xmlns="http://www.w3.org/2000/svg">
<path d="M14.25 7.41039C14.25 6.07148 13.7902 5.36417 13.2871 5.08617C12.7836 4.80814 11.9404 4.79557 10.8086 5.50512L7.88867 7.3352L7.87305 7.34496C7.44747 7.59765 6.94594 7.75024 6.42969 7.75024H5C4.11561 7.75024 3.59001 7.97077 3.28027 8.28051C2.97059 8.59026 2.75 9.11595 2.75 10.0002V14.0002C2.75004 14.8845 2.97056 15.4102 3.28027 15.72C3.59003 16.0296 4.11571 16.2502 5 16.2502H6.42969C6.88151 16.2502 7.32183 16.3671 7.70996 16.5657L7.87305 16.6555L7.88086 16.6594L7.88867 16.6643L10.8086 18.4944C11.9393 19.2033 12.782 19.1895 13.2861 18.9104C13.7905 18.6309 14.25 17.923 14.25 16.5901V7.41039ZM15.75 16.5901C15.75 18.227 15.174 19.5788 14.0137 20.2219C12.9252 20.825 11.5808 20.6616 10.2725 19.9211L10.0117 19.7659L7.09863 17.9397C6.88642 17.8156 6.65046 17.7502 6.42969 17.7502H5C3.88445 17.7502 2.90998 17.4707 2.21973 16.7805C1.52951 16.0903 1.25004 15.1158 1.25 14.0002V10.0002C1.25 8.88469 1.52954 7.91022 2.21973 7.21996C2.90999 6.5297 3.88439 6.25024 5 6.25024H6.42969C6.65343 6.25024 6.893 6.18224 7.10742 6.05492L10.0117 4.23461L10.2725 4.07934C11.5798 3.33906 12.9237 3.17196 14.0127 3.77367C15.1746 4.41569 15.75 5.76932 15.75 7.41039V16.5901Z" fill="#1C252E"/>
<path d="M17.5498 7.40038C17.881 7.15171 18.3509 7.21862 18.5996 7.5498C20.5799 10.1866 20.5799 13.8134 18.5996 16.4502C18.3509 16.7814 17.881 16.8483 17.5498 16.5996C17.2186 16.3509 17.1517 15.881 17.4004 15.5498C18.98 13.4466 18.98 10.5534 17.4004 8.45019C17.1517 8.11899 17.2186 7.64911 17.5498 7.40038Z" fill="#1C252E"/>
<path d="M19.3798 4.90038C19.711 4.65173 20.1809 4.71859 20.4296 5.0498C23.5198 9.16657 23.5198 14.8334 20.4296 18.9502C20.1809 19.2814 19.711 19.3483 19.3798 19.0996C19.0485 18.8509 18.9817 18.381 19.2303 18.0498C21.92 14.4666 21.92 9.53339 19.2303 5.95019C18.9817 5.61894 19.0485 5.14906 19.3798 4.90038Z" fill="#1C252E"/>
</svg>
