<svg width="24" height="24" viewBox="0 0 24 24" fill="none" xmlns="http://www.w3.org/2000/svg">
<path d="M14.5098 7.3201C14.5098 5.95107 14.04 5.22142 13.5195 4.9324C13.0321 4.66175 12.2413 4.6337 11.1914 5.2283L10.9785 5.35526L7.99902 7.22537L7.98926 7.23123H7.98828C7.54971 7.49697 7.0462 7.65018 6.51953 7.65018H5.05957C4.15544 7.65025 3.61461 7.87541 3.29492 8.1951C2.97526 8.51482 2.75004 9.05559 2.75 9.95975V14.0398C2.75 14.9439 2.97534 15.4847 3.29492 15.8045C3.61461 16.1242 4.15544 16.3503 5.05957 16.3504H6.51953C7.04085 16.3504 7.55863 16.5002 7.99707 16.7742L10.9775 18.6336C12.1401 19.359 13.0053 19.3465 13.5234 19.0584C14.0421 18.7698 14.5098 18.04 14.5098 16.6697V7.3201ZM16.0098 16.6697C16.0098 18.3391 15.4282 19.7148 14.252 20.3689C13.0751 21.0233 11.5999 20.7905 10.1826 19.906L7.20312 18.0467L7.20215 18.0457C7.00071 17.9199 6.75797 17.8504 6.51953 17.8504H5.05957C3.92414 17.8503 2.93455 17.5652 2.23438 16.865C1.53433 16.1648 1.25 15.1753 1.25 14.0398V9.95975C1.25004 8.82429 1.53423 7.83476 2.23438 7.13455C2.93455 6.43438 3.92414 6.15025 5.05957 6.15018H6.51953C6.75261 6.15018 6.98969 6.083 7.21094 5.94901L10.1816 4.08475L10.4473 3.92654C11.7785 3.17357 13.144 3.00787 14.248 3.62088C15.4249 4.27447 16.0098 5.64934 16.0098 7.3201V16.6697Z" fill="#1C252E"/>
<path d="M22 11.25C22.4142 11.25 22.75 11.5858 22.75 12C22.75 12.4142 22.4142 12.75 22 12.75H18C17.5858 12.75 17.25 12.4142 17.25 12C17.25 11.5858 17.5858 11.25 18 11.25H22Z" fill="#1C252E"/>
<path d="M19.25 14V10C19.25 9.58579 19.5858 9.25 20 9.25C20.4142 9.25 20.75 9.58579 20.75 10V14C20.75 14.4142 20.4142 14.75 20 14.75C19.5858 14.75 19.25 14.4142 19.25 14Z" fill="#1C252E"/>
</svg>
