<svg width="24" height="24" viewBox="0 0 24 24" fill="none" xmlns="http://www.w3.org/2000/svg">
<path d="M15.58 7.41039C15.58 6.07148 15.1202 5.36417 14.6171 5.08617C14.1136 4.80814 13.2704 4.79557 12.1385 5.50512L9.21863 7.3352L9.203 7.34496C8.77743 7.59765 8.2759 7.75024 7.75964 7.75024H6.32996C5.44556 7.75024 4.91997 7.97077 4.61023 8.28051C4.30054 8.59026 4.07996 9.11595 4.07996 10.0002V14.0002C4.07999 14.8845 4.30051 15.4102 4.61023 15.72C4.91998 16.0296 5.44566 16.2502 6.32996 16.2502H7.75964C8.21146 16.2502 8.65179 16.3671 9.03992 16.5657L9.203 16.6555L9.21082 16.6594L9.21863 16.6643L12.1385 18.4944C13.2692 19.2033 14.112 19.1895 14.6161 18.9104C15.1205 18.6309 15.5799 17.923 15.58 16.5901V7.41039ZM17.08 16.5901C17.0799 18.227 16.504 19.5788 15.3436 20.2219C14.2552 20.825 12.9108 20.6616 11.6024 19.9211L11.3417 19.7659L8.42859 17.9397C8.21638 17.8156 7.98042 17.7502 7.75964 17.7502H6.32996C5.2144 17.7502 4.23994 17.4707 3.54968 16.7805C2.85947 16.0903 2.57999 15.1158 2.57996 14.0002V10.0002C2.57996 8.88469 2.8595 7.91022 3.54968 7.21996C4.23994 6.5297 5.21435 6.25024 6.32996 6.25024H7.75964C7.98339 6.25024 8.22295 6.18224 8.43738 6.05492L11.3417 4.23461L11.6024 4.07934C12.9098 3.33906 14.2537 3.17196 15.3427 3.77367C16.5045 4.41569 17.08 5.76932 17.08 7.41039V16.5901Z" fill="#1C252E"/>
<path d="M18.8798 7.40038C19.2109 7.15171 19.6808 7.21862 19.9296 7.5498C21.9099 10.1866 21.9099 13.8134 19.9296 16.4502C19.6808 16.7814 19.2109 16.8483 18.8798 16.5996C18.5486 16.3509 18.4817 15.881 18.7303 15.5498C20.3099 13.4466 20.3099 10.5534 18.7303 8.45019C18.4817 8.11899 18.5486 7.64911 18.8798 7.40038Z" fill="#1C252E"/>
</svg>
