<svg width="24" height="24" viewBox="0 0 24 24" fill="none" xmlns="http://www.w3.org/2000/svg">
<path d="M5.24791 3.64693C5.5698 3.38631 6.04193 3.43639 6.3026 3.75826C6.56317 4.08012 6.51403 4.55228 6.19225 4.81295C4.87748 5.87773 3.8598 7.29333 3.28698 8.91939C3.14924 9.3098 2.72144 9.51487 2.33092 9.3774C1.94024 9.23978 1.73529 8.81105 1.87291 8.42037C2.54012 6.52663 3.7228 4.88206 5.24791 3.64693Z" fill="#1C252E"/>
<path d="M1.25 12C1.25 11.5858 1.58579 11.25 2 11.25C2.41421 11.25 2.75 11.5858 2.75 12C2.75 13.0795 2.94319 14.1152 3.28613 15.0791C3.42478 15.4693 3.22121 15.8983 2.83105 16.0371C2.44092 16.1756 2.01183 15.9712 1.87305 15.5811C1.47608 14.4651 1.25 13.2603 1.25 12Z" fill="#1C252E"/>
<path d="M21.2502 11.9997C21.2502 11.4496 21.1954 10.9035 21.1018 10.3698C21.0302 9.96195 21.3024 9.57339 21.7102 9.50165C22.118 9.4301 22.5066 9.70226 22.5783 10.1101C22.6847 10.7161 22.7502 11.35 22.7502 11.9997C22.7502 17.9339 17.9344 22.7496 12.0002 22.7497C10.9159 22.7497 9.86182 22.5892 8.8713 22.2878C8.4752 22.1671 8.2517 21.7474 8.37228 21.3513C8.49297 20.9551 8.91261 20.7317 9.3088 20.8522C10.1582 21.1107 11.0646 21.2497 12.0002 21.2497C17.1059 21.2496 21.2502 17.1054 21.2502 11.9997Z" fill="#1C252E"/>
<path d="M3.90779 17.9235C4.22036 17.6519 4.69464 17.6853 4.96638 17.9978C5.33247 18.4187 5.74944 18.8089 6.19197 19.1667C6.51381 19.4271 6.56355 19.8994 6.3033 20.2214C6.04287 20.5435 5.57071 20.5931 5.24861 20.3327C4.75125 19.9306 4.26741 19.481 3.83357 18.9821C3.56195 18.6696 3.59529 18.1953 3.90779 17.9235Z" fill="#1C252E"/>
<path d="M12.0002 1.25C15.6776 1.25005 18.9247 3.10021 20.8586 5.91504C21.0931 6.25644 21.0057 6.72345 20.6643 6.95801C20.3229 7.19233 19.8568 7.10586 19.6223 6.76465C17.9562 4.33956 15.1626 2.75005 12.0002 2.75C11.0646 2.75 10.1582 2.88899 9.30878 3.14746C8.91252 3.26806 8.49286 3.0447 8.37226 2.64844C8.25171 2.25233 8.4753 1.83368 8.87128 1.71289C9.8618 1.41143 10.9159 1.25 12.0002 1.25Z" fill="#1C252E"/>
<path d="M9.42969 15.52C9.42959 15.0562 9.05368 14.6802 8.58984 14.6802C8.12607 14.6803 7.7501 15.0562 7.75 15.52C7.75 15.9839 8.12598 16.3598 8.58984 16.3599C9.05378 16.3599 9.42969 15.9839 9.42969 15.52ZM10.9297 15.52C10.9297 16.8124 9.88217 17.8599 8.58984 17.8599C7.29759 17.8598 6.25 16.8123 6.25 15.52C6.2501 14.2278 7.29761 13.1803 8.58984 13.1802C9.88215 13.1802 10.9296 14.2278 10.9297 15.52Z" fill="#1C252E"/>
<path d="M15.2501 14.46V8.25003C15.2501 7.99462 15.2097 7.84786 15.1749 7.77151C15.1444 7.70441 15.1159 7.6853 15.0997 7.67581C15.0448 7.64351 14.8712 7.59959 14.5284 7.69339H14.5275L11.3488 8.56253C11.0667 8.64051 10.9201 8.81563 10.92 9.12015V15.5205C10.9199 15.9346 10.5841 16.2705 10.17 16.2705C9.75594 16.2705 9.42023 15.9346 9.42004 15.5205V9.12015C9.42006 8.08497 10.0729 7.35937 10.9503 7.11722H10.9523L14.132 6.2471L14.3253 6.20023C14.7926 6.10144 15.3616 6.08948 15.8605 6.38284C16.4862 6.75099 16.7501 7.43958 16.7501 8.25003V14.46C16.7501 14.8742 16.4143 15.2099 16.0001 15.21C15.5859 15.21 15.2501 14.8742 15.2501 14.46Z" fill="#1C252E"/>
<path d="M15.2498 14.46C15.2497 13.9961 14.8738 13.6201 14.4099 13.6201C13.9461 13.6202 13.5702 13.9962 13.5701 14.46C13.5701 14.9238 13.946 15.2997 14.4099 15.2998C14.8739 15.2998 15.2498 14.9239 15.2498 14.46ZM16.7498 14.46C16.7498 15.7523 15.7022 16.7998 14.4099 16.7998C13.1177 16.7997 12.0701 15.7523 12.0701 14.46C12.0702 13.1678 13.1177 12.1202 14.4099 12.1201C15.7022 12.1201 16.7497 13.1677 16.7498 14.46Z" fill="#1C252E"/>
<path d="M15.8021 8.44659C16.2016 8.33742 16.6148 8.57338 16.7239 8.97295C16.8328 9.37237 16.597 9.78473 16.1976 9.89385L10.3772 11.4837C9.9779 11.5926 9.56562 11.3576 9.45635 10.9583C9.34719 10.5587 9.58315 10.1456 9.98272 10.0364L15.8021 8.44659Z" fill="#1C252E"/>
</svg>
