<svg width="24" height="24" viewBox="0 0 24 24" fill="none" xmlns="http://www.w3.org/2000/svg">
<path d="M21.25 9C21.25 6.57397 20.7603 5.0708 19.8447 4.15527C18.9292 3.23974 17.426 2.75 15 2.75H9C6.57397 2.75 5.0708 3.23974 4.15527 4.15527C3.23974 5.0708 2.75 6.57397 2.75 9V15C2.75 17.426 3.23974 18.9292 4.15527 19.8447C5.0708 20.7603 6.57397 21.25 9 21.25H15C17.426 21.25 18.9292 20.7603 19.8447 19.8447C20.7603 18.9292 21.25 17.426 21.25 15V9ZM22.75 15C22.75 17.574 22.2397 19.5708 20.9053 20.9053C19.5708 22.2397 17.574 22.75 15 22.75H9C6.42603 22.75 4.4292 22.2397 3.09473 20.9053C1.76026 19.5708 1.25 17.574 1.25 15V9C1.25 6.42603 1.76026 4.4292 3.09473 3.09473C4.4292 1.76026 6.42603 1.25 9 1.25H15C17.574 1.25 19.5708 1.76026 20.9053 3.09473C22.2397 4.4292 22.75 6.42603 22.75 9V15Z" fill="#1C252E"/>
<path d="M16.2402 9.08997C16.2402 7.89531 16.0809 7.44215 15.8867 7.23547C15.7078 7.0453 15.3188 6.88 14.21 6.88H9.77051C8.66169 6.88 8.27268 7.0453 8.09375 7.23547C7.89953 7.44215 7.74024 7.89531 7.74023 9.08997V15.715L7.75 15.9386C7.76657 16.1404 7.80232 16.2798 7.83887 16.3673C7.84496 16.3819 7.85318 16.3931 7.8584 16.4034C7.86165 16.4021 7.86558 16.402 7.86914 16.4005C7.96962 16.3575 8.13586 16.248 8.35254 16.0167H8.35352C8.73435 15.6067 9.24986 15.3881 9.7832 15.4171C10.3169 15.4463 10.8068 15.7198 11.1406 16.17L11.7402 16.9698L11.7412 16.9718C11.8538 17.1226 11.9547 17.1426 12 17.1427C12.0452 17.1427 12.147 17.122 12.2598 16.9708L12.8496 16.1808L12.8506 16.1798C13.5074 15.3044 14.6801 15.1903 15.4814 15.8781L15.6367 16.0255L15.6377 16.0275C15.8578 16.2621 16.0265 16.3732 16.1279 16.4171H16.1289C16.1332 16.408 16.1407 16.3987 16.1455 16.3868C16.1939 16.2669 16.2402 16.0528 16.2402 15.7198V9.08997ZM17.7402 15.7198C17.7402 16.1716 17.6798 16.5924 17.5361 16.9484C17.3915 17.3066 17.138 17.6514 16.7314 17.8273C16.3194 18.0054 15.8925 17.9488 15.5322 17.7931C15.1795 17.6405 14.8484 17.3784 14.5439 17.0538C14.4473 16.9512 14.3538 16.9293 14.2891 16.9327C14.2247 16.9363 14.1337 16.9669 14.0498 17.0782L14.0508 17.0792L13.4609 17.8693C13.1037 18.3477 12.5795 18.6427 12 18.6427C11.4207 18.6426 10.8972 18.3475 10.54 17.8693L9.94043 17.0704L9.93652 17.0646C9.85065 16.9481 9.76145 16.9185 9.70215 16.9152C9.64266 16.9119 9.54981 16.9323 9.45117 17.0392L9.44727 17.0431C9.14408 17.3666 8.81336 17.6281 8.45996 17.7794C8.09897 17.934 7.67403 17.987 7.26465 17.8126C6.86044 17.6403 6.60305 17.3021 6.4541 16.9454C6.3064 16.5916 6.24313 16.1732 6.24023 15.7247V9.08997C6.24024 7.91517 6.36129 6.88809 7.00195 6.20715C7.65803 5.51011 8.65949 5.38 9.77051 5.38H14.21C15.321 5.38 16.3224 5.51011 16.9785 6.20715C17.6192 6.88809 17.7402 7.91517 17.7402 9.08997V15.7198Z" fill="#1C252E"/>
</svg>
