<svg width="24" height="24" viewBox="0 0 24 24" fill="none" xmlns="http://www.w3.org/2000/svg">
<path d="M9 18.5978C9.32023 18.5978 9.67169 18.6543 9.9873 18.796L10.1201 18.8624L10.125 18.8644L14.0508 21.0529H14.0518C14.5424 21.3233 14.8256 21.2577 14.9414 21.1896C15.0564 21.1218 15.25 20.9082 15.25 20.3497V8.99036C15.25 7.69457 14.1854 6.63 12.8896 6.63H5.11035C3.81457 6.63 2.75 7.69457 2.75 8.99036V20.3497C2.75 20.9082 2.94359 21.1218 3.05859 21.1896C3.15991 21.2492 3.38924 21.3073 3.77344 21.1398L3.94824 21.0529L7.875 18.8644L7.87988 18.8624C8.22735 18.6721 8.63399 18.5978 9 18.5978ZM16.75 20.3497C16.75 21.2407 16.4237 22.0577 15.7012 22.4825C14.9796 22.9068 14.1073 22.7967 13.3281 22.3673L13.3252 22.3654L9.39941 20.1779L9.33301 20.1486C9.25348 20.1203 9.13823 20.0978 9 20.0978C8.81622 20.0978 8.6732 20.1382 8.60059 20.1779L4.6748 22.3654L4.67188 22.3673C3.89265 22.7967 3.02039 22.9068 2.29883 22.4825C1.5763 22.0577 1.25 21.2407 1.25 20.3497V8.99036C1.25 6.86614 2.98614 5.13 5.11035 5.13H12.8896C15.0139 5.13 16.75 6.86614 16.75 8.99036V20.3497Z" fill="#1C252E"/>
<path d="M21.25 5.11035C21.25 3.81457 20.1854 2.75 18.8896 2.75H11.1104C9.81457 2.75 8.75 3.81457 8.75 5.11035V5.12988H12.8896C15.0139 5.12988 16.75 6.86602 16.75 8.99023V15.3291L20.0518 17.1729C20.5424 17.4433 20.8256 17.3777 20.9414 17.3096C21.0564 17.2418 21.25 17.0282 21.25 16.4697V5.11035ZM22.75 16.4697C22.75 17.3607 22.4237 18.1777 21.7012 18.6025C20.9796 19.0268 20.1073 18.9167 19.3281 18.4873L19.3242 18.4844L15.6348 16.4248C15.3974 16.2923 15.25 16.0414 15.25 15.7695V8.99023C15.25 7.69445 14.1854 6.62988 12.8896 6.62988H8C7.58579 6.62988 7.25 6.2941 7.25 5.87988V5.11035C7.25 2.98614 8.98614 1.25 11.1104 1.25H18.8896C21.0139 1.25 22.75 2.98614 22.75 5.11035V16.4697Z" fill="#1C252E"/>
<path d="M11 11.25C11.4142 11.25 11.75 11.5858 11.75 12C11.75 12.4142 11.4142 12.75 11 12.75H7C6.58579 12.75 6.25 12.4142 6.25 12C6.25 11.5858 6.58579 11.25 7 11.25H11Z" fill="#1C252E"/>
</svg>
