<svg width="24" height="24" viewBox="0 0 24 24" fill="none" xmlns="http://www.w3.org/2000/svg">
<path d="M1.25 8.99036C1.25 6.86614 2.98614 5.13 5.11035 5.13H12.8896C15.0117 5.13 16.7505 6.8637 16.7402 8.99036V20.3497C16.7402 21.2401 16.414 22.059 15.6924 22.4855C14.9693 22.9127 14.0952 22.8008 13.3145 22.3644L9.38477 20.1749L9.38281 20.174C9.31895 20.1382 9.18203 20.0978 8.99902 20.0978C8.81679 20.0978 8.6734 20.1381 8.60059 20.1779L4.6748 22.3654L4.67383 22.3644C3.89334 22.8002 3.01963 22.9127 2.29688 22.4855C1.57543 22.0589 1.25 21.24 1.25 20.3497V8.99036ZM2.75 20.3497C2.75 20.9094 2.94469 21.126 3.06055 21.1945C3.17494 21.262 3.45549 21.3291 3.94434 21.0558L3.94531 21.0548L7.875 18.8644L7.87988 18.8624C8.22715 18.6723 8.63397 18.5978 8.99902 18.5978C9.36213 18.5978 9.76871 18.6713 10.1143 18.8644L14.0449 21.0548L14.0459 21.0558C14.5349 21.3291 14.8154 21.262 14.9297 21.1945C15.0455 21.126 15.2402 20.9094 15.2402 20.3497V8.98547C15.2477 7.69402 14.1862 6.63 12.8896 6.63H5.11035C3.81457 6.63 2.75 7.69457 2.75 8.99036V20.3497Z" fill="#1C252E"/>
<path d="M21.25 5.11035C21.25 3.81457 20.1854 2.75 18.8896 2.75H11.1104C9.81457 2.75 8.75 3.81457 8.75 5.11035V5.12988H12.8896C15.0139 5.12988 16.75 6.86602 16.75 8.99023V15.3291L20.0518 17.1729C20.5424 17.4433 20.8256 17.3777 20.9414 17.3096C21.0564 17.2418 21.25 17.0282 21.25 16.4697V5.11035ZM22.75 16.4697C22.75 17.3607 22.4237 18.1777 21.7012 18.6025C20.9796 19.0268 20.1073 18.9167 19.3281 18.4873L19.3242 18.4844L15.6348 16.4248C15.3974 16.2923 15.25 16.0414 15.25 15.7695V8.99023C15.25 7.69445 14.1854 6.62988 12.8896 6.62988H8C7.58579 6.62988 7.25 6.2941 7.25 5.87988V5.11035C7.25 2.98614 8.98614 1.25 11.1104 1.25H18.8896C21.0139 1.25 22.75 2.98614 22.75 5.11035V16.4697Z" fill="#1C252E"/>
</svg>
