<svg width="24" height="24" viewBox="0 0 24 24" fill="none" xmlns="http://www.w3.org/2000/svg">
<path d="M21.4697 1.46973C21.7626 1.17684 22.2373 1.17684 22.5302 1.46973C22.8231 1.76262 22.8231 2.23738 22.5302 2.53028L2.53022 22.5303C2.23732 22.8232 1.76256 22.8232 1.46967 22.5303C1.17678 22.2374 1.17678 21.7626 1.46967 21.4697L21.4697 1.46973Z" fill="#1C252E"/>
<path d="M10.3641 17.1426C10.5837 16.7914 11.0461 16.6848 11.3974 16.9043L17.8544 20.9395C18.5845 21.3432 19.0848 21.2863 19.3593 21.125C19.6351 20.9627 19.9296 20.5498 19.9296 19.71V8.70999C19.9296 8.29588 20.2655 7.96016 20.6796 7.95999C21.0938 7.95999 21.4296 8.29578 21.4296 8.70999V19.71C21.4296 20.8802 21.0042 21.8978 20.12 22.418C19.2356 22.9382 18.1395 22.8155 17.1151 22.2451C17.1041 22.239 17.0926 22.2323 17.0819 22.2256L10.6024 18.1758C10.2512 17.9563 10.1446 17.4938 10.3641 17.1426Z" fill="#1C252E"/>
<path d="M2.57031 19.9502V5.86035C2.57031 3.3274 4.63519 1.25 7.18066 1.25H16.8301C18.2775 1.25 19.5686 1.92093 20.4141 2.96875C20.6742 3.29112 20.6232 3.76334 20.3008 4.02344C19.9785 4.2833 19.5072 4.23315 19.2471 3.91113C18.6725 3.19905 17.8026 2.75 16.8301 2.75H7.18066C5.46614 2.75 4.07031 4.1533 4.07031 5.86035V19.9502C4.07021 20.3643 3.73446 20.7002 3.32031 20.7002C2.90616 20.7002 2.57042 20.3643 2.57031 19.9502Z" fill="#1C252E"/>
</svg>
