<svg width="24" height="24" viewBox="0 0 24 24" fill="none" xmlns="http://www.w3.org/2000/svg">
<path d="M21.25 9C21.25 6.57397 20.7603 5.0708 19.8447 4.15527C18.9292 3.23974 17.426 2.75 15 2.75H9C6.57397 2.75 5.0708 3.23974 4.15527 4.15527C3.23974 5.0708 2.75 6.57397 2.75 9V15C2.75 17.426 3.23974 18.9292 4.15527 19.8447C5.0708 20.7603 6.57397 21.25 9 21.25H15C17.426 21.25 18.9292 20.7603 19.8447 19.8447C20.7603 18.9292 21.25 17.426 21.25 15V9ZM22.75 15C22.75 17.574 22.2397 19.5708 20.9053 20.9053C19.5708 22.2397 17.574 22.75 15 22.75H9C6.42603 22.75 4.4292 22.2397 3.09473 20.9053C1.76026 19.5708 1.25 17.574 1.25 15V9C1.25 6.42603 1.76026 4.4292 3.09473 3.09473C4.4292 1.76026 6.42603 1.25 9 1.25H15C17.574 1.25 19.5708 1.76026 20.9053 3.09473C22.2397 4.4292 22.75 6.42603 22.75 9V15Z" fill="#1C252E"/>
<path d="M4.86914 15.2702V7.57005C4.86914 6.36926 5.86577 5.4583 7.05859 5.55247H7.06055C8.51781 5.6721 10.6626 6.37932 11.8965 7.15403L11.998 7.21751L12.0469 7.18723L12.0527 7.18333C13.2895 6.41308 15.4334 5.6825 16.8975 5.56223L16.959 5.56028H16.999V5.56126C18.1618 5.50097 19.1288 6.38517 19.1289 7.57981V15.2702C19.1288 16.2586 18.3593 17.1476 17.3643 17.2712L17.3652 17.2722L17.1553 17.3025L17.1504 17.3034C15.8481 17.4815 13.7884 18.1528 12.6543 18.7849L12.6533 18.7839C12.4294 18.9136 12.1851 18.9548 11.9883 18.9548C11.7975 18.9548 11.5708 18.9168 11.3594 18.8083C11.3355 18.7983 11.3108 18.7896 11.2881 18.7771C10.1476 18.1508 8.09711 17.4711 6.8125 17.3034C6.8038 17.3023 6.79479 17.301 6.78613 17.2995L6.60547 17.2702V17.2683C5.6231 17.1348 4.86928 16.236 4.86914 15.2702ZM6.36914 15.2702C6.36929 15.4815 6.54261 15.6977 6.73242 15.7654L6.81445 15.7849L6.85254 15.7898L7.03516 15.82C8.48875 16.0154 10.6539 16.7323 11.9521 17.4314C11.9622 17.4353 11.9725 17.4387 11.9824 17.4431C13.2945 16.7268 15.4874 16.0169 16.9434 15.8171L17.1533 15.7878L17.1748 15.7849C17.4094 15.7584 17.6287 15.5147 17.6289 15.2702V7.57981C17.6288 7.25483 17.3895 7.03144 17.0586 7.05735C17.039 7.0589 17.0187 7.06028 16.999 7.06028H16.9932C15.776 7.16749 13.881 7.81195 12.8457 8.45677L12.7422 8.52317L12.7305 8.53001C12.4906 8.6766 12.2214 8.72239 12.0029 8.72239C11.7822 8.72239 11.5193 8.67549 11.2832 8.5388C11.276 8.53463 11.2688 8.53051 11.2617 8.5261L11.1016 8.42552H11.1006C10.0742 7.78062 8.1596 7.14791 6.9375 7.04759C6.61164 7.02318 6.36914 7.25168 6.36914 7.57005V15.2702Z" fill="#1C252E"/>
<path d="M11.25 17.6595V8.09998C11.25 7.68576 11.5858 7.34998 12 7.34998C12.4142 7.34998 12.75 7.68576 12.75 8.09998V17.6595C12.75 18.0738 12.4142 18.4095 12 18.4095C11.5858 18.4095 11.25 18.0738 11.25 17.6595Z" fill="#1C252E"/>
</svg>
