<svg width="24" height="24" viewBox="0 0 24 24" fill="none" xmlns="http://www.w3.org/2000/svg">
<path d="M1.25 16.7396V4.66048C1.25 3.03461 2.59223 1.78527 4.22266 1.92219L4.22168 1.92317C6.43801 2.1029 9.72353 3.1968 11.6055 4.36653L11.8555 4.51692L11.8652 4.52278C11.8611 4.52022 11.8707 4.52662 11.8984 4.53352C11.9257 4.54031 11.9608 4.54524 12 4.54524C12.0392 4.54524 12.0743 4.54031 12.1016 4.53352C12.1293 4.52662 12.1389 4.52022 12.1348 4.52278L12.293 4.42024L12.3057 4.41243C12.982 3.99376 13.8225 3.5849 14.7197 3.22395C14.9508 3.13099 15.2135 3.15878 15.4199 3.29817C15.6264 3.43764 15.75 3.67111 15.75 3.92024V6.59993L16.585 6.04524L16.6826 5.99055C16.9171 5.88095 17.195 5.89909 17.415 6.04524L18.25 6.59993V2.77962C18.2502 2.4183 18.508 2.10815 18.8633 2.04231C19.1647 1.98649 19.4512 1.95434 19.708 1.93294L19.7705 1.93001H19.8184C21.419 1.82334 22.75 3.04434 22.75 4.67024V16.7396C22.75 18.0718 21.6944 19.2963 20.3535 19.4642H20.3506L20.0283 19.5023L20.0293 19.5032C17.9421 19.7809 14.6706 20.8612 12.832 21.8763C12.5624 22.0282 12.2574 22.0823 11.9941 22.0823C11.7351 22.0823 11.44 22.0298 11.1758 21.8909L11.1357 21.8714C11.1273 21.8672 11.1187 21.8623 11.1104 21.8577C9.27087 20.8518 6.00894 19.781 3.93066 19.5032H3.92773L3.6377 19.4632V19.4622C2.30104 19.2901 1.25 18.0688 1.25 16.7396ZM2.75 16.7396C2.75 17.2905 3.19317 17.8314 3.72559 17.9564L3.83301 17.9759L3.84277 17.9769L4.13281 18.0169H4.13184C6.38391 18.3184 9.80027 19.4394 11.8037 20.5286H11.8047L11.8447 20.5491L11.874 20.5648C11.8694 20.5622 11.8788 20.5678 11.9043 20.5736C11.9288 20.5791 11.9602 20.5823 11.9941 20.5823C12.0281 20.5823 12.0575 20.5785 12.0791 20.5736C12.1019 20.5683 12.1053 20.5645 12.0947 20.5706L12.1074 20.5638L12.499 20.3558C14.5354 19.3191 17.7003 18.3004 19.8311 18.0169L19.8398 18.0159L20.167 17.9759L20.2744 17.9564C20.8068 17.8314 21.25 17.2905 21.25 16.7396V4.67024C21.25 3.9134 20.6493 3.36349 19.8926 3.42708C19.8718 3.42882 19.8509 3.43001 19.8301 3.43001H19.8047C19.7865 3.43157 19.7683 3.4332 19.75 3.43489V8.00032C19.7499 8.27664 19.5981 8.53091 19.3545 8.66145C19.1109 8.79202 18.8151 8.77736 18.585 8.62434L17 7.56966L15.415 8.62434C15.1849 8.77736 14.8891 8.79202 14.6455 8.66145C14.4019 8.53091 14.2501 8.27664 14.25 8.00032V5.06868C13.8217 5.27268 13.4317 5.47866 13.0996 5.68391L12.9375 5.78938L12.9258 5.79719C12.6341 5.97824 12.2953 6.04524 12 6.04524C11.7078 6.04524 11.3736 5.97891 11.084 5.80208V5.80305L10.834 5.65364L10.8232 5.6468C9.14368 4.59944 6.0788 3.57757 4.09961 3.41731H4.09766C3.34816 3.35433 2.75 3.90639 2.75 4.66048V16.7396Z" fill="#1C252E"/>
<path d="M11.25 20.49V5.48999C11.25 5.07578 11.5858 4.73999 12 4.73999C12.4142 4.73999 12.75 5.07578 12.75 5.48999V20.49C12.75 20.9042 12.4142 21.24 12 21.24C11.5858 21.24 11.25 20.9042 11.25 20.49Z" fill="#1C252E"/>
<path d="M18.8799 2.03979C19.0969 2.00457 19.3188 2.06628 19.4863 2.20873C19.6537 2.35122 19.75 2.56018 19.75 2.78002V7.99975C19.75 8.2761 19.598 8.53026 19.3545 8.66088C19.1109 8.7914 18.8151 8.77764 18.585 8.62475L17 7.57006L15.415 8.62475C15.1849 8.77764 14.8891 8.7914 14.6455 8.66088C14.402 8.53026 14.25 8.2761 14.25 7.99975V3.91967C14.2501 3.61239 14.438 3.33578 14.7236 3.2224C16.0754 2.68586 17.5882 2.24982 18.8799 2.03979ZM18.25 3.69115C17.4446 3.87337 16.5784 4.13148 15.75 4.43627V6.60033L16.585 6.04564L16.6826 5.99096C16.9172 5.88123 17.1949 5.89933 17.415 6.04564L18.25 6.60033V3.69115Z" fill="#1C252E"/>
</svg>
