<svg width="24" height="24" viewBox="0 0 24 24" fill="none" xmlns="http://www.w3.org/2000/svg">
<path d="M11.25 13.21V11.4004H9.5C9.08593 11.4004 8.75023 11.0644 8.75 10.6504C8.75 10.2362 9.08579 9.90042 9.5 9.90042H11.25V8.20999C11.25 7.79578 11.5858 7.45999 12 7.45999C12.4142 7.45999 12.75 7.79578 12.75 8.20999V9.90042H14.5C14.9142 9.90042 15.25 10.2362 15.25 10.6504C15.2498 11.0644 14.9141 11.4004 14.5 11.4004H12.75V13.21C12.75 13.6242 12.4142 13.96 12 13.96C11.5858 13.96 11.25 13.6242 11.25 13.21Z" fill="#1C252E"/>
<path d="M2.57031 5.86035C2.57031 3.3274 4.63519 1.25 7.18066 1.25H16.8203C19.3665 1.25 21.4285 3.32696 21.4404 5.85645V19.9502C21.4404 21.0188 21.0533 21.9644 20.2285 22.4502C19.4034 22.9362 18.3895 22.8147 17.4561 22.2949L12.5762 19.5859L12.5693 19.582C12.4557 19.5175 12.2546 19.4629 12.0088 19.4629C11.7637 19.4629 11.5572 19.5171 11.4355 19.585L11.4346 19.5859L6.55469 22.2959L6.55176 22.2969C5.61754 22.8112 4.60516 22.927 3.78223 22.4424C2.95874 21.9574 2.57036 21.0158 2.57031 19.9502V5.86035ZM4.07031 19.9502C4.07036 20.6842 4.32659 21.0229 4.54297 21.1504C4.75993 21.2782 5.18268 21.3387 5.82812 20.9834L10.7061 18.2744C11.104 18.0528 11.577 17.9629 12.0088 17.9629C12.4378 17.9629 12.9087 18.0519 13.3037 18.2744H13.3047L18.1846 20.9844H18.1855C18.8318 21.3443 19.252 21.2836 19.4668 21.1572C19.6819 21.0305 19.9404 20.6914 19.9404 19.9502V5.86328L19.9355 5.7041C19.8446 4.06671 18.4806 2.75 16.8203 2.75H7.18066C5.46614 2.75 4.07031 4.1533 4.07031 5.86035V19.9502Z" fill="#1C252E"/>
</svg>
