<svg width="24" height="24" viewBox="0 0 24 24" fill="none" xmlns="http://www.w3.org/2000/svg">
<path d="M3.30004 6.04998L7.63004 3.56998C8.14004 3.27998 8.99004 3.25998 9.52004 3.51998L14.77 6.13998C15.3 6.40998 16.15 6.37998 16.66 6.08998L19.01 4.74998C20.65 3.80998 22 4.58998 22 6.48998V16.22C22 16.86 21.54 17.64 20.99 17.96L16.66 20.44C16.15 20.73 15.3 20.75 14.77 20.49L9.52004 17.86C8.99004 17.59 8.14004 17.62 7.63004 17.91L5.28004 19.25C3.64004 20.19 2.29004 19.41 2.29004 17.51V11" stroke="#1C252E" stroke-width="1.5" stroke-linecap="round" stroke-linejoin="round"/>
<path d="M8.55957 4V17" stroke="#1C252E" stroke-width="1.5" stroke-linecap="round" stroke-linejoin="round"/>
<path d="M15.7305 6.62V20" stroke="#1C252E" stroke-width="1.5" stroke-linecap="round" stroke-linejoin="round"/>
</svg>
