<svg width="24" height="24" viewBox="0 0 24 24" fill="none" xmlns="http://www.w3.org/2000/svg">
<path d="M9.5 2.31843C10.2998 2.11064 11.1376 2 12 2C17.5 2 22 6.5 22 12C22 17.5 17.5 22 12 22C6.5 22 2 17.5 2 12C2 11.1376 2.11064 10.2998 2.31843 9.5" stroke="#1C252E" stroke-width="1.5" stroke-miterlimit="10" stroke-linecap="round"/>
<path d="M10.5 16C9.12 16 8 14.87 8 13.5C8 10.48 10.47 8 13.5 8C14.87 8 16 9.13 16 10.5C16 12.0702 15.3296 13.4944 14.2614 14.5" stroke="#1C252E" stroke-width="1.5" stroke-miterlimit="10" stroke-linecap="round" stroke-linejoin="round"/>
</svg>
