<svg width="24" height="24" viewBox="0 0 24 24" fill="none" xmlns="http://www.w3.org/2000/svg">
<path d="M2.49121 5.27865C2.49121 6.37064 3.58226 8.00038 4.44841 9.12214C4.9003 9.70738 5.12625 10 5.49121 10C5.85617 10 6.08212 9.70738 6.53401 9.12214C7.40017 8.00038 8.49121 6.37064 8.49121 5.27865C8.49121 3.4679 7.14807 2 5.49121 2" stroke="#1C252E" stroke-width="1.5" stroke-linecap="round"/>
<path d="M21.4902 17.2818C21.4902 18.3738 20.3992 20.0036 19.533 21.1253C19.0811 21.7106 18.8552 22.0032 18.4902 22.0032C18.1253 22.0032 17.8993 21.7106 17.4474 21.1253C16.5813 20.0036 15.4902 18.3738 15.4902 17.2818C15.4902 15.4711 16.8334 14.0032 18.4902 14.0032C20.1471 14.0032 21.4902 15.4711 21.4902 17.2818Z" stroke="#1C252E" stroke-width="1.5"/>
<path d="M11.9997 5H14.6797C16.5297 5 17.3897 7.29 15.9997 8.51L8.0097 15.5C6.6197 16.71 7.4797 19 9.3197 19H11.9997" stroke="#1C252E" stroke-width="1.5" stroke-linecap="round" stroke-linejoin="round"/>
<path d="M5.48535 5H5.49691" stroke="#1C252E" stroke-width="2" stroke-linecap="round" stroke-linejoin="round"/>
<path d="M18.4854 17.0367H18.4969" stroke="#1C252E" stroke-width="2" stroke-linecap="round" stroke-linejoin="round"/>
</svg>
