<svg width="24" height="24" viewBox="0 0 24 24" fill="none" xmlns="http://www.w3.org/2000/svg">
<path d="M22 9.00002V15C22 17.5 21.5 19.25 20.38 20.38L14 14L21.73 6.27002C21.91 7.06002 22 7.96002 22 9.00002Z" stroke="#1C252E" stroke-width="1.5" stroke-linecap="round" stroke-linejoin="round"/>
<path d="M2.13082 7C2.64745 3.45898 4.72949 2 9 2H15C18.96 2 21.04 3.26 21.73 6.27L6.26999 21.73C3.25999 21.04 2 18.96 2 15V12" stroke="#1C252E" stroke-width="1.5" stroke-linecap="round" stroke-linejoin="round"/>
<path d="M20.3795 20.38C19.2495 21.5 17.4995 22 14.9995 22H8.99954C7.95954 22 7.05953 21.91 6.26953 21.73L13.9995 14L20.3795 20.38Z" stroke="#1C252E" stroke-width="1.5" stroke-linecap="round" stroke-linejoin="round"/>
<path d="M12.1172 8.44735C12.1172 9.53934 11.0261 11.1691 10.16 12.2908C9.7081 12.8761 9.48215 13.1687 9.11719 13.1687C8.75222 13.1687 8.52628 12.8761 8.07439 12.2908C7.20823 11.1691 6.11719 9.53934 6.11719 8.44735C6.11719 6.6366 7.46033 5.1687 9.11719 5.1687C10.774 5.1687 12.1172 6.6366 12.1172 8.44735Z" stroke="#1C252E" stroke-width="1.5"/>
<path d="M9.09375 8.08459H9.10273" stroke="#1C252E" stroke-width="2" stroke-linecap="round" stroke-linejoin="round"/>
</svg>
