<svg width="24" height="24" viewBox="0 0 24 24" fill="none" xmlns="http://www.w3.org/2000/svg">
<path d="M12 22C17.5228 22 22 17.5228 22 12C22 6.47715 17.5228 2 12 2C6.47715 2 2 6.47715 2 12C2 17.5228 6.47715 22 12 22Z" stroke="#1C252E" stroke-width="1.5" stroke-linecap="round" stroke-linejoin="round"/>
<path d="M7.9996 3H8.9996C8.50724 4.47455 8.1392 5.9797 7.89547 7.5M7.9996 21H8.9996C8.13152 18.4002 7.64989 15.7053 7.55469 13" stroke="#1C252E" stroke-width="1.5" stroke-linecap="round" stroke-linejoin="round"/>
<path d="M15 3C15.8146 5.43957 16.2889 7.96289 16.4229 10.5M15 21C15.4924 19.5254 15.8604 18.0203 16.1041 16.5" stroke="#1C252E" stroke-width="1.5" stroke-linecap="round" stroke-linejoin="round"/>
<path d="M3 16V15C8.84 16.95 15.16 16.95 21 15V16" stroke="#1C252E" stroke-width="1.5" stroke-linecap="round" stroke-linejoin="round"/>
<path d="M3 8.99998C8.84 7.04998 15.16 7.04998 21 8.99998" stroke="#1C252E" stroke-width="1.5" stroke-linecap="round" stroke-linejoin="round"/>
</svg>
