<svg width="24" height="24" viewBox="0 0 24 24" fill="none" xmlns="http://www.w3.org/2000/svg">
<path d="M12 1.5C16.4171 1.50008 19.998 5.35328 19.998 10.1064C19.998 12.9728 17.0894 17.2507 14.7803 20.1953C13.5756 21.7315 12.9729 22.4999 12 22.5C11.027 22.5 10.4245 21.7316 9.21973 20.1953C6.9106 17.2507 4.00195 12.9728 4.00195 10.1064C4.00196 5.35324 7.58288 1.5 12 1.5ZM10.5693 7.46973C10.2764 7.17683 9.80168 7.17683 9.50879 7.46973C9.2159 7.76262 9.2159 8.23738 9.50879 8.53027L10.959 9.98047L9.46973 11.4697C9.17684 11.7626 9.17683 12.2374 9.46973 12.5303C9.76262 12.8232 10.2374 12.8232 10.5303 12.5303L12.0195 11.041L13.4688 12.4902C13.7616 12.7831 14.2364 12.7831 14.5293 12.4902C14.8222 12.1973 14.8222 11.7226 14.5293 11.4297L13.0801 9.98047L14.4902 8.57031C14.7831 8.27742 14.7831 7.80266 14.4902 7.50977C14.1973 7.21687 13.7226 7.21687 13.4297 7.50977L12.0195 8.91992L10.5693 7.46973Z" fill="#1C252E"/>
</svg>
