<svg width="24" height="24" viewBox="0 0 24 24" fill="none" xmlns="http://www.w3.org/2000/svg">
<path d="M12 1.5C16.4171 1.50008 19.998 5.35328 19.998 10.1064C19.998 12.9728 17.0894 17.2507 14.7803 20.1953C13.5756 21.7315 12.9729 22.4999 12 22.5C11.027 22.5 10.4245 21.7316 9.21973 20.1953C6.9106 17.2507 4.00195 12.9728 4.00195 10.1064C4.00196 5.35324 7.58288 1.5 12 1.5ZM9.25 9.25C8.83579 9.25 8.5 9.58579 8.5 10C8.5 10.4142 8.83579 10.75 9.25 10.75H14.75C15.1642 10.75 15.5 10.4142 15.5 10C15.5 9.58579 15.1642 9.25 14.75 9.25H9.25Z" fill="#1C252E"/>
</svg>
