<svg width="24" height="24" viewBox="0 0 24 24" fill="none" xmlns="http://www.w3.org/2000/svg">
<path d="M16.1904 2C18.7702 2.00012 20.62 3.09015 21.46 5.04004C21.5499 5.22004 21.4996 5.43985 21.3496 5.58984L5.58984 21.3496C5.44985 21.4896 5.23003 21.5399 5.04004 21.46C3.09015 20.62 2.00012 18.7702 2 16.1904V7.80957C2.00023 4.59991 4.59991 2.00023 7.80957 2H16.1904ZM9.05957 5.16992C7.36978 5.17017 6 6.64447 6 8.46289C6.00001 9.5596 7.11262 11.1966 7.99609 12.3232C8.45682 12.9108 8.68757 13.2049 9.05957 13.2051C9.43183 13.2051 9.6631 12.911 10.124 12.3232C11.0075 11.1966 12.1201 9.5596 12.1201 8.46289C12.1201 6.64431 10.7496 5.16992 9.05957 5.16992ZM9.05957 7.46484C9.69324 7.46484 10.2069 7.97867 10.207 8.6123C10.207 9.24605 9.69332 9.75977 9.05957 9.75977C8.42602 9.75953 7.91211 9.24591 7.91211 8.6123C7.91224 7.97881 8.4261 7.46508 9.05957 7.46484Z" fill="#1C252E"/>
<path d="M19.4699 20.53C19.6899 20.75 19.6599 21.11 19.3899 21.26C18.5099 21.75 17.4399 22 16.1899 22H7.8099C7.5199 22 7.3999 21.66 7.5999 21.46L13.6399 15.42C13.8399 15.22 14.1499 15.22 14.3499 15.42L19.4699 20.53Z" fill="#1C252E"/>
<path d="M21.9998 7.81002V16.19C21.9998 17.44 21.7498 18.52 21.2598 19.39C21.1098 19.66 20.7498 19.68 20.5298 19.47L15.4098 14.35C15.2098 14.15 15.2098 13.84 15.4098 13.64L21.4498 7.60002C21.6598 7.40002 21.9998 7.52002 21.9998 7.81002Z" fill="#1C252E"/>
</svg>
