<svg width="24" height="24" viewBox="0 0 24 24" fill="none" xmlns="http://www.w3.org/2000/svg">
<path fill-rule="evenodd" clip-rule="evenodd" d="M6.89691 9.61957C7.77659 8.49781 8.88467 6.86807 8.88467 5.77608C8.88467 3.96534 7.52056 2.49744 5.83784 2.49744C4.15513 2.49744 2.79102 3.96534 2.79102 5.77608C2.79102 6.86807 3.89909 8.49781 4.77877 9.61957C5.23771 10.2048 5.46718 10.4974 5.83784 10.4974C6.2085 10.4974 6.43797 10.2048 6.89691 9.61957ZM5.83784 7.06767C5.20682 7.06767 4.69528 6.55613 4.69528 5.92511C4.69528 5.2941 5.20682 4.78256 5.83784 4.78256C6.46886 4.78256 6.9804 5.2941 6.9804 5.92511C6.9804 6.55613 6.46886 7.06767 5.83784 7.06767Z" fill="#1C252E"/>
<path d="M11.9995 19.75H9.31945C8.15945 19.75 7.14945 19.05 6.74945 17.97C6.33945 16.89 6.63945 15.7 7.50945 14.93L15.4995 7.94C15.9795 7.52 15.9895 6.95 15.8495 6.56C15.6995 6.17 15.3195 5.75 14.6795 5.75H11.9995C11.5895 5.75 11.2495 5.41 11.2495 5C11.2495 4.59 11.5895 4.25 11.9995 4.25H14.6795C15.8395 4.25 16.8495 4.95 17.2495 6.03C17.6595 7.11 17.3595 8.3 16.4895 9.07L8.49945 16.06C8.01945 16.48 8.00945 17.05 8.14945 17.44C8.29945 17.83 8.67945 18.25 9.31945 18.25H11.9995C12.4095 18.25 12.7495 18.59 12.7495 19C12.7495 19.41 12.4095 19.75 11.9995 19.75Z" fill="#1C252E"/>
<path fill-rule="evenodd" clip-rule="evenodd" d="M20.1059 20.1221C20.9856 19.0004 22.0936 17.3706 22.0936 16.2786C22.0936 14.4679 20.7295 13 19.0468 13C17.3641 13 16 14.4679 16 16.2786C16 17.3706 17.1081 19.0004 17.9878 20.1221C18.4467 20.7074 18.6762 21 19.0468 21C19.4175 21 19.647 20.7074 20.1059 20.1221ZM19.0468 17.5702C18.4158 17.5702 17.9043 17.0587 17.9043 16.4277C17.9043 15.7967 18.4158 15.2851 19.0468 15.2851C19.6778 15.2851 20.1894 15.7967 20.1894 16.4277C20.1894 17.0587 19.6778 17.5702 19.0468 17.5702Z" fill="#1C252E"/>
</svg>
