<svg width="24" height="24" viewBox="0 0 24 24" fill="none" xmlns="http://www.w3.org/2000/svg">
<path d="M22.6498 18.13C22.5498 17.73 22.1498 17.48 21.7498 17.58C21.3498 17.68 21.0998 18.08 21.1898 18.48C21.2298 18.65 21.2498 18.82 21.2498 19C21.2498 20.24 20.2398 21.25 18.9998 21.25C17.7598 21.25 16.7498 20.24 16.7498 19C16.7498 17.9 17.5398 16.99 18.5898 16.79C18.4898 17.02 18.4998 17.3 18.6598 17.52C18.8098 17.72 19.0398 17.83 19.2698 17.83C19.4198 17.83 19.5798 17.78 19.7098 17.69L20.8798 16.84C20.8898 16.83 20.8898 16.82 20.8998 16.82C20.9098 16.81 20.9198 16.81 20.9298 16.8C20.9598 16.77 20.9798 16.74 20.9998 16.7C21.0298 16.66 21.0698 16.63 21.0898 16.58C21.1098 16.54 21.1198 16.49 21.1398 16.45C21.1498 16.4 21.1698 16.36 21.1798 16.31C21.1898 16.26 21.1798 16.22 21.1698 16.17C21.1698 16.12 21.1698 16.07 21.1498 16.02C21.1398 15.97 21.1098 15.93 21.0898 15.89C21.0698 15.85 21.0598 15.81 21.0398 15.78C21.0298 15.77 21.0198 15.77 21.0098 15.76C20.9998 15.76 20.9998 15.75 20.9998 15.74L19.9998 14.59C19.7298 14.28 19.2498 14.24 18.9398 14.52C18.7198 14.72 18.6398 15.01 18.7198 15.28C16.7898 15.43 15.2598 17.03 15.2598 19C15.2598 21.07 16.9398 22.75 19.0098 22.75C21.0798 22.75 22.7598 21.07 22.7598 19C22.7498 18.71 22.7198 18.41 22.6498 18.13Z" fill="#1C252E"/>
<path d="M2.02977 14.63C2.02977 14.66 2.00977 14.7 2.00977 14.73C2.92977 16.57 4.42977 18.08 6.26977 18.99C6.29977 18.99 6.33977 18.97 6.36977 18.97C6.02977 17.81 5.76977 16.62 5.57977 15.43C4.37977 15.23 3.18977 14.97 2.02977 14.63Z" fill="#1C252E"/>
<path d="M19.0701 6.43C18.1301 4.46 16.5401 2.87 14.5801 1.94C14.9401 3.13 15.2401 4.35 15.4401 5.57C16.6601 5.77 17.8801 6.06 19.0701 6.43Z" fill="#1C252E"/>
<path d="M1.92969 6.43002C3.12969 6.07002 4.34969 5.77002 5.56969 5.57002C5.76969 4.38002 6.01969 3.20002 6.35969 2.04002C6.32969 2.04002 6.28969 2.02002 6.25969 2.02002C4.37969 2.95002 2.84969 4.52002 1.92969 6.43002Z" fill="#1C252E"/>
<path d="M13.8197 5.36C13.5797 4.06 13.2797 2.76 12.8497 1.5C12.8297 1.43 12.8297 1.37 12.8197 1.29C12.0797 1.11 11.2997 1 10.4997 1C9.68969 1 8.91969 1.11 8.16969 1.3C8.15969 1.37 8.16969 1.43 8.14969 1.51C7.72969 2.77 7.41969 4.06 7.17969 5.36C9.38969 5.12 11.6097 5.12 13.8197 5.36Z" fill="#1C252E"/>
<path d="M5.36 7.17999C4.05 7.41999 2.77 7.72999 1.5 8.14999C1.43 8.16999 1.37 8.16999 1.3 8.17999C1.11 8.91999 1 9.69999 1 10.5C1 11.31 1.11 12.08 1.3 12.83C1.37 12.84 1.43 12.83 1.51 12.85C2.77 13.27 4.06 13.58 5.37 13.82C5.12 11.61 5.12 9.38999 5.36 7.17999Z" fill="#1C252E"/>
<path d="M19.6999 8.17999C19.6299 8.17999 19.5699 8.16999 19.4899 8.14999C18.2299 7.72999 16.9299 7.41999 15.6299 7.17999C15.8799 9.38999 15.8799 11.61 15.6299 13.81C16.9299 13.57 18.2299 13.27 19.4899 12.84C19.5599 12.82 19.6199 12.83 19.6999 12.82C19.8799 12.07 19.9999 11.3 19.9999 10.49C19.9999 9.69999 19.8899 8.92999 19.6999 8.17999Z" fill="#1C252E"/>
<path d="M7.17969 15.64C7.41969 16.95 7.71969 18.24 8.14969 19.5C8.16969 19.57 8.15969 19.63 8.16969 19.71C8.91969 19.89 9.68969 20 10.4997 20C11.2997 20 12.0797 19.89 12.8197 19.7C12.8297 19.63 12.8297 19.57 12.8497 19.49C13.2697 18.23 13.5797 16.94 13.8197 15.63C12.7197 15.75 11.6097 15.84 10.4997 15.84C9.38969 15.84 8.27969 15.76 7.17969 15.64Z" fill="#1C252E"/>
<path d="M6.94961 6.94998C6.64961 9.30998 6.64961 11.69 6.94961 14.06C9.30961 14.36 11.6896 14.36 14.0596 14.06C14.3596 11.7 14.3596 9.31998 14.0596 6.94998C11.6896 6.64998 9.30961 6.64998 6.94961 6.94998Z" fill="#1C252E"/>
</svg>
