<svg width="24" height="24" viewBox="0 0 24 24" fill="none" xmlns="http://www.w3.org/2000/svg">
<path d="M12 1.5C16.4171 1.50008 19.998 5.35328 19.998 10.1064C19.998 12.9728 17.0894 17.2507 14.7803 20.1953C13.5756 21.7315 12.9729 22.4999 12 22.5C11.027 22.5 10.4245 21.7316 9.21973 20.1953C6.9106 17.2507 4.00195 12.9728 4.00195 10.1064C4.00196 5.35324 7.58288 1.5 12 1.5ZM15.2803 7.46973C14.9874 7.17683 14.5126 7.17683 14.2197 7.46973L10.75 10.9395L9.78027 9.96973C9.48738 9.67683 9.01262 9.67683 8.71973 9.96973C8.42683 10.2626 8.42683 10.7374 8.71973 11.0303L10.2197 12.5303C10.5126 12.8232 10.9874 12.8232 11.2803 12.5303L15.2803 8.53027C15.5732 8.23738 15.5732 7.76262 15.2803 7.46973Z" fill="#1C252E"/>
</svg>
