<svg width="24" height="24" viewBox="0 0 24 24" fill="none" xmlns="http://www.w3.org/2000/svg">
<path d="M21.77 2.23C21.47 1.93 20.98 1.93 20.68 2.23L17.07 5.84C15.87 4.85 14.37 4.2 12.74 4.05V2C12.74 1.59 12.4 1.25 11.99 1.25C11.58 1.25 11.24 1.59 11.24 2V4.04C7.43 4.4 4.38 7.44 4.03 11.25H2C1.59 11.25 1.25 11.59 1.25 12C1.25 12.41 1.59 12.75 2 12.75H4.04C4.19 14.38 4.84 15.88 5.83 17.08L2.22 20.69C1.92 20.99 1.92 21.48 2.22 21.78C2.38 21.92 2.57 22 2.77 22C2.97 22 3.16 21.92 3.31 21.77L21.77 3.31C22.08 3.01 22.08 2.53 21.77 2.23ZM8.88 12C8.88 10.28 10.28 8.88 12 8.88C12.58 8.88 13.12 9.05 13.58 9.33L9.33 13.58C9.05 13.12 8.88 12.58 8.88 12Z" fill="#1C252E"/>
<path d="M22.7509 12C22.7509 12.41 22.4109 12.75 22.0009 12.75H19.9609C19.6109 16.56 16.5609 19.6099 12.7509 19.9599V22C12.7509 22.41 12.4109 22.75 12.0009 22.75C11.5909 22.75 11.2509 22.41 11.2509 22V19.9599C10.6409 19.9099 10.0409 19.78 9.47092 19.59C8.76092 19.35 8.54092 18.45 9.07092 17.92L11.8809 15.11C11.9209 15.12 11.9509 15.12 11.9909 15.12C13.7209 15.12 15.1109 13.73 15.1109 12C15.1109 11.96 15.1109 11.93 15.1009 11.89L17.9109 9.07995C18.4409 8.54995 19.3409 8.76995 19.5809 9.47995C19.7709 10.05 19.9009 10.64 19.9509 11.26H22.0009C22.4109 11.25 22.7509 11.59 22.7509 12Z" fill="#1C252E"/>
</svg>
