<svg width="24" height="24" viewBox="0 0 24 24" fill="none" xmlns="http://www.w3.org/2000/svg">
<path fill-rule="evenodd" clip-rule="evenodd" d="M14.7799 20.1956C17.0891 17.251 19.9978 12.9729 19.9978 10.1065C19.9978 5.35324 16.417 1.5 11.9999 1.5C7.58274 1.5 4.00195 5.35324 4.00195 10.1065C4.00195 12.9729 6.91065 17.251 9.2198 20.1956C10.4245 21.7319 11.0269 22.5 11.9999 22.5C12.9728 22.5 13.5752 21.7319 14.7799 20.1956ZM11.9999 13.4969C10.3434 13.4969 9.00065 12.1541 9.00065 10.4977C9.00065 8.84123 10.3434 7.49844 11.9999 7.49844C13.6563 7.49844 14.9991 8.84123 14.9991 10.4977C14.9991 12.1541 13.6563 13.4969 11.9999 13.4969Z" fill="#1C252E"/>
</svg>
