<svg width="24" height="24" viewBox="0 0 24 24" fill="none" xmlns="http://www.w3.org/2000/svg">
<path d="M7.62906 3.56993C7.80845 3.47209 7.99906 3.62261 7.99906 3.82695V17.3828C7.99906 17.606 7.84665 17.7948 7.64926 17.8991C7.64249 17.9027 7.63576 17.9063 7.62906 17.9099L5.27906 19.2499C3.63906 20.1899 2.28906 19.4099 2.28906 17.5099V7.77993C2.28906 7.14993 2.73906 6.36993 3.29906 6.04993L7.62906 3.56993Z" fill="#1C252E"/>
<path d="M14.7219 6.10229C14.8922 6.18664 15 6.36028 15 6.55035V19.7035C15 20.072 14.615 20.3139 14.283 20.1539L10.033 18.1063C9.85998 18.023 9.75 17.8479 9.75 17.6559V4.44559C9.75 4.07473 10.1396 3.83294 10.4719 3.99753L14.7219 6.10229Z" fill="#1C252E"/>
<path d="M22 6.49006V16.2201C22 16.8501 21.55 17.6301 20.99 17.9501L17.4986 19.951C17.1653 20.1421 16.75 19.9014 16.75 19.5172V6.33038C16.75 6.15087 16.8462 5.98513 17.0021 5.89615L19.01 4.75006C20.65 3.81006 22 4.59006 22 6.49006Z" fill="#1C252E"/>
</svg>
