<svg width="24" height="24" viewBox="0 0 24 24" fill="none" xmlns="http://www.w3.org/2000/svg">
<path d="M16.8203 2C18.9503 2 20.6804 3.74035 20.6904 5.86035V19.9502C20.6903 21.7601 19.4003 22.5196 17.8203 21.6396L12.9404 18.9297C12.4305 18.6397 11.5903 18.6398 11.0703 18.9297L6.19043 21.6396C4.61049 22.5096 3.32041 21.7501 3.32031 19.9502V5.86035C3.32031 3.74035 5.05066 2 7.18066 2H16.8203ZM9.5 9.90039C9.08579 9.90039 8.75 10.2362 8.75 10.6504C8.75021 11.0644 9.08592 11.4004 9.5 11.4004H14.5C14.9141 11.4004 15.2498 11.0644 15.25 10.6504C15.25 10.2362 14.9142 9.90039 14.5 9.90039H9.5Z" fill="#1C252E"/>
</svg>
