<svg width="24" height="24" viewBox="0 0 24 24" fill="none" xmlns="http://www.w3.org/2000/svg">
<path d="M22 10V15C22 20 20 22 15 22H9C4 22 2 20 2 15V12M14 2H9C4.72949 2 2.64745 3.45898 2.13082 7" stroke="#1C252E" stroke-width="1.5" stroke-linecap="round" stroke-linejoin="round"/>
<path d="M22 10H18C15 10 14 9 14 6V2L22 10Z" stroke="#1C252E" stroke-width="1.5" stroke-linecap="round" stroke-linejoin="round"/>
<path d="M9.41281 18.2702C9.36246 18.2702 9.31471 18.2469 9.28237 18.2064C8.79312 17.595 8.29776 17.1351 7.86073 16.7293C7.10485 16.0275 6.50781 15.4732 6.50781 14.6088C6.50781 14.1638 6.65842 13.7489 6.93189 13.4405C7.21562 13.1206 7.60907 12.9444 8.03975 12.9444C8.51971 12.9444 8.93896 13.1836 9.25217 13.6362C9.31605 13.7285 9.36924 13.8207 9.41281 13.9059C9.45638 13.8207 9.50957 13.7285 9.57345 13.6362C9.88667 13.1836 10.3059 12.9444 10.7859 12.9444C11.2166 12.9444 11.61 13.1206 11.8937 13.4405C12.1672 13.7489 12.3178 14.1638 12.3178 14.6088C12.3178 15.4732 11.7208 16.0275 10.9649 16.7293C10.5279 17.1351 10.0325 17.595 9.54325 18.2064C9.51091 18.2469 9.46316 18.2702 9.41281 18.2702Z" stroke="#1C252E" stroke-width="1.5"/>
</svg>
