<svg width="24" height="24" viewBox="0 0 24 24" fill="none" xmlns="http://www.w3.org/2000/svg">
<path d="M1.10015 19.0699C0.650145 20.5199 1.73013 22 3.24013 22H16.3801C17.4201 22 18.3201 21.3 18.5601 20.29L21.9301 6.76001C22.0501 6.26001 22.0101 5.76997 21.8201 5.33997C21.4901 4.53997 20.7001 3.95996 19.7501 3.95996H7.45015C6.47015 3.95996 5.60014 4.61005 5.31014 5.55005L2.67889 14" stroke="#1C252E" stroke-width="1.5" stroke-miterlimit="10" stroke-linecap="round"/>
<path d="M16 22H20.78C22.07 22 23.08 20.91 22.99 19.62L22 6" stroke="#1C252E" stroke-width="1.5" stroke-miterlimit="10" stroke-linecap="round" stroke-linejoin="round"/>
<path d="M9.67969 6.38L10.7197 2.06006" stroke="#1C252E" stroke-width="1.5" stroke-miterlimit="10" stroke-linecap="round" stroke-linejoin="round"/>
<path d="M16.3799 6.39001L17.3199 2.05005" stroke="#1C252E" stroke-width="1.5" stroke-miterlimit="10" stroke-linecap="round" stroke-linejoin="round"/>
<path d="M7.7002 12H15.7002" stroke="#1C252E" stroke-width="1.5" stroke-miterlimit="10" stroke-linecap="round" stroke-linejoin="round"/>
<path d="M6.7002 16H10M14.7002 16H14" stroke="#1C252E" stroke-width="1.5" stroke-miterlimit="10" stroke-linecap="round" stroke-linejoin="round"/>
</svg>
