<svg width="24" height="24" viewBox="0 0 24 24" fill="none" xmlns="http://www.w3.org/2000/svg">
<path d="M14 16.16L10.04 12.2" stroke="#1C252E" stroke-width="1.5" stroke-miterlimit="10" stroke-linecap="round" stroke-linejoin="round"/>
<path d="M13.96 12.24L10 16.2" stroke="#1C252E" stroke-width="1.5" stroke-miterlimit="10" stroke-linecap="round" stroke-linejoin="round"/>
<path d="M14 2C15 2 16 2 16 4C16 5 16 6 14 6H10C9 6 8 6 8 4C8 2 9 2 10 2H11" stroke="#1C252E" stroke-width="1.5" stroke-miterlimit="10" stroke-linecap="round" stroke-linejoin="round"/>
<path d="M16 4.02002C19.33 4.20002 21 5.43002 21 10V16C21 20 20 22 15 22H9C4 22 3 20 3 16V15M3 10C3 5.44002 4.67 4.20002 8 4.02002" stroke="#1C252E" stroke-width="1.5" stroke-miterlimit="10" stroke-linecap="round" stroke-linejoin="round"/>
</svg>
