<svg width="24" height="24" viewBox="0 0 24 24" fill="none" xmlns="http://www.w3.org/2000/svg">
<path d="M14 12C14 13.1046 13.1046 14 12 14C10.8954 14 10 13.1046 10 12C10 10.8954 10.8954 10 12 10" stroke="#1C252E" stroke-width="1.5" stroke-linecap="round" stroke-linejoin="round"/>
<path d="M20 18C21.26 16.33 22 14.25 22 12C22 9.75 21.26 7.67 20 6" stroke="#1C252E" stroke-width="1.5" stroke-linecap="round" stroke-linejoin="round"/>
<path d="M3.99964 6C3.61604 6.50842 3.28064 7.05484 2.99964 7.6325M3.99964 18C2.9286 16.5804 2.23329 14.8646 2.04883 13" stroke="#1C252E" stroke-width="1.5" stroke-linecap="round" stroke-linejoin="round"/>
<path d="M16.7998 15.6C17.5498 14.6 17.9998 13.35 17.9998 12C17.9998 10.65 17.5498 9.40002 16.7998 8.40002" stroke="#1C252E" stroke-width="1.5" stroke-linecap="round" stroke-linejoin="round"/>
<path d="M7.20001 8.40002C6.45001 9.40002 6 10.65 6 12C6 13.35 6.45001 14.6 7.20001 15.6" stroke="#1C252E" stroke-width="1.5" stroke-linecap="round" stroke-linejoin="round"/>
</svg>
