<svg width="24" height="24" viewBox="0 0 24 24" fill="none" xmlns="http://www.w3.org/2000/svg">
<path d="M4.29793 11.0278C4.40594 10.1259 5.12776 9.43148 6.03228 9.34793C6.59589 9.29586 7.27502 9.23707 7.99979 9.18283M15.9998 6C15.9998 4.34315 14.6566 3 12.9998 3H10.9998C9.34294 3 7.99979 4.34315 7.99979 6V9.18283M7.99979 9.18283C9.3228 9.08383 10.7979 9 11.9998 9C13.2017 9 14.6768 9.08383 15.9998 9.18283C16.7246 9.23707 17.4037 9.29586 17.9673 9.34793C18.8718 9.43148 19.5936 10.1259 19.7017 11.0278C19.8404 12.1867 19.9998 13.7824 19.9998 15C19.9998 16.2176 19.8404 17.8133 19.7017 18.9722C19.5936 19.8741 18.8718 20.5685 17.9673 20.6521C16.3749 20.7992 13.8602 21 11.9998 21C10.1394 21 7.62471 20.7992 6.03228 20.6521C5.12776 20.5685 4.40594 19.8741 4.29793 18.9722C4.19482 18.1112 4.08035 17.009 4.02832 16" stroke="#1C252E" stroke-width="1.5" stroke-linecap="round"/>
<path d="M12 14V16" stroke="#1C252E" stroke-width="1.5" stroke-linecap="round"/>
</svg>
