<svg width="24" height="24" viewBox="0 0 24 24" fill="none" xmlns="http://www.w3.org/2000/svg">
<path opacity="0.4" d="M12 2C9.55996 2 7.57996 3.98 7.57996 6.42V11.54C7.57996 12.7854 8.09578 13.911 8.92531 14.7146L16.42 7.5V6.42C16.42 3.98 14.44 2 12 2Z" fill="#1C252E"/>
<path d="M12.75 4.04999C12.75 4.4642 12.4142 4.79999 12 4.79999C11.5858 4.79999 11.25 4.4642 11.25 4.04999V2.06344C11.4938 2.02173 11.7443 2 12 2C12.2556 2 12.5062 2.02174 12.75 2.06346V4.04999Z" fill="#1C252E"/>
<path d="M19.81 9.81V11.4C19.81 15.47 16.68 18.82 12.7 19.17V21.3C12.7 21.69 12.39 22 12 22C11.61 22 11.3 21.69 11.3 21.3V19.17C10.21 19.07 9.18001 18.75 8.26001 18.24L9.29001 17.21C10.11 17.59 11.03 17.81 12 17.81C15.54 17.81 18.42 14.93 18.42 11.4V9.81C18.42 9.43 18.73 9.12 19.12 9.12C19.5 9.12 19.81 9.43 19.81 9.81Z" fill="#1C252E"/>
<path d="M16.42 10.08V11.53C16.42 14.11 14.2 16.18 11.56 15.93C11.28 15.9 11 15.85 10.74 15.76L16.42 10.08Z" fill="#1C252E"/>
<path d="M21.77 2.23C21.47 1.93 20.98 1.93 20.68 2.23L7.23 15.68C6.2 14.55 5.57999 13.05 5.57999 11.4V9.81001C5.57999 9.43001 5.27 9.12 4.88 9.12C4.5 9.12 4.19 9.43001 4.19 9.81001V11.4C4.19 13.43 4.97 15.28 6.24 16.67L2.22 20.69C1.92 20.99 1.92 21.48 2.22 21.78C2.38 21.92 2.57 22 2.77 22C2.97 22 3.16 21.92 3.31 21.77L21.77 3.31C22.08 3.01 22.08 2.53 21.77 2.23Z" fill="#1C252E"/>
</svg>
