<svg width="24" height="24" viewBox="0 0 24 24" fill="none" xmlns="http://www.w3.org/2000/svg">
<path d="M10.2899 10.3398V18.4098C10.2899 20.3898 8.66986 21.9998 6.69986 21.9998C4.71986 21.9998 3.10986 20.3898 3.10986 18.4098C3.10986 16.4398 4.71986 14.8298 6.69986 14.8298C7.52986 14.8298 8.27986 15.1198 8.88986 15.5898V10.7398L10.2899 10.3398Z" fill="#1C252E"/>
<path d="M20.89 7.31982V16.4798C20.89 18.4598 19.28 20.0698 17.3 20.0698C15.33 20.0698 13.71 18.4598 13.71 16.4798C13.71 14.5098 15.33 12.8998 17.3 12.8998C18.14 12.8998 18.89 13.1898 19.5 13.6698V7.71982L20.89 7.31982Z" fill="#1C252E"/>
<path opacity="0.4" d="M20.8901 5.18007V7.32007L8.89014 10.7401V6.75007C8.89014 5.28007 9.78014 4.14007 11.1901 3.76007L16.9701 2.18007C18.1401 1.86007 19.1301 1.97007 19.8301 2.51007C20.5401 3.04007 20.8901 3.94007 20.8901 5.18007Z" fill="#1C252E"/>
</svg>
