<svg width="24" height="24" viewBox="0 0 24 24" fill="none" xmlns="http://www.w3.org/2000/svg">
<path fill-rule="evenodd" clip-rule="evenodd" d="M16 17.5C16 18.64 15.07 19.57 13.93 19.57C12.79 19.57 11.86 18.64 11.86 17.5C11.86 16.36 12.79 15.43 13.93 15.43C14.13 15.43 14.32 15.47 14.5 15.52V14.26L11.15 15.17V18.38C11.15 18.39 11.15 18.4 11.14 18.41C11.13 19.54 10.2 20.46 9.07 20.46C7.93 20.46 7 19.53 7 18.38C7 17.23 7.93 16.31 9.07 16.31C9.27 16.31 9.46 16.35 9.65 16.4V13.05C9.65 12.19 10.19 11.49 11.01 11.27L13.66 10.54C14.51 10.31 15.05 10.53 15.35 10.76C15.65 10.99 16 11.44 16 12.33V17.5ZM13.36 17.5C13.36 17.19 13.61 16.93 13.93 16.93C14.24 16.93 14.5 17.19 14.5 17.5C14.5 17.81 14.24 18.07 13.93 18.07C13.62 18.07 13.36 17.81 13.36 17.5ZM8.5 18.38C8.5 18.07 8.75 17.81 9.07 17.81C9.39 17.81 9.64 18.07 9.64 18.38C9.64 18.69 9.38 18.95 9.07 18.95C8.76 18.95 8.5 18.69 8.5 18.38Z" fill="#1C252E"/>
<path d="M19 7V8.13C18.68 8.04 18.35 8 18 8H6C5.65 8 5.32 8.04 5 8.13V7C5 5.9 5.9 5 7 5H17C18.1 5 19 5.9 19 7Z" fill="#1C252E"/>
<path opacity="0.4" d="M22 12V18C22 20.2 20.2 22 18 22H6C3.8 22 2 20.2 2 18V12C2 10.15 3.28 8.58 5 8.13C5.32 8.04 5.65 8 6 8H18C18.35 8 18.68 8.04 19 8.13C20.72 8.58 22 10.15 22 12Z" fill="#1C252E"/>
<path opacity="0.4" d="M16 3.51001V5H8V3.51001C8 2.68001 8.68001 2 9.51001 2H14.49C15.32 2 16 2.68001 16 3.51001Z" fill="#1C252E"/>
</svg>
