<svg width="24" height="24" viewBox="0 0 24 24" fill="none" xmlns="http://www.w3.org/2000/svg">
<path d="M21.1468 18.9855C21.1468 17.7916 20.1787 16.8236 18.9849 16.8235C17.791 16.8235 16.8229 17.7916 16.8229 18.9855C16.823 20.1793 17.791 21.1474 18.9849 21.1474C20.1787 21.1473 21.1467 20.1793 21.1468 18.9855ZM22.4704 18.9855C22.4703 19.71 22.2481 20.3823 21.8698 20.9398C21.8883 20.9547 21.906 20.9709 21.9232 20.988L22.8056 21.8704C23.064 22.1288 23.064 22.5477 22.8056 22.8062C22.5471 23.0646 22.1282 23.0646 21.8698 22.8062L20.9874 21.9238C20.9702 21.9066 20.9541 21.8889 20.9392 21.8704C20.3817 22.2488 19.7094 22.4709 18.9849 22.471C17.06 22.471 15.4995 20.9103 15.4994 18.9855C15.4994 17.0606 17.06 15.5 18.9849 15.5C20.9097 15.5001 22.4704 17.0607 22.4704 18.9855Z" fill="#1C252E"/>
<g opacity="0.4">
<path d="M12.23 12.07C11.82 12.07 11.49 12.4 11.49 12.81C11.49 13.22 11.82 13.55 12.23 13.55C12.64 13.55 12.97 13.22 12.97 12.81C12.97 12.4 12.64 12.07 12.23 12.07Z" fill="#1C252E"/>
<path d="M6.76 13.06C6.35 13.06 6.02 13.39 6.02 13.8C6.02 14.21 6.35 14.54 6.76 14.54C7.17 14.54 7.5 14.21 7.5 13.8C7.5 13.39 7.17 13.06 6.76 13.06Z" fill="#1C252E"/>
<path d="M16.19 2H7.81C7.53 2 7.26 2.01 7 2.05C3.85 2.34 2 4.45 2 7.81V16.19C2 19.55 3.85 21.66 7 21.95C7.26 21.99 7.53 22 7.81 22H13.5C13.89 22 14.14 21.56 13.99 21.2C13.7 20.51 13.5 19.71 13.5 19C13.5 15.97 15.97 13.5 19 13.5C19.76 13.5 20.5 13.65 21.18 13.95C21.55 14.11 22 13.86 22 13.46V7.81C22 4.17 19.83 2 16.19 2ZM14.48 8.05V12.81C14.48 12.82 14.47 12.83 14.47 12.85C14.45 14.07 13.46 15.06 12.23 15.06C10.99 15.06 9.99 14.05 9.99 12.82C9.99 11.58 11 10.58 12.23 10.58C12.49 10.58 12.74 10.63 12.98 10.72V9.03L9.01 10.11V13.81C9.01 13.82 9 13.83 9 13.84C8.98 15.06 7.99 16.04 6.76 16.04C5.52 16.04 4.52 15.03 4.52 13.8C4.52 12.57 5.53 11.56 6.76 11.56C7.02 11.56 7.27 11.61 7.5 11.7V7.79C7.5 6.86 8.08 6.11 8.97 5.87L11.95 5.05C12.88 4.8 13.45 5.05 13.77 5.29C14.23 5.64 14.46 6.21 14.46 6.97V8.05H14.48Z" fill="#1C252E"/>
</g>
<path fill-rule="evenodd" clip-rule="evenodd" d="M14.48 8.05V12.81C14.48 12.82 14.47 12.83 14.47 12.85C14.45 14.07 13.46 15.06 12.23 15.06C10.99 15.06 9.99 14.05 9.99 12.82C9.99 11.58 11 10.58 12.23 10.58C12.49 10.58 12.74 10.63 12.98 10.72V9.03L9.01 10.11V13.81C9.01 13.82 9 13.83 9 13.84C8.98 15.06 7.99 16.04 6.76 16.04C5.52 16.04 4.52 15.03 4.52 13.8C4.52 12.57 5.53 11.56 6.76 11.56C7.02 11.56 7.27 11.61 7.5 11.7V7.79C7.5 6.86 8.08 6.11 8.97 5.87L11.95 5.05C12.88 4.8 13.45 5.05 13.77 5.29C14.23 5.64 14.46 6.21 14.46 6.97V8.05H14.48ZM11.49 12.81C11.49 12.4 11.82 12.07 12.23 12.07C12.64 12.07 12.97 12.4 12.97 12.81C12.97 13.22 12.64 13.55 12.23 13.55C11.82 13.55 11.49 13.22 11.49 12.81ZM6.02 13.8C6.02 13.39 6.35 13.06 6.76 13.06C7.17 13.06 7.5 13.39 7.5 13.8C7.5 14.21 7.17 14.54 6.76 14.54C6.35 14.54 6.02 14.21 6.02 13.8Z" fill="#1C252E"/>
</svg>
