<svg width="24" height="24" viewBox="0 0 24 24" fill="none" xmlns="http://www.w3.org/2000/svg">
<path opacity="0.4" d="M20.46 3.54L3.54 20.46C2.54 19.46 2 18.01 2 16.19V7.81C2 4.17 4.17 2 7.81 2H16.19C18.01 2 19.46 2.54 20.46 3.54Z" fill="#1C252E"/>
<path opacity="0.4" d="M21.9998 7.81001V13.9L20.3698 12.5C19.5898 11.83 18.3298 11.83 17.5498 12.5L13.3898 16.07C12.6798 16.68 11.5598 16.74 10.7798 16.22L21.6098 5.39001C21.7498 5.77001 21.8498 6.17001 21.9098 6.60001C21.9698 6.98001 21.9998 7.39001 21.9998 7.81001Z" fill="#1C252E"/>
<path d="M22.0001 13.9001V16.1901C22.0001 19.8301 19.8301 22.0001 16.1901 22.0001H7.81014C7.39014 22.0001 6.98014 21.9701 6.60014 21.9101C6.17014 21.8501 5.77014 21.7501 5.39014 21.6101L10.7801 16.2201C11.5601 16.7401 12.6801 16.6801 13.3901 16.0701L17.5501 12.5001C18.3301 11.8301 19.5901 11.8301 20.3701 12.5001L22.0001 13.9001Z" fill="#1C252E"/>
<path d="M21.7699 2.23C21.4699 1.93 20.9799 1.93 20.6799 2.23L2.22988 20.69C1.92988 20.99 1.92988 21.48 2.22988 21.78C2.37988 21.92 2.56988 22 2.76988 22C2.96988 22 3.15988 21.92 3.30988 21.77L21.7699 3.31C22.0799 3.01 22.0799 2.53 21.7699 2.23Z" fill="#1C252E"/>
<path d="M8.00012 10.38C9.31456 10.38 10.3801 9.31443 10.3801 8C10.3801 6.68556 9.31456 5.62 8.00012 5.62C6.68568 5.62 5.62012 6.68556 5.62012 8C5.62012 9.31443 6.68568 10.38 8.00012 10.38Z" fill="#1C252E"/>
</svg>
