<svg width="24" height="24" viewBox="0 0 24 24" fill="none" xmlns="http://www.w3.org/2000/svg">
<path d="M21.15 6.17001C20.74 5.95001 19.88 5.72001 18.71 6.54001L17.24 7.58001V16.42L18.71 17.46C19.33 17.9 19.87 18.04 20.3 18.04C20.67 18.04 20.96 17.93 21.15 17.83C21.56 17.62 22.25 17.05 22.25 15.62V8.38001C22.25 6.95001 21.56 6.38001 21.15 6.17001Z" fill="#1C252E"/>
<path opacity="0.4" fill-rule="evenodd" clip-rule="evenodd" d="M17.24 7.58C17.13 4.47 15.78 3.25 12.5 3.25H6.5C3.08 3.25 1.75 4.58 1.75 8V16C1.75 18.3 3 20.75 6.5 20.75H12.5C15.78 20.75 17.13 19.53 17.24 16.42V7.58ZM9.12 9.5C9.12 10.54 9.97 11.38 11 11.38C12.03 11.38 12.88 10.54 12.88 9.5C12.88 8.46 12.03 7.62 11 7.62C9.97 7.62 9.12 8.46 9.12 9.5Z" fill="#1C252E"/>
<path d="M11 11.38C9.97 11.38 9.12 10.54 9.12 9.5C9.12 8.46 9.97 7.62 11 7.62C12.03 7.62 12.88 8.46 12.88 9.5C12.88 10.54 12.03 11.38 11 11.38Z" fill="#1C252E"/>
</svg>
