<svg width="24" height="24" viewBox="0 0 24 24" fill="none" xmlns="http://www.w3.org/2000/svg">
<path opacity="0.4" d="M20.95 4.13C20.66 3.71 20.29 3.34 19.87 3.05C18.92 2.36 17.68 2 16.19 2H7.81C7.61 2 7.41 2.01 7.22 2.03C3.94 2.24 2 4.37 2 7.81V16.19C2 17.68 2.36 18.92 3.05 19.87C3.34 20.29 3.71 20.66 4.13 20.95C4.95 21.55 5.99 21.9 7.22 21.98C7.41 21.99 7.61 22 7.81 22H16.19C19.83 22 22 19.83 22 16.19V7.81C22 6.32 21.64 5.08 20.95 4.13Z" fill="#1C252E"/>
<path d="M16.8299 18.96H7.16992C6.75992 18.96 6.41992 18.62 6.41992 18.21C6.41992 17.8 6.75992 17.46 7.16992 17.46H16.8399C17.2499 17.46 17.5899 17.8 17.5899 18.21C17.5899 18.62 17.2499 18.96 16.8299 18.96ZM17.5799 10.62C17.5799 13.7 15.0799 16.2 11.9999 16.2C8.91992 16.2 6.41992 13.7 6.41992 10.62V5.79004C6.41992 5.38004 6.75992 5.04004 7.16992 5.04004C7.57992 5.04004 7.91992 5.38004 7.91992 5.79004V10.62C7.91992 12.87 9.74992 14.7 11.9999 14.7C14.2499 14.7 16.0799 12.87 16.0799 10.62V5.79004C16.0799 5.38004 16.4199 5.04004 16.8299 5.04004C17.2399 5.04004 17.5799 5.38004 17.5799 5.79004V10.62Z" fill="#1C252E"/>
</svg>
