<svg width="24" height="24" viewBox="0 0 24 24" fill="none" xmlns="http://www.w3.org/2000/svg">
<path d="M15.4101 18.59C15.0101 18.59 14.6801 18.26 14.6801 17.86C14.6801 17.46 15.0101 17.13 15.4101 17.13C18.2301 17.13 20.5301 14.83 20.5301 12.01C20.5301 9.18998 18.2301 6.88998 15.4101 6.88998C12.5901 6.88998 10.2901 9.18998 10.2901 12.01C10.2901 12.41 9.96008 12.74 9.56008 12.74C9.16008 12.74 8.83008 12.41 8.83008 12.01C8.83008 8.37998 11.7801 5.41998 15.4201 5.41998C19.0601 5.41998 22.0001 8.36998 22.0001 12C22.0001 15.63 19.0501 18.59 15.4101 18.59Z" fill="#1C252E"/>
<path opacity="0.4" d="M8.59 5.40997C8.99 5.40997 9.32 5.73997 9.32 6.13997C9.32 6.53997 8.99 6.86997 8.59 6.86997C5.77 6.86997 3.47 9.16997 3.47 11.99C3.47 14.81 5.77 17.11 8.59 17.11C11.41 17.11 13.71 14.81 13.71 11.99C13.71 11.59 14.04 11.26 14.44 11.26C14.84 11.26 15.17 11.59 15.17 11.99C15.17 15.62 12.22 18.58 8.58 18.58C4.94 18.58 2 15.63 2 12C2 8.36997 4.95 5.40997 8.59 5.40997Z" fill="#1C252E"/>
</svg>
