<svg width="24" height="24" viewBox="0 0 24 24" fill="none" xmlns="http://www.w3.org/2000/svg">
<path opacity="0.4" d="M11.0018 7.5V16.5C11.0018 17.05 10.5518 17.5 10.0018 17.5H7.50185C5.98185 17.5 4.61185 16.88 3.61185 15.89C2.67185 14.94 2.06185 13.65 2.00185 12.22C1.88185 9.08 4.62185 6.5 7.77185 6.5H10.0018C10.5518 6.5 11.0018 6.95 11.0018 7.5Z" fill="#1C252E"/>
<path opacity="0.4" d="M22.0017 11.78C22.1317 14.93 19.3917 17.5 16.2417 17.5H14.0117C13.4617 17.5 13.0117 17.05 13.0117 16.5V7.5C13.0117 6.95 13.4617 6.5 14.0117 6.5H16.5117C18.0317 6.5 19.4017 7.12 20.4017 8.11C21.3317 9.06 21.9417 10.35 22.0017 11.78Z" fill="#1C252E"/>
<path d="M16.002 12.75H8.00195C7.59195 12.75 7.25195 12.41 7.25195 12C7.25195 11.59 7.59195 11.25 8.00195 11.25H16.002C16.412 11.25 16.752 11.59 16.752 12C16.752 12.41 16.412 12.75 16.002 12.75Z" fill="#1C252E"/>
</svg>
