<svg width="24" height="24" viewBox="0 0 24 24" fill="none" xmlns="http://www.w3.org/2000/svg">
<path opacity="0.4" d="M20.95 4.13C20.66 3.71 20.29 3.34 19.87 3.05C18.92 2.36 17.68 2 16.19 2H7.81C7.61 2 7.41 2.01 7.22 2.03C3.94 2.24 2 4.37 2 7.81V16.19C2 17.68 2.36 18.92 3.05 19.87C3.34 20.29 3.71 20.66 4.13 20.95C4.95 21.55 5.99 21.9 7.22 21.98C7.41 21.99 7.61 22 7.81 22H16.19C19.83 22 22 19.83 22 16.19V7.81C22 6.32 21.64 5.08 20.95 4.13Z" fill="#1C252E"/>
<path d="M15.8699 7.51001H13.9199L11.6799 16.48H13.5199C13.9299 16.48 14.2699 16.82 14.2699 17.23C14.2699 17.64 13.9299 17.98 13.5199 17.98H8.12988C7.71988 17.98 7.37988 17.64 7.37988 17.23C7.37988 16.82 7.71988 16.48 8.12988 16.48H10.1299L12.3699 7.51001H10.4799C10.0699 7.51001 9.72988 7.17001 9.72988 6.76001C9.72988 6.35001 10.0699 6.01001 10.4799 6.01001H15.8599C16.2699 6.01001 16.6099 6.35001 16.6099 6.76001C16.6099 7.17001 16.2799 7.51001 15.8699 7.51001Z" fill="#1C252E"/>
</svg>
