<svg width="24" height="24" viewBox="0 0 24 24" fill="none" xmlns="http://www.w3.org/2000/svg">
<path opacity="0.4" d="M20.95 4.13C20.66 3.71 20.29 3.34 19.87 3.05C18.92 2.36 17.68 2 16.19 2H7.81C7.61 2 7.41 2.01 7.22 2.03C3.94 2.24 2 4.37 2 7.81V16.19C2 17.68 2.36 18.92 3.05 19.87C3.34 20.29 3.71 20.66 4.13 20.95C4.95 21.55 5.99 21.9 7.22 21.98C7.41 21.99 7.61 22 7.81 22H16.19C19.83 22 22 19.83 22 16.19V7.81C22 6.32 21.64 5.08 20.95 4.13Z" fill="#1C252E"/>
<path d="M12.25 5.25C14.32 5.25 16 6.93 16 9C16 9.96 15.6303 10.8302 15.0303 11.4902C16.4601 12.0203 17.5 13.3801 17.5 15C17.5 17.07 15.82 18.75 13.75 18.75H9.00977C7.89995 18.7499 7.00013 17.85 7 16.7402V7.25977C7.00013 6.14995 7.89995 5.25013 9.00977 5.25H12.25ZM8.5 12.75V16.7402C8.50013 17.0201 8.72995 17.2499 9.00977 17.25H13.75C14.99 17.25 16 16.24 16 15C16 13.76 14.99 12.75 13.75 12.75H8.5ZM9.00977 6.75C8.72995 6.75013 8.50013 6.97995 8.5 7.25977V11.25H12.25C13.49 11.25 14.5 10.24 14.5 9C14.5 7.76 13.49 6.75 12.25 6.75H9.00977Z" fill="#1C252E"/>
</svg>
