<svg width="24" height="24" viewBox="0 0 24 24" fill="none" xmlns="http://www.w3.org/2000/svg">
<path opacity="0.4" d="M16.19 2H7.81C4.17 2 2 4.17 2 7.81V16.18C2 19.83 4.17 22 7.81 22H16.18C19.82 22 21.99 19.83 21.99 16.19V7.81C22 4.17 19.83 2 16.19 2Z" fill="#1C252E"/>
<path d="M16.3703 14.63L14.1503 16.85C13.6103 17.39 12.9103 17.65 12.2103 17.65C11.5103 17.65 10.8003 17.38 10.2703 16.85C9.20031 15.78 9.20031 14.03 10.2703 12.96L11.6803 11.55C11.9703 11.26 12.4503 11.26 12.7403 11.55C13.0303 11.84 13.0303 12.32 12.7403 12.61L11.3303 14.02C10.8403 14.51 10.8403 15.3 11.3303 15.79C11.8203 16.28 12.6103 16.28 13.1003 15.79L15.3203 13.57C15.9303 12.96 16.2703 12.14 16.2703 11.27C16.2703 10.4 15.9303 9.59003 15.3203 8.97003C14.0903 7.74003 11.9503 7.74003 10.7203 8.97003L8.29031 11.4C7.25031 12.44 7.25031 14.14 8.29031 15.19C8.58031 15.48 8.58031 15.96 8.29031 16.25C8.00031 16.54 7.52031 16.54 7.23031 16.25C5.60031 14.62 5.60031 11.97 7.23031 10.34L9.65031 7.92003C10.5503 7.02003 11.7403 6.53003 13.0103 6.53003C14.2803 6.53003 15.4703 7.02003 16.3703 7.92003C17.2703 8.82003 17.7603 10.01 17.7603 11.28C17.7603 12.55 17.2703 13.74 16.3703 14.63Z" fill="#1C252E"/>
</svg>
