<svg width="24" height="24" viewBox="0 0 24 24" fill="none" xmlns="http://www.w3.org/2000/svg">
<path opacity="0.4" d="M16.19 2H7.81C4.17 2 2 4.17 2 7.81V16.18C2 19.83 4.17 22 7.81 22H16.18C19.82 22 21.99 19.83 21.99 16.19V7.81C22 4.17 19.83 2 16.19 2Z" fill="#1C252E"/>
<path d="M17.6695 9.22002C17.4795 9.59002 17.0395 9.74002 16.6595 9.56002C15.4295 8.94002 14.0995 8.60002 12.7495 8.50002V16.29C12.7495 16.7 12.4095 17.04 11.9995 17.04C11.5895 17.04 11.2495 16.7 11.2495 16.29V8.50002C9.89954 8.60002 8.56954 8.94002 7.33954 9.56002C7.22954 9.61002 7.10954 9.63002 6.99954 9.63002C6.72954 9.63002 6.45954 9.48002 6.32954 9.22002C6.13954 8.85002 6.28954 8.40002 6.65954 8.21002C9.99954 6.54002 13.9895 6.54002 17.3295 8.21002C17.7095 8.40002 17.8595 8.85002 17.6695 9.22002Z" fill="#1C252E"/>
</svg>
