<svg width="24" height="24" viewBox="0 0 24 24" fill="none" xmlns="http://www.w3.org/2000/svg">
<path d="M9.01 9.76C8.33 9.76 7.67 9.5 7.12 9.04C6.5 9.49 5.75 9.76 4.94 9.76C4.53 9.76 4.19 9.42 4.19 9.01C4.19 8.6 4.53 8.26 4.94 8.26C5.96 8.26 6.81 7.56 7.12 6.6H4.94C4.53 6.6 4.19 6.26 4.19 5.85C4.19 5.44 4.53 5.1 4.94 5.1H6.23C6.27 4.72 6.58 4.42 6.97 4.42C7.36 4.42 7.67 4.72 7.71 5.1H7.97H7.99H9C9.41 5.1 9.75 5.44 9.75 5.85C9.75 6.26 9.42 6.6 9 6.6H8.67C8.58 7.08 8.39 7.53 8.14 7.94C8.41 8.14 8.7 8.26 9.01 8.26C9.42 8.26 9.76 8.6 9.76 9.01C9.76 9.42 9.42 9.76 9.01 9.76Z" fill="#1C252E"/>
<path opacity="0.4" d="M8.93 2H5.02C3 2 2 3 2 5.02V8.94C2 11 3 12 5.02 11.95H8.94C11 12 12 11 11.95 8.93V5.02C12 3 11 2 8.93 2ZM9.01 9.76C8.33 9.76 7.67 9.5 7.12 9.04C6.5 9.49 5.75 9.76 4.94 9.76C4.53 9.76 4.19 9.42 4.19 9.01C4.19 8.6 4.53 8.26 4.94 8.26C5.96 8.26 6.81 7.56 7.12 6.6H4.94C4.53 6.6 4.19 6.26 4.19 5.85C4.19 5.44 4.53 5.1 4.94 5.1H6.23C6.27 4.72 6.58 4.42 6.97 4.42C7.36 4.42 7.67 4.72 7.71 5.1H7.97C7.98 5.1 7.99 5.1 7.99 5.1H8.01H9C9.41 5.1 9.75 5.44 9.75 5.85C9.75 6.26 9.42 6.6 9 6.6H8.67C8.58 7.08 8.39 7.53 8.14 7.94C8.41 8.14 8.7 8.26 9.01 8.26C9.42 8.26 9.76 8.6 9.76 9.01C9.76 9.42 9.42 9.76 9.01 9.76Z" fill="#1C252E"/>
<path d="M9 22.75C4.73 22.75 1.25 19.27 1.25 15C1.25 14.59 1.59 14.25 2 14.25C2.41 14.25 2.75 14.59 2.75 15C2.75 17.96 4.81 20.44 7.58 21.09L7.31 20.64C7.1 20.28 7.21 19.82 7.57 19.61C7.92 19.4 8.39 19.51 8.6 19.87L9.65 21.62C9.79 21.85 9.79 22.14 9.66 22.37C9.52 22.6 9.27 22.75 9 22.75Z" fill="#1C252E"/>
<path d="M22.0004 9.75C21.5904 9.75 21.2504 9.41 21.2504 9C21.2504 6.04 19.1904 3.56 16.4204 2.91L16.6904 3.36C16.9004 3.72 16.7904 4.18 16.4304 4.39C16.0804 4.6 15.6104 4.49 15.4004 4.13L14.3504 2.38C14.2104 2.15 14.2104 1.86 14.3404 1.63C14.4804 1.4 14.7304 1.25 15.0004 1.25C19.2704 1.25 22.7504 4.73 22.7504 9C22.7504 9.41 22.4104 9.75 22.0004 9.75Z" fill="#1C252E"/>
<path opacity="0.4" d="M16.9198 11.8501C14.1198 11.8501 11.8398 14.1201 11.8398 16.9301C11.8398 19.7301 14.1098 22.0101 16.9198 22.0101C19.7198 22.0101 21.9998 19.7401 21.9998 16.9301C21.9998 14.1201 19.7298 11.8501 16.9198 11.8501Z" fill="#1C252E"/>
<path d="M16.9296 13.6396C17.2096 13.6396 17.4695 13.8005 17.5995 14.0605L19.7391 18.3301C19.9191 18.7001 19.7693 19.1498 19.3993 19.3398C19.0293 19.5197 18.5795 19.38 18.3895 19L18.2196 18.6602H15.6298L15.4598 19C15.3299 19.2599 15.0598 19.41 14.7899 19.4102C14.68 19.4102 14.5598 19.38 14.4598 19.3301C14.0899 19.1401 13.94 18.6903 14.12 18.3203L16.2597 14.0498C16.3897 13.8 16.6497 13.6397 16.9296 13.6396ZM16.3798 17.1602H17.4696L16.9198 16.0703L16.3798 17.1602Z" fill="#1C252E"/>
</svg>
