<svg width="24" height="24" viewBox="0 0 24 24" fill="none" xmlns="http://www.w3.org/2000/svg">
<path d="M18.6498 4.59003C16.8898 2.99003 14.5598 2.03003 11.9998 2.03003C6.49979 2.03003 2.02979 6.50003 2.02979 12C2.02979 17.5 6.49979 21.97 11.9998 21.97C14.5598 21.97 16.8898 21.01 18.6498 19.41C20.6898 17.6 21.9698 14.94 21.9698 12C21.9698 9.06003 20.6898 6.40003 18.6498 4.59003ZM11.9698 16.39C11.9498 18.04 10.7198 18.44 9.56979 17.98C7.19979 17.03 5.52979 14.71 5.52979 12C5.52979 9.29003 7.19979 6.97003 9.56979 6.01003C10.7198 5.55003 11.9498 5.96003 11.9698 7.60003V16.39Z" fill="#1C252E"/>
</svg>
