<svg width="24" height="24" viewBox="0 0 24 24" fill="none" xmlns="http://www.w3.org/2000/svg">
<path d="M16.2402 9.51998L20.9502 14.23C21.2302 14.51 21.7202 14.36 21.8002 13.97C21.9302 13.33 22.0002 12.67 22.0002 12C22.0002 9.70998 21.2202 7.59998 19.9302 5.91998C19.7502 5.67998 19.3902 5.66998 19.1802 5.87998L16.2402 8.81998C16.0502 9.00998 16.0502 9.32998 16.2402 9.51998Z" fill="#1C252E"/>
<path d="M14.4801 10.58L12.7101 12.35C12.5101 12.55 12.5101 12.86 12.7101 13.06L18.5301 18.88C18.7301 19.08 19.0501 19.08 19.2401 18.88C19.8601 18.23 20.3901 17.5 20.8201 16.71C20.9201 16.52 20.8801 16.27 20.7301 16.12L15.1901 10.58C14.9901 10.39 14.6701 10.39 14.4801 10.58Z" fill="#1C252E"/>
<path d="M10.9398 14.1201L9.17979 15.8801C8.97979 16.0801 8.97979 16.3901 9.17979 16.5901L14.0998 21.5201C14.2298 21.6501 14.4198 21.7001 14.5898 21.6501C15.5198 21.4001 16.3998 21.0201 17.1998 20.5201C17.4698 20.3501 17.5098 19.9701 17.2798 19.7401L11.6498 14.1101C11.4498 13.9301 11.1298 13.9301 10.9398 14.1201Z" fill="#1C252E"/>
<path d="M18.0802 4.06991C16.1002 2.53991 13.5302 1.73991 10.7702 2.06991C6.26016 2.60991 2.61016 6.26991 2.07016 10.7699C1.74016 13.5299 2.54016 16.0899 4.07016 18.0799C4.25016 18.3199 4.61016 18.3299 4.82016 18.1199L18.1202 4.81991C18.3302 4.60991 18.3202 4.24991 18.0802 4.06991Z" fill="#1C252E"/>
<path d="M7.40023 17.67L5.88023 19.19C5.67023 19.4 5.68023 19.76 5.92023 19.94C7.43023 21.11 9.28023 21.85 11.3102 21.99C11.7402 22.02 11.9502 21.51 11.6402 21.2L8.11023 17.67C7.92023 17.47 7.60023 17.47 7.40023 17.67Z" fill="#1C252E"/>
</svg>
