<svg width="24" height="24" viewBox="0 0 24 24" fill="none" xmlns="http://www.w3.org/2000/svg">
<path d="M11.75 7H11H7C4.24 7 2 9.24 2 12V17C2 19.76 4.24 22 7 22H12C14.76 22 17 19.76 17 17V13V12.25C17 9.35 14.65 7 11.75 7Z" fill="#1C252E"/>
<path d="M21.8801 6.33008C22.4047 8.88967 21.1624 11.212 19.1593 12.3057C18.8517 12.4737 18.5001 12.2341 18.5001 11.8836V11.7501C18.5001 8.31008 15.6901 5.50008 12.2501 5.50008H12.1166C11.7661 5.50008 11.5265 5.14855 11.6945 4.84094C12.7882 2.83786 15.1105 1.5955 17.6701 2.12008C19.7601 2.55008 21.4501 4.24008 21.8801 6.33008Z" fill="#1C252E"/>
</svg>
