<svg width="24" height="24" viewBox="0 0 24 24" fill="none" xmlns="http://www.w3.org/2000/svg">
<path d="M21.9702 5.5V9.5C21.9702 11.2615 20.6707 12.7232 18.9688 12.9649C18.6954 13.0038 18.4702 12.7761 18.4702 12.5V12.25C18.4702 8.53 15.4502 5.5 11.7202 5.5H11.4702C11.1941 5.5 10.9665 5.27486 11.0056 5.0015C11.2483 3.30678 12.7094 2 14.4702 2H18.4702C20.4102 2 21.9702 3.57 21.9702 5.5Z" fill="#1C252E"/>
<path d="M11.7202 7H10.9702H6.97021C4.21021 7 1.97021 9.24 1.97021 12V17C1.97021 19.76 4.21021 22 6.97021 22H11.9702C14.7302 22 16.9702 19.76 16.9702 17V13V12.25C16.9702 9.35 14.6202 7 11.7202 7Z" fill="#1C252E"/>
</svg>
