<svg width="24" height="24" viewBox="0 0 24 24" fill="none" xmlns="http://www.w3.org/2000/svg">
<path d="M20.0199 10.7L17.8999 12.04C17.4999 12.29 16.9899 12.23 16.6599 11.9L12.1299 7.37004C11.7999 7.04004 11.7399 6.53004 11.9899 6.13004L13.3299 4.01004C14.1499 2.72004 15.7899 2.66004 16.9999 3.86004L20.1799 7.04004C21.2999 8.17004 21.2299 9.93004 20.0199 10.7Z" fill="#1C252E"/>
<path d="M14.7101 19.95L5.99015 20.97C5.91247 20.9804 5.8358 20.9877 5.7602 20.9921C5.07507 21.0325 4.9052 20.2249 5.3905 19.7396L7.98015 17.15C8.30015 16.84 8.30015 16.35 7.98015 16.04C7.68015 15.73 7.19015 15.73 6.87015 16.04L4.2805 18.6296C3.7952 19.1149 2.99507 18.9444 3.03148 18.259C3.0353 18.1871 3.04151 18.1141 3.05015 18.04L4.08015 9.32C4.34015 7.14 5.14015 6.42 7.44015 6.56L8.94015 6.65C9.43015 6.68 9.89015 6.89 10.2401 7.24L16.7901 13.79C17.1402 14.14 17.3501 14.6 17.3701 15.09L17.4601 16.59C17.6901 18.9 16.9001 19.7 14.7101 19.95Z" fill="#1C252E"/>
</svg>
