<svg width="24" height="24" viewBox="0 0 24 24" fill="none" xmlns="http://www.w3.org/2000/svg">
<path d="M21.9702 12C21.9702 15.31 19.2802 18 15.9702 18C15.2257 18 14.5095 17.8643 13.8513 17.6141C13.5326 17.4929 13.4732 17.0851 13.6951 16.8262C14.837 15.4938 15.4702 13.786 15.4702 12C15.4702 10.2082 14.8314 8.49432 13.6981 7.17467C13.4754 6.91543 13.5344 6.50621 13.8539 6.38494C14.5114 6.13537 15.2267 6 15.9702 6C19.2802 6 21.9702 8.69 21.9702 12Z" fill="#1C252E"/>
<path d="M13.9702 12C13.9702 13.77 13.2002 15.37 11.9702 16.46C10.9102 17.42 9.51021 18 7.97021 18C4.66021 18 1.97021 15.31 1.97021 12C1.97021 8.69 4.66021 6 7.97021 6C9.51021 6 10.9102 6.58 11.9702 7.54C13.2002 8.63 13.9702 10.23 13.9702 12Z" fill="#1C252E"/>
</svg>
