<svg width="24" height="24" viewBox="0 0 24 24" fill="none" xmlns="http://www.w3.org/2000/svg">
<path d="M16.6499 4.79H16.3699C16.2699 4 15.9799 3.37 15.5199 2.9C14.9199 2.3 14.0499 2 12.9299 2H7.34986C5.09986 2 3.85986 3.24 3.85986 5.49C3.85986 6.61 4.15986 7.48 4.75986 8.08C5.35986 8.68 6.22986 8.98 7.34986 8.98H12.9299C14.9299 8.98 16.1299 7.99 16.3699 6.19H16.6499C18.7399 6.19 18.7399 6.47 18.7399 8.28V10.14C18.7399 11.95 18.7399 12.23 16.6499 12.23H12.9299C9.93986 12.23 9.50986 13.65 9.44986 15.03C8.54986 15.09 7.57986 15.51 7.57986 17.11V19.9C7.57986 21.63 8.71986 21.99 9.66986 21.99H10.5999C11.5499 21.99 12.6899 21.63 12.6899 19.9V17.11C12.6899 15.53 11.7399 15.09 10.8399 15.03C10.8899 14.02 11.1799 13.62 12.9199 13.62H16.6399C19.8899 13.62 20.1299 12.3 20.1299 10.13V8.28C20.1399 6.11 19.8999 4.79 16.6499 4.79Z" fill="#1C252E"/>
</svg>
