<svg width="24" height="24" viewBox="0 0 24 24" fill="none" xmlns="http://www.w3.org/2000/svg">
<path d="M15.9002 8.07C15.4502 4.64 12.5202 2 8.97021 2C5.10021 2 1.97021 5.13 1.97021 9C1.97021 12.55 4.61021 15.48 8.04021 15.93C8.34021 15.98 8.65021 16 8.97021 16C9.08659 16 9.20145 15.997 9.3154 15.991C9.53577 15.9793 9.62626 15.716 9.47021 15.56C9.18021 15.26 9.18021 14.79 9.47021 14.5C9.76021 14.2 10.2402 14.2 10.5302 14.5L11.3097 15.2795C11.4498 15.4196 11.6601 15.4653 11.8412 15.3847C12.2236 15.2145 12.5854 15.0103 12.9266 14.7743C13.1708 14.6053 13.1863 14.2581 12.9752 14.0493L12.4702 13.55C12.1802 13.26 12.1702 12.79 12.4702 12.49C12.7602 12.2 13.2302 12.19 13.5302 12.48L14.0388 12.9829C14.2486 13.1904 14.5932 13.1728 14.7611 12.9302C14.9919 12.5969 15.1927 12.2431 15.3577 11.869C15.4371 11.689 15.3908 11.4806 15.2517 11.3415L14.4702 10.56C14.1802 10.26 14.1802 9.79 14.4702 9.5C14.7602 9.2 15.2402 9.2 15.5302 9.5C15.6863 9.65604 15.9495 9.56556 15.9612 9.34519C15.9672 9.23124 15.9702 9.11637 15.9702 9C15.9702 8.68 15.9502 8.37 15.9002 8.07Z" fill="#1C252E"/>
<path d="M21.9698 15C21.9698 18.87 18.8398 22 14.9698 22C12.0396 22 9.52548 20.2001 8.49135 17.6328C8.36614 17.322 8.63465 17 8.96977 17C9.31977 17 9.64977 16.98 9.98977 16.93L10.4948 16.8627C10.6492 16.8421 10.8044 16.8946 10.9145 17.0048L11.4398 17.53C11.5898 17.68 11.7798 17.75 11.9698 17.75C12.1698 17.75 12.3598 17.68 12.4998 17.53C12.7998 17.24 12.7998 16.76 12.4998 16.47C12.4034 16.3737 12.4337 16.2103 12.5556 16.1496C12.9546 15.9507 13.3634 15.6973 13.7314 15.4238C13.9392 15.2694 14.2309 15.2794 14.4151 15.4613L14.8998 15.94C15.0498 16.08 15.2398 16.16 15.4298 16.16C15.6198 16.16 15.8198 16.08 15.9598 15.93C16.2498 15.64 16.2498 15.16 15.9498 14.87L15.4717 14.398C15.2889 14.2175 15.2738 13.9286 15.4251 13.7211C15.6885 13.3598 15.9359 12.9667 16.1326 12.5818C16.1918 12.4659 16.3477 12.438 16.4398 12.53C16.5898 12.68 16.7798 12.75 16.9698 12.75C17.1698 12.75 17.3598 12.68 17.4998 12.53C17.7998 12.24 17.7998 11.76 17.4998 11.47L16.9745 10.9448C16.8644 10.8346 16.8118 10.6795 16.8324 10.5251L16.8998 10.02C16.9498 9.68004 16.9698 9.35004 16.9698 9.00004C16.9698 8.66508 17.2917 8.39682 17.6023 8.52233C20.1621 9.55689 21.9698 12.0705 21.9698 15Z" fill="#1C252E"/>
</svg>
