<svg width="24" height="24" viewBox="0 0 24 24" fill="none" xmlns="http://www.w3.org/2000/svg">
<path d="M6.5 2C5.44 2 4.46 2.37 3.69 2.99C2.65 3.81 2 5.08 2 6.5C2 7.34 2.24 8.14 2.65 8.82C3.19 9.72 4.04 10.42 5.06 10.76C5.51 10.92 5.99 11 6.5 11C7.64 11 8.67 10.58 9.46 9.88C9.81 9.58 10.11 9.22 10.35 8.82C10.56 8.47 10.72 8.1 10.83 7.7C10.94 7.32 11 6.91 11 6.5C11 4.01 8.99 2 6.5 2ZM8.16 7.25H4.8C4.39 7.25 4.05 6.91 4.05 6.5C4.05 6.09 4.39 5.75 4.8 5.75H8.16C8.57 5.75 8.91 6.09 8.91 6.5C8.91 6.91 8.58 7.25 8.16 7.25Z" fill="#1C252E"/>
<path d="M15.9999 21.29L6.63985 22.39C5.98985 22.47 5.40985 22.37 4.91985 22.13C4.39985 21.87 3.98985 21.47 3.72985 20.94C3.48985 20.45 3.39985 19.88 3.46985 19.24L4.31985 12.09C4.39985 12.12 4.47985 12.15 4.55985 12.17C5.16985 12.39 5.81985 12.5 6.49985 12.5C7.95985 12.5 9.36985 11.97 10.4399 11.02C10.8999 10.62 11.3099 10.14 11.6399 9.59003C11.9199 9.12003 12.1299 8.62003 12.2699 8.13003C12.3399 7.87003 12.3999 7.59003 12.4399 7.31003C12.4499 7.26003 12.4499 7.21003 12.4499 7.16003L12.6199 7.17003L18.6999 13.26L18.9599 17.68C19.2099 20.16 18.3499 21.02 15.9999 21.29Z" fill="#1C252E"/>
<path d="M22.0001 10.28L19.9301 11.59C19.5401 11.83 19.0401 11.78 18.7201 11.45L14.2901 7.02003C13.9701 6.70003 13.9101 6.20003 14.1501 5.81003L15.4601 3.74003C16.2601 2.48003 17.8601 2.42003 19.0501 3.59003L22.1601 6.70003C23.2501 7.81003 23.1801 9.53003 22.0001 10.28Z" fill="#1C252E"/>
</svg>
