<svg width="24" height="24" viewBox="0 0 24 24" fill="none" xmlns="http://www.w3.org/2000/svg">
<path d="M13.4298 15H4.39985C2.57985 15 1.41985 13.05 2.29985 11.45L4.62985 7.21L6.80985 3.24C7.71985 1.59 10.0998 1.59 11.0098 3.24L13.1998 7.21L14.2498 9.12L15.5298 11.45C16.4098 13.05 15.2498 15 13.4298 15Z" fill="#1C252E"/>
<path d="M22.6498 16C22.6498 19.59 19.7398 22.5 16.1498 22.5C13.0998 22.5 10.5498 20.41 9.83977 17.57C9.76977 17.27 9.99977 17 10.3098 17H14.0798C15.4698 17 16.7298 16.28 17.4398 15.09C18.1398 13.89 18.1698 12.45 17.4898 11.23L16.9898 10.31C16.7998 9.97002 17.0698 9.56002 17.4498 9.63002C20.4098 10.23 22.6498 12.85 22.6498 16Z" fill="#1C252E"/>
</svg>
