<svg width="24" height="24" viewBox="0 0 24 24" fill="none" xmlns="http://www.w3.org/2000/svg">
<path d="M4.29814 11.0278C4.40615 10.1259 5.12797 9.43148 6.03249 9.34793C6.59609 9.29586 7.27523 9.23707 8 9.18283C9.32301 9.08383 10.7981 9 12 9C13.2019 9 14.677 9.08383 16 9.18283C16.7248 9.23707 17.4039 9.29586 17.9675 9.34793C18.872 9.43148 19.5938 10.1259 19.7019 11.0278C19.8406 12.1867 20 13.7824 20 15C20 16.2176 19.8406 17.8133 19.7019 18.9722C19.5938 19.8741 18.872 20.5685 17.9675 20.6521C16.3751 20.7992 13.8604 21 12 21C10.1396 21 7.62492 20.7992 6.03249 20.6521C5.12797 20.5685 4.40615 19.8741 4.29814 18.9722C4.15936 17.8133 4 16.2176 4 15C4 13.7824 4.15936 12.1867 4.29814 11.0278Z" stroke="#1C252E" stroke-width="1.5"/>
<path opacity="0.4" d="M15.25 6C15.25 6.41421 15.5858 6.75 16 6.75C16.4142 6.75 16.75 6.41421 16.75 6H16H15.25ZM11 3V3.75H13V3V2.25H11V3ZM13 3V3.75C14.2426 3.75 15.25 4.75736 15.25 6H16H16.75C16.75 3.92893 15.0711 2.25 13 2.25V3ZM11 3V2.25C8.92893 2.25 7.25 3.92893 7.25 6H8H8.75C8.75 4.75736 9.75736 3.75 11 3.75V3ZM8 9.18283H8.75V6H8H7.25V9.18283H8Z" fill="#1C252E"/>
<path opacity="0.4" d="M12 14V16" stroke="#1C252E" stroke-width="1.5" stroke-linecap="round"/>
</svg>
