<svg width="24" height="24" viewBox="0 0 24 24" fill="none" xmlns="http://www.w3.org/2000/svg">
<path d="M12 22C17.5228 22 22 17.5228 22 12C22 6.47715 17.5228 2 12 2C6.47715 2 2 6.47715 2 12C2 17.5228 6.47715 22 12 22Z" stroke="#1C252E" stroke-width="1.5" stroke-miterlimit="10" stroke-linecap="round" stroke-linejoin="round"/>
<path opacity="0.4" d="M11.9996 14.88C11.0896 14.88 10.3496 14.14 10.3496 13.23V10.76C10.3496 9.85001 11.0896 9.10999 11.9996 9.10999C12.9096 9.10999 13.6496 9.85001 13.6496 10.76V13.23C13.6496 14.14 12.9096 14.88 11.9996 14.88Z" stroke="#1C252E" stroke-width="1.5" stroke-linecap="round"/>
<path opacity="0.4" d="M16.98 13.4699C16.78 16.0499 14.62 18.0699 12 18.0699C9.24 18.0699 7 15.8299 7 13.0699V10.9299C7 8.16993 9.24 5.92993 12 5.92993C14.59 5.92993 16.72 7.89992 16.97 10.4199" stroke="#1C252E" stroke-width="1.5" stroke-linecap="round"/>
</svg>
