<svg width="24" height="24" viewBox="0 0 24 24" fill="none" xmlns="http://www.w3.org/2000/svg">
<path d="M22 8V13C22 17 20 19 16 19H15.5C15.19 19 14.89 19.15 14.7 19.4L13.2 21.4C12.54 22.28 11.46 22.28 10.8 21.4L9.3 19.4C9.14 19.18 8.77 19 8.5 19H8C4 19 2 18 2 13V8C2 4 4 2 8 2H12" stroke="#1C252E" stroke-width="1.5" stroke-miterlimit="10" stroke-linecap="round" stroke-linejoin="round"/>
<path opacity="0.4" d="M18.0007 7.16214C17.9504 7.16214 17.9026 7.13879 17.8703 7.09838C17.381 6.48697 16.8856 6.02706 16.4486 5.62128C15.6927 4.91949 15.0957 4.36516 15.0957 3.50075C15.0957 3.05573 15.2463 2.64083 15.5198 2.33246C15.8035 2.01251 16.197 1.8363 16.6276 1.8363C17.1076 1.8363 17.5268 2.07554 17.8401 2.52813C17.9039 2.62043 17.9571 2.71263 18.0007 2.79787C18.0443 2.71263 18.0975 2.62043 18.1613 2.52813C18.4746 2.07554 18.8938 1.8363 19.3738 1.8363C19.8044 1.8363 20.1979 2.01251 20.4816 2.33246C20.7551 2.64083 20.9057 3.05573 20.9057 3.50075C20.9057 4.36516 20.3087 4.91947 19.5528 5.62127C19.1157 6.02704 18.6204 6.48696 18.1311 7.09837C18.0988 7.13879 18.0511 7.16214 18.0007 7.16214Z" stroke="#1C252E" stroke-width="1.5"/>
<path opacity="0.4" d="M15.9961 11H16.0051" stroke="#1C252E" stroke-width="2" stroke-linecap="round" stroke-linejoin="round"/>
<path opacity="0.4" d="M11.9951 11H12.0041" stroke="#1C252E" stroke-width="2" stroke-linecap="round" stroke-linejoin="round"/>
<path opacity="0.4" d="M7.99414 11H8.00312" stroke="#1C252E" stroke-width="2" stroke-linecap="round" stroke-linejoin="round"/>
</svg>
