<svg width="24" height="24" viewBox="0 0 24 24" fill="none" xmlns="http://www.w3.org/2000/svg">
<path d="M14.6476 19.8053L14.0574 19.3425V19.3425L14.6476 19.8053ZM9.35219 19.8053L8.76202 20.2682L9.35219 19.8053ZM11.9999 22V21.25V22ZM19.6169 10.1966H18.8669C18.8669 11.3545 18.2621 12.9101 17.3041 14.6038C16.3627 16.2681 15.1457 17.9547 14.0574 19.3425L14.6476 19.8053L15.2377 20.2682C16.3486 18.8516 17.6163 17.0988 18.6098 15.3423C19.5866 13.6152 20.3669 11.7687 20.3669 10.1966H19.6169ZM9.35219 19.8053L9.94237 19.3425C8.85405 17.9547 7.637 16.2681 6.69561 14.6038C5.73762 12.9101 5.13281 11.3545 5.13281 10.1966H4.38281H3.63281C3.63281 11.7687 4.4131 13.6152 5.39 15.3423C6.3835 17.0988 7.65114 18.8516 8.76202 20.2682L9.35219 19.8053ZM4.38281 10.1966H5.13281C5.13281 6.03122 8.25815 2.75 11.9999 2.75V2V1.25C7.32803 1.25 3.63281 5.30828 3.63281 10.1966H4.38281ZM11.9999 2V2.75C15.7416 2.75 18.8669 6.03122 18.8669 10.1966H19.6169H20.3669C20.3669 5.30828 16.6717 1.25 11.9999 1.25V2ZM14.6476 19.8053L14.0574 19.3425C13.4673 20.0951 13.0814 20.5831 12.7367 20.8962C12.4241 21.1801 12.2208 21.25 11.9999 21.25V22V22.75C12.7056 22.75 13.2525 22.4541 13.7452 22.0065C14.2059 21.5881 14.6805 20.9787 15.2377 20.2682L14.6476 19.8053ZM9.35219 19.8053L8.76202 20.2682C9.31925 20.9787 9.79387 21.5881 10.2545 22.0065C10.7473 22.4541 11.2941 22.75 11.9999 22.75V22V21.25C11.779 21.25 11.5757 21.1801 11.2631 20.8962C10.9184 20.5831 10.5325 20.0951 9.94237 19.3425L9.35219 19.8053ZM9.14348 10.5692H8.39348C8.39348 12.561 10.0081 14.1756 11.9999 14.1756V13.4256V12.6756C10.8365 12.6756 9.89348 11.7325 9.89348 10.5692H9.14348ZM11.9999 13.4256V14.1756C13.9916 14.1756 15.6063 12.561 15.6063 10.5692H14.8563H14.1063C14.1063 11.7325 13.1632 12.6756 11.9999 12.6756V13.4256ZM14.8563 10.5692H15.6063C15.6063 8.57744 13.9916 6.9628 11.9999 6.9628V7.7128V8.4628C13.1632 8.4628 14.1063 9.40586 14.1063 10.5692H14.8563ZM11.9999 7.7128V6.9628C10.0081 6.9628 8.39348 8.57744 8.39348 10.5692H9.14348H9.89348C9.89348 9.40586 10.8365 8.4628 11.9999 8.4628V7.7128Z" fill="#1C252E"/>
</svg>
