<svg width="24" height="24" viewBox="0 0 24 24" fill="none" xmlns="http://www.w3.org/2000/svg">
<path d="M3.41016 7.12C3.41016 5.89 4.35015 4.53 5.50015 4.1L10.4901 2.23C11.3201 1.92 12.6802 1.92 13.5302 2.23L18.5201 4.1C19.6701 4.53 20.6101 5.89 20.6101 7.12V14.55C20.6101 15.73 19.8302 17.28 18.8802 17.99L14.5801 21.2C13.1701 22.26 10.8502 22.26 9.44016 21.2L5.14017 17.99C4.19017 17.28 3.41016 15.73 3.41016 14.55V12" stroke="#1C252E" stroke-width="1.5" stroke-linecap="round" stroke-linejoin="round"/>
<path d="M12 15.5C14.2091 15.5 16 13.7091 16 11.5C16 9.29086 14.2091 7.5 12 7.5C9.79086 7.5 8 9.29086 8 11.5C8 13.7091 9.79086 15.5 12 15.5Z" stroke="#1C252E" stroke-width="1.5" stroke-miterlimit="10" stroke-linecap="round" stroke-linejoin="round"/>
<path d="M12.25 10.25V11.18C12.25 11.53 12.07 11.86 11.76 12.04L11 12.5" stroke="#1C252E" stroke-width="1.5" stroke-miterlimit="10" stroke-linecap="round" stroke-linejoin="round"/>
</svg>
