<svg width="24" height="24" viewBox="0 0 24 24" fill="none" xmlns="http://www.w3.org/2000/svg">
<path d="M8 2V5" stroke="#1C252E" stroke-width="1.5" stroke-miterlimit="10" stroke-linecap="round" stroke-linejoin="round"/>
<path d="M16 2V5" stroke="#1C252E" stroke-width="1.5" stroke-miterlimit="10" stroke-linecap="round" stroke-linejoin="round"/>
<path d="M8 3.5C4.5 3.5 3 5.5 3 8.5V9.09H3.5H20.5H21M18.4913 3.95308C20.2256 4.70514 21 6.34443 21 8.5V9.09M10.4847 3.5H16M21 9.09V17C21 20 19.5 22 16 22H8C4.5 22 3 20 3 17V14" stroke="#1C252E" stroke-width="1.5" stroke-miterlimit="10" stroke-linecap="round" stroke-linejoin="round"/>
<path d="M15.6937 13.7H15.7027" stroke="#1C252E" stroke-width="2" stroke-linecap="round" stroke-linejoin="round"/>
<path d="M15.6937 16.7H15.7027" stroke="#1C252E" stroke-width="2" stroke-linecap="round" stroke-linejoin="round"/>
<path d="M11.9945 13.7H12.0035" stroke="#1C252E" stroke-width="2" stroke-linecap="round" stroke-linejoin="round"/>
<path d="M11.9945 16.7H12.0035" stroke="#1C252E" stroke-width="2" stroke-linecap="round" stroke-linejoin="round"/>
<path d="M8.29529 13.7H8.30427" stroke="#1C252E" stroke-width="2" stroke-linecap="round" stroke-linejoin="round"/>
<path d="M8.29529 16.7H8.30427" stroke="#1C252E" stroke-width="2" stroke-linecap="round" stroke-linejoin="round"/>
</svg>
