<svg width="24" height="24" viewBox="0 0 24 24" fill="none" xmlns="http://www.w3.org/2000/svg">
<path d="M1.25 11.5C1.25 5.83579 5.83579 1.25 11.5 1.25C11.9142 1.25 12.25 1.58579 12.25 2C12.25 2.41421 11.9142 2.75 11.5 2.75C6.66421 2.75 2.75 6.66421 2.75 11.5C2.75 16.3358 6.66421 20.25 11.5 20.25C16.3358 20.25 20.25 16.3358 20.25 11.5C20.25 11.0858 20.5858 10.75 21 10.75C21.4142 10.75 21.75 11.0858 21.75 11.5C21.75 17.1642 17.1642 21.75 11.5 21.75C5.83579 21.75 1.25 17.1642 1.25 11.5Z" fill="#1C252E"/>
<path d="M17.9822 17.973C18.2754 17.6808 18.7503 17.6818 19.0427 17.9749L22.53 21.47C22.8225 21.7632 22.8221 22.238 22.5291 22.5306C22.2358 22.8231 21.7611 22.8228 21.4685 22.5296L17.9802 19.0335C17.688 18.7403 17.6891 18.2654 17.9822 17.973Z" fill="#1C252E"/>
<path d="M21.25 4.5C21.25 4.00565 21.0785 3.56637 20.79 3.25098C20.4965 2.93001 20.0894 2.75 19.627 2.75C19.1585 2.75 18.7239 2.96398 18.3594 3.47461C18.2829 3.58169 18.2174 3.69089 18.1631 3.79395L17.5 5.05273L16.8369 3.79395C16.7825 3.69079 16.717 3.58166 16.6406 3.47461C16.2761 2.96398 15.8415 2.75 15.373 2.75C14.9106 2.75 14.5035 2.93001 14.21 3.25098C13.9215 3.56637 13.75 4.00565 13.75 4.5C13.75 5.40324 14.3563 6.01033 15.5977 7.12793C16.1672 7.64074 16.8286 8.23635 17.5 8.98926C18.1714 8.23635 18.8327 7.64076 19.4023 7.12793C20.6437 6.01032 21.25 5.40324 21.25 4.5ZM22.75 4.5C22.75 6.19365 21.5067 7.25242 20.4062 8.24316C19.7281 8.85375 18.9987 9.51126 18.2803 10.3818C18.0893 10.6131 17.8042 10.75 17.5 10.75C17.1958 10.75 16.9107 10.6131 16.7197 10.3818C16.0013 9.51126 15.2719 8.85376 14.5938 8.24316C13.4933 7.25242 12.25 6.19365 12.25 4.5C12.25 3.65758 12.5448 2.85017 13.1035 2.23926C13.689 1.59904 14.5012 1.25 15.373 1.25C16.2033 1.25 16.9312 1.58517 17.5 2.16895C18.0688 1.58517 18.7967 1.25 19.627 1.25C20.4988 1.25 21.311 1.59904 21.8965 2.23926C22.4552 2.85017 22.75 3.65758 22.75 4.5Z" fill="#1C252E"/>
</svg>
