<svg width="24" height="24" viewBox="0 0 24 24" fill="none" xmlns="http://www.w3.org/2000/svg">
<path d="M1.25 11.5C1.25 5.83579 5.83579 1.25 11.5 1.25C11.9142 1.25 12.25 1.58579 12.25 2C12.25 2.41421 11.9142 2.75 11.5 2.75C6.66421 2.75 2.75 6.66421 2.75 11.5C2.75 16.3358 6.66421 20.25 11.5 20.25C16.3358 20.25 20.25 16.3358 20.25 11.5C20.25 11.0858 20.5858 10.75 21 10.75C21.4142 10.75 21.75 11.0858 21.75 11.5C21.75 17.1642 17.1642 21.75 11.5 21.75C5.83579 21.75 1.25 17.1642 1.25 11.5Z" fill="#1C252E"/>
<path d="M17 7.25C17.4142 7.25 17.75 7.58579 17.75 8C17.75 8.41421 17.4142 8.75 17 8.75H14C13.5858 8.75 13.25 8.41421 13.25 8C13.25 7.58579 13.5858 7.25 14 7.25H17ZM20 4.25C20.4142 4.25 20.75 4.58579 20.75 5C20.75 5.41421 20.4142 5.75 20 5.75H14C13.5858 5.75 13.25 5.41421 13.25 5C13.25 4.58579 13.5858 4.25 14 4.25H20Z" fill="#1C252E"/>
<path d="M17.9822 17.973C18.2754 17.6808 18.7503 17.6818 19.0427 17.9749L22.53 21.47C22.8225 21.7632 22.8221 22.238 22.5291 22.5306C22.2358 22.8231 21.7611 22.8228 21.4685 22.5296L17.9802 19.0335C17.688 18.7403 17.6891 18.2654 17.9822 17.973Z" fill="#1C252E"/>
</svg>
