<svg width="24" height="24" viewBox="0 0 24 24" fill="none" xmlns="http://www.w3.org/2000/svg">
<path d="M20.25 11.5C20.25 6.66751 16.3325 2.75 11.5 2.75C6.66751 2.75 2.75 6.66751 2.75 11.5C2.75 16.3325 6.66751 20.25 11.5 20.25C16.3325 20.25 20.25 16.3325 20.25 11.5ZM21.75 11.5C21.75 17.1609 17.1609 21.75 11.5 21.75C5.83908 21.75 1.25 17.1609 1.25 11.5C1.25 5.83908 5.83908 1.25 11.5 1.25C17.1609 1.25 21.75 5.83908 21.75 11.5Z" fill="#1C252E"/>
<path d="M14 10.95C14.4142 10.95 14.75 11.2858 14.75 11.7C14.75 12.1142 14.4142 12.45 14 12.45H9C8.58579 12.45 8.25 12.1142 8.25 11.7C8.25 11.2858 8.58579 10.95 9 10.95H14Z" fill="#1C252E"/>
<path d="M17.9822 17.973C18.2754 17.6808 18.7503 17.6818 19.0427 17.9749L22.53 21.47C22.8225 21.7632 22.8221 22.238 22.5291 22.5306C22.2358 22.8231 21.7611 22.8228 21.4685 22.5296L17.9802 19.0335C17.688 18.7403 17.6891 18.2654 17.9822 17.973Z" fill="#1C252E"/>
</svg>
