<svg width="24" height="24" viewBox="0 0 24 24" fill="none" xmlns="http://www.w3.org/2000/svg">
<path fill-rule="evenodd" clip-rule="evenodd" d="M13.8307 2.20001C16.1607 2.71001 18.1707 4.26001 19.2107 6.36001C21.2307 10.42 19.2807 14.83 16.1807 16.92V17.62C16.1907 17.89 16.2007 18.39 15.8207 18.78C15.5407 19.06 15.1307 19.21 14.5907 19.21H9.4607C9.0507 19.21 8.5307 19.17 8.1807 18.81C7.8407 18.46 7.8507 18.03 7.8607 17.75V16.92C5.5207 15.35 3.9707 12.64 3.9707 10.05C3.9707 7.60001 5.0607 5.31001 6.9807 3.78001C8.8907 2.24001 11.3907 1.66001 13.8307 2.20001ZM10.7507 9C10.7507 8.31114 11.3119 7.75 12.0038 7.75C12.6923 7.75 13.2507 8.3084 13.2507 8.99388V9.20543C13.2507 9.71475 12.963 10.1804 12.5074 10.4081C11.7372 10.7932 11.2507 11.5804 11.2507 12.4415V12.5C11.2507 12.9142 11.5865 13.25 12.0007 13.25C12.4149 13.25 12.7507 12.9142 12.7507 12.5V12.4415C12.7507 12.1486 12.9162 11.8808 13.1782 11.7498C14.142 11.2679 14.7507 10.2829 14.7507 9.20543V8.99388C14.7507 7.47698 13.5177 6.25 12.0038 6.25C10.4865 6.25 9.25073 7.47972 9.25073 9C9.25073 9.41421 9.58652 9.75 10.0007 9.75C10.4149 9.75 10.7507 9.41421 10.7507 9ZM12.7507 14.4375C12.7507 14.0233 12.4149 13.6875 12.0007 13.6875C11.5865 13.6875 11.2507 14.0233 11.2507 14.4375V14.5C11.2507 14.9142 11.5865 15.25 12.0007 15.25C12.4149 15.25 12.7507 14.9142 12.7507 14.5V14.4375Z" fill="#1C252E"/>
<path d="M15.2592 22C15.1992 22 15.1292 21.99 15.0692 21.97C13.0592 21.4 10.9492 21.4 8.93918 21.97C8.56918 22.07 8.17918 21.86 8.07918 21.49C7.96918 21.12 8.18918 20.73 8.55918 20.63C10.8192 19.99 13.1992 19.99 15.4592 20.63C15.8292 20.74 16.0492 21.12 15.9392 21.49C15.8392 21.8 15.5592 22 15.2592 22Z" fill="#1C252E"/>
</svg>
