<svg width="24" height="24" viewBox="0 0 24 24" fill="none" xmlns="http://www.w3.org/2000/svg">
<path d="M19 8C20.6569 8 22 6.65685 22 5C22 3.34315 20.6569 2 19 2C17.3431 2 16 3.34315 16 5C16 6.65685 17.3431 8 19 8Z" fill="#1C252E"/>
<path d="M13.5996 3C14.2396 3 14.7001 3.5802 14.5801 4.2002C14.5701 4.23014 14.5696 4.26009 14.5596 4.29004C14.5496 4.37 14.5403 4.44031 14.5303 4.53027C14.5103 4.68021 14.5 4.84008 14.5 5C14.5 5.43 14.5597 5.84047 14.6797 6.23047C14.7197 6.40029 14.7699 6.5601 14.8398 6.70996C14.8998 6.85994 14.9796 7.02017 15.0596 7.16016C15.4696 7.91016 16.0898 8.53043 16.8398 8.94043C16.9798 9.02042 17.1401 9.10017 17.29 9.16016C17.4399 9.23008 17.5997 9.28034 17.7695 9.32031C18.1595 9.44031 18.57 9.5 19 9.5C19.1599 9.5 19.3198 9.48971 19.4697 9.46973C19.5597 9.45973 19.63 9.45043 19.71 9.44043C19.7399 9.43045 19.7699 9.42987 19.7998 9.41992C20.4198 9.29992 21 9.76039 21 10.4004V16.4805C21 16.6202 20.9904 16.7599 20.9805 16.8896C20.9705 17.0096 20.9604 17.1202 20.9404 17.2402C20.9304 17.3601 20.9096 17.4799 20.8896 17.5898C20.5396 20.0098 18.9998 21.5396 16.5898 21.8896C16.4799 21.9096 16.3601 21.9304 16.2402 21.9404C16.1202 21.9604 16.0096 21.9705 15.8896 21.9805C15.7599 21.9904 15.6202 22 15.4805 22H7.51953C7.37983 22 7.2401 21.9904 7.11035 21.9805C6.99035 21.9705 6.87977 21.9604 6.75977 21.9404C6.63986 21.9304 6.52007 21.9096 6.41016 21.8896C4.00016 21.5396 2.46035 20.0098 2.11035 17.5898C2.09037 17.4799 2.06957 17.3601 2.05957 17.2402C2.03957 17.1202 2.02953 17.0096 2.01953 16.8896C2.00955 16.7599 2.00002 16.6202 2 16.4805V8.51953C2.00002 8.37983 2.00955 8.2401 2.01953 8.11035C2.02953 7.99035 2.03957 7.87977 2.05957 7.75977C2.06957 7.63986 2.09037 7.52007 2.11035 7.41016C2.46035 4.99016 4.00016 3.46035 6.41016 3.11035C6.52007 3.09037 6.63986 3.06957 6.75977 3.05957C6.87977 3.03957 6.99035 3.02953 7.11035 3.01953C7.2401 3.00955 7.37983 3.00002 7.51953 3H13.5996ZM11.3623 11.7998C10.8218 11.7999 10.3499 12.0695 9.99707 12.5791C9.92517 12.683 9.86449 12.7868 9.81543 12.8828C9.76638 12.7869 9.70662 12.6829 9.63477 12.5791C9.28191 12.0693 8.80922 11.7998 8.26855 11.7998C7.78346 11.7999 7.3401 11.999 7.02051 12.3594C6.71269 12.7067 6.54303 13.1737 6.54297 13.6748C6.54297 14.6486 7.21582 15.2738 8.06738 16.0645C8.55966 16.5215 9.11788 17.0399 9.66895 17.7285C9.70532 17.7738 9.75894 17.7997 9.81543 17.7998C9.8721 17.7998 9.92646 17.774 9.96289 17.7285C10.514 17.0398 11.0721 16.5216 11.5645 16.0645C12.416 15.2738 13.0889 14.6486 13.0889 13.6748C13.0888 13.1736 12.9183 12.7067 12.6104 12.3594C12.2907 11.9989 11.8475 11.7998 11.3623 11.7998Z" fill="#1C252E"/>
</svg>
