<svg width="24" height="24" viewBox="0 0 24 24" fill="none" xmlns="http://www.w3.org/2000/svg">
<path d="M12.0196 2.0498C15.6395 2.04991 18.5889 5 18.589 8.62988V10.5C18.589 10.9799 18.8097 11.7697 19.0597 12.1797L20.1896 14.0596C20.5996 14.7496 20.6795 15.5703 20.3995 16.3203C20.1195 17.0601 19.5297 17.6404 18.7599 17.9004C17.6799 18.2604 16.5693 18.5397 15.4493 18.7197C15.3393 18.7397 15.2292 18.7595 15.1192 18.7695C14.9393 18.7995 14.7592 18.8198 14.5792 18.8398C14.3593 18.8698 14.1294 18.8902 13.8995 18.9102C13.2796 18.9701 12.6496 19 12.0196 19C11.3797 19 10.7395 18.9702 10.1095 18.9102C9.83949 18.8902 9.57943 18.8603 9.31944 18.8203C9.16944 18.8003 9.01901 18.7798 8.87901 18.7598C8.76931 18.7398 8.65961 18.7299 8.54991 18.71C7.44001 18.52 6.34954 18.2603 5.26964 17.9004C4.46964 17.6404 3.85897 17.0601 3.58897 16.3301C3.31901 15.6101 3.41973 14.7798 3.84971 14.0498L4.9796 12.1699C5.21953 11.76 5.43949 10.9702 5.43956 10.4902V8.62988C5.43962 4.99994 8.38968 2.0598 12.0196 2.0498ZM11.9991 5.69043C11.585 5.69049 11.2491 6.02625 11.2491 6.44043V9.77051C11.2494 10.1844 11.5852 10.5204 11.9991 10.5205C12.4132 10.5205 12.7488 10.1845 12.7491 9.77051V6.44043C12.7491 6.02622 12.4133 5.69043 11.9991 5.69043Z" fill="#1C252E"/>
<path d="M14.8297 20.01C14.4097 21.17 13.2997 22 11.9997 22C11.2097 22 10.4297 21.68 9.87969 21.11C9.55969 20.81 9.31969 20.41 9.17969 20C9.30969 20.02 9.43969 20.03 9.57969 20.05C9.80969 20.08 10.0497 20.11 10.2897 20.13C10.8597 20.18 11.4397 20.21 12.0197 20.21C12.5897 20.21 13.1597 20.18 13.7197 20.13C13.9297 20.11 14.1397 20.1 14.3397 20.07C14.4997 20.05 14.6597 20.03 14.8297 20.01Z" fill="#1C252E"/>
</svg>
