<svg width="24" height="24" viewBox="0 0 24 24" fill="none" xmlns="http://www.w3.org/2000/svg">
<path d="M15.7007 4.35001L6.4007 13.65C5.9307 14.12 5.1107 14.02 4.8107 13.42C4.2707 12.35 3.9707 11.18 3.9707 10.05C3.9707 7.60001 5.0607 5.31001 6.9707 3.77001C8.8807 2.23001 11.3807 1.66001 13.8307 2.20001C14.3707 2.32001 14.9007 2.49001 15.4007 2.72001C16.0407 3.01001 16.2007 3.85001 15.7007 4.35001Z" fill="#1C252E"/>
<path d="M15.4494 20.63C13.1894 19.99 10.8094 19.99 8.54941 20.63C8.17941 20.74 7.95941 21.12 8.06941 21.49C8.17941 21.86 8.55941 22.07 8.92941 21.97C10.9394 21.4 13.0494 21.4 15.0594 21.97C15.1194 21.99 15.1894 22 15.2494 22C15.5494 22 15.8294 21.8 15.9194 21.49C16.0294 21.12 15.8194 20.74 15.4494 20.63Z" fill="#1C252E"/>
<path d="M20.5591 1.94998C20.2691 1.65998 19.7891 1.65998 19.4991 1.94998L3.64914 17.8C3.35914 18.09 3.35914 18.57 3.64914 18.86C3.79914 19.01 3.98914 19.08 4.17914 19.08C4.36914 19.08 4.55914 19.01 4.70914 18.86L7.16914 16.4C7.38914 16.58 7.61914 16.76 7.85914 16.92V17.75C7.84914 18.03 7.83914 18.46 8.16914 18.81C8.51914 19.16 9.03914 19.21 9.44914 19.21H14.5791C15.1191 19.21 15.5291 19.06 15.8091 18.78C16.1991 18.38 16.1791 17.88 16.1691 17.62V16.92C19.2791 14.83 21.2291 10.42 19.2091 6.35998C18.9891 5.92998 18.7191 5.51998 18.4191 5.13998L20.5491 3.00998C20.8491 2.71998 20.8491 2.23998 20.5591 1.94998Z" fill="#1C252E"/>
</svg>
