<svg width="24" height="24" viewBox="0 0 24 24" fill="none" xmlns="http://www.w3.org/2000/svg">
<path opacity="0.4" d="M18.3495 19.68C17.7995 21.09 16.4595 22 14.9495 22H9.04949C7.52949 22 6.19949 21.09 5.64949 19.68C5.09949 18.26 5.47949 16.69 6.59949 15.67L10.6495 12H13.3595L17.3995 15.67C18.5195 16.69 18.8895 18.26 18.3495 19.68Z" fill="#1C252E"/>
<path d="M18.3506 4.32C17.8006 2.91 16.4606 2 14.9506 2H9.05065C7.54065 2 6.20065 2.91 5.65065 4.32C5.11065 5.74 5.48065 7.31 6.61065 8.33L10.6506 12H13.3606L17.4006 8.33C18.5206 7.31 18.8906 5.74 18.3506 4.32Z" fill="#1C252E"/>
</svg>
