<svg width="24" height="24" viewBox="0 0 24 24" fill="none" xmlns="http://www.w3.org/2000/svg">
<path d="M8.25 5.75C7.84 5.75 7.5 5.41 7.5 5V2C7.5 1.59 7.84 1.25 8.25 1.25C8.66 1.25 9 1.59 9 2V5C9 5.41 8.66 5.75 8.25 5.75Z" fill="#1C252E"/>
<path d="M15.75 5.75C15.34 5.75 15 5.41 15 5V2C15 1.59 15.34 1.25 15.75 1.25C16.16 1.25 16.5 1.59 16.5 2V5C16.5 5.41 16.16 5.75 15.75 5.75Z" fill="#1C252E"/>
<path opacity="0.4" d="M12.46 3.5C13.01 3.5 13.46 3.95 13.46 4.5V5.54004C13.46 6.86002 14.6002 7.92027 15.9502 7.78027C17.1201 7.66019 17.9599 6.58004 17.96 5.41016V5.30957C17.9603 4.47984 18.9104 4.01008 19.5703 4.5C20.7402 5.39001 21.5 6.78021 21.5 8.37012V17.1299C21.5 19.8199 19.3199 22 16.6299 22H7.37012C4.68012 22 2.5 19.8199 2.5 17.1299V8.37012C2.5 8.23019 2.50954 8.09012 2.51953 7.9502C2.52952 7.83035 2.53962 7.72021 2.55957 7.61035C2.57957 7.46035 2.61039 7.30992 2.65039 7.16992C2.69038 7.01998 2.73006 6.86967 2.79004 6.71973C2.80994 6.66992 2.81977 6.62989 2.84961 6.58008C2.8896 6.4501 2.94978 6.32994 3.00977 6.20996C3.00978 6.19001 3.02009 6.1801 3.04004 6.16016C3.11003 6.02017 3.19028 5.87023 3.28027 5.74023C3.29017 5.72044 3.29967 5.71009 3.30957 5.7002C3.38952 5.57028 3.47995 5.44024 3.58984 5.32031C3.79984 5.05031 4.05008 4.80008 4.33008 4.58008C4.36003 4.55013 4.3997 4.52991 4.42969 4.5C4.46969 4.47 4.50004 4.44969 4.54004 4.42969C4.54998 4.41986 4.56037 4.4201 4.57031 4.41016C5.22016 4.0804 6.03973 4.5399 6.04004 5.30957V5.41016C6.04009 6.2201 6.44035 6.97995 7.07031 7.41992C7.16027 7.47987 7.26042 7.53011 7.36035 7.58008C7.46025 7.63001 7.56026 7.67023 7.66016 7.7002C7.78005 7.74015 7.90995 7.77027 8.0498 7.78027C8.2098 7.80027 8.37027 7.80027 8.53027 7.78027C8.67013 7.77026 8.80003 7.74015 8.91992 7.7002C9.02982 7.67022 9.12979 7.63002 9.21973 7.58008C9.31968 7.5301 9.4198 7.47988 9.50977 7.41992C10.1298 7.02993 10.54 6.33002 10.54 5.54004V4.5C10.54 3.95 10.99 3.5 11.54 3.5H12.46Z" fill="#1C252E"/>
<path d="M14.839 13.9899L14.339 14.4999H14.329L11.299 17.5299C11.169 17.6599 10.899 17.7999 10.709 17.8199L9.35896 18.0199C8.86896 18.0899 8.52898 17.7399 8.59898 17.2599L8.78898 15.8999C8.81898 15.7099 8.94896 15.4499 9.07896 15.3099L12.119 12.2799L12.619 11.7699C12.949 11.4399 13.319 11.2 13.719 11.2C14.059 11.2 14.429 11.3599 14.839 11.7699C15.739 12.6699 15.449 13.3799 14.839 13.9899Z" fill="#1C252E"/>
</svg>
