<svg width="24" height="24" viewBox="0 0 24 24" fill="none" xmlns="http://www.w3.org/2000/svg">
<path d="M12 13.75C11.59 13.75 11.25 13.41 11.25 13V8C11.25 7.59 11.59 7.25 12 7.25C12.41 7.25 12.75 7.59 12.75 8V13C12.75 13.41 12.41 13.75 12 13.75Z" fill="#1C252E"/>
<path d="M14.8906 3.45H9.11062C8.71062 3.45 8.39062 3.13 8.39062 2.73C8.39062 2.33 8.71062 2 9.11062 2H14.8906C15.2906 2 15.6106 2.32 15.6106 2.72C15.6106 3.12 15.2906 3.45 14.8906 3.45Z" fill="#1C252E"/>
<path opacity="0.4" d="M15.0001 19.97V17.03C15.0001 15.76 15.7601 15 17.0301 15H19.9701C20.1601 15 20.3301 15.02 20.5001 15.06C20.6101 14.5 20.6701 13.92 20.6701 13.33C20.6701 8.55 16.7801 4.66 12.0001 4.66C7.22008 4.66 3.33008 8.55 3.33008 13.33C3.33008 18.11 7.22008 22 12.0001 22C13.2101 22 14.3601 21.75 15.4101 21.3C15.1501 20.96 15.0001 20.52 15.0001 19.97Z" fill="#1C252E"/>
<path d="M19.97 15H17.04C15.76 15 15 15.76 15 17.03V19.96C15 21.23 15.76 21.99 17.03 21.99H19.96C21.23 21.99 21.99 21.23 21.99 19.96V17.03C22 15.76 21.24 15 19.97 15ZM17.92 20.06C17.92 20.38 17.66 20.64 17.34 20.64C17.02 20.64 16.76 20.38 16.76 20.06V16.95C16.76 16.63 17.02 16.37 17.34 16.37C17.66 16.37 17.92 16.63 17.92 16.95V20.06ZM20.25 20.06C20.25 20.38 19.99 20.64 19.67 20.64C19.35 20.64 19.09 20.38 19.09 20.06V16.95C19.09 16.63 19.35 16.37 19.67 16.37C19.99 16.37 20.25 16.63 20.25 16.95V20.06Z" fill="#1C252E"/>
</svg>
