<svg width="24" height="24" viewBox="0 0 24 24" fill="none" xmlns="http://www.w3.org/2000/svg">
<path opacity="0.4" d="M10.9608 2.11001L5.46078 4.17001C4.41078 4.57001 3.55078 5.81001 3.55078 6.94001V15.04C3.55078 15.85 4.08078 16.92 4.73078 17.4L10.2308 21.51C11.2008 22.24 12.7908 22.24 13.7608 21.51L19.2608 17.4C19.9108 16.91 20.4408 15.85 20.4408 15.04V6.94001C20.4408 5.82001 19.5808 4.57001 18.5308 4.18001L13.0308 2.12001C12.4708 1.90001 11.5308 1.90001 10.9608 2.11001Z" fill="#1C252E"/>
<path d="M12 16.25C9.38 16.25 7.25 14.12 7.25 11.5C7.25 8.88 9.38 6.75 12 6.75C14.62 6.75 16.75 8.88 16.75 11.5C16.75 14.12 14.62 16.25 12 16.25ZM12 8.25C10.21 8.25 8.75 9.71 8.75 11.5C8.75 13.29 10.21 14.75 12 14.75C13.79 14.75 15.25 13.29 15.25 11.5C15.25 9.71 13.79 8.25 12 8.25Z" fill="#1C252E"/>
<path d="M10.9999 13.25C10.7499 13.25 10.4999 13.12 10.3599 12.89C10.1499 12.53 10.2599 12.07 10.6199 11.86L11.3799 11.4C11.4599 11.35 11.4999 11.27 11.4999 11.19V10.26C11.4999 9.85001 11.8399 9.51001 12.2499 9.51001C12.6599 9.51001 12.9999 9.84001 12.9999 10.25V11.18C12.9999 11.79 12.6699 12.37 12.1499 12.68L11.3799 13.14C11.2699 13.22 11.1299 13.25 10.9999 13.25Z" fill="#1C252E"/>
</svg>
