<svg width="24" height="24" viewBox="0 0 24 24" fill="none" xmlns="http://www.w3.org/2000/svg">
<path opacity="0.4" d="M12.46 3.5C13.01 3.5 13.46 3.95 13.46 4.5V5.54004C13.46 6.86002 14.6002 7.92027 15.9502 7.78027C17.1201 7.66019 17.9599 6.58004 17.96 5.41016V5.30957C17.9603 4.47984 18.9104 4.01008 19.5703 4.5C20.7402 5.39001 21.5 6.78021 21.5 8.37012V17.1299C21.5 19.8199 19.3199 22 16.6299 22H7.37012C4.68012 22 2.5 19.8199 2.5 17.1299V8.37012C2.5 8.23019 2.50954 8.09012 2.51953 7.9502C2.52952 7.83035 2.53962 7.72021 2.55957 7.61035C2.57957 7.46035 2.61039 7.30992 2.65039 7.16992C2.69038 7.01998 2.73006 6.86967 2.79004 6.71973C2.80994 6.66992 2.81977 6.62989 2.84961 6.58008C2.8896 6.4501 2.94978 6.32994 3.00977 6.20996C3.00978 6.19001 3.02009 6.1801 3.04004 6.16016C3.11003 6.02017 3.19028 5.87023 3.28027 5.74023C3.29017 5.72044 3.29967 5.71009 3.30957 5.7002C3.38952 5.57028 3.47995 5.44024 3.58984 5.32031C3.79984 5.05031 4.05008 4.80008 4.33008 4.58008C4.36003 4.55013 4.3997 4.52991 4.42969 4.5C4.46969 4.47 4.50004 4.44969 4.54004 4.42969C4.54998 4.41986 4.56037 4.4201 4.57031 4.41016C5.22016 4.0804 6.03973 4.5399 6.04004 5.30957V5.41016C6.04009 6.2201 6.44035 6.97995 7.07031 7.41992C7.16027 7.47987 7.26042 7.53011 7.36035 7.58008C7.46025 7.63001 7.56026 7.67023 7.66016 7.7002C7.78005 7.74015 7.90995 7.77027 8.0498 7.78027C8.2098 7.80027 8.37027 7.80027 8.53027 7.78027C8.67013 7.77026 8.80003 7.74015 8.91992 7.7002C9.02982 7.67022 9.12979 7.63002 9.21973 7.58008C9.31968 7.5301 9.4198 7.47988 9.50977 7.41992C10.1298 7.02993 10.54 6.33002 10.54 5.54004V4.5C10.54 3.95 10.99 3.5 11.54 3.5H12.46Z" fill="#1C252E"/>
<path d="M8 2V5" stroke="#1C252E" stroke-width="1.5" stroke-miterlimit="10" stroke-linecap="round" stroke-linejoin="round"/>
<path d="M16 2V5" stroke="#1C252E" stroke-width="1.5" stroke-miterlimit="10" stroke-linecap="round" stroke-linejoin="round"/>
<path d="M15.7051 11.7C16.2572 11.7002 16.7051 12.1479 16.7051 12.7C16.7051 13.2522 16.2572 13.6998 15.7051 13.7H15.6953C15.1432 13.6998 14.6953 13.2522 14.6953 12.7C14.6953 12.1478 15.1432 11.7002 15.6953 11.7H15.7051Z" fill="#1C252E"/>
<path d="M15.7051 14.7C16.2572 14.7002 16.7051 15.1479 16.7051 15.7C16.7051 16.2522 16.2572 16.6998 15.7051 16.7H15.6953C15.1432 16.6998 14.6953 16.2522 14.6953 15.7C14.6953 15.1478 15.1432 14.7002 15.6953 14.7H15.7051Z" fill="#1C252E"/>
<path d="M12.0059 11.7C12.558 11.7002 13.0059 12.1479 13.0059 12.7C13.0059 13.2522 12.558 13.6998 12.0059 13.7H11.9961C11.444 13.6998 10.9961 13.2522 10.9961 12.7C10.9961 12.1478 11.444 11.7002 11.9961 11.7H12.0059Z" fill="#1C252E"/>
<path d="M12.0059 14.7C12.558 14.7002 13.0059 15.1479 13.0059 15.7C13.0059 16.2522 12.558 16.6998 12.0059 16.7H11.9961C11.444 16.6998 10.9961 16.2522 10.9961 15.7C10.9961 15.1478 11.444 14.7002 11.9961 14.7H12.0059Z" fill="#1C252E"/>
<path d="M8.30273 11.7C8.85483 11.7002 9.30273 12.1479 9.30273 12.7C9.30273 13.2522 8.85483 13.6998 8.30273 13.7H8.29297C7.74085 13.6998 7.29297 13.2522 7.29297 12.7C7.29297 12.1478 7.74085 11.7002 8.29297 11.7H8.30273Z" fill="#1C252E"/>
<path d="M8.30273 14.7C8.85483 14.7002 9.30273 15.1479 9.30273 15.7C9.30273 16.2522 8.85483 16.6998 8.30273 16.7H8.29297C7.74085 16.6998 7.29297 16.2522 7.29297 15.7C7.29297 15.1478 7.74085 14.7002 8.29297 14.7H8.30273Z" fill="#1C252E"/>
</svg>
