<svg width="24" height="24" viewBox="0 0 24 24" fill="none" xmlns="http://www.w3.org/2000/svg">
<path d="M17.92 10.12C17.59 10.04 17.24 10 16.88 10C14.26 10 12.13 12.13 12.13 14.75C12.13 15.64 12.38 16.48 12.82 17.2C13.19 17.82 13.7 18.35 14.32 18.73C15.06 19.22 15.94 19.5 16.88 19.5C18.62 19.5 20.13 18.57 20.95 17.2C21.39 16.48 21.63 15.64 21.63 14.75C21.63 12.49 20.05 10.59 17.92 10.12ZM19.25 14.13L16.71 16.47C16.57 16.6 16.38 16.67 16.2 16.67C16.01 16.67 15.82 16.6 15.67 16.45L14.5 15.28C14.21 14.99 14.21 14.51 14.5 14.22C14.79 13.93 15.27 13.93 15.56 14.22L16.22 14.88L18.23 13.03C18.54 12.75 19.01 12.77 19.29 13.07C19.57 13.38 19.55 13.85 19.25 14.13Z" fill="#1C252E"/>
<path opacity="0.4" d="M5.40998 2H18.58C19.68 2 20.58 2.90999 20.58 4.01999V6.23999C20.58 7.04999 20.08 8.06 19.58 8.56L15.29 12.4C14.69 12.91 14.29 13.92 14.29 14.72V19.06C14.29 19.67 13.89 20.47 13.39 20.78L12 21.7C10.7 22.51 8.90998 21.6 8.90998 19.98V14.63C8.90998 13.92 8.50998 13.01 8.10998 12.51L4.31998 8.47C3.81998 7.96 3.41998 7.06001 3.41998 6.45001V4.13C3.41998 2.91 4.31998 2 5.40998 2Z" fill="#1C252E"/>
</svg>
