<svg width="24" height="24" viewBox="0 0 24 24" fill="none" xmlns="http://www.w3.org/2000/svg">
<path d="M20.42 8.99998C20.28 8.98998 20.1 8.97998 19.9 8.97998C19.51 8.97998 19.2 9.28998 19.2 9.67998V14.33C19.2 14.72 19.51 15.03 19.9 15.03C20.1 15.03 20.27 15.02 20.44 15.01C22 14.83 22 13.73 22 12.93V11.07C22 10.27 22 9.16998 20.42 8.99998Z" fill="#1C252E"/>
<path opacity="0.4" d="M18.28 10.14V13.86C18.28 16.81 15.88 19.21 12.93 19.21H9.25997C8.46997 19.21 7.98997 18.34 8.40997 17.68L15.67 6.20001C16.03 5.63001 16.84 5.58001 17.29 6.09001C18.01 6.92001 18.28 8.21001 18.28 10.14Z" fill="#1C252E"/>
<path d="M15.37 2.09999C15.59 1.74999 16.05 1.64999 16.4 1.86999C16.75 2.08999 16.86 2.54999 16.63 2.89999L4.62999 21.9C4.48999 22.13 4.24999 22.25 3.99999 22.25C3.85999 22.25 3.71999 22.21 3.59999 22.13C3.24999 21.91 3.14999 21.45 3.36999 21.1L4.73999 18.92L13.66 4.80999L15.37 2.09999Z" fill="#1C252E"/>
<path opacity="0.4" d="M12.93 4.78998C13.19 4.78998 13.43 4.79998 13.66 4.80998L4.74 18.92C2.7 18.37 2 16.91 2 13.86V10.14C2 6.03998 3.25 4.78998 7.35 4.78998H12.93Z" fill="#1C252E"/>
</svg>
