<svg width="24" height="24" viewBox="0 0 24 24" fill="none" xmlns="http://www.w3.org/2000/svg">
<path d="M11.25 18.25H9C7.9 18.25 7 19.15 7 20.25V20.5H6C5.59 20.5 5.25 20.84 5.25 21.25C5.25 21.66 5.59 22 6 22H18C18.41 22 18.75 21.66 18.75 21.25C18.75 20.84 18.41 20.5 18 20.5H17V20.25C17 19.15 16.1 18.25 15 18.25H12.75V15.96C12.5 15.99 12.25 16 12 16C11.75 16 11.5 15.99 11.25 15.96V18.25Z" fill="#1C252E"/>
<path d="M4.57812 4.2627C4.36666 4.80079 4.25 5.38668 4.25 6V9C4.25 9.73721 4.35414 10.4497 4.5459 11.125C4.28016 10.942 4.03698 10.7362 3.82031 10.5195C2.89044 9.48963 2.28036 8.26012 2.28027 6.82031C2.28027 5.47225 3.27025 4.39465 4.57812 4.2627Z" fill="#1C252E"/>
<path d="M19.4209 4.2627C20.7293 4.39419 21.7197 5.4719 21.7197 6.82031C21.7196 8.26014 21.1096 9.48962 20.1797 10.5195C19.9628 10.7364 19.7191 10.9419 19.4531 11.125C19.6449 10.4497 19.75 9.7373 19.75 9V6C19.75 5.38655 19.6324 4.80088 19.4209 4.2627Z" fill="#1C252E"/>
<path opacity="0.4" d="M15 2C16.58 2 17.9398 2.92004 18.5898 4.25H18.5977C18.8551 4.77858 19 5.37224 19 6V9C19 9.93339 18.816 10.8229 18.4854 11.6367L18.4805 11.6396C17.866 13.1522 16.7408 14.3986 15.3174 15.166C15.0385 15.3162 14.7483 15.4477 14.4482 15.5596C14.4267 15.5676 14.4054 15.5762 14.3838 15.584C14.1863 15.6554 13.9846 15.7178 13.7793 15.7715C13.2116 15.9198 12.6156 16 12 16C11.384 16 10.7877 15.9199 10.2197 15.7715C10.0147 15.7179 9.81341 15.6553 9.61621 15.584C9.49378 15.5397 9.37301 15.4922 9.25391 15.4414C9.05839 15.3581 8.86751 15.2661 8.68164 15.166C7.2586 14.3986 6.13486 13.1519 5.52051 11.6396C5.51829 11.6388 5.51589 11.6376 5.51367 11.6367C5.18314 10.823 5 9.93326 5 9V6C5 5.37224 5.14488 4.77858 5.40234 4.25H5.41016C6.06016 2.92004 7.42003 2.00001 9 2H15Z" fill="#1C252E"/>
</svg>
