<svg width="24" height="24" viewBox="0 0 24 24" fill="none" xmlns="http://www.w3.org/2000/svg">
<path opacity="0.4" d="M20.9501 11.0103L20.52 13.6003L19.52 13.1903C18.89 12.9403 18.19 12.9403 17.56 13.1903L14.78 14.3303C14.4 14.4903 14.09 14.9503 14.09 15.3703V17.5603C14.09 18.8103 14.55 20.0203 15.34 21.0003H6.18003C4.81003 21.0003 3.52005 19.9103 3.29005 18.5603L2.03004 11.0103C1.87004 10.0803 2.34002 8.83028 3.08002 8.24028L9.66004 2.98027C10.67 2.17027 12.31 2.17028 13.32 2.99028L19.9 8.24028C20.63 8.83028 21.1101 10.0803 20.9501 11.0103Z" fill="#1C252E"/>
<path d="M23 15.3699V17.5599C23 19.9999 21.22 22.2999 18.8 22.9699C18.63 23.0099 18.45 23.0099 18.29 22.9699C17.11 22.6499 16.07 21.9299 15.34 20.9999C14.55 20.0199 14.09 18.8099 14.09 17.5599V15.3699C14.09 14.9499 14.4 14.4899 14.78 14.3299L17.56 13.1899C18.19 12.9399 18.89 12.9399 19.52 13.1899L20.52 13.5999L22.31 14.3299C22.69 14.4899 23 14.9499 23 15.3699Z" fill="#1C252E"/>
</svg>
