<svg width="24" height="24" viewBox="0 0 24 24" fill="none" xmlns="http://www.w3.org/2000/svg">
<path d="M19.0486 14.5444C19.0486 12.6864 17.5424 11.1802 15.6843 11.1802C13.8263 11.1802 12.3201 12.6864 12.3201 14.5444C12.3201 16.4025 13.8263 17.9087 15.6843 17.9087C17.5424 17.9087 19.0486 16.4025 19.0486 14.5444ZM20.5486 14.5444C20.5486 15.6368 20.1878 16.6446 19.5798 17.4565C19.6647 17.493 19.7448 17.5445 19.8142 17.6138L21.1003 18.8999C21.3932 19.1928 21.3932 19.6676 21.1003 19.9604C20.8074 20.2533 20.3327 20.2533 20.0398 19.9604L18.7537 18.6743C18.6844 18.6049 18.6329 18.5249 18.5964 18.4399C17.7845 19.0479 16.7767 19.4087 15.6843 19.4087C12.9979 19.4087 10.8201 17.2309 10.8201 14.5444C10.8201 11.858 12.9979 9.6802 15.6843 9.68018C18.3708 9.68018 20.5486 11.858 20.5486 14.5444Z" fill="#1C252E"/>
<path opacity="0.4" d="M17.5801 2C18.6799 2.00005 19.5798 2.90977 19.5801 4.01953V6.24023C19.58 7.05005 19.0799 8.05953 18.5801 8.55957L17.0957 9.8877C16.6491 9.75252 16.1753 9.68069 15.6846 9.68066C12.9981 9.68069 10.8203 11.8585 10.8203 14.5449C10.8205 16.3604 11.8159 17.9417 13.29 18.7773V19.0596C13.29 19.6696 12.8896 20.4703 12.3896 20.7803L11 21.7002C9.70013 22.51 7.91049 21.6002 7.91016 19.9805V14.6299C7.91011 13.9199 7.51032 13.0097 7.11035 12.5098L3.32031 8.46973C2.82036 7.95978 2.42 7.06019 2.41992 6.4502V4.12988C2.41998 2.90994 3.32019 2 4.41016 2H17.5801Z" fill="#1C252E"/>
</svg>
