<svg width="24" height="24" viewBox="0 0 24 24" fill="none" xmlns="http://www.w3.org/2000/svg">
<path opacity="0.4" d="M16.1904 2C19.83 2.00017 22.0001 4.16997 21.9902 7.80957V16.1904C21.9901 19.8302 19.8195 22 16.1797 22H7.80957C4.16983 21.9998 2 19.8295 2 16.1797V7.80957C2.00017 4.16997 4.16997 2.00017 7.80957 2H16.1904ZM16.7734 7.22754C16.4806 6.93466 16.0058 6.93468 15.7129 7.22754L12 10.9395L8.28809 7.22754C7.99519 6.93465 7.52043 6.93465 7.22754 7.22754C6.93466 7.52043 6.93465 7.9952 7.22754 8.28809L10.9395 12L7.22754 15.7129C6.9347 16.0058 6.93466 16.4806 7.22754 16.7734C7.52046 17.0658 7.99536 17.0661 8.28809 16.7734L12 13.0605L15.7129 16.7734C16.0058 17.0658 16.4807 17.0661 16.7734 16.7734C17.0661 16.4807 17.0658 16.0058 16.7734 15.7129L13.0605 12L16.7734 8.28809C17.0661 7.99536 17.0658 7.52046 16.7734 7.22754Z" fill="#1C252E"/>
<path d="M16.7734 7.22754C16.4806 6.93466 16.0058 6.93468 15.7129 7.22754L12 10.9395L8.28809 7.22754C7.99519 6.93465 7.52043 6.93465 7.22754 7.22754C6.93466 7.52043 6.93465 7.9952 7.22754 8.28809L10.9395 12L7.22754 15.7129C6.9347 16.0058 6.93466 16.4806 7.22754 16.7734C7.52046 17.0658 7.99536 17.0661 8.28809 16.7734L12 13.0605L15.7129 16.7734C16.0058 17.0658 16.4807 17.0661 16.7734 16.7734C17.0661 16.4807 17.0658 16.0058 16.7734 15.7129L13.0605 12L16.7734 8.28809C17.0661 7.99536 17.0658 7.52046 16.7734 7.22754Z" fill="#1C252E"/>
</svg>
