<svg width="24" height="24" viewBox="0 0 24 24" fill="none" xmlns="http://www.w3.org/2000/svg">
<path opacity="0.4" d="M20.78 14.18V17.12C20.78 18.22 19.88 19.12 18.78 19.12H5.21997C4.11997 19.12 3.21997 18.22 3.21997 17.12V14.18C3.21997 9.35998 7.11997 5.45998 11.94 5.45998H12.06C16.88 5.44998 20.78 9.35998 20.78 14.18Z" fill="#1C252E"/>
<path d="M12.75 2.53027V5.49027C12.52 5.47027 12.29 5.46027 12.06 5.46027H11.94C11.71 5.46027 11.48 5.47027 11.25 5.49027V2.53027C11.25 2.12027 11.59 1.78027 12 1.78027C12.41 1.78027 12.75 2.12027 12.75 2.53027Z" fill="#1C252E"/>
<path d="M15.3199 19.1099C15.1999 20.8499 13.7599 22.2199 11.9999 22.2199C10.2399 22.2199 8.78993 20.8499 8.67993 19.1099H15.3199Z" fill="#1C252E"/>
</svg>
