<svg width="24" height="24" viewBox="0 0 24 24" fill="none" xmlns="http://www.w3.org/2000/svg">
<path d="M13.1901 16.29H10.8101V17.71H13.1901V16.29Z" fill="#1C252E"/>
<path d="M7.95001 2.71C7.95001 3.11 7.63001 3.43 7.24001 3.43H6.29001C4.58001 3.43 3.19001 4.82 3.19001 6.52V12.4C2.34001 12.83 1.76001 13.71 1.76001 14.73V6.52C1.76001 4.03 3.79001 2 6.29001 2H7.24001C7.63001 2 7.95001 2.32 7.95001 2.71Z" fill="#1C252E"/>
<path d="M22.24 6.52V14.73C22.24 13.71 21.66 12.83 20.81 12.4V6.52C20.81 4.82 19.42 3.43 17.71 3.43H16.76C16.37 3.43 16.05 3.11 16.05 2.71C16.05 2.32 16.37 2 16.76 2H17.71C20.21 2 22.24 4.03 22.24 6.52Z" fill="#1C252E"/>
<path opacity="0.4" d="M10.81 14.7299V19.3799C10.81 20.8299 9.63001 21.9999 8.19001 21.9999H4.38001C2.94001 21.9999 1.76001 20.8299 1.76001 19.3799V14.7299C1.76001 13.7099 2.34001 12.8299 3.19001 12.3999C3.55001 12.2099 3.95001 12.1099 4.38001 12.1099H8.19001C9.63001 12.1099 10.81 13.2799 10.81 14.7299Z" fill="#1C252E"/>
<path opacity="0.4" d="M22.2399 14.7299V19.3799C22.2399 20.8299 21.0599 21.9999 19.6199 21.9999H15.8099C14.3699 21.9999 13.1899 20.8299 13.1899 19.3799V14.7299C13.1899 13.2799 14.3699 12.1099 15.8099 12.1099H19.6199C20.0499 12.1099 20.4499 12.2099 20.8099 12.3999C21.6599 12.8299 22.2399 13.7099 22.2399 14.7299Z" fill="#1C252E"/>
</svg>
