<svg width="24" height="24" viewBox="0 0 24 24" fill="none" xmlns="http://www.w3.org/2000/svg">
<path opacity="0.4" d="M9.82997 5.57026L6.35997 7.68024L4.77997 5.08027C4.19997 4.13027 4.49998 2.87023 5.45998 2.29023C6.40998 1.71023 7.66997 2.01022 8.24997 2.97022L9.82997 5.57026Z" fill="#1C252E"/>
<path opacity="0.4" d="M19.27 17.6403L19.26 17.6503L17.96 18.4403L16.66 19.2302L15.36 20.0203L14.06 20.8103L12.76 21.6002H12.75C11.44 22.4002 9.82003 21.9203 9.15003 20.5503L7.07004 16.3103C6.34004 14.8303 6.57003 13.0303 7.69003 11.8003C7.95003 11.5203 8.25004 11.2603 8.60004 11.0503L11.81 9.10024C12.17 8.89024 12.53 8.73028 12.9 8.64028C14.5 8.20028 16.2 8.82029 17.18 10.1503L19.99 13.9503C20.9 15.2003 20.58 16.8503 19.27 17.6403Z" fill="#1C252E"/>
<path d="M12.9 8.66006C12.53 8.75006 12.17 8.90008 11.81 9.12008L8.60005 11.0701C8.24005 11.2801 7.95005 11.5401 7.69005 11.8201C7.68005 11.8201 7.68004 11.8101 7.68004 11.8101L6.03005 9.08011C5.74005 8.60011 5.89005 7.97009 6.36005 7.69009L9.83005 5.58011C10.31 5.29011 10.93 5.44006 11.22 5.91006L12.8801 8.6401C12.8901 8.6501 12.9 8.65006 12.9 8.66006Z" fill="#1C252E"/>
<path d="M16.66 19.2297L15.36 20.0197L13.69 17.2697C13.48 16.9097 13.59 16.4497 13.94 16.2197C14.31 16.0097 14.77 16.1197 14.99 16.4697L16.66 19.2297Z" fill="#1C252E"/>
<path d="M14.06 20.82L12.76 21.61L11.09 18.86C10.87 18.5 10.98 18.04 11.34 17.81C11.7 17.6 12.16 17.71 12.39 18.06L14.06 20.82Z" fill="#1C252E"/>
<path d="M19.26 17.6501L17.96 18.4401L16.29 15.6901C16.08 15.3301 16.19 14.8701 16.54 14.6401C16.91 14.4301 17.37 14.5401 17.59 14.8901L19.26 17.6501Z" fill="#1C252E"/>
</svg>
