<svg width="24" height="24" viewBox="0 0 24 24" fill="none" xmlns="http://www.w3.org/2000/svg">
<path opacity="0.4" d="M16.8 11.1101L18.02 12.3301C19.04 13.3601 19.42 14.3501 19.09 15.1401C18.76 15.9301 17.79 16.3701 16.35 16.3701H5.90002V3.61011H16.35C17.81 3.61011 18.8 4.04011 19.12 4.82011C19.45 5.61011 19.06 6.61011 18.02 7.65011L16.82 8.85011C16.49 9.18011 16.31 9.63011 16.33 10.0801C16.34 10.4901 16.51 10.8601 16.8 11.1101Z" fill="#1C252E"/>
<path d="M5.90002 2.75V3.61V16.37V21.25C5.90002 21.66 5.56002 22 5.15002 22C4.74002 22 4.40002 21.66 4.40002 21.25V2.75C4.40002 2.34 4.74002 2 5.15002 2C5.56002 2 5.90002 2.34 5.90002 2.75Z" fill="#1C252E"/>
</svg>
