<svg width="24" height="24" viewBox="0 0 24 24" fill="none" xmlns="http://www.w3.org/2000/svg">
<path d="M19.8398 10.5502V7.11957C19.8397 6.68699 19.67 6.18576 19.3594 5.73676C19.0875 5.34372 18.741 5.03868 18.3887 4.86761L18.2373 4.80219L13.248 2.93207V2.93304C12.9425 2.81893 12.4899 2.7475 12 2.7475C11.5102 2.74751 11.0584 2.81898 10.7529 2.93304L10.752 2.93207L5.76465 4.81195L5.7627 4.81293C5.35968 4.9637 4.95149 5.29817 4.64062 5.74652C4.32974 6.19493 4.16027 6.69314 4.16016 7.11957V14.5502C4.16021 14.9912 4.31137 15.557 4.58887 16.1088C4.86633 16.6604 5.23194 17.1223 5.58887 17.3891L9.88867 20.5991L9.89844 20.6059C10.4404 21.024 11.1985 21.2504 12 21.2504C12.4142 21.2504 12.75 21.5862 12.75 22.0004C12.7498 22.4144 12.4141 22.7504 12 22.7504C10.9452 22.7504 9.8479 22.4573 8.99121 21.8002L4.69141 18.5912V18.5903C4.09855 18.1472 3.59897 17.4792 3.24902 16.7836C2.89922 16.0882 2.66021 15.2891 2.66016 14.5502V7.11957C2.66026 6.32627 2.96084 5.53485 3.40723 4.89105C3.79801 4.32747 4.33454 3.82801 4.96289 3.52484L5.2373 3.40765L10.2256 1.52777H10.2275C10.752 1.3319 11.395 1.24751 12 1.2475C12.6051 1.2475 13.248 1.33188 13.7725 1.52777H13.7734L18.7637 3.39789C19.5102 3.67728 20.1462 4.23784 20.5928 4.88324C21.0395 5.52897 21.3397 6.32238 21.3398 7.11957V10.5502C21.3397 10.9643 21.004 11.3002 20.5898 11.3002C20.1759 11.3001 19.84 10.9642 19.8398 10.5502Z" fill="#1C252E"/>
<path d="M19.4785 16.1143C19.4785 14.2563 17.9724 12.75 16.1143 12.75C14.2562 12.7501 12.75 14.2563 12.75 16.1143C12.75 17.9722 14.2562 19.4784 16.1143 19.4785C17.9724 19.4785 19.4785 17.9723 19.4785 16.1143ZM20.9785 16.1143C20.9785 17.1869 20.6301 18.1772 20.042 18.9814L21.5303 20.4697C21.8231 20.7626 21.8231 21.2374 21.5303 21.5303C21.2374 21.8232 20.7626 21.8231 20.4697 21.5303L18.9814 20.042C18.1773 20.63 17.1868 20.9785 16.1143 20.9785C13.4278 20.9784 11.25 18.8007 11.25 16.1143C11.25 13.4279 13.4278 11.2501 16.1143 11.25C18.8008 11.25 20.9785 13.4278 20.9785 16.1143Z" fill="#1C252E"/>
</svg>
