<svg width="24" height="24" viewBox="0 0 24 24" fill="none" xmlns="http://www.w3.org/2000/svg">
<path d="M13.25 12C13.25 11.3096 12.6904 10.75 12 10.75C11.3096 10.75 10.75 11.3096 10.75 12C10.75 12.6904 11.3096 13.25 12 13.25C12.6904 13.25 13.25 12.6904 13.25 12ZM14.75 12C14.75 13.5188 13.5188 14.75 12 14.75C10.4812 14.75 9.25 13.5188 9.25 12C9.25 10.4812 10.4812 9.25 12 9.25C13.5188 9.25 14.75 10.4812 14.75 12Z" fill="#1C252E"/>
<path d="M21.25 12C21.25 9.91713 20.5655 7.99518 19.4014 6.45219C19.152 6.12163 19.2175 5.65094 19.5479 5.40141C19.8784 5.15201 20.3491 5.2175 20.5987 5.54789C21.9545 7.34484 22.75 9.58309 22.75 12C22.75 14.417 21.9545 16.6552 20.5987 18.4522C20.3491 18.7826 19.8784 18.8481 19.5479 18.5987C19.2175 18.3491 19.152 17.8784 19.4014 17.5479C20.5655 16.0049 21.25 14.0829 21.25 12Z" fill="#1C252E"/>
<path d="M1.25 12C1.25 9.58309 2.04558 7.34484 3.40137 5.54789C3.6509 5.2175 4.12159 5.15201 4.45215 5.40141C4.78254 5.65094 4.84803 6.12163 4.59863 6.45219C3.43456 7.99518 2.75 9.91713 2.75 12C2.75 14.0829 3.43456 16.0049 4.59863 17.5479C4.84803 17.8784 4.78254 18.3491 4.45215 18.5987C4.12159 18.8481 3.6509 18.7826 3.40137 18.4522C2.04558 16.6552 1.25 14.417 1.25 12Z" fill="#1C252E"/>
<path d="M17.2498 11.9996C17.2497 10.8187 16.8563 9.7255 16.2 8.85022C15.9515 8.51895 16.0183 8.049 16.3494 7.80041C16.6807 7.55196 17.1506 7.61873 17.3992 7.94983C18.2425 9.07429 18.7497 10.4811 18.7498 11.9996C18.7498 13.5184 18.2426 14.9258 17.3992 16.0504C17.1506 16.3814 16.6806 16.4482 16.3494 16.1998C16.0182 15.9513 15.9515 15.4813 16.2 15.15C16.8565 14.2746 17.2498 13.1808 17.2498 11.9996Z" fill="#1C252E"/>
<path d="M5.25 11.9996C5.25009 10.4811 5.75629 9.07427 6.59961 7.94982C6.84814 7.61845 7.31902 7.55188 7.65039 7.8004C7.98139 8.04902 8.04823 8.51898 7.7998 8.85021C7.1434 9.72551 6.75009 10.8186 6.75 11.9996C6.75 13.1808 7.14328 14.2746 7.7998 15.15C8.04825 15.4813 7.98147 15.9512 7.65039 16.1998C7.31904 16.4483 6.84815 16.3817 6.59961 16.0504C5.75619 14.9258 5.25 13.5183 5.25 11.9996Z" fill="#1C252E"/>
</svg>
