<svg width="24" height="24" viewBox="0 0 24 24" fill="none" xmlns="http://www.w3.org/2000/svg">
<path d="M19.8604 7.11957C19.8602 6.68705 19.6904 6.18572 19.3799 5.73676C19.0692 5.28758 18.6607 4.9529 18.2578 4.80219H18.2568L13.2734 2.93402V2.935C12.9546 2.8187 12.4946 2.74752 12.0029 2.7475C11.5104 2.7475 11.0583 2.81902 10.7529 2.93304L10.752 2.93207L5.76465 4.81195L5.7627 4.81293C5.35968 4.9637 4.95149 5.29817 4.64062 5.74652C4.32974 6.19493 4.16027 6.69314 4.16016 7.11957V14.5502C4.16021 14.9912 4.31137 15.557 4.58887 16.1088C4.86633 16.6604 5.23194 17.1223 5.58887 17.3891L9.88867 20.5991L9.89062 20.6C10.4426 21.015 11.2087 21.2445 12.0098 21.2446C12.811 21.2446 13.5778 21.0151 14.1299 20.6L14.1318 20.5991L18.4316 17.3891L18.5654 17.2807C18.8784 17.0061 19.1888 16.5917 19.4316 16.1088C19.7091 15.5571 19.8603 14.9911 19.8604 14.5502V7.11957ZM21.3604 14.5502C21.3603 15.2891 21.1213 16.0882 20.7715 16.7836C20.4216 17.4792 19.9219 18.1471 19.3291 18.5903V18.5912L15.0293 21.8012L15.0283 21.8002C14.1707 22.4441 13.0728 22.7446 12.0098 22.7446C10.9467 22.7445 9.84878 22.4443 8.99121 21.8002L4.69141 18.5912V18.5903C4.09855 18.1472 3.59897 17.4792 3.24902 16.7836C2.89922 16.0882 2.66021 15.2891 2.66016 14.5502V7.11957C2.66026 6.32627 2.96084 5.53485 3.40723 4.89105C3.79801 4.32747 4.33454 3.82801 4.96289 3.52484L5.2373 3.40765L10.2256 1.52777H10.2275C10.7522 1.33183 11.3956 1.2475 12.0029 1.2475C12.6111 1.24752 13.2561 1.33217 13.7871 1.52582L13.793 1.52777L18.7832 3.39789L19.0576 3.51508C19.686 3.81835 20.2224 4.31821 20.6133 4.88324C21.06 5.52897 21.3602 6.32238 21.3604 7.11957V14.5502Z" fill="#1C252E"/>
<path d="M13.25 10.5C13.25 9.80964 12.6904 9.25 12 9.25C11.3096 9.25 10.75 9.80964 10.75 10.5C10.75 11.1904 11.3096 11.75 12 11.75C12.6904 11.75 13.25 11.1904 13.25 10.5ZM14.75 10.5C14.75 12.0188 13.5188 13.25 12 13.25C10.4812 13.25 9.25 12.0188 9.25 10.5C9.25 8.98122 10.4812 7.75 12 7.75C13.5188 7.75 14.75 8.98122 14.75 10.5Z" fill="#1C252E"/>
<path d="M11.25 15.5V12.5C11.25 12.0858 11.5858 11.75 12 11.75C12.4142 11.75 12.75 12.0858 12.75 12.5V15.5C12.75 15.9142 12.4142 16.25 12 16.25C11.5858 16.25 11.25 15.9142 11.25 15.5Z" fill="#1C252E"/>
</svg>
