<svg width="24" height="24" viewBox="0 0 24 24" fill="none" xmlns="http://www.w3.org/2000/svg">
<path d="M1.75 14.5V9.5C1.75 7.80259 1.91838 6.44433 2.55762 5.47363C3.24131 4.43559 4.34354 4.00067 5.75781 3.84473V3.8457C6.29437 3.77089 6.87811 3.75 7.5 3.75H10.96C11.3742 3.75 11.71 4.08579 11.71 4.5C11.71 4.91421 11.3742 5.25 10.96 5.25H7.5C6.89118 5.25 6.38318 5.26964 5.94629 5.33203C5.93835 5.33317 5.92985 5.33506 5.92188 5.33594C4.7066 5.47 4.13934 5.79965 3.81055 6.29883C3.43729 6.86563 3.25 7.81741 3.25 9.5V14.5C3.25 16.1826 3.43729 17.1344 3.81055 17.7012C4.13934 18.2004 4.7066 18.53 5.92188 18.6641C5.92985 18.6649 5.93835 18.6668 5.94629 18.668C6.38318 18.7304 6.89118 18.75 7.5 18.75H11.0195C11.4337 18.75 11.7695 19.0858 11.7695 19.5C11.7695 19.9142 11.4337 20.25 11.0195 20.25H7.5C6.87811 20.25 6.29437 20.2291 5.75781 20.1543V20.1553C4.34354 19.9993 3.24131 19.5644 2.55762 18.5264C1.91838 17.5557 1.75 16.1974 1.75 14.5Z" fill="#1C252E"/>
<path d="M20.75 14.5V9.5C20.75 7.81749 20.5627 6.86564 20.1895 6.29883C19.8606 5.79952 19.2928 5.46998 18.0771 5.33594C18.0693 5.33507 18.0615 5.33315 18.0537 5.33203C17.6169 5.26962 17.1087 5.25001 16.5 5.25H15.0195C14.6053 5.25 14.2695 4.91421 14.2695 4.5C14.2695 4.08579 14.6053 3.75 15.0195 3.75H16.5C17.1215 3.75001 17.7049 3.77097 18.2412 3.8457L18.2422 3.84473C19.6563 4.00073 20.7588 4.43556 21.4424 5.47363C22.0816 6.44433 22.25 7.8026 22.25 9.5V14.5C22.25 16.1974 22.0816 17.5557 21.4424 18.5264C20.7588 19.5644 19.6563 19.9993 18.2422 20.1553L18.2412 20.1543C17.7049 20.229 17.1215 20.25 16.5 20.25H15.0195C14.6053 20.25 14.2695 19.9142 14.2695 19.5C14.2695 19.0858 14.6053 18.75 15.0195 18.75H16.5C17.1087 18.75 17.6169 18.7304 18.0537 18.668L18.0771 18.6641C19.2928 18.53 19.8606 18.2005 20.1895 17.7012C20.5627 17.1344 20.75 16.1825 20.75 14.5Z" fill="#1C252E"/>
<path d="M14.25 22V2C14.25 1.58579 14.5858 1.25 15 1.25C15.4142 1.25 15.75 1.58579 15.75 2V22C15.75 22.4142 15.4142 22.75 15 22.75C14.5858 22.75 14.25 22.4142 14.25 22Z" fill="#1C252E"/>
<path d="M7.25 15.5V8.5C7.25 8.08579 7.58579 7.75 8 7.75C8.41421 7.75 8.75 8.08579 8.75 8.5V15.5C8.75 15.9142 8.41421 16.25 8 16.25C7.58579 16.25 7.25 15.9142 7.25 15.5Z" fill="#1C252E"/>
</svg>
