<svg width="24" height="24" viewBox="0 0 24 24" fill="none" xmlns="http://www.w3.org/2000/svg">
<path d="M22 21.25C22.4142 21.25 22.75 21.5858 22.75 22C22.75 22.4142 22.4142 22.75 22 22.75H2C1.58579 22.75 1.25 22.4142 1.25 22C1.25 21.5858 1.58579 21.25 2 21.25H22Z" fill="#1C252E"/>
<path d="M20.25 15C20.25 10.4442 16.5558 6.75 12 6.75C7.44421 6.75 3.75 10.4442 3.75 15V21.25H20.25V15ZM21.75 22C21.75 22.4142 21.4142 22.75 21 22.75H3C2.58579 22.75 2.25 22.4142 2.25 22V15C2.25 9.61579 6.61579 5.25 12 5.25C17.3842 5.25 21.75 9.61579 21.75 15V22Z" fill="#1C252E"/>
<path d="M11.25 3V2C11.25 1.58579 11.5858 1.25 12 1.25C12.4142 1.25 12.75 1.58579 12.75 2V3C12.75 3.41421 12.4142 3.75 12 3.75C11.5858 3.75 11.25 3.41421 11.25 3Z" fill="#1C252E"/>
<path d="M3.46967 3.46967C3.76256 3.17678 4.23732 3.17678 4.53022 3.46967L5.53022 4.46967C5.82311 4.76256 5.82311 5.23732 5.53022 5.53022C5.23732 5.82311 4.76256 5.82311 4.46967 5.53022L3.46967 4.53022C3.17678 4.23732 3.17678 3.76256 3.46967 3.46967Z" fill="#1C252E"/>
<path d="M19.4697 3.46967C19.7626 3.17678 20.2373 3.17678 20.5302 3.46967C20.8231 3.76256 20.8231 4.23732 20.5302 4.53022L19.5302 5.53022C19.2373 5.82311 18.7626 5.82311 18.4697 5.53022C18.1768 5.23732 18.1768 4.76256 18.4697 4.46967L19.4697 3.46967Z" fill="#1C252E"/>
</svg>
