<svg width="24" height="24" viewBox="0 0 24 24" fill="none" xmlns="http://www.w3.org/2000/svg">
<path d="M9.7666 1.69601C11.1982 1.11191 12.8115 1.11191 14.2432 1.69601H14.2441L19.8125 3.97531C20.3585 4.19803 20.8146 4.62059 21.1309 5.08859C21.4471 5.55661 21.6699 6.1383 21.6699 6.73019V6.73214L21.6602 11.1218C21.6593 16.3603 17.8726 21.2265 12.71 22.653L12.707 22.654C12.2481 22.7791 11.7519 22.7791 11.293 22.654L11.29 22.653C6.12667 21.2264 2.33984 16.3591 2.33984 11.1198V6.73019C2.33984 6.141 2.55819 5.56036 2.87402 5.09054C3.18913 4.62182 3.6444 4.19938 4.19531 3.97628L9.76562 1.69601H9.7666ZM3.83984 11.1198C3.83984 15.6605 7.15294 19.9533 11.6895 21.2068H11.6885C11.8883 21.261 12.1107 21.2609 12.3105 21.2068L12.7314 21.0808C17.0504 19.6852 20.1602 15.5187 20.1602 11.1198V11.1179L20.1699 6.73019L20.165 6.64132C20.1447 6.4285 20.0538 6.17287 19.8887 5.92843C19.7 5.64921 19.4608 5.45124 19.2471 5.36398H19.2461L13.6768 3.0837V3.08468C12.6084 2.64878 11.4014 2.64878 10.333 3.08468L4.76367 5.36398L4.75977 5.36593C4.54277 5.45336 4.30464 5.65007 4.11816 5.92745C3.93166 6.20503 3.83984 6.49948 3.83984 6.73019V11.1198Z" fill="#1C252E"/>
</svg>
