<svg width="24" height="24" viewBox="0 0 24 24" fill="none" xmlns="http://www.w3.org/2000/svg">
<path d="M21.25 9V7C21.25 5.67044 20.8101 4.62069 20.0947 3.90527C19.3793 3.18986 18.3296 2.75 17 2.75H7C5.67044 2.75 4.62069 3.18986 3.90527 3.90527C3.18986 4.62069 2.75 5.67044 2.75 7V9C2.75 9.41421 2.41421 9.75 2 9.75C1.58579 9.75 1.25 9.41421 1.25 9V7C1.25 5.32956 1.81014 3.87931 2.84473 2.84473C3.87931 1.81014 5.32956 1.25 7 1.25H17C18.6704 1.25 20.1207 1.81014 21.1553 2.84473C22.1899 3.87931 22.75 5.32956 22.75 7V9C22.75 9.41421 22.4142 9.75 22 9.75C21.5858 9.75 21.25 9.41421 21.25 9Z" fill="#1C252E"/>
<path d="M1.25 17V15C1.25 14.5858 1.58579 14.25 2 14.25C2.41421 14.25 2.75 14.5858 2.75 15V17C2.75 18.3296 3.18986 19.3793 3.90527 20.0947C4.62069 20.8101 5.67044 21.25 7 21.25H17C18.3296 21.25 19.3793 20.8101 20.0947 20.0947C20.8101 19.3793 21.25 18.3296 21.25 17V15C21.25 14.5858 21.5858 14.25 22 14.25C22.4142 14.25 22.75 14.5858 22.75 15V17C22.75 18.6704 22.1899 20.1207 21.1553 21.1553C20.1207 22.1899 18.6704 22.75 17 22.75H7C5.32956 22.75 3.87931 22.1899 2.84473 21.1553C1.81014 20.1207 1.25 18.6704 1.25 17Z" fill="#1C252E"/>
<path d="M22 11.25C22.4142 11.25 22.75 11.5858 22.75 12C22.75 12.4142 22.4142 12.75 22 12.75H2C1.58579 12.75 1.25 12.4142 1.25 12C1.25 11.5858 1.58579 11.25 2 11.25H22Z" fill="#1C252E"/>
</svg>
