<svg width="24" height="24" viewBox="0 0 24 24" fill="none" xmlns="http://www.w3.org/2000/svg">
<path d="M1.25 9V6.5C1.25 3.59579 3.59579 1.25 6.5 1.25H9C9.41421 1.25 9.75 1.58579 9.75 2C9.75 2.41421 9.41421 2.75 9 2.75H6.5C4.42421 2.75 2.75 4.42421 2.75 6.5V9C2.75 9.41421 2.41421 9.75 2 9.75C1.58579 9.75 1.25 9.41421 1.25 9Z" fill="#1C252E"/>
<path d="M21.25 9V6.5C21.25 4.42421 19.5758 2.75 17.5 2.75H15C14.5858 2.75 14.25 2.41421 14.25 2C14.25 1.58579 14.5858 1.25 15 1.25H17.5C20.4042 1.25 22.75 3.59579 22.75 6.5V9C22.75 9.41421 22.4142 9.75 22 9.75C21.5858 9.75 21.25 9.41421 21.25 9Z" fill="#1C252E"/>
<path d="M21.25 17.5V16C21.25 15.5858 21.5858 15.25 22 15.25C22.4142 15.25 22.75 15.5858 22.75 16V17.5C22.75 20.4042 20.4042 22.75 17.5 22.75H16C15.5858 22.75 15.25 22.4142 15.25 22C15.25 21.5858 15.5858 21.25 16 21.25H17.5C19.5758 21.25 21.25 19.5758 21.25 17.5Z" fill="#1C252E"/>
<path d="M1.25 17.5V15C1.25 14.5858 1.58579 14.25 2 14.25C2.41421 14.25 2.75 14.5858 2.75 15V17.5C2.75 19.5758 4.42421 21.25 6.5 21.25H9C9.41421 21.25 9.75 21.5858 9.75 22C9.75 22.4142 9.41421 22.75 9 22.75H6.5C3.59579 22.75 1.25 20.4042 1.25 17.5Z" fill="#1C252E"/>
<path d="M9.75 7C9.75 6.61561 9.65447 6.46501 9.59473 6.40527C9.53499 6.34553 9.38439 6.25 9 6.25H7C6.61561 6.25 6.46501 6.34553 6.40527 6.40527C6.34553 6.46501 6.25 6.61561 6.25 7V9C6.25 9.38439 6.34553 9.53499 6.40527 9.59473C6.46501 9.65447 6.61561 9.75 7 9.75H9C9.38439 9.75 9.53499 9.65447 9.59473 9.59473C9.65447 9.53499 9.75 9.38439 9.75 9V7ZM11.25 9C11.25 9.61561 11.0955 10.215 10.6553 10.6553C10.215 11.0955 9.61561 11.25 9 11.25H7C6.38439 11.25 5.78499 11.0955 5.34473 10.6553C4.90447 10.215 4.75 9.61561 4.75 9V7C4.75 6.38439 4.90447 5.78499 5.34473 5.34473C5.78499 4.90447 6.38439 4.75 7 4.75H9C9.61561 4.75 10.215 4.90447 10.6553 5.34473C11.0955 5.78499 11.25 6.38439 11.25 7V9Z" fill="#1C252E"/>
<path d="M17.75 7C17.75 6.61561 17.6545 6.46501 17.5947 6.40527C17.535 6.34553 17.3844 6.25 17 6.25H15C14.6156 6.25 14.465 6.34553 14.4053 6.40527C14.3455 6.46501 14.25 6.61561 14.25 7V9C14.25 9.38439 14.3455 9.53499 14.4053 9.59473C14.465 9.65447 14.6156 9.75 15 9.75H17C17.3844 9.75 17.535 9.65447 17.5947 9.59473C17.6545 9.53499 17.75 9.38439 17.75 9V7ZM19.25 9C19.25 9.61561 19.0955 10.215 18.6553 10.6553C18.215 11.0955 17.6156 11.25 17 11.25H15C14.3844 11.25 13.785 11.0955 13.3447 10.6553C12.9045 10.215 12.75 9.61561 12.75 9V7C12.75 6.38439 12.9045 5.78499 13.3447 5.34473C13.785 4.90447 14.3844 4.75 15 4.75H17C17.6156 4.75 18.215 4.90447 18.6553 5.34473C19.0955 5.78499 19.25 6.38439 19.25 7V9Z" fill="#1C252E"/>
<path d="M9.75 15C9.75 14.6156 9.65447 14.465 9.59473 14.4053C9.53499 14.3455 9.38439 14.25 9 14.25H7C6.61561 14.25 6.46501 14.3455 6.40527 14.4053C6.34553 14.465 6.25 14.6156 6.25 15V17C6.25 17.3844 6.34553 17.535 6.40527 17.5947C6.46501 17.6545 6.61561 17.75 7 17.75H9C9.38439 17.75 9.53499 17.6545 9.59473 17.5947C9.65447 17.535 9.75 17.3844 9.75 17V15ZM11.25 17C11.25 17.6156 11.0955 18.215 10.6553 18.6553C10.215 19.0955 9.61561 19.25 9 19.25H7C6.38439 19.25 5.78499 19.0955 5.34473 18.6553C4.90447 18.215 4.75 17.6156 4.75 17V15C4.75 14.3844 4.90447 13.785 5.34473 13.3447C5.78499 12.9045 6.38439 12.75 7 12.75H9C9.61561 12.75 10.215 12.9045 10.6553 13.3447C11.0955 13.785 11.25 14.3844 11.25 15V17Z" fill="#1C252E"/>
<path d="M17.75 15C17.75 14.6156 17.6545 14.465 17.5947 14.4053C17.535 14.3455 17.3844 14.25 17 14.25H15C14.6156 14.25 14.465 14.3455 14.4053 14.4053C14.3455 14.465 14.25 14.6156 14.25 15V17C14.25 17.3844 14.3455 17.535 14.4053 17.5947C14.465 17.6545 14.6156 17.75 15 17.75H17C17.3844 17.75 17.535 17.6545 17.5947 17.5947C17.6545 17.535 17.75 17.3844 17.75 17V15ZM19.25 17C19.25 17.6156 19.0955 18.215 18.6553 18.6553C18.215 19.0955 17.6156 19.25 17 19.25H15C14.3844 19.25 13.785 19.0955 13.3447 18.6553C12.9045 18.215 12.75 17.6156 12.75 17V15C12.75 14.3844 12.9045 13.785 13.3447 13.3447C13.785 12.9045 14.3844 12.75 15 12.75H17C17.6156 12.75 18.215 12.9045 18.6553 13.3447C19.0955 13.785 19.25 14.3844 19.25 15V17Z" fill="#1C252E"/>
</svg>
