<svg width="24" height="24" viewBox="0 0 24 24" fill="none" xmlns="http://www.w3.org/2000/svg">
<path d="M21.25 12C21.25 6.89137 17.1086 2.75 12 2.75C6.89137 2.75 2.75 6.89137 2.75 12C2.75 17.1086 6.89137 21.25 12 21.25C17.1086 21.25 21.25 17.1086 21.25 12ZM22.75 12C22.75 17.9371 17.9371 22.75 12 22.75C6.06294 22.75 1.25 17.9371 1.25 12C1.25 6.06294 6.06294 1.25 12 1.25C17.9371 1.25 22.75 6.06294 22.75 12Z" fill="#1C252E"/>
<path d="M12.8994 10.7604C12.8994 10.2647 12.4956 9.8602 12 9.85999C11.5042 9.85999 11.0996 10.2646 11.0996 10.7604V13.2301C11.0997 13.7259 11.5043 14.1305 12 14.1305C12.4955 14.1303 12.8993 13.7257 12.8994 13.2301V10.7604ZM14.3994 13.2301C14.3993 14.5541 13.324 15.6303 12 15.6305C10.6758 15.6305 9.59968 14.5542 9.59961 13.2301V10.7604C9.59961 9.43618 10.6758 8.35999 12 8.35999C13.324 8.3602 14.3994 9.43631 14.3994 10.7604V13.2301Z" fill="#1C252E"/>
<path d="M17.0381 12.7219C17.4509 12.754 17.7594 13.1148 17.7275 13.5276C17.4974 16.4969 15.013 18.8196 12 18.8196C8.82579 18.8196 6.25 16.2438 6.25 13.0696V10.9299C6.25 7.75572 8.82579 5.17993 12 5.17993C14.9786 5.17993 17.429 7.44535 17.7168 10.3459C17.7576 10.7581 17.4561 11.1254 17.0439 11.1663C16.6319 11.2071 16.2647 10.9063 16.2236 10.4944C16.0114 8.35498 14.2014 6.67993 12 6.67993C9.65421 6.67993 7.75 8.58415 7.75 10.9299V13.0696C7.75 15.4154 9.65421 17.3196 12 17.3196C14.2269 17.3196 16.0624 15.6029 16.2324 13.4124C16.2644 12.9994 16.6251 12.6899 17.0381 12.7219Z" fill="#1C252E"/>
</svg>
