<svg width="24" height="24" viewBox="0 0 24 24" fill="none" xmlns="http://www.w3.org/2000/svg">
<path d="M8.08594 12.1378C8.08594 9.97107 9.83332 8.2218 12 8.2218C13.0702 8.22182 14.0603 8.65478 14.7646 9.37024C15.0552 9.66544 15.0511 10.1412 14.7559 10.4318C14.4606 10.722 13.9858 10.7181 13.6953 10.423C13.2697 9.99055 12.6636 9.72182 12 9.7218C10.6627 9.7218 9.58594 10.7986 9.58594 12.1378C9.58594 12.8055 9.85103 13.3968 10.291 13.8361C10.584 14.1287 10.5844 14.6035 10.292 14.8966C9.99942 15.1897 9.52461 15.19 9.23145 14.8976C8.52144 14.1888 8.08594 13.2202 8.08594 12.1378Z" fill="#1C252E"/>
<path d="M14.3666 12.5661C14.44 12.1585 14.8301 11.8873 15.2377 11.9606C15.6453 12.034 15.9165 12.4241 15.8432 12.8317C15.5558 14.4296 14.2987 15.6893 12.7016 15.9792C12.2941 16.053 11.9035 15.7822 11.8295 15.3747C11.7557 14.9672 12.0265 14.5766 12.434 14.5026C13.4148 14.3245 14.19 13.5482 14.3666 12.5661Z" fill="#1C252E"/>
<path d="M12 4.08429C14.0978 4.08429 16.0886 4.84638 17.8018 6.20343C18.1264 6.46063 18.181 6.93247 17.9238 7.25714C17.6666 7.58171 17.1948 7.63637 16.8701 7.37921C15.3894 6.20632 13.7202 5.58429 12 5.58429C10.2882 5.58429 8.61808 6.19832 7.14943 7.36066L7.14747 7.36163C5.73373 8.47351 4.50048 10.0916 3.57032 12.137C4.49096 14.1723 5.71472 15.7802 7.11818 16.8821C7.44397 17.1379 7.50092 17.6101 7.24513 17.9359C6.98931 18.2615 6.51716 18.3176 6.19142 18.0618C4.48846 16.7246 3.07449 14.7949 2.06056 12.4329C1.97939 12.2436 1.97992 12.0293 2.06154 11.8401C3.08521 9.46926 4.50707 7.53059 6.21876 6.1839L6.542 5.93781C8.17354 4.74349 10.0463 4.08429 12 4.08429Z" fill="#1C252E"/>
<path d="M18.9978 8.39121C19.3286 8.1425 19.7985 8.20896 20.0476 8.53965C20.775 9.50607 21.4093 10.6141 21.9392 11.8395C22.0211 12.0292 22.0211 12.2445 21.9392 12.4342C19.8973 17.1645 16.2036 20.189 12.0007 20.1891C11.056 20.1891 10.1248 20.0351 9.23117 19.7369C8.83829 19.6058 8.62648 19.1815 8.75753 18.7887C8.88864 18.3958 9.31293 18.1831 9.70578 18.3141C10.4482 18.5618 11.2194 18.6891 12.0007 18.6891C15.3336 18.689 18.5192 16.3337 20.4284 12.1363C19.9697 11.1289 19.44 10.2268 18.8493 9.44199C18.6002 9.11105 18.6668 8.64032 18.9978 8.39121Z" fill="#1C252E"/>
<path d="M19.3573 3.71932C19.6502 3.42664 20.125 3.4265 20.4178 3.71932C20.7104 4.01216 20.7104 4.48703 20.4178 4.77987L4.64339 20.5543C4.35055 20.8469 3.87569 20.8469 3.58285 20.5543C3.29002 20.2615 3.29016 19.7866 3.58285 19.4937L19.3573 3.71932Z" fill="#1C252E"/>
</svg>
