<svg width="24" height="24" viewBox="0 0 24 24" fill="none" xmlns="http://www.w3.org/2000/svg">
<path d="M14.4121 12.0532C14.4121 10.7206 13.3319 9.64117 12 9.6411C10.6684 9.6411 9.58887 10.7203 9.58887 12.0532C9.58893 13.3849 10.6683 14.4643 12 14.4643C13.332 14.4643 14.4121 13.3846 14.4121 12.0532ZM15.9121 12.0532C15.9121 14.2136 14.1598 15.9643 12 15.9643C9.83982 15.9643 8.08893 14.2134 8.08887 12.0532C8.08887 9.89215 9.83963 8.1411 12 8.1411C14.16 8.14117 15.9121 9.89188 15.9121 12.0532Z" fill="#1C252E"/>
<path d="M12.0022 4.0009L12.0051 4.00188C16.2053 4.00517 19.9043 7.01952 21.9397 11.7568C22.0208 11.9456 22.0207 12.1597 21.9397 12.3486C19.9046 17.0851 16.2064 20.0992 12.0071 20.1034C12.0055 20.1034 12.0038 20.1044 12.0022 20.1044H11.9983C11.9964 20.1044 11.9944 20.1035 11.9924 20.1034C7.79349 20.0987 4.09576 17.0847 2.06079 12.3486C1.97979 12.1597 1.97968 11.9456 2.06079 11.7568C4.09607 7.01988 7.79463 4.00563 11.9944 4.00188C11.9957 4.00187 11.997 4.0009 11.9983 4.0009H12.0022ZM12.0002 5.5009C8.66562 5.50184 5.47343 7.85118 3.57056 12.0527C5.47341 16.2544 8.66551 18.6025 12.0002 18.6034C15.3349 18.6025 18.5261 16.2542 20.429 12.0527C18.5261 7.85141 15.3348 5.50184 12.0002 5.5009Z" fill="#1C252E"/>
</svg>
