<svg width="24" height="24" viewBox="0 0 24 24" fill="none" xmlns="http://www.w3.org/2000/svg">
<path d="M21.25 9C21.25 6.57397 20.7603 5.0708 19.8447 4.15527C18.9292 3.23974 17.426 2.75 15 2.75H9C6.57397 2.75 5.0708 3.23974 4.15527 4.15527C3.23974 5.0708 2.75 6.57397 2.75 9V15C2.75 17.426 3.23974 18.9292 4.15527 19.8447C5.0708 20.7603 6.57397 21.25 9 21.25H15C17.426 21.25 18.9292 20.7603 19.8447 19.8447C20.7603 18.9292 21.25 17.426 21.25 15V9ZM22.75 15C22.75 17.574 22.2397 19.5708 20.9053 20.9053C19.5708 22.2397 17.574 22.75 15 22.75H9C6.42603 22.75 4.4292 22.2397 3.09473 20.9053C1.76026 19.5708 1.25 17.574 1.25 15V9C1.25 6.42603 1.76026 4.4292 3.09473 3.09473C4.4292 1.76026 6.42603 1.25 9 1.25H15C17.574 1.25 19.5708 1.76026 20.9053 3.09473C22.2397 4.4292 22.75 6.42603 22.75 9V15Z" fill="#1C252E"/>
<path d="M9.86056 7.19958C11.7743 5.2862 14.8873 5.28826 16.8088 7.19763C18.7257 9.10269 18.7216 12.2183 16.8127 14.139L16.8108 14.14C15.5954 15.3554 13.8986 15.8036 12.3283 15.4711L10.0393 17.7513C9.84098 17.9538 9.58893 18.0811 9.3674 18.1537C9.14044 18.228 8.86504 18.2703 8.59103 18.2318V18.2338L7.39083 18.0736C6.99314 18.0221 6.65712 17.8165 6.41818 17.5736C6.17809 17.3295 5.98647 16.998 5.92892 16.6244C5.92816 16.6194 5.92763 16.6137 5.92697 16.6088L5.76681 15.4095L5.76779 15.4086C5.72804 15.1283 5.77912 14.8514 5.85177 14.6351C5.92663 14.4124 6.05198 14.1678 6.23556 13.974L8.52951 11.6791C8.20539 10.114 8.64283 8.41731 9.86056 7.19958ZM15.7522 8.26208C14.4139 6.932 12.2473 6.93421 10.9211 8.26013C9.99694 9.18429 9.71507 10.5124 10.0774 11.6898C10.1589 11.9552 10.0872 12.2444 9.89083 12.4408L7.32443 15.0062L7.30978 15.0297C7.29726 15.0519 7.28439 15.0807 7.27365 15.1127C7.26287 15.1447 7.25666 15.1727 7.25411 15.1927C7.25348 15.1977 7.25332 15.2017 7.25314 15.2045C7.25344 15.2066 7.25383 15.2092 7.25411 15.2113L7.41232 16.3988C7.41634 16.4178 7.43553 16.469 7.48751 16.5218C7.539 16.5742 7.57925 16.5843 7.58322 16.5853L7.58908 16.5863L8.78927 16.7465L8.80001 16.7484C8.79198 16.7472 8.79945 16.7491 8.82247 16.7465C8.84458 16.7439 8.87195 16.7383 8.9006 16.7289C8.92937 16.7195 8.95209 16.7082 8.96701 16.6996C8.9712 16.6971 8.97408 16.6949 8.97579 16.6937C8.97741 16.6921 8.97905 16.6905 8.98068 16.6888L11.5715 14.1088L11.6496 14.0404C11.8412 13.8963 12.0927 13.8511 12.3254 13.9242C13.4963 14.2926 14.8233 14.0063 15.7502 13.0795C17.0794 11.7401 17.0744 9.57645 15.7522 8.26208Z" fill="#1C252E"/>
<path d="M9.07311 14.8868C9.36765 14.5956 9.84246 14.5982 10.1337 14.8926L10.9842 15.753C11.2751 16.0476 11.2719 16.5224 10.9774 16.8135C10.6828 17.1044 10.208 17.102 9.91686 16.8077L9.06725 15.9473C8.77613 15.6528 8.77868 15.178 9.07311 14.8868Z" fill="#1C252E"/>
<path d="M13.4043 9.69995C13.9564 9.70018 14.4043 10.1478 14.4043 10.7C14.4043 11.2521 13.9564 11.6997 13.4043 11.7H13.3945C12.8424 11.6998 12.3945 11.2521 12.3945 10.7C12.3945 10.1478 12.8424 9.70015 13.3945 9.69995H13.4043Z" fill="#1C252E"/>
</svg>
