<svg width="24" height="24" viewBox="0 0 24 24" fill="none" xmlns="http://www.w3.org/2000/svg">
<path d="M19.25 15C19.25 13.8305 19.0954 12.2729 18.957 11.1172C18.8916 10.5707 18.4552 10.1462 17.8984 10.0947C17.3382 10.043 16.6637 9.9845 15.9443 9.93066C14.6269 9.83208 13.1736 9.75 12 9.75C10.8264 9.75 9.37306 9.83208 8.05566 9.93066C7.33632 9.9845 6.66178 10.043 6.10156 10.0947C5.54478 10.1462 5.10842 10.5707 5.04297 11.1172C4.90457 12.2729 4.75 13.8305 4.75 15C4.75 16.1695 4.90457 17.7271 5.04297 18.8828C5.10842 19.4293 5.54478 19.8538 6.10156 19.9053C7.69328 20.0523 10.1775 20.25 12 20.25C13.8225 20.25 16.3067 20.0523 17.8984 19.9053C18.4552 19.8538 18.8916 19.4293 18.957 18.8828C19.0954 17.7271 19.25 16.1695 19.25 15ZM15.25 6C15.25 4.75736 14.2426 3.75 13 3.75H11C9.75736 3.75 8.75 4.75736 8.75 6V8.37891C9.8553 8.30585 11.0134 8.25 12 8.25C13.2301 8.25 14.7271 8.33515 16.0557 8.43457C16.7856 8.48919 17.4693 8.5492 18.0361 8.60156C19.2883 8.71723 20.2956 9.68124 20.4463 10.9385C20.5855 12.1005 20.75 13.7344 20.75 15C20.75 16.2656 20.5855 17.8995 20.4463 19.0615C20.2956 20.3188 19.2883 21.2828 18.0361 21.3984C16.4429 21.5456 13.8981 21.75 12 21.75C10.1019 21.75 7.55705 21.5456 5.96387 21.3984C4.71169 21.2828 3.70437 20.3188 3.55371 19.0615C3.41455 17.8995 3.25 16.2656 3.25 15C3.25 13.7344 3.41455 12.1005 3.55371 10.9385C3.70437 9.68124 4.71169 8.71723 5.96387 8.60156C6.34662 8.56621 6.78251 8.52733 7.25 8.48926V6C7.25 3.92893 8.92893 2.25 11 2.25H13C15.0711 2.25 16.75 3.92893 16.75 6C16.75 6.41421 16.4142 6.75 16 6.75C15.5858 6.75 15.25 6.41421 15.25 6Z" fill="#1C252E"/>
<path d="M11.25 16V14C11.25 13.5858 11.5858 13.25 12 13.25C12.4142 13.25 12.75 13.5858 12.75 14V16C12.75 16.4142 12.4142 16.75 12 16.75C11.5858 16.75 11.25 16.4142 11.25 16Z" fill="#1C252E"/>
</svg>
