<svg width="24" height="24" viewBox="0 0 24 24" fill="none" xmlns="http://www.w3.org/2000/svg">
<path d="M8.55078 3.68818C11.7943 0.446276 17.0579 0.44845 20.3096 3.68916C23.5631 6.93214 23.5632 12.2177 20.3203 15.4606L20.3184 15.4616C18.1717 17.5978 15.1451 18.3294 12.4092 17.6394L8.00977 22.031L8.00879 22.03C7.73093 22.3125 7.36417 22.5039 7.01856 22.6159C6.67013 22.7288 6.26663 22.7861 5.8877 22.7321L3.70703 22.4333C3.15496 22.3565 2.66312 22.0667 2.29981 21.7019C1.93623 21.3366 1.65138 20.8466 1.56836 20.3034L1.56641 20.2927L1.2666 18.112L1.26758 18.111C1.21266 17.724 1.27953 17.3174 1.39356 16.9753C1.50846 16.6306 1.69788 16.2698 1.96192 15.9978L6.36035 11.5974C5.70212 8.94712 6.35417 6.02804 8.34278 3.90303L8.55078 3.68818ZM19.25 4.75166C16.5822 2.09287 12.267 2.09409 9.61035 4.75068L9.6084 4.75166C7.75581 6.59538 7.19389 9.25208 7.91602 11.5993C7.99768 11.8647 7.92671 12.1539 7.73047 12.3503L3.03809 17.0427L2.98438 17.1071C2.92802 17.1855 2.86523 17.3034 2.81641 17.4499C2.76754 17.5965 2.74806 17.7261 2.74707 17.82L2.75196 17.9021L2.75293 17.9079L3.05078 20.0769L3.08594 20.2146C3.13537 20.3566 3.2282 20.5085 3.36231 20.6433C3.54139 20.8232 3.74548 20.9237 3.91309 20.947L6.0918 21.2468L6.09766 21.2478C6.1969 21.2622 6.36609 21.2506 6.55567 21.1892C6.74662 21.1273 6.88021 21.0402 6.94141 20.9772L6.9502 20.9694L11.6602 16.2692L11.7383 16.2009C11.9296 16.0567 12.1805 16.012 12.4131 16.0847C14.6725 16.7913 17.2379 16.2803 19.084 14.5681L19.2607 14.3981C21.9162 11.7411 21.9155 7.40823 19.25 4.75166Z" fill="#1C252E"/>
<path d="M6.35932 16.9597C6.65221 16.6668 7.12697 16.6668 7.41987 16.9597L9.71967 19.2595C10.0126 19.5524 10.0126 20.0272 9.71967 20.3201C9.42678 20.613 8.95202 20.613 8.65912 20.3201L6.35932 18.0203C6.06643 17.7274 6.06643 17.2526 6.35932 16.9597Z" fill="#1C252E"/>
<path d="M15.25 9.5C15.25 9.08579 14.9142 8.75 14.5 8.75C14.0858 8.75 13.75 9.08579 13.75 9.5C13.75 9.91421 14.0858 10.25 14.5 10.25C14.9142 10.25 15.25 9.91421 15.25 9.5ZM16.75 9.5C16.75 10.7426 15.7426 11.75 14.5 11.75C13.2574 11.75 12.25 10.7426 12.25 9.5C12.25 8.25736 13.2574 7.25 14.5 7.25C15.7426 7.25 16.75 8.25736 16.75 9.5Z" fill="#1C252E"/>
</svg>
