<svg width="24" height="24" viewBox="0 0 24 24" fill="none" xmlns="http://www.w3.org/2000/svg">
<path d="M19.8496 14.5604V7.12C19.8496 6.70586 20.1855 6.37012 20.5996 6.37C21.0139 6.37 21.3496 6.70578 21.3496 7.12V14.5604C21.3495 15.2992 21.1105 16.0975 20.7608 16.7928C20.4108 17.4886 19.9114 18.1573 19.3184 18.6005V18.6014L15.0186 21.8114L15.0176 21.8104C14.1601 22.4541 13.0628 22.7547 12 22.7548C10.9367 22.7548 9.8382 22.4547 8.9805 21.8104L7.39065 20.62C7.05912 20.3718 6.99112 19.9018 7.23929 19.5702C7.48752 19.2387 7.95754 19.1717 8.28909 19.4198L9.87893 20.6093L9.88089 20.6102C10.433 21.0253 11.1989 21.2548 12 21.2548C12.8012 21.2547 13.5671 21.0253 14.1192 20.6102L14.1211 20.6093L18.4209 17.3993L18.5547 17.2899C18.8677 17.0153 19.1781 16.6018 19.4209 16.119C19.6985 15.5672 19.8495 15.0014 19.8496 14.5604Z" fill="#1C252E"/>
<path d="M2.66016 14.5502V7.11957C2.66026 6.32627 2.96084 5.53485 3.40723 4.89105C3.85358 4.24734 4.48992 3.68705 5.23633 3.40765L10.2363 1.52777H10.2373C10.7617 1.33193 11.4048 1.24753 12.0098 1.2475C12.6148 1.2475 13.2578 1.33193 13.7822 1.52777H13.7832L18.7734 3.39789L18.8105 3.41254C18.9937 3.49265 19.1835 3.58709 19.3662 3.69672C19.7213 3.90984 19.8361 4.37085 19.623 4.72601C19.4099 5.08097 18.9498 5.19575 18.5947 4.98285C18.4795 4.91373 18.351 4.84949 18.2168 4.79047L13.2578 2.93207V2.93304C12.9523 2.81893 12.4997 2.7475 12.0098 2.7475C11.52 2.74754 11.0681 2.81896 10.7627 2.93304L10.7617 2.93207L5.76367 4.81195L5.7627 4.81293C5.35968 4.9637 4.95149 5.29817 4.64062 5.74652C4.32974 6.19493 4.16027 6.69314 4.16016 7.11957V14.5502C4.16021 14.9912 4.31137 15.557 4.58887 16.1088C4.86633 16.6604 5.23194 17.1223 5.58887 17.3891L5.58984 17.3901L5.79004 17.5405C6.12128 17.789 6.18892 18.2589 5.94043 18.5903C5.69193 18.9216 5.22197 18.9881 4.89062 18.7397L4.69043 18.5903V18.5893C4.09805 18.1462 3.59876 17.4788 3.24902 16.7836C2.89922 16.0882 2.66021 15.2891 2.66016 14.5502Z" fill="#1C252E"/>
<path d="M21.4697 1.46973C21.7626 1.17684 22.2373 1.17684 22.5302 1.46973C22.8231 1.76262 22.8231 2.23738 22.5302 2.53028L2.53022 22.5303C2.23732 22.8232 1.76256 22.8232 1.46967 22.5303C1.17678 22.2374 1.17678 21.7626 1.46967 21.4697L21.4697 1.46973Z" fill="#1C252E"/>
</svg>
