<svg width="24" height="24" viewBox="0 0 24 24" fill="none" xmlns="http://www.w3.org/2000/svg">
<path d="M12.8994 10.7604C12.8994 10.2647 12.4956 9.8602 12 9.85999C11.5042 9.85999 11.0996 10.2646 11.0996 10.7604V13.2301C11.0997 13.7258 11.5043 14.1305 12 14.1305C12.4956 14.1303 12.8993 13.7257 12.8994 13.2301V10.7604ZM14.3994 13.2301C14.3993 14.5541 13.324 15.6303 12 15.6305C10.6758 15.6305 9.59968 14.5542 9.59961 13.2301V10.7604C9.59961 9.43618 10.6758 8.35999 12 8.35999C13.324 8.3602 14.3994 9.43631 14.3994 10.7604V13.2301Z" fill="#1C252E"/>
<path d="M17.0381 12.7219C17.4509 12.754 17.7594 13.1148 17.7275 13.5276C17.4974 16.4969 15.013 18.8196 12 18.8196C8.82579 18.8196 6.25 16.2438 6.25 13.0696V10.9299C6.25 7.75572 8.82579 5.17993 12 5.17993C14.9786 5.17993 17.429 7.44535 17.7168 10.3459C17.7576 10.7581 17.4561 11.1254 17.0439 11.1663C16.6319 11.2071 16.2647 10.9063 16.2236 10.4944C16.0114 8.35498 14.2014 6.67993 12 6.67993C9.65421 6.67993 7.75 8.58415 7.75 10.9299V13.0696C7.75 15.4154 9.65421 17.3196 12 17.3196C14.2269 17.3196 16.0624 15.6028 16.2324 13.4124C16.2644 12.9994 16.6251 12.6899 17.0381 12.7219Z" fill="#1C252E"/>
<path d="M21.25 9V7C21.25 5.67044 20.8101 4.62069 20.0947 3.90527C19.3793 3.18986 18.3296 2.75 17 2.75H15C14.5858 2.75 14.25 2.41421 14.25 2C14.25 1.58579 14.5858 1.25 15 1.25H17C18.6704 1.25 20.1207 1.81014 21.1553 2.84473C22.1899 3.87931 22.75 5.32956 22.75 7V9C22.75 9.41421 22.4142 9.75 22 9.75C21.5858 9.75 21.25 9.41421 21.25 9Z" fill="#1C252E"/>
<path d="M1.25 9V7C1.25 5.32956 1.81014 3.87931 2.84473 2.84473C3.87931 1.81014 5.32956 1.25 7 1.25H9C9.41421 1.25 9.75 1.58579 9.75 2C9.75 2.41421 9.41421 2.75 9 2.75H7C5.67044 2.75 4.62069 3.18986 3.90527 3.90527C3.18986 4.62069 2.75 5.67044 2.75 7V9C2.75 9.41421 2.41421 9.75 2 9.75C1.58579 9.75 1.25 9.41421 1.25 9Z" fill="#1C252E"/>
<path d="M21.25 17V15C21.25 14.5858 21.5858 14.25 22 14.25C22.4142 14.25 22.75 14.5858 22.75 15V17C22.75 18.6704 22.1899 20.1207 21.1553 21.1553C20.1207 22.1899 18.6704 22.75 17 22.75H15C14.5858 22.75 14.25 22.4142 14.25 22C14.25 21.5858 14.5858 21.25 15 21.25H17C18.3296 21.25 19.3793 20.8101 20.0947 20.0947C20.8101 19.3793 21.25 18.3296 21.25 17Z" fill="#1C252E"/>
<path d="M1.25 17V15C1.25 14.5858 1.58579 14.25 2 14.25C2.41421 14.25 2.75 14.5858 2.75 15V17C2.75 18.3296 3.18986 19.3793 3.90527 20.0947C4.62069 20.8101 5.67044 21.25 7 21.25H9C9.41421 21.25 9.75 21.5858 9.75 22C9.75 22.4142 9.41421 22.75 9 22.75H7C5.32956 22.75 3.87931 22.1899 2.84473 21.1553C1.81014 20.1207 1.25 18.6704 1.25 17Z" fill="#1C252E"/>
</svg>
