<svg width="24" height="24" viewBox="0 0 24 24" fill="none" xmlns="http://www.w3.org/2000/svg">
<path d="M1.25 9V6.5C1.25 3.59579 3.59579 1.25 6.5 1.25H9C9.41421 1.25 9.75 1.58579 9.75 2C9.75 2.41421 9.41421 2.75 9 2.75H6.5C4.42421 2.75 2.75 4.42421 2.75 6.5V9C2.75 9.41421 2.41421 9.75 2 9.75C1.58579 9.75 1.25 9.41421 1.25 9Z" fill="#1C252E"/>
<path d="M21.25 9V6.5C21.25 4.42421 19.5758 2.75 17.5 2.75H15C14.5858 2.75 14.25 2.41421 14.25 2C14.25 1.58579 14.5858 1.25 15 1.25H17.5C20.4042 1.25 22.75 3.59579 22.75 6.5V9C22.75 9.41421 22.4142 9.75 22 9.75C21.5858 9.75 21.25 9.41421 21.25 9Z" fill="#1C252E"/>
<path d="M21.25 17.5V16C21.25 15.5858 21.5858 15.25 22 15.25C22.4142 15.25 22.75 15.5858 22.75 16V17.5C22.75 20.4042 20.4042 22.75 17.5 22.75H16C15.5858 22.75 15.25 22.4142 15.25 22C15.25 21.5858 15.5858 21.25 16 21.25H17.5C19.5758 21.25 21.25 19.5758 21.25 17.5Z" fill="#1C252E"/>
<path d="M1.25 17.5V15C1.25 14.5858 1.58579 14.25 2 14.25C2.41421 14.25 2.75 14.5858 2.75 15V17.5C2.75 19.5758 4.42421 21.25 6.5 21.25H9C9.41421 21.25 9.75 21.5858 9.75 22C9.75 22.4142 9.41421 22.75 9 22.75H6.5C3.59579 22.75 1.25 20.4042 1.25 17.5Z" fill="#1C252E"/>
<path d="M16.25 9.5C16.25 8.61561 16.0295 8.09001 15.7197 7.78027C15.41 7.47053 14.8844 7.25 14 7.25H10C9.11561 7.25 8.59001 7.47053 8.28027 7.78027C7.97053 8.09001 7.75 8.61561 7.75 9.5V14.5C7.75 15.3844 7.97053 15.91 8.28027 16.2197C8.59001 16.5295 9.11561 16.75 10 16.75H14C14.8844 16.75 15.41 16.5295 15.7197 16.2197C16.0295 15.91 16.25 15.3844 16.25 14.5V9.5ZM17.75 14.5C17.75 15.6156 17.4705 16.59 16.7803 17.2803C16.09 17.9705 15.1156 18.25 14 18.25H10C8.88439 18.25 7.90999 17.9705 7.21973 17.2803C6.52947 16.59 6.25 15.6156 6.25 14.5V9.5C6.25 8.38439 6.52947 7.40999 7.21973 6.71973C7.90999 6.02947 8.88439 5.75 10 5.75H14C15.1156 5.75 16.09 6.02947 16.7803 6.71973C17.4705 7.40999 17.75 8.38439 17.75 9.5V14.5Z" fill="#1C252E"/>
<path d="M19 11.25C19.4142 11.25 19.75 11.5858 19.75 12C19.75 12.4142 19.4142 12.75 19 12.75H5C4.58579 12.75 4.25 12.4142 4.25 12C4.25 11.5858 4.58579 11.25 5 11.25H19Z" fill="#1C252E"/>
</svg>
