<svg width="24" height="24" viewBox="0 0 24 24" fill="none" xmlns="http://www.w3.org/2000/svg">
<path d="M19.8604 7.11963C19.8602 6.68711 19.6904 6.18578 19.3799 5.73682C19.0692 5.28765 18.6607 4.95296 18.2578 4.80225H18.2568L13.2734 2.93408V2.93506C12.9546 2.81876 12.4946 2.74759 12.0029 2.74756C11.5104 2.74756 11.0583 2.81908 10.7529 2.93311V2.93213L5.76367 4.80225H5.7627C5.35972 4.95293 4.9514 5.28758 4.64062 5.73682C4.33005 6.1858 4.16026 6.68708 4.16016 7.11963V14.5503C4.16022 14.9912 4.31136 15.5571 4.58887 16.1089C4.86633 16.6605 5.23193 17.1223 5.58887 17.3892L9.88867 20.5991L9.89062 20.6001C10.4427 21.0151 11.2087 21.2446 12.0098 21.2446C12.8109 21.2446 13.5778 21.0152 14.1299 20.6001L14.1318 20.5991L18.4316 17.3892L18.5654 17.2808C18.8784 17.0061 19.1888 16.5917 19.4316 16.1089C19.7091 15.5571 19.8603 14.9912 19.8604 14.5503V7.11963ZM21.3604 14.5503C21.3603 15.2892 21.1213 16.0883 20.7715 16.7837C20.4216 17.4793 19.9219 18.1472 19.3291 18.5903V18.5913L15.0303 21.7983L15.0312 21.7993C14.1734 22.4443 13.0736 22.7446 12.0098 22.7446C10.9467 22.7446 9.84878 22.4444 8.99121 21.8003L4.69141 18.5913V18.5903C4.09855 18.1472 3.59897 17.4793 3.24902 16.7837C2.89922 16.0883 2.66021 15.2892 2.66016 14.5503V7.11963C2.66026 6.32244 2.96052 5.52903 3.40723 4.8833C3.85389 4.23767 4.49045 3.67729 5.2373 3.39795L10.2266 1.52783H10.2275C10.7522 1.33189 11.3956 1.24756 12.0029 1.24756C12.6111 1.24758 13.2561 1.33223 13.7871 1.52588L13.793 1.52783L18.7832 3.39795L19.0576 3.51514C19.686 3.81842 20.2224 4.31827 20.6133 4.8833C21.06 5.52903 21.3602 6.32244 21.3604 7.11963V14.5503Z" fill="#1C252E"/>
<path d="M13.7002 9.15979L14.4492 9.1676C14.4351 10.5221 13.3724 11.6265 12.0234 11.6696C12.0156 11.6698 12.0078 11.6705 12 11.6705H11.8701C11.8621 11.6705 11.8537 11.6698 11.8457 11.6696C10.4953 11.6264 9.42969 10.5089 9.42969 9.15979C9.42982 7.77577 10.5554 6.65016 11.9395 6.65002C13.3236 6.65002 14.4501 7.77569 14.4502 9.15979V9.1676L13.7002 9.15979ZM10.9297 9.15979C10.9297 9.71063 11.364 10.1536 11.8936 10.1705H11.9756C12.5066 10.1536 12.9443 9.71751 12.9502 9.15198C12.9458 8.59986 12.4926 8.15002 11.9395 8.15002C11.3839 8.15016 10.9298 8.6042 10.9297 9.15979Z" fill="#1C252E"/>
<path d="M12.0029 12.4226C12.8365 12.4227 13.7097 12.6315 14.4004 13.0984L14.3994 13.0994C15.034 13.5238 15.4502 14.1571 15.4502 14.8855C15.45 15.6151 15.033 16.2502 14.3965 16.6746L14.3955 16.6736C13.7014 17.1379 12.8285 17.3474 11.9951 17.3474C11.1614 17.3474 10.288 17.1382 9.59375 16.6736C8.95741 16.2492 8.54019 15.615 8.54004 14.8855C8.54004 14.1558 8.95724 13.5209 9.59375 13.0964L9.5957 13.0955C10.2936 12.6323 11.1687 12.4226 12.0029 12.4226ZM12.0029 13.9226C11.3972 13.9226 10.8268 14.0786 10.4248 14.3455C10.1028 14.5606 10.04 14.7705 10.04 14.8855C10.0402 15.0007 10.1029 15.2112 10.4258 15.4265H10.4277C10.8233 15.6914 11.3892 15.8474 11.9951 15.8474C12.6011 15.8474 13.1669 15.6915 13.5625 15.4265H13.5645C13.8873 15.2113 13.9501 15.0007 13.9502 14.8855C13.9502 14.7704 13.8873 14.5599 13.5645 14.3445L13.5596 14.3416C13.1705 14.0787 12.6089 13.9227 12.0029 13.9226Z" fill="#1C252E"/>
</svg>
