<svg width="24" height="24" viewBox="0 0 24 24" fill="none" xmlns="http://www.w3.org/2000/svg">
<path opacity="0.6" d="M20.2102 7.82L12.5102 12.28C12.2002 12.46 11.8102 12.46 11.4902 12.28L3.79021 7.82C3.24021 7.5 3.10021 6.75 3.52021 6.28C3.81021 5.95 4.14021 5.68 4.49021 5.49L9.91021 2.49C11.0702 1.84 12.9502 1.84 14.1102 2.49L19.5302 5.49C19.8802 5.68 20.2102 5.96 20.5002 6.28C20.9002 6.75 20.7602 7.5 20.2102 7.82Z" fill="#1C252E"/>
<path d="M11.4305 14.14V20.96C11.4305 21.72 10.6605 22.22 9.98047 21.89C7.92047 20.88 4.45047 18.99 4.45047 18.99C3.23047 18.3 2.23047 16.56 2.23047 15.13V9.97C2.23047 9.18 3.06047 8.68 3.74047 9.07L10.9305 13.24C11.2305 13.43 11.4305 13.77 11.4305 14.14Z" fill="#1C252E"/>
<path d="M21.6775 15.3228C20.7875 14.4328 19.6075 13.9828 18.4375 14.0028C17.3075 14.0128 16.1775 14.4628 15.3175 15.3228C14.7175 15.9128 14.3275 16.6528 14.1375 17.4228C14.0275 17.8428 13.9875 18.2728 14.0175 18.7028V18.7528C14.0175 18.8228 14.0275 18.8828 14.0375 18.9628C14.0375 18.9628 14.0375 18.9628 14.0475 18.9728V19.0028C14.1375 19.9828 14.5575 20.9328 15.3175 21.6828C16.4775 22.8428 18.1075 23.2328 19.5775 22.8628C20.0175 22.7528 20.4475 22.5728 20.8475 22.3328C21.1475 22.1628 21.4275 21.9428 21.6775 21.6828C22.4275 20.9328 22.8575 19.9828 22.9475 18.9928C22.9575 18.9928 22.9575 18.9728 22.9575 18.9628C22.9775 18.8928 22.9775 18.8128 22.9775 18.7428C22.9775 18.7328 22.9875 18.7128 22.9875 18.6928C23.0475 17.4828 22.6075 16.2428 21.6775 15.3228ZM20.2275 20.2128C19.9375 20.5028 19.4675 20.5028 19.1675 20.2128L18.5075 19.5528L17.8275 20.2328C17.5275 20.5328 17.0575 20.5328 16.7675 20.2328C16.4675 19.9428 16.4675 19.4728 16.7675 19.1728L17.4475 18.4928L16.7875 17.8328C16.4975 17.5328 16.4975 17.0628 16.7875 16.7728C17.0875 16.4728 17.5575 16.4728 17.8575 16.7728L18.5075 17.4328L19.1375 16.7928C19.4375 16.5028 19.9075 16.5028 20.2075 16.7928C20.4975 17.0928 20.4975 17.5628 20.2075 17.8628L19.5675 18.4928L20.2275 19.1428C20.5275 19.4428 20.5275 19.9128 20.2275 20.2128Z" fill="#1C252E"/>
<path opacity="0.4" d="M20.2607 9.06981C20.9407 8.68024 21.7705 9.18036 21.7705 9.9702V15.1304C21.7705 15.221 21.7657 15.3129 21.7578 15.4057C20.9493 14.5383 19.7829 14.0005 18.5 14.0005C17.24 14.0005 16.0895 14.5198 15.2695 15.3598C14.4796 16.1698 14 17.2806 14 18.5005C14.0001 19.3403 14.2405 20.1399 14.6504 20.8198C14.7662 21.0146 14.8988 21.2007 15.0449 21.3745C14.682 21.5599 14.3351 21.7359 14.0205 21.8901C13.3406 22.2201 12.5706 21.7202 12.5703 20.9604V14.1401C12.5703 13.7701 12.7703 13.4297 13.0703 13.2397L20.2607 9.06981Z" fill="#1C252E"/>
</svg>
