<svg width="24" height="24" viewBox="0 0 24 24" fill="none" xmlns="http://www.w3.org/2000/svg">
<path opacity="0.4" d="M16.1898 2.32999H7.81976C4.17976 2.32999 2.00977 4.49999 2.00977 8.13999V16.51C2.00977 20.15 4.17976 22.32 7.81976 22.32H16.1898C19.8298 22.32 21.9998 20.15 21.9998 16.51V8.14999C21.9998 4.50999 19.8298 2.32999 16.1898 2.32999Z" fill="#1C252E"/>
<path d="M16.9292 9.49209L12.3071 12.1693C12.121 12.2774 11.8869 12.2774 11.6948 12.1693L7.07271 9.49209C6.74256 9.3 6.65852 8.84979 6.91063 8.56767C7.08471 8.36958 7.2828 8.2075 7.4929 8.09345L10.7464 6.29263C11.4427 5.90246 12.5712 5.90246 13.2675 6.29263L16.521 8.09345C16.7311 8.2075 16.9292 8.37558 17.1033 8.56767C17.3434 8.84979 17.2593 9.3 16.9292 9.49209Z" fill="#1C252E"/>
<path d="M11.6592 13.2858V17.3797C11.6592 17.8359 11.197 18.136 10.7888 17.9379C9.55227 17.3316 7.46932 16.1971 7.46932 16.1971C6.73699 15.7829 6.13672 14.7385 6.13672 13.8801V10.7827C6.13672 10.3084 6.63495 10.0083 7.04313 10.2424L11.3591 12.7456C11.5392 12.8596 11.6592 13.0637 11.6592 13.2858Z" fill="#1C252E"/>
<path d="M12.3438 13.2858V17.3797C12.3438 17.8359 12.806 18.136 13.2141 17.9379C14.4507 17.3316 16.5337 16.1971 16.5337 16.1971C17.266 15.7829 17.8663 14.7385 17.8663 13.8801V10.7827C17.8663 10.3084 17.368 10.0083 16.9598 10.2424L12.6439 12.7456C12.4638 12.8596 12.3438 13.0637 12.3438 13.2858Z" fill="#1C252E"/>
</svg>
