<svg width="24" height="24" viewBox="0 0 24 24" fill="none" xmlns="http://www.w3.org/2000/svg">
<path opacity="0.6" d="M20.2102 7.82L12.5102 12.28C12.2002 12.46 11.8102 12.46 11.4902 12.28L3.79021 7.82C3.24021 7.5 3.10021 6.75 3.52021 6.28C3.81021 5.95 4.14021 5.68 4.49021 5.49L9.91021 2.49C11.0702 1.84 12.9502 1.84 14.1102 2.49L19.5302 5.49C19.8802 5.68 20.2102 5.96 20.5002 6.28C20.9002 6.75 20.7602 7.5 20.2102 7.82Z" fill="#1C252E"/>
<path d="M11.4305 14.14V20.96C11.4305 21.72 10.6605 22.22 9.98047 21.89C7.92047 20.88 4.45047 18.99 4.45047 18.99C3.23047 18.3 2.23047 16.56 2.23047 15.13V9.97C2.23047 9.18 3.06047 8.68 3.74047 9.07L10.9305 13.24C11.2305 13.43 11.4305 13.77 11.4305 14.14Z" fill="#1C252E"/>
<path d="M21.98 15.65C21.16 14.64 19.91 14 18.5 14C17.44 14 16.46 14.37 15.69 14.99C14.65 15.81 14 17.08 14 18.5C14 19.34 14.24 20.14 14.65 20.82C14.92 21.27 15.26 21.66 15.66 21.98H15.67C16.44 22.62 17.43 23 18.5 23C19.64 23 20.67 22.58 21.46 21.88C21.81 21.58 22.11 21.22 22.35 20.82C22.76 20.14 23 19.34 23 18.5C23 17.42 22.62 16.42 21.98 15.65ZM20.76 17.94L18.36 20.16C18.22 20.29 18.03 20.36 17.85 20.36C17.66 20.36 17.47 20.29 17.32 20.14L16.21 19.03C15.92 18.74 15.92 18.26 16.21 17.97C16.5 17.68 16.98 17.68 17.27 17.97L17.87 18.57L19.74 16.84C20.04 16.56 20.52 16.58 20.8 16.88C21.09 17.19 21.07 17.66 20.76 17.94Z" fill="#1C252E"/>
<path opacity="0.4" d="M20.2607 9.06981C20.9407 8.68024 21.7705 9.18036 21.7705 9.9702V15.1304C21.7705 15.221 21.7657 15.3129 21.7578 15.4057C20.9493 14.5383 19.7829 14.0005 18.5 14.0005C17.24 14.0005 16.0895 14.5198 15.2695 15.3598C14.4796 16.1698 14 17.2806 14 18.5005C14.0001 19.3403 14.2405 20.1399 14.6504 20.8198C14.7662 21.0146 14.8988 21.2007 15.0449 21.3745C14.682 21.5599 14.3351 21.7359 14.0205 21.8901C13.3406 22.2201 12.5706 21.7202 12.5703 20.9604V14.1401C12.5703 13.7701 12.7703 13.4297 13.0703 13.2397L20.2607 9.06981Z" fill="#1C252E"/>
</svg>
