<svg width="24" height="24" viewBox="0 0 24 24" fill="none" xmlns="http://www.w3.org/2000/svg">
<path opacity="0.6" d="M20.2102 7.82L12.5102 12.28C12.2002 12.46 11.8102 12.46 11.4902 12.28L3.79021 7.82C3.24021 7.5 3.10021 6.75 3.52021 6.28C3.81021 5.95 4.14021 5.68 4.49021 5.49L9.91021 2.49C11.0702 1.84 12.9502 1.84 14.1102 2.49L19.5302 5.49C19.8802 5.68 20.2102 5.96 20.5002 6.28C20.9002 6.75 20.7602 7.5 20.2102 7.82Z" fill="#1C252E"/>
<path d="M11.4305 14.14V20.96C11.4305 21.72 10.6605 22.22 9.98047 21.89C7.92047 20.88 4.45047 18.99 4.45047 18.99C3.23047 18.3 2.23047 16.56 2.23047 15.13V9.97C2.23047 9.18 3.06047 8.68 3.74047 9.07L10.9305 13.24C11.2305 13.43 11.4305 13.77 11.4305 14.14Z" fill="#1C252E"/>
<path d="M20.5645 18.2452C20.5645 16.8921 19.4673 15.7951 18.1143 15.795C16.7612 15.795 15.6641 16.8921 15.6641 18.2452C15.6642 19.5982 16.7612 20.6954 18.1143 20.6954C19.4672 20.6953 20.5644 19.5981 20.5645 18.2452ZM22.0645 18.2452C22.0644 19.0663 21.8126 19.8282 21.3838 20.46C21.4048 20.4769 21.4249 20.4952 21.4443 20.5147L22.4443 21.5147C22.7372 21.8076 22.7372 22.2824 22.4443 22.5753C22.1514 22.8681 21.6767 22.8681 21.3838 22.5753L20.3838 21.5753C20.3643 21.5558 20.346 21.5357 20.3291 21.5147C19.6973 21.9435 18.9354 22.1953 18.1143 22.1954C15.9328 22.1954 14.1642 20.4266 14.1641 18.2452C14.1641 16.0637 15.9327 14.295 18.1143 14.295C20.2957 14.2951 22.0645 16.0637 22.0645 18.2452Z" fill="#1C252E"/>
<path opacity="0.4" d="M20.2607 9.06981C20.9407 8.68024 21.7705 9.18036 21.7705 9.9702V15.1304C21.7705 15.5154 21.6953 15.9222 21.5654 16.3257C20.8906 15.1147 19.5979 14.2955 18.1133 14.2954C15.9318 14.2954 14.1631 16.0641 14.1631 18.2456C14.1633 19.4021 14.6599 20.4431 15.4521 21.1655C14.9429 21.4283 14.4512 21.679 14.0205 21.8901C13.3406 22.2201 12.5706 21.7202 12.5703 20.9604V14.1401C12.5703 13.7701 12.7703 13.4297 13.0703 13.2397L20.2607 9.06981Z" fill="#1C252E"/>
</svg>
