<svg width="24" height="24" viewBox="0 0 24 24" fill="none" xmlns="http://www.w3.org/2000/svg">
<path opacity="0.4" d="M12.5703 14.14V20.96C12.5703 21.72 13.3403 22.22 14.0203 21.89C16.0803 20.88 19.5503 18.99 19.5503 18.99C20.7703 18.3 21.7703 16.56 21.7703 15.13V9.97C21.7703 9.18 20.9403 8.68 20.2603 9.07L13.0703 13.24C12.7703 13.43 12.5703 13.77 12.5703 14.14Z" fill="#1C252E"/>
<path opacity="0.6" d="M20.2102 7.82L12.5102 12.28C12.2002 12.46 11.8102 12.46 11.4902 12.28L3.79021 7.82C3.24021 7.5 3.10021 6.75 3.52021 6.28C3.81021 5.95 4.14021 5.68 4.49021 5.49L9.91021 2.49C11.0702 1.84 12.9502 1.84 14.1102 2.49L19.5302 5.49C19.8802 5.68 20.2102 5.96 20.5002 6.28C20.9002 6.75 20.7602 7.5 20.2102 7.82Z" fill="#1C252E"/>
<path d="M17.7412 9.24609L16.2764 10.0938L6.41211 4.4297L7.96866 3.57263L17.3693 8.92996C17.4693 8.98996 17.6812 9.15609 17.7412 9.24609Z" fill="#1C252E"/>
<path d="M17.75 10.5352V12.9293C17.75 13.3393 17.41 13.6793 17 13.6793C16.59 13.6793 16.25 13.3393 16.25 12.9293V11.3984L17.75 10.5352Z" fill="#1C252E"/>
<path d="M11.4305 14.14V20.96C11.4305 21.72 10.6605 22.22 9.98047 21.89C7.92047 20.88 4.45047 18.99 4.45047 18.99C3.23047 18.3 2.23047 16.56 2.23047 15.13V9.97C2.23047 9.18 3.06047 8.68 3.74047 9.07L10.9305 13.24C11.2305 13.43 11.4305 13.77 11.4305 14.14Z" fill="#1C252E"/>
</svg>
