<svg width="24" height="24" viewBox="0 0 24 24" fill="none" xmlns="http://www.w3.org/2000/svg">
<path d="M15.0002 22.75C14.7302 22.75 14.4802 22.6 14.3502 22.37C14.2202 22.13 14.2202 21.85 14.3602 21.61L15.4102 19.86C15.6202 19.51 16.0802 19.39 16.4402 19.6C16.8002 19.81 16.9102 20.27 16.7002 20.63L16.4302 21.08C19.1902 20.43 21.2602 17.95 21.2602 14.99C21.2602 14.58 21.6002 14.24 22.0102 14.24C22.4202 14.24 22.7602 14.58 22.7602 14.99C22.7502 19.27 19.2702 22.75 15.0002 22.75Z" fill="#1C252E"/>
<path d="M2 9.75C1.59 9.75 1.25 9.41 1.25 9C1.25 4.73 4.73 1.25 9 1.25C9.27 1.25 9.52 1.4 9.65 1.63C9.78 1.87 9.78 2.15 9.64 2.39L8.59 4.14C8.38 4.49 7.92 4.61 7.56 4.39C7.21 4.18 7.09 3.72 7.31 3.36L7.58 2.91C4.81 3.56 2.75 6.04 2.75 9C2.75 9.41 2.41 9.75 2 9.75Z" fill="#1C252E"/>
<path d="M16.9292 9.49209L12.3071 12.1693C12.121 12.2774 11.8869 12.2774 11.6948 12.1693L7.07271 9.49209C6.74256 9.3 6.65852 8.84979 6.91063 8.56767C7.08471 8.36958 7.2828 8.2075 7.4929 8.09345L10.7464 6.29263C11.4427 5.90246 12.5712 5.90246 13.2675 6.29263L16.521 8.09345C16.7311 8.2075 16.9292 8.37558 17.1033 8.56767C17.3434 8.84979 17.2593 9.3 16.9292 9.49209Z" fill="#1C252E"/>
<path opacity="0.4" d="M11.6592 13.2858V17.3797C11.6592 17.8359 11.197 18.136 10.7888 17.9379C9.55227 17.3316 7.46932 16.1971 7.46932 16.1971C6.73699 15.7829 6.13672 14.7385 6.13672 13.8801V10.7827C6.13672 10.3084 6.63495 10.0083 7.04313 10.2424L11.3591 12.7456C11.5392 12.8596 11.6592 13.0637 11.6592 13.2858Z" fill="#1C252E"/>
<path opacity="0.6" d="M12.3438 13.2858V17.3797C12.3438 17.8359 12.806 18.136 13.2141 17.9379C14.4507 17.3316 16.5337 16.1971 16.5337 16.1971C17.266 15.7829 17.8663 14.7385 17.8663 13.8801V10.7827C17.8663 10.3084 17.368 10.0083 16.9598 10.2424L12.6439 12.7456C12.4638 12.8596 12.3438 13.0637 12.3438 13.2858Z" fill="#1C252E"/>
</svg>
