<svg width="24" height="24" viewBox="0 0 24 24" fill="none" xmlns="http://www.w3.org/2000/svg">
<path opacity="0.4" d="M22 9.75C21.59 9.75 21.25 9.41 21.25 9V7C21.25 4.42 19.58 2.75 17 2.75H7C4.42 2.75 2.75 4.42 2.75 7V9C2.75 9.41 2.41 9.75 2 9.75C1.59 9.75 1.25 9.41 1.25 9V7C1.25 3.56 3.56 1.25 7 1.25H17C20.44 1.25 22.75 3.56 22.75 7V9C22.75 9.41 22.41 9.75 22 9.75Z" fill="#1C252E"/>
<path opacity="0.4" d="M17 22.75H7C3.56 22.75 1.25 20.44 1.25 17V15C1.25 14.59 1.59 14.25 2 14.25C2.41 14.25 2.75 14.59 2.75 15V17C2.75 19.58 4.42 21.25 7 21.25H17C19.58 21.25 21.25 19.58 21.25 17V15C21.25 14.59 21.59 14.25 22 14.25C22.41 14.25 22.75 14.59 22.75 15V17C22.75 20.44 20.44 22.75 17 22.75Z" fill="#1C252E"/>
<path d="M16.9292 9.49209L12.3071 12.1693C12.121 12.2774 11.8869 12.2774 11.6948 12.1693L7.07271 9.49209C6.74256 9.3 6.65852 8.84979 6.91063 8.56767C7.08471 8.36958 7.2828 8.2075 7.4929 8.09345L10.7464 6.29263C11.4427 5.90246 12.5712 5.90246 13.2675 6.29263L16.521 8.09345C16.7311 8.2075 16.9292 8.37558 17.1033 8.56767C17.3434 8.84979 17.2593 9.3 16.9292 9.49209Z" fill="#1C252E"/>
<path d="M11.6592 13.2858V17.3797C11.6592 17.8359 11.197 18.136 10.7888 17.9379C9.55227 17.3316 7.46932 16.1971 7.46932 16.1971C6.73699 15.7829 6.13672 14.7385 6.13672 13.8801V10.7827C6.13672 10.3084 6.63495 10.0083 7.04313 10.2424L11.3591 12.7456C11.5392 12.8596 11.6592 13.0637 11.6592 13.2858Z" fill="#1C252E"/>
<path d="M12.3418 13.2858V17.3797C12.3418 17.8359 12.804 18.136 13.2122 17.9379C14.4488 17.3316 16.5317 16.1971 16.5317 16.1971C17.264 15.7829 17.8643 14.7385 17.8643 13.8801V10.7827C17.8643 10.3084 17.3661 10.0083 16.9579 10.2424L12.6419 12.7456C12.4619 12.8596 12.3418 13.0637 12.3418 13.2858Z" fill="#1C252E"/>
</svg>
