<svg width="24" height="24" viewBox="0 0 24 24" fill="none" xmlns="http://www.w3.org/2000/svg">
<path d="M22 7.81001V16.19C22 19.4 19.4 22 16.19 22H7.81C4.6 22 2 19.4 2 16.19V7.81001C2 5.32001 3.02 3.51001 4.83 2.63001C5.49 2.31001 6.25 2.81001 6.25 3.54001V12.42C6.25 13.61 6.71 14.56 7.54 15.04C8.38 15.51 9.44 15.41 10.52 14.76L11.82 13.98C11.9 13.94 12.1 13.94 12.16 13.97L13.48 14.76C14.2 15.19 14.82 15.33 15.32 15.33C15.84 15.33 16.24 15.17 16.48 15.03C17.29 14.56 17.75 13.61 17.75 12.42V3.54001C17.75 2.81001 18.52 2.31001 19.17 2.63001C20.98 3.51001 22 5.32001 22 7.81001Z" fill="#1C252E"/>
<path d="M15.25 2C15.8 2 16.25 2.45 16.25 3V12.42C16.25 13.06 16.06 13.54 15.73 13.73C15.39 13.93 14.85 13.83 14.25 13.47L12.93 12.68C12.42 12.37 11.58 12.37 11.07 12.68L9.75 13.47C9.15 13.83 8.61 13.92 8.27 13.73C7.94 13.54 7.75 13.06 7.75 12.42V3C7.75 2.45 8.2 2 8.75 2H15.25Z" fill="#1C252E"/>
</svg>
