<svg width="24" height="24" viewBox="0 0 24 24" fill="none" xmlns="http://www.w3.org/2000/svg">
<path d="M13.5991 14.51L13.0691 13.98L13.5691 13.48C13.8591 13.19 13.8591 12.71 13.5691 12.42C13.2791 12.13 12.7991 12.13 12.5091 12.42L12.0091 12.92L11.4791 12.39C11.1891 12.1 10.7091 12.1 10.4191 12.39C10.1291 12.68 10.1291 13.16 10.4191 13.45L10.9491 13.98L10.3991 14.53C10.1091 14.82 10.1091 15.3 10.3991 15.59C10.5491 15.74 10.7391 15.81 10.9291 15.81C11.1191 15.81 11.3091 15.74 11.4591 15.59L12.0091 15.04L12.5391 15.57C12.6891 15.72 12.8791 15.79 13.0691 15.79C13.2591 15.79 13.4491 15.72 13.5991 15.57C13.8891 15.28 13.8891 14.81 13.5991 14.51Z" fill="#1C252E"/>
<path d="M21.0891 6.97999C20.2391 6.03999 18.8291 5.56999 16.7591 5.56999H16.5191V5.52999C16.5191 3.84999 16.5191 1.76999 12.7591 1.76999H11.2391C7.47906 1.76999 7.47906 3.84999 7.47906 5.52999V5.56999H7.23906C5.16906 5.56999 3.74906 6.03999 2.90906 6.97999C1.91906 8.08999 1.94906 9.55999 2.04906 10.57L2.05906 10.64L2.12814 11.446C2.14134 11.5999 2.22488 11.7392 2.3546 11.8231C2.63829 12.0067 2.94012 12.1995 3.22906 12.36C3.36906 12.45 3.51906 12.53 3.66906 12.61C4.79906 13.23 6.00906 13.72 7.24906 14.06C7.27906 16.65 9.39906 18.75 11.9991 18.75C14.6191 18.75 16.7491 16.62 16.7491 14V13.96C18.0091 13.58 19.2191 13.05 20.3491 12.39C20.4091 12.36 20.4491 12.33 20.4991 12.3C20.8939 12.0854 21.3035 11.8045 21.6772 11.5395C21.7931 11.4573 21.868 11.3293 21.8837 11.1881L21.8991 11.05L21.9491 10.58C21.9591 10.52 21.9591 10.47 21.9691 10.4C22.0491 9.39999 22.0291 8.01999 21.0891 6.97999ZM8.90906 5.52999C8.90906 3.82999 8.90906 3.18999 11.2391 3.18999H12.7591C15.0891 3.18999 15.0891 3.82999 15.0891 5.52999V5.56999H8.90906V5.52999ZM11.9991 17.25C10.3491 17.25 8.97906 16.01 8.77906 14.41C8.75906 14.28 8.74906 14.14 8.74906 14C8.74906 12.21 10.2091 10.75 11.9991 10.75C13.7891 10.75 15.2491 12.21 15.2491 14C15.2491 14.12 15.2391 14.23 15.2291 14.34V14.35C15.0491 15.98 13.6691 17.25 11.9991 17.25Z" fill="#1C252E"/>
<path d="M21.0416 13.7311C21.2903 13.5929 21.6129 13.7931 21.587 14.0765L21.2316 17.9611C21.0216 19.9611 20.2016 22.0011 15.8016 22.0011H8.18156C3.78156 22.0011 2.96156 19.9611 2.76156 17.9711L2.41569 14.2678C2.38884 13.9802 2.69635 13.786 2.95156 13.9211C3.73156 14.3511 4.54156 14.7311 5.37156 15.0311C5.68156 15.1411 5.90156 15.4011 5.99156 15.7211C6.74156 18.3211 9.16156 20.2511 12.0016 20.2511C14.8916 20.2511 17.3316 18.2811 18.0416 15.5811C18.1216 15.2611 18.3416 15.0011 18.6516 14.8811C19.4916 14.5511 20.2916 14.1611 21.0416 13.7311Z" fill="#1C252E"/>
</svg>
