<svg width="24" height="24" viewBox="0 0 24 24" fill="none" xmlns="http://www.w3.org/2000/svg">
<path d="M13.89 2.88002L9.19999 2.14002C5.28999 1.53002 3.47999 2.85002 2.85999 6.76002L2.11999 11.45C1.71999 14.01 2.13999 15.67 3.58999 16.68C4.34999 17.22 5.38999 17.58 6.73999 17.79L11.43 18.53C15.34 19.14 17.15 17.82 17.77 13.91L18.5 9.22002C18.62 8.45002 18.67 7.76002 18.63 7.15002C18.5 4.65002 17.03 3.37002 13.89 2.88002ZM8.23999 9.35002C7.06999 9.35002 6.11999 8.40002 6.11999 7.24002C6.11999 6.07002 7.06999 5.12002 8.23999 5.12002C9.39999 5.12002 10.35 6.07002 10.35 7.24002C10.35 8.40002 9.39999 9.35002 8.23999 9.35002Z" fill="#1C252E"/>
<path d="M20.5006 13.47L19.0006 17.98C17.7506 21.74 15.7506 22.74 11.9906 21.49L7.48063 19.99C6.07063 19.52 5.05063 18.94 4.39062 18.21C5.02062 18.46 5.75063 18.65 6.58063 18.78L11.2806 19.52C11.9206 19.62 12.5206 19.67 13.0806 19.67C16.3806 19.67 18.1506 17.89 18.7606 14.06L19.4906 9.37C19.5906 8.79 19.6306 8.28 19.6306 7.81C21.1506 9.06 21.3706 10.84 20.5006 13.47Z" fill="#1C252E"/>
</svg>
