<svg width="24" height="24" viewBox="0 0 24 24" fill="none" xmlns="http://www.w3.org/2000/svg">
<path d="M21.0891 6.97999C20.2391 6.03999 18.8291 5.56999 16.7591 5.56999H16.5191V5.52999C16.5191 3.84999 16.5191 1.76999 12.7591 1.76999H11.2391C7.47906 1.76999 7.47906 3.84999 7.47906 5.52999V5.56999H7.23906C5.16906 5.56999 3.74906 6.03999 2.90906 6.97999C1.91906 8.08999 1.94906 9.55999 2.04906 10.57L2.05906 10.64L2.12814 11.446C2.14134 11.5999 2.22488 11.7392 2.3546 11.8231C2.63829 12.0067 2.94012 12.1995 3.22906 12.36C3.36906 12.45 3.51906 12.53 3.66906 12.61C4.79906 13.23 6.00906 13.72 7.24906 14.06C7.27906 16.65 9.39906 18.75 11.9991 18.75C14.6191 18.75 16.7491 16.62 16.7491 14V13.96C18.0091 13.58 19.2191 13.05 20.3491 12.39C20.4091 12.36 20.4491 12.33 20.4991 12.3C20.8937 12.0855 21.303 11.8048 21.6766 11.5399C21.7929 11.4575 21.8678 11.329 21.8832 11.1872L21.9491 10.58C21.9591 10.52 21.9591 10.47 21.9691 10.4C22.0491 9.39999 22.0291 8.01999 21.0891 6.97999ZM8.90906 5.52999C8.90906 3.82999 8.90906 3.18999 11.2391 3.18999H12.7591C15.0891 3.18999 15.0891 3.82999 15.0891 5.52999V5.56999H8.90906V5.52999ZM11.9991 17.25C10.3491 17.25 8.97906 16.01 8.77906 14.41C8.75906 14.28 8.74906 14.14 8.74906 14C8.74906 12.21 10.2091 10.75 11.9991 10.75C13.7891 10.75 15.2491 12.21 15.2491 14C15.2491 14.12 15.2391 14.23 15.2291 14.34V14.35C15.0491 15.98 13.6691 17.25 11.9991 17.25Z" fill="#1C252E"/>
<path d="M11.4309 16.03C11.2409 16.03 11.0509 15.96 10.9009 15.81L9.91086 14.83C9.62086 14.54 9.62086 14.06 9.91086 13.77C10.2009 13.48 10.6809 13.48 10.9709 13.77L11.4509 14.25L13.0609 12.77C13.3609 12.49 13.8409 12.51 14.1209 12.81C14.4009 13.11 14.3809 13.59 14.0809 13.87L11.9509 15.84C11.7909 15.96 11.6109 16.03 11.4309 16.03Z" fill="#1C252E"/>
<path d="M21.0416 13.7311C21.2903 13.5929 21.6129 13.7931 21.587 14.0765L21.2316 17.9611C21.0216 19.9611 20.2016 22.0011 15.8016 22.0011H8.18156C3.78156 22.0011 2.96156 19.9611 2.76156 17.9711L2.41569 14.2678C2.38884 13.9802 2.69635 13.786 2.95156 13.9211C3.73156 14.3511 4.54156 14.7311 5.37156 15.0311C5.68156 15.1411 5.90156 15.4011 5.99156 15.7211C6.74156 18.3211 9.16156 20.2511 12.0016 20.2511C14.8916 20.2511 17.3316 18.2811 18.0416 15.5811C18.1216 15.2611 18.3416 15.0011 18.6516 14.8811C19.4916 14.5511 20.2916 14.1611 21.0416 13.7311Z" fill="#1C252E"/>
</svg>
