<svg width="24" height="24" viewBox="0 0 24 24" fill="none" xmlns="http://www.w3.org/2000/svg">
<path d="M11.1307 15.88C10.8807 15.88 10.6307 15.75 10.4907 15.52C10.2807 15.17 10.3907 14.7 10.7507 14.49L11.6407 13.96V12.88C11.6407 12.47 11.9807 12.13 12.3907 12.13C12.8007 12.13 13.1407 12.47 13.1407 12.88V14.38C13.1407 14.64 13.0007 14.89 12.7807 15.02L11.5307 15.77C11.3907 15.84 11.2607 15.88 11.1307 15.88Z" fill="#1C252E"/>
<path d="M21.0891 6.97999C20.2391 6.03999 18.8291 5.56999 16.7591 5.56999H16.5191V5.52999C16.5191 3.84999 16.5191 1.76999 12.7591 1.76999H11.2391C7.47906 1.76999 7.47906 3.84999 7.47906 5.52999V5.56999H7.23906C5.16906 5.56999 3.74906 6.03999 2.90906 6.97999C1.91906 8.08999 1.94906 9.55999 2.04906 10.57L2.05906 10.64L2.12814 11.446C2.14134 11.5999 2.22488 11.7392 2.3546 11.8231C2.63829 12.0067 2.94012 12.1995 3.22906 12.36C3.36906 12.45 3.51906 12.53 3.66906 12.61C4.79906 13.23 6.00906 13.72 7.24906 14.06C7.27906 16.65 9.39906 18.75 11.9991 18.75C14.6191 18.75 16.7491 16.62 16.7491 14V13.96C18.0091 13.58 19.2191 13.05 20.3491 12.39C20.4091 12.36 20.4491 12.33 20.4991 12.3C20.8939 12.0854 21.3035 11.8045 21.6772 11.5395C21.7931 11.4573 21.868 11.3293 21.8837 11.1881L21.8991 11.05L21.9491 10.58C21.9591 10.52 21.9591 10.47 21.9691 10.4C22.0491 9.39999 22.0291 8.01999 21.0891 6.97999ZM8.90906 5.52999C8.90906 3.82999 8.90906 3.18999 11.2391 3.18999H12.7591C15.0891 3.18999 15.0891 3.82999 15.0891 5.52999V5.56999H8.90906V5.52999ZM11.9991 17.25C10.3491 17.25 8.97906 16.01 8.77906 14.41C8.75906 14.28 8.74906 14.14 8.74906 14C8.74906 12.21 10.2091 10.75 11.9991 10.75C13.7891 10.75 15.2491 12.21 15.2491 14C15.2491 14.12 15.2391 14.23 15.2291 14.34V14.35C15.0491 15.98 13.6691 17.25 11.9991 17.25Z" fill="#1C252E"/>
<path d="M21.0396 13.73C21.2883 13.5918 21.611 13.792 21.5851 14.0754L21.2296 17.96C21.0196 19.96 20.1996 22 15.7996 22H8.17961C3.77961 22 2.95961 19.96 2.75961 17.97L2.41374 14.2667C2.38689 13.9792 2.6944 13.7849 2.94961 13.92C3.72961 14.35 4.53961 14.73 5.36961 15.03C5.67961 15.14 5.89961 15.4 5.98961 15.72C6.73961 18.32 9.15961 20.25 11.9996 20.25C14.8896 20.25 17.3296 18.28 18.0396 15.58C18.1196 15.26 18.3396 15 18.6496 14.88C19.4896 14.55 20.2896 14.16 21.0396 13.73Z" fill="#1C252E"/>
</svg>
