<svg width="24" height="24" viewBox="0 0 24 24" fill="none" xmlns="http://www.w3.org/2000/svg">
<path opacity="0.4" d="M19 8C20.6569 8 22 6.65685 22 5C22 3.34315 20.6569 2 19 2C17.3431 2 16 3.34315 16 5C16 6.65685 17.3431 8 19 8Z" stroke="#1C252E" stroke-width="1.5" stroke-linecap="round" stroke-linejoin="round"/>
<path d="M14 2H9C4 2 2 4 2 9V15C2 20 4 22 9 22H15C20 22 22 20 22 15V10" stroke="#1C252E" stroke-width="1.5" stroke-linecap="round" stroke-linejoin="round"/>
<path opacity="0.4" d="M9.8157 17.8C9.75897 17.8 9.70518 17.7737 9.66874 17.7281C9.11756 17.0393 8.55949 16.5212 8.06714 16.0641C7.21558 15.2734 6.54297 14.6489 6.54297 13.6751C6.54297 13.1737 6.71264 12.7063 7.02072 12.3589C7.34038 11.9985 7.78363 11.8 8.26882 11.8C8.80954 11.8 9.28186 12.0695 9.63472 12.5794C9.70669 12.6833 9.76661 12.7872 9.8157 12.8832C9.86477 12.7872 9.92471 12.6833 9.99667 12.5794C10.3495 12.0695 10.8219 11.8 11.3626 11.8C11.8478 11.8 12.291 11.9985 12.6107 12.3589C12.9188 12.7063 13.0884 13.1737 13.0884 13.6751C13.0884 14.6489 12.4158 15.2734 11.5643 16.064C11.0719 16.5212 10.5138 17.0393 9.96265 17.7281C9.92621 17.7737 9.87242 17.8 9.8157 17.8Z" stroke="#1C252E" stroke-width="1.5"/>
</svg>
