<svg width="24" height="24" viewBox="0 0 24 24" fill="none" xmlns="http://www.w3.org/2000/svg">
<path d="M8.29938 18.0401V16.8801C5.99938 15.4901 4.10938 12.7801 4.10938 9.90005C4.10938 4.95005 8.65938 1.07005 13.7994 2.19005C16.0594 2.69005 18.0394 4.19005 19.0694 6.26005C21.1594 10.4601 18.9594 14.9201 15.7294 16.8701V18.0301C15.7294 18.3201 15.8394 18.9901 14.7694 18.9901H9.25938C8.15938 19.0001 8.29938 18.5701 8.29938 18.0401Z" stroke="#1C252E" stroke-width="1.5" stroke-linecap="round" stroke-linejoin="round"/>
<path opacity="0.4" d="M10 9C10 7.89543 10.8985 7 12.0031 7C13.1043 7 14 7.89269 14 8.99388V9.20543C14 9.99883 13.5517 10.7241 12.8421 11.0789C12.326 11.337 12 11.8645 12 12.4415V12.5M12 14.4375V14.5" stroke="#1C252E" stroke-width="1.5" stroke-linecap="round"/>
<path opacity="0.4" d="M8.5 22C10.79 21.35 13.21 21.35 15.5 22" stroke="#1C252E" stroke-width="1.5" stroke-linecap="round" stroke-linejoin="round"/>
</svg>
