<svg width="24" height="24" viewBox="0 0 24 24" fill="none" xmlns="http://www.w3.org/2000/svg">
<path d="M2.24994 11V6.81054L1.53022 7.53027C1.23732 7.82316 0.762563 7.82316 0.46967 7.53027C0.176777 7.23738 0.176777 6.76261 0.46967 6.46972L2.46967 4.46972L2.52631 4.41796C2.82089 4.17765 3.25561 4.19512 3.53022 4.46972L5.53022 6.46972C5.82311 6.76261 5.82311 7.23738 5.53022 7.53027C5.23732 7.82316 4.76256 7.82316 4.46967 7.53027L3.74994 6.81054V11C3.74994 12.8844 4.22048 14.16 5.03022 14.9697C5.83996 15.7795 7.11555 16.25 8.99994 16.25H14.9999C16.8843 16.25 18.1599 15.7795 18.9697 14.9697C19.7794 14.16 20.2499 12.8844 20.2499 11V6.81054L19.5302 7.53027C19.2373 7.82316 18.7626 7.82316 18.4697 7.53027C18.1768 7.23738 18.1768 6.76261 18.4697 6.46972L20.4697 4.46972L20.5263 4.41796C20.8209 4.17765 21.2556 4.19512 21.5302 4.46972L23.5302 6.46972C23.8231 6.76261 23.8231 7.23738 23.5302 7.53027C23.2373 7.82316 22.7626 7.82316 22.4697 7.53027L21.7499 6.81054V11C21.7499 13.1156 21.2205 14.84 20.0302 16.0303C18.84 17.2205 17.1156 17.75 14.9999 17.75H8.99994C6.88434 17.75 5.15993 17.2205 3.96967 16.0303C2.77941 14.84 2.24994 13.1156 2.24994 11Z" fill="#1C252E"/>
<path d="M11.2489 22V20.75H8.99892C8.5848 20.7499 8.24892 20.4142 8.24892 20C8.24892 19.5859 8.5848 19.2501 8.99892 19.25H11.2489V3.81056L9.22939 5.83009C8.9365 6.12299 8.46174 6.12299 8.16884 5.83009C7.87604 5.53719 7.87598 5.06241 8.16884 4.76955L11.4686 1.46974C11.7615 1.17688 12.2363 1.17695 12.5292 1.46974L15.829 4.76955C16.1219 5.06244 16.1219 5.5372 15.829 5.83009C15.5361 6.12288 15.0613 6.12295 14.7685 5.83009L12.7489 3.81056V19.25H14.9989C15.4131 19.25 15.7489 19.5858 15.7489 20C15.7489 20.4142 15.4131 20.75 14.9989 20.75H12.7489V22C12.7489 22.4142 12.4131 22.75 11.9989 22.75C11.5848 22.7499 11.2489 22.4142 11.2489 22Z" fill="#1C252E"/>
</svg>
