<svg width="24" height="24" viewBox="0 0 24 24" fill="none" xmlns="http://www.w3.org/2000/svg">
<path d="M21.7499 12C21.7499 12.4142 21.4142 12.75 20.9999 12.75C20.5857 12.75 20.2499 12.4142 20.2499 12V4.81055L3.53022 21.5303C3.23732 21.8232 2.76256 21.8232 2.46967 21.5303C2.17678 21.2374 2.17678 20.7626 2.46967 20.4697L19.1894 3.75H11.9999C11.5857 3.75 11.2499 3.41421 11.2499 3C11.2499 2.58579 11.5857 2.25 11.9999 2.25H20.9999C21.4142 2.25 21.7499 2.58579 21.7499 3V12Z" fill="#1C252E"/>
<path d="M6.06928 6.06971C6.36217 5.77681 6.83693 5.77681 7.12983 6.06971L17.9296 16.8695C18.2225 17.1624 18.2225 17.6372 17.9296 17.9301C17.6367 18.223 17.162 18.223 16.8691 17.9301L6.06928 7.13025C5.77639 6.83736 5.77639 6.3626 6.06928 6.06971Z" fill="#1C252E"/>
</svg>
