<svg width="24" height="24" viewBox="0 0 24 24" fill="none" xmlns="http://www.w3.org/2000/svg">
<path d="M17.25 13.75C17.25 9.88401 14.116 6.75 10.25 6.75C6.38401 6.75 3.25 9.88401 3.25 13.75C3.25 17.616 6.38401 20.75 10.25 20.75C14.116 20.75 17.25 17.616 17.25 13.75ZM18.75 13.75C18.75 18.4444 14.9444 22.25 10.25 22.25C5.55558 22.25 1.75 18.4444 1.75 13.75C1.75 9.05558 5.55558 5.25 10.25 5.25C14.9444 5.25 18.75 9.05558 18.75 13.75Z" fill="#1C252E"/>
<path d="M22.25 9C22.25 9.41421 21.9142 9.75 21.5 9.75C21.0858 9.75 20.75 9.41421 20.75 9V4.31055L16.5303 8.53027C16.2374 8.82317 15.7626 8.82317 15.4697 8.53027C15.1768 8.23738 15.1768 7.76262 15.4697 7.46973L19.6895 3.25H15C14.5858 3.25 14.25 2.91421 14.25 2.5C14.25 2.08579 14.5858 1.75 15 1.75H21.5C21.9142 1.75 22.25 2.08579 22.25 2.5V9Z" fill="#1C252E"/>
</svg>
