<svg width="24" height="24" viewBox="0 0 24 24" fill="none" xmlns="http://www.w3.org/2000/svg">
<path d="M21.6145 1.35644C21.9698 1.14362 22.4309 1.25905 22.6438 1.61426C22.8566 1.96954 22.7412 2.43065 22.386 2.64355C21.3695 3.25247 20.3124 3.7633 19.2288 4.17871C16.6631 9.08371 16.6702 14.9221 19.2034 19.8115C20.2959 20.2286 21.3616 20.7428 22.386 21.3564C22.7412 21.5693 22.8566 22.0305 22.6438 22.3857C22.4309 22.7409 21.9698 22.8564 21.6145 22.6436C15.6919 19.0958 8.30865 19.0958 2.38601 22.6436C2.03074 22.8564 1.56962 22.7409 1.35672 22.3857C1.1439 22.0305 1.25933 21.5693 1.61453 21.3564C2.63871 20.7429 3.70401 20.2286 4.79617 19.8115C7.33923 14.922 7.34741 9.08391 4.77176 4.17871C3.68819 3.7633 2.63104 3.25247 1.61453 2.64355C1.25933 2.43065 1.1439 1.96954 1.35672 1.61426C1.56962 1.25905 2.03073 1.14362 2.38601 1.35644C8.30864 4.90417 15.6919 4.90417 21.6145 1.35644ZM17.2708 4.8164C13.8207 5.74892 10.1819 5.74952 6.73172 4.81738C8.69102 9.41129 8.68844 14.5963 6.75223 19.1768C10.1894 18.252 13.8132 18.2526 17.2503 19.1777C15.3203 14.5969 15.318 9.41069 17.2708 4.8164Z" fill="#1C252E"/>
</svg>
