<svg width="24" height="24" viewBox="0 0 24 24" fill="none" xmlns="http://www.w3.org/2000/svg">
<path d="M11.25 22V19.75H9C8.58579 19.75 8.25 19.4142 8.25 19C8.25 18.5858 8.58579 18.25 9 18.25H11.25V16C11.25 15.5858 11.5858 15.25 12 15.25C15.4558 15.25 18.25 12.4558 18.25 9C18.25 5.54421 15.4558 2.75 12 2.75C8.54421 2.75 5.75 5.54421 5.75 9C5.75 9.41421 5.41421 9.75 5 9.75C4.58579 9.75 4.25 9.41421 4.25 9C4.25 4.71579 7.71579 1.25 12 1.25C16.2842 1.25 19.75 4.71579 19.75 9C19.75 13.0311 16.6815 16.3363 12.75 16.7129V18.25H15C15.4142 18.25 15.75 18.5858 15.75 19C15.75 19.4142 15.4142 19.75 15 19.75H12.75V22C12.75 22.4142 12.4142 22.75 12 22.75C11.5858 22.75 11.25 22.4142 11.25 22Z" fill="#1C252E"/>
</svg>
