<svg width="24" height="24" viewBox="0 0 24 24" fill="none" xmlns="http://www.w3.org/2000/svg">
<path d="M18.25 22V11C18.25 10.5858 18.5858 10.25 19 10.25C19.4142 10.25 19.75 10.5858 19.75 11V22C19.75 22.4142 19.4142 22.75 19 22.75C18.5858 22.75 18.25 22.4142 18.25 22Z" fill="#1C252E"/>
<path d="M18.25 7V2C18.25 1.58579 18.5858 1.25 19 1.25C19.4142 1.25 19.75 1.58579 19.75 2V7C19.75 7.41421 19.4142 7.75 19 7.75C18.5858 7.75 18.25 7.41421 18.25 7Z" fill="#1C252E"/>
<path d="M11.25 22V17C11.25 16.5858 11.5858 16.25 12 16.25C12.4142 16.25 12.75 16.5858 12.75 17V22C12.75 22.4142 12.4142 22.75 12 22.75C11.5858 22.75 11.25 22.4142 11.25 22Z" fill="#1C252E"/>
<path d="M11.25 13V2C11.25 1.58579 11.5858 1.25 12 1.25C12.4142 1.25 12.75 1.58579 12.75 2V13C12.75 13.4142 12.4142 13.75 12 13.75C11.5858 13.75 11.25 13.4142 11.25 13Z" fill="#1C252E"/>
<path d="M4.25 22V11C4.25 10.5858 4.58579 10.25 5 10.25C5.41421 10.25 5.75 10.5858 5.75 11V22C5.75 22.4142 5.41421 22.75 5 22.75C4.58579 22.75 4.25 22.4142 4.25 22Z" fill="#1C252E"/>
<path d="M4.25 7V2C4.25 1.58579 4.58579 1.25 5 1.25C5.41421 1.25 5.75 1.58579 5.75 2V7C5.75 7.41421 5.41421 7.75 5 7.75C4.58579 7.75 4.25 7.41421 4.25 7Z" fill="#1C252E"/>
<path d="M7 10.25C7.41421 10.25 7.75 10.5858 7.75 11C7.75 11.4142 7.41421 11.75 7 11.75H3C2.58579 11.75 2.25 11.4142 2.25 11C2.25 10.5858 2.58579 10.25 3 10.25H7Z" fill="#1C252E"/>
<path d="M21 10.25C21.4142 10.25 21.75 10.5858 21.75 11C21.75 11.4142 21.4142 11.75 21 11.75H17C16.5858 11.75 16.25 11.4142 16.25 11C16.25 10.5858 16.5858 10.25 17 10.25H21Z" fill="#1C252E"/>
<path d="M14 12.25C14.4142 12.25 14.75 12.5858 14.75 13C14.75 13.4142 14.4142 13.75 14 13.75H10C9.58579 13.75 9.25 13.4142 9.25 13C9.25 12.5858 9.58579 12.25 10 12.25H14Z" fill="#1C252E"/>
</svg>
