<svg width="24" height="24" viewBox="0 0 24 24" fill="none" xmlns="http://www.w3.org/2000/svg">
<path d="M22.25 12C22.25 8.54822 19.4518 5.75 16 5.75H8C4.54822 5.75 1.75 8.54822 1.75 12C1.75 15.4518 4.54822 18.25 8 18.25H16C19.4518 18.25 22.25 15.4518 22.25 12ZM23.75 12C23.75 16.2802 20.2802 19.75 16 19.75H8C3.71979 19.75 0.25 16.2802 0.25 12C0.25 7.71979 3.71979 4.25 8 4.25H16C20.2802 4.25 23.75 7.71979 23.75 12Z" fill="#1C252E"/>
<path d="M19.75 12C19.75 9.92893 18.0711 8.25 16 8.25C13.9289 8.25 12.25 9.92893 12.25 12C12.25 14.0711 13.9289 15.75 16 15.75C18.0711 15.75 19.75 14.0711 19.75 12ZM21.25 12C21.25 14.8995 18.8995 17.25 16 17.25C13.1005 17.25 10.75 14.8995 10.75 12C10.75 9.10051 13.1005 6.75 16 6.75C18.8995 6.75 21.25 9.10051 21.25 12Z" fill="#1C252E"/>
</svg>
