<svg width="24" height="24" viewBox="0 0 24 24" fill="none" xmlns="http://www.w3.org/2000/svg">
<path d="M22 16.75C22.4142 16.75 22.75 17.0858 22.75 17.5C22.75 17.9142 22.4142 18.25 22 18.25H15C14.5858 18.25 14.25 17.9142 14.25 17.5C14.25 17.0858 14.5858 16.75 15 16.75H22Z" fill="#1C252E"/>
<path d="M5 16.75C5.41421 16.75 5.75 17.0858 5.75 17.5C5.75 17.9142 5.41421 18.25 5 18.25H2C1.58579 18.25 1.25 17.9142 1.25 17.5C1.25 17.0858 1.58579 16.75 2 16.75H5Z" fill="#1C252E"/>
<path d="M22 5.75C22.4142 5.75 22.75 6.08579 22.75 6.5C22.75 6.91421 22.4142 7.25 22 7.25H19C18.5858 7.25 18.25 6.91421 18.25 6.5C18.25 6.08579 18.5858 5.75 19 5.75H22Z" fill="#1C252E"/>
<path d="M9 5.75C9.41421 5.75 9.75 6.08579 9.75 6.5C9.75 6.91421 9.41421 7.25 9 7.25H2C1.58579 7.25 1.25 6.91421 1.25 6.5C1.25 6.08579 1.58579 5.75 2 5.75H9Z" fill="#1C252E"/>
<path d="M14.25 16.5C14.25 15.9051 14.0774 15.6392 13.9229 15.5059C13.7475 15.3547 13.4515 15.25 13 15.25H7C6.54853 15.25 6.25252 15.3547 6.07715 15.5059C5.92257 15.6392 5.75 15.9051 5.75 16.5V18.5C5.75 19.0949 5.92257 19.3608 6.07715 19.4941C6.25252 19.6453 6.54853 19.75 7 19.75H13C13.4515 19.75 13.7475 19.6453 13.9229 19.4941C14.0774 19.3608 14.25 19.0949 14.25 18.5V16.5ZM15.75 18.5C15.75 19.4048 15.4727 20.1392 14.9023 20.6309C14.3527 21.1046 13.6485 21.25 13 21.25H7C6.3515 21.25 5.64728 21.1046 5.09766 20.6309C4.52728 20.1392 4.25 19.4048 4.25 18.5V16.5C4.25 15.5952 4.52728 14.8608 5.09766 14.3691C5.64728 13.8954 6.3515 13.75 7 13.75H13C13.6485 13.75 14.3527 13.8954 14.9023 14.3691C15.4727 14.8608 15.75 15.5952 15.75 16.5V18.5Z" fill="#1C252E"/>
<path d="M18.25 5.5C18.25 4.90508 18.0774 4.63921 17.9229 4.50586C17.7475 4.35468 17.4515 4.25 17 4.25H11C10.5485 4.25 10.2525 4.35468 10.0771 4.50586C9.92257 4.63921 9.75 4.90508 9.75 5.5V7.5C9.75 8.09492 9.92257 8.36079 10.0771 8.49414C10.2525 8.64532 10.5485 8.75 11 8.75H17C17.4515 8.75 17.7475 8.64532 17.9229 8.49414C18.0774 8.36079 18.25 8.09492 18.25 7.5V5.5ZM19.75 7.5C19.75 8.40484 19.4727 9.13915 18.9023 9.63086C18.3527 10.1046 17.6485 10.25 17 10.25H11C10.3515 10.25 9.64728 10.1046 9.09766 9.63086C8.52728 9.13915 8.25 8.40484 8.25 7.5V5.5C8.25 4.59516 8.52728 3.86085 9.09766 3.36914C9.64728 2.89537 10.3515 2.75 11 2.75H17C17.6485 2.75 18.3527 2.89537 18.9023 3.36914C19.4727 3.86085 19.75 4.59516 19.75 5.5V7.5Z" fill="#1C252E"/>
</svg>
