<svg width="24" height="24" viewBox="0 0 24 24" fill="none" xmlns="http://www.w3.org/2000/svg">
<path d="M20.25 9.10999C20.25 8.56791 20.2495 8.21473 20.2227 7.94202C20.1974 7.68578 20.1533 7.56145 20.1006 7.47034C20.0436 7.37169 19.939 7.24832 19.6904 7.05139C19.439 6.8522 19.0954 6.6202 18.5928 6.28088L13.125 3.11975L13.1211 3.11682C12.8542 2.96066 12.4512 2.86001 12.0039 2.85999C11.5569 2.85999 11.1489 2.96038 10.875 3.11877V3.11975L5.40625 6.28088C4.90395 6.61995 4.5609 6.85229 4.30957 7.05139C4.06099 7.24832 3.95644 7.37169 3.89941 7.47034C3.84675 7.56145 3.80257 7.68578 3.77734 7.94202C3.75053 8.21473 3.75 8.56791 3.75 9.10999V14.8795C3.75 15.4238 3.75052 15.7791 3.77734 16.0533C3.8026 16.3113 3.84662 16.4372 3.89941 16.5289C3.95649 16.6279 4.0612 16.752 4.30957 16.9489C4.56073 17.148 4.90409 17.3794 5.40625 17.7184L10.875 20.8805C11.1489 21.0389 11.5569 21.1403 12.0039 21.1403C12.4513 21.1402 12.8542 21.0387 13.1211 20.8824L13.125 20.8805L18.5928 17.7184C19.0952 17.3792 19.4391 17.148 19.6904 16.9489C19.9388 16.7521 20.0435 16.6285 20.1006 16.5299C20.1533 16.4388 20.1974 16.3137 20.2227 16.0573C20.2494 15.7846 20.25 15.432 20.25 14.8903V9.10999ZM21.75 14.8903C21.75 15.4031 21.7505 15.8419 21.7148 16.2047C21.6776 16.5836 21.5965 16.9388 21.3994 17.2799C21.2064 17.6138 20.936 17.876 20.6221 18.1246C20.3132 18.3693 19.9101 18.6405 19.4199 18.9713C19.4055 18.981 19.39 18.9909 19.375 18.9996L13.8779 22.1764C13.3249 22.5 12.6437 22.6402 12.0039 22.6403C11.3636 22.6403 10.681 22.5008 10.125 22.1793L4.625 18.9996C4.60995 18.9909 4.59449 18.981 4.58008 18.9713C4.08994 18.6405 3.6869 18.3686 3.37793 18.1237C3.06386 17.8747 2.79348 17.6126 2.60059 17.278C2.40352 16.936 2.32237 16.5799 2.28516 16.1998C2.24951 15.8357 2.25 15.395 2.25 14.8795V9.10999C2.25 8.59706 2.24947 8.15845 2.28516 7.79553C2.32244 7.41646 2.4033 7.06066 2.60059 6.71936C2.79354 6.38563 3.06413 6.12422 3.37793 5.87561C3.68686 5.63087 4.08975 5.35892 4.58008 5.02795C4.59449 5.01823 4.60995 5.00931 4.625 5.00061L10.125 1.82092C10.6811 1.49943 11.3636 1.35999 12.0039 1.35999C12.6439 1.36001 13.3259 1.49915 13.8789 1.82288L13.8779 1.82385L19.375 5.00061C19.39 5.00931 19.4055 5.01823 19.4199 5.02795C19.9102 5.35892 20.3131 5.63087 20.6221 5.87561C20.9359 6.12422 21.2065 6.38563 21.3994 6.71936C21.5967 7.06066 21.6776 7.41646 21.7148 7.79553C21.7505 8.15845 21.75 8.59706 21.75 9.10999V14.8903Z" fill="#1C252E"/>
<path d="M14.25 12C14.25 10.7574 13.2426 9.75 12 9.75C10.7574 9.75 9.75 10.7574 9.75 12C9.75 13.2426 10.7574 14.25 12 14.25C13.2426 14.25 14.25 13.2426 14.25 12ZM15.75 12C15.75 14.0711 14.0711 15.75 12 15.75C9.92893 15.75 8.25 14.0711 8.25 12C8.25 9.92893 9.92893 8.25 12 8.25C14.0711 8.25 15.75 9.92893 15.75 12Z" fill="#1C252E"/>
</svg>
