<svg width="24" height="24" viewBox="0 0 24 24" fill="none" xmlns="http://www.w3.org/2000/svg">
<path d="M22.25 12C22.25 8.54822 19.4518 5.75 16 5.75H8C4.54822 5.75 1.75 8.54822 1.75 12C1.75 15.4518 4.54822 18.25 8 18.25H16C19.4518 18.25 22.25 15.4518 22.25 12ZM23.75 12C23.75 16.2802 20.2802 19.75 16 19.75H8C3.71979 19.75 0.25 16.2802 0.25 12C0.25 7.71979 3.71979 4.25 8 4.25H16C20.2802 4.25 23.75 7.71979 23.75 12Z" fill="#1C252E"/>
<path d="M11.75 12C11.75 9.92893 10.0711 8.25 8 8.25C5.92893 8.25 4.25 9.92893 4.25 12C4.25 14.0711 5.92893 15.75 8 15.75C10.0711 15.75 11.75 14.0711 11.75 12ZM13.25 12C13.25 14.8995 10.8995 17.25 8 17.25C5.10051 17.25 2.75 14.8995 2.75 12C2.75 9.10051 5.10051 6.75 8 6.75C10.8995 6.75 13.25 9.10051 13.25 12Z" fill="#1C252E"/>
</svg>
