<svg width="24" height="24" viewBox="0 0 24 24" fill="none" xmlns="http://www.w3.org/2000/svg">
<path d="M19.25 5.84998C19.25 4.90559 18.4844 4.14001 17.54 4.14001C16.5957 4.14003 15.8301 4.90559 15.8301 5.84998C15.8301 6.79438 16.5956 7.55992 17.54 7.55994C18.4844 7.55994 19.25 6.79438 19.25 5.84998ZM20.75 5.84998C20.75 7.62281 19.3129 9.05994 17.54 9.05994C15.7672 9.05992 14.3301 7.6228 14.3301 5.84998C14.3301 4.07717 15.7672 2.64003 17.54 2.64001C19.3129 2.64001 20.75 4.07716 20.75 5.84998Z" fill="#1C252E"/>
<path d="M8.16992 5.84998C8.1699 4.90558 7.40435 4.14001 6.45996 4.14001C5.51559 4.14004 4.75002 4.9056 4.75 5.84998C4.75 6.79436 5.51557 7.55991 6.45996 7.55994C7.40436 7.55994 8.16992 6.79439 8.16992 5.84998ZM9.66992 5.84998C9.66992 7.62281 8.2328 9.05994 6.45996 9.05994C4.68715 9.05991 3.25 7.6228 3.25 5.84998C3.25002 4.07717 4.68716 2.64004 6.45996 2.64001C8.23279 2.64001 9.6699 4.07716 9.66992 5.84998Z" fill="#1C252E"/>
<path d="M19.25 18.15C19.25 17.2056 18.4844 16.4401 17.54 16.4401C16.5957 16.4401 15.8301 17.2056 15.8301 18.15C15.8301 19.0944 16.5956 19.86 17.54 19.86C18.4844 19.86 19.25 19.0944 19.25 18.15ZM20.75 18.15C20.75 19.9229 19.3129 21.36 17.54 21.36C15.7672 21.36 14.3301 19.9228 14.3301 18.15C14.3301 16.3772 15.7672 14.9401 17.54 14.9401C19.3129 14.9401 20.75 16.3772 20.75 18.15Z" fill="#1C252E"/>
<path d="M8.16992 18.15C8.1699 17.2056 7.40435 16.4401 6.45996 16.4401C5.51559 16.4401 4.75002 17.2057 4.75 18.15C4.75 19.0944 5.51557 19.86 6.45996 19.86C7.40436 19.86 8.16992 19.0944 8.16992 18.15ZM9.66992 18.15C9.66992 19.9229 8.2328 21.36 6.45996 21.36C4.68715 21.36 3.25 19.9228 3.25 18.15C3.25002 16.3772 4.68716 14.9401 6.45996 14.9401C8.23279 14.9401 9.6699 16.3772 9.66992 18.15Z" fill="#1C252E"/>
</svg>
