<svg width="24" height="24" viewBox="0 0 24 24" fill="none" xmlns="http://www.w3.org/2000/svg">
<path d="M17.75 10.7998C17.75 9.87391 17.5599 9.42118 17.3193 9.18066C17.0788 8.94015 16.6261 8.75003 15.7002 8.75H13.2998C12.3739 8.75003 11.9212 8.94015 11.6807 9.18066C11.4401 9.42118 11.25 9.87391 11.25 10.7998V13.2002C11.25 14.1261 11.4401 14.5788 11.6807 14.8193C11.9212 15.0599 12.3739 15.25 13.2998 15.25H15.7002C16.6261 15.25 17.0788 15.0599 17.3193 14.8193C17.5599 14.5788 17.75 14.1261 17.75 13.2002V10.7998ZM19.25 13.2002C19.25 14.2741 19.0393 15.2205 18.3799 15.8799C17.7205 16.5393 16.7741 16.75 15.7002 16.75H13.2998C12.2259 16.75 11.2795 16.5393 10.6201 15.8799C9.96069 15.2205 9.75003 14.2741 9.75 13.2002V10.7998C9.75003 9.72591 9.96069 8.77955 10.6201 8.12012C11.2795 7.46069 12.2259 7.25003 13.2998 7.25H15.7002C16.7741 7.25003 17.7205 7.46069 18.3799 8.12012C19.0393 8.77955 19.25 9.72591 19.25 10.7998V13.2002Z" fill="#1C252E"/>
<path d="M21.25 9C21.25 6.99464 20.9812 6.04177 20.4697 5.53027C19.9582 5.01878 19.0054 4.75 17 4.75H7C4.99464 4.75 4.04177 5.01878 3.53027 5.53027C3.01878 6.04177 2.75 6.99464 2.75 9V15C2.75 17.0054 3.01878 17.9582 3.53027 18.4697C4.04177 18.9812 4.99464 19.25 7 19.25H17C19.0054 19.25 19.9582 18.9812 20.4697 18.4697C20.9812 17.9582 21.25 17.0054 21.25 15V9ZM22.75 15C22.75 16.9946 22.5188 18.5418 21.5303 19.5303C20.5418 20.5188 18.9946 20.75 17 20.75H7C5.00536 20.75 3.45823 20.5188 2.46973 19.5303C1.48122 18.5418 1.25 16.9946 1.25 15V9C1.25 7.00536 1.48122 5.45823 2.46973 4.46973C3.45823 3.48122 5.00536 3.25 7 3.25H17C18.9946 3.25 20.5418 3.48122 21.5303 4.46973C22.5188 5.45823 22.75 7.00536 22.75 9V15Z" fill="#1C252E"/>
</svg>
