<svg width="24" height="24" viewBox="0 0 24 24" fill="none" xmlns="http://www.w3.org/2000/svg">
<path d="M12.75 10.7998C12.75 9.87391 12.5599 9.42118 12.3193 9.18066C12.0788 8.94015 11.6261 8.75003 10.7002 8.75H8.2998C7.37391 8.75003 6.92118 8.94015 6.68066 9.18066C6.44015 9.42118 6.25003 9.87391 6.25 10.7998V13.2002C6.25003 14.1261 6.44015 14.5788 6.68066 14.8193C6.92118 15.0599 7.37391 15.25 8.2998 15.25H10.7002C11.6261 15.25 12.0788 15.0599 12.3193 14.8193C12.5599 14.5788 12.75 14.1261 12.75 13.2002V10.7998ZM14.25 13.2002C14.25 14.2741 14.0393 15.2205 13.3799 15.8799C12.7205 16.5393 11.7741 16.75 10.7002 16.75H8.2998C7.22591 16.75 6.27955 16.5393 5.62012 15.8799C4.96069 15.2205 4.75003 14.2741 4.75 13.2002V10.7998C4.75003 9.72591 4.96069 8.77955 5.62012 8.12012C6.27955 7.46069 7.22591 7.25003 8.2998 7.25H10.7002C11.7741 7.25003 12.7205 7.46069 13.3799 8.12012C14.0393 8.77955 14.25 9.72591 14.25 10.7998V13.2002Z" fill="#1C252E"/>
<path d="M21.25 9C21.25 6.99464 20.9812 6.04177 20.4697 5.53027C19.9582 5.01878 19.0054 4.75 17 4.75H7C4.99464 4.75 4.04177 5.01878 3.53027 5.53027C3.01878 6.04177 2.75 6.99464 2.75 9V15C2.75 17.0054 3.01878 17.9582 3.53027 18.4697C4.04177 18.9812 4.99464 19.25 7 19.25H17C19.0054 19.25 19.9582 18.9812 20.4697 18.4697C20.9812 17.9582 21.25 17.0054 21.25 15V9ZM22.75 15C22.75 16.9946 22.5188 18.5418 21.5303 19.5303C20.5418 20.5188 18.9946 20.75 17 20.75H7C5.00536 20.75 3.45823 20.5188 2.46973 19.5303C1.48122 18.5418 1.25 16.9946 1.25 15V9C1.25 7.00536 1.48122 5.45823 2.46973 4.46973C3.45823 3.48122 5.00536 3.25 7 3.25H17C18.9946 3.25 20.5418 3.48122 21.5303 4.46973C22.5188 5.45823 22.75 7.00536 22.75 9V15Z" fill="#1C252E"/>
</svg>
