<svg width="24" height="24" viewBox="0 0 24 24" fill="none" xmlns="http://www.w3.org/2000/svg">
<path d="M21.25 9C21.25 6.57397 20.7603 5.0708 19.8447 4.15527C18.9292 3.23974 17.426 2.75 15 2.75H9C6.57397 2.75 5.0708 3.23974 4.15527 4.15527C3.23974 5.0708 2.75 6.57397 2.75 9V15C2.75 17.426 3.23974 18.9292 4.15527 19.8447C5.0708 20.7603 6.57397 21.25 9 21.25H15C17.426 21.25 18.9292 20.7603 19.8447 19.8447C20.7603 18.9292 21.25 17.426 21.25 15V9ZM22.75 15C22.75 17.574 22.2397 19.5708 20.9053 20.9053C19.5708 22.2397 17.574 22.75 15 22.75H9C6.42603 22.75 4.4292 22.2397 3.09473 20.9053C1.76026 19.5708 1.25 17.574 1.25 15V9C1.25 6.42603 1.76026 4.4292 3.09473 3.09473C4.4292 1.76026 6.42603 1.25 9 1.25H15C17.574 1.25 19.5708 1.76026 20.9053 3.09473C22.2397 4.4292 22.75 6.42603 22.75 9V15Z" fill="#1C252E"/>
<path d="M14.8203 18.5004V14.6C14.8203 14.1858 15.1561 13.85 15.5703 13.85C15.9845 13.85 16.3203 14.1858 16.3203 14.6V18.5004C16.3201 18.9144 15.9844 19.2504 15.5703 19.2504C15.1562 19.2504 14.8205 18.9144 14.8203 18.5004Z" fill="#1C252E"/>
<path d="M14.8203 7.4502V5.5C14.8203 5.08579 15.1561 4.75 15.5703 4.75C15.9845 4.75 16.3203 5.08579 16.3203 5.5V7.4502C16.3202 7.86432 15.9845 8.2002 15.5703 8.2002C15.1562 8.2002 14.8204 7.86432 14.8203 7.4502Z" fill="#1C252E"/>
<path d="M17.4209 10.0496C17.4207 9.02807 16.5919 8.20001 15.5703 8.20001C14.5489 8.20022 13.7209 9.0282 13.7207 10.0496C13.7207 11.0712 14.5488 11.9 15.5703 11.9002C16.592 11.9002 17.4209 11.0713 17.4209 10.0496ZM18.9209 10.0496C18.9209 11.8998 17.4205 13.4002 15.5703 13.4002C13.7203 13.4 12.2207 11.8996 12.2207 10.0496C12.2209 8.19978 13.7205 6.70022 15.5703 6.70001C17.4203 6.70001 18.9207 8.19965 18.9209 10.0496Z" fill="#1C252E"/>
<path d="M7.67969 18.5002V16.55C7.67969 16.1358 8.01547 15.8 8.42969 15.8C8.8439 15.8 9.17969 16.1358 9.17969 16.55V18.5002C9.17958 18.9143 8.84384 19.2502 8.42969 19.2502C8.01554 19.2502 7.67979 18.9143 7.67969 18.5002Z" fill="#1C252E"/>
<path d="M7.67969 9.40039V5.5C7.67969 5.08579 8.01547 4.75 8.42969 4.75C8.8439 4.75 9.17969 5.08579 9.17969 5.5V9.40039C9.17948 9.81442 8.84377 10.1504 8.42969 10.1504C8.0156 10.1504 7.6799 9.81442 7.67969 9.40039Z" fill="#1C252E"/>
<path d="M10.2803 13.9496C10.2801 12.9281 9.45128 12.1 8.42969 12.1C7.40827 12.1002 6.58029 12.9282 6.58008 13.9496C6.58008 14.9712 7.40814 15.8 8.42969 15.8002C9.45141 15.8002 10.2803 14.9713 10.2803 13.9496ZM11.7803 13.9496C11.7803 15.7998 10.2798 17.3002 8.42969 17.3002C6.57971 17.3 5.08008 15.7996 5.08008 13.9496C5.08029 12.0998 6.57984 10.6002 8.42969 10.6C10.2797 10.6 11.7801 12.0996 11.7803 13.9496Z" fill="#1C252E"/>
</svg>
