<svg width="24" height="24" viewBox="0 0 24 24" fill="none" xmlns="http://www.w3.org/2000/svg">
<path d="M5.75 22V15C5.75 14.5858 6.08579 14.25 6.5 14.25C6.91421 14.25 7.25 14.5858 7.25 15V22C7.25 22.4142 6.91421 22.75 6.5 22.75C6.08579 22.75 5.75 22.4142 5.75 22Z" fill="#1C252E"/>
<path d="M5.75 5V2C5.75 1.58579 6.08579 1.25 6.5 1.25C6.91421 1.25 7.25 1.58579 7.25 2V5C7.25 5.41421 6.91421 5.75 6.5 5.75C6.08579 5.75 5.75 5.41421 5.75 5Z" fill="#1C252E"/>
<path d="M16.75 22V19C16.75 18.5858 17.0858 18.25 17.5 18.25C17.9142 18.25 18.25 18.5858 18.25 19V22C18.25 22.4142 17.9142 22.75 17.5 22.75C17.0858 22.75 16.75 22.4142 16.75 22Z" fill="#1C252E"/>
<path d="M16.75 9V2C16.75 1.58579 17.0858 1.25 17.5 1.25C17.9142 1.25 18.25 1.58579 18.25 2V9C18.25 9.41421 17.9142 9.75 17.5 9.75C17.0858 9.75 16.75 9.41421 16.75 9Z" fill="#1C252E"/>
<path d="M8.75 7C8.75 6.54853 8.64532 6.25252 8.49414 6.07715C8.36079 5.92257 8.09492 5.75 7.5 5.75H5.5C4.90508 5.75 4.63921 5.92257 4.50586 6.07715C4.35468 6.25252 4.25 6.54853 4.25 7V13C4.25 13.4515 4.35468 13.7475 4.50586 13.9229C4.63921 14.0774 4.90508 14.25 5.5 14.25H7.5C8.09492 14.25 8.36079 14.0774 8.49414 13.9229C8.64532 13.7475 8.75 13.4515 8.75 13V7ZM10.25 13C10.25 13.6485 10.1046 14.3527 9.63086 14.9023C9.13915 15.4727 8.40484 15.75 7.5 15.75H5.5C4.59516 15.75 3.86085 15.4727 3.36914 14.9023C2.89537 14.3527 2.75 13.6485 2.75 13V7C2.75 6.3515 2.89537 5.64728 3.36914 5.09766C3.86085 4.52728 4.59516 4.25 5.5 4.25H7.5C8.40484 4.25 9.13915 4.52728 9.63086 5.09766C10.1046 5.64728 10.25 6.3515 10.25 7V13Z" fill="#1C252E"/>
<path d="M19.75 11C19.75 10.5485 19.6453 10.2525 19.4941 10.0771C19.3608 9.92257 19.0949 9.75 18.5 9.75H16.5C15.9051 9.75 15.6392 9.92257 15.5059 10.0771C15.3547 10.2525 15.25 10.5485 15.25 11V17C15.25 17.4515 15.3547 17.7475 15.5059 17.9229C15.6392 18.0774 15.9051 18.25 16.5 18.25H18.5C19.0949 18.25 19.3608 18.0774 19.4941 17.9229C19.6453 17.7475 19.75 17.4515 19.75 17V11ZM21.25 17C21.25 17.6485 21.1046 18.3527 20.6309 18.9023C20.1392 19.4727 19.4048 19.75 18.5 19.75H16.5C15.5952 19.75 14.8608 19.4727 14.3691 18.9023C13.8954 18.3527 13.75 17.6485 13.75 17V11C13.75 10.3515 13.8954 9.64728 14.3691 9.09766C14.8608 8.52728 15.5952 8.25 16.5 8.25H18.5C19.4048 8.25 20.1392 8.52728 20.6309 9.09766C21.1046 9.64728 21.25 10.3515 21.25 11V17Z" fill="#1C252E"/>
</svg>
