<svg width="24" height="24" viewBox="0 0 24 24" fill="none" xmlns="http://www.w3.org/2000/svg">
<path d="M9.25 5C9.25 4.11561 9.02947 3.59001 8.71973 3.28027C8.40999 2.97053 7.88439 2.75 7 2.75H5C4.11561 2.75 3.59001 2.97053 3.28027 3.28027C2.97053 3.59001 2.75 4.11561 2.75 5V7C2.75 7.88439 2.97053 8.40999 3.28027 8.71973C3.59001 9.02947 4.11561 9.25 5 9.25H7C7.88439 9.25 8.40999 9.02947 8.71973 8.71973C9.02947 8.40999 9.25 7.88439 9.25 7V5ZM10.75 7C10.75 8.11561 10.4705 9.09001 9.78027 9.78027C9.09001 10.4705 8.11561 10.75 7 10.75H5C3.88439 10.75 2.90999 10.4705 2.21973 9.78027C1.52947 9.09001 1.25 8.11561 1.25 7V5C1.25 3.88439 1.52947 2.90999 2.21973 2.21973C2.90999 1.52947 3.88439 1.25 5 1.25H7C8.11561 1.25 9.09001 1.52947 9.78027 2.21973C10.4705 2.90999 10.75 3.88439 10.75 5V7Z" fill="#1C252E"/>
<path d="M21.25 5C21.25 4.11561 21.0295 3.59001 20.7197 3.28027C20.41 2.97053 19.8844 2.75 19 2.75H17C16.1156 2.75 15.59 2.97053 15.2803 3.28027C14.9705 3.59001 14.75 4.11561 14.75 5V7C14.75 7.88439 14.9705 8.40999 15.2803 8.71973C15.59 9.02947 16.1156 9.25 17 9.25H19C19.8844 9.25 20.41 9.02947 20.7197 8.71973C21.0295 8.40999 21.25 7.88439 21.25 7V5ZM22.75 7C22.75 8.11561 22.4705 9.09001 21.7803 9.78027C21.09 10.4705 20.1156 10.75 19 10.75H17C15.8844 10.75 14.91 10.4705 14.2197 9.78027C13.5295 9.09001 13.25 8.11561 13.25 7V5C13.25 3.88439 13.5295 2.90999 14.2197 2.21973C14.91 1.52947 15.8844 1.25 17 1.25H19C20.1156 1.25 21.09 1.52947 21.7803 2.21973C22.4705 2.90999 22.75 3.88439 22.75 5V7Z" fill="#1C252E"/>
<path d="M21.25 17C21.25 16.1156 21.0295 15.59 20.7197 15.2803C20.41 14.9705 19.8844 14.75 19 14.75H17C16.1156 14.75 15.59 14.9705 15.2803 15.2803C14.9705 15.59 14.75 16.1156 14.75 17V19C14.75 19.8844 14.9705 20.41 15.2803 20.7197C15.59 21.0295 16.1156 21.25 17 21.25H19C19.8844 21.25 20.41 21.0295 20.7197 20.7197C21.0295 20.41 21.25 19.8844 21.25 19V17ZM22.75 19C22.75 20.1156 22.4705 21.09 21.7803 21.7803C21.09 22.4705 20.1156 22.75 19 22.75H17C15.8844 22.75 14.91 22.4705 14.2197 21.7803C13.5295 21.09 13.25 20.1156 13.25 19V17C13.25 15.8844 13.5295 14.91 14.2197 14.2197C14.91 13.5295 15.8844 13.25 17 13.25H19C20.1156 13.25 21.09 13.5295 21.7803 14.2197C22.4705 14.91 22.75 15.8844 22.75 17V19Z" fill="#1C252E"/>
<path d="M9.25 17C9.25 16.1156 9.02947 15.59 8.71973 15.2803C8.40999 14.9705 7.88439 14.75 7 14.75H5C4.11561 14.75 3.59001 14.9705 3.28027 15.2803C2.97053 15.59 2.75 16.1156 2.75 17V19C2.75 19.8844 2.97053 20.41 3.28027 20.7197C3.59001 21.0295 4.11561 21.25 5 21.25H7C7.88439 21.25 8.40999 21.0295 8.71973 20.7197C9.02947 20.41 9.25 19.8844 9.25 19V17ZM10.75 19C10.75 20.1156 10.4705 21.09 9.78027 21.7803C9.09001 22.4705 8.11561 22.75 7 22.75H5C3.88439 22.75 2.90999 22.4705 2.21973 21.7803C1.52947 21.09 1.25 20.1156 1.25 19V17C1.25 15.8844 1.52947 14.91 2.21973 14.2197C2.90999 13.5295 3.88439 13.25 5 13.25H7C8.11561 13.25 9.09001 13.5295 9.78027 14.2197C10.4705 14.91 10.75 15.8844 10.75 17V19Z" fill="#1C252E"/>
</svg>
