<svg width="24" height="24" viewBox="0 0 24 24" fill="none" xmlns="http://www.w3.org/2000/svg">
<path d="M20.25 7C20.25 5.61505 19.9034 4.57576 19.2627 3.88574C18.6313 3.20579 17.607 2.75 16 2.75H8C6.39295 2.75 5.36869 3.20579 4.7373 3.88574C4.09664 4.57576 3.75 5.61505 3.75 7V17C3.75 18.385 4.09664 19.4242 4.7373 20.1143C5.36869 20.7942 6.39295 21.25 8 21.25H16C17.607 21.25 18.6313 20.7942 19.2627 20.1143C19.9034 19.4242 20.25 18.385 20.25 17V7ZM21.75 17C21.75 18.615 21.3466 20.0758 20.3623 21.1357C19.3687 22.2057 17.8929 22.75 16 22.75H8C6.10712 22.75 4.63131 22.2057 3.6377 21.1357C2.65342 20.0758 2.25 18.615 2.25 17V7C2.25 5.38503 2.65342 3.92424 3.6377 2.86426C4.63131 1.79429 6.10712 1.25 8 1.25H16C17.8929 1.25 19.3687 1.79429 20.3623 2.86426C21.3466 3.92424 21.75 5.38503 21.75 7V17Z" fill="#1C252E"/>
<path d="M13.75 6.5V4.5C13.75 4.08579 14.0858 3.75 14.5 3.75C14.9142 3.75 15.25 4.08579 15.25 4.5V6.5C15.25 7.18579 15.8142 7.75 16.5 7.75H18.5C18.9142 7.75 19.25 8.08579 19.25 8.5C19.25 8.91421 18.9142 9.25 18.5 9.25H16.5C14.9858 9.25 13.75 8.01421 13.75 6.5Z" fill="#1C252E"/>
<path d="M9.46967 12.4697C9.76256 12.1768 10.2373 12.1768 10.5302 12.4697C10.8231 12.7626 10.8231 13.2374 10.5302 13.5303L9.06049 15L10.5302 16.4697C10.8231 16.7626 10.8231 17.2374 10.5302 17.5303C10.2373 17.8232 9.76256 17.8232 9.46967 17.5303L7.46967 15.5303C7.17678 15.2374 7.17678 14.7626 7.46967 14.4697L9.46967 12.4697Z" fill="#1C252E"/>
<path d="M13.4697 12.4697C13.7626 12.1768 14.2373 12.1768 14.5302 12.4697L16.5302 14.4697C16.8231 14.7626 16.8231 15.2374 16.5302 15.5303L14.5302 17.5303C14.2373 17.8232 13.7626 17.8232 13.4697 17.5303C13.1768 17.2374 13.1768 16.7626 13.4697 16.4697L14.9394 15L13.4697 13.5303C13.1768 13.2374 13.1768 12.7626 13.4697 12.4697Z" fill="#1C252E"/>
</svg>
