<svg width="24" height="24" viewBox="0 0 24 24" fill="none" xmlns="http://www.w3.org/2000/svg">
<path d="M6.21873 8.66502C6.40391 8.29466 6.85418 8.14414 7.22459 8.32908C8.32115 8.87736 9.26146 9.70557 9.94432 10.7353H9.94334C10.461 11.5075 10.46 12.5045 9.94139 13.2763L9.94236 13.2773C9.26011 14.2951 8.32086 15.1227 7.22459 15.6709C6.85418 15.8558 6.40391 15.7053 6.21873 15.3349C6.03379 14.9645 6.18431 14.5143 6.55467 14.3291C7.41817 13.8972 8.15861 13.2444 8.69627 12.4424L8.69725 12.4414C8.87683 12.1746 8.87683 11.8352 8.69725 11.5683L8.69432 11.5644C8.15728 10.7545 7.41779 10.1025 6.55467 9.67088C6.18431 9.4857 6.03379 9.03543 6.21873 8.66502Z" fill="#1C252E"/>
<path d="M17 14.25C17.4142 14.25 17.75 14.5858 17.75 15C17.75 15.4142 17.4142 15.75 17 15.75H13C12.5858 15.75 12.25 15.4142 12.25 15C12.25 14.5858 12.5858 14.25 13 14.25H17Z" fill="#1C252E"/>
<path d="M21.25 9C21.25 6.57397 20.7603 5.0708 19.8447 4.15527C18.9292 3.23974 17.426 2.75 15 2.75H9C6.57397 2.75 5.0708 3.23974 4.15527 4.15527C3.23974 5.0708 2.75 6.57397 2.75 9V15C2.75 17.426 3.23974 18.9292 4.15527 19.8447C5.0708 20.7603 6.57397 21.25 9 21.25H15C17.426 21.25 18.9292 20.7603 19.8447 19.8447C20.7603 18.9292 21.25 17.426 21.25 15V9ZM22.75 15C22.75 17.574 22.2397 19.5708 20.9053 20.9053C19.5708 22.2397 17.574 22.75 15 22.75H9C6.42603 22.75 4.4292 22.2397 3.09473 20.9053C1.76026 19.5708 1.25 17.574 1.25 15V9C1.25 6.42603 1.76026 4.4292 3.09473 3.09473C4.4292 1.76026 6.42603 1.25 9 1.25H15C17.574 1.25 19.5708 1.76026 20.9053 3.09473C22.2397 4.4292 22.75 6.42603 22.75 9V15Z" fill="#1C252E"/>
</svg>
