<svg width="24" height="24" viewBox="0 0 24 24" fill="none" xmlns="http://www.w3.org/2000/svg">
<path d="M14.3994 8.85001C14.8136 8.85001 15.1494 9.18579 15.1494 9.60001V14.3998C15.1494 14.814 14.8136 15.1498 14.3994 15.1498H9.59961C9.1854 15.1498 8.84961 14.814 8.84961 14.3998V9.60001C8.84961 9.18579 9.1854 8.85001 9.59961 8.85001H14.3994ZM10.3496 13.6498H13.6494V10.35H10.3496V13.6498Z" fill="#1C252E"/>
<path d="M8.84961 15.15H7.7998C7.22419 15.1501 6.75012 15.6242 6.75 16.1998C6.75 16.7755 7.2241 17.2495 7.7998 17.2496C8.37559 17.2496 8.84961 16.7756 8.84961 16.1998V15.15ZM10.3496 16.1998C10.3496 17.604 9.20402 18.7496 7.7998 18.7496C6.39567 18.7495 5.25 17.604 5.25 16.1998C5.25012 14.7958 6.39573 13.6501 7.7998 13.65H9.59961C10.0138 13.65 10.3496 13.9858 10.3496 14.4V16.1998Z" fill="#1C252E"/>
<path d="M8.84961 7.7998C8.84951 7.2241 8.37553 6.75 7.7998 6.75C7.22416 6.7501 6.7501 7.22416 6.75 7.7998C6.75 8.37555 7.22412 8.84951 7.7998 8.84961H8.84961V7.7998ZM10.3496 9.59961C10.3496 10.0138 10.0138 10.3496 9.59961 10.3496H7.7998C6.39566 10.3495 5.25 9.20394 5.25 7.7998C5.2501 6.39574 6.39574 5.2501 7.7998 5.25C9.20396 5.25 10.3495 6.39567 10.3496 7.7998V9.59961Z" fill="#1C252E"/>
<path d="M17.25 7.7998C17.2499 7.2241 16.7759 6.75 16.2002 6.75C15.6246 6.7501 15.1505 7.22416 15.1504 7.7998V8.84961H16.2002C16.776 8.84961 17.25 8.37561 17.25 7.7998ZM18.75 7.7998C18.75 9.204 17.6044 10.3496 16.2002 10.3496H14.4004C13.9862 10.3496 13.6504 10.0138 13.6504 9.59961V7.7998C13.6505 6.39574 14.7961 5.2501 16.2002 5.25C17.6043 5.25 18.7499 6.39567 18.75 7.7998Z" fill="#1C252E"/>
<path d="M17.25 16.1998C17.2499 15.6241 16.7759 15.15 16.2002 15.15H15.1504V16.1998C15.1504 16.7755 15.6245 17.2495 16.2002 17.2496C16.776 17.2496 17.25 16.7756 17.25 16.1998ZM18.75 16.1998C18.75 17.604 17.6044 18.7496 16.2002 18.7496C14.7961 18.7495 13.6504 17.604 13.6504 16.1998V14.4C13.6504 13.9858 13.9862 13.65 14.4004 13.65H16.2002C17.6044 13.65 18.7499 14.7957 18.75 16.1998Z" fill="#1C252E"/>
<path d="M21.25 9C21.25 6.57397 20.7603 5.0708 19.8447 4.15527C18.9292 3.23974 17.426 2.75 15 2.75H9C6.57397 2.75 5.0708 3.23974 4.15527 4.15527C3.23974 5.0708 2.75 6.57397 2.75 9V15C2.75 17.426 3.23974 18.9292 4.15527 19.8447C5.0708 20.7603 6.57397 21.25 9 21.25H15C17.426 21.25 18.9292 20.7603 19.8447 19.8447C20.7603 18.9292 21.25 17.426 21.25 15V9ZM22.75 15C22.75 17.574 22.2397 19.5708 20.9053 20.9053C19.5708 22.2397 17.574 22.75 15 22.75H9C6.42603 22.75 4.4292 22.2397 3.09473 20.9053C1.76026 19.5708 1.25 17.574 1.25 15V9C1.25 6.42603 1.76026 4.4292 3.09473 3.09473C4.4292 1.76026 6.42603 1.25 9 1.25H15C17.574 1.25 19.5708 1.76026 20.9053 3.09473C22.2397 4.4292 22.75 6.42603 22.75 9V15Z" fill="#1C252E"/>
</svg>
