<svg width="24" height="24" viewBox="0 0 24 24" fill="none" xmlns="http://www.w3.org/2000/svg">
<path d="M8.66471 12.3291C9.0352 12.1439 9.48533 12.2946 9.67057 12.6651C9.85567 13.0355 9.70603 13.4857 9.33561 13.6709C8.79525 13.9411 8.34382 14.3419 8.00456 14.8457C7.94227 14.9433 7.94257 15.0556 8.00456 15.1533C8.34388 15.6574 8.79501 16.0588 9.33561 16.3291C9.70603 16.5143 9.85567 16.9645 9.67057 17.335C9.48533 17.7055 9.0352 17.8562 8.66471 17.6709C7.88606 17.2816 7.23801 16.7032 6.75749 15.9883L6.75358 15.9815C6.35948 15.3816 6.35948 14.6185 6.75358 14.0186L6.75749 14.0117C7.23801 13.2968 7.88606 12.7184 8.66471 12.3291Z" fill="#1C252E"/>
<path d="M14.539 12.665C14.7242 12.2947 15.1745 12.1441 15.5449 12.3291C16.2263 12.6698 16.8081 13.155 17.2646 13.75L17.4521 14.0117L17.457 14.0185C17.8509 14.6183 17.8509 15.3816 17.457 15.9814L17.4521 15.9883C16.9716 16.7032 16.3235 17.2816 15.5449 17.6709C15.1745 17.8558 14.7242 17.7053 14.539 17.3349C14.3541 16.9645 14.5046 16.5143 14.875 16.3291C15.4153 16.0588 15.8658 15.6572 16.2051 15.1533C16.2672 15.0555 16.2675 14.9434 16.2051 14.8457C15.8659 14.3421 15.4151 13.941 14.875 13.6709C14.5046 13.4857 14.3541 13.0354 14.539 12.665Z" fill="#1C252E"/>
<path d="M21.25 9C21.25 6.57397 20.7603 5.0708 19.8447 4.15527C18.9292 3.23974 17.426 2.75 15 2.75H9C6.57397 2.75 5.0708 3.23974 4.15527 4.15527C3.23974 5.0708 2.75 6.57397 2.75 9V15C2.75 17.426 3.23974 18.9292 4.15527 19.8447C5.0708 20.7603 6.57397 21.25 9 21.25H15C17.426 21.25 18.9292 20.7603 19.8447 19.8447C20.7603 18.9292 21.25 17.426 21.25 15V9ZM22.75 15C22.75 17.574 22.2397 19.5708 20.9053 20.9053C19.5708 22.2397 17.574 22.75 15 22.75H9C6.42603 22.75 4.4292 22.2397 3.09473 20.9053C1.76026 19.5708 1.25 17.574 1.25 15V9C1.25 6.42603 1.76026 4.4292 3.09473 3.09473C4.4292 1.76026 6.42603 1.25 9 1.25H15C17.574 1.25 19.5708 1.76026 20.9053 3.09473C22.2397 4.4292 22.75 6.42603 22.75 9V15Z" fill="#1C252E"/>
<path d="M21.4502 7.25C21.8644 7.24985 22.2 7.58583 22.2002 8C22.2002 8.41393 21.8651 8.74962 21.4512 8.75L2.23047 8.75977C1.81655 8.75977 1.48087 8.42466 1.48047 8.01074C1.48025 7.59653 1.81626 7.25998 2.23047 7.25977L21.4502 7.25Z" fill="#1C252E"/>
</svg>
