<svg width="24" height="24" viewBox="0 0 24 24" fill="none" xmlns="http://www.w3.org/2000/svg">
<path d="M8.25 4C8.25 3.31421 7.68579 2.75 7 2.75H4C3.31421 2.75 2.75 3.31421 2.75 4V6C2.75 6.68579 3.31421 7.25 4 7.25H7C7.68579 7.25 8.25 6.68579 8.25 6V4ZM9.75 6C9.75 7.51421 8.51421 8.75 7 8.75H4C2.48579 8.75 1.25 7.51421 1.25 6V4C1.25 2.48579 2.48579 1.25 4 1.25H7C8.51421 1.25 9.75 2.48579 9.75 4V6Z" fill="#1C252E"/>
<path d="M21.25 4.2002C21.25 3.9544 21.0456 3.75 20.7998 3.75H17.2002C16.9544 3.75 16.75 3.9544 16.75 4.2002V5.7998C16.75 6.0456 16.9544 6.25 17.2002 6.25H20.7998C21.0456 6.25 21.25 6.0456 21.25 5.7998V4.2002ZM22.75 5.7998C22.75 6.87401 21.874 7.75 20.7998 7.75H17.2002C16.126 7.75 15.25 6.87401 15.25 5.7998V4.2002C15.25 3.12599 16.126 2.25 17.2002 2.25H20.7998C21.874 2.25 22.75 3.12599 22.75 4.2002V5.7998Z" fill="#1C252E"/>
<path d="M21.25 11.7002C21.25 11.4544 21.0456 11.25 20.7998 11.25H17.2002C16.9544 11.25 16.75 11.4544 16.75 11.7002V13.2998C16.75 13.5456 16.9544 13.75 17.2002 13.75H20.7998C21.0456 13.75 21.25 13.5456 21.25 13.2998V11.7002ZM22.75 13.2998C22.75 14.374 21.874 15.25 20.7998 15.25H17.2002C16.126 15.25 15.25 14.374 15.25 13.2998V11.7002C15.25 10.626 16.126 9.75 17.2002 9.75H20.7998C21.874 9.75 22.75 10.626 22.75 11.7002V13.2998Z" fill="#1C252E"/>
<path d="M16 4.25C16.4142 4.25 16.75 4.58579 16.75 5C16.75 5.41421 16.4142 5.75 16 5.75H9C8.58579 5.75 8.25 5.41421 8.25 5C8.25 4.58579 8.58579 4.25 9 4.25H16Z" fill="#1C252E"/>
<path d="M11.75 18V5C11.75 4.58579 12.0858 4.25 12.5 4.25C12.9142 4.25 13.25 4.58579 13.25 5V18C13.25 18.6858 13.8142 19.25 14.5 19.25H16C16.4142 19.25 16.75 19.5858 16.75 20C16.75 20.4142 16.4142 20.75 16 20.75H14.5C12.9858 20.75 11.75 19.5142 11.75 18Z" fill="#1C252E"/>
<path d="M16 11.75C16.4142 11.75 16.75 12.0858 16.75 12.5C16.75 12.9142 16.4142 13.25 16 13.25H12.5C12.0858 13.25 11.75 12.9142 11.75 12.5C11.75 12.0858 12.0858 11.75 12.5 11.75H16Z" fill="#1C252E"/>
<path d="M21.25 19.2002C21.25 18.9544 21.0456 18.75 20.7998 18.75H17.2002C16.9544 18.75 16.75 18.9544 16.75 19.2002V20.7998C16.75 21.0456 16.9544 21.25 17.2002 21.25H20.7998C21.0456 21.25 21.25 21.0456 21.25 20.7998V19.2002ZM22.75 20.7998C22.75 21.874 21.874 22.75 20.7998 22.75H17.2002C16.126 22.75 15.25 21.874 15.25 20.7998V19.2002C15.25 18.126 16.126 17.25 17.2002 17.25H20.7998C21.874 17.25 22.75 18.126 22.75 19.2002V20.7998Z" fill="#1C252E"/>
</svg>
