<svg width="24" height="24" viewBox="0 0 24 24" fill="none" xmlns="http://www.w3.org/2000/svg">
<path d="M7.46967 9.46967C7.76256 9.17678 8.23732 9.17678 8.53022 9.46967C8.82311 9.76256 8.82311 10.2373 8.53022 10.5302L7.06049 11.9999L8.53022 13.4697C8.82311 13.7626 8.82311 14.2373 8.53022 14.5302C8.23732 14.8231 7.76256 14.8231 7.46967 14.5302L5.46967 12.5302C5.17678 12.2373 5.17678 11.7626 5.46967 11.4697L7.46967 9.46967Z" fill="#1C252E"/>
<path d="M15.4697 9.46967C15.7626 9.17678 16.2373 9.17678 16.5302 9.46967L18.5302 11.4697C18.8231 11.7626 18.8231 12.2373 18.5302 12.5302L16.5302 14.5302C16.2373 14.8231 15.7626 14.8231 15.4697 14.5302C15.1768 14.2373 15.1768 13.7626 15.4697 13.4697L16.9394 11.9999L15.4697 10.5302C15.1768 10.2373 15.1768 9.76256 15.4697 9.46967Z" fill="#1C252E"/>
<path d="M21.25 12C21.25 6.89137 17.1086 2.75 12 2.75C6.89137 2.75 2.75 6.89137 2.75 12C2.75 17.1086 6.89137 21.25 12 21.25C17.1086 21.25 21.25 17.1086 21.25 12ZM22.75 12C22.75 17.9371 17.9371 22.75 12 22.75C6.06294 22.75 1.25 17.9371 1.25 12C1.25 6.06294 6.06294 1.25 12 1.25C17.9371 1.25 22.75 6.06294 22.75 12Z" fill="#1C252E"/>
<path d="M12.3109 9.37407C12.4743 8.99343 12.9156 8.81716 13.2963 8.98052C13.6769 9.14388 13.8532 9.58523 13.6898 9.96587L11.6898 14.626C11.5264 15.0066 11.0851 15.1829 10.7045 15.0196C10.3239 14.8562 10.1476 14.4148 10.3109 14.0342L12.3109 9.37407Z" fill="#1C252E"/>
</svg>
