<svg width="24" height="24" viewBox="0 0 24 24" fill="none" xmlns="http://www.w3.org/2000/svg">
<path d="M20.25 17V7C20.25 5.61505 19.9034 4.57576 19.2627 3.88574C18.6313 3.20579 17.607 2.75 16 2.75H8C6.39295 2.75 5.36869 3.20579 4.7373 3.88574C4.09664 4.57576 3.75 5.61505 3.75 7V14C3.75 14.4142 3.41421 14.75 3 14.75C2.58579 14.75 2.25 14.4142 2.25 14V7C2.25 5.38503 2.65342 3.92424 3.6377 2.86426C4.63131 1.79429 6.10712 1.25 8 1.25H16C17.8929 1.25 19.3687 1.79429 20.3623 2.86426C21.3466 3.92424 21.75 5.38503 21.75 7V17C21.75 18.615 21.3466 20.0758 20.3623 21.1357C19.3687 22.2057 17.8929 22.75 16 22.75H11C10.5858 22.75 10.25 22.4142 10.25 22C10.25 21.5858 10.5858 21.25 11 21.25H16C17.607 21.25 18.6313 20.7942 19.2627 20.1143C19.9034 19.4242 20.25 18.385 20.25 17Z" fill="#1C252E"/>
<path d="M13.75 6.5V4.5C13.75 4.08579 14.0858 3.75 14.5 3.75C14.9142 3.75 15.25 4.08579 15.25 4.5V6.5C15.25 7.18579 15.8142 7.75 16.5 7.75H18.5C18.9142 7.75 19.25 8.08579 19.25 8.5C19.25 8.91421 18.9142 9.25 18.5 9.25H16.5C14.9858 9.25 13.75 8.01421 13.75 6.5Z" fill="#1C252E"/>
<path d="M3.46967 16.4697C3.76256 16.1768 4.23732 16.1768 4.53022 16.4697C4.82311 16.7626 4.82311 17.2373 4.53022 17.5302L3.06049 18.9999L4.53022 20.4697C4.82311 20.7626 4.82311 21.2373 4.53022 21.5302C4.23732 21.8231 3.76256 21.8231 3.46967 21.5302L1.46967 19.5302C1.17678 19.2373 1.17678 18.7626 1.46967 18.4697L3.46967 16.4697Z" fill="#1C252E"/>
<path d="M6.46967 16.4697C6.76256 16.1768 7.23732 16.1768 7.53022 16.4697L9.53022 18.4697C9.82311 18.7626 9.82311 19.2373 9.53022 19.5302L7.53022 21.5302C7.23732 21.8231 6.76256 21.8231 6.46967 21.5302C6.17678 21.2373 6.17678 20.7626 6.46967 20.4697L7.9394 18.9999L6.46967 17.5302C6.17678 17.2373 6.17678 16.7626 6.46967 16.4697Z" fill="#1C252E"/>
</svg>
