<svg width="24" height="24" viewBox="0 0 24 24" fill="none" xmlns="http://www.w3.org/2000/svg">
<path d="M4.25 16V9C4.25 8.58579 4.58579 8.25 5 8.25C5.41421 8.25 5.75 8.58579 5.75 9V16C5.75 16.4142 5.41421 16.75 5 16.75C4.58579 16.75 4.25 16.4142 4.25 16Z" fill="#1C252E"/>
<path d="M7.75 5.25C7.75 3.86929 6.63071 2.75 5.25 2.75C3.86929 2.75 2.75 3.86929 2.75 5.25C2.75 6.63071 3.86929 7.75 5.25 7.75C6.63071 7.75 7.75 6.63071 7.75 5.25ZM9.25 5.25C9.25 7.45914 7.45914 9.25 5.25 9.25C3.04086 9.25 1.25 7.45914 1.25 5.25C1.25 3.04086 3.04086 1.25 5.25 1.25C7.45914 1.25 9.25 3.04086 9.25 5.25Z" fill="#1C252E"/>
<path d="M7.25 19C7.25 17.7574 6.24264 16.75 5 16.75C3.75736 16.75 2.75 17.7574 2.75 19C2.75 20.2426 3.75736 21.25 5 21.25C6.24264 21.25 7.25 20.2426 7.25 19ZM8.75 19C8.75 21.0711 7.07107 22.75 5 22.75C2.92893 22.75 1.25 21.0711 1.25 19C1.25 16.9289 2.92893 15.25 5 15.25C7.07107 15.25 8.75 16.9289 8.75 19Z" fill="#1C252E"/>
<path d="M21.25 19C21.25 17.7574 20.2426 16.75 19 16.75C17.7574 16.75 16.75 17.7574 16.75 19C16.75 20.2426 17.7574 21.25 19 21.25C20.2426 21.25 21.25 20.2426 21.25 19ZM22.75 19C22.75 21.0711 21.0711 22.75 19 22.75C16.9289 22.75 15.25 21.0711 15.25 19C15.25 16.9289 16.9289 15.25 19 15.25C21.0711 15.25 22.75 16.9289 22.75 19Z" fill="#1C252E"/>
<path d="M4.94363 8.27341C5.34471 8.17044 5.75359 8.41238 5.85672 8.81345C6.2236 10.2396 7.52939 11.2979 9.0657 11.29H9.06766L12.4973 11.2802C15.4482 11.269 17.9563 13.1611 18.8782 15.792C19.0151 16.1828 18.8091 16.611 18.4182 16.748C18.0273 16.885 17.5992 16.679 17.4622 16.2881C16.7441 14.239 14.7922 12.7716 12.5032 12.7802H12.5022L9.07352 12.789L9.07254 12.79L9.07156 12.789C6.82931 12.7997 4.93658 11.2592 4.4036 9.18649C4.30063 8.78542 4.54257 8.37654 4.94363 8.27341Z" fill="#1C252E"/>
</svg>
