<svg width="24" height="24" viewBox="0 0 24 24" fill="none" xmlns="http://www.w3.org/2000/svg">
<path d="M21.25 13V9C21.25 6.57397 20.7603 5.0708 19.8447 4.15527C18.9292 3.23974 17.426 2.75 15 2.75H9C6.57397 2.75 5.0708 3.23974 4.15527 4.15527C3.23974 5.0708 2.75 6.57397 2.75 9V15C2.75 17.426 3.23974 18.9292 4.15527 19.8447C5.0708 20.7603 6.57397 21.25 9 21.25H14C14.4142 21.25 14.75 21.5858 14.75 22C14.75 22.4142 14.4142 22.75 14 22.75H9C6.42603 22.75 4.4292 22.2397 3.09473 20.9053C1.76026 19.5708 1.25 17.574 1.25 15V9C1.25 6.42603 1.76026 4.4292 3.09473 3.09473C4.4292 1.76026 6.42603 1.25 9 1.25H15C17.574 1.25 19.5708 1.76026 20.9053 3.09473C22.2397 4.4292 22.75 6.42603 22.75 9V13C22.75 13.4142 22.4142 13.75 22 13.75C21.5858 13.75 21.25 13.4142 21.25 13Z" fill="#1C252E"/>
<path d="M18.25 16C18.25 15.5858 18.5858 15.25 19 15.25C19.4142 15.25 19.75 15.5858 19.75 16V20.1895L20.4697 19.4697C20.7626 19.1768 21.2374 19.1768 21.5303 19.4697C21.8232 19.7626 21.8232 20.2374 21.5303 20.5303L19.5303 22.5303C19.3158 22.7448 18.9931 22.8094 18.7129 22.6934C18.4326 22.5773 18.25 22.3033 18.25 22V16Z" fill="#1C252E"/>
<path d="M16.4697 19.4697C16.7626 19.1768 17.2373 19.1768 17.5302 19.4697L19.5302 21.4697C19.8231 21.7626 19.8231 22.2373 19.5302 22.5302C19.2373 22.8231 18.7626 22.8231 18.4697 22.5302L16.4697 20.5302C16.1768 20.2373 16.1768 19.7626 16.4697 19.4697Z" fill="#1C252E"/>
<path d="M10.0329 5.51489C10.4445 5.56063 10.7417 5.93139 10.696 6.34302L9.64523 15.8127C9.59953 16.2244 9.22876 16.5215 8.81711 16.4758C8.40568 16.43 8.10954 16.0592 8.155 15.6477L9.2048 6.177C9.25063 5.7655 9.62136 5.46926 10.0329 5.51489Z" fill="#1C252E"/>
<path d="M13.1931 5.51489C13.6047 5.56063 13.9018 5.93139 13.8562 6.34302L12.8054 15.8127C12.7597 16.2244 12.3889 16.5215 11.9773 16.4758C11.5658 16.43 11.2697 16.0592 11.3152 15.6477L12.365 6.177C12.4108 5.7655 12.7815 5.46926 13.1931 5.51489Z" fill="#1C252E"/>
<path d="M16 8.67004C16.4142 8.67004 16.75 9.00583 16.75 9.42004C16.75 9.83426 16.4142 10.17 16 10.17H6.53027C6.11606 10.17 5.78027 9.83426 5.78027 9.42004C5.78027 9.00583 6.11606 8.67004 6.53027 8.67004H16Z" fill="#1C252E"/>
<path d="M15.4697 11.83C15.8839 11.83 16.2197 12.1657 16.2197 12.58C16.2197 12.9942 15.8839 13.33 15.4697 13.33H6C5.58579 13.33 5.25 12.9942 5.25 12.58C5.25 12.1657 5.58579 11.83 6 11.83H15.4697Z" fill="#1C252E"/>
</svg>
