<svg width="24" height="24" viewBox="0 0 24 24" fill="none" xmlns="http://www.w3.org/2000/svg">
<path d="M10.0828 2.2549C10.4944 2.30075 10.7906 2.67142 10.7449 3.08303L8.74489 21.083C8.69904 21.4946 8.32837 21.7909 7.91677 21.7451C7.5052 21.6993 7.20892 21.3286 7.25466 20.917L9.25466 2.91701C9.3005 2.50544 9.67117 2.20917 10.0828 2.2549Z" fill="#1C252E"/>
<path d="M16.0828 2.2549C16.4944 2.30075 16.7906 2.67142 16.7449 3.08303L14.7449 21.083C14.699 21.4946 14.3284 21.7909 13.9168 21.7451C13.5052 21.6993 13.2089 21.3286 13.2547 20.917L15.2547 2.91701C15.3005 2.50544 15.6712 2.20917 16.0828 2.2549Z" fill="#1C252E"/>
<path d="M21.5 8.25C21.9142 8.25 22.25 8.58579 22.25 9C22.25 9.41421 21.9142 9.75 21.5 9.75H3.5C3.08579 9.75 2.75 9.41421 2.75 9C2.75 8.58579 3.08579 8.25 3.5 8.25H21.5Z" fill="#1C252E"/>
<path d="M20.5 14.25C20.9142 14.25 21.25 14.5858 21.25 15C21.25 15.4142 20.9142 15.75 20.5 15.75H2.5C2.08579 15.75 1.75 15.4142 1.75 15C1.75 14.5858 2.08579 14.25 2.5 14.25H20.5Z" fill="#1C252E"/>
</svg>
