<svg width="24" height="24" viewBox="0 0 24 24" fill="none" xmlns="http://www.w3.org/2000/svg">
<path d="M18.25 16V6.5C18.25 5.81421 17.6858 5.25 17 5.25H11.5C11.0858 5.25 10.75 4.91421 10.75 4.5C10.75 4.08579 11.0858 3.75 11.5 3.75H17C18.5142 3.75 19.75 4.98579 19.75 6.5V16C19.75 16.4142 19.4142 16.75 19 16.75C18.5858 16.75 18.25 16.4142 18.25 16Z" fill="#1C252E"/>
<path d="M13.5195 1.42382C13.8377 1.1587 14.311 1.20149 14.5762 1.51952C14.8413 1.83766 14.7985 2.31096 14.4805 2.57616L12.1719 4.49999L14.4805 6.42382C14.7985 6.68902 14.8413 7.16231 14.5762 7.48046C14.311 7.79849 13.8377 7.84128 13.5195 7.57616L10.5195 5.07616C10.3487 4.93367 10.25 4.72249 10.25 4.49999C10.25 4.27749 10.3487 4.06631 10.5195 3.92382L13.5195 1.42382Z" fill="#1C252E"/>
<path d="M21.25 19C21.25 17.7574 20.2426 16.75 19 16.75C17.7574 16.75 16.75 17.7574 16.75 19C16.75 20.2426 17.7574 21.25 19 21.25C20.2426 21.25 21.25 20.2426 21.25 19ZM22.75 19C22.75 21.0711 21.0711 22.75 19 22.75C16.9289 22.75 15.25 21.0711 15.25 19C15.25 16.9289 16.9289 15.25 19 15.25C21.0711 15.25 22.75 16.9289 22.75 19Z" fill="#1C252E"/>
<path d="M4.25 17.5V8C4.25 7.58579 4.58579 7.25 5 7.25C5.41421 7.25 5.75 7.58579 5.75 8V17.5C5.75 18.1858 6.31421 18.75 7 18.75H12.5C12.9142 18.75 13.25 19.0858 13.25 19.5C13.25 19.9142 12.9142 20.25 12.5 20.25H7C5.48579 20.25 4.25 19.0142 4.25 17.5Z" fill="#1C252E"/>
<path d="M9.42391 16.5195C9.68911 16.2015 10.1624 16.1587 10.4805 16.4238L13.4805 18.9238C13.6514 19.0663 13.7501 19.2775 13.7501 19.5C13.7501 19.7225 13.6514 19.9337 13.4805 20.0762L10.4805 22.5762C10.1624 22.8413 9.68911 22.7985 9.42391 22.4805C9.15879 22.1623 9.20158 21.689 9.51961 21.4238L11.8282 19.5L9.51961 17.5762C9.20158 17.311 9.15879 16.8377 9.42391 16.5195Z" fill="#1C252E"/>
<path d="M7.25 5C7.25 3.75736 6.24264 2.75 5 2.75C3.75736 2.75 2.75 3.75736 2.75 5C2.75 6.24264 3.75736 7.25 5 7.25C6.24264 7.25 7.25 6.24264 7.25 5ZM8.75 5C8.75 7.07107 7.07107 8.75 5 8.75C2.92893 8.75 1.25 7.07107 1.25 5C1.25 2.92893 2.92893 1.25 5 1.25C7.07107 1.25 8.75 2.92893 8.75 5Z" fill="#1C252E"/>
</svg>
