<svg width="24" height="24" viewBox="0 0 24 24" fill="none" xmlns="http://www.w3.org/2000/svg">
<path d="M21.2197 9C21.2197 6.57397 20.73 5.0708 19.8145 4.15527C18.8989 3.23974 17.3958 2.75 14.9697 2.75H8.96973C6.5437 2.75 5.04053 3.23974 4.125 4.15527C3.20947 5.0708 2.71973 6.57397 2.71973 9V15C2.71973 17.426 3.20947 18.9292 4.125 19.8447C5.04053 20.7603 6.5437 21.25 8.96973 21.25H14.9697C17.3958 21.25 18.8989 20.7603 19.8145 19.8447C20.73 18.9292 21.2197 17.426 21.2197 15V9ZM22.7197 15C22.7197 17.574 22.2095 19.5708 20.875 20.9053C19.5405 22.2397 17.5437 22.75 14.9697 22.75H8.96973C6.39575 22.75 4.39892 22.2397 3.06445 20.9053C1.72998 19.5708 1.21973 17.574 1.21973 15V9C1.21973 6.42603 1.72998 4.4292 3.06445 3.09473C4.39892 1.76026 6.39575 1.25 8.96973 1.25H14.9697C17.5437 1.25 19.5405 1.76026 20.875 3.09473C22.2095 4.4292 22.7197 6.42603 22.7197 9V15Z" fill="#1C252E"/>
<path d="M22 14.75C22.4142 14.75 22.75 15.0858 22.75 15.5C22.75 15.9142 22.4142 16.25 22 16.25H2C1.58579 16.25 1.25 15.9142 1.25 15.5C1.25 15.0858 1.58579 14.75 2 14.75H22Z" fill="#1C252E"/>
<path d="M14.0302 7.96967C14.3231 7.67683 14.7979 7.6768 15.0908 7.96967C15.3836 8.26255 15.3836 8.73734 15.0908 9.03022L12.5302 11.5898C12.2373 11.8827 11.7626 11.8827 11.4697 11.5898L8.9101 9.03022C8.61721 8.73732 8.61721 8.26256 8.9101 7.96967C9.20299 7.67678 9.67775 7.67678 9.97065 7.96967L11.9999 9.99897L14.0302 7.96967Z" fill="#1C252E"/>
</svg>
