<svg width="24" height="24" viewBox="0 0 24 24" fill="none" xmlns="http://www.w3.org/2000/svg">
<path d="M21.25 13V9C21.25 6.57397 20.7603 5.0708 19.8447 4.15527C18.9292 3.23974 17.426 2.75 15 2.75H9C6.57397 2.75 5.0708 3.23974 4.15527 4.15527C3.23974 5.0708 2.75 6.57397 2.75 9V15C2.75 17.426 3.23974 18.9292 4.15527 19.8447C5.0708 20.7603 6.57397 21.25 9 21.25H15C15.4142 21.25 15.75 21.5858 15.75 22C15.75 22.4142 15.4142 22.75 15 22.75H9C6.42603 22.75 4.4292 22.2397 3.09473 20.9053C1.76026 19.5708 1.25 17.574 1.25 15V9C1.25 6.42603 1.76026 4.4292 3.09473 3.09473C4.4292 1.76026 6.42603 1.25 9 1.25H15C17.574 1.25 19.5708 1.76026 20.9053 3.09473C22.2397 4.4292 22.75 6.42603 22.75 9V13C22.75 13.4142 22.4142 13.75 22 13.75C21.5858 13.75 21.25 13.4142 21.25 13Z" fill="#1C252E"/>
<path d="M18.2499 22V17.8105L17.5302 18.5302C17.2373 18.8231 16.7626 18.8231 16.4697 18.5302C16.1768 18.2373 16.1768 17.7626 16.4697 17.4697L18.4697 15.4697C18.6841 15.2552 19.0068 15.1906 19.2871 15.3066C19.5673 15.4227 19.7499 15.6966 19.7499 16V22C19.7499 22.4142 19.4142 22.75 18.9999 22.75C18.5857 22.75 18.2499 22.4142 18.2499 22Z" fill="#1C252E"/>
<path d="M18.4697 15.4697C18.7626 15.1768 19.2373 15.1768 19.5302 15.4697L21.5302 17.4697C21.8231 17.7626 21.8231 18.2373 21.5302 18.5302C21.2373 18.8231 20.7626 18.8231 20.4697 18.5302L18.4697 16.5302C18.1768 16.2373 18.1768 15.7626 18.4697 15.4697Z" fill="#1C252E"/>
<path d="M10.0329 5.51489C10.4445 5.56063 10.7417 5.93139 10.696 6.34302L9.64523 15.8127C9.59953 16.2244 9.22876 16.5215 8.81711 16.4758C8.40568 16.43 8.10954 16.0592 8.155 15.6477L9.2048 6.177C9.25063 5.7655 9.62136 5.46926 10.0329 5.51489Z" fill="#1C252E"/>
<path d="M13.1931 5.51489C13.6047 5.56063 13.9018 5.93139 13.8562 6.34302L12.8054 15.8127C12.7597 16.2244 12.3889 16.5215 11.9773 16.4758C11.5658 16.43 11.2697 16.0592 11.3152 15.6477L12.365 6.177C12.4108 5.7655 12.7815 5.46926 13.1931 5.51489Z" fill="#1C252E"/>
<path d="M16 8.67004C16.4142 8.67004 16.75 9.00583 16.75 9.42004C16.75 9.83426 16.4142 10.17 16 10.17H6.53027C6.11606 10.17 5.78027 9.83426 5.78027 9.42004C5.78027 9.00583 6.11606 8.67004 6.53027 8.67004H16Z" fill="#1C252E"/>
<path d="M15.4697 11.83C15.8839 11.83 16.2197 12.1657 16.2197 12.58C16.2197 12.9942 15.8839 13.33 15.4697 13.33H6C5.58579 13.33 5.25 12.9942 5.25 12.58C5.25 12.1657 5.58579 11.83 6 11.83H15.4697Z" fill="#1C252E"/>
</svg>
