<svg width="24" height="24" viewBox="0 0 24 24" fill="none" xmlns="http://www.w3.org/2000/svg">
<path d="M18.25 16V6.5C18.25 5.81421 17.6858 5.25 17 5.25H12.5C12.0858 5.25 11.75 4.91421 11.75 4.5C11.75 4.08579 12.0858 3.75 12.5 3.75H17C18.5142 3.75 19.75 4.98579 19.75 6.5V16C19.75 16.4142 19.4142 16.75 19 16.75C18.5858 16.75 18.25 16.4142 18.25 16Z" fill="#1C252E"/>
<path d="M14.5195 1.42382C14.8377 1.1587 15.311 1.20149 15.5762 1.51952C15.8413 1.83766 15.7985 2.31096 15.4805 2.57616L13.1719 4.49999L15.4805 6.42382C15.7985 6.68902 15.8413 7.16231 15.5762 7.48046C15.311 7.79849 14.8377 7.84128 14.5195 7.57616L11.5195 5.07616C11.3487 4.93367 11.25 4.72249 11.25 4.49999C11.25 4.27749 11.3487 4.06631 11.5195 3.92382L14.5195 1.42382Z" fill="#1C252E"/>
<path d="M4.25 16V9C4.25 8.58579 4.58579 8.25 5 8.25C5.41421 8.25 5.75 8.58579 5.75 9V16C5.75 16.4142 5.41421 16.75 5 16.75C4.58579 16.75 4.25 16.4142 4.25 16Z" fill="#1C252E"/>
<path d="M7.75 5.25C7.75 3.86929 6.63071 2.75 5.25 2.75C3.86929 2.75 2.75 3.86929 2.75 5.25C2.75 6.63071 3.86929 7.75 5.25 7.75C6.63071 7.75 7.75 6.63071 7.75 5.25ZM9.25 5.25C9.25 7.45914 7.45914 9.25 5.25 9.25C3.04086 9.25 1.25 7.45914 1.25 5.25C1.25 3.04086 3.04086 1.25 5.25 1.25C7.45914 1.25 9.25 3.04086 9.25 5.25Z" fill="#1C252E"/>
<path d="M7.25 19C7.25 17.7574 6.24264 16.75 5 16.75C3.75736 16.75 2.75 17.7574 2.75 19C2.75 20.2426 3.75736 21.25 5 21.25C6.24264 21.25 7.25 20.2426 7.25 19ZM8.75 19C8.75 21.0711 7.07107 22.75 5 22.75C2.92893 22.75 1.25 21.0711 1.25 19C1.25 16.9289 2.92893 15.25 5 15.25C7.07107 15.25 8.75 16.9289 8.75 19Z" fill="#1C252E"/>
<path d="M21.25 19C21.25 17.7574 20.2426 16.75 19 16.75C17.7574 16.75 16.75 17.7574 16.75 19C16.75 20.2426 17.7574 21.25 19 21.25C20.2426 21.25 21.25 20.2426 21.25 19ZM22.75 19C22.75 21.0711 21.0711 22.75 19 22.75C16.9289 22.75 15.25 21.0711 15.25 19C15.25 16.9289 16.9289 15.25 19 15.25C21.0711 15.25 22.75 16.9289 22.75 19Z" fill="#1C252E"/>
</svg>
