<svg width="24" height="24" viewBox="0 0 24 24" fill="none" xmlns="http://www.w3.org/2000/svg">
<path d="M21.25 7.96997C21.25 6.08558 20.7795 4.80998 19.9697 4.00024C19.16 3.1905 17.8844 2.71997 16 2.71997H8C6.11561 2.71997 4.84001 3.1905 4.03027 4.00024C3.22053 4.80998 2.75 6.08558 2.75 7.96997V12.97C2.75 15.4053 3.24393 16.6241 3.99414 17.2805C4.76914 17.9585 6.01338 18.22 8 18.22H8.5C8.78571 18.22 9.0611 18.3067 9.28027 18.4163C9.49536 18.5238 9.72956 18.6906 9.89941 18.9202H9.90039L11.4004 20.9202C11.6095 21.1988 11.8338 21.2795 12 21.2795C12.1662 21.2795 12.3905 21.1988 12.5996 20.9202L14.1025 18.9163C14.4322 18.4825 14.952 18.22 15.5 18.22H16C17.8844 18.22 19.16 17.7494 19.9697 16.9397C20.7795 16.13 21.25 14.8544 21.25 12.97V7.96997ZM22.75 12.97C22.75 15.0856 22.2205 16.81 21.0303 18.0002C19.84 19.1905 18.1156 19.72 16 19.72H15.5C15.428 19.72 15.3472 19.7573 15.2969 19.8235L13.7998 21.8196C13.349 22.4207 12.7037 22.7795 12 22.7795C11.2963 22.7795 10.651 22.4207 10.2002 21.8196L8.7002 19.8196L8.69336 19.8108C8.70169 19.8222 8.70086 19.8184 8.68262 19.804C8.6652 19.7902 8.63986 19.7733 8.60938 19.7581C8.57916 19.743 8.55014 19.7322 8.52637 19.7258C8.50131 19.7191 8.49217 19.72 8.5 19.72H8C5.98674 19.72 4.23087 19.4813 3.00586 18.4094C1.75617 17.3158 1.25 15.5345 1.25 12.97V7.96997C1.25 5.85436 1.77947 4.12996 2.96973 2.9397C4.15999 1.74944 5.88439 1.21997 8 1.21997H16C18.1156 1.21997 19.84 1.74944 21.0303 2.9397C22.2205 4.12996 22.75 5.85436 22.75 7.96997V12.97Z" fill="#1C252E"/>
<path d="M7.46967 8.16974C7.76256 7.87685 8.23732 7.87685 8.53022 8.16974C8.82311 8.46264 8.82311 8.9374 8.53022 9.23029L7.06049 10.7L8.53022 12.1697C8.82311 12.4626 8.82311 12.9374 8.53022 13.2303C8.23732 13.5232 7.76256 13.5232 7.46967 13.2303L5.46967 11.2303C5.17678 10.9374 5.17678 10.4626 5.46967 10.1697L7.46967 8.16974Z" fill="#1C252E"/>
<path d="M15.4697 8.16974C15.7626 7.87685 16.2373 7.87685 16.5302 8.16974L18.5302 10.1697C18.8231 10.4626 18.8231 10.9374 18.5302 11.2303L16.5302 13.2303C16.2373 13.5232 15.7626 13.5232 15.4697 13.2303C15.1768 12.9374 15.1768 12.4626 15.4697 12.1697L16.9394 10.7L15.4697 9.23029C15.1768 8.9374 15.1768 8.46264 15.4697 8.16974Z" fill="#1C252E"/>
<path d="M12.3109 8.07415C12.4743 7.69351 12.9156 7.51723 13.2963 7.68059C13.6769 7.84395 13.8532 8.2853 13.6898 8.66594L11.6898 13.3261C11.5264 13.7067 11.0851 13.883 10.7045 13.7197C10.3239 13.5563 10.1476 13.1149 10.3109 12.7343L12.3109 8.07415Z" fill="#1C252E"/>
</svg>
