<svg width="24" height="24" viewBox="0 0 24 24" fill="none" xmlns="http://www.w3.org/2000/svg">
<path d="M7.0498 13.8002V9.59998C7.0498 9.18576 7.38559 8.84998 7.7998 8.84998C8.21402 8.84998 8.5498 9.18576 8.5498 9.59998V13.8002C8.54969 14.2143 8.21395 14.5502 7.7998 14.5502C7.38566 14.5502 7.04992 14.2143 7.0498 13.8002Z" fill="#1C252E"/>
<path d="M9.15039 16.0502C9.15039 15.3875 8.61287 14.8501 7.9502 14.85C7.28744 14.85 6.75 15.3874 6.75 16.0502C6.75012 16.7128 7.28752 17.2504 7.9502 17.2504C8.61278 17.2503 9.15028 16.7128 9.15039 16.0502ZM10.6504 16.0502C10.6503 17.5412 9.44121 18.7503 7.9502 18.7504C6.4591 18.7504 5.25012 17.5412 5.25 16.0502C5.25 14.559 6.45904 13.35 7.9502 13.35C9.44126 13.3501 10.6504 14.559 10.6504 16.0502Z" fill="#1C252E"/>
<path d="M8.84961 7.7998C8.84951 7.21999 8.37964 6.75 7.7998 6.75C7.22005 6.7501 6.7501 7.22005 6.75 7.7998C6.75 8.37966 7.22001 8.84951 7.7998 8.84961C8.37969 8.84961 8.84961 8.37972 8.84961 7.7998ZM10.3496 7.7998C10.3496 9.20811 9.20815 10.3496 7.7998 10.3496C6.39155 10.3495 5.25 9.20805 5.25 7.7998C5.2501 6.39162 6.39162 5.2501 7.7998 5.25C9.20807 5.25 10.3495 6.39156 10.3496 7.7998Z" fill="#1C252E"/>
<path d="M17.25 7.7998C17.2499 7.21999 16.78 6.75 16.2002 6.75C15.6204 6.7501 15.1505 7.22005 15.1504 7.7998C15.1504 8.37966 15.6204 8.84951 16.2002 8.84961C16.7801 8.84961 17.25 8.37972 17.25 7.7998ZM18.75 7.7998C18.75 9.20811 17.6085 10.3496 16.2002 10.3496C14.7919 10.3495 13.6504 9.20805 13.6504 7.7998C13.6505 6.39162 14.792 5.2501 16.2002 5.25C17.6085 5.25 18.7499 6.39156 18.75 7.7998Z" fill="#1C252E"/>
<path d="M14.9915 9.33392C15.1275 8.94265 15.5554 8.73603 15.9466 8.872C16.3377 9.00809 16.5444 9.43496 16.4085 9.8261C15.8173 11.5274 14.1992 12.751 12.2962 12.7392L10.2367 12.7304H10.2337C9.46013 12.7236 8.79386 13.2597 8.60678 13.9872C8.50349 14.3881 8.09466 14.6293 7.6937 14.5263C7.29254 14.4231 7.05052 14.0144 7.15366 13.6132C7.50647 12.2412 8.75967 11.2179 10.2455 11.2304L12.304 11.2402H12.305C13.5416 11.248 14.6028 10.4523 14.9915 9.33392Z" fill="#1C252E"/>
<path d="M21.25 9C21.25 6.57397 20.7603 5.0708 19.8447 4.15527C18.9292 3.23974 17.426 2.75 15 2.75H9C6.57397 2.75 5.0708 3.23974 4.15527 4.15527C3.23974 5.0708 2.75 6.57397 2.75 9V15C2.75 17.426 3.23974 18.9292 4.15527 19.8447C5.0708 20.7603 6.57397 21.25 9 21.25H15C17.426 21.25 18.9292 20.7603 19.8447 19.8447C20.7603 18.9292 21.25 17.426 21.25 15V9ZM22.75 15C22.75 17.574 22.2397 19.5708 20.9053 20.9053C19.5708 22.2397 17.574 22.75 15 22.75H9C6.42603 22.75 4.4292 22.2397 3.09473 20.9053C1.76026 19.5708 1.25 17.574 1.25 15V9C1.25 6.42603 1.76026 4.4292 3.09473 3.09473C4.4292 1.76026 6.42603 1.25 9 1.25H15C17.574 1.25 19.5708 1.76026 20.9053 3.09473C22.2397 4.4292 22.75 6.42603 22.75 9V15Z" fill="#1C252E"/>
</svg>
