<svg width="24" height="24" viewBox="0 0 24 24" fill="none" xmlns="http://www.w3.org/2000/svg">
<path d="M8.91518 1.25002C9.32929 1.24194 9.67171 1.57126 9.67983 1.98538L9.71011 3.51565H9.70913C9.72136 3.92113 10.0627 4.25002 10.4601 4.25002H13.4796C13.8922 4.25002 14.2296 3.90907 14.2296 3.50002V2.00002C14.2296 1.58588 14.5655 1.25014 14.9796 1.25002C15.3939 1.25002 15.7296 1.58581 15.7296 2.00002V3.50002C15.7296 4.73098 14.7271 5.75002 13.4796 5.75002H10.4601C9.23898 5.75002 8.2402 4.76136 8.21011 3.54885V3.54495L8.17983 2.01467C8.17174 1.60056 8.50107 1.25814 8.91518 1.25002Z" fill="#1C252E"/>
<path d="M16.4697 16.4697C16.7626 16.1768 17.2373 16.1768 17.5302 16.4697C17.8231 16.7626 17.8231 17.2373 17.5302 17.5302L16.0605 18.9999L17.5302 20.4697C17.8231 20.7626 17.8231 21.2373 17.5302 21.5302C17.2373 21.8231 16.7626 21.8231 16.4697 21.5302L14.4697 19.5302C14.1768 19.2373 14.1768 18.7626 14.4697 18.4697L16.4697 16.4697Z" fill="#1C252E"/>
<path d="M19.4697 16.4697C19.7626 16.1768 20.2373 16.1768 20.5302 16.4697L22.5302 18.4697C22.8231 18.7626 22.8231 19.2373 22.5302 19.5302L20.5302 21.5302C20.2373 21.8231 19.7626 21.8231 19.4697 21.5302C19.1768 21.2373 19.1768 20.7626 19.4697 20.4697L20.9394 18.9999L19.4697 17.5302C19.1768 17.2373 19.1768 16.7626 19.4697 16.4697Z" fill="#1C252E"/>
<path d="M20.25 14V7C20.25 5.61505 19.9034 4.57576 19.2627 3.88574C18.6313 3.20579 17.607 2.75 16 2.75H8C6.39295 2.75 5.36869 3.20579 4.7373 3.88574C4.09664 4.57576 3.75 5.61505 3.75 7V17C3.75 18.385 4.09664 19.4242 4.7373 20.1143C5.36869 20.7942 6.39295 21.25 8 21.25H13C13.4142 21.25 13.75 21.5858 13.75 22C13.75 22.4142 13.4142 22.75 13 22.75H8C6.10712 22.75 4.63131 22.2057 3.6377 21.1357C2.65342 20.0758 2.25 18.615 2.25 17V7C2.25 5.38503 2.65342 3.92424 3.6377 2.86426C4.63131 1.79429 6.10712 1.25 8 1.25H16C17.8929 1.25 19.3687 1.79429 20.3623 2.86426C21.3466 3.92424 21.75 5.38503 21.75 7V14C21.75 14.4142 21.4142 14.75 21 14.75C20.5858 14.75 20.25 14.4142 20.25 14Z" fill="#1C252E"/>
</svg>
