<svg width="24" height="24" viewBox="0 0 24 24" fill="none" xmlns="http://www.w3.org/2000/svg">
<path d="M7.0498 14.4002V10.2C7.0498 9.7858 7.38559 9.45001 7.7998 9.45001C8.21402 9.45001 8.5498 9.7858 8.5498 10.2V14.4002C8.54969 14.8143 8.21395 15.1502 7.7998 15.1502C7.38566 15.1502 7.04992 14.8143 7.0498 14.4002Z" fill="#1C252E"/>
<path d="M9.15039 7.9502C9.15039 7.28751 8.61285 6.7501 7.9502 6.75C7.28745 6.75 6.75 7.28745 6.75 7.9502C6.7501 8.61284 7.2875 9.15039 7.9502 9.15039C8.61281 9.15029 9.15029 8.61278 9.15039 7.9502ZM10.6504 7.9502C10.6503 9.44123 9.4412 10.6503 7.9502 10.6504C6.4591 10.6504 5.2501 9.4413 5.25 7.9502C5.25 6.45903 6.45903 5.25 7.9502 5.25C9.44128 5.2501 10.6504 6.45909 10.6504 7.9502Z" fill="#1C252E"/>
<path d="M8.84961 16.1998C8.84949 15.62 8.37962 15.15 7.7998 15.15C7.22008 15.1501 6.75012 15.6201 6.75 16.1998C6.75 16.7797 7.21999 17.2495 7.7998 17.2496C8.3797 17.2496 8.84961 16.7797 8.84961 16.1998ZM10.3496 16.1998C10.3496 17.6082 9.20813 18.7496 7.7998 18.7496C6.39156 18.7495 5.25 17.6081 5.25 16.1998C5.25012 14.7917 6.39162 13.6501 7.7998 13.65C9.20808 13.65 10.3495 14.7916 10.3496 16.1998Z" fill="#1C252E"/>
<path d="M17.25 16.1998C17.2499 15.62 16.78 15.15 16.2002 15.15C15.6205 15.1501 15.1505 15.6201 15.1504 16.1998C15.1504 16.7797 15.6204 17.2495 16.2002 17.2496C16.7801 17.2496 17.25 16.7797 17.25 16.1998ZM18.75 16.1998C18.75 17.6082 17.6085 18.7496 16.2002 18.7496C14.792 18.7495 13.6504 17.6081 13.6504 16.1998C13.6505 14.7917 14.792 13.6501 16.2002 13.65C17.6085 13.65 18.7499 14.7916 18.75 16.1998Z" fill="#1C252E"/>
<path d="M7.69363 9.47342C8.09471 9.37045 8.50359 9.61239 8.60672 10.0135C8.7939 10.7409 9.46017 11.2771 10.2337 11.2703H10.2366L12.2952 11.2596C14.1984 11.2474 15.8171 12.4722 16.4085 14.1736C16.5444 14.5648 16.3378 14.9927 15.9466 15.1287C15.5553 15.2647 15.1275 15.0571 14.9915 14.6658C14.6027 13.5476 13.5415 12.7517 12.305 12.7596H12.304L10.2434 12.7703L10.2425 12.7693C8.75796 12.7805 7.50617 11.7576 7.1536 10.3865C7.05063 9.98544 7.29257 9.57655 7.69363 9.47342Z" fill="#1C252E"/>
<path d="M21.25 9C21.25 6.57397 20.7603 5.0708 19.8447 4.15527C18.9292 3.23974 17.426 2.75 15 2.75H9C6.57397 2.75 5.0708 3.23974 4.15527 4.15527C3.23974 5.0708 2.75 6.57397 2.75 9V15C2.75 17.426 3.23974 18.9292 4.15527 19.8447C5.0708 20.7603 6.57397 21.25 9 21.25H15C17.426 21.25 18.9292 20.7603 19.8447 19.8447C20.7603 18.9292 21.25 17.426 21.25 15V9ZM22.75 15C22.75 17.574 22.2397 19.5708 20.9053 20.9053C19.5708 22.2397 17.574 22.75 15 22.75H9C6.42603 22.75 4.4292 22.2397 3.09473 20.9053C1.76026 19.5708 1.25 17.574 1.25 15V9C1.25 6.42603 1.76026 4.4292 3.09473 3.09473C4.4292 1.76026 6.42603 1.25 9 1.25H15C17.574 1.25 19.5708 1.76026 20.9053 3.09473C22.2397 4.4292 22.75 6.42603 22.75 9V15Z" fill="#1C252E"/>
</svg>
