<svg width="24" height="24" viewBox="0 0 24 24" fill="none" xmlns="http://www.w3.org/2000/svg">
<path d="M4.25 15V8C4.25 7.58579 4.58579 7.25 5 7.25C5.41421 7.25 5.75 7.58579 5.75 8V15C5.75 15.4142 5.41421 15.75 5 15.75C4.58579 15.75 4.25 15.4142 4.25 15Z" fill="#1C252E"/>
<path d="M7.75 18.75C7.75 17.3693 6.63071 16.25 5.25 16.25C3.86929 16.25 2.75 17.3693 2.75 18.75C2.75 20.1307 3.86929 21.25 5.25 21.25C6.63071 21.25 7.75 20.1307 7.75 18.75ZM9.25 18.75C9.25 20.9591 7.45914 22.75 5.25 22.75C3.04086 22.75 1.25 20.9591 1.25 18.75C1.25 16.5409 3.04086 14.75 5.25 14.75C7.45914 14.75 9.25 16.5409 9.25 18.75Z" fill="#1C252E"/>
<path d="M7.25 5C7.25 3.75736 6.24264 2.75 5 2.75C3.75736 2.75 2.75 3.75736 2.75 5C2.75 6.24264 3.75736 7.25 5 7.25C6.24264 7.25 7.25 6.24264 7.25 5ZM8.75 5C8.75 7.07107 7.07107 8.75 5 8.75C2.92893 8.75 1.25 7.07107 1.25 5C1.25 2.92893 2.92893 1.25 5 1.25C7.07107 1.25 8.75 2.92893 8.75 5Z" fill="#1C252E"/>
<path d="M21.25 5C21.25 3.75736 20.2426 2.75 19 2.75C17.7574 2.75 16.75 3.75736 16.75 5C16.75 6.24264 17.7574 7.25 19 7.25C20.2426 7.25 21.25 6.24264 21.25 5ZM22.75 5C22.75 7.07107 21.0711 8.75 19 8.75C16.9289 8.75 15.25 7.07107 15.25 5C15.25 2.92893 16.9289 1.25 19 1.25C21.0711 1.25 22.75 2.92893 22.75 5Z" fill="#1C252E"/>
<path d="M17.4622 7.71193C17.5992 7.32103 18.0273 7.115 18.4182 7.25197C18.8091 7.38895 19.0151 7.81714 18.8782 8.20803C17.9564 10.8386 15.4488 12.7296 12.4983 12.7188V12.7197L9.06765 12.71H9.0657C7.52937 12.7021 6.22358 13.7603 5.85671 15.1865C5.75358 15.5876 5.3447 15.8295 4.94363 15.7266C4.54257 15.6235 4.30064 15.2146 4.40359 14.8135C4.93657 12.7408 6.8293 11.1993 9.07156 11.21L12.5022 11.2197H12.5032C14.7922 11.2284 16.7441 9.76095 17.4622 7.71193Z" fill="#1C252E"/>
</svg>
