<svg width="24" height="24" viewBox="0 0 24 24" fill="none" xmlns="http://www.w3.org/2000/svg">
<path d="M21.25 9C21.25 6.57397 20.7603 5.0708 19.8447 4.15527C18.9292 3.23974 17.426 2.75 15 2.75H9C6.57397 2.75 5.0708 3.23974 4.15527 4.15527C3.23974 5.0708 2.75 6.57397 2.75 9V15C2.75 17.426 3.23974 18.9292 4.15527 19.8447C5.0708 20.7603 6.57397 21.25 9 21.25H15C17.426 21.25 18.9292 20.7603 19.8447 19.8447C20.7603 18.9292 21.25 17.426 21.25 15V9ZM22.75 15C22.75 17.574 22.2397 19.5708 20.9053 20.9053C19.5708 22.2397 17.574 22.75 15 22.75H9C6.42603 22.75 4.4292 22.2397 3.09473 20.9053C1.76026 19.5708 1.25 17.574 1.25 15V9C1.25 6.42603 1.76026 4.4292 3.09473 3.09473C4.4292 1.76026 6.42603 1.25 9 1.25H15C17.574 1.25 19.5708 1.76026 20.9053 3.09473C22.2397 4.4292 22.75 6.42603 22.75 9V15Z" fill="#1C252E"/>
<path d="M9.06897 8.43976C9.36186 8.14687 9.8376 8.14687 10.1305 8.43976C10.423 8.73259 10.423 9.20748 10.1305 9.50031L7.64221 11.9876V12.0013L10.1305 14.4896C10.4231 14.7824 10.423 15.2572 10.1305 15.5501C9.8376 15.843 9.36186 15.843 9.06897 15.5501L6.57971 13.0599C5.99689 12.477 5.99684 11.5129 6.57971 10.93L9.06897 8.43976Z" fill="#1C252E"/>
<path d="M13.8701 8.43976C14.163 8.14687 14.6377 8.14687 14.9306 8.43976L17.4208 10.93C18.0034 11.5128 18.0033 12.477 17.4208 13.0599L14.9306 15.5501C14.6377 15.843 14.163 15.843 13.8701 15.5501C13.5773 15.2572 13.5772 14.7824 13.8701 14.4896L16.3564 12.0023C16.3568 12.0007 16.3573 11.9984 16.3574 11.9954C16.3574 11.9914 16.3568 11.9881 16.3564 11.9866L13.8701 9.50031C13.5772 9.20742 13.5772 8.73266 13.8701 8.43976Z" fill="#1C252E"/>
</svg>
