<svg width="24" height="24" viewBox="0 0 24 24" fill="none" xmlns="http://www.w3.org/2000/svg">
<path d="M21.2197 9C21.2197 6.57397 20.73 5.0708 19.8145 4.15527C18.8989 3.23974 17.3958 2.75 14.9697 2.75H8.96973C6.5437 2.75 5.04053 3.23974 4.125 4.15527C3.20947 5.0708 2.71973 6.57397 2.71973 9V15C2.71973 17.426 3.20947 18.9292 4.125 19.8447C5.04053 20.7603 6.5437 21.25 8.96973 21.25H14.9697C17.3958 21.25 18.8989 20.7603 19.8145 19.8447C20.73 18.9292 21.2197 17.426 21.2197 15V9ZM22.7197 15C22.7197 17.574 22.2095 19.5708 20.875 20.9053C19.5405 22.2397 17.5437 22.75 14.9697 22.75H8.96973C6.39575 22.75 4.39892 22.2397 3.06445 20.9053C1.72998 19.5708 1.21973 17.574 1.21973 15V9C1.21973 6.42603 1.72998 4.4292 3.06445 3.09473C4.39892 1.76026 6.39575 1.25 8.96973 1.25H14.9697C17.5437 1.25 19.5405 1.76026 20.875 3.09473C22.2095 4.4292 22.7197 6.42603 22.7197 9V15Z" fill="#1C252E"/>
<path d="M14.2197 22V2C14.2197 1.58579 14.5555 1.25 14.9697 1.25C15.3839 1.25 15.7197 1.58579 15.7197 2V22C15.7197 22.4142 15.3839 22.75 14.9697 22.75C14.5555 22.75 14.2197 22.4142 14.2197 22Z" fill="#1C252E"/>
<path d="M7.4394 8.90973C7.73229 8.61684 8.20705 8.61684 8.49994 8.90973L11.0595 11.4693C11.3524 11.7622 11.3524 12.237 11.0595 12.5299L8.49994 15.0904C8.20706 15.3832 7.73228 15.3832 7.4394 15.0904C7.14652 14.7975 7.14656 14.3227 7.4394 14.0299L9.46869 11.9996L7.4394 9.97028C7.1465 9.67739 7.1465 9.20263 7.4394 8.90973Z" fill="#1C252E"/>
</svg>
