<svg width="24" height="24" viewBox="0 0 24 24" fill="none" xmlns="http://www.w3.org/2000/svg">
<path d="M15.7002 14.4004V8.5C15.7002 8.36434 15.5858 8.25021 15.4502 8.25H12.5498C12.1356 8.25 11.7998 7.91421 11.7998 7.5C11.7998 7.08579 12.1356 6.75 12.5498 6.75H15.4502C16.4142 6.7502 17.2002 7.53591 17.2002 8.5V14.4004C17.2 14.8143 16.8641 15.1502 16.4502 15.1504C16.0361 15.1504 15.7004 14.8144 15.7002 14.4004Z" fill="#1C252E"/>
<path d="M13.5703 5.42383C13.8884 5.15899 14.3608 5.20167 14.626 5.51953C14.8911 5.83771 14.8484 6.31098 14.5303 6.57617L13.4209 7.5L14.5303 8.42383C14.8484 8.68901 14.8911 9.16229 14.626 9.48047C14.3608 9.79833 13.8884 9.84101 13.5703 9.57617L11.7695 8.07617C11.5987 7.93368 11.5 7.7225 11.5 7.5C11.5 7.2775 11.5987 7.06632 11.7695 6.92383L13.5703 5.42383Z" fill="#1C252E"/>
<path d="M6.7998 14.4002V10.2C6.7998 9.7858 7.13559 9.45001 7.5498 9.45001C7.96402 9.45001 8.2998 9.7858 8.2998 10.2V14.4002C8.29969 14.8143 7.96395 15.1502 7.5498 15.1502C7.13566 15.1502 6.79992 14.8143 6.7998 14.4002Z" fill="#1C252E"/>
<path d="M8.90039 7.9502C8.90039 7.28751 8.36285 6.7501 7.7002 6.75C7.03745 6.75 6.5 7.28745 6.5 7.9502C6.5001 8.61284 7.0375 9.15039 7.7002 9.15039C8.36281 9.15029 8.90029 8.61278 8.90039 7.9502ZM10.4004 7.9502C10.4003 9.44123 9.1912 10.6503 7.7002 10.6504C6.2091 10.6504 5.0001 9.4413 5 7.9502C5 6.45903 6.20903 5.25 7.7002 5.25C9.19128 5.2501 10.4004 6.45909 10.4004 7.9502Z" fill="#1C252E"/>
<path d="M8.59961 16.1998C8.59949 15.62 8.12962 15.15 7.5498 15.15C6.97008 15.1501 6.50012 15.62 6.5 16.1998C6.5 16.7796 6.96999 17.2495 7.5498 17.2496C8.1297 17.2496 8.59961 16.7797 8.59961 16.1998ZM10.0996 16.1998C10.0996 17.6081 8.95813 18.7496 7.5498 18.7496C6.14156 18.7495 5 17.6081 5 16.1998C5.00012 14.7916 6.14162 13.6501 7.5498 13.65C8.95808 13.65 10.0995 14.7916 10.0996 16.1998Z" fill="#1C252E"/>
<path d="M17.5 16.1998C17.4999 15.62 17.03 15.15 16.4502 15.15C15.8705 15.1501 15.4005 15.62 15.4004 16.1998C15.4004 16.7796 15.8704 17.2495 16.4502 17.2496C17.0301 17.2496 17.5 16.7797 17.5 16.1998ZM19 16.1998C19 17.6081 17.8585 18.7496 16.4502 18.7496C15.042 18.7495 13.9004 17.6081 13.9004 16.1998C13.9005 14.7916 15.042 13.6501 16.4502 13.65C17.8585 13.65 18.9999 14.7916 19 16.1998Z" fill="#1C252E"/>
<path d="M21.25 9C21.25 6.57397 20.7603 5.0708 19.8447 4.15527C18.9292 3.23974 17.426 2.75 15 2.75H9C6.57397 2.75 5.0708 3.23974 4.15527 4.15527C3.23974 5.0708 2.75 6.57397 2.75 9V15C2.75 17.426 3.23974 18.9292 4.15527 19.8447C5.0708 20.7603 6.57397 21.25 9 21.25H15C17.426 21.25 18.9292 20.7603 19.8447 19.8447C20.7603 18.9292 21.25 17.426 21.25 15V9ZM22.75 15C22.75 17.574 22.2397 19.5708 20.9053 20.9053C19.5708 22.2397 17.574 22.75 15 22.75H9C6.42603 22.75 4.4292 22.2397 3.09473 20.9053C1.76026 19.5708 1.25 17.574 1.25 15V9C1.25 6.42603 1.76026 4.4292 3.09473 3.09473C4.4292 1.76026 6.42603 1.25 9 1.25H15C17.574 1.25 19.5708 1.76026 20.9053 3.09473C22.2397 4.4292 22.75 6.42603 22.75 9V15Z" fill="#1C252E"/>
</svg>
