<svg width="24" height="24" viewBox="0 0 24 24" fill="none" xmlns="http://www.w3.org/2000/svg">
<path d="M1.3501 16.7998V9.29979C1.35016 8.26186 1.87436 7.26694 2.87744 6.82323L9.37744 3.72265L9.42139 3.70409C10.1001 3.43259 10.9994 3.43265 11.6782 3.70409C11.6975 3.71181 11.7172 3.72018 11.7358 3.72948L14.3354 5.02929C14.5895 5.15633 14.7505 5.41611 14.7505 5.70018V5.99999C14.7505 7.78578 16.2147 9.24999 18.0005 9.24999C18.4268 9.24998 18.5995 9.24302 18.7632 9.18847C18.9918 9.11233 19.2435 9.15107 19.439 9.29198C19.6343 9.43297 19.7505 9.65947 19.7505 9.90038V16.7998C19.7505 17.8378 19.2253 18.8316 18.2222 19.2754L18.2231 19.2773L11.7231 22.3769C11.7086 22.3839 11.6932 22.3905 11.6782 22.3965C10.9995 22.6678 10.1001 22.6679 9.42139 22.3965C9.4065 22.3905 9.39191 22.3838 9.37744 22.3769L2.87744 19.2773V19.2754C1.87462 18.8315 1.3501 17.8376 1.3501 16.7998ZM2.8501 16.7998C2.8501 17.2832 3.05409 17.6467 3.35889 17.8389L3.49561 17.9101L3.52295 17.9228L9.98779 21.0068C10.3061 21.1305 10.7933 21.1304 11.1118 21.0068L17.5776 17.9228L17.605 17.9101C17.9837 17.7476 18.2505 17.3521 18.2505 16.7998V10.749C18.1649 10.75 18.0814 10.75 18.0005 10.75C15.4419 10.75 13.3425 8.704 13.2544 6.166L11.104 5.09081C10.7855 4.97021 10.3036 4.97012 9.98779 5.09276L3.52295 8.17675C3.5139 8.18106 3.50482 8.18549 3.49561 8.18944C3.11672 8.35182 2.85016 8.74734 2.8501 9.29979V16.7998Z" fill="#1C252E"/>
<path d="M6.25 13.5V10.5C6.25 10.0858 6.58579 9.75 7 9.75C7.41421 9.75 7.75 10.0858 7.75 10.5V13.5C7.75 14.1858 8.31421 14.75 9 14.75C9.68579 14.75 10.25 14.1858 10.25 13.5V10.5C10.25 10.0858 10.5858 9.75 11 9.75C11.4142 9.75 11.75 10.0858 11.75 10.5V13.5C11.75 15.0142 10.5142 16.25 9 16.25C7.48579 16.25 6.25 15.0142 6.25 13.5Z" fill="#1C252E"/>
<path d="M13.25 15.4004V10.5C13.25 10.0858 13.5858 9.75 14 9.75C14.4142 9.75 14.75 10.0858 14.75 10.5V15.4004C14.7498 15.8144 14.4141 16.1504 14 16.1504C13.5859 16.1504 13.2502 15.8144 13.25 15.4004Z" fill="#1C252E"/>
<path d="M21.25 6C21.25 4.21421 19.7858 2.75 18 2.75C16.3258 2.75 14.9285 4.11065 14.75 5.74512V6C14.75 7.78579 16.2142 9.25 18 9.25C18.4265 9.25 18.599 9.24302 18.7627 9.18848L18.7881 9.18066C20.2057 8.76372 21.25 7.53045 21.25 6ZM22.75 6C22.75 8.25992 21.2067 10.0198 19.2363 10.6104L19.2373 10.6113C19.2316 10.6132 19.2254 10.6144 19.2197 10.6162C19.2171 10.617 19.2146 10.6184 19.2119 10.6191L19.2109 10.6182C18.7836 10.7549 18.3661 10.75 18 10.75C15.3858 10.75 13.25 8.61421 13.25 6V5.66211L13.2539 5.625C13.4893 3.27276 15.4844 1.25 18 1.25C20.6142 1.25 22.75 3.38579 22.75 6Z" fill="#1C252E"/>
<path d="M19.0999 5.89999C19.2999 5.69999 19.4999 5.39999 19.4999 5.09999C19.4999 4.29999 18.8999 3.79999 17.9999 3.79999C17.0999 3.79999 16.4999 4.29999 16.4999 5.09999C16.4999 5.39999 16.5999 5.69999 16.8999 5.89999C16.5999 6.09999 16.3999 6.49999 16.3999 6.89999C16.3999 7.69999 16.9999 8.19999 17.9999 8.19999C18.9999 8.19999 19.5999 7.69999 19.5999 6.89999C19.5999 6.49999 19.3999 6.09999 19.0999 5.89999ZM17.9999 5.49999C17.6999 5.49999 17.5999 5.39999 17.5999 5.09999C17.5999 4.79999 17.7999 4.69999 17.9999 4.69999C18.1999 4.69999 18.3999 4.79999 18.3999 5.09999C18.3999 5.39999 18.2999 5.49999 17.9999 5.49999ZM17.9999 6.29999C18.2999 6.29999 18.5999 6.39999 18.5999 6.79999C18.5999 7.09999 18.3999 7.29999 17.9999 7.29999C17.5999 7.29999 17.3999 7.09999 17.3999 6.79999C17.3999 6.39999 17.8999 6.29999 17.9999 6.29999Z" fill="#1C252E"/>
</svg>
