<svg width="24" height="24" viewBox="0 0 24 24" fill="none" xmlns="http://www.w3.org/2000/svg">
<path d="M7.26371 1.32909C7.50418 1.20845 7.79523 1.22504 8.0225 1.37987L12.4229 4.37987C12.6254 4.51795 12.7474 4.7471 12.75 4.99218C12.7526 5.23713 12.6349 5.46795 12.4356 5.61034L6.83598 9.61034C6.58017 9.79305 6.23736 9.79708 5.97758 9.6201L1.57719 6.6201C1.3747 6.48203 1.25272 6.25288 1.25004 6.0078C1.24749 5.76285 1.36515 5.53203 1.56449 5.38964L7.1641 1.38964L7.26371 1.32909ZM3.31059 5.98436L6.38969 8.08495L10.6885 5.01464L7.60942 2.91405L3.31059 5.98436Z" fill="#1C252E"/>
<path d="M16.0782 1.32224C16.3214 1.20665 16.612 1.22965 16.836 1.38962L22.4356 5.38962C22.6349 5.53201 22.7526 5.76284 22.75 6.00779C22.7474 6.25286 22.6254 6.48201 22.4229 6.62009L18.0225 9.62009C17.7627 9.79707 17.4199 9.79303 17.1641 9.61032L11.5645 5.61032C11.3651 5.46793 11.2475 5.23711 11.25 4.99216C11.2527 4.74708 11.3747 4.51793 11.5772 4.37986L15.9776 1.37986L16.0782 1.32224ZM13.3106 5.01462L17.6094 8.08493L20.6885 5.98435L16.3897 2.91404L13.3106 5.01462Z" fill="#1C252E"/>
<path d="M6.07817 9.32224C6.32136 9.20665 6.612 9.22965 6.83598 9.38962L12.4356 13.3896C12.6349 13.532 12.7526 13.7628 12.75 14.0078C12.7474 14.2529 12.6254 14.482 12.4229 14.6201L8.0225 17.6201C7.76272 17.7971 7.41991 17.793 7.1641 17.6103L1.56449 13.6103C1.36515 13.4679 1.24749 13.2371 1.25004 12.9922C1.25272 12.7471 1.3747 12.5179 1.57719 12.3799L5.97758 9.37986L6.07817 9.32224ZM3.31059 13.0146L7.60942 16.0849L10.6885 13.9843L6.38969 10.914L3.31059 13.0146Z" fill="#1C252E"/>
<path d="M17.2637 9.32909C17.5042 9.20845 17.7952 9.22504 18.0225 9.37987L22.4229 12.3799C22.6254 12.5179 22.7474 12.7471 22.75 12.9922C22.7526 13.2371 22.6349 13.4679 22.4356 13.6103L16.836 17.6103C16.5802 17.793 16.2374 17.7971 15.9776 17.6201L11.5772 14.6201C11.3747 14.482 11.2527 14.2529 11.25 14.0078C11.2475 13.7628 11.3651 13.532 11.5645 13.3896L17.1641 9.38964L17.2637 9.32909ZM13.3106 13.9844L16.3897 16.0849L20.6885 13.0146L17.6094 10.9141L13.3106 13.9844Z" fill="#1C252E"/>
<path d="M4.25 15.5C4.25 15.0858 4.58579 14.75 5 14.75C5.41421 14.75 5.75 15.0858 5.75 15.5V18.3164L11.9102 21.1172C11.9127 21.1184 11.9154 21.1199 11.918 21.1211C11.9217 21.1219 11.9362 21.125 11.9629 21.125C12.007 21.125 12.0673 21.1158 12.1377 21.0947L18.25 18.3164V15.5C18.25 15.0858 18.5858 14.75 19 14.75C19.4142 14.75 19.75 15.0858 19.75 15.5V18.7998C19.75 19.0938 19.5781 19.3607 19.3105 19.4824L12.71 22.4824C12.6861 22.4932 12.6615 22.5034 12.6367 22.5117C12.2348 22.6456 11.7252 22.688 11.29 22.4814V22.4824L4.68945 19.4824C4.42188 19.3607 4.25 19.0938 4.25 18.7998V15.5Z" fill="#1C252E"/>
</svg>
