<svg width="24" height="24" viewBox="0 0 24 24" fill="none" xmlns="http://www.w3.org/2000/svg">
<path d="M21.25 12C21.25 6.91421 17.0858 2.75 12 2.75C6.91421 2.75 2.75 6.91421 2.75 12C2.75 13.6595 3.21107 15.2396 3.96191 16.6475C4.05032 16.8135 4.07269 17.0064 4.02539 17.1885L3.16602 20.4951C3.11776 20.6821 3.29082 20.8507 3.47656 20.7979L6.69434 19.8789L6.76953 19.8613C6.94665 19.83 7.13042 19.8636 7.28613 19.957C8.66818 20.7862 10.3345 21.25 12 21.25C17.0858 21.25 21.25 17.0858 21.25 12ZM22.75 12C22.75 17.9142 17.9142 22.75 12 22.75C10.1785 22.75 8.35795 22.2742 6.80078 21.4082L3.88867 22.2402C2.58668 22.612 1.37411 21.4277 1.71484 20.1172L2.50195 17.0889C1.73211 15.5606 1.25 13.8341 1.25 12C1.25 6.08579 6.08579 1.25 12 1.25C17.9142 1.25 22.75 6.08579 22.75 12Z" fill="#1C252E"/>
<path d="M11.0107 9.61914L10.4092 9.86523L10.4199 9.87207L11.0107 9.61914ZM10.4199 9.87207L10.4092 9.86523L11.0107 9.61914L10.4199 9.87207ZM11.8242 9.89355C11.8242 10.1443 11.7499 10.3778 11.6299 10.582L11.6318 10.583C11.5336 10.7565 11.404 10.9132 11.2656 11.0527L11.2666 11.0537L11.1836 11.1396C11.2292 11.1995 11.2823 11.2694 11.3477 11.3467C11.5428 11.5719 11.7488 11.7986 11.9697 12.0234H11.9688C12.2019 12.2517 12.4188 12.4545 12.6348 12.6377L12.8496 12.8057L12.9268 12.7305C13.0691 12.5888 13.2376 12.4488 13.4316 12.3477V12.3486C13.6279 12.2378 13.8495 12.168 14.0977 12.168C14.293 12.168 14.4795 12.21 14.6562 12.2822C14.8182 12.3484 14.9689 12.4359 15.1094 12.5312L15.1162 12.5361L15.1221 12.54L16.6133 13.5977H16.6123C16.7966 13.7263 16.9561 13.8916 17.0684 14.1016L17.1143 14.1953L17.124 14.2188C17.1965 14.3998 17.25 14.6076 17.25 14.8486C17.25 15.1231 17.1885 15.3987 17.0654 15.6592C16.9591 15.8841 16.8197 16.1001 16.6367 16.3018L16.6357 16.3027C16.3488 16.6184 16.0157 16.8639 15.626 17.0234L15.625 17.0225C15.2611 17.1731 14.8717 17.25 14.4629 17.25C13.8848 17.25 13.2937 17.1138 12.7002 16.8613C12.2684 16.6776 11.8414 16.4482 11.4209 16.1748L11.002 15.8867C10.4528 15.4862 9.93223 15.0429 9.4375 14.5537L9.43262 14.5488C8.94282 14.055 8.49873 13.5359 8.10156 12.9912L8.09961 12.9873C7.70363 12.4376 7.37655 11.876 7.13477 11.3076L7.13379 11.3057C6.88583 10.7176 6.75 10.1281 6.75 9.54297C6.75 9.14795 6.81978 8.76005 6.96582 8.39551H6.9668C7.11605 8.01863 7.34734 7.68086 7.6543 7.38867C8.05604 6.9938 8.55318 6.75 9.11816 6.75C9.34535 6.75003 9.57874 6.7984 9.7959 6.90039L9.79688 6.89941C9.79892 6.90036 9.80069 6.90237 9.80273 6.90332C9.80392 6.90389 9.80545 6.90373 9.80664 6.9043L9.80566 6.90527C10.0284 7.00968 10.2347 7.1702 10.3955 7.39941L11.4385 8.86621L11.5869 9.0957C11.6293 9.16994 11.6677 9.24539 11.7002 9.32324L11.749 9.45215C11.7936 9.58564 11.8242 9.73531 11.8242 9.89355ZM8.25 9.54297C8.25 9.89315 8.33068 10.2837 8.51465 10.7207L8.67188 11.0605C8.84375 11.4028 9.05912 11.7532 9.31641 12.1104H9.31543C9.66584 12.5906 10.0604 13.0509 10.498 13.4922H10.4971C10.9381 13.9279 11.3994 14.3198 11.8848 14.6738L12.2383 14.918C12.5912 15.1474 12.9416 15.3344 13.2871 15.4814C13.7301 15.6699 14.1216 15.75 14.4629 15.75C14.6833 15.75 14.8781 15.7098 15.0537 15.6367L15.0576 15.6348C15.2174 15.5694 15.3708 15.4639 15.5254 15.2939L15.6289 15.1611C15.6593 15.1154 15.6856 15.068 15.709 15.0186C15.7389 14.9552 15.75 14.8979 15.75 14.8486C15.75 14.8406 15.7488 14.8335 15.7471 14.8252C15.7468 14.8241 15.7464 14.8226 15.7461 14.8213L14.2666 13.7715V13.7725C14.1998 13.7271 14.1499 13.7006 14.1143 13.6836C14.0941 13.6964 14.0504 13.7281 13.9834 13.7949L13.9795 13.7988L13.6377 14.1357C13.4554 14.3163 13.21 14.4287 12.9258 14.4287C12.8274 14.4287 12.696 14.4176 12.5508 14.3633L12.5342 14.3564L12.5186 14.3496C12.4924 14.3384 12.4679 14.3282 12.457 14.3232C12.4505 14.3202 12.4477 14.319 12.4463 14.3184L12.4541 14.3213L12.417 14.3066L12.3818 14.2871C12.1632 14.1715 11.9235 13.9999 11.667 13.7832L11.666 13.7822C11.4077 13.5632 11.1585 13.3293 10.9092 13.085L10.9043 13.0801L10.8994 13.0742C10.6517 12.8221 10.4242 12.5718 10.2139 12.3291L10.209 12.3232C9.99741 12.0736 9.81975 11.8346 9.70312 11.6211L9.67188 11.5625L9.65723 11.5195C9.6569 11.5187 9.65685 11.5164 9.65527 11.5127C9.65075 11.502 9.63732 11.471 9.62402 11.4355L9.6084 11.3955L9.59863 11.3545C9.58797 11.3119 9.57859 11.267 9.57227 11.2197L9.5625 11.0684L9.56641 10.9736C9.58596 10.7561 9.67376 10.5428 9.84375 10.3682L10.1865 10.0127L10.1973 10.002C10.2484 9.95084 10.2809 9.90765 10.3027 9.87695C10.2868 9.84439 10.2626 9.79995 10.2217 9.74316L10.2188 9.73926L9.17383 8.26758L9.16895 8.26172L9.15918 8.25781C9.15413 8.25539 9.13937 8.25004 9.11816 8.25C9.01615 8.25 8.88118 8.28588 8.70605 8.45801L8.7002 8.46387L8.69434 8.46875C8.53095 8.62269 8.42553 8.78393 8.36035 8.94922L8.3584 8.95312C8.28812 9.12857 8.25 9.32601 8.25 9.54297Z" fill="#1C252E"/>
</svg>
