<svg width="24" height="24" viewBox="0 0 24 24" fill="none" xmlns="http://www.w3.org/2000/svg">
<path d="M12.0999 5.95001C12.9521 5.95004 13.6034 6.19555 14.0696 6.45978C14.2999 6.59028 14.481 6.72316 14.6107 6.82306C14.714 6.90263 14.6871 6.88361 14.7571 6.93732C14.771 6.94793 14.7793 6.95359 14.7825 6.95587L14.7357 6.9295L14.8109 6.97247C14.8835 7.02004 14.947 7.08042 14.9993 7.15021C15.3208 7.57881 15.7192 8.10824 15.8441 9.10724H15.8431C15.8924 9.41985 15.8977 9.72048 15.89 9.98126C15.958 9.96139 16.0286 9.95001 16.0999 9.95001H16.3001C16.6972 9.95011 16.961 10.1254 17.1136 10.2586L17.2298 10.3699L17.3079 10.4617C17.3313 10.4942 17.3524 10.5284 17.3704 10.5643C17.5259 10.8753 17.5259 11.2239 17.3704 11.535C17.2367 11.8025 17.0146 11.9913 16.8157 12.1238C16.7667 12.1566 16.7133 12.1808 16.6585 12.201C16.6503 12.2091 16.6414 12.2191 16.6302 12.2303C16.4835 12.377 16.3011 12.4998 16.1468 12.5897C16.1885 12.6808 16.2428 12.7897 16.3187 12.908C16.5636 13.29 17.018 13.7988 17.8489 14.2361C18.0374 14.3353 18.171 14.5085 18.2239 14.7088C18.2526 14.7773 18.3001 14.9066 18.3001 15.0623C18.3001 15.328 18.1807 15.5402 18.0403 15.6863C17.9266 15.8048 17.7904 15.8891 17.6653 15.9539C17.4647 16.0809 17.2923 16.1515 17.1497 16.199C17.1146 16.2107 17.0811 16.2211 17.055 16.2293C17.0268 16.2381 17.0069 16.2447 16.9886 16.2508C16.9535 16.2625 16.9403 16.2686 16.9349 16.2713C16.8713 16.303 16.8032 16.3231 16.7337 16.3358C16.7067 16.5039 16.6333 16.7272 16.43 16.9305C16.207 17.1534 15.9341 17.2102 15.7933 17.2303C15.6427 17.2518 15.4858 17.2498 15.3997 17.2498C15.0929 17.2498 14.859 17.2589 14.6351 17.3709C14.5351 17.4209 14.4352 17.4713 14.3353 17.5213C14.2525 17.5627 14.1691 17.6029 14.0862 17.6443C13.8666 17.8038 13.6156 17.9587 13.2972 18.0701C12.9501 18.1916 12.5633 18.2498 12.0999 18.2498C11.0793 18.2498 10.4894 17.8332 10.1644 17.6707C10.0737 17.6254 9.99339 17.5744 9.93781 17.5379C9.86861 17.4925 9.84373 17.4741 9.80206 17.4481C9.79734 17.4451 9.79312 17.4425 9.78937 17.4402C9.76548 17.4367 9.74155 17.4334 9.71808 17.4276C9.28242 17.3186 8.98636 17.2499 8.80011 17.2498C8.71405 17.2498 8.55701 17.2517 8.40656 17.2303C8.29994 17.2151 8.11787 17.1777 7.93878 17.0643C7.76953 16.9953 7.57795 16.8882 7.43683 16.7C7.35525 16.5912 7.30967 16.479 7.28351 16.3817C7.25258 16.3703 7.21585 16.3589 7.17999 16.3426C7.1369 16.323 7.08252 16.2946 7.02374 16.2557C7.01982 16.2543 7.01572 16.2524 7.01105 16.2508C6.9927 16.2447 6.97282 16.2382 6.94464 16.2293C6.91852 16.2211 6.88507 16.2108 6.84992 16.199C6.69579 16.1477 6.50509 16.0714 6.28351 15.9236C6.16802 15.8466 6.01086 15.7236 5.9046 15.534C5.77332 15.2996 5.75625 15.0279 5.85382 14.784C5.93016 14.5932 6.05813 14.4718 6.10089 14.4315C6.12723 14.4066 6.15408 14.382 6.16339 14.3738C6.17852 14.3605 6.17595 14.3632 6.16925 14.3699L6.26788 14.2869C6.30271 14.2624 6.33961 14.2408 6.37824 14.2225C7.18819 13.8388 7.63354 13.3412 7.87628 12.9529C7.98185 12.784 8.04773 12.6316 8.09113 12.5164C8.01322 12.4729 7.93293 12.4354 7.86261 12.4119C7.77171 12.3816 7.68835 12.333 7.61554 12.2713H7.61456C7.57177 12.2499 7.45773 12.1936 7.33527 12.0887C7.14996 11.9584 6.95215 11.7805 6.82941 11.535C6.67392 11.2239 6.67386 10.8754 6.82941 10.5643L6.91437 10.4168C7.0144 10.267 7.16198 10.118 7.3841 10.0291C7.60936 9.93906 7.84865 9.95001 7.89972 9.95001H8.09992C8.17094 9.95002 8.241 9.95712 8.30988 9.96759C8.30098 9.71187 8.30393 9.40054 8.35578 9.10724L8.40167 8.79181C8.52373 8.0859 8.76572 7.46182 9.30597 7.034C9.60368 6.74069 10.4801 5.95001 12.0999 5.95001ZM7.73175 16.5447L7.80011 16.5496L7.71906 16.5418C7.7234 16.5425 7.72752 16.5441 7.73175 16.5447ZM16.1995 16.5496C16.2227 16.5496 16.2494 16.5465 16.2786 16.5418C16.2524 16.5446 16.2261 16.5496 16.1995 16.5496ZM18.2493 14.9002C18.2493 14.8679 18.247 14.8381 18.2435 14.8113C18.247 14.8406 18.2493 14.8703 18.2493 14.9002ZM16.3997 12.2498C16.4291 12.2498 16.4565 12.2475 16.4818 12.244C16.4546 12.247 16.4273 12.2498 16.3997 12.2498ZM9.84992 10.7996C9.84992 10.8403 9.84996 10.903 9.84699 10.9568C9.84526 10.9879 9.83998 11.1466 9.75812 11.3104C9.7076 11.4114 9.62906 11.5156 9.51398 11.5984C9.4787 11.6239 9.4424 11.6428 9.40851 11.66C9.65931 11.97 9.64972 12.2988 9.64972 12.4002C9.64969 12.5055 9.62649 12.6134 9.61456 12.6658C9.59657 12.7449 9.5697 12.8405 9.53253 12.949C9.458 13.1666 9.33814 13.4448 9.14874 13.7479C8.88958 14.1625 8.50212 14.6154 7.94171 15.0272C7.96614 15.0366 7.99341 15.0454 8.01984 15.0574C8.03801 15.0657 8.05673 15.0783 8.07843 15.0897C8.17257 15.1174 8.26653 15.1607 8.3548 15.2244C8.5264 15.3484 8.6206 15.5072 8.67121 15.6336C8.6865 15.6718 8.69542 15.7114 8.70538 15.7488C8.73206 15.7493 8.76247 15.7498 8.80011 15.7498C9.19011 15.7499 9.66037 15.8663 10.0179 15.9559C10.2915 15.9867 10.5022 16.1173 10.597 16.1766C10.6552 16.2129 10.7305 16.2639 10.761 16.284C10.8054 16.3131 10.8259 16.3242 10.8353 16.3289C11.3102 16.5664 11.5205 16.7498 12.0999 16.7498C12.4362 16.7498 12.6493 16.7086 12.8021 16.6551C12.953 16.6022 13.0837 16.5244 13.2493 16.4002L13.3646 16.3289C13.4644 16.279 13.5645 16.2294 13.6644 16.1795C13.7643 16.1295 13.8642 16.0791 13.9642 16.0291C14.4762 15.7731 14.9807 15.7524 15.2923 15.7508C15.3024 15.7127 15.3128 15.6726 15.3284 15.6336C15.379 15.5072 15.4732 15.3484 15.6448 15.2244C15.7032 15.1823 15.7648 15.1506 15.8265 15.1248C15.9119 15.0557 16.0258 14.9817 16.1702 14.9276C15.6599 14.5235 15.3017 14.1009 15.056 13.7176C14.8675 13.4235 14.7459 13.1566 14.6702 12.9461C14.6325 12.8412 14.6059 12.7476 14.5872 12.6697C14.575 12.6187 14.5501 12.5096 14.5501 12.4002C14.5501 12.2977 14.5395 11.9623 14.7991 11.6492C14.7598 11.6282 14.72 11.6046 14.6819 11.575C14.5162 11.4461 14.4375 11.2851 14.4007 11.1746C14.3413 10.9965 14.3499 10.8071 14.3499 10.7996C14.35 10.5845 14.3786 10.2483 14.388 10.0408C14.3995 9.78672 14.397 9.54699 14.3597 9.32306C14.358 9.3131 14.357 9.30281 14.3558 9.29279C14.2872 8.74463 14.1119 8.47199 13.8704 8.1463C13.8604 8.13875 13.8516 8.13278 13.845 8.12775C13.8333 8.11877 13.7096 8.02229 13.6956 8.01154C13.5942 7.93339 13.4749 7.84736 13.3304 7.76544C13.0467 7.6047 12.6476 7.45004 12.0999 7.45001C10.9916 7.45001 10.4728 7.98828 10.3304 8.13068C10.3053 8.15576 10.2777 8.17873 10.2493 8.20001C10.1021 8.31058 9.93734 8.54677 9.84406 9.29279C9.84179 9.31091 9.83885 9.32957 9.83527 9.34747C9.8042 9.50309 9.79981 9.72651 9.81183 9.99103C9.81761 10.1182 9.82622 10.2397 9.83429 10.3592C9.84167 10.4685 9.84992 10.595 9.84992 10.7V10.7996Z" fill="#1C252E"/>
<path d="M21.25 12C21.25 6.89137 17.1086 2.75 12 2.75C6.89137 2.75 2.75 6.89137 2.75 12C2.75 17.1086 6.89137 21.25 12 21.25C17.1086 21.25 21.25 17.1086 21.25 12ZM22.75 12C22.75 17.9371 17.9371 22.75 12 22.75C6.06294 22.75 1.25 17.9371 1.25 12C1.25 6.06294 6.06294 1.25 12 1.25C17.9371 1.25 22.75 6.06294 22.75 12Z" fill="#1C252E"/>
</svg>
