<svg width="24" height="24" viewBox="0 0 24 24" fill="none" xmlns="http://www.w3.org/2000/svg">
<path d="M10.25 18.75H9.75V21C9.75 21.0546 9.77415 21.1232 9.82324 21.1758C9.86534 21.2209 9.92063 21.25 10 21.25C10.0794 21.25 10.1347 21.2209 10.1768 21.1758C10.2259 21.1232 10.25 21.0546 10.25 21V18.75ZM11.75 21C11.75 21.8646 11.0621 22.75 10 22.75C8.93789 22.75 8.25 21.8646 8.25 21V18C8.25 17.5858 8.58579 17.25 9 17.25H11C11.4142 17.25 11.75 17.5858 11.75 18V21Z" fill="#1C252E"/>
<path d="M14.25 18.75H13.75V21C13.75 21.0546 13.7741 21.1232 13.8232 21.1758C13.8653 21.2209 13.9206 21.25 14 21.25C14.0794 21.25 14.1347 21.2209 14.1768 21.1758C14.2259 21.1232 14.25 21.0546 14.25 21V18.75ZM15.75 21C15.75 21.8646 15.0621 22.75 14 22.75C12.9379 22.75 12.25 21.8646 12.25 21V18C12.25 17.5858 12.5858 17.25 13 17.25H15C15.4142 17.25 15.75 17.5858 15.75 18V21Z" fill="#1C252E"/>
<path d="M16.25 11C16.25 10.3142 15.6858 9.75 15 9.75H9C8.31421 9.75 7.75 10.3142 7.75 11V16C7.75 16.6858 8.31421 17.25 9 17.25H15C15.6858 17.25 16.25 16.6858 16.25 16V11ZM17.75 16C17.75 17.5142 16.5142 18.75 15 18.75H9C7.48579 18.75 6.25 17.5142 6.25 16V11C6.25 9.48579 7.48579 8.25 9 8.25H15C16.5142 8.25 17.75 9.48579 17.75 11V16Z" fill="#1C252E"/>
<path d="M4.25 11C4.25 10.8704 4.20975 10.8211 4.19434 10.8057C4.17892 10.7902 4.12956 10.75 4 10.75C3.87044 10.75 3.82108 10.7902 3.80566 10.8057C3.79025 10.8211 3.75 10.8704 3.75 11V15C3.75 15.1296 3.79025 15.1789 3.80566 15.1943C3.82108 15.2098 3.87044 15.25 4 15.25C4.12956 15.25 4.17892 15.2098 4.19434 15.1943C4.20975 15.1789 4.25 15.1296 4.25 15V11ZM5.75 15C5.75 15.4704 5.58947 15.9203 5.25488 16.2549C4.9203 16.5895 4.47044 16.75 4 16.75C3.52956 16.75 3.0797 16.5895 2.74512 16.2549C2.41053 15.9203 2.25 15.4704 2.25 15V11C2.25 10.5296 2.41053 10.0797 2.74512 9.74512C3.0797 9.41053 3.52956 9.25 4 9.25C4.47044 9.25 4.9203 9.41053 5.25488 9.74512C5.58947 10.0797 5.75 10.5296 5.75 11V15Z" fill="#1C252E"/>
<path d="M20.25 11C20.25 10.8704 20.2098 10.8211 20.1943 10.8057C20.1789 10.7902 20.1296 10.75 20 10.75C19.8704 10.75 19.8211 10.7902 19.8057 10.8057C19.7902 10.8211 19.75 10.8704 19.75 11V15C19.75 15.1296 19.7902 15.1789 19.8057 15.1943C19.8211 15.2098 19.8704 15.25 20 15.25C20.1296 15.25 20.1789 15.2098 20.1943 15.1943C20.2098 15.1789 20.25 15.1296 20.25 15V11ZM21.75 15C21.75 15.4704 21.5895 15.9203 21.2549 16.2549C20.9203 16.5895 20.4704 16.75 20 16.75C19.5296 16.75 19.0797 16.5895 18.7451 16.2549C18.4105 15.9203 18.25 15.4704 18.25 15V11C18.25 10.5296 18.4105 10.0797 18.7451 9.74512C19.0797 9.41053 19.5296 9.25 20 9.25C20.4704 9.25 20.9203 9.41053 21.2549 9.74512C21.5895 10.0797 21.75 10.5296 21.75 11V15Z" fill="#1C252E"/>
<path d="M13 17.25C13.4142 17.25 13.75 17.5858 13.75 18C13.75 18.4142 13.4142 18.75 13 18.75H11C10.5858 18.75 10.25 18.4142 10.25 18C10.25 17.5858 10.5858 17.25 11 17.25H13Z" fill="#1C252E"/>
<path d="M15.25 5.28613C15.25 3.29363 13.7379 1.75 12 1.75C10.2621 1.75 8.75 3.29363 8.75 5.28613C8.75019 5.88535 9.16197 6.24978 9.59961 6.25H14.4004C14.838 6.24978 15.2498 5.88535 15.25 5.28613ZM16.75 5.28613C16.7498 6.61475 15.7622 7.74978 14.4004 7.75H9.59961C8.23784 7.74978 7.25021 6.61475 7.25 5.28613C7.25 2.56435 9.33789 0.25 12 0.25C14.6621 0.25 16.75 2.56435 16.75 5.28613Z" fill="#1C252E"/>
</svg>
