<svg width="24" height="24" viewBox="0 0 24 24" fill="none" xmlns="http://www.w3.org/2000/svg">
<path d="M21.25 11.2002C21.25 6.57408 17.1481 2.75 12 2.75C6.85747 2.75 2.75011 6.56873 2.75 11.2998C2.75 13.9386 4.01746 16.2239 6.14551 17.7969C6.33683 17.9383 6.4502 18.1625 6.4502 18.4004V20.7021L8.62598 19.4502L8.69727 19.4141C8.86697 19.3392 9.05953 19.3294 9.2373 19.3887C10.0296 19.6528 10.9395 19.75 12 19.75C17.1425 19.75 21.2499 15.9313 21.25 11.2002ZM22.75 11.2002C22.7499 16.8689 17.8573 21.25 12 21.25C10.9837 21.25 10.007 21.1671 9.09277 20.9111L6.07422 22.6504C5.84218 22.7839 5.55599 22.7834 5.32422 22.6494C5.09253 22.5154 4.9502 22.2677 4.9502 22V18.7656C2.65866 16.9446 1.25 14.3283 1.25 11.2998C1.25011 5.63107 6.14267 1.25 12 1.25C17.8519 1.25 22.75 5.62631 22.75 11.2002Z" fill="#1C252E"/>
<path d="M10.7265 8.71668C10.954 8.44718 11.3395 8.37195 11.6513 8.53699L13.0936 9.30066L16.3134 8.47352C16.6294 8.39239 16.9612 8.52531 17.1347 8.80164C17.3081 9.0779 17.2834 9.43416 17.0731 9.68348L13.2733 14.1835C13.0361 14.4644 12.6297 14.5326 12.3143 14.3436L11.078 13.6014L7.67763 14.4286C7.36227 14.5053 7.03297 14.3706 6.8622 14.0946C6.69153 13.8188 6.71756 13.4646 6.92665 13.2167L10.7265 8.71668ZM9.55458 12.4276L11.0224 12.0712C11.214 12.0245 11.4167 12.0556 11.5858 12.1571L12.539 12.7284L14.411 10.5106L13.1864 10.8261C13.0056 10.8725 12.8143 10.8499 12.6493 10.7626L11.4823 10.1454L9.55458 12.4276Z" fill="#1C252E"/>
</svg>
