<svg width="24" height="24" viewBox="0 0 24 24" fill="none" xmlns="http://www.w3.org/2000/svg">
<path d="M16.4599 8.19268C16.6816 8.03184 16.9776 8.00322 17.2294 8.12628L21.7294 10.3265L21.7352 10.3294C22.4207 10.6721 22.7499 11.3528 22.7499 11.9876C22.7499 12.6089 22.4271 13.2861 21.7177 13.5794L17.2411 15.8675C16.9516 16.0154 16.6 15.9605 16.37 15.7308L13.1698 12.5306C12.877 12.2377 12.877 11.7629 13.1698 11.47L16.37 8.26983L16.4599 8.19268ZM14.7606 12.0003L17.0438 14.2835L21.0585 12.2327L21.1366 12.1976C21.189 12.1779 21.2499 12.1255 21.2499 11.9876C21.2499 11.8474 21.1789 11.7285 21.0643 11.6712H21.0634L17.0507 9.70929L14.7606 12.0003Z" fill="#1C252E"/>
<path d="M1.25 3.09997C1.25007 1.79465 2.52532 0.95567 3.68359 1.36657L3.7959 1.41051L3.83496 1.42907L17.2354 8.12926C17.451 8.23708 17.602 8.44207 17.6406 8.68004C17.6792 8.91789 17.601 9.16001 17.4307 9.33043L4.62988 22.1302C4.57295 22.1871 4.50754 22.2348 4.43555 22.2709L3.83496 22.5707C3.21621 22.9057 2.54759 22.8054 2.05957 22.4662C1.57515 22.1292 1.25 21.5509 1.25 20.8998V3.09997ZM2.75 20.8998C2.75 21.0487 2.82544 21.1717 2.91602 21.2347C2.95875 21.2644 2.99683 21.2747 3.02441 21.2767C3.04818 21.2784 3.08137 21.2759 3.12793 21.2494L3.16504 21.2289L3.65527 20.9828L15.6338 9.00524L3.19922 2.78747C2.98702 2.70061 2.75007 2.84969 2.75 3.09997V20.8998Z" fill="#1C252E"/>
<path d="M13.6996 11.25C13.8984 11.25 14.0892 11.3292 14.2298 11.4697L17.43 14.6699C17.6005 14.8404 17.6786 15.0823 17.64 15.3203C17.6013 15.5581 17.4512 15.7633 17.2357 15.8711L4.43491 22.2705C4.10594 22.4348 3.70658 22.3364 3.49155 22.0381C3.27669 21.7397 3.30965 21.3294 3.56967 21.0693L13.1693 11.4697C13.3098 11.3292 13.5008 11.2501 13.6996 11.25ZM7.89682 18.8623L15.6331 14.9941L13.6996 13.0605L7.89682 18.8623Z" fill="#1C252E"/>
<path d="M3.56977 1.86982C3.86266 1.57692 4.33742 1.57692 4.63031 1.86982L14.2299 11.4694C14.5228 11.7623 14.5228 12.2371 14.2299 12.53C13.937 12.8229 13.4623 12.8229 13.1694 12.53L3.56977 2.93036C3.27687 2.63747 3.27687 2.16271 3.56977 1.86982Z" fill="#1C252E"/>
</svg>
