<svg width="24" height="24" viewBox="0 0 24 24" fill="none" xmlns="http://www.w3.org/2000/svg">
<path d="M15.6499 4.09979C15.6498 3.54062 15.2129 3.05017 14.5005 3.04999C13.8888 3.04999 13.3501 3.54007 13.3501 4.20038V8.79999C13.3501 9.41172 13.8402 9.95038 14.5005 9.95038C15.1121 9.95017 15.6499 9.46016 15.6499 8.79999V4.09979ZM17.1499 8.79999C17.1499 10.3395 15.8886 11.4502 14.5005 11.4504C12.9608 11.4504 11.8501 10.1883 11.8501 8.79999V4.20038C11.8501 2.66069 13.1122 1.54999 14.5005 1.54999C15.9875 1.55018 17.1498 2.65937 17.1499 4.09979V8.79999Z" fill="#1C252E"/>
<path d="M21.0503 8.99963C21.0501 8.51404 20.6854 8.15002 20.1997 8.15002C19.7142 8.15022 19.3503 8.51417 19.3501 8.99963V9.85022H20.1997C20.6855 9.85022 21.0503 9.48542 21.0503 8.99963ZM22.5503 8.99963C22.5503 10.3138 21.5139 11.3502 20.1997 11.3502H18.6001C18.1859 11.3502 17.8502 11.0143 17.8501 10.6002V8.99963C17.8503 7.68574 18.8858 6.65023 20.1997 6.65002C21.5138 6.65002 22.5501 7.68561 22.5503 8.99963Z" fill="#1C252E"/>
<path d="M9.65039 9.20038C9.65039 8.58865 9.16031 8.04999 8.5 8.04999H3.94531C3.18308 8.12873 2.75 8.65353 2.75 9.20038C2.75021 9.81195 3.24022 10.3498 3.90039 10.3498H8.5C9.11161 10.3498 9.65018 9.86049 9.65039 9.20038ZM11.1504 9.20038C11.1502 10.7399 9.88815 11.8498 8.5 11.8498H3.90039C2.36085 11.8498 1.25021 10.5885 1.25 9.20038C1.25 7.75265 2.40838 6.68236 3.83203 6.55292L3.90039 6.54999H8.5C10.0397 6.54999 11.1504 7.81211 11.1504 9.20038Z" fill="#1C252E"/>
<path d="M9.65039 3.59961C9.6502 3.11402 9.28546 2.75 8.7998 2.75C8.31434 2.7502 7.95039 3.11415 7.9502 3.59961C7.9502 4.08527 8.31421 4.45 8.7998 4.4502H9.65039V3.59961ZM11.1504 5.2002C11.1503 5.61425 10.8144 5.95009 10.4004 5.9502H8.7998C7.48578 5.94999 6.4502 4.91369 6.4502 3.59961C6.4504 2.28571 7.48591 1.25021 8.7998 1.25C10.1139 1.25 11.1502 2.28558 11.1504 3.59961V5.2002Z" fill="#1C252E"/>
<path d="M10.5498 15.3004C10.5498 14.6888 10.0605 14.1502 9.40039 14.15C8.78866 14.15 8.25 14.6401 8.25 15.3004V19.8512C8.33185 20.549 8.88033 21.0504 9.40039 21.0504C10.012 21.0502 10.5498 20.5602 10.5498 19.9V15.3004ZM12.0498 19.9C12.0498 21.4396 10.7885 22.5502 9.40039 22.5504C7.92686 22.5504 6.88278 21.263 6.75391 19.9742C6.75145 19.9496 6.75 19.9248 6.75 19.9V15.3004C6.75 13.7607 8.01212 12.65 9.40039 12.65C10.9399 12.6502 12.0498 13.9123 12.0498 15.3004V19.9Z" fill="#1C252E"/>
<path d="M4.65039 14.15H3.7998C3.31434 14.1502 2.95039 14.5142 2.9502 14.9996C2.9502 15.4853 3.31421 15.85 3.7998 15.8502C4.28559 15.8502 4.65039 15.4854 4.65039 14.9996V14.15ZM6.15039 14.9996C6.15039 16.3138 5.11402 17.3502 3.7998 17.3502C2.48578 17.35 1.4502 16.3137 1.4502 14.9996C1.4504 13.6857 2.48591 12.6502 3.7998 12.65H5.40039C5.81451 12.6501 6.15039 12.9859 6.15039 13.4V14.9996Z" fill="#1C252E"/>
<path d="M21.2505 14.8004C21.2505 14.1887 20.7604 13.65 20.1001 13.65H15.5005C14.8888 13.65 14.3501 14.1401 14.3501 14.8004C14.3503 15.412 14.8403 15.9498 15.5005 15.9498H20.1001C20.6858 15.9498 21.2502 15.3861 21.2505 14.8004ZM22.7505 14.8004C22.7503 16.2145 21.5142 17.4498 20.1001 17.4498H15.5005C13.9609 17.4498 12.8503 16.1885 12.8501 14.8004C12.8501 13.2607 14.1122 12.15 15.5005 12.15H20.1001C21.6398 12.15 22.7505 13.4121 22.7505 14.8004Z" fill="#1C252E"/>
<path d="M16.0503 20.3996C16.0501 19.914 15.6854 19.55 15.1997 19.55H14.3501V20.3996C14.3501 20.8853 14.7141 21.25 15.1997 21.2502C15.6855 21.2502 16.0503 20.8854 16.0503 20.3996ZM17.5503 20.3996C17.5503 21.7138 16.5139 22.7502 15.1997 22.7502C13.8857 22.75 12.8501 21.7137 12.8501 20.3996V18.8C12.8501 18.3858 13.1859 18.05 13.6001 18.05H15.1997C16.5138 18.05 17.5501 19.0856 17.5503 20.3996Z" fill="#1C252E"/>
</svg>
