<svg width="24" height="24" viewBox="0 0 24 24" fill="none" xmlns="http://www.w3.org/2000/svg">
<path d="M11.75 13.0498H9.75V14.0498H11.75V21.25H13.25V13.9502H15.8486L16.0596 12.9502H13.25V9.2998C13.25 9.08421 13.3047 8.78511 13.5449 8.54492C13.7851 8.30473 14.0842 8.25003 14.2998 8.25H16.25V6.75H14C12.7142 6.75 11.75 7.71421 11.75 9V13.0498ZM17.75 8.7002C17.75 8.91579 17.6953 9.21489 17.4551 9.45508C17.2149 9.69527 16.9158 9.74997 16.7002 9.75H14.75V11.4502H16.5996C16.9905 11.4502 17.284 11.6613 17.4492 11.9092C17.5994 12.1346 17.6503 12.3885 17.6504 12.5996V12.6777L17.6338 12.7549L17.2344 14.6543C17.1976 14.8493 17.0995 14.9891 17.0342 15.0645C16.9464 15.1657 16.8486 15.2352 16.7734 15.2803C16.6445 15.3576 16.4345 15.4501 16.2002 15.4502H14.75V22.75H10.25V15.5498H9.2998C9.08421 15.5498 8.78511 15.4951 8.54492 15.2549C8.30475 15.0146 8.25 14.7156 8.25 14.5V12.5996C8.25007 12.384 8.30481 12.0848 8.54492 11.8447C8.78509 11.6046 9.08424 11.5498 9.2998 11.5498H10.25V9C10.25 6.88579 11.8858 5.25 14 5.25H16.7002C16.9158 5.25003 17.2149 5.30473 17.4551 5.54492C17.6953 5.78511 17.75 6.08421 17.75 6.2998V8.7002Z" fill="#1C252E"/>
<path d="M21.25 9C21.25 6.57397 20.7603 5.0708 19.8447 4.15527C18.9292 3.23974 17.426 2.75 15 2.75H9C6.57397 2.75 5.0708 3.23974 4.15527 4.15527C3.23974 5.0708 2.75 6.57397 2.75 9V15C2.75 17.426 3.23974 18.9292 4.15527 19.8447C5.0708 20.7603 6.57397 21.25 9 21.25H15C17.426 21.25 18.9292 20.7603 19.8447 19.8447C20.7603 18.9292 21.25 17.426 21.25 15V9ZM22.75 15C22.75 17.574 22.2397 19.5708 20.9053 20.9053C19.5708 22.2397 17.574 22.75 15 22.75H9C6.42603 22.75 4.4292 22.2397 3.09473 20.9053C1.76026 19.5708 1.25 17.574 1.25 15V9C1.25 6.42603 1.76026 4.4292 3.09473 3.09473C4.4292 1.76026 6.42603 1.25 9 1.25H15C17.574 1.25 19.5708 1.76026 20.9053 3.09473C22.2397 4.4292 22.75 6.42603 22.75 9V15Z" fill="#1C252E"/>
</svg>
