<svg width="24" height="24" viewBox="0 0 24 24" fill="none" xmlns="http://www.w3.org/2000/svg">
<path d="M21.25 9C21.25 6.57397 20.7603 5.0708 19.8447 4.15527C18.9292 3.23974 17.426 2.75 15 2.75H9C6.57397 2.75 5.0708 3.23974 4.15527 4.15527C3.23974 5.0708 2.75 6.57397 2.75 9V15C2.75 17.426 3.23974 18.9292 4.15527 19.8447C5.0708 20.7603 6.57397 21.25 9 21.25H15C17.426 21.25 18.9292 20.7603 19.8447 19.8447C20.7603 18.9292 21.25 17.426 21.25 15V9ZM22.75 15C22.75 17.574 22.2397 19.5708 20.9053 20.9053C19.5708 22.2397 17.574 22.75 15 22.75H9C6.42603 22.75 4.4292 22.2397 3.09473 20.9053C1.76026 19.5708 1.25 17.574 1.25 15V9C1.25 6.42603 1.76026 4.4292 3.09473 3.09473C4.4292 1.76026 6.42603 1.25 9 1.25H15C17.574 1.25 19.5708 1.76026 20.9053 3.09473C22.2397 4.4292 22.75 6.42603 22.75 9V15Z" fill="#1C252E"/>
<path d="M10.0195 16.4902V7.50977C10.0194 7.2541 9.8055 7.04004 9.5498 7.04004H7.09961C6.84404 7.04019 6.63004 7.25419 6.62988 7.50977V16.5C6.62988 16.7557 6.84394 16.9696 7.09961 16.9697H9.5498C9.80155 16.9697 10.0194 16.7599 10.0195 16.4902ZM11.5195 16.4902C11.5194 17.5804 10.6379 18.4697 9.5498 18.4697H7.09961C6.01552 18.4696 5.12988 17.5841 5.12988 16.5V7.50977C5.13003 6.42577 6.01561 5.54019 7.09961 5.54004H9.5498C10.6339 5.54004 11.5194 6.42568 11.5195 7.50977V16.4902Z" fill="#1C252E"/>
<path d="M17.3701 7.27051C17.3701 7.14472 17.2654 7.04004 17.1396 7.04004H14.2002C14.0744 7.04004 13.9697 7.14472 13.9697 7.27051V12.6504C13.9699 12.776 14.0745 12.8799 14.2002 12.8799H17.1396C17.2036 12.8799 17.2647 12.8538 17.3096 12.8096C17.3537 12.766 17.3709 12.7169 17.3701 12.6738V7.27051ZM18.8701 12.6602H18.8691C18.8793 13.6263 18.0711 14.3799 17.1396 14.3799H14.2002C13.2461 14.3799 12.4699 13.6044 12.4697 12.6504V7.27051C12.4697 6.31629 13.246 5.54004 14.2002 5.54004H17.1396C18.0939 5.54004 18.8701 6.31629 18.8701 7.27051V12.6602Z" fill="#1C252E"/>
</svg>
