<svg width="24" height="24" viewBox="0 0 24 24" fill="none" xmlns="http://www.w3.org/2000/svg">
<path d="M12.75 15V11C12.75 10.3142 12.1858 9.75 11.5 9.75H8.25V15C8.25 15.4142 7.91421 15.75 7.5 15.75C7.08579 15.75 6.75 15.4142 6.75 15V9C6.75 8.58579 7.08579 8.25 7.5 8.25H11.5C13.0142 8.25 14.25 9.48579 14.25 11V15C14.25 15.4142 13.9142 15.75 13.5 15.75C13.0858 15.75 12.75 15.4142 12.75 15Z" fill="#1C252E"/>
<path d="M9.75 15V12C9.75 11.5858 10.0858 11.25 10.5 11.25C10.9142 11.25 11.25 11.5858 11.25 12V15C11.25 15.4142 10.9142 15.75 10.5 15.75C10.0858 15.75 9.75 15.4142 9.75 15Z" fill="#1C252E"/>
<path d="M15.75 15V9C15.75 8.58579 16.0858 8.25 16.5 8.25C16.9142 8.25 17.25 8.58579 17.25 9V15C17.25 15.4142 16.9142 15.75 16.5 15.75C16.0858 15.75 15.75 15.4142 15.75 15Z" fill="#1C252E"/>
<path d="M21.25 12C21.25 6.89137 17.1086 2.75 12 2.75C6.89137 2.75 2.75 6.89137 2.75 12C2.75 17.1086 6.89137 21.25 12 21.25C17.1086 21.25 21.25 17.1086 21.25 12ZM22.75 12C22.75 17.9371 17.9371 22.75 12 22.75C6.06294 22.75 1.25 17.9371 1.25 12C1.25 6.06294 6.06294 1.25 12 1.25C17.9371 1.25 22.75 6.06294 22.75 12Z" fill="#1C252E"/>
</svg>
