<svg width="24" height="24" viewBox="0 0 24 24" fill="none" xmlns="http://www.w3.org/2000/svg">
<path d="M18.2495 7C18.2495 4.61421 16.3853 2.75 13.9995 2.75H9.49955C8.46516 2.75016 7.48844 3.58364 7.34232 4.60645L7.34134 4.61523L7.33939 4.62402L4.94095 18.9141C4.92346 19.05 4.96389 19.1255 4.99955 19.166C5.04136 19.2134 5.10995 19.25 5.19974 19.25H7.2681C7.27169 19.2471 7.27661 19.2436 7.28177 19.2373C7.30017 19.2148 7.33281 19.1588 7.36478 19.04L8.15873 13.7881L8.16068 13.7705L8.16459 13.7529C8.31849 12.9835 8.96573 12.25 9.89994 12.25H12.9995C14.4853 12.25 15.7987 11.6402 16.7691 10.6699C17.554 9.88504 18.159 8.75626 18.2495 7.4668V7ZM19.7495 7.52539L19.7486 7.5498C19.635 9.25329 18.8423 10.7187 17.8306 11.7305C16.6011 12.96 14.9136 13.75 12.9995 13.75H9.89994C9.85873 13.75 9.81153 13.7649 9.76029 13.8125C9.70666 13.8624 9.65732 13.9422 9.63627 14.042L8.84134 19.3115L8.83646 19.3477L8.82767 19.3818C8.69098 19.9286 8.35351 20.5346 7.58158 20.7275L7.49173 20.75H5.19974C4.15656 20.7499 3.29142 19.8588 3.45755 18.6943L3.45853 18.6846L3.46048 18.6758L5.8599 4.37598C6.12208 2.60774 7.74011 1.25016 9.49955 1.25H13.9995C17.2138 1.25 19.7495 3.78579 19.7495 7V7.52539Z" fill="#1C252E"/>
<path d="M20.2495 11C20.2495 10.1689 19.9499 9.41679 19.4224 8.84082C19.1202 9.92523 18.5427 10.9177 17.73 11.7305L17.729 11.7295C16.5848 12.973 14.8939 13.75 12.9995 13.75H9.89989C9.85868 13.75 9.81148 13.7649 9.76024 13.8125C9.70661 13.8624 9.65727 13.9422 9.63622 14.042L8.8452 19.2803C8.81566 19.8772 8.46034 20.3101 8.02098 20.5527L7.93895 20.8438C7.93608 20.8991 7.95384 20.9737 8.01317 21.0449C8.08033 21.1255 8.15477 21.1504 8.19969 21.1504H11.1997C11.2984 21.1504 11.356 21.1214 11.3862 21.0977C11.4133 21.0764 11.4454 21.0376 11.4624 20.957L12.1597 16.6797L12.1616 16.666L12.1645 16.6533C12.3398 15.7768 13.0695 15.25 13.8999 15.25H15.9995C17.1717 15.25 18.1882 14.7507 18.9692 13.9697C19.7503 13.1886 20.2495 12.1723 20.2495 11ZM21.7495 11C21.7495 12.6277 21.0487 14.0114 20.0298 15.0303C19.0109 16.0491 17.6271 16.75 15.9995 16.75H13.8999C13.8015 16.75 13.7437 16.7781 13.7134 16.8018C13.6864 16.823 13.6532 16.862 13.6362 16.9424L12.9399 21.2207L12.938 21.2334L12.935 21.2471C12.7597 22.1236 12.0301 22.6504 11.1997 22.6504H8.19969C7.12395 22.6503 6.28657 21.6218 6.46044 20.5771L6.46727 20.5352L6.47899 20.4941L6.67821 19.7939L6.79735 19.3779L7.21825 19.2725C7.29302 19.2537 7.33199 19.2225 7.3452 19.208C7.34814 19.2048 7.34939 19.2023 7.35009 19.2012V19.1436L7.3579 19.0879L8.15868 13.7881L8.16063 13.7705L8.16454 13.7529C8.31844 12.9835 8.96568 12.25 9.89989 12.25H12.9995C14.4917 12.25 15.7895 11.6364 16.645 10.6953L16.6567 10.6826L16.6694 10.6699C17.5439 9.7954 18.0649 8.66335 18.1518 7.44629L18.2339 6.29004L19.2554 6.83984C20.7931 7.66786 21.7495 9.21826 21.7495 11Z" fill="#1C252E"/>
</svg>
