<svg width="24" height="24" viewBox="0 0 24 24" fill="none" xmlns="http://www.w3.org/2000/svg">
<path d="M10.3696 1.46968C10.5841 1.2552 10.9067 1.19055 11.187 1.30659C11.4672 1.42268 11.6498 1.69661 11.6498 1.99995V5.99995C11.6498 6.19886 11.5708 6.38957 11.4301 6.53023L5.96039 12L11.4301 17.4697C11.5708 17.6103 11.6498 17.801 11.6498 18V22C11.6498 22.3033 11.4672 22.5772 11.187 22.6933C10.9067 22.8094 10.5841 22.7447 10.3696 22.5302L0.369572 12.5302C0.076679 12.2373 0.076679 11.7626 0.369572 11.4697L10.3696 1.46968ZM1.96039 12L10.1498 20.1894V18.3105L4.36957 12.5302C4.07668 12.2373 4.07668 11.7626 4.36957 11.4697L10.1498 5.68941V3.8105L1.96039 12Z" fill="#1C252E"/>
<path d="M12.6128 1.30659C12.893 1.19055 13.2157 1.2552 13.4302 1.46968L23.4302 11.4697C23.7231 11.7626 23.7231 12.2373 23.4302 12.5302L13.4302 22.5302C13.2157 22.7447 12.893 22.8094 12.6128 22.6933C12.3325 22.5772 12.1499 22.3033 12.1499 22V18C12.1499 17.801 12.229 17.6103 12.3696 17.4697L17.8394 12L12.3696 6.53023C12.229 6.38957 12.1499 6.19886 12.1499 5.99995V1.99995C12.1499 1.69661 12.3325 1.42268 12.6128 1.30659ZM13.6499 5.68941L19.4302 11.4697C19.7231 11.7626 19.7231 12.2373 19.4302 12.5302L13.6499 18.3105V20.1894L21.8394 12L13.6499 3.8105V5.68941Z" fill="#1C252E"/>
<path d="M10.3696 8.46968C10.5841 8.2552 10.9067 8.19055 11.187 8.30659C11.4672 8.42268 11.6498 8.69661 11.6498 8.99995V15C11.6498 15.3033 11.4672 15.5772 11.187 15.6933C10.9067 15.8094 10.5841 15.7447 10.3696 15.5302L7.36957 12.5302C7.07668 12.2373 7.07668 11.7626 7.36957 11.4697L10.3696 8.46968ZM8.96039 12L10.1498 13.1894V10.8105L8.96039 12Z" fill="#1C252E"/>
</svg>
