<svg width="24" height="24" viewBox="0 0 24 24" fill="none" xmlns="http://www.w3.org/2000/svg">
<path d="M12.75 1.25V9.34961H8.59961C6.38548 9.3495 4.5498 7.51395 4.5498 5.2998C4.54991 3.07118 6.4007 1.25 8.7002 1.25H12.75ZM6.0498 5.2998C6.0498 6.68553 7.21391 7.8495 8.59961 7.84961H11.25V2.75H8.7002C7.19983 2.75 6.04991 3.92861 6.0498 5.2998Z" fill="#1C252E"/>
<path d="M12.7495 7.94995V16.0496H8.69971C6.48558 16.0495 4.6499 14.2139 4.6499 11.9998C4.65001 9.78569 6.48565 7.95006 8.69971 7.94995H12.7495ZM6.1499 11.9998C6.1499 13.3855 7.31401 14.5495 8.69971 14.5496H11.2495V9.44995H8.69971C7.31407 9.45006 6.15001 10.6141 6.1499 11.9998Z" fill="#1C252E"/>
<path d="M11.2495 16.05H8.69971C7.31407 16.0502 6.15001 17.2142 6.1499 18.5999C6.1499 19.9856 7.31401 21.1495 8.69971 21.1497C10.0855 21.1497 11.2495 19.9856 11.2495 18.5999V16.05ZM12.7495 18.5999C12.7495 20.8141 10.9139 22.6497 8.69971 22.6497C6.48558 22.6496 4.6499 20.814 4.6499 18.5999C4.65001 16.3858 6.48565 14.5502 8.69971 14.55H12.7495V18.5999Z" fill="#1C252E"/>
<path d="M17.8496 5.2998C17.8495 3.9141 16.6855 2.75 15.2998 2.75H12.75V7.84961H15.2998C16.6856 7.84961 17.8496 6.68559 17.8496 5.2998ZM19.3496 5.2998C19.3496 7.51402 17.514 9.34961 15.2998 9.34961H11.25V1.25H15.2998C17.514 1.25 19.3495 3.08568 19.3496 5.2998Z" fill="#1C252E"/>
<path d="M17.8496 11.9998C17.8495 10.6141 16.6855 9.44995 15.2998 9.44995C13.9142 9.45006 12.7501 10.6141 12.75 11.9998C12.75 13.3855 13.9141 14.5495 15.2998 14.5496C16.6856 14.5496 17.8496 13.3855 17.8496 11.9998ZM19.3496 11.9998C19.3496 14.214 17.514 16.0496 15.2998 16.0496C13.0857 16.0495 11.25 14.2139 11.25 11.9998C11.2501 9.7857 13.0857 7.95006 15.2998 7.94995C17.514 7.94995 19.3495 9.78563 19.3496 11.9998Z" fill="#1C252E"/>
</svg>
