<svg width="24" height="24" viewBox="0 0 24 24" fill="none" xmlns="http://www.w3.org/2000/svg">
<path d="M21.25 9C21.25 7.67044 20.8101 6.62069 20.0947 5.90527C19.3793 5.18986 18.3296 4.75 17 4.75H7C5.67044 4.75 4.62069 5.18986 3.90527 5.90527C3.18986 6.62069 2.75 7.67044 2.75 9V15C2.75 16.3296 3.18986 17.3793 3.90527 18.0947C4.62069 18.8101 5.67044 19.25 7 19.25H17C18.3296 19.25 19.3793 18.8101 20.0947 18.0947C20.8101 17.3793 21.25 16.3296 21.25 15V9ZM22.75 15C22.75 16.6704 22.1899 18.1207 21.1553 19.1553C20.1207 20.1899 18.6704 20.75 17 20.75H7C5.32956 20.75 3.87931 20.1899 2.84473 19.1553C1.81014 18.1207 1.25 16.6704 1.25 15V9C1.25 7.32956 1.81014 5.87931 2.84473 4.84473C3.87931 3.81014 5.32956 3.25 7 3.25H17C18.6704 3.25 20.1207 3.81014 21.1553 4.84473C22.1899 5.87931 22.75 7.32956 22.75 9V15Z" fill="#1C252E"/>
<path d="M9.75049 8.68821C10.4146 8.30507 11.1763 8.49156 11.7856 8.85715L14.2856 10.3572L14.3159 10.3757C14.9022 10.7666 15.3247 11.3487 15.3247 12.0505C15.3245 12.7521 14.9021 13.3336 14.3159 13.7243C14.3061 13.7309 14.2958 13.7368 14.2856 13.7429L11.7856 15.2429C11.1432 15.6283 10.3908 15.7567 9.75049 15.3874C9.11632 15.0216 8.85017 14.3155 8.8501 13.6003V10.6003C8.8501 9.8321 9.08763 9.07063 9.75049 8.68821ZM10.3501 13.6003C10.3502 13.9818 10.482 14.0772 10.4995 14.0876C10.5091 14.0932 10.6567 14.1712 11.0142 13.9568L13.4937 12.4685C13.7969 12.2632 13.8245 12.0988 13.8247 12.0505C13.8247 12.0028 13.7983 11.8367 13.4937 11.6306L11.0142 10.1433C10.8297 10.0326 10.6916 9.99087 10.605 9.9802C10.5633 9.9751 10.5364 9.97764 10.522 9.9802C10.5085 9.98262 10.5021 9.98555 10.4995 9.98704C10.4968 9.98865 10.4898 9.99383 10.479 10.0066C10.4674 10.0204 10.4495 10.0465 10.4302 10.0915C10.3899 10.1852 10.3501 10.3476 10.3501 10.6003V13.6003Z" fill="#1C252E"/>
</svg>
