<svg width="24" height="24" viewBox="0 0 24 24" fill="none" xmlns="http://www.w3.org/2000/svg">
<path d="M6.8501 20.1V14.1996C6.85031 12.5856 8.18621 11.2504 9.80029 11.2504H14.1997C14.9854 11.2504 15.6498 10.5859 15.6499 9.80022V3.89983C15.6498 3.33958 15.2943 2.99222 14.9067 2.94377C14.9009 2.94304 14.895 2.94269 14.8892 2.94182C12.9754 2.65476 11.0627 2.6536 9.14893 2.93694C8.66191 3.07357 8.3502 3.49277 8.3501 3.89983V7.60002C8.3501 8.01424 8.01431 8.35002 7.6001 8.35002C7.18588 8.35002 6.8501 8.01424 6.8501 7.60002V3.89983C6.85019 2.7163 7.72413 1.74563 8.81787 1.47209L8.88916 1.45842C10.9565 1.14835 13.0249 1.14825 15.0923 1.45647C15.0959 1.45692 15.1004 1.45697 15.104 1.45745C15.1064 1.45781 15.1094 1.45806 15.1118 1.45842L15.1108 1.4594C16.3136 1.61901 17.1498 2.66638 17.1499 3.89983V9.80022C17.1498 11.4143 15.8139 12.7504 14.1997 12.7504H9.80029C9.01464 12.7504 8.35032 13.414 8.3501 14.1996V20.1C8.3501 20.5071 8.66201 20.9252 9.14893 21.0619C11.0627 21.3453 12.9753 21.3451 14.8892 21.058L14.9067 21.0561C15.2943 21.0076 15.6499 20.6604 15.6499 20.1V16.3998C15.65 15.9858 15.9858 15.6499 16.3999 15.6498C16.8141 15.6498 17.1498 15.9857 17.1499 16.3998V20.1C17.1499 21.3336 16.3136 22.3808 15.1108 22.5405L15.1118 22.5414C15.1058 22.5423 15.0993 22.5435 15.0933 22.5444L15.0923 22.5434C13.0249 22.8516 10.9565 22.8515 8.88916 22.5414C8.8654 22.5379 8.84118 22.5336 8.81787 22.5278C7.72409 22.2542 6.8501 21.2836 6.8501 20.1Z" fill="#1C252E"/>
<path d="M20.0996 6.84998C21.2832 6.84998 22.2537 7.72401 22.5273 8.81775C22.5332 8.84106 22.5384 8.86528 22.542 8.88904C22.853 10.9627 22.853 13.0381 22.542 15.1117L22.54 15.1107C22.3804 16.3135 21.3331 17.1498 20.0996 17.1498H12C11.5858 17.1498 11.25 16.814 11.25 16.3998C11.2501 15.9857 11.5859 15.6498 12 15.6498H20.0996C20.66 15.6498 21.0072 15.2942 21.0557 14.9066C21.0564 14.9007 21.0577 14.8949 21.0586 14.889C21.3454 12.9772 21.346 11.0665 21.0635 9.15466C20.9285 8.66439 20.5083 8.34998 20.0996 8.34998H16.4004C15.9862 8.34998 15.6504 8.01419 15.6504 7.59998C15.6504 7.18576 15.9862 6.84998 16.4004 6.84998H20.0996Z" fill="#1C252E"/>
<path d="M12.0004 6.84998C12.4144 6.85019 12.7504 7.18589 12.7504 7.59998C12.7504 8.01406 12.4144 8.34976 12.0004 8.34998H3.89983C3.49277 8.35008 3.07357 8.66179 2.93694 9.1488C2.68925 10.8218 2.65889 12.4937 2.84709 14.1664L2.94182 14.889L2.94377 14.9066C2.99222 15.2942 3.33958 15.6497 3.89983 15.6498H7.60002C8.01417 15.6498 8.34992 15.9857 8.35002 16.3998C8.35002 16.814 8.01424 17.1498 7.60002 17.1498H3.89983C2.6603 17.1497 1.60708 16.3054 1.45549 15.0931L1.45647 15.0922C1.14825 13.0248 1.14835 10.9564 1.45842 8.88904L1.47209 8.81775C1.74563 7.72401 2.7163 6.85007 3.89983 6.84998H12.0004Z" fill="#1C252E"/>
<path d="M9.25 4.84998C9.25 4.43576 9.58579 4.09998 10 4.09998C10.4142 4.09998 10.75 4.43576 10.75 4.84998C10.75 5.26419 10.4142 5.59998 10 5.59998C9.58579 5.59998 9.25 5.26419 9.25 4.84998Z" fill="#1C252E"/>
<path d="M13.25 19.15C13.25 18.7358 13.5858 18.4 14 18.4C14.4142 18.4 14.75 18.7358 14.75 19.15C14.75 19.5642 14.4142 19.9 14 19.9C13.5858 19.9 13.25 19.5642 13.25 19.15Z" fill="#1C252E"/>
</svg>
