<svg width="24" height="24" viewBox="0 0 24 24" fill="none" xmlns="http://www.w3.org/2000/svg">
<path d="M15.25 9C15.25 8.11561 15.0295 7.59001 14.7197 7.28027C14.41 6.97053 13.8844 6.75 13 6.75H9C8.11561 6.75 7.59001 6.97053 7.28027 7.28027C6.97053 7.59001 6.75 8.11561 6.75 9V15C6.75 15.8844 6.97053 16.41 7.28027 16.7197C7.59001 17.0295 8.11561 17.25 9 17.25H15C15.8844 17.25 16.41 17.0295 16.7197 16.7197C17.0295 16.41 17.25 15.8844 17.25 15V12C17.25 11.8704 17.2098 11.8211 17.1943 11.8057C17.1789 11.7902 17.1296 11.75 17 11.75C16.5296 11.75 16.0797 11.5895 15.7451 11.2549C15.4105 10.9203 15.25 10.4704 15.25 10V9ZM16.75 10C16.75 10.1296 16.7902 10.1789 16.8057 10.1943C16.8211 10.2098 16.8704 10.25 17 10.25C17.4704 10.25 17.9203 10.4105 18.2549 10.7451C18.5895 11.0797 18.75 11.5296 18.75 12V15C18.75 16.1156 18.4705 17.09 17.7803 17.7803C17.09 18.4705 16.1156 18.75 15 18.75H9C7.88439 18.75 6.90999 18.4705 6.21973 17.7803C5.52947 17.09 5.25 16.1156 5.25 15V9C5.25 7.88439 5.52947 6.90999 6.21973 6.21973C6.90999 5.52947 7.88439 5.25 9 5.25H13C14.1156 5.25 15.09 5.52947 15.7803 6.21973C16.4705 6.90999 16.75 7.88439 16.75 9V10Z" fill="#1C252E"/>
<path d="M12 9.25C12.4142 9.25 12.75 9.58579 12.75 10C12.75 10.4142 12.4142 10.75 12 10.75H10C9.58579 10.75 9.25 10.4142 9.25 10C9.25 9.58579 9.58579 9.25 10 9.25H12Z" fill="#1C252E"/>
<path d="M14 13.25C14.4142 13.25 14.75 13.5858 14.75 14C14.75 14.4142 14.4142 14.75 14 14.75H10C9.58579 14.75 9.25 14.4142 9.25 14C9.25 13.5858 9.58579 13.25 10 13.25H14Z" fill="#1C252E"/>
<path d="M21.25 9C21.25 6.57397 20.7603 5.0708 19.8447 4.15527C18.9292 3.23974 17.426 2.75 15 2.75H9C6.57397 2.75 5.0708 3.23974 4.15527 4.15527C3.23974 5.0708 2.75 6.57397 2.75 9V15C2.75 17.426 3.23974 18.9292 4.15527 19.8447C5.0708 20.7603 6.57397 21.25 9 21.25H15C17.426 21.25 18.9292 20.7603 19.8447 19.8447C20.7603 18.9292 21.25 17.426 21.25 15V9ZM22.75 15C22.75 17.574 22.2397 19.5708 20.9053 20.9053C19.5708 22.2397 17.574 22.75 15 22.75H9C6.42603 22.75 4.4292 22.2397 3.09473 20.9053C1.76026 19.5708 1.25 17.574 1.25 15V9C1.25 6.42603 1.76026 4.4292 3.09473 3.09473C4.4292 1.76026 6.42603 1.25 9 1.25H15C17.574 1.25 19.5708 1.76026 20.9053 3.09473C22.2397 4.4292 22.75 6.42603 22.75 9V15Z" fill="#1C252E"/>
</svg>
