<svg width="24" height="24" viewBox="0 0 24 24" fill="none" xmlns="http://www.w3.org/2000/svg">
<path d="M19.8999 1.25C20.8719 1.25 21.8033 2.07029 21.644 3.18164L21.646 3.18262L19.8462 19.3652C19.8144 20.1565 19.2121 20.6329 18.7358 20.8711C18.6929 20.8926 18.6473 20.91 18.6011 20.9229L12.5483 22.6084C12.3848 22.6781 12.2024 22.7246 12.0122 22.7246C11.8557 22.7246 11.6631 22.6915 11.481 22.5889L5.49854 20.9229V20.9219C5.17808 20.8381 4.862 20.666 4.62354 20.3799C4.38947 20.0988 4.26572 19.7493 4.25244 19.3682L2.35498 3.1875C2.35158 3.1585 2.3501 3.12881 2.3501 3.09961C2.35028 2.18273 2.9951 1.25 4.1001 1.25H19.8999ZM12.3306 21.3701C12.3131 21.3527 12.2954 21.3368 12.2778 21.3232C12.2958 21.3381 12.314 21.3535 12.3306 21.3701ZM4.1001 2.75C4.02337 2.75 3.9772 2.77675 3.93994 2.81934C3.89893 2.86624 3.8577 2.95096 3.85205 3.07227L5.74463 19.2129C5.74801 19.2418 5.75048 19.2707 5.75049 19.2998C5.75049 19.349 5.75712 19.3787 5.76221 19.3936C5.76707 19.4077 5.7721 19.4154 5.77588 19.4199C5.77918 19.4239 5.78772 19.4325 5.8042 19.4424L5.88232 19.4727L5.90186 19.4775L12.0015 21.1777L12.0522 21.1953C12.0679 21.1898 12.0831 21.1822 12.0991 21.1777L18.1177 19.5C18.2245 19.4406 18.2898 19.3854 18.3237 19.3447C18.3416 19.3233 18.3477 19.3102 18.3491 19.3066C18.3499 19.3047 18.3501 19.3035 18.3501 19.2998C18.3501 19.2722 18.3519 19.2442 18.355 19.2168L20.1548 3.01758L20.1606 2.97656C20.1691 2.92558 20.1565 2.88138 20.1157 2.83789C20.0697 2.78879 19.9921 2.75 19.8999 2.75H4.1001Z" fill="#1C252E"/>
<path d="M16.5 6.25C16.7133 6.25 16.9163 6.34105 17.0586 6.5C17.2009 6.65896 17.2687 6.87098 17.2451 7.08301L16.2451 16.083C16.2114 16.3854 15.9986 16.6371 15.7061 16.7207L12.2061 17.7207C12.0714 17.7592 11.9286 17.7592 11.7939 17.7207L8.29395 16.7207C8.03629 16.647 7.83746 16.4416 7.77246 16.1816L7.27246 14.1816C7.17215 13.7799 7.41659 13.3729 7.81836 13.2725C8.22013 13.1722 8.6271 13.4166 8.72754 13.8184L9.12207 15.3975L12 16.2197L14.8096 15.417L15.6621 7.75H7.5C7.08579 7.75 6.75 7.41421 6.75 7C6.75 6.58579 7.08579 6.25 7.5 6.25H16.5Z" fill="#1C252E"/>
<path d="M16.0996 10.25C16.5138 10.25 16.8496 10.5858 16.8496 11C16.8496 11.4142 16.5138 11.75 16.0996 11.75H8C7.58579 11.75 7.25 11.4142 7.25 11C7.25 10.5858 7.58579 10.25 8 10.25H16.0996Z" fill="#1C252E"/>
</svg>
