<svg width="24" height="24" viewBox="0 0 24 24" fill="none" xmlns="http://www.w3.org/2000/svg">
<path d="M8.80037 7.34961C9.63891 7.34966 10.3489 7.59203 10.9371 7.78809C11.6362 8.02112 11.8597 8.15039 12.3004 8.15039C12.678 8.15036 12.9813 8.07938 13.4215 7.90332C13.4349 7.89793 13.4487 7.89327 13.4625 7.88867C14.0736 7.68498 14.7717 7.4502 15.8004 7.4502C17.3363 7.45027 18.8584 8.16115 19.9 9.5498C20.0324 9.72637 20.0802 9.95284 20.0308 10.168C19.9814 10.3829 19.84 10.5648 19.6441 10.666C17.1883 11.9335 17.4996 15.5057 20.0709 16.501C20.2622 16.5751 20.4154 16.7244 20.4937 16.9141C20.5719 17.1037 20.5692 17.3174 20.4859 17.5049C20.0651 18.4518 19.7433 18.9861 19.2359 19.7979C19.2267 19.8126 19.2168 19.8268 19.2066 19.8408C18.8252 20.3653 18.3305 21.0814 17.7486 21.6494C17.1638 22.2202 16.3847 22.75 15.4 22.75C14.6847 22.75 14.2728 22.6215 13.7935 22.3848C13.3135 22.1916 13.0286 22.0498 12.3004 22.0498C11.6508 22.0498 11.2619 22.2033 10.7789 22.3965C10.7475 22.4091 10.715 22.4195 10.6822 22.4277C10.6166 22.4441 10.5489 22.4661 10.4605 22.4971C10.3801 22.5252 10.265 22.5673 10.149 22.6035C9.89496 22.6829 9.59276 22.75 9.19979 22.75C8.28476 22.7499 7.53675 22.2896 6.94686 21.7559C6.35958 21.2245 5.8427 20.5405 5.39998 19.9502C5.39057 19.9376 5.38124 19.9242 5.37264 19.9111C4.25412 18.2066 3.63919 16.3137 3.47811 14.5693C3.31948 12.8509 3.59632 11.1992 4.35701 10.0137L4.55818 9.70215C5.60145 8.1871 7.226 7.34961 8.80037 7.34961ZM8.80037 8.84961C7.67977 8.84961 6.41602 9.49801 5.64314 10.7861C5.63856 10.7938 5.63335 10.8011 5.6285 10.8086C5.1002 11.6214 4.83195 12.9101 4.97225 14.4307C5.11064 15.93 5.64207 17.5798 6.6158 19.0703C7.06736 19.6721 7.49626 20.2297 7.95369 20.6436C8.41356 21.0596 8.81508 21.2499 9.19979 21.25C9.40681 21.25 9.55578 21.2175 9.70174 21.1719C9.78549 21.1457 9.85772 21.1184 9.96443 21.0811C10.0485 21.0516 10.1483 21.0193 10.2584 20.9893C10.7676 20.7857 11.3724 20.5498 12.3004 20.5498C13.0934 20.5498 13.5834 20.6918 13.9908 20.8477L14.3785 21.0039L14.4351 21.0293C14.7434 21.1834 14.9297 21.25 15.4 21.25C15.815 21.25 16.2358 21.03 16.7008 20.5762C17.164 20.124 17.5661 19.5463 17.9801 18.9766C18.3238 18.4262 18.5614 18.0311 18.8062 17.5449C16.081 15.9219 15.557 11.9036 18.15 9.85449C17.4626 9.24721 16.6279 8.95025 15.8004 8.9502C15.0291 8.9502 14.526 9.11521 13.9371 9.31152L13.9361 9.31055C13.3933 9.52426 12.907 9.65036 12.3004 9.65039C11.541 9.65039 10.9634 9.37888 10.4625 9.21191C9.85099 9.00808 9.36138 8.84966 8.80037 8.84961ZM15.4693 1.25293C15.7985 1.28315 16.0771 1.5297 16.1383 1.86621C16.3923 3.26409 15.7548 4.57742 15.1002 5.4502C14.3995 6.38433 13.0717 7.27726 11.6324 7.14648C11.2968 7.11597 11.0228 6.86574 10.9625 6.53418C10.706 5.12352 11.3585 3.90585 12.0006 3.0498L12.0357 3.00586C12.8479 2.07771 14.1175 1.37473 15.3258 1.25391L15.4693 1.25293ZM14.648 2.95898C14.1044 3.17652 13.5701 3.53718 13.1812 3.97461C12.795 4.49461 12.5138 5.03362 12.4312 5.58008C12.9932 5.41956 13.5424 5.02655 13.9 4.5498C14.2627 4.06622 14.5428 3.51185 14.648 2.95898Z" fill="#1C252E"/>
</svg>
