<svg width="24" height="24" viewBox="0 0 24 24" fill="none" xmlns="http://www.w3.org/2000/svg">
<path d="M21.25 12C21.25 6.89421 17.1058 2.75 12 2.75C6.89421 2.75 2.75 6.89421 2.75 12C2.75 17.1058 6.89421 21.25 12 21.25C17.1058 21.25 21.25 17.1058 21.25 12ZM22.75 12C22.75 17.9342 17.9342 22.75 12 22.75C6.06579 22.75 1.25 17.9342 1.25 12C1.25 6.06579 6.06579 1.25 12 1.25C17.9342 1.25 22.75 6.06579 22.75 12Z" fill="#1C252E"/>
<path d="M15.25 12C15.25 10.2042 13.7958 8.75 12 8.75C10.2042 8.75 8.75 10.2042 8.75 12C8.75 13.7958 10.2042 15.25 12 15.25C13.7958 15.25 15.25 13.7958 15.25 12ZM16.75 12C16.75 14.6242 14.6242 16.75 12 16.75C9.37579 16.75 7.25 14.6242 7.25 12C7.25 9.37579 9.37579 7.25 12 7.25C14.6242 7.25 16.75 9.37579 16.75 12Z" fill="#1C252E"/>
<path d="M11.8397 7.26766C14.9652 6.58461 18.2045 6.58461 21.33 7.26766C21.7346 7.35612 21.9907 7.75559 21.9022 8.16024C21.8137 8.56478 21.4142 8.82093 21.0096 8.73251C18.0952 8.0956 15.0745 8.09559 12.16 8.73251C11.7554 8.82093 11.356 8.56479 11.2675 8.16024C11.179 7.75562 11.4351 7.35615 11.8397 7.26766Z" fill="#1C252E"/>
<path d="M3.71249 5.34799C4.10545 5.217 4.53072 5.42964 4.66171 5.8226L4.67734 5.8724L4.86776 6.39486C5.84648 8.99632 7.2808 11.4095 9.10605 13.5072C9.37794 13.8196 9.34431 14.2939 9.03183 14.5658C8.71944 14.8374 8.24609 14.8047 7.97421 14.4925C5.90109 12.11 4.30244 9.34657 3.26132 6.36752L3.25839 6.35678L3.23788 6.29721C3.1069 5.90425 3.31953 5.47898 3.71249 5.34799Z" fill="#1C252E"/>
<path d="M14.7579 13.7364C14.9034 13.3488 15.336 13.1526 15.7237 13.298C16.1113 13.4435 16.3076 13.8761 16.1622 14.2638L16.1358 14.3302C15.1624 17.3338 13.5625 20.1007 11.4356 22.4445C11.1572 22.7511 10.6828 22.7736 10.376 22.4952C10.0694 22.2169 10.0459 21.7424 10.3243 21.4357C12.3126 19.2447 13.8086 16.6583 14.7159 13.8497C14.7194 13.8387 14.7235 13.8274 14.7276 13.8165L14.7579 13.7364Z" fill="#1C252E"/>
</svg>
