<svg width="24" height="24" viewBox="0 0 24 24" fill="none" xmlns="http://www.w3.org/2000/svg">
<path d="M10.1963 7.25001C10.4929 7.24847 10.7621 7.42196 10.8838 7.69239L14.4844 15.6924C14.6542 16.0699 14.4858 16.5135 14.1084 16.6836C13.7307 16.8536 13.2862 16.6854 13.1163 16.3076L10.21 9.84864L7.38774 16.3008C7.22172 16.6803 6.77895 16.8535 6.39946 16.6875C6.01998 16.5215 5.84672 16.0787 6.01274 15.6992L9.51274 7.69923L9.5645 7.60255C9.69941 7.38665 9.93675 7.25137 10.1963 7.25001Z" fill="#1C252E"/>
<path d="M12.9004 12.55V14.05H7.5V12.55H12.9004Z" fill="#1C252E"/>
<path d="M15.5498 15.9998V10.7C15.5498 10.2857 15.8856 9.94995 16.2998 9.94995C16.714 9.94995 17.0498 10.2857 17.0498 10.7V15.9998C17.0498 16.414 16.714 16.7498 16.2998 16.7498C15.8856 16.7498 15.5498 16.414 15.5498 15.9998Z" fill="#1C252E"/>
<path d="M21.25 9C21.25 6.57397 20.7603 5.0708 19.8447 4.15527C18.9292 3.23974 17.426 2.75 15 2.75H9C6.57397 2.75 5.0708 3.23974 4.15527 4.15527C3.23974 5.0708 2.75 6.57397 2.75 9V15C2.75 17.426 3.23974 18.9292 4.15527 19.8447C5.0708 20.7603 6.57397 21.25 9 21.25H15C17.426 21.25 18.9292 20.7603 19.8447 19.8447C20.7603 18.9292 21.25 17.426 21.25 15V9ZM22.75 15C22.75 17.574 22.2397 19.5708 20.9053 20.9053C19.5708 22.2397 17.574 22.75 15 22.75H9C6.42603 22.75 4.4292 22.2397 3.09473 20.9053C1.76026 19.5708 1.25 17.574 1.25 15V9C1.25 6.42603 1.76026 4.4292 3.09473 3.09473C4.4292 1.76026 6.42603 1.25 9 1.25H15C17.574 1.25 19.5708 1.76026 20.9053 3.09473C22.2397 4.4292 22.75 6.42603 22.75 9V15Z" fill="#1C252E"/>
<path d="M15.3398 8.03418C15.3398 7.48189 15.7876 7.03418 16.3398 7.03418C16.8921 7.03418 17.3398 7.48189 17.3398 8.03418C17.3398 8.58646 16.8921 9.03418 16.3398 9.03418C15.7876 9.03418 15.3398 8.58646 15.3398 8.03418Z" fill="#1C252E"/>
</svg>
