<svg width="24" height="24" viewBox="0 0 24 24" fill="none" xmlns="http://www.w3.org/2000/svg">
<path d="M21.25 9C21.25 6.57397 20.7603 5.0708 19.8447 4.15527C18.9292 3.23974 17.426 2.75 15 2.75H9C6.57397 2.75 5.0708 3.23974 4.15527 4.15527C3.23974 5.0708 2.75 6.57397 2.75 9V15C2.75 17.426 3.23974 18.9292 4.15527 19.8447C5.0708 20.7603 6.57397 21.25 9 21.25H15C17.426 21.25 18.9292 20.7603 19.8447 19.8447C20.7603 18.9292 21.25 17.426 21.25 15V9ZM22.75 15C22.75 17.574 22.2397 19.5708 20.9053 20.9053C19.5708 22.2397 17.574 22.75 15 22.75H9C6.42603 22.75 4.4292 22.2397 3.09473 20.9053C1.76026 19.5708 1.25 17.574 1.25 15V9C1.25 6.42603 1.76026 4.4292 3.09473 3.09473C4.4292 1.76026 6.42603 1.25 9 1.25H15C17.574 1.25 19.5708 1.76026 20.9053 3.09473C22.2397 4.4292 22.75 6.42603 22.75 9V15Z" fill="#1C252E"/>
<path d="M10.75 10C10.75 9.31421 10.1858 8.75 9.5 8.75H8.25V11.25H9.5C10.1858 11.25 10.75 10.6858 10.75 10ZM12.25 10C12.25 11.5142 11.0142 12.75 9.5 12.75H8.25V16C8.25 16.4142 7.91421 16.75 7.5 16.75C7.08579 16.75 6.75 16.4142 6.75 16V8C6.75 7.58579 7.08579 7.25 7.5 7.25H9.5C11.0142 7.25 12.25 8.48579 12.25 10Z" fill="#1C252E"/>
<path d="M15.6504 14.5996C15.6503 14.5036 15.6071 14.3849 15.5176 14.29C15.4337 14.2012 15.3254 14.1504 15.2002 14.1504C14.227 14.1504 13.2501 13.3541 13.25 12.2002C13.25 11.2269 14.0462 10.25 15.2002 10.25H16.5C16.9142 10.25 17.25 10.5858 17.25 11C17.25 11.4142 16.9142 11.75 16.5 11.75H15.2002C15.075 11.75 14.9667 11.8009 14.8828 11.8896C14.7931 11.9847 14.75 12.104 14.75 12.2002C14.7501 12.3254 14.8008 12.4337 14.8896 12.5176C14.9847 12.6073 15.104 12.6504 15.2002 12.6504C16.354 12.6505 17.1502 13.6265 17.1504 14.5996C17.1504 15.7536 16.1734 16.5497 15.2002 16.5498H14C13.5858 16.5498 13.25 16.214 13.25 15.7998C13.2501 15.3857 13.5859 15.0498 14 15.0498H15.2002C15.2963 15.0497 15.4148 15.0067 15.5098 14.917C15.5986 14.833 15.6504 14.7249 15.6504 14.5996Z" fill="#1C252E"/>
</svg>
