<svg width="24" height="24" viewBox="0 0 24 24" fill="none" xmlns="http://www.w3.org/2000/svg">
<path d="M18.9998 1.25C19.414 1.25 19.7498 1.58579 19.7498 2V9C19.7498 9.41421 19.414 9.75 18.9998 9.75H13.8104L19.5301 15.4697C19.7446 15.6842 19.8092 16.0069 19.6932 16.2871C19.5771 16.5674 19.3032 16.75 18.9998 16.75H4.99983C4.58562 16.75 4.24983 16.4142 4.24983 16V9C4.24983 8.58579 4.58562 8.25 4.99983 8.25H10.1893L4.46956 2.53027C4.25508 2.31579 4.19043 1.99313 4.30647 1.71289C4.42256 1.43263 4.69648 1.25 4.99983 1.25H18.9998ZM5.74983 15.25H17.1893L11.6893 9.75H5.74983V15.25ZM12.3104 8.25H18.2498V2.75H6.81038L12.3104 8.25Z" fill="#1C252E"/>
<path d="M12.0002 15.25C12.4144 15.25 12.7502 15.5858 12.7502 16V22C12.7502 22.2929 12.5798 22.5593 12.3137 22.6816C12.0476 22.804 11.7343 22.7599 11.5119 22.5693L4.51193 16.5693C4.27383 16.3651 4.18839 16.0345 4.29709 15.7402C4.40598 15.4459 4.68635 15.25 5.00021 15.25H12.0002ZM11.2502 20.3691V16.75H7.02756L11.2502 20.3691Z" fill="#1C252E"/>
</svg>
