<svg width="24" height="24" viewBox="0 0 24 24" fill="none" xmlns="http://www.w3.org/2000/svg">
<path d="M17.8488 4.41794C18.0543 4.05833 18.5126 3.93322 18.8723 4.13864C19.2319 4.34413 19.357 4.80246 19.1516 5.16208C16.4058 9.96719 11.1145 12.7228 5.60274 12.2265H5.60176L2.43184 11.9365C2.01951 11.8987 1.71561 11.5344 1.75313 11.122C1.79087 10.7095 2.15607 10.4056 2.56856 10.4433L5.73848 10.7334H5.73751C10.6657 11.1771 15.3946 8.71274 17.8488 4.41794Z" fill="#1C252E"/>
<path d="M4.8484 18.9978C7.59418 14.1927 12.8855 11.4371 18.3972 11.9333H18.3982L21.5681 12.2234C21.9806 12.2611 22.2846 12.6263 22.2468 13.0388C22.2089 13.4511 21.8438 13.7542 21.4314 13.7165L18.2625 13.4265C13.3343 12.9828 8.60538 15.4472 6.15114 19.7419C5.94564 20.1015 5.48733 20.2267 5.1277 20.0212C4.76806 19.8157 4.6429 19.3574 4.8484 18.9978Z" fill="#1C252E"/>
<path d="M21.25 12C21.25 6.89137 17.1086 2.75 12 2.75C6.89137 2.75 2.75 6.89137 2.75 12C2.75 17.1086 6.89137 21.25 12 21.25C17.1086 21.25 21.25 17.1086 21.25 12ZM22.75 12C22.75 17.9371 17.9371 22.75 12 22.75C6.06294 22.75 1.25 17.9371 1.25 12C1.25 6.06294 6.06294 1.25 12 1.25C17.9371 1.25 22.75 6.06294 22.75 12Z" fill="#1C252E"/>
<path d="M7.15909 2.41592C7.48162 2.15626 7.95397 2.20686 8.21378 2.52921L11.3944 6.4794H11.3935C13.5931 9.20584 15.1525 12.3759 15.9784 15.7724V15.7733L17.1884 20.7636C17.2858 21.166 17.039 21.5712 16.6366 21.6689C16.2343 21.7664 15.8292 21.5193 15.7314 21.1171L14.5214 16.1269C13.7473 12.9437 12.2865 9.97414 10.2265 7.42081L10.2255 7.41983L7.04581 3.47061C6.78615 3.14808 6.83674 2.67573 7.15909 2.41592Z" fill="#1C252E"/>
</svg>
