<svg width="24" height="24" viewBox="0 0 24 24" fill="none" xmlns="http://www.w3.org/2000/svg">
<path d="M21.25 9C21.25 6.57397 20.7603 5.0708 19.8447 4.15527C18.9292 3.23974 17.426 2.75 15 2.75H9C6.57397 2.75 5.0708 3.23974 4.15527 4.15527C3.23974 5.0708 2.75 6.57397 2.75 9V15C2.75 17.426 3.23974 18.9292 4.15527 19.8447C5.0708 20.7603 6.57397 21.25 9 21.25H15C17.426 21.25 18.9292 20.7603 19.8447 19.8447C20.7603 18.9292 21.25 17.426 21.25 15V9ZM22.75 15C22.75 17.574 22.2397 19.5708 20.9053 20.9053C19.5708 22.2397 17.574 22.75 15 22.75H9C6.42603 22.75 4.4292 22.2397 3.09473 20.9053C1.76026 19.5708 1.25 17.574 1.25 15V9C1.25 6.42603 1.76026 4.4292 3.09473 3.09473C4.4292 1.76026 6.42603 1.25 9 1.25H15C17.574 1.25 19.5708 1.76026 20.9053 3.09473C22.2397 4.4292 22.75 6.42603 22.75 9V15Z" fill="#1C252E"/>
<path d="M17.2495 8.5C17.2495 8.08592 17.5855 7.75021 17.9995 7.75C18.4137 7.75 18.7495 8.08579 18.7495 8.5V15.5996C18.7495 16.0138 18.4137 16.3496 17.9995 16.3496H16.1997C14.7856 16.3495 13.6499 15.214 13.6499 13.7998C13.65 12.3857 14.7857 11.2501 16.1997 11.25H17.2495V8.5ZM15.1499 13.7998C15.1499 14.3855 15.614 14.8495 16.1997 14.8496H17.2495V12.75H16.1997C15.6141 12.7501 15.15 13.2142 15.1499 13.7998Z" fill="#1C252E"/>
<path d="M5.5266 7.91796C5.84779 7.65658 6.32077 7.70522 6.58226 8.02635L12.2815 15.0264C12.543 15.3476 12.4953 15.8205 12.1741 16.082C11.8529 16.3435 11.3799 16.2948 11.1184 15.9736L5.4182 8.97362C5.15682 8.65243 5.20546 8.17945 5.5266 7.91796Z" fill="#1C252E"/>
<path d="M11.1184 8.02641C11.3799 7.70524 11.8529 7.65653 12.1741 7.91801C12.4953 8.17956 12.543 8.65248 12.2815 8.97368L6.58226 15.9737C6.32077 16.2948 5.84779 16.3435 5.5266 16.0821C5.20546 15.8206 5.15682 15.3476 5.4182 15.0264L11.1184 8.02641Z" fill="#1C252E"/>
</svg>
