<svg width="24" height="24" viewBox="0 0 24 24" fill="none" xmlns="http://www.w3.org/2000/svg">
<path d="M21.25 12C21.25 6.89137 17.1086 2.75 12 2.75C6.89137 2.75 2.75 6.89137 2.75 12C2.75 17.1086 6.89137 21.25 12 21.25C17.1086 21.25 21.25 17.1086 21.25 12ZM22.75 12C22.75 17.9371 17.9371 22.75 12 22.75C6.06294 22.75 1.25 17.9371 1.25 12C1.25 6.06294 6.06294 1.25 12 1.25C17.9371 1.25 22.75 6.06294 22.75 12Z" fill="#1C252E"/>
<path d="M6.32839 8.60096C10.1636 7.10962 14.5241 7.64367 17.9251 9.98182C18.2663 10.2165 18.3521 10.6835 18.1175 11.0248C17.8828 11.3659 17.4167 11.4524 17.0755 11.2181C14.0765 9.15637 10.2361 8.69089 6.87136 9.9994C6.48542 10.1492 6.05073 9.95757 5.90066 9.57167C5.75068 9.18567 5.94242 8.75106 6.32839 8.60096Z" fill="#1C252E"/>
<path d="M7.6392 11.6968C10.5509 10.6184 13.8211 10.931 16.3453 12.7964C16.6784 13.0426 16.7497 13.5131 16.5035 13.8462C16.2573 14.1791 15.7877 14.2492 15.4546 14.0034C13.379 12.4693 10.6487 12.1817 8.16068 13.103C7.77233 13.2469 7.34076 13.0489 7.19682 12.6607C7.05299 12.2723 7.25095 11.8407 7.6392 11.6968Z" fill="#1C252E"/>
<path d="M8.52148 14.7035C10.7689 13.8047 13.2272 14.1503 15.2158 15.476C15.5605 15.7058 15.6536 16.1714 15.4238 16.516C15.1941 16.8607 14.7284 16.9538 14.3838 16.724C12.7724 15.6498 10.8306 15.3951 9.07812 16.0961C8.69355 16.2499 8.25733 16.0627 8.10351 15.6781C7.94992 15.2936 8.137 14.8573 8.52148 14.7035Z" fill="#1C252E"/>
</svg>
