<svg width="24" height="24" viewBox="0 0 24 24" fill="none" xmlns="http://www.w3.org/2000/svg">
<path d="M15.1997 2.25C15.4665 2.25 15.7137 2.39157 15.8481 2.62207V2.62305L15.8491 2.625L15.8686 2.65918C15.8826 2.68317 15.9041 2.71828 15.9311 2.76465C15.9853 2.85762 16.0643 2.99446 16.1655 3.16797C16.3678 3.51496 16.6576 4.0101 17.0044 4.60449C17.698 5.79342 18.6225 7.37807 19.5473 8.95898C20.4722 10.54 21.3963 12.1176 22.0893 13.293C22.436 13.8808 22.7244 14.3669 22.9253 14.7021C23.026 14.8703 23.1036 14.9975 23.1548 15.0801C23.1738 15.1108 23.1871 15.132 23.1958 15.1455C23.2338 15.1955 23.2639 15.2467 23.2856 15.2959C23.3457 15.432 23.3501 15.5513 23.3501 15.5996C23.3467 15.6711 23.3025 15.8619 23.2495 15.9746C23.1363 16.1227 22.826 16.3057 22.6303 16.3447C22.7447 16.3398 22.8325 16.3129 22.8774 16.2949C22.9579 16.2626 23.015 16.2236 23.0415 16.2041C23.0959 16.1642 23.1317 16.1253 23.1421 16.1143C23.157 16.0983 23.168 16.0857 23.1733 16.0791C23.1897 16.0588 23.1967 16.0475 23.186 16.0635C23.1707 16.0862 23.142 16.1302 23.0991 16.1992C23.0152 16.3343 22.893 16.5363 22.7436 16.7861C22.4453 17.285 22.0467 17.9617 21.6469 18.6426C21.2474 19.323 20.8471 20.0068 20.5473 20.5205C20.3975 20.7772 20.2724 20.9916 20.185 21.1416C20.1415 21.2163 20.1078 21.2753 20.0844 21.3154C20.0728 21.3355 20.0631 21.351 20.0571 21.3613C20.0541 21.3665 20.0518 21.3704 20.0503 21.373C20.0495 21.3744 20.0487 21.3753 20.0483 21.376V21.377C19.914 21.6078 19.6669 21.75 19.3999 21.75H4.60007C4.33737 21.75 4.09328 21.6126 3.95749 21.3877L0.758276 16.0879C0.616525 15.8531 0.613398 15.5592 0.75144 15.3223L8.15183 2.62207L8.20749 2.54004C8.34839 2.35852 8.56683 2.25 8.80027 2.25H15.1997ZM2.27097 15.6934L5.02292 20.25H18.9692C19.0471 20.1163 19.1432 19.9518 19.2524 19.7646C19.5526 19.2503 19.9526 18.5648 20.353 17.8828C20.7532 17.2012 21.1549 16.5209 21.4565 16.0166C21.5517 15.8574 21.6379 15.7144 21.7114 15.5938C21.6885 15.5557 21.6637 15.5152 21.6382 15.4727C21.4344 15.1326 21.1443 14.6431 20.7973 14.0547C20.1029 12.877 19.1775 11.2972 18.2524 9.71582C17.3273 8.13434 16.4023 6.54947 15.7085 5.36035C15.3616 4.76585 15.072 4.26993 14.8696 3.92285C14.8332 3.86034 14.7997 3.80257 14.769 3.75H9.23093L2.27097 15.6934ZM22.2348 16.2539C22.2862 16.2825 22.3433 16.3064 22.4067 16.3232C22.4681 16.3395 22.5262 16.3453 22.5796 16.3467C22.4601 16.3328 22.2994 16.2845 22.2348 16.2539ZM22.1362 16.1875C22.1579 16.2047 22.1809 16.2211 22.2055 16.2363C22.1824 16.2211 22.1564 16.2025 22.1362 16.1875ZM22.0229 16.0771C22.0441 16.1027 22.0675 16.1276 22.0932 16.1514C22.0625 16.1231 22.0386 16.0957 22.0229 16.0771Z" fill="#1C252E"/>
<path d="M8.41927 2.35347C8.77615 2.14331 9.2364 2.26226 9.44661 2.6191L20.0462 20.6191C20.2564 20.976 20.1375 21.4363 19.7806 21.6464C19.4238 21.8564 18.9645 21.7374 18.7542 21.3808L8.15364 3.38082C7.94348 3.02393 8.06243 2.56369 8.41927 2.35347Z" fill="#1C252E"/>
<path d="M14.554 2.6192C14.7643 2.26262 15.2236 2.1436 15.5804 2.35357C15.9373 2.56376 16.0562 3.02399 15.846 3.38092L5.24642 21.3809C5.0362 21.7378 4.57596 21.8567 4.21907 21.6465C3.86224 21.4363 3.74328 20.9761 3.95345 20.6192L14.554 2.6192Z" fill="#1C252E"/>
<path d="M22 14.95C22.4142 14.95 22.75 15.2857 22.75 15.7C22.75 16.1142 22.4142 16.45 22 16.45H1.5C1.08579 16.45 0.75 16.1142 0.75 15.7C0.75 15.2857 1.08579 14.95 1.5 14.95H22Z" fill="#1C252E"/>
</svg>
