<svg width="24" height="24" viewBox="0 0 24 24" fill="none" xmlns="http://www.w3.org/2000/svg">
<path d="M19.8999 1.25C20.8719 1.25 21.8033 2.07029 21.644 3.18164L21.646 3.18262L19.8462 19.3652C19.8144 20.1565 19.2121 20.6329 18.7358 20.8711C18.6929 20.8926 18.6473 20.91 18.6011 20.9229L12.5483 22.6084C12.3848 22.6781 12.2024 22.7246 12.0122 22.7246C11.8557 22.7246 11.6631 22.6915 11.481 22.5889L5.49854 20.9229V20.9219C5.17808 20.8381 4.862 20.666 4.62354 20.3799C4.38947 20.0988 4.26572 19.7493 4.25244 19.3682L2.35498 3.1875C2.35158 3.1585 2.3501 3.12881 2.3501 3.09961C2.35028 2.18273 2.9951 1.25 4.1001 1.25H19.8999ZM12.3306 21.3701C12.3131 21.3527 12.2954 21.3368 12.2778 21.3232C12.2958 21.3381 12.314 21.3535 12.3306 21.3701ZM4.1001 2.75C4.02337 2.75 3.9772 2.77675 3.93994 2.81934C3.89893 2.86624 3.8577 2.95096 3.85205 3.07227L5.74463 19.2129C5.74801 19.2418 5.75048 19.2707 5.75049 19.2998C5.75049 19.349 5.75712 19.3787 5.76221 19.3936C5.76707 19.4077 5.7721 19.4154 5.77588 19.4199C5.77918 19.4239 5.78772 19.4325 5.8042 19.4424L5.88232 19.4727L5.90186 19.4775L12.0015 21.1777L12.0522 21.1953C12.0679 21.1898 12.0831 21.1822 12.0991 21.1777L18.1177 19.5C18.2245 19.4406 18.2898 19.3854 18.3237 19.3447C18.3416 19.3233 18.3477 19.3102 18.3491 19.3066C18.3499 19.3047 18.3501 19.3035 18.3501 19.2998C18.3501 19.2722 18.3519 19.2442 18.355 19.2168L20.1548 3.01758L20.1606 2.97656C20.1691 2.92558 20.1565 2.88138 20.1157 2.83789C20.0697 2.78879 19.9921 2.75 19.8999 2.75H4.1001Z" fill="#1C252E"/>
<path d="M16.2003 6.05C16.6144 6.05021 16.9503 6.38592 16.9503 6.8C16.9503 7.21409 16.6144 7.54979 16.2003 7.55H8.62124L8.88491 10.4504H15.7999C16.0143 10.4504 16.2182 10.542 16.3605 10.7023C16.5028 10.8627 16.5706 11.0764 16.5451 11.2893L15.9445 16.2893C15.9088 16.587 15.699 16.8345 15.4113 16.9191L12.0119 17.9191C11.8774 17.9587 11.7338 17.9606 11.5988 17.923L7.99917 16.923C7.67468 16.8329 7.45051 16.5371 7.45034 16.2004V14.2004C7.45034 13.7862 7.78613 13.4504 8.20034 13.4504C8.61437 13.4506 8.95034 13.7863 8.95034 14.2004V15.6301L11.7931 16.4201L14.5138 15.6193L14.9542 11.9504H8.20034C7.81244 11.9504 7.48839 11.6541 7.45327 11.2678L7.05288 6.86836C7.0338 6.65851 7.10414 6.44974 7.24624 6.29414C7.38833 6.13861 7.58928 6.05 7.79995 6.05H16.2003Z" fill="#1C252E"/>
</svg>
