<svg width="24" height="24" viewBox="0 0 24 24" fill="none" xmlns="http://www.w3.org/2000/svg">
<path d="M19.8999 1.25C20.8719 1.25 21.8033 2.07029 21.644 3.18164L21.646 3.18262L19.8462 19.3652C19.8144 20.1565 19.2121 20.6329 18.7358 20.8711C18.6929 20.8926 18.6473 20.91 18.6011 20.9229L12.5483 22.6084C12.3848 22.6781 12.2024 22.7246 12.0122 22.7246C11.8557 22.7246 11.6631 22.6915 11.481 22.5889L5.49854 20.9229V20.9219C5.17808 20.8381 4.862 20.666 4.62354 20.3799C4.38947 20.0988 4.26572 19.7493 4.25244 19.3682L2.35498 3.1875C2.35158 3.1585 2.3501 3.12881 2.3501 3.09961C2.35028 2.18273 2.9951 1.25 4.1001 1.25H19.8999ZM12.3306 21.3701C12.3131 21.3527 12.2954 21.3368 12.2778 21.3232C12.2958 21.3381 12.314 21.3535 12.3306 21.3701ZM4.1001 2.75C4.02337 2.75 3.9772 2.77675 3.93994 2.81934C3.89893 2.86624 3.8577 2.95096 3.85205 3.07227L5.74463 19.2129C5.74801 19.2418 5.75048 19.2707 5.75049 19.2998C5.75049 19.349 5.75712 19.3787 5.76221 19.3936C5.76707 19.4077 5.7721 19.4154 5.77588 19.4199C5.77918 19.4239 5.78772 19.4325 5.8042 19.4424L5.88232 19.4727L5.90186 19.4775L12.0015 21.1777L12.0522 21.1953C12.0679 21.1898 12.0831 21.1822 12.0991 21.1777L18.1177 19.5C18.2245 19.4406 18.2898 19.3854 18.3237 19.3447C18.3416 19.3233 18.3477 19.3102 18.3491 19.3066C18.3499 19.3047 18.3501 19.3035 18.3501 19.2998C18.3501 19.2722 18.3519 19.2442 18.355 19.2168L20.1548 3.01758L20.1606 2.97656C20.1691 2.92558 20.1565 2.88138 20.1157 2.83789C20.0697 2.78879 19.9921 2.75 19.8999 2.75H4.1001Z" fill="#1C252E"/>
<path d="M9.84971 7C9.84971 6.58592 10.1857 6.25021 10.5997 6.25C11.0139 6.25 11.3497 6.58579 11.3497 7V16C11.3497 16.2358 11.2393 16.4579 11.0509 16.5996C10.8622 16.7413 10.6173 16.7865 10.3907 16.7207L7.29112 15.8203C6.89333 15.7048 6.66391 15.2884 6.7794 14.8906C6.89493 14.4929 7.31137 14.2645 7.70909 14.3799L9.84971 15V7Z" fill="#1C252E"/>
<path d="M16.4039 6.25587C16.8147 6.20287 17.1907 6.4935 17.2437 6.90431C17.2965 7.31493 17.0068 7.69103 16.5962 7.74415L14.1499 8.05861V11.5186L16.3804 11.1592C16.5973 11.1242 16.8186 11.1867 16.9859 11.3291C17.1532 11.4716 17.2496 11.6806 17.2496 11.9004V15.0996C17.2496 15.4436 17.0158 15.7435 16.6822 15.8272L13.0816 16.7276C12.6798 16.8279 12.2728 16.5834 12.1724 16.1817C12.0721 15.7799 12.3165 15.3729 12.7183 15.2725L15.7496 14.5137V12.7803L13.5191 13.1406C13.3022 13.1755 13.0809 13.1131 12.9136 12.9707C12.7465 12.8283 12.6501 12.62 12.6499 12.4004V7.4004C12.6499 7.0233 12.9302 6.70452 13.3042 6.65626L16.4039 6.25587Z" fill="#1C252E"/>
</svg>
