<svg width="24" height="24" viewBox="0 0 24 24" fill="none" xmlns="http://www.w3.org/2000/svg">
<path d="M5.25 12.5002V9.70044C5.25 8.78623 5.98618 8.05005 6.90039 8.05005H10.5996C12.6311 8.05005 14.1503 9.70329 14.1504 11.5999V14.3997C14.1504 15.3139 13.4142 16.05 12.5 16.05H8.7998C6.88574 16.0499 5.25011 14.4143 5.25 12.5002ZM6.75 12.5002C6.75012 13.5859 7.71416 14.5499 8.7998 14.55H12.5C12.5858 14.55 12.6504 14.4854 12.6504 14.3997V11.5999C12.6503 10.4966 11.768 9.55005 10.5996 9.55005H6.90039C6.8146 9.55005 6.75 9.61465 6.75 9.70044V12.5002Z" fill="#1C252E"/>
<path d="M17.5791 8.57897C17.8089 8.4232 18.1063 8.407 18.3516 8.53698C18.5969 8.66701 18.75 8.92236 18.75 9.20006V14.7997C18.75 15.0773 18.5969 15.3327 18.3516 15.4628C18.1062 15.5928 17.8089 15.5767 17.5791 15.4208L14.7793 13.5204C14.5737 13.3808 14.4503 13.1488 14.4502 12.9003V11.1005C14.4502 10.8519 14.5736 10.6189 14.7793 10.4794L17.5791 8.57897ZM15.9502 11.4969V12.5018L17.25 13.3846V10.6151L15.9502 11.4969Z" fill="#1C252E"/>
<path d="M21.25 12C21.25 6.89137 17.1086 2.75 12 2.75C6.89137 2.75 2.75 6.89137 2.75 12C2.75 17.1086 6.89137 21.25 12 21.25C17.1086 21.25 21.25 17.1086 21.25 12ZM22.75 12C22.75 17.9371 17.9371 22.75 12 22.75C6.06294 22.75 1.25 17.9371 1.25 12C1.25 6.06294 6.06294 1.25 12 1.25C17.9371 1.25 22.75 6.06294 22.75 12Z" fill="#1C252E"/>
</svg>
