<svg width="24" height="24" viewBox="0 0 24 24" fill="none" xmlns="http://www.w3.org/2000/svg">
<path d="M20.25 16.4V7.60018C20.25 7.53055 20.2342 7.48595 20.2148 7.45272C20.1947 7.41825 20.1585 7.37654 20.0957 7.3326L12.1387 2.9576C12.1201 2.94738 12.1016 2.93616 12.084 2.9244C12.0359 2.89235 11.9641 2.89235 11.916 2.9244C11.8984 2.93616 11.8799 2.94738 11.8613 2.9576L3.90332 7.3326C3.84093 7.37638 3.8052 7.41837 3.78516 7.45272C3.76577 7.48595 3.75 7.53055 3.75 7.60018V16.4C3.75 16.4566 3.76164 16.488 3.76758 16.5015C3.80126 16.5145 3.83471 16.5279 3.86621 16.5455L6.36621 17.9459L6.37207 17.9488C7.26353 18.4582 8.25 17.834 8.25 16.9V8.99959C8.25021 8.58556 8.58592 8.24959 9 8.24959C9.41408 8.24959 9.74979 8.58556 9.75 8.99959V16.9C9.75 18.9659 7.53643 20.3419 5.62793 19.2515V19.2506L3.17969 17.8795C2.56387 17.6322 2.25 17.0212 2.25 16.4V7.60018C2.25 6.90925 2.61113 6.391 3.08398 6.07577L3.13867 6.04256L11.1279 1.64901C11.6594 1.31843 12.3395 1.31872 12.8711 1.64901L20.8613 6.04256C20.88 6.05281 20.8983 6.06398 20.916 6.07577C21.3889 6.391 21.75 6.90925 21.75 7.60018V16.4C21.75 17.0909 21.3889 17.6092 20.916 17.9244C20.8984 17.9362 20.8799 17.9474 20.8613 17.9576L12.8613 22.357C12.3385 22.6767 11.6753 22.6789 11.1504 22.3639L9.68262 21.6793C9.30759 21.5041 9.14544 21.0584 9.32031 20.6832C9.49548 20.3078 9.94203 20.1447 10.3174 20.3199L11.8174 21.0201L11.916 21.0758C11.9641 21.1078 12.0359 21.1078 12.084 21.0758L12.1387 21.0426L20.0957 16.6666C20.1582 16.6228 20.1948 16.5818 20.2148 16.5474C20.2342 16.5142 20.25 16.4696 20.25 16.4Z" fill="#1C252E"/>
<path d="M11.0498 14.0996C11.05 13.6856 11.3857 13.3496 11.7998 13.3496C12.2139 13.3496 12.5496 13.6856 12.5498 14.0996C12.5498 14.6145 12.9428 15.0498 13.5 15.0498H15.2998C15.8147 15.0498 16.25 14.6568 16.25 14.0996C16.2498 13.5848 15.8569 13.1504 15.2998 13.1504H13.5C12.215 13.1504 11.0499 12.1429 11.0498 10.7002C11.0498 9.41513 12.0572 8.25 13.5 8.25H15.2998C16.6414 8.25 17.7499 9.41367 17.75 10.7998C17.75 11.214 17.4141 11.5497 17 11.5498C16.5858 11.5498 16.25 11.214 16.25 10.7998C16.2499 10.1861 15.7581 9.75 15.2998 9.75H13.5C12.9428 9.75 12.5498 10.1853 12.5498 10.7002C12.5499 11.2573 12.9851 11.6504 13.5 11.6504H15.2998C16.7424 11.6504 17.7498 12.8147 17.75 14.0996C17.75 15.5424 16.5849 16.5498 15.2998 16.5498H13.5C12.0572 16.5498 11.0498 15.3847 11.0498 14.0996Z" fill="#1C252E"/>
</svg>
