<svg width="24" height="24" viewBox="0 0 24 24" fill="none" xmlns="http://www.w3.org/2000/svg">
<path d="M21.8525 1.26459C22.0729 1.22052 22.3018 1.27741 22.4756 1.41986C22.6493 1.56232 22.75 1.77526 22.75 1.99994V10.9999C22.75 11.4142 22.4142 11.7499 22 11.7499H12C11.5858 11.7499 11.25 11.4142 11.25 10.9999V3.99994C11.25 3.64256 11.5022 3.33485 11.8525 3.26459L21.8525 1.26459ZM12.75 4.6142V10.2499H21.25V2.914L12.75 4.6142Z" fill="#1C252E"/>
<path d="M22 12.25C22.4142 12.25 22.75 12.5858 22.75 13V22C22.75 22.2247 22.6493 22.4376 22.4756 22.5801C22.3018 22.7225 22.0729 22.7794 21.8525 22.7354L11.8525 20.7354C11.5022 20.6651 11.25 20.3574 11.25 20V13C11.25 12.5858 11.5858 12.25 12 12.25H22ZM12.75 19.3848L21.25 21.085V13.75H12.75V19.3848Z" fill="#1C252E"/>
<path d="M9.84375 3.56658C10.065 3.51957 10.2959 3.57474 10.4717 3.71697C10.6475 3.85937 10.75 4.07371 10.75 4.29998V11.0002C10.7499 11.4143 10.4141 11.7502 10 11.7502H2C1.58585 11.7502 1.25011 11.4143 1.25 11.0002V6.00017C1.25 5.64619 1.49757 5.34055 1.84375 5.26678L9.84375 3.56658ZM2.75 6.60662V10.2502H9.25V5.22576L2.75 6.60662Z" fill="#1C252E"/>
<path d="M10 12.25C10.4142 12.25 10.75 12.5858 10.75 13V19.7002C10.7499 19.9264 10.6475 20.1408 10.4717 20.2832C10.2959 20.4254 10.0649 20.4806 9.84375 20.4336L1.84375 18.7334C1.49755 18.6596 1.25 18.354 1.25 18V13C1.25 12.5858 1.58579 12.25 2 12.25H10ZM2.75 17.3926L9.25 18.7734V13.75H2.75V17.3926Z" fill="#1C252E"/>
</svg>
