<svg width="24" height="24" viewBox="0 0 24 24" fill="none" xmlns="http://www.w3.org/2000/svg">
<path d="M5.4502 11.9004C5.4502 11.1344 5.55937 10.3522 5.78906 9.66309L5.8291 9.56445C5.8403 9.54206 5.84524 9.52408 5.87891 9.40625C5.89214 9.35995 5.91624 9.27822 5.95312 9.19336C5.97498 9.14309 6.00563 9.08189 6.04883 9.01758C7.08338 6.6965 9.42509 5.0498 12.2002 5.0498C13.9424 5.0498 15.1724 5.65416 16.0449 6.29395L17.7803 4.55859C16.2883 3.45665 14.3897 2.75 12.2002 2.75C8.58717 2.75 5.44906 4.7861 3.97461 7.82715L3.9707 7.83496C3.31656 9.14325 2.9502 10.5296 2.9502 12C2.9502 13.2865 3.23095 14.5082 3.73926 15.6699L3.9707 16.165L3.97559 16.1729H3.97461C5.44906 19.2139 8.58717 21.25 12.2002 21.25C14.7334 21.25 16.8425 20.407 18.2871 19.0527C18.2913 19.0488 18.2955 19.0449 18.2998 19.041C20.0161 17.5054 21.0498 15.1223 21.0498 12.2002C21.0498 11.7272 21.0105 11.3319 20.957 10.9502H12.9502V13.1504H17.7002C17.9134 13.1504 18.1165 13.2407 18.2588 13.3994C18.401 13.5583 18.4688 13.7705 18.4453 13.9824C18.3249 15.0661 17.6325 16.6609 16.1494 17.6992C15.1937 18.4159 13.8268 18.8496 12.2002 18.8496C9.26812 18.8496 6.68379 16.9335 5.78613 14.1289V14.1279C5.55851 13.4411 5.45023 12.6629 5.4502 11.9004ZM6.9502 11.9004C6.95023 12.4551 7.01981 12.9977 7.15137 13.4668L7.21191 13.6631L7.21484 13.6719C7.91745 15.8668 9.93258 17.3496 12.2002 17.3496C13.5735 17.3496 14.6057 16.9832 15.25 16.5C15.2576 16.4943 15.2656 16.4888 15.2734 16.4834C16.009 15.9741 16.4763 15.272 16.7295 14.6504H12.2002C11.7861 14.6504 11.4504 14.3144 11.4502 13.9004V10.2002C11.4502 9.78598 11.786 9.4502 12.2002 9.4502H21.6006L21.7344 9.46191C22.0409 9.51745 22.2871 9.76057 22.3398 10.0771C22.4402 10.6796 22.5498 11.333 22.5498 12.2002C22.5498 15.4711 21.388 18.2821 19.3125 20.1465C17.5571 21.7922 15.067 22.75 12.2002 22.75C8.01322 22.75 4.35055 20.3861 2.625 16.8271V16.8262C1.88194 15.337 1.4502 13.726 1.4502 12C1.4502 10.2706 1.88322 8.6566 2.62891 7.16504C4.356 3.61037 8.01623 1.25 12.2002 1.25C15.0929 1.25 17.5671 2.32334 19.3965 3.9375C19.5517 4.07447 19.6429 4.26964 19.6494 4.47656C19.6559 4.68345 19.577 4.88389 19.4307 5.03027L16.6309 7.83008C16.3517 8.10928 15.9036 8.12427 15.6064 7.86426C14.8871 7.23486 13.8558 6.5498 12.2002 6.5498C10.0099 6.5498 8.17533 7.8622 7.38965 9.69531C7.3707 9.73953 7.34723 9.78167 7.32031 9.82129C7.31201 9.85056 7.29352 9.91914 7.27344 9.98145C7.25685 10.0329 7.23338 10.0923 7.20508 10.1572C7.03906 10.6641 6.9502 11.2747 6.9502 11.9004Z" fill="#1C252E"/>
</svg>
