<svg width="24" height="24" viewBox="0 0 24 24" fill="none" xmlns="http://www.w3.org/2000/svg">
<path d="M19.25 6C19.25 4.71421 18.2858 3.75 17 3.75H7C5.71421 3.75 4.75 4.71421 4.75 6V6.7998C4.75 7.67463 4.63913 8.46615 4.30273 9.36328L4.30176 9.3623C3.9532 10.5368 2.93597 11.4027 1.75 11.665V12.334C2.93575 12.5962 3.95292 13.4626 4.30176 14.6367C4.64631 15.4574 4.75 16.3574 4.75 17.2002V18C4.75 19.2858 5.71421 20.25 7 20.25H17C18.2858 20.25 19.25 19.2858 19.25 18V17.2002C19.25 16.4347 19.3354 15.7332 19.582 14.9688L19.6973 14.6367C20.1101 13.5081 21.0508 12.6056 22.25 12.335V11.665C21.0623 11.4024 20.0434 10.5345 19.6963 9.35742C19.3536 8.53831 19.25 7.64065 19.25 6.7998V6ZM20.75 6.7998C20.75 7.45283 20.8229 8.06076 21.0049 8.58496L21.0898 8.80469L21.124 8.90234C21.3279 9.64988 22.1103 10.25 23 10.25C23.4142 10.25 23.75 10.5858 23.75 11V13C23.75 13.4142 23.4142 13.75 23 13.75C22.1541 13.75 21.4106 14.3145 21.1045 15.1562L21.1025 15.1631C20.839 15.8659 20.75 16.4751 20.75 17.2002V18C20.75 20.1142 19.1142 21.75 17 21.75H7C4.88579 21.75 3.25 20.1142 3.25 18V17.2002C3.25 16.4539 3.15482 15.7662 2.91016 15.1953C2.89658 15.1636 2.88506 15.1309 2.87598 15.0977C2.6721 14.3501 1.8897 13.75 1 13.75C0.585786 13.75 0.25 13.4142 0.25 13V11C0.25 10.5858 0.585786 10.25 1 10.25C1.8897 10.25 2.6721 9.64988 2.87598 8.90234C2.88202 8.8802 2.88941 8.85841 2.89746 8.83691C3.161 8.13414 3.25 7.52491 3.25 6.7998V6C3.25 3.88579 4.88579 2.25 7 2.25H17C19.1142 2.25 20.75 3.88579 20.75 6V6.7998Z" fill="#1C252E"/>
<path d="M14.0498 14.0998C14.0497 13.3633 13.554 12.821 12.8447 12.756L12.7002 12.7502H10.5498V15.4504H12.7002C13.4858 15.4502 14.0498 14.8854 14.0498 14.0998ZM14.0498 9.8996C14.0496 9.11414 13.4856 8.55017 12.7002 8.54999H10.5498V11.2502H12.7002L12.8447 11.2433C13.554 11.1784 14.0498 10.6362 14.0498 9.8996ZM15.5498 9.8996C15.5498 10.7451 15.2082 11.4845 14.6533 11.9992C15.2087 12.5139 15.5498 13.2539 15.5498 14.0998C15.5498 15.7139 14.3142 16.9502 12.7002 16.9504H9.7998C9.38572 16.9504 9.05002 16.6144 9.0498 16.2004V7.79999C9.0498 7.38577 9.38559 7.04999 9.7998 7.04999H12.7002C14.3141 7.05019 15.5496 8.2857 15.5498 9.8996Z" fill="#1C252E"/>
</svg>
