<svg width="24" height="24" viewBox="0 0 24 24" fill="none" xmlns="http://www.w3.org/2000/svg">
<path d="M11.25 15C11.25 13.7142 10.2858 12.75 9 12.75H2.75V17C2.75 17.1296 2.79025 17.1789 2.80566 17.1943C2.82108 17.2098 2.87044 17.25 3 17.25H9C10.2858 17.25 11.25 16.2858 11.25 15ZM12.75 15C12.75 17.1142 11.1142 18.75 9 18.75H3C2.52956 18.75 2.0797 18.5895 1.74512 18.2549C1.41053 17.9203 1.25 17.4704 1.25 17V7C1.25 6.52956 1.41053 6.0797 1.74512 5.74512C2.0797 5.41053 2.52956 5.25 3 5.25H8C10.1142 5.25 11.75 6.88579 11.75 9C11.75 10.042 11.3515 10.9667 10.6953 11.6377C11.9274 12.2432 12.75 13.501 12.75 15ZM2.75 11.25H8C9.28579 11.25 10.25 10.2858 10.25 9C10.25 7.71421 9.28579 6.75 8 6.75H3C2.87044 6.75 2.82108 6.79025 2.80566 6.80566C2.79025 6.82108 2.75 6.87044 2.75 7V11.25Z" fill="#1C252E"/>
<path d="M18 9.25C20.6142 9.25 22.75 11.3858 22.75 14C22.75 14.4142 22.4142 14.75 22 14.75H14.8389C15.1803 16.178 16.4721 17.25 18 17.25H19.7002C20.1143 17.2501 20.4502 17.5859 20.4502 18C20.4502 18.4141 20.1143 18.7499 19.7002 18.75H18C15.3858 18.75 13.25 16.6142 13.25 14C13.25 11.3858 15.3858 9.25 18 9.25ZM18 10.75C16.4721 10.75 15.1803 11.822 14.8389 13.25H21.1611C20.8197 11.822 19.5279 10.75 18 10.75Z" fill="#1C252E"/>
<path d="M19.5 6.75C19.9142 6.75 20.25 7.08579 20.25 7.5C20.25 7.91421 19.9142 8.25 19.5 8.25H16.5C16.0858 8.25 15.75 7.91421 15.75 7.5C15.75 7.08579 16.0858 6.75 16.5 6.75H19.5Z" fill="#1C252E"/>
</svg>
