<svg width="24" height="24" viewBox="0 0 24 24" fill="none" xmlns="http://www.w3.org/2000/svg">
<path d="M21.5 1.25C21.9142 1.25 22.25 1.58579 22.25 2V14C22.25 14.1989 22.1709 14.3896 22.0303 14.5303L17.0303 19.5303C16.8896 19.6709 16.6989 19.75 16.5 19.75H11.9014L10.124 22.416C9.98492 22.6247 9.75076 22.75 9.5 22.75H6.5C6.08579 22.75 5.75 22.4142 5.75 22V19.75H2.5C2.08579 19.75 1.75 19.4142 1.75 19V5C1.75 4.85193 1.79384 4.70719 1.87598 4.58398L3.87598 1.58398L3.93262 1.50977C4.07405 1.34604 4.28061 1.25 4.5 1.25H21.5ZM3.25 5.22656V18.25H6.5C6.91421 18.25 7.25 18.5858 7.25 19V21.25H9.09863L10.876 18.584L10.9326 18.5098C11.0741 18.346 11.2806 18.25 11.5 18.25H16.1895L20.75 13.6895V2.75H4.90137L3.25 5.22656Z" fill="#1C252E"/>
<path d="M11 6.25C11.4142 6.25 11.75 6.58579 11.75 7V13C11.75 13.4142 11.4142 13.75 11 13.75H9C8.58579 13.75 8.25 13.4142 8.25 13V7C8.25 6.58579 8.58579 6.25 9 6.25H11ZM9.75 12.25H10.25V7.75H9.75V12.25Z" fill="#1C252E"/>
<path d="M16 6.25C16.4142 6.25 16.75 6.58579 16.75 7V13C16.75 13.4142 16.4142 13.75 16 13.75H14C13.5858 13.75 13.25 13.4142 13.25 13V7C13.25 6.58579 13.5858 6.25 14 6.25H16ZM14.75 12.25H15.25V7.75H14.75V12.25Z" fill="#1C252E"/>
</svg>
