<svg width="24" height="24" viewBox="0 0 24 24" fill="none" xmlns="http://www.w3.org/2000/svg">
<path d="M19.75 17V7C19.75 4.99464 19.4812 4.04177 18.9697 3.53027C18.4582 3.01878 17.5054 2.75 15.5 2.75H8.5C6.49464 2.75 5.54177 3.01878 5.03027 3.53027C4.51878 4.04177 4.25 4.99464 4.25 7V18C4.25 18.4142 3.91421 18.75 3.5 18.75C3.08579 18.75 2.75 18.4142 2.75 18V7C2.75 5.00536 2.98122 3.45823 3.96973 2.46973C4.95823 1.48122 6.50536 1.25 8.5 1.25H15.5C17.4946 1.25 19.0418 1.48122 20.0303 2.46973C21.0188 3.45823 21.25 5.00536 21.25 7V17C21.25 17.1356 21.2505 17.3025 21.2383 17.4736C21.2087 17.8867 20.8496 18.1975 20.4365 18.168C20.0234 18.1384 19.7127 17.7794 19.7422 17.3662C19.7499 17.2574 19.75 17.1443 19.75 17Z" fill="#1C252E"/>
<path d="M2.75 18.5V17.8496C2.75021 15.8657 4.3657 14.2502 6.34961 14.25H20.5C20.9142 14.25 21.25 14.5858 21.25 15V18.5C21.25 20.8442 19.3442 22.75 17 22.75H7C4.65579 22.75 2.75 20.8442 2.75 18.5ZM4.25 18.5C4.25 20.0158 5.48421 21.25 7 21.25H17C18.5158 21.25 19.75 20.0158 19.75 18.5V15.75H6.34961C5.19413 15.7502 4.25021 16.6941 4.25 17.8496V18.5Z" fill="#1C252E"/>
<path d="M16 6.25C16.4142 6.25 16.75 6.58579 16.75 7C16.75 7.41421 16.4142 7.75 16 7.75H8C7.58579 7.75 7.25 7.41421 7.25 7C7.25 6.58579 7.58579 6.25 8 6.25H16Z" fill="#1C252E"/>
<path d="M13 9.75C13.4142 9.75 13.75 10.0858 13.75 10.5C13.75 10.9142 13.4142 11.25 13 11.25H8C7.58579 11.25 7.25 10.9142 7.25 10.5C7.25 10.0858 7.58579 9.75 8 9.75H13Z" fill="#1C252E"/>
</svg>
