<svg width="24" height="24" viewBox="0 0 24 24" fill="none" xmlns="http://www.w3.org/2000/svg">
<path d="M18.9902 11.0201C18.9902 10.5506 18.9892 10.2521 18.9668 10.023C18.9459 9.81022 18.9102 9.71888 18.875 9.65778C18.8355 9.58935 18.7578 9.49226 18.5488 9.32672C18.3393 9.1608 18.0531 8.96634 17.6289 8.68024L12.915 5.95953C12.7016 5.83628 12.3716 5.75254 12 5.7525C11.6746 5.7525 11.3812 5.81688 11.1699 5.91559L11.085 5.95953L6.37598 8.67731C5.94919 8.96517 5.66148 9.16018 5.45118 9.32672C5.24212 9.49229 5.16353 9.58934 5.12403 9.65778C5.08884 9.71888 5.05405 9.81048 5.03321 10.023C5.01075 10.2521 5.00977 10.5506 5.00977 11.0201V15.9898C5.00977 16.4592 5.01076 16.7578 5.03321 16.9869C5.05404 17.1993 5.08885 17.291 5.12403 17.3521C5.16353 17.4205 5.24212 17.5176 5.45118 17.6832C5.66291 17.8508 5.95315 18.0473 6.38477 18.3384L11.085 21.0504C11.2984 21.1736 11.6283 21.2574 12 21.2574C12.3716 21.2574 12.7016 21.1736 12.915 21.0504L17.6191 18.3345C18.0482 18.0451 18.3379 17.8502 18.5488 17.6832C18.7578 17.5177 18.8355 17.4205 18.875 17.3521C18.9102 17.291 18.9459 17.1996 18.9668 16.9869C18.9892 16.7578 18.9902 16.4592 18.9902 15.9898V11.0201ZM20.4902 15.9898C20.4902 16.4302 20.4903 16.8143 20.459 17.1334C20.4261 17.4683 20.3544 17.7909 20.1748 18.1021C19.9993 18.4062 19.7542 18.6414 19.4795 18.8589C19.21 19.0724 18.8595 19.3081 18.4395 19.5914C18.425 19.6011 18.4097 19.611 18.3945 19.6197L13.665 22.3492C13.1686 22.6359 12.5633 22.7574 12 22.7574C11.4367 22.7574 10.8315 22.6359 10.335 22.3492L5.6045 19.6197C5.58944 19.611 5.57497 19.6011 5.56055 19.5914C5.14029 19.3079 4.78917 19.0725 4.51953 18.8589C4.24488 18.6414 4.00068 18.4061 3.8252 18.1021C3.64557 17.7908 3.5729 17.4684 3.54004 17.1334C3.50877 16.8143 3.50977 16.4302 3.50977 15.9898V11.0201C3.50977 10.5796 3.50876 10.1956 3.54004 9.87653C3.5729 9.54145 3.64553 9.21913 3.8252 8.90778C4.00069 8.60373 4.24485 8.36849 4.51953 8.15094C4.78918 7.93739 5.14027 7.70196 5.56055 7.41852L5.6045 7.3902L10.335 4.66071C10.8315 4.37403 11.4367 4.2525 12 4.2525C12.5633 4.25254 13.1686 4.37402 13.665 4.66071L18.3945 7.3902C18.4097 7.39893 18.425 7.40875 18.4395 7.41852C18.8595 7.70177 19.21 7.9375 19.4795 8.15094C19.7542 8.3685 19.9993 8.60371 20.1748 8.90778C20.3544 9.21906 20.4261 9.54152 20.459 9.87653C20.4903 10.1956 20.4902 10.5796 20.4902 11.0201V15.9898Z" fill="#1C252E"/>
<path d="M16.75 7.62988V5C16.75 4.11561 16.5295 3.59001 16.2197 3.28027C15.91 2.97053 15.3844 2.75 14.5 2.75H9.5C8.61561 2.75 8.09001 2.97053 7.78027 3.28027C7.47053 3.59001 7.25 4.11561 7.25 5V7.55957C7.25 7.97378 6.91421 8.30957 6.5 8.30957C6.08579 8.30957 5.75 7.97378 5.75 7.55957V5C5.75 3.88439 6.02947 2.90999 6.71973 2.21973C7.40999 1.52947 8.38439 1.25 9.5 1.25H14.5C15.6156 1.25 16.59 1.52947 17.2803 2.21973C17.9705 2.90999 18.25 3.88439 18.25 5V7.62988C18.25 8.0441 17.9142 8.37988 17.5 8.37988C17.0858 8.37988 16.75 8.0441 16.75 7.62988Z" fill="#1C252E"/>
<path d="M11.9984 9.83502C12.4805 9.83502 12.8764 10.0862 13.1498 10.4297L13.2592 10.5821L13.2621 10.586L13.8168 11.4532C13.8181 11.4544 13.8196 11.4564 13.8217 11.4581C13.8256 11.4614 13.8303 11.4652 13.8353 11.4688L13.8529 11.4805L14.8451 11.7335L15.0267 11.7891C15.444 11.9403 15.8104 12.2403 15.9594 12.7032C16.1285 13.2293 15.9471 13.7494 15.6303 14.1358L15.6283 14.1378L14.9769 14.9249C14.9754 14.9281 14.9739 14.9322 14.972 14.9366C14.9695 14.9427 14.9674 14.9496 14.9652 14.9561C14.9634 14.9615 14.9615 14.9664 14.9603 14.9708L15.0189 15.9942L15.0209 16.1837C15.0047 16.6261 14.8334 17.067 14.4398 17.3516C13.9902 17.6767 13.4378 17.6628 12.972 17.4766V17.4756L12.015 17.0958H12.0131C12.0079 17.0954 12.0017 17.0948 11.9955 17.0948C11.9893 17.0948 11.9831 17.0954 11.9779 17.0958C11.9766 17.0959 11.9751 17.0957 11.974 17.0958L11.0179 17.4756C10.5465 17.6641 9.99487 17.6717 9.54822 17.3458C9.10429 17.0218 8.94078 16.498 8.97107 15.9971L9.02967 14.9708C9.02946 14.9699 9.02991 14.9688 9.02967 14.9678C9.0283 14.9623 9.02595 14.9558 9.02381 14.9493C9.02168 14.9428 9.01913 14.9369 9.01697 14.9317C9.016 14.9294 9.0148 14.9275 9.01404 14.9258L8.36267 14.1378L8.35974 14.1358C8.04294 13.7494 7.8624 13.2294 8.03162 12.7032C8.20185 12.1742 8.6553 11.858 9.1449 11.7335L10.139 11.4796C10.1398 11.4791 10.141 11.4792 10.142 11.4786C10.1462 11.4759 10.1517 11.4724 10.1566 11.4688C10.1613 11.4653 10.1657 11.4621 10.1693 11.459L10.1703 11.4581L10.7289 10.586L10.7357 10.5743C11.0116 10.1605 11.4502 9.83521 11.9984 9.83502ZM11.9838 11.4063L11.4281 12.2725C11.3211 12.4465 11.1721 12.5839 11.0443 12.6778C10.916 12.772 10.738 12.8745 10.5345 12.9258L9.5199 13.1846L10.1879 13.9922H10.1869C10.3166 14.1485 10.3997 14.3318 10.4486 14.4805C10.4978 14.6301 10.5416 14.8303 10.5287 15.0372L10.4691 16.0801L11.4418 15.6934L11.5863 15.6456C11.7311 15.6071 11.8751 15.5948 11.9955 15.5948C12.1559 15.5948 12.3575 15.6172 12.5482 15.6934H12.5472L13.5209 16.0801L13.4613 15.0372V14.8829C13.4706 14.7322 13.5053 14.5928 13.5424 14.4815C13.593 14.3295 13.6726 14.1596 13.7855 14.0128L13.8021 13.9922L14.4691 13.1846L13.4545 12.9268L13.4467 12.9249C13.2588 12.8747 13.0894 12.7793 12.9603 12.6866C12.831 12.5936 12.6812 12.4587 12.5697 12.2852L12.5687 12.2842L12.0004 11.3975C11.9988 11.3951 11.997 11.393 11.9955 11.3907C11.992 11.3956 11.9875 11.4008 11.9838 11.4063ZM14.4779 13.1719C14.4786 13.171 14.4792 13.1699 14.4799 13.169L14.6605 12.46L14.4779 13.1719Z" fill="#1C252E"/>
</svg>
