<svg width="24" height="24" viewBox="0 0 24 24" fill="none" xmlns="http://www.w3.org/2000/svg">
<path d="M20.25 9C20.25 6.57397 19.7603 5.0708 18.8447 4.15527C17.9292 3.23974 16.426 2.75 14 2.75H10C7.57397 2.75 6.0708 3.23974 5.15527 4.15527C4.23974 5.0708 3.75 6.57397 3.75 9V15C3.75 17.426 4.23974 18.9292 5.15527 19.8447C6.0708 20.7603 7.57397 21.25 10 21.25H14C16.426 21.25 17.9292 20.7603 18.8447 19.8447C19.7603 18.9292 20.25 17.426 20.25 15V9ZM21.75 15C21.75 17.574 21.2397 19.5708 19.9053 20.9053C18.5708 22.2397 16.574 22.75 14 22.75H10C7.42603 22.75 5.4292 22.2397 4.09473 20.9053C2.76026 19.5708 2.25 17.574 2.25 15V9C2.25 6.42603 2.76026 4.4292 4.09473 3.09473C5.4292 1.76026 7.42603 1.25 10 1.25H14C16.574 1.25 18.5708 1.76026 19.9053 3.09473C21.2397 4.4292 21.75 6.42603 21.75 9V15Z" fill="#1C252E"/>
<path d="M15.75 7.57996C15.75 7.16417 15.4158 6.82996 15 6.82996H9C8.58746 6.82996 8.25 7.17091 8.25 7.57996V8.57996C8.25 8.9925 8.59096 9.32996 9 9.32996H15C15.4125 9.32996 15.75 8.989 15.75 8.57996V7.57996ZM17.25 8.57996C17.25 9.81091 16.2475 10.83 15 10.83H9C7.76904 10.83 6.75 9.82742 6.75 8.57996V7.57996C6.75 6.349 7.75254 5.32996 9 5.32996H15C16.2442 5.32996 17.25 6.33574 17.25 7.57996V8.57996Z" fill="#1C252E"/>
<path d="M8.14844 13C8.70072 13 9.14844 13.4477 9.14844 14C9.14844 14.5523 8.70072 15 8.14844 15H8.13672C7.58461 14.9998 7.13672 14.5522 7.13672 14C7.13672 13.4478 7.58461 13.0002 8.13672 13H8.14844Z" fill="#1C252E"/>
<path d="M12.0059 13C12.5581 13 13.0059 13.4477 13.0059 14C13.0059 14.5523 12.5581 15 12.0059 15H11.9941C11.442 14.9998 10.9941 14.5522 10.9941 14C10.9941 13.4478 11.442 13.0002 11.9941 13H12.0059Z" fill="#1C252E"/>
<path d="M15.8652 13C16.4175 13 16.8652 13.4477 16.8652 14C16.8652 14.5523 16.4175 15 15.8652 15H15.8535C15.3014 14.9998 14.8535 14.5522 14.8535 14C14.8535 13.4478 15.3014 13.0002 15.8535 13H15.8652Z" fill="#1C252E"/>
<path d="M8.14844 16.5C8.70072 16.5 9.14844 16.9477 9.14844 17.5C9.14844 18.0523 8.70072 18.5 8.14844 18.5H8.13672C7.58461 18.4998 7.13672 18.0522 7.13672 17.5C7.13672 16.9478 7.58461 16.5002 8.13672 16.5H8.14844Z" fill="#1C252E"/>
<path d="M12.0059 16.5C12.5581 16.5 13.0059 16.9477 13.0059 17.5C13.0059 18.0523 12.5581 18.5 12.0059 18.5H11.9941C11.442 18.4998 10.9941 18.0522 10.9941 17.5C10.9941 16.9478 11.442 16.5002 11.9941 16.5H12.0059Z" fill="#1C252E"/>
<path d="M15.8652 16.5C16.4175 16.5 16.8652 16.9477 16.8652 17.5C16.8652 18.0523 16.4175 18.5 15.8652 18.5H15.8535C15.3014 18.4998 14.8535 18.0522 14.8535 17.5C14.8535 16.9478 15.3014 16.5002 15.8535 16.5H15.8652Z" fill="#1C252E"/>
</svg>
