<svg width="24" height="24" viewBox="0 0 24 24" fill="none" xmlns="http://www.w3.org/2000/svg">
<path d="M15.25 14.2C15.25 12.4051 13.7949 10.95 12 10.95C10.2051 10.95 8.75 12.4051 8.75 14.2C8.75 15.9949 10.2051 17.45 12 17.45C13.7949 17.45 15.25 15.9949 15.25 14.2ZM16.75 14.2C16.75 16.8234 14.6234 18.95 12 18.95C9.37665 18.95 7.25 16.8234 7.25 14.2C7.25 11.5767 9.37665 9.45001 12 9.45001C14.6234 9.45001 16.75 11.5767 16.75 14.2Z" fill="#1C252E"/>
<path d="M10.4188 12.6707C10.711 12.3774 11.1859 12.3766 11.4794 12.6688L12.0106 13.198L12.5194 12.6893C12.8122 12.3967 13.2871 12.3966 13.5799 12.6893C13.8728 12.9822 13.8728 13.4579 13.5799 13.7508L13.0741 14.2557L13.5995 14.7781C13.893 15.0703 13.8935 15.5451 13.6014 15.8387C13.3092 16.1323 12.8345 16.1338 12.5409 15.8416L12.0126 15.3162L11.4598 15.8699C11.1669 16.1628 10.6922 16.1628 10.3993 15.8699C10.1065 15.577 10.1064 15.1022 10.3993 14.8094L10.9501 14.2576L10.4208 13.7313C10.1274 13.439 10.1267 12.9642 10.4188 12.6707Z" fill="#1C252E"/>
<path d="M17.0003 5.25C19.2232 5.25003 20.7408 5.7648 21.6262 6.81738C22.5045 7.86155 22.5871 9.23392 22.4456 10.5127L21.6966 18.5L21.6956 18.5098C21.5854 19.5378 21.3274 20.6653 20.4094 21.5039C19.4983 22.3361 18.0868 22.75 16.0003 22.75H8.00026C5.91341 22.75 4.50125 22.3363 3.59011 21.5039C2.67226 20.6653 2.41412 19.5378 2.30397 18.5098L2.303 18.5L1.553 10.5L1.55397 10.499C1.41454 9.22416 1.49829 7.85788 2.37331 6.81738C3.25872 5.76473 4.77723 5.25 7.00026 5.25H17.0003ZM7.00026 6.75C4.9533 6.75 3.98634 7.23086 3.52175 7.7832C3.10911 8.2739 2.95584 8.98004 3.01003 9.92676L3.04519 10.3477L3.04714 10.3604L3.79616 18.3506L3.83913 18.6865C3.95245 19.4431 4.16473 19.9971 4.60183 20.3965C5.10818 20.8591 6.06711 21.25 8.00026 21.25H16.0003C17.933 21.25 18.8913 20.859 19.3977 20.3965C19.8972 19.9402 20.1045 19.2823 20.2044 18.3506L20.9534 10.3604L20.9544 10.3477C21.0828 9.18666 20.9503 8.34404 20.4788 7.7832C20.0142 7.23087 19.0471 6.75003 17.0003 6.75H7.00026Z" fill="#1C252E"/>
<path d="M15.25 6V5.2002C15.25 4.74591 15.2485 4.37608 15.2061 4.05078C15.1645 3.73214 15.0902 3.51688 14.9834 3.3623C14.8001 3.09715 14.3292 2.75 12.7998 2.75H11.2002C9.67083 2.75 9.1999 3.09715 9.0166 3.3623C8.90977 3.51688 8.83555 3.73214 8.79395 4.05078C8.75151 4.37608 8.75 4.74591 8.75 5.2002V6C8.75 6.41421 8.41421 6.75 8 6.75C7.58579 6.75 7.25 6.41421 7.25 6V5.2002C7.25 4.76972 7.24915 4.29693 7.30664 3.85645C7.36504 3.40914 7.49003 2.93394 7.7832 2.50977C8.39996 1.61752 9.52978 1.25 11.2002 1.25H12.7998C14.4702 1.25 15.6 1.61752 16.2168 2.50977C16.51 2.93394 16.635 3.40914 16.6934 3.85645C16.7508 4.29693 16.75 4.76972 16.75 5.2002V6C16.75 6.41421 16.4142 6.75 16 6.75C15.5858 6.75 15.25 6.41421 15.25 6Z" fill="#1C252E"/>
<path d="M21.2083 10.3936C21.5431 10.1497 22.0123 10.2238 22.2562 10.5586C22.5 10.8933 22.4267 11.3626 22.0921 11.6065C20.2827 12.9243 18.2739 13.8443 16.1927 14.3672C15.7911 14.468 15.3836 14.2247 15.2825 13.8233C15.1816 13.4215 15.4257 13.014 15.8275 12.9131C17.7263 12.436 19.5577 11.5957 21.2083 10.3936Z" fill="#1C252E"/>
<path d="M2.00178 10.8471C2.23535 10.5052 2.70172 10.4174 3.04377 10.6509C4.64057 11.7409 6.37799 12.5134 8.17854 12.9516C8.5807 13.0497 8.82702 13.4547 8.72932 13.8569C8.6314 14.2592 8.22637 14.5063 7.82405 14.4087C5.84465 13.9269 3.94123 13.0791 2.19807 11.8891C1.85608 11.6556 1.76828 11.1892 2.00178 10.8471Z" fill="#1C252E"/>
</svg>
