<svg width="24" height="24" viewBox="0 0 24 24" fill="none" xmlns="http://www.w3.org/2000/svg">
<path d="M17.0003 5.25C19.2232 5.25003 20.7408 5.7648 21.6262 6.81738C22.5045 7.86155 22.5871 9.23392 22.4456 10.5127L21.6966 18.5L21.6956 18.5098C21.5854 19.5378 21.3274 20.6653 20.4094 21.5039C19.4983 22.3361 18.0868 22.75 16.0003 22.75H8.00026C5.91341 22.75 4.50125 22.3363 3.59011 21.5039C2.67226 20.6653 2.41412 19.5378 2.30397 18.5098L2.303 18.5L1.553 10.5L1.55397 10.499C1.41454 9.22416 1.49829 7.85788 2.37331 6.81738C3.25872 5.76473 4.77723 5.25 7.00026 5.25H17.0003ZM7.00026 6.75C4.9533 6.75 3.98634 7.23086 3.52175 7.7832C3.10911 8.2739 2.95584 8.98004 3.01003 9.92676L3.04519 10.3477L3.04714 10.3604L3.79616 18.3506L3.83913 18.6865C3.95245 19.4431 4.16473 19.9971 4.60183 20.3965C5.10818 20.8591 6.06711 21.25 8.00026 21.25H16.0003C17.933 21.25 18.8913 20.859 19.3977 20.3965C19.8972 19.9402 20.1045 19.2823 20.2044 18.3506L20.9534 10.3604L20.9544 10.3477C21.0828 9.18666 20.9503 8.34404 20.4788 7.7832C20.0142 7.23087 19.0471 6.75003 17.0003 6.75H7.00026Z" fill="#1C252E"/>
<path d="M15.25 6V5.2002C15.25 4.74591 15.2485 4.37608 15.2061 4.05078C15.1645 3.73214 15.0902 3.51688 14.9834 3.3623C14.8001 3.09715 14.3292 2.75 12.7998 2.75H11.2002C9.67083 2.75 9.1999 3.09715 9.0166 3.3623C8.90977 3.51688 8.83555 3.73214 8.79395 4.05078C8.75151 4.37608 8.75 4.74591 8.75 5.2002V6C8.75 6.41421 8.41421 6.75 8 6.75C7.58579 6.75 7.25 6.41421 7.25 6V5.2002C7.25 4.76972 7.24915 4.29693 7.30664 3.85645C7.36504 3.40914 7.49003 2.93394 7.7832 2.50977C8.39996 1.61752 9.52978 1.25 11.2002 1.25H12.7998C14.4702 1.25 15.6 1.61752 16.2168 2.50977C16.51 2.93394 16.635 3.40914 16.6934 3.85645C16.7508 4.29693 16.75 4.76972 16.75 5.2002V6C16.75 6.41421 16.4142 6.75 16 6.75C15.5858 6.75 15.25 6.41421 15.25 6Z" fill="#1C252E"/>
<path d="M13.25 14.0195V13C13.25 12.9036 13.2488 12.8223 13.2481 12.751C13.1769 12.7502 13.0959 12.75 13 12.75H11C10.9036 12.75 10.8223 12.7502 10.751 12.751C10.7502 12.8223 10.75 12.9036 10.75 13V14.0303C10.75 14.3116 10.7529 14.5187 10.7773 14.6943C10.8009 14.8632 10.8375 14.9456 10.8691 14.9902C10.9044 15.04 11.0806 15.25 12 15.25C12.9236 15.25 13.0973 15.0376 13.1318 14.9883C13.1636 14.9428 13.2005 14.8593 13.2236 14.6885C13.2357 14.5996 13.2426 14.5032 13.2461 14.3936L13.25 14.0195ZM14.75 14.0195C14.75 14.2815 14.7509 14.594 14.7109 14.8897C14.67 15.1921 14.5797 15.5354 14.3604 15.8486C13.8924 16.5168 13.0664 16.75 12 16.75C10.9394 16.75 10.1152 16.5201 9.64551 15.8574C9.42476 15.5459 9.33315 15.2039 9.29102 14.9014C9.24986 14.6056 9.25 14.2937 9.25 14.0303V13C9.25 12.7683 9.24919 12.5308 9.27051 12.3389C9.29124 12.1525 9.34646 11.843 9.59473 11.5947C9.84301 11.3465 10.1525 11.2912 10.3389 11.2705C10.5308 11.2492 10.7683 11.25 11 11.25H13C13.2317 11.25 13.4692 11.2492 13.6611 11.2705C13.8476 11.2912 14.157 11.3465 14.4053 11.5947C14.6536 11.843 14.7088 12.1525 14.7295 12.3389C14.7508 12.5308 14.75 12.7683 14.75 13V14.0195Z" fill="#1C252E"/>
<path d="M21.209 10.3936C21.544 10.15 22.0132 10.2237 22.2569 10.5586C22.5005 10.8936 22.4259 11.3628 22.0909 11.6065C19.6748 13.3636 16.9145 14.4085 14.0938 14.7637C13.6828 14.8154 13.3077 14.5243 13.2559 14.1133C13.2044 13.7025 13.4955 13.3271 13.9063 13.2754C16.4855 12.9506 19.0052 11.9964 21.209 10.3936Z" fill="#1C252E"/>
<path d="M2.00028 10.8462C2.23425 10.5044 2.70145 10.4169 3.04325 10.6509C5.19213 12.1216 7.6156 13.0083 10.0833 13.2846C10.4947 13.3309 10.7905 13.7022 10.7444 14.1137C10.6982 14.5251 10.3277 14.8208 9.9163 14.7749C7.20401 14.4712 4.5467 13.4983 2.19559 11.8891C1.85381 11.6552 1.76634 11.188 2.00028 10.8462Z" fill="#1C252E"/>
</svg>
