<svg width="24" height="24" viewBox="0 0 24 24" fill="none" xmlns="http://www.w3.org/2000/svg">
<path d="M4.35353 2.14926C5.61122 1.23261 7.28617 1.08285 9.31446 1.39926H9.31544L14.0039 2.13852C15.6383 2.39356 16.9566 2.86989 17.8877 3.702C18.843 4.55576 19.3023 5.70353 19.377 7.10044C19.4218 7.78412 19.3652 8.53371 19.2402 9.33579L18.5098 14.0252V14.0272C18.1882 16.0552 17.532 17.6048 16.2744 18.5213C15.0167 19.4379 13.3417 19.5877 11.3135 19.2713L11.3125 19.2704L6.62208 18.5311V18.5301C5.21231 18.3107 4.04531 17.9249 3.15431 17.2918V17.2909C1.35734 16.0351 0.961502 13.999 1.37794 11.3338V11.3329L2.11817 6.64243C2.43974 4.61453 3.09611 3.06581 4.35353 2.14926ZM9.08204 2.87973C7.2014 2.58655 6.01688 2.79309 5.23731 3.36118C4.45736 3.92964 3.89804 4.99581 3.59962 6.87778L2.85938 11.5653C2.47632 14.0169 2.91999 15.2997 4.01759 16.0643L4.02345 16.0682L4.27247 16.2303C4.88597 16.5961 5.72605 16.8731 6.8545 17.0487H6.85548L11.5459 17.7889H11.5449C13.4264 18.0824 14.6109 17.8767 15.3906 17.3084C16.1706 16.74 16.7299 15.6746 17.0283 13.7928L17.7578 9.10434C17.8728 8.36648 17.916 7.73535 17.8809 7.19907L17.8799 7.1893C17.8228 6.09105 17.4825 5.35173 16.8877 4.82016C16.2663 4.26492 15.2788 3.85587 13.7734 3.62094H13.7725L9.08204 2.88071V2.87973Z" fill="#1C252E"/>
<path d="M18.2224 6.52012C18.4508 6.37249 18.741 6.36036 18.9812 6.48789C20.3013 7.18935 21.2008 8.12745 21.571 9.40391C21.8861 10.4905 21.7878 11.7248 21.3962 13.1061L21.2117 13.7066L19.7117 18.2164C19.0634 20.1663 18.1627 21.5883 16.7712 22.2848C15.38 22.981 13.7022 22.8499 11.7527 22.2018L7.24291 20.7018V20.7008C4.8805 19.9199 3.30981 18.7513 2.86009 16.8531C2.78814 16.5493 2.91173 16.2326 3.17064 16.0582C3.4296 15.8838 3.76963 15.8881 4.02416 16.0689C4.57411 16.4596 5.34166 16.7632 6.38841 16.9674L6.85521 17.0484L6.85619 17.0494L11.5447 17.7887C13.4261 18.0822 14.6116 17.8773 15.3913 17.3092C16.171 16.7409 16.7296 15.6752 17.0281 13.7945L17.7585 9.10508V9.1041C17.8735 8.36635 17.9167 7.73505 17.8816 7.19883C17.8639 6.92748 17.994 6.66776 18.2224 6.52012ZM19.3376 8.55137C19.3123 8.8064 19.2826 9.06825 19.241 9.33555L18.5105 14.025V14.0279C18.1889 16.0557 17.5326 17.6046 16.2751 18.5211C15.0175 19.4377 13.3424 19.5875 11.3142 19.2711H11.3122L6.62279 18.5309V18.5299C6.30587 18.4805 6.00167 18.4212 5.7097 18.3541C6.21589 18.6917 6.87297 18.9998 7.71459 19.2779H7.71654L12.2263 20.7779C14.0366 21.3798 15.2391 21.374 16.1003 20.943C16.9612 20.5119 17.6861 19.5535 18.2878 17.7437L19.7878 13.233C20.2872 11.7299 20.3677 10.64 20.1306 9.82187C19.9955 9.35624 19.7437 8.93563 19.3376 8.55137Z" fill="#1C252E"/>
<path d="M9.23047 7.24023C9.23047 6.69355 8.78689 6.25013 8.24023 6.25C7.69347 6.25 7.25 6.69347 7.25 7.24023C7.25013 7.78689 7.69355 8.23047 8.24023 8.23047C8.78681 8.23034 9.23034 7.78681 9.23047 7.24023ZM10.7305 7.24023C10.7303 8.61524 9.61524 9.73034 8.24023 9.73047C6.86512 9.73047 5.75013 8.61532 5.75 7.24023C5.75 5.86505 6.86505 4.75 8.24023 4.75C9.61532 4.75013 10.7305 5.86512 10.7305 7.24023Z" fill="#1C252E"/>
</svg>
