<svg width="24" height="24" viewBox="0 0 24 24" fill="none" xmlns="http://www.w3.org/2000/svg">
<path d="M19.2207 10.75H4.7207V18C4.7207 19.4585 4.9734 20.1921 5.37598 20.5947C5.77856 20.9973 6.51225 21.25 7.9707 21.25H15.9707C17.4292 21.25 18.1629 20.9973 18.5654 20.5947C18.968 20.1921 19.2207 19.4585 19.2207 18V10.75ZM20.7207 18C20.7207 19.5415 20.4734 20.8079 19.626 21.6553C18.7786 22.5027 17.5123 22.75 15.9707 22.75H7.9707C6.42915 22.75 5.16285 22.5027 4.31543 21.6553C3.46801 20.8079 3.2207 19.5415 3.2207 18V10C3.2207 9.58579 3.55649 9.25 3.9707 9.25H19.9707C20.3849 9.25 20.7207 9.58579 20.7207 10V18Z" fill="#1C252E"/>
<path d="M20.75 7C20.75 6.55761 20.6425 6.25914 20.4863 6.08008C20.3463 5.91967 20.0756 5.75 19.5 5.75H4.5C3.88538 5.75 3.62376 5.92548 3.49707 6.07422C3.35093 6.24601 3.25 6.53957 3.25 7V8C3.25 8.46043 3.35093 8.75399 3.49707 8.92578C3.62376 9.07452 3.88538 9.25 4.5 9.25H19.5C20.0756 9.25 20.3463 9.08033 20.4863 8.91992C20.6425 8.74086 20.75 8.44239 20.75 8V7ZM22.25 8C22.25 8.65759 22.0925 9.35934 21.6162 9.90527C21.1237 10.4698 20.3942 10.75 19.5 10.75H4.5C3.58462 10.75 2.84628 10.4747 2.35547 9.89844C1.88434 9.34521 1.75 8.63924 1.75 8V7C1.75 6.36076 1.88434 5.65479 2.35547 5.10156C2.84628 4.5253 3.58462 4.25 4.5 4.25H19.5C20.3942 4.25 21.1237 4.53018 21.6162 5.09473C22.0925 5.64066 22.25 6.34241 22.25 7V8Z" fill="#1C252E"/>
<path d="M7.04018 1.74961C7.70307 1.08672 8.78842 1.08672 9.45131 1.74961L12.171 4.46933C12.3854 4.68373 12.45 5.00655 12.3341 5.28672C12.218 5.56697 11.9441 5.74961 11.6408 5.74961H6.12124C5.91132 5.74961 5.71053 5.66198 5.5685 5.50742C4.95645 4.84123 4.97645 3.81341 5.62026 3.16953L7.04018 1.74961ZM8.39077 2.81015C8.31377 2.73317 8.17886 2.73339 8.1017 2.81015L6.68081 4.23008C6.67525 4.23564 6.67286 4.24368 6.66811 4.24961H9.83022L8.39077 2.81015Z" fill="#1C252E"/>
<path d="M14.5393 1.74961C15.2022 1.08672 16.2875 1.08672 16.9504 1.74961L18.3703 3.16953C19.0142 3.81343 19.0342 4.84121 18.4221 5.50742C18.28 5.66199 18.0793 5.74961 17.8693 5.74961H12.3498C12.0465 5.74961 11.7725 5.56698 11.6565 5.28672C11.5406 5.00657 11.6052 4.68372 11.8195 4.46934L14.5393 1.74961ZM15.8899 2.81016C15.8127 2.73305 15.6769 2.73305 15.5998 2.81016L14.1604 4.24961H17.3234C17.3186 4.24352 17.3155 4.2358 17.3098 4.23008L15.8899 2.81016Z" fill="#1C252E"/>
<path d="M11.0225 14.7305C11.5701 14.3763 12.2666 14.3475 12.834 14.667L12.9453 14.7363L12.9482 14.7383L13.8359 15.3359L13.8994 15.3672C14.0517 15.4152 14.2197 15.3022 14.2197 15.1299V10.75H9.68945V15.1396C9.68945 15.3346 9.90321 15.4645 10.084 15.3486L11.0166 14.7344L11.0225 14.7305ZM15.7197 15.1299C15.7197 16.5327 14.159 17.3537 13.0039 16.584L13 16.582L12.1133 15.9834C12.04 15.9348 11.9354 15.9274 11.8408 15.9863L10.9023 16.6064L10.8945 16.6113C9.73535 17.3552 8.18945 16.5446 8.18945 15.1396V10C8.18945 9.58579 8.52524 9.25 8.93945 9.25H14.9697C15.3838 9.25015 15.7197 9.58588 15.7197 10V15.1299Z" fill="#1C252E"/>
</svg>
