<svg width="24" height="24" viewBox="0 0 24 24" fill="none" xmlns="http://www.w3.org/2000/svg">
<path d="M21.25 9C21.25 6.57397 20.7603 5.0708 19.8447 4.15527C18.9292 3.23974 17.426 2.75 15 2.75H9C6.57397 2.75 5.0708 3.23974 4.15527 4.15527C3.23974 5.0708 2.75 6.57397 2.75 9V15C2.75 17.426 3.23974 18.9292 4.15527 19.8447C5.0708 20.7603 6.57397 21.25 9 21.25H15C17.426 21.25 18.9292 20.7603 19.8447 19.8447C20.7603 18.9292 21.25 17.426 21.25 15V9ZM22.75 15C22.75 17.574 22.2397 19.5708 20.9053 20.9053C19.5708 22.2397 17.574 22.75 15 22.75H9C6.42603 22.75 4.4292 22.2397 3.09473 20.9053C1.76026 19.5708 1.25 17.574 1.25 15V9C1.25 6.42603 1.76026 4.4292 3.09473 3.09473C4.4292 1.76026 6.42603 1.25 9 1.25H15C17.574 1.25 19.5708 1.76026 20.9053 3.09473C22.2397 4.4292 22.75 6.42603 22.75 9V15Z" fill="#1C252E"/>
<path d="M6.25 12.4205V2.44C6.25 2.02579 6.58579 1.69 7 1.69C7.41421 1.69 7.75 2.02579 7.75 2.44V12.4205C7.75011 13.2431 8.03755 13.6048 8.27832 13.7349C8.52871 13.8702 9.01888 13.9139 9.75586 13.4752L11.0752 12.6861C11.3668 12.5115 11.7023 12.4449 12 12.4449C12.2974 12.4449 12.6324 12.5118 12.9238 12.6861H12.9248L14.2451 13.4761L14.2461 13.4771C14.9821 13.9196 15.4715 13.8749 15.7207 13.7398C15.9622 13.6087 16.2499 13.2436 16.25 12.4205V2.44C16.25 2.02579 16.5858 1.69 17 1.69C17.4142 1.69 17.75 2.02579 17.75 2.44V12.4205C17.7499 13.5669 17.3324 14.5718 16.4365 15.0582C15.5482 15.5403 14.4673 15.3605 13.4736 14.7632V14.7623L12.1553 13.9732H12.1543C12.1543 13.9732 12.1506 13.9705 12.1426 13.9673C12.1345 13.9641 12.123 13.9611 12.1084 13.9576C12.0783 13.9502 12.041 13.9449 12 13.9449C11.959 13.9449 11.9217 13.9502 11.8916 13.9576C11.877 13.9611 11.8655 13.9641 11.8574 13.9673C11.8494 13.9705 11.8457 13.9732 11.8457 13.9732H11.8447L10.5254 14.7632L10.5234 14.7642C9.53072 15.3552 8.45154 15.5348 7.56445 15.0552C6.66789 14.5705 6.25011 13.5674 6.25 12.4205Z" fill="#1C252E"/>
</svg>
