<svg width="24" height="24" viewBox="0 0 24 24" fill="none" xmlns="http://www.w3.org/2000/svg">
<path d="M12.0208 1.24879C12.8459 1.25023 13.7119 1.45629 14.4007 1.91383L20.3909 5.84254C22.7622 7.39873 22.7622 10.8713 20.3909 12.4275L14.4016 16.3572C13.7127 16.81 12.8456 17.0125 12.0198 17.0125C11.194 17.0125 10.3269 16.81 9.63796 16.3572V16.3562L3.61941 12.4285C1.23621 10.8725 1.23627 7.38779 3.61941 5.83179L9.63991 1.90211C10.3285 1.45014 11.1948 1.2474 12.0208 1.24879ZM12.0188 2.74879C11.4158 2.74773 10.8532 2.90002 10.4622 3.15699L10.4602 3.15797L4.43972 7.08765C2.96313 8.05164 2.96329 10.2075 4.43972 11.1716L10.4602 15.1023L10.4622 15.1033C10.8532 15.3602 11.4159 15.5125 12.0198 15.5125C12.6237 15.5125 13.1864 15.3602 13.5774 15.1033H13.5784L19.5686 11.1726C21.0368 10.2088 21.0368 8.06126 19.5686 7.09742L13.5784 3.16676L13.5735 3.16383C13.1831 2.90367 12.6216 2.7499 12.0188 2.74879Z" fill="#1C252E"/>
<path d="M5.63086 12.33C6.04502 12.3309 6.37979 12.6677 6.37891 13.0819L6.36914 17.7714C6.36951 18.2202 6.54717 18.7268 6.86816 19.1727C7.18906 19.6185 7.61183 19.9464 8.03418 20.0878L11.2227 21.1473L11.373 21.1864C11.5406 21.2219 11.7574 21.245 11.9951 21.245C12.3089 21.245 12.5913 21.2052 12.7744 21.1473L15.9629 20.0878C16.3856 19.9466 16.8097 19.6189 17.1309 19.1727C17.4519 18.7265 17.6288 18.2193 17.6289 17.7704V13.1298C17.629 12.7157 17.9649 12.3799 18.3789 12.3798C18.7931 12.3798 19.1288 12.7156 19.1289 13.1298V17.7704C19.1288 18.5911 18.8162 19.3987 18.3477 20.0497C17.8791 20.7005 17.2133 21.2526 16.4365 21.5116L13.2461 22.5721L13.2383 22.5741C12.8613 22.6952 12.4107 22.745 11.9951 22.745C11.5801 22.745 11.1303 22.6957 10.7559 22.5731L7.5625 21.5116C6.78579 21.2526 6.11887 20.7004 5.65039 20.0497C5.18183 19.3987 4.86925 18.5911 4.86914 17.7704V17.7684L4.87891 13.078C4.87998 12.664 5.21676 12.3291 5.63086 12.33Z" fill="#1C252E"/>
<path d="M20.6504 15V9C20.6504 8.58579 20.9862 8.25 21.4004 8.25C21.8146 8.25 22.1504 8.58579 22.1504 9V15C22.1504 15.4142 21.8146 15.75 21.4004 15.75C20.9862 15.75 20.6504 15.4142 20.6504 15Z" fill="#1C252E"/>
</svg>
