<svg width="24" height="24" viewBox="0 0 24 24" fill="none" xmlns="http://www.w3.org/2000/svg">
<path d="M11.1913 2.04738C12.4455 1.61454 13.94 1.6815 15.6698 2.09035L15.6708 2.08937L17.3407 2.48C19.5079 2.98689 21.1137 3.81576 21.9911 5.23C22.8683 6.6441 22.8973 8.44903 22.3905 10.6109L21.41 14.7886L21.411 14.7896C20.9758 16.6598 20.2997 18.1113 19.2128 19.0415C18.1005 19.9933 16.6786 20.2988 14.9882 20.1362V20.1353C14.4467 20.0912 13.8723 19.9953 13.2665 19.8491V19.8501L11.5868 19.4497C9.43024 18.9377 7.82888 18.1085 6.95203 16.6968C6.07467 15.2842 6.04258 13.4819 6.54969 11.3189L7.53016 7.12941V7.12843C7.71156 6.35748 7.92944 5.64871 8.20496 5.02882L8.32703 4.76906C8.97854 3.42368 9.90318 2.49203 11.1913 2.04738ZM15.327 3.55031C13.7181 3.16979 12.5482 3.16593 11.6805 3.46535C10.8481 3.75278 10.1939 4.35459 9.67566 5.42629L9.67273 5.43117C9.40669 5.9722 9.18279 6.65334 8.99012 7.47218L8.01062 11.6607V11.6616C7.53784 13.6784 7.6604 14.9959 8.22547 15.9058C8.79112 16.8165 9.92005 17.5127 11.9335 17.9907L13.6141 18.3902L13.6161 18.3911C14.0276 18.4905 14.4122 18.5612 14.7704 18.606L15.12 18.6421L15.1317 18.6431C16.5609 18.7805 17.5295 18.5073 18.2372 17.9019C18.9702 17.2746 19.5443 16.1895 19.9491 14.4497L19.9501 14.4487L20.9296 10.2691C21.4027 8.2512 21.2817 6.9308 20.7167 6.02004C20.1516 5.10937 19.0215 4.41303 16.9989 3.93996L15.33 3.55031H15.327Z" fill="#1C252E"/>
<path d="M8.86145 4.36272C9.1405 4.3101 9.42583 4.4199 9.59778 4.64592C9.76966 4.87201 9.79924 5.1762 9.67395 5.43108C9.40785 5.97215 9.18305 6.65312 8.99036 7.47209L8.01086 11.6606V11.6615C7.53806 13.6784 7.66158 14.9958 8.22668 15.9057C8.79239 16.8163 9.92047 17.5127 11.9337 17.9906L13.6144 18.3901L13.6163 18.391C14.1651 18.5235 14.6659 18.6057 15.1202 18.642C15.4376 18.6674 15.704 18.8909 15.7853 19.1987C15.8664 19.5065 15.7451 19.8325 15.4816 20.0112C14.7833 20.4842 13.9318 20.8605 12.9435 21.183L12.9425 21.1821L11.3654 21.7026L11.3605 21.7035C9.30581 22.366 7.55241 22.4853 6.10852 21.7465C4.66501 21.0078 3.73498 19.5155 3.0675 17.4614H3.06653L1.78723 13.5112L1.78625 13.5102C1.12406 11.4563 1.00301 9.70118 1.7384 8.25627C2.47395 6.81117 3.9623 5.87993 6.01575 5.21721L7.59582 4.69768L7.60364 4.69475C8.02497 4.56116 8.44831 4.44088 8.86145 4.36272ZM6.4845 6.64202L6.48059 6.64397C4.56636 7.26116 3.54173 8.02059 3.07532 8.93694C2.60848 9.85435 2.59651 11.1338 3.21399 13.0492L4.49426 16.9985H4.49328C5.11577 18.9142 5.87576 19.9427 6.79211 20.4115C7.65101 20.8509 8.82704 20.8899 10.5489 20.3842L10.9005 20.2758L12.4757 19.7572H12.4777C12.5332 19.7391 12.5876 19.7189 12.6417 19.7006L11.587 19.4496C9.43056 18.9376 7.82909 18.1084 6.95227 16.6967C6.07497 15.2841 6.04282 13.4817 6.54993 11.3188L7.53039 7.12932V7.12834C7.60434 6.81405 7.68396 6.50991 7.77161 6.21819L6.4845 6.64202Z" fill="#1C252E"/>
</svg>
