<svg width="24" height="24" viewBox="0 0 24 24" fill="none" xmlns="http://www.w3.org/2000/svg">
<path d="M1.25 16.7396V4.66047C1.25 3.03461 2.59225 1.78529 4.22266 1.92219L4.22168 1.92317C6.438 2.10289 9.72351 3.19679 11.6055 4.36653L11.8555 4.51692L11.8652 4.52278L11.8984 4.53352C11.9257 4.54031 11.9609 4.54524 12 4.54524C12.0391 4.54524 12.0743 4.54031 12.1016 4.53352C12.1292 4.52664 12.1388 4.52026 12.1348 4.52278L12.293 4.42024L12.3008 4.41536C14.1821 3.23165 17.487 2.12314 19.7061 1.93293L19.7695 1.93H19.8184C21.419 1.82335 22.75 3.04434 22.75 4.67024V16.7396C22.75 18.0719 21.6937 19.2965 20.3525 19.4642H20.3506L20.0283 19.5023L20.0293 19.5032C17.9422 19.7809 14.6707 20.8612 12.832 21.8763C12.5624 22.0282 12.2574 22.0823 11.9941 22.0823C11.7347 22.0823 11.4393 22.0293 11.1748 21.89V21.8909L11.1348 21.8704C11.1266 21.8663 11.1184 21.8621 11.1104 21.8577C9.27088 20.8518 6.00895 19.781 3.93066 19.5032H3.92773L3.6377 19.4632V19.4622C2.30104 19.2901 1.25 18.0688 1.25 16.7396ZM2.75 16.7396C2.75 17.2905 3.19317 17.8314 3.72559 17.9564L3.83301 17.9759L3.84277 17.9769L4.13281 18.0169H4.13184C6.38462 18.3185 9.80249 19.44 11.8057 20.5296L11.8457 20.5491L11.874 20.5648C11.8694 20.5622 11.8788 20.5678 11.9043 20.5736C11.9288 20.5791 11.9602 20.5823 11.9941 20.5823C12.0281 20.5823 12.0575 20.5785 12.0791 20.5736C12.1019 20.5683 12.1053 20.5645 12.0947 20.5706L12.1074 20.5638C14.1088 19.4589 17.5582 18.3193 19.8311 18.0169L19.8398 18.015L20.167 17.9759L20.2744 17.9564C20.8068 17.8314 21.25 17.2905 21.25 16.7396V4.67024C21.25 3.9134 20.6493 3.36348 19.8926 3.42707C19.8718 3.42882 19.8509 3.43 19.8301 3.43H19.8076C17.8259 3.60665 14.7709 4.63333 13.0996 5.68489L12.9375 5.78938L12.9258 5.79719C12.6341 5.97823 12.2953 6.04524 12 6.04524C11.7077 6.04524 11.3736 5.97891 11.084 5.80207V5.80305L10.834 5.65266L10.8232 5.6468C9.14368 4.59943 6.0788 3.57756 4.09961 3.41731H4.09766C3.34815 3.35433 2.75 3.9064 2.75 4.66047V16.7396Z" fill="#1C252E"/>
<path d="M11.25 20.49V5.48999C11.25 5.07578 11.5858 4.73999 12 4.73999C12.4142 4.73999 12.75 5.07578 12.75 5.48999V20.49C12.75 20.9042 12.4142 21.24 12 21.24C11.5858 21.24 11.25 20.9042 11.25 20.49Z" fill="#1C252E"/>
<path d="M7.75 7.73999C8.16421 7.73999 8.5 8.07578 8.5 8.48999C8.5 8.9042 8.16421 9.23999 7.75 9.23999H5.5C5.08579 9.23999 4.75 8.9042 4.75 8.48999C4.75 8.07578 5.08579 7.73999 5.5 7.73999H7.75Z" fill="#1C252E"/>
<path d="M8.5 10.74C8.91421 10.74 9.25 11.0758 9.25 11.49C9.25 11.9042 8.91421 12.24 8.5 12.24H5.5C5.08579 12.24 4.75 11.9042 4.75 11.49C4.75 11.0758 5.08579 10.74 5.5 10.74H8.5Z" fill="#1C252E"/>
</svg>
