<svg width="24" height="24" viewBox="0 0 24 24" fill="none" xmlns="http://www.w3.org/2000/svg">
<path d="M16.25 5.03027C16.25 4.13401 16.0282 3.59965 15.7168 3.28516C15.4068 2.97211 14.8824 2.75 14 2.75H10C9.11763 2.75 8.59324 2.97211 8.2832 3.28516C7.97183 3.59965 7.75 4.13401 7.75 5.03027V12.0801C7.75002 12.9162 8.03961 13.2856 8.28125 13.418C8.52902 13.5536 9.01576 13.5995 9.75098 13.1582L11.0713 12.3584L11.0742 12.3564C11.366 12.1815 11.702 12.1152 12 12.1152C12.298 12.1152 12.634 12.1815 12.9258 12.3564L12.9287 12.3584L14.249 13.1582H14.248C14.9837 13.5999 15.4709 13.5536 15.7188 13.418C15.9604 13.2856 16.25 12.9162 16.25 12.0801V5.03027ZM17.75 12.0801C17.75 13.2337 17.3343 14.2441 16.4385 14.7344C15.5491 15.2209 14.467 15.0395 13.4736 14.4424L13.4717 14.4414L12.1543 13.6436L12.1426 13.6377C12.1345 13.6345 12.123 13.6305 12.1084 13.627C12.0784 13.6196 12.0409 13.6152 12 13.6152C11.9591 13.6152 11.9216 13.6196 11.8916 13.627C11.877 13.6305 11.8655 13.6345 11.8574 13.6377C11.8494 13.6409 11.8457 13.6436 11.8457 13.6436L10.5283 14.4414L10.5264 14.4424C9.53302 15.0395 8.45092 15.2209 7.56152 14.7344C6.66573 14.2441 6.25002 13.2337 6.25 12.0801V5.03027C6.25 3.90653 6.52817 2.925 7.2168 2.22949C7.90678 1.53264 8.88252 1.25 10 1.25H14C15.1175 1.25 16.0932 1.53264 16.7832 2.22949C17.4718 2.925 17.75 3.90653 17.75 5.03027V12.0801Z" fill="#1C252E"/>
<path d="M1.25 14.9298V11.9005C1.25 9.71636 1.60992 7.95118 2.51465 6.64264C3.4401 5.30423 4.85322 4.55815 6.69629 4.25006C7.10479 4.18178 7.49122 4.4578 7.55957 4.86627C7.62786 5.27482 7.3519 5.66127 6.94336 5.72956C5.37662 5.99149 4.38006 6.58118 3.74805 7.49518C3.09535 8.43912 2.75 9.84463 2.75 11.9005V14.9298C2.75 17.3823 3.24071 18.9044 4.1582 19.8311C5.07388 20.7559 6.57569 21.2501 9 21.2501H15C17.4243 21.2501 18.9261 20.7559 19.8418 19.8311C20.7593 18.9044 21.25 17.3823 21.25 14.9298V11.9005C21.25 9.81046 20.892 8.39028 20.2168 7.4444C19.5623 6.52761 18.5261 5.94244 16.8906 5.70221C16.481 5.64185 16.1976 5.26035 16.2578 4.85065C16.3182 4.44102 16.6997 4.15766 17.1094 4.21784C19.0136 4.49762 20.4771 5.22781 21.4375 6.57331C22.3773 7.88992 22.75 9.68044 22.75 11.9005V14.9298C22.75 17.5272 22.2407 19.541 20.9082 20.8868C19.5739 22.2344 17.5755 22.7501 15 22.7501H9C6.42446 22.7501 4.42613 22.2344 3.0918 20.8868C1.75929 19.541 1.25 17.5272 1.25 14.9298Z" fill="#1C252E"/>
</svg>
