<svg width="24" height="24" viewBox="0 0 24 24" fill="none" xmlns="http://www.w3.org/2000/svg">
<path d="M22 11V9C22 4 20 2 15 2H9C4 2 2 4 2 9V15C2 20 4 22 9 22H10" stroke="#1C252E" stroke-width="1.5" stroke-linecap="round" stroke-linejoin="round"/>
<path d="M22 8.5H6" stroke="#1C252E" stroke-width="1.5" stroke-linecap="round" stroke-linejoin="round"/>
<path d="M2.02979 15.5H11.9998" stroke="#1C252E" stroke-width="1.5" stroke-linecap="round" stroke-linejoin="round"/>
<path d="M8.50977 21.99V2.01001" stroke="#1C252E" stroke-width="1.5" stroke-linecap="round" stroke-linejoin="round"/>
<path d="M15.5098 11.99V2.01001" stroke="#1C252E" stroke-width="1.5" stroke-linecap="round" stroke-linejoin="round"/>
<path d="M19.8333 16.7479V15.3333C19.8333 14.597 19.2364 14 18.5 14H17.6111C16.8747 14 16.2778 14.597 16.2778 15.3333V16.7479M19.8333 16.7479C19.2453 16.7039 18.5897 16.6667 18.0556 16.6667C17.5214 16.6667 16.8658 16.7039 16.2778 16.7479M19.8333 16.7479C20.1555 16.772 20.4573 16.7982 20.7078 16.8213C21.1098 16.8584 21.4306 17.1671 21.4786 17.5679C21.5403 18.083 21.6111 18.7922 21.6111 19.3333C21.6111 19.8745 21.5403 20.5837 21.4786 21.0987C21.4306 21.4996 21.1098 21.8082 20.7078 21.8454C20 21.9107 18.8824 22 18.0556 22C17.2287 22 16.1111 21.9107 15.4033 21.8454C15.0013 21.8082 14.6805 21.4996 14.6325 21.0987C14.5708 20.5837 14.5 19.8745 14.5 19.3333C14.5 18.7922 14.5708 18.083 14.6325 17.5679C14.6805 17.1671 15.0013 16.8584 15.4033 16.8213C15.6538 16.7982 15.9557 16.772 16.2778 16.7479" stroke="#1C252E" stroke-width="1.5"/>
</svg>
