<svg width="24" height="24" viewBox="0 0 24 24" fill="none" xmlns="http://www.w3.org/2000/svg">
<path d="M22 10.9V4.1C22 2.6 21.36 2 19.77 2H15.73C14.14 2 13.5 2.6 13.5 4.1V10.9C13.5 12.4 14.14 13 15.73 13H19.77C21.36 13 22 12.4 22 10.9Z" stroke="#1C252E" stroke-width="1.5" stroke-linecap="round" stroke-linejoin="round"/>
<path d="M15.73 22C14.14 22 13.5 21.4 13.5 19.9V18.1C13.5 16.6 14.14 16 15.73 16H19.77C21.36 16 22 16.6 22 18.1V19.9C22 21.4 21.36 22 19.77 22" stroke="#1C252E" stroke-width="1.5" stroke-linecap="round" stroke-linejoin="round"/>
<path d="M10.5 13.1V19.9C10.5 21.4 9.86 22 8.27 22H4.23C2.64 22 2 21.4 2 19.9V13.1C2 11.6 2.64 11 4.23 11H8.27C9.86 11 10.5 11.6 10.5 13.1Z" stroke="#1C252E" stroke-width="1.5" stroke-linecap="round" stroke-linejoin="round"/>
<path d="M2 4.1V5.9C2 7.4 2.64 8 4.23 8H8.27C9.86 8 10.5 7.4 10.5 5.9V4.1C10.5 2.6 9.86 2 8.27 2H4.23" stroke="#1C252E" stroke-width="1.5" stroke-linecap="round" stroke-linejoin="round"/>
</svg>
