<svg width="24" height="24" viewBox="0 0 24 24" fill="none" xmlns="http://www.w3.org/2000/svg">
<path d="M4.40476 15.5264L8.93476 20.0564C10.7948 21.9164 13.8148 21.9164 15.6848 20.0564L20.0748 15.6664C21.9348 13.8064 21.9348 10.7864 20.0748 8.91637L15.5348 4.39637C14.5848 3.44637 13.2748 2.93637 11.9348 3.00637L6.93476 3.24637C4.93476 3.33637 3.34476 4.92637 3.24476 6.91637L3.00476 11.9164C2.94476 13.2664 3.45476 14.5764 4.40476 15.5264Z" stroke="#1C252E" stroke-width="1.5" stroke-linecap="round" stroke-linejoin="round"/>
<path d="M9.73474 12.2263C11.1155 12.2263 12.2347 11.107 12.2347 9.72632C12.2347 8.34561 11.1155 7.22632 9.73474 7.22632C8.35403 7.22632 7.23474 8.34561 7.23474 9.72632C7.23474 11.107 8.35403 12.2263 9.73474 12.2263Z" stroke="#1C252E" stroke-width="1.5" stroke-linecap="round"/>
<path d="M13.2347 17.2263L17.2347 13.2263" stroke="#1C252E" stroke-width="1.5" stroke-miterlimit="10" stroke-linecap="round" stroke-linejoin="round"/>
</svg>
