<svg width="24" height="24" viewBox="0 0 24 24" fill="none" xmlns="http://www.w3.org/2000/svg">
<path opacity="0.4" d="M20.0354 6.82L14.2754 2.79C12.7054 1.69 10.2954 1.75 8.78535 2.92L3.77535 6.83C2.77535 7.61 1.98535 9.21 1.98535 10.47V17.37C1.98535 19.92 4.05535 22 6.60535 22H17.3854C19.9354 22 22.0054 19.93 22.0054 17.38V10.6C22.0054 9.25 21.1354 7.59 20.0354 6.82Z" fill="#1C252E"/>
<path d="M13.4004 8.50977H10.6004C8.68035 8.50977 7.11035 10.0698 7.11035 11.9998V14.7898C7.11035 16.7098 8.68035 18.2798 10.6004 18.2798H13.3904C15.3104 18.2798 16.8804 16.7198 16.8804 14.7898V11.9998C16.8804 10.0798 15.3204 8.50977 13.4004 8.50977ZM15.4904 11.9998V12.6998H12.7004V9.90977H13.4004C14.5504 9.90977 15.4904 10.8498 15.4904 11.9998ZM10.6004 9.90977H11.3004V12.6998H8.51035V11.9998C8.51035 10.8498 9.45035 9.90977 10.6004 9.90977ZM8.51035 14.7898V14.0898H11.3004V16.8798H10.6004C9.45035 16.8798 8.51035 15.9398 8.51035 14.7898ZM13.4004 16.8798H12.7004V14.0898H15.4904V14.7898C15.4904 15.9398 14.5504 16.8798 13.4004 16.8798Z" fill="#1C252E"/>
</svg>
