<svg width="24" height="24" viewBox="0 0 24 24" fill="none" xmlns="http://www.w3.org/2000/svg">
<path d="M19.1199 14.9399L19.4399 15.5899C19.5999 15.9099 20.0099 16.2099 20.3499 16.2699L20.7799 16.3399C22.0899 16.5599 22.3899 17.5199 21.4599 18.4599L21.0599 18.8599C20.7899 19.1299 20.6499 19.6499 20.7299 20.0299L20.7799 20.2699C21.1399 21.8499 20.2999 22.4599 18.9299 21.6299L18.6399 21.4499C18.2899 21.2399 17.7099 21.2399 17.3599 21.4499L17.0699 21.6299C15.6899 22.4599 14.8599 21.8499 15.2199 20.2699L15.2699 20.0299C15.3499 19.6599 15.2099 19.1299 14.9399 18.8599L14.5399 18.4599C13.6099 17.5099 13.9099 16.5599 15.2199 16.3399L15.6499 16.2699C15.9999 16.2099 16.3999 15.9099 16.5599 15.5899L16.8799 14.9399C17.4999 13.6899 18.4999 13.6899 19.1199 14.9399Z" fill="#1C252E"/>
<path opacity="0.4" d="M16.19 2H7.81C4.17 2 2 4.17 2 7.81V16.19C2 19.83 4.17 22 7.81 22H13.09C13.44 22 13.69 21.64 13.65 21.29C13.61 20.91 13.63 20.46 13.75 19.94C13.77 19.87 13.75 19.79 13.69 19.73L13.47 19.51C12.62 18.65 12.31 17.61 12.61 16.66C12.92 15.72 13.78 15.06 14.97 14.86L15.27 14.81L15.54 14.27C16.09 13.15 16.99 12.5 18 12.5C19.01 12.5 19.91 13.15 20.46 14.27L20.61 14.58C20.68 14.73 20.82 14.83 20.98 14.86C21.07 14.88 21.16 14.9 21.25 14.92C21.6 15.01 22 14.73 22 14.36V7.81C22 4.17 19.83 2 16.19 2Z" fill="#1C252E"/>
<path fill-rule="evenodd" clip-rule="evenodd" d="M16.1296 7.91704C16.457 8.17081 16.5167 8.64192 16.2629 8.9693L13.9485 11.955C13.3536 12.7073 12.2567 12.8445 11.4916 12.2533L11.4863 12.2492L9.65976 10.8119C9.54691 10.7262 9.38952 10.7475 9.30382 10.8581C9.30374 10.8582 9.3039 10.858 9.30382 10.8581L6.9243 13.9475C6.67154 14.2756 6.20062 14.3367 5.87246 14.084C5.5443 13.8312 5.48318 13.3603 5.73593 13.0321L8.11666 9.94122C8.71057 9.17263 9.81178 9.03371 10.5787 9.62634L10.5839 9.63038L12.4105 11.0677C12.5245 11.1543 12.6852 11.132 12.7703 11.0265L15.0774 8.05031C15.3312 7.72293 15.8023 7.66327 16.1296 7.91704Z" fill="#1C252E"/>
</svg>
