<svg width="24" height="24" viewBox="0 0 24 24" fill="none" xmlns="http://www.w3.org/2000/svg">
<path opacity="0.4" d="M20.0402 6.82L14.2802 2.79C12.7102 1.69 10.3002 1.75 8.79023 2.92L3.78023 6.83C2.78023 7.61 1.99023 9.21 1.99023 10.47V17.37C1.99023 19.92 4.06023 22 6.61023 22H17.3902C19.9402 22 22.0102 19.93 22.0102 17.38V10.6C22.0102 9.25 21.1402 7.59 20.0402 6.82Z" fill="#1C252E"/>
<path d="M16.8802 14.3299C16.8802 13.9399 16.5702 13.6299 16.1802 13.6299C15.7902 13.6299 15.4802 13.9399 15.4802 14.3299V14.5099L12.7602 11.7899C12.6102 11.6399 12.4102 11.5699 12.2002 11.5899C11.9902 11.6099 11.8002 11.7199 11.6902 11.8999L10.6702 13.4199L8.29016 11.0399C8.02016 10.7699 7.58016 10.7699 7.30016 11.0399C7.03016 11.3099 7.03016 11.7499 7.30016 12.0299L10.2802 15.0099C10.4302 15.1599 10.6302 15.2299 10.8402 15.2099C11.0502 15.1899 11.2402 15.0799 11.3502 14.8999L12.3702 13.3799L14.4802 15.4899H14.3002C13.9102 15.4899 13.6002 15.7999 13.6002 16.1899C13.6002 16.5799 13.9102 16.8899 14.3002 16.8899H16.1602C16.2502 16.8899 16.3402 16.8699 16.4302 16.8399C16.6002 16.7699 16.7402 16.6299 16.8102 16.4599C16.8502 16.3699 16.8602 16.2799 16.8602 16.1899V14.3299H16.8802Z" fill="#1C252E"/>
</svg>
