<svg width="24" height="24" viewBox="0 0 24 24" fill="none" xmlns="http://www.w3.org/2000/svg">
<path d="M10.4499 3.05L6.7099 7.71C5.8599 8.77 6.1599 10.13 7.3699 10.73L11.0999 12.6C11.5899 12.84 12.3899 12.84 12.8799 12.6L16.6099 10.73C17.8199 10.12 18.1199 8.76 17.2699 7.71L13.5399 3.05C12.6999 1.98 11.2999 1.98 10.4499 3.05Z" stroke="#1C252E" stroke-width="1.5" stroke-miterlimit="10" stroke-linecap="round" stroke-linejoin="round"/>
<path d="M12 2.29999V7.55999" stroke="#1C252E" stroke-width="1.5" stroke-miterlimit="10" stroke-linecap="round" stroke-linejoin="round"/>
<path d="M7.7998 10.71L11.9998 7.56L16.1998 10.71" stroke="#1C252E" stroke-width="1.5" stroke-miterlimit="10" stroke-linecap="round" stroke-linejoin="round"/>
<path d="M8.76987 14.43L10.3799 15.15C11.4099 15.61 12.5899 15.61 13.6299 15.15L15.2399 14.43C16.6799 13.79 18.0099 15.53 17.0099 16.75L13.5499 20.98C12.6999 22.02 11.3099 22.02 10.4499 20.98L6.99987 16.75C5.98987 15.53 7.31987 13.79 8.76987 14.43Z" stroke="#1C252E" stroke-width="1.5" stroke-miterlimit="10" stroke-linecap="round" stroke-linejoin="round"/>
</svg>
