<svg width="24" height="24" viewBox="0 0 24 24" fill="none" xmlns="http://www.w3.org/2000/svg">
<path d="M12 19C14.2091 19 16 17.2091 16 15C16 12.7909 14.2091 11 12 11C9.79086 11 8 12.7909 8 15C8 17.2091 9.79086 19 12 19Z" stroke="#1C252E" stroke-width="1.5" stroke-miterlimit="10" stroke-linecap="round" stroke-linejoin="round"/>
<path d="M10.4395 15L11.0895 15.65C11.2795 15.84 11.5895 15.85 11.7795 15.66L13.5595 14.02" stroke="#1C252E" stroke-width="1.5" stroke-linecap="round" stroke-linejoin="round"/>
<path d="M3.26367 11C3.45186 9.25802 4.59006 8 7.98509 8H15.9851C20.2551 8 20.9551 9.99 20.6851 12.43L19.9351 18.43C19.7251 20.39 19.0051 22 14.9851 22H8.98509C4.96509 22 4.24509 20.39 4.03509 18.43L3.72685 15.964" stroke="#1C252E" stroke-width="1.5" stroke-miterlimit="10" stroke-linecap="round" stroke-linejoin="round"/>
<path d="M7.5 7.67001V6.70001C7.5 4.45001 9.31 2.24001 11.56 2.03001C14.24 1.77001 16.5 3.88001 16.5 6.51001V7.89001" stroke="#1C252E" stroke-width="1.5" stroke-miterlimit="10" stroke-linecap="round" stroke-linejoin="round"/>
</svg>
