<svg width="24" height="24" viewBox="0 0 24 24" fill="none" xmlns="http://www.w3.org/2000/svg">
<path d="M8.80945 2L5.18945 5.63" stroke="#1C252E" stroke-width="1.5" stroke-miterlimit="10" stroke-linecap="round" stroke-linejoin="round"/>
<path d="M15.1895 2L18.8095 5.63" stroke="#1C252E" stroke-width="1.5" stroke-miterlimit="10" stroke-linecap="round" stroke-linejoin="round"/>
<path d="M2 7.85001C2 6.00001 2.99 5.85001 4.22 5.85001H19.78C21.01 5.85001 22 6.00001 22 7.85001C22 10 21.01 9.85001 19.78 9.85001H4.22C2.99 9.85001 2 10 2 7.85001Z" stroke="#1C252E" stroke-width="1.5"/>
<path d="M9.75977 14V17.55" stroke="#1C252E" stroke-width="1.5" stroke-linecap="round"/>
<path d="M14.3594 14V17.55" stroke="#1C252E" stroke-width="1.5" stroke-linecap="round"/>
<path d="M3.5 10L3.66319 11M20.5 10L18.82 18.76C18.46 20.64 18 22 14.89 22H8.86C6 22 5.23 20.58 4.91 18.64L4.47917 16" stroke="#1C252E" stroke-width="1.5" stroke-linecap="round"/>
</svg>
