<svg width="24" height="24" viewBox="0 0 24 24" fill="none" xmlns="http://www.w3.org/2000/svg">
<path d="M13.1802 11.86C12.7802 11.86 12.4202 11.64 12.2502 11.28L10.8002 8.38997L10.3802 9.16997C10.1502 9.59997 9.69021 9.86997 9.20021 9.86997H8.47022C8.06022 9.86997 7.72021 9.52997 7.72021 9.11997C7.72021 8.70997 8.06022 8.36997 8.47022 8.36997H9.11021L9.90021 6.90997C10.0902 6.56997 10.4702 6.33997 10.8302 6.35997C11.2202 6.35997 11.5702 6.58997 11.7502 6.92997L13.1802 9.78997L13.5202 9.09997C13.7502 8.63997 14.2002 8.35997 14.7202 8.35997H15.5302C15.9402 8.35997 16.2802 8.69997 16.2802 9.10997C16.2802 9.51997 15.9402 9.85997 15.5302 9.85997H14.8202L14.1102 11.27C13.9302 11.64 13.5802 11.86 13.1802 11.86Z" fill="#1C252E"/>
<path d="M2.74982 18.65C2.33982 18.65 1.99982 18.31 1.99982 17.9V12.2C1.94982 9.49005 2.95982 6.93005 4.83982 5.01005C6.71982 3.10005 9.23982 2.05005 11.9498 2.05005C17.4898 2.05005 21.9998 6.56005 21.9998 12.1V17.8C21.9998 18.21 21.6598 18.55 21.2498 18.55C20.8398 18.55 20.4998 18.21 20.4998 17.8V12.1C20.4998 7.39005 16.6698 3.55005 11.9498 3.55005C9.63982 3.55005 7.49982 4.44005 5.90982 6.06005C4.30982 7.69005 3.45982 9.86005 3.49982 12.18V17.89C3.49982 18.31 3.16982 18.65 2.74982 18.65Z" fill="#1C252E"/>
<path d="M5.94 12.45H5.81C3.71 12.45 2 14.16 2 16.26V18.14C2 20.24 3.71 21.95 5.81 21.95H5.94C8.04 21.95 9.75 20.24 9.75 18.14V16.26C9.75 14.16 8.04 12.45 5.94 12.45Z" fill="#1C252E"/>
<path d="M18.19 12.45H18.06C15.96 12.45 14.25 14.16 14.25 16.26V18.14C14.25 20.24 15.96 21.95 18.06 21.95H18.19C20.29 21.95 22 20.24 22 18.14V16.26C22 14.16 20.29 12.45 18.19 12.45Z" fill="#1C252E"/>
</svg>
