<svg width="24" height="24" viewBox="0 0 24 24" fill="none" xmlns="http://www.w3.org/2000/svg">
<path d="M19.6169 10.1966C19.6169 12.9266 16.8468 17.0009 14.6476 19.8053C13.5002 21.2684 12.9265 22 11.9999 22C11.0732 22 10.4995 21.2684 9.35219 19.8053C7.153 17.0009 4.38281 12.9266 4.38281 10.1966C4.38281 5.66975 7.79309 2 11.9999 2C16.2067 2 19.6169 5.66975 19.6169 10.1966Z" stroke="#1C252E" stroke-width="1.5"/>
<path opacity="0.4" d="M9.14355 10.5692C9.14355 12.1467 10.4224 13.4256 12 13.4256C13.5775 13.4256 14.8564 12.1467 14.8564 10.5692C14.8564 8.99165 13.5775 7.7128 12 7.7128C10.4224 7.7128 9.14355 8.99165 9.14355 10.5692Z" stroke="#1C252E" stroke-width="1.5"/>
</svg>
