<svg width="24" height="24" viewBox="0 0 24 24" fill="none" xmlns="http://www.w3.org/2000/svg">
<path d="M8.38 12.0001L10.79 14.4201L15.62 9.58008" stroke="#1C252E" stroke-width="1.5" stroke-linecap="round" stroke-linejoin="round"/>
<path d="M2.44 10.7601C1.86 11.4501 1.86 12.5701 2.44 13.2601L3.79 14.8501C4.04 15.1501 4.25 15.7101 4.25 16.1001V17.8101C4.25 18.8701 5.12 19.7401 6.18 19.7401H7.91C8.31 19.7401 8.87 19.9501 9.17 20.2101L10.75 21.5701C11.45 22.1601 12.58 22.1601 13.27 21.5701L14.85 20.2101C15.15 19.9501 15.72 19.7401 16.11 19.7401H17.81C18.87 19.7401 19.74 18.8701 19.74 17.8101V16.1101C19.74 15.7101 19.95 15.1501 20.21 14.8501L21.57 13.2701C22.16 12.5701 22.16 11.4401 21.57 10.7501L20.21 9.17007C19.95 8.87007 19.74 8.30007 19.74 7.91007V6.21007C19.74 5.15007 18.87 4.28007 17.81 4.28007H16.11C15.71 4.28007 15.15 4.07007 14.85 3.81007L13.27 2.45007C12.57 1.86007 11.44 1.86007 10.75 2.45007L9.17 3.80007C8.87 4.06007 8.3 4.27007 7.91 4.27007H6.18C5.12 4.27007 4.25 5.14007 4.25 6.20007V7.92007" stroke="#1C252E" stroke-width="1.5" stroke-linecap="round" stroke-linejoin="round"/>
</svg>
