<svg width="24" height="24" viewBox="0 0 24 24" fill="none" xmlns="http://www.w3.org/2000/svg">
<path d="M2 9.10001C2 8.42001 2.4 7.46001 2.88 6.98001L6.98 2.88C7.46 2.4 8.42001 2 9.10001 2H14.9C15.58 2 16.54 2.4 17.02 2.88L21.12 6.98001C21.6 7.46001 22 8.42001 22 9.10001V14.9C22 15.58 21.6 16.54 21.12 17.02L17.02 21.12C16.54 21.6 15.58 22 14.9 22H9.10001C8.42001 22 7.46 21.6 6.98 21.12L2.88 17.02C2.4 16.54 2 15.58 2 14.9" stroke="#1C252E" stroke-width="1.5" stroke-linecap="round" stroke-linejoin="round"/>
<path d="M8.5 15.5L15.5 8.5" stroke="#1C252E" stroke-width="1.5" stroke-linecap="round" stroke-linejoin="round"/>
<path d="M15.5 15.5L8.5 8.5" stroke="#1C252E" stroke-width="1.5" stroke-linecap="round" stroke-linejoin="round"/>
</svg>
