<svg width="24" height="24" viewBox="0 0 24 24" fill="none" xmlns="http://www.w3.org/2000/svg">
<path d="M2.43 10.7349C1.85 11.4249 1.85 12.5449 2.43 13.2349L3.77999 14.8249C4.02999 15.1249 4.24 15.6849 4.24 16.0749V17.7849C4.24 18.8449 5.10999 19.7149 6.16999 19.7149H7.89999C8.29999 19.7149 8.86 19.9249 9.16 20.1849L10.74 21.5449C11.44 22.1349 12.57 22.1349 13.26 21.5449L14.84 20.1849C15.14 19.9249 15.71 19.7149 16.1 19.7149H17.8C18.86 19.7149 19.73 18.8449 19.73 17.7849V16.0849C19.73 15.6849 19.94 15.1249 20.2 14.8249L21.56 13.2449C22.15 12.5449 22.15 11.4149 21.56 10.7249L20.2 9.14492C19.94 8.84492 19.73 8.27492 19.73 7.88492V6.18492C19.73 5.12492 18.86 4.25492 17.8 4.25492H16.1C15.7 4.25492 15.14 4.04492 14.84 3.78492L13.26 2.42492C12.56 1.83492 11.43 1.83492 10.74 2.42492L9.16 3.77492C8.86 4.03492 8.28999 4.24492 7.89999 4.24492H6.16999C5.10999 4.24492 4.24 5.11492 4.24 6.17492V7.89492" stroke="#1C252E" stroke-width="1.5" stroke-linecap="round" stroke-linejoin="round"/>
<path d="M12 8.12988V12.9599" stroke="#1C252E" stroke-width="1.5" stroke-linecap="round" stroke-linejoin="round"/>
<path d="M11.9945 16H12.0035" stroke="#1C252E" stroke-width="2" stroke-linecap="round" stroke-linejoin="round"/>
</svg>
