<svg width="24" height="24" viewBox="0 0 24 24" fill="none" xmlns="http://www.w3.org/2000/svg">
<path d="M4.02 5.97C2.75 7.65 2 9.74 2 12M12 2C17.52 2 22 6.48 22 12C22 17.52 17.52 22 12 22C9.37099 22 6.97789 20.9838 5.19233 19.323" stroke="#1C252E" stroke-width="1.5" stroke-linecap="round" stroke-linejoin="round"/>
<path d="M5 12C5 15.87 8.13 19 12 19C15.87 19 19 15.87 19 12C19 8.13 15.87 5 12 5" stroke="#1C252E" stroke-width="1.5" stroke-linecap="round" stroke-linejoin="round"/>
<path d="M12 16C14.21 16 16 14.21 16 12C16 9.79 14.21 8 12 8" stroke="#1C252E" stroke-width="1.5" stroke-linecap="round" stroke-linejoin="round"/>
</svg>
