<svg width="24" height="24" viewBox="0 0 24 24" fill="none" xmlns="http://www.w3.org/2000/svg">
<path d="M14.32 19.0698C14.32 19.6798 13.92 20.4798 13.41 20.7898L12 21.6998C10.69 22.5098 8.87 21.5998 8.87 19.9798V14.6298C8.87 13.9198 8.47 13.0098 8.06 12.5098L4.21997 8.46976C3.70997 7.95976 3.31 7.05977 3.31 6.44977M5.33002 2.00977H18.67C19.78 2.00977 20.69 2.91975 20.69 4.02975V6.24976C20.69 7.05976 20.18 8.06976 19.68 8.56976" stroke="#1C252E" stroke-width="1.5" stroke-miterlimit="10" stroke-linecap="round" stroke-linejoin="round"/>
<path d="M16.07 16.5201C17.8373 16.5201 19.27 15.0874 19.27 13.3201C19.27 11.5528 17.8373 10.1201 16.07 10.1201C14.3027 10.1201 12.87 11.5528 12.87 13.3201C12.87 15.0874 14.3027 16.5201 16.07 16.5201Z" stroke="#1C252E" stroke-width="1.5" stroke-linecap="round" stroke-linejoin="round"/>
<path d="M19.87 17.1201L18.87 16.1201" stroke="#1C252E" stroke-width="1.5" stroke-linecap="round" stroke-linejoin="round"/>
</svg>
