<svg width="24" height="24" viewBox="0 0 24 24" fill="none" xmlns="http://www.w3.org/2000/svg">
<path d="M23 15.37V17.5601C23 20.0001 21.22 22.3 18.8 22.97C18.63 23.01 18.45 23.01 18.29 22.97C17.11 22.65 16.07 21.93 15.34 21C14.55 20.02 14.09 18.8101 14.09 17.5601V15.37C14.09 14.95 14.4 14.49 14.78 14.33L17.56 13.1899C18.19 12.9399 18.89 12.9399 19.52 13.1899L20.52 13.6L22.31 14.33C22.69 14.49 23 14.95 23 15.37Z" stroke="#1C252E" stroke-width="1.5" stroke-linecap="round" stroke-linejoin="round"/>
<path d="M3.08002 8.24028C2.34002 8.83028 1.87004 10.0803 2.03004 11.0103L3.29005 18.5604C3.52005 19.9104 4.81003 21.0003 6.18003 21.0003H15.34C14.55 20.0203 14.09 18.8104 14.09 17.5604V15.3703C14.09 14.9503 14.4 14.4902 14.78 14.3302L17.56 13.1902C18.19 12.9402 18.89 12.9402 19.52 13.1902L20.52 13.6003L20.9501 11.0103C21.1101 10.0803 20.63 8.83028 19.9 8.24028L13.32 2.99028C12.31 2.17028 10.67 2.17027 9.66004 2.98027" stroke="#1C252E" stroke-width="1.5" stroke-linecap="round" stroke-linejoin="round"/>
</svg>
