<svg width="24" height="24" viewBox="0 0 24 24" fill="none" xmlns="http://www.w3.org/2000/svg">
<path d="M10.46 7.13C10.46 9.96323 12.7567 12.26 15.59 12.26C18.4232 12.26 20.72 9.96323 20.72 7.13C20.72 4.29678 18.4232 2 15.59 2C14.4166 2 13.3352 2.39394 12.4709 3.05679" stroke="#1C252E" stroke-width="1.5" stroke-miterlimit="10" stroke-linecap="round"/>
<path d="M6.36002 19.4398C8.06105 19.4398 9.44003 18.0608 9.44003 16.3598C9.44003 14.6587 8.06105 13.2798 6.36002 13.2798C4.65898 13.2798 3.28003 14.6587 3.28003 16.3598C3.28003 18.0608 4.65898 19.4398 6.36002 19.4398Z" stroke="#1C252E" stroke-width="1.5" stroke-miterlimit="10"/>
<path d="M19.18 19.4399C19.18 18.026 18.0338 16.8799 16.62 16.8799C15.2061 16.8799 14.06 18.026 14.06 19.4399C14.06 20.8537 15.2061 21.9999 16.62 21.9999" stroke="#1C252E" stroke-width="1.5" stroke-miterlimit="10" stroke-linecap="round"/>
</svg>
