<svg width="24" height="24" viewBox="0 0 24 24" fill="none" xmlns="http://www.w3.org/2000/svg">
<path d="M8.96005 2C8.56005 2 8.18002 2.14 7.87002 2.38L5.68002 4.13C4.80002 4.83 4.80002 6.15999 5.68002 6.85999L7.87002 8.60999C8.18002 8.85999 8.57005 8.98999 8.96005 8.98999H17.22C18.19 8.98999 18.97 8.20999 18.97 7.23999V3.73999C18.97 2.77999 18.19 2 17.22 2H13.09" stroke="#1C252E" stroke-width="1.5" stroke-linecap="round" stroke-linejoin="round"/>
<path d="M16.7502 18.1304L18.34 16.86C19.22 16.16 19.22 14.83 18.34 14.13L16.15 12.38C15.84 12.14 15.46 12 15.06 12H6.79999C5.82999 12 5.04999 12.78 5.04999 13.74V17.24C5.04999 18.21 5.82999 18.99 6.79999 18.99H14.1069" stroke="#1C252E" stroke-width="1.5" stroke-linecap="round" stroke-linejoin="round"/>
<path d="M12 12V9" stroke="#1C252E" stroke-width="1.5" stroke-linecap="round" stroke-linejoin="round"/>
<path d="M12 22V19" stroke="#1C252E" stroke-width="1.5" stroke-linecap="round" stroke-linejoin="round"/>
<path d="M9 22H15" stroke="#1C252E" stroke-width="1.5" stroke-linecap="round" stroke-linejoin="round"/>
</svg>
