<svg width="24" height="24" viewBox="0 0 24 24" fill="none" xmlns="http://www.w3.org/2000/svg">
<path d="M21.63 14.75C21.63 15.64 21.39 16.48 20.95 17.2C20.13 18.57 18.62 19.5 16.88 19.5C15.94 19.5 15.06 19.22 14.32 18.73C13.7 18.35 13.19 17.82 12.82 17.2C12.38 16.48 12.13 15.64 12.13 14.75C12.13 12.13 14.26 10 16.88 10C17.24 10 17.59 10.04 17.92 10.12C20.05 10.59 21.63 12.49 21.63 14.75Z" stroke="#1C252E" stroke-width="1.5" stroke-miterlimit="10" stroke-linecap="round" stroke-linejoin="round"/>
<path d="M15.03 14.7501L16.2 15.9201L18.73 13.5801" stroke="#1C252E" stroke-width="1.5" stroke-linecap="round" stroke-linejoin="round"/>
<path d="M3.31 6.45001C3.31 7.05001 3.71997 7.96 4.21997 8.47L8.06 12.51C8.46 13.01 8.87 13.92 8.87 14.63V19.98C8.87 21.6 10.69 22.51 12 21.7L13.41 20.79C13.92 20.49 14.32 19.68 14.32 19.07V18.73C13.7 18.35 13.19 17.82 12.82 17.2C12.38 16.48 12.13 15.64 12.13 14.75C12.13 12.13 14.26 10 16.88 10C17.24 10 17.59 10.04 17.92 10.12L19.68 8.57001C20.18 8.06001 20.69 7.04999 20.69 6.23999V4.01999C20.69 2.90999 19.78 2 18.67 2H5.33002" stroke="#1C252E" stroke-width="1.5" stroke-miterlimit="10" stroke-linecap="round" stroke-linejoin="round"/>
</svg>
