<svg width="24" height="24" viewBox="0 0 24 24" fill="none" xmlns="http://www.w3.org/2000/svg">
<path d="M2.10999 13.7C2.78999 17.82 6.09999 21.15 10.21 21.85C11.11 22 11.98 22.04 12.83 21.96C13.02 21.94 13.2 21.91 13.38 21.86C12.5 20.82 11.97 19.47 11.97 18C11.97 14.69 14.66 12 17.97 12C19.44 12 20.79 12.53 21.83 13.41C21.88 13.23 21.91 13.05 21.93 12.86C22.01 12.01 21.97 11.14 21.82 10.24C21.12 6.13002 17.79 2.82002 13.67 2.14002C10.1063 1.55215 6.81604 2.85071 4.63829 5.19653" stroke="#1C252E" stroke-width="1.5" stroke-linecap="round" stroke-linejoin="round"/>
<path d="M21.83 13.41C21.69 13.9 21.43 14.34 21.06 14.71L14.68 21.09C14.31 21.46 13.87 21.72 13.38 21.86C12.5 20.82 11.97 19.47 11.97 18C11.97 14.69 14.66 12 17.97 12C19.44 12 20.79 12.53 21.83 13.41Z" stroke="#1C252E" stroke-width="1.5" stroke-linecap="round" stroke-linejoin="round"/>
</svg>
