<svg width="24" height="24" viewBox="0 0 24 24" fill="none" xmlns="http://www.w3.org/2000/svg">
<path d="M10.07 2.81984C11.13 1.96984 12.86 1.96985 13.93 2.82985L20.86 8.36983C21.63 8.98983 22.13 10.2999 21.97 11.2799L20.64 19.2398C20.4 20.6498 19.03 21.8098 17.6 21.8098H6.40002C4.96002 21.8098 3.60002 20.6598 3.36002 19.2398L2.03002 11.2799C1.86002 10.2999 2.36002 8.98983 3.14002 8.36983" stroke="#1C252E" stroke-width="1.5" stroke-linecap="round" stroke-linejoin="round"/>
<path d="M12 15.5C13.3807 15.5 14.5 14.3807 14.5 13C14.5 11.6193 13.3807 10.5 12 10.5C10.6193 10.5 9.5 11.6193 9.5 13C9.5 14.3807 10.6193 15.5 12 15.5Z" stroke="#1C252E" stroke-width="1.5" stroke-linecap="round" stroke-linejoin="round"/>
</svg>
