<svg width="24" height="24" viewBox="0 0 24 24" fill="none" xmlns="http://www.w3.org/2000/svg">
<path d="M21.63 14.75C21.63 15.64 21.38 16.48 20.94 17.2C20.12 18.58 18.61 19.5 16.88 19.5C15.15 19.5 13.64 18.57 12.82 17.2C12.38 16.49 12.13 15.64 12.13 14.75C12.13 12.13 14.26 10 16.88 10C19.5 10 21.63 12.13 21.63 14.75Z" stroke="#1C252E" stroke-width="1.5" stroke-miterlimit="10" stroke-linecap="round" stroke-linejoin="round"/>
<path d="M18.15 15.99L15.64 13.48" stroke="#1C252E" stroke-width="1.5" stroke-miterlimit="10" stroke-linecap="round" stroke-linejoin="round"/>
<path d="M18.13 13.5098L15.62 16.0198" stroke="#1C252E" stroke-width="1.5" stroke-miterlimit="10" stroke-linecap="round" stroke-linejoin="round"/>
<path d="M3.31 6.45001C3.31 7.05001 3.72 7.95997 4.22 8.46997L8.06 12.51C8.46 13.01 8.87 13.92 8.87 14.63V19.98C8.87 21.6 10.69 22.51 12 21.7L13.41 20.79C13.92 20.49 14.32 19.68 14.32 19.07V18.73C13.7 18.35 13.19 17.82 12.82 17.2C12.38 16.48 12.13 15.64 12.13 14.75C12.13 12.13 14.26 10 16.88 10C17.24 10 17.59 10.04 17.92 10.12L19.68 8.57001C20.18 8.06001 20.69 7.04999 20.69 6.23999V4.02002C20.69 2.91002 19.78 2 18.67 2H5.33" stroke="#1C252E" stroke-width="1.5" stroke-miterlimit="10" stroke-linecap="round" stroke-linejoin="round"/>
</svg>
