<svg width="24" height="24" viewBox="0 0 24 24" fill="none" xmlns="http://www.w3.org/2000/svg">
<path d="M18.97 22H4.96997C1.96997 22 1.96997 20.65 1.96997 19V18C1.96997 17.45 2.41997 17 2.96997 17H20.97C21.52 17 21.97 17.45 21.97 18V19C21.97 20.65 21.97 22 18.97 22Z" stroke="#1C252E" stroke-width="1.5" stroke-linecap="round" stroke-linejoin="round"/>
<path d="M3.27002 13V17H20.72V13C20.72 9.16 18.02 5.96 14.41 5.18C13.87 5.06 13.3 5 12.72 5H11.27C10.69 5 10.13 5.06 9.59002 5.18C7.94783 5.53027 6.49188 6.38547 5.39256 7.57519" stroke="#1C252E" stroke-width="1.5" stroke-linecap="round" stroke-linejoin="round"/>
<path d="M14.5 4.5C14.5 4.74 14.47 4.96 14.41 5.18C13.87 5.06 13.3 5 12.72 5H11.27C10.69 5 10.13 5.06 9.59 5.18C9.53 4.96 9.5 4.74 9.5 4.5C9.5 3.12 10.62 2 12 2C13.38 2 14.5 3.12 14.5 4.5Z" stroke="#1C252E" stroke-width="1.5" stroke-linecap="round" stroke-linejoin="round"/>
<path d="M15 11H9" stroke="#1C252E" stroke-width="1.5" stroke-linecap="round" stroke-linejoin="round"/>
</svg>
