<svg width="24" height="24" viewBox="0 0 24 24" fill="none" xmlns="http://www.w3.org/2000/svg">
<path d="M2.13082 7C2.64745 3.45898 4.72949 2 9 2H15C20 2 22 4 22 9V15C22 20 20 22 15 22H9C4 22 2 20 2 15V12" stroke="#1C252E" stroke-width="1.5" stroke-linecap="round" stroke-linejoin="round"/>
<path d="M17 2.44V5M7 2.44V12.42C7 14.39 8.41 15.15 10.14 14.12L11.46 13.33C11.76 13.15 12.24 13.15 12.54 13.33L13.86 14.12C15.59 15.16 17 14.39 17 12.42V9" stroke="#1C252E" stroke-width="1.5" stroke-linecap="round" stroke-linejoin="round"/>
</svg>
