<svg width="24" height="24" viewBox="0 0 24 24" fill="none" xmlns="http://www.w3.org/2000/svg">
<path d="M3.13082 7C3.64745 3.45898 5.72949 2 10 2H14C19 2 21 4 21 9V15C21 20 19 22 14 22H10C5 22 3 20 3 15V12" stroke="#1C252E" stroke-width="1.5" stroke-linecap="round" stroke-linejoin="round"/>
<path d="M16.5 7.57996V8.57996C16.5 9.39996 15.83 10.08 15 10.08H9C8.18 10.08 7.5 9.40996 7.5 8.57996V7.57996C7.5 6.75996 8.17 6.07996 9 6.07996H15C15.83 6.07996 16.5 6.74996 16.5 7.57996Z" stroke="#1C252E" stroke-width="1.5" stroke-linecap="round" stroke-linejoin="round"/>
<path d="M8.13612 14H8.14767" stroke="#1C252E" stroke-width="2" stroke-linecap="round" stroke-linejoin="round"/>
<path d="M11.9955 14H12.007" stroke="#1C252E" stroke-width="2" stroke-linecap="round" stroke-linejoin="round"/>
<path d="M15.8549 14H15.8664" stroke="#1C252E" stroke-width="2" stroke-linecap="round" stroke-linejoin="round"/>
<path d="M8.13612 17.5H8.14767" stroke="#1C252E" stroke-width="2" stroke-linecap="round" stroke-linejoin="round"/>
<path d="M11.9955 17.5H12.007" stroke="#1C252E" stroke-width="2" stroke-linecap="round" stroke-linejoin="round"/>
<path d="M15.8549 17.5H15.8664" stroke="#1C252E" stroke-width="2" stroke-linecap="round" stroke-linejoin="round"/>
</svg>
