<svg width="24" height="24" viewBox="0 0 24 24" fill="none" xmlns="http://www.w3.org/2000/svg">
<path d="M2 4.66001C2 3.47001 2.97 2.57001 4.16 2.67001C6.26 2.84001 9.44 3.90001 11.22 5.01001L11.47 5.16001C11.76 5.34001 12.24 5.34001 12.53 5.16001L12.7 5.05001C14.48 3.93001 17.67 2.86001 19.77 2.68001H19.83C21.02 2.58001 22 3.47001 22 4.67001V16.74C22 17.7 21.22 18.6 20.26 18.72L19.93 18.76C17.75 19.05 14.39 20.16 12.47 21.22C12.21 21.37 11.78 21.37 11.51 21.22L11.47 21.2C9.55 20.15 6.2 19.05 4.03 18.76L3.74 18.72C2.78 18.6 2 17.7 2 16.74V9.5" stroke="#1C252E" stroke-width="1.5" stroke-linecap="round" stroke-linejoin="round"/>
<path d="M12 5.48999V20.49" stroke="#1C252E" stroke-width="1.5" stroke-linecap="round" stroke-linejoin="round"/>
<path d="M7.75 8.48999H5.5" stroke="#1C252E" stroke-width="1.5" stroke-linecap="round" stroke-linejoin="round"/>
<path d="M8.5 11.49H5.5" stroke="#1C252E" stroke-width="1.5" stroke-linecap="round" stroke-linejoin="round"/>
</svg>
