<svg width="24" height="24" viewBox="0 0 24 24" fill="none" xmlns="http://www.w3.org/2000/svg">
<path d="M10.0495 2.53004C11.1295 1.82004 12.9095 1.82004 13.9895 2.54004L19.9795 6.47004C21.8995 7.73004 21.8995 10.54 19.9795 11.8L13.9895 15.73C12.9095 16.44 11.1295 16.44 10.0495 15.73L4.02953 11.8C2.09953 10.54 2.09953 7.72004 4.02953 6.46004L6.14454 5.07931" stroke="#1C252E" stroke-width="1.5" stroke-linecap="round" stroke-linejoin="round"/>
<path d="M5.62914 13.08L5.61914 17.77C5.61914 19.04 6.59914 20.4 7.79914 20.8L10.9891 21.86C11.5391 22.04 12.4491 22.04 13.0091 21.86L16.1991 20.8C17.3991 20.4 18.3791 19.04 18.3791 17.77V13.13" stroke="#1C252E" stroke-width="1.5" stroke-linecap="round" stroke-linejoin="round"/>
<path d="M21.4004 15V9" stroke="#1C252E" stroke-width="1.5" stroke-linecap="round" stroke-linejoin="round"/>
</svg>
