<svg width="24" height="24" viewBox="0 0 24 24" fill="none" xmlns="http://www.w3.org/2000/svg">
<path d="M20.6098 10.83C19.8398 9.91002 18.8498 9.31002 17.6998 9.05002C17.4398 7.89002 16.9898 6.89002 16.3298 6.06002C16.3098 6.03002 16.2898 6.00002 16.2698 5.98002C14.0698 3.32002 10.4698 3.33002 8.03977 4.71002C5.95977 5.90002 4.18977 8.41002 5.11977 11.99C2.98977 12.51 2.00977 14.37 2.00977 16.05C2.00977 17.93 3.23977 20.04 5.97977 20.24H16.3198C16.3298 20.24 16.3498 20.24 16.3598 20.24C17.7798 20.24 19.1398 19.71 20.1898 18.75C22.6998 16.53 22.3698 12.91 20.6098 10.83Z" fill="#1C252E"/>
<path d="M21.7592 8.74001C21.7592 9.08001 21.7192 9.41001 21.6192 9.73001C20.8892 8.88001 19.9592 8.25001 18.9292 7.86001C18.6092 6.86001 18.1492 5.97001 17.5492 5.19001C17.5192 5.15001 17.4892 5.11001 17.4492 5.06001C17.6392 5.02001 17.8392 5.01001 18.0292 5.01001C20.0892 5.01001 21.7592 6.68001 21.7592 8.74001Z" fill="#1C252E"/>
</svg>
