<svg width="24" height="24" viewBox="0 0 24 24" fill="none" xmlns="http://www.w3.org/2000/svg">
<path d="M10 3.75H11.25V8.5C11.25 8.91 11.59 9.25 12 9.25C12.41 9.25 12.75 8.91 12.75 8.5V3.75H14C14.41 3.75 14.75 3.41 14.75 3C14.75 2.59 14.41 2.25 14 2.25H10C9.59 2.25 9.25 2.59 9.25 3C9.25 3.41 9.59 3.75 10 3.75Z" fill="#1C252E"/>
<path d="M14 20.25H12.75V15.5C12.75 15.09 12.41 14.75 12 14.75C11.59 14.75 11.25 15.09 11.25 15.5V20.25H10C9.59 20.25 9.25 20.59 9.25 21C9.25 21.41 9.59 21.75 10 21.75H14C14.41 21.75 14.75 21.41 14.75 21C14.75 20.59 14.41 20.25 14 20.25Z" fill="#1C252E"/>
<path d="M2.83036 9.88006C2.95036 9.95006 3.08036 9.98006 3.20036 9.98006C3.46036 9.98006 3.71036 9.85006 3.85036 9.60006L4.48036 8.52006L8.60037 10.9001C8.71037 10.9701 8.84036 11.0001 8.97037 11.0001C9.23036 11.0001 9.48036 10.8701 9.62036 10.6201C9.83036 10.2701 9.70037 9.81006 9.35037 9.60006L5.23036 7.22006L5.85036 6.14006C6.06036 5.78006 5.93036 5.32006 5.58036 5.12006C5.22036 4.91006 4.76036 5.03006 4.56036 5.39006L2.56036 8.85006C2.35036 9.22006 2.47036 9.67006 2.83036 9.88006Z" fill="#1C252E"/>
<path d="M21.1704 14.12C20.8104 13.91 20.3504 14.03 20.1504 14.39L19.5204 15.47L15.4004 13.1C15.0404 12.89 14.5804 13.02 14.3804 13.37C14.1704 13.73 14.3004 14.19 14.6504 14.39L18.7604 16.77L18.1404 17.85C17.9304 18.21 18.0604 18.67 18.4104 18.87C18.5304 18.94 18.6604 18.97 18.7804 18.97C19.0404 18.97 19.2904 18.84 19.4304 18.59L21.4304 15.13C21.6504 14.78 21.5304 14.33 21.1704 14.12Z" fill="#1C252E"/>
<path d="M18.7707 7.21994L14.6507 9.59995C14.2907 9.80995 14.1707 10.2699 14.3807 10.6199C14.5207 10.8599 14.7707 10.9999 15.0307 10.9999C15.1607 10.9999 15.2907 10.9699 15.4007 10.8999L19.5107 8.51994L20.1407 9.59995C20.2807 9.83994 20.5307 9.97994 20.7907 9.97994C20.9207 9.97994 21.0507 9.94994 21.1607 9.87994C21.5207 9.66994 21.6407 9.20994 21.4307 8.85994L19.4307 5.39994C19.2207 5.03994 18.7607 4.91994 18.4107 5.12994C18.0507 5.33994 17.9307 5.79994 18.1407 6.14994L18.7707 7.21994Z" fill="#1C252E"/>
<path d="M5.23036 16.78L9.34036 14.4C9.70037 14.19 9.82036 13.73 9.61036 13.38C9.40036 13.02 8.94036 12.9 8.59036 13.11L4.48036 15.49L3.85036 14.41C3.64036 14.05 3.18036 13.93 2.83036 14.14C2.47036 14.35 2.35036 14.81 2.56036 15.16L4.56036 18.62C4.70036 18.86 4.95036 19 5.21036 19C5.34036 19 5.47036 18.97 5.58036 18.9C5.94036 18.69 6.06036 18.23 5.85036 17.88L5.23036 16.78Z" fill="#1C252E"/>
<path d="M15.5 12C15.5 12.64 15.33 13.23 15.03 13.75C14.42 14.8 13.29 15.5 12 15.5C10.71 15.5 9.58 14.8 8.97 13.75C8.67 13.23 8.5 12.64 8.5 12C8.5 11.36 8.67 10.77 8.97 10.25C9.58 9.2 10.71 8.5 12 8.5C13.29 8.5 14.42 9.2 15.03 10.25C15.33 10.77 15.5 11.36 15.5 12Z" fill="#1C252E"/>
</svg>
