<svg width="24" height="24" viewBox="0 0 24 24" fill="none" xmlns="http://www.w3.org/2000/svg">
<path d="M21.5307 15.93C21.3707 15.66 20.9207 15.24 19.8007 15.44C19.1807 15.55 18.5507 15.6 17.9207 15.57C15.5907 15.47 13.4807 14.4 12.0107 12.75C10.7107 11.3 9.91068 9.40999 9.90068 7.36999C9.90068 6.22999 10.1207 5.12999 10.5707 4.08999C11.0107 3.07999 10.7007 2.54999 10.4807 2.32999C10.2507 2.09999 9.71068 1.77999 8.65068 2.21999C4.56068 3.93999 2.03068 8.03999 2.33068 12.43C2.63068 16.56 5.53068 20.09 9.37068 21.42C10.2907 21.74 11.2607 21.93 12.2607 21.97C12.4207 21.98 12.5807 21.99 12.7407 21.99C16.0907 21.99 19.2307 20.41 21.2107 17.72C21.8807 16.79 21.7007 16.2 21.5307 15.93Z" fill="#1C252E"/>
</svg>
