<svg width="24" height="24" viewBox="0 0 24 24" fill="none" xmlns="http://www.w3.org/2000/svg">
<path d="M21.2698 8.76001C21.2698 9.78001 20.7998 10.7 20.0398 11.3C19.4898 11.75 18.7798 12.02 18.0098 12.02C16.2198 12.02 14.7598 10.56 14.7598 8.77001C14.7598 7.88001 15.1198 7.07001 15.7198 6.48001V6.47001C16.3098 5.88001 17.1198 5.51001 18.0098 5.51001C19.8098 5.51001 21.2698 6.97001 21.2698 8.76001Z" fill="#1C252E"/>
<path d="M20.1798 18.73C19.1298 19.69 17.7798 20.22 16.3498 20.22H5.96977C3.22977 20.02 2.00977 17.91 2.00977 16.03C2.00977 14.35 2.97977 12.49 5.10977 11.97C4.17977 8.38997 5.95977 5.88997 8.03977 4.69997C10.0998 3.52997 12.9998 3.33997 15.1798 4.94997C14.9898 5.08997 14.8198 5.23997 14.6498 5.40997L14.2198 5.85997V5.91997C13.5998 6.72997 13.2598 7.71997 13.2598 8.75997C13.2598 11.38 15.3998 13.51 18.0198 13.51C19.0998 13.51 20.1498 13.14 20.9698 12.47C21.1198 12.35 21.2698 12.22 21.3998 12.08C22.3898 14.16 22.2498 16.92 20.1798 18.73Z" fill="#1C252E"/>
</svg>
