<svg width="24" height="24" viewBox="0 0 24 24" fill="none" xmlns="http://www.w3.org/2000/svg">
<path d="M22 8V13C22 17 20 19 16 19H15.5C15.19 19 14.89 19.15 14.7 19.4L13.2 21.4C12.54 22.28 11.46 22.28 10.8 21.4L9.3 19.4C9.14 19.18 8.77 19 8.5 19H8C4 19 2 18 2 13V8C2 4 4 2 8 2H12" stroke="#1C252E" stroke-width="1.5" stroke-miterlimit="10" stroke-linecap="round" stroke-linejoin="round"/>
<path d="M18.0002 7.16214C17.9499 7.16214 17.9021 7.13879 17.8698 7.09838C17.3805 6.48697 16.8852 6.02706 16.4481 5.62128C15.6922 4.91949 15.0952 4.36516 15.0952 3.50075C15.0952 3.05573 15.2458 2.64083 15.5193 2.33246C15.803 2.01251 16.1965 1.8363 16.6271 1.8363C17.1071 1.8363 17.5264 2.07554 17.8396 2.52813C17.9035 2.62043 17.9566 2.71263 18.0002 2.79787C18.0438 2.71263 18.097 2.62043 18.1609 2.52813C18.4741 2.07554 18.8933 1.8363 19.3733 1.8363C19.804 1.8363 20.1974 2.01251 20.4811 2.33246C20.7546 2.64083 20.9052 3.05573 20.9052 3.50075C20.9052 4.36516 20.3082 4.91947 19.5523 5.62127C19.1153 6.02704 18.6199 6.48696 18.1307 7.09837C18.0983 7.13879 18.0506 7.16214 18.0002 7.16214Z" stroke="#1C252E" stroke-width="1.5"/>
<path d="M15.9966 11H16.0056" stroke="#1C252E" stroke-width="2" stroke-linecap="round" stroke-linejoin="round"/>
<path d="M11.9956 11H12.0046" stroke="#1C252E" stroke-width="2" stroke-linecap="round" stroke-linejoin="round"/>
<path d="M7.99463 11H8.00361" stroke="#1C252E" stroke-width="2" stroke-linecap="round" stroke-linejoin="round"/>
</svg>
