<svg width="24" height="24" viewBox="0 0 24 24" fill="none" xmlns="http://www.w3.org/2000/svg">
<path d="M2 8.98999C2 7.27999 3.39999 5.88 5.10999 5.88H12.89C14.6 5.88 16 7.27999 15.99 8.98999V20.35C15.99 21.8 14.95 22.42 13.68 21.71L9.75 19.52C9.34 19.29 8.65999 19.29 8.23999 19.52L4.31 21.71C3.04 22.42 2 21.8 2 20.35V14" stroke="#1C252E" stroke-width="1.5" stroke-linecap="round" stroke-linejoin="round"/>
<path d="M22 5.10999V16.47C22 17.92 20.96 18.53 19.69 17.83L16 15.77V8.98999C16 7.27999 14.6 5.88 12.89 5.88H8V5.10999C8 3.39999 9.39999 2 11.11 2H18.89C20.6 2 22 3.39999 22 5.10999Z" stroke="#1C252E" stroke-width="1.5" stroke-linecap="round" stroke-linejoin="round"/>
</svg>
