<svg width="24" height="24" viewBox="0 0 24 24" fill="none" xmlns="http://www.w3.org/2000/svg">
<path d="M2.00586 8.98779C2.00586 7.27779 3.40584 5.87781 5.11584 5.87781H12.8959C14.6059 5.87781 16.0058 7.27779 15.9958 8.98779V20.3478C15.9958 21.7978 14.9559 22.4178 13.6859 21.7078L9.75586 19.5178C9.34586 19.2878 8.66585 19.2878 8.24585 19.5178L4.31586 21.7078C3.04586 22.4178 2.00586 21.7978 2.00586 20.3478V13.9978" stroke="#1C252E" stroke-width="1.5" stroke-linecap="round" stroke-linejoin="round"/>
<path d="M22 5.10999V16.47C22 17.92 20.96 18.53 19.69 17.83L16 15.77V8.98999C16 7.27999 14.6 5.88 12.89 5.88H8V5.10999C8 3.39999 9.39999 2 11.11 2H18.89C20.6 2 22 3.39999 22 5.10999Z" stroke="#1C252E" stroke-width="1.5" stroke-linecap="round" stroke-linejoin="round"/>
<path d="M7 12H11" stroke="#1C252E" stroke-width="1.5" stroke-linecap="round" stroke-linejoin="round"/>
<path d="M9 14V10" stroke="#1C252E" stroke-width="1.5" stroke-linecap="round" stroke-linejoin="round"/>
</svg>
