<svg width="24" height="24" viewBox="0 0 24 24" fill="none" xmlns="http://www.w3.org/2000/svg">
<path d="M2.02936 8C2.2927 3.73149 4.34773 2 9 2H15C20 2 22 4 22 9V15C22 20 20 22 15 22H9C4 22 2 20 2 15V13" stroke="#1C252E" stroke-width="1.5" stroke-linecap="round" stroke-linejoin="round"/>
<path d="M16.9325 8C16.7425 6.53104 16.0405 6.13 14.2102 6.13H9.77023C7.55023 6.13 6.99023 6.72 6.99023 9.09V15.72C7.00023 17.27 7.86024 17.64 8.90024 16.53C9.38024 16.01 10.1203 16.05 10.5403 16.62L11.1403 17.42C11.6103 18.05 12.3902 18.05 12.8602 17.42L13.4503 16.63C13.8703 16.07 14.6102 16.03 15.0902 16.54C16.1402 17.66 16.9902 17.29 16.9902 15.72V12" stroke="#1C252E" stroke-width="1.5" stroke-linecap="round" stroke-linejoin="round"/>
</svg>
