<svg width="24" height="24" viewBox="0 0 24 24" fill="none" xmlns="http://www.w3.org/2000/svg">
<path opacity="0.4" d="M21.2995 7.57999H15.7195C15.3295 7.57999 15.0195 7.26999 15.0195 6.87999C15.0195 6.48999 15.3295 6.17999 15.7195 6.17999H21.2995C21.6895 6.17999 21.9995 6.48999 21.9995 6.87999C21.9995 7.26999 21.6895 7.57999 21.2995 7.57999Z" fill="#1C252E"/>
<path opacity="0.4" d="M6.42 7.57999H2.7C2.31 7.57999 2 7.26999 2 6.87999C2 6.48999 2.31 6.17999 2.7 6.17999H6.42C6.81 6.17999 7.12 6.48999 7.12 6.87999C7.12 7.26999 6.8 7.57999 6.42 7.57999Z" fill="#1C252E"/>
<path d="M10.1395 10.83C12.321 10.83 14.0895 9.06152 14.0895 6.87999C14.0895 4.69847 12.321 2.92999 10.1395 2.92999C7.95793 2.92999 6.18945 4.69847 6.18945 6.87999C6.18945 9.06152 7.95793 10.83 10.1395 10.83Z" fill="#1C252E"/>
<path opacity="0.4" d="M21.3009 17.81H17.5809C17.1909 17.81 16.8809 17.5 16.8809 17.11C16.8809 16.72 17.1909 16.41 17.5809 16.41H21.3009C21.6909 16.41 22.0009 16.72 22.0009 17.11C22.0009 17.5 21.6909 17.81 21.3009 17.81Z" fill="#1C252E"/>
<path opacity="0.4" d="M8.28 17.81H2.7C2.31 17.81 2 17.5 2 17.11C2 16.72 2.31 16.41 2.7 16.41H8.28C8.67 16.41 8.98 16.72 8.98 17.11C8.98 17.5 8.66 17.81 8.28 17.81Z" fill="#1C252E"/>
<path d="M13.8602 21.07C16.0417 21.07 17.8102 19.3015 17.8102 17.12C17.8102 14.9385 16.0417 13.17 13.8602 13.17C11.6786 13.17 9.91016 14.9385 9.91016 17.12C9.91016 19.3015 11.6786 21.07 13.8602 21.07Z" fill="#1C252E"/>
</svg>
