<svg width="24" height="24" viewBox="0 0 24 24" fill="none" xmlns="http://www.w3.org/2000/svg">
<path opacity="0.4" d="M16.65 3.85999H7.35C3.25 3.85999 2 5.10999 2 9.20999V14.79C2 18.89 3.25 20.14 7.35 20.14H16.65C20.75 20.14 22 18.89 22 14.79V9.20999C22 5.10999 20.75 3.85999 16.65 3.85999Z" fill="#1C252E"/>
<path d="M10.7898 7.58008H8.55977C6.30977 7.58008 5.25977 8.63008 5.25977 10.8801V13.1101C5.25977 15.3601 6.30977 16.4101 8.55977 16.4101H10.7898C13.0398 16.4101 14.0898 15.3601 14.0898 13.1101V10.8801C14.0898 8.63008 13.0398 7.58008 10.7898 7.58008Z" fill="#1C252E"/>
</svg>
