<svg width="24" height="24" viewBox="0 0 24 24" fill="none" xmlns="http://www.w3.org/2000/svg">
<path opacity="0.4" d="M19.2296 4.17998L19.3596 3.93999C19.5096 3.66999 19.4696 3.33002 19.2696 3.09002C19.0696 2.85002 18.7396 2.76999 18.4396 2.87999C14.2896 4.39999 9.70958 4.39999 5.55958 2.87999C5.26958 2.76999 4.93958 2.86002 4.72958 3.09002C4.52958 3.33002 4.48958 3.65999 4.63958 3.93999L4.76958 4.16997C7.38958 9.15997 7.35958 15.09 4.66958 20.05C4.51958 20.32 4.55958 20.66 4.75958 20.9C4.95958 21.14 5.28958 21.22 5.57958 21.11C9.70958 19.6 14.2696 19.6 18.4096 21.11C18.4896 21.14 18.5796 21.16 18.6696 21.16C18.8796 21.16 19.0896 21.07 19.2396 20.9C19.4396 20.66 19.4796 20.33 19.3296 20.05C16.6496 15.09 16.6096 9.15998 19.2296 4.17998Z" fill="#1C252E"/>
<path d="M18.6998 4.33002C18.3898 4.33002 18.1098 4.14003 17.9998 3.84003C17.8598 3.45003 18.0598 3.02001 18.4398 2.88001C19.5198 2.48001 20.5798 1.96999 21.6198 1.35999C21.9798 1.14999 22.4398 1.27 22.6498 1.62C22.8598 1.98 22.7398 2.44003 22.3898 2.65003C21.2798 3.31003 20.1298 3.85998 18.9698 4.28998C18.8698 4.31998 18.7898 4.33002 18.6998 4.33002Z" fill="#1C252E"/>
<path d="M5.29988 4.33003C5.20988 4.33003 5.12988 4.32005 5.03988 4.28005C3.87988 3.85005 2.72988 3.30003 1.61988 2.64003C1.25988 2.43003 1.14988 1.97 1.35988 1.61C1.56988 1.25 2.02988 1.13999 2.38988 1.34999C3.41988 1.95999 4.48988 2.47001 5.56988 2.87001C5.95988 3.01001 6.15988 3.45003 6.00988 3.83003C5.88988 4.14003 5.59988 4.33003 5.29988 4.33003Z" fill="#1C252E"/>
<path d="M22.0004 22.75C21.8704 22.75 21.7404 22.72 21.6204 22.64C20.5904 22.03 19.5204 21.51 18.4204 21.11C18.0304 20.97 17.8304 20.54 17.9704 20.15C18.1104 19.76 18.5404 19.56 18.9304 19.7C20.1204 20.13 21.2804 20.69 22.3904 21.35C22.7504 21.56 22.8604 22.02 22.6504 22.38C22.5004 22.62 22.2504 22.75 22.0004 22.75Z" fill="#1C252E"/>
<path d="M1.99988 22.75C1.74988 22.75 1.49988 22.62 1.35988 22.38C1.14988 22.02 1.25988 21.56 1.61988 21.35C2.72988 20.69 3.88988 20.13 5.07988 19.7C5.46988 19.56 5.89988 19.76 6.03988 20.15C6.17988 20.54 5.97988 20.97 5.58988 21.11C4.48988 21.51 3.40988 22.03 2.38988 22.64C2.25988 22.72 2.12988 22.75 1.99988 22.75Z" fill="#1C252E"/>
</svg>
