<svg width="24" height="24" viewBox="0 0 24 24" fill="none" xmlns="http://www.w3.org/2000/svg">
<path d="M11.5202 1.90002C11.8926 1.90002 12.3373 1.96036 12.7516 2.07874C13.1258 2.18566 13.5647 2.36684 13.8932 2.6676L16.9792 5.05725L16.0612 6.2428L12.9616 3.84338L12.9235 3.81409L12.8903 3.77991C12.8236 3.71327 12.6433 3.60794 12.3395 3.52112C12.0538 3.43949 11.7478 3.40002 11.5202 3.40002H7.72039C7.30016 3.40003 6.82706 3.56126 6.42547 3.8551C6.02448 4.14855 5.74738 4.53525 5.64813 4.93225L5.64129 4.95862L5.6325 4.98401L3.23309 12.2838L3.23016 12.2936L3.22625 12.3024C3.05038 12.795 3.1386 13.1788 3.32391 13.4303C3.51279 13.6866 3.8735 13.9 4.42059 13.9H8.42059C9.46374 13.9001 10.3289 14.7913 10.1628 15.9557L10.1618 15.9655L9.6618 19.1656L9.65789 19.1891L9.65301 19.2125C9.54922 19.6796 9.85328 20.2723 10.3552 20.4987L10.4577 20.5387L10.4704 20.5426L10.4841 20.5475C10.687 20.6235 10.9533 20.6217 11.2263 20.528C11.5043 20.4324 11.7056 20.2707 11.7966 20.1344L11.7975 20.1315L15.8981 14.0319L17.1432 14.8688L13.0436 20.9655C12.7346 21.429 12.2363 21.7675 11.7145 21.9469C11.1952 22.1254 10.5726 22.1736 9.98309 21.9606C9.98084 21.9598 9.9785 21.9594 9.97625 21.9586C9.96993 21.9563 9.96304 21.9551 9.95672 21.9528V21.9508C8.74822 21.5326 7.92212 20.2123 8.17938 18.9342L8.6784 15.7389C8.69687 15.6011 8.65669 15.5248 8.62078 15.484C8.57898 15.4366 8.51034 15.4001 8.42059 15.4H4.42059C3.46774 15.4 2.62801 15.0135 2.11688 14.3199C1.60223 13.6215 1.49012 12.7047 1.81414 11.7975L4.2077 4.51624C4.41763 3.73687 4.92953 3.09174 5.53973 2.64514C6.16314 2.18899 6.94063 1.90003 7.72039 1.90002H11.5202Z" fill="#1C252E"/>
<path d="M20.8701 5.65042C20.8701 5.03576 20.7354 4.81793 20.6367 4.72659C20.5233 4.62187 20.2626 4.50003 19.6201 4.50003H18.6201C17.9776 4.50003 17.717 4.62187 17.6035 4.72659C17.5048 4.81793 17.3701 5.03576 17.3701 5.65042V15.4502C17.3701 16.0653 17.5048 16.2829 17.6035 16.3741C17.717 16.4788 17.9776 16.5996 18.6201 16.5996H19.6201C20.2626 16.5996 20.5233 16.4788 20.6367 16.3741C20.7354 16.2829 20.8701 16.0653 20.8701 15.4502V5.65042ZM22.3701 15.4502C22.3701 16.2347 22.2055 16.9678 21.6543 17.4766C21.1178 17.9719 20.3776 18.0996 19.6201 18.0996H18.6201C17.8626 18.0996 17.1225 17.9719 16.5859 17.4766C16.0347 16.9678 15.8701 16.2347 15.8701 15.4502V5.65042C15.8701 4.86606 16.0349 4.13292 16.5859 3.62405C17.1225 3.12878 17.8626 3.00003 18.6201 3.00003H19.6201C20.3776 3.00003 21.1178 3.12878 21.6543 3.62405C22.2053 4.13292 22.3701 4.86606 22.3701 5.65042V15.4502Z" fill="#1C252E"/>
</svg>
