<svg width="24" height="24" viewBox="0 0 24 24" fill="none" xmlns="http://www.w3.org/2000/svg">
<path d="M18.9908 6.20955C18.9906 5.56396 18.4558 5.02986 17.8101 5.02986H16.1109C15.7954 5.02986 15.4634 4.95109 15.1802 4.84529C14.8976 4.73971 14.5976 4.58232 14.3609 4.37752L12.7867 3.02303C12.3638 2.66702 11.6451 2.67188 11.2378 3.0201L9.65971 4.3785L9.65874 4.37752C9.42021 4.58364 9.11689 4.74072 8.83549 4.84529C8.55344 4.95009 8.22214 5.02982 7.91069 5.02986H6.18022C5.53461 5.02997 5.00073 5.56402 5.00053 6.20955V7.91951C5.00053 8.23155 4.92092 8.56115 4.81792 8.83943C4.71455 9.11863 4.56198 9.41565 4.36674 9.64998L4.36186 9.65584L3.01225 11.2457C2.66995 11.6563 2.66971 12.3646 3.01225 12.775L4.36186 14.3648L4.36674 14.3697C4.56207 14.6041 4.71453 14.9019 4.81792 15.1812C4.92084 15.4594 5.00053 15.7883 5.00053 16.1002V17.8101C5.0006 18.4558 5.53453 18.9897 6.18022 18.9898H7.91069C8.22606 18.9899 8.55731 19.0687 8.84038 19.1744C9.12247 19.2798 9.42215 19.4369 9.65874 19.6412L11.2339 20.9967L11.316 21.0592C11.7448 21.3511 12.4008 21.3262 12.7828 20.9996L14.3609 19.6412C14.5994 19.4351 14.9037 19.279 15.1851 19.1744C15.4672 19.0696 15.7994 18.9898 16.1109 18.9898H17.8101C18.4559 18.9898 18.9907 18.4558 18.9908 17.8101V16.1099C18.9908 15.7945 19.0696 15.4634 19.1753 15.1803C19.2811 14.8971 19.4387 14.5959 19.6441 14.359L20.9966 12.7867L21.0591 12.7037C21.3509 12.2748 21.3271 11.6188 21.0005 11.2369V11.2359L19.6421 9.65975V9.65877C19.436 9.42022 19.2799 9.11595 19.1753 8.83455C19.0705 8.55246 18.9908 8.22121 18.9908 7.90975V6.20955ZM20.4908 7.90975C20.4908 7.98813 20.5156 8.13693 20.5806 8.31209C20.6295 8.44355 20.6856 8.55015 20.733 8.62068L20.7769 8.67928L20.7789 8.68025L22.1392 10.2603L22.1402 10.2623C22.9719 11.2349 22.9678 12.7763 22.1441 13.7535L22.1392 13.7594L20.7789 15.3394L20.7769 15.3414C20.7223 15.4045 20.6447 15.5332 20.5806 15.7047C20.5164 15.8765 20.4908 16.0255 20.4908 16.1099V17.8101C20.4907 19.2843 19.2842 20.4898 17.8101 20.4898H16.1109C16.0324 20.4898 15.8829 20.5155 15.7076 20.5806C15.5325 20.6457 15.4024 20.724 15.3414 20.7769L15.3394 20.7779L13.7593 22.1383L13.7574 22.1402C12.7847 22.9715 11.2442 22.9667 10.2671 22.1431L10.2613 22.1383L8.6812 20.7779L8.67924 20.7769C8.61624 20.7223 8.48685 20.6439 8.31499 20.5797C8.14357 20.5157 7.99513 20.4899 7.91069 20.4898H6.18022C4.70617 20.4897 3.5006 19.2843 3.50053 17.8101V16.1002C3.50053 16.0222 3.47514 15.8759 3.41069 15.7017C3.34825 15.533 3.2727 15.4028 3.21831 15.3355L1.8687 13.7457L1.86674 13.7428C1.05223 12.7738 1.05223 11.2459 1.86674 10.2769L1.8687 10.275L3.21831 8.68416C3.27269 8.61685 3.34829 8.48652 3.41069 8.31795C3.47508 8.14388 3.50053 7.99742 3.50053 7.91951V6.20955C3.50073 4.73553 4.70624 3.52996 6.18022 3.52986H7.91069C7.98923 3.5298 8.13787 3.50412 8.31303 3.43904C8.48798 3.37402 8.61805 3.29668 8.67924 3.24373L8.6812 3.24178L10.2613 1.88143L10.2632 1.87947C11.2358 1.04811 12.7763 1.05307 13.7535 1.87654L13.7593 1.88143L15.3394 3.24178L15.3414 3.24275V3.24373C15.4044 3.29834 15.5338 3.37584 15.7056 3.44002C15.8773 3.50415 16.0264 3.52986 16.1109 3.52986H17.8101C19.2842 3.52986 20.4906 4.73547 20.4908 6.20955V7.90975Z" fill="#1C252E"/>
<path d="M11.9922 6.80864C12.2964 6.70325 12.6796 6.66608 13.0566 6.79986L13.0576 6.79888C13.0616 6.80022 13.0653 6.80239 13.0693 6.80376C13.0746 6.80569 13.0807 6.80665 13.0859 6.80864L13.085 6.8106C13.817 7.07047 14.3149 7.86195 14.1699 8.65239L14.1719 8.65337L13.9883 9.84966H15.54C16.0981 9.84966 16.617 10.0829 16.9395 10.5235C17.2607 10.9626 17.3234 11.5236 17.1416 12.0528L17.1426 12.0538L16.0225 15.4737C15.8928 15.9333 15.5931 16.2992 15.2549 16.5459C14.9043 16.8016 14.4594 16.9698 14 16.9698H12.2305C12.0206 16.9698 11.7768 16.9377 11.5479 16.8731C11.3518 16.8177 11.082 16.7138 10.8613 16.5167L9.43164 15.4131L9.89062 14.8204L10.3486 14.2266L11.7988 15.3467L11.8369 15.376L11.8525 15.3917L11.8545 15.3926C11.8742 15.4025 11.9079 15.4164 11.9551 15.4297C12.0535 15.4575 12.1605 15.4698 12.2305 15.4698H14C14.1006 15.4698 14.2417 15.4284 14.3711 15.334C14.4996 15.2403 14.5629 15.1343 14.582 15.0586L14.5889 15.0323L14.5977 15.0069L15.7178 11.587L15.7197 11.5782L15.7227 11.5694C15.7443 11.508 15.7447 11.4677 15.7422 11.4473C15.7397 11.4273 15.7337 11.4163 15.7285 11.4092C15.7232 11.402 15.6816 11.3497 15.54 11.3497H13.6699C12.9402 11.3495 12.3621 10.7269 12.4561 9.95025L12.457 9.93853L12.459 9.92681L12.6885 8.42681L12.6924 8.40435L12.6963 8.38286C12.6964 8.38032 12.6989 8.34997 12.6709 8.30279C12.6411 8.25271 12.6032 8.2285 12.583 8.22173L12.5684 8.21685L12.5547 8.21196C12.564 8.21546 12.5634 8.21259 12.5488 8.21294C12.5336 8.21332 12.5107 8.21716 12.4834 8.22661C12.4561 8.23606 12.433 8.24837 12.417 8.25982C12.4047 8.26866 12.4012 8.2724 12.4043 8.26861L10.4922 11.1094L9.87012 10.6905L9.24805 10.2706L11.168 7.42095L11.1699 7.419C11.3733 7.11941 11.6846 6.91527 11.9922 6.80864Z" fill="#1C252E"/>
<path d="M9.09277 10.1127C9.05293 10.1064 8.99407 10.1 8.91016 10.1H8.44043C8.35626 10.1 8.29638 10.1055 8.25586 10.1117C8.25215 10.1419 8.25001 10.1838 8.25 10.2396V14.8197C8.25 14.8748 8.25223 14.9165 8.25586 14.9467C8.29638 14.9528 8.3561 14.9603 8.44043 14.9603H8.91016C8.99439 14.9603 9.05309 14.952 9.09277 14.9457C9.0965 14.9161 9.09961 14.8748 9.09961 14.8197V10.2396C9.0996 10.1837 9.0966 10.1423 9.09277 10.1127ZM10.5996 14.8197C10.5996 15.2305 10.514 15.7095 10.1367 16.059C9.77364 16.3951 9.3002 16.4603 8.91016 16.4603H8.44043C8.05672 16.4603 7.58009 16.4001 7.21484 16.0648C6.83385 15.7148 6.75 15.2319 6.75 14.8197V10.2396C6.75005 9.82754 6.83412 9.34535 7.21484 8.99548C7.58009 8.66017 8.05672 8.59998 8.44043 8.59998H8.91016C9.29188 8.59999 9.7643 8.66061 10.1289 8.99255C10.5105 9.34002 10.5996 9.82078 10.5996 10.2396V14.8197Z" fill="#1C252E"/>
</svg>
