<svg width="24" height="24" viewBox="0 0 24 24" fill="none" xmlns="http://www.w3.org/2000/svg">
<path d="M18 8.5C18 5.35079 15.3406 2.75 12 2.75C8.65936 2.75 6 5.35079 6 8.5C6 11.6492 8.65936 14.25 12 14.25C15.3406 14.25 18 11.6492 18 8.5ZM19.5 8.5C19.5 12.5305 16.1152 15.75 12 15.75C7.88479 15.75 4.5 12.5305 4.5 8.5C4.5 4.46951 7.88479 1.25 12 1.25C16.1152 1.25 19.5 4.46951 19.5 8.5Z" fill="#1C252E"/>
<path d="M7.52051 12.7697C7.93461 12.7702 8.26991 13.1066 8.26953 13.5206L8.25977 20.9005C8.25983 21.0394 8.28399 21.1302 8.30664 21.1818C8.32813 21.2305 8.34736 21.2434 8.34863 21.2443C8.35008 21.2453 8.35193 21.2461 8.35547 21.2472C8.35916 21.2484 8.36826 21.2508 8.38477 21.2511C8.41834 21.2518 8.48981 21.2441 8.59863 21.1925L11.2783 19.922V19.923C11.5189 19.8062 11.7841 19.7677 12.0049 19.7677C12.2248 19.7677 12.4887 19.8062 12.7285 19.922H12.7295L12.7363 19.9249C12.7392 19.9263 12.7423 19.9274 12.7451 19.9288H12.7441L15.4199 21.1915C15.5238 21.2397 15.5931 21.2479 15.6279 21.2472C15.6597 21.2465 15.6697 21.2392 15.6709 21.2384C15.6735 21.2366 15.6919 21.2229 15.7129 21.1759C15.7351 21.1261 15.7598 21.0371 15.7598 20.8995V13.34C15.7598 12.9258 16.0956 12.59 16.5098 12.59C16.924 12.59 17.2598 12.9258 17.2598 13.34V20.8995C17.2598 21.5184 17.0349 22.1227 16.5166 22.4767C15.9886 22.8373 15.3431 22.8112 14.7822 22.549L14.7793 22.548L12.0898 21.2784C12.088 21.2776 12.0858 21.2764 12.084 21.2755C12.0819 21.275 12.079 21.2743 12.0752 21.2736C12.0581 21.2702 12.0333 21.2677 12.0049 21.2677C11.9764 21.2677 11.9517 21.2701 11.9346 21.2736C11.9214 21.2762 11.9184 21.2777 11.9238 21.2755C11.9228 21.276 11.9219 21.277 11.9209 21.2775L9.24121 22.548C8.67669 22.8157 8.02678 22.8452 7.49609 22.4786C6.97886 22.1211 6.75977 21.5132 6.75977 20.8995V20.8986L6.76953 13.5187C6.77024 13.1047 7.1065 12.7692 7.52051 12.7697Z" fill="#1C252E"/>
</svg>
