<svg width="24" height="24" viewBox="0 0 24 24" fill="none" xmlns="http://www.w3.org/2000/svg">
<path d="M21.25 17.1998C21.2499 14.9632 19.4369 13.15 17.2002 13.15C14.9636 13.1501 13.1505 14.9632 13.1504 17.1998C13.1504 19.4365 14.9635 21.2495 17.2002 21.2496C19.4369 21.2496 21.25 19.4366 21.25 17.1998ZM22.75 17.1998C22.75 20.265 20.2654 22.7496 17.2002 22.7496C14.1351 22.7495 11.6504 20.2649 11.6504 17.1998C11.6505 14.1348 14.1352 11.6501 17.2002 11.65C20.2653 11.65 22.7499 14.1347 22.75 17.1998Z" fill="#1C252E"/>
<path d="M18.9902 16.51C19.4044 16.51 19.7402 16.8458 19.7402 17.26C19.7402 17.6742 19.4044 18.01 18.9902 18.01H15.4102C14.9959 18.01 14.6602 17.6742 14.6602 17.26C14.6602 16.8458 14.9959 16.51 15.4102 16.51H18.9902Z" fill="#1C252E"/>
<path d="M16.4502 19.0999V15.51C16.4502 15.0958 16.786 14.76 17.2002 14.76C17.6144 14.76 17.9502 15.0958 17.9502 15.51V19.0999C17.9502 19.5141 17.6144 19.8499 17.2002 19.8499C16.786 19.8499 16.4502 19.5141 16.4502 19.0999Z" fill="#1C252E"/>
<path d="M21.2539 8.81555C21.2538 7.48305 20.7948 6.2642 19.9873 5.37024C19.1556 4.44945 18.005 3.94055 16.7305 3.94055C15.3574 3.94055 14.1292 4.60012 13.1699 5.96106C12.9724 6.24132 12.8059 6.52315 12.6689 6.78625L12.0039 8.06458L11.3389 6.78723C11.2018 6.52395 11.0355 6.24138 10.8379 5.96106C9.8786 4.60012 8.65045 3.94055 7.27734 3.94055C6.00277 3.94055 4.85222 4.44945 4.02051 5.37024C3.21303 6.2642 2.754 7.48305 2.75391 8.81555C2.75391 11.3457 4.49707 12.995 7.16699 15.4288C8.63181 16.7642 10.3239 18.3066 12.0039 20.3409C12.244 20.0503 12.4839 19.7695 12.7236 19.4982L13.8477 20.4913C13.5765 20.7982 13.3048 21.1173 13.0342 21.4493C12.7832 21.757 12.407 21.9406 12.0039 21.9406C11.6008 21.9406 11.2246 21.757 10.9736 21.4493C9.32875 19.4311 7.66169 17.9096 6.15625 16.5372C3.62227 14.2273 1.25391 12.1283 1.25391 8.81555C1.254 7.14027 1.83214 5.55462 2.90723 4.36438C4.02893 3.12263 5.58698 2.44055 7.27734 2.44055C9.17732 2.44055 10.8115 3.3686 12.0039 5.01575C13.1963 3.3686 14.8305 2.44055 16.7305 2.44055C18.4208 2.44055 19.9789 3.12263 21.1006 4.36438C22.1757 5.55462 22.7538 7.14027 22.7539 8.81555C22.7539 10.8458 21.8705 12.4067 20.6191 13.8341L19.4912 12.8458C20.6106 11.569 21.2539 10.3465 21.2539 8.81555Z" fill="#1C252E"/>
</svg>
