<svg width="24" height="24" viewBox="0 0 24 24" fill="none" xmlns="http://www.w3.org/2000/svg">
<path d="M12.2871 2.05325C12.8061 1.87493 13.4276 1.827 14.0166 2.03957L14.0176 2.0386C14.0196 2.03928 14.0214 2.04084 14.0234 2.04153C14.0301 2.04395 14.0373 2.04489 14.0439 2.04739L14.043 2.04934C15.2518 2.46711 16.0773 3.78665 15.8203 5.06496L15.8213 5.06594L15.3223 8.25539C15.3021 8.39638 15.3435 8.4748 15.3799 8.51614C15.4217 8.56348 15.4904 8.60002 15.5801 8.60012H19.5801C20.5329 8.60012 21.3727 8.98663 21.8838 9.6802C22.3949 10.3738 22.5082 11.282 22.1924 12.1831L22.1934 12.1841L19.793 19.4839C19.583 20.2633 19.0712 20.9084 18.4609 21.355C17.8375 21.8112 17.06 22.1001 16.2803 22.1001H12.4805C12.108 22.1001 11.6633 22.0398 11.249 21.9214C10.8745 21.8144 10.4351 21.6329 10.1064 21.3316L7.02148 18.9429L7.93945 17.7573L11.04 20.1568L11.0771 20.1861L11.1104 20.2193C11.177 20.2859 11.3573 20.3922 11.6611 20.479C11.9468 20.5607 12.2529 20.6001 12.4805 20.6001H16.2803C16.7005 20.6001 17.1736 20.4389 17.5752 20.145C17.9762 19.8516 18.2533 19.4649 18.3525 19.0679L18.3594 19.0415L18.3682 19.0161L20.7676 11.7154L20.7705 11.7066L20.7744 11.6978C20.9504 11.2051 20.8621 10.8214 20.6768 10.5698C20.4879 10.3135 20.1272 10.1001 19.5801 10.1001H15.5801C14.5369 10.0999 13.6715 9.208 13.8379 8.04348L13.8398 8.03371L14.3398 4.8345L14.3428 4.81106L14.3486 4.78762C14.4593 4.2896 14.105 3.64879 13.543 3.46145L13.5303 3.45754L13.5176 3.45266C13.3146 3.37654 13.0475 3.3783 12.7744 3.47219C12.4962 3.56781 12.295 3.72942 12.2041 3.86575L12.2031 3.86868L8.10254 9.96828L7.48047 9.55032L6.8584 9.13137L10.9561 3.03371C11.2652 2.57004 11.7653 2.23262 12.2871 2.05325Z" fill="#1C252E"/>
<path d="M6.62988 8.55038C6.62988 7.93572 6.49516 7.71789 6.39648 7.62656C6.28303 7.52183 6.0224 7.39999 5.37988 7.39999H4.37988C3.73737 7.39999 3.47674 7.52183 3.36328 7.62656C3.2646 7.71789 3.12988 7.93572 3.12988 8.55038V18.3502C3.12991 18.9653 3.26459 19.1828 3.36328 19.274C3.47674 19.3787 3.73737 19.4996 4.37988 19.4996H5.37988C6.0224 19.4996 6.28303 19.3787 6.39648 19.274C6.49518 19.1828 6.62985 18.9653 6.62988 18.3502V8.55038ZM8.12988 18.3502C8.12986 19.1346 7.96528 19.8677 7.41406 20.3766C6.87752 20.8718 6.13737 20.9996 5.37988 20.9996H4.37988C3.6224 20.9996 2.88225 20.8718 2.3457 20.3766C1.79448 19.8677 1.62991 19.1346 1.62988 18.3502V8.55038C1.62988 7.76602 1.79467 7.03288 2.3457 6.52402C2.88225 6.02874 3.6224 5.89999 4.37988 5.89999H5.37988C6.13737 5.89999 6.87752 6.02874 7.41406 6.52402C7.96509 7.03288 8.12988 7.76602 8.12988 8.55038V18.3502Z" fill="#1C252E"/>
</svg>
