<svg width="24" height="24" viewBox="0 0 24 24" fill="none" xmlns="http://www.w3.org/2000/svg">
<path d="M14.0035 3.3125C14.8638 3.31272 15.5341 3.91944 15.9752 4.71191L16.0602 4.87305L17.4713 7.69434L17.4752 7.70117C17.5022 7.7566 17.581 7.86008 17.7203 7.96289C17.8561 8.06309 17.9863 8.11647 18.0641 8.13184L20.6021 8.5498C21.5466 8.70625 22.3886 9.17315 22.6646 10.0352C22.9401 10.8956 22.5293 11.7663 21.8531 12.4482L19.8609 14.4404C19.8086 14.4928 19.7311 14.6136 19.6812 14.7881C19.644 14.9186 19.6356 15.034 19.6412 15.1172L19.651 15.1895L20.2213 17.6504C20.4617 18.6867 20.3977 19.7883 19.5934 20.376C18.7886 20.9639 17.7198 20.6894 16.8062 20.1445L14.4176 18.7246L14.4127 18.7217C14.344 18.6801 14.1998 18.6348 14.0103 18.6348C13.8213 18.6348 13.6778 18.6802 13.609 18.7217L13.6041 18.7246L11.2135 20.1445L11.2115 20.1455C10.2988 20.6845 9.23257 20.9573 8.42929 20.373C7.62333 19.7867 7.5591 18.6864 7.79941 17.6504L8.36972 15.1904L8.3707 15.1855C8.38776 15.1142 8.38976 14.972 8.33945 14.7959C8.28943 14.6209 8.21057 14.493 8.15195 14.4326L6.1705 12.4502C5.49265 11.7723 5.0806 10.904 5.35605 10.043C5.63134 9.18323 6.47008 8.71287 7.41367 8.55078L7.41855 8.5498L9.96835 8.12988H9.97031C10.0351 8.11926 10.1595 8.07042 10.2975 7.96777C10.4357 7.86492 10.5181 7.75938 10.5465 7.70117L10.5494 7.69434L11.9596 4.875C12.3876 4.00455 13.0839 3.3125 14.0035 3.3125ZM14.0035 4.8125C13.9249 4.8125 13.6264 4.88297 13.3043 5.54004L11.8941 8.35742L11.8951 8.3584C11.7335 8.69019 11.4647 8.96973 11.193 9.17188C10.9213 9.37389 10.5765 9.54983 10.2115 9.60938L7.66269 10.0303C6.98036 10.1486 6.81439 10.4075 6.78476 10.5C6.75552 10.5914 6.73913 10.8977 7.23105 11.3896L9.2291 13.3877C9.50031 13.6672 9.68187 14.034 9.78183 14.3838C9.88101 14.7309 9.92176 15.1414 9.83066 15.5283L9.26132 17.9893C9.05163 18.8933 9.28307 19.139 9.3121 19.1602C9.34165 19.181 9.58195 19.2902 10.1725 19.0039L10.4488 18.8545L12.8375 17.4355C13.1978 17.2193 13.6266 17.1348 14.0103 17.1348C14.3959 17.1348 14.8277 17.22 15.1891 17.4385L17.5738 18.8555C18.3702 19.3305 18.6784 19.1861 18.7086 19.1641C18.7409 19.1396 18.9689 18.8885 18.7603 17.9893L18.19 15.5312L18.1617 15.3838C18.1096 15.0387 18.1521 14.684 18.2398 14.377C18.3399 14.0266 18.5228 13.6575 18.8004 13.3799L20.7877 11.3916C21.2815 10.8936 21.2654 10.5842 21.2359 10.4922C21.2067 10.4014 21.0426 10.1437 20.358 10.0303L17.8082 9.61035C17.8033 9.60954 17.7984 9.60833 17.7935 9.60742C17.441 9.54183 17.1026 9.37052 16.8307 9.16992C16.5617 8.97148 16.2928 8.69614 16.1295 8.36426L14.7203 5.54688C14.3888 4.88839 14.0862 4.81278 14.0035 4.8125Z" fill="#1C252E"/>
<path d="M8 4.25C8.41421 4.25 8.75 4.58579 8.75 5C8.75 5.41421 8.41421 5.75 8 5.75H2C1.58579 5.75 1.25 5.41421 1.25 5C1.25 4.58579 1.58579 4.25 2 4.25H8Z" fill="#1C252E"/>
<path d="M5 18.25C5.41421 18.25 5.75 18.5858 5.75 19C5.75 19.4142 5.41421 19.75 5 19.75H2C1.58579 19.75 1.25 19.4142 1.25 19C1.25 18.5858 1.58579 18.25 2 18.25H5Z" fill="#1C252E"/>
<path d="M3 11.25C3.41421 11.25 3.75 11.5858 3.75 12C3.75 12.4142 3.41421 12.75 3 12.75H2C1.58579 12.75 1.25 12.4142 1.25 12C1.25 11.5858 1.58579 11.25 2 11.25H3Z" fill="#1C252E"/>
</svg>
