<svg width="24" height="24" viewBox="0 0 24 24" fill="none" xmlns="http://www.w3.org/2000/svg">
<path d="M21.25 12C21.25 6.89137 17.1086 2.75 12 2.75C6.89137 2.75 2.75 6.89137 2.75 12C2.75 17.1086 6.89137 21.25 12 21.25C17.1086 21.25 21.25 17.1086 21.25 12ZM22.75 12C22.75 17.9371 17.9371 22.75 12 22.75C6.06294 22.75 1.25 17.9371 1.25 12C1.25 6.06294 6.06294 1.25 12 1.25C17.9371 1.25 22.75 6.06294 22.75 12Z" fill="#1C252E"/>
<path d="M16.75 11.1438C16.7499 10.488 16.5245 9.89987 16.1406 9.47485C15.7484 9.04068 15.207 8.80005 14.5996 8.80005C13.97 8.80005 13.3911 9.09533 12.917 9.76782C12.8183 9.90784 12.7346 10.0503 12.665 10.1838L12 11.4612L11.335 10.1838C11.2654 10.0502 11.1817 9.90781 11.083 9.76782C10.6089 9.09533 10.03 8.80005 9.40039 8.80005C8.79296 8.80005 8.25156 9.04068 7.85938 9.47485C7.47548 9.89987 7.25005 10.488 7.25 11.1438C7.25 12.3592 8.06752 13.1652 9.56641 14.5315C10.2973 15.1978 11.1457 15.97 12 16.9592C12.8543 15.9699 13.7026 15.1978 14.4336 14.5315C15.9325 13.1651 16.75 12.3592 16.75 11.1438ZM18.25 11.1438C18.25 13.142 16.8065 14.3973 15.4434 15.6399C14.6148 16.3951 13.7152 17.2165 12.8281 18.3049C12.6273 18.5514 12.3252 18.7004 12 18.7004C11.675 18.7004 11.3727 18.552 11.1719 18.3059V18.3049C10.2848 17.2165 9.38514 16.3952 8.55664 15.6399C7.19345 14.3972 5.75 13.142 5.75 11.1438C5.75005 10.1454 6.09476 9.19123 6.74609 8.46997C7.42829 7.71468 8.37706 7.30005 9.40039 7.30005C10.4258 7.30005 11.3172 7.74311 12 8.51392C12.6828 7.74311 13.5742 7.30005 14.5996 7.30005C15.6229 7.30005 16.5717 7.71468 17.2539 8.46997C17.9052 9.19123 18.2499 10.1454 18.25 11.1438Z" fill="#1C252E"/>
</svg>
