<svg width="24" height="24" viewBox="0 0 24 24" fill="none" xmlns="http://www.w3.org/2000/svg">
<path d="M20.25 7.625C20.2499 6.28194 19.8101 5.05786 19.0439 4.16504C18.2566 3.2476 17.1768 2.75 15.9902 2.75C14.7171 2.75 13.5613 3.39256 12.6484 4.75586C12.4607 5.03625 12.3023 5.31838 12.1719 5.58203L11.5 6.94141L10.8281 5.58203C10.6977 5.31831 10.5393 5.03619 10.3516 4.75586C9.43866 3.39256 8.28292 2.75 7.00977 2.75C5.82316 2.75 4.74336 3.2476 3.95605 4.16504C3.18993 5.05786 2.75009 6.28194 2.75 7.625C2.75 10.1709 4.41439 11.8243 6.94434 14.252C8.32453 15.5764 9.91565 17.1063 11.499 19.1162C11.7319 18.8206 11.9638 18.5344 12.1963 18.2588L13.3428 19.2266C13.0685 19.5516 12.7933 19.8896 12.5195 20.2432C12.2799 20.5527 11.9097 20.75 11.5 20.75C11.0904 20.75 10.7201 20.5534 10.4805 20.2441C8.91833 18.2266 7.33524 16.7061 5.90527 15.334C3.49146 13.0178 1.25 10.9221 1.25 7.625C1.25009 5.96033 1.79514 4.37984 2.81738 3.18848C3.88583 1.94329 5.37962 1.25 7.00977 1.25C8.82355 1.25 10.3717 2.17214 11.5 3.78125C12.6283 2.17215 14.1764 1.25 15.9902 1.25C17.6204 1.25 19.1142 1.94329 20.1826 3.18848C21.2049 4.37984 21.7499 5.96033 21.75 7.625C21.75 9.1898 21.2474 10.4846 20.4551 11.6621L19.2109 10.8242C19.872 9.8418 20.25 8.83398 20.25 7.625Z" fill="#1C252E"/>
<path d="M21.25 14.4375C21.2499 13.6861 20.9963 13.0107 20.5635 12.5225H20.5625C20.12 12.0236 19.5126 11.75 18.8359 11.75C18.1298 11.75 17.4789 12.0887 16.9482 12.8555C16.8382 13.0145 16.7453 13.1758 16.668 13.3271L16 14.6338L15.332 13.3271C15.2546 13.1758 15.1618 13.0144 15.0518 12.8555C14.5211 12.0887 13.8702 11.75 13.1641 11.75C12.4874 11.75 11.88 12.0236 11.4375 12.5225C11.0045 13.0107 10.7501 13.686 10.75 14.4375C10.75 15.8372 11.6793 16.7585 13.3047 18.2676C14.1159 19.0208 15.0555 19.8934 16 21.0156C16.9445 19.8934 17.8841 19.0208 18.6953 18.2676C20.3207 16.7585 21.25 15.8372 21.25 14.4375ZM22.75 14.4375C22.75 16.6085 21.2128 17.9774 19.7158 19.3672C18.8122 20.2062 17.8273 21.1225 16.8555 22.3369C16.651 22.5924 16.3392 22.75 16 22.75C15.6609 22.75 15.3499 22.5922 15.1455 22.3369H15.1445C14.1727 21.1225 13.1878 20.2062 12.2842 19.3672C10.7872 17.9773 9.25 16.6085 9.25 14.4375C9.25006 13.351 9.61803 12.3128 10.3145 11.5273C11.044 10.7047 12.0618 10.25 13.1641 10.25C14.2891 10.25 15.2624 10.7543 16 11.6289C16.7376 10.7543 17.7109 10.25 18.8359 10.25C19.9382 10.25 20.956 10.7047 21.6855 11.5273C22.382 12.3128 22.7499 13.351 22.75 14.4375Z" fill="#1C252E"/>
</svg>
