<svg width="24" height="24" viewBox="0 0 24 24" fill="none" xmlns="http://www.w3.org/2000/svg">
<path d="M12.0004 6.28748C12.8879 6.28749 13.5605 6.94873 13.9711 7.77478L15.2914 10.4144C15.3146 10.4608 15.3875 10.5561 15.5141 10.6498C15.5777 10.6969 15.636 10.7303 15.684 10.7523L15.7914 10.7885L15.8041 10.7904L18.1937 11.1898L18.1957 11.1908C19.087 11.3423 19.8975 11.7853 20.1654 12.6146C20.434 13.4464 20.0326 14.2786 19.391 14.9203L17.5307 16.7806C17.4877 16.8237 17.4185 16.9305 17.3725 17.0892C17.327 17.2463 17.3268 17.3757 17.3412 17.4418L17.8715 19.7513L17.9418 20.1195C18.0717 20.9833 17.9447 21.8559 17.2641 22.3539C16.4866 22.9225 15.4614 22.6547 14.599 22.1459L14.5971 22.1449L12.3578 20.8148C12.2924 20.7781 12.1647 20.7396 12.0004 20.7396C11.8355 20.7396 11.7082 20.778 11.643 20.8148L9.4037 22.1449L9.40175 22.1459C8.5394 22.6547 7.51413 22.9224 6.73671 22.3539C5.95888 21.7848 5.90427 20.7265 6.12929 19.7513L6.65956 17.4418V17.4398C6.67268 17.3832 6.67485 17.2579 6.62831 17.097C6.59364 16.9773 6.54543 16.8829 6.50234 16.8217L6.46132 16.7719L4.60976 14.9203C3.96699 14.2775 3.56766 13.4433 3.83534 12.6117C4.10301 11.7807 4.91295 11.3364 5.80702 11.1898L8.18984 10.7914C8.2466 10.7814 8.36261 10.7371 8.48964 10.6439C8.61727 10.5502 8.68768 10.4578 8.70937 10.4144L10.0297 7.77478C10.4403 6.94873 11.1128 6.28748 12.0004 6.28748ZM12.0004 7.78748C11.9436 7.78748 11.6719 7.8406 11.3725 8.44373L10.0512 11.0853C9.89287 11.4019 9.63349 11.6652 9.37636 11.8539C9.11845 12.0431 8.79269 12.2089 8.4496 12.2689L6.05409 12.6693L6.05116 12.6703C5.41628 12.7741 5.28267 13.0108 5.26308 13.0717C5.24352 13.1332 5.21442 13.4038 5.6703 13.8597L7.53066 15.7201L7.53944 15.7279C7.79971 15.9966 7.97343 16.3474 8.06972 16.6801C8.16539 17.0107 8.20646 17.4042 8.1205 17.7767L7.5912 20.0873C7.40002 20.9157 7.60892 21.1317 7.62148 21.1429C7.62653 21.1466 7.89153 21.295 8.63905 20.8539L10.8773 19.5248L10.8812 19.5228C11.2273 19.3203 11.6336 19.2396 12.0004 19.2396C12.3213 19.2396 12.6722 19.3015 12.9867 19.4525L13.1195 19.5228L13.1234 19.5248L15.3617 20.8539L15.6195 20.9935C16.1682 21.2593 16.3719 21.1473 16.3783 21.1429C16.383 21.1395 16.6045 20.9331 16.4096 20.0883L15.8793 17.7777V17.7758C15.7943 17.4014 15.8346 17.0068 15.931 16.6732C16.0274 16.3401 16.2032 15.987 16.4701 15.7201L18.3305 13.8597C18.7885 13.4016 18.7565 13.1337 18.7377 13.0756C18.7181 13.0149 18.5834 12.7778 17.9447 12.6693L15.557 12.2699C15.2049 12.2143 14.8761 12.0434 14.6215 11.8549C14.3632 11.6636 14.1064 11.3989 13.9496 11.0853L12.6283 8.44373C12.3289 7.84071 12.0573 7.7875 12.0004 7.78748Z" fill="#1C252E"/>
<path d="M5.25 9V2C5.25 1.58579 5.58579 1.25 6 1.25C6.41421 1.25 6.75 1.58579 6.75 2V9C6.75 9.41421 6.41421 9.75 6 9.75C5.58579 9.75 5.25 9.41421 5.25 9Z" fill="#1C252E"/>
<path d="M17.25 9V2C17.25 1.58579 17.5858 1.25 18 1.25C18.4142 1.25 18.75 1.58579 18.75 2V9C18.75 9.41421 18.4142 9.75 18 9.75C17.5858 9.75 17.25 9.41421 17.25 9Z" fill="#1C252E"/>
<path d="M11.25 4V2C11.25 1.58579 11.5858 1.25 12 1.25C12.4142 1.25 12.75 1.58579 12.75 2V4C12.75 4.41421 12.4142 4.75 12 4.75C11.5858 4.75 11.25 4.41421 11.25 4Z" fill="#1C252E"/>
</svg>
