<svg width="24" height="24" viewBox="0 0 24 24" fill="none" xmlns="http://www.w3.org/2000/svg">
<path d="M11.991 1.32751C12.9705 1.32754 13.7615 2.01525 14.2967 2.97693L14.4002 3.17322L16.1668 6.70642L16.2098 6.77869C16.2672 6.86003 16.3672 6.96809 16.5174 7.09216C16.8366 7.356 16.8817 7.82855 16.618 8.14783C16.3542 8.46702 15.8816 8.51198 15.5623 8.24841C15.3026 8.03392 14.9934 7.73028 14.8133 7.35388L13.0594 3.84607C12.6337 2.99957 12.2036 2.82754 11.991 2.82751C11.7797 2.82751 11.3522 2.9981 10.9314 3.84412L10.9305 3.84509L9.17266 7.35876L9.17363 7.35974C8.98653 7.74174 8.67247 8.06812 8.35039 8.30701C8.02818 8.54592 7.62763 8.74967 7.21562 8.8197H7.21269L4.02226 9.349C3.13326 9.4973 2.84427 9.84832 2.77715 10.058C2.70997 10.2684 2.74284 10.7228 3.37969 11.3597L5.86016 13.8392C6.18247 14.1615 6.39845 14.5929 6.51738 15.0082C6.6364 15.4239 6.6808 15.9026 6.58183 16.3441L6.58086 16.349L6.01055 18.8187C5.91739 19.2222 5.51467 19.4743 5.11113 19.3812C4.70769 19.2881 4.4558 18.8853 4.54863 18.4818L5.11894 16.0111C5.14877 15.8725 5.14268 15.6577 5.075 15.4213C5.00649 15.182 4.89712 14.9984 4.79961 14.9008L2.31914 12.4203C1.49627 11.5974 1.03475 10.5814 1.34746 9.60193C1.6605 8.62161 2.62704 8.06217 3.77715 7.87048L6.96367 7.34021C7.08154 7.3202 7.26667 7.24388 7.45683 7.10291C7.64687 6.962 7.77302 6.80839 7.82598 6.70056L9.58867 3.17419C10.1179 2.11105 10.9454 1.32751 11.991 1.32751Z" fill="#1C252E"/>
<path d="M19.3595 8.48695C19.4276 8.07845 19.8143 7.80181 20.2228 7.86976C21.3721 8.06131 22.3405 8.62058 22.6554 9.60023C22.9706 10.581 22.5066 11.5967 21.6788 12.4196L21.6798 12.4205L19.2003 14.9C19.1027 14.9976 18.9935 15.1819 18.9249 15.4215C18.8564 15.6608 18.8509 15.8778 18.882 16.0162H18.881L19.59 19.0807L19.5909 19.0817C19.8855 20.3598 19.7876 21.6303 18.8781 22.2936C18.0264 22.9144 16.8826 22.6966 15.8116 22.1168L15.5978 21.9957L12.6075 20.2252C12.4815 20.1505 12.2643 20.0905 12.0031 20.0905C11.7426 20.0905 11.5208 20.1502 11.3868 20.2282L8.40149 21.9957C8.0451 22.2065 7.58509 22.0884 7.37415 21.7321C7.16318 21.3756 7.28139 20.9157 7.63782 20.7047L10.6281 18.9342L10.6329 18.9313C11.0487 18.6896 11.5464 18.5905 12.0031 18.5905C12.459 18.5905 12.9574 18.6893 13.3712 18.9342L16.3615 20.7047L16.546 20.8092C17.4391 21.291 17.8687 21.1732 17.9943 21.0817C18.1187 20.991 18.3618 20.6206 18.173 19.6256L18.129 19.4186L17.4191 16.3493L17.4181 16.3444C17.3191 15.9028 17.3635 15.4242 17.4825 15.0084C17.6015 14.5931 17.8174 14.1618 18.1398 13.8395L20.6212 11.358C21.2624 10.7212 21.2937 10.2678 21.2267 10.0592C21.1589 9.84891 20.8666 9.49863 19.9767 9.35023C19.5682 9.28215 19.2916 8.89541 19.3595 8.48695Z" fill="#1C252E"/>
<path d="M21.4697 1.46973C21.7626 1.17684 22.2373 1.17684 22.5302 1.46973C22.8231 1.76262 22.8231 2.23738 22.5302 2.53028L2.53022 22.5303C2.23732 22.8232 1.76256 22.8232 1.46967 22.5303C1.17678 22.2374 1.17678 21.7626 1.46967 21.4697L21.4697 1.46973Z" fill="#1C252E"/>
</svg>
