<svg width="24" height="24" viewBox="0 0 24 24" fill="none" xmlns="http://www.w3.org/2000/svg">
<path d="M13.9008 1.98251C14.8304 1.31062 15.8972 1.00722 16.8012 1.48251C17.6477 1.92754 18.0153 2.87843 18.0395 3.94051V4.15438L17.9692 7.94344V7.94442C17.9671 8.05563 18.0064 8.24002 18.104 8.44149C18.1774 8.59319 18.2626 8.71002 18.3364 8.78524L18.4047 8.84676L18.4126 8.85262L20.893 10.7325H20.892C21.7915 11.4117 22.3762 12.3281 22.2026 13.3194C22.0293 14.3092 21.1693 14.9763 20.0952 15.3155H20.0932L16.8637 16.3263L16.8628 16.3253C16.7432 16.3635 16.5708 16.4704 16.4067 16.6417C16.2413 16.8144 16.1462 16.9894 16.1167 17.1056L16.1157 17.1104L15.3452 20.0499V20.0509C15.0236 21.2737 14.3679 22.3271 13.2807 22.4913C12.192 22.6554 11.2557 21.8396 10.5913 20.7638L8.8315 17.9141L8.83052 17.9132C8.75885 17.7968 8.6058 17.6524 8.38814 17.5391C8.225 17.4543 8.06769 17.4083 7.94185 17.3936L7.8276 17.3888L4.48775 17.5587C3.2265 17.622 2.02523 17.3152 1.54049 16.3282C1.05565 15.3408 1.54741 14.2026 2.37056 13.2423L2.37154 13.2403L4.35103 10.9405C4.43282 10.8454 4.52483 10.6643 4.57369 10.4317C4.62256 10.1988 4.61083 9.99974 4.57467 9.88485L4.57369 9.88387L3.56392 6.6534V6.65243C3.23017 5.57764 3.28805 4.49221 4.0024 3.78622C4.7177 3.0794 5.80348 3.03677 6.87349 3.38778H6.87447L9.81783 4.35555C9.93071 4.39167 10.122 4.4086 10.3413 4.37508C10.5615 4.3414 10.7287 4.26978 10.8139 4.20712L10.8208 4.20126L13.9008 1.98153V1.98251ZM16.103 2.81063C15.9578 2.73432 15.6123 2.68376 15.0385 3.02645L14.7788 3.19833L11.7045 5.41219L11.7055 5.41317C11.3705 5.66041 10.9521 5.79875 10.5678 5.85751C10.1823 5.91643 9.74781 5.90811 9.3608 5.78426L9.35592 5.78231L6.40572 4.81258C5.58601 4.54375 5.19678 4.71556 5.05709 4.8536C4.91654 4.9925 4.73914 5.38214 4.99459 6.20614H4.99556L6.00435 9.43465C6.13813 9.85961 6.12743 10.331 6.04146 10.7403C5.95535 11.1502 5.77594 11.5841 5.48775 11.919L3.50826 14.2198L3.50728 14.2188C2.77164 15.0776 2.82453 15.5395 2.88717 15.6671C2.95027 15.7951 3.28405 16.1171 4.41158 16.0606L7.75142 15.8907H7.7524C8.21622 15.8676 8.68845 16.0041 9.08052 16.2081C9.47246 16.4121 9.85948 16.7229 10.1079 17.1261L11.8676 19.9757C12.4632 20.9399 12.9183 21.0298 13.0571 21.0089C13.1974 20.9875 13.6058 20.7651 13.894 19.669L14.6645 16.7296C14.7757 16.2979 15.0344 15.9046 15.3227 15.6036C15.6127 15.3009 15.9941 15.027 16.4145 14.8946H16.4155L19.646 13.8839C20.4701 13.6231 20.6909 13.2557 20.7251 13.0606C20.7589 12.8673 20.6776 12.4494 19.9878 11.9288L19.9868 11.9278L17.5063 10.0479V10.047C17.1752 9.79976 16.9216 9.44317 16.7534 9.09579C16.5835 8.74496 16.4624 8.3247 16.4702 7.9161L16.5395 4.12606V4.12508C16.557 3.22234 16.2699 2.89837 16.103 2.81063Z" fill="#1C252E"/>
<path d="M18.3496 18.4398C18.6424 18.1469 19.1172 18.1469 19.4101 18.4398L22.4404 21.47C22.733 21.7629 22.7332 22.2378 22.4404 22.5306C22.1476 22.8234 21.6727 22.8232 21.3798 22.5306L18.3496 19.5003C18.0567 19.2074 18.0567 18.7327 18.3496 18.4398Z" fill="#1C252E"/>
</svg>
