<svg width="24" height="24" viewBox="0 0 24 24" fill="none" xmlns="http://www.w3.org/2000/svg">
<path d="M21.2549 8.74805C21.2548 7.41554 20.7958 6.1967 19.9883 5.30273C19.1566 4.38195 18.006 3.87305 16.7314 3.87305C15.3583 3.87305 14.1302 4.53262 13.1709 5.89355C12.9734 6.17382 12.8069 6.45565 12.6699 6.71875L12.0049 7.99707L11.3398 6.71973C11.2028 6.45645 11.0364 6.17387 10.8389 5.89355C9.87958 4.53262 8.65143 3.87305 7.27832 3.87305C6.00374 3.87305 4.85319 4.38195 4.02148 5.30273C3.21401 6.1967 2.75497 7.41554 2.75488 8.74805C2.75488 11.2782 4.49805 12.9275 7.16797 15.3613C8.63278 16.6966 10.3249 18.2391 12.0049 20.2734C12.1499 20.0978 12.2944 19.9252 12.4395 19.7568C12.7097 19.4431 13.1832 19.4077 13.4971 19.6777C13.8109 19.9479 13.8462 20.4215 13.5762 20.7354C13.3957 20.9449 13.2152 21.1609 13.0352 21.3818C12.7842 21.6895 12.4079 21.873 12.0049 21.873C11.6018 21.873 11.2255 21.6895 10.9746 21.3818C9.32972 19.3636 7.66267 17.8421 6.15723 16.4697C3.62324 14.1598 1.25488 12.0608 1.25488 8.74805C1.25498 7.07277 1.83311 5.48711 2.9082 4.29688C4.02991 3.05512 5.58796 2.37305 7.27832 2.37305C9.17829 2.37305 10.8125 3.30109 12.0049 4.94824C13.1973 3.30109 14.8315 2.37305 16.7314 2.37305C18.4218 2.37305 19.9799 3.05512 21.1016 4.29688C22.1767 5.48711 22.7548 7.07277 22.7549 8.74805C22.7549 10.126 22.3472 11.2973 21.6807 12.3623C21.4609 12.7134 20.9976 12.8203 20.6465 12.6006C20.2954 12.3808 20.1894 11.9175 20.4092 11.5664C20.9501 10.7021 21.2549 9.80297 21.2549 8.74805Z" fill="#1C252E"/>
<path d="M20.1336 14.4268C20.7966 14.3588 21.4067 14.656 21.95 15.1992C22.4966 15.7458 22.798 16.3577 22.7323 17.0225C22.6704 17.6476 22.2977 18.1328 21.95 18.4805L18.41 22.0205L18.409 22.0195C18.2639 22.169 18.0887 22.2798 17.9432 22.3525C17.7874 22.4305 17.5976 22.5011 17.4071 22.5313L17.3944 22.5332V22.5322L16.0448 22.7217L16.0457 22.7227C15.604 22.7857 15.1482 22.6689 14.8192 22.3398C14.4904 22.0108 14.3744 21.5558 14.4373 21.1143L14.6268 19.7656L14.6287 19.7529C14.6593 19.5593 14.7318 19.3711 14.8094 19.2178C14.887 19.0645 14.9972 18.8923 15.1395 18.75L18.6795 15.21C19.0272 14.8623 19.5115 14.4907 20.1336 14.4268ZM20.2869 15.919C20.1791 15.93 20.0024 16.0082 19.7401 16.2705L16.2 19.8106C16.1978 19.8132 16.1932 19.8193 16.1864 19.8291C16.1746 19.8462 16.1612 19.8691 16.1483 19.8945C16.1353 19.9202 16.1249 19.945 16.118 19.9648C16.1139 19.9765 16.112 19.984 16.1112 19.9873L16.1102 19.9863L15.9364 21.2227L17.1737 21.0479C17.1775 21.0469 17.1866 21.0456 17.2 21.041C17.2214 21.0337 17.2468 21.0235 17.2723 21.0107C17.2979 20.9979 17.3183 20.985 17.3319 20.9756C17.3388 20.9708 17.3417 20.9678 17.3416 20.9678L20.8895 17.4199C21.1518 17.1576 21.2294 16.9824 21.2401 16.875C21.2468 16.8073 21.2427 16.614 20.8895 16.2607C20.5436 15.9149 20.3541 15.9121 20.2869 15.919Z" fill="#1C252E"/>
<path d="M18.4992 15.5274C18.8982 15.4165 19.312 15.65 19.4231 16.0489C19.6527 16.8754 20.2947 17.5175 21.1213 17.7471C21.5204 17.858 21.7536 18.2719 21.6428 18.6709C21.5318 19.0698 21.1189 19.3031 20.7199 19.1924C19.3866 18.822 18.3483 17.7845 17.9777 16.4512C17.8669 16.0522 18.1004 15.6384 18.4992 15.5274Z" fill="#1C252E"/>
</svg>
