<svg width="24" height="24" viewBox="0 0 24 24" fill="none" xmlns="http://www.w3.org/2000/svg">
<path d="M20.25 4.97974C20.2499 3.7606 19.2523 2.76001 18 2.76001H6C4.74773 2.76001 3.75013 3.7606 3.75 4.97974V15.8899C3.75 17.1091 4.74764 18.1096 6 18.1096H6.75C7.73202 18.1096 8.69323 18.4939 9.39746 19.1965L11.1064 20.886C11.5944 21.3676 12.3949 21.3676 12.8828 20.886L14.5928 19.1965C15.296 18.4949 16.247 18.1096 17.2402 18.1096H18C19.2507 18.1096 20.25 17.1008 20.25 15.8899V4.97974ZM21.75 15.8899C21.75 17.939 20.0693 19.6096 18 19.6096H17.2402C16.6351 19.6096 16.0668 19.8437 15.6504 20.26L15.6475 20.2629L13.9375 21.9534H13.9365C12.8644 23.0117 11.1248 23.0117 10.0527 21.9534L8.34277 20.2629L8.33984 20.26C7.92435 19.8445 7.34656 19.6096 6.75 19.6096H6C3.93236 19.6096 2.25 17.9506 2.25 15.8899V4.97974C2.25013 2.91909 3.93244 1.26001 6 1.26001H18C20.0676 1.26001 21.7499 2.91909 21.75 4.97974V15.8899Z" fill="#1C252E"/>
<path d="M9.62988 9.1604C9.62988 8.64472 9.20599 8.2202 8.69043 8.21997C8.17468 8.21997 7.75 8.64458 7.75 9.1604C7.7498 9.57445 7.41409 9.9104 7 9.9104C6.58591 9.9104 6.2502 9.57445 6.25 9.1604C6.25 7.81622 7.34618 6.71997 8.69043 6.71997C10.0345 6.7202 11.1299 7.81636 11.1299 9.1604C11.1297 10.5362 10.1066 11.2593 9.39551 11.7473C8.6914 12.2306 8.19282 12.5581 7.93945 13.0198H10.3799C10.794 13.0198 11.1298 13.3557 11.1299 13.7698C11.1299 14.184 10.7941 14.5198 10.3799 14.5198H7.7002C6.88271 14.5198 6.10517 13.7285 6.40625 12.7991L6.40723 12.7952C6.79899 11.6066 7.88682 10.963 8.54688 10.51C9.31792 9.98079 9.62973 9.66411 9.62988 9.1604Z" fill="#1C252E"/>
<path d="M15.2899 13.7599V13.0694H13.3299C12.8419 13.0694 12.3795 12.8155 12.1307 12.3858C11.8861 11.9634 11.8861 11.4264 12.1307 11.004L12.1326 11.0011C12.8129 9.84069 13.5968 8.5134 14.3221 7.34482L14.327 7.33701C14.6281 6.86412 15.1847 6.63917 15.7157 6.74228L15.8221 6.76767L15.9285 6.80283C16.4511 6.99789 16.7898 7.49971 16.7899 8.0499V11.5694H16.9998C17.4138 11.5696 17.7496 11.9055 17.7498 12.3194C17.7498 12.7336 17.4139 13.0693 16.9998 13.0694H16.7899V13.7599C16.7899 14.174 16.454 14.5097 16.0399 14.5099C15.6257 14.5099 15.2899 14.1741 15.2899 13.7599ZM15.2899 8.63583C14.7042 9.59281 14.0931 10.625 13.5389 11.5694H15.2899V8.63583Z" fill="#1C252E"/>
</svg>
