<svg width="24" height="24" viewBox="0 0 24 24" fill="none" xmlns="http://www.w3.org/2000/svg">
<path d="M21.2539 8.74805C21.2538 7.41554 20.7948 6.1967 19.9873 5.30273C19.1556 4.38195 18.005 3.87305 16.7305 3.87305C15.3574 3.87305 14.1292 4.53262 13.1699 5.89355C12.9724 6.17382 12.8059 6.45565 12.6689 6.71875L12.0039 7.99707L11.3389 6.71973C11.2018 6.45645 11.0355 6.17387 10.8379 5.89355C9.8786 4.53262 8.65045 3.87305 7.27734 3.87305C6.00277 3.87305 4.85222 4.38195 4.02051 5.30273C3.21303 6.1967 2.754 7.41554 2.75391 8.74805C2.75391 11.2782 4.49707 12.9275 7.16699 15.3613C8.63181 16.6966 10.3239 18.2391 12.0039 20.2734C12.1489 20.0978 12.2935 19.9252 12.4385 19.7568C12.7087 19.4431 13.1822 19.4077 13.4961 19.6777C13.8099 19.9479 13.8452 20.4215 13.5752 20.7354C13.3948 20.9449 13.2143 21.1609 13.0342 21.3818C12.7832 21.6895 12.407 21.873 12.0039 21.873C11.6008 21.873 11.2246 21.6895 10.9736 21.3818C9.32875 19.3636 7.66169 17.8421 6.15625 16.4697C3.62227 14.1598 1.25391 12.0608 1.25391 8.74805C1.254 7.07277 1.83214 5.48711 2.90723 4.29688C4.02893 3.05512 5.58698 2.37305 7.27734 2.37305C9.17732 2.37305 10.8115 3.30109 12.0039 4.94824C13.1963 3.30109 14.8305 2.37305 16.7305 2.37305C18.4208 2.37305 19.9789 3.05512 21.1006 4.29688C22.1757 5.48711 22.7538 7.07277 22.7539 8.74805C22.7539 10.126 22.3462 11.2973 21.6797 12.3623C21.4599 12.7134 20.9966 12.8203 20.6455 12.6006C20.2945 12.3808 20.1885 11.9175 20.4082 11.5664C20.9491 10.7021 21.2539 9.80297 21.2539 8.74805Z" fill="#1C252E"/>
<path d="M20.1904 17.8002C20.1904 16.4471 19.0932 15.3501 17.7402 15.35C16.3871 15.35 15.29 16.4471 15.29 17.8002C15.2901 19.1532 16.3872 20.2504 17.7402 20.2504C19.0932 20.2503 20.1903 19.1531 20.1904 17.8002ZM21.6904 17.8002C21.6903 19.9815 19.9216 21.7503 17.7402 21.7504C15.5588 21.7504 13.7901 19.9816 13.79 17.8002C13.79 15.6187 15.5587 13.85 17.7402 13.85C19.9217 13.8501 21.6904 15.6187 21.6904 17.8002Z" fill="#1C252E"/>
<path d="M20.0097 20.0697C20.3026 19.7768 20.7774 19.7768 21.0703 20.0697L22.0703 21.0697C22.3631 21.3626 22.3631 21.8374 22.0703 22.1303C21.7774 22.4231 21.3026 22.4231 21.0097 22.1303L20.0097 21.1303C19.7168 20.8374 19.7168 20.3626 20.0097 20.0697Z" fill="#1C252E"/>
</svg>
