<svg width="24" height="24" viewBox="0 0 24 24" fill="none" xmlns="http://www.w3.org/2000/svg">
<path d="M21.251 8.71539C21.2509 8.291 21.2039 7.87784 21.1143 7.48297C21.0225 7.07912 21.2759 6.67735 21.6797 6.58551C22.0835 6.4938 22.4852 6.7463 22.5771 7.14996C22.692 7.65577 22.7509 8.18103 22.751 8.71539C22.751 12.0282 20.3827 14.1271 17.8486 16.4371C16.3431 17.8095 14.6762 19.3309 13.0312 21.3492L13.0303 21.3482C12.7793 21.656 12.4041 21.8404 12.001 21.8404C11.5979 21.8404 11.2216 21.6568 10.9707 21.3492C10.2914 20.5157 9.60716 19.7658 8.93262 19.0767C8.64285 18.7807 8.64835 18.3059 8.94434 18.0162C9.24033 17.7265 9.71515 17.731 10.0049 18.0269C10.6622 18.6983 11.331 19.4307 12 20.2408C13.6803 18.206 15.3738 16.6642 16.8389 15.3287C19.5088 12.8949 21.251 11.2455 21.251 8.71539ZM1.25098 8.71539C1.25107 7.04011 1.82921 5.45446 2.9043 4.26422C4.026 3.02247 5.58405 2.34039 7.27441 2.34039C9.17439 2.34039 10.8086 3.26844 12.001 4.91559C13.1933 3.26844 14.8276 2.34039 16.7275 2.34039C18.0725 2.34039 19.3371 2.77212 20.3652 3.57965L19.9014 4.16949L19.4385 4.75934C18.6817 4.16492 17.7456 3.84039 16.7275 3.84039C15.3544 3.84039 14.1263 4.49996 13.167 5.8609C12.9695 6.14116 12.803 6.42299 12.666 6.6861L12.001 7.96442L11.3359 6.68707C11.1989 6.4238 11.0325 6.14122 10.835 5.8609C9.87567 4.49996 8.64752 3.84039 7.27441 3.84039C5.99984 3.84039 4.84929 4.3493 4.01758 5.27008C3.2101 6.16404 2.75107 7.38289 2.75098 8.71539C2.75098 11.2455 4.49322 12.8949 7.16309 15.3287C7.40518 15.5494 7.6549 15.7762 7.9082 16.0093L6.89258 17.1129C6.64243 16.8826 6.39572 16.658 6.15332 16.4371C3.61923 14.1271 1.25098 12.0282 1.25098 8.71539Z" fill="#1C252E"/>
<path d="M21.4697 1.46973C21.7626 1.17684 22.2373 1.17684 22.5302 1.46973C22.8231 1.76262 22.8231 2.23738 22.5302 2.53028L2.53022 22.5303C2.23732 22.8232 1.76256 22.8232 1.46967 22.5303C1.17678 22.2374 1.17678 21.7626 1.46967 21.4697L21.4697 1.46973Z" fill="#1C252E"/>
</svg>
