<svg width="24" height="24" viewBox="0 0 24 24" fill="none" xmlns="http://www.w3.org/2000/svg">
<path d="M21.25 11.9998C21.2499 9.90405 19.5459 8.19995 17.4502 8.19995C16.0246 8.19997 14.6977 8.94999 13.9629 10.1736L13.9639 10.1746L12.6445 12.3845L12.6426 12.3865L11.3125 14.5945L11.3135 14.5955C10.3081 16.271 8.49389 17.2996 6.54004 17.2996C3.61593 17.2994 1.24023 14.9239 1.24023 11.9998C1.24033 9.07569 3.61599 6.70007 6.54004 6.69995C8.30544 6.69995 9.83517 7.56782 10.7871 8.87964C11.0302 9.21473 10.9559 9.68316 10.6211 9.92651C10.2859 10.1698 9.81653 10.0957 9.57324 9.7605C8.88518 8.81232 7.79464 8.19995 6.54004 8.19995C4.4444 8.20007 2.74033 9.90413 2.74023 11.9998C2.74023 14.0955 4.44434 15.7994 6.54004 15.7996C7.96619 15.7996 9.29268 15.0484 10.0273 13.824V13.823L11.3574 11.613L12.6768 9.40503V9.40405C13.6821 7.72851 15.4964 6.69997 17.4502 6.69995C20.3743 6.69995 22.7499 9.07563 22.75 11.9998C22.75 14.924 20.3744 17.2996 17.4502 17.2996C15.6933 17.2995 14.1662 16.4309 13.2061 15.1238C12.9609 14.79 13.0326 14.3212 13.3662 14.0759C13.7 13.8307 14.1698 13.9022 14.415 14.2361C15.1149 15.1888 16.2073 15.7995 17.4502 15.7996C19.546 15.7996 21.25 14.0955 21.25 11.9998Z" fill="#1C252E"/>
</svg>
