<svg width="24" height="24" viewBox="0 0 24 24" fill="none" xmlns="http://www.w3.org/2000/svg">
<path d="M20.25 4.97974C20.2499 3.7606 19.2523 2.76001 18 2.76001H6C4.74773 2.76001 3.75013 3.7606 3.75 4.97974V15.8899C3.75 17.1091 4.74764 18.1096 6 18.1096H6.75C7.73202 18.1096 8.69323 18.4939 9.39746 19.1965L11.1064 20.886C11.5943 21.3676 12.3949 21.3676 12.8828 20.886L14.5928 19.1965C15.296 18.4949 16.247 18.1096 17.2402 18.1096H18C19.2507 18.1096 20.25 17.1008 20.25 15.8899V4.97974ZM21.75 15.8899C21.75 17.939 20.0693 19.6096 18 19.6096H17.2402C16.6351 19.6096 16.0668 19.8437 15.6504 20.26L15.6475 20.2639L15.6465 20.2629L13.9375 21.9534H13.9365C12.8644 23.0117 11.1248 23.0117 10.0527 21.9534L8.34277 20.2629L8.33984 20.26C7.92435 19.8445 7.34656 19.6096 6.75 19.6096H6C3.93236 19.6096 2.25 17.9506 2.25 15.8899V4.97974C2.25013 2.91909 3.93244 1.26001 6 1.26001H18C20.0676 1.26001 21.7499 2.91909 21.75 4.97974V15.8899Z" fill="#1C252E"/>
<path d="M16.25 9.3125C16.25 8.73194 16.0507 8.21373 15.7139 7.84082C15.3705 7.46069 14.8966 7.25 14.3633 7.25C13.8163 7.25 13.3098 7.50544 12.8896 8.10156C12.802 8.22593 12.727 8.35256 12.665 8.47168L12 9.74902L11.335 8.47168C11.2729 8.35246 11.198 8.22589 11.1104 8.10156C10.6902 7.50544 10.1837 7.25 9.63672 7.25C9.10339 7.25 8.62949 7.46069 8.28613 7.84082C7.9493 8.21373 7.75005 8.73194 7.75 9.3125C7.75 10.3819 8.46508 11.0939 9.83398 12.3418C10.4837 12.9341 11.2378 13.6207 12 14.4951C12.7621 13.6207 13.5163 12.9341 14.166 12.3418C15.5349 11.0939 16.25 10.3819 16.25 9.3125ZM17.75 9.3125C17.75 11.1645 16.4098 12.3262 15.1768 13.4502C14.4234 14.1369 13.6086 14.881 12.8057 15.8662C12.6104 16.1057 12.3165 16.25 12 16.25C11.6835 16.25 11.3896 16.1057 11.1943 15.8662C10.3914 14.881 9.57661 14.137 8.82324 13.4502C7.5902 12.3262 6.25 11.1645 6.25 9.3125C6.25005 8.38933 6.56861 7.50508 7.17285 6.83594C7.80621 6.13471 8.68752 5.75 9.63672 5.75C10.5655 5.75 11.3746 6.14146 12 6.82031C12.6254 6.14146 13.4345 5.75 14.3633 5.75C15.3125 5.75 16.1938 6.13471 16.8271 6.83594C17.4314 7.50508 17.75 8.38933 17.75 9.3125Z" fill="#1C252E"/>
</svg>
