<svg width="24" height="24" viewBox="0 0 24 24" fill="none" xmlns="http://www.w3.org/2000/svg">
<path d="M12.0342 5.0045C12.36 4.89264 12.7627 4.85839 13.1572 4.99668L13.1582 4.99571C13.1658 4.99814 13.1731 5.00196 13.1807 5.0045C13.1861 5.00648 13.1919 5.00733 13.1973 5.00938L13.1963 5.01036C13.9842 5.28339 14.5055 6.12956 14.3496 6.96543L14.3516 6.96641L14.1299 8.3795H15.9502C16.5411 8.3795 17.0931 8.62004 17.4375 9.08457C17.7824 9.54997 17.8477 10.1466 17.6514 10.7135L17.6523 10.7145L16.4023 14.5045C16.2624 14.9944 15.9394 15.3877 15.5742 15.6539C15.1978 15.9281 14.7214 16.1099 14.2305 16.11H12.25C12.0253 16.1099 11.7625 16.0747 11.5156 16.0055C11.3035 15.9459 11.0162 15.8357 10.7842 15.6285L9.19043 14.3922L10.1104 13.2076L11.7207 14.4576L11.7578 14.4859L11.7773 14.5064C11.7807 14.5084 11.7857 14.5116 11.793 14.5152C11.8207 14.529 11.864 14.5452 11.9209 14.5611C12.0385 14.5941 12.165 14.6099 12.25 14.61H14.2305C14.3593 14.6099 14.5329 14.5565 14.6914 14.441C14.8492 14.3259 14.936 14.1905 14.9639 14.0826L14.9707 14.0582L14.9785 14.0348L16.2285 10.2447L16.2305 10.2369L16.2334 10.2281C16.2896 10.0703 16.249 10.0005 16.2324 9.97813C16.2118 9.95033 16.1392 9.8795 15.9502 9.8795H13.8701C13.1185 9.87934 12.493 9.23087 12.6074 8.40684L12.6094 8.39415L12.8691 6.73399L12.873 6.71348L12.877 6.69395C12.8823 6.66869 12.8804 6.6127 12.8398 6.54454C12.7994 6.47668 12.7443 6.43786 12.7021 6.42442L12.6826 6.41856L12.6631 6.41075C12.6496 6.40575 12.5993 6.39672 12.5215 6.42344C12.4859 6.43566 12.4562 6.45142 12.4355 6.46641C12.4139 6.48221 12.4129 6.48861 12.4209 6.47618L12.4131 6.48789L10.2832 9.65782L9.03809 8.82188L11.168 5.65196C11.3785 5.3322 11.7077 5.11664 12.0342 5.0045Z" fill="#1C252E"/>
<path d="M8.84961 8.71021C8.84961 8.59525 8.83766 8.52909 8.8291 8.49438C8.78183 8.4822 8.69739 8.46997 8.55957 8.46997H8.04004C7.90097 8.46997 7.81655 8.4821 7.76953 8.49438C7.76098 8.52918 7.75 8.59561 7.75 8.71021V13.8C7.75 13.9129 7.76106 13.9787 7.76953 14.0139C7.81647 14.0262 7.90056 14.0403 8.04004 14.0403H8.55957C8.69779 14.0403 8.78191 14.0261 8.8291 14.0139C8.83759 13.9788 8.84961 13.9132 8.84961 13.8V8.71021ZM10.3496 13.8C10.3496 14.2478 10.2583 14.7537 9.86328 15.1194C9.48255 15.4718 8.9814 15.5403 8.55957 15.5403H8.04004C7.61816 15.5403 7.11708 15.4719 6.73633 15.1194C6.3414 14.7537 6.25 14.2478 6.25 13.8V8.71021C6.25 8.26248 6.3415 7.75658 6.73633 7.39087C7.11708 7.03833 7.61816 6.96997 8.04004 6.96997H8.55957C8.98145 6.96997 9.48253 7.03835 9.86328 7.39087C10.2583 7.75659 10.3496 8.26241 10.3496 8.71021V13.8Z" fill="#1C252E"/>
<path d="M20.25 4.97974C20.2499 3.7606 19.2523 2.76001 18 2.76001H6C4.74773 2.76001 3.75013 3.7606 3.75 4.97974V15.8899C3.75 17.1091 4.74764 18.1096 6 18.1096H6.75C7.73202 18.1096 8.69323 18.4939 9.39746 19.1965L11.1064 20.886C11.5944 21.3676 12.3949 21.3676 12.8828 20.886L14.5928 19.1965C15.296 18.4949 16.247 18.1096 17.2402 18.1096H18C19.2507 18.1096 20.25 17.1008 20.25 15.8899V4.97974ZM21.75 15.8899C21.75 17.939 20.0693 19.6096 18 19.6096H17.2402C16.6351 19.6096 16.0668 19.8437 15.6504 20.26L15.6475 20.2629L13.9375 21.9534H13.9365C12.8644 23.0117 11.1248 23.0117 10.0527 21.9534L8.34277 20.2629L8.33984 20.26C7.92435 19.8445 7.34656 19.6096 6.75 19.6096H6C3.93236 19.6096 2.25 17.9506 2.25 15.8899V4.97974C2.25013 2.91909 3.93244 1.26001 6 1.26001H18C20.0676 1.26001 21.7499 2.91909 21.75 4.97974V15.8899Z" fill="#1C252E"/>
</svg>
