<svg width="24" height="24" viewBox="0 0 24 24" fill="none" xmlns="http://www.w3.org/2000/svg">
<path d="M21.25 17.1998C21.25 16.1318 20.831 15.1631 20.1445 14.4342V14.4332C20.1394 14.4279 20.1317 14.4213 20.124 14.4127C20.1192 14.4072 20.1101 14.3937 20.0967 14.3766C19.3545 13.618 18.3293 13.15 17.2002 13.15C14.9646 13.1501 13.1505 14.9642 13.1504 17.1998C13.1504 18.2342 13.5447 19.1785 14.1885 19.899L14.332 20.0514C15.0683 20.7925 16.0794 21.2496 17.2002 21.2496C19.436 21.2496 21.25 19.4356 21.25 17.1998ZM20.6904 14.6598C20.664 14.6598 20.721 14.6611 20.7783 14.6539C20.7792 14.6538 20.7801 14.6531 20.7812 14.653C20.7513 14.6566 20.7211 14.6598 20.6904 14.6598ZM20.8506 14.6403C20.8608 14.6379 20.872 14.6357 20.8838 14.6324C20.8728 14.6354 20.8617 14.6378 20.8506 14.6403ZM22.75 17.1998C22.75 20.264 20.2644 22.7496 17.2002 22.7496C15.556 22.7496 14.0867 22.0307 13.0723 20.901L13.0713 20.9C12.1957 19.9207 11.6504 18.625 11.6504 17.1998C11.6505 14.1358 14.1361 11.6501 17.2002 11.65C18.7865 11.65 20.2209 12.3221 21.2354 13.3942C21.2629 13.4233 21.2874 13.4546 21.3096 13.4869C22.1995 14.4691 22.75 15.7674 22.75 17.1998Z" fill="#1C252E"/>
<path d="M15.4208 15.4688C15.7143 15.1765 16.189 15.1773 16.4814 15.4707L19.0116 18.0108C19.3038 18.3042 19.3029 18.779 19.0097 19.0713C18.7163 19.3636 18.2415 19.3626 17.9491 19.0694L15.4189 16.5293C15.1266 16.2359 15.1274 15.7611 15.4208 15.4688Z" fill="#1C252E"/>
<path d="M17.9189 15.5007C18.2112 15.2074 18.686 15.2065 18.9794 15.4988C19.2727 15.7911 19.2736 16.2659 18.9814 16.5593L16.4511 19.0993C16.1588 19.3927 15.684 19.3936 15.3906 19.1013C15.0971 18.809 15.0963 18.3342 15.3886 18.0407L17.9189 15.5007Z" fill="#1C252E"/>
<path d="M21.2539 8.81555C21.2538 7.48305 20.7948 6.2642 19.9873 5.37024C19.1556 4.44945 18.005 3.94055 16.7305 3.94055C15.3574 3.94055 14.1292 4.60012 13.1699 5.96106C12.9724 6.24132 12.8059 6.52315 12.6689 6.78625L12.0039 8.06458L11.3389 6.78723C11.2018 6.52395 11.0355 6.24138 10.8379 5.96106C9.8786 4.60012 8.65045 3.94055 7.27734 3.94055C6.00277 3.94055 4.85222 4.44945 4.02051 5.37024C3.21303 6.2642 2.754 7.48305 2.75391 8.81555C2.75391 11.3457 4.49707 12.995 7.16699 15.4288C8.63181 16.7642 10.3239 18.3066 12.0039 20.3409C12.244 20.0503 12.4839 19.7695 12.7236 19.4982L13.8477 20.4913C13.5765 20.7982 13.3048 21.1173 13.0342 21.4493C12.7832 21.757 12.407 21.9406 12.0039 21.9406C11.6008 21.9406 11.2246 21.757 10.9736 21.4493C9.32875 19.4311 7.66169 17.9096 6.15625 16.5372C3.62227 14.2273 1.25391 12.1283 1.25391 8.81555C1.254 7.14027 1.83214 5.55462 2.90723 4.36438C4.02893 3.12263 5.58698 2.44055 7.27734 2.44055C9.17732 2.44055 10.8115 3.3686 12.0039 5.01575C13.1963 3.3686 14.8305 2.44055 16.7305 2.44055C18.4208 2.44055 19.9789 3.12263 21.1006 4.36438C22.1757 5.55462 22.7538 7.14027 22.7539 8.81555C22.7539 10.8458 21.8705 12.4067 20.6191 13.8341L19.4912 12.8458C20.6106 11.569 21.2539 10.3465 21.2539 8.81555Z" fill="#1C252E"/>
</svg>
