<svg width="24" height="24" viewBox="0 0 24 24" fill="none" xmlns="http://www.w3.org/2000/svg">
<path d="M7.55957 10.6501C7.90791 10.5301 8.33721 10.4918 8.75586 10.6393L8.75684 10.6384C8.7588 10.639 8.76074 10.6406 8.7627 10.6413C8.76833 10.6433 8.77465 10.6441 8.78027 10.6462L8.7793 10.6481C9.61047 10.9382 10.1656 11.8467 9.99902 12.7262L10.001 12.7272L9.73926 14.3796H11.8301C12.4632 14.3796 13.0471 14.6393 13.4092 15.1296C13.771 15.6195 13.8425 16.2498 13.6309 16.8532L13.6328 16.8542L12.2627 21.0241L12.2617 21.0231C11.9767 22.0582 10.9247 22.7398 9.9502 22.7399H7.78027C7.53654 22.7399 7.25302 22.7033 6.9873 22.6286C6.75771 22.564 6.45768 22.4467 6.2168 22.2321L4.46094 20.8727L5.37891 19.6872L7.14941 21.0573L7.18652 21.0856L7.21289 21.112C7.21688 21.1146 7.22606 21.1205 7.24219 21.1286C7.27688 21.1459 7.32752 21.1659 7.39258 21.1842C7.52673 21.222 7.67415 21.2399 7.78027 21.2399H9.9502C10.3384 21.2398 10.7436 20.9252 10.8213 20.611L10.8281 20.5827L10.8369 20.5563L12.207 16.3864L12.2109 16.3747L12.2148 16.3639C12.2835 16.1741 12.2394 16.0693 12.2031 16.0202C12.1627 15.9655 12.0565 15.8796 11.8301 15.8796H9.54004C8.75576 15.8796 8.09842 15.1962 8.22852 14.3288L8.22949 14.3229L8.51953 12.4928L8.52246 12.4723L8.52637 12.4518C8.55219 12.3321 8.4461 12.1157 8.2832 12.0612L8.25977 12.0534C8.22573 12.0409 8.15028 12.0328 8.04785 12.068C8.00024 12.0844 7.95863 12.1067 7.92676 12.1296C7.9112 12.1407 7.89944 12.151 7.8916 12.1589C7.88421 12.1663 7.88086 12.1706 7.88086 12.1706L5.54297 15.6579L4.29688 14.8219L6.63672 11.3327L6.63867 11.3298C6.86234 10.9991 7.20986 10.7705 7.55957 10.6501Z" fill="#1C252E"/>
<path d="M4.09961 14.6798C4.09959 14.4891 4.07334 14.4078 4.06152 14.381C4.02897 14.3677 3.93231 14.34 3.70996 14.34H3.13965C2.91485 14.34 2.81849 14.3679 2.78711 14.381C2.77519 14.4083 2.75002 14.4903 2.75 14.6798V20.2804C2.75003 20.467 2.77401 20.5504 2.78613 20.5802C2.81927 20.5932 2.9167 20.6202 3.13965 20.6202H3.70996C3.93283 20.6202 4.02917 20.5915 4.06152 20.5782C4.07346 20.5508 4.09958 20.4695 4.09961 20.2804V14.6798ZM5.59961 20.2804C5.59956 20.7635 5.50087 21.2925 5.0918 21.674C4.69543 22.0435 4.16945 22.1202 3.70996 22.1202H3.13965C2.68556 22.1202 2.15874 22.0472 1.76074 21.6788C1.34847 21.2972 1.25005 20.7656 1.25 20.2804V14.6798C1.25003 14.1967 1.34973 13.6677 1.75879 13.2863C2.15501 12.917 2.68028 12.84 3.13965 12.84H3.70996C4.16952 12.84 4.69545 12.9166 5.0918 13.2863C5.50083 13.6677 5.59958 14.1967 5.59961 14.6798V20.2804Z" fill="#1C252E"/>
<path d="M16.2203 1.26001C16.4641 1.26001 16.7475 1.29663 17.0133 1.37134C17.2437 1.43614 17.5444 1.55464 17.7857 1.77075L19.5396 3.1272L18.6217 4.31274L16.8512 2.94263L16.8141 2.91431L16.7887 2.88892C16.7856 2.88685 16.7758 2.88049 16.7574 2.87134C16.7227 2.85406 16.6721 2.83397 16.607 2.81567C16.473 2.77801 16.3263 2.76001 16.2203 2.76001H14.0504C13.6621 2.76002 13.256 3.07464 13.1783 3.38892L13.1715 3.41724L13.1627 3.4436L11.7926 7.6145L11.7896 7.62524L11.7857 7.63599C11.717 7.82591 11.7612 7.93058 11.7975 7.97974C11.838 8.03444 11.944 8.12036 12.1705 8.12036H14.4605C15.2447 8.12044 15.9021 8.80385 15.7721 9.67114L15.7711 9.677L15.4811 11.5071L15.4781 11.5276L15.4732 11.5481C15.4507 11.6529 15.5296 11.8319 15.6588 11.9114L15.7174 11.9387L15.7408 11.9465C15.7749 11.959 15.8505 11.9671 15.9527 11.9319C16.0003 11.9155 16.042 11.8932 16.0738 11.8704C16.0894 11.8592 16.1011 11.8489 16.109 11.8411C16.1162 11.8338 16.1187 11.8294 16.1187 11.8293L18.4576 8.34204L19.7037 9.17798L17.3629 12.6672L17.3619 12.6702C17.1382 13.0008 16.7907 13.2304 16.441 13.3508C16.0922 13.4709 15.6619 13.5087 15.2428 13.3606C15.2353 13.3581 15.2277 13.3563 15.2203 13.3538V13.3528C14.3891 13.0624 13.8335 12.1524 14.0006 11.2727H13.9996L14.2613 9.62036H12.1705C11.5373 9.62036 10.9525 9.36066 10.5904 8.87036C10.2286 8.3802 10.1577 7.74929 10.3697 7.14575H10.3678L11.7379 2.97583C12.0233 1.9411 13.076 1.26002 14.0504 1.26001H16.2203Z" fill="#1C252E"/>
<path d="M21.25 3.71985C21.25 3.53074 21.2249 3.4479 21.2129 3.41907C21.1784 3.40585 21.0804 3.38 20.8604 3.38H20.29C20.0653 3.38004 19.9689 3.40794 19.9375 3.42102C19.9256 3.4484 19.9004 3.53033 19.9004 3.71985V9.32043C19.9004 9.50841 19.9255 9.59035 19.9375 9.61829C19.9686 9.6313 20.0646 9.66025 20.29 9.66028H20.8604C21.0833 9.66028 21.1796 9.63155 21.2119 9.61829C21.2238 9.59084 21.25 9.50955 21.25 9.32043V3.71985ZM22.75 9.32043C22.7499 9.80331 22.6508 10.3316 22.2422 10.713C21.8458 11.0826 21.3199 11.1603 20.8604 11.1603H20.29C19.8306 11.1602 19.3054 11.0825 18.9092 10.713C18.5003 10.3316 18.4005 9.80344 18.4004 9.32043V3.71985C18.4004 3.23672 18.5 2.70778 18.9092 2.32629C19.3054 1.95699 19.8307 1.88004 20.29 1.88H20.8604C21.3145 1.88 21.8421 1.95194 22.2402 2.32043C22.6526 2.70215 22.75 3.23455 22.75 3.71985V9.32043Z" fill="#1C252E"/>
</svg>
