<svg width="24" height="24" viewBox="0 0 24 24" fill="none" xmlns="http://www.w3.org/2000/svg">
<path d="M21.25 13.4299V7.42993C21.25 6.10037 20.8101 5.05062 20.0947 4.33521C19.3793 3.61979 18.3296 3.17993 17 3.17993H7C5.67044 3.17993 4.62069 3.61979 3.90527 4.33521C3.18986 5.05062 2.75 6.10037 2.75 7.42993V13.4299C2.75 14.7595 3.18988 15.8092 3.90527 16.5247C4.62069 17.2401 5.67044 17.6799 7 17.6799C7.41419 17.6799 7.74997 18.0157 7.75 18.4299V20.5598C7.75 20.7568 7.96888 20.8757 8.13379 20.7659H8.13477L12.585 17.8059L12.6807 17.7512C12.7801 17.7044 12.8892 17.6799 13 17.6799H17C18.3296 17.6799 19.3793 17.2401 20.0947 16.5247C20.8101 15.8092 21.25 14.7595 21.25 13.4299ZM22.75 13.4299C22.75 15.1004 22.1898 16.5506 21.1553 17.5852C20.1207 18.6198 18.6704 19.1799 17 19.1799H13.2275L8.96582 22.0149L8.96484 22.0139C7.80984 22.7831 6.25 21.9625 6.25 20.5598V19.1389C4.89592 18.9955 3.7211 18.4616 2.84473 17.5852C1.81016 16.5506 1.25 15.1004 1.25 13.4299V7.42993C1.25 5.7595 1.81014 4.30924 2.84473 3.27466C3.87931 2.24007 5.32956 1.67993 7 1.67993H17C18.6704 1.67993 20.1207 2.24007 21.1553 3.27466C22.1899 4.30924 22.75 5.7595 22.75 7.42993V13.4299Z" fill="#1C252E"/>
<path d="M11.25 11.36V11.15C11.25 10.0732 11.9589 9.51707 12.4141 9.20276L12.417 9.20081C12.6022 9.07435 12.723 8.97078 12.8008 8.86584C12.8658 8.77801 12.9101 8.67778 12.9102 8.52014C12.9102 8.01438 12.5057 7.61008 12 7.60999C11.4942 7.60999 11.0898 8.01432 11.0898 8.52014C11.0898 8.9343 10.754 9.27014 10.3398 9.27014C9.92567 9.27014 9.58991 8.9343 9.58984 8.52014C9.58984 7.18596 10.6658 6.10999 12 6.10999C13.3342 6.11008 14.4102 7.18603 14.4102 8.52014C14.4101 9.57215 13.7177 10.1264 13.2646 10.4362L13.2656 10.4371C13.0705 10.5719 12.9446 10.6777 12.8633 10.7867C12.7958 10.8772 12.75 10.9821 12.75 11.15V11.36C12.75 11.7741 12.4141 12.1099 12 12.11C11.5858 12.11 11.25 11.7742 11.25 11.36Z" fill="#1C252E"/>
<path d="M12.0049 13C12.4189 13.0002 12.7549 13.3359 12.7549 13.75C12.7549 14.1641 12.4189 14.4998 12.0049 14.5H11.9951C11.5811 14.4998 11.2451 14.1641 11.2451 13.75C11.2451 13.3359 11.5811 13.0002 11.9951 13H12.0049Z" fill="#1C252E"/>
</svg>
