<svg width="24" height="24" viewBox="0 0 24 24" fill="none" xmlns="http://www.w3.org/2000/svg">
<path d="M21.25 8.625C21.2499 7.29249 20.7909 6.07365 19.9834 5.17969C19.1517 4.2589 18.0011 3.75 16.7266 3.75C15.3535 3.75 14.1253 4.40957 13.166 5.77051C12.9685 6.05077 12.802 6.3326 12.665 6.5957L12 7.87402L11.335 6.59668C11.1979 6.3334 11.0316 6.05083 10.834 5.77051C9.87469 4.40957 8.64654 3.75 7.27344 3.75C5.99886 3.75 4.84831 4.2589 4.0166 5.17969C3.20912 6.07365 2.75009 7.29249 2.75 8.625C2.75 11.1551 4.49224 12.8045 7.16211 15.2383C8.62704 16.5737 10.3198 18.1159 12 20.1504C13.6802 18.1158 15.3729 16.5737 16.8379 15.2383C19.5078 12.8045 21.25 11.1552 21.25 8.625ZM22.75 8.625C22.75 11.9378 20.3817 14.0367 17.8477 16.3467C16.3421 17.7191 14.6752 19.2405 13.0303 21.2588L13.0293 21.2578C12.7784 21.5656 12.4031 21.75 12 21.75C11.5969 21.75 11.2207 21.5664 10.9697 21.2588C9.32477 19.2405 7.65784 17.7191 6.15234 16.3467C3.61826 14.0367 1.25 11.9378 1.25 8.625C1.25009 6.94972 1.82823 5.36407 2.90332 4.17383C4.02503 2.93207 5.58307 2.25 7.27344 2.25C9.17341 2.25 10.8076 3.17804 12 4.8252C13.1924 3.17804 14.8266 2.25 16.7266 2.25C18.4169 2.25 19.975 2.93207 21.0967 4.17383C22.1718 5.36407 22.7499 6.94972 22.75 8.625Z" fill="#1C252E"/>
</svg>
