<svg width="24" height="24" viewBox="0 0 24 24" fill="none" xmlns="http://www.w3.org/2000/svg">
<path d="M11.9988 1.3275C13.0442 1.32768 13.871 2.11127 14.4002 3.17418L16.1609 6.69469L16.1629 6.70055C16.2157 6.80814 16.3417 6.96142 16.532 7.10191C16.7221 7.24218 16.9094 7.31958 17.033 7.34019L20.2225 7.87047C21.3716 8.0621 22.3402 8.62136 22.6551 9.60094C22.97 10.5814 22.5069 11.5966 21.6795 12.4193L21.6805 12.4203L19.2 14.9007C19.1025 14.9984 18.9931 15.1819 18.9246 15.4212C18.8569 15.6577 18.8508 15.8725 18.8807 16.0111L19.5906 19.0814L19.6414 19.3207C19.8702 20.516 19.7307 21.6714 18.8777 22.2933C17.9692 22.9556 16.7289 22.6632 15.5984 21.9955L12.6072 20.225C12.4812 20.1503 12.2647 20.0902 12.0037 20.0902C11.7431 20.0902 11.5206 20.1499 11.3865 20.2279L8.40215 21.9955L8.40117 21.9945C7.27225 22.6643 6.03319 22.9522 5.1248 22.2894C4.21592 21.626 4.11344 20.3576 4.40898 19.0804L5.11894 16.0111C5.14877 15.8725 5.14268 15.6577 5.075 15.4212C5.00649 15.182 4.89712 14.9984 4.79961 14.9007L2.31914 12.4203C1.49627 11.5973 1.03475 10.5814 1.34746 9.60191C1.6605 8.62159 2.62704 8.06215 3.77715 7.87047L6.96367 7.34019C7.08154 7.32018 7.26667 7.24387 7.45683 7.10289C7.64687 6.96199 7.77302 6.80838 7.82598 6.70055L9.58867 3.17418L9.58965 3.1732C10.1238 2.11037 10.954 1.3275 11.9988 1.3275ZM11.9988 2.8275C11.7862 2.8275 11.3553 2.99986 10.9295 3.84703L9.17266 7.35875L9.17363 7.35973C8.98653 7.74172 8.67247 8.06811 8.35039 8.30699C8.02818 8.5459 7.62763 8.74966 7.21562 8.81969H7.21269L4.02226 9.34898C3.13326 9.49729 2.84427 9.8483 2.77715 10.058C2.70997 10.2683 2.74284 10.7228 3.37969 11.3597L5.86016 13.8392C6.18247 14.1615 6.39845 14.5928 6.51738 15.0082C6.6364 15.4239 6.6808 15.9025 6.58183 16.3441L6.58086 16.349L5.8709 19.4193C5.60659 20.5617 5.87375 20.9784 6.00957 21.0775C6.14596 21.177 6.62598 21.305 7.63652 20.7054L7.6375 20.7045L10.6277 18.9349L10.6326 18.932C11.0486 18.69 11.5468 18.5902 12.0037 18.5902C12.4598 18.5902 12.958 18.6897 13.3719 18.9349L16.3621 20.7045C17.3813 21.3065 17.8598 21.1791 17.9939 21.0814C18.1266 20.9847 18.3938 20.5704 18.1287 19.4193L17.4187 16.349L17.4178 16.3441C17.3188 15.9025 17.3632 15.4239 17.4822 15.0082C17.6012 14.5929 17.8171 14.1615 18.1395 13.8392L20.6209 11.3578C21.2616 10.7214 21.2942 10.2688 21.2273 10.0599C21.1597 9.84962 20.867 9.4984 19.9764 9.34996L16.7869 8.81969C16.371 8.75026 15.9671 8.54841 15.6424 8.30894C15.3179 8.06956 15.0035 7.7421 14.8162 7.35973L13.0594 3.84508L13.0584 3.8441C12.6378 2.99857 12.2103 2.8277 11.9988 2.8275Z" fill="#1C252E"/>
</svg>
