<svg width="24" height="24" viewBox="0 0 24 24" fill="none" xmlns="http://www.w3.org/2000/svg">
<path d="M18.25 9C18.25 5.54421 15.4558 2.75 12 2.75C8.54421 2.75 5.75 5.54421 5.75 9C5.75 10.297 6.13345 11.4816 6.79199 12.4707L6.97949 12.7344C7.88562 13.9398 9.2058 14.8036 10.7285 15.1104L11.0586 15.168L11.0801 15.1719C11.3753 15.224 11.6818 15.25 12 15.25C12.3182 15.25 12.6247 15.224 12.9199 15.1719L12.9414 15.168C14.7137 14.9097 16.2412 13.9029 17.208 12.4707C17.8666 11.4816 18.25 10.297 18.25 9ZM19.75 9C19.75 10.6015 19.2741 12.0755 18.4541 13.3057L18.4512 13.3096C17.258 15.0771 15.3657 16.3306 13.1582 16.6523L13.1572 16.6514C12.7797 16.7166 12.3939 16.75 12 16.75C11.6058 16.75 11.2196 16.7167 10.8418 16.6514C8.63439 16.3296 6.74197 15.0771 5.54883 13.3096L5.5459 13.3057C4.72588 12.0755 4.25 10.6015 4.25 9C4.25 4.71579 7.71579 1.25 12 1.25C16.2842 1.25 19.75 4.71579 19.75 9Z" fill="#1C252E"/>
<path d="M17.7592 12.1538C17.9819 12.1326 18.2025 12.2114 18.3607 12.3697L22.2562 16.2652L22.3431 16.357C23.1778 17.2993 22.7334 18.7965 21.5443 19.1665L21.4232 19.1997L19.7767 19.5874L19.7777 19.5884C19.6664 19.6155 19.6081 19.6893 19.5931 19.7583C19.592 19.7634 19.5914 19.7689 19.5902 19.774L19.2396 21.2427L19.2406 21.2437C18.908 22.6431 17.1306 23.0585 16.2045 21.9712V21.9722L12.0004 17.1421L7.80311 21.9722L7.80408 21.9732C6.90889 23.0367 5.20515 22.6811 4.79627 21.3824L4.76111 21.2535L4.4115 19.7876L4.38318 19.7163C4.34702 19.6536 4.28979 19.6137 4.23768 19.6021L4.22791 19.6001L2.57752 19.2095C1.24903 18.8948 0.773478 17.2372 1.74061 16.2701L5.64002 12.3697C5.79837 12.2113 6.01965 12.1324 6.24256 12.1538C6.46528 12.1754 6.66714 12.2946 6.79236 12.48C7.69871 13.8228 9.09725 14.7919 10.7289 15.1206L11.059 15.1783L11.0804 15.1812C11.3431 15.2275 11.615 15.2522 11.8959 15.2574C11.9302 15.2525 11.9653 15.2496 12.0004 15.2496C12.0352 15.2495 12.0698 15.2526 12.1039 15.2574C12.3851 15.2522 12.6572 15.2276 12.9203 15.1812L12.9428 15.1783C14.715 14.9199 16.2416 13.9123 17.2084 12.48L17.2592 12.4136C17.3847 12.2661 17.5642 12.1726 17.7592 12.1538ZM17.9047 14.0347C16.7924 15.333 15.2639 16.2606 13.517 16.6001L17.3363 20.9878L17.3441 20.9966V20.9976C17.4801 21.159 17.734 21.0925 17.7806 20.896L18.1312 19.4263C18.2809 18.7632 18.7994 18.2831 19.4232 18.1314L19.4281 18.1304L21.0775 17.7398C21.277 17.6925 21.3235 17.4521 21.2055 17.3355L17.9047 14.0347ZM2.80115 17.3306C2.66831 17.4634 2.73182 17.7052 2.92322 17.7505L4.57264 18.1402H4.57166C5.17731 18.2781 5.65228 18.7364 5.83631 19.315L5.86951 19.4331L5.87049 19.4361L6.2201 20.9058V20.9068C6.26685 21.1032 6.52072 21.1688 6.65662 21.0074L6.66443 20.9976L10.4847 16.6001C8.73716 16.2607 7.2086 15.3325 6.09607 14.0337L2.80115 17.3306Z" fill="#1C252E"/>
<path d="M12.0044 4.75C12.6306 4.75009 13.0395 5.22069 13.2514 5.64453L13.8178 6.77734L14.8393 6.94922C15.314 7.026 15.8619 7.28521 16.0483 7.87012C16.2339 8.45268 15.9408 8.98049 15.6011 9.32031L14.812 10.1084L15.0405 11.0889L15.0766 11.2744C15.1477 11.7297 15.1071 12.3189 14.6157 12.6797C14.0538 13.092 13.385 12.8521 12.9692 12.6045V12.6055L12.02 12.0449L11.0718 12.6055L11.0688 12.6074C10.6552 12.8487 9.98792 13.0844 9.4282 12.6777C8.86307 12.2669 8.89088 11.5561 9.00047 11.0889L9.228 10.1084L8.43992 9.32031C8.10281 8.98316 7.80517 8.45659 7.99265 7.87207C8.17913 7.29091 8.72372 7.03347 9.18992 6.95117L9.19578 6.9502L10.2114 6.7793L10.7798 5.64453C10.9805 5.21742 11.3781 4.75 12.0044 4.75ZM11.5317 7.49512C11.4263 7.70598 11.2636 7.87027 11.1128 7.9834C10.9624 8.09621 10.7552 8.20874 10.5141 8.24902L9.63718 8.39648L10.3305 9.08984C10.5215 9.28082 10.6252 9.51796 10.6772 9.71094C10.7299 9.90624 10.7546 10.1469 10.7046 10.3848C10.7035 10.3899 10.7019 10.3952 10.7007 10.4004L10.5151 11.1914L11.3091 10.7236V10.7246C11.5429 10.5847 11.8031 10.5372 12.02 10.5371C12.2368 10.5371 12.4971 10.5849 12.7309 10.7246L12.7319 10.7236L13.5239 11.1914L13.3403 10.4004V10.3994C13.2799 10.1463 13.3061 9.89666 13.3628 9.69727C13.4202 9.49507 13.5299 9.27034 13.7104 9.08984L14.4028 8.39648L13.5259 8.25V8.24902C13.2855 8.20948 13.0775 8.10125 12.9233 7.9873C12.7683 7.87275 12.6053 7.70668 12.4995 7.49512L12.0151 6.52734L11.5317 7.49512Z" fill="#1C252E"/>
</svg>
