<svg width="24" height="24" viewBox="0 0 24 24" fill="none" xmlns="http://www.w3.org/2000/svg">
<path d="M13.25 6.2002C13.25 4.77417 12.9606 3.9704 12.4951 3.50488C12.0296 3.03936 11.2258 2.75 9.7998 2.75H6.2002C4.77416 2.75 3.97041 3.03936 3.50488 3.50488C3.03936 3.9704 2.75 4.77417 2.75 6.2002V9.7998C2.75 11.2258 3.03936 12.0296 3.50488 12.4951C3.97041 12.9606 4.77416 13.25 6.2002 13.25H9.29199C9.40298 12.1022 9.74177 11.143 10.4424 10.4424C11.143 9.74175 12.1022 9.402 13.25 9.29102V6.2002ZM14.75 10C14.75 10.4089 14.4225 10.7426 14.0137 10.75C12.6997 10.7735 11.9472 11.0586 11.5029 11.5029C11.0586 11.9472 10.7735 12.6997 10.75 14.0137C10.7426 14.4225 10.4089 14.75 10 14.75H6.2002C4.62623 14.75 3.32881 14.4401 2.44434 13.5557C1.55988 12.6712 1.25 11.3738 1.25 9.7998V6.2002C1.25 4.62623 1.55988 3.32879 2.44434 2.44434C3.32881 1.55988 4.62623 1.25 6.2002 1.25H9.7998C11.3738 1.25 12.6712 1.55988 13.5557 2.44434C14.4401 3.32879 14.75 4.62623 14.75 6.2002V10Z" fill="#1C252E"/>
<path d="M4.76276 5.28013C5.55281 4.71368 6.59637 4.71628 7.3819 5.24985C7.72411 5.48254 7.81333 5.94838 7.58112 6.29087C7.3484 6.63349 6.88177 6.72277 6.53913 6.49009C6.26471 6.30369 5.9077 6.3064 5.63776 6.49985C5.30116 6.74119 4.83226 6.66355 4.59089 6.327C4.34957 5.99043 4.42628 5.52152 4.76276 5.28013Z" fill="#1C252E"/>
<path d="M8.76276 5.28013C9.55281 4.71368 10.5964 4.71628 11.3819 5.24985C11.7241 5.48254 11.8133 5.94838 11.5811 6.29087C11.3484 6.63349 10.8818 6.72277 10.5391 6.49009C10.2647 6.30369 9.9077 6.3064 9.63776 6.49985C9.30116 6.74119 8.83226 6.66355 8.59089 6.327C8.34957 5.99043 8.42628 5.52152 8.76276 5.28013Z" fill="#1C252E"/>
<path d="M8 7.43005C8.81369 7.4301 9.56916 7.71054 10.1602 8.18591C10.4825 8.44548 10.5336 8.91698 10.2744 9.23962C10.0149 9.56232 9.54248 9.61428 9.21973 9.35486C8.89082 9.0903 8.46615 8.9301 8 8.93005C6.99506 8.93005 6.16638 9.69292 6.06152 10.6703H8.16016C8.57421 10.6705 8.91016 11.0062 8.91016 11.4203C8.91002 11.8343 8.57413 12.1701 8.16016 12.1703H5.83984C5.12564 12.1703 4.54994 11.5943 4.5498 10.8802C4.5498 8.97602 6.0958 7.43005 8 7.43005Z" fill="#1C252E"/>
<path d="M21.25 14.2002C21.25 12.7742 20.9606 11.9704 20.4951 11.5049C20.0296 11.0394 19.2258 10.75 17.7998 10.75H14.0137L13.5469 10.7705C12.5163 10.8469 11.8917 11.1141 11.5029 11.5029C11.0586 11.9472 10.7735 12.6997 10.75 14.0137V17.7998C10.75 19.2258 11.0394 20.0296 11.5049 20.4951C11.9704 20.9606 12.7742 21.25 14.2002 21.25H17.7998C19.2258 21.25 20.0296 20.9606 20.4951 20.4951C20.9606 20.0296 21.25 19.2258 21.25 17.7998V14.2002ZM22.75 17.7998C22.75 19.3738 22.4401 20.6712 21.5557 21.5557C20.6712 22.4401 19.3738 22.75 17.7998 22.75H14.2002C12.6262 22.75 11.3288 22.4401 10.4443 21.5557C9.55988 20.6712 9.25 19.3738 9.25 17.7998V13.9863L9.27441 13.4453C9.36491 12.2109 9.70237 11.1824 10.4424 10.4424C11.288 9.59673 12.5104 9.27648 13.9863 9.25H17.7998C19.3738 9.25 20.6712 9.55988 21.5557 10.4443C22.4401 11.3288 22.75 12.6262 22.75 14.2002V17.7998Z" fill="#1C252E"/>
<path d="M12.5908 13.1625C12.8323 12.8262 13.3012 12.7493 13.6377 12.9906C13.9076 13.1839 14.2647 13.1857 14.5391 12.9994C14.8817 12.7669 15.3484 12.8561 15.581 13.1986C15.8136 13.5412 15.7243 14.0079 15.3818 14.2406C14.5963 14.7742 13.5527 14.7758 12.7627 14.2093C12.4264 13.9679 12.3495 13.499 12.5908 13.1625Z" fill="#1C252E"/>
<path d="M16.5908 13.1625C16.8323 12.8262 17.3012 12.7493 17.6377 12.9906C17.9076 13.1839 18.2647 13.1857 18.5391 12.9994C18.8817 12.7669 19.3484 12.8561 19.581 13.1986C19.8136 13.5412 19.7243 14.0079 19.3818 14.2406C18.5963 14.7742 17.5527 14.7758 16.7627 14.2093C16.4264 13.9679 16.3495 13.499 16.5908 13.1625Z" fill="#1C252E"/>
<path d="M14.0615 16.9301C14.1665 17.9073 14.9952 18.6703 16 18.6703C17.0047 18.6702 17.8325 17.9072 17.9375 16.9301H14.0615ZM19.4502 16.7201C19.4501 18.6242 17.9041 20.1702 16 20.1703C14.0958 20.1703 12.5499 18.6242 12.5498 16.7201C12.5498 16.0057 13.1258 15.4301 13.8398 15.4301H18.1602C18.8741 15.4302 19.4502 16.0058 19.4502 16.7201Z" fill="#1C252E"/>
</svg>
