<svg width="24" height="24" viewBox="0 0 24 24" fill="none" xmlns="http://www.w3.org/2000/svg">
<path d="M11.4 21.81H17.6C19.03 21.81 20.4 20.6499 20.64 19.2399L21.97 11.2799C22.13 10.2999 21.63 8.98989 20.86 8.36989L13.93 2.82985C12.86 1.96985 11.13 1.96984 10.07 2.81984L3.14001 8.36989C2.36001 8.98989 1.85999 10.2999 2.02999 11.2799L2.30999 12.9599" stroke="#1C252E" stroke-width="1.5" stroke-linecap="round" stroke-linejoin="round"/>
<path opacity="0.4" d="M2 19C3.76 19.04 4.96 20.24 5 22" stroke="#1C252E" stroke-width="1.5" stroke-linecap="round" stroke-linejoin="round"/>
<path opacity="0.4" d="M8 22C7.99 21.24 7.86 20.53 7.63 19.88C7.04 18.21 5.78 16.96 4.12 16.37C3.47 16.14 2.76 16.01 2 16" stroke="#1C252E" stroke-width="1.5" stroke-linecap="round" stroke-linejoin="round"/>
<path opacity="0.4" d="M1.99551 22H2.00451" stroke="#1C252E" stroke-width="2" stroke-linecap="round" stroke-linejoin="round"/>
</svg>
