<svg width="24" height="24" viewBox="0 0 24 24" fill="none" xmlns="http://www.w3.org/2000/svg">
<path d="M23 15.37V17.5601C23 20.0001 21.22 22.3 18.8 22.97C18.63 23.01 18.45 23.01 18.29 22.97C17.11 22.65 16.07 21.93 15.34 21C14.55 20.02 14.09 18.8101 14.09 17.5601V15.37C14.09 14.95 14.4 14.49 14.78 14.33L17.56 13.1899C18.19 12.9399 18.89 12.9399 19.52 13.1899L20.52 13.6L22.31 14.33C22.69 14.49 23 14.95 23 15.37Z" stroke="#1C252E" stroke-width="1.5" stroke-linecap="round" stroke-linejoin="round"/>
<path opacity="0.4" d="M20.95 11.0103L20.52 13.6003L19.52 13.1902C18.89 12.9402 18.19 12.9402 17.56 13.1902L14.78 14.3302C14.4 14.4902 14.09 14.9503 14.09 15.3703V17.5604C14.09 18.8104 14.55 20.0203 15.34 21.0003H6.18C4.81 21.0003 3.52002 19.9104 3.29002 18.5604L2.03001 11.0103C1.87001 10.0803 2.33999 8.83028 3.07999 8.24028L9.66001 2.98027C10.67 2.17027 12.31 2.17028 13.32 2.99028L19.9 8.24028C20.63 8.83028 21.11 10.0803 20.95 11.0103Z" stroke="#1C252E" stroke-width="1.5" stroke-linecap="round" stroke-linejoin="round"/>
</svg>
