<svg width="24" height="24" viewBox="0 0 24 24" fill="none" xmlns="http://www.w3.org/2000/svg">
<path d="M4.41 16.75C4.17 19.64 6.35 22 9.25 22H14.04C17.3 22 19.54 19.37 19 16.15C18.43 12.77 15.17 10 11.74 10C8.02 10 4.72 13.04 4.41 16.75Z" stroke="#1C252E" stroke-width="1.5" stroke-linecap="round" stroke-linejoin="round"/>
<path opacity="0.4" d="M10.47 7.5C11.8507 7.5 12.97 6.38071 12.97 5C12.97 3.61929 11.8507 2.5 10.47 2.5C9.08929 2.5 7.97 3.61929 7.97 5C7.97 6.38071 9.08929 7.5 10.47 7.5Z" stroke="#1C252E" stroke-width="1.5" stroke-linecap="round" stroke-linejoin="round"/>
<path opacity="0.4" d="M17.3 8.69995C18.4046 8.69995 19.3 7.80452 19.3 6.69995C19.3 5.59538 18.4046 4.69995 17.3 4.69995C16.1954 4.69995 15.3 5.59538 15.3 6.69995C15.3 7.80452 16.1954 8.69995 17.3 8.69995Z" stroke="#1C252E" stroke-width="1.5" stroke-linecap="round" stroke-linejoin="round"/>
<path opacity="0.4" d="M21 12.7C21.8284 12.7 22.5 12.0284 22.5 11.2C22.5 10.3715 21.8284 9.69995 21 9.69995C20.1716 9.69995 19.5 10.3715 19.5 11.2C19.5 12.0284 20.1716 12.7 21 12.7Z" stroke="#1C252E" stroke-width="1.5" stroke-linecap="round" stroke-linejoin="round"/>
<path opacity="0.4" d="M3.97 10.7C5.07457 10.7 5.97 9.80452 5.97 8.69995C5.97 7.59538 5.07457 6.69995 3.97 6.69995C2.86543 6.69995 1.97 7.59538 1.97 8.69995C1.97 9.80452 2.86543 10.7 3.97 10.7Z" stroke="#1C252E" stroke-width="1.5" stroke-linecap="round" stroke-linejoin="round"/>
</svg>
