<svg width="24" height="24" viewBox="0 0 24 24" fill="none" xmlns="http://www.w3.org/2000/svg">
<path opacity="0.4" d="M9.87 5.6701L6.45 7.75012L4.89001 5.19012C4.32001 4.25012 4.62 3.01012 5.56 2.44012C6.5 1.87012 7.74 2.1701 8.31 3.1101L9.87 5.6701Z" stroke="#1C252E" stroke-width="1.5" stroke-linecap="round" stroke-linejoin="round"/>
<path d="M11.82 9.16009L8.66 11.0801C6.82 12.2001 6.25999 14.4601 7.14999 16.2601L9.19999 20.4401C9.85999 21.7901 11.46 22.2601 12.74 21.4701L19.17 17.5601C20.46 16.7801 20.77 15.1501 19.88 13.9401L17.11 10.2001C15.91 8.58013 13.66 8.04009 11.82 9.16009Z" stroke="#1C252E" stroke-width="1.5" stroke-linecap="round" stroke-linejoin="round"/>
<path d="M10.7566 5.09815L5.63205 8.21875L7.71245 11.6351L12.837 8.51455L10.7566 5.09815Z" stroke="#1C252E" stroke-width="1.5" stroke-linecap="round" stroke-linejoin="round"/>
<path opacity="0.4" d="M14.31 16.8101L15.96 19.5201" stroke="#1C252E" stroke-width="1.5" stroke-linecap="round" stroke-linejoin="round"/>
<path opacity="0.4" d="M11.75 18.3701L13.4 21.0801" stroke="#1C252E" stroke-width="1.5" stroke-linecap="round" stroke-linejoin="round"/>
<path opacity="0.4" d="M16.87 15.25L18.52 17.96" stroke="#1C252E" stroke-width="1.5" stroke-linecap="round" stroke-linejoin="round"/>
</svg>
