<svg width="24" height="24" viewBox="0 0 24 24" fill="none" xmlns="http://www.w3.org/2000/svg">
<path d="M10.07 2.81984L3.14001 8.36989C2.36001 8.98989 1.85999 10.2999 2.02999 11.2799L3.35998 19.2399C3.59998 20.6599 4.95998 21.81 6.39998 21.81H17.6C19.03 21.81 20.4 20.6499 20.64 19.2399L21.97 11.2799C22.13 10.2999 21.63 8.98989 20.86 8.36989L13.93 2.82985C12.86 1.96985 11.13 1.96984 10.07 2.81984Z" stroke="#1C252E" stroke-width="1.5" stroke-linecap="round" stroke-linejoin="round"/>
<g opacity="0.4">
<path d="M9.88 14.3802C11.15 13.1702 12.85 13.1702 14.12 14.3802" stroke="#1C252E" stroke-width="1.5" stroke-linecap="round" stroke-linejoin="round"/>
<path d="M16.24 12.2602C15.7 11.7302 15.1 11.3202 14.48 11.0202C12.89 10.2602 11.11 10.2602 9.51001 11.0202C8.89001 11.3202 8.3 11.7302 7.75 12.2602" stroke="#1C252E" stroke-width="1.5" stroke-linecap="round" stroke-linejoin="round"/>
</g>
<path opacity="0.4" d="M11.9955 17H12.0045" stroke="#1C252E" stroke-width="2" stroke-linecap="round" stroke-linejoin="round"/>
</svg>
