<svg width="24" height="24" viewBox="0 0 24 24" fill="none" xmlns="http://www.w3.org/2000/svg">
<path d="M12 22C17.5 22 22 17.5 22 12C22 6.5 17.5 2 12 2C6.5 2 2 6.5 2 12C2 17.5 6.5 22 12 22Z" stroke="#1C252E" stroke-width="1.5" stroke-linecap="round" stroke-linejoin="round"/>
<path opacity="0.4" d="M16.0059 11C16.558 11.0002 17.0059 11.4479 17.0059 12C17.0059 12.5521 16.558 12.9998 16.0059 13H15.9961C15.444 12.9998 14.9961 12.5522 14.9961 12C14.9961 11.4478 15.444 11.0002 15.9961 11H16.0059Z" fill="#1C252E"/>
<path opacity="0.4" d="M12.0049 11C12.557 11.0002 13.0049 11.4479 13.0049 12C13.0049 12.5521 12.557 12.9998 12.0049 13H11.9951C11.443 12.9998 10.9951 12.5522 10.9951 12C10.9951 11.4478 11.443 11.0002 11.9951 11H12.0049Z" fill="#1C252E"/>
<path opacity="0.4" d="M8.00391 11C8.556 11.0002 9.00391 11.4479 9.00391 12C9.00391 12.5521 8.556 12.9998 8.00391 13H7.99414C7.44202 12.9998 6.99414 12.5522 6.99414 12C6.99414 11.4478 7.44202 11.0002 7.99414 11H8.00391Z" fill="#1C252E"/>
</svg>
