<svg width="24" height="24" viewBox="0 0 24 24" fill="none" xmlns="http://www.w3.org/2000/svg">
<path d="M9 22H15C20 22 22 20 22 15V9C22 4 20 2 15 2H9C4 2 2 4 2 9V15C2 20 4 22 9 22Z" stroke="#1C252E" stroke-width="1.5" stroke-linecap="round" stroke-linejoin="round"/>
<g opacity="0.4">
<path d="M17.9 9.04973C15.72 8.82973 13.52 8.71973 11.33 8.71973C10.03 8.71973 8.73 8.78972 7.44 8.91972L6.10001 9.04973" stroke="#1C252E" stroke-width="1.5" stroke-linecap="round" stroke-linejoin="round"/>
<path d="M9.71002 8.38994L9.85002 7.52994C9.95002 6.90994 10.03 6.43994 11.14 6.43994H12.86C13.97 6.43994 14.05 6.92994 14.15 7.52994L14.29 8.37994" stroke="#1C252E" stroke-width="1.5" stroke-linecap="round" stroke-linejoin="round"/>
<path d="M16.49 9.12988L16.06 15.7299C15.99 16.7599 15.93 17.5599 14.1 17.5599H9.89C8.06 17.5599 7.99999 16.7599 7.92999 15.7299L7.5 9.12988" stroke="#1C252E" stroke-width="1.5" stroke-linecap="round" stroke-linejoin="round"/>
</g>
</svg>
