<svg width="24" height="24" viewBox="0 0 24 24" fill="none" xmlns="http://www.w3.org/2000/svg">
<path opacity="0.4" d="M8.68 12.7201H10.42V16.7701C10.42 17.3701 11.16 17.6501 11.56 17.2001L15.82 12.3601C16.19 11.9401 15.89 11.2801 15.33 11.2801H13.59V7.23008C13.59 6.63008 12.85 6.35008 12.45 6.80008L8.19 11.6401C7.82 12.0601 8.12 12.7201 8.68 12.7201Z" stroke="#1C252E" stroke-width="1.5" stroke-miterlimit="10" stroke-linecap="round" stroke-linejoin="round"/>
<path d="M11.97 22C17.4928 22 21.97 17.5228 21.97 12C21.97 6.47715 17.4928 2 11.97 2C6.44715 2 1.97 6.47715 1.97 12C1.97 17.5228 6.44715 22 11.97 22Z" stroke="#1C252E" stroke-width="1.5" stroke-miterlimit="10" stroke-linecap="round" stroke-linejoin="round"/>
</svg>
