<svg width="24" height="24" viewBox="0 0 24 24" fill="none" xmlns="http://www.w3.org/2000/svg">
<path d="M21.25 5C21.25 3.75736 20.2426 2.75 19 2.75C17.7574 2.75 16.75 3.75736 16.75 5C16.75 6.24264 17.7574 7.25 19 7.25C20.2426 7.25 21.25 6.24264 21.25 5ZM22.75 5C22.75 7.07107 21.0711 8.75 19 8.75C16.9289 8.75 15.25 7.07107 15.25 5C15.25 2.92893 16.9289 1.25 19 1.25C21.0711 1.25 22.75 2.92893 22.75 5Z" fill="#1C252E"/>
<path d="M1.25 15V9C1.25 6.42603 1.76026 4.4292 3.09473 3.09473C4.4292 1.76026 6.42603 1.25 9 1.25H14C14.4142 1.25 14.75 1.58579 14.75 2C14.75 2.41421 14.4142 2.75 14 2.75H9C6.57397 2.75 5.0708 3.23974 4.15527 4.15527C3.23974 5.0708 2.75 6.57397 2.75 9V15C2.75 17.426 3.23974 18.9292 4.15527 19.8447C5.0708 20.7603 6.57397 21.25 9 21.25H15C17.426 21.25 18.9292 20.7603 19.8447 19.8447C20.7603 18.9292 21.25 17.426 21.25 15V10C21.25 9.58579 21.5858 9.25 22 9.25C22.4142 9.25 22.75 9.58579 22.75 10V15C22.75 17.574 22.2397 19.5708 20.9053 20.9053C19.5708 22.2397 17.574 22.75 15 22.75H9C6.42603 22.75 4.4292 22.2397 3.09473 20.9053C1.76026 19.5708 1.25 17.574 1.25 15Z" fill="#1C252E"/>
<path d="M12.3389 13.675C12.3388 13.3413 12.226 13.0553 12.0498 12.8566C11.8736 12.658 11.6347 12.55 11.3623 12.55C11.1069 12.55 10.8498 12.6643 10.6133 13.006C10.5631 13.0785 10.5199 13.1534 10.4834 13.2248L9.81543 14.5314L9.14746 13.2248C9.11094 13.1533 9.06768 13.0784 9.01758 13.006C8.78105 12.6644 8.52399 12.55 8.26855 12.55C7.99628 12.55 7.75812 12.6581 7.58203 12.8566C7.40578 13.0553 7.293 13.3412 7.29297 13.675C7.29297 14.2631 7.66133 14.6645 8.57715 15.5148C8.94642 15.8577 9.375 16.2543 9.81543 16.7433C10.2558 16.2543 10.6844 15.8577 11.0537 15.5148C11.9695 14.6645 12.3389 14.2631 12.3389 13.675ZM13.8389 13.675C13.8389 15.0345 12.8615 15.8825 12.0742 16.6134C11.5808 17.0715 11.0604 17.5559 10.5479 18.1964C10.3738 18.414 10.1074 18.55 9.81543 18.55C9.5236 18.5499 9.25701 18.4138 9.08301 18.1964C8.57049 17.556 8.04999 17.0715 7.55664 16.6134C6.76937 15.8825 5.79297 15.0343 5.79297 13.675C5.793 13.0061 6.0201 12.3575 6.45996 11.8615C6.92305 11.3393 7.57072 11.05 8.26855 11.05C8.86733 11.05 9.3926 11.2743 9.81543 11.6554C10.2382 11.2742 10.7635 11.05 11.3623 11.05C12.0603 11.05 12.7087 11.3392 13.1719 11.8615C13.6117 12.3575 13.8388 13.0062 13.8389 13.675Z" fill="#1C252E"/>
</svg>
