<svg width="24" height="24" viewBox="0 0 24 24" fill="none" xmlns="http://www.w3.org/2000/svg">
<path d="M19.4989 1.94974C19.7917 1.65691 20.2665 1.65704 20.5594 1.94974C20.8523 2.24263 20.8523 2.71739 20.5594 3.01028L4.70981 18.8599C4.41691 19.1528 3.94215 19.1528 3.64926 18.8599C3.35656 18.567 3.35643 18.0922 3.64926 17.7993L19.4989 1.94974Z" fill="#1C252E"/>
<path d="M3.83008 9.9002C3.83008 4.5791 8.42907 0.271011 13.7607 1.43731L14.0625 1.50958C15.558 1.90121 16.8816 2.7298 17.9102 3.84063C18.1915 4.14446 18.1738 4.61875 17.8701 4.9002C17.5662 5.18162 17.091 5.16312 16.8096 4.85919C15.9068 3.88434 14.7401 3.18723 13.4395 2.90216C9.1713 1.96879 5.33008 5.40147 5.33008 9.9002C5.33011 10.8639 5.55343 11.8127 5.93848 12.702C6.10303 13.0821 5.92795 13.5237 5.54785 13.6883C5.16779 13.8527 4.72608 13.6777 4.56152 13.2977C4.10673 12.2472 3.83011 11.0962 3.83008 9.9002Z" fill="#1C252E"/>
<path d="M7.77038 18.0305V17.2697C7.36805 16.9848 6.98911 16.6593 6.62976 16.3C6.337 16.0071 6.33691 15.5323 6.62976 15.2394C6.92262 14.9467 7.39745 14.9467 7.6903 15.2394C8.08768 15.6368 8.49422 15.9688 8.91784 16.2336C9.13711 16.3706 9.27038 16.6117 9.27038 16.8703V18.0305C9.27037 18.1051 9.26787 18.1796 9.26648 18.2346C9.30911 18.2375 9.35981 18.2404 9.4198 18.2404H14.62C14.6875 18.2404 14.7367 18.2341 14.7714 18.2287C14.7718 18.2111 14.7727 18.1911 14.7723 18.1672C14.772 18.1474 14.7719 18.1295 14.7714 18.1057C14.7709 18.0845 14.7704 18.0577 14.7704 18.0305V16.8703C14.7704 16.6149 14.9001 16.3764 15.1151 16.2385C17.6642 14.6029 19.4482 11.0345 18.3446 7.5246C18.2206 7.12958 18.4399 6.70842 18.8348 6.58417C19.23 6.45992 19.651 6.68024 19.7753 7.07538C21.06 11.1617 19.116 15.2301 16.2704 17.2658V18.0305C16.2709 18.0613 16.3156 18.5469 16.118 18.9494C16.0002 19.1894 15.8064 19.4037 15.5253 19.548C15.2571 19.6856 14.9486 19.7404 14.62 19.7404H9.4198C8.87381 19.7404 8.24177 19.6394 7.92761 19.0724C7.79319 18.8298 7.77173 18.5833 7.76648 18.4289C7.76263 18.3153 7.77033 18.0797 7.77038 18.0305Z" fill="#1C252E"/>
<path d="M8.29529 21.2781C10.7192 20.5901 13.2816 20.5901 15.7054 21.2781C16.1038 21.3913 16.3351 21.8065 16.222 22.2049C16.1089 22.6034 15.6938 22.8346 15.2953 22.7215C13.1393 22.1096 10.8614 22.1096 8.70545 22.7215C8.30699 22.8346 7.89181 22.6034 7.77869 22.2049C7.6656 21.8065 7.89692 21.3913 8.29529 21.2781Z" fill="#1C252E"/>
</svg>
