<svg width="24" height="24" viewBox="0 0 24 24" fill="none" xmlns="http://www.w3.org/2000/svg">
<path d="M3.35938 9.90021C3.35938 4.56439 8.18908 0.366839 13.6963 1.40411L13.959 1.45685L13.9609 1.45782C16.4331 2.00476 18.6062 3.64459 19.7412 5.9256C21.9647 10.3938 19.7634 15.0695 16.4795 17.2801V18.0301C16.4797 18.048 16.5308 18.5527 16.3154 18.9656C16.0317 19.5095 15.4614 19.74 14.7695 19.7401H9.25977V19.7391C8.69973 19.7435 8.05256 19.6573 7.72168 19.1004C7.57441 18.8524 7.55053 18.598 7.54492 18.4402C7.54199 18.3575 7.54421 18.2766 7.5459 18.2137C7.54777 18.1442 7.5498 18.0931 7.5498 18.0399V17.2899C5.23617 15.7352 3.35946 12.9371 3.35938 9.90021ZM4.85938 9.90021C4.85947 12.4661 6.56446 14.955 8.6875 16.2381C8.91207 16.3739 9.0497 16.6173 9.0498 16.8797V18.0399C9.0498 18.1094 9.04643 18.1788 9.04492 18.2322C9.10043 18.2365 9.16915 18.2408 9.25293 18.2401H14.7695C14.87 18.24 14.9378 18.2301 14.9814 18.2215C14.9816 18.2067 14.9828 18.1897 14.9824 18.1697C14.982 18.1498 14.9811 18.1326 14.9805 18.1082C14.9799 18.0867 14.9795 18.0587 14.9795 18.0301V16.8699C14.9795 16.6073 15.117 16.3641 15.3418 16.2283C18.3211 14.4297 20.2729 10.3637 18.3975 6.59454C17.4725 4.73571 15.6854 3.37581 13.6377 2.92267V2.92169C8.97398 1.90682 4.85938 5.42139 4.85938 9.90021Z" fill="#1C252E"/>
<path d="M8.29529 21.2781C10.7192 20.5901 13.2816 20.5901 15.7054 21.2781C16.1038 21.3913 16.3351 21.8065 16.222 22.2049C16.1089 22.6034 15.6938 22.8346 15.2953 22.7215C13.1393 22.1096 10.8614 22.1096 8.70545 22.7215C8.30699 22.8346 7.89181 22.6034 7.77869 22.2049C7.6656 21.8065 7.89692 21.3913 8.29529 21.2781Z" fill="#1C252E"/>
</svg>
