<svg width="24" height="24" viewBox="0 0 24 24" fill="none" xmlns="http://www.w3.org/2000/svg">
<path d="M4.60978 10.7598V8.66016C4.60978 4.56606 7.92492 1.2502 12.019 1.25C16.0936 1.25 19.4278 4.58599 19.4389 8.6582V10.7598C19.4389 11.0061 19.4934 11.3618 19.5961 11.7354C19.6989 12.109 19.8338 12.4409 19.9613 12.6523L19.9623 12.6543L21.2328 14.7744V14.7754C22.2072 16.4042 21.4339 18.5186 19.6264 19.1211V19.1221C14.6927 20.7632 9.35596 20.7632 4.42228 19.1221V19.1211C3.50623 18.8157 2.82623 18.1775 2.52287 17.3564C2.21966 16.5357 2.32015 15.6073 2.81486 14.7764L2.81584 14.7744L4.08635 12.6543L4.08732 12.6523C4.21545 12.44 4.35009 12.1098 4.45256 11.7383C4.55494 11.367 4.60978 11.0116 4.60978 10.7598ZM6.10978 10.7598C6.10978 11.1879 6.02393 11.683 5.89885 12.1367C5.77384 12.59 5.59333 13.0601 5.3715 13.4277L4.10295 15.5459C3.81894 16.0241 3.79868 16.4798 3.9301 16.8359C4.06176 17.1923 4.373 17.5236 4.89689 17.6982H4.89592C9.522 19.237 14.5257 19.2369 19.1518 17.6982C20.0442 17.4008 20.431 16.356 19.9457 15.5449V15.5459L18.6772 13.4277L18.5961 13.2842C18.411 12.9407 18.2589 12.5295 18.1498 12.1328C18.025 11.6789 17.9389 11.1834 17.9389 10.7598V8.66211L17.9311 8.35938C17.7636 5.25036 15.1629 2.75 12.019 2.75C8.75335 2.7502 6.10978 5.39449 6.10978 8.66016V10.7598Z" fill="#1C252E"/>
<path d="M11.25 9.77002V6.43994C11.25 6.02573 11.5858 5.68994 12 5.68994C12.4142 5.68994 12.75 6.02573 12.75 6.43994V9.77002C12.75 10.1842 12.4142 10.52 12 10.52C11.5858 10.52 11.25 10.1842 11.25 9.77002Z" fill="#1C252E"/>
<path d="M9.41992 18.82C9.41992 19.5201 9.71334 20.172 10.1807 20.6393C10.648 21.1066 11.2999 21.4001 12 21.4001C13.4158 21.4 14.5801 20.2358 14.5801 18.82H16.0801C16.0801 21.0642 14.2442 22.9 12 22.9001C10.8801 22.9001 9.85181 22.4326 9.11914 21.6999C8.38673 20.9672 7.91992 19.9397 7.91992 18.82H9.41992Z" fill="#1C252E"/>
</svg>
