<svg width="24" height="24" viewBox="0 0 24 24" fill="none" xmlns="http://www.w3.org/2000/svg">
<path d="M17.2703 8.91C17.2703 6.02422 14.9061 3.66 12.0203 3.66C9.12457 3.66004 6.77032 6.01424 6.77032 8.91V11.7997C6.77032 12.195 6.68868 12.6513 6.57403 13.0643C6.45932 13.4775 6.29482 13.908 6.09454 14.244L6.09259 14.2469L4.94317 16.1571C4.69442 16.5706 4.68028 16.9556 4.78985 17.2518C4.89988 17.5489 5.16337 17.8342 5.62091 17.9891H5.61993C9.77517 19.377 14.2578 19.3774 18.4129 17.9891L18.4149 17.9881C19.1657 17.7399 19.5016 16.8465 19.0877 16.1561L17.9383 14.2469L17.9305 14.2352C17.7384 13.9023 17.5777 13.4746 17.4647 13.0623C17.3518 12.6509 17.2703 12.1948 17.2703 11.7997V8.91ZM18.7703 11.7997C18.7703 12.0145 18.8188 12.3298 18.9109 12.6659C19.0029 13.0009 19.1224 13.2982 19.2303 13.4852H19.2293L20.3729 15.3827L20.3738 15.3846C21.2787 16.8935 20.5548 18.8573 18.8875 19.41L18.8885 19.411C14.4242 20.9025 9.60664 20.9025 5.14239 19.411L5.13946 19.41C4.29748 19.1249 3.66608 18.5358 3.3836 17.7733C3.10082 17.0096 3.19703 16.1498 3.65802 15.3836V15.3827L4.80743 13.4735C4.91676 13.2893 5.03633 12.9957 5.12872 12.6629C5.22154 12.3285 5.27032 12.0143 5.27032 11.7997V8.91C5.27032 5.18581 8.29614 2.16004 12.0203 2.16C15.7345 2.16 18.7703 5.19579 18.7703 8.91V11.7997Z" fill="#1C252E"/>
<path d="M12.0195 1.19C13.1766 1.19 14.1689 1.90705 14.5683 2.92633C14.6726 3.19238 14.6164 3.49459 14.4238 3.70563C14.2312 3.91659 13.9354 3.99998 13.6611 3.92047C13.3837 3.83993 13.103 3.77908 12.8193 3.74469H12.8173C11.9529 3.63664 11.1353 3.70057 10.3789 3.92047C10.1045 4.00005 9.80881 3.91657 9.61616 3.70563C9.42344 3.49458 9.36734 3.19243 9.47163 2.92633C9.87104 1.90718 10.8625 1.19016 12.0195 1.19Z" fill="#1C252E"/>
<path d="M9.76953 19.06C9.76953 19.6725 10.0242 20.2443 10.4297 20.6498C10.8352 21.0554 11.407 21.31 12.0195 21.31C13.2553 21.31 14.2695 20.2958 14.2695 19.06H15.7695C15.7695 21.1242 14.0837 22.81 12.0195 22.81C10.992 22.81 10.0436 22.3849 9.36914 21.7104C8.69467 21.0359 8.26953 20.0875 8.26953 19.06H9.76953Z" fill="#1C252E"/>
</svg>
