<svg width="24" height="24" viewBox="0 0 24 24" fill="none" xmlns="http://www.w3.org/2000/svg">
<path d="M21.25 5C21.25 3.75736 20.2426 2.75 19 2.75C17.7574 2.75 16.75 3.75736 16.75 5C16.75 6.24264 17.7574 7.25 19 7.25C20.2426 7.25 21.25 6.24264 21.25 5ZM22.75 5C22.75 7.07107 21.0711 8.75 19 8.75C16.9289 8.75 15.25 7.07107 15.25 5C15.25 2.92893 16.9289 1.25 19 1.25C21.0711 1.25 22.75 2.92893 22.75 5Z" fill="#1C252E"/>
<path d="M1.25 12C1.25 6.06579 6.06579 1.25 12 1.25C12.7414 1.25 13.4601 1.32501 14.165 1.46387C14.5714 1.54392 14.8358 1.93841 14.7559 2.34473C14.6758 2.75113 14.2814 3.0156 13.875 2.93555C13.26 2.81441 12.6385 2.75 12 2.75C6.89421 2.75 2.75 6.89421 2.75 12C2.75 17.1058 6.89421 21.25 12 21.25C17.1058 21.25 21.25 17.1058 21.25 12C21.25 11.3711 21.1856 10.751 21.0654 10.1592C20.983 9.75339 21.2447 9.35801 21.6504 9.27539C22.0562 9.19296 22.4526 9.4546 22.5352 9.86035C22.6749 10.5485 22.75 11.2689 22.75 12C22.75 17.9342 17.9342 22.75 12 22.75C6.06579 22.75 1.25 17.9342 1.25 12Z" fill="#1C252E"/>
</svg>
