<svg width="24" height="24" viewBox="0 0 24 24" fill="none" xmlns="http://www.w3.org/2000/svg">
<path d="M3.35938 9.90027C3.35938 4.56445 8.18908 0.3669 13.6963 1.40417L13.959 1.45691L13.9609 1.45789C16.4331 2.00482 18.6062 3.64465 19.7412 5.92566C21.9647 10.3938 19.7634 15.0696 16.4795 17.2802V18.0302C16.4797 18.0481 16.5308 18.5528 16.3154 18.9657C16.0317 19.5096 15.4614 19.7401 14.7695 19.7401H9.25977V19.7391C8.69973 19.7435 8.05256 19.6573 7.72168 19.1005C7.57441 18.8524 7.55053 18.5981 7.54492 18.4403C7.54199 18.3576 7.54421 18.2766 7.5459 18.2137C7.54777 18.1443 7.5498 18.0932 7.5498 18.0399V17.2899C5.23617 15.7352 3.35946 12.9372 3.35938 9.90027ZM4.85938 9.90027C4.85947 12.4661 6.56446 14.9551 8.6875 16.2382C8.91207 16.3739 9.0497 16.6173 9.0498 16.8798V18.0399C9.0498 18.1095 9.04643 18.1789 9.04492 18.2323C9.10043 18.2365 9.16915 18.2409 9.25293 18.2401H14.7695C14.87 18.2401 14.9378 18.2302 14.9814 18.2216C14.9816 18.2067 14.9828 18.1898 14.9824 18.1698C14.982 18.1499 14.9811 18.1327 14.9805 18.1083C14.9799 18.0867 14.9795 18.0588 14.9795 18.0302V16.87C14.9795 16.6074 15.117 16.3642 15.3418 16.2284C18.3211 14.4298 20.2729 10.3637 18.3975 6.5946C17.4725 4.73577 15.6854 3.37588 13.6377 2.92273V2.92175C8.97398 1.90688 4.85938 5.42145 4.85938 9.90027Z" fill="#1C252E"/>
<path d="M11.25 14.5V14.4375C11.25 14.0233 11.5858 13.6875 12 13.6875C12.4142 13.6875 12.75 14.0233 12.75 14.4375V14.5C12.75 14.9142 12.4142 15.25 12 15.25C11.5858 15.25 11.25 14.9142 11.25 14.5ZM11.25 12.5V12.4414C11.25 11.5803 11.7367 10.7933 12.5068 10.4082C12.9623 10.1804 13.25 9.71436 13.25 9.20508V8.99414C13.25 8.30866 12.6914 7.75 12.0029 7.75C11.3111 7.75007 10.75 8.31119 10.75 9C10.75 9.41421 10.4142 9.75 10 9.75C9.58579 9.75 9.25 9.41421 9.25 9C9.25 7.47977 10.4857 6.25007 12.0029 6.25C13.5168 6.25 14.75 7.47724 14.75 8.99414V9.20508C14.75 10.2825 14.1414 11.2681 13.1777 11.75C12.9158 11.881 12.75 12.1485 12.75 12.4414V12.5C12.75 12.9142 12.4142 13.25 12 13.25C11.5858 13.25 11.25 12.9142 11.25 12.5Z" fill="#1C252E"/>
<path d="M8.29529 21.2781C10.7192 20.5901 13.2816 20.5901 15.7054 21.2781C16.1038 21.3913 16.3351 21.8064 16.222 22.2048C16.1089 22.6033 15.6938 22.8345 15.2953 22.7214C13.1393 22.1095 10.8614 22.1095 8.70545 22.7214C8.30699 22.8345 7.89181 22.6033 7.77869 22.2048C7.6656 21.8064 7.89692 21.3913 8.29529 21.2781Z" fill="#1C252E"/>
</svg>
