<svg width="24" height="24" viewBox="0 0 24 24" fill="none" xmlns="http://www.w3.org/2000/svg">
<path opacity="0.4" d="M19.8333 11.243C20.56 10.163 21 9.01229 21 7.6254C21 6.12136 20.5075 4.71908 19.6132 3.67689C18.6853 2.59553 17.3986 2 15.9902 2C14.4207 2 13.0496 2.80855 12.0253 4.33819C11.8164 4.65014 11.6425 4.96176 11.5 5.24984C11.3575 4.96176 11.1836 4.65014 10.9747 4.33819C9.95039 2.80855 8.57934 2 7.00977 2C5.60135 2 4.3147 2.59553 3.38681 3.67689C2.49252 4.71908 2 6.12136 2 7.6254C2 10.5469 3.95289 12.4208 6.42478 14.7927C7.85387 16.164 9.47363 17.7183 11.0734 19.7845C11.1792 19.9211 11.3353 20 11.5 20C11.6647 20 11.8208 19.9211 11.9266 19.7845C12.2073 19.422 12.4886 19.0752 12.7693 18.7424" stroke="#1C252E" stroke-width="1.5"/>
<path d="M16 22C15.896 22 15.7974 21.9518 15.7306 21.8683C14.7201 20.6055 13.697 19.6556 12.7943 18.8175C11.2331 17.368 10 16.2231 10 14.4377C10 13.5186 10.3111 12.6617 10.8759 12.0248C11.4619 11.3639 12.2745 11 13.1641 11C14.1554 11 15.0213 11.4941 15.6682 12.4289C15.8001 12.6195 15.91 12.81 16 12.986C16.09 12.81 16.1999 12.6195 16.3318 12.4289C16.9787 11.4941 17.8446 11 18.8359 11C19.7255 11 20.5381 11.3639 21.1241 12.0248C21.6889 12.6617 22 13.5186 22 14.4377C22 16.2231 20.7669 17.368 19.2057 18.8175C18.303 19.6556 17.2799 20.6055 16.2694 21.8683C16.2026 21.9518 16.104 22 16 22Z" stroke="#1C252E" stroke-width="1.5"/>
</svg>
