<svg width="24" height="24" viewBox="0 0 24 24" fill="none" xmlns="http://www.w3.org/2000/svg">
<path d="M12 22C17.5228 22 22 17.5228 22 12C22 6.47715 17.5228 2 12 2C6.47715 2 2 6.47715 2 12C2 17.5228 6.47715 22 12 22Z" stroke="#1C252E" stroke-width="1.5" stroke-linecap="round" stroke-linejoin="round"/>
<path opacity="0.4" d="M12 17.95C11.9047 17.95 11.8143 17.9066 11.753 17.8315C10.8267 16.695 9.88888 15.8401 9.06145 15.0858C7.63036 13.7813 6.5 12.7508 6.5 11.144C6.5 10.3168 6.78514 9.54555 7.30289 8.97234C7.84009 8.37759 8.58499 8.05005 9.40039 8.05005C10.3091 8.05005 11.1029 8.49475 11.6959 9.33605C11.8168 9.50762 11.9175 9.67902 12 9.83746C12.0825 9.67902 12.1832 9.50762 12.3041 9.33605C12.8971 8.49475 13.6909 8.05005 14.5996 8.05005C15.415 8.05005 16.1599 8.37759 16.6971 8.97234C17.2149 9.54555 17.5 10.3168 17.5 11.144C17.5 12.7508 16.3696 13.7812 14.9385 15.0858C14.1111 15.8401 13.1733 16.695 12.247 17.8315C12.1857 17.9066 12.0953 17.95 12 17.95Z" stroke="#1C252E" stroke-width="1.5"/>
</svg>
