<svg width="24" height="24" viewBox="0 0 24 24" fill="none" xmlns="http://www.w3.org/2000/svg">
<path d="M22.0004 17.2C22.0004 19.85 19.8504 22 17.2004 22C15.7804 22 14.5104 21.38 13.6304 20.4C12.8704 19.55 12.4004 18.43 12.4004 17.2C12.4004 14.55 14.5504 12.4 17.2004 12.4C18.5704 12.4 19.8104 12.98 20.6904 13.91C20.6804 13.91 20.6804 13.91 20.6904 13.92C21.5004 14.78 22.0004 15.93 22.0004 17.2Z" stroke="#1C252E" stroke-width="1.5" stroke-miterlimit="10" stroke-linecap="round" stroke-linejoin="round"/>
<path d="M18.4802 18.54L15.9502 16" stroke="#1C252E" stroke-width="1.5" stroke-miterlimit="10" stroke-linecap="round" stroke-linejoin="round"/>
<path d="M18.45 16.03L15.9199 18.57" stroke="#1C252E" stroke-width="1.5" stroke-miterlimit="10" stroke-linecap="round" stroke-linejoin="round"/>
<path opacity="0.4" d="M13.2856 19.9944C13.0081 20.3084 12.7303 20.6348 12.4529 20.975C12.3416 21.1116 12.1772 21.1906 12.0039 21.1906C11.8306 21.1906 11.6662 21.1116 11.5549 20.9751C9.87088 18.9089 8.16587 17.3546 6.66158 15.9833C4.05959 13.6114 2.00391 11.7375 2.00391 8.81595C2.00391 7.31191 2.52234 5.90964 3.46371 4.86744C4.44043 3.78608 5.7948 3.19055 7.27734 3.19055C8.92953 3.19055 10.3727 3.99911 11.4509 5.52874C11.6708 5.84069 11.8539 6.15232 12.0039 6.4404C12.1539 6.15232 12.337 5.84069 12.5569 5.52874C13.6351 3.99911 15.0783 3.19055 16.7305 3.19055C18.213 3.19055 19.5674 3.78608 20.5441 4.86744C21.4855 5.90964 22.0039 7.31191 22.0039 8.81595C22.0039 10.5966 21.2404 11.988 20.0549 13.3401" stroke="#1C252E" stroke-width="1.5"/>
</svg>
