<svg width="24" height="24" viewBox="0 0 24 24" fill="none" xmlns="http://www.w3.org/2000/svg">
<path d="M18 18.86H17.24C16.44 18.86 15.68 19.17 15.12 19.73L13.41 21.42C12.63 22.19 11.36 22.19 10.58 21.42L8.87 19.73C8.31 19.17 7.54 18.86 6.75 18.86H6C4.34 18.86 3 17.53 3 15.89V4.97998C3 3.33998 4.34 2.01001 6 2.01001H18C19.66 2.01001 21 3.33998 21 4.97998V15.89C21 17.52 19.66 18.86 18 18.86Z" stroke="#1C252E" stroke-width="1.5" stroke-miterlimit="10" stroke-linecap="round" stroke-linejoin="round"/>
<path opacity="0.4" d="M12 15.5C11.9133 15.5 11.8312 15.4605 11.7755 15.3923C10.9334 14.359 10.0808 13.5819 9.32859 12.8961C8.0276 11.7102 7 10.7735 7 9.3127C7 8.56068 7.25922 7.85954 7.7299 7.33845C8.21826 6.79776 8.89545 6.5 9.63672 6.5C10.4628 6.5 11.1844 6.90428 11.7235 7.6691C11.8335 7.82507 11.925 7.98088 12 8.12492C12.075 7.98088 12.1665 7.82507 12.2765 7.6691C12.8156 6.90428 13.5372 6.5 14.3633 6.5C15.1046 6.5 15.7817 6.79776 16.2701 7.33845C16.7408 7.85954 17 8.56068 17 9.3127C17 10.7735 15.9724 11.7102 14.6714 12.8961C13.9192 13.5818 13.0666 14.359 12.2245 15.3922C12.1688 15.4605 12.0867 15.5 12 15.5Z" stroke="#1C252E" stroke-width="1.5"/>
</svg>
