<svg width="24" height="24" viewBox="0 0 24 24" fill="none" xmlns="http://www.w3.org/2000/svg">
<path d="M4 18.9C4 20.61 5.40001 22 7.10001 22H16.9C18.61 22 20 20.61 20 18.9V5.10001C20 3.39001 18.6 2 16.9 2H7.10001C5.39001 2 4 3.40001 4 5.10001V15" stroke="#1C252E" stroke-width="1.5" stroke-linecap="round" stroke-linejoin="round"/>
<path d="M18.5 13C19.33 13 20 12.33 20 11.5V9.5C20 8.67 19.33 8 18.5 8H5.5C4.67 8 4 8.67 4 9.5V11.5C4 12.33 4.67 13 5.5 13H14.5" stroke="#1C252E" stroke-width="1.5" stroke-linecap="round" stroke-linejoin="round"/>
<path d="M8.49451 17.7H8.50349" stroke="#1C252E" stroke-width="2.5" stroke-linecap="round" stroke-linejoin="round"/>
<path d="M15.4945 17.7H15.5035" stroke="#1C252E" stroke-width="2.5" stroke-linecap="round" stroke-linejoin="round"/>
<path d="M9.5 5H14.5" stroke="#1C252E" stroke-width="1.5" stroke-linecap="round" stroke-linejoin="round"/>
</svg>
