<svg width="24" height="24" viewBox="0 0 24 24" fill="none" xmlns="http://www.w3.org/2000/svg">
<path d="M8.5 8.77406L9.69023 8.25999C9.85023 8.18999 9.99023 7.97999 9.99023 7.79999V4.79999C9.99023 3.85999 10.6802 2.73999 11.5202 2.30999C11.8202 2.15999 12.1702 2.15999 12.4702 2.30999C13.3102 2.73999 14.0002 3.84999 14.0002 4.78999V7.78999C14.0002 7.96999 14.1402 8.17999 14.3002 8.24999L19.8902 10.66C20.5102 10.92 21.0102 11.69 21.0102 12.36V13.65C21.0102 14.49 20.3802 14.9 19.6102 14.57L14.7002 12.45C14.3102 12.29 14.0002 12.49 14.0002 12.91V15.76C14.0002 15.99 14.1302 16.31 14.3002 16.47L16.5702 18.75C16.8102 18.99 16.9202 19.46 16.8102 19.78L16.3702 21.11C16.1702 21.69 15.5102 21.96 14.9702 21.69L12.6402 19.73C12.2902 19.43 11.7102 19.43 11.3602 19.73L9.03023 21.69C8.48023 21.97 7.82023 21.69 7.64023 21.11L7.20023 19.78C7.09023 19.45 7.20023 18.99 7.44023 18.75L9.71023 16.47C9.87023 16.31 10.0002 15.99 10.0002 15.76V12.91C10.0002 12.49 9.68023 12.28 9.30023 12.45L4.39023 14.57C3.62023 14.9 2.99023 14.49 2.99023 13.65V12.36C2.99023 11.69 3.49023 10.92 4.11023 10.67L5 10.2857" stroke="#1C252E" stroke-width="1.5" stroke-linecap="round" stroke-linejoin="round"/>
</svg>
