<svg width="24" height="24" viewBox="0 0 24 24" fill="none" xmlns="http://www.w3.org/2000/svg">
<path d="M17.6995 11.03C18.1495 11.22 18.5095 11.78 18.5095 12.26V13.19C18.5095 13.79 18.0495 14.09 17.4995 13.85L14.1495 12.41C13.7595 12.25 13.4495 12.45 13.4495 12.87V14.72C13.4495 14.88 13.5395 15.11 13.6595 15.23L15.2995 16.88C15.4695 17.05 15.5495 17.39 15.4695 17.62L15.1495 18.58C15.0095 19 14.5295 19.2 14.1395 19L12.4695 17.58C12.2095 17.37 11.7895 17.37 11.5395 17.58L9.85953 19C9.45953 19.2 8.98953 19 8.84953 18.57L8.52953 17.61C8.44953 17.38 8.52953 17.04 8.69953 16.87L10.3695 15.23C10.4795 15.12 10.5795 14.89 10.5795 14.72V12.87C10.5795 12.45 10.2595 12.24 9.87953 12.41L6.52953 13.85C5.96953 14.09 5.51953 13.79 5.51953 13.19V12.26C5.51953 11.78 5.88953 11.22 6.32953 11.03L10.2695 9.32999C10.4295 9.25999 10.5695 9.04999 10.5695 8.86999V6.79999C10.5695 6.11999 11.0595 5.30999 11.6695 5.00999C11.8895 4.89999 12.1395 4.89999 12.3595 5.00999C12.9595 5.31999 13.4595 6.11999 13.4595 6.79999V8.86999C13.4595 9.04999 13.5895 9.25999 13.7595 9.32999L14.8188 9.78703" stroke="#1C252E" stroke-width="1.5" stroke-linecap="round" stroke-linejoin="round"/>
<path d="M2.10877 7.15969C2.58589 3.50279 4.66585 2 9 2H15C20 2 22 4 22 9V15C22 20 20 22 15 22H9C4 22 2 20 2 15V13" stroke="#1C252E" stroke-width="1.5" stroke-linecap="round" stroke-linejoin="round"/>
</svg>
