<svg width="24" height="24" viewBox="0 0 24 24" fill="none" xmlns="http://www.w3.org/2000/svg">
<path d="M12.1398 7.62C13.9998 7.62 14.4098 8.55001 14.6598 9.70001L15.5098 13.75H3.50977L4.35977 9.70001C4.58977 8.55001 5.00977 7.62 6.86977 7.62H8.6141" stroke="#1C252E" stroke-width="1.5" stroke-linecap="round" stroke-linejoin="round"/>
<path d="M2.41013 15.79C2.52013 14.66 2.73012 13.74 4.70012 13.74H14.2701C16.2401 13.74 16.4501 14.66 16.5601 15.79L16.9901 20.36C17.0701 21.24 16.3701 22 15.4701 22H14.0601C13.2501 22 13.1401 21.65 12.9901 21.23L12.8401 20.78C12.6301 20.17 12.4901 19.75 11.4101 19.75H7.57013C6.49013 19.75 6.33012 20.22 6.14012 20.78L5.99013 21.23C5.85013 21.66 5.74012 22 4.92012 22H3.51012C2.61012 22 1.90013 21.24 1.99013 20.36L2.11511 19" stroke="#1C252E" stroke-width="1.5" stroke-linecap="round" stroke-linejoin="round"/>
<path d="M3.5 11.5H2.75" stroke="#1C252E" stroke-width="1.5" stroke-linecap="round" stroke-linejoin="round"/>
<path d="M16.25 11.5H15.5" stroke="#1C252E" stroke-width="1.5" stroke-linecap="round" stroke-linejoin="round"/>
<path d="M5 16.75H7.25" stroke="#1C252E" stroke-width="1.5" stroke-linecap="round" stroke-linejoin="round"/>
<path d="M11.75 16.75H14" stroke="#1C252E" stroke-width="1.5" stroke-linecap="round" stroke-linejoin="round"/>
<path d="M18.7092 8.73998C18.9892 8.08998 18.8891 7.20999 18.3691 6.43999C17.8591 5.66999 17.0791 5.23999 16.3691 5.24999" stroke="#1C252E" stroke-width="1.5" stroke-linecap="round" stroke-linejoin="round"/>
<path d="M21.8206 9.72998C22.2406 8.21998 21.9406 6.37002 20.8706 4.77002M16.6406 2C17.1411 2.06096 17.6458 2.20325 18.1357 2.42125" stroke="#1C252E" stroke-width="1.5" stroke-linecap="round" stroke-linejoin="round"/>
</svg>
