<svg width="24" height="24" viewBox="0 0 24 24" fill="none" xmlns="http://www.w3.org/2000/svg">
<path d="M22 10V15C22 20 20 22 15 22H9C4 22 2 20 2 15V9C2 4 4 2 9 2H14" stroke="#1C252E" stroke-width="1.5" stroke-linecap="round" stroke-linejoin="round"/>
<path d="M22 10H18C15 10 14 9 14 6V2L22 10Z" stroke="#1C252E" stroke-width="1.5" stroke-linecap="round" stroke-linejoin="round"/>
<path opacity="0.4" d="M9.41477 18.3258C9.36442 18.3258 9.31666 18.3025 9.28432 18.2621C8.79507 17.6507 8.29971 17.1908 7.86268 16.785C7.1068 16.0832 6.50977 15.5289 6.50977 14.6644C6.50977 14.2194 6.66037 13.8045 6.93384 13.4962C7.21758 13.1762 7.61102 13 8.0417 13C8.52166 13 8.94091 13.2392 9.25413 13.6918C9.318 13.7841 9.37119 13.8763 9.41477 13.9616C9.45833 13.8763 9.51153 13.7841 9.5754 13.6918C9.88862 13.2392 10.3079 13 10.7878 13C11.2185 13 11.612 13.1762 11.8957 13.4962C12.1692 13.8045 12.3198 14.2194 12.3198 14.6644C12.3198 15.5289 11.7227 16.0832 10.9669 16.785C10.5298 17.1907 10.0345 17.6507 9.54521 18.2621C9.51287 18.3025 9.46512 18.3258 9.41477 18.3258Z" stroke="#1C252E" stroke-width="1.5"/>
</svg>
