<svg width="24" height="24" viewBox="0 0 24 24" fill="none" xmlns="http://www.w3.org/2000/svg">
<path d="M21 7V17C21 20 19.5 22 16 22H8C4.5 22 3 20 3 17V7C3 4 4.5 2 8 2H16C19.5 2 21 4 21 7Z" stroke="#1C252E" stroke-width="1.5" stroke-miterlimit="10" stroke-linecap="round" stroke-linejoin="round"/>
<path opacity="0.4" d="M14.5 4.5V6.5C14.5 7.6 15.4 8.5 16.5 8.5H18.5" stroke="#1C252E" stroke-width="1.5" stroke-miterlimit="10" stroke-linecap="round" stroke-linejoin="round"/>
<path opacity="0.4" d="M10.2732 18.0302C10.2228 18.0302 10.1751 18.0068 10.1427 17.9664C9.65347 17.355 9.15811 16.8951 8.72108 16.4893C7.9652 15.7875 7.36816 15.2332 7.36816 14.3688C7.36816 13.9238 7.51877 13.5089 7.79224 13.2005C8.07597 12.8805 8.46942 12.7043 8.9001 12.7043C9.38006 12.7043 9.79931 12.9436 10.1125 13.3962C10.1764 13.4885 10.2296 13.5807 10.2732 13.6659C10.3167 13.5807 10.3699 13.4885 10.4338 13.3962C10.747 12.9436 11.1663 12.7043 11.6462 12.7043C12.0769 12.7043 12.4704 12.8805 12.7541 13.2005C13.0276 13.5089 13.1782 13.9238 13.1782 14.3688C13.1782 15.2332 12.5811 15.7875 11.8253 16.4893C11.3882 16.8951 10.8929 17.355 10.4036 17.9664C10.3713 18.0068 10.3235 18.0302 10.2732 18.0302Z" stroke="#1C252E" stroke-width="1.5"/>
</svg>
