<svg width="24" height="24" viewBox="0 0 24 24" fill="none" xmlns="http://www.w3.org/2000/svg">
<path d="M22.9999 15.22C22.5899 15.22 22.2499 15.56 22.2499 15.97C22.2499 18.93 20.1899 21.41 17.4199 22.06L17.6899 21.61C17.8999 21.25 17.7899 20.79 17.4299 20.58C17.0799 20.37 16.6099 20.48 16.3999 20.84L15.3499 22.59C15.2099 22.82 15.2099 23.11 15.3399 23.34C15.4699 23.58 15.7199 23.72 15.9899 23.72C20.2599 23.72 23.7399 20.24 23.7399 15.97C23.7499 15.56 23.4099 15.22 22.9999 15.22Z" fill="#1C252E"/>
<path d="M8 0.220001C3.73 0.220001 0.25 3.7 0.25 7.97C0.25 8.38 0.59 8.72 1 8.72C1.41 8.72 1.75 8.38 1.75 7.97C1.75 5.01 3.81 2.53 6.58 1.88L6.31 2.33C6.1 2.69 6.21 3.15 6.57 3.36C6.92 3.57 7.39 3.46 7.6 3.1L8.65 1.35C8.78 1.12 8.79 0.840001 8.65 0.600001C8.52 0.370001 8.27 0.220001 8 0.220001Z" fill="#1C252E"/>
<path d="M21.5 8.67C21.5 11.75 19.26 14.29 16.33 14.76C16.33 14.75 16.33 14.75 16.33 14.74C16.04 11.01 13.02 7.97 9.23999 7.67C9.70999 4.74 12.25 2.5 15.33 2.5C18.74 2.5 21.5 5.26 21.5 8.67Z" fill="#1C252E"/>
<path d="M9.81012 14.2C9.81012 14.05 9.64012 13.82 9.43012 13.82H7.37012V14.57H9.43012C9.64012 14.58 9.81012 14.41 9.81012 14.2Z" fill="#1C252E"/>
<path d="M9.83012 16.08H9.43012H7.37012V16.83H9.84012C10.1601 16.83 10.3801 16.63 10.3801 16.45C10.3801 16.27 10.1501 16.08 9.83012 16.08Z" fill="#1C252E"/>
<path d="M14.83 14.85C14.6 11.82 12.18 9.39999 9.15 9.16999C8.99 9.15999 8.84 9.14999 8.67 9.14999C5.26 9.14999 2.5 11.91 2.5 15.33C2.5 18.74 5.26 21.5 8.67 21.5C12.08 21.5 14.85 18.74 14.85 15.33C14.85 15.16 14.84 15.01 14.83 14.85ZM9.83 18.33H9.17V18.71C9.17 19.12 8.83 19.46 8.42 19.46C8.01 19.46 7.67 19.12 7.67 18.71V18.33H6.62C6.21 18.33 5.87 17.99 5.87 17.58V15.33V13.08C5.87 12.67 6.21 12.33 6.62 12.33H7.67V11.95C7.67 11.54 8.01 11.2 8.42 11.2C8.83 11.2 9.17 11.54 9.17 11.95V12.33H9.43C10.43 12.33 11.31 13.21 11.31 14.21C11.31 14.5 11.24 14.77 11.12 15.02C11.58 15.36 11.87 15.88 11.87 16.46C11.87 17.49 10.96 18.33 9.83 18.33Z" fill="#1C252E"/>
</svg>
