<svg width="24" height="24" viewBox="0 0 24 24" fill="none" xmlns="http://www.w3.org/2000/svg">
<path d="M8.77011 14.43L10.3801 15.15C11.4101 15.61 12.5901 15.61 13.6301 15.15L15.2401 14.43C16.6801 13.79 18.0101 15.53 17.0101 16.75L13.5501 20.98C12.7001 22.02 11.3101 22.02 10.4501 20.98L7.00011 16.75C5.99011 15.53 7.32011 13.79 8.77011 14.43Z" fill="#1C252E"/>
<path d="M8.57002 11.67C8.27002 11.89 8.31003 12.35 8.65003 12.52L11 13.69C11.55 13.97 12.44 13.97 12.98 13.69L15.33 12.52C15.66 12.35 15.7 11.9 15.41 11.67L12.3 9.32998C12.12 9.19998 11.88 9.19998 11.7 9.32998L8.57002 11.67Z" fill="#1C252E"/>
<path d="M17.8801 8.24002L13.7101 3.04002C13.6301 2.94002 13.5401 2.85002 13.4501 2.76002C13.1901 2.51002 12.8201 2.74002 12.8201 3.10002V7.40002C12.8201 7.56002 12.8901 7.71002 13.0201 7.80002L17.1701 10.92L17.3501 11.05C17.5301 11.18 17.7801 11.18 17.9301 11.02C18.6301 10.26 18.6201 9.16002 17.8801 8.24002Z" fill="#1C252E"/>
<path d="M6.1101 8.33003L10.2601 3.05003C10.3401 2.95003 10.4201 2.86003 10.5101 2.77003C10.7701 2.52003 11.1401 2.74003 11.1401 3.11003V7.48003C11.1401 7.64003 11.0701 7.78003 10.9401 7.88003L6.8101 11.05L6.6401 11.18C6.4601 11.31 6.2101 11.31 6.0501 11.14C5.3701 10.37 5.3801 9.27003 6.1101 8.33003Z" fill="#1C252E"/>
</svg>
