<svg width="24" height="24" viewBox="0 0 24 24" fill="none" xmlns="http://www.w3.org/2000/svg">
<path d="M17.3895 15.67L13.3495 12H10.6395L6.59949 15.67C5.46949 16.69 5.09949 18.26 5.64949 19.68C6.19949 21.09 7.53949 22 9.04949 22H14.9395C16.4595 22 17.7895 21.09 18.3395 19.68C18.8895 18.26 18.5195 16.69 17.3895 15.67Z" fill="#1C252E"/>
<path d="M14.9506 2C16.4606 2 17.8006 2.91 18.3506 4.32C18.8906 5.74 18.5206 7.31 17.4006 8.33L13.3606 12H10.6506L6.61065 8.33C5.48065 7.31 5.11065 5.74 5.65065 4.32C6.20065 2.91 7.54065 2 9.05065 2H14.9506Z" fill="#1C252E"/>
</svg>
