<svg width="24" height="24" viewBox="0 0 24 24" fill="none" xmlns="http://www.w3.org/2000/svg">
<path d="M12 8.25C10.21 8.25 8.75 9.71 8.75 11.5C8.75 13.29 10.21 14.75 12 14.75C13.79 14.75 15.25 13.29 15.25 11.5C15.25 9.71 13.79 8.25 12 8.25ZM13 11.18C13 11.79 12.67 12.37 12.15 12.68L11.38 13.14C11.26 13.21 11.13 13.25 10.99 13.25C10.74 13.25 10.49 13.12 10.35 12.89C10.14 12.53 10.25 12.07 10.61 11.86L11.37 11.4C11.45 11.35 11.49 11.27 11.49 11.19V10.26C11.49 9.85 11.83 9.51 12.24 9.51C12.65 9.51 13 9.84 13 10.25V11.18Z" fill="#1C252E"/>
<path d="M18.5408 4.17001L13.0408 2.11001C12.4708 1.90001 11.5408 1.90001 10.9708 2.11001L5.47078 4.17001C4.41078 4.57001 3.55078 5.81001 3.55078 6.94001V15.04C3.55078 15.85 4.08078 16.92 4.73078 17.4L10.2308 21.51C11.2008 22.24 12.7908 22.24 13.7608 21.51L19.2608 17.4C19.9108 16.91 20.4408 15.85 20.4408 15.04V6.94001C20.4508 5.81001 19.5908 4.57001 18.5408 4.17001ZM12.0008 16.25C9.38078 16.25 7.25078 14.12 7.25078 11.5C7.25078 8.88001 9.38078 6.75001 12.0008 6.75001C14.6208 6.75001 16.7508 8.88001 16.7508 11.5C16.7508 14.12 14.6208 16.25 12.0008 16.25Z" fill="#1C252E"/>
</svg>
