<svg width="24" height="24" viewBox="0 0 24 24" fill="none" xmlns="http://www.w3.org/2000/svg">
<path d="M1.25 17V7C1.25 5.00536 1.48122 3.45823 2.46973 2.46973C3.45823 1.48122 5.00536 1.25 7 1.25H8.5C9.31472 1.25 9.92799 1.36769 10.4346 1.67188C10.9235 1.96557 11.2329 2.39387 11.5 2.75L12.9971 4.74609C13.207 5.02236 13.273 5.09564 13.3555 5.14551C13.4183 5.18349 13.5677 5.25 14 5.25H17C18.9946 5.25 20.5418 5.48122 21.5303 6.46973C22.5188 7.45823 22.75 9.00536 22.75 11V13C22.75 13.4142 22.4142 13.75 22 13.75C21.5858 13.75 21.25 13.4142 21.25 13V11C21.25 8.99464 20.9812 8.04177 20.4697 7.53027C19.9582 7.01878 19.0054 6.75 17 6.75H14C13.4323 6.75 12.9712 6.6667 12.5791 6.42969C12.2069 6.20464 11.9727 5.87793 11.8027 5.6543L10.2998 3.65039C9.99691 3.24653 9.85571 3.07431 9.66211 2.95801C9.48622 2.85243 9.1847 2.75 8.5 2.75H7C4.99464 2.75 4.04177 3.01878 3.53027 3.53027C3.01878 4.04177 2.75 4.99464 2.75 7V17C2.75 19.0054 3.01878 19.9582 3.53027 20.4697C4.04177 20.9812 4.99464 21.25 7 21.25H9C9.41421 21.25 9.75 21.5858 9.75 22C9.75 22.4142 9.41421 22.75 9 22.75H7C5.00536 22.75 3.45823 22.5188 2.46973 21.5303C1.48122 20.5418 1.25 18.9946 1.25 17Z" fill="#1C252E"/>
<path d="M15.6776 13.3893C16.6403 13.1369 17.7203 13.2228 18.6346 13.7594C19.4467 14.2361 20.071 15.036 20.369 16.1383C22.7819 16.8564 23.6294 20.1837 21.6337 21.9254L21.6327 21.9244C21.0015 22.4973 20.1657 22.8102 19.3202 22.8102H13.7606C13.7426 22.8102 13.7239 22.8095 13.7059 22.8082C10.7426 22.5935 10.4589 18.6809 12.8544 17.7575C12.6823 16.7798 12.8516 15.8937 13.2802 15.1618C13.816 14.2467 14.7149 13.6417 15.6776 13.3893ZM17.8759 15.0534C17.3497 14.7445 16.6881 14.6755 16.0585 14.8405C15.4289 15.0055 14.8839 15.3906 14.5741 15.9196C14.2748 16.4308 14.1533 17.1464 14.4862 18.0768C14.6258 18.4668 14.4231 18.8962 14.0331 19.0358C13.9335 19.0714 13.8315 19.0842 13.7323 19.0778C12.3982 19.2513 12.4203 21.1957 13.7987 21.3102H19.3202C19.8083 21.3102 20.2855 21.1261 20.6327 20.8073C20.6374 20.803 20.6426 20.7987 20.6473 20.7946C21.8099 19.7797 21.1725 17.7041 19.6473 17.5143C19.3182 17.4731 19.0554 17.2205 19.0009 16.8932C18.8384 15.9162 18.3842 15.3519 17.8759 15.0534Z" fill="#1C252E"/>
</svg>
