<svg width="24" height="24" viewBox="0 0 24 24" fill="none" xmlns="http://www.w3.org/2000/svg">
<path d="M18.6894 10.25C19.8355 10.25 20.8513 10.7626 21.5283 11.5586C21.5301 11.5605 21.5322 11.5624 21.5341 11.5645C21.5465 11.5776 21.5692 11.602 21.5937 11.6348C21.6023 11.6463 21.6154 11.6649 21.6308 11.6895C22.2023 12.4103 22.519 13.3432 22.416 14.3584L22.417 14.3594L22.0175 19.3594L22.0166 19.373C21.9481 20.0718 21.8795 21.0002 21.3252 21.6924C20.722 22.4453 19.7213 22.75 18.29 22.75H5.70993C4.27854 22.75 3.27794 22.4453 2.67477 21.6924C2.12032 21.0002 2.05188 20.0719 1.98337 19.373L1.98239 19.3594L1.582 14.3594L1.58298 14.3584C1.48739 13.3293 1.8116 12.3731 2.39352 11.6426L2.41989 11.6094L2.44919 11.5801C3.13705 10.7623 4.16394 10.2501 5.30954 10.25H18.6894ZM5.30954 11.75C4.61135 11.7501 3.99118 12.0635 3.57907 12.5654L3.55563 12.5947L3.54977 12.6006C3.24917 12.9875 3.06705 13.4701 3.0654 13.9961L3.07614 14.2285L3.07712 14.2402L3.47653 19.2266L3.53708 19.7773C3.6006 20.2594 3.67936 20.5484 3.8447 20.7549C4.01653 20.9694 4.43135 21.25 5.70993 21.25H18.29C19.5682 21.25 19.9824 20.9694 20.1543 20.7549C20.3748 20.4796 20.4419 20.0578 20.5234 19.2266L20.9218 14.2402L20.9228 14.2305L20.9238 14.2197C20.9906 13.5956 20.7927 13.0244 20.4228 12.5791L20.3506 12.4932C19.9477 12.041 19.3594 11.75 18.6894 11.75H5.30954Z" fill="#1C252E"/>
<path d="M2.75 11.4304V6.28003C2.75 4.58539 2.94333 3.22537 3.81934 2.34937C4.69534 1.47336 6.05536 1.28003 7.75 1.28003H9.01953C9.72194 1.28003 10.2673 1.3834 10.7227 1.65698C11.0512 1.85439 11.288 2.11854 11.4805 2.36401L11.6602 2.60034L11.6611 2.60132L12.9268 4.29565L13.1123 4.52808C13.1519 4.57239 13.1752 4.59107 13.2002 4.6062C13.2302 4.62438 13.3355 4.68042 13.6904 4.68042H16.2402C17.9347 4.68044 19.2939 4.87394 20.1699 5.74976C21.0459 6.62576 21.2402 7.98578 21.2402 9.68042V11.4705C21.24 11.8844 20.9042 12.2203 20.4902 12.2205C20.0762 12.2205 19.7405 11.8845 19.7402 11.4705V9.68042C19.7402 7.97506 19.5084 7.2093 19.1094 6.8103C18.7104 6.41143 17.9452 6.18044 16.2402 6.18042H13.6904C13.1954 6.18042 12.7794 6.10525 12.4219 5.88843C12.0847 5.68378 11.8734 5.38856 11.7334 5.20483L11.7295 5.19897L10.459 3.49878V3.4978C10.204 3.15791 10.0943 3.02975 9.9502 2.94312C9.82302 2.8667 9.58712 2.78003 9.01953 2.78003H7.75C6.04464 2.78003 5.27888 3.01092 4.87988 3.40991C4.48089 3.80891 4.25 4.57467 4.25 6.28003V11.4304C4.24979 11.8445 3.91408 12.1804 3.5 12.1804C3.08592 12.1804 2.75021 11.8445 2.75 11.4304Z" fill="#1C252E"/>
<path d="M14.5693 16.25C14.9835 16.25 15.3193 16.5858 15.3193 17C15.3193 17.4142 14.9835 17.75 14.5693 17.75H9.42969C9.01547 17.75 8.67969 17.4142 8.67969 17C8.67969 16.5858 9.01547 16.25 9.42969 16.25H14.5693Z" fill="#1C252E"/>
</svg>
