<svg width="24" height="24" viewBox="0 0 24 24" fill="none" xmlns="http://www.w3.org/2000/svg">
<path d="M1.25 17V7C1.25 5.00536 1.48122 3.45823 2.46973 2.46973C3.45823 1.48122 5.00536 1.25 7 1.25H8.5C9.31472 1.25 9.92799 1.36768 10.4346 1.67188C10.9235 1.96558 11.2329 2.39387 11.5 2.75L12.9971 4.74609C13.207 5.02236 13.273 5.09563 13.3555 5.14551C13.4183 5.1835 13.5677 5.25 14 5.25H17C18.9946 5.25 20.5418 5.48122 21.5303 6.46973C22.5188 7.45823 22.75 9.00536 22.75 11V17C22.75 18.9946 22.5188 20.5418 21.5303 21.5303C20.5418 22.5188 18.9946 22.75 17 22.75H7C5.00536 22.75 3.45823 22.5188 2.46973 21.5303C1.48122 20.5418 1.25 18.9946 1.25 17ZM2.75 17C2.75 19.0054 3.01878 19.9582 3.53027 20.4697C4.04177 20.9812 4.99464 21.25 7 21.25H17C19.0054 21.25 19.9582 20.9812 20.4697 20.4697C20.9812 19.9582 21.25 19.0054 21.25 17V11C21.25 8.99464 20.9812 8.04177 20.4697 7.53027C19.9582 7.01878 19.0054 6.75 17 6.75H14C13.4323 6.75 12.9712 6.6667 12.5791 6.42969C12.2069 6.20465 11.9727 5.87794 11.8027 5.6543L10.2998 3.65039C9.9969 3.24652 9.8557 3.0743 9.66211 2.95801C9.48623 2.85243 9.18472 2.75 8.5 2.75H7C4.99464 2.75 4.04177 3.01878 3.53027 3.53027C3.01878 4.04177 2.75 4.99464 2.75 7V17Z" fill="#1C252E"/>
<path d="M14.2959 12.875C14.2959 12.5413 14.183 12.2554 14.0068 12.0566C13.8307 11.858 13.5917 11.75 13.3193 11.75C13.0639 11.7501 12.8068 11.8644 12.5703 12.2061C12.5202 12.2785 12.4769 12.3535 12.4404 12.4248L11.7725 13.7314L11.1045 12.4248C11.068 12.3534 11.0247 12.2785 10.9746 12.2061C10.7381 11.8644 10.481 11.75 10.2256 11.75C9.95331 11.7501 9.71516 11.8581 9.53906 12.0566C9.36281 12.2554 9.25003 12.5412 9.25 12.875C9.25 13.4632 9.61837 13.8646 10.5342 14.7148C10.9035 15.0577 11.332 15.4544 11.7725 15.9434C12.2128 15.4544 12.6415 15.0577 13.0107 14.7148C13.9266 13.8645 14.2959 13.4632 14.2959 12.875ZM15.7959 12.875C15.7959 14.2345 14.8186 15.0825 14.0312 15.8135C13.5379 16.2716 13.0174 16.756 12.5049 17.3965C12.3308 17.614 12.0644 17.75 11.7725 17.75C11.4806 17.7499 11.214 17.6139 11.04 17.3965C10.5275 16.756 10.007 16.2715 9.51367 15.8135C8.7264 15.0825 7.75 14.2344 7.75 12.875C7.75003 12.2062 7.97713 11.5575 8.41699 11.0615C8.88008 10.5394 9.52775 10.2501 10.2256 10.25C10.8244 10.25 11.3496 10.4744 11.7725 10.8555C12.1953 10.4743 12.7205 10.2501 13.3193 10.25C14.0173 10.25 14.6658 10.5393 15.1289 11.0615C15.5687 11.5575 15.7959 12.2062 15.7959 12.875Z" fill="#1C252E"/>
</svg>
