<svg width="24" height="24" viewBox="0 0 24 24" fill="none" xmlns="http://www.w3.org/2000/svg">
<path d="M9.74016 11.6597C10.0331 11.3668 10.5078 11.3668 10.8007 11.6597L12.04 12.899L13.2402 11.6998C13.5331 11.4069 14.0078 11.4069 14.3007 11.6998C14.5936 11.9927 14.5936 12.4674 14.3007 12.7603L13.1005 13.9595L14.3407 15.1998C14.6336 15.4927 14.6336 15.9674 14.3407 16.2603C14.0479 16.5532 13.5731 16.5531 13.2802 16.2603L12.04 15.0201L10.7607 16.3003C10.4678 16.5932 9.993 16.5932 9.70012 16.3003C9.40724 16.0075 9.40726 15.5327 9.70012 15.2398L10.9794 13.9595L9.74016 12.7203C9.44727 12.4274 9.44727 11.9526 9.74016 11.6597Z" fill="#1C252E"/>
<path d="M1.25 17V7C1.25 5.00536 1.48122 3.45823 2.46973 2.46973C3.45823 1.48122 5.00536 1.25 7 1.25H8.5C9.31472 1.25 9.92799 1.36768 10.4346 1.67188C10.9235 1.96558 11.2329 2.39387 11.5 2.75L12.9971 4.74609C13.207 5.02236 13.273 5.09563 13.3555 5.14551C13.4183 5.1835 13.5677 5.25 14 5.25H17C18.9946 5.25 20.5418 5.48122 21.5303 6.46973C22.5188 7.45823 22.75 9.00536 22.75 11V17C22.75 18.9946 22.5188 20.5418 21.5303 21.5303C20.5418 22.5188 18.9946 22.75 17 22.75H7C5.00536 22.75 3.45823 22.5188 2.46973 21.5303C1.48122 20.5418 1.25 18.9946 1.25 17ZM2.75 17C2.75 19.0054 3.01878 19.9582 3.53027 20.4697C4.04177 20.9812 4.99464 21.25 7 21.25H17C19.0054 21.25 19.9582 20.9812 20.4697 20.4697C20.9812 19.9582 21.25 19.0054 21.25 17V11C21.25 8.99464 20.9812 8.04177 20.4697 7.53027C19.9582 7.01878 19.0054 6.75 17 6.75H14C13.4323 6.75 12.9712 6.6667 12.5791 6.42969C12.2069 6.20465 11.9727 5.87794 11.8027 5.6543L10.2998 3.65039C9.9969 3.24652 9.8557 3.0743 9.66211 2.95801C9.48623 2.85243 9.18472 2.75 8.5 2.75H7C4.99464 2.75 4.04177 3.01878 3.53027 3.53027C3.01878 4.04177 2.75 4.99464 2.75 7V17Z" fill="#1C252E"/>
</svg>
