<svg width="24" height="24" viewBox="0 0 24 24" fill="none" xmlns="http://www.w3.org/2000/svg">
<path d="M5.00021 10.4C5.90021 8.9 7.40021 8.1 8.80021 8.1C9.50021 8.1 10.1002 8.3 10.7002 8.5C11.3002 8.7 11.7002 8.9 12.3002 8.9C12.8002 8.9 13.2002 8.8 13.7002 8.6C14.3002 8.4 14.9002 8.2 15.8002 8.2C17.1002 8.2 18.4002 8.8 19.3002 10C16.2002 11.6 16.7002 16 19.8002 17.2C19.4002 18.1 19.1002 18.6 18.6002 19.4C17.8002 20.5 16.8002 22 15.4002 22C14.8002 22 14.5002 21.9 14.1002 21.7C13.6002 21.5 13.2002 21.3 12.3002 21.3C11.5002 21.3 11.0002 21.5 10.5002 21.7C10.1002 21.8 9.80021 22 9.20021 22C7.90021 22 6.90021 20.7 6.00021 19.5C5.51462 18.76 5.13062 17.9827 4.84326 17.2M15.4002 2C15.6002 3.1 15.1002 4.2 14.5002 5C13.9002 5.8 12.8002 6.5 11.7002 6.4C11.5002 5.3 12.0002 4.3 12.6002 3.5C13.3002 2.7 14.4002 2.1 15.4002 2Z" stroke="#1C252E" stroke-width="1.5" stroke-miterlimit="10" stroke-linecap="round" stroke-linejoin="round"/>
</svg>
