<svg width="24" height="24" viewBox="0 0 24 24" fill="none" xmlns="http://www.w3.org/2000/svg">
<path d="M11 18V21C11 21.5 10.6 22 10 22C9.4 22 9 21.5 9 21V18H11Z" stroke="#1C252E" stroke-width="1.5" stroke-miterlimit="10" stroke-linecap="round" stroke-linejoin="round"/>
<path d="M15 18V21C15 21.5 14.6 22 14 22C13.4 22 13 21.5 13 21V18H15Z" stroke="#1C252E" stroke-width="1.5" stroke-miterlimit="10" stroke-linecap="round" stroke-linejoin="round"/>
<path d="M7 11V16C7 17.1 7.9 18 9 18H15C16.1 18 17 17.1 17 16V11C17 9.9 16.1 9 15 9H9" stroke="#1C252E" stroke-width="1.5" stroke-miterlimit="10" stroke-linecap="round" stroke-linejoin="round"/>
<path d="M5 11V15C5 15.6 4.6 16 4 16C3.4 16 3 15.6 3 15V11C3 10.4 3.4 10 4 10C4.6 10 5 10.4 5 11Z" stroke="#1C252E" stroke-width="1.5" stroke-miterlimit="10" stroke-linecap="round" stroke-linejoin="round"/>
<path d="M21 11V15C21 15.6 20.6 16 20 16C19.4 16 19 15.6 19 15V11C19 10.4 19.4 10 20 10C20.6 10 21 10.4 21 11Z" stroke="#1C252E" stroke-width="1.5" stroke-miterlimit="10" stroke-linecap="round" stroke-linejoin="round"/>
<path d="M13 18H11" stroke="#1C252E" stroke-width="1.5" stroke-miterlimit="10" stroke-linecap="round" stroke-linejoin="round"/>
<path d="M14.4 7H9.6C8.7 7 8 6.25 8 5.28571C8 2.92857 9.8 1 12 1C14.2 1 16 2.92857 16 5.28571" stroke="#1C252E" stroke-width="1.5" stroke-miterlimit="10" stroke-linecap="round" stroke-linejoin="round"/>
</svg>
