<svg width="24" height="24" viewBox="0 0 24 24" fill="none" xmlns="http://www.w3.org/2000/svg">
<path d="M6.41281 4.5C6.61281 3.1 7.91281 2 9.31281 2H13.8128C16.6128 2 18.8128 4.2 18.8128 7C18.8128 7.2 18.8128 7.3 18.8128 7.5C18.7128 9 18.0128 10.3 17.1128 11.2C16.0128 12.3 14.5128 13 12.8128 13H9.71281C9.21281 13 8.81281 13.4 8.71281 13.9L7.91281 19.2C7.81281 19.6 7.61281 19.9 7.21281 20C7.11281 20 7.01281 20 6.91281 20H5.01281C4.41281 20 3.91281 19.5 4.01281 18.8L5.21281 11.65" stroke="#1C252E" stroke-width="1.5" stroke-miterlimit="10" stroke-linecap="round"/>
<path d="M20.9998 11C20.9998 12.4 20.3998 13.6 19.4998 14.5C18.5998 15.4 17.3998 16 15.9998 16H13.8998C13.3998 16 12.9998 16.3 12.8998 16.8L12.1998 21.1C12.0998 21.6 11.6998 21.9 11.1998 21.9H8.19982C7.59982 21.9 7.09982 21.3 7.19982 20.7L7.39982 20C7.79982 19.9 8.09982 19.6 8.09982 19.2L8.89982 13.9C8.99982 13.4 9.39982 13 9.89982 13H12.9998C14.6998 13 16.1998 12.3 17.1998 11.2C18.1998 10.2 18.7998 8.9 18.8998 7.5C20.1998 8.2 20.9998 9.5 20.9998 11Z" stroke="#1C252E" stroke-width="1.5" stroke-miterlimit="10"/>
</svg>
