<svg width="24" height="24" viewBox="0 0 24 24" fill="none" xmlns="http://www.w3.org/2000/svg">
<path d="M16 6.3V6C16 3.79 14.21 2 12 2C9.79 2 8 3.79 8 6V11" stroke="#1C252E" stroke-width="1.5" stroke-linecap="round" stroke-linejoin="round"/>
<path d="M9.04004 14.19C9.77004 15 10.83 15.5 12 15.5C14.21 15.5 16 13.71 16 11.5V11" stroke="#1C252E" stroke-width="1.5" stroke-linecap="round" stroke-linejoin="round"/>
<path d="M6.78003 16.95C8.15003 18.22 9.98003 19 12 19C13.4655 19 14.8356 18.5864 16 17.8697M19.65 9.64999V11.35C19.65 12.4724 19.4074 13.539 18.9717 14.5" stroke="#1C252E" stroke-width="1.5" stroke-linecap="round" stroke-linejoin="round"/>
<path d="M4.34998 9.64999V11.35C4.34998 12.41 4.55998 13.41 4.94998 14.33" stroke="#1C252E" stroke-width="1.5" stroke-linecap="round" stroke-linejoin="round"/>
<path d="M20.0701 2.84L3.93005 18.99" stroke="#1C252E" stroke-width="1.5" stroke-linecap="round" stroke-linejoin="round"/>
<path d="M11 3V6" stroke="#1C252E" stroke-width="1.5" stroke-linecap="round" stroke-linejoin="round"/>
<path d="M12 19V22" stroke="#1C252E" stroke-width="1.5" stroke-linecap="round" stroke-linejoin="round"/>
</svg>
