<svg width="24" height="24" viewBox="0 0 24 24" fill="none" xmlns="http://www.w3.org/2000/svg">
<path d="M8 6C8 3.79 9.79 2 12 2C14.21 2 16 3.79 16 6V11.5C16 13.71 14.21 15.5 12 15.5C9.79 15.5 8 13.71 8 11.5V10" stroke="#1C252E" stroke-width="1.5" stroke-linecap="round" stroke-linejoin="round"/>
<path d="M4.34998 9.64999V11.35C4.34998 15.57 7.77998 19 12 19C16.22 19 19.65 15.57 19.65 11.35V9.64999" stroke="#1C252E" stroke-width="1.5" stroke-linecap="round" stroke-linejoin="round"/>
<path d="M10.61 6.43C11.51 6.1 12.49 6.1 13.39 6.43" stroke="#1C252E" stroke-width="1.5" stroke-linecap="round" stroke-linejoin="round"/>
<path d="M11.2 8.55001C11.73 8.41001 12.28 8.41001 12.81 8.55001" stroke="#1C252E" stroke-width="1.5" stroke-linecap="round" stroke-linejoin="round"/>
<path d="M12 19V22" stroke="#1C252E" stroke-width="1.5" stroke-linecap="round" stroke-linejoin="round"/>
</svg>
