<svg width="24" height="24" viewBox="0 0 24 24" fill="none" xmlns="http://www.w3.org/2000/svg">
<path d="M8.27993 9.69002C10.3299 7.63002 13.6699 7.63002 15.7199 9.69002C17.7799 11.75 17.7799 15.08 15.7199 17.13C13.6599 19.19 10.3299 19.19 8.27993 17.13C7.33356 16.1837 6.82196 14.9692 6.74512 13.734" stroke="#1C252E" stroke-width="1.5093" stroke-linecap="round" stroke-linejoin="round"/>
<path d="M12 13.4102L10.41 15.0002" stroke="#1C252E" stroke-width="1.5093" stroke-linecap="round" stroke-linejoin="round"/>
<path d="M19.0701 6.34021C19.2201 6.49021 19.2201 6.74021 19.0701 6.90021C18.9201 7.05021 18.6701 7.05021 18.5101 6.90021C18.3501 6.75021 18.3601 6.50021 18.5101 6.34021C18.6601 6.18021 18.9201 6.18021 19.0701 6.34021Z" stroke="#1C252E" stroke-miterlimit="10"/>
<path d="M19.0701 6.34021C19.2201 6.49021 19.2201 6.74021 19.0701 6.90021C18.9201 7.05021 18.6701 7.05021 18.5101 6.90021C18.3501 6.75021 18.3601 6.50021 18.5101 6.34021C18.6601 6.18021 18.9201 6.18021 19.0701 6.34021Z" stroke="#1C252E" stroke-width="1.5" stroke-linecap="round" stroke-linejoin="round"/>
<path d="M5.49 19.9198C5.64 20.0698 5.64 20.3198 5.49 20.4798C5.34 20.6398 5.09 20.6298 4.93 20.4798C4.78 20.3298 4.78 20.0798 4.93 19.9198C5.08 19.7598 5.34 19.7598 5.49 19.9198Z" stroke="#1C252E" stroke-miterlimit="10"/>
<path d="M5.49 19.9198C5.64 20.0698 5.64 20.3198 5.49 20.4798C5.34 20.6398 5.09 20.6298 4.93 20.4798C4.78 20.3298 4.78 20.0798 4.93 19.9198C5.08 19.7598 5.34 19.7598 5.49 19.9198Z" stroke="#1C252E" stroke-width="1.5" stroke-linecap="round" stroke-linejoin="round"/>
<path d="M21.88 13.1298C22.03 13.2798 22.03 13.5298 21.88 13.6898C21.73 13.8398 21.48 13.8398 21.32 13.6898C21.16 13.5398 21.17 13.2898 21.32 13.1298C21.47 12.9698 21.73 12.9698 21.88 13.1298Z" stroke="#1C252E" stroke-miterlimit="10"/>
<path d="M21.88 13.1298C22.03 13.2798 22.03 13.5298 21.88 13.6898C21.73 13.8398 21.48 13.8398 21.32 13.6898C21.16 13.5398 21.17 13.2898 21.32 13.1298C21.47 12.9698 21.73 12.9698 21.88 13.1298Z" stroke="#1C252E" stroke-width="1.5" stroke-linecap="round" stroke-linejoin="round"/>
<path d="M2.67009 13.1298C2.82009 13.2798 2.82009 13.5298 2.67009 13.6898C2.52009 13.8498 2.27006 13.8398 2.11006 13.6898C1.96006 13.5398 1.96006 13.2898 2.11006 13.1298C2.27006 12.9698 2.52009 12.9698 2.67009 13.1298Z" stroke="#1C252E" stroke-miterlimit="10"/>
<path d="M2.67009 13.1298C2.82009 13.2798 2.82009 13.5298 2.67009 13.6898C2.52009 13.8498 2.27006 13.8398 2.11006 13.6898C1.96006 13.5398 1.96006 13.2898 2.11006 13.1298C2.27006 12.9698 2.52009 12.9698 2.67009 13.1298Z" stroke="#1C252E" stroke-width="1.5" stroke-linecap="round" stroke-linejoin="round"/>
<path d="M19.0701 19.9198C19.2201 20.0698 19.2201 20.3198 19.0701 20.4798C18.9201 20.6298 18.6701 20.6298 18.5101 20.4798C18.3501 20.3298 18.3601 20.0798 18.5101 19.9198C18.6701 19.7598 18.9201 19.7598 19.0701 19.9198Z" stroke="#1C252E" stroke-miterlimit="10"/>
<path d="M19.0701 19.9198C19.2201 20.0698 19.2201 20.3198 19.0701 20.4798C18.9201 20.6298 18.6701 20.6298 18.5101 20.4798C18.3501 20.3298 18.3601 20.0798 18.5101 19.9198C18.6701 19.7598 18.9201 19.7598 19.0701 19.9198Z" stroke="#1C252E" stroke-width="1.5" stroke-linecap="round" stroke-linejoin="round"/>
<path d="M5.49 6.34021C5.64 6.49021 5.64 6.74021 5.49 6.90021C5.34 7.06021 5.09 7.05021 4.93 6.90021C4.78 6.75021 4.78 6.50021 4.93 6.34021C5.08 6.18021 5.34 6.18021 5.49 6.34021Z" stroke="#1C252E" stroke-miterlimit="10"/>
<path d="M5.49 6.34021C5.64 6.49021 5.64 6.74021 5.49 6.90021C5.34 7.06021 5.09 7.05021 4.93 6.90021C4.78 6.75021 4.78 6.50021 4.93 6.34021C5.08 6.18021 5.34 6.18021 5.49 6.34021Z" stroke="#1C252E" stroke-width="1.5" stroke-linecap="round" stroke-linejoin="round"/>
<path d="M12.28 3.52009C12.43 3.67009 12.43 3.92009 12.28 4.08009C12.13 4.24009 11.88 4.23009 11.72 4.08009C11.56 3.93009 11.57 3.68009 11.72 3.52009C11.87 3.36009 12.13 3.37009 12.28 3.52009Z" stroke="#1C252E" stroke-miterlimit="10"/>
<path d="M12.28 3.52009C12.43 3.67009 12.43 3.92009 12.28 4.08009C12.13 4.24009 11.88 4.23009 11.72 4.08009C11.56 3.93009 11.57 3.68009 11.72 3.52009C11.87 3.36009 12.13 3.37009 12.28 3.52009Z" stroke="#1C252E" stroke-width="1.5" stroke-linecap="round" stroke-linejoin="round"/>
</svg>
