<svg width="24" height="24" viewBox="0 0 24 24" fill="none" xmlns="http://www.w3.org/2000/svg">
<path d="M14.23 9.43001C15.54 7.07001 17.49 7.17001 18.55 9.65001L21.68 16.96C22.7 19.35 20.95 22 18.35 22H5.59005C2.91005 22 1.16005 19.17 2.37005 16.77L4.09005 13.32C5.02005 11.47 6.84005 11.27 8.13005 12.89L8.35005 13.17C9.59005 14.72 11.38 14.57 12.34 12.84" stroke="#1C252E" stroke-width="1.5" stroke-linecap="round" stroke-linejoin="round"/>
<path d="M6.96997 8C8.62682 8 9.96997 6.65685 9.96997 5C9.96997 3.34315 8.62682 2 6.96997 2C5.31312 2 3.96997 3.34315 3.96997 5C3.96997 6.65685 5.31312 8 6.96997 8Z" stroke="#1C252E" stroke-width="1.5" stroke-linecap="round" stroke-linejoin="round"/>
</svg>
