<svg width="24" height="24" viewBox="0 0 24 24" fill="none" xmlns="http://www.w3.org/2000/svg">
<path d="M19.0701 19.0699C22.9801 15.1599 22.9801 8.82993 19.0701 4.92993" stroke="#1C252E" stroke-width="1.5" stroke-linecap="round" stroke-linejoin="round"/>
<path d="M4.93006 4.92993C1.02006 8.83993 1.02006 15.1699 4.93006 19.0699" stroke="#1C252E" stroke-width="1.5" stroke-linecap="round" stroke-linejoin="round"/>
<path d="M8.69995 21.4099C9.76995 21.7799 10.8799 21.96 11.9999 21.96C13.1199 21.95 14.2299 21.7799 15.2999 21.4099" stroke="#1C252E" stroke-width="1.5" stroke-linecap="round" stroke-linejoin="round"/>
<path d="M8.69995 2.59009C9.76995 2.22009 10.8799 2.04004 11.9999 2.04004C13.1199 2.04004 14.2299 2.22009 15.2999 2.59009" stroke="#1C252E" stroke-width="1.5" stroke-linecap="round" stroke-linejoin="round"/>
<path d="M8.83036 9.50014C8.77129 9.74922 8.73999 10.0266 8.73999 10.3301V12.0001V13.6901C8.73999 15.7701 10.21 16.6201 12.01 15.5801L13.46 14.7401L14.91 13.9001C16.71 12.8601 16.71 11.1601 14.91 10.1201L13.46 9.28009L12.01 8.44006C11.774 8.30369 11.5436 8.19982 11.3215 8.12695" stroke="#1C252E" stroke-width="1.5" stroke-miterlimit="10" stroke-linecap="round" stroke-linejoin="round"/>
</svg>
