<svg width="24" height="24" viewBox="0 0 24 24" fill="none" xmlns="http://www.w3.org/2000/svg">
<path d="M2 8.33994C2 6.83994 3.62999 5.89996 4.92999 6.66996L8.10001 8.48993L11.27 10.32C11.47 10.44 11.63 10.57 11.76 10.73V13.29C11.63 13.45 11.47 13.58 11.27 13.7L8.10001 15.5299L4.92999 17.3499C3.62999 18.0999 2 17.1599 2 15.6599" stroke="#1C252E" stroke-width="1.5" stroke-linecap="round" stroke-linejoin="round"/>
<path d="M11.76 8.33994V15.6599C11.76 17.1599 13.39 18.0999 14.69 17.3499L17.86 15.5299L21.03 13.7C22.33 12.95 22.33 11.08 21.03 10.32L17.86 8.48993L14.69 6.66996C13.39 5.89996 11.76 6.83994 11.76 8.33994Z" stroke="#1C252E" stroke-width="1.5" stroke-linecap="round" stroke-linejoin="round"/>
</svg>
