<svg width="24" height="24" viewBox="0 0 24 24" fill="none" xmlns="http://www.w3.org/2000/svg">
<path d="M2 9C2 4 4 2 9 2H15C20 2 22 4 22 9V15C22 20 20 22 15 22H9C4 22 2 20 2 15" stroke="#1C252E" stroke-width="1.5" stroke-linecap="round" stroke-linejoin="round"/>
<path d="M12.6 18.5H16.4C17.9 18.5 18.5 17.9 18.5 16.4V14.6C18.5 13.1 17.9 12.5 16.4 12.5H12.6C11.1 12.5 10.5 13.1 10.5 14.6V16.4C10.5 17.9 11.1 18.5 12.6 18.5Z" stroke="#1C252E" stroke-width="1.5" stroke-linecap="round" stroke-linejoin="round"/>
</svg>
