<svg width="24" height="24" viewBox="0 0 24 24" fill="none" xmlns="http://www.w3.org/2000/svg">
<path d="M1.87 9.964C1.87 7.924 2.89 6.904 4.93 6.904H6.39C6.77 6.904 7.14 6.794 7.47 6.594L10.45 4.724C13.02 3.114 15.13 4.284 15.13 7.324V16.674C15.13 19.714 13.03 20.884 10.45 19.274L7.47 17.414C7.15 17.214 6.77 17.104 6.39 17.104H4.93C2.89 17.104 1.87 16.084 1.87 14.044" stroke="#1C252E" stroke-width="1.5" stroke-linecap="round"/>
<path d="M18 8C19.78 10.37 19.78 13.63 18 16" stroke="#1C252E" stroke-width="1.5" stroke-linecap="round" stroke-linejoin="round"/>
<path d="M19.83 5.5C20.2535 6.0642 20.6149 6.65954 20.9143 7.27689M19.83 18.5C21.3803 16.4347 22.0989 13.9521 21.9859 11.5" stroke="#1C252E" stroke-width="1.5" stroke-linecap="round" stroke-linejoin="round"/>
</svg>
