<svg width="24" height="24" viewBox="0 0 24 24" fill="none" xmlns="http://www.w3.org/2000/svg">
<path d="M2.13082 7C2.64745 3.45898 4.72949 2 9 2H15C20 2 22 4 22 9V15C22 20 20 22 15 22H9C4 22 2 20 2 15V13" stroke="#1C252E" stroke-width="1.5" stroke-linecap="round" stroke-linejoin="round"/>
<path d="M2.52002 7.11011H21.48" stroke="#1C252E" stroke-width="1.5" stroke-linecap="round" stroke-linejoin="round"/>
<path d="M8.52002 2.11011V6.97011" stroke="#1C252E" stroke-width="1.5" stroke-linecap="round" stroke-linejoin="round"/>
<path d="M15.48 2.11011V6.52011" stroke="#1C252E" stroke-width="1.5" stroke-linecap="round" stroke-linejoin="round"/>
<path d="M9.75 14.4501V13.2501C9.75 11.7101 10.84 11.0801 12.17 11.8501L13.21 12.4501L14.25 13.0501C15.58 13.8201 15.58 15.0801 14.25 15.8501L13.21 16.4501L12.17 17.0501C10.84 17.8201 9.75 17.1901 9.75 15.6501V14.4501V14.4501Z" stroke="#1C252E" stroke-width="1.5" stroke-miterlimit="10" stroke-linecap="round" stroke-linejoin="round"/>
</svg>
