<svg width="24" height="24" viewBox="0 0 24 24" fill="none" xmlns="http://www.w3.org/2000/svg">
<path d="M20.9994 11.5C20.9994 16.75 16.7494 21 11.4994 21C7.48569 21 4.05645 18.5159 2.66399 15M11.4994 2C7.20277 2 3.5759 4.84665 2.40039 8.75838" stroke="#1C252E" stroke-width="1.5" stroke-linecap="round" stroke-linejoin="round"/>
<path d="M21.9996 22L18.5117 18.5042" stroke="#1C252E" stroke-width="1.5" stroke-linecap="round" stroke-linejoin="round"/>
<path d="M17.5 10C17.422 10 17.348 9.96493 17.2979 9.90423C16.5401 8.98582 15.7727 8.29498 15.0957 7.68546C13.9248 6.63129 13 5.79862 13 4.50018C13 3.83171 13.2333 3.20848 13.6569 2.74529C14.0964 2.26468 14.7059 2 15.373 2C16.1165 2 16.766 2.35936 17.2512 3.0392C17.3501 3.17784 17.4325 3.31634 17.5 3.44437C17.5675 3.31634 17.6499 3.17784 17.7488 3.0392C18.234 2.35936 18.8835 2 19.627 2C20.2941 2 20.9036 2.26468 21.3431 2.74529C21.7667 3.20848 22 3.83171 22 4.50018C22 5.79862 21.0752 6.63127 19.9043 7.68545C19.2273 8.29496 18.4599 8.9858 17.7021 9.90421C17.652 9.96493 17.578 10 17.5 10Z" stroke="#1C252E" stroke-width="1.5"/>
</svg>
