<svg width="24" height="24" viewBox="0 0 24 24" fill="none" xmlns="http://www.w3.org/2000/svg">
<path d="M16.9629 2.5498C18.5194 2.5498 19.9413 3.1753 20.9668 4.31055C21.9552 5.40485 22.5 6.87778 22.5 8.45703C22.4998 11.5242 20.3421 13.4912 17.6104 15.9814C16.0307 17.4214 14.24 19.054 12.4717 21.2236C12.3548 21.3671 12.182 21.4502 12 21.4502C11.818 21.4502 11.6452 21.367 11.5283 21.2236C9.75997 19.054 7.96924 17.4214 6.38965 15.9814C3.65788 13.4912 1.50017 11.5242 1.5 8.45703C1.5 6.87778 2.04477 5.40485 3.0332 4.31055C4.05874 3.1753 5.48058 2.5498 7.03711 2.5498C8.77178 2.5498 10.2869 3.39899 11.4189 5.00488C11.6497 5.33231 11.8425 5.65952 12 5.96191C12.1574 5.65952 12.3503 5.33231 12.5811 5.00488C13.7131 3.39899 15.2282 2.5498 16.9629 2.5498ZM14.8389 9.15234C13.9489 8.26234 13.2389 8.55211 12.6289 9.16211L9.08887 12.7021C8.94892 12.8422 8.81905 13.1021 8.78906 13.292L8.59863 14.6416C8.52863 15.1316 8.86938 15.4723 9.35938 15.4023L10.709 15.2119C10.8989 15.1819 11.1688 15.052 11.2988 14.9121L14.8389 11.3721C15.4488 10.7621 15.7387 10.0523 14.8389 9.15234Z" fill="#1C252E"/>
</svg>
