<svg width="24" height="24" viewBox="0 0 24 24" fill="none" xmlns="http://www.w3.org/2000/svg">
<path d="M12 21.45C11.818 21.45 11.6454 21.3671 11.5285 21.2237C9.76014 19.054 7.96968 17.4219 6.39005 15.9819C3.65795 13.4914 1.5 11.5242 1.5 8.45666C1.5 6.87741 2.04436 5.40503 3.03279 4.31073C4.05835 3.17529 5.48044 2.54999 7.03711 2.54999C8.77191 2.54999 10.2873 3.39897 11.4194 5.00509C11.6503 5.33263 11.8425 5.65984 12 5.96232C12.1575 5.65984 12.3497 5.33263 12.5806 5.00509C13.7127 3.39897 15.2281 2.54999 16.9629 2.54999C18.5196 2.54999 19.9417 3.17529 20.9672 4.31073C21.9556 5.40503 22.5 6.87741 22.5 8.45666C22.5 11.5242 20.342 13.4914 17.61 15.9819C16.0303 17.4218 14.2399 19.0539 12.4715 21.2237C12.3546 21.3671 12.182 21.45 12 21.45Z" fill="#1C252E"/>
</svg>
