<svg width="24" height="24" viewBox="0 0 24 24" fill="none" xmlns="http://www.w3.org/2000/svg">
<path d="M17.4502 17.3C15.7702 17.3 14.2202 16.51 13.2102 15.12C12.9702 14.79 13.0402 14.32 13.3702 14.07C13.7002 13.82 14.1702 13.9 14.4202 14.23C15.1502 15.22 16.2502 15.79 17.4502 15.79C19.5402 15.79 21.2502 14.09 21.2502 11.99C21.2502 9.89004 19.5502 8.19004 17.4502 8.19004C16.0302 8.19004 14.6902 8.95004 13.9602 10.16L11.3102 14.57C10.3102 16.24 8.48023 17.27 6.54023 17.27C3.62023 17.27 1.24023 14.89 1.24023 11.97C1.24023 9.05004 3.62023 6.67004 6.54023 6.67004C8.22023 6.67004 9.77023 7.46004 10.7802 8.85004C11.0202 9.18004 10.9502 9.65004 10.6202 9.90004C10.2802 10.15 9.82023 10.07 9.57023 9.74004C8.85023 8.77004 7.75023 8.20004 6.55023 8.20004C4.46023 8.20004 2.75023 9.90004 2.75023 12C2.75023 14.1 4.45023 15.8 6.55023 15.8C7.97023 15.8 9.31023 15.04 10.0402 13.83L12.6902 9.42004C13.6902 7.75004 15.5202 6.72004 17.4602 6.72004C20.3802 6.72004 22.7602 9.10004 22.7602 12.02C22.7602 14.94 20.3702 17.3 17.4502 17.3Z" fill="#1C252E"/>
</svg>
