<svg width="24" height="24" viewBox="0 0 24 24" fill="none" xmlns="http://www.w3.org/2000/svg">
<path d="M20.6804 13.91V13.9C19.8004 12.97 18.5704 12.4 17.2004 12.4C14.5504 12.4 12.4004 14.55 12.4004 17.2C12.4004 18.43 12.8704 19.55 13.6304 20.4C14.5104 21.38 15.7804 22 17.2004 22C19.8504 22 22.0004 19.85 22.0004 17.2C22.0004 15.93 21.5004 14.77 20.6804 13.91ZM18.9904 18.01H17.9504V19.1C17.9504 19.51 17.6104 19.85 17.2004 19.85C16.7904 19.85 16.4504 19.51 16.4504 19.1V18.01H15.4104C14.9904 18.01 14.6604 17.68 14.6604 17.26C14.6604 16.85 14.9804 16.52 15.4004 16.51H16.4504V15.51C16.4504 15.49 16.4504 15.47 16.4604 15.45C16.4804 15.07 16.8104 14.76 17.2004 14.76C17.6004 14.76 17.9304 15.08 17.9504 15.48V16.51H18.9904C19.4104 16.51 19.7404 16.85 19.7404 17.26C19.7404 17.68 19.4104 18.01 18.9904 18.01Z" fill="#1C252E"/>
<path d="M16.9629 2.5498C18.5194 2.5498 19.9413 3.1753 20.9668 4.31055C21.9552 5.40485 22.5 6.87778 22.5 8.45703C22.4999 9.93699 21.9958 11.1595 21.1689 12.3096C20.0854 11.429 18.7045 10.9004 17.2002 10.9004C13.7222 10.9005 10.9004 13.7221 10.9004 17.2002C10.9004 18.3813 11.242 19.4965 11.8193 20.4414C11.9944 20.7381 12.1964 21.0176 12.418 21.2803C12.3049 21.3883 12.1562 21.4502 12 21.4502C11.818 21.4502 11.6452 21.367 11.5283 21.2236C9.75997 19.054 7.96924 17.4214 6.38965 15.9814C3.65788 13.4912 1.50017 11.5242 1.5 8.45703C1.5 6.87778 2.04477 5.40485 3.0332 4.31055C4.05874 3.1753 5.48058 2.5498 7.03711 2.5498C8.77178 2.5498 10.2869 3.39899 11.4189 5.00488C11.6497 5.33231 11.8425 5.65952 12 5.96191C12.1574 5.65952 12.3503 5.33231 12.5811 5.00488C13.7131 3.39899 15.2282 2.5498 16.9629 2.5498Z" fill="#1C252E"/>
</svg>
