<svg width="24" height="24" viewBox="0 0 24 24" fill="none" xmlns="http://www.w3.org/2000/svg">
<path d="M19.9275 17.2755C19.9275 15.8111 18.74 14.6237 17.2755 14.6235C15.811 14.6235 14.6235 15.811 14.6235 17.2755C14.6236 18.74 15.8111 19.9275 17.2755 19.9275C18.7399 19.9274 19.9274 18.7399 19.9275 17.2755ZM21.5511 17.2755C21.551 18.1642 21.2785 18.989 20.8143 19.6728C20.837 19.6911 20.8588 19.7109 20.8799 19.732L21.9622 20.8143C22.2793 21.1314 22.2793 21.6452 21.9622 21.9622C21.6452 22.2793 21.1314 22.2793 20.8143 21.9622L19.732 20.8799C19.7109 20.8588 19.6911 20.837 19.6728 20.8143C18.989 21.2785 18.1642 21.551 17.2755 21.5511C14.9144 21.5511 13.0001 19.6366 13 17.2755C13 14.9143 14.9143 13 17.2755 13C19.6366 13.0001 21.5511 14.9144 21.5511 17.2755Z" fill="#1C252E"/>
<path d="M16.9629 2.5498C18.5194 2.5498 19.9413 3.1753 20.9668 4.31055C21.9552 5.40485 22.5 6.87778 22.5 8.45703C22.4999 9.93699 21.9958 11.1595 21.1689 12.3096C20.0854 11.429 18.7045 10.9004 17.2002 10.9004C13.7222 10.9005 10.9004 13.7221 10.9004 17.2002C10.9004 18.3813 11.242 19.4965 11.8193 20.4414C11.9944 20.7381 12.1964 21.0176 12.418 21.2803C12.3049 21.3883 12.1562 21.4502 12 21.4502C11.818 21.4502 11.6452 21.367 11.5283 21.2236C9.75997 19.054 7.96924 17.4214 6.38965 15.9814C3.65788 13.4912 1.50017 11.5242 1.5 8.45703C1.5 6.87778 2.04477 5.40485 3.0332 4.31055C4.05874 3.1753 5.48058 2.5498 7.03711 2.5498C8.77178 2.5498 10.2869 3.39899 11.4189 5.00488C11.6497 5.33231 11.8425 5.65952 12 5.96191C12.1574 5.65952 12.3503 5.33231 12.5811 5.00488C13.7131 3.39899 15.2282 2.5498 16.9629 2.5498Z" fill="#1C252E"/>
</svg>
