<svg width="24" height="24" viewBox="0 0 24 24" fill="none" xmlns="http://www.w3.org/2000/svg">
<path d="M18.5094 8.24999C19.0094 8.24999 19.4094 7.84999 19.4094 7.34999V2.69999C19.4094 2.19999 19.0094 1.79999 18.5094 1.79999C18.0094 1.79999 17.6094 2.19999 17.6094 2.69999V7.34999C17.6094 7.83999 18.0194 8.24999 18.5094 8.24999Z" fill="#1C252E"/>
<path d="M11.9996 15.75C11.4996 15.75 11.0996 16.15 11.0996 16.65V21.3C11.0996 21.8 11.4996 22.2 11.9996 22.2C12.4996 22.2 12.8996 21.8 12.8996 21.3V16.65C12.8996 16.16 12.4996 15.75 11.9996 15.75Z" fill="#1C252E"/>
<path d="M5.48984 8.24999C5.98984 8.24999 6.38984 7.84999 6.38984 7.34999V2.69999C6.38984 2.19999 5.98984 1.79999 5.48984 1.79999C4.98984 1.79999 4.58984 2.19999 4.58984 2.69999V7.34999C4.58984 7.83999 4.98984 8.24999 5.48984 8.24999Z" fill="#1C252E"/>
<path d="M7.35047 10.17H3.63047C3.13047 10.17 2.73047 10.57 2.73047 11.07C2.73047 11.57 3.13047 11.97 3.63047 11.97H4.59047V21.3C4.59047 21.8 4.99047 22.2 5.49047 22.2C5.99047 22.2 6.39047 21.8 6.39047 21.3V11.97H7.35047C7.85047 11.97 8.25047 11.57 8.25047 11.07C8.25047 10.57 7.84047 10.17 7.35047 10.17Z" fill="#1C252E"/>
<path d="M20.37 10.17H16.65C16.15 10.17 15.75 10.57 15.75 11.07C15.75 11.57 16.15 11.97 16.65 11.97H17.61V21.3C17.61 21.8 18.01 22.2 18.51 22.2C19.01 22.2 19.41 21.8 19.41 21.3V11.97H20.37C20.87 11.97 21.27 11.57 21.27 11.07C21.27 10.57 20.87 10.17 20.37 10.17Z" fill="#1C252E"/>
<path d="M13.8602 12.03H12.9002V2.69999C12.9002 2.19999 12.5002 1.79999 12.0002 1.79999C11.5002 1.79999 11.1002 2.19999 11.1002 2.69999V12.03H10.1402C9.64023 12.03 9.24023 12.43 9.24023 12.93C9.24023 13.43 9.64023 13.83 10.1402 13.83H13.8602C14.3602 13.83 14.7602 13.43 14.7602 12.93C14.7602 12.43 14.3602 12.03 13.8602 12.03Z" fill="#1C252E"/>
</svg>
