<svg width="24" height="24" viewBox="0 0 24 24" fill="none" xmlns="http://www.w3.org/2000/svg">
<path d="M9.57324 11.7254C9.93991 11.5613 10.3955 11.5365 10.7842 11.7918C11.1709 12.0459 11.3291 12.4713 11.3291 12.8699V14.7205C11.329 14.9351 11.2712 15.1359 11.208 15.2869C11.1451 15.4371 11.0444 15.6156 10.8994 15.7605L10.8955 15.7654L9.25488 17.3748C9.25381 17.3781 9.25204 17.3819 9.25098 17.3865C9.25005 17.3905 9.24949 17.3942 9.24902 17.3972L9.54492 18.283L11.0557 17.0076L11.0576 17.0056C11.5585 16.5852 12.3098 16.5698 12.8379 16.9217L12.9404 16.9969L12.9551 17.0086L14.457 18.2849L14.749 17.407C14.7486 17.404 14.7489 17.4001 14.748 17.3963C14.7469 17.3915 14.7443 17.3879 14.7432 17.3845L13.1289 15.7595C12.9774 15.6078 12.8766 15.4254 12.8145 15.2722C12.7523 15.119 12.6993 14.9236 12.6992 14.7205V12.8699C12.6992 12.4777 12.8517 12.0505 13.2432 11.7947C13.5821 11.5733 13.9676 11.567 14.2969 11.6668L14.4346 11.7166L14.4453 11.7205V11.7215L17.7598 13.1453V12.2595C17.7596 12.1957 17.7301 12.0766 17.6455 11.947C17.5607 11.8172 17.4652 11.7446 17.4082 11.7205L17.4023 11.7185L13.4736 10.0222V10.0232C13.2148 9.91651 13.0306 9.72662 12.915 9.54666C12.7992 9.36609 12.71 9.12965 12.71 8.8699V6.79959C12.7098 6.63169 12.6421 6.39735 12.4961 6.16092C12.3508 5.92567 12.1698 5.75691 12.0176 5.67752H12.0127C12.0116 5.67779 12.0089 5.67846 12.0049 5.68045L12.001 5.68338C11.8539 5.75573 11.6747 5.9179 11.5303 6.15408C11.3864 6.38943 11.3194 6.62773 11.3193 6.79959V8.8699C11.3193 9.1416 11.2196 9.38007 11.1064 9.55252C10.9936 9.72435 10.8158 9.90993 10.5703 10.0174L10.5664 10.0183L6.62695 11.7185C6.57176 11.7424 6.47342 11.816 6.38574 11.949C6.29826 12.0817 6.26968 12.2001 6.26953 12.2595V13.1453L9.57324 11.7254ZM14.21 8.70681L17.9902 10.3386H17.9912C18.3843 10.5046 18.6938 10.8082 18.9014 11.1258C19.1088 11.4431 19.2597 11.8435 19.2598 12.2595V13.1902C19.2597 13.6811 19.0639 14.1733 18.6211 14.4627C18.1784 14.7518 17.6486 14.734 17.1992 14.5379V14.5369L14.1992 13.2478V14.6941C14.2005 14.6982 14.2022 14.7031 14.2041 14.7078C14.2058 14.712 14.2083 14.7162 14.21 14.7195L15.8291 16.3494C16.0385 16.5588 16.1552 16.8259 16.209 17.0584C16.2622 17.2883 16.2745 17.5763 16.1797 17.8562L16.1807 17.8572L15.8613 18.8172C15.5793 19.6633 14.6049 20.0821 13.7969 19.6678C13.7455 19.6414 13.6973 19.6084 13.6533 19.5711L12.0098 18.1736C12.0074 18.1733 12.0044 18.1726 12.001 18.1726H12L10.3438 19.573C10.2984 19.6114 10.2485 19.6441 10.1953 19.6707C9.37799 20.0793 8.41844 19.6605 8.1377 18.8064L7.81836 17.8474V17.8465C7.72365 17.5667 7.73686 17.2785 7.79004 17.0486C7.84384 16.8162 7.95961 16.549 8.16895 16.3396L8.17383 16.3347L9.81836 14.7195C9.82013 14.7159 9.82241 14.7121 9.82422 14.7078L9.8291 14.6931V13.2478L6.82617 14.5388L6.8252 14.5398C6.37683 14.732 5.84671 14.7539 5.40234 14.4617C4.9582 14.1696 4.76958 13.675 4.76953 13.1902V12.2595C4.76965 11.839 4.92658 11.4381 5.13379 11.1238C5.3411 10.8093 5.64743 10.5077 6.03223 10.3416L9.81934 8.70681V6.79959C9.81944 6.29171 9.99766 5.7851 10.251 5.37088C10.504 4.95716 10.8761 4.56429 11.3389 4.3367V4.33767C11.715 4.15108 12.1417 4.12747 12.5303 4.26834L12.6953 4.33963L12.7041 4.34353C13.1512 4.57461 13.5186 4.96092 13.7725 5.37185C14.0262 5.78254 14.2099 6.28771 14.21 6.79959V8.70681Z" fill="#1C252E"/>
<path d="M21.25 9C21.25 6.57397 20.7603 5.0708 19.8447 4.15527C18.9292 3.23974 17.426 2.75 15 2.75H9C6.57397 2.75 5.0708 3.23974 4.15527 4.15527C3.23974 5.0708 2.75 6.57397 2.75 9V15C2.75 17.426 3.23974 18.9292 4.15527 19.8447C5.0708 20.7603 6.57397 21.25 9 21.25H15C17.426 21.25 18.9292 20.7603 19.8447 19.8447C20.7603 18.9292 21.25 17.426 21.25 15V9ZM22.75 15C22.75 17.574 22.2397 19.5708 20.9053 20.9053C19.5708 22.2397 17.574 22.75 15 22.75H9C6.42603 22.75 4.4292 22.2397 3.09473 20.9053C1.76026 19.5708 1.25 17.574 1.25 15V9C1.25 6.42603 1.76026 4.4292 3.09473 3.09473C4.4292 1.76026 6.42603 1.25 9 1.25H15C17.574 1.25 19.5708 1.76026 20.9053 3.09473C22.2397 4.4292 22.75 6.42603 22.75 9V15Z" fill="#1C252E"/>
</svg>
