<svg width="24" height="24" viewBox="0 0 24 24" fill="none" xmlns="http://www.w3.org/2000/svg">
<path d="M12.139 6.87C13.1939 6.87 13.9867 7.13715 14.5404 7.70593C14.9995 8.17762 15.209 8.7764 15.3402 9.31433L15.3919 9.54089L15.3939 9.54578L15.6468 10.7499H16.2494C16.6635 10.7499 16.9993 11.0857 16.9994 11.4999C16.9994 11.9141 16.6636 12.2499 16.2494 12.2499H15.9613L16.2113 13.4442C16.3896 13.5584 16.5485 13.6951 16.6859 13.8583C17.0469 14.2872 17.1852 14.812 17.2543 15.2772L17.306 15.7177V15.7196L17.7367 20.2899V20.2919C17.8575 21.6205 16.8006 22.7499 15.4691 22.7499H14.0599C13.555 22.7499 13.1029 22.6406 12.7611 22.3163C12.4581 22.0286 12.3411 21.6433 12.2836 21.4823C12.2818 21.4774 12.2793 21.4726 12.2777 21.4677L12.1302 21.0243L12.0589 20.8221C12.0387 20.7676 12.0211 20.7231 12.0023 20.6835C11.9689 20.6133 11.9479 20.5925 11.9418 20.5868C11.9383 20.5836 11.9184 20.5657 11.85 20.5458C11.7711 20.5229 11.6351 20.4999 11.4095 20.4999H7.56968C7.13289 20.4999 7.04173 20.5945 7.0355 20.6005C6.99599 20.6377 6.9576 20.7041 6.84996 21.0214L6.70054 21.4677C6.64355 21.6437 6.53207 22.0314 6.223 22.3221C5.87753 22.6471 5.42024 22.7499 4.91929 22.7499H3.50914C2.18865 22.7497 1.11071 21.6307 1.24351 20.2909L1.66246 15.7216L1.66343 15.7177C1.71643 15.1733 1.80204 14.4303 2.28355 13.8583C2.43547 13.6778 2.61282 13.5289 2.8148 13.4081L3.05797 12.2499H2.74937C2.33521 12.2498 1.99937 11.9141 1.99937 11.4999C1.99944 11.0858 2.33526 10.7499 2.74937 10.7499H3.37242L3.62535 9.54578C3.74498 8.94975 3.94085 8.2456 4.46617 7.70593C5.02024 7.13674 5.81545 6.87 6.86949 6.87H12.139ZM4.38511 14.4999C3.74493 14.5425 3.52376 14.714 3.43101 14.8241C3.28796 14.994 3.21256 15.2753 3.15562 15.8573L3.1566 15.8583L2.73668 20.4286L2.7357 20.4364C2.69314 20.8532 3.03235 21.2497 3.50914 21.2499H4.91929C5.07673 21.2499 5.15849 21.2335 5.19468 21.2225C5.19562 21.2206 5.19754 21.2189 5.19859 21.2167C5.21906 21.1725 5.23858 21.1151 5.27672 20.9979L5.27769 20.993L5.42808 20.5428L5.42906 20.5389C5.51142 20.2962 5.64825 19.8474 6.00621 19.5096C6.39831 19.1397 6.92869 18.9999 7.56968 18.9999H11.4095C12.0304 18.9999 12.5618 19.1182 12.9593 19.4852C13.2306 19.7358 13.3768 20.0571 13.4701 20.3104L13.5482 20.536L13.5511 20.5428L13.6957 20.9774C13.7381 21.0963 13.7593 21.1544 13.7826 21.203C13.7858 21.2097 13.787 21.2161 13.7894 21.2206C13.8206 21.2314 13.8992 21.2499 14.0599 21.2499H15.4691C15.9366 21.2499 16.2801 20.8609 16.2425 20.4305L15.8128 15.8622C15.7559 15.2769 15.6819 14.9945 15.5384 14.8241C15.4458 14.7141 15.2245 14.5425 14.5843 14.4999H4.38511ZM6.86949 8.37C6.06354 8.37 5.71882 8.56853 5.54039 8.75183C5.33537 8.96252 5.20555 9.29516 5.09508 9.84753L5.09312 9.85437L4.43297 12.9979C4.51994 12.9943 4.60879 12.9901 4.69957 12.9901H14.2699C14.3777 12.9901 14.4828 12.9938 14.5853 12.9989L13.9261 9.85925C13.8045 9.29996 13.6738 8.9652 13.4662 8.75183C13.2873 8.56811 12.9442 8.37 12.139 8.37H6.86949Z" fill="#1C252E"/>
<path d="M7.25 16C7.66421 16 8 16.3358 8 16.75C8 17.1642 7.66421 17.5 7.25 17.5H5C4.58579 17.5 4.25 17.1642 4.25 16.75C4.25 16.3358 4.58579 16 5 16H7.25Z" fill="#1C252E"/>
<path d="M14 16C14.4142 16 14.75 16.3358 14.75 16.75C14.75 17.1642 14.4142 17.5 14 17.5H11.75C11.3358 17.5 11 17.1642 11 16.75C11 16.3358 11.3358 16 11.75 16H14Z" fill="#1C252E"/>
<path d="M16.3585 4.49982C17.3675 4.48561 18.3663 5.08198 18.9903 6.02033L19.1046 6.19904C19.6442 7.10201 19.7735 8.16637 19.3985 9.03693C19.2346 9.41733 18.7926 9.5924 18.4122 9.42853C18.032 9.26453 17.8568 8.82348 18.0206 8.44318C18.1804 8.07204 18.1538 7.46127 17.7481 6.86017L17.7442 6.85431C17.348 6.25607 16.7889 5.99414 16.38 5.99982C15.9658 6.00565 15.6251 5.67473 15.6192 5.26056C15.6134 4.84645 15.9444 4.50575 16.3585 4.49982Z" fill="#1C252E"/>
<path d="M16.7312 1.25586C18.5296 1.47496 20.3152 2.59102 21.4939 4.35351C22.6711 6.11401 23.0276 8.18702 22.5427 9.93066C22.4317 10.3296 22.0188 10.5629 21.6198 10.4521C21.2209 10.3412 20.9866 9.92824 21.0974 9.52929C21.4523 8.25309 21.2094 6.62588 20.2468 5.18652C19.2855 3.74929 17.8709 2.90508 16.5495 2.74414C16.1385 2.69397 15.8461 2.32029 15.8962 1.90918C15.9464 1.4981 16.3201 1.20579 16.7312 1.25586Z" fill="#1C252E"/>
</svg>
