<svg width="24" height="24" viewBox="0 0 24 24" fill="none" xmlns="http://www.w3.org/2000/svg">
<path d="M13.25 4.79028C13.25 4.49196 13.1354 4.11429 12.9121 3.75317C12.6902 3.39442 12.4032 3.11947 12.1328 2.97973C12.0457 2.93695 11.9466 2.93655 11.8594 2.97876C11.5902 3.11737 11.3022 3.39432 11.0791 3.75708C10.8553 4.12113 10.7402 4.50127 10.7402 4.80005V7.80005C10.7402 8.07174 10.6405 8.31023 10.5273 8.48266C10.4145 8.65448 10.2367 8.84007 9.99121 8.94751L9.9873 8.94848L4.40723 11.3586C4.40174 11.361 4.39616 11.3632 4.39062 11.3655C4.25426 11.4205 4.0843 11.5573 3.94434 11.7698C3.80484 11.9816 3.74034 12.2005 3.74023 12.3596V13.6497C3.74023 13.7669 3.76192 13.8392 3.7793 13.8762C3.79533 13.9103 3.80955 13.9192 3.8125 13.9211C3.81528 13.923 3.83033 13.9326 3.87012 13.9338C3.91207 13.9351 3.98637 13.9264 4.09277 13.8811L9.00293 11.761V11.762C9.36804 11.6015 9.81856 11.5791 10.2041 11.8323C10.591 12.0864 10.75 12.5117 10.75 12.9104V15.76C10.75 15.9995 10.6865 16.235 10.6094 16.4241C10.5329 16.6117 10.4126 16.8264 10.2412 16.9983L7.97168 19.2795L7.9707 19.2805C7.96865 19.2831 7.9613 19.2921 7.95215 19.3098C7.93974 19.3339 7.92759 19.3658 7.91895 19.4026C7.9103 19.4394 7.90681 19.4741 7.90723 19.5022L7.91211 19.5432V19.5442L8.35254 20.8743L8.35645 20.8879C8.39246 21.0037 8.51405 21.0726 8.63672 21.0413L10.877 19.1565C11.5064 18.6213 12.4935 18.6214 13.123 19.1565L15.3594 21.0374C15.479 21.0648 15.6142 21.0015 15.6611 20.8655L16.0986 19.5442L16.1006 19.5364C16.1013 19.5321 16.1023 19.522 16.1025 19.5061C16.1029 19.4787 16.0997 19.4437 16.0908 19.4055C16.0819 19.3672 16.0694 19.3339 16.0566 19.3088C16.0434 19.2829 16.0353 19.2757 16.04 19.2805L16.0391 19.2795L13.7686 16.9993L13.7695 16.9973C13.5944 16.8261 13.4719 16.6152 13.3945 16.4299C13.3141 16.2371 13.25 16.0001 13.25 15.76V12.9104C13.25 12.5182 13.4025 12.0901 13.7939 11.8342C14.1329 11.6129 14.5184 11.6075 14.8477 11.7073L14.9854 11.7561L14.998 11.761H14.9971L19.9072 13.8811H19.9062C20.0136 13.927 20.0888 13.9351 20.1309 13.9338C20.1697 13.9326 20.1843 13.9232 20.1875 13.9211C20.1902 13.9194 20.2045 13.9106 20.2207 13.8762C20.2381 13.8392 20.2598 13.7669 20.2598 13.6497V12.3596C20.2597 12.2007 20.1959 11.9817 20.0557 11.7678C19.9152 11.5536 19.7425 11.4114 19.6006 11.3518L19.5938 11.3489L14.0029 8.93872L14 8.93676C13.7545 8.82934 13.5757 8.64475 13.4629 8.4729C13.3497 8.30051 13.2501 8.06191 13.25 7.79028V4.79028ZM14.75 7.62719L20.1875 9.97094H20.1865C20.6615 10.172 21.0463 10.5434 21.3096 10.9446C21.574 11.3478 21.7597 11.8487 21.7598 12.3596V13.6497C21.7598 14.2551 21.5258 14.8379 21.0098 15.176C20.4948 15.5133 19.8681 15.4963 19.3145 15.259H19.3125L14.75 13.2883V15.76C14.75 15.7498 14.7488 15.7563 14.7539 15.7786C14.7587 15.7993 14.7669 15.8255 14.7783 15.8528C14.7898 15.8801 14.8024 15.9026 14.8125 15.9182C14.8197 15.9294 14.8231 15.9329 14.8213 15.9309L14.832 15.9407L17.1006 18.22L17.1865 18.3137C17.3774 18.5408 17.4932 18.8138 17.5518 19.0647C17.618 19.3485 17.6305 19.6911 17.5215 20.0149L17.082 21.3459L17.0791 21.3547C16.7331 22.3576 15.5853 22.8358 14.6348 22.3606C14.5821 22.3342 14.5324 22.3019 14.4873 22.2639L12.1572 20.304L12.1523 20.2991C12.0833 20.24 11.918 20.2401 11.8486 20.2991L11.8428 20.304L9.5127 22.2639C9.46899 22.3007 9.421 22.3327 9.37012 22.3586C8.41306 22.8456 7.25324 22.3634 6.92871 21.345L6.92773 21.3459L6.48828 20.0168C6.38002 19.6917 6.39111 19.3488 6.45898 19.0598C6.52673 18.7714 6.66958 18.4606 6.91016 18.22L9.17871 15.9407L9.17969 15.9397C9.16976 15.9496 9.17385 15.9488 9.18555 15.9299C9.19648 15.9123 9.20882 15.8868 9.2207 15.8577C9.23249 15.8287 9.24116 15.8013 9.24609 15.7795C9.25132 15.7564 9.25 15.75 9.25 15.76V13.2883L4.6875 15.259H4.68555C4.13184 15.4963 3.5052 15.5134 2.99023 15.176C2.47429 14.8379 2.24023 14.2551 2.24023 13.6497V12.3596C2.24033 11.8489 2.42608 11.3475 2.69141 10.9446C2.95315 10.5472 3.33723 10.1795 3.8125 9.98266V9.98169L9.24023 7.63696V4.80005C9.24023 4.15891 9.47069 3.5093 9.80176 2.97094C10.133 2.43239 10.6087 1.93461 11.1787 1.64282L11.1846 1.63891C11.6318 1.41529 12.1464 1.38721 12.6104 1.55493L12.8057 1.63891L12.8115 1.64282C13.3799 1.93376 13.8565 2.42733 14.1885 2.96411C14.5202 3.50048 14.75 4.14861 14.75 4.79028V7.62719Z" fill="#1C252E"/>
</svg>
