<svg width="24" height="24" viewBox="0 0 24 24" fill="none" xmlns="http://www.w3.org/2000/svg">
<path d="M10.2329 8.89287C11.3702 8.44269 12.6278 8.4427 13.7651 8.89287L13.7681 8.89385L20.6987 11.6741C21.9096 12.1612 22.64 13.554 22.3618 14.8206L21.9517 16.681V16.6829C21.17 20.2051 18.3717 22.7502 14.3794 22.7503H9.61963C5.62726 22.7503 2.82905 20.205 2.04736 16.6829L2.04639 16.681L1.63721 14.8216C1.35897 13.555 2.08844 12.1613 3.29932 11.6741L10.23 8.89385L10.2329 8.89287ZM13.2104 10.2855C12.4295 9.97719 11.5686 9.97708 10.7876 10.2855L3.85889 13.0657C3.33015 13.2786 2.98082 13.9452 3.10205 14.4983L3.51123 16.3577L3.57568 16.6243C4.28942 19.3589 6.47351 21.2503 9.61963 21.2503H14.3794C17.6267 21.2502 19.8483 19.2352 20.4868 16.3577L20.897 14.4983C21.0182 13.9451 20.668 13.2785 20.1392 13.0657L13.2104 10.2855Z" fill="#1C252E"/>
<path d="M11.25 22V10C11.25 9.58579 11.5858 9.25 12 9.25C12.4142 9.25 12.75 9.58579 12.75 10V22C12.75 22.4142 12.4142 22.75 12 22.75C11.5858 22.75 11.25 22.4142 11.25 22Z" fill="#1C252E"/>
<path d="M18.25 8C18.25 6.76421 17.2358 5.75 16 5.75H8C6.76421 5.75 5.75 6.76421 5.75 8V10.6904L10.2305 8.89355L10.2344 8.89258C11.3715 8.44258 12.6285 8.44258 13.7656 8.89258L13.7695 8.89355L18.25 10.6904V8ZM19.75 11.7998C19.75 12.0488 19.6262 12.2814 19.4199 12.4209C19.2137 12.5604 18.9518 12.5888 18.7207 12.4961L13.2109 10.2861V10.2852C12.43 9.97701 11.569 9.97679 10.7881 10.2852L10.7891 10.2861L5.2793 12.4961C5.04821 12.5888 4.78632 12.5604 4.58008 12.4209C4.37383 12.2814 4.25 12.0488 4.25 11.7998V8C4.25 5.93579 5.93579 4.25 8 4.25H16C18.0642 4.25 19.75 5.93579 19.75 8V11.7998Z" fill="#1C252E"/>
<path d="M13.75 3C13.75 2.86421 13.6358 2.75 13.5 2.75H10.5C10.3642 2.75 10.25 2.86421 10.25 3V4.25H13.75V3ZM15.25 5C15.25 5.41421 14.9142 5.75 14.5 5.75H9.5C9.08579 5.75 8.75 5.41421 8.75 5V3C8.75 2.03579 9.53579 1.25 10.5 1.25H13.5C14.4642 1.25 15.25 2.03579 15.25 3V5Z" fill="#1C252E"/>
</svg>
