<svg width="24" height="24" viewBox="0 0 24 24" fill="none" xmlns="http://www.w3.org/2000/svg">
<path d="M14.5508 1.25C15.5748 1.25004 16.3502 1.50896 16.8917 2.06543C17.4051 2.59334 17.5959 3.28263 17.7149 3.85645L17.9542 5H18.5303C18.9445 5 19.2803 5.33579 19.2803 5.75C19.2803 6.16421 18.9445 6.5 18.5303 6.5H18.2676L18.4981 7.60547C18.6771 7.71839 18.8361 7.8545 18.9737 8.01758C19.446 8.57777 19.5287 9.30278 19.5772 9.83105L19.9874 14.25L19.9971 14.4922C19.9789 15.6886 18.985 16.6504 17.7706 16.6504H16.4102C15.925 16.6503 15.4785 16.5475 15.1397 16.2266C14.8366 15.9392 14.7253 15.5557 14.669 15.3867V15.3857L14.5225 14.9668L14.5206 14.9609C14.4667 14.802 14.4344 14.71 14.3995 14.6357C14.3703 14.5737 14.3537 14.5576 14.3516 14.5557C14.3507 14.5548 14.3475 14.5515 14.3389 14.5469C14.3296 14.5418 14.3097 14.5326 14.2745 14.5225C14.2003 14.5012 14.0699 14.4805 13.8506 14.4805H10.1407C9.93154 14.4805 9.80504 14.503 9.73248 14.5254C9.66747 14.5455 9.64664 14.5648 9.64069 14.5703C9.60977 14.5992 9.57234 14.6552 9.47174 14.957L9.46881 14.9668L9.3194 15.3916C9.26419 15.5533 9.15307 15.9343 8.85358 16.2207C8.51682 16.5426 8.07122 16.6504 7.58014 16.6504H6.22076C4.92538 16.6504 3.88119 15.5562 4.00397 14.25L4.41412 9.83105L4.46197 9.4043C4.52777 8.95116 4.66321 8.43793 5.01764 8.01758C5.15778 7.85144 5.31987 7.71275 5.50299 7.59863L5.73346 6.5H5.47076C5.05655 6.5 4.72076 6.16421 4.72076 5.75C4.72076 5.33579 5.05655 5 5.47076 5H6.04694L6.28619 3.85645C6.40517 3.28263 6.59604 2.59335 7.10944 2.06543C7.65084 1.50894 8.42631 1.25006 9.45026 1.25H14.5508ZM7.06842 8.67969C6.45586 8.72064 6.24842 8.88455 6.16412 8.98438C6.03161 9.14154 5.95882 9.40706 5.90729 9.96875V9.96973L5.49713 14.3896V14.3906C5.4603 14.7842 5.77637 15.1504 6.22076 15.1504H7.58014C7.71121 15.1504 7.78359 15.1353 7.81744 15.126C7.81838 15.1241 7.82031 15.1223 7.82135 15.1201C7.84214 15.076 7.86174 15.0206 7.90045 14.9072L7.9024 14.9033L8.04889 14.4824C8.1283 14.2442 8.26232 13.8056 8.61627 13.4746C9.00196 13.1141 9.5209 12.9805 10.1407 12.9805H13.8506C14.4525 12.9805 14.9756 13.0916 15.3672 13.4521C15.721 13.7778 15.8553 14.2262 15.9385 14.4727L16.0889 14.9033L16.0919 14.9131C16.1299 15.0271 16.1498 15.0829 16.17 15.126V15.127C16.2045 15.1363 16.2769 15.1504 16.4102 15.1504H17.7706C18.215 15.1504 18.531 14.7842 18.4942 14.3906V14.3896L18.084 9.96973V9.96875C18.0325 9.40707 17.9597 9.14154 17.8272 8.98438C17.743 8.88456 17.5355 8.72067 16.9229 8.67969H7.06842ZM9.45026 2.75C8.67516 2.75006 8.35068 2.9407 8.18463 3.11133C7.99093 3.3105 7.86599 3.62622 7.75494 4.16211V4.16406L7.12408 7.17676C7.20452 7.17358 7.2865 7.16993 7.37018 7.16992H16.6202C16.7071 7.16992 16.7926 7.17431 16.876 7.17773L16.2462 4.16406V4.16211C16.1351 3.62624 16.0102 3.3105 15.8165 3.11133C15.6504 2.9407 15.3259 2.75004 14.5508 2.75H9.45026Z" fill="#1C252E"/>
<path d="M9.82031 10.08C10.2345 10.08 10.5703 10.4158 10.5703 10.83C10.5703 11.2442 10.2345 11.58 9.82031 11.58H7.65039C7.23618 11.58 6.90039 11.2442 6.90039 10.83C6.90039 10.4158 7.23618 10.08 7.65039 10.08H9.82031Z" fill="#1C252E"/>
<path d="M16.3496 10.08C16.7638 10.08 17.0996 10.4158 17.0996 10.83C17.0996 11.2442 16.7638 11.58 16.3496 11.58H14.1797C13.7655 11.58 13.4297 11.2442 13.4297 10.83C13.4297 10.4158 13.7655 10.08 14.1797 10.08H16.3496Z" fill="#1C252E"/>
<path d="M11.25 18V17C11.25 16.5858 11.5858 16.25 12 16.25C12.4142 16.25 12.75 16.5858 12.75 17V18C12.75 18.4142 12.4142 18.75 12 18.75C11.5858 18.75 11.25 18.4142 11.25 18Z" fill="#1C252E"/>
<path d="M11.25 22V21C11.25 20.5858 11.5858 20.25 12 20.25C12.4142 20.25 12.75 20.5858 12.75 21V22C12.75 22.4142 12.4142 22.75 12 22.75C11.5858 22.75 11.25 22.4142 11.25 22Z" fill="#1C252E"/>
<path d="M2.2725 17.8184C2.37295 17.4166 2.77991 17.1722 3.18168 17.2725C3.58345 17.3729 3.82789 17.7799 3.72758 18.1817L2.72758 22.1817C2.62714 22.5834 2.22017 22.8279 1.8184 22.7276C1.41663 22.6271 1.17219 22.2201 1.2725 21.8184L2.2725 17.8184Z" fill="#1C252E"/>
<path d="M20.8184 17.2725C21.2202 17.1722 21.6271 17.4166 21.7276 17.8184L22.7276 21.8184C22.8279 22.2201 22.5835 22.6271 22.1817 22.7276C21.7799 22.8279 21.3729 22.5834 21.2725 22.1817L20.2725 18.1817C20.1722 17.7799 20.4166 17.3729 20.8184 17.2725Z" fill="#1C252E"/>
</svg>
