<svg width="24" height="24" viewBox="0 0 24 24" fill="none" xmlns="http://www.w3.org/2000/svg">
<path d="M16.75 5C16.75 4.17696 16.4801 3.63904 16.1143 3.30176C15.7383 2.95525 15.1836 2.75 14.5 2.75H6.5C5.81637 2.75 5.2617 2.95525 4.88574 3.30176C4.51988 3.63904 4.25 4.17696 4.25 5V21.25H16.75V5ZM18.25 21.25H19C19.4142 21.25 19.75 21.5858 19.75 22C19.75 22.4142 19.4142 22.75 19 22.75H2C1.58579 22.75 1.25 22.4142 1.25 22C1.25 21.5858 1.58579 21.25 2 21.25H2.75V5C2.75 3.82316 3.15008 2.86097 3.86914 2.19824C4.57817 1.54481 5.52367 1.25 6.5 1.25H14.5C15.4763 1.25 16.4218 1.54481 17.1309 2.19824C17.8499 2.86097 18.25 3.82316 18.25 5V21.25Z" fill="#1C252E"/>
<path d="M13.7598 6.87964C13.7597 6.344 13.6021 6.10158 13.4619 5.97925C13.303 5.84066 13.0328 5.74001 12.6201 5.73999H8.38965C7.97712 5.74005 7.7067 5.84069 7.54785 5.97925C7.40769 6.10162 7.25007 6.34417 7.25 6.87964V8.11011C7.25002 8.64604 7.40761 8.88915 7.54785 9.01147C7.70672 9.14998 7.97723 9.2497 8.38965 9.24976H12.6201C13.0325 9.24974 13.303 9.14994 13.4619 9.01147C13.6022 8.88915 13.7597 8.64604 13.7598 8.11011V6.87964ZM15.2598 8.11011C15.2597 8.96394 14.9929 9.66622 14.4482 10.1414C13.9222 10.6002 13.2474 10.7497 12.6201 10.7498H8.38965C7.76247 10.7497 7.08753 10.6002 6.56152 10.1414C6.017 9.66622 5.75003 8.96387 5.75 8.11011V6.87964C5.75007 6.02592 6.01698 5.32349 6.56152 4.84839C7.08753 4.38957 7.76247 4.24005 8.38965 4.23999H12.6201C13.2474 4.24001 13.9222 4.38952 14.4482 4.84839C14.9929 5.32349 15.2597 6.02585 15.2598 6.87964V8.11011Z" fill="#1C252E"/>
<path d="M9.5 12.25C9.91421 12.25 10.25 12.5858 10.25 13C10.25 13.4142 9.91421 13.75 9.5 13.75H6.5C6.08579 13.75 5.75 13.4142 5.75 13C5.75 12.5858 6.08579 12.25 6.5 12.25H9.5Z" fill="#1C252E"/>
<path d="M19.3291 8.66502C19.5143 8.29466 19.9646 8.14414 20.335 8.32908L22.335 9.32908C22.5891 9.45612 22.75 9.7159 22.75 9.99998V16C22.75 16.4134 22.4154 16.7489 22.002 16.75L17.502 16.7597C17.0878 16.7607 16.751 16.4259 16.75 16.0117C16.7491 15.5976 17.084 15.2608 17.498 15.2597L21.25 15.251V10.4629L19.665 9.67088C19.2947 9.4857 19.1442 9.03543 19.3291 8.66502Z" fill="#1C252E"/>
</svg>
