<svg width="24" height="24" viewBox="0 0 24 24" fill="none" xmlns="http://www.w3.org/2000/svg">
<path d="M15.5093 2.07999C16.8778 2.07999 17.863 2.42404 18.5395 3.11612C19.1885 3.7802 19.4391 4.65697 19.603 5.43546V5.43643L19.9819 7.24991H20.9995C21.4136 7.25005 21.7494 7.58582 21.7495 7.99991C21.7495 8.41403 21.4136 8.74977 20.9995 8.74991H20.2954L20.7114 10.7431C20.9808 10.8967 21.2126 11.088 21.4077 11.3192C21.9213 11.9283 22.0715 12.7026 22.1469 13.3778L22.1762 13.6601V13.661L22.7358 19.7499L22.7456 19.9013C22.8067 21.4606 21.5339 22.7498 19.9594 22.7499H18.0796C17.4432 22.7499 16.9113 22.6153 16.519 22.2431C16.1621 21.9044 16.0288 21.4501 15.9477 21.2069L15.7475 20.6073V20.6064C15.5918 20.1508 15.5277 20.0142 15.435 19.9286C15.3776 19.8757 15.2006 19.7499 14.5591 19.7499H9.43894C8.81782 19.7499 8.62638 19.8838 8.55711 19.9491C8.45437 20.0461 8.38777 20.1954 8.25046 20.6073L8.05027 21.2069C7.96921 21.4501 7.83588 21.9044 7.47898 22.2431C7.08679 22.6151 6.55558 22.7499 5.91941 22.7499H4.03953C2.41431 22.7499 1.10937 21.3763 1.26218 19.7499L1.82273 13.661V13.6601C1.89117 12.9268 2.00423 12.0153 2.59129 11.3192C2.78627 11.0881 3.01738 10.8966 3.2866 10.7431L3.70261 8.74991H2.99949C2.58527 8.74991 2.24949 8.41412 2.24949 7.99991C2.24953 7.58573 2.5853 7.24991 2.99949 7.24991H4.01511L4.395 5.43643V5.43546C4.55891 4.65686 4.8103 3.78024 5.45945 3.11612C6.13588 2.42412 7.12039 2.08007 8.48875 2.07999H15.5093ZM5.19968 11.7626C4.29817 11.8205 3.92327 12.0662 3.73777 12.286C3.48989 12.5799 3.38746 13.033 3.31589 13.7997L2.75632 19.8886V19.8905C2.68943 20.604 3.2649 21.2499 4.03953 21.2499H5.91941C6.3513 21.2499 6.44211 21.1601 6.44675 21.1552C6.48235 21.1214 6.51847 21.0592 6.62742 20.7323L6.82761 20.1327C6.94025 19.7948 7.10412 19.2588 7.52879 18.8583C7.98694 18.4263 8.62049 18.2499 9.43894 18.2499H14.5591C15.3564 18.2499 15.9898 18.3991 16.4526 18.8261C16.7728 19.1216 16.9463 19.5039 17.0649 19.828L17.1694 20.1278L17.1704 20.1327L17.3706 20.7323C17.4795 21.0592 17.5166 21.1214 17.5522 21.1552C17.5593 21.1624 17.6537 21.2499 18.0796 21.2499H19.9594C20.7339 21.2498 21.3095 20.6039 21.2427 19.8905V19.8886L20.6821 13.7997L20.6216 13.2812C20.551 12.8165 20.4471 12.5065 20.2612 12.286C20.0758 12.0662 19.7006 11.8206 18.7993 11.7626L18.3794 11.7499H5.61961L5.19968 11.7626ZM8.48875 3.57999C7.3678 3.58007 6.83268 3.85614 6.53171 4.16397C6.20373 4.49951 6.01875 5.00193 5.86277 5.7421L5.86375 5.74307L4.92234 10.2499H19.0766L18.1352 5.74405C17.9792 5.00291 17.7945 4.49978 17.4663 4.16397C17.1652 3.85619 16.6302 3.57999 15.5093 3.57999H12.7495V4.24991H13.4995C13.9136 4.25005 14.2494 4.58582 14.2495 4.99991C14.2495 5.41403 13.9136 5.74977 13.4995 5.74991H10.4995C10.0853 5.74991 9.74949 5.41412 9.74949 4.99991C9.74953 4.58573 10.0853 4.24991 10.4995 4.24991H11.2495V3.57999H8.48875Z" fill="#1C252E"/>
<path d="M9 14.25C9.41421 14.25 9.75 14.5858 9.75 15C9.75 15.4142 9.41421 15.75 9 15.75H6C5.58579 15.75 5.25 15.4142 5.25 15C5.25 14.5858 5.58579 14.25 6 14.25H9Z" fill="#1C252E"/>
<path d="M18 14.25C18.4142 14.25 18.75 14.5858 18.75 15C18.75 15.4142 18.4142 15.75 18 15.75H15C14.5858 15.75 14.25 15.4142 14.25 15C14.25 14.5858 14.5858 14.25 15 14.25H18Z" fill="#1C252E"/>
</svg>
