<svg width="24" height="24" viewBox="0 0 24 24" fill="none" xmlns="http://www.w3.org/2000/svg">
<path d="M19.25 13.6191C19.0152 13.702 18.7635 13.75 18.5 13.75H5.5C5.23655 13.75 4.98479 13.702 4.75 13.6191V18.9004C4.75022 20.1943 5.81256 21.2498 7.09961 21.25H16.9004C18.1959 21.2498 19.2498 20.1959 19.25 18.9004V13.6191ZM5.5 8.75C5.08421 8.75 4.75 9.08421 4.75 9.5V11.5C4.75 11.9158 5.08421 12.25 5.5 12.25H18.5C18.9158 12.25 19.25 11.9158 19.25 11.5V9.5C19.25 9.08421 18.9158 8.75 18.5 8.75H5.5ZM19.25 5.09961C19.2498 3.80571 18.1874 2.75022 16.9004 2.75H7.09961C5.80571 2.75022 4.75022 3.81256 4.75 5.09961V7.37988C4.9847 7.29705 5.23666 7.25 5.5 7.25H18.5C18.7633 7.25 19.0153 7.29705 19.25 7.37988V5.09961ZM20.75 18.9004C20.7498 21.0243 19.0243 22.7498 16.9004 22.75H7.09961C4.98728 22.7498 3.25022 21.0259 3.25 18.9004V5.09961C3.25022 2.98728 4.97414 1.25022 7.09961 1.25H16.9004C19.0127 1.25022 20.7498 2.97414 20.75 5.09961V18.9004Z" fill="#1C252E"/>
<path d="M8.50391 16.45C9.19407 16.4502 9.75391 17.0098 9.75391 17.7C9.75391 18.3902 9.19407 18.9498 8.50391 18.95H8.49414C7.80395 18.9498 7.24414 18.3902 7.24414 17.7C7.24414 17.0098 7.80395 16.4502 8.49414 16.45H8.50391Z" fill="#1C252E"/>
<path d="M15.5039 16.45C16.1941 16.4502 16.7539 17.0098 16.7539 17.7C16.7539 18.3902 16.1941 18.9498 15.5039 18.95H15.4941C14.804 18.9498 14.2441 18.3902 14.2441 17.7C14.2441 17.0098 14.804 16.4502 15.4941 16.45H15.5039Z" fill="#1C252E"/>
<path d="M14.5 4.25C14.9142 4.25 15.25 4.58579 15.25 5C15.25 5.41421 14.9142 5.75 14.5 5.75H9.5C9.08579 5.75 8.75 5.41421 8.75 5C8.75 4.58579 9.08579 4.25 9.5 4.25H14.5Z" fill="#1C252E"/>
</svg>
