<svg width="24" height="24" viewBox="0 0 24 24" fill="none" xmlns="http://www.w3.org/2000/svg">
<path d="M21.0169 7.99175C21.4148 8.55833 20.9405 9.25 20.2482 9.25H3C2.44772 9.25 2 8.80228 2 8.25V6.42C2 3.98 3.98 2 6.42 2H8.74C10.37 2 10.88 2.53 11.53 3.4L12.93 5.26C13.24 5.67 13.28 5.72 13.86 5.72H16.65C18.4546 5.72 20.0516 6.61709 21.0169 7.99175Z" fill="#1C252E"/>
<path d="M20.9834 10.75C21.5344 10.75 21.9815 11.1961 21.9834 11.7471L22 16.6504C21.9998 19.6001 19.6001 21.9998 16.6504 22H7.34961C4.39992 21.9998 2.00021 19.6001 2 16.6504V11.75C2 11.1977 2.44772 10.75 3 10.75H20.9834ZM13.3193 13C12.7788 13.0001 12.3069 13.2697 11.9541 13.7793C11.8822 13.8832 11.8215 13.987 11.7725 14.083C11.7234 13.9871 11.6637 13.8832 11.5918 13.7793C11.2389 13.2694 10.7663 13 10.2256 13C9.74054 13.0001 9.29713 13.1983 8.97754 13.5586C8.66948 13.906 8.50003 14.3737 8.5 14.875C8.5 15.8488 9.17289 16.4731 10.0244 17.2637C10.5167 17.7208 11.0748 18.239 11.626 18.9277C11.6624 18.9732 11.7158 18.9999 11.7725 19C11.8292 19 11.8835 18.9733 11.9199 18.9277C12.471 18.2391 13.0292 17.7207 13.5215 17.2637C14.3729 16.4732 15.0459 15.8487 15.0459 14.875C15.0459 14.3737 14.8754 13.906 14.5674 13.5586C14.2478 13.1984 13.8044 13 13.3193 13Z" fill="#1C252E"/>
</svg>
