<svg width="24" height="24" viewBox="0 0 24 24" fill="none" xmlns="http://www.w3.org/2000/svg">
<path d="M19.58 4.02V6.24C19.58 7.05 19.08 8.06 18.58 8.57L18.4 8.73C18.26 8.86 18.05 8.89 17.87 8.83C17.67 8.76 17.47 8.71 17.27 8.66C16.83 8.55 16.36 8.5 15.88 8.5C12.43 8.5 9.62998 11.3 9.62998 14.75C9.62998 15.89 9.93998 17.01 10.53 17.97C11.03 18.81 11.73 19.51 12.49 19.98C12.72 20.13 12.81 20.45 12.61 20.63C12.54 20.69 12.47 20.74 12.4 20.79L11 21.7C9.69998 22.51 7.90998 21.6 7.90998 19.98V14.63C7.90998 13.92 7.50998 13.01 7.10998 12.51L3.31998 8.47C2.81998 7.96 2.41998 7.05 2.41998 6.45V4.12C2.41998 2.91 3.31998 2 4.40998 2H17.59C18.68 2 19.58 2.91 19.58 4.02Z" fill="#1C252E"/>
<path d="M19.0486 14.5444C19.0486 12.6864 17.5424 11.1802 15.6843 11.1802C13.8263 11.1802 12.3201 12.6864 12.3201 14.5444C12.3201 16.4025 13.8263 17.9087 15.6843 17.9087C17.5424 17.9087 19.0486 16.4025 19.0486 14.5444ZM20.5486 14.5444C20.5486 15.6368 20.1878 16.6446 19.5798 17.4565C19.6647 17.493 19.7448 17.5445 19.8142 17.6138L21.1003 18.8999C21.3932 19.1928 21.3932 19.6676 21.1003 19.9604C20.8074 20.2533 20.3327 20.2533 20.0398 19.9604L18.7537 18.6743C18.6844 18.6049 18.6329 18.5249 18.5964 18.4399C17.7845 19.0479 16.7767 19.4087 15.6843 19.4087C12.9979 19.4087 10.8201 17.2309 10.8201 14.5444C10.8201 11.858 12.9979 9.6802 15.6843 9.68018C18.3708 9.68018 20.5486 11.858 20.5486 14.5444Z" fill="#1C252E"/>
</svg>
