<svg width="24" height="24" viewBox="0 0 24 24" fill="none" xmlns="http://www.w3.org/2000/svg">
<path d="M12.0002 14C6.99016 14 2.91016 17.36 2.91016 21.5C2.91016 21.78 3.13016 22 3.41016 22H20.5902C20.8702 22 21.0902 21.78 21.0902 21.5C21.0902 17.36 17.0102 14 12.0002 14Z" fill="#1C252E"/>
<path d="M11.7803 2C14.41 2.00015 16.5496 4.12984 16.5498 6.76953C16.5498 7.73947 16.2597 8.63968 15.7598 9.38965L16.7197 10.3496C17.0897 10.7296 17.09 11.34 16.71 11.71C16.53 11.8999 16.2802 11.9902 16.0303 11.9902C15.7903 11.9902 15.5396 11.9 15.3496 11.71L14.3896 10.75C13.6397 11.2499 12.7394 11.54 11.7695 11.54C9.13975 11.5398 7 9.39937 7 6.76953C7.00026 4.13975 9.15043 2 11.7803 2ZM11.7861 3.81738C10.1467 3.81756 8.81754 5.14771 8.81738 6.78711C8.81769 8.42639 10.1468 9.75568 11.7861 9.75586C13.4255 9.75574 14.7556 8.42642 14.7559 6.78711C14.7557 5.14767 13.4256 3.8175 11.7861 3.81738Z" fill="#1C252E"/>
</svg>
