<svg width="24" height="24" viewBox="0 0 24 24" fill="none" xmlns="http://www.w3.org/2000/svg">
<path d="M12.0002 14C6.99016 14 2.91016 17.36 2.91016 21.5C2.91016 21.78 3.13016 22 3.41016 22H20.5902C20.8702 22 21.0902 21.78 21.0902 21.5C21.0902 17.36 17.0102 14 12.0002 14Z" fill="#1C252E"/>
<path d="M16.8496 5.79999C16.7296 5.30999 16.5296 4.82999 16.2496 4.38999C16.0596 4.06999 15.8096 3.74999 15.5396 3.46999C14.6396 2.56999 13.4696 2.07999 12.2696 2.01999C10.9096 1.92999 9.5196 2.42999 8.4696 3.46999C7.4796 4.44999 6.9796 5.75999 6.9996 7.07999C7.0096 8.32999 7.5096 9.57999 8.4596 10.54C9.1196 11.2 9.9296 11.64 10.7996 11.84C11.2696 11.96 11.7696 12.02 12.2696 11.98C13.4596 11.93 14.6196 11.46 15.5296 10.54C16.8196 9.24999 17.2596 7.43999 16.8496 5.79999ZM13.9996 8.99999C13.6396 9.35999 13.0396 9.35999 12.6796 8.99999L11.9896 8.30999L11.3296 8.96999C10.9696 9.32999 10.3696 9.32999 10.0096 8.96999C9.6396 8.59999 9.6396 8.00999 9.9996 7.64999L10.6596 6.98999L10.0196 6.36999C9.6596 5.99999 9.6596 5.40999 10.0196 5.02999C10.3896 4.66999 10.9796 4.66999 11.3596 5.02999L11.9796 5.66999L12.6496 4.99999C13.0096 4.63999 13.5996 4.63999 13.9696 4.99999C14.3296 5.35999 14.3296 5.95999 13.9696 6.31999L13.3096 6.97999L13.9996 7.67999C14.3596 8.03999 14.3596 8.63999 13.9996 8.99999Z" fill="#1C252E"/>
</svg>
