<svg width="24" height="24" viewBox="0 0 24 24" fill="none" xmlns="http://www.w3.org/2000/svg">
<path d="M10.33 7.51001C10.83 7.36001 11.38 7.26001 12 7.26001C14.76 7.26001 17 9.50001 17 12.26C17 15.02 14.76 17.26 12 17.26C9.24 17.26 7 15.02 7 12.26C7 11.23 7.31 10.28 7.84 9.48001" stroke="#1C252E" stroke-width="1.5" stroke-linecap="round" stroke-linejoin="round"/>
<path d="M9.62012 7.64999L11.2801 5.73999" stroke="#1C252E" stroke-width="1.5" stroke-linecap="round" stroke-linejoin="round"/>
<path d="M9.62012 7.6499L11.5601 9.0699" stroke="#1C252E" stroke-width="1.5" stroke-linecap="round" stroke-linejoin="round"/>
<path d="M2 9C2 4 4 2 9 2H15C20 2 22 4 22 9V15C22 20 20 22 15 22H9C4 22 2 20 2 15" stroke="#1C252E" stroke-width="1.5" stroke-linecap="round" stroke-linejoin="round"/>
</svg>
