<svg width="24" height="24" viewBox="0 0 24 24" fill="none" xmlns="http://www.w3.org/2000/svg">
<path d="M20.2704 18.68C19.2804 19.59 17.9804 20.09 16.6304 20.08H5.54043C0.87043 19.74 0.860431 12.94 5.54043 12.6H5.59043C2.89043 5.06002 12.1204 1.34002 16.0004 6.03002V6.04002C16.7004 6.90002 17.2304 8.04002 17.4704 9.49002C18.8004 9.66002 19.8804 10.31 20.6504 11.23C22.4004 13.3 22.5504 16.68 20.2704 18.68Z" stroke="#1C252E" stroke-width="1.5" stroke-miterlimit="10" stroke-linecap="round" stroke-linejoin="round"/>
<path d="M7.25984 13.01C6.73984 12.75 6.16984 12.61 5.58984 12.6" stroke="#1C252E" stroke-width="1.5" stroke-miterlimit="10" stroke-linecap="round" stroke-linejoin="round"/>
<path d="M15.8496 9.92001C16.3696 9.66001 16.9396 9.52001 17.5196 9.51001" stroke="#1C252E" stroke-width="1.5" stroke-miterlimit="10" stroke-linecap="round" stroke-linejoin="round"/>
<path d="M21.97 8.5C21.97 9.6 21.46 10.59 20.65 11.23C19.88 10.31 18.8 9.66 17.47 9.49C17.23 8.04 16.7 6.9 16 6.04V6.03C16.63 5.39 17.51 5 18.47 5C20.4 5 21.97 6.57 21.97 8.5Z" stroke="#1C252E" stroke-width="1.5" stroke-miterlimit="10" stroke-linecap="round" stroke-linejoin="round"/>
</svg>
