<svg width="24" height="24" viewBox="0 0 24 24" fill="none" xmlns="http://www.w3.org/2000/svg">
<path d="M15.7803 2C19.56 2.00005 20.5002 3.01014 20.4902 7.04004V18.29C20.4902 20.95 19.0398 21.5797 17.2598 19.6797C16.4398 18.8 15.1896 18.8702 14.4697 19.8301L13.46 21.1797C12.65 22.2497 11.3403 22.2497 10.5303 21.1797L9.51953 19.8301C8.80959 18.8803 7.56019 18.81 6.74023 19.6797L6.73047 19.6904C4.96047 21.5904 3.5 20.9598 3.5 18.2998V7.04004C3.5 3.01014 4.43995 2.00005 8.21973 2H15.7803ZM11.9502 7C9.76867 7 8 8.76867 8 10.9502C8.0001 13.1316 9.76874 14.9004 11.9502 14.9004C12.7713 14.9004 13.5333 14.6485 14.165 14.2197C14.1819 14.2407 14.2003 14.2608 14.2197 14.2803L15.2197 15.2803C15.5126 15.5732 15.9874 15.5732 16.2803 15.2803C16.5732 14.9874 16.5732 14.5126 16.2803 14.2197L15.2803 13.2197C15.2608 13.2003 15.2407 13.1819 15.2197 13.165C15.6485 12.5333 15.9004 11.7713 15.9004 10.9502C15.9004 8.76874 14.1316 7.0001 11.9502 7ZM11.9502 8.5C13.3032 8.5001 14.4004 9.59715 14.4004 10.9502C14.4003 12.3031 13.3031 13.4003 11.9502 13.4004C10.5971 13.4004 9.5001 12.3032 9.5 10.9502C9.5 9.5971 10.5971 8.5 11.9502 8.5Z" fill="#1C252E"/>
</svg>
