<svg width="24" height="24" viewBox="0 0 24 24" fill="none" xmlns="http://www.w3.org/2000/svg">
<path d="M8.2584 21.2448C8.90537 20.5978 9.27704 19.7719 9.37339 18.9185C9.50416 17.7828 9.12562 16.6059 8.2584 15.7387C7.74219 15.2224 7.10899 14.8783 6.44137 14.72C5.16807 14.3965 3.75711 14.7338 2.75224 15.7387C2.05709 16.4338 1.67854 17.3217 1.63036 18.2371C1.59595 18.6294 1.63036 19.0355 1.7336 19.4278C1.8919 20.0954 2.23604 20.7286 2.75224 21.2448C4.27332 22.7659 6.73732 22.7659 8.2584 21.2448ZM6.96445 17.7759C7.36365 17.7759 7.69402 18.1063 7.69402 18.5055C7.68713 18.9116 7.36365 19.2351 6.95757 19.2419L6.23488 19.2351L6.24177 19.9302C6.23488 20.3363 5.9114 20.6598 5.50532 20.6667C5.09924 20.6598 4.77575 20.3363 4.76887 19.9302L4.77575 19.2351L4.05307 19.2419C3.64699 19.2351 3.3235 18.9116 3.31662 18.5055C3.3235 18.3059 3.4061 18.1269 3.53687 17.9962C3.66764 17.8654 3.84659 17.7828 4.04619 17.7759L4.77575 17.7759L4.77575 17.0188C4.77575 16.8124 4.85834 16.6334 4.98912 16.5026C5.11989 16.3719 5.29884 16.2893 5.50532 16.2893C5.90451 16.2893 6.23488 16.6196 6.23488 17.0188L6.23488 17.7759L6.96445 17.7759Z" fill="#1C252E"/>
<path d="M15.0942 3.84554V7.54431H13.6342V3.84554C13.6342 3.58273 13.4006 3.45619 13.2449 3.45619C13.1962 3.45619 13.1475 3.46593 13.0989 3.4854L5.38011 6.39574C4.86422 6.59042 4.53328 7.07709 4.53328 7.63191V8.28406C3.64752 8.94595 3.07324 10.0069 3.07324 11.2041V7.63191C3.07324 6.47361 3.7838 5.44185 4.86422 5.03304L12.5927 2.11296C12.8068 2.03509 13.0307 1.99615 13.2449 1.99615C14.2182 1.99615 15.0942 2.78458 15.0942 3.84554Z" fill="#1C252E"/>
<path d="M21.5686 14.1153V15.0886C21.5686 15.3514 21.3642 15.5656 21.0916 15.5753H19.6705C19.1546 15.5753 18.6874 15.1957 18.6485 14.6895C18.6193 14.3878 18.7361 14.1055 18.9308 13.9108C19.106 13.7259 19.3493 13.6286 19.6121 13.6286H21.0819C21.3642 13.6383 21.5686 13.8524 21.5686 14.1153Z" fill="#1C252E"/>
<path d="M19.6009 12.605H20.5937C21.1291 12.605 21.5671 12.167 21.5671 11.6317V11.2034C21.5671 9.18853 19.9221 7.54355 17.9073 7.54355H6.73308C5.90572 7.54355 5.1465 7.81609 4.53328 8.2833C3.64752 8.94519 3.07324 10.0061 3.07324 11.2034V12.936C3.07324 13.3058 3.46259 13.5394 3.813 13.4226C4.35808 13.2377 4.93236 13.1404 5.50664 13.1404C8.45592 13.1404 10.8601 15.5446 10.8601 18.4939C10.8601 19.1947 10.6752 19.9636 10.3832 20.645C10.2274 20.9954 10.4708 21.4139 10.8504 21.4139H17.9073C19.9221 21.4139 21.5671 19.769 21.5671 17.7541V17.5692C21.5671 17.0338 21.1291 16.5958 20.5937 16.5958H19.7469C18.8125 16.5958 17.917 16.0215 17.6736 15.1163C17.479 14.3765 17.7126 13.6563 18.1993 13.189C18.5594 12.8192 19.0558 12.605 19.6009 12.605ZM14.2669 12.4103H9.40008C9.00101 12.4103 8.67006 12.0794 8.67006 11.6803C8.67006 11.2813 9.00101 10.9503 9.40008 10.9503H14.2669C14.666 10.9503 14.9969 11.2813 14.9969 11.6803C14.9969 12.0794 14.666 12.4103 14.2669 12.4103Z" fill="#1C252E"/>
</svg>
