<svg width="24" height="24" viewBox="0 0 24 24" fill="none" xmlns="http://www.w3.org/2000/svg">
<path d="M7.75019 18.7069C7.75019 17.3512 6.65569 16.2568 5.29999 16.2567C3.94421 16.2567 2.8498 17.3511 2.8498 18.7069C2.8499 20.0626 3.94427 21.1571 5.29999 21.1571C6.65562 21.157 7.75009 20.0626 7.75019 18.7069ZM9.25019 18.7069C9.25009 20.891 7.48406 22.657 5.29999 22.6571C4.47718 22.6571 3.71327 22.4066 3.08124 21.9774C3.06472 21.9978 3.04749 22.018 3.02851 22.037L2.02851 23.037C1.73561 23.3299 1.26085 23.3299 0.967961 23.037C0.675068 22.7441 0.675068 22.2693 0.967961 21.9764L1.96796 20.9764C1.98724 20.9572 2.00678 20.9385 2.02753 20.9218C1.59973 20.2904 1.34983 19.5283 1.3498 18.7069C1.3498 16.5227 3.11578 14.7567 5.29999 14.7567C7.48412 14.7568 9.25019 16.5228 9.25019 18.7069Z" fill="#1C252E"/>
<path d="M21.501 12.5H19.001C17.901 12.5 17.001 13.4 17.001 14.5C17.001 15.6 17.901 16.5 19.001 16.5H21.501C21.781 16.5 22.001 16.28 22.001 16V13C22.001 12.72 21.781 12.5 21.501 12.5Z" fill="#1C252E"/>
<path d="M16.5309 5.39997C16.8309 5.68997 16.5809 6.13997 16.1609 6.13997L7.88094 6.12997C7.40094 6.12997 7.16094 5.54997 7.50094 5.20997L9.25094 3.44997C10.7309 1.97997 13.1209 1.97997 14.6009 3.44997L16.4909 5.35997C16.5009 5.36997 16.5209 5.38997 16.5309 5.39997Z" fill="#1C252E"/>
<path d="M21.8711 18.66C21.2611 20.72 19.5011 22 17.1011 22H10.6011C10.2111 22 9.96108 21.57 10.1211 21.21C10.4211 20.51 10.6111 19.72 10.6111 19C10.6111 15.97 8.14108 13.5 5.11108 13.5C4.35108 13.5 3.61108 13.66 2.93108 13.96C2.56108 14.12 2.11108 13.87 2.11108 13.47V12C2.11108 9.28 3.75108 7.38 6.30108 7.06C6.55108 7.02 6.82108 7 7.10108 7H17.1011C17.3611 7 17.6111 7.01 17.8511 7.05C19.8711 7.28 21.3311 8.51 21.8711 10.34C21.9711 10.67 21.7311 11 21.3911 11H19.1011C16.9311 11 15.2111 12.98 15.6811 15.23C16.0111 16.87 17.5311 18 19.2011 18H21.3911C21.7411 18 21.9711 18.34 21.8711 18.66Z" fill="#1C252E"/>
</svg>
