<svg width="24" height="24" viewBox="0 0 24 24" fill="none" xmlns="http://www.w3.org/2000/svg">
<path opacity="0.4" d="M18.125 8.45801C20.75 8.45801 22.5 11.5375 22.5 15.8877C22.5 18.8717 22.1062 20.776 20.8369 21.9619C19.3046 23.393 17.2274 21.4571 15.9834 19.7695C15.0206 18.4634 13.5934 17.6357 12 17.6357C10.4066 17.6357 8.97943 18.4634 8.0166 19.7695C6.7726 21.4571 4.69539 23.393 3.16309 21.9619C1.89377 20.776 1.50003 18.8717 1.5 15.8877C1.5 11.5375 3.25 8.45801 5.875 8.45801C6.75 8.45801 7.42022 8.68074 8.31641 9.06641C9.34153 9.50753 10.6173 9.76855 12 9.76855C13.3827 9.76855 14.6585 9.50753 15.6836 9.06641C16.5798 8.68074 17.25 8.45801 18.125 8.45801ZM16.9521 14.793C16.5379 14.793 16.2021 15.1288 16.2021 15.543C16.2024 15.957 16.5381 16.293 16.9521 16.293H16.9629C17.3768 16.2928 17.7126 15.9569 17.7129 15.543C17.7129 15.1288 17.377 14.7931 16.9629 14.793H16.9521ZM7.00293 11.458C6.58884 11.458 6.25313 11.794 6.25293 12.208V13.125H5.33594C4.92186 13.125 4.58616 13.461 4.58594 13.875C4.58594 14.2892 4.92172 14.625 5.33594 14.625H6.25293V15.542C6.25293 15.9562 6.58872 16.292 7.00293 16.292C7.41699 16.2918 7.75293 15.9561 7.75293 15.542V14.625H8.66895C9.08316 14.625 9.41895 14.2892 9.41895 13.875C9.41872 13.461 9.08302 13.125 8.66895 13.125H7.75293V12.208C7.75273 11.7941 7.41687 11.4582 7.00293 11.458ZM15.2871 13.126C14.873 13.1261 14.5371 13.4618 14.5371 13.876C14.5373 14.2899 14.8731 14.6259 15.2871 14.626H15.2979C15.7119 14.626 16.0476 14.29 16.0479 13.876C16.0479 13.4618 15.7121 13.126 15.2979 13.126H15.2871ZM18.6211 13.126C18.2071 13.1262 17.8711 13.4619 17.8711 13.876C17.8713 14.2899 18.2072 14.6258 18.6211 14.626H18.6318C19.0459 14.626 19.3816 14.29 19.3818 13.876C19.3818 13.4618 19.046 13.126 18.6318 13.126H18.6211ZM16.9521 11.459C16.5379 11.459 16.2021 11.7948 16.2021 12.209C16.2024 12.6229 16.5381 12.959 16.9521 12.959H16.9629C17.3768 12.9589 17.7126 12.6229 17.7129 12.209C17.7129 11.7948 17.377 11.4591 16.9629 11.459H16.9521Z" fill="#1C252E"/>
<path d="M16.9521 14.793C16.5379 14.793 16.2021 15.1288 16.2021 15.543C16.2024 15.957 16.5381 16.293 16.9521 16.293H16.9629C17.3768 16.2928 17.7126 15.9569 17.7129 15.543C17.7129 15.1288 17.377 14.7931 16.9629 14.793H16.9521Z" fill="#1C252E"/>
<path d="M18.6211 13.126C18.2071 13.1262 17.8711 13.4619 17.8711 13.876C17.8713 14.2899 18.2072 14.6258 18.6211 14.626H18.6318C19.0459 14.626 19.3816 14.29 19.3818 13.876C19.3818 13.4618 19.046 13.126 18.6318 13.126H18.6211Z" fill="#1C252E"/>
<path d="M16.9521 11.459C16.5379 11.459 16.2021 11.7948 16.2021 12.209C16.2024 12.6229 16.5381 12.959 16.9521 12.959H16.9629C17.3768 12.9589 17.7126 12.6229 17.7129 12.209C17.7129 11.7948 17.377 11.4591 16.9629 11.459H16.9521Z" fill="#1C252E"/>
<path d="M15.2871 13.126C14.873 13.1261 14.5371 13.4618 14.5371 13.876C14.5373 14.2899 14.8731 14.6259 15.2871 14.626H15.2979C15.7119 14.626 16.0476 14.29 16.0479 13.876C16.0479 13.4618 15.7121 13.126 15.2979 13.126H15.2871Z" fill="#1C252E"/>
<path d="M7.00293 11.458C6.58884 11.458 6.25313 11.794 6.25293 12.208V13.125H5.33594C4.92186 13.125 4.58616 13.461 4.58594 13.875C4.58594 14.2892 4.92172 14.625 5.33594 14.625H6.25293V15.542C6.25293 15.9562 6.58872 16.292 7.00293 16.292C7.41699 16.2918 7.75293 15.9561 7.75293 15.542V14.625H8.66895C9.08316 14.625 9.41895 14.2892 9.41895 13.875C9.41872 13.461 9.08302 13.125 8.66895 13.125H7.75293V12.208C7.75273 11.7941 7.41687 11.4582 7.00293 11.458Z" fill="#1C252E"/>
<path d="M17.8558 2.20605C17.8558 3.45634 17.8352 4.70662 14.9185 4.70662C12.2378 4.70662 11.8486 8.33966 11.8311 9.70911" stroke="#1C252E" stroke-width="1.5" stroke-linecap="round" stroke-linejoin="round"/>
</svg>
