<svg width="24" height="24" viewBox="0 0 24 24" fill="none" xmlns="http://www.w3.org/2000/svg">
<path d="M21.9004 13.96C22.1704 15.63 21.7004 17.42 20.2704 18.68C19.2804 19.59 17.9804 20.09 16.6304 20.08H5.54043C0.87043 19.74 0.860431 12.94 5.54043 12.6H5.59043C4.78777 10.3533 5.04364 8.44638 5.90115 7M13.3804 4.24998C12.2932 3.90024 11.116 3.87036 10 4.12047" stroke="#1C252E" stroke-width="1.5" stroke-miterlimit="10" stroke-linecap="round" stroke-linejoin="round"/>
<path d="M7.25984 13.01C6.73984 12.75 6.16984 12.61 5.58984 12.6" stroke="#1C252E" stroke-width="1.5" stroke-miterlimit="10" stroke-linecap="round" stroke-linejoin="round"/>
<path d="M21.9697 8.5C21.9697 9.6 21.4597 10.59 20.6497 11.23C20.0597 11.71 19.2897 12 18.4697 12C16.5397 12 14.9697 10.43 14.9697 8.5C14.9697 7.54 15.3597 6.67 15.9997 6.04V6.03C16.6297 5.39 17.5097 5 18.4697 5C20.3997 5 21.9697 6.57 21.9697 8.5Z" stroke="#1C252E" stroke-width="1.5" stroke-miterlimit="10" stroke-linecap="round" stroke-linejoin="round"/>
</svg>
