<svg width="24" height="24" viewBox="0 0 24 24" fill="none" xmlns="http://www.w3.org/2000/svg">
<path d="M12 5.5C15.5899 5.5 18.5 8.41015 18.5 12C18.5 15.5899 15.5899 18.5 12 18.5C8.41015 18.5 5.5 15.5899 5.5 12C5.5 11.3022 5.60996 10.6301 5.8135 10" stroke="#1C252E" stroke-width="1.5" stroke-linecap="round" stroke-linejoin="round"/>
<path d="M19.14 19.14L19.01 19.01M19.01 4.99L19.14 4.86L19.01 4.99ZM4.86 19.14L4.99 19.01L4.86 19.14ZM12 2.08V2V2.08ZM12 22V21.92V22ZM2.08 12H2H2.08ZM22 12H21.92H22ZM4.99 4.99L4.86 4.86L4.99 4.99Z" stroke="#1C252E" stroke-width="2" stroke-linecap="round" stroke-linejoin="round"/>
</svg>
