<svg width="24" height="24" viewBox="0 0 24 24" fill="none" xmlns="http://www.w3.org/2000/svg">
<path d="M16.6097 20C17.9497 20.01 19.2397 19.51 20.2297 18.61C23.4997 15.75 21.7497 10.01 17.4397 9.47001C16.6895 4.91963 13.1075 3.4264 10 4.11958M5.61973 12.56C4.81977 10.3306 5.0675 8.43773 5.91205 7" stroke="#1C252E" stroke-width="1.5" stroke-miterlimit="10" stroke-linecap="round" stroke-linejoin="round"/>
<path d="M7.28035 12.97C6.75035 12.7 6.16035 12.56 5.57035 12.57C0.910353 12.9 0.920352 19.68 5.57035 20.01" stroke="#1C252E" stroke-width="1.5" stroke-miterlimit="10" stroke-linecap="round" stroke-linejoin="round"/>
<path d="M15.8203 9.88998C16.3403 9.62998 16.9003 9.48998 17.4803 9.47998" stroke="#1C252E" stroke-width="1.5" stroke-miterlimit="10" stroke-linecap="round" stroke-linejoin="round"/>
<path d="M9.96973 20L7.96973 22" stroke="#1C252E" stroke-width="1.5" stroke-miterlimit="10" stroke-linecap="round" stroke-linejoin="round"/>
<path d="M13.9697 20L11.9697 22" stroke="#1C252E" stroke-width="1.5" stroke-miterlimit="10" stroke-linecap="round" stroke-linejoin="round"/>
<path d="M13.9697 16L11.9697 18" stroke="#1C252E" stroke-width="1.5" stroke-miterlimit="10" stroke-linecap="round" stroke-linejoin="round"/>
<path d="M9.96973 16L7.96973 18" stroke="#1C252E" stroke-width="1.5" stroke-miterlimit="10" stroke-linecap="round" stroke-linejoin="round"/>
</svg>
