<svg width="24" height="24" viewBox="0 0 24 24" fill="none" xmlns="http://www.w3.org/2000/svg">
<path d="M16.6097 20C17.9497 20.01 19.2397 19.51 20.2297 18.61C23.4997 15.75 21.7497 10.01 17.4397 9.47001C16.6895 4.91963 13.1075 3.4264 10 4.11958M5.61973 12.56C4.8695 10.4692 5.04074 8.67439 5.76156 7.2734" stroke="#1C252E" stroke-width="1.5" stroke-miterlimit="10" stroke-linecap="round" stroke-linejoin="round"/>
<path d="M7.28035 12.97C6.75035 12.7 6.16035 12.56 5.57035 12.57C0.910353 12.9 0.920352 19.68 5.57035 20.01" stroke="#1C252E" stroke-width="1.5" stroke-miterlimit="10" stroke-linecap="round" stroke-linejoin="round"/>
<path d="M15.8203 9.88998C16.3403 9.62998 16.9003 9.48998 17.4803 9.47998" stroke="#1C252E" stroke-width="1.5" stroke-miterlimit="10" stroke-linecap="round" stroke-linejoin="round"/>
<path d="M12.3896 18.59L9.55957 21.41" stroke="#1C252E" stroke-width="1.5" stroke-miterlimit="10" stroke-linecap="round" stroke-linejoin="round"/>
<path d="M12.3896 21.41L9.55957 18.59" stroke="#1C252E" stroke-width="1.5" stroke-miterlimit="10" stroke-linecap="round" stroke-linejoin="round"/>
</svg>
