<svg width="24" height="24" viewBox="0 0 24 24" fill="none" xmlns="http://www.w3.org/2000/svg">
<path d="M7.26027 13.0156C6.73027 12.7456 6.14027 12.6056 5.54027 12.6056C0.860273 12.9356 0.860273 19.7456 5.54027 20.0756H16.6303C17.9803 20.0856 19.2803 19.5856 20.2703 18.6756C23.5603 15.8056 21.8003 10.0356 17.4703 9.48556C16.7105 4.92228 13.1118 3.42571 9.99023 4.12262M5.59027 12.6056C4.83318 10.4994 5.00729 8.69193 5.73592 7.28238" stroke="#1C252E" stroke-width="1.5" stroke-miterlimit="10" stroke-linecap="round" stroke-linejoin="round"/>
<path d="M7.25984 13.01C6.73984 12.75 6.16984 12.61 5.58984 12.6" stroke="#1C252E" stroke-width="1.5" stroke-miterlimit="10" stroke-linecap="round" stroke-linejoin="round"/>
<path d="M15.8496 9.92001C16.3696 9.66001 16.9396 9.52001 17.5196 9.51001" stroke="#1C252E" stroke-width="1.5" stroke-miterlimit="10" stroke-linecap="round" stroke-linejoin="round"/>
<path d="M21.97 8.5C21.97 9.6 21.46 10.59 20.65 11.23C19.88 10.31 18.8 9.66 17.47 9.49C17.23 8.04 16.7 6.9 16 6.04V6.03C16.63 5.39 17.51 5 18.47 5C20.4 5 21.97 6.57 21.97 8.5Z" stroke="#1C252E" stroke-width="1.5" stroke-miterlimit="10" stroke-linecap="round" stroke-linejoin="round"/>
</svg>
