<svg width="24" height="24" viewBox="0 0 24 24" fill="none" xmlns="http://www.w3.org/2000/svg">
<path d="M5.17158 1.79864C6.46295 1.01582 8.1634 1.42462 8.9499 2.71954L10.5105 5.28009C10.6139 5.44998 10.6453 5.6542 10.5983 5.84747C10.5512 6.04068 10.4294 6.20702 10.2595 6.31036L6.83955 8.39044C6.48588 8.60553 6.0247 8.4939 5.80928 8.14044L4.24971 5.57989L4.24873 5.57892C3.4653 4.28693 3.8752 2.58475 5.17158 1.79864ZM7.66865 3.49884C7.3148 2.91529 6.53693 2.72446 5.94893 3.08087C5.36585 3.43444 5.17477 4.2118 5.52998 4.79962L6.6999 6.71954L8.83858 5.41876L7.66963 3.49981L7.66865 3.49884Z" fill="#1C252E"/>
<path d="M11.4296 8.51968C13.6162 7.18871 16.2927 7.83613 17.7128 9.75308L20.4823 13.4933L20.4843 13.4953C21.6315 15.055 21.2312 17.1896 19.5585 18.2013L19.5575 18.2003L13.1298 22.1105L13.1288 22.1095C11.4693 23.1304 9.37866 22.5122 8.52627 20.7687V20.7697L6.47647 16.59L6.47745 16.589C5.42367 14.4544 6.08651 11.7689 8.27042 10.4396V10.4386L11.4296 8.51968ZM16.5077 10.6466C15.5278 9.32372 13.7032 8.89104 12.2099 9.79996V9.80093L9.04971 11.7209C7.55497 12.631 7.09818 14.4621 7.82217 15.9269L7.82315 15.9298L9.87295 20.1095L9.87393 20.1105C10.3408 21.0653 11.4469 21.3865 12.3466 20.8312L12.3505 20.8293L18.7802 16.9191L18.7821 16.9181C19.6884 16.3701 19.9083 15.2458 19.2773 14.3859L16.5077 10.6466Z" fill="#1C252E"/>
<path d="M10.3666 4.45759C10.7204 4.24215 11.1818 4.35431 11.3972 4.70809L13.4776 8.12449C13.6931 8.47827 13.5809 8.9397 13.2271 9.15514L8.10253 12.2757C7.74876 12.4912 7.28732 12.379 7.07188 12.0252L4.99148 8.60884C4.77605 8.25506 4.88821 7.79362 5.24198 7.57819L10.3666 4.45759ZM7.96296 10.6045L11.8064 8.26406L10.5062 6.12881L6.66271 8.46926L7.96296 10.6045Z" fill="#1C252E"/>
<path d="M13.9204 16.1693C14.2741 15.9542 14.7353 16.0666 14.9506 16.4203L16.601 19.1303C16.8161 19.484 16.7037 19.9452 16.35 20.1605C15.9963 20.3759 15.5352 20.2634 15.3198 19.9096L13.6694 17.1996C13.4542 16.8458 13.5667 16.3847 13.9204 16.1693Z" fill="#1C252E"/>
<path d="M11.3604 17.7294C11.7141 17.5142 12.1753 17.6267 12.3906 17.9804L14.041 20.6903C14.2561 21.0441 14.1437 21.5053 13.7901 21.7206C13.4363 21.936 12.9752 21.8234 12.7598 21.4696L11.1094 18.7597C10.8942 18.4059 11.0067 17.9447 11.3604 17.7294Z" fill="#1C252E"/>
<path d="M16.4804 14.6093C16.8341 14.3941 17.2953 14.5065 17.5106 14.8602L19.161 17.5702C19.3761 17.9239 19.2637 18.3851 18.91 18.6005C18.5563 18.8159 18.0952 18.7033 17.8798 18.3495L16.2294 15.6395C16.0142 15.2858 16.1267 14.8246 16.4804 14.6093Z" fill="#1C252E"/>
</svg>
