<svg width="24" height="24" viewBox="0 0 24 24" fill="none" xmlns="http://www.w3.org/2000/svg">
<path d="M11.9987 1.19482C12.6081 1.19482 13.1444 1.52283 13.4997 2.03369L17.6706 7.87354H17.6696C18.0947 8.45916 18.3349 9.20797 17.9879 9.88623C17.6406 10.5648 16.8906 10.8101 16.1696 10.8101H7.82973C7.10774 10.81 6.36099 10.5642 6.01235 9.88818C5.66317 9.21085 5.89849 8.46046 6.32094 7.87256L10.4899 2.03369C10.8493 1.52371 11.3882 1.19485 11.9987 1.19482ZM11.9987 2.69482C11.9591 2.69484 11.845 2.71351 11.7145 2.8999L11.7106 2.90576L7.54067 8.74561L7.53871 8.74756C7.33778 9.02717 7.34219 9.16676 7.34731 9.20068C7.37291 9.22524 7.48553 9.31002 7.82973 9.31006H16.1696C16.5089 9.31006 16.622 9.22687 16.6491 9.20166C16.6528 9.17087 16.6536 9.06998 16.5397 8.88037L16.4498 8.74561L12.2799 2.90576C12.2772 2.90189 12.2738 2.89796 12.2711 2.89404C12.1463 2.71201 12.0369 2.69482 11.9987 2.69482Z" fill="#1C252E"/>
<path d="M14.7897 9.31006C15.0325 9.31006 15.2603 9.42767 15.401 9.62549L19.3864 15.229C19.9276 15.9739 20.1959 16.8707 19.7936 17.6567C19.3919 18.4415 18.5084 18.7505 17.5895 18.7505H6.4196C5.50085 18.7504 4.61815 18.4414 4.21647 17.6567C3.81418 16.8707 4.08247 15.9739 4.6237 15.229L8.60905 9.62549L8.66569 9.55518C8.80686 9.40016 9.00797 9.31006 9.22038 9.31006H14.7897ZM5.84147 16.105L5.83659 16.1108C5.44817 16.6455 5.52119 16.9138 5.55144 16.9731C5.58222 17.0333 5.75889 17.2504 6.4196 17.2505H17.5895C18.2506 17.2505 18.4279 17.0333 18.4587 16.9731C18.4889 16.9138 18.5618 16.6454 18.1735 16.1108L18.1686 16.105L14.403 10.8101H9.60612L5.84147 16.105Z" fill="#1C252E"/>
<path d="M11.25 22V18C11.25 17.5858 11.5858 17.25 12 17.25C12.4142 17.25 12.75 17.5858 12.75 18V22C12.75 22.4142 12.4142 22.75 12 22.75C11.5858 22.75 11.25 22.4142 11.25 22Z" fill="#1C252E"/>
</svg>
