<svg width="24" height="24" viewBox="0 0 24 24" fill="none" xmlns="http://www.w3.org/2000/svg">
<path d="M18.2202 3.74023C18.2202 3.19732 17.7787 2.75012 17.2202 2.75H8.96044C8.73785 2.75 8.51704 2.82767 8.32958 2.97266L6.14794 4.71582L6.14696 4.7168C5.67588 5.09152 5.64598 5.78037 6.05809 6.19434L6.14696 6.27344L6.14794 6.27441L8.33837 8.02441L8.34129 8.02637C8.51178 8.1637 8.73389 8.24023 8.96044 8.24023H17.2202C17.7758 8.24012 18.2201 7.79583 18.2202 7.24023V3.74023ZM19.7202 7.24023C19.7201 8.62426 18.6042 9.74012 17.2202 9.74023H8.96044C8.40811 9.74023 7.8509 9.55653 7.40184 9.19531V9.19629L5.21141 7.44629V7.44531C3.95626 6.44505 3.95602 4.54404 5.21141 3.54395L7.40184 1.79395L7.41063 1.78711C7.84306 1.45232 8.3832 1.25 8.96044 1.25H17.2202C18.6015 1.25012 19.7202 2.36329 19.7202 3.74023V7.24023Z" fill="#1C252E"/>
<path d="M15.0598 11.25C15.565 11.25 16.0416 11.4048 16.4426 11.668L16.6096 11.7871L16.6183 11.7939L18.8068 13.543C20.0643 14.5432 20.0643 16.447 18.8068 17.4473L16.6183 19.1963L16.6174 19.1953C16.1684 19.5563 15.6119 19.7402 15.0598 19.7402H6.79999C5.41586 19.7402 4.30012 18.6243 4.29999 17.2402V13.7402C4.29999 12.3632 5.41858 11.25 6.79999 11.25H15.0598ZM5.79999 17.2402C5.80012 17.7959 6.24428 18.2402 6.79999 18.2402H15.0598C15.2863 18.2402 15.5084 18.1638 15.6789 18.0264L15.6818 18.0244L17.8723 16.2744L17.8732 16.2734C18.3758 15.8737 18.3758 15.1165 17.8732 14.7168L17.8723 14.7158L15.6906 12.9727C15.5031 12.8276 15.2824 12.75 15.0598 12.75H6.79999C6.24139 12.75 5.79999 13.1973 5.79999 13.7402V17.2402Z" fill="#1C252E"/>
<path d="M11.25 12V9C11.25 8.58579 11.5858 8.25 12 8.25C12.4142 8.25 12.75 8.58579 12.75 9V12C12.75 12.4142 12.4142 12.75 12 12.75C11.5858 12.75 11.25 12.4142 11.25 12Z" fill="#1C252E"/>
<path d="M11.25 22V19C11.25 18.5858 11.5858 18.25 12 18.25C12.4142 18.25 12.75 18.5858 12.75 19V22C12.75 22.4142 12.4142 22.75 12 22.75C11.5858 22.75 11.25 22.4142 11.25 22Z" fill="#1C252E"/>
<path d="M15 21.25C15.4142 21.25 15.75 21.5858 15.75 22C15.75 22.4142 15.4142 22.75 15 22.75H9C8.58579 22.75 8.25 22.4142 8.25 22C8.25 21.5858 8.58579 21.25 9 21.25H15Z" fill="#1C252E"/>
</svg>
