<svg width="24" height="24" viewBox="0 0 24 24" fill="none" xmlns="http://www.w3.org/2000/svg">
<path d="M3.12864 3.07838C3.82052 2.38656 4.8255 2.17099 5.93333 2.27662C7.04419 2.38256 8.36273 2.81626 9.84544 3.55885L18.405 7.83912C20.4338 8.8535 21.6999 10.3187 21.6999 12.0003C21.6998 13.6816 20.4336 15.1461 18.405 16.1604L9.84544 20.4407C8.36035 21.1832 7.04066 21.6169 5.92942 21.7229C4.82141 21.8285 3.81616 21.6133 3.12473 20.9212C2.43346 20.229 2.2195 19.2238 2.32591 18.1165C2.43269 17.0058 2.86654 15.687 3.60911 14.2044L3.61009 14.2034L4.4802 12.4729C4.52333 12.3856 4.56513 12.2172 4.56516 12.0051C4.56516 11.7917 4.52265 11.6223 4.47923 11.5354L3.60911 9.79518V9.79615C2.86634 8.31319 2.43282 6.99408 2.32688 5.88307C2.22126 4.77522 2.43677 3.77026 3.12864 3.07838ZM5.79075 3.76979C4.9291 3.68765 4.44606 3.88212 4.18919 4.13893C3.93235 4.39577 3.73794 4.87884 3.82005 5.74049C3.89169 6.49186 4.16933 7.45339 4.70481 8.61451L4.95091 9.12428L5.82102 10.8645C5.99755 11.2176 6.06516 11.6337 6.06516 12.0051C6.06514 12.3766 5.99755 12.7927 5.82102 13.1458L5.82005 13.1467L4.94993 14.8753C4.25262 16.2675 3.90165 17.4011 3.81907 18.26C3.73626 19.122 3.92916 19.6051 4.18528 19.8616C4.44135 20.118 4.92435 20.312 5.78684 20.2297C6.64611 20.1478 7.77993 19.7962 9.17454 19.0989L17.7341 14.8186C19.5451 13.9131 20.1997 12.8487 20.1999 12.0003C20.1999 11.1518 19.5453 10.0865 17.7341 9.18092L9.17454 4.90065C7.7825 4.20342 6.64943 3.85166 5.79075 3.76979Z" fill="#1C252E"/>
<path d="M10.8404 11.25C11.2544 11.2502 11.5904 11.5859 11.5904 12C11.5904 12.4141 11.2544 12.7498 10.8404 12.75H5.44C5.02579 12.75 4.69 12.4142 4.69 12C4.69 11.5858 5.02579 11.25 5.44 11.25H10.8404Z" fill="#1C252E"/>
</svg>
