<svg width="24" height="24" viewBox="0 0 24 24" fill="none" xmlns="http://www.w3.org/2000/svg">
<path d="M10.9805 4.73C14.3457 4.73001 17.7205 4.90155 21.0742 5.2339C21.4863 5.27489 21.7869 5.64211 21.7461 6.05421C21.7051 6.46627 21.3379 6.76693 20.9258 6.72609C17.6199 6.39849 14.2948 6.23001 10.9805 6.23C9.02577 6.23 7.07032 6.32841 5.11524 6.52589L5.11329 6.52687L3.07325 6.72609C2.66104 6.7665 2.29437 6.46543 2.25391 6.05324C2.2135 5.64103 2.51457 5.27436 2.92676 5.2339L4.96485 5.03468V5.03371C6.96969 4.8312 8.97525 4.73 10.9805 4.73Z" fill="#1C252E"/>
<path d="M13.3096 1.25C14.2445 1.25 14.9672 1.45535 15.4385 1.99805C15.8648 2.48931 15.9533 3.13766 16.0195 3.54492L16.2393 4.84473C16.3084 5.25313 16.0334 5.64085 15.625 5.70996C15.2167 5.77894 14.8299 5.50306 14.7608 5.09473L14.5401 3.79492V3.79102C14.4564 3.278 14.4028 3.09341 14.3057 2.98145C14.2516 2.91929 14.0634 2.75 13.3096 2.75H10.6904C9.92435 2.75 9.74181 2.9148 9.69337 2.96973C9.60135 3.0742 9.55 3.24971 9.45998 3.78418L9.23927 5.09375C9.17068 5.50216 8.7844 5.77842 8.37599 5.70996C7.9675 5.64136 7.69215 5.2542 7.76076 4.8457L7.98048 3.53613V3.53516C8.05035 3.12024 8.13818 2.46544 8.56837 1.97754C9.04244 1.43996 9.76654 1.25 10.6904 1.25H13.3096Z" fill="#1C252E"/>
<path d="M18.898 8.39195C19.3112 8.41862 19.6247 8.77468 19.5982 9.18785L18.9488 19.2582L18.9478 19.2621C18.9211 19.6434 18.8929 20.065 18.8141 20.4564C18.7337 20.8555 18.5923 21.277 18.3053 21.6507C17.7041 22.4334 16.6801 22.7503 15.2096 22.7503H8.78964C7.31927 22.7503 6.29604 22.4334 5.69492 21.6507C5.40785 21.277 5.26652 20.8555 5.18613 20.4564C5.10729 20.065 5.07808 19.6434 5.05136 19.2621V19.2582L4.40195 9.18785C4.37551 8.77468 4.68893 8.41862 5.10214 8.39195C5.51531 8.36551 5.87137 8.67894 5.89804 9.09215L6.54843 19.1576L6.5914 19.7054C6.60793 19.8709 6.62873 20.021 6.65683 20.1605C6.71138 20.4312 6.78664 20.6093 6.88437 20.7367C7.05318 20.9565 7.47048 21.2503 8.78964 21.2503H15.2096C16.5289 21.2503 16.946 20.9565 17.1148 20.7367C17.2127 20.6093 17.2888 20.4315 17.3434 20.1605C17.3995 19.8816 17.4235 19.5613 17.4518 19.1576L18.1012 9.09215C18.1278 8.67887 18.4848 8.3654 18.898 8.39195Z" fill="#1C252E"/>
<path d="M13.6601 15.75C14.0742 15.75 14.4101 16.0858 14.4101 16.5C14.4101 16.9142 14.0742 17.25 13.6601 17.25H10.33C9.91577 17.25 9.57999 16.9142 9.57999 16.5C9.57999 16.0858 9.91577 15.75 10.33 15.75H13.6601Z" fill="#1C252E"/>
<path d="M14.5 11.75C14.9142 11.75 15.25 12.0858 15.25 12.5C15.25 12.9142 14.9142 13.25 14.5 13.25H9.5C9.08579 13.25 8.75 12.9142 8.75 12.5C8.75 12.0858 9.08579 11.75 9.5 11.75H14.5Z" fill="#1C252E"/>
</svg>
