<svg width="24" height="24" viewBox="0 0 24 24" fill="none" xmlns="http://www.w3.org/2000/svg">
<path d="M21.25 9.09961C21.2499 8.88846 21.1833 8.57895 21.0479 8.25293C20.9124 7.92696 20.7395 7.66054 20.5898 7.51074L16.4893 3.41016C16.3395 3.26048 16.073 3.08762 15.7471 2.95215C15.421 2.81669 15.1115 2.75008 14.9004 2.75H9.09961C8.88846 2.75008 8.57895 2.81669 8.25293 2.95215C7.92696 3.08762 7.66054 3.26048 7.51074 3.41016L3.41016 7.51074C3.26048 7.66054 3.08762 7.92696 2.95215 8.25293C2.81669 8.57895 2.75008 8.88846 2.75 9.09961V14.9004C2.75008 15.1115 2.81669 15.4211 2.95215 15.7471C3.08762 16.073 3.26048 16.3395 3.41016 16.4893L7.51074 20.5898C7.66054 20.7395 7.92696 20.9124 8.25293 21.0479C8.57895 21.1833 8.88846 21.2499 9.09961 21.25H14.9004C15.1115 21.2499 15.421 21.1833 15.7471 21.0479C16.073 20.9124 16.3395 20.7395 16.4893 20.5898L20.5898 16.4893C20.7395 16.3395 20.9124 16.073 21.0479 15.7471C21.1833 15.4211 21.2499 15.1115 21.25 14.9004V9.09961ZM22.75 14.9004C22.7499 15.3691 22.617 15.8797 22.4326 16.3232C22.2482 16.7669 21.9806 17.2206 21.6504 17.5508L17.5508 21.6504C17.2206 21.9806 16.767 22.2482 16.3232 22.4326C15.8797 22.617 15.3691 22.7499 14.9004 22.75H9.09961C8.63093 22.7499 8.12032 22.617 7.67676 22.4326C7.23305 22.2482 6.77939 21.9806 6.44922 21.6504L2.34961 17.5508C2.01944 17.2206 1.75182 16.7669 1.56738 16.3232C1.38304 15.8797 1.25008 15.3691 1.25 14.9004V9.09961C1.25008 8.63093 1.38304 8.12032 1.56738 7.67676C1.75182 7.23305 2.01944 6.77939 2.34961 6.44922L6.44922 2.34961C6.77939 2.01944 7.23305 1.75182 7.67676 1.56738C8.12032 1.38304 8.63093 1.25008 9.09961 1.25H14.9004C15.3691 1.25008 15.8797 1.38304 16.3232 1.56738C16.767 1.75182 17.2206 2.01944 17.5508 2.34961L21.6504 6.44922C21.9806 6.77939 22.2482 7.23305 22.4326 7.67676C22.617 8.12032 22.7499 8.63093 22.75 9.09961V14.9004Z" fill="#1C252E"/>
<path d="M14.9697 7.96967C15.2626 7.67678 15.7374 7.67678 16.0303 7.96967C16.3232 8.26256 16.3232 8.73732 16.0303 9.03022L9.03028 16.0302C8.73738 16.3231 8.26262 16.3231 7.96973 16.0302C7.67684 15.7373 7.67684 15.2626 7.96973 14.9697L14.9697 7.96967Z" fill="#1C252E"/>
<path d="M7.96973 7.96967C8.26262 7.67678 8.73738 7.67678 9.03028 7.96967L16.0303 14.9697C16.3232 15.2626 16.3232 15.7373 16.0303 16.0302C15.7374 16.3231 15.2626 16.3231 14.9697 16.0302L7.96973 9.03022C7.67684 8.73732 7.67684 8.26256 7.96973 7.96967Z" fill="#1C252E"/>
</svg>
