<svg width="24" height="24" viewBox="0 0 24 24" fill="none" xmlns="http://www.w3.org/2000/svg">
<path d="M11.9996 1.84229C13.5494 1.84229 14.9315 2.89815 15.8951 4.63525L21.9556 15.5454C22.8757 17.2048 23.0197 18.8786 22.2535 20.1812C21.4872 21.4838 19.9556 22.1694 18.0601 22.1694H11.9996C11.96 22.1694 11.9213 22.1656 11.8834 22.1597H5.94C4.04024 22.1597 2.50707 21.4742 1.74176 20.1704C0.977057 18.8674 1.12505 17.1939 2.04449 15.5356L5.16461 9.91553L8.10504 4.63525C9.0685 2.89834 10.4499 1.84248 11.9996 1.84229ZM11.9996 3.34229C11.1998 3.34248 10.2319 3.89171 9.41558 5.36377L6.47515 10.6431L3.35601 16.2642C2.5958 17.6355 2.62814 18.7173 3.0357 19.4116C3.44296 20.1052 4.36995 20.6597 5.94 20.6597H11.9996C12.0383 20.6597 12.0767 20.6638 12.1138 20.6694H18.0601C19.6245 20.6694 20.5528 20.1151 20.9615 19.4204C21.3445 18.7688 21.3978 17.7774 20.7769 16.5269L20.6441 16.2739L14.5845 5.36377C13.7681 3.89145 12.7994 3.34229 11.9996 3.34229Z" fill="#1C252E"/>
<path d="M11.5698 12.7758C11.8281 12.5949 12.1719 12.5949 12.4301 12.7758L21.8706 19.3861C22.2095 19.6238 22.2916 20.0909 22.0542 20.4301C21.8167 20.7692 21.3495 20.8519 21.0102 20.6146L11.9995 14.3051L2.99068 20.6146C2.65137 20.8522 2.18334 20.7694 1.94575 20.4301C1.70834 20.091 1.79051 19.6238 2.12935 19.3861L11.5698 12.7758Z" fill="#1C252E"/>
<path d="M11.25 13.3896V3C11.25 2.58579 11.5858 2.25 12 2.25C12.4142 2.25 12.75 2.58579 12.75 3V13.3896C12.75 13.8039 12.4142 14.1396 12 14.1396C11.5858 14.1396 11.25 13.8039 11.25 13.3896Z" fill="#1C252E"/>
</svg>
