<svg width="24" height="24" viewBox="0 0 24 24" fill="none" xmlns="http://www.w3.org/2000/svg">
<path d="M11.2202 18.0001C11.2202 14.2759 14.246 11.2501 17.9702 11.2501C19.1463 11.2502 20.2546 11.553 21.2183 12.0841C21.2242 11.5274 21.1789 10.9559 21.0806 10.3654C20.4342 6.57172 17.3529 3.50817 13.5483 2.88001C7.20507 1.8336 1.8037 7.23498 2.85011 13.5783C3.47826 17.3828 6.54181 20.4642 10.3355 21.1105H10.3345C10.9254 21.2089 11.4972 21.2541 12.0542 21.2482C11.5231 20.2845 11.2203 19.1762 11.2202 18.0001ZM12.7202 18.0001C12.7203 19.287 13.1837 20.4663 13.9526 21.3751C14.1176 21.5701 14.1722 21.8361 14.0972 22.0802C14.0219 22.3245 13.8269 22.5137 13.5806 22.5822C13.3501 22.6462 13.1275 22.6831 12.9087 22.7062H12.8999C11.9783 22.7929 11.0428 22.7494 10.0864 22.59L10.0845 22.589C5.6586 21.8352 2.10174 18.2573 1.36964 13.8224C0.156047 6.46567 6.43577 0.185954 13.7925 1.39954C18.0887 2.10875 21.5804 5.46845 22.48 9.7013L22.5591 10.1144L22.5601 10.1163C22.7195 11.0727 22.763 12.0082 22.6763 12.9298V12.9386C22.6532 13.1574 22.6163 13.38 22.5523 13.6105C22.4838 13.8568 22.2946 14.0518 22.0503 14.1271C21.8062 14.2021 21.5402 14.1475 21.3452 13.9826C20.4363 13.2136 19.257 12.7502 17.9702 12.7501C15.0744 12.7501 12.7202 15.1043 12.7202 18.0001Z" fill="#1C252E"/>
<path d="M17.97 11.25C19.623 11.25 21.1437 11.847 22.3147 12.8379C22.5395 13.0284 22.632 13.3329 22.5511 13.6162C22.3753 14.2313 22.0483 14.7821 21.5901 15.2402L15.2102 21.6201C14.7521 22.0783 14.2013 22.4053 13.5862 22.5811C13.3029 22.662 12.9984 22.5695 12.8079 22.3447C11.817 21.1737 11.22 19.653 11.22 18C11.22 14.2758 14.2458 11.25 17.97 11.25ZM12.72 18C12.72 19.0947 13.0557 20.1114 13.6292 20.9502C13.816 20.8477 13.9908 20.7185 14.1497 20.5596L20.5296 14.1797C20.6885 14.0208 20.8177 13.846 20.9202 13.6592C20.0814 13.0857 19.0647 12.75 17.97 12.75C15.0742 12.75 12.72 15.1042 12.72 18Z" fill="#1C252E"/>
</svg>
