<svg width="24" height="24" viewBox="0 0 24 24" fill="none" xmlns="http://www.w3.org/2000/svg">
<path d="M9.60031 2.23451C10.9359 1.16348 13.0572 1.16588 14.4001 2.24525H14.3991L21.3279 7.78431L21.3308 7.78627C21.8442 8.19984 22.229 8.80562 22.4646 9.42299C22.7001 10.0405 22.817 10.7489 22.7107 11.4005L22.7097 11.4035L21.3796 19.3634V19.3654C21.0785 21.1345 19.3971 22.5595 17.6003 22.5597H6.40012C4.59406 22.5597 2.92197 21.1458 2.62082 19.3654L2.61984 19.3634L1.28976 11.4035L1.29074 11.4025C1.17882 10.7496 1.29239 10.0408 1.52804 9.42299C1.76422 8.80393 2.15236 8.19771 2.6716 7.78431L9.60031 2.23451ZM13.4597 3.4142C12.6626 2.77393 11.323 2.77656 10.5388 3.40541L3.6091 8.95521L3.60715 8.95716C3.34729 9.16372 3.09547 9.52196 2.92941 9.95716C2.78413 10.338 2.72692 10.7176 2.75265 11.0245L2.76926 11.1515L2.77023 11.1564H2.76926L4.09933 19.1154L4.14328 19.3117C4.40995 20.2817 5.39353 21.0597 6.40012 21.0597H17.6003C18.6626 21.0595 19.7202 20.166 19.9001 19.1163L21.2302 11.1564C21.283 10.8286 21.2296 10.3932 21.0632 9.95716C20.8968 9.52091 20.647 9.16286 20.3913 8.95619L13.4616 3.41615L13.4597 3.4142Z" fill="#1C252E"/>
</svg>
