<svg width="24" height="24" viewBox="0 0 24 24" fill="none" xmlns="http://www.w3.org/2000/svg">
<path d="M21.22 9C21.22 6.57397 20.7303 5.0708 19.8147 4.15527C18.8992 3.23974 17.396 2.75 14.97 2.75H8.97C6.54397 2.75 5.04081 3.23974 4.12527 4.15527C3.20974 5.0708 2.72 6.57397 2.72 9V15C2.72 17.426 3.20974 18.9292 4.12527 19.8447C5.04081 20.7603 6.54397 21.25 8.97 21.25H14.97C17.396 21.25 18.8992 20.7603 19.8147 19.8447C20.7303 18.9292 21.22 17.426 21.22 15V9ZM22.72 15C22.72 17.574 22.2097 19.5708 20.8753 20.9053C19.5408 22.2397 17.544 22.75 14.97 22.75H8.97C6.39603 22.75 4.3992 22.2397 3.06473 20.9053C1.73026 19.5708 1.22 17.574 1.22 15V9C1.22 6.42603 1.73026 4.4292 3.06473 3.09473C4.3992 1.76026 6.39603 1.25 8.97 1.25H14.97C17.544 1.25 19.5408 1.76026 20.8753 3.09473C22.2097 4.4292 22.72 6.42603 22.72 9V15Z" fill="#1C252E"/>
<path d="M19.1899 2.71962C19.4828 2.42683 19.9576 2.42676 20.2505 2.71962C20.5432 3.01249 20.5432 3.4873 20.2505 3.78017L3.80028 20.2304C3.50741 20.5231 3.0326 20.5231 2.73973 20.2304C2.44687 19.9375 2.44694 19.4627 2.73973 19.1698L19.1899 2.71962Z" fill="#1C252E"/>
<path d="M15.31 18V13C15.31 12.5858 15.6458 12.25 16.06 12.25C16.4742 12.25 16.81 12.5858 16.81 13V18C16.81 18.4142 16.4742 18.75 16.06 18.75C15.6458 18.75 15.31 18.4142 15.31 18Z" fill="#1C252E"/>
<path d="M18.5 14.75C18.9142 14.75 19.25 15.0858 19.25 15.5C19.25 15.9142 18.9142 16.25 18.5 16.25H13.5C13.0858 16.25 12.75 15.9142 12.75 15.5C12.75 15.0858 13.0858 14.75 13.5 14.75H18.5Z" fill="#1C252E"/>
<path d="M10.5 6.75C10.9142 6.75 11.25 7.08579 11.25 7.5C11.25 7.91421 10.9142 8.25 10.5 8.25H5.5C5.08579 8.25 4.75 7.91421 4.75 7.5C4.75 7.08579 5.08579 6.75 5.5 6.75H10.5Z" fill="#1C252E"/>
</svg>
