<svg width="24" height="24" viewBox="0 0 24 24" fill="none" xmlns="http://www.w3.org/2000/svg">
<path d="M21.25 12.5C21.25 7.39421 17.1058 3.25 12 3.25C6.89421 3.25 2.75 7.39421 2.75 12.5C2.75 15.0167 3.74839 17.2909 5.37793 18.9668C5.66656 19.2636 5.65985 19.7385 5.36328 20.0273C5.06636 20.3161 4.59151 20.3095 4.30273 20.0127C2.41231 18.0686 1.25 15.4233 1.25 12.5C1.25 6.56579 6.06579 1.75 12 1.75C17.9342 1.75 22.75 6.56579 22.75 12.5C22.75 15.4233 21.5778 18.09 19.6748 20.0254C19.3845 20.3207 18.9096 20.3253 18.6143 20.0352C18.319 19.7448 18.3152 19.27 18.6055 18.9746C20.2423 17.31 21.25 15.0165 21.25 12.5Z" fill="#1C252E"/>
<path d="M14.6298 18.1201C14.6297 16.6677 13.4523 15.4902 11.9999 15.4902C10.5475 15.4903 9.37006 16.6677 9.37 18.1201C9.37 19.5726 10.5474 20.7499 11.9999 20.75C13.4524 20.75 14.6298 19.5726 14.6298 18.1201ZM16.1298 18.1201C16.1298 20.4011 14.2808 22.25 11.9999 22.25C9.719 22.2499 7.87 20.401 7.87 18.1201C7.87006 15.8393 9.71904 13.9903 11.9999 13.9902C14.2808 13.9902 16.1297 15.8392 16.1298 18.1201Z" fill="#1C252E"/>
<path d="M16.75 10.5C16.75 10.0942 16.4058 9.75 16 9.75C15.591 9.75 15.25 10.0875 15.25 10.5V11.25H16C16.409 11.25 16.75 10.9125 16.75 10.5ZM18.25 10.5C18.25 11.7475 17.231 12.75 16 12.75H15.25C14.4258 12.75 13.75 12.0742 13.75 11.25V10.5C13.75 9.25254 14.769 8.25 16 8.25C17.2342 8.25 18.25 9.26579 18.25 10.5Z" fill="#1C252E"/>
</svg>
