<svg width="24" height="24" viewBox="0 0 24 24" fill="none" xmlns="http://www.w3.org/2000/svg">
<path d="M4.40066 4.41898C8.59357 0.217043 15.4073 0.217503 19.5999 4.41996L19.9876 4.82719C23.8597 9.12011 23.6547 15.784 19.386 19.834V19.835C15.4339 23.5785 9.11348 23.6947 5.00515 20.1866L4.61452 19.835C0.1974 15.6543 0.121567 8.68732 4.40066 4.41898ZM18.5393 5.47953C14.9325 1.8634 9.06818 1.86356 5.4612 5.47953L5.45925 5.48148C1.77872 9.15318 1.84303 15.146 5.64577 18.7452H5.6448C9.15611 22.0624 14.8534 22.0608 18.3538 18.7452C22.1471 15.1457 22.211 9.15219 18.5393 5.48051V5.47953Z" fill="#1C252E"/>
<path d="M15.3253 15.5243C15.6266 15.2402 16.1016 15.2543 16.3858 15.5555C16.6699 15.8568 16.6558 16.3319 16.3546 16.6161C13.9463 18.8878 10.0543 18.8889 7.65439 16.6141C7.35378 16.3292 7.34112 15.8552 7.62607 15.5545C7.91102 15.2539 8.38502 15.2413 8.68564 15.5262C10.5056 17.2513 13.4936 17.2523 15.3253 15.5243Z" fill="#1C252E"/>
</svg>
