<svg width="24" height="24" viewBox="0 0 24 24" fill="none" xmlns="http://www.w3.org/2000/svg">
<path d="M17.5234 19.3662C18.1794 18.7646 19.2173 18.7648 19.874 19.3652H19.875L20.875 20.2754L20.8877 20.2871C21.0186 20.412 21.1215 20.4784 21.1895 20.5117C21.2186 20.4293 21.25 20.288 21.25 20.0703V12.1797C21.2498 6.98142 17.0732 2.75 12 2.75C6.92682 2.75 2.75016 6.98142 2.75 12.1797V20.0703C2.75003 20.2955 2.78261 20.4385 2.8125 20.5186C2.88727 20.4875 3.00741 20.4194 3.16406 20.2764L3.16504 20.2754L4.16504 19.3652C4.82153 18.7645 5.85947 18.765 6.51562 19.3662H6.5166L8.5166 21.1963L8.51758 21.1982C8.60069 21.2743 8.75978 21.2744 8.84277 21.1982L8.84375 21.1963L10.8438 19.3662C11.5001 18.7645 12.5387 18.7648 13.1953 19.3662H13.1963L15.1963 21.1963L15.1973 21.1982C15.2803 21.2744 15.4394 21.2743 15.5225 21.1982L15.5234 21.1963L17.5234 19.3662ZM22.75 20.0703C22.7499 20.7743 22.5455 21.587 21.8301 21.918C21.1 22.2554 20.3657 21.8566 19.8652 21.3838V21.3848L18.8652 20.4746L18.8623 20.4727C18.7792 20.3963 18.6202 20.3963 18.5371 20.4727L18.5361 20.4736L16.5361 22.3037C15.8795 22.9056 14.8401 22.9057 14.1836 22.3037L12.1836 20.4736L12.1826 20.4727C12.0996 20.3963 11.9405 20.3963 11.8574 20.4727L11.8564 20.4736L9.85645 22.3037C9.19993 22.9058 8.1605 22.9056 7.50391 22.3037L5.50391 20.4736L5.50293 20.4727C5.41987 20.3963 5.2608 20.3963 5.17773 20.4727L5.1748 20.4746L4.1748 21.3848C3.65677 21.8574 2.91181 22.2527 2.17969 21.9199C1.45531 21.5906 1.25006 20.7752 1.25 20.0703V12.1797C1.25016 6.17823 6.07338 1.25 12 1.25C17.9266 1.25 22.7498 6.17823 22.75 12.1797V20.0703Z" fill="#1C252E"/>
<path d="M15.5498 13.4003C15.881 13.1516 16.3509 13.2185 16.5996 13.5497C16.8483 13.8809 16.7814 14.3507 16.4502 14.5995C13.8134 16.5798 10.1866 16.5798 7.5498 14.5995C7.21862 14.3507 7.15171 13.8809 7.40038 13.5497C7.64911 13.2185 8.11899 13.1516 8.45019 13.4003C10.5534 14.9799 13.4466 14.9799 15.5498 13.4003Z" fill="#1C252E"/>
<path d="M13.25 9C13.25 8.30964 12.6904 7.75 12 7.75C11.3096 7.75 10.75 8.30964 10.75 9C10.75 9.69036 11.3096 10.25 12 10.25C12.6904 10.25 13.25 9.69036 13.25 9ZM14.75 9C14.75 10.5188 13.5188 11.75 12 11.75C10.4812 11.75 9.25 10.5188 9.25 9C9.25 7.48122 10.4812 6.25 12 6.25C13.5188 6.25 14.75 7.48122 14.75 9Z" fill="#1C252E"/>
</svg>
