<svg width="24" height="24" viewBox="0 0 24 24" fill="none" xmlns="http://www.w3.org/2000/svg">
<path d="M9.60128 2.23444C10.9369 1.16378 13.0573 1.16594 14.4001 2.24518H14.3991L21.3278 7.78425L21.3308 7.7862C21.8442 8.19977 22.229 8.80554 22.4646 9.42292C22.7001 10.0405 22.8169 10.7488 22.7107 11.4005L22.7097 11.4034L21.3796 19.3633V19.3663C21.0783 21.1352 19.397 22.5595 17.6003 22.5596H11.4001C10.9859 22.5596 10.6501 22.2239 10.6501 21.8096C10.6503 21.3956 10.986 21.0596 11.4001 21.0596H17.6003C18.6625 21.0595 19.7202 20.166 19.9001 19.1163L21.2302 11.1563C21.283 10.8285 21.2295 10.3931 21.0632 9.9571C20.8967 9.52084 20.6469 9.16278 20.3913 8.95612L13.4616 3.41608L13.4597 3.41413C12.6626 2.77386 11.323 2.77649 10.5388 3.40534L3.60909 8.95514L3.60714 8.9571C3.3473 9.16364 3.09547 9.52191 2.92941 9.9571C2.78413 10.3379 2.72693 10.7176 2.75265 11.0245L2.76925 11.1514L2.77023 11.1563L3.04952 12.837C3.11743 13.2454 2.84173 13.6312 2.43331 13.6993C2.02473 13.7674 1.63813 13.4917 1.57003 13.0831L1.28976 11.4034L1.29073 11.4024C1.17884 10.7495 1.29237 10.0407 1.52804 9.42292C1.76422 8.80386 2.15234 8.19765 2.67159 7.78425L9.60128 2.23444Z" fill="#1C252E"/>
<path d="M2.01661 18.2502C3.06718 18.2741 3.99925 18.6479 4.67579 19.3244C5.35232 20.0009 5.72613 20.933 5.75 21.9836C5.75917 22.3975 5.43056 22.7408 5.01661 22.7502C4.6027 22.7594 4.25941 22.4307 4.25 22.0168C4.23379 21.3076 3.98765 20.7593 3.61426 20.3859C3.24087 20.0125 2.69261 19.7664 1.9834 19.7502C1.56944 19.7408 1.24084 19.3975 1.25 18.9836C1.25941 18.5696 1.6027 18.241 2.01661 18.2502Z" fill="#1C252E"/>
<path d="M2.00977 15.2501C2.84989 15.2611 3.64123 15.4052 4.37012 15.6632H4.3711C6.24201 16.3281 7.67079 17.7448 8.33692 19.6299L8.42871 19.9063C8.62914 20.5575 8.74033 21.2553 8.75 21.9903C8.7554 22.4044 8.42391 22.7446 8.00977 22.7501C7.59564 22.7555 7.25545 22.424 7.25 22.0098C7.24217 21.4149 7.15287 20.859 6.99512 20.3467L6.92286 20.1299C6.40898 18.6754 5.31791 17.5923 3.86914 17.0772V17.0762C3.2983 16.8744 2.66973 16.759 1.99024 16.7501C1.57609 16.7446 1.24461 16.4044 1.25 15.9903C1.25545 15.5762 1.59564 15.2447 2.00977 15.2501Z" fill="#1C252E"/>
<path d="M2.00488 21C2.55699 21.0002 3.00488 21.4478 3.00488 22C3.00488 22.5522 2.55699 22.9998 2.00488 23H1.99512C1.44301 22.9998 0.995117 22.5522 0.995117 22C0.995117 21.4478 1.44301 21.0002 1.99512 21H2.00488Z" fill="#1C252E"/>
</svg>
