<svg width="24" height="24" viewBox="0 0 24 24" fill="none" xmlns="http://www.w3.org/2000/svg">
<path d="M10.7266 1.59888C11.5275 1.17081 12.4725 1.17081 13.2734 1.59888L13.2764 1.59986L19.7861 5.10963C21.0313 5.78137 21.07 7.60816 19.9023 8.35181L19.7861 8.42017L13.2764 11.9299L13.2734 11.9319C12.4727 12.3598 11.5273 12.3598 10.7266 11.9319L10.7236 11.9299L4.21386 8.42017C2.92868 7.72682 2.92866 5.80296 4.21386 5.10963L10.7236 1.59986L10.7266 1.59888ZM12.5664 2.92115C12.2074 2.72937 11.7926 2.72937 11.4336 2.92115L4.92578 6.42994C4.82592 6.48388 4.75006 6.60053 4.74999 6.7649C4.74999 6.92928 4.82596 7.04586 4.92578 7.09986L11.4336 10.6086L11.5703 10.6711C11.8953 10.7973 12.2521 10.7766 12.5664 10.6086L19.0742 7.09986C19.174 7.04586 19.25 6.92928 19.25 6.7649C19.2499 6.60053 19.1741 6.48388 19.0742 6.42994L12.5664 2.92115Z" fill="#1C252E"/>
<path d="M1.25 16.8402V11.1204C1.25 9.72585 2.71298 8.84317 3.94531 9.45931H3.94629L9.99609 12.4896L9.99902 12.4906C10.9971 12.9963 11.6395 14.0228 11.6396 15.1497V20.8704C11.6394 22.2213 10.2666 23.0915 9.06055 22.5843L8.94434 22.5306L2.89453 19.5003L2.89062 19.4993C1.89261 18.9936 1.25006 17.9671 1.25 16.8402ZM2.75 16.8402C2.75006 17.3931 3.06756 17.9072 3.56934 18.1615L9.61426 21.1888H9.61523C9.86276 21.3126 10.1393 21.1356 10.1396 20.8704V15.1497C10.1395 14.597 9.82282 14.0837 9.32129 13.8294V13.8285L3.27441 10.8001C3.02686 10.6767 2.75 10.8552 2.75 11.1204V16.8402Z" fill="#1C252E"/>
<path d="M21.2496 16.8402V11.1205C21.2496 10.8551 20.9729 10.6773 20.7252 10.8011L14.6783 13.8285C14.1767 14.0827 13.8601 14.597 13.86 15.1498V20.8705C13.8603 21.1356 14.1369 21.3126 14.3844 21.1888L20.4342 18.1595C20.9342 17.9047 21.2496 17.3919 21.2496 16.8402ZM22.7496 16.8402C22.7496 17.9672 22.1071 18.9936 21.109 19.4994L21.1061 19.5003L15.0563 22.5306H15.0553C13.8231 23.1467 12.3603 22.2648 12.36 20.8705V15.1498C12.3601 14.0229 13.0026 12.9963 14.0006 12.4906L14.0045 12.4896L20.0543 9.45932C21.2867 8.84315 22.7496 9.72585 22.7496 11.1205V16.8402Z" fill="#1C252E"/>
</svg>
