<svg width="24" height="24" viewBox="0 0 24 24" fill="none" xmlns="http://www.w3.org/2000/svg">
<path d="M21.25 9C21.25 6.57397 20.7603 5.0708 19.8447 4.15527C18.9292 3.23974 17.426 2.75 15 2.75H9C6.57397 2.75 5.0708 3.23974 4.15527 4.15527C3.23974 5.0708 2.75 6.57397 2.75 9V15C2.75 17.426 3.23974 18.9292 4.15527 19.8447C5.0708 20.7603 6.57397 21.25 9 21.25H15C17.426 21.25 18.9292 20.7603 19.8447 19.8447C20.7603 18.9292 21.25 17.426 21.25 15V9ZM22.75 15C22.75 17.574 22.2397 19.5708 20.9053 20.9053C19.5708 22.2397 17.574 22.75 15 22.75H9C6.42603 22.75 4.4292 22.2397 3.09473 20.9053C1.76026 19.5708 1.25 17.574 1.25 15V9C1.25 6.42603 1.76026 4.4292 3.09473 3.09473C4.4292 1.76026 6.42603 1.25 9 1.25H15C17.574 1.25 19.5708 1.76026 20.9053 3.09473C22.2397 4.4292 22.75 6.42603 22.75 9V15Z" fill="#1C252E"/>
<path d="M16.0059 11C16.558 11.0002 17.0059 11.4479 17.0059 12C17.0059 12.5521 16.558 12.9998 16.0059 13H15.9961C15.444 12.9998 14.9961 12.5522 14.9961 12C14.9961 11.4478 15.444 11.0002 15.9961 11H16.0059Z" fill="#1C252E"/>
<path d="M12.0049 11C12.557 11.0002 13.0049 11.4479 13.0049 12C13.0049 12.5521 12.557 12.9998 12.0049 13H11.9951C11.443 12.9998 10.9951 12.5522 10.9951 12C10.9951 11.4478 11.443 11.0002 11.9951 11H12.0049Z" fill="#1C252E"/>
<path d="M8.00391 11C8.556 11.0002 9.00391 11.4479 9.00391 12C9.00391 12.5521 8.556 12.9998 8.00391 13H7.99414C7.44202 12.9998 6.99414 12.5522 6.99414 12C6.99414 11.4478 7.44202 11.0002 7.99414 11H8.00391Z" fill="#1C252E"/>
</svg>
