<svg width="24" height="24" viewBox="0 0 24 24" fill="none" xmlns="http://www.w3.org/2000/svg">
<path d="M20.88 14.75C20.88 12.5442 19.0858 10.75 16.88 10.75C14.6742 10.75 12.88 12.5442 12.88 14.75C12.88 15.5002 13.0908 16.2133 13.4572 16.8047L13.464 16.8145C14.1544 17.9679 15.4249 18.75 16.88 18.75C18.3376 18.75 19.6062 17.9757 20.295 16.8164L20.2999 16.8086C20.6701 16.2028 20.88 15.4978 20.88 14.75ZM22.38 14.75C22.38 15.7787 22.0907 16.7497 21.5841 17.582L21.5851 17.583C20.634 19.1837 18.8824 20.25 16.88 20.25C14.8751 20.25 13.1265 19.1715 12.1769 17.585V17.584C11.6675 16.7576 11.38 15.7753 11.38 14.75C11.38 11.7158 13.8458 9.25 16.88 9.25C19.9142 9.25 22.38 11.7158 22.38 14.75Z" fill="#1C252E"/>
<path d="M19.9399 6.25V4.03027C19.9399 3.33459 19.366 2.75996 18.6703 2.75977H5.32953C4.65746 2.76002 4.06 3.31037 4.06 4.12988V6.4502C4.0601 6.61312 4.12009 6.88249 4.25824 7.19043C4.35976 7.41666 4.48622 7.62539 4.61761 7.79004L4.75043 7.93945L4.7641 7.95312L8.60394 11.9932L8.64008 12.0342C8.90278 12.3546 9.14093 12.7773 9.31488 13.2129C9.4876 13.6454 9.61957 14.1483 9.61957 14.6299V19.9795C9.61957 20.9698 10.7566 21.5822 11.602 21.0625L13.0034 20.1592C13.3514 19.9348 13.8159 20.0349 14.0405 20.3828C14.2651 20.7308 14.1648 21.1953 13.8168 21.4199L12.4067 22.3301C12.4026 22.3327 12.3981 22.3354 12.394 22.3379C10.6197 23.4345 8.11957 22.2278 8.11957 19.9795V14.6299C8.11957 14.4016 8.05199 14.0944 7.9223 13.7695C7.79669 13.455 7.63442 13.1781 7.48969 12.998L3.67621 8.98633V8.98535C3.34916 8.6539 3.07842 8.22661 2.8891 7.80469C2.69993 7.38305 2.56009 6.8972 2.56 6.4502V4.12988C2.56 2.52975 3.78201 1.26002 5.32953 1.25977H18.6703C20.1944 1.25996 21.4399 2.50619 21.4399 4.03027V6.25C21.4398 6.79744 21.2724 7.36185 21.0551 7.83789C20.8369 8.31584 20.5371 8.77279 20.2104 9.09961C19.9175 9.3925 19.4427 9.3925 19.1498 9.09961C18.8571 8.8067 18.857 8.3319 19.1498 8.03906C19.3228 7.86598 19.5283 7.56884 19.6899 7.21484C19.8525 6.85856 19.9398 6.51246 19.9399 6.25Z" fill="#1C252E"/>
<path d="M15.1097 12.9496C15.4026 12.6568 15.8774 12.6568 16.1703 12.9496L18.68 15.4594C18.9729 15.7523 18.9729 16.2271 18.68 16.52C18.3871 16.8129 17.9124 16.8129 17.6195 16.52L15.1097 14.0102C14.8168 13.7173 14.8168 13.2425 15.1097 12.9496Z" fill="#1C252E"/>
<path d="M17.5995 12.9799C17.8923 12.687 18.3671 12.6871 18.66 12.9799C18.9529 13.2728 18.9529 13.7475 18.66 14.0404L16.1503 16.5502C15.8574 16.8431 15.3826 16.8431 15.0897 16.5502C14.797 16.2573 14.7969 15.7825 15.0897 15.4896L17.5995 12.9799Z" fill="#1C252E"/>
<path d="M11.3803 14.75C11.3803 11.7158 13.8461 9.25 16.8803 9.25C17.1572 9.25002 17.4313 9.27259 17.6996 9.31445L19.1547 8.03223C19.3288 7.85086 19.5315 7.55502 19.6899 7.20703C19.8529 6.84884 19.9398 6.50266 19.9399 6.24023V4.02051C19.9399 3.32483 19.366 2.75019 18.6703 2.75H5.32953C4.65746 2.75026 4.06 3.3006 4.06 4.12012V6.4502C4.06005 6.60438 4.12002 6.8722 4.26117 7.18555C4.36452 7.41494 4.49321 7.62708 4.62445 7.79395L4.75531 7.94531L4.7641 7.95312L8.60394 11.9932L8.64594 12.041C8.89901 12.3574 9.13598 12.7763 9.31097 13.2109C9.48427 13.6413 9.61954 14.1455 9.61957 14.6299V19.9805C9.61994 20.9704 10.7568 21.5828 11.602 21.0635L13.0034 20.1602L13.0297 20.1436C13.1215 20.0896 13.2649 19.9429 13.3901 19.7012C13.4997 19.4895 13.554 19.2775 13.5649 19.1221C13.0005 18.7047 12.5312 18.1788 12.1762 17.584V17.583C11.6693 16.7505 11.3803 15.779 11.3803 14.75ZM21.4399 6.24023C21.4398 6.78769 21.272 7.3515 21.0551 7.82812C20.837 8.30747 20.5386 8.7649 20.2153 9.09473C20.2024 9.10781 20.189 9.12071 20.1752 9.13281L18.4155 10.6826C18.2319 10.8443 17.9813 10.9062 17.7436 10.8486C17.4757 10.7837 17.1851 10.75 16.8803 10.75C14.6745 10.75 12.8803 12.5442 12.8803 14.75C12.8803 15.4043 13.0404 16.0261 13.3286 16.5771L13.4604 16.8086L13.4643 16.8154C13.7755 17.337 14.2013 17.7776 14.7123 18.0908C14.9345 18.2272 15.0698 18.4697 15.0698 18.7305V19.0703C15.0697 19.5221 14.927 19.9949 14.7221 20.3906C14.5241 20.773 14.2207 21.1715 13.8159 21.4189L13.8168 21.4199L12.4067 22.3301C12.4026 22.3327 12.3981 22.3353 12.394 22.3379C10.6198 23.4346 8.11993 22.2286 8.11957 19.9805V14.6299C8.11954 14.4043 8.05101 14.0985 7.91937 13.7715C7.79265 13.4567 7.62901 13.1772 7.4848 12.9932L3.68402 8.99414C3.35876 8.66217 3.08605 8.22807 2.89398 7.80176C2.70527 7.38288 2.56004 6.89597 2.56 6.4502V4.12012C2.56 2.51999 3.78201 1.25026 5.32953 1.25H18.6703C20.1944 1.25019 21.4399 2.49642 21.4399 4.02051V6.24023Z" fill="#1C252E"/>
</svg>
