<svg width="24" height="24" viewBox="0 0 24 24" fill="none" xmlns="http://www.w3.org/2000/svg">
<path d="M7.1126 10.058C6.56139 8.24392 8.23571 6.54321 10.0511 7.10388H10.0521L16.3421 9.05407L16.346 9.05505C18.5215 9.74162 18.5645 12.8209 16.386 13.5424L16.3851 13.5414L14.6585 14.1215H14.6575C14.4015 14.2068 14.2067 14.4015 14.1214 14.6576V14.6586L13.5413 16.389L13.5403 16.3881C12.8172 18.576 9.73699 18.5206 9.06377 16.3422L7.11358 10.0629L7.1126 10.058ZM9.60772 8.53649C8.96502 8.33868 8.34196 8.93402 8.5462 9.61755L10.4964 15.8978V15.8988C10.7432 16.6983 11.8581 16.7039 12.1175 15.9164L12.1185 15.9115L12.6985 14.182C12.9187 13.5224 13.4124 13.0022 14.053 12.7465L14.1829 12.6986L15.9114 12.1195L15.9144 12.1185C16.6953 11.86 16.6984 10.7396 15.8948 10.4857H15.8939L9.60772 8.53649Z" fill="#1C252E"/>
<path d="M21.25 12C21.25 6.89137 17.1086 2.75 12 2.75C6.89137 2.75 2.75 6.89137 2.75 12C2.75 17.1086 6.89137 21.25 12 21.25C17.1086 21.25 21.25 17.1086 21.25 12ZM22.75 12C22.75 17.9371 17.9371 22.75 12 22.75C6.06294 22.75 1.25 17.9371 1.25 12C1.25 6.06294 6.06294 1.25 12 1.25C17.9371 1.25 22.75 6.06294 22.75 12Z" fill="#1C252E"/>
</svg>
