<svg width="24" height="24" viewBox="0 0 24 24" fill="none" xmlns="http://www.w3.org/2000/svg">
<path d="M11.25 14V9C11.25 8.58579 11.5858 8.25 12 8.25C12.4142 8.25 12.75 8.58579 12.75 9V14C12.75 14.4142 12.4142 14.75 12 14.75C11.5858 14.75 11.25 14.4142 11.25 14Z" fill="#1C252E"/>
<path d="M11.9996 1.84253C13.5494 1.84253 14.9315 2.8984 15.8951 4.6355L21.9556 15.5457C22.8757 17.205 23.0197 18.8789 22.2535 20.1814C21.4872 21.4841 19.9556 22.1696 18.0601 22.1697H11.9996C11.96 22.1697 11.9213 22.1658 11.8834 22.1599H5.94C4.04024 22.1599 2.50707 21.4745 1.74176 20.1707C0.977057 18.8676 1.12505 17.1942 2.04449 15.5359L5.16461 9.91577L8.10504 4.6355C9.0685 2.89859 10.4499 1.84272 11.9996 1.84253ZM11.9996 3.34253C11.1998 3.34272 10.2319 3.89195 9.41558 5.36401L6.47515 10.6433L3.35601 16.2644C2.5958 17.6358 2.62814 18.7175 3.0357 19.4119C3.44296 20.1054 4.36995 20.6599 5.94 20.6599H11.9996C12.0383 20.6599 12.0767 20.664 12.1138 20.6697H18.0601C19.6245 20.6696 20.5528 20.1154 20.9615 19.4207C21.3445 18.7691 21.3978 17.7777 20.7769 16.5271L20.6441 16.2742L14.5845 5.36401C13.7681 3.8917 12.7994 3.34253 11.9996 3.34253Z" fill="#1C252E"/>
<path d="M12.0033 16C12.5556 16 13.0033 16.4477 13.0033 17C13.0033 17.5523 12.5556 18 12.0033 18H11.9945C11.4422 18 10.9945 17.5523 10.9945 17C10.9945 16.4477 11.4422 16 11.9945 16H12.0033Z" fill="#1C252E"/>
</svg>
