<svg width="24" height="24" viewBox="0 0 24 24" fill="none" xmlns="http://www.w3.org/2000/svg">
<path d="M14.2999 8.63967C14.5928 8.34686 15.0676 8.34681 15.3604 8.63967C15.6532 8.93255 15.6532 9.40735 15.3604 9.70022L9.70028 15.3604C9.40741 15.6532 8.93261 15.6532 8.63974 15.3604C8.34687 15.0675 8.34692 14.5927 8.63974 14.2998L14.2999 8.63967Z" fill="#1C252E"/>
<path d="M8.63971 8.63971C8.93261 8.34682 9.40737 8.34682 9.70026 8.63971L15.3604 14.2999C15.6532 14.5928 15.6533 15.0676 15.3604 15.3604C15.0676 15.6533 14.5928 15.6532 14.2999 15.3604L8.63971 9.70026C8.34682 9.40737 8.34682 8.93261 8.63971 8.63971Z" fill="#1C252E"/>
<path d="M21.25 9C21.25 6.57397 20.7603 5.0708 19.8447 4.15527C18.9292 3.23974 17.426 2.75 15 2.75H9C6.57397 2.75 5.0708 3.23974 4.15527 4.15527C3.23974 5.0708 2.75 6.57397 2.75 9V15C2.75 17.426 3.23974 18.9292 4.15527 19.8447C5.0708 20.7603 6.57397 21.25 9 21.25H15C17.426 21.25 18.9292 20.7603 19.8447 19.8447C20.7603 18.9292 21.25 17.426 21.25 15V9ZM22.75 15C22.75 17.574 22.2397 19.5708 20.9053 20.9053C19.5708 22.2397 17.574 22.75 15 22.75H9C6.42603 22.75 4.4292 22.2397 3.09473 20.9053C1.76026 19.5708 1.25 17.574 1.25 15V9C1.25 6.42603 1.76026 4.4292 3.09473 3.09473C4.4292 1.76026 6.42603 1.25 9 1.25H15C17.574 1.25 19.5708 1.76026 20.9053 3.09473C22.2397 4.4292 22.75 6.42603 22.75 9V15Z" fill="#1C252E"/>
</svg>
