<svg width="24" height="24" viewBox="0 0 24 24" fill="none" xmlns="http://www.w3.org/2000/svg">
<path d="M21.22 18C21.22 17.8642 21.1058 17.75 20.97 17.75H2.97001C2.83422 17.75 2.72001 17.8642 2.72001 18V19C2.72001 19.4243 2.7217 19.7665 2.76102 20.0674C2.79949 20.3616 2.86743 20.556 2.96219 20.6934C3.12116 20.9237 3.54256 21.25 4.97001 21.25H18.97C20.3975 21.25 20.8188 20.9237 20.9778 20.6934C21.0726 20.556 21.1405 20.3616 21.179 20.0674C21.2183 19.7665 21.22 19.4243 21.22 19V18ZM22.72 19C22.72 19.4005 22.7216 19.8456 22.6673 20.2617C22.612 20.6847 22.4924 21.1386 22.2122 21.5449C21.621 22.4018 20.542 22.75 18.97 22.75H4.97001C3.39803 22.75 2.31899 22.4018 1.72782 21.5449C1.44758 21.1386 1.32803 20.6847 1.27274 20.2617C1.21839 19.8456 1.22001 19.4005 1.22001 19V18C1.22001 17.0358 2.00579 16.25 2.97001 16.25H20.97C21.9342 16.25 22.72 17.0358 22.72 18V19Z" fill="#1C252E"/>
<path d="M19.9702 13C19.9702 9.52134 17.5243 6.62024 14.2514 5.91309L14.2475 5.91211C13.7644 5.80475 13.249 5.75001 12.7202 5.75H11.27C10.7421 5.75 10.2365 5.80454 9.75241 5.91211L9.74655 5.91309C6.47549 6.61079 4.01999 9.52123 4.01999 13V16.25H19.9702V13ZM21.4702 17C21.4702 17.4141 21.1343 17.7499 20.7202 17.75H3.26999C2.85578 17.75 2.51999 17.4142 2.51999 17V13C2.51999 8.79891 5.48434 5.28873 9.43307 4.44629V4.44727C10.0273 4.31567 10.6399 4.25 11.27 4.25H12.7202C13.3496 4.25001 13.9724 4.3163 14.5678 4.44824L14.5688 4.44727C18.5157 5.3003 21.4702 8.79883 21.4702 13V17Z" fill="#1C252E"/>
<path d="M12 1.25C13.7942 1.25 15.25 2.70579 15.25 4.5C15.25 4.80593 15.2114 5.09222 15.1338 5.37695C15.0285 5.76319 14.6379 5.99896 14.2471 5.91211C13.764 5.80477 13.2485 5.75 12.7197 5.75H11.2695C10.7419 5.75003 10.2368 5.80461 9.75293 5.91211C9.36212 5.99896 8.97155 5.76319 8.86621 5.37695C8.78859 5.09222 8.75 4.80593 8.75 4.5C8.75 2.70579 10.2058 1.25 12 1.25ZM12 2.75C11.0989 2.75 10.3552 3.43266 10.2598 4.30859C10.5912 4.27007 10.9278 4.25002 11.2695 4.25H12.7197C13.0626 4.25 13.4036 4.27072 13.7393 4.30957C13.6442 3.43323 12.9014 2.75 12 2.75Z" fill="#1C252E"/>
<path d="M15 10.25C15.4142 10.25 15.75 10.5858 15.75 11C15.75 11.4142 15.4142 11.75 15 11.75H9C8.58579 11.75 8.25 11.4142 8.25 11C8.25 10.5858 8.58579 10.25 9 10.25H15Z" fill="#1C252E"/>
</svg>
