<svg width="24" height="24" viewBox="0 0 24 24" fill="none" xmlns="http://www.w3.org/2000/svg">
<path d="M20.0296 13.6499C20.0294 9.24424 16.4655 5.68018 12.0598 5.68018H11.9397C7.53416 5.68032 3.97015 9.24433 3.97 13.6499V17.8403H20.0296V13.6499ZM21.5296 18.5903C21.5295 19.0045 21.1937 19.3403 20.7796 19.3403H3.22C2.80584 19.3403 2.47008 19.0045 2.47 18.5903V13.6499C2.47015 8.41591 6.70573 4.18032 11.9397 4.18018H12.0598C17.294 4.18018 21.5294 8.41581 21.5296 13.6499V18.5903Z" fill="#1C252E"/>
<path d="M11.25 4.92969V2C11.25 1.58579 11.5858 1.25 12 1.25C12.4142 1.25 12.75 1.58579 12.75 2V4.92969C12.75 5.3439 12.4142 5.67969 12 5.67969C11.5858 5.67969 11.25 5.3439 11.25 4.92969Z" fill="#1C252E"/>
<path d="M15.6498 17.8398C15.8576 17.8398 16.0558 17.9263 16.1977 18.0781C16.3395 18.2299 16.4119 18.4334 16.3979 18.6406C16.2412 20.942 14.3267 22.7498 12.0004 22.75C9.67394 22.75 7.75862 20.9421 7.60197 18.6406C7.58791 18.4334 7.6604 18.2299 7.80217 18.0781C7.944 17.9263 8.14226 17.8398 8.35002 17.8398H15.6498ZM9.26897 19.3398C9.67783 20.4563 10.7496 21.25 12.0004 21.25C13.251 21.2498 14.322 20.4562 14.7309 19.3398H9.26897Z" fill="#1C252E"/>
</svg>
