<svg width="24" height="24" viewBox="0 0 24 24" fill="none" xmlns="http://www.w3.org/2000/svg">
<path d="M17.8997 9.96997C18.6938 9.96997 19.5505 10.2132 19.8958 10.9778C20.241 11.7423 19.8561 12.543 19.3323 13.135L19.3333 13.136L11.763 21.7356C11.447 22.0943 11.1063 22.3848 10.7474 22.5618C10.3854 22.7402 9.94596 22.828 9.51007 22.6643C9.0737 22.5004 8.80117 22.1444 8.64679 21.7708C8.49393 21.4007 8.42999 20.958 8.42999 20.4797V18.0403C8.42999 17.6261 8.76578 17.2903 9.17999 17.2903C9.59421 17.2903 9.92999 17.6261 9.92999 18.0403V20.4797C9.92999 20.8414 9.98012 21.0716 10.0325 21.1985C10.0375 21.2104 10.0448 21.2196 10.0491 21.2288C10.0591 21.2246 10.0717 21.2223 10.0843 21.2161C10.2082 21.1549 10.3982 21.0155 10.637 20.7444L18.2073 12.1448L18.2083 12.1428C18.3936 11.9336 18.4774 11.7725 18.5091 11.6721C18.5206 11.6356 18.5219 11.611 18.5228 11.5969C18.5113 11.588 18.4914 11.5734 18.4564 11.5579C18.3591 11.5147 18.1814 11.47 17.8997 11.47H16.97C16.5558 11.47 16.22 11.1342 16.22 10.72C16.22 10.3058 16.5558 9.96997 16.97 9.96997H17.8997Z" fill="#1C252E"/>
<path d="M14.0703 8.83996V3.51965C14.0703 3.15848 14.0201 2.92873 13.9678 2.80188C13.9627 2.78954 13.9547 2.77996 13.9502 2.77063C13.9404 2.77476 13.9283 2.77726 13.916 2.78332C13.7921 2.84443 13.6012 2.98387 13.3623 3.255L13.3633 3.25598L5.79297 11.8556L5.79102 11.8575C5.60568 12.0669 5.52182 12.2279 5.49023 12.3282C5.4789 12.3642 5.47647 12.3883 5.47559 12.4025C5.48671 12.4113 5.50663 12.4263 5.54297 12.4425C5.64015 12.4857 5.81785 12.5304 6.09961 12.5304H9.19043C9.60445 12.5306 9.94043 12.8663 9.94043 13.2804V14.4601C9.94039 14.8741 9.60442 15.2098 9.19043 15.2101C8.77624 15.2101 8.44046 14.8743 8.44043 14.4601V14.0304H6.09961C5.30564 14.0303 4.44877 13.7871 4.10352 13.0226C3.75795 12.2573 4.14441 11.4546 4.66895 10.8624L12.2373 2.26379C12.5532 1.90529 12.8933 1.61556 13.252 1.4386C13.614 1.26002 14.0542 1.17138 14.4902 1.33508C14.9265 1.49894 15.1991 1.85514 15.3535 2.22864C15.5064 2.59858 15.5703 3.04144 15.5703 3.51965V8.83996C15.5703 9.25407 15.2344 9.5898 14.8203 9.58996C14.4061 9.58996 14.0703 9.25418 14.0703 8.83996Z" fill="#1C252E"/>
<path d="M21.4697 1.46967C21.7626 1.17678 22.2374 1.17678 22.5303 1.46967C22.8232 1.76256 22.8232 2.23732 22.5303 2.53022L2.53028 22.5302C2.23738 22.8231 1.76262 22.8231 1.46973 22.5302C1.17684 22.2373 1.17684 21.7626 1.46973 21.4697L21.4697 1.46967Z" fill="#1C252E"/>
</svg>
