<svg width="24" height="24" viewBox="0 0 24 24" fill="none" xmlns="http://www.w3.org/2000/svg">
<path d="M21.25 9C21.25 6.57397 20.7603 5.0708 19.8447 4.15527C18.9292 3.23974 17.426 2.75 15 2.75H9C6.57397 2.75 5.0708 3.23974 4.15527 4.15527C3.23974 5.0708 2.75 6.57397 2.75 9V15C2.75 17.426 3.23974 18.9292 4.15527 19.8447C5.0708 20.7603 6.57397 21.25 9 21.25H15C17.426 21.25 18.9292 20.7603 19.8447 19.8447C20.7603 18.9292 21.25 17.426 21.25 15V9ZM22.75 15C22.75 17.574 22.2397 19.5708 20.9053 20.9053C19.5708 22.2397 17.574 22.75 15 22.75H9C6.42603 22.75 4.4292 22.2397 3.09473 20.9053C1.76026 19.5708 1.25 17.574 1.25 15V9C1.25 6.42603 1.76026 4.4292 3.09473 3.09473C4.4292 1.76026 6.42603 1.25 9 1.25H15C17.574 1.25 19.5708 1.76026 20.9053 3.09473C22.2397 4.4292 22.75 6.42603 22.75 9V15Z" fill="#1C252E"/>
<path d="M11.3305 7.96973C13.5452 7.96974 15.7701 8.0812 17.975 8.30371C18.3871 8.3453 18.6875 8.71288 18.6459 9.125C18.6043 9.53712 18.2367 9.83749 17.8246 9.7959C15.67 9.57846 13.4953 9.46974 11.3305 9.46973C10.0573 9.46973 8.78182 9.53835 7.51503 9.66602H7.5121L6.17226 9.7959C5.76003 9.83582 5.39389 9.53431 5.3539 9.12207C5.31393 8.70981 5.61546 8.34371 6.02773 8.30371L7.36757 8.17285V8.17383C8.67989 8.04167 10.0045 7.96973 11.3305 7.96973Z" fill="#1C252E"/>
<path d="M12.8604 5.68994C13.5041 5.69 14.0698 5.83028 14.4502 6.26904C14.7024 6.55995 14.8012 6.91782 14.8516 7.18115L14.8897 7.40674V7.40771L15.0303 8.2583C15.0974 8.66679 14.8206 9.05218 14.4122 9.11963C14.0035 9.18694 13.6172 8.91017 13.5499 8.50146L13.4102 7.65283L13.3751 7.45557C13.3647 7.40229 13.3553 7.3592 13.3438 7.3208C13.3331 7.28483 13.3232 7.26569 13.3184 7.25635C13.2868 7.23824 13.1713 7.18998 12.8604 7.18994H11.1397C10.8272 7.18997 10.7094 7.23592 10.6768 7.25342C10.6721 7.26344 10.665 7.28158 10.6563 7.31104C10.6336 7.38768 10.6175 7.48415 10.5909 7.64893L10.5899 7.65088L10.4502 8.51025C10.3837 8.91895 9.99858 9.19667 9.5899 9.13037C9.18106 9.06382 8.90322 8.67787 8.96978 8.26904L9.10943 7.40967C9.15015 7.15693 9.21227 6.64506 9.55279 6.25732C9.93645 5.82057 10.5049 5.68998 11.1397 5.68994H12.8604Z" fill="#1C252E"/>
<path d="M16.5391 8.38199C16.9522 8.40908 17.2652 8.76563 17.2383 9.17886L16.8086 15.7785V15.7804C16.7918 16.0271 16.7722 16.3213 16.7168 16.5978C16.6598 16.882 16.5559 17.2007 16.335 17.4884C15.8662 18.0986 15.0899 18.3097 14.0996 18.3097H9.88965C8.89955 18.3097 8.12397 18.0985 7.65527 17.4884C7.43429 17.2007 7.33039 16.882 7.27344 16.5978C7.21802 16.3213 7.1984 16.0271 7.18164 15.7804V15.7785L6.75195 9.17886C6.72502 8.76556 7.03788 8.40896 7.45117 8.38199C7.86448 8.35506 8.22107 8.66791 8.24805 9.08121L8.67871 15.6789L8.70605 16.0304C8.71607 16.1324 8.7278 16.2213 8.74414 16.3029C8.77529 16.4583 8.81321 16.5333 8.84472 16.5744C8.88099 16.6216 9.05034 16.8097 9.88965 16.8097H14.0996C14.9392 16.8097 15.1092 16.6216 15.1455 16.5744C15.177 16.5333 15.215 16.4582 15.2461 16.3029C15.2788 16.1397 15.2933 15.9471 15.3115 15.6789L15.7412 9.08121C15.7682 8.66789 16.1257 8.35506 16.5391 8.38199Z" fill="#1C252E"/>
</svg>
