<svg width="24" height="24" viewBox="0 0 24 24" fill="none" xmlns="http://www.w3.org/2000/svg">
<path d="M8.66992 13.25C9.08414 13.25 9.41992 13.5858 9.41992 14V22C9.41992 22.4142 9.08414 22.75 8.66992 22.75H2C1.58579 22.75 1.25 22.4142 1.25 22V16C1.25 14.4858 2.48579 13.25 4 13.25H8.66992ZM2.75 21.25H7.91992V14.75H4C3.31421 14.75 2.75 15.3142 2.75 16V21.25Z" fill="#1C252E"/>
<path d="M14.5799 12C14.5799 11.3118 14.0233 10.75 13.3299 10.75H10.66C9.97422 10.75 9.41 11.3142 9.41 12V21.25H14.5799V12ZM16.0799 22C16.0799 22.4142 15.7441 22.75 15.3299 22.75H8.66C8.24579 22.75 7.91 22.4142 7.91 22V12C7.91 10.4858 9.14579 9.25 10.66 9.25H13.3299C14.8566 9.25 16.0799 10.4882 16.0799 12V22Z" fill="#1C252E"/>
<path d="M21.2499 19C21.2499 18.3142 20.6857 17.75 19.9999 17.75H16.08V21.25H21.2499V19ZM22.7499 22C22.7499 22.4142 22.4142 22.75 21.9999 22.75H15.33C14.9158 22.75 14.58 22.4142 14.58 22V17C14.58 16.5858 14.9158 16.25 15.33 16.25H19.9999C21.5142 16.25 22.7499 17.4858 22.7499 19V22Z" fill="#1C252E"/>
<path d="M11.9949 0.893581C12.6029 0.889545 12.991 1.34205 13.1883 1.72952L13.1912 1.7344L13.6804 2.71389L14.5506 2.8594C14.9897 2.9314 15.5127 3.17417 15.6961 3.73147C15.8805 4.29269 15.5982 4.79474 15.2791 5.1094L15.2801 5.11038L14.5926 5.7969L14.7801 6.62014L14.8133 6.79104C14.8787 7.21444 14.8426 7.77923 14.365 8.12698C13.8223 8.52205 13.1863 8.28875 12.8094 8.06546L11.9949 7.58596L11.1804 8.06643L11.1795 8.06546C10.8024 8.28859 10.167 8.52174 9.62478 8.12698C9.07951 7.7298 9.10986 7.04935 9.20974 6.62014L9.39626 5.7969L8.71951 5.12014C8.41036 4.81095 8.11507 4.30807 8.29861 3.74124C8.45931 3.24514 8.88865 3.00293 9.28396 2.90335L9.45095 2.86917L10.3181 2.72464L10.8094 1.74417C11.0049 1.35329 11.3886 0.897673 11.9949 0.893581ZM11.6209 3.47561C11.5173 3.68263 11.3573 3.83711 11.2185 3.93948C11.078 4.04312 10.8872 4.14539 10.6677 4.18655C10.6629 4.18746 10.658 4.18867 10.6531 4.18948L10.0154 4.29495L10.4988 4.77835L10.5672 4.84768C10.7186 5.01393 10.8069 5.20854 10.8543 5.37112C10.9083 5.55664 10.9352 5.7949 10.8797 6.03616L10.8816 6.03714L10.7586 6.57327L11.3191 6.24319V6.24417C11.5436 6.10908 11.7914 6.0645 11.9949 6.06448C12.1982 6.06448 12.4454 6.10948 12.6697 6.24417L12.6707 6.24319L13.2312 6.57327L13.1092 6.03714V6.03616C13.0536 5.79498 13.0818 5.5588 13.1365 5.37307C13.1922 5.1841 13.2971 4.97235 13.4695 4.79983L13.9832 4.28518L13.3465 4.17971V4.17678C13.1182 4.14165 12.9225 4.04186 12.781 3.93753C12.6322 3.8277 12.471 3.66381 12.3699 3.44729V3.44632L12.0027 2.71096L11.6209 3.47561Z" fill="#1C252E"/>
</svg>
