<svg width="24" height="24" viewBox="0 0 24 24" fill="none" xmlns="http://www.w3.org/2000/svg">
<path d="M2.05059 13.2847C2.45626 13.2022 2.85262 13.4649 2.93536 13.8706C3.79551 18.0868 7.52242 21.2504 11.9998 21.2505C16.457 21.2505 20.1766 18.0962 21.0555 13.896C21.1404 13.4909 21.538 13.2314 21.9432 13.3159C22.3486 13.4007 22.609 13.7982 22.5242 14.2036C21.5031 19.0834 17.1827 22.7505 11.9998 22.7505C6.79756 22.7504 2.46469 19.0728 1.46465 14.1694C1.38222 13.7638 1.64491 13.3674 2.05059 13.2847Z" fill="#1C252E"/>
<path d="M11.9998 1.25C17.2245 1.25 21.578 4.96997 22.5457 9.91602C22.6252 10.3225 22.3604 10.7164 21.9539 10.7959C21.5475 10.8754 21.1536 10.6105 21.074 10.2041C20.2417 5.95017 16.4951 2.75 11.9998 2.75C7.53369 2.75009 3.80404 5.92231 2.93438 10.1318C2.85056 10.5373 2.4541 10.7984 2.04864 10.7148C1.64299 10.631 1.38183 10.2338 1.46563 9.82812C2.47601 4.93786 6.80616 1.25009 11.9998 1.25Z" fill="#1C252E"/>
<path d="M12.75 12C12.75 11.5858 12.4142 11.25 12 11.25C11.5858 11.25 11.25 11.5858 11.25 12C11.25 12.4142 11.5858 12.75 12 12.75C12.4142 12.75 12.75 12.4142 12.75 12ZM14.25 12C14.25 13.2426 13.2426 14.25 12 14.25C10.7574 14.25 9.75 13.2426 9.75 12C9.75 10.7574 10.7574 9.75 12 9.75C13.2426 9.75 14.25 10.7574 14.25 12Z" fill="#1C252E"/>
</svg>
