<svg width="24" height="24" viewBox="0 0 24 24" fill="none" xmlns="http://www.w3.org/2000/svg">
<path d="M11.2496 19.22C11.2498 18.806 11.5857 18.4702 11.9996 18.47C12.4138 18.47 12.7495 18.8059 12.7496 19.22V20.7864L13.8844 20.219C14.2549 20.0338 14.706 20.1845 14.8912 20.5549C15.0763 20.9254 14.9257 21.3756 14.5553 21.5608L12.3356 22.6711C12.1245 22.7767 11.8758 22.7767 11.6647 22.6711L9.44495 21.5608C9.07451 21.3756 8.92388 20.9254 9.10901 20.5549C9.29425 20.1844 9.74536 20.0338 10.1158 20.219L11.2496 20.7854V19.22ZM2.35999 14.7805C2.35999 14.3663 2.69577 14.0305 3.10999 14.0305C3.5242 14.0305 3.85999 14.3663 3.85999 14.7805V17.0969L5.66565 17.9993C6.03603 18.1846 6.18583 18.6357 6.00061 19.0061C5.81526 19.3762 5.36506 19.5261 4.99475 19.3411L2.77502 18.2307C2.52094 18.1037 2.35999 17.8439 2.35999 17.5598V14.7805ZM20.1403 14.7805C20.1403 14.3663 20.476 14.0305 20.8903 14.0305C21.3043 14.0307 21.6403 14.3664 21.6403 14.7805V17.5598C21.6403 17.8439 21.4793 18.1037 21.2252 18.2307L19.0055 19.3411C18.6352 19.5262 18.185 19.3762 17.9996 19.0061C17.8144 18.6356 17.9641 18.1845 18.3346 17.9993L20.1403 17.0959V14.7805ZM11.2496 13.6702V11.3528L9.44495 10.4514C9.07446 10.2662 8.92377 9.81506 9.10901 9.44458C9.29429 9.0742 9.74541 8.9244 10.1158 9.10962L11.9996 10.051L13.8844 9.10962C14.2549 8.92438 14.706 9.07412 14.8912 9.44458C15.0765 9.81506 14.9258 10.2662 14.5553 10.4514L12.7496 11.3538V13.6702C12.7496 14.0844 12.4138 14.4202 11.9996 14.4202C11.5856 14.42 11.2496 14.0843 11.2496 13.6702ZM2.35999 9.21997V6.44067C2.35999 6.15659 2.52094 5.89682 2.77502 5.76977L4.99475 4.65942C5.36506 4.47436 5.81526 4.62427 6.00061 4.99438C6.18583 5.36482 6.03603 5.81593 5.66565 6.00122L4.78674 6.4397L5.66565 6.87915C6.03607 7.06442 6.18584 7.51553 6.00061 7.88598C5.81528 8.25619 5.3651 8.40606 4.99475 8.22095L3.85999 7.65259V9.21997C3.85999 9.63418 3.5242 9.96997 3.10999 9.96997C2.69577 9.96997 2.35999 9.63418 2.35999 9.21997ZM11.7457 1.29516C11.9376 1.22596 12.1509 1.237 12.3356 1.32934L14.5553 2.4397C14.9257 2.62491 15.0763 3.07513 14.8912 3.44556C14.706 3.81603 14.2549 3.96671 13.8844 3.78149L11.9996 2.83813L10.1158 3.78149C9.74536 3.96673 9.29425 3.81604 9.10901 3.44556C8.92387 3.0751 9.07451 2.62491 9.44495 2.4397L11.6647 1.32934L11.7457 1.29516ZM21.6403 9.21997C21.6403 9.63409 21.3043 9.96982 20.8903 9.96997C20.476 9.96997 20.1403 9.63418 20.1403 9.21997V7.65259L19.0055 8.22095C18.6352 8.40611 18.185 8.25614 17.9996 7.88598C17.8144 7.5155 17.9641 7.06439 18.3346 6.87915L19.2125 6.4397L18.3346 6.00122C17.9641 5.81598 17.8144 5.36487 17.9996 4.99438C18.185 4.6243 18.6352 4.47427 19.0055 4.65942L21.2252 5.76977C21.4793 5.89682 21.6403 6.15659 21.6403 6.44067V9.21997Z" fill="#1C252E"/>
</svg>
