<svg width="24" height="24" viewBox="0 0 24 24" fill="none" xmlns="http://www.w3.org/2000/svg">
<path d="M14.5297 13.0297C14.8226 12.7368 15.2974 12.7368 15.5903 13.0297L20.5405 17.9799C20.8332 18.2728 20.8333 18.7476 20.5405 19.0405C20.2476 19.3333 19.7728 19.3332 19.4799 19.0405L14.5297 14.0903C14.2368 13.7974 14.2368 13.3226 14.5297 13.0297Z" fill="#1C252E"/>
<path d="M10.99 2.42959C12.0629 1.35685 13.8078 1.35675 14.8806 2.42959L19.1199 6.66983C20.1928 7.74272 20.1928 9.48756 19.1199 10.5605L12.0505 17.6298C10.9776 18.7027 9.2328 18.7027 8.15991 17.6298L3.91968 13.3905C2.84683 12.3177 2.84693 10.5728 3.91968 9.49991L10.99 2.42959ZM13.8201 3.49014C13.333 3.00308 12.5377 3.00319 12.0505 3.49014L4.98022 10.5605C4.49327 11.0476 4.49317 11.8429 4.98022 12.33L9.22046 16.5692C9.70756 17.0563 10.5029 17.0563 10.99 16.5692L18.0593 9.49991C18.5464 9.0128 18.5464 8.21748 18.0593 7.73037L13.8201 3.49014Z" fill="#1C252E"/>
<path d="M8 20.25C8.41421 20.25 8.75 20.5858 8.75 21C8.75 21.4142 8.41421 21.75 8 21.75H2C1.58579 21.75 1.25 21.4142 1.25 21C1.25 20.5858 1.58579 20.25 2 20.25H8Z" fill="#1C252E"/>
<path d="M6.02973 7.38959C6.32262 7.0967 6.79738 7.0967 7.09027 7.38959L14.1606 14.4599C14.4532 14.7528 14.4534 15.2277 14.1606 15.5205C13.8678 15.8132 13.393 15.813 13.1 15.5205L6.02973 8.45014C5.73684 8.15725 5.73684 7.68248 6.02973 7.38959Z" fill="#1C252E"/>
</svg>
