<svg width="24" height="24" viewBox="0 0 24 24" fill="none" xmlns="http://www.w3.org/2000/svg">
<path d="M9.60132 2.23444C10.937 1.16378 13.0574 1.16594 14.4001 2.24518H14.3992L21.3279 7.78425L21.3308 7.7862C21.8442 8.19977 22.2291 8.80555 22.4646 9.42292C22.7001 10.0405 22.817 10.7488 22.7107 11.4005L22.7097 11.4034L21.3796 19.3633V19.3653C21.0785 21.1344 19.3971 22.5595 17.6003 22.5596H6.40014C4.59409 22.5596 2.92201 21.1457 2.62085 19.3653L2.61987 19.3633L1.28979 11.4034L1.29077 11.4024C1.17886 10.7495 1.29242 10.0407 1.52807 9.42292C1.76425 8.80387 2.15238 8.19765 2.67163 7.78425L9.60132 2.23444ZM13.4597 3.41413C12.6626 2.77386 11.323 2.77649 10.5388 3.40534L3.60913 8.95515L3.60717 8.9571C3.34732 9.16365 3.0955 9.52188 2.92944 9.9571C2.78416 10.3379 2.72695 10.7176 2.75268 11.0245L2.76928 11.1514L2.77026 11.1563H2.76928L4.09936 19.1153L4.14331 19.3116C4.40999 20.2816 5.39357 21.0596 6.40014 21.0596H17.6003C18.6626 21.0595 19.7202 20.166 19.9001 19.1163L21.2302 11.1563C21.283 10.8285 21.2296 10.3931 21.0632 9.9571C20.8968 9.52083 20.647 9.16279 20.3914 8.95612L13.4617 3.41608L13.4597 3.41413Z" fill="#1C252E"/>
<path d="M13.75 13C13.75 12.0335 12.9665 11.25 12 11.25C11.0335 11.25 10.25 12.0335 10.25 13C10.25 13.9665 11.0335 14.75 12 14.75C12.9665 14.75 13.75 13.9665 13.75 13ZM15.25 13C15.25 14.7949 13.7949 16.25 12 16.25C10.2051 16.25 8.75 14.7949 8.75 13C8.75 11.2051 10.2051 9.75 12 9.75C13.7949 9.75 15.25 11.2051 15.25 13Z" fill="#1C252E"/>
</svg>
