<svg width="24" height="24" viewBox="0 0 24 24" fill="none" xmlns="http://www.w3.org/2000/svg">
<path d="M14 16.75C14.4142 16.75 14.75 17.0858 14.75 17.5C14.75 17.9142 14.4142 18.25 14 18.25H10C9.58579 18.25 9.25 17.9142 9.25 17.5C9.25 17.0858 9.58579 16.75 10 16.75H14Z" fill="#1C252E"/>
<path d="M1.25 17.5V7.5C1.25 5.50536 1.48122 3.95823 2.46973 2.96973C3.45823 1.98122 5.00536 1.75 7 1.75C7.41421 1.75 7.75 2.08579 7.75 2.5C7.75 2.91421 7.41421 3.25 7 3.25C4.99464 3.25 4.04177 3.51878 3.53027 4.03027C3.01878 4.54177 2.75 5.49464 2.75 7.5V17.5C2.75 17.9142 2.41421 18.25 2 18.25C1.58579 18.25 1.25 17.9142 1.25 17.5Z" fill="#1C252E"/>
<path d="M21.25 17.5V7.5C21.25 5.49464 20.9812 4.54177 20.4697 4.03027C19.9582 3.51878 19.0054 3.25 17 3.25C16.5858 3.25 16.25 2.91421 16.25 2.5C16.25 2.08579 16.5858 1.75 17 1.75C18.9946 1.75 20.5418 1.98122 21.5303 2.96973C22.5188 3.95823 22.75 5.50536 22.75 7.5V17.5C22.75 17.9142 22.4142 18.25 22 18.25C21.5858 18.25 21.25 17.9142 21.25 17.5Z" fill="#1C252E"/>
<path d="M9.25 15.9097C9.24997 14.9838 9.05985 14.531 8.81934 14.2905C8.57882 14.05 8.12609 13.8599 7.2002 13.8599H4.7998C3.87391 13.8599 3.42118 14.05 3.18066 14.2905C2.94015 14.531 2.75003 14.9838 2.75 15.9097V19.1997C2.75 20.1257 2.94013 20.5793 3.18066 20.8198C3.42126 21.0602 3.87431 21.2495 4.7998 21.2495H7.2002C8.12569 21.2495 8.57874 21.0602 8.81934 20.8198C9.05987 20.5793 9.25 20.1257 9.25 19.1997V15.9097ZM10.75 19.1997C10.75 20.2737 10.5394 21.2209 9.87988 21.8804C9.22047 22.5396 8.27392 22.7495 7.2002 22.7495H4.7998C3.72608 22.7495 2.77953 22.5396 2.12012 21.8804C1.46065 21.2209 1.25 20.2737 1.25 19.1997V15.9097C1.25003 14.8358 1.46069 13.8894 2.12012 13.23C2.77955 12.5706 3.72591 12.3599 4.7998 12.3599H7.2002C8.27409 12.3599 9.22045 12.5706 9.87988 13.23C10.5393 13.8894 10.75 14.8358 10.75 15.9097V19.1997Z" fill="#1C252E"/>
<path d="M21.25 15.9097C21.25 14.9838 21.0598 14.531 20.8193 14.2905C20.5788 14.05 20.1261 13.8599 19.2002 13.8599H16.7998C15.8739 13.8599 15.4212 14.05 15.1807 14.2905C14.9401 14.531 14.75 14.9838 14.75 15.9097V19.1997C14.75 20.1257 14.9401 20.5793 15.1807 20.8198C15.4213 21.0602 15.8743 21.2495 16.7998 21.2495H19.2002C20.1257 21.2495 20.5787 21.0602 20.8193 20.8198C21.0599 20.5793 21.25 20.1257 21.25 19.1997V15.9097ZM22.75 19.1997C22.75 20.2737 22.5394 21.2209 21.8799 21.8804C21.2205 22.5396 20.2739 22.7495 19.2002 22.7495H16.7998C15.7261 22.7495 14.7795 22.5396 14.1201 21.8804C13.4606 21.2209 13.25 20.2737 13.25 19.1997V15.9097C13.25 14.8358 13.4607 13.8894 14.1201 13.23C14.7795 12.5706 15.7259 12.3599 16.7998 12.3599H19.2002C20.2741 12.3599 21.2205 12.5706 21.8799 13.23C22.5393 13.8894 22.75 14.8358 22.75 15.9097V19.1997Z" fill="#1C252E"/>
</svg>
