<svg width="24" height="24" viewBox="0 0 24 24" fill="none" xmlns="http://www.w3.org/2000/svg">
<path d="M11.8891 6.30157C12.7431 5.3408 14.3403 5.9344 14.3403 7.23028V10.5301H15.3295C16.5303 10.5301 17.1824 11.9474 16.3832 12.8553L12.1235 17.6951L12.1205 17.6981C11.2666 18.6587 9.6707 18.0659 9.67034 16.7703V13.4695H8.68011C7.47917 13.4695 6.82767 12.0522 7.62737 11.1443L11.8871 6.3045L11.8891 6.30157ZM8.89984 11.9695H10.4203C10.8343 11.9697 11.1702 12.3056 11.1703 12.7195V16.5057L15.1108 12.0301H13.5903C13.1761 12.0301 12.8404 11.6942 12.8403 11.2801V7.492L8.89984 11.9695Z" fill="#1C252E"/>
<path d="M21.22 12C21.22 6.89137 17.0786 2.75 11.97 2.75C6.86137 2.75 2.72 6.89137 2.72 12C2.72 17.1086 6.86137 21.25 11.97 21.25C17.0786 21.25 21.22 17.1086 21.22 12ZM22.72 12C22.72 17.9371 17.9071 22.75 11.97 22.75C6.03294 22.75 1.22 17.9371 1.22 12C1.22 6.06294 6.03294 1.25 11.97 1.25C17.9071 1.25 22.72 6.06294 22.72 12Z" fill="#1C252E"/>
</svg>
