<svg width="24" height="24" viewBox="0 0 24 24" fill="none" xmlns="http://www.w3.org/2000/svg">
<path d="M21.2503 8.75C21.2503 6.40432 19.3459 4.50017 17.0003 4.5H10.2796C9.08046 4.50011 7.94296 5.00171 7.13605 5.89355L7.13507 5.89453L3.6048 9.77441C2.45507 11.0383 2.45507 12.9617 3.6048 14.2256L7.13507 18.1055L7.13605 18.1064C7.94296 18.9983 9.08046 19.4999 10.2796 19.5H17.0003C19.3459 19.4998 21.2503 17.5957 21.2503 15.25V8.75ZM22.7503 15.25C22.7503 18.4241 20.1744 20.9998 17.0003 21H10.2796C8.65904 20.9999 7.11666 20.3212 6.02374 19.1133V19.1123L2.49542 15.2344C0.825216 13.3983 0.825216 10.6017 2.49542 8.76562L6.02374 4.88672C7.11666 3.67876 8.65904 3.00011 10.2796 3H17.0003C20.1744 3.00017 22.7503 5.57589 22.7503 8.75V15.25Z" fill="#1C252E"/>
<path d="M10.5297 8.9997C10.8226 8.70681 11.2974 8.70681 11.5903 8.9997L16.5307 13.9401C16.8232 14.2331 16.8235 14.7079 16.5307 15.0007C16.238 15.2934 15.7631 15.2931 15.4702 15.0007L10.5297 10.0602C10.2368 9.76735 10.2368 9.29259 10.5297 8.9997Z" fill="#1C252E"/>
<path d="M15.4701 8.99984C15.7631 8.70716 16.2379 8.70701 16.5307 8.99984C16.8233 9.29267 16.8233 9.76754 16.5307 10.0604L11.5903 15.0008C11.2974 15.2934 10.8226 15.2934 10.5297 15.0008C10.2369 14.708 10.237 14.2332 10.5297 13.9403L15.4701 8.99984Z" fill="#1C252E"/>
</svg>
