<svg width="24" height="24" viewBox="0 0 24 24" fill="none" xmlns="http://www.w3.org/2000/svg">
<path d="M21.25 9C21.25 6.57397 20.7603 5.0708 19.8447 4.15527C18.9292 3.23974 17.426 2.75 15 2.75H9C6.57397 2.75 5.0708 3.23974 4.15527 4.15527C3.23974 5.0708 2.75 6.57397 2.75 9V15C2.75 17.426 3.23974 18.9292 4.15527 19.8447C5.0708 20.7603 6.57397 21.25 9 21.25H15C17.426 21.25 18.9292 20.7603 19.8447 19.8447C20.7603 18.9292 21.25 17.426 21.25 15V9ZM22.75 15C22.75 17.574 22.2397 19.5708 20.9053 20.9053C19.5708 22.2397 17.574 22.75 15 22.75H9C6.42603 22.75 4.4292 22.2397 3.09473 20.9053C1.76026 19.5708 1.25 17.574 1.25 15V9C1.25 6.42603 1.76026 4.4292 3.09473 3.09473C4.4292 1.76026 6.42603 1.25 9 1.25H15C17.574 1.25 19.5708 1.76026 20.9053 3.09473C22.2397 4.4292 22.75 6.42603 22.75 9V15Z" fill="#1C252E"/>
<path d="M16.25 8.25C16.25 7.83579 15.9142 7.5 15.5 7.5C15.0858 7.5 14.75 7.83579 14.75 8.25C14.75 8.66421 15.0858 9 15.5 9C15.9142 9 16.25 8.66421 16.25 8.25ZM17.75 8.25C17.75 9.49264 16.7426 10.5 15.5 10.5C14.2574 10.5 13.25 9.49264 13.25 8.25C13.25 7.00736 14.2574 6 15.5 6C16.7426 6 17.75 7.00736 17.75 8.25Z" fill="#1C252E"/>
<path d="M9.25 8.25C9.25 7.83579 8.91421 7.5 8.5 7.5C8.08579 7.5 7.75 7.83579 7.75 8.25C7.75 8.66421 8.08579 9 8.5 9C8.91421 9 9.25 8.66421 9.25 8.25ZM10.75 8.25C10.75 9.49264 9.74264 10.5 8.5 10.5C7.25736 10.5 6.25 9.49264 6.25 8.25C6.25 7.00736 7.25736 6 8.5 6C9.74264 6 10.75 7.00736 10.75 8.25Z" fill="#1C252E"/>
<path d="M15.75 14.2004C15.75 14.1147 15.6854 14.05 15.5996 14.05H8.40039C8.3146 14.05 8.25 14.1147 8.25 14.2004C8.25021 16.276 9.92434 17.9504 12 17.9504C14.0757 17.9504 15.7498 16.276 15.75 14.2004ZM17.25 14.2004C17.2498 17.1045 14.9041 19.4504 12 19.4504C9.09592 19.4504 6.75021 17.1045 6.75 14.2004C6.75 13.2862 7.48618 12.55 8.40039 12.55H15.5996C16.5138 12.55 17.25 13.2862 17.25 14.2004Z" fill="#1C252E"/>
</svg>
