<svg width="24" height="24" viewBox="0 0 24 24" fill="none" xmlns="http://www.w3.org/2000/svg">
<path d="M14.0605 3.51952C14.0604 3.15809 14.0093 2.92854 13.9569 2.80175C13.9518 2.78928 13.9439 2.7799 13.9394 2.7705C13.9297 2.77461 13.9174 2.77719 13.9052 2.78319C13.7813 2.84437 13.5911 2.98399 13.3525 3.25487L13.3534 3.25585L5.78311 11.8555C5.60134 12.0657 5.51851 12.2269 5.48722 12.3281C5.47583 12.365 5.4734 12.3898 5.47257 12.4043C5.48347 12.4129 5.50269 12.4277 5.538 12.4433C5.63398 12.4859 5.81003 12.5302 6.08975 12.5303H9.1796C9.59381 12.5303 9.9296 12.866 9.9296 13.2803V20.4795C9.9296 20.8411 9.9807 21.0714 10.0331 21.1982C10.0381 21.2102 10.0453 21.2194 10.0497 21.2285C10.0594 21.2244 10.0717 21.2228 10.0839 21.2168C10.2078 21.1557 10.3978 21.0152 10.6366 20.7441L18.2069 12.1445L18.2089 12.1426C18.3943 11.9332 18.4781 11.7722 18.5097 11.6719C18.5212 11.6352 18.5225 11.6107 18.5233 11.5967C18.512 11.5878 18.4922 11.5733 18.4569 11.5576C18.3598 11.5144 18.1821 11.4697 17.9003 11.4697H14.8105C14.3962 11.4697 14.0605 11.1339 14.0605 10.7197V3.51952ZM15.5605 9.96972H17.9003C18.6943 9.96977 19.5511 10.213 19.8964 10.9775C20.2416 11.7421 19.8557 12.5427 19.3319 13.1348L19.3329 13.1357L11.7626 21.7353C11.4466 22.094 11.1068 22.3845 10.748 22.5615C10.3859 22.7401 9.94573 22.8278 9.50968 22.6641C9.07371 22.5002 8.80076 22.1448 8.6464 21.7715C8.49349 21.4014 8.4296 20.9578 8.4296 20.4795V14.0303H6.08975C5.30136 14.0302 4.44722 13.79 4.10147 13.0273C3.7565 12.2662 4.13587 11.4643 4.65323 10.8682L4.65714 10.8642L12.2275 2.26366C12.5433 1.90515 12.8834 1.61542 13.2421 1.43847C13.604 1.25996 14.0435 1.1715 14.4794 1.33495C14.9158 1.49878 15.1892 1.85492 15.3437 2.2285C15.4965 2.59845 15.5604 3.04131 15.5605 3.51952V9.96972Z" fill="#1C252E"/>
</svg>
