<svg width="24" height="24" viewBox="0 0 24 24" fill="none" xmlns="http://www.w3.org/2000/svg">
<path d="M17.04 10.47C17.04 8.56423 15.4858 7.01005 13.5801 7.01001H6.20996C4.30304 7.01003 2.75002 8.55538 2.75 10.47V17.7903C2.75015 19.6959 4.30428 21.2502 6.20996 21.2502H13.5801C15.4869 21.2502 17.0399 19.7048 17.04 17.7903V10.47ZM18.54 17.7903C18.5399 20.5355 16.313 22.7502 13.5801 22.7502H6.20996C3.47586 22.7502 1.25015 20.5244 1.25 17.7903V10.47C1.25002 7.72463 3.47694 5.51003 6.20996 5.51001H13.5801C16.3142 5.51005 18.54 7.7358 18.54 10.47V17.7903Z" fill="#1C252E"/>
<path d="M4.75 4V2.25C4.75 1.83579 5.08579 1.5 5.5 1.5C5.91421 1.5 6.25 1.83579 6.25 2.25V4C6.25 4.41421 5.91421 4.75 5.5 4.75C5.08579 4.75 4.75 4.41421 4.75 4Z" fill="#1C252E"/>
<path d="M8.75 4V2.25C8.75 1.83579 9.08579 1.5 9.5 1.5C9.91421 1.5 10.25 1.83579 10.25 2.25V4C10.25 4.41421 9.91421 4.75 9.5 4.75C9.08579 4.75 8.75 4.41421 8.75 4Z" fill="#1C252E"/>
<path d="M12.75 4V2.25C12.75 1.83579 13.0858 1.5 13.5 1.5C13.9142 1.5 14.25 1.83579 14.25 2.25V4C14.25 4.41421 13.9142 4.75 13.5 4.75C13.0858 4.75 12.75 4.41421 12.75 4Z" fill="#1C252E"/>
<path d="M21.25 13.1599C21.25 11.5038 20.0879 10.1244 18.54 9.78198V16.5369C20.0872 16.1926 21.25 14.8082 21.25 13.1599ZM22.75 13.1599C22.75 15.8941 20.5242 18.1199 17.79 18.1199C17.3758 18.1199 17.04 17.7841 17.04 17.3699V8.94995C17.04 8.53574 17.3758 8.19995 17.79 8.19995C20.523 8.19995 22.7499 10.4146 22.75 13.1599Z" fill="#1C252E"/>
<path d="M17.5098 11.25C17.924 11.25 18.2598 11.5858 18.2598 12C18.2598 12.4142 17.924 12.75 17.5098 12.75H2C1.58579 12.75 1.25 12.4142 1.25 12C1.25 11.5858 1.58579 11.25 2 11.25H17.5098Z" fill="#1C252E"/>
</svg>
