<svg width="24" height="24" viewBox="0 0 24 24" fill="none" xmlns="http://www.w3.org/2000/svg">
<path d="M15.6526 2.77817C17.6733 2.10462 19.5015 2.23274 20.6321 3.36509C21.7618 4.49648 21.89 6.3256 21.222 8.34556V8.34751L18.3919 16.8368C17.9009 18.3124 17.3129 19.4785 16.6429 20.2899C15.9749 21.0987 15.1552 21.6327 14.22 21.6327C13.2849 21.6327 12.4651 21.0987 11.7972 20.2899C11.1272 19.4785 10.5392 18.3124 10.0482 16.8368L9.32648 14.6727L7.16241 13.952V13.951C5.68738 13.4601 4.52246 12.8729 3.71124 12.204C2.90246 11.537 2.3676 10.7189 2.36749 9.78403C2.36749 8.84935 2.90189 8.03029 3.71027 7.36216C4.52139 6.69184 5.68701 6.10275 7.16241 5.60923V5.60825L15.6526 2.77817ZM19.5706 4.42466C19.0287 3.88207 17.9165 3.60559 16.1273 4.202L7.638 7.0311C6.25844 7.49257 5.28269 8.00905 4.66632 8.51841C4.04735 9.02993 3.86749 9.46507 3.86749 9.78403C3.8676 10.1027 4.04706 10.5368 4.66534 11.0467C5.20439 11.4913 6.01881 11.9405 7.138 12.3534L7.63702 12.5282L10.1575 13.368L10.2386 13.4012C10.4232 13.4879 10.5658 13.6468 10.6312 13.8426L11.472 16.3631L11.6458 16.8612C12.0588 17.9807 12.5092 18.7957 12.9544 19.3348C13.465 19.9529 13.9003 20.1327 14.22 20.1327C14.5397 20.1327 14.9751 19.9529 15.4857 19.3348C15.9944 18.7187 16.5091 17.7424 16.9681 16.3631L19.7982 7.8729C20.3895 6.0838 20.1133 4.96811 19.5706 4.42466Z" fill="#1C252E"/>
<path d="M13.1588 9.53061C13.4512 9.23737 13.9261 9.23637 14.2194 9.52865C14.5126 9.82105 14.5135 10.2959 14.2213 10.5892L10.6413 14.179C10.3488 14.4723 9.87402 14.4733 9.58071 14.181C9.28746 13.8886 9.28643 13.4138 9.57875 13.1205L13.1588 9.53061Z" fill="#1C252E"/>
</svg>
