<svg width="24" height="24" viewBox="0 0 24 24" fill="none" xmlns="http://www.w3.org/2000/svg">
<path d="M7.04979 7.41978C9.78268 4.68689 14.2173 4.6869 16.9502 7.41978C19.6831 10.1527 19.6831 14.5873 16.9502 17.3202C14.2173 20.053 9.78268 20.053 7.04979 17.3202C4.3169 14.5873 4.3169 10.1527 7.04979 7.41978ZM15.8896 8.48033C13.7425 6.33323 10.2574 6.33323 8.11034 8.48033C5.96323 10.6274 5.96323 14.1125 8.11034 16.2596C10.2574 18.4067 13.7425 18.4067 15.8896 16.2596C18.0367 14.1125 18.0367 10.6274 15.8896 8.48033Z" fill="#1C252E"/>
<path d="M2.18651 10.3856C2.59697 10.4389 2.88678 10.815 2.83397 11.2255C2.59971 13.0388 2.89399 14.9305 3.79979 16.6601L3.98925 17.0038V17.0048C5.06236 18.8642 6.67952 20.2037 8.52831 20.9433C8.91277 21.097 9.09984 21.5334 8.94628 21.9179C8.79245 22.3024 8.35623 22.4896 7.97167 22.3358C5.82059 21.4754 3.93726 19.9152 2.69042 17.7548C1.46448 15.6359 1.05572 13.2794 1.34569 11.0341C1.39876 10.6233 1.77571 10.3326 2.18651 10.3856Z" fill="#1C252E"/>
<path d="M12.0004 1.60986C14.4431 1.60995 16.6911 2.439 18.4945 3.81299C18.824 4.06402 18.8872 4.53527 18.6361 4.86475C18.385 5.19384 17.9147 5.25727 17.5854 5.00635C16.029 3.8206 14.0973 3.10995 12.0004 3.10986C9.85422 3.10986 7.88504 3.84006 6.31191 5.0708C5.98569 5.3258 5.51434 5.26805 5.25918 4.94189C5.00406 4.61566 5.06189 4.14436 5.38809 3.88916C7.21494 2.45996 9.50663 1.60986 12.0004 1.60986Z" fill="#1C252E"/>
<path d="M21.8135 10.3856C22.2243 10.3326 22.6012 10.6233 22.6543 11.0341C22.9443 13.2796 22.5358 15.6367 21.3096 17.7558L21.3086 17.7548C20.0618 19.915 18.1793 21.4755 16.0283 22.3358C15.6438 22.4896 15.2075 22.3024 15.0537 21.9179C14.9002 21.5334 15.0872 21.097 15.4717 20.9433C17.3205 20.2037 18.9376 18.8642 20.0108 17.0048V17.0038C21.0643 15.183 21.4159 13.1597 21.166 11.2255C21.1132 10.815 21.403 10.4389 21.8135 10.3856Z" fill="#1C252E"/>
</svg>
