<svg width="24" height="24" viewBox="0 0 24 24" fill="none" xmlns="http://www.w3.org/2000/svg">
<path d="M20.88 14.75C20.88 12.8471 19.5494 11.2478 17.7579 10.8525C17.753 10.8515 17.7482 10.8498 17.7433 10.8486C17.4753 10.7837 17.1849 10.75 16.88 10.75C14.6742 10.75 12.88 12.5442 12.88 14.75C12.88 15.4044 13.041 16.026 13.3292 16.5771L13.4601 16.8086L13.464 16.8154C13.7363 17.2717 14.0965 17.6656 14.5245 17.9668L14.712 18.0908L14.7345 18.1045C15.355 18.5153 16.0913 18.75 16.88 18.75C18.346 18.75 19.6169 17.9671 20.3068 16.8145L20.3097 16.8086C20.6768 16.2078 20.88 15.5036 20.88 14.75ZM22.38 14.75C22.38 15.7737 22.1032 16.7463 21.5929 17.584L21.5939 17.585C20.6438 19.1723 18.894 20.25 16.88 20.25C15.7977 20.25 14.7829 19.9286 13.9279 19.3682V19.3691C13.9239 19.3667 13.9201 19.3638 13.9161 19.3613C13.913 19.3592 13.9095 19.3576 13.9064 19.3555V19.3545C13.1876 18.9088 12.6003 18.2951 12.1759 17.584V17.583C11.6691 16.7506 11.38 15.779 11.38 14.75C11.38 11.7158 13.8458 9.25 16.88 9.25C17.2951 9.25 17.7048 9.29559 18.0968 9.39062L18.0958 9.3916C20.5571 9.94168 22.38 12.1379 22.38 14.75Z" fill="#1C252E"/>
<path d="M18.2204 13.0292C18.5245 12.7479 18.9997 12.7671 19.281 13.0712C19.5618 13.3753 19.5429 13.8496 19.239 14.1307L16.7097 16.4706C16.414 16.7441 15.9545 16.7349 15.6697 16.4501L14.4997 15.2802C14.2069 14.9873 14.2069 14.5125 14.4997 14.2196C14.7926 13.9268 15.2674 13.9268 15.5603 14.2196L16.2195 14.8788L18.2204 13.0292Z" fill="#1C252E"/>
<path d="M11.3803 14.75C11.3803 11.7158 13.8461 9.25 16.8803 9.25C17.1572 9.25002 17.4313 9.27259 17.6996 9.31445L19.1547 8.03223C19.3288 7.85085 19.5315 7.55502 19.6899 7.20703C19.8529 6.84884 19.9398 6.50266 19.9399 6.24023V4.01953C19.9396 3.32409 19.3658 2.7502 18.6703 2.75H5.33051C4.65823 2.75 4.06 3.30042 4.06 4.12012V6.4502C4.06005 6.60439 4.12003 6.8722 4.26117 7.18555C4.36451 7.41494 4.49322 7.62708 4.62445 7.79395L4.75531 7.94531L4.7641 7.95312H4.76312L8.60394 11.9932L8.64594 12.041C8.89901 12.3574 9.13598 12.7763 9.31097 13.2109C9.48427 13.6413 9.61954 14.1455 9.61957 14.6299V19.9805C9.61992 20.9704 10.7568 21.5828 11.602 21.0635L13.0034 20.1602L13.0297 20.1436C13.1215 20.0896 13.2649 19.9429 13.3901 19.7012C13.4997 19.4895 13.554 19.2775 13.5649 19.1221C13.0005 18.7047 12.5311 18.1787 12.1762 17.584V17.583C11.6693 16.7505 11.3803 15.779 11.3803 14.75ZM21.4399 6.24023C21.4398 6.78769 21.272 7.3515 21.0551 7.82812C20.837 8.30747 20.5386 8.7649 20.2153 9.09473C20.2024 9.10781 20.189 9.12071 20.1752 9.13281L18.4155 10.6826C18.2319 10.8443 17.9813 10.9062 17.7436 10.8486C17.4757 10.7837 17.1851 10.75 16.8803 10.75C14.6745 10.75 12.8803 12.5442 12.8803 14.75C12.8803 15.4043 13.0404 16.0261 13.3286 16.5771L13.4604 16.8086L13.4643 16.8154C13.7755 17.337 14.2013 17.7776 14.7123 18.0908C14.9346 18.2272 15.0698 18.4697 15.0698 18.7305V19.0703C15.0697 19.5223 14.9271 19.9958 14.7221 20.3916C14.5241 20.7739 14.2206 21.1716 13.8159 21.4189L13.8168 21.4199L12.4067 22.3301C12.4026 22.3327 12.3981 22.3353 12.394 22.3379C10.6198 23.4346 8.11991 22.2286 8.11957 19.9805V14.6299C8.11954 14.4043 8.05101 14.0985 7.91937 13.7715C7.79265 13.4567 7.62901 13.1772 7.4848 12.9932L3.68402 8.99414C3.35876 8.66216 3.08604 8.22807 2.89398 7.80176C2.70527 7.38287 2.56004 6.89596 2.56 6.4502V4.12012C2.56 2.51982 3.78278 1.25 5.33051 1.25H18.6703C20.1942 1.2502 21.4396 2.49563 21.4399 4.01953V6.24023Z" fill="#1C252E"/>
</svg>
