<svg width="24" height="24" viewBox="0 0 24 24" fill="none" xmlns="http://www.w3.org/2000/svg">
<path d="M11.4 18.5996V16.5C11.4 16.0858 11.7358 15.75 12.15 15.75C12.5642 15.75 12.9 16.0858 12.9 16.5V18.5996C12.9 19.0138 12.5642 19.3496 12.15 19.3496C11.7358 19.3496 11.4 19.0138 11.4 18.5996Z" fill="#1C252E"/>
<path d="M16.4 21C16.4 20.3142 15.8358 19.75 15.15 19.75H9.14999C8.46421 19.75 7.89999 20.3142 7.89999 21V21.25H16.4V21ZM17.9 22.75H7.14999V22H6.39999V21C6.39999 19.4858 7.63578 18.25 9.14999 18.25H15.15C16.6642 18.25 17.9 19.4858 17.9 21V22.75Z" fill="#1C252E"/>
<path d="M18.15 21.25C18.5642 21.25 18.9 21.5858 18.9 22C18.9 22.4142 18.5642 22.75 18.15 22.75H6.14999C5.73578 22.75 5.39999 22.4142 5.39999 22C5.39999 21.5858 5.73578 21.25 6.14999 21.25H18.15Z" fill="#1C252E"/>
<path d="M18.25 6C18.25 4.20421 16.7958 2.75 15 2.75H9C7.20421 2.75 5.75 4.20421 5.75 6V9C5.75 12.4558 8.54421 15.25 12 15.25C15.4558 15.25 18.25 12.4558 18.25 9V6ZM19.75 9C19.75 13.2842 16.2842 16.75 12 16.75C7.71579 16.75 4.25 13.2842 4.25 9V6C4.25 3.37579 6.37579 1.25 9 1.25H15C17.6242 1.25 19.75 3.37579 19.75 6V9Z" fill="#1C252E"/>
<path d="M4.13962 5.8501C4.13962 5.60875 4.15757 5.36905 4.19333 5.1333C3.38076 5.28875 2.79001 5.98347 2.79001 6.8501C2.79001 8.01039 3.28003 9.03261 4.08102 9.9292C4.13181 9.97966 4.18373 10.0293 4.23727 10.0776C4.17362 9.67888 4.13962 9.26927 4.13962 8.8501V5.8501ZM5.63962 8.8501C5.63962 9.74311 5.82738 10.5829 6.15915 11.354C6.27507 11.6238 6.22264 11.9363 6.02536 12.1538C5.82782 12.3714 5.5211 12.4543 5.24118 12.3647C4.36142 12.0832 3.60145 11.5717 3.00974 10.98C3.00051 10.9707 2.99112 10.9614 2.98239 10.9517C1.99345 9.85278 1.29001 8.4816 1.29001 6.8501C1.29001 5.03588 2.7258 3.6001 4.54001 3.6001H5.1904C5.44306 3.60023 5.67881 3.72766 5.81735 3.93896C5.95585 4.15029 5.97857 4.41718 5.8779 4.64893C5.72236 5.00665 5.63962 5.414 5.63962 5.8501V8.8501Z" fill="#1C252E"/>
<path d="M18.3601 5.8501C18.3601 5.414 18.2773 5.00666 18.1218 4.64893C18.0212 4.41726 18.044 4.15024 18.1824 3.93896C18.321 3.72755 18.5575 3.6001 18.8103 3.6001H19.4597C21.2739 3.6001 22.7097 5.03588 22.7097 6.8501C22.7097 8.48168 22.0063 9.85275 21.0173 10.9517C21.0085 10.9614 20.9993 10.9707 20.99 10.98C20.3982 11.5717 19.6383 12.0832 18.7585 12.3647C18.4787 12.4542 18.1719 12.3714 17.9744 12.1538C17.7771 11.9362 17.7255 11.6238 17.8415 11.354C18.1733 10.5829 18.3601 9.74311 18.3601 8.8501V5.8501ZM19.8601 8.8501C19.8601 9.26934 19.8251 9.67882 19.7615 10.0776C19.815 10.0293 19.8669 9.97966 19.9177 9.9292C20.719 9.03246 21.2097 8.01067 21.2097 6.8501C21.2097 5.98336 20.6191 5.28864 19.8064 5.1333C19.8421 5.36907 19.8601 5.60874 19.8601 5.8501V8.8501Z" fill="#1C252E"/>
</svg>
