<svg width="24" height="24" viewBox="0 0 24 24" fill="none" xmlns="http://www.w3.org/2000/svg">
<path d="M13.5504 19.0005V14.6997C13.5504 14.1846 13.6764 13.6354 13.8844 13.145C14.0911 12.6577 14.403 12.1712 14.8199 11.8237L19.0768 8.06104C19.2478 7.88725 19.4483 7.59732 19.6051 7.25244C19.7651 6.9003 19.8501 6.55875 19.8502 6.30029V4.1001C19.8502 3.41438 19.2859 2.8502 18.6002 2.8501H5.39999C4.73808 2.8501 4.15018 3.38997 4.14999 4.19971V6.50049C4.15009 6.6573 4.20959 6.92384 4.34726 7.23096C4.44841 7.45653 4.57345 7.66347 4.70175 7.82471L4.83066 7.97021L4.84335 7.98389L8.64413 11.9839L8.68613 12.0317C8.93965 12.3487 9.17389 12.7658 9.34628 13.1968C9.51709 13.6238 9.64999 14.1221 9.64999 14.6001V19.8999C9.64999 20.8676 10.765 21.4748 11.6031 20.9624L12.9947 20.0688L13.0143 20.0571C13.1052 20.0025 13.2474 19.8555 13.3717 19.6167C13.4935 19.3825 13.5503 19.1513 13.5504 19.0005ZM21.3502 6.30029C21.3501 6.84162 21.1851 7.39991 20.9703 7.87256C20.7545 8.3473 20.4576 8.80317 20.1305 9.13037C20.1196 9.14126 20.1078 9.15142 20.0963 9.16162L15.7965 12.9624C15.7911 12.9671 15.7854 12.9715 15.7799 12.9761C15.5968 13.1286 15.4085 13.3933 15.2652 13.731C15.1235 14.0651 15.0505 14.4153 15.0504 14.6997V19.0005C15.0503 19.4496 14.9058 19.9186 14.7027 20.3091C14.5052 20.6888 14.2034 21.0833 13.8043 21.3296L13.8053 21.3306L12.4059 22.231C12.4017 22.2336 12.3973 22.2362 12.3932 22.2388C10.6316 23.3228 8.14999 22.1309 8.14999 19.8999V14.6001C8.14999 14.3782 8.08286 14.0763 7.9537 13.7534C7.83024 13.4448 7.67072 13.17 7.52792 12.9868L3.75644 9.01709V9.01611C3.4332 8.68848 3.16559 8.26244 2.97812 7.84424C2.79099 7.42676 2.65008 6.94357 2.64999 6.50049V4.19971C2.65019 2.60985 3.86214 1.3501 5.39999 1.3501H18.6002C20.1143 1.3502 21.3502 2.58595 21.3502 4.1001V6.30029Z" fill="#1C252E"/>
<path d="M10.294 1.70251C10.5133 1.35146 10.9759 1.24416 11.3272 1.46325C11.6786 1.68255 11.7857 2.14603 11.5664 2.49743L6.63673 10.3968C6.41744 10.7483 5.95395 10.8554 5.60255 10.6361C5.25149 10.4168 5.14424 9.95416 5.36329 9.6029L10.294 1.70251Z" fill="#1C252E"/>
</svg>
