<svg width="24" height="24" viewBox="0 0 24 24" fill="none" xmlns="http://www.w3.org/2000/svg">
<path d="M19.9399 6.25V4.0293C19.9396 3.33385 19.3658 2.75997 18.6703 2.75977H5.33051C4.65823 2.75977 4.06 3.31018 4.06 4.12988V6.4502C4.0601 6.61313 4.12009 6.88248 4.25824 7.19043C4.35975 7.41667 4.48622 7.62539 4.61761 7.79004L4.75043 7.93945L4.76312 7.95312L8.60394 11.9932L8.64008 12.0342C8.90278 12.3546 9.14093 12.7773 9.31488 13.2129C9.4876 13.6454 9.61957 14.1483 9.61957 14.6299V19.9795C9.61957 20.9698 10.7566 21.5822 11.602 21.0625L13.0034 20.1592C13.3513 19.9348 13.8159 20.0349 14.0405 20.3828C14.2651 20.7308 14.1648 21.1953 13.8168 21.4199L12.4067 22.3301C12.4026 22.3327 12.3981 22.3354 12.394 22.3379C10.6197 23.4345 8.11957 22.2279 8.11957 19.9795V14.6299C8.11957 14.4016 8.05199 14.0944 7.9223 13.7695C7.79669 13.455 7.63442 13.1781 7.48969 12.998L3.67621 8.98633V8.98535C3.34916 8.65389 3.07841 8.22661 2.8891 7.80469C2.69994 7.38304 2.56009 6.89719 2.56 6.4502V4.12988C2.56 2.52958 3.78278 1.25977 5.33051 1.25977H18.6703C20.1942 1.25997 21.4396 2.5054 21.4399 4.0293V6.25C21.4398 6.79744 21.2724 7.36185 21.0551 7.83789C20.8369 8.31584 20.5371 8.77279 20.2104 9.09961C19.9175 9.3925 19.4427 9.3925 19.1498 9.09961C18.8571 8.8067 18.857 8.3319 19.1498 8.03906C19.3228 7.86598 19.5283 7.56884 19.6899 7.21484C19.8525 6.85856 19.9398 6.51246 19.9399 6.25Z" fill="#1C252E"/>
<path d="M18.0037 10.5765C18.6667 10.5085 19.2768 10.8057 19.8201 11.3489C20.3667 11.8955 20.6681 12.5074 20.6023 13.1722C20.5405 13.7973 20.1677 14.2826 19.8201 14.6302L16.2801 18.1702L16.2791 18.1693C16.134 18.3187 15.9588 18.4295 15.8133 18.5023C15.6575 18.5802 15.4677 18.6509 15.2772 18.681L15.2645 18.6829V18.682L13.9148 18.8714L13.9158 18.8724C13.4741 18.9354 13.0183 18.8196 12.6893 18.4905C12.3602 18.1615 12.2444 17.7057 12.3074 17.264L12.4969 15.9154L12.4988 15.9027C12.5294 15.709 12.6019 15.5208 12.6795 15.3675C12.757 15.2142 12.8673 15.042 13.0096 14.8997L16.5496 11.3597C16.8973 11.012 17.3816 10.6404 18.0037 10.5765ZM18.157 12.0687C18.0492 12.0798 17.8725 12.1579 17.6102 12.4202L14.0701 15.9603C14.0679 15.963 14.0632 15.969 14.0564 15.9788C14.0447 15.996 14.0313 16.0188 14.0184 16.0443C14.0054 16.0699 13.995 16.0947 13.9881 16.1146C13.984 16.1263 13.9821 16.1338 13.9813 16.137L13.9803 16.1361L13.8064 17.3724L15.0438 17.1976C15.0476 17.1966 15.0567 17.1954 15.0701 17.1907C15.0915 17.1834 15.1169 17.1732 15.1424 17.1605C15.168 17.1476 15.1884 17.1347 15.202 17.1253C15.2089 17.1205 15.2117 17.1175 15.2117 17.1175L18.7596 13.5696C19.0219 13.3073 19.0995 13.1321 19.1102 13.0247C19.1169 12.957 19.1128 12.7638 18.7596 12.4105C18.4137 12.0646 18.2241 12.0619 18.157 12.0687Z" fill="#1C252E"/>
<path d="M16.3788 11.6672C16.7778 11.5564 17.1916 11.7898 17.3027 12.1887C17.5323 13.0152 18.1744 13.6573 19.0009 13.8869C19.3999 13.9978 19.6332 14.4117 19.5224 14.8108C19.4115 15.2096 18.9985 15.4429 18.5995 15.3322C17.2662 14.9619 16.2279 13.9243 15.8574 12.591C15.7465 12.1921 15.98 11.7782 16.3788 11.6672Z" fill="#1C252E"/>
</svg>
