<svg width="24" height="24" viewBox="0 0 24 24" fill="none" xmlns="http://www.w3.org/2000/svg">
<path d="M19.25 10C19.25 5.99594 16.0041 2.75 12 2.75C7.99594 2.75 4.75 5.99594 4.75 10C4.75 14.0041 7.99594 17.25 12 17.25C16.0041 17.25 19.25 14.0041 19.25 10ZM20.75 10C20.75 14.8325 16.8325 18.75 12 18.75C7.16751 18.75 3.25 14.8325 3.25 10C3.25 5.16751 7.16751 1.25 12 1.25C16.8325 1.25 20.75 5.16751 20.75 10Z" fill="#1C252E"/>
<path d="M18 21.25C18.4142 21.25 18.75 21.5858 18.75 22C18.75 22.4142 18.4142 22.75 18 22.75H6C5.58579 22.75 5.25 22.4142 5.25 22C5.25 21.5858 5.58579 21.25 6 21.25H18Z" fill="#1C252E"/>
</svg>
