<svg width="24" height="24" viewBox="0 0 24 24" fill="none" xmlns="http://www.w3.org/2000/svg">
<path d="M21.25 13V11C21.25 10.7356 21.2489 10.568 21.2324 10.4365C21.2259 10.3842 21.2162 10.3528 21.2109 10.335C21.1989 10.3296 21.1812 10.3205 21.1543 10.3125C21.0428 10.2795 20.8433 10.25 20.5 10.25C20.0858 10.25 19.75 9.91421 19.75 9.5C19.75 9.08579 20.0858 8.75 20.5 8.75C21.2562 8.75 21.9864 8.85748 22.4121 9.4248C22.6164 9.69724 22.6894 10.0005 22.7207 10.251C22.7511 10.4945 22.75 10.7645 22.75 11V13C22.75 13.2355 22.7511 13.5055 22.7207 13.749C22.6894 13.9995 22.6164 14.3028 22.4121 14.5752C21.9864 15.1425 21.2562 15.25 20.5 15.25C20.0858 15.25 19.75 14.9142 19.75 14.5C19.75 14.0858 20.0858 13.75 20.5 13.75C20.8433 13.75 21.0428 13.7205 21.1543 13.6875C21.1815 13.6794 21.1989 13.6695 21.2109 13.6641C21.2162 13.646 21.226 13.6149 21.2324 13.5635C21.2489 13.432 21.25 13.2644 21.25 13Z" fill="#1C252E"/>
<path d="M6.19641 9.27246C6.59798 9.1713 7.00623 9.41492 7.10754 9.81641C7.46784 11.2467 7.46784 12.7533 7.10754 14.1836C7.00623 14.5851 6.59798 14.8287 6.19641 14.7275C5.79493 14.6262 5.55131 14.218 5.65247 13.8164C5.95207 12.6269 5.95207 11.3731 5.65247 10.1836C5.55131 9.78203 5.79493 9.37377 6.19641 9.27246Z" fill="#1C252E"/>
<path d="M9.69641 9.27246C10.098 9.1713 10.5062 9.41492 10.6075 9.81641C10.9678 11.2467 10.9678 12.7533 10.6075 14.1836C10.5062 14.5851 10.098 14.8287 9.69641 14.7275C9.29493 14.6262 9.05131 14.218 9.15247 13.8164C9.45207 12.6269 9.45207 11.3731 9.15247 10.1836C9.05131 9.78203 9.29493 9.37377 9.69641 9.27246Z" fill="#1C252E"/>
<path d="M17.25 10C17.25 7.99464 16.9812 7.04177 16.4697 6.53027C15.9582 6.01878 15.0054 5.75 13 5.75H7C4.99464 5.75 4.04177 6.01878 3.53027 6.53027C3.01878 7.04177 2.75 7.99464 2.75 10V14C2.75 16.0054 3.01878 16.9582 3.53027 17.4697C4.04177 17.9812 4.99464 18.25 7 18.25H13C15.0054 18.25 15.9582 17.9812 16.4697 17.4697C16.9812 16.9582 17.25 16.0054 17.25 14V10ZM18.75 14C18.75 15.9946 18.5188 17.5418 17.5303 18.5303C16.5418 19.5188 14.9946 19.75 13 19.75H7C5.00536 19.75 3.45823 19.5188 2.46973 18.5303C1.48122 17.5418 1.25 15.9946 1.25 14V10C1.25 8.00536 1.48122 6.45823 2.46973 5.46973C3.45823 4.48122 5.00536 4.25 7 4.25H13C14.9946 4.25 16.5418 4.48122 17.5303 5.46973C18.5188 6.45823 18.75 8.00536 18.75 10V14Z" fill="#1C252E"/>
</svg>
