<svg width="24" height="24" viewBox="0 0 24 24" fill="none" xmlns="http://www.w3.org/2000/svg">
<path d="M12.0047 1.23511C12.462 1.23511 12.8344 1.46808 13.1014 1.75464C13.3656 2.03822 13.5718 2.41699 13.7322 2.84644L15.49 7.53198L15.5457 7.64331C15.6038 7.73488 15.6668 7.76894 15.7059 7.78101C15.757 7.79677 15.8639 7.80551 16.0184 7.69702L19.6727 5.09058L19.993 4.87573C20.3111 4.67663 20.6232 4.52723 20.9227 4.44604C21.3144 4.3399 21.81 4.32164 22.2225 4.63354C22.6337 4.94468 22.752 5.42497 22.7586 5.82983C22.7653 6.24349 22.6628 6.71281 22.4871 7.20972L22.4861 7.21265L18.4461 18.5222C18.4433 18.53 18.4403 18.538 18.4373 18.5457C18.2957 18.9042 18.0286 19.1914 17.7469 19.3855C17.4647 19.5799 17.0963 19.7302 16.7 19.7302H7.29962C6.903 19.7301 6.53223 19.5793 6.24688 19.3777C5.96135 19.1759 5.69452 18.8755 5.56231 18.4978V18.4968L1.42364 6.92261V6.92163C1.26041 6.46239 1.16303 6.02439 1.16876 5.6355C1.17438 5.25535 1.28492 4.79083 1.68536 4.48999C2.08569 4.18929 2.5628 4.21237 2.92852 4.31226C3.30238 4.41443 3.6939 4.62786 4.08673 4.90991L7.97637 7.69312C8.1383 7.80521 8.25045 7.79724 8.30352 7.78101C8.35646 7.76475 8.45094 7.70992 8.51934 7.53198L10.2772 2.84741C10.4377 2.41752 10.6446 2.03846 10.909 1.75464C11.1759 1.46823 11.5476 1.23522 12.0047 1.23511ZM12.0047 2.77905C11.9199 2.87076 11.8012 3.05479 11.6824 3.3728V3.37378L9.92266 8.06323L9.92071 8.06909C9.70911 8.62062 9.29338 9.04588 8.74395 9.2146C8.19445 9.38333 7.61075 9.26429 7.12286 8.92651L7.11407 8.91968L3.21368 6.12964H3.2127C2.99096 5.97036 2.81281 5.87119 2.6795 5.81323C2.6982 5.9584 2.74426 6.1585 2.83673 6.4187H2.83575L6.97637 17.9978L6.97833 18.0027C6.98643 18.0253 7.02426 18.0903 7.11309 18.1531C7.20198 18.2158 7.27598 18.2301 7.29962 18.2302H16.7C16.7237 18.2302 16.801 18.2158 16.8963 18.1501C16.9885 18.0866 17.0304 18.0204 17.0408 17.9968L21.074 6.70776C21.2017 6.34622 21.2473 6.08461 21.2547 5.91382C21.0937 5.96866 20.8575 6.08693 20.5477 6.30933L20.5457 6.3103L16.8856 8.92065L16.8816 8.92358C16.3965 9.26472 15.8131 9.3836 15.2645 9.2146C14.7166 9.04568 14.3011 8.62021 14.0897 8.06909L14.0877 8.06323L12.3279 3.37378L12.327 3.3728C12.2081 3.05443 12.0895 2.87065 12.0047 2.77905Z" fill="#1C252E"/>
<path d="M17.5 21.25C17.9142 21.25 18.25 21.5858 18.25 22C18.25 22.4142 17.9142 22.75 17.5 22.75H6.5C6.08579 22.75 5.75 22.4142 5.75 22C5.75 21.5858 6.08579 21.25 6.5 21.25H17.5Z" fill="#1C252E"/>
<path d="M14.5 13.25C14.9142 13.25 15.25 13.5858 15.25 14C15.25 14.4142 14.9142 14.75 14.5 14.75H9.5C9.08579 14.75 8.75 14.4142 8.75 14C8.75 13.5858 9.08579 13.25 9.5 13.25H14.5Z" fill="#1C252E"/>
</svg>
