<svg width="24" height="24" viewBox="0 0 24 24" fill="none" xmlns="http://www.w3.org/2000/svg">
<path d="M17.25 15.7495H14.1201C13.2639 15.7495 12.4293 15.5525 11.665 15.1704C11.1086 14.8922 10.5026 14.7495 9.88965 14.7495H9.88574L6.75 14.7329V18.9995C6.75 20.2353 7.76421 21.2495 9 21.2495H15C16.2358 21.2495 17.25 20.2353 17.25 18.9995V15.7495ZM18.75 18.9995C18.75 21.0637 17.0642 22.7495 15 22.7495H9C6.93579 22.7495 5.25 21.0637 5.25 18.9995V13.98C5.25 13.7806 5.32946 13.5895 5.4707 13.4487C5.61219 13.308 5.80433 13.229 6.00391 13.23L9.89355 13.2495L9.89258 13.2505C10.7387 13.2509 11.5722 13.4483 12.335 13.8296C12.8907 14.1075 13.4964 14.2495 14.1201 14.2495H18C18.4141 14.2495 18.7497 14.5855 18.75 14.9995V18.9995Z" fill="#1C252E"/>
<path d="M14.25 5.75H9.75V6.58984C9.75 7.05098 9.55931 7.50124 9.24023 7.82031L7.12012 9.94043C7.04366 10.017 6.94457 10.1648 6.86426 10.3584C6.78376 10.5525 6.75 10.7258 6.75 10.8301V13.2334L9.89355 13.25H9.89258C10.7387 13.2504 11.5723 13.4478 12.335 13.8291C12.8907 14.107 13.4964 14.25 14.1201 14.25H17.25V10.8301C17.25 10.7258 17.2162 10.5525 17.1357 10.3584C17.0554 10.1648 16.9563 10.017 16.8799 9.94043L14.7598 7.82031C14.4407 7.50124 14.25 7.05098 14.25 6.58984V5.75ZM15.75 6.58984C15.75 6.64871 15.7794 6.71884 15.8203 6.75977L17.9404 8.87988C18.1938 9.13336 18.3894 9.46561 18.5215 9.78418C18.6535 10.1025 18.75 10.4744 18.75 10.8301V15C18.75 15.4142 18.4142 15.75 18 15.75H14.1201C13.264 15.75 12.4292 15.5529 11.665 15.1709C11.1086 14.8927 10.5026 14.75 9.88965 14.75H9.88574L5.99609 14.7305C5.58357 14.7283 5.25025 14.3929 5.25 13.9805V10.8301C5.25 10.4744 5.34654 10.1025 5.47852 9.78418C5.61061 9.46561 5.80615 9.13336 6.05957 8.87988L8.17969 6.75977C8.22061 6.71884 8.25 6.64871 8.25 6.58984V5C8.25 4.58579 8.58579 4.25 9 4.25H15C15.4142 4.25 15.75 4.58579 15.75 5V6.58984Z" fill="#1C252E"/>
<path d="M17.25 16V15C17.25 14.5858 17.5858 14.25 18 14.25C18.4142 14.25 18.75 14.5858 18.75 15V16C18.75 16.4142 18.4142 16.75 18 16.75C17.5858 16.75 17.25 16.4142 17.25 16Z" fill="#1C252E"/>
<path d="M5.25 14.98V13.98C5.25 13.5658 5.58579 13.23 6 13.23C6.41421 13.23 6.75 13.5658 6.75 13.98V14.98C6.75 15.3942 6.41421 15.73 6 15.73C5.58579 15.73 5.25 15.3942 5.25 14.98Z" fill="#1C252E"/>
<path d="M15.25 3.5C15.25 3.09096 14.9125 2.75 14.5 2.75H9.5C9.08746 2.75 8.75 3.09096 8.75 3.5C8.75 3.90904 9.08746 4.25 9.5 4.25H14.5C14.9125 4.25 15.25 3.90904 15.25 3.5ZM16.75 3.5C16.75 4.73096 15.7475 5.75 14.5 5.75H9.5C8.25254 5.75 7.25 4.73096 7.25 3.5C7.25 2.26904 8.25254 1.25 9.5 1.25H14.5C15.7475 1.25 16.75 2.26904 16.75 3.5Z" fill="#1C252E"/>
</svg>
