<svg width="24" height="24" viewBox="0 0 24 24" fill="none" xmlns="http://www.w3.org/2000/svg">
<path d="M21.25 13V11C21.25 10.7356 21.2489 10.568 21.2324 10.4365C21.2259 10.3842 21.2162 10.3528 21.2109 10.335C21.1989 10.3296 21.1812 10.3205 21.1543 10.3125C21.0428 10.2795 20.8433 10.25 20.5 10.25C20.0858 10.25 19.75 9.91421 19.75 9.5C19.75 9.08579 20.0858 8.75 20.5 8.75C21.2562 8.75 21.9864 8.85748 22.4121 9.4248C22.6164 9.69724 22.6894 10.0005 22.7207 10.251C22.7511 10.4945 22.75 10.7645 22.75 11V13C22.75 13.2355 22.7511 13.5055 22.7207 13.749C22.6894 13.9995 22.6164 14.3028 22.4121 14.5752C21.9864 15.1425 21.2562 15.25 20.5 15.25C20.0858 15.25 19.75 14.9142 19.75 14.5C19.75 14.0858 20.0858 13.75 20.5 13.75C20.8433 13.75 21.0428 13.7205 21.1543 13.6875C21.1815 13.6794 21.1989 13.6695 21.2109 13.6641C21.2162 13.646 21.226 13.6149 21.2324 13.5635C21.2489 13.432 21.25 13.2644 21.25 13Z" fill="#1C252E"/>
<path d="M15.3662 2.09961C15.5874 1.74945 16.0502 1.64504 16.4004 1.86621C16.7505 2.08741 16.855 2.5502 16.6338 2.90039L4.63378 21.9004C4.41258 22.2505 3.94979 22.355 3.59961 22.1338C3.24945 21.9126 3.14504 21.4498 3.36621 21.0996L15.3662 2.09961Z" fill="#1C252E"/>
<path d="M1.25 14V10C1.25 8.00536 1.48122 6.45823 2.46973 5.46973C3.45823 4.48122 5.00536 4.25 7 4.25C7.41421 4.25 7.75 4.58579 7.75 5C7.75 5.41421 7.41421 5.75 7 5.75C4.99464 5.75 4.04177 6.01878 3.53027 6.53027C3.01878 7.04177 2.75 7.99464 2.75 10V14C2.75 15.6927 2.93966 16.6448 3.31738 17.21C3.65144 17.7096 4.23058 18.0401 5.4707 18.1748C5.88249 18.2195 6.18046 18.5892 6.13574 19.001C6.09102 19.4128 5.72039 19.7107 5.30859 19.666C3.87935 19.5107 2.76371 19.0805 2.07031 18.043C1.42054 17.0707 1.25 15.7073 1.25 14Z" fill="#1C252E"/>
<path d="M17.25 13.9999V9.99994C17.25 8.31305 17.0603 7.35936 16.6836 6.79194C16.3506 6.29081 15.7755 5.95944 14.5488 5.82514C14.1371 5.78008 13.8397 5.40975 13.8848 4.99799C13.9301 4.58648 14.3003 4.28986 14.7119 4.3349C16.1344 4.49063 17.2441 4.92436 17.9336 5.96283C18.5793 6.93537 18.75 8.297 18.75 9.99994V13.9999C18.75 15.9946 18.5187 17.5417 17.5303 18.5302C16.5418 19.5187 14.9946 19.7499 13 19.7499C12.5858 19.7499 12.25 19.4142 12.25 18.9999C12.25 18.5858 12.5858 18.2499 13 18.2499C15.0054 18.2499 15.9582 17.9812 16.4697 17.4697C16.9812 16.9582 17.25 16.0053 17.25 13.9999Z" fill="#1C252E"/>
</svg>
