<svg width="24" height="24" viewBox="0 0 24 24" fill="none" xmlns="http://www.w3.org/2000/svg">
<path d="M11.7396 9.25C15.5375 9.25 19.109 12.2862 19.7396 16.0254V16.0264C20.3564 19.7059 17.7613 22.7498 14.0404 22.75H9.25033C5.91329 22.75 3.386 20.0163 3.66244 16.6875C4.00486 12.5898 7.62899 9.25022 11.7396 9.25ZM11.7396 10.75C8.41053 10.7502 5.43514 13.4905 5.15756 16.8125C4.95424 19.2635 6.78751 21.25 9.25033 21.25H14.0404C16.7514 21.2498 18.6048 19.1704 18.2972 16.5312L18.2601 16.2744C17.7505 13.2537 14.8015 10.75 11.7396 10.75Z" fill="#1C252E"/>
<path d="M12.22 5C12.22 4.0335 11.4365 3.25 10.47 3.25C9.5035 3.25 8.72 4.0335 8.72 5C8.72 5.9665 9.5035 6.75 10.47 6.75C11.4365 6.75 12.22 5.9665 12.22 5ZM13.72 5C13.72 6.79493 12.2649 8.25 10.47 8.25C8.67508 8.25 7.22 6.79493 7.22 5C7.22 3.20507 8.67508 1.75 10.47 1.75C12.2649 1.75 13.72 3.20507 13.72 5Z" fill="#1C252E"/>
<path d="M18.55 6.69995C18.55 6.0096 17.9903 5.44995 17.3 5.44995C16.6096 5.44995 16.05 6.00959 16.05 6.69995C16.05 7.39031 16.6096 7.94995 17.3 7.94995C17.9903 7.94995 18.55 7.39031 18.55 6.69995ZM20.05 6.69995C20.05 8.21873 18.8188 9.44995 17.3 9.44995C15.7812 9.44995 14.55 8.21873 14.55 6.69995C14.55 5.18117 15.7812 3.94995 17.3 3.94995C18.8188 3.94995 20.05 5.18117 20.05 6.69995Z" fill="#1C252E"/>
<path d="M21.75 11.2C21.75 10.7857 21.4142 10.45 21 10.45C20.5858 10.45 20.25 10.7857 20.25 11.2C20.25 11.6142 20.5858 11.95 21 11.95C21.4142 11.95 21.75 11.6142 21.75 11.2ZM23.25 11.2C23.25 12.4426 22.2426 13.45 21 13.45C19.7574 13.45 18.75 12.4426 18.75 11.2C18.75 9.95731 19.7574 8.94995 21 8.94995C22.2426 8.94995 23.25 9.95731 23.25 11.2Z" fill="#1C252E"/>
<path d="M5.22 8.69995C5.22 8.00959 4.66036 7.44995 3.97 7.44995C3.27965 7.44995 2.72 8.0096 2.72 8.69995C2.72 9.39031 3.27965 9.94995 3.97 9.94995C4.66036 9.94995 5.22 9.39031 5.22 8.69995ZM6.72 8.69995C6.72 10.2187 5.48878 11.45 3.97 11.45C2.45122 11.45 1.22 10.2187 1.22 8.69995C1.22 7.18117 2.45122 5.94995 3.97 5.94995C5.48878 5.94995 6.72 7.18117 6.72 8.69995Z" fill="#1C252E"/>
</svg>
