<svg width="24" height="24" viewBox="0 0 24 24" fill="none" xmlns="http://www.w3.org/2000/svg">
<path d="M21.25 9C21.25 6.57397 20.7603 5.0708 19.8447 4.15527C18.9292 3.23974 17.426 2.75 15 2.75H9C6.57397 2.75 5.0708 3.23974 4.15527 4.15527C3.23974 5.0708 2.75 6.57397 2.75 9V15C2.75 17.426 3.23974 18.9292 4.15527 19.8447C5.0708 20.7603 6.57397 21.25 9 21.25H15C17.426 21.25 18.9292 20.7603 19.8447 19.8447C20.7603 18.9292 21.25 17.426 21.25 15V9ZM22.75 15C22.75 17.574 22.2397 19.5708 20.9053 20.9053C19.5708 22.2397 17.574 22.75 15 22.75H9C6.42603 22.75 4.4292 22.2397 3.09473 20.9053C1.76026 19.5708 1.25 17.574 1.25 15V9C1.25 6.42603 1.76026 4.4292 3.09473 3.09473C4.4292 1.76026 6.42603 1.25 9 1.25H15C17.574 1.25 19.5708 1.76026 20.9053 3.09473C22.2397 4.4292 22.75 6.42603 22.75 9V15Z" fill="#1C252E"/>
<path d="M6.46973 8.21982C7.76407 6.92548 9.86716 6.92895 11.168 8.21689C11.4623 8.50828 11.4642 8.98309 11.1729 9.27744C10.8815 9.57174 10.4067 9.57461 10.1123 9.2833C9.39312 8.57123 8.23594 8.57471 7.53028 9.28037C7.23738 9.57326 6.76262 9.57326 6.46973 9.28037C6.17684 8.98747 6.17684 8.51271 6.46973 8.21982Z" fill="#1C252E"/>
<path d="M12.8297 8.21982C14.1241 6.92548 16.2271 6.92895 17.528 8.21689C17.8222 8.50828 17.8241 8.98309 17.5328 9.27744C17.2414 9.57174 16.7666 9.57461 16.4723 9.2833C15.7531 8.57123 14.5959 8.57471 13.8903 9.28037C13.5974 9.57326 13.1226 9.57326 12.8297 9.28037C12.5368 8.98747 12.5368 8.51271 12.8297 8.21982Z" fill="#1C252E"/>
<path d="M15.75 16.8C15.75 14.7243 14.0758 13.05 12 13.05C9.92421 13.05 8.25 14.7243 8.25 16.8C8.25 16.8858 8.31461 16.9504 8.40039 16.9504H15.5996C15.6854 16.9504 15.75 16.8858 15.75 16.8ZM17.25 16.8C17.25 17.7143 16.5138 18.4504 15.5996 18.4504H8.40039C7.48618 18.4504 6.75 17.7143 6.75 16.8C6.75 13.8958 9.09579 11.55 12 11.55C14.9042 11.55 17.25 13.8958 17.25 16.8Z" fill="#1C252E"/>
</svg>
