<svg width="24" height="24" viewBox="0 0 24 24" fill="none" xmlns="http://www.w3.org/2000/svg">
<path d="M21.25 12V9C21.25 6.57397 20.7603 5.0708 19.8447 4.15527C18.9292 3.23974 17.426 2.75 15 2.75H9C6.57397 2.75 5.0708 3.23974 4.15527 4.15527C3.23974 5.0708 2.75 6.57397 2.75 9V15C2.75 17.426 3.23974 18.9292 4.15527 19.8447C5.0708 20.7603 6.57397 21.25 9 21.25H12C12.4142 21.25 12.75 21.5858 12.75 22C12.75 22.4142 12.4142 22.75 12 22.75H9C6.42603 22.75 4.4292 22.2397 3.09473 20.9053C1.76026 19.5708 1.25 17.574 1.25 15V9C1.25 6.42603 1.76026 4.4292 3.09473 3.09473C4.4292 1.76026 6.42603 1.25 9 1.25H15C17.574 1.25 19.5708 1.76026 20.9053 3.09473C22.2397 4.4292 22.75 6.42603 22.75 9V12C22.75 12.4142 22.4142 12.75 22 12.75C21.5858 12.75 21.25 12.4142 21.25 12Z" fill="#1C252E"/>
<path d="M12.3626 15.2191C11.8317 13.4788 13.4434 11.8168 15.2064 12.3744L15.2054 12.3753L21.1624 14.224H21.1654C23.2628 14.8835 23.2826 17.8515 21.1986 18.5511L21.1976 18.5502L19.5697 19.1009H19.5667C19.3349 19.1783 19.1572 19.3561 19.0833 19.5824L19.0804 19.5892L18.5306 21.2201C17.8258 23.326 14.8682 23.2689 14.2142 21.1732V21.1722L12.3636 15.223L12.3626 15.2191ZM14.7542 13.805C14.1786 13.623 13.611 14.1588 13.7962 14.7767L15.6458 20.7269L15.6966 20.8539C15.9933 21.4476 16.8865 21.4091 17.1087 20.7425L17.1097 20.7396L17.6595 19.1097C17.8871 18.42 18.4275 17.8999 19.0931 17.6781L20.7201 17.1293H20.721C21.4369 16.8889 21.4173 15.8764 20.7152 15.6556H20.7142L14.7581 13.806L14.7542 13.805Z" fill="#1C252E"/>
</svg>
