<svg width="24" height="24" viewBox="0 0 24 24" fill="none" xmlns="http://www.w3.org/2000/svg">
<path d="M21.25 12C21.25 6.89421 17.1058 2.75 12 2.75C6.89421 2.75 2.75 6.89421 2.75 12C2.75 17.1058 6.89421 21.25 12 21.25C17.1058 21.25 21.25 17.1058 21.25 12ZM22.75 12C22.75 17.9342 17.9342 22.75 12 22.75C6.06579 22.75 1.25 17.9342 1.25 12C1.25 6.06579 6.06579 1.25 12 1.25C17.9342 1.25 22.75 6.06579 22.75 12Z" fill="#1C252E"/>
<path d="M18.3697 4.46967C18.6626 4.17678 19.1374 4.17678 19.4303 4.46967C19.7232 4.76256 19.7232 5.23732 19.4303 5.53022L5.43027 19.5302C5.13738 19.8231 4.66262 19.8231 4.36972 19.5302C4.07683 19.2373 4.07683 18.7626 4.36972 18.4697L18.3697 4.46967Z" fill="#1C252E"/>
</svg>
