<svg width="24" height="24" viewBox="0 0 24 24" fill="none" xmlns="http://www.w3.org/2000/svg">
<path d="M18.9903 6.18991C18.9903 5.54412 18.4555 5.01022 17.8097 5.01022H16.1105C15.7961 5.01022 15.4633 4.93144 15.1808 4.82858C14.8984 4.72575 14.5962 4.57366 14.3595 4.37643L14.3526 4.36959L12.7726 3.01998L12.7687 3.01608C12.3759 2.67528 11.6618 2.66424 11.2364 3.01901L11.2374 3.01998L9.64757 4.37936L9.63976 4.3862C9.40521 4.58156 9.10743 4.73387 8.82628 4.83737C8.54542 4.94073 8.21463 5.01998 7.89952 5.01998H6.17003C5.52428 5.01998 4.99041 5.55394 4.99034 6.19967V7.8901C4.99029 8.19683 4.91494 8.52269 4.81456 8.80221C4.71431 9.08132 4.5644 9.3818 4.36632 9.61959L4.36143 9.62545L3.01183 11.2153C2.66946 11.6259 2.66935 12.3341 3.01183 12.7446L4.3585 14.3305L4.50206 14.521C4.63607 14.7211 4.73991 14.9458 4.81456 15.1548C4.91491 15.4357 4.99034 15.7638 4.99034 16.0698V17.7798C4.99034 18.4255 5.52424 18.9594 6.17003 18.9594H7.92003C8.23122 18.9594 8.56205 19.0396 8.8419 19.1421C9.05212 19.219 9.27415 19.3239 9.47179 19.4546L9.66026 19.5932L9.6671 19.5991V19.6001L11.2472 20.9497L11.2511 20.9536C11.6449 21.2953 12.3613 21.3045 12.7862 20.9467L14.3624 19.6001L14.3702 19.5932C14.6048 19.3979 14.9026 19.2455 15.1837 19.1421C15.4645 19.0387 15.7954 18.9594 16.1105 18.9594H17.8097C18.4555 18.9594 18.9903 18.4255 18.9903 17.7798V16.0796C18.9904 15.7644 19.0686 15.4336 19.172 15.1528C19.2755 14.8716 19.4287 14.5739 19.6241 14.3393L19.63 14.3325L20.9796 12.7524L20.9835 12.7485C21.3243 12.3557 21.3344 11.6426 20.9796 11.2173L19.63 9.63717L19.6241 9.63034C19.4287 9.39581 19.2755 9.09807 19.172 8.81686C19.0686 8.53604 18.9904 8.20522 18.9903 7.8901V6.18991ZM20.4903 7.8901C20.4904 7.97494 20.5162 8.12444 20.5802 8.29831C20.6441 8.47194 20.722 8.60401 20.7765 8.6694L22.1202 10.2426L22.1232 10.2465C22.9438 11.2202 22.9536 12.7597 22.1192 13.726L20.7755 15.2993C20.721 15.3647 20.6441 15.4977 20.5802 15.6714C20.5162 15.8453 20.4904 15.9947 20.4903 16.0796V17.7798C20.4903 19.254 19.2839 20.4594 17.8097 20.4594H16.1105C16.0257 20.4594 15.8754 20.4862 15.7013 20.5503C15.528 20.6141 15.3956 20.6911 15.3302 20.7456L13.7569 22.0903L13.753 22.0932C12.7792 22.9139 11.2388 22.9241 10.2726 22.0893L8.69249 20.7397H8.69151C8.62522 20.6871 8.49601 20.6124 8.32628 20.5503C8.14868 20.4852 7.99884 20.4594 7.92003 20.4594H6.17003C4.69582 20.4594 3.49034 19.254 3.49034 17.7798V16.0698C3.49034 15.9858 3.46457 15.8336 3.40245 15.6596C3.33952 15.4834 3.26588 15.3602 3.22179 15.309L3.21788 15.3051L1.86827 13.7153L1.86632 13.7124C1.0518 12.7434 1.0518 11.2165 1.86632 10.2475L1.86827 10.2446L3.21788 8.65475C3.26941 8.59094 3.34187 8.46395 3.40245 8.29538C3.46446 8.1227 3.49028 7.97335 3.49034 7.8901V6.19967C3.4904 4.72551 4.69585 3.51998 6.17003 3.51998H7.89952C7.98431 3.51998 8.13462 3.49423 8.3087 3.43014C8.48221 3.36625 8.61436 3.28833 8.67979 3.23385L10.2628 1.87936L10.2667 1.87643C11.2403 1.05581 12.7799 1.04611 13.7462 1.88034L13.7472 1.87936L15.3204 3.22409L15.38 3.26706C15.4524 3.31426 15.561 3.36985 15.6944 3.41842C15.8719 3.48301 16.0249 3.51022 16.1105 3.51022H17.8097C19.2839 3.51022 20.4903 4.71569 20.4903 6.18991V7.8901Z" fill="#1C252E"/>
<path d="M11.25 12.96V8.12988C11.25 7.71567 11.5858 7.37988 12 7.37988C12.4142 7.37988 12.75 7.71567 12.75 8.12988V12.96C12.75 13.3741 12.4142 13.71 12 13.71C11.5858 13.71 11.25 13.3741 11.25 12.96Z" fill="#1C252E"/>
<path d="M12.0033 15C12.5556 15 13.0033 15.4477 13.0033 16C13.0033 16.5523 12.5556 17 12.0033 17H11.9945C11.4422 17 10.9945 16.5523 10.9945 16C10.9945 15.4477 11.4422 15 11.9945 15H12.0033Z" fill="#1C252E"/>
</svg>
