<svg width="24" height="24" viewBox="0 0 24 24" fill="none" xmlns="http://www.w3.org/2000/svg">
<path d="M12.5801 16.48V13.98C12.5801 13.6317 12.6632 13.27 12.7979 12.9507C12.9283 12.6416 13.1295 12.319 13.4131 12.0776L15.8906 9.88623C15.9575 9.81504 16.0503 9.68507 16.126 9.51807C16.2069 9.33949 16.2401 9.18504 16.2402 9.09033V7.81006C16.2402 7.5843 16.0558 7.39994 15.8301 7.3999H8.16016C7.95902 7.3999 7.75012 7.559 7.75 7.86963V9.19971C7.75 9.234 7.76832 9.3468 7.83691 9.50146C7.88677 9.6138 7.94441 9.70597 7.99414 9.76807L8.04102 9.8208L8.06445 9.84424L10.2744 12.1733L10.3076 12.2114C10.4855 12.4264 10.6401 12.6995 10.751 12.9751C10.8606 13.2476 10.9502 13.5781 10.9502 13.9097V16.9897C10.9502 17.2974 11.3152 17.5216 11.6055 17.3423L12.4102 16.8354L12.4141 16.8325C12.4182 16.8289 12.4275 16.8205 12.4404 16.8052C12.463 16.7784 12.4887 16.7402 12.5127 16.6938C12.5657 16.5913 12.5801 16.5071 12.5801 16.48ZM17.7402 9.09033C17.7401 9.46552 17.6286 9.83617 17.4922 10.1372C17.355 10.4399 17.1627 10.7382 16.9404 10.9604C16.9296 10.9713 16.9177 10.9815 16.9062 10.9917L14.4062 13.2017C14.4004 13.2069 14.3947 13.2123 14.3887 13.2173C14.332 13.2642 14.249 13.3696 14.1797 13.5337C14.1119 13.6944 14.0801 13.8583 14.0801 13.98V16.48C14.0801 16.8029 13.979 17.1236 13.8447 17.3833C13.7129 17.6381 13.5037 17.9198 13.209 18.104L12.3994 18.6147L12.3945 18.6177C11.1648 19.3782 9.4502 18.5421 9.4502 16.9897V13.9097C9.45014 13.8314 9.42466 13.697 9.35938 13.5347C9.29716 13.38 9.21852 13.2514 9.15723 13.1753L6.97559 10.8765L6.97754 10.8745C6.75594 10.6529 6.58261 10.3739 6.46582 10.1108C6.34703 9.84317 6.25 9.51539 6.25 9.19971V7.86963C6.25014 6.78057 7.08144 5.8999 8.16016 5.8999H15.8301C16.8843 5.89994 17.7402 6.75587 17.7402 7.81006V9.09033Z" fill="#1C252E"/>
<path d="M21.25 9C21.25 6.57397 20.7603 5.0708 19.8447 4.15527C18.9292 3.23974 17.426 2.75 15 2.75H9C6.57397 2.75 5.0708 3.23974 4.15527 4.15527C3.23974 5.0708 2.75 6.57397 2.75 9V15C2.75 17.426 3.23974 18.9292 4.15527 19.8447C5.0708 20.7603 6.57397 21.25 9 21.25H15C17.426 21.25 18.9292 20.7603 19.8447 19.8447C20.7603 18.9292 21.25 17.426 21.25 15V9ZM22.75 15C22.75 17.574 22.2397 19.5708 20.9053 20.9053C19.5708 22.2397 17.574 22.75 15 22.75H9C6.42603 22.75 4.4292 22.2397 3.09473 20.9053C1.76026 19.5708 1.25 17.574 1.25 15V9C1.25 6.42603 1.76026 4.4292 3.09473 3.09473C4.4292 1.76026 6.42603 1.25 9 1.25H15C17.574 1.25 19.5708 1.76026 20.9053 3.09473C22.2397 4.4292 22.75 6.42603 22.75 9V15Z" fill="#1C252E"/>
</svg>
