<svg width="24" height="24" viewBox="0 0 24 24" fill="none" xmlns="http://www.w3.org/2000/svg">
<path d="M5.54103 9.36697C9.44133 6.34773 14.5587 6.34773 18.459 9.36697C18.7865 9.62053 18.8463 10.0912 18.5928 10.4187C18.3392 10.7463 17.8686 10.8061 17.541 10.5525C14.1814 7.95187 9.81864 7.95187 6.45899 10.5525C6.13146 10.8061 5.66079 10.7463 5.40724 10.4187C5.15369 10.0912 5.21351 9.62053 5.54103 9.36697Z" fill="#1C252E"/>
<path d="M7.14199 12.456C10.0819 10.1879 13.9287 10.1878 16.8686 12.456C17.1962 12.709 17.2569 13.1799 17.0043 13.5078C16.7513 13.8357 16.2795 13.8966 15.9516 13.6435C13.5515 11.792 10.458 11.7919 8.05801 13.6435C7.73006 13.8965 7.25927 13.8357 7.00625 13.5078C6.75332 13.1799 6.81408 12.709 7.14199 12.456Z" fill="#1C252E"/>
<path d="M9.34103 15.5472C10.9414 14.3079 13.0591 14.3078 14.6594 15.5472C14.9866 15.8008 15.0465 16.2715 14.7932 16.5989C14.5396 16.9264 14.0679 16.9863 13.7404 16.7327C12.6808 15.9123 11.3185 15.9122 10.259 16.7327C9.93151 16.9863 9.46086 16.9264 9.20724 16.5989C8.95369 16.2714 9.01357 15.8008 9.34103 15.5472Z" fill="#1C252E"/>
<path d="M21.25 9C21.25 6.57397 20.7603 5.0708 19.8447 4.15527C18.9292 3.23974 17.426 2.75 15 2.75H9C6.57397 2.75 5.0708 3.23974 4.15527 4.15527C3.23974 5.0708 2.75 6.57397 2.75 9V15C2.75 17.426 3.23974 18.9292 4.15527 19.8447C5.0708 20.7603 6.57397 21.25 9 21.25H15C17.426 21.25 18.9292 20.7603 19.8447 19.8447C20.7603 18.9292 21.25 17.426 21.25 15V9ZM22.75 15C22.75 17.574 22.2397 19.5708 20.9053 20.9053C19.5708 22.2397 17.574 22.75 15 22.75H9C6.42603 22.75 4.4292 22.2397 3.09473 20.9053C1.76026 19.5708 1.25 17.574 1.25 15V9C1.25 6.42603 1.76026 4.4292 3.09473 3.09473C4.4292 1.76026 6.42603 1.25 9 1.25H15C17.574 1.25 19.5708 1.76026 20.9053 3.09473C22.2397 4.4292 22.75 6.42603 22.75 9V15Z" fill="#1C252E"/>
</svg>
