<svg width="24" height="24" viewBox="0 0 24 24" fill="none" xmlns="http://www.w3.org/2000/svg">
<path d="M21.25 13V11C21.25 10.7356 21.2489 10.568 21.2324 10.4365C21.2259 10.3842 21.2162 10.3528 21.2109 10.335C21.1989 10.3296 21.1812 10.3205 21.1543 10.3125C21.0428 10.2795 20.8433 10.25 20.5 10.25C20.0858 10.25 19.75 9.91421 19.75 9.5C19.75 9.08579 20.0858 8.75 20.5 8.75C21.2562 8.75 21.9864 8.85748 22.4121 9.4248C22.6164 9.69724 22.6894 10.0005 22.7207 10.251C22.7511 10.4945 22.75 10.7645 22.75 11V13C22.75 13.2355 22.7511 13.5055 22.7207 13.749C22.6894 13.9995 22.6164 14.3028 22.4121 14.5752C21.9864 15.1425 21.2562 15.25 20.5 15.25C20.0858 15.25 19.75 14.9142 19.75 14.5C19.75 14.0858 20.0858 13.75 20.5 13.75C20.8433 13.75 21.0428 13.7205 21.1543 13.6875C21.1815 13.6794 21.1989 13.6695 21.2109 13.6641C21.2162 13.646 21.226 13.6149 21.2324 13.5635C21.2489 13.432 21.25 13.2644 21.25 13Z" fill="#1C252E"/>
<path d="M9.40213 7.54784C9.65185 7.21765 10.1216 7.15194 10.4519 7.40136C10.7823 7.65111 10.8481 8.12173 10.5984 8.45214L8.75077 10.8945C8.66859 11.0606 8.78431 11.2497 8.96952 11.25H11.2703C12.6194 11.2502 13.4539 12.7042 12.7928 13.8701C12.7691 13.9118 12.7409 13.9509 12.7098 13.9873L10.5701 16.4873C10.3007 16.802 9.82716 16.8387 9.51249 16.5693C9.19794 16.3 9.16124 15.8273 9.43046 15.5127L11.5037 13.0898C11.5649 12.9257 11.4466 12.7502 11.2703 12.75H8.96952C7.62156 12.7497 6.78097 11.293 7.46171 10.123L7.51151 10.0478L9.40213 7.54784Z" fill="#1C252E"/>
<path d="M1.25 14V10C1.25 8.00536 1.48122 6.45823 2.46973 5.46973C3.45823 4.48122 5.00536 4.25 7 4.25C7.41421 4.25 7.75 4.58579 7.75 5C7.75 5.41421 7.41421 5.75 7 5.75C4.99464 5.75 4.04177 6.01878 3.53027 6.53027C3.01878 7.04177 2.75 7.99464 2.75 10V14C2.75 16.0054 3.01878 16.9582 3.53027 17.4697C4.04177 17.9812 4.99464 18.25 7 18.25C7.41421 18.25 7.75 18.5858 7.75 19C7.75 19.4142 7.41421 19.75 7 19.75C5.00536 19.75 3.45823 19.5188 2.46973 18.5303C1.48122 17.5418 1.25 15.9946 1.25 14Z" fill="#1C252E"/>
<path d="M17.25 14V10C17.25 7.99464 16.9812 7.04177 16.4697 6.53027C15.9582 6.01878 15.0054 5.75 13 5.75C12.5858 5.75 12.25 5.41421 12.25 5C12.25 4.58579 12.5858 4.25 13 4.25C14.9946 4.25 16.5418 4.48122 17.5303 5.46973C18.5188 6.45823 18.75 8.00536 18.75 10V14C18.75 15.9946 18.5188 17.5418 17.5303 18.5303C16.5418 19.5188 14.9946 19.75 13 19.75C12.5858 19.75 12.25 19.4142 12.25 19C12.25 18.5858 12.5858 18.25 13 18.25C15.0054 18.25 15.9582 17.9812 16.4697 17.4697C16.9812 16.9582 17.25 16.0054 17.25 14Z" fill="#1C252E"/>
</svg>
