<svg width="24" height="24" viewBox="0 0 24 24" fill="none" xmlns="http://www.w3.org/2000/svg">
<path d="M19.9399 6.25V4.0293C19.9396 3.33385 19.3658 2.75997 18.6703 2.75977H5.33051C4.65823 2.75977 4.06 3.31018 4.06 4.12988V6.4502C4.0601 6.61313 4.12009 6.88248 4.25824 7.19043C4.35975 7.41667 4.48622 7.62539 4.61761 7.79004L4.75043 7.93945L4.76312 7.95312L8.60394 11.9932L8.64008 12.0342C8.90278 12.3546 9.14093 12.7773 9.31488 13.2129C9.4876 13.6454 9.61957 14.1483 9.61957 14.6299V19.9795C9.61957 20.9698 10.7566 21.5822 11.602 21.0625L13.0034 20.1592L13.02 20.1484C13.1202 20.0875 13.2667 19.9356 13.3911 19.6963C13.5134 19.4609 13.5698 19.2265 13.5698 19.0693C13.57 18.6554 13.9058 18.3195 14.3198 18.3193C14.7338 18.3193 15.0695 18.6553 15.0698 19.0693C15.0698 19.5222 14.9272 19.9941 14.7221 20.3887C14.5218 20.7739 14.217 21.1692 13.8159 21.4189L12.4067 22.3301C12.4026 22.3327 12.3981 22.3354 12.394 22.3379C10.6197 23.4345 8.11957 22.2279 8.11957 19.9795V14.6299C8.11957 14.4016 8.05199 14.0944 7.9223 13.7695C7.79669 13.455 7.63442 13.1781 7.48969 12.998L3.67621 8.98633V8.98535C3.34916 8.65389 3.07841 8.22661 2.8891 7.80469C2.69994 7.38304 2.56009 6.89719 2.56 6.4502V4.12988C2.56 2.52958 3.78278 1.25977 5.33051 1.25977H18.6703C20.1942 1.25997 21.4396 2.5054 21.4399 4.0293V6.25C21.4398 6.79744 21.2724 7.36185 21.0551 7.83789C20.8369 8.31584 20.5371 8.77279 20.2104 9.09961C19.9175 9.3925 19.4427 9.3925 19.1498 9.09961C18.8571 8.8067 18.857 8.3319 19.1498 8.03906C19.3228 7.86598 19.5283 7.56884 19.6899 7.21484C19.8525 6.85856 19.9398 6.51246 19.9399 6.25Z" fill="#1C252E"/>
<path d="M18.5204 13.3203C18.5204 11.9673 17.4232 10.8702 16.0702 10.8701C14.7171 10.8701 13.62 11.9672 13.62 13.3203C13.6201 14.6733 14.7171 15.7705 16.0702 15.7705C17.4232 15.7704 18.5203 14.6733 18.5204 13.3203ZM20.0204 13.3203C20.0203 15.5017 18.2516 17.2704 16.0702 17.2705C13.8887 17.2705 12.1201 15.5018 12.12 13.3203C12.12 11.1388 13.8887 9.37012 16.0702 9.37012C18.2516 9.37022 20.0204 11.1388 20.0204 13.3203Z" fill="#1C252E"/>
<path d="M18.3397 15.5898C18.6326 15.2969 19.1074 15.2969 19.4003 15.5898L20.4003 16.5898C20.6932 16.8827 20.6932 17.3574 20.4003 17.6503C20.1074 17.9432 19.6326 17.9432 19.3397 17.6503L18.3397 16.6503C18.0468 16.3574 18.0468 15.8827 18.3397 15.5898Z" fill="#1C252E"/>
</svg>
