<svg width="24" height="24" viewBox="0 0 24 24" fill="none" xmlns="http://www.w3.org/2000/svg">
<path d="M19.9698 7.12988C19.9697 4.71093 18.0088 2.75 15.5899 2.75C13.171 2.75007 11.2101 4.71097 11.21 7.12988C11.21 9.54885 13.1709 11.5097 15.5899 11.5098C18.0089 11.5098 19.9698 9.54889 19.9698 7.12988ZM21.4698 7.12988C21.4698 10.3773 18.8373 13.0098 15.5899 13.0098C12.3425 13.0097 9.70999 10.3773 9.70999 7.12988C9.71006 3.88255 12.3425 1.25007 15.5899 1.25C18.8373 1.25 21.4697 3.8825 21.4698 7.12988Z" fill="#1C252E"/>
<path d="M8.69016 16.3599C8.69016 15.0731 7.64686 14.0298 6.36008 14.0298C5.07326 14.0298 4.03 15.073 4.03 16.3599C4.03004 17.6467 5.07328 18.6899 6.36008 18.6899C7.64684 18.6899 8.69011 17.6466 8.69016 16.3599ZM10.1902 16.3599C10.1901 18.4751 8.47526 20.1899 6.36008 20.1899C4.24485 20.1899 2.53004 18.4751 2.53 16.3599C2.53 14.2446 4.24482 12.5298 6.36008 12.5298C8.47528 12.5298 10.1902 14.2446 10.1902 16.3599Z" fill="#1C252E"/>
<path d="M18.4301 19.4395C18.4299 18.44 17.6191 17.6299 16.6196 17.6299C15.6203 17.6301 14.8102 18.4402 14.81 19.4395C14.81 20.4389 15.6201 21.2498 16.6196 21.25C17.6192 21.25 18.4301 20.4391 18.4301 19.4395ZM19.9301 19.4395C19.9301 21.2675 18.4476 22.75 16.6196 22.75C14.7917 22.7498 13.31 21.2674 13.31 19.4395C13.3102 17.6117 14.7918 16.1301 16.6196 16.1299C18.4475 16.1299 19.9299 17.6116 19.9301 19.4395Z" fill="#1C252E"/>
</svg>
