<svg width="24" height="24" viewBox="0 0 24 24" fill="none" xmlns="http://www.w3.org/2000/svg">
<path d="M4.452 11.2464C9.02199 7.71804 14.9885 7.71796 19.5584 11.2464C19.8862 11.4996 19.9463 11.9703 19.6932 12.2982C19.4401 12.6259 18.9693 12.687 18.6415 12.4339C14.6115 9.32237 9.39801 9.32237 5.36802 12.4339C5.04017 12.6867 4.5693 12.6259 4.31626 12.2982C4.06323 11.9703 4.12418 11.4995 4.452 11.2464Z" fill="#1C252E"/>
<path d="M1.542 7.76616C7.87183 2.87808 16.1282 2.87808 22.458 7.76616C22.7859 8.01934 22.8469 8.49106 22.5938 8.81889C22.3406 9.14654 21.8698 9.20661 21.542 8.95366C15.752 4.4822 8.24798 4.4822 2.45802 8.95366C2.13024 9.20661 1.65941 9.14654 1.40626 8.81889C1.15308 8.49106 1.21417 8.01934 1.542 7.76616Z" fill="#1C252E"/>
<path d="M6.33101 14.8972C9.75137 12.2478 14.2388 12.2478 17.6591 14.8972C17.9865 15.1508 18.0464 15.6215 17.7929 15.949C17.5393 16.2763 17.0686 16.3362 16.7412 16.0827C13.8615 13.8522 10.1286 13.8522 7.24897 16.0827C6.92152 16.3363 6.45083 16.2764 6.19722 15.949C5.94362 15.6215 6.00356 15.1508 6.33101 14.8972Z" fill="#1C252E"/>
<path d="M8.94199 18.5565C10.7919 17.1283 13.2181 17.1283 15.068 18.5565C15.3957 18.8096 15.4566 19.2804 15.2037 19.6083C14.9506 19.936 14.4798 19.9969 14.1519 19.744C12.842 18.7325 11.168 18.7325 9.858 19.744C9.53016 19.9969 9.05932 19.936 8.80625 19.6083C8.55333 19.2804 8.61422 18.8096 8.94199 18.5565Z" fill="#1C252E"/>
</svg>
