<svg width="24" height="24" viewBox="0 0 24 24" fill="none" xmlns="http://www.w3.org/2000/svg">
<path d="M2.22733 14.2543C2.62285 14.1313 3.04278 14.3519 3.16581 14.7474C4.15556 17.9295 6.82116 20.3803 10.1297 21.0551C10.5355 21.1378 10.7974 21.534 10.7146 21.9398C10.6319 22.3457 10.2357 22.6075 9.82987 22.5248C5.97862 21.7394 2.88437 18.8906 1.73417 15.1928C1.61114 14.7972 1.83181 14.3773 2.22733 14.2543Z" fill="#1C252E"/>
<path d="M12.0002 1.25C17.5689 1.2501 22.148 5.48533 22.6965 10.9043C22.7382 11.3164 22.4377 11.6848 22.0256 11.7266C21.6135 11.7683 21.2451 11.4677 21.2033 11.0557C20.7317 6.39484 16.7912 2.7501 12.0002 2.75C7.20849 2.75 3.26773 6.38549 2.79609 11.0557C2.75432 11.4676 2.38673 11.7681 1.9748 11.7266C1.56268 11.6849 1.26228 11.3164 1.3039 10.9043C1.85242 5.47464 6.43201 1.25 12.0002 1.25Z" fill="#1C252E"/>
<path d="M20.8254 14.7927C20.951 14.3983 21.3723 14.1802 21.7668 14.3053C22.1616 14.4308 22.3806 14.853 22.2551 15.2477C21.0837 18.9337 17.9993 21.7498 14.1604 22.5348C13.7547 22.6178 13.3588 22.3564 13.2756 21.9509C13.1927 21.5451 13.4538 21.1481 13.8596 21.0651C17.1605 20.3901 19.8168 17.9665 20.8254 14.7927Z" fill="#1C252E"/>
</svg>
