<svg width="24" height="24" viewBox="0 0 24 24" fill="none" xmlns="http://www.w3.org/2000/svg">
<path d="M17.6181 1.37272C19.2834 0.956375 20.7995 1.22602 21.787 2.21354C22.7744 3.20106 23.0442 4.71722 22.6278 6.38248L20.1376 16.3219C19.9168 17.2052 19.3703 18.0501 18.705 18.7155C18.0397 19.3808 17.1946 19.9273 16.3114 20.1481L6.38175 22.6276C4.71259 23.0435 3.19565 22.7751 2.20889 21.7868C1.2224 20.7986 0.955962 19.2819 1.37198 17.6178H1.37296L3.86221 7.68815C4.08274 6.80116 4.62567 5.95594 5.29093 5.29069C5.87316 4.7085 6.59311 4.22026 7.35831 3.95963L7.68936 3.86198L17.6171 1.37272H17.6181ZM15.9482 18.6921C16.5048 18.5528 17.1199 18.1795 17.6444 17.6549C18.169 17.1304 18.5433 16.5153 18.6825 15.9587V15.9577L21.1728 6.01823L21.2274 5.77311C21.4698 4.57156 21.1943 3.74284 20.7255 3.27408C20.2568 2.80557 19.4285 2.52997 18.2274 2.77213L17.9823 2.8278L8.05264 5.31803H8.05069C7.48814 5.4577 6.8734 5.83028 6.35147 6.35221C5.82984 6.87393 5.45801 7.48813 5.31827 8.05045L5.31729 8.0524L2.82706 17.9811C2.49315 19.3168 2.77212 20.2268 3.27042 20.7262C3.76864 21.2253 4.67778 21.5065 6.01846 21.1725L15.9482 18.6921Z" fill="#1C252E"/>
<path d="M14.75 12C14.75 10.4812 13.5188 9.25 12 9.25C10.4812 9.25 9.25 10.4812 9.25 12C9.25 13.5188 10.4812 14.75 12 14.75C13.5188 14.75 14.75 13.5188 14.75 12ZM16.25 12C16.25 14.3472 14.3472 16.25 12 16.25C9.65279 16.25 7.75 14.3472 7.75 12C7.75 9.65279 9.65279 7.75 12 7.75C14.3472 7.75 16.25 9.65279 16.25 12Z" fill="#1C252E"/>
</svg>
