<svg width="24" height="24" viewBox="0 0 24 24" fill="none" xmlns="http://www.w3.org/2000/svg">
<path d="M21.17 12C21.17 6.91421 17.0058 2.75 11.92 2.75C6.83423 2.75 2.67001 6.91421 2.67001 12C2.67001 17.0858 6.83423 21.25 11.92 21.25C17.0058 21.25 21.17 17.0858 21.17 12ZM22.67 12C22.67 17.9142 17.8342 22.75 11.92 22.75C6.0058 22.75 1.17001 17.9142 1.17001 12C1.17001 6.08579 6.0058 1.25 11.92 1.25C17.8342 1.25 22.67 6.08579 22.67 12Z" fill="#1C252E"/>
<path d="M15.92 11.25C16.3342 11.25 16.67 11.5858 16.67 12C16.67 12.4142 16.3342 12.75 15.92 12.75H7.92001C7.5058 12.75 7.17001 12.4142 7.17001 12C7.17001 11.5858 7.5058 11.25 7.92001 11.25H15.92Z" fill="#1C252E"/>
</svg>
