<svg width="24" height="24" viewBox="0 0 24 24" fill="none" xmlns="http://www.w3.org/2000/svg">
<path d="M16.3438 5.74222C16.5801 5.40221 17.0476 5.31766 17.3877 5.55374C19.5602 7.06362 21.0609 9.46614 21.3653 12.2383C21.4104 12.6499 21.1137 13.0201 20.7022 13.0655C20.2904 13.1107 19.9193 12.8131 19.8741 12.4014C19.6184 10.0739 18.3595 8.05623 16.5323 6.78617C16.1922 6.54986 16.1077 6.08233 16.3438 5.74222Z" fill="#1C252E"/>
<path d="M6.657 5.60779C6.99521 5.36865 7.46278 5.44927 7.70192 5.78748C7.94099 6.12563 7.86126 6.59323 7.52321 6.8324C5.71394 8.11168 4.47329 10.1295 4.2361 12.4467C4.19384 12.8585 3.82574 13.1586 3.41384 13.1166C3.00178 13.0744 2.70173 12.7054 2.74391 12.2933C3.02682 9.53063 4.50639 7.12844 6.657 5.60779Z" fill="#1C252E"/>
<path d="M7.52104 20.6002C7.70877 20.2311 8.16069 20.0836 8.52983 20.2711C9.5855 20.808 10.7894 21.11 12.0601 21.11C13.2862 21.11 14.4338 20.8357 15.4615 20.3356C15.8339 20.1543 16.2831 20.3098 16.4644 20.6822C16.6453 21.0544 16.4907 21.5028 16.1187 21.6842C14.8865 22.2839 13.5138 22.61 12.0601 22.61C10.5509 22.61 9.1144 22.252 7.85014 21.609C7.48105 21.4213 7.3335 20.9693 7.52104 20.6002Z" fill="#1C252E"/>
<path d="M14.0896 4.92017C14.0896 3.79912 13.1813 2.89004 12.0603 2.88989C10.9391 2.88989 10.03 3.79903 10.03 4.92017C10.0301 6.04118 10.9392 6.94946 12.0603 6.94946C13.1812 6.94932 14.0894 6.04109 14.0896 4.92017ZM15.5896 4.92017C15.5894 6.86951 14.0096 8.44932 12.0603 8.44946C10.1108 8.44946 8.53015 6.86961 8.53 4.92017C8.53 2.9706 10.1107 1.38989 12.0603 1.38989C14.0097 1.39004 15.5896 2.97069 15.5896 4.92017Z" fill="#1C252E"/>
<path d="M6.85956 17.1404C6.85956 16.0193 5.95127 15.1103 4.83026 15.1101C3.70912 15.1101 2.79999 16.0192 2.79999 17.1404C2.80014 18.2614 3.70921 19.1697 4.83026 19.1697C5.95118 19.1695 6.85941 18.2613 6.85956 17.1404ZM8.35956 17.1404C8.35941 19.0897 6.77961 20.6695 4.83026 20.6697C2.88079 20.6697 1.30014 19.0898 1.29999 17.1404C1.29999 15.1908 2.8807 13.6101 4.83026 13.6101C6.7797 13.6103 8.35956 15.1909 8.35956 17.1404Z" fill="#1C252E"/>
<path d="M21.1996 17.1404C21.1996 16.0193 20.2913 15.1103 19.1703 15.1101C18.0491 15.1101 17.14 16.0192 17.14 17.1404C17.1402 18.2614 18.0492 19.1697 19.1703 19.1697C20.2912 19.1695 21.1994 18.2613 21.1996 17.1404ZM22.6996 17.1404C22.6994 19.0897 21.1196 20.6695 19.1703 20.6697C17.2208 20.6697 15.6402 19.0898 15.64 17.1404C15.64 15.1908 17.2207 13.6101 19.1703 13.6101C21.1197 13.6103 22.6996 15.1909 22.6996 17.1404Z" fill="#1C252E"/>
</svg>
