<svg width="24" height="24" viewBox="0 0 24 24" fill="none" xmlns="http://www.w3.org/2000/svg">
<path d="M15.66 2.3501C16.1585 2.3501 16.6659 2.51699 17.0887 2.75146C17.5114 2.98598 17.9231 3.32873 18.1873 3.75439H18.1863L22.366 10.4321L22.369 10.437C22.662 10.9132 22.7743 11.4858 22.7518 12.0171C22.7292 12.5482 22.5681 13.1115 22.2283 13.562L22.2274 13.561L17.0496 20.4604L17.0486 20.4624C16.7756 20.824 16.3797 21.1128 15.9852 21.3101C15.5909 21.5071 15.1225 21.6499 14.6697 21.6499H4.21955C1.87571 21.6496 0.467348 19.0799 1.6922 17.0962L1.69416 17.0923L4.46466 12.6616C4.55832 12.5122 4.62775 12.2708 4.62775 11.9897C4.62769 11.709 4.55822 11.4682 4.46466 11.3188L4.46369 11.3179L1.69416 6.88818C0.458615 4.914 1.89614 2.35039 4.21955 2.3501H15.66ZM4.21955 3.8501C3.06343 3.85039 2.36132 5.12669 2.96564 6.09229L5.73517 10.522L5.83185 10.6909C6.03904 11.0949 6.1277 11.5577 6.12775 11.9897C6.12775 12.4832 6.01087 13.0162 5.73517 13.4565L5.73615 13.4575L2.96759 17.8833C2.35259 18.8793 3.06386 20.1496 4.21955 20.1499H14.6697C14.8268 20.1499 15.0637 20.0935 15.3143 19.9683C15.5647 19.8431 15.7545 19.6865 15.8514 19.5581L21.0301 12.6597L21.0311 12.6587C21.1512 12.4993 21.2402 12.2473 21.2527 11.9536C21.2652 11.66 21.1985 11.3969 21.0916 11.2231H21.0906L16.9139 4.54834L16.9129 4.54541C16.8171 4.39113 16.6233 4.20844 16.3611 4.06299C16.099 3.9176 15.8413 3.8501 15.66 3.8501H4.21955Z" fill="#1C252E"/>
</svg>
