<svg width="24" height="24" viewBox="0 0 24 24" fill="none" xmlns="http://www.w3.org/2000/svg">
<path d="M5.70001 22V2C5.70001 1.58579 6.0358 1.25 6.45001 1.25C6.86423 1.25 7.20001 1.58579 7.20001 2V22C7.20001 22.4142 6.86423 22.75 6.45001 22.75C6.0358 22.75 5.70001 22.4142 5.70001 22Z" fill="#1C252E"/>
<path d="M6.26154 3.7021C6.42594 3.32208 6.86773 3.14722 7.24786 3.31148L15.3475 6.81148H15.3465C17.0802 7.54789 18.2629 8.6793 18.2996 10.1054C18.336 11.5224 17.2246 12.7246 15.5936 13.5664L15.5818 13.5722L7.28204 17.6728C6.91072 17.856 6.46057 17.7033 6.27716 17.332C6.09392 16.9607 6.2467 16.5105 6.61798 16.3271L14.907 12.2324C16.3747 11.4745 16.8141 10.6774 16.8006 10.1445C16.7872 9.62178 16.3208 8.85396 14.7567 8.19039L14.7527 8.18843L6.65216 4.68843C6.27214 4.52403 6.09728 4.08224 6.26154 3.7021Z" fill="#1C252E"/>
</svg>
