<svg width="24" height="24" viewBox="0 0 24 24" fill="none" xmlns="http://www.w3.org/2000/svg">
<path d="M18.25 6C18.25 5.07019 17.9343 4.26187 17.3936 3.69141C16.8584 3.12706 16.0603 2.75 15 2.75H9C7.9397 2.75 7.1416 3.12706 6.60645 3.69141C6.06566 4.26187 5.75 5.07019 5.75 6V18C5.75 18.9298 6.06566 19.7381 6.60645 20.3086C7.1416 20.8729 7.9397 21.25 9 21.25H15C16.0603 21.25 16.8584 20.8729 17.3936 20.3086C17.9343 19.7381 18.25 18.9298 18.25 18V6ZM19.75 18C19.75 19.27 19.3155 20.4613 18.4814 21.3408C17.6416 22.2265 16.4397 22.75 15 22.75H9C7.56031 22.75 6.3584 22.2265 5.51855 21.3408C4.68452 20.4613 4.25 19.27 4.25 18V6C4.25 4.72998 4.68452 3.5387 5.51855 2.65918C6.3584 1.77353 7.5603 1.25 9 1.25H15C16.4397 1.25 17.6416 1.77353 18.4814 2.65918C19.3155 3.5387 19.75 4.72998 19.75 6V18Z" fill="#1C252E"/>
<path d="M19 15.2598C19.4142 15.2598 19.75 15.5956 19.75 16.0098C19.75 16.424 19.4142 16.7598 19 16.7598H5C4.58579 16.7598 4.25 16.424 4.25 16.0098C4.25 15.5956 4.58579 15.2598 5 15.2598H19Z" fill="#1C252E"/>
<path d="M1.25 20V4C1.25 3.58579 1.58579 3.25 2 3.25C2.41421 3.25 2.75 3.58579 2.75 4V20C2.75 20.4142 2.41421 20.75 2 20.75C1.58579 20.75 1.25 20.4142 1.25 20Z" fill="#1C252E"/>
<path d="M21.25 20V4C21.25 3.58579 21.5858 3.25 22 3.25C22.4142 3.25 22.75 3.58579 22.75 4V20C22.75 20.4142 22.4142 20.75 22 20.75C21.5858 20.75 21.25 20.4142 21.25 20Z" fill="#1C252E"/>
</svg>
