<svg width="24" height="24" viewBox="0 0 24 24" fill="none" xmlns="http://www.w3.org/2000/svg">
<path d="M11.25 13V7.75C11.25 7.33579 11.5858 7 12 7C12.4142 7 12.75 7.33579 12.75 7.75V13C12.75 13.4142 12.4142 13.75 12 13.75C11.5858 13.75 11.25 13.4142 11.25 13Z" fill="#1C252E"/>
<path d="M20.3299 8.58009C20.3299 7.7202 19.8741 6.93452 19.1297 6.49709V6.49611L13.1981 3.07131L13.0555 2.99611C12.3337 2.64433 11.4855 2.67054 10.7947 3.06935L4.85919 6.49611C4.11613 6.93291 3.65997 7.72901 3.65997 8.58009V15.4199C3.65997 16.2835 4.11868 17.0757 4.85529 17.501L10.7918 20.9287C11.5424 21.3577 12.4584 21.356 13.1951 20.9307L19.1346 17.501C19.8752 17.0637 20.3299 16.2695 20.3299 15.4199V8.58009ZM21.8299 15.4199C21.8299 16.8086 21.087 18.0936 19.8904 18.7969L19.8846 18.7998L13.9451 22.2295C12.7419 22.9242 11.2571 22.9225 10.0477 22.2315L10.0447 22.2295L4.10529 18.7998C2.90189 18.1051 2.15997 16.8164 2.15997 15.4199V8.58009C2.15997 7.19131 2.90366 5.90638 4.1004 5.20314L4.10529 5.20021L10.0447 1.77052C11.1729 1.11922 12.5486 1.08017 13.7127 1.64748L13.9422 1.76857L13.9451 1.77052L19.8846 5.20021L19.8904 5.20314C21.0859 5.90574 21.8299 7.18008 21.8299 8.58009V15.4199Z" fill="#1C252E"/>
<path d="M11 16.2996V16.2C11 15.6477 11.4477 15.2 12 15.2C12.5523 15.2 13 15.6477 13 16.2V16.2996C13 16.8518 12.5523 17.2996 12 17.2996C11.4477 17.2996 11 16.8518 11 16.2996Z" fill="#1C252E"/>
</svg>
