<svg width="24" height="24" viewBox="0 0 24 24" fill="none" xmlns="http://www.w3.org/2000/svg">
<path d="M16.2896 1.3999C17.272 1.3999 18.0501 1.64808 18.6587 2.10205C19.1824 2.49267 19.5307 2.99826 19.7828 3.50635L19.8843 3.72412L19.8853 3.7251L22.4429 9.48096C22.7515 10.1638 22.8078 10.9641 22.69 11.6958C22.5721 12.4276 22.2683 13.1687 21.7662 13.7231L21.7652 13.7241L14.9156 21.2739C13.3268 23.0228 10.6934 23.0194 9.09721 21.2759L9.09526 21.2749L2.2349 13.7349V13.7339C1.73078 13.1826 1.42691 12.4405 1.30815 11.7104C1.1892 10.9791 1.24287 10.1785 1.54447 9.49658V9.49561L4.10502 3.73486C4.36334 3.15131 4.7324 2.55288 5.33061 2.10498C5.93968 1.64901 6.71748 1.39994 7.69975 1.3999H16.2896ZM7.69975 2.8999C6.98228 2.89994 6.53489 3.07621 6.22905 3.30518C5.91307 3.5418 5.67769 3.88757 5.47612 4.34326L5.47514 4.34424L2.91557 10.105L2.91459 10.104C2.7566 10.462 2.70522 10.9562 2.78862 11.4692C2.86175 11.9189 3.02883 12.3212 3.24662 12.6079L3.3433 12.7231L3.34428 12.7251L10.2027 20.2632C11.2065 21.3597 12.814 21.3563 13.8052 20.2651L20.6539 12.7163C20.9215 12.4209 21.1274 11.967 21.2095 11.4565C21.2916 10.9461 21.238 10.4562 21.0767 10.0991L21.0747 10.0942L18.5142 4.33447V4.3335C18.313 3.88354 18.0773 3.54087 17.7613 3.30518C17.4549 3.07666 17.0071 2.8999 16.2896 2.8999H7.69975Z" fill="#1C252E"/>
<path d="M20.5 7.25C20.9142 7.25 21.25 7.58579 21.25 8C21.25 8.41421 20.9142 8.75 20.5 8.75H3.5C3.08579 8.75 2.75 8.41421 2.75 8C2.75 7.58579 3.08579 7.25 3.5 7.25H20.5Z" fill="#1C252E"/>
</svg>
