<svg width="24" height="24" viewBox="0 0 24 24" fill="none" xmlns="http://www.w3.org/2000/svg">
<path d="M15.089 9.05081C15.3815 8.75772 15.8563 8.75658 16.1495 9.04886C16.4427 9.34143 16.443 9.81621 16.1505 10.1094L11.3204 14.9502C11.1797 15.0911 10.9883 15.1701 10.7892 15.17C10.5901 15.1697 10.3994 15.0903 10.2589 14.9493L7.84875 12.5293C7.55649 12.2359 7.55729 11.7611 7.8507 11.4688C8.14415 11.1766 8.61895 11.1774 8.91125 11.4707L10.7902 13.3575L15.089 9.05081Z" fill="#1C252E"/>
<path d="M3.50011 17.8103V16.1003C3.50011 16.0224 3.47471 15.876 3.41026 15.7019C3.34783 15.5332 3.27227 15.4029 3.21788 15.3356L1.86827 13.7458L1.86632 13.7429C1.0518 12.7739 1.0518 11.246 1.86632 10.2771L1.86827 10.2741L3.21788 8.68428C3.27226 8.61698 3.34785 8.48668 3.41026 8.31807C3.47468 8.14396 3.50011 7.99755 3.50011 7.91963V6.1999C3.50017 4.72581 4.70571 3.52032 6.17979 3.52022H7.91026C7.98879 3.52016 8.13744 3.49448 8.31261 3.4294C8.44393 3.38059 8.54971 3.3244 8.62022 3.27705L8.68272 3.23018L10.2628 1.87959C11.2354 1.04823 12.7759 1.0532 13.753 1.87666L13.7589 1.88154L15.339 3.2419L15.3409 3.24287C15.4039 3.29749 15.5333 3.37593 15.7052 3.44014C15.8769 3.50427 16.026 3.52998 16.1105 3.52998H17.8097C19.2838 3.52998 20.4902 4.73562 20.4903 6.20967V7.90987C20.4903 7.98826 20.5151 8.13702 20.5802 8.31221C20.6452 8.48712 20.7235 8.61714 20.7765 8.67842L20.7784 8.68037L22.1388 10.2605L22.1398 10.2624C22.9714 11.235 22.9673 12.7764 22.1437 13.7536L22.1388 13.7595L20.7784 15.3396L20.7765 15.3415C20.7219 15.4046 20.6443 15.5333 20.5802 15.7048C20.516 15.8766 20.4903 16.0256 20.4903 16.1101V17.8103C20.4902 19.2844 19.2838 20.4899 17.8097 20.4899H16.1105C16.032 20.4899 15.8825 20.5156 15.7071 20.5808C15.5321 20.6459 15.402 20.7241 15.3409 20.7771L15.339 20.778L13.7589 22.1384L13.7569 22.1403C12.7843 22.9717 11.2438 22.9668 10.2667 22.1433L10.2608 22.1384L8.68077 20.778L8.67882 20.7771C8.6158 20.7224 8.48642 20.644 8.31456 20.5798C8.14313 20.5158 7.9947 20.49 7.91026 20.4899H6.17979C4.70575 20.4898 3.50023 19.2843 3.50011 17.8103ZM5.00011 7.91963C5.00011 8.23167 4.9205 8.56127 4.81749 8.83955C4.71412 9.11874 4.56155 9.41578 4.36632 9.6501L4.36143 9.65498L3.01183 11.2458C2.66971 11.6562 2.66974 12.3636 3.01183 12.7741L4.36143 14.3649L4.36632 14.3698C4.56163 14.6042 4.71411 14.9021 4.81749 15.1813C4.92041 15.4595 5.00011 15.7884 5.00011 16.1003V17.8103C5.00024 18.4559 5.53417 18.9898 6.17979 18.9899H7.91026C8.22565 18.99 8.55689 19.0688 8.83995 19.1745C9.12205 19.2799 9.42173 19.437 9.65831 19.6413L11.2335 20.9968L11.3155 21.0593C11.7444 21.3513 12.4004 21.3263 12.7823 20.9997L14.3605 19.6413C14.599 19.4352 14.9033 19.2791 15.1847 19.1745C15.4668 19.0697 15.7989 18.9899 16.1105 18.9899H17.8097C18.4554 18.9899 18.9902 18.4559 18.9903 17.8103V16.1101C18.9903 15.7946 19.0692 15.4635 19.1749 15.1804C19.2807 14.8972 19.4383 14.5961 19.6437 14.3591L21.0011 12.781C21.3524 12.3578 21.3471 11.6437 21.0011 11.238V11.239L19.6417 9.65889V9.65791C19.4358 9.41944 19.2794 9.11587 19.1749 8.83467C19.0701 8.55257 18.9903 8.22136 18.9903 7.90987V6.20967C18.9901 5.56404 18.4553 5.02998 17.8097 5.02998H16.1105C15.7949 5.02998 15.463 4.95122 15.1798 4.84541C14.8972 4.73983 14.5972 4.58242 14.3605 4.37764L12.7862 3.02315C12.3899 2.68945 11.7336 2.67271 11.3175 2.95869L11.2374 3.02022L9.66026 4.36592C9.42142 4.57289 9.11725 4.73079 8.83507 4.83565C8.55302 4.94045 8.22173 5.02017 7.91026 5.02022H6.17979C5.53413 5.02032 5.00017 5.55424 5.00011 6.1999V7.91963Z" fill="#1C252E"/>
</svg>
