<svg width="24" height="24" viewBox="0 0 24 24" fill="none" xmlns="http://www.w3.org/2000/svg">
<path d="M21.25 9C21.25 6.57397 20.7603 5.0708 19.8447 4.15527C18.9292 3.23974 17.426 2.75 15 2.75H9C6.57397 2.75 5.0708 3.23974 4.15527 4.15527C3.23974 5.0708 2.75 6.57397 2.75 9V15C2.75 17.426 3.23974 18.9292 4.15527 19.8447C5.0708 20.7603 6.57397 21.25 9 21.25H15C17.426 21.25 18.9292 20.7603 19.8447 19.8447C20.7603 18.9292 21.25 17.426 21.25 15V9ZM22.75 15C22.75 17.574 22.2397 19.5708 20.9053 20.9053C19.5708 22.2397 17.574 22.75 15 22.75H9C6.42603 22.75 4.4292 22.2397 3.09473 20.9053C1.76026 19.5708 1.25 17.574 1.25 15V9C1.25 6.42603 1.76026 4.4292 3.09473 3.09473C4.4292 1.76026 6.42603 1.25 9 1.25H15C17.574 1.25 19.5708 1.76026 20.9053 3.09473C22.2397 4.4292 22.75 6.42603 22.75 9V15Z" fill="#1C252E"/>
<path d="M10.1123 7.71674C10.4067 7.42542 10.8815 7.42829 11.1729 7.7226C11.4642 8.01695 11.4623 8.49175 11.168 8.78315C9.86716 10.0711 7.76407 10.0746 6.46973 8.78022C6.17684 8.48732 6.17684 8.01256 6.46973 7.71967C6.76262 7.42678 7.23738 7.42678 7.53028 7.71967C8.23594 8.42533 9.39312 8.4288 10.1123 7.71674Z" fill="#1C252E"/>
<path d="M16.4723 7.71674C16.7666 7.42542 17.2414 7.42829 17.5328 7.7226C17.8241 8.01695 17.8222 8.49175 17.528 8.78315C16.2271 10.0711 14.1241 10.0746 12.8297 8.78022C12.5368 8.48732 12.5368 8.01256 12.8297 7.71967C13.1226 7.42678 13.5974 7.42678 13.8903 7.71967C14.5959 8.42533 15.7531 8.4288 16.4723 7.71674Z" fill="#1C252E"/>
<path d="M15.75 13.9004C15.75 13.8146 15.6854 13.75 15.5996 13.75H8.40039C8.3146 13.75 8.25 13.8146 8.25 13.9004C8.25021 15.976 9.92434 17.6504 12 17.6504C14.0757 17.6504 15.7498 15.976 15.75 13.9004ZM17.25 13.9004C17.2498 16.8044 14.9041 19.1504 12 19.1504C9.09592 19.1504 6.75021 16.8044 6.75 13.9004C6.75 12.9862 7.48618 12.25 8.40039 12.25H15.5996C16.5138 12.25 17.25 12.9862 17.25 13.9004Z" fill="#1C252E"/>
</svg>
