<svg width="24" height="24" viewBox="0 0 24 24" fill="none" xmlns="http://www.w3.org/2000/svg">
<path d="M21.22 12C21.22 6.89137 17.0786 2.75 11.97 2.75C6.86137 2.75 2.72 6.89137 2.72 12C2.72 17.1086 6.86137 21.25 11.97 21.25C17.0786 21.25 21.22 17.1086 21.22 12ZM22.72 12C22.72 17.9371 17.9071 22.75 11.97 22.75C6.03294 22.75 1.22 17.9371 1.22 12C1.22 6.06294 6.03294 1.25 11.97 1.25C17.9071 1.25 22.72 6.06294 22.72 12Z" fill="#1C252E"/>
<path d="M16.1758 15.5694C16.4137 15.2305 16.8818 15.1481 17.2207 15.3859C17.5596 15.6237 17.642 16.0918 17.4043 16.4308C16.211 18.1307 14.2365 19.2501 12 19.2501C9.76556 19.2501 7.77882 18.132 6.5938 16.4278C6.35776 16.0878 6.44237 15.6203 6.78227 15.3839C7.1223 15.1479 7.58986 15.2325 7.82622 15.5724C8.74124 16.8879 10.2748 17.7501 12 17.7501C13.7234 17.7501 15.2491 16.8893 16.1758 15.5694Z" fill="#1C252E"/>
</svg>
