<svg width="24" height="24" viewBox="0 0 24 24" fill="none" xmlns="http://www.w3.org/2000/svg">
<path d="M19.43 9C19.43 8.24216 19.2877 7.70427 19.0023 7.35938C18.7407 7.04331 18.2403 6.75 17.18 6.75C16.1197 6.75 15.6193 7.04331 15.3577 7.35938C15.0723 7.70427 14.93 8.24216 14.93 9V15C14.93 15.7578 15.0723 16.2957 15.3577 16.6406C15.6193 16.9567 16.1197 17.25 17.18 17.25C18.2403 17.25 18.7407 16.9567 19.0023 16.6406C19.2877 16.2957 19.43 15.7578 19.43 15V9ZM20.93 15C20.93 15.8922 20.7721 16.8541 20.1575 17.5967C19.5191 18.3681 18.5197 18.75 17.18 18.75C15.8403 18.75 14.8409 18.3681 14.2025 17.5967C13.5879 16.8541 13.43 15.8922 13.43 15V9C13.43 8.10785 13.5879 7.14592 14.2025 6.40332C14.8409 5.63188 15.8403 5.25 17.18 5.25C18.5197 5.25 19.5191 5.63188 20.1575 6.40332C20.7721 7.14592 20.93 8.10785 20.93 9V15Z" fill="#1C252E"/>
<path d="M9.07001 9C9.07001 8.24216 8.9277 7.70427 8.64227 7.35938C8.3807 7.04331 7.88029 6.75 6.82001 6.75C5.75972 6.75 5.25931 7.04331 4.99774 7.35938C4.71231 7.70427 4.57001 8.24216 4.57001 9V15C4.57001 15.7578 4.71231 16.2957 4.99774 16.6406C5.25931 16.9567 5.75972 17.25 6.82001 17.25C7.88029 17.25 8.3807 16.9567 8.64227 16.6406C8.9277 16.2957 9.07001 15.7578 9.07001 15V9ZM10.57 15C10.57 15.8922 10.4121 16.8541 9.79755 17.5967C9.15911 18.3681 8.15972 18.75 6.82001 18.75C5.48029 18.75 4.4809 18.3681 3.84247 17.5967C3.22791 16.8541 3.07001 15.8922 3.07001 15V9C3.07001 8.10785 3.22791 7.14592 3.84247 6.40332C4.4809 5.63188 5.48029 5.25 6.82001 5.25C8.15972 5.25 9.15911 5.63188 9.79755 6.40332C10.4121 7.14592 10.57 8.10785 10.57 9V15Z" fill="#1C252E"/>
<path d="M14.1804 11.25C14.5944 11.2502 14.9304 11.5859 14.9304 12C14.9304 12.4141 14.5944 12.7498 14.1804 12.75H9.82001C9.40579 12.75 9.07001 12.4142 9.07001 12C9.07001 11.5858 9.40579 11.25 9.82001 11.25H14.1804Z" fill="#1C252E"/>
<path d="M21.75 14.5V9.5C21.75 9.08579 22.0858 8.75 22.5 8.75C22.9142 8.75 23.25 9.08579 23.25 9.5V14.5C23.25 14.9142 22.9142 15.25 22.5 15.25C22.0858 15.25 21.75 14.9142 21.75 14.5Z" fill="#1C252E"/>
<path d="M0.75 14.5V9.5C0.75 9.08579 1.08579 8.75 1.5 8.75C1.91421 8.75 2.25 9.08579 2.25 9.5V14.5C2.25 14.9142 1.91421 15.25 1.5 15.25C1.08579 15.25 0.75 14.9142 0.75 14.5Z" fill="#1C252E"/>
</svg>
