<svg width="24" height="24" viewBox="0 0 24 24" fill="none" xmlns="http://www.w3.org/2000/svg">
<path d="M20.88 14.75C20.88 12.5442 19.0858 10.75 16.88 10.75C14.6742 10.75 12.88 12.5442 12.88 14.75C12.88 15.5002 13.0908 16.2133 13.4572 16.8047L13.464 16.8145C14.1544 17.9679 15.4249 18.75 16.88 18.75C18.3376 18.75 19.6062 17.9757 20.295 16.8164L20.2999 16.8086C20.6701 16.2028 20.88 15.4978 20.88 14.75ZM22.38 14.75C22.38 15.7787 22.0907 16.7497 21.5841 17.582L21.5851 17.583C20.634 19.1837 18.8824 20.25 16.88 20.25C14.8751 20.25 13.1265 19.1715 12.1769 17.585V17.584C11.6675 16.7576 11.38 15.7753 11.38 14.75C11.38 11.7158 13.8458 9.25 16.88 9.25C19.9142 9.25 22.38 11.7158 22.38 14.75Z" fill="#1C252E"/>
<path d="M18.6598 13.98C19.074 13.98 19.4098 14.3158 19.4098 14.73C19.4098 15.1442 19.074 15.48 18.6598 15.48H15.11C14.6958 15.48 14.36 15.1442 14.36 14.73C14.36 14.3158 14.6958 13.98 15.11 13.98H18.6598Z" fill="#1C252E"/>
<path d="M16.13 16.5498V13C16.13 12.5858 16.4658 12.25 16.88 12.25C17.2942 12.25 17.63 12.5858 17.63 13V16.5498C17.63 16.964 17.2942 17.2998 16.88 17.2998C16.4658 17.2998 16.13 16.964 16.13 16.5498Z" fill="#1C252E"/>
<path d="M11.3803 14.75C11.3803 11.7158 13.8461 9.25 16.8803 9.25C17.1572 9.25002 17.4313 9.27259 17.6996 9.31445L19.1547 8.03223C19.3288 7.85086 19.5315 7.55502 19.6899 7.20703C19.8529 6.84884 19.9398 6.50266 19.9399 6.24023V4.02051C19.9399 3.32483 19.366 2.7502 18.6703 2.75H5.32953C4.65746 2.75026 4.06 3.3006 4.06 4.12012V6.4502C4.06005 6.60438 4.12002 6.8722 4.26117 7.18555C4.36452 7.41494 4.49321 7.62708 4.62445 7.79395L4.75531 7.94531L4.7641 7.95312L8.60394 11.9932L8.64594 12.041C8.89901 12.3574 9.13598 12.7763 9.31097 13.2109C9.48427 13.6413 9.61954 14.1455 9.61957 14.6299V19.9805C9.61994 20.9704 10.7568 21.5828 11.602 21.0635L13.0034 20.1602L13.0297 20.1436C13.1215 20.0896 13.2649 19.9429 13.3901 19.7012C13.4997 19.4895 13.554 19.2775 13.5649 19.1221C13.0005 18.7047 12.5312 18.1788 12.1762 17.584V17.583C11.6693 16.7505 11.3803 15.779 11.3803 14.75ZM21.4399 6.24023C21.4398 6.78769 21.272 7.3515 21.0551 7.82812C20.837 8.30747 20.5386 8.7649 20.2153 9.09473C20.2024 9.10781 20.189 9.12071 20.1752 9.13281L18.4155 10.6826C18.2319 10.8443 17.9813 10.9062 17.7436 10.8486C17.4757 10.7837 17.1851 10.75 16.8803 10.75C14.6745 10.75 12.8803 12.5442 12.8803 14.75C12.8803 15.4043 13.0404 16.0261 13.3286 16.5771L13.4604 16.8086L13.4643 16.8154C13.7755 17.337 14.2013 17.7776 14.7123 18.0908C14.9345 18.2272 15.0698 18.4697 15.0698 18.7305V19.0703C15.0697 19.5221 14.927 19.9949 14.7221 20.3906C14.5241 20.773 14.2207 21.1715 13.8159 21.4189L13.8168 21.4199L12.4067 22.3301C12.4026 22.3327 12.3981 22.3353 12.394 22.3379C10.6198 23.4346 8.11993 22.2286 8.11957 19.9805V14.6299C8.11954 14.4043 8.05101 14.0985 7.91937 13.7715C7.79265 13.4567 7.62901 13.1772 7.4848 12.9932L3.68402 8.99414C3.35876 8.66217 3.08605 8.22807 2.89398 7.80176C2.70527 7.38288 2.56004 6.89597 2.56 6.4502V4.12012C2.56 2.51999 3.78201 1.25026 5.32953 1.25H18.6703C20.1944 1.25019 21.4399 2.49642 21.4399 4.02051V6.24023Z" fill="#1C252E"/>
</svg>
