<svg width="24" height="24" viewBox="0 0 24 24" fill="none" xmlns="http://www.w3.org/2000/svg">
<path d="M9.60128 2.23444C10.9369 1.16378 13.0573 1.16594 14.4001 2.24518H14.3991L21.3278 7.78425L21.3308 7.7862C21.8442 8.19977 22.229 8.80554 22.4646 9.42292C22.7001 10.0405 22.8169 10.7488 22.7107 11.4005L22.7097 11.4034L21.3796 19.3633V19.3663C21.0783 21.1352 19.397 22.5595 17.6003 22.5596H6.40011C4.59402 22.5596 2.92195 21.1457 2.62081 19.3653L2.61983 19.3633L1.28976 11.4034L1.29073 11.4024C1.17884 10.7495 1.29237 10.0407 1.52804 9.42292C1.76422 8.80386 2.15234 8.19765 2.67159 7.78425L9.60128 2.23444ZM13.4597 3.41413C12.6626 2.77386 11.323 2.77649 10.5388 3.40534L3.60909 8.95514L3.60714 8.9571C3.3473 9.16364 3.09547 9.52191 2.92941 9.9571C2.78413 10.3379 2.72693 10.7176 2.75265 11.0245L2.76925 11.1514L2.77023 11.1563H2.76925L4.09933 19.1153L4.14327 19.3116C4.40994 20.2817 5.39353 21.0596 6.40011 21.0596H17.6003C18.6625 21.0595 19.7202 20.166 19.9001 19.1163L21.2302 11.1563C21.283 10.8285 21.2295 10.3931 21.0632 9.9571C20.8967 9.52084 20.6469 9.16278 20.3913 8.95612L13.4616 3.41608L13.4597 3.41413Z" fill="#1C252E"/>
<path d="M12.0001 12.7227C12.9555 12.7227 13.8788 13.1138 14.6378 13.8369C14.9375 14.1226 14.9488 14.5976 14.6632 14.8975C14.3775 15.1974 13.9026 15.2086 13.6027 14.9229C13.0918 14.4362 12.5296 14.2227 12.0001 14.2227C11.4707 14.2227 10.9085 14.4362 10.3976 14.9229C10.0977 15.2086 9.62276 15.1974 9.33703 14.8975C9.05132 14.5976 9.06254 14.1226 9.36243 13.8369C10.1215 13.1137 11.0447 12.7227 12.0001 12.7227Z" fill="#1C252E"/>
<path d="M9.18849 10.343C10.8788 9.54011 12.7575 9.48866 14.4649 10.1926L14.8037 10.3439L14.8067 10.3449C15.4971 10.679 16.1652 11.1354 16.7656 11.7248C17.0612 12.0149 17.0653 12.4897 16.7754 12.7853C16.4854 13.0808 16.0105 13.0859 15.7149 12.7961C15.2361 12.3262 14.7048 11.9623 14.1563 11.6965C12.7731 11.0355 11.2316 11.0332 9.83595 11.6945L9.83693 11.6955C9.29138 11.9595 8.76588 12.3227 8.27052 12.8C7.97225 13.0874 7.49739 13.0787 7.20997 12.7805C6.92271 12.4822 6.93129 12.0073 7.22951 11.7199C7.83402 11.1374 8.48931 10.6809 9.18361 10.3449L9.18849 10.343Z" fill="#1C252E"/>
<path d="M12.0049 16C12.557 16.0002 13.0049 16.4478 13.0049 17C13.0049 17.5522 12.557 17.9998 12.0049 18H11.9951C11.443 17.9998 10.9951 17.5522 10.9951 17C10.9951 16.4478 11.443 16.0002 11.9951 16H12.0049Z" fill="#1C252E"/>
</svg>
