<svg width="24" height="24" viewBox="0 0 24 24" fill="none" xmlns="http://www.w3.org/2000/svg">
<path d="M22.2502 15.3695C22.25 15.3359 22.233 15.2584 22.173 15.1683C22.1138 15.0795 22.05 15.0349 22.0207 15.0218L20.2365 14.2943L20.2355 14.2933L19.2384 13.8851C18.7888 13.7081 18.2905 13.708 17.841 13.8851L15.0714 15.0209L15.006 15.0648C14.9784 15.0888 14.9465 15.1228 14.9162 15.1683C14.8562 15.2583 14.8401 15.3359 14.84 15.3695V17.5599C14.84 18.5585 15.185 19.5409 15.798 20.3666L15.924 20.5296L15.9298 20.5365C16.5629 21.3429 17.4629 21.9653 18.4738 22.2425C18.51 22.2512 18.5652 22.2524 18.6232 22.2396C20.7176 21.648 22.2502 19.6433 22.2502 17.5599V15.3695ZM23.7502 17.5599C23.7502 20.3487 21.7337 22.9359 19.0002 23.6927C18.9908 23.6953 18.9813 23.6973 18.9718 23.6996C18.6926 23.7653 18.3913 23.7682 18.1086 23.6976C18.1038 23.6964 18.0986 23.695 18.0939 23.6937C16.75 23.3293 15.5745 22.5134 14.7502 21.4632V21.4623C13.8655 20.3614 13.34 18.9914 13.34 17.5599V15.3695C13.3401 14.9831 13.4785 14.6208 13.6681 14.3363C13.8576 14.052 14.138 13.787 14.4894 13.639L14.4953 13.6361L17.2755 12.4955L17.2834 12.4925L17.4357 12.4359C18.1515 12.1906 18.9279 12.1907 19.6437 12.4359L19.797 12.4925L19.8048 12.4955L20.8048 12.9056L20.8039 12.9066L22.5929 13.6351L22.6007 13.639C22.9522 13.787 23.2325 14.052 23.422 14.3363C23.6116 14.6208 23.7501 14.9831 23.7502 15.3695V17.5599Z" fill="#1C252E"/>
<path d="M13.3396 15.3699C13.3396 14.9834 13.479 14.6213 13.6687 14.3367C13.8582 14.0524 14.1376 13.7864 14.489 13.6385L14.4958 13.6365L17.2751 12.4959L17.2829 12.493C18.0401 12.1925 18.8772 12.1734 19.6443 12.4363L19.7966 12.493L19.8044 12.4959L19.9333 12.5486L20.2097 10.8875L20.2107 10.8826C20.2622 10.583 20.2143 10.1768 20.0574 9.76444C19.9004 9.3522 19.6654 9.01458 19.4284 8.82304V8.82206L12.8523 3.57597L12.8474 3.57206C12.1127 2.97566 10.8652 2.97545 10.1296 3.56522L10.1286 3.5662L3.54856 8.82597L3.54759 8.82694C3.3087 9.01749 3.07401 9.35177 2.91868 9.76249C2.78269 10.1221 2.73074 10.4795 2.75462 10.7654L2.76927 10.8826L2.77024 10.8865L4.03001 18.4363H4.02903C4.19867 19.4253 5.17702 20.2498 6.1804 20.2498H13.9773C13.5688 19.4194 13.3396 18.5034 13.3396 17.5603V15.3699ZM14.8396 17.5603C14.8396 18.6252 15.2323 19.6715 15.9236 20.5291C16.1048 20.7539 16.141 21.0635 16.0163 21.324C15.8916 21.5844 15.6283 21.7498 15.3396 21.7498H6.1804C4.44452 21.7498 2.84194 20.3963 2.55052 18.6863V18.6834L1.28978 11.1336L1.29075 11.1326C1.184 10.5058 1.29221 9.82498 1.51634 9.23222C1.7409 8.63838 2.11133 8.05349 2.61204 7.65409L9.19212 2.39433C10.475 1.36646 12.5027 1.3648 13.7878 2.40409L20.3679 7.65409L20.3718 7.65702C20.8646 8.05545 21.2342 8.63865 21.4597 9.23124C21.6845 9.82201 21.796 10.503 21.6892 11.1316L21.6902 11.1326L21.2595 13.7225C21.2221 13.9475 21.0846 14.1435 20.8855 14.2547C20.6861 14.3658 20.4463 14.3803 20.2351 14.2937L19.2429 13.8865C18.7907 13.7073 18.2888 13.7081 17.8367 13.8875L17.8357 13.8865L15.071 15.0213L15.0056 15.0652C14.9781 15.0892 14.947 15.1234 14.9167 15.1687C14.8566 15.259 14.8396 15.3364 14.8396 15.3699V17.5603Z" fill="#1C252E"/>
</svg>
