<svg width="24" height="24" viewBox="0 0 24 24" fill="none" xmlns="http://www.w3.org/2000/svg">
<path d="M21.25 5.71043C21.25 5.48266 21.2201 5.33253 21.1904 5.24363C21.1069 5.28546 20.9806 5.37045 20.8203 5.53074L18.2305 8.12058L18.2295 8.11961C17.5507 8.80846 16.4365 8.79715 15.7598 8.12058L12.1631 4.52391C12.0812 4.44001 11.9212 4.42982 11.8203 4.53074L8.24609 8.11277L8.24707 8.11375C7.56891 8.80949 6.44849 8.79948 5.76953 8.12058L3.17969 5.53074C3.01889 5.36995 2.89208 5.28532 2.80859 5.24363C2.77897 5.33257 2.75 5.48291 2.75 5.71043V15.2895C2.75 17.6348 4.6545 19.5418 7.00293 19.5503H17C18.3295 19.5503 19.3793 19.1103 20.0947 18.395C20.8101 17.6796 21.2499 16.6297 21.25 15.3003V5.71043ZM22.75 15.3003C22.7499 16.9706 22.1898 18.421 21.1553 19.4555C20.1207 20.49 18.6704 21.0503 17 21.0503H6.99707C3.8256 21.0387 1.25 18.4642 1.25 15.2895V5.71043C1.25 4.99126 1.45063 4.12841 2.21484 3.81101C2.97967 3.49339 3.73181 3.96089 4.24023 4.46922L6.83008 7.06004C6.931 7.16089 7.09098 7.15074 7.17285 7.06687L7.17871 7.06004L10.7588 3.47019L10.7598 3.46922C11.4365 2.79278 12.5507 2.78147 13.2295 3.47019L16.8203 7.06004C16.9213 7.16082 17.0813 7.15082 17.1631 7.06687L19.7598 4.46922C20.2682 3.96089 21.0203 3.4934 21.7852 3.81101C22.5494 4.12841 22.75 4.99126 22.75 5.71043V15.3003Z" fill="#1C252E"/>
</svg>
