<svg width="24" height="24" viewBox="0 0 24 24" fill="none" xmlns="http://www.w3.org/2000/svg">
<path d="M3.75 19.0002V10.22C3.75 9.80576 4.08579 9.46997 4.5 9.46997C4.91421 9.46997 5.25 9.80576 5.25 10.22V19.0002C5.25003 19.9868 5.38636 20.4811 5.62695 20.7561C5.84589 21.0063 6.31469 21.2502 7.5 21.2502H16.5C17.6853 21.2502 18.1541 21.0063 18.373 20.7561C18.6136 20.4811 18.75 19.9868 18.75 19.0002V10.22C18.75 9.80576 19.0858 9.46997 19.5 9.46997C19.9142 9.46997 20.25 9.80576 20.25 10.22V19.0002C20.25 20.0133 20.1361 21.0185 19.502 21.7434C18.8459 22.4932 17.8147 22.7502 16.5 22.7502H7.5C6.18533 22.7502 5.15411 22.4932 4.49805 21.7434C3.86392 21.0185 3.75002 20.0133 3.75 19.0002Z" fill="#1C252E"/>
<path d="M21.25 5C21.25 4.11561 21.0295 3.59001 20.7197 3.28027C20.41 2.97053 19.8844 2.75 19 2.75H5C4.11561 2.75 3.59001 2.97053 3.28027 3.28027C2.97053 3.59001 2.75 4.11561 2.75 5V7C2.75 7.88439 2.97053 8.40999 3.28027 8.71973C3.59001 9.02947 4.11561 9.25 5 9.25H19C19.8844 9.25 20.41 9.02947 20.7197 8.71973C21.0295 8.40999 21.25 7.88439 21.25 7V5ZM22.75 7C22.75 8.11561 22.4705 9.09001 21.7803 9.78027C21.09 10.4705 20.1156 10.75 19 10.75H5C3.88439 10.75 2.90999 10.4705 2.21973 9.78027C1.52947 9.09001 1.25 8.11561 1.25 7V5C1.25 3.88439 1.52947 2.90999 2.21973 2.21973C2.90999 1.52947 3.88439 1.25 5 1.25H19C20.1156 1.25 21.09 1.52947 21.7803 2.21973C22.4705 2.90999 22.75 3.88439 22.75 5V7Z" fill="#1C252E"/>
<path d="M13.8196 13.25C14.2339 13.25 14.5696 13.5858 14.5696 14C14.5696 14.4142 14.2339 14.75 13.8196 14.75H10.18C9.76578 14.75 9.42999 14.4142 9.42999 14C9.42999 13.5858 9.76578 13.25 10.18 13.25H13.8196Z" fill="#1C252E"/>
</svg>
