<svg width="24" height="24" viewBox="0 0 24 24" fill="none" xmlns="http://www.w3.org/2000/svg">
<path d="M21.25 12C21.25 6.91421 17.0858 2.75 12 2.75C6.91421 2.75 2.75 6.91421 2.75 12C2.75 17.0858 6.91421 21.25 12 21.25C17.0858 21.25 21.25 17.0858 21.25 12ZM22.75 12C22.75 17.9142 17.9142 22.75 12 22.75C6.08579 22.75 1.25 17.9142 1.25 12C1.25 6.08579 6.08579 1.25 12 1.25C17.9142 1.25 22.75 6.08579 22.75 12Z" fill="#1C252E"/>
<path d="M15.7197 8.63873C16.0129 8.34611 16.4886 8.34656 16.7812 8.6397C17.0738 8.93286 17.0734 9.4086 16.7803 9.70123L11.1094 15.3604C10.8164 15.6528 10.3425 15.653 10.0498 15.3604L7.21971 12.5303C6.92683 12.2374 6.92686 11.7627 7.21971 11.4698C7.5126 11.1769 7.98737 11.1769 8.28026 11.4698L10.5791 13.7686L15.7197 8.63873Z" fill="#1C252E"/>
</svg>
