<svg width="24" height="24" viewBox="0 0 24 24" fill="none" xmlns="http://www.w3.org/2000/svg">
<path d="M4.39999 22V2C4.39999 1.58579 4.73578 1.25 5.14999 1.25C5.56421 1.25 5.89999 1.58579 5.89999 2V22C5.89999 22.4142 5.56421 22.75 5.14999 22.75C4.73578 22.75 4.39999 22.4142 4.39999 22Z" fill="#1C252E"/>
<path d="M16.3502 3.25C17.0859 3.25002 17.7372 3.35088 18.2652 3.57227C18.7988 3.79601 19.2488 4.16386 19.4693 4.7041C19.6894 5.24327 19.6263 5.82055 19.4059 6.35352C19.1872 6.88193 18.7978 7.41279 18.2799 7.93066L17.0807 9.12988C16.5855 9.62499 16.6021 10.3542 16.9664 10.7588L17.0435 10.8359L17.0807 10.8701L18.2799 12.0693C19.2673 13.0568 19.886 14.2367 19.4273 15.3076C18.9732 16.3674 17.7036 16.75 16.3502 16.75H5.14999C4.73578 16.75 4.39999 16.4142 4.39999 16C4.39999 15.5858 4.73578 15.25 5.14999 15.25H16.3502C17.5966 15.25 17.9776 14.882 18.0484 14.7168C18.1143 14.5625 18.1311 14.0416 17.2193 13.1299L16.0299 11.9404C14.8948 10.919 14.9566 9.13289 16.0201 8.06934L17.2193 6.87012C17.6515 6.43799 17.9003 6.06749 18.0191 5.78027C18.136 5.49775 18.1105 5.34367 18.0807 5.27051C18.0511 5.19827 17.9634 5.07274 17.6852 4.95605C17.4008 4.83684 16.9643 4.75002 16.3502 4.75H5.14999C4.73578 4.75 4.39999 4.41421 4.39999 4C4.39999 3.58579 4.73578 3.25 5.14999 3.25H16.3502Z" fill="#1C252E"/>
</svg>
