<svg width="24" height="24" viewBox="0 0 24 24" fill="none" xmlns="http://www.w3.org/2000/svg">
<path d="M22 21.25C22.4142 21.25 22.75 21.5858 22.75 22C22.75 22.4142 22.4142 22.75 22 22.75H2C1.58579 22.75 1.25 22.4142 1.25 22C1.25 21.5858 1.58579 21.25 2 21.25H22Z" fill="#1C252E"/>
<path d="M20.1295 22V13C20.1295 11.8264 19.0519 10.7502 17.5504 10.75H6.44006C4.93833 10.75 3.85999 11.8263 3.85999 13V22C3.85999 22.4142 3.5242 22.75 3.10999 22.75C2.69577 22.75 2.35999 22.4142 2.35999 22V13C2.35999 10.8537 4.26179 9.25 6.44006 9.25H17.5504C19.7285 9.25021 21.6295 10.8539 21.6295 13V22C21.6295 22.4142 21.2937 22.75 20.8795 22.75C20.4655 22.7497 20.1295 22.4141 20.1295 22Z" fill="#1C252E"/>
<path d="M17.6899 10V7.16992C17.6898 6.45675 17.022 5.75 16.0297 5.75H7.97992C6.97558 5.75004 6.31005 6.45867 6.31 7.16992V10C6.31 10.4142 5.97421 10.75 5.56 10.75C5.14578 10.75 4.81 10.4142 4.81 10V7.16992C4.81004 5.48129 6.3044 4.25004 7.97992 4.25H16.0297C17.6974 4.25 19.1898 5.48316 19.1899 7.16992V10C19.1899 10.4142 18.8541 10.75 18.4399 10.75C18.0257 10.7499 17.6899 10.4142 17.6899 10Z" fill="#1C252E"/>
<path d="M15.28 15.6704V15.3599C15.2799 15.0279 15.0096 14.7605 14.6804 14.7603C14.3483 14.7603 14.0799 15.0305 14.0798 15.3599V15.6704C14.0796 16.838 13.1306 17.7699 11.9802 17.7701C10.8125 17.7701 9.87984 16.8208 9.87961 15.6704V15.3599C9.87955 15.0278 9.60937 14.7603 9.28 14.7603C8.94787 14.7603 8.68046 15.0305 8.68039 15.3599V15.6704C8.68016 16.8381 7.73026 17.7701 6.57981 17.7701C5.41222 17.7699 4.48043 16.8208 4.4802 15.6704V15.3404C4.4802 15.0094 4.21851 14.7445 3.89035 14.7398H3.87961L3.5095 14.73C3.09555 14.7187 2.76881 14.3735 2.78 13.9595C2.79132 13.5456 3.13653 13.2188 3.55051 13.23L3.90891 13.2408L3.90989 13.2398C5.06151 13.2553 5.9802 14.1915 5.9802 15.3404V15.6704C5.98043 15.9996 6.24787 16.2699 6.57981 16.2701C6.90907 16.2701 7.18016 16.0024 7.18039 15.6704V15.3599C7.18046 14.2094 8.11222 13.2603 9.28 13.2603C10.4306 13.2603 11.3795 14.1921 11.3796 15.3599V15.6704C11.3798 15.9997 11.6482 16.2701 11.9802 16.2701C12.3094 16.2699 12.5796 16.0024 12.5798 15.6704V15.3599C12.5799 14.2094 13.5126 13.2603 14.6804 13.2603C15.8308 13.2605 16.7799 14.1923 16.78 15.3599V15.6704C16.7802 15.9995 17.0478 16.2698 17.3796 16.2701C17.7089 16.2701 17.98 16.0024 17.9802 15.6704V15.3599C17.9803 14.2094 18.9121 13.2604 20.0798 13.2603H20.53C20.9442 13.2603 21.28 13.5961 21.28 14.0103C21.2799 14.4244 20.9441 14.7603 20.53 14.7603H20.0798C19.7478 14.7604 19.4803 15.0306 19.4802 15.3599V15.6704C19.48 16.8381 18.5301 17.7701 17.3796 17.7701C16.2121 17.7698 15.2802 16.8207 15.28 15.6704Z" fill="#1C252E"/>
<path d="M7.25 5V3C7.25 2.58579 7.58579 2.25 8 2.25C8.41421 2.25 8.75 2.58579 8.75 3V5C8.75 5.41421 8.41421 5.75 8 5.75C7.58579 5.75 7.25 5.41421 7.25 5Z" fill="#1C252E"/>
<path d="M15.25 5V3C15.25 2.58579 15.5858 2.25 16 2.25C16.4142 2.25 16.75 2.58579 16.75 3V5C16.75 5.41421 16.4142 5.75 16 5.75C15.5858 5.75 15.25 5.41421 15.25 5Z" fill="#1C252E"/>
<path d="M11.25 5V2C11.25 1.58579 11.5858 1.25 12 1.25C12.4142 1.25 12.75 1.58579 12.75 2V5C12.75 5.41421 12.4142 5.75 12 5.75C11.5858 5.75 11.25 5.41421 11.25 5Z" fill="#1C252E"/>
</svg>
