<svg width="24" height="24" viewBox="0 0 24 24" fill="none" xmlns="http://www.w3.org/2000/svg">
<path fill-rule="evenodd" clip-rule="evenodd" d="M11.9999 4C14.0681 4 16.029 4.71753 17.7363 6.0459C19.4436 7.36467 20.8974 9.29449 21.9413 11.709C22.0194 11.8932 22.0194 12.1067 21.9413 12.2812C19.8535 17.1103 16.1365 20 11.9999 20H11.9902C7.86337 20 4.14634 17.1103 2.05854 12.2812C1.98049 12.1067 1.98049 11.8932 2.05854 11.709C4.14635 6.87996 7.86338 4 11.9902 4H11.9999ZM11.9999 8.12109C9.84385 8.12109 8.0976 9.85697 8.0976 12C8.0976 14.1333 9.84385 15.8691 11.9999 15.8691C14.1463 15.8691 15.8925 14.1333 15.8925 12C15.8925 9.85697 14.1463 8.12109 11.9999 8.12109ZM12.0009 9.57324C13.3375 9.57324 14.4306 10.6599 14.4306 11.998C14.4305 13.3264 13.3374 14.4121 12.0009 14.4121C10.6547 14.412 9.56254 13.3264 9.56244 11.998C9.56244 11.8332 9.582 11.6776 9.61127 11.5225H9.6601C10.7428 11.5222 11.6211 10.6691 11.6601 9.60254C11.7672 9.58321 11.8841 9.57325 12.0009 9.57324Z" fill="#1C252E"/>
</svg>
