<svg width="24" height="24" viewBox="0 0 24 24" fill="none" xmlns="http://www.w3.org/2000/svg">
<path d="M19.4491 6.94001V9.45001C19.4491 10.16 18.7291 10.62 18.0591 10.37C17.2191 10.06 16.2891 9.94001 15.3091 10.04C12.9291 10.3 10.4891 12.59 10.0891 14.96C9.75906 16.93 10.3891 18.77 11.5991 20.07C12.1491 20.67 11.7791 21.64 10.9691 21.73C10.2791 21.81 9.59906 21.79 9.21906 21.51L3.71906 17.4C3.06906 16.91 2.53906 15.85 2.53906 15.03V6.94001C2.53906 5.81001 3.39906 4.57001 4.44906 4.17001L9.94906 2.11001C10.5191 1.90001 11.4591 1.90001 12.0291 2.11001L17.5291 4.17001C18.5891 4.57001 19.4491 5.81001 19.4491 6.94001Z" fill="#1C252E"/>
<path d="M19.4785 16.1143C19.4785 14.2563 17.9724 12.75 16.1143 12.75C14.2562 12.7501 12.75 14.2563 12.75 16.1143C12.75 17.9722 14.2562 19.4784 16.1143 19.4785C17.9724 19.4785 19.4785 17.9723 19.4785 16.1143ZM20.9785 16.1143C20.9785 17.1869 20.6301 18.1772 20.042 18.9814L21.5303 20.4697C21.8231 20.7626 21.8231 21.2374 21.5303 21.5303C21.2374 21.8232 20.7626 21.8231 20.4697 21.5303L18.9814 20.042C18.1773 20.63 17.1868 20.9785 16.1143 20.9785C13.4278 20.9784 11.25 18.8007 11.25 16.1143C11.25 13.4279 13.4278 11.2501 16.1143 11.25C18.8008 11.25 20.9785 13.4278 20.9785 16.1143Z" fill="#1C252E"/>
</svg>
