<svg width="24" height="24" viewBox="0 0 24 24" fill="none" xmlns="http://www.w3.org/2000/svg">
<path d="M2 9.75C1.59 9.75 1.25 9.41 1.25 9V6.5C1.25 3.6 3.61 1.25 6.5 1.25H9C9.41 1.25 9.75 1.59 9.75 2C9.75 2.41 9.41 2.75 9 2.75H6.5C4.43 2.75 2.75 4.43 2.75 6.5V9C2.75 9.41 2.41 9.75 2 9.75Z" fill="#1C252E"/>
<path d="M22 9.75C21.59 9.75 21.25 9.41 21.25 9V6.5C21.25 4.43 19.57 2.75 17.5 2.75H15C14.59 2.75 14.25 2.41 14.25 2C14.25 1.59 14.59 1.25 15 1.25H17.5C20.39 1.25 22.75 3.6 22.75 6.5V9C22.75 9.41 22.41 9.75 22 9.75Z" fill="#1C252E"/>
<path d="M8.49914 11.38C10.0897 11.38 11.3791 10.0906 11.3791 8.5C11.3791 6.90942 10.0897 5.62 8.49914 5.62C6.90856 5.62 5.61914 6.90942 5.61914 8.5C5.61914 10.0906 6.90856 11.38 8.49914 11.38Z" fill="#1C252E"/>
<path d="M16.4991 9.38C17.5374 9.38 18.3791 8.53829 18.3791 7.5C18.3791 6.4617 17.5374 5.62 16.4991 5.62C15.4608 5.62 14.6191 6.4617 14.6191 7.5C14.6191 8.53829 15.4608 9.38 16.4991 9.38Z" fill="#1C252E"/>
<path d="M15.4991 18.38C17.0897 18.38 18.3791 17.0906 18.3791 15.5C18.3791 13.9094 17.0897 12.62 15.4991 12.62C13.9086 12.62 12.6191 13.9094 12.6191 15.5C12.6191 17.0906 13.9086 18.38 15.4991 18.38Z" fill="#1C252E"/>
<path d="M9 22.75H6.5C3.61 22.75 1.25 20.4 1.25 17.5V15C1.25 14.59 1.59 14.25 2 14.25C2.41 14.25 2.75 14.59 2.75 15V17.5C2.75 19.57 4.43 21.25 6.5 21.25H9C9.41 21.25 9.75 21.59 9.75 22C9.75 22.41 9.41 22.75 9 22.75Z" fill="#1C252E"/>
<path d="M7.49914 18.38C8.53744 18.38 9.37914 17.5383 9.37914 16.5C9.37914 15.4617 8.53744 14.62 7.49914 14.62C6.46085 14.62 5.61914 15.4617 5.61914 16.5C5.61914 17.5383 6.46085 18.38 7.49914 18.38Z" fill="#1C252E"/>
<path d="M17.5 22.75H16C15.59 22.75 15.25 22.41 15.25 22C15.25 21.59 15.59 21.25 16 21.25H17.5C19.57 21.25 21.25 19.57 21.25 17.5V16C21.25 15.59 21.59 15.25 22 15.25C22.41 15.25 22.75 15.59 22.75 16V17.5C22.75 20.4 20.39 22.75 17.5 22.75Z" fill="#1C252E"/>
</svg>
