<svg width="24" height="24" viewBox="0 0 24 24" fill="none" xmlns="http://www.w3.org/2000/svg">
<path d="M18.5408 4.17001L13.0408 2.11001C12.4708 1.90001 11.5408 1.90001 10.9708 2.11001L5.47078 4.17001C4.41078 4.57001 3.55078 5.81001 3.55078 6.94001V15.04C3.55078 15.85 4.08078 16.92 4.73078 17.4L10.2308 21.51C11.2008 22.24 12.7908 22.24 13.7608 21.51L19.2608 17.4C19.9108 16.91 20.4408 15.85 20.4408 15.04V6.94001C20.4508 5.81001 19.5908 4.57001 18.5408 4.17001ZM12.7508 12.87V15.5C12.7508 15.91 12.4108 16.25 12.0008 16.25C11.5908 16.25 11.2508 15.91 11.2508 15.5V12.87C10.2408 12.55 9.50078 11.61 9.50078 10.5C9.50078 9.12001 10.6208 8.00001 12.0008 8.00001C13.3808 8.00001 14.5008 9.12001 14.5008 10.5C14.5008 11.62 13.7608 12.55 12.7508 12.87Z" fill="#1C252E"/>
</svg>
