<svg width="24" height="24" viewBox="0 0 24 24" fill="none" xmlns="http://www.w3.org/2000/svg">
<path d="M18.5408 4.12003L13.0408 2.06003C12.4708 1.85003 11.5408 1.85003 10.9708 2.06003L5.47078 4.12003C4.41078 4.52003 3.55078 5.76003 3.55078 6.89003V14.99C3.55078 15.8 4.08078 16.87 4.73078 17.35L10.2308 21.46C11.2008 22.19 12.7908 22.19 13.7608 21.46L19.2608 17.35C19.9108 16.86 20.4408 15.8 20.4408 14.99V6.89003C20.4508 5.76003 19.5908 4.52003 18.5408 4.12003ZM15.4808 9.72003L11.1808 14.02C11.0308 14.17 10.8408 14.24 10.6508 14.24C10.4608 14.24 10.2708 14.17 10.1208 14.02L8.52078 12.4C8.23078 12.11 8.23078 11.63 8.52078 11.34C8.81078 11.05 9.29078 11.05 9.58078 11.34L10.6608 12.42L14.4308 8.65003C14.7208 8.36003 15.2008 8.36003 15.4908 8.65003C15.7808 8.94003 15.7808 9.43003 15.4808 9.72003Z" fill="#1C252E"/>
</svg>
