<svg width="24" height="24" viewBox="0 0 24 24" fill="none" xmlns="http://www.w3.org/2000/svg">
<path fill-rule="evenodd" clip-rule="evenodd" d="M19.1699 3.71456C19.4626 3.42907 19.9211 3.42911 20.204 3.71456C20.4967 4.00005 20.4967 4.47202 20.204 4.75753L18.4286 6.54952C19.8435 7.84907 21.0437 9.60185 21.9413 11.7087C22.0193 11.8957 22.0194 12.1126 21.9413 12.2898C19.8532 17.1925 16.1351 20.1257 11.998 20.1257H11.9882C10.1052 20.1256 8.30023 19.5058 6.7099 18.3737L4.81732 20.2839C4.67096 20.4316 4.48513 20.5007 4.29974 20.5007C4.11453 20.5007 3.91971 20.4313 3.78314 20.2839C3.53921 20.0378 3.5001 19.6436 3.69525 19.3581L3.72455 19.3191L18.1552 4.75753C18.1746 4.73792 18.1943 4.71855 18.204 4.69894C18.2236 4.67925 18.2431 4.65906 18.2529 4.63936L19.1699 3.71456ZM12.0009 3.88546C13.3962 3.88546 14.7529 4.22022 16.0019 4.8503L12.7421 8.13839C12.5081 8.09905 12.2544 8.07003 12.0009 8.07003C9.84466 8.07009 8.09772 9.83191 8.09759 12.0075C8.09759 12.2633 8.12696 12.5194 8.16595 12.7556L4.55658 16.3991C3.58093 15.2572 2.73176 13.8785 2.05853 12.2937C1.98048 12.1165 1.9805 11.8996 2.05853 11.7126C4.14659 6.8098 7.86382 3.88551 11.9911 3.88546H12.0009ZM14.1552 10.862C14.3307 11.1966 14.4276 11.5904 14.4277 12.0036C14.4277 13.3524 13.3347 14.4558 11.998 14.4558C11.5883 14.4557 11.1978 14.3566 10.8661 14.1794L9.80267 15.2526C10.427 15.6759 11.1883 15.9322 11.998 15.9323C14.1446 15.9323 15.8915 14.1695 15.8915 12.0036C15.8915 11.1867 15.6381 10.4188 15.2187 9.78878L14.1552 10.862Z" fill="#1C252E"/>
</svg>
