<svg width="24" height="24" viewBox="0 0 24 24" fill="none" xmlns="http://www.w3.org/2000/svg">
<path d="M18.5408 4.12003L13.0408 2.06003C12.4708 1.85003 11.5408 1.85003 10.9708 2.06003L5.47078 4.12003C4.41078 4.52003 3.55078 5.76003 3.55078 6.89003V14.99C3.55078 15.8 4.08078 16.87 4.73078 17.35L10.2308 21.46C11.2008 22.19 12.7908 22.19 13.7608 21.46L19.2608 17.35C19.9108 16.86 20.4408 15.8 20.4408 14.99V6.89003C20.4508 5.76003 19.5908 4.52003 18.5408 4.12003ZM14.6808 13.97C14.5308 14.12 14.3408 14.19 14.1508 14.19C13.9608 14.19 13.7708 14.12 13.6208 13.97L12.0308 12.38L10.3908 14.02C10.2408 14.17 10.0508 14.24 9.86078 14.24C9.67078 14.24 9.48078 14.17 9.33078 14.02C9.04078 13.73 9.04078 13.25 9.33078 12.96L10.9708 11.32L9.37078 9.72003C9.08078 9.43003 9.08078 8.95003 9.37078 8.66003C9.66078 8.37003 10.1408 8.37003 10.4308 8.66003L12.0208 10.25L13.5708 8.70003C13.8608 8.41003 14.3408 8.41003 14.6308 8.70003C14.9208 8.99003 14.9208 9.47003 14.6308 9.76003L13.0808 11.31L14.6708 12.9C14.9708 13.2 14.9708 13.67 14.6808 13.97Z" fill="#1C252E"/>
</svg>
