<svg width="24" height="24" viewBox="0 0 24 24" fill="none" xmlns="http://www.w3.org/2000/svg">
<path d="M19.3608 4.64003L5.83078 18.17L4.73078 17.35C4.08078 16.86 3.55078 15.8 3.55078 14.98V6.89003C3.55078 5.76003 4.41078 4.52003 5.46078 4.12003L10.9608 2.06003C11.5308 1.85003 12.4708 1.85003 13.0408 2.06003L18.5408 4.12003C18.8308 4.23003 19.1108 4.41003 19.3608 4.64003Z" fill="#1C252E"/>
<path d="M21.7709 2.23C21.4709 1.93 20.9809 1.93 20.6809 2.23L2.23086 20.69C1.93086 20.99 1.93086 21.48 2.23086 21.78C2.38086 21.92 2.57086 22 2.77086 22C2.97086 22 3.16086 21.92 3.31086 21.77L21.7709 3.31C22.0809 3.01 22.0809 2.53 21.7709 2.23Z" fill="#1C252E"/>
<path d="M20.451 14.98C20.451 15.8 19.921 16.86 19.271 17.35L13.771 21.46C12.791 22.18 11.211 22.18 10.231 21.46L8.47097 20.15C7.98097 19.79 7.93096 19.07 8.36096 18.64L18.741 8.26002C19.371 7.63002 20.451 8.08002 20.451 8.97002V14.98Z" fill="#1C252E"/>
</svg>
