<svg width="24" height="24" viewBox="0 0 24 24" fill="none" xmlns="http://www.w3.org/2000/svg">
<path d="M9 22H15C20 22 22 20 22 15V9C22 4 20 2 15 2H9C4 2 2 4 2 9V15C2 20 4 22 9 22Z" stroke="#1C252E" stroke-width="1.5" stroke-linecap="round" stroke-linejoin="round"/>
<g opacity="0.4">
<path d="M16.9999 11.84H14.3199C13.6099 11.84 13.1299 11.3 13.1299 10.65V9.15997C13.1299 8.50997 13.6099 7.96997 14.3199 7.96997H15.8099C16.4599 7.96997 16.9999 8.50997 16.9999 9.15997V11.84Z" stroke="#1C252E" stroke-width="1.5" stroke-linecap="round" stroke-linejoin="round"/>
<path d="M17.0002 11.8401C17.0002 14.6301 16.4802 15.1001 14.9102 16.0301" stroke="#1C252E" stroke-width="1.5" stroke-linecap="round" stroke-linejoin="round"/>
<path d="M10.8602 11.84H8.18023C7.47023 11.84 6.99023 11.3 6.99023 10.65V9.15997C6.99023 8.50997 7.47023 7.96997 8.18023 7.96997H9.67023C10.3202 7.96997 10.8602 8.50997 10.8602 9.15997V11.84Z" stroke="#1C252E" stroke-width="1.5" stroke-linecap="round" stroke-linejoin="round"/>
<path d="M10.8605 11.8401C10.8605 14.6301 10.3405 15.1001 8.77051 16.0301" stroke="#1C252E" stroke-width="1.5" stroke-linecap="round" stroke-linejoin="round"/>
</g>
</svg>
