<svg width="24" height="24" viewBox="0 0 24 24" fill="none" xmlns="http://www.w3.org/2000/svg">
<path d="M8.90024 16.53C9.38024 16.01 10.1203 16.05 10.5403 16.62L11.1403 17.42C11.6103 18.05 12.3902 18.05 12.8602 17.42L13.4503 16.63C13.8703 16.07 14.6102 16.03 15.0902 16.54C16.1402 17.66 16.9902 17.29 16.9902 15.72V9.09C16.9902 6.72 16.4302 6.13 14.2102 6.13H9.77023C7.55023 6.13 6.99023 6.72 6.99023 9.09V15.72C7.00023 17.27 7.86024 17.64 8.90024 16.53Z" fill="#1C252E"/>
<path opacity="0.4" d="M16.1898 2H7.81976C4.17976 2 2.00977 4.17 2.00977 7.81V16.18C2.00977 19.82 4.17976 21.99 7.81976 21.99H16.1898C19.8298 21.99 21.9998 19.82 21.9998 16.18V7.81C21.9998 4.17 19.8298 2 16.1898 2Z" fill="#1C252E"/>
</svg>
