<svg width="24" height="24" viewBox="0 0 24 24" fill="none" xmlns="http://www.w3.org/2000/svg">
<path opacity="0.4" d="M16 8.98999V20.35C16 21.8 14.96 22.41 13.69 21.71L9.76 19.52C9.34 19.29 8.66 19.29 8.24 19.52L4.31 21.71C3.04 22.41 2 21.8 2 20.35V8.98999C2 7.27999 3.4 5.88 5.11 5.88H12.89C14.6 5.88 16 7.27999 16 8.98999Z" fill="#1C252E"/>
<path d="M10.0593 12L10.9393 11.12C11.2293 10.83 11.2293 10.35 10.9393 10.06C10.6493 9.77003 10.1693 9.77003 9.8793 10.06L8.9993 10.94L8.1193 10.06C7.8293 9.77003 7.3493 9.77003 7.0593 10.06C6.7693 10.35 6.7693 10.83 7.0593 11.12L7.9393 12L7.0593 12.88C6.7693 13.17 6.7693 13.65 7.0593 13.94C7.2093 14.09 7.3993 14.16 7.5893 14.16C7.7793 14.16 7.9693 14.09 8.1193 13.94L8.9993 13.06L9.8793 13.94C10.0293 14.09 10.2193 14.16 10.4093 14.16C10.5993 14.16 10.7893 14.09 10.9393 13.94C11.2293 13.65 11.2293 13.17 10.9393 12.88L10.0593 12Z" fill="#1C252E"/>
<path d="M22 5.10999V16.47C22 17.92 20.96 18.53 19.69 17.83L16 15.77V8.98999C16 7.27999 14.6 5.88 12.89 5.88H8V5.10999C8 3.39999 9.4 2 11.11 2H18.89C20.6 2 22 3.39999 22 5.10999Z" fill="#1C252E"/>
</svg>
