<svg width="24" height="24" viewBox="0 0 24 24" fill="none" xmlns="http://www.w3.org/2000/svg">
<path opacity="0.4" d="M20.68 6.32001V19.95C20.68 21.75 19.39 22.51 17.82 21.64L12.94 18.92C12.42 18.64 11.58 18.64 11.06 18.92L6.18 21.64C5.76 21.87 5.36 21.99 5 22L20.68 6.32001Z" fill="#1C252E"/>
<path d="M20.1203 3.88L3.39031 20.61C3.34031 20.41 3.32031 20.19 3.32031 19.95V5.86C3.32031 3.74 5.05031 2 7.18031 2H16.8203C18.2203 2 19.4503 2.75 20.1203 3.88Z" fill="#1C252E"/>
<path d="M21.7709 2.23C21.4709 1.93 20.9809 1.93 20.6809 2.23L2.23086 20.69C1.93086 20.99 1.93086 21.48 2.23086 21.78C2.38086 21.92 2.57086 22 2.77086 22C2.97086 22 3.16086 21.92 3.31086 21.77L21.7709 3.31C22.0809 3.01 22.0809 2.53 21.7709 2.23Z" fill="#1C252E"/>
</svg>
