<svg width="24" height="24" viewBox="0 0 24 24" fill="none" xmlns="http://www.w3.org/2000/svg">
<path opacity="0.4" d="M16.1898 2H7.81976C4.17976 2 2.00977 4.17 2.00977 7.81V16.18C2.00977 19.82 4.17976 21.99 7.81976 21.99H16.1898C19.8298 21.99 21.9998 19.82 21.9998 16.18V7.81C21.9998 4.17 19.8298 2 16.1898 2Z" fill="#1C252E"/>
<path d="M11.4991 8.09V17.25C11.4991 17.61 11.1391 17.85 10.8091 17.71C9.59914 17.19 8.01913 16.71 6.91913 16.57L6.72913 16.55C6.11913 16.47 5.61914 15.9 5.61914 15.28V7.57999C5.61914 6.81999 6.23915 6.25 6.99915 6.31C8.24915 6.41 10.0992 7.01001 11.2592 7.67001C11.4092 7.74001 11.4991 7.91 11.4991 8.09Z" fill="#1C252E"/>
<path d="M18.38 7.70001V15.27C18.38 15.89 17.88 16.46 17.27 16.54L17.06 16.56C15.97 16.71 14.4 17.18 13.19 17.69C12.86 17.83 12.5 17.59 12.5 17.23V8.07999C12.5 7.89999 12.59 7.73001 12.75 7.64001C13.91 6.99001 15.72 6.40999 16.95 6.29999H16.99C17.76 6.30999 18.38 6.93001 18.38 7.70001Z" fill="#1C252E"/>
</svg>
