<svg width="24" height="24" viewBox="0 0 24 24" fill="none" xmlns="http://www.w3.org/2000/svg">
<path opacity="0.4" d="M12 5.30001V21.33C12.17 21.33 12.35 21.3 12.49 21.22L12.53 21.2C14.45 20.15 17.8 19.05 19.97 18.76L20.26 18.72C21.22 18.6 22 17.7 22 16.74V4.66C22 3.47 21.03 2.57001 19.84 2.67001C17.74 2.84001 14.56 3.90003 12.78 5.01003L12.53 5.16C12.38 5.25 12.19 5.30001 12 5.30001Z" fill="#1C252E"/>
<path d="M2 4.66996V16.74C2 17.7 2.77999 18.5999 3.73999 18.7199L4.07001 18.76C6.25001 19.05 9.61003 20.1599 11.53 21.2199C11.66 21.2999 11.82 21.33 12 21.33V5.29996C11.81 5.29996 11.62 5.24995 11.47 5.15995L11.3 5.04996C9.51999 3.92996 6.32998 2.85997 4.22998 2.67997H4.16998C2.97998 2.57997 2 3.46996 2 4.66996Z" fill="#1C252E"/>
<path d="M19 2.78003V7.07001C19 7.47001 18.56 7.70999 18.22 7.48999L17 6.67999L15.78 7.48999C15.45 7.70999 15 7.47001 15 7.07001V3.91998C16.31 3.39998 17.77 2.98003 19 2.78003Z" fill="#1C252E"/>
</svg>
