<svg width="24" height="24" viewBox="0 0 24 24" fill="none" xmlns="http://www.w3.org/2000/svg">
<path opacity="0.4" d="M16.8203 1.91H7.18031C5.06031 1.91 3.32031 3.65 3.32031 5.77V19.86C3.32031 21.66 4.61031 22.42 6.19031 21.55L11.0703 18.84C11.5903 18.55 12.4303 18.55 12.9403 18.84L17.8203 21.55C19.4003 22.43 20.6903 21.67 20.6903 19.86V5.77C20.6803 3.65 18.9503 1.91 16.8203 1.91Z" fill="#1C252E"/>
<path d="M11.0893 13.25C10.8993 13.25 10.7093 13.18 10.5593 13.03L9.0593 11.53C8.7693 11.24 8.7693 10.76 9.0593 10.47C9.3493 10.18 9.8293 10.18 10.1193 10.47L11.0893 11.44L14.5593 7.97C14.8493 7.68 15.3293 7.68 15.6193 7.97C15.9093 8.26 15.9093 8.74 15.6193 9.03L11.6193 13.03C11.4693 13.18 11.2793 13.25 11.0893 13.25Z" fill="#1C252E"/>
</svg>
