<svg width="24" height="24" viewBox="0 0 24 24" fill="none" xmlns="http://www.w3.org/2000/svg">
<path opacity="0.4" d="M23.53 12.05C23.24 11.76 22.76 11.76 22.47 12.05L22.01 12.51V12C22.01 6.47999 17.52 1.98999 12 1.98999C8.95 1.98999 6.1 3.35999 4.19 5.73999C3.93 6.05999 3.98 6.53999 4.31 6.79999C4.63 7.04999 5.1 6.99999 5.36 6.67999C6.99 4.64999 9.41 3.48999 12 3.48999C16.69 3.48999 20.51 7.30999 20.51 12V12.5L20.05 12.04C19.76 11.75 19.28 11.75 18.99 12.04C18.7 12.33 18.7 12.81 18.99 13.1L20.73 14.84C20.8 14.91 20.88 14.96 20.97 15C21.06 15.04 21.16 15.06 21.26 15.06C21.36 15.06 21.45 15.04 21.55 15C21.64 14.96 21.72 14.91 21.79 14.84L23.53 13.1C23.82 12.82 23.82 12.34 23.53 12.05Z" fill="#1C252E"/>
<path opacity="0.4" d="M19.6899 17.2C19.3699 16.94 18.8899 16.99 18.6399 17.32C17.0099 19.35 14.5899 20.51 11.9999 20.51C7.30994 20.51 3.48994 16.69 3.48994 12V11.5L3.94994 11.96C4.09994 12.11 4.28994 12.18 4.47994 12.18C4.66994 12.18 4.85994 12.1 4.99994 11.95C5.28994 11.66 5.28994 11.18 4.99994 10.89L3.26994 9.14999C3.19994 9.08999 3.10994 9.02999 3.01994 8.98999C2.83994 8.90999 2.62994 8.90999 2.44994 8.98999C2.35994 9.02999 2.27994 9.08999 2.20994 9.14999L0.469941 10.89C0.179941 11.18 0.179941 11.66 0.469941 11.95C0.759941 12.24 1.23994 12.24 1.52994 11.95L1.98994 11.49V12C1.98994 17.52 6.47994 22.01 11.9999 22.01C15.0499 22.01 17.8999 20.64 19.8099 18.26C20.0699 17.94 20.0199 17.46 19.6899 17.2Z" fill="#1C252E"/>
<path d="M15.45 11.64C15.72 11.24 15.87 10.77 15.87 10.25C15.87 8.92 14.7 7.75 13.37 7.75H12.55V6.75C12.55 6.34 12.21 6 11.8 6C11.39 6 11.05 6.34 11.05 6.75V7.75H9C8.59 7.75 8.25 8.09 8.25 8.5V12V15.5C8.25 15.91 8.59 16.25 9 16.25H11.05V17.25C11.05 17.66 11.39 18 11.8 18C12.21 18 12.55 17.66 12.55 17.25V16.25H14C15.52 16.25 16.75 15.13 16.75 13.75C16.75 12.86 16.23 12.08 15.45 11.64ZM9.75 9.25H13.37C13.92 9.25 14.37 9.8 14.37 10.25C14.37 10.8 13.92 11.25 13.37 11.25H9.75V9.25ZM14 14.75H9.75V12.75H13.37H14C14.69 12.75 15.25 13.2 15.25 13.75C15.25 14.3 14.69 14.75 14 14.75Z" fill="#1C252E"/>
</svg>
