<svg width="24" height="24" viewBox="0 0 24 24" fill="none" xmlns="http://www.w3.org/2000/svg">
<path opacity="0.4" d="M22 8.5C22 12.09 19.09 15 15.5 15C15.33 15 15.15 14.99 14.98 14.98C14.73 11.81 12.19 9.27 9.01999 9.02C9.00999 8.85 9 8.67 9 8.5C9 4.91 11.91 2 15.5 2C19.09 2 22 4.91 22 8.5Z" fill="#1C252E"/>
<path d="M14.98 14.98C14.73 11.81 12.19 9.27 9.02 9.02C8.85 9.01 8.67 9 8.5 9C4.91 9 2 11.91 2 15.5C2 19.09 4.91 22 8.5 22C12.09 22 15 19.09 15 15.5C15 15.33 14.99 15.15 14.98 14.98ZM9.38 16.38L8.5 18L7.62 16.38L6 15.5L7.62 14.62L8.5 13L9.38 14.62L11 15.5L9.38 16.38Z" fill="#1C252E"/>
</svg>
