<svg width="24" height="24" viewBox="0 0 24 24" fill="none" xmlns="http://www.w3.org/2000/svg">
<path opacity="0.4" d="M14.8498 15.33C14.8498 18.74 12.0898 21.4999 8.67977 21.4999C5.26977 21.4999 2.50977 18.74 2.50977 15.33C2.50977 11.92 5.26977 9.15991 8.67977 9.15991C8.83977 9.15991 8.98977 9.16993 9.15977 9.17993C12.1898 9.40993 14.6098 11.8299 14.8398 14.8599C14.8398 15.0099 14.8498 15.16 14.8498 15.33Z" fill="#1C252E"/>
<path d="M11.1201 15.0099C11.2401 14.7599 11.3101 14.49 11.3101 14.2C11.3101 13.2 10.4301 12.3199 9.43012 12.3199H9.17012V11.9399C9.17012 11.5299 8.83012 11.1899 8.42012 11.1899C8.01012 11.1899 7.67012 11.5299 7.67012 11.9399V12.3199H6.62012C6.21012 12.3199 5.87012 12.6599 5.87012 13.0699V15.3199V17.5699C5.87012 17.9799 6.21012 18.3199 6.62012 18.3199H7.67012V18.7C7.67012 19.11 8.01012 19.45 8.42012 19.45C8.83012 19.45 9.17012 19.11 9.17012 18.7V18.3199H9.83012C10.9501 18.3199 11.8701 17.4799 11.8701 16.4399C11.8701 15.8699 11.5701 15.3499 11.1201 15.0099ZM7.37012 13.8199H9.43012C9.64012 13.8199 9.81012 14.05 9.81012 14.2C9.81012 14.41 9.64012 14.58 9.43012 14.58H7.37012V13.8199ZM9.83012 16.83H7.36012V16.08H9.42012H9.82012C10.1401 16.08 10.3601 16.28 10.3601 16.46C10.3601 16.64 10.1501 16.83 9.83012 16.83Z" fill="#1C252E"/>
<path d="M21.5002 8.66998C21.5002 12.08 18.7402 14.84 15.3302 14.84H14.8402C14.6102 11.81 12.1902 9.38997 9.16016 9.15997V8.66998C9.16016 5.25998 11.9202 2.5 15.3302 2.5C18.7402 2.5 21.5002 5.25998 21.5002 8.66998Z" fill="#1C252E"/>
<path opacity="0.4" d="M22.9999 15.22C22.5899 15.22 22.2499 15.56 22.2499 15.97C22.2499 18.93 20.1899 21.41 17.4199 22.06L17.6899 21.61C17.8999 21.25 17.7899 20.79 17.4299 20.58C17.0799 20.37 16.6099 20.48 16.3999 20.84L15.3499 22.59C15.2099 22.82 15.2099 23.11 15.3399 23.34C15.4699 23.58 15.7199 23.72 15.9899 23.72C20.2599 23.72 23.7399 20.24 23.7399 15.97C23.7499 15.56 23.4099 15.22 22.9999 15.22Z" fill="#1C252E"/>
<path opacity="0.4" d="M8 0.220001C3.73 0.220001 0.25 3.7 0.25 7.97C0.25 8.38 0.59 8.72 1 8.72C1.41 8.72 1.75 8.38 1.75 7.97C1.75 5.01 3.81 2.53 6.58 1.88L6.31 2.33C6.1 2.69 6.21 3.15 6.57 3.36C6.92 3.57 7.39 3.46 7.6 3.1L8.65 1.35C8.78 1.12 8.79 0.840001 8.65 0.600001C8.52 0.370001 8.27 0.220001 8 0.220001Z" fill="#1C252E"/>
</svg>
