<svg width="24" height="24" viewBox="0 0 24 24" fill="none" xmlns="http://www.w3.org/2000/svg">
<g opacity="0.4">
<path d="M17.85 3.39999H6.15C3.86 3.39999 2 5.24999 2 7.53999V16.46C2 18.75 3.86 20.6 6.15 20.6H17.85C20.14 20.6 22 18.75 22 16.46V7.53999C22 5.24999 20.14 3.39999 17.85 3.39999ZM9.25 12.75H5.25C4.84 12.75 4.5 12.41 4.5 12C4.5 11.59 4.84 11.25 5.25 11.25H9.25C9.66 11.25 10 11.59 10 12C10 12.41 9.66 12.75 9.25 12.75ZM17.32 15.25H16.26V15.75C16.26 16.16 15.92 16.5 15.51 16.5C15.1 16.5 14.76 16.16 14.76 15.75V15.25H12.75C12.34 15.25 12 14.91 12 14.5C12 14.09 12.34 13.75 12.75 13.75H13V10.25H12.75C12.34 10.25 12 9.90999 12 9.49999C12 9.08999 12.34 8.74999 12.75 8.74999H14.76V8.24999C14.76 7.83999 15.1 7.49999 15.51 7.49999C15.92 7.49999 16.26 7.83999 16.26 8.24999V8.74999H16.87C17.94 8.74999 18.87 9.67999 18.87 10.75C18.87 11.08 18.78 11.39 18.64 11.67C19.16 12.04 19.5 12.61 19.5 13.25C19.5 14.35 18.52 15.25 17.32 15.25Z" fill="#1C252E"/>
<path d="M14.5 12.75V13.75H17.32C17.69 13.75 18 13.52 18 13.25C18 12.98 17.69 12.75 17.32 12.75H14.5Z" fill="#1C252E"/>
<path d="M17.38 10.75C17.38 10.53 17.14 10.25 16.88 10.25H14.5V11.25H16.88C17.15 11.25 17.38 11.03 17.38 10.75Z" fill="#1C252E"/>
</g>
<path fill-rule="evenodd" clip-rule="evenodd" d="M17.32 15.25H16.26V15.75C16.26 16.16 15.92 16.5 15.51 16.5C15.1 16.5 14.76 16.16 14.76 15.75V15.25H12.75C12.34 15.25 12 14.91 12 14.5C12 14.09 12.34 13.75 12.75 13.75H13V10.25H12.75C12.34 10.25 12 9.90999 12 9.49999C12 9.08999 12.34 8.74999 12.75 8.74999H14.76V8.24999C14.76 7.83999 15.1 7.49999 15.51 7.49999C15.92 7.49999 16.26 7.83999 16.26 8.24999V8.74999H16.87C17.94 8.74999 18.87 9.67999 18.87 10.75C18.87 11.08 18.78 11.39 18.64 11.67C19.16 12.04 19.5 12.61 19.5 13.25C19.5 14.35 18.52 15.25 17.32 15.25ZM16.88 10.25C17.14 10.25 17.38 10.53 17.38 10.75C17.38 11.03 17.15 11.25 16.88 11.25H14.5V10.25H16.88ZM14.5 13.75V12.75H17.32C17.69 12.75 18 12.98 18 13.25C18 13.52 17.69 13.75 17.32 13.75H14.5Z" fill="#1C252E"/>
<path d="M9.25 12.75H5.25C4.84 12.75 4.5 12.41 4.5 12C4.5 11.59 4.84 11.25 5.25 11.25H9.25C9.66 11.25 10 11.59 10 12C10 12.41 9.66 12.75 9.25 12.75Z" fill="#1C252E"/>
</svg>
