<svg width="24" height="24" viewBox="0 0 24 24" fill="none" xmlns="http://www.w3.org/2000/svg">
<path d="M20.6602 8.04004C20.6602 8.27004 20.6002 8.51004 20.4502 8.70004L11.0702 20.64C10.7302 21.07 10.3302 21.22 9.99023 21.1L10.0002 21L11.0002 10L20.0402 8.19004L20.6602 8.04004Z" fill="#1C252E"/>
<path opacity="0.4" d="M20.66 8.04005L20.04 8.19005L11 10L16.95 4.05005C17.07 4.10005 17.17 4.17005 17.24 4.24005L20.37 7.37005C20.55 7.55005 20.65 7.79005 20.66 8.04005Z" fill="#1C252E"/>
<path d="M16.9502 4.04995L11.0002 9.99995L3.01016 2.89995L2.66016 2.55995V2.54995C2.86016 2.28995 3.22016 2.15995 3.70016 2.22995L16.6602 3.95995C16.7502 3.96995 16.8502 3.99995 16.9502 4.04995Z" fill="#1C252E"/>
<path opacity="0.4" d="M10.9999 10.0001L9.99991 21.0001L9.98991 21.1001C9.73991 21.0101 9.50991 20.7701 9.35991 20.3901L2.63991 3.59006C2.46991 3.17006 2.48991 2.81006 2.65991 2.56006L3.00991 2.90006L10.9999 10.0001Z" fill="#1C252E"/>
</svg>
