<svg width="24" height="24" viewBox="0 0 24 24" fill="none" xmlns="http://www.w3.org/2000/svg">
<path d="M16.98 8.09006L16.81 8.52006L12.09 21.7501H11.91L7.18002 8.50006L7.02002 8.10006C7.08002 7.95006 7.16002 7.81006 7.24002 7.71006L10.85 3.38006C11.48 2.62006 12.52 2.62006 13.15 3.38006L16.76 7.71006C16.84 7.80006 16.92 7.95006 16.98 8.09006Z" fill="#1C252E"/>
<path opacity="0.4" d="M11.9101 21.75C11.6701 21.74 11.4401 21.68 11.2601 21.57L5.94009 18.54C5.42009 18.24 5.10009 17.52 5.21009 16.94L6.93009 8.36998C6.95009 8.28998 6.98009 8.19998 7.02009 8.09998L7.18009 8.49998L11.9101 21.75Z" fill="#1C252E"/>
<path opacity="0.4" d="M18.0598 18.54L12.7398 21.57C12.5598 21.68 12.3298 21.74 12.0898 21.75L16.8098 8.51997L16.9798 8.08997C17.0198 8.18997 17.0498 8.28997 17.0698 8.36997L18.7898 16.94C18.8998 17.52 18.5798 18.24 18.0598 18.54Z" fill="#1C252E"/>
</svg>
