<svg width="24" height="24" viewBox="0 0 24 24" fill="none" xmlns="http://www.w3.org/2000/svg">
<path d="M8.077 1.50003C8.757 1.21171 9.63566 1.06617 10.2352 1.62992C10.8574 2.21515 10.7141 3.10844 10.4178 3.7891L10.4168 3.79105C10.0239 4.68939 9.78544 5.66343 9.73813 6.69046L9.73032 7.13382V7.13675C9.74805 11.4182 13.196 15.0911 17.5018 15.4834L17.9207 15.5108L18.4139 15.5176C18.9013 15.5112 19.3737 15.4645 19.8358 15.3819L20.1366 15.3389C20.4351 15.308 20.7233 15.3162 20.9881 15.378C21.3476 15.4618 21.7053 15.6565 21.9266 16.0186C22.1469 16.3791 22.1575 16.7843 22.0731 17.1397C21.9897 17.4904 21.8062 17.8373 21.5633 18.166L21.5623 18.1651C19.4382 21.0702 15.9035 22.9102 11.9579 22.7393H11.9569C6.35639 22.4929 1.67003 18.0132 1.28208 12.4737C0.927646 7.56334 3.84134 3.28709 8.077 1.50003ZM9.16782 2.74613C9.06747 2.7493 8.90024 2.78028 8.66294 2.88089H8.66098C5.093 4.3857 2.63064 7.90765 2.75766 11.9707L2.77817 12.3662V12.3672C3.1109 17.1271 7.16429 21.0266 12.0233 21.2403H12.0223C15.455 21.3891 18.5184 19.7903 20.3543 17.2774L20.3563 17.2744C20.5022 17.0769 20.5712 16.9272 20.6014 16.8311C20.5036 16.8169 20.3419 16.8141 20.1043 16.8575L20.1024 16.8584C19.3792 16.988 18.6337 17.0421 17.8582 17.0098V17.0088C12.5777 16.7923 8.25228 12.3836 8.23032 7.14359V7.14261C8.21994 5.73511 8.51186 4.40231 9.04184 3.19046C9.13317 2.98075 9.16172 2.83426 9.16782 2.74613Z" fill="#1C252E"/>
</svg>
