<svg width="24" height="24" viewBox="0 0 24 24" fill="none" xmlns="http://www.w3.org/2000/svg">
<path d="M14.1156 10.9559C15.7815 9.96074 17.8332 9.89854 19.5473 10.7694L19.8852 10.9559L19.8861 10.9569L22.3861 12.4569C22.7413 12.67 22.8571 13.131 22.644 13.4862C22.4308 13.8414 21.9698 13.9561 21.6147 13.7431L19.1156 12.2431C17.8126 11.4649 16.1881 11.4657 14.8852 12.244C13.1083 13.3056 10.8925 13.3056 9.11563 12.244C7.81255 11.4656 6.18824 11.4656 4.88516 12.244L4.88419 12.2431L2.38614 13.7431C2.03097 13.9561 1.56995 13.8414 1.35684 13.4862C1.14373 13.131 1.25947 12.67 1.61465 12.4569L4.11465 10.9569L4.11563 10.9559C5.89252 9.89443 8.10827 9.89443 9.88516 10.9559C11.1883 11.7344 12.8125 11.7344 14.1156 10.9559Z" fill="#1C252E"/>
<path d="M21.6145 3.2565C21.9697 3.04362 22.4308 3.15922 22.6438 3.51431C22.8567 3.86946 22.7411 4.33055 22.386 4.54361L19.886 6.04361H19.885C18.1081 7.10513 15.8924 7.10513 14.1155 6.04361C12.8125 5.26531 11.188 5.26531 9.88504 6.04361C8.10814 7.10513 5.89241 7.10513 4.11551 6.04361H4.11453L1.61453 4.54361C1.25944 4.33055 1.14384 3.86946 1.35672 3.51431C1.56977 3.15922 2.03087 3.04362 2.38601 3.2565L4.88601 4.7565H4.88504C6.18802 5.53479 7.81252 5.53479 9.11551 4.7565C10.8924 3.69497 13.1081 3.69497 14.885 4.7565C16.1878 5.53465 17.8117 5.53436 19.1145 4.7565L21.6145 3.2565Z" fill="#1C252E"/>
<path d="M14.1156 17.9559C15.7815 16.9607 17.8332 16.8985 19.5473 17.7694L19.8852 17.9559L19.8861 17.9569L22.3861 19.4569C22.7413 19.67 22.8571 20.131 22.644 20.4862C22.4308 20.8414 21.9698 20.9561 21.6147 20.7431L19.1156 19.2431C17.8126 18.4649 16.1881 18.4657 14.8852 19.244C13.1083 20.3056 10.8925 20.3056 9.11563 19.244C7.81255 18.4656 6.18824 18.4656 4.88516 19.244L4.88419 19.2431L2.38614 20.7431C2.03097 20.9561 1.56995 20.8414 1.35684 20.4862C1.14373 20.131 1.25947 19.67 1.61465 19.4569L4.11465 17.9569L4.11563 17.9559C5.89252 16.8944 8.10827 16.8944 9.88516 17.9559C11.1883 18.7344 12.8125 18.7344 14.1156 17.9559Z" fill="#1C252E"/>
</svg>
