<svg width="24" height="24" viewBox="0 0 24 24" fill="none" xmlns="http://www.w3.org/2000/svg">
<path d="M9.5605 3.4524C11.3155 2.99104 13.2627 3.15318 14.8945 4.11158C16.4274 5.01195 17.6164 6.57797 18.1162 8.83131C20.33 9.32632 21.8612 11.0386 22.455 12.9866C23.096 15.0898 22.6775 17.5746 20.7734 19.2356L20.7724 19.2346C19.6451 20.2642 18.1703 20.8287 16.6396 20.8186V20.8196H5.54975C5.53223 20.8196 5.5145 20.8198 5.49702 20.8186C0.194479 20.4446 -0.0954566 13.1193 4.6269 11.9846C4.09604 9.92375 4.38707 8.1029 5.23432 6.64967C6.18855 5.01305 7.80552 3.9138 9.5605 3.4524ZM14.1347 5.40553C12.8913 4.67526 11.3635 4.52911 9.94233 4.9026C8.52111 5.27622 7.25879 6.15593 6.53022 7.40553C5.86597 8.54503 5.61092 10.0528 6.15815 11.8919C6.66318 11.9594 7.15461 12.1099 7.6103 12.3421C7.97936 12.5301 8.12644 12.9818 7.93843 13.3508C7.75033 13.7197 7.29864 13.866 6.92964 13.678C6.51354 13.466 6.04866 13.3534 5.57319 13.3499C1.85963 13.6402 1.8623 19.0364 5.581 19.3196H16.6455C17.8064 19.3282 18.9229 18.8984 19.7724 18.1174C19.7771 18.1131 19.7822 18.109 19.7871 18.1047C21.1727 16.896 21.5191 15.0607 21.0205 13.4241C20.5215 11.7873 19.2097 10.4557 17.3857 10.2239C17.0571 10.1821 16.7946 9.92954 16.7402 9.60279C16.3826 7.45567 15.3603 6.12547 14.1347 5.40553Z" fill="#1C252E"/>
<path d="M17.5069 8.76C17.9209 8.75294 18.2624 9.0832 18.2696 9.4973C18.2766 9.91135 17.9463 10.2529 17.5323 10.26C17.0648 10.2681 16.6046 10.3811 16.1846 10.5911C15.8142 10.7759 15.3639 10.6254 15.1787 10.2551C14.9937 9.88468 15.1443 9.43445 15.5147 9.24926C16.1345 8.93939 16.8146 8.77193 17.5069 8.76Z" fill="#1C252E"/>
</svg>
