<svg width="24" height="24" viewBox="0 0 24 24" fill="none" xmlns="http://www.w3.org/2000/svg">
<path d="M9.56605 3.45315C11.3136 2.99501 13.2519 3.15925 14.8756 4.11624C16.4002 5.01493 17.5818 6.57567 18.0768 8.82034C22.6289 9.83193 24.3396 16.0128 20.7243 19.1748L20.7233 19.1739C19.5971 20.1928 18.131 20.7613 16.6051 20.75C16.1909 20.7469 15.8569 20.4084 15.86 19.9942C15.8632 19.5801 16.2018 19.247 16.6159 19.25C17.7649 19.2586 18.8739 18.8296 19.7262 18.0547L19.737 18.0449C22.5205 15.6097 21.0125 10.6732 17.3473 10.2139C17.0177 10.1726 16.7549 9.91955 16.7008 9.59182C16.3479 7.45161 15.3315 6.12597 14.1139 5.40823C12.8787 4.68029 11.3603 4.53381 9.94691 4.90432C8.53336 5.2749 7.27775 6.14897 6.55238 7.39163C5.83746 8.6166 5.59534 10.2708 6.32582 12.3067C6.46571 12.6965 6.26349 13.1257 5.87367 13.2657C5.48389 13.4055 5.05469 13.2032 4.91469 12.8135C4.05029 10.4046 4.29598 8.28195 5.25746 6.63479C6.20863 5.00559 7.81862 3.91134 9.56605 3.45315Z" fill="#1C252E"/>
<path d="M5.55736 11.8205C6.27356 11.8084 6.9848 11.9779 7.62084 12.3019C7.98969 12.4901 8.13596 12.9418 7.94799 13.3107C7.75985 13.6795 7.30816 13.8258 6.9392 13.6379C6.5228 13.4259 6.06282 13.3159 5.60717 13.3195C1.90348 13.5972 1.89682 18.9971 5.62279 19.2619C6.03583 19.2912 6.34719 19.6497 6.31811 20.0627C6.28879 20.4758 5.93037 20.7871 5.51732 20.758C-0.0509682 20.3628 -0.0829544 12.2181 5.51732 11.8215L5.55736 11.8205Z" fill="#1C252E"/>
<path d="M15.8203 9.88998C16.3403 9.62998 16.9003 9.48998 17.4803 9.47998" stroke="#1C252E" stroke-width="1.5" stroke-miterlimit="10" stroke-linecap="round" stroke-linejoin="round"/>
<path d="M11.8603 18.0588C12.1537 17.7665 12.6285 17.7673 12.9208 18.0607C13.2131 18.3541 13.2123 18.8289 12.9189 19.1213L12.0361 20.0002L12.9189 20.8791C13.2121 21.1715 13.2131 21.6463 12.9208 21.9396C12.6285 22.2329 12.1537 22.2337 11.8603 21.9416L10.9745 21.0588L10.0888 21.9416C9.79541 22.2337 9.32057 22.2329 9.02825 21.9396C8.73591 21.6463 8.73691 21.1715 9.0302 20.8791L9.91203 20.0002L9.0302 19.1213C8.7368 18.8289 8.73591 18.3541 9.02825 18.0607C9.32061 17.7673 9.79538 17.7664 10.0888 18.0588L10.9745 18.9406L11.8603 18.0588Z" fill="#1C252E"/>
</svg>
