<svg width="24" height="24" viewBox="0 0 24 24" fill="none" xmlns="http://www.w3.org/2000/svg">
<path d="M9.56605 3.45318C11.3136 2.99504 13.2519 3.15928 14.8756 4.11627C16.4002 5.01496 17.5818 6.5757 18.0768 8.82037C22.6289 9.83196 24.3396 16.0128 20.7243 19.1749L20.7233 19.1739C19.5971 20.1928 18.131 20.7614 16.6051 20.7501C16.1909 20.747 15.8569 20.4084 15.86 19.9942C15.8632 19.5801 16.2018 19.247 16.6159 19.2501C17.7649 19.2586 18.8739 18.8296 19.7262 18.0547L19.737 18.045C22.5205 15.6098 21.0125 10.6733 17.3473 10.2139C17.0177 10.1726 16.7549 9.91958 16.7008 9.59185C16.3479 7.45164 15.3315 6.126 14.1139 5.40826C12.8787 4.68032 11.3603 4.53384 9.94691 4.90435C8.53336 5.27493 7.27775 6.149 6.55238 7.39166C5.83746 8.61663 5.59534 10.2709 6.32582 12.3067C6.46571 12.6965 6.26349 13.1258 5.87367 13.2657C5.48389 13.4055 5.05469 13.2032 4.91469 12.8135C4.05029 10.4046 4.29598 8.28198 5.25746 6.63482C6.20863 5.00562 7.81862 3.91137 9.56605 3.45318Z" fill="#1C252E"/>
<path d="M5.55736 11.8205C6.27356 11.8083 6.9848 11.9779 7.62084 12.3019C7.98969 12.49 8.13596 12.9417 7.94799 13.3107C7.75985 13.6795 7.30816 13.8258 6.9392 13.6378C6.5228 13.4258 6.06282 13.3158 5.60717 13.3195C1.90348 13.5972 1.89682 18.9971 5.62279 19.2619C6.03583 19.2912 6.34719 19.6497 6.31811 20.0627C6.28879 20.4757 5.93037 20.7871 5.51732 20.758C-0.0509682 20.3628 -0.0829544 12.218 5.51732 11.8214L5.55736 11.8205Z" fill="#1C252E"/>
<path d="M17.4678 8.73C17.8818 8.72307 18.2234 9.05328 18.2305 9.4673C18.2375 9.88135 17.9073 10.2229 17.4932 10.23C17.0277 10.238 16.5773 10.3501 16.1553 10.5611C15.7849 10.7459 15.3346 10.5954 15.1494 10.2251C14.9644 9.85468 15.115 9.40445 15.4854 9.21925C16.1033 8.91035 16.7734 8.74197 17.4678 8.73Z" fill="#1C252E"/>
<path d="M10.2197 22V20.75H8.96973C8.55551 20.75 8.21973 20.4142 8.21973 20C8.21973 19.5858 8.55551 19.25 8.96973 19.25H10.2197V18C10.2197 17.5858 10.5555 17.25 10.9697 17.25C11.3839 17.25 11.7197 17.5858 11.7197 18V19.25H12.9697C13.3839 19.25 13.7197 19.5858 13.7197 20C13.7197 20.4142 13.3839 20.75 12.9697 20.75H11.7197V22C11.7197 22.4142 11.3839 22.75 10.9697 22.75C10.5555 22.75 10.2197 22.4142 10.2197 22Z" fill="#1C252E"/>
</svg>
