<svg width="24" height="24" viewBox="0 0 24 24" fill="none" xmlns="http://www.w3.org/2000/svg">
<path d="M8.25829 2.47239C10.0132 2.01105 11.9596 2.17395 13.5903 3.13255C15.1224 4.03331 16.31 5.59932 16.8071 7.85325C18.7592 8.28662 20.1758 9.66875 20.8892 11.323C21.053 11.7032 20.8776 12.1442 20.4975 12.3083C20.1172 12.4724 19.6752 12.2971 19.5112 11.9167C18.9094 10.5214 17.7032 9.44602 16.0776 9.24388C15.748 9.20289 15.4845 8.95041 15.4302 8.62278C15.0749 6.47533 14.0539 5.14522 12.8296 4.42552C11.5875 3.69545 10.0604 3.54895 8.63915 3.92259C7.21805 4.29626 5.95585 5.17577 5.22606 6.42552C4.50653 7.65779 4.26342 9.32096 4.99657 11.3669C5.13622 11.7567 4.93315 12.1861 4.54345 12.3259C4.15351 12.4656 3.72419 12.2627 3.58446 11.8728C2.71766 9.45381 2.96542 7.32361 3.93114 5.66966C4.88662 4.03331 6.50332 2.93375 8.25829 2.47239Z" fill="#1C252E"/>
<path d="M16.1973 7.77001C16.6114 7.76293 16.9528 8.0932 16.96 8.50731C16.967 8.92136 16.6368 9.26287 16.2227 9.27001C15.7552 9.27812 15.295 9.39109 14.875 9.60106C14.5046 9.78596 14.0543 9.63546 13.8692 9.26513C13.6841 8.89469 13.8347 8.44446 14.2051 8.25927C14.825 7.9494 15.505 7.78194 16.1973 7.77001Z" fill="#1C252E"/>
<path d="M20 14.28C20.4142 14.28 20.75 14.6158 20.75 15.03C20.75 15.4442 20.4142 15.78 20 15.78H4C3.58579 15.78 3.25 15.4442 3.25 15.03C3.25 14.6158 3.58579 14.28 4 14.28H20Z" fill="#1C252E"/>
<path d="M18 17.28C18.4142 17.28 18.75 17.6158 18.75 18.03C18.75 18.4442 18.4142 18.78 18 18.78H6C5.58579 18.78 5.25 18.4442 5.25 18.03C5.25 17.6158 5.58579 17.28 6 17.28H18Z" fill="#1C252E"/>
<path d="M15 20.28C15.4142 20.28 15.75 20.6158 15.75 21.03C15.75 21.4442 15.4142 21.78 15 21.78H9C8.58579 21.78 8.25 21.4442 8.25 21.03C8.25 20.6158 8.58579 20.28 9 20.28H15Z" fill="#1C252E"/>
</svg>
