<svg width="24" height="24" viewBox="0 0 24 24" fill="none" xmlns="http://www.w3.org/2000/svg">
<path d="M6.55726 5.04717C8.43489 3.38267 11.2054 2.76293 13.61 3.53642C14.0041 3.6634 14.2212 4.08559 14.0944 4.47978C13.9675 4.8741 13.5443 5.091 13.15 4.96416C11.2647 4.3578 9.04467 4.84729 7.55238 6.17021C6.10367 7.45464 5.30141 9.56255 6.29652 12.3479C6.37846 12.5776 6.34321 12.8332 6.20277 13.0325C6.06232 13.2315 5.83402 13.3498 5.59046 13.3499H5.57386C1.85943 13.6396 1.84823 19.0392 5.57386 19.3304H16.6354C17.7962 19.339 18.9128 18.909 19.7623 18.1282L19.7741 18.1175C20.984 17.0513 21.3947 15.5322 21.1598 14.0794C21.0939 13.6708 21.3714 13.2863 21.7799 13.22C22.1887 13.1539 22.5741 13.4313 22.6403 13.8401C22.9454 15.7272 22.416 17.7886 20.7662 19.2425L20.7653 19.2415C19.6377 20.2727 18.1623 20.8392 16.6305 20.8294V20.8304H5.53968C5.52177 20.8304 5.50384 20.8297 5.48597 20.8284C0.203338 20.4438 -0.112193 13.1273 4.61878 11.9866C3.86311 9.03249 4.80451 6.60098 6.55726 5.04717Z" fill="#1C252E"/>
<path d="M5.60265 11.85C6.29504 11.862 6.97588 12.0293 7.59581 12.3393C7.96593 12.5246 8.11577 12.9748 7.93077 13.3451C7.7456 13.7155 7.29532 13.866 6.92491 13.6811C6.50492 13.4711 6.04479 13.3581 5.57726 13.35C5.16318 13.3429 4.83294 13.0014 4.83995 12.5873C4.84709 12.1733 5.1886 11.843 5.60265 11.85Z" fill="#1C252E"/>
<path d="M21.2197 8.5C21.2197 6.98421 19.9855 5.75 18.4697 5.75C17.7298 5.75 17.0537 6.04514 16.5635 6.52832C16.5505 6.54328 16.5396 6.56023 16.5254 6.57422C16.0237 7.06817 15.7197 7.74794 15.7197 8.5C15.7197 10.0158 16.9539 11.25 18.4697 11.25C19.1136 11.25 19.7176 11.022 20.1768 10.6484L20.1846 10.6416C20.8199 10.1396 21.2197 9.36381 21.2197 8.5ZM22.7197 8.5C22.7197 9.83239 22.1018 11.0324 21.1221 11.8105L21.123 11.8115C20.4022 12.398 19.4658 12.75 18.4697 12.75C16.1255 12.75 14.2197 10.8442 14.2197 8.5C14.2197 7.36395 14.6703 6.32998 15.4111 5.56934C15.4285 5.54718 15.4449 5.52416 15.4648 5.50391C16.2325 4.72402 17.3041 4.25 18.4697 4.25C20.8139 4.25 22.7197 6.15579 22.7197 8.5Z" fill="#1C252E"/>
</svg>
