<svg width="24" height="24" viewBox="0 0 24 24" fill="none" xmlns="http://www.w3.org/2000/svg">
<path d="M7.97913 4.06478C10.679 2.65023 14.3657 2.87819 16.5778 5.55209C16.6004 5.57949 16.6199 5.60897 16.6383 5.639C17.3099 6.48746 17.8231 7.55268 18.108 8.84115C19.3891 9.12765 20.4458 9.8191 21.2223 10.7454C23.1835 13.0653 23.4047 16.9121 20.777 19.2308L20.778 19.2318C19.649 20.2695 18.1674 20.8393 16.6305 20.8294V20.8304H5.53967C5.52176 20.8304 5.50383 20.8297 5.48596 20.8285C0.203335 20.4439 -0.112183 13.1273 4.61877 11.9867C4.18404 10.2925 4.30309 8.75674 4.83752 7.44955C5.45854 5.93093 6.61478 4.77973 7.97913 4.06478ZM15.3883 6.46908C13.7157 4.48927 10.871 4.24259 8.67541 5.39291C7.58501 5.96423 6.69759 6.86419 6.2262 8.01693C5.75801 9.16186 5.67642 10.6153 6.29651 12.347C6.37873 12.5766 6.34402 12.8321 6.20373 13.0316C6.06333 13.231 5.83432 13.3498 5.59045 13.3499H5.57385C1.85943 13.6397 1.84821 19.0393 5.57385 19.3304H16.6354C17.7962 19.339 18.9128 18.909 19.7623 18.1283L19.775 18.1165C21.693 16.4341 21.613 13.5304 20.0778 11.7142L20.0748 11.7113C19.4186 10.9272 18.5059 10.3783 17.3746 10.2337C17.0462 10.1916 16.7842 9.93928 16.7301 9.61264C16.5092 8.27815 16.0281 7.26186 15.4186 6.51303C15.4073 6.49917 15.3985 6.48362 15.3883 6.46908Z" fill="#1C252E"/>
<path d="M5.60265 11.85C6.29504 11.862 6.97588 12.0293 7.59581 12.3393C7.96593 12.5246 8.11577 12.9748 7.93077 13.3451C7.7456 13.7155 7.29532 13.866 6.92491 13.6811C6.50492 13.4711 6.04479 13.3581 5.57726 13.35C5.16318 13.3429 4.83294 13.0014 4.83995 12.5873C4.84709 12.1733 5.1886 11.843 5.60265 11.85Z" fill="#1C252E"/>
<path d="M17.5069 8.76C17.9209 8.75294 18.2624 9.0832 18.2696 9.4973C18.2766 9.91135 17.9463 10.2529 17.5323 10.26C17.0648 10.2681 16.6046 10.3811 16.1846 10.5911C15.8142 10.7759 15.3639 10.6254 15.1787 10.2551C14.9937 9.88468 15.1443 9.43445 15.5147 9.24926C16.1345 8.93939 16.8146 8.77193 17.5069 8.76Z" fill="#1C252E"/>
<path d="M21.2197 8.5C21.2197 6.98421 19.9855 5.75 18.4697 5.75C17.9377 5.75005 17.4394 5.90381 17.0186 6.16895C17.5042 6.91834 17.878 7.80802 18.1064 8.84082C19.101 9.06296 19.9601 9.52947 20.6582 10.1602C21.0119 9.69865 21.2197 9.12244 21.2197 8.5ZM22.7197 8.5C22.7197 9.83609 22.0998 11.0404 21.1152 11.8184C20.7967 12.0701 20.3358 12.0223 20.0752 11.7109C19.419 10.9269 18.5062 10.379 17.375 10.2344C17.0464 10.1924 16.7846 9.93915 16.7305 9.6123C16.5096 8.27786 16.0275 7.26249 15.418 6.51367C15.3091 6.37992 15.25 6.21248 15.25 6.04004V6.03027C15.25 5.83341 15.3277 5.6442 15.4658 5.50391C16.2335 4.72416 17.3043 4.25007 18.4697 4.25C20.8139 4.25 22.7197 6.15579 22.7197 8.5Z" fill="#1C252E"/>
</svg>
