<svg width="24" height="24" viewBox="0 0 24 24" fill="none" xmlns="http://www.w3.org/2000/svg">
<path d="M11.25 8.5V3C11.25 2.58579 11.5858 2.25 12 2.25C12.4142 2.25 12.75 2.58579 12.75 3V8.5C12.75 8.91421 12.4142 9.25 12 9.25C11.5858 9.25 11.25 8.91421 11.25 8.5Z" fill="#1C252E"/>
<path d="M11.25 21V15.5C11.25 15.0858 11.5858 14.75 12 14.75C12.4142 14.75 12.75 15.0858 12.75 15.5V21C12.75 21.4142 12.4142 21.75 12 21.75C11.5858 21.75 11.25 21.4142 11.25 21Z" fill="#1C252E"/>
<path d="M14 2.25C14.4142 2.25 14.75 2.58579 14.75 3C14.75 3.41421 14.4142 3.75 14 3.75H10C9.58579 3.75 9.25 3.41421 9.25 3C9.25 2.58579 9.58579 2.25 10 2.25H14Z" fill="#1C252E"/>
<path d="M14 20.25C14.4142 20.25 14.75 20.5858 14.75 21C14.75 21.4142 14.4142 21.75 14 21.75H10C9.58579 21.75 9.25 21.4142 9.25 21C9.25 20.5858 9.58579 20.25 10 20.25H14Z" fill="#1C252E"/>
<path d="M3.56057 7.12502C3.76775 6.76641 4.22634 6.64351 4.58498 6.85061L9.34475 9.60061C9.70339 9.80781 9.82634 10.2664 9.61916 10.625C9.41195 10.9837 8.95341 11.1066 8.59475 10.8994L3.83498 8.14943C3.47637 7.94225 3.35347 7.48366 3.56057 7.12502Z" fill="#1C252E"/>
<path d="M14.3809 13.375C14.5881 13.0164 15.0467 12.8935 15.4053 13.1006L20.1651 15.8506C20.5237 16.0578 20.6467 16.5164 20.4395 16.875C20.2323 17.2337 19.7737 17.3566 19.4151 17.1494L14.6553 14.3994C14.2967 14.1923 14.1738 13.7337 14.3809 13.375Z" fill="#1C252E"/>
<path d="M4.56054 5.395C4.76777 5.03648 5.22638 4.91353 5.58495 5.12059C5.94347 5.32782 6.06643 5.78643 5.85937 6.145L3.85937 9.60496C3.65213 9.96348 3.19352 10.0864 2.83495 9.87938C2.47643 9.67214 2.35346 9.21354 2.56054 8.85496L4.56054 5.395Z" fill="#1C252E"/>
<path d="M20.1406 14.395C20.3479 14.0365 20.8065 13.9135 21.165 14.1206C21.5235 14.3278 21.6465 14.7864 21.4394 15.145L19.4394 18.605C19.2322 18.9635 18.7736 19.0864 18.415 18.8794C18.0565 18.6721 17.9335 18.2135 18.1406 17.855L20.1406 14.395Z" fill="#1C252E"/>
<path d="M14.75 12C14.75 11.497 14.6169 11.0359 14.3799 10.625V10.624C13.8979 9.79656 13.0102 9.25 12 9.25C10.9896 9.25 10.1011 9.79632 9.61914 10.624C9.3821 11.0349 9.25 11.497 9.25 12C9.25 12.503 9.38308 12.9641 9.62012 13.375H9.61914C10.101 14.2031 10.9893 14.75 12 14.75C13.0105 14.75 13.898 14.2029 14.3799 13.375C14.6169 12.9641 14.75 12.503 14.75 12ZM16.25 12C16.25 12.777 16.0426 13.4959 15.6797 14.125L15.6787 14.127C14.9403 15.3979 13.5686 16.25 12 16.25C10.4314 16.25 9.05969 15.3979 8.32129 14.127L8.32031 14.125C7.95735 13.4959 7.75 12.777 7.75 12C7.75 11.223 7.95735 10.5041 8.32031 9.875L8.32129 9.87305C9.05969 8.60208 10.4314 7.75 12 7.75C13.4706 7.75 14.7684 8.49874 15.5332 9.63965L15.6787 9.87305L15.6797 9.875C16.0426 10.5041 16.25 11.223 16.25 12Z" fill="#1C252E"/>
<path d="M19.4151 6.85054C19.7737 6.64333 20.2323 6.7663 20.4395 7.12496C20.6467 7.48361 20.5237 7.94217 20.1651 8.14937L15.4053 10.8994C15.0467 11.1065 14.5881 10.9836 14.3809 10.625C14.1738 10.2663 14.2967 9.80773 14.6553 9.60054L19.4151 6.85054Z" fill="#1C252E"/>
<path d="M8.59475 13.1005C8.95341 12.8933 9.41195 13.0163 9.61916 13.375C9.82634 13.7336 9.70339 14.1922 9.34475 14.3994L4.58498 17.1494C4.22634 17.3565 3.76775 17.2336 3.56057 16.875C3.35347 16.5163 3.47637 16.0577 3.83498 15.8505L8.59475 13.1005Z" fill="#1C252E"/>
<path d="M18.415 5.12059C18.7736 4.91353 19.2322 5.03648 19.4394 5.395L21.4394 8.85496C21.6465 9.21354 21.5235 9.67214 21.165 9.87938C20.8064 10.0864 20.3478 9.96348 20.1406 9.60496L18.1406 6.145C17.9335 5.78643 18.0565 5.32782 18.415 5.12059Z" fill="#1C252E"/>
<path d="M2.83494 14.1206C3.19351 13.9135 3.65212 14.0365 3.85936 14.395L5.85936 17.855C6.06643 18.2135 5.94347 18.6721 5.58494 18.8794C5.22637 19.0864 4.76777 18.9635 4.56053 18.605L2.56053 15.145C2.35347 14.7864 2.47643 14.3278 2.83494 14.1206Z" fill="#1C252E"/>
</svg>
