<svg width="24" height="24" viewBox="0 0 24 24" fill="none" xmlns="http://www.w3.org/2000/svg">
<path d="M17.29 3.52006C17.29 3.14886 16.8254 2.97755 16.5839 3.25346L16.5829 3.25541L9.01261 11.856C8.78524 12.1257 8.982 12.5298 9.32022 12.5298H12.4101C12.8241 12.5299 13.16 12.8658 13.1601 13.2798V20.48C13.1601 20.8513 13.6237 21.0216 13.8651 20.7456L13.8671 20.7447L21.4364 12.1441C21.6686 11.8801 21.4864 11.4703 21.1298 11.4703H18.04C17.6258 11.4703 17.2901 11.1344 17.29 10.7203V3.52006ZM18.79 9.97026H21.1298C22.7731 9.97026 23.6501 11.8993 22.5624 13.1353L14.9931 21.7359L14.9921 21.7349C13.8332 23.0566 11.6601 22.228 11.6601 20.48V14.0298H9.32022C7.68049 14.0298 6.8166 12.099 7.88272 10.8687L7.88663 10.8648L15.4569 2.2642C16.6159 0.94284 18.79 1.77211 18.79 3.52006V9.97026Z" fill="#1C252E"/>
<path d="M8.5 3.25C8.91421 3.25 9.25 3.58579 9.25 4C9.25 4.41421 8.91421 4.75 8.5 4.75H1.5C1.08579 4.75 0.75 4.41421 0.75 4C0.75 3.58579 1.08579 3.25 1.5 3.25H8.5Z" fill="#1C252E"/>
<path d="M7.5 19.25C7.91421 19.25 8.25 19.5858 8.25 20C8.25 20.4142 7.91421 20.75 7.5 20.75H1.5C1.08579 20.75 0.75 20.4142 0.75 20C0.75 19.5858 1.08579 19.25 1.5 19.25H7.5Z" fill="#1C252E"/>
<path d="M4.5 11.25C4.91421 11.25 5.25 11.5858 5.25 12C5.25 12.4142 4.91421 12.75 4.5 12.75H1.5C1.08579 12.75 0.75 12.4142 0.75 12C0.75 11.5858 1.08579 11.25 1.5 11.25H4.5Z" fill="#1C252E"/>
</svg>
