<svg width="24" height="24" viewBox="0 0 24 24" fill="none" xmlns="http://www.w3.org/2000/svg">
<path d="M9.56605 3.45315C11.3136 2.99501 13.2519 3.15925 14.8756 4.11624C16.4002 5.01493 17.5818 6.57567 18.0768 8.82034C22.6289 9.83193 24.3396 16.0128 20.7243 19.1748L20.7233 19.1739C19.5971 20.1928 18.131 20.7613 16.6051 20.75C16.1909 20.7469 15.8569 20.4084 15.86 19.9942C15.8632 19.5801 16.2018 19.247 16.6159 19.25C17.7649 19.2586 18.8739 18.8296 19.7262 18.0547L19.737 18.0449C22.5205 15.6097 21.0125 10.6732 17.3473 10.2139C17.0177 10.1726 16.7549 9.91955 16.7008 9.59182C16.3479 7.45161 15.3315 6.12597 14.1139 5.40823C12.8787 4.68029 11.3603 4.53381 9.94691 4.90432C8.53336 5.2749 7.27775 6.14897 6.55238 7.39163C5.83746 8.6166 5.59534 10.2708 6.32582 12.3067C6.46571 12.6965 6.26349 13.1257 5.87367 13.2657C5.48389 13.4055 5.05469 13.2032 4.91469 12.8135C4.05029 10.4046 4.29598 8.28195 5.25746 6.63479C6.20863 5.00559 7.81862 3.91134 9.56605 3.45315Z" fill="#1C252E"/>
<path d="M5.55736 11.8205C6.27356 11.8084 6.9848 11.9779 7.62084 12.3019C7.98969 12.4901 8.13596 12.9418 7.94799 13.3107C7.75985 13.6795 7.30816 13.8258 6.9392 13.6379C6.5228 13.4259 6.06282 13.3159 5.60717 13.3195C1.90348 13.5972 1.89682 18.9971 5.62279 19.2619C6.03583 19.2912 6.34719 19.6497 6.31811 20.0627C6.28879 20.4758 5.93037 20.7871 5.51732 20.758C-0.0509682 20.3628 -0.0829544 12.2181 5.51732 11.8215L5.55736 11.8205Z" fill="#1C252E"/>
<path d="M17.4678 8.73003C17.8818 8.7231 18.2234 9.05331 18.2305 9.46733C18.2375 9.88138 17.9073 10.2229 17.4932 10.23C17.0277 10.2381 16.5773 10.3501 16.1553 10.5611C15.7849 10.746 15.3346 10.5955 15.1494 10.2251C14.9644 9.85471 15.115 9.40448 15.4854 9.21928C16.1033 8.91038 16.7734 8.742 17.4678 8.73003Z" fill="#1C252E"/>
<path d="M10.8269 15.2663C11.5351 14.4293 12.7992 15.0188 12.7995 15.9997V17.5797H13.0495C13.3667 17.5797 13.915 17.6772 14.154 18.2018C14.3935 18.7281 14.1035 19.2041 13.8923 19.444L13.8933 19.445L11.4431 22.235L11.4421 22.234C10.7322 23.0555 9.48018 22.4667 9.48018 21.4899V19.9098H9.23018C8.91299 19.9098 8.36468 19.8132 8.12569 19.2887C7.88542 18.7613 8.17603 18.2832 8.3874 18.0436H8.38838L10.8269 15.2663ZM10.0622 18.4098H10.2302C10.6442 18.41 10.9801 18.7458 10.9802 19.1598V20.4879L12.2175 19.0797H12.0495C11.6354 19.0796 11.2995 18.7439 11.2995 18.3297V17.0006L10.0622 18.4098Z" fill="#1C252E"/>
</svg>
