<svg width="24" height="24" viewBox="0 0 24 24" fill="none" xmlns="http://www.w3.org/2000/svg">
<path d="M14.25 18.5V18C14.25 17.5858 14.5858 17.25 15 17.25C15.4142 17.25 15.75 17.5858 15.75 18V18.5C15.75 20.0158 16.9842 21.25 18.5 21.25C20.0158 21.25 21.25 20.0158 21.25 18.5C21.25 16.9842 20.0158 15.75 18.5 15.75H2C1.58579 15.75 1.25 15.4142 1.25 15C1.25 14.5858 1.58579 14.25 2 14.25H18.5C20.8442 14.25 22.75 16.1558 22.75 18.5C22.75 20.8442 20.8442 22.75 18.5 22.75C16.1558 22.75 14.25 20.8442 14.25 18.5Z" fill="#1C252E"/>
<path d="M21.25 8.5C21.25 6.99421 20.0058 5.75 18.5 5.75C16.9928 5.75 15.75 6.98561 15.75 8.5V9C15.75 9.41421 15.4142 9.75 15 9.75C14.5858 9.75 14.25 9.41421 14.25 9V8.5C14.25 6.15439 16.1672 4.25 18.5 4.25C20.8342 4.25 22.75 6.16579 22.75 8.5C22.75 10.8456 20.8328 12.75 18.5 12.75H2C1.58579 12.75 1.25 12.4142 1.25 12C1.25 11.5858 1.58579 11.25 2 11.25H18.5C20.0072 11.25 21.25 10.0144 21.25 8.5Z" fill="#1C252E"/>
<path d="M11.25 6.31042C11.25 5.23645 10.3772 4.37 9.30957 4.37C8.23579 4.37023 7.37012 5.24296 7.37012 6.31042V6.69031C7.36995 7.10434 7.03417 7.44024 6.62012 7.44031C6.20601 7.44031 5.87029 7.10438 5.87012 6.69031V6.31042C5.87012 4.41817 7.40374 2.87023 9.30957 2.87C11.202 2.87 12.75 4.4044 12.75 6.31042C12.7498 8.20263 11.2155 9.74988 9.30957 9.74988H2C1.58579 9.74988 1.25 9.41409 1.25 8.99988C1.25006 8.58572 1.58583 8.24988 2 8.24988H9.30957C10.3834 8.24988 11.2498 7.37783 11.25 6.31042Z" fill="#1C252E"/>
</svg>
