<svg width="24" height="24" viewBox="0 0 24 24" fill="none" xmlns="http://www.w3.org/2000/svg">
<path d="M10.9298 1.61813C11.5598 1.12812 12.4368 1.12842 13.0675 1.61715L13.0685 1.61617C14.0378 2.36494 15.9678 3.97467 17.6603 6.10445C19.3415 8.22011 20.8655 10.9452 20.8605 13.9101L20.8487 14.3642C20.6115 19.0286 16.7416 22.7497 12.0109 22.75C7.2788 22.75 3.40934 19.0184 3.17199 14.3545L3.16027 13.9004C3.14517 10.8971 4.66011 8.17268 6.33996 6.06539C8.02674 3.94951 9.95408 2.36421 10.9298 1.6191V1.61813ZM12.1495 2.80172C12.0604 2.73266 11.9397 2.73248 11.8507 2.80172L11.8458 2.8066C10.9196 3.51347 9.095 5.01527 7.51281 6.99996C5.9211 8.99662 4.64677 11.3906 4.66027 13.8955V13.9004C4.66048 17.9466 7.9558 21.25 12.0109 21.25C16.067 21.2497 19.3604 17.9551 19.3605 13.9101V13.9082C19.3649 11.4437 18.0839 9.04948 16.4855 7.03805C14.8979 5.04034 13.0722 3.51491 12.1515 2.80367L12.1495 2.80172Z" fill="#1C252E"/>
</svg>
