<svg width="24" height="24" viewBox="0 0 24 24" fill="none" xmlns="http://www.w3.org/2000/svg">
<path d="M9.56605 3.45315C11.3136 2.99501 13.2519 3.15925 14.8756 4.11624C16.4002 5.01493 17.5818 6.57567 18.0768 8.82034C22.6289 9.83193 24.3396 16.0128 20.7243 19.1748L20.7233 19.1739C19.5971 20.1928 18.131 20.7613 16.6051 20.75C16.1909 20.7469 15.8569 20.4084 15.86 19.9942C15.8632 19.5801 16.2018 19.247 16.6159 19.25C17.7649 19.2586 18.8739 18.8296 19.7262 18.0547L19.737 18.0449C22.5205 15.6097 21.0125 10.6732 17.3473 10.2139C17.0177 10.1726 16.7549 9.91955 16.7008 9.59182C16.3479 7.45161 15.3315 6.12597 14.1139 5.40823C12.8787 4.68029 11.3603 4.53381 9.94691 4.90432C8.53336 5.2749 7.27775 6.14897 6.55238 7.39163C5.83746 8.6166 5.59534 10.2708 6.32582 12.3067C6.46571 12.6965 6.26349 13.1257 5.87367 13.2657C5.48389 13.4055 5.05469 13.2032 4.91469 12.8135C4.05029 10.4046 4.29598 8.28195 5.25746 6.63479C6.20863 5.00559 7.81862 3.91134 9.56605 3.45315Z" fill="#1C252E"/>
<path d="M5.55736 11.8205C6.27356 11.8084 6.9848 11.9779 7.62084 12.3019C7.98969 12.4901 8.13596 12.9418 7.94799 13.3107C7.75985 13.6795 7.30816 13.8258 6.9392 13.6379C6.5228 13.4259 6.06282 13.3159 5.60717 13.3195C1.90348 13.5972 1.89682 18.9971 5.62279 19.2619C6.03583 19.2912 6.34719 19.6497 6.31811 20.0627C6.28879 20.4758 5.93037 20.7871 5.51732 20.758C-0.0509682 20.3628 -0.0829544 12.2181 5.51732 11.8215L5.55736 11.8205Z" fill="#1C252E"/>
<path d="M17.4678 8.73003C17.8818 8.7231 18.2234 9.05331 18.2305 9.46733C18.2375 9.88138 17.9073 10.2229 17.4932 10.23C17.0277 10.2381 16.5773 10.3501 16.1553 10.5611C15.7849 10.746 15.3346 10.5955 15.1494 10.2251C14.9644 9.85471 15.115 9.40448 15.4854 9.21928C16.1033 8.91038 16.7734 8.742 17.4678 8.73003Z" fill="#1C252E"/>
<path d="M9.4394 19.4697C9.73229 19.1768 10.2071 19.1768 10.4999 19.4697C10.7928 19.7626 10.7928 20.2374 10.4999 20.5303L8.49994 22.5303C8.20705 22.8232 7.73229 22.8232 7.4394 22.5303C7.1465 22.2374 7.1465 21.7626 7.4394 21.4697L9.4394 19.4697Z" fill="#1C252E"/>
<path d="M13.4394 19.4697C13.7323 19.1768 14.207 19.1768 14.4999 19.4697C14.7928 19.7626 14.7928 20.2374 14.4999 20.5303L12.4999 22.5303C12.2071 22.8232 11.7323 22.8232 11.4394 22.5303C11.1465 22.2374 11.1465 21.7626 11.4394 21.4697L13.4394 19.4697Z" fill="#1C252E"/>
<path d="M13.4394 15.4697C13.7323 15.1768 14.207 15.1768 14.4999 15.4697C14.7928 15.7626 14.7928 16.2374 14.4999 16.5303L12.4999 18.5303C12.2071 18.8232 11.7323 18.8232 11.4394 18.5303C11.1465 18.2374 11.1465 17.7626 11.4394 17.4697L13.4394 15.4697Z" fill="#1C252E"/>
<path d="M9.4394 15.4697C9.73229 15.1768 10.2071 15.1768 10.4999 15.4697C10.7928 15.7626 10.7928 16.2374 10.4999 16.5303L8.49994 18.5303C8.20705 18.8232 7.73229 18.8232 7.4394 18.5303C7.1465 18.2374 7.1465 17.7626 7.4394 17.4697L9.4394 15.4697Z" fill="#1C252E"/>
</svg>
