<svg width="24" height="24" viewBox="0 0 24 24" fill="none" xmlns="http://www.w3.org/2000/svg">
<path d="M17.75 12C17.75 8.82421 15.1758 6.25 12 6.25C8.82421 6.25 6.25 8.82421 6.25 12C6.25 12.4142 5.91421 12.75 5.5 12.75C5.08579 12.75 4.75 12.4142 4.75 12C4.75 7.99579 7.99579 4.75 12 4.75C16.0042 4.75 19.25 7.99579 19.25 12C19.25 12.4142 18.9142 12.75 18.5 12.75C18.0858 12.75 17.75 12.4142 17.75 12Z" fill="#1C252E"/>
<path d="M2.08008 11L2.18262 11.0049C2.68672 11.0562 3.08008 11.4823 3.08008 12C3.08008 12.5177 2.68672 12.9438 2.18262 12.9951L2.08008 13H2C1.44772 13 1 12.5523 1 12C1 11.4477 1.44772 11 2 11H2.08008ZM22 11C22.5523 11 23 11.4477 23 12C23 12.5523 22.5523 13 22 13H21.9199C21.3677 13 20.9199 12.5523 20.9199 12C20.9199 11.4477 21.3677 11 21.9199 11H22ZM4.15332 4.15332C4.54384 3.7628 5.17686 3.7628 5.56738 4.15332L5.69727 4.2832C6.08755 4.67375 6.08771 5.30682 5.69727 5.69727C5.30682 6.08771 4.67375 6.08755 4.2832 5.69727L4.15332 5.56738C3.7628 5.17686 3.7628 4.54384 4.15332 4.15332ZM18.4326 4.15332C18.8231 3.7628 19.4562 3.7628 19.8467 4.15332C20.2372 4.54384 20.2372 5.17686 19.8467 5.56738L19.7168 5.69727C19.3263 6.08755 18.6932 6.08771 18.3027 5.69727C17.9123 5.30682 17.9125 4.67375 18.3027 4.2832L18.4326 4.15332ZM11 2.08008V2C11 1.44772 11.4477 1 12 1C12.5523 1 13 1.44772 13 2V2.08008L12.9951 2.18262C12.9437 2.6867 12.5176 3.08008 12 3.08008C11.4477 3.08008 11 2.63232 11 2.08008Z" fill="#1C252E"/>
<path d="M20 14.25C20.4142 14.25 20.75 14.5858 20.75 15C20.75 15.4142 20.4142 15.75 20 15.75H4C3.58579 15.75 3.25 15.4142 3.25 15C3.25 14.5858 3.58579 14.25 4 14.25H20Z" fill="#1C252E"/>
<path d="M18 17.25C18.4142 17.25 18.75 17.5858 18.75 18C18.75 18.4142 18.4142 18.75 18 18.75H6C5.58579 18.75 5.25 18.4142 5.25 18C5.25 17.5858 5.58579 17.25 6 17.25H18Z" fill="#1C252E"/>
<path d="M15 20.25C15.4142 20.25 15.75 20.5858 15.75 21C15.75 21.4142 15.4142 21.75 15 21.75H9C8.58579 21.75 8.25 21.4142 8.25 21C8.25 20.5858 8.58579 20.25 9 20.25H15Z" fill="#1C252E"/>
</svg>
