<svg width="24" height="24" viewBox="0 0 24 24" fill="none" xmlns="http://www.w3.org/2000/svg">
<path d="M17.75 12C17.75 8.82436 15.1756 6.25 12 6.25C8.82436 6.25 6.25 8.82436 6.25 12C6.25 15.1756 8.82436 17.75 12 17.75C15.1756 17.75 17.75 15.1756 17.75 12ZM19.25 12C19.25 16.0041 16.0041 19.25 12 19.25C7.99594 19.25 4.75 16.0041 4.75 12C4.75 7.99594 7.99594 4.75 12 4.75C16.0041 4.75 19.25 7.99594 19.25 12Z" fill="#1C252E"/>
<path d="M11 22V21.9199C11 21.3677 11.4477 20.9199 12 20.9199C12.5523 20.9199 13 21.3677 13 21.9199V22C13 22.5523 12.5523 23 12 23C11.4477 23 11 22.5523 11 22ZM4.2832 18.3027C4.67375 17.9124 5.30682 17.9123 5.69727 18.3027C6.08771 18.6932 6.08755 19.3263 5.69727 19.7168L5.56738 19.8467C5.17686 20.2372 4.54384 20.2372 4.15332 19.8467C3.7628 19.4562 3.7628 18.8231 4.15332 18.4326L4.2832 18.3027ZM18.3027 18.3027C18.6932 17.9123 19.3263 17.9124 19.7168 18.3027L19.8467 18.4326C20.2372 18.8231 20.2372 19.4562 19.8467 19.8467C19.4562 20.2372 18.8231 20.2372 18.4326 19.8467L18.3027 19.7168C17.9124 19.3263 17.9123 18.6932 18.3027 18.3027ZM2.08008 11L2.18262 11.0049C2.68671 11.0562 3.08008 11.4823 3.08008 12C3.08008 12.5177 2.68671 12.9438 2.18262 12.9951L2.08008 13H2C1.44772 13 1 12.5523 1 12C1 11.4477 1.44772 11 2 11H2.08008ZM22 11C22.5523 11 23 11.4477 23 12C23 12.5523 22.5523 13 22 13H21.9199C21.3677 13 20.9199 12.5523 20.9199 12C20.9199 11.4477 21.3677 11 21.9199 11H22ZM4.15332 4.15332C4.51941 3.78723 5.09844 3.76372 5.49121 4.08398L5.56738 4.15332L5.69727 4.2832C6.08755 4.67375 6.08771 5.30682 5.69727 5.69727C5.33105 6.06348 4.75118 6.08626 4.3584 5.76562L4.2832 5.69727L4.15332 5.56738C3.7628 5.17686 3.7628 4.54384 4.15332 4.15332ZM18.4326 4.15332C18.8231 3.7628 19.4562 3.7628 19.8467 4.15332C20.2372 4.54384 20.2372 5.17686 19.8467 5.56738L19.7168 5.69727C19.3263 6.08755 18.6932 6.08771 18.3027 5.69727C17.9123 5.30682 17.9124 4.67375 18.3027 4.2832L18.4326 4.15332ZM11 2.08008V2C11 1.44772 11.4477 1 12 1C12.5523 1 13 1.44772 13 2V2.08008L12.9951 2.18262C12.9438 2.68671 12.5177 3.08008 12 3.08008C11.4477 3.08008 11 2.63233 11 2.08008Z" fill="#1C252E"/>
</svg>
