<svg width="24" height="24" viewBox="0 0 24 24" fill="none" xmlns="http://www.w3.org/2000/svg">
<path d="M4.57317 21.2812L4.96505 20.6417V20.6417L4.57317 21.2812ZM2.96273 19.6707L3.60221 19.2789H3.60221L2.96273 19.6707ZM21.0373 19.6707L20.3978 19.2789V19.2789L21.0373 19.6707ZM19.4268 21.2812L19.0349 20.6417V20.6417L19.4268 21.2812ZM21.7561 9.24739H21.0061V13.7073H21.7561H22.5061V9.24739H21.7561ZM13.4634 22V21.25H10.5366V22V22.75H13.4634V22ZM2.2439 13.7073H2.9939V9.24739H2.2439H1.4939V13.7073H2.2439ZM16.3902 3.70732H15.6402V3.88153H16.3902H17.1402V3.70732H16.3902ZM7.60975 3.88153H8.35975V3.70732H7.60975H6.85975V3.88153H7.60975ZM7.60975 3.70732H8.35975C8.35975 3.17861 8.78836 2.75 9.31707 2.75V2V1.25C7.95993 1.25 6.85975 2.35018 6.85975 3.70732H7.60975ZM14.6829 2V2.75C15.2116 2.75 15.6402 3.17861 15.6402 3.70732H16.3902H17.1402C17.1402 2.35018 16.0401 1.25 14.6829 1.25V2ZM6.07665 5.41463V6.16463C7.33757 6.16463 8.35975 5.14246 8.35975 3.88153H7.60975H6.85975C6.85975 4.31403 6.50914 4.66463 6.07665 4.66463V5.41463ZM10.5366 22V21.25C8.92526 21.25 7.76944 21.2492 6.86815 21.1635C5.97803 21.0789 5.41391 20.9168 4.96505 20.6417L4.57317 21.2812L4.1813 21.9207C4.90546 22.3644 5.72625 22.5617 6.72617 22.6568C7.71493 22.7508 8.95431 22.75 10.5366 22.75V22ZM2.2439 13.7073H1.4939C1.4939 15.2896 1.49311 16.529 1.58712 17.5177C1.68219 18.5176 1.87948 19.3384 2.32325 20.0626L2.96273 19.6707L3.60221 19.2789C3.32714 18.83 3.16502 18.2659 3.08038 17.3757C2.99469 16.4745 2.9939 15.3186 2.9939 13.7073H2.2439ZM4.57317 21.2812L4.96505 20.6417C4.40959 20.3013 3.94259 19.8343 3.60221 19.2789L2.96273 19.6707L2.32324 20.0626C2.78731 20.8199 3.42401 21.4566 4.1813 21.9207L4.57317 21.2812ZM21.7561 13.7073H21.0061C21.0061 15.3186 21.0053 16.4745 20.9196 17.3757C20.835 18.2659 20.6728 18.83 20.3978 19.2789L21.0373 19.6707L21.6767 20.0626C22.1205 19.3384 22.3178 18.5176 22.4129 17.5177C22.5069 16.529 22.5061 15.2896 22.5061 13.7073H21.7561ZM13.4634 22V22.75C15.0457 22.75 16.2851 22.7508 17.2738 22.6568C18.2737 22.5617 19.0945 22.3644 19.8187 21.9207L19.4268 21.2812L19.0349 20.6417C18.5861 20.9168 18.022 21.0789 17.1318 21.1635C16.2305 21.2492 15.0747 21.25 13.4634 21.25V22ZM21.0373 19.6707L20.3978 19.2789C20.0574 19.8343 19.5904 20.3013 19.0349 20.6417L19.4268 21.2812L19.8187 21.9207C20.576 21.4566 21.2127 20.8199 21.6767 20.0626L21.0373 19.6707ZM21.7561 9.24739H22.5061C22.5061 6.7164 20.4543 4.66463 17.9233 4.66463V5.41463V6.16463C19.6259 6.16463 21.0061 7.54483 21.0061 9.24739H21.7561ZM17.9233 5.41463V4.66463C17.4908 4.66463 17.1402 4.31403 17.1402 3.88153H16.3902H15.6402C15.6402 5.14246 16.6624 6.16463 17.9233 6.16463V5.41463ZM2.2439 9.24739H2.9939C2.9939 7.54483 4.37409 6.16463 6.07665 6.16463V5.41463V4.66463C3.54566 4.66463 1.4939 6.7164 1.4939 9.24739H2.2439ZM9.31707 2V2.75H14.6829V2V1.25H9.31707V2Z" fill="#1C252E"/>
<path opacity="0.4" d="M8.09753 13.2196C8.09753 15.3748 9.84472 17.122 12 17.122C14.1552 17.122 15.9024 15.3748 15.9024 13.2196C15.9024 11.0643 14.1552 9.31714 12 9.31714C9.84472 9.31714 8.09753 11.0643 8.09753 13.2196Z" stroke="#1C252E" stroke-width="1.5"/>
<path opacity="0.4" d="M16.8778 9.31716C16.8778 9.85598 17.3146 10.2928 17.8534 10.2928C18.3922 10.2928 18.829 9.85598 18.829 9.31716C18.829 8.77835 18.3922 8.34155 17.8534 8.34155C17.3146 8.34155 16.8778 8.77835 16.8778 9.31716Z" fill="#1C252E"/>
</svg>
