<svg width="24" height="24" viewBox="0 0 24 24" fill="none" xmlns="http://www.w3.org/2000/svg">
<path opacity="0.4" d="M15.8049 13.2195C15.8049 15.3747 14.0577 17.1219 11.9025 17.1219C11.8297 17.1219 11.7573 17.1199 11.6854 17.116" stroke="#1C252E" stroke-width="1.5" stroke-linecap="round"/>
<path d="M14.3665 10.1933C13.6946 9.64558 12.8369 9.31714 11.9024 9.31714C9.74718 9.31714 8 11.0643 8 13.2196C8 14.1472 8.32365 14.9992 8.86419 15.6689" stroke="#1C252E" stroke-width="1.5" stroke-linecap="round"/>
<path d="M2.45679 22.2613L21.5477 3.17041" stroke="#1C252E" stroke-width="1.5" stroke-linecap="round"/>
<path opacity="0.4" d="M20.7934 19.6708L20.1539 19.2789H20.1539L20.7934 19.6708ZM19.1829 21.2812L18.791 20.6417V20.6417L19.1829 21.2812ZM21.7187 7.08107C21.5226 6.71618 21.0679 6.57931 20.703 6.77535C20.3381 6.9714 20.2013 7.42612 20.3973 7.791L21.058 7.43604L21.7187 7.08107ZM7.04727 21.1966C6.63388 21.1705 6.2776 21.4845 6.25149 21.8978C6.22538 22.3112 6.53934 22.6675 6.95273 22.6936L7 21.9451L7.04727 21.1966ZM21.5122 9.24744H20.7622V13.7074H21.5122H22.2622V9.24744H21.5122ZM13.2195 22V21.25H10.2927V22V22.75H13.2195V22ZM21.5122 13.7074H20.7622C20.7622 15.3187 20.7614 16.4745 20.6757 17.3758C20.5911 18.2659 20.429 18.83 20.1539 19.2789L20.7934 19.6708L21.4328 20.0626C21.8766 19.3385 22.0739 18.5177 22.169 17.5178C22.263 16.529 22.2622 15.2896 22.2622 13.7074H21.5122ZM13.2195 22V22.75C14.8018 22.75 16.0412 22.7508 17.0299 22.6568C18.0298 22.5618 18.8506 22.3645 19.5748 21.9207L19.1829 21.2812L18.791 20.6417C18.3422 20.9168 17.7781 21.0789 16.8879 21.1636C15.9867 21.2493 14.8308 21.25 13.2195 21.25V22ZM20.7934 19.6708L20.1539 19.2789C19.8135 19.8344 19.3465 20.3014 18.791 20.6417L19.1829 21.2812L19.5748 21.9207C20.3321 21.4566 20.9688 20.8199 21.4328 20.0626L20.7934 19.6708ZM21.5122 9.24744H22.2622C22.2622 8.46533 22.0657 7.72691 21.7187 7.08107L21.058 7.43604L20.3973 7.791C20.6299 8.22396 20.7622 8.71914 20.7622 9.24744H21.5122ZM10.2927 22V21.25C8.92858 21.25 7.88807 21.2497 7.04727 21.1966L7 21.9451L6.95273 22.6936C7.85147 22.7504 8.94631 22.75 10.2927 22.75V22Z" fill="#1C252E"/>
<path d="M2.71883 19.6707L3.35831 19.2789H3.35831L2.71883 19.6707ZM3.11383 21.3059C3.42176 21.583 3.89597 21.5579 4.17301 21.25C4.45005 20.9421 4.42501 20.4678 4.11708 20.1908L3.61545 20.7484L3.11383 21.3059ZM18.7416 6.35228C19.1304 6.495 19.5614 6.29546 19.7041 5.90661C19.8468 5.51776 19.6473 5.08684 19.2584 4.94413L19 5.64821L18.7416 6.35228ZM2 13.7073H2.75V9.24739H2H1.25V13.7073H2ZM16.1463 3.70732H15.3963V3.88153H16.1463H16.8963V3.70732H16.1463ZM7.36585 3.88153H8.11585V3.70732H7.36585H6.61585V3.88153H7.36585ZM7.36585 3.70732H8.11585C8.11585 3.17861 8.54446 2.75 9.07317 2.75V2V1.25C7.71603 1.25 6.61585 2.35018 6.61585 3.70732H7.36585ZM14.439 2V2.75C14.9677 2.75 15.3963 3.17861 15.3963 3.70732H16.1463H16.8963C16.8963 2.35018 15.7962 1.25 14.439 1.25V2ZM5.83275 5.41463V6.16463C7.09367 6.16463 8.11585 5.14246 8.11585 3.88153H7.36585H6.61585C6.61585 4.31403 6.26525 4.66463 5.83275 4.66463V5.41463ZM2 13.7073H1.25C1.25 15.2896 1.24921 16.529 1.34322 17.5177C1.43829 18.5176 1.63558 19.3384 2.07935 20.0626L2.71883 19.6707L3.35831 19.2789C3.08325 18.83 2.92112 18.2659 2.83649 17.3757C2.75079 16.4745 2.75 15.3186 2.75 13.7073H2ZM17.6794 5.41463V4.66463C17.2469 4.66463 16.8963 4.31403 16.8963 3.88153H16.1463H15.3963C15.3963 5.14246 16.4185 6.16463 17.6794 6.16463V5.41463ZM2 9.24739H2.75C2.75 7.54483 4.1302 6.16463 5.83275 6.16463V5.41463V4.66463C3.30177 4.66463 1.25 6.7164 1.25 9.24739H2ZM9.07317 2V2.75H14.439V2V1.25H9.07317V2ZM3.61545 20.7484L4.11708 20.1908C3.82253 19.9258 3.56669 19.6189 3.35831 19.2789L2.71883 19.6707L2.07935 20.0626C2.36345 20.5262 2.71226 20.9446 3.11383 21.3059L3.61545 20.7484ZM19 5.64821L19.2584 4.94413C18.7652 4.7631 18.233 4.66463 17.6794 4.66463V5.41463V6.16463C18.0541 6.16463 18.4115 6.23112 18.7416 6.35228L19 5.64821Z" fill="#1C252E"/>
</svg>
