<svg width="24" height="24" viewBox="0 0 24 24" fill="none" xmlns="http://www.w3.org/2000/svg">
<path d="M22 21.25C22.4142 21.25 22.75 21.5858 22.75 22C22.75 22.4142 22.4142 22.75 22 22.75H2C1.58579 22.75 1.25 22.4142 1.25 22C1.25 21.5858 1.58579 21.25 2 21.25H22Z" fill="#1C252E"/>
<path d="M20.25 6C20.25 4.99287 20.0206 4.19725 19.5576 3.66113C19.1124 3.1456 18.3464 2.75 17 2.75H7C5.65358 2.75 4.8876 3.1456 4.44238 3.66113C3.97941 4.19725 3.75 4.99287 3.75 6V21.25H20.25V6ZM21.75 22C21.75 22.4142 21.4142 22.75 21 22.75H3C2.58579 22.75 2.25 22.4142 2.25 22V6C2.25 4.79713 2.52059 3.59204 3.30762 2.68066C4.11241 1.74895 5.34667 1.25 7 1.25H17C18.6533 1.25 19.8876 1.74895 20.6924 2.68066C21.4794 3.59204 21.75 4.79713 21.75 6V22Z" fill="#1C252E"/>
<path d="M10 15.75C10.4142 15.75 10.75 16.0858 10.75 16.5C10.75 16.9142 10.4142 17.25 10 17.25H7C6.58579 17.25 6.25 16.9142 6.25 16.5C6.25 16.0858 6.58579 15.75 7 15.75H10Z" fill="#1C252E"/>
<path d="M17 15.75C17.4142 15.75 17.75 16.0858 17.75 16.5C17.75 16.9142 17.4142 17.25 17 17.25H14C13.5858 17.25 13.25 16.9142 13.25 16.5C13.25 16.0858 13.5858 15.75 14 15.75H17Z" fill="#1C252E"/>
<path d="M10 11.25C10.4142 11.25 10.75 11.5858 10.75 12C10.75 12.4142 10.4142 12.75 10 12.75H7C6.58579 12.75 6.25 12.4142 6.25 12C6.25 11.5858 6.58579 11.25 7 11.25H10Z" fill="#1C252E"/>
<path d="M17 11.25C17.4142 11.25 17.75 11.5858 17.75 12C17.75 12.4142 17.4142 12.75 17 12.75H14C13.5858 12.75 13.25 12.4142 13.25 12C13.25 11.5858 13.5858 11.25 14 11.25H17Z" fill="#1C252E"/>
<path d="M10 6.75C10.4142 6.75 10.75 7.08579 10.75 7.5C10.75 7.91421 10.4142 8.25 10 8.25H7C6.58579 8.25 6.25 7.91421 6.25 7.5C6.25 7.08579 6.58579 6.75 7 6.75H10Z" fill="#1C252E"/>
<path d="M17 6.75C17.4142 6.75 17.75 7.08579 17.75 7.5C17.75 7.91421 17.4142 8.25 17 8.25H14C13.5858 8.25 13.25 7.91421 13.25 7.5C13.25 7.08579 13.5858 6.75 14 6.75H17Z" fill="#1C252E"/>
</svg>
