<svg width="24" height="24" viewBox="0 0 24 24" fill="none" xmlns="http://www.w3.org/2000/svg">
<path d="M23 21.25C23.4142 21.25 23.75 21.5858 23.75 22C23.75 22.4142 23.4142 22.75 23 22.75H1C0.585786 22.75 0.25 22.4142 0.25 22C0.25 21.5858 0.585786 21.25 1 21.25H23Z" fill="#1C252E"/>
<path d="M19.0293 22.0099V17.55C19.0293 17.1358 19.3651 16.8 19.7793 16.8C20.1935 16.8 20.5293 17.1358 20.5293 17.55V22.0099C20.5293 22.4242 20.1935 22.7599 19.7793 22.7599C19.3651 22.7599 19.0293 22.4242 19.0293 22.0099Z" fill="#1C252E"/>
<path d="M21.25 13.0902C21.25 12.2845 20.6055 11.6401 19.7998 11.64C18.994 11.64 18.3496 12.2844 18.3496 13.0902V15.3597C18.3496 16.1655 18.994 16.8099 19.7998 16.8099C20.6055 16.8098 21.25 16.1655 21.25 15.3597V13.0902ZM22.75 15.3597C22.75 16.9939 21.4339 18.3098 19.7998 18.3099C18.1656 18.3099 16.8496 16.994 16.8496 15.3597V13.0902C16.8496 11.456 18.1656 10.14 19.7998 10.14C21.4339 10.1401 22.75 11.4561 22.75 13.0902V15.3597Z" fill="#1C252E"/>
<path d="M13.5498 22.0002V6.03052C13.5498 5.13831 13.3299 4.60536 13.0215 4.29224C12.715 3.98131 12.1956 3.76001 11.3193 3.76001H5.08984C4.21343 3.76001 3.69111 3.9819 3.38184 4.29419C3.07122 4.60791 2.84961 5.1402 2.84961 6.03052V22.0002C2.84948 22.4143 2.51374 22.7502 2.09961 22.7502C1.68548 22.7502 1.34974 22.4143 1.34961 22.0002V6.03052C1.34961 4.91083 1.62852 3.93232 2.31543 3.23853C3.00369 2.5434 3.9764 2.26001 5.08984 2.26001H11.3193C12.4326 2.26001 13.4038 2.54332 14.0898 3.2395C14.7739 3.93389 15.0498 4.91273 15.0498 6.03052V22.0002C15.0497 22.4143 14.7139 22.7501 14.2998 22.7502C13.8857 22.7502 13.5499 22.4143 13.5498 22.0002Z" fill="#1C252E"/>
<path d="M10.751 7.5C11.1651 7.5001 11.501 7.83585 11.501 8.25C11.501 8.66415 11.1651 8.9999 10.751 9H5.80078C5.38657 9 5.05078 8.66421 5.05078 8.25C5.05078 7.83579 5.38657 7.5 5.80078 7.5H10.751Z" fill="#1C252E"/>
<path d="M10.751 11.25C11.1651 11.2501 11.501 11.5858 11.501 12C11.501 12.4142 11.1651 12.7499 10.751 12.75H5.80078C5.38657 12.75 5.05078 12.4142 5.05078 12C5.05078 11.5858 5.38657 11.25 5.80078 11.25H10.751Z" fill="#1C252E"/>
<path d="M7.5 22V18.25C7.5 17.8358 7.83579 17.5 8.25 17.5C8.66421 17.5 9 17.8358 9 18.25V22C9 22.4142 8.66421 22.75 8.25 22.75C7.83579 22.75 7.5 22.4142 7.5 22Z" fill="#1C252E"/>
</svg>
