<svg width="24" height="24" viewBox="0 0 24 24" fill="none" xmlns="http://www.w3.org/2000/svg">
<path d="M22 21.25C22.4142 21.25 22.75 21.5858 22.75 22C22.75 22.4142 22.4142 22.75 22 22.75H2C1.58579 22.75 1.25 22.4142 1.25 22C1.25 21.5858 1.58579 21.25 2 21.25H22Z" fill="#1C252E"/>
<path d="M20.249 9.97044C20.249 9.57888 20.0735 9.21898 19.7695 8.98314L19.7686 8.98216L12.7725 3.54466C12.3099 3.19009 11.6767 3.19394 11.2295 3.54173L4.23438 8.98802C3.92761 9.23098 3.74902 9.59797 3.74902 9.97044V9.97337L3.69922 22.0027L2.19922 21.9968L2.24902 9.96654C2.25011 9.12044 2.65155 8.32859 3.30371 7.81224L3.30859 7.80834L10.3086 2.35814L10.499 2.2224C11.473 1.58928 12.7504 1.63784 13.6855 2.35521L13.6895 2.35814L20.6895 7.79759H20.6885C21.3644 8.32176 21.749 9.12209 21.749 9.97044V21.9997H20.249V9.97044Z" fill="#1C252E"/>
<path d="M13.75 18.5C13.75 18.0842 13.4158 17.75 13 17.75H11C10.5842 17.75 10.25 18.0842 10.25 18.5V21.25H13.75V18.5ZM15.25 22C15.25 22.4142 14.9142 22.75 14.5 22.75H9.5C9.08579 22.75 8.75 22.4142 8.75 22V18.5C8.75 17.2558 9.75579 16.25 11 16.25H13C14.2442 16.25 15.25 17.2558 15.25 18.5V22Z" fill="#1C252E"/>
<path d="M9.75 11.25C9.75 11.1142 9.63579 11 9.5 11H7.5C7.36421 11 7.25 11.1142 7.25 11.25V12.75C7.25 12.8858 7.36421 13 7.5 13H9.5C9.63579 13 9.75 12.8858 9.75 12.75V11.25ZM11.25 12.75C11.25 13.7142 10.4642 14.5 9.5 14.5H7.5C6.53579 14.5 5.75 13.7142 5.75 12.75V11.25C5.75 10.2858 6.53579 9.5 7.5 9.5H9.5C10.4642 9.5 11.25 10.2858 11.25 11.25V12.75Z" fill="#1C252E"/>
<path d="M16.75 11.25C16.75 11.1142 16.6358 11 16.5 11H14.5C14.3642 11 14.25 11.1142 14.25 11.25V12.75C14.25 12.8858 14.3642 13 14.5 13H16.5C16.6358 13 16.75 12.8858 16.75 12.75V11.25ZM18.25 12.75C18.25 13.7142 17.4642 14.5 16.5 14.5H14.5C13.5358 14.5 12.75 13.7142 12.75 12.75V11.25C12.75 10.2858 13.5358 9.5 14.5 9.5H16.5C17.4642 9.5 18.25 10.2858 18.25 11.25V12.75Z" fill="#1C252E"/>
<path d="M18.9707 3.25L19.0469 3.25391C19.4222 3.29198 19.7167 3.60691 19.7207 3.99219L19.75 6.99219C19.7541 7.40638 19.422 7.74586 19.0078 7.75C18.5937 7.75414 18.2543 7.42186 18.25 7.00781L18.2275 4.75H14.5703C14.1561 4.75 13.8203 4.41421 13.8203 4C13.8203 3.58579 14.1561 3.25 14.5703 3.25H18.9707Z" fill="#1C252E"/>
</svg>
