<svg width="24" height="24" viewBox="0 0 24 24" fill="none" xmlns="http://www.w3.org/2000/svg">
<path d="M21.2402 6.63885C21.231 6.61182 21.2159 6.58002 21.1943 6.54803C21.1727 6.51596 21.1486 6.4895 21.127 6.47089C21.1166 6.46201 21.1081 6.45541 21.1016 6.45135C21.0963 6.44807 21.0928 6.44692 21.0918 6.44647L12.0918 2.84686C12.1056 2.85236 12.1035 2.84947 12.0811 2.84589C12.06 2.84256 12.0317 2.84003 12 2.84003C11.9683 2.84003 11.94 2.84256 11.9189 2.84589C11.8965 2.84947 11.8944 2.85236 11.9082 2.84686L2.9082 6.44647C2.9072 6.44692 2.90371 6.44807 2.89844 6.45135C2.89192 6.45541 2.88341 6.46201 2.87305 6.47089C2.85138 6.4895 2.82728 6.51596 2.80566 6.54803C2.78411 6.58002 2.76895 6.61182 2.75977 6.63885C2.75119 6.66416 2.75008 6.67829 2.75 6.67987V10.0002C2.7501 10.1359 2.86427 10.2502 3 10.2502H21C21.1357 10.2502 21.2499 10.1359 21.25 10.0002V6.67987C21.2499 6.67829 21.2488 6.66416 21.2402 6.63885ZM22.75 10.0002C22.7499 10.9643 21.9642 11.7502 21 11.7502H3C2.03585 11.7502 1.2501 10.9643 1.25 10.0002V6.67987C1.25003 6.31553 1.38282 5.97428 1.56152 5.70917C1.74049 5.44371 2.0086 5.19108 2.35156 5.05389L11.3516 1.45331C11.5687 1.36649 11.8063 1.34003 12 1.34003C12.1937 1.34003 12.4313 1.36649 12.6484 1.45331L21.6484 5.05389C21.9914 5.19108 22.2595 5.44371 22.4385 5.70917C22.6172 5.97428 22.75 6.31553 22.75 6.67987V10.0002Z" fill="#1C252E"/>
<path d="M21.25 19C21.25 18.8642 21.1358 18.75 21 18.75H3C2.86421 18.75 2.75 18.8642 2.75 19V21.25H21.25V19ZM22.75 22C22.75 22.4142 22.4142 22.75 22 22.75H2C1.58579 22.75 1.25 22.4142 1.25 22V19C1.25 18.0358 2.03579 17.25 3 17.25H21C21.9642 17.25 22.75 18.0358 22.75 19V22Z" fill="#1C252E"/>
<path d="M3.25 18V11C3.25 10.5858 3.58579 10.25 4 10.25C4.41421 10.25 4.75 10.5858 4.75 11V18C4.75 18.4142 4.41421 18.75 4 18.75C3.58579 18.75 3.25 18.4142 3.25 18Z" fill="#1C252E"/>
<path d="M7.25 18V11C7.25 10.5858 7.58579 10.25 8 10.25C8.41421 10.25 8.75 10.5858 8.75 11V18C8.75 18.4142 8.41421 18.75 8 18.75C7.58579 18.75 7.25 18.4142 7.25 18Z" fill="#1C252E"/>
<path d="M11.25 18V11C11.25 10.5858 11.5858 10.25 12 10.25C12.4142 10.25 12.75 10.5858 12.75 11V18C12.75 18.4142 12.4142 18.75 12 18.75C11.5858 18.75 11.25 18.4142 11.25 18Z" fill="#1C252E"/>
<path d="M15.25 18V11C15.25 10.5858 15.5858 10.25 16 10.25C16.4142 10.25 16.75 10.5858 16.75 11V18C16.75 18.4142 16.4142 18.75 16 18.75C15.5858 18.75 15.25 18.4142 15.25 18Z" fill="#1C252E"/>
<path d="M19.25 18V11C19.25 10.5858 19.5858 10.25 20 10.25C20.4142 10.25 20.75 10.5858 20.75 11V18C20.75 18.4142 20.4142 18.75 20 18.75C19.5858 18.75 19.25 18.4142 19.25 18Z" fill="#1C252E"/>
<path d="M23 21.25C23.4142 21.25 23.75 21.5858 23.75 22C23.75 22.4142 23.4142 22.75 23 22.75H1C0.585786 22.75 0.25 22.4142 0.25 22C0.25 21.5858 0.585786 21.25 1 21.25H23Z" fill="#1C252E"/>
<path d="M12.75 7C12.75 6.58579 12.4142 6.25 12 6.25C11.5858 6.25 11.25 6.58579 11.25 7C11.25 7.41421 11.5858 7.75 12 7.75C12.4142 7.75 12.75 7.41421 12.75 7ZM14.25 7C14.25 8.24264 13.2426 9.25 12 9.25C10.7574 9.25 9.75 8.24264 9.75 7C9.75 5.75736 10.7574 4.75 12 4.75C13.2426 4.75 14.25 5.75736 14.25 7Z" fill="#1C252E"/>
</svg>
