<svg width="24" height="24" viewBox="0 0 24 24" fill="none" xmlns="http://www.w3.org/2000/svg">
<path d="M22 21.25C22.4142 21.25 22.75 21.5858 22.75 22C22.75 22.4142 22.4142 22.75 22 22.75H2C1.58579 22.75 1.25 22.4142 1.25 22C1.25 21.5858 1.58579 21.25 2 21.25H22Z" fill="#1C252E"/>
<path d="M20.25 6C20.25 4.99287 20.0206 4.19725 19.5576 3.66113C19.1124 3.1456 18.3464 2.75 17 2.75H7C5.65358 2.75 4.8876 3.1456 4.44238 3.66113C3.97941 4.19725 3.75 4.99287 3.75 6V21.25H20.25V6ZM21.75 22C21.75 22.4142 21.4142 22.75 21 22.75H3C2.58579 22.75 2.25 22.4142 2.25 22V6C2.25 4.79713 2.52059 3.59204 3.30762 2.68066C4.11241 1.74895 5.34667 1.25 7 1.25H17C18.6533 1.25 19.8876 1.74895 20.6924 2.68066C21.4794 3.59204 21.75 4.79713 21.75 6V22Z" fill="#1C252E"/>
<path d="M14.0605 14.25C14.9872 14.2502 15.7507 14.9989 15.7402 15.9404V22C15.7402 22.4142 15.4044 22.75 14.9902 22.75H8.99023C8.57602 22.75 8.24023 22.4142 8.24023 22V15.9404C8.24023 15.0011 9.01162 14.25 9.93066 14.25H14.0605ZM9.74023 21.25H14.2402V15.9258C14.242 15.8341 14.169 15.7502 14.0605 15.75H9.93066C9.8297 15.75 9.74023 15.8398 9.74023 15.9404V21.25Z" fill="#1C252E"/>
<path d="M11.25 11V9.25H9.5C9.08579 9.25 8.75 8.91421 8.75 8.5C8.75 8.08579 9.08579 7.75 9.5 7.75H11.25V6C11.25 5.58579 11.5858 5.25 12 5.25C12.4142 5.25 12.75 5.58579 12.75 6V7.75H14.5C14.9142 7.75 15.25 8.08579 15.25 8.5C15.25 8.91421 14.9142 9.25 14.5 9.25H12.75V11C12.75 11.4142 12.4142 11.75 12 11.75C11.5858 11.75 11.25 11.4142 11.25 11Z" fill="#1C252E"/>
</svg>
