<svg width="24" height="24" viewBox="0 0 24 24" fill="none" xmlns="http://www.w3.org/2000/svg">
<path d="M22 21.25C22.4142 21.25 22.75 21.5858 22.75 22C22.75 22.4142 22.4142 22.75 22 22.75H2C1.58579 22.75 1.25 22.4142 1.25 22C1.25 21.5858 1.58579 21.25 2 21.25H22Z" fill="#1C252E"/>
<path d="M16.7217 1.3037C16.9527 1.21135 17.2149 1.23941 17.4209 1.3789C17.6268 1.51844 17.75 1.75123 17.75 1.99999V4.99999C17.75 5.30667 17.5631 5.58238 17.2783 5.69628C15.4996 6.40771 13.5004 6.40771 11.7217 5.69628C11.4369 5.58238 11.25 5.30667 11.25 4.99999V1.99999C11.25 1.75123 11.3732 1.51844 11.5791 1.3789C11.7851 1.23941 12.0473 1.21135 12.2783 1.3037C13.6995 1.87218 15.3005 1.87218 16.7217 1.3037ZM16.25 3.02245C15.1009 3.29802 13.8991 3.29802 12.75 3.02245V4.46776C13.8884 4.81527 15.1116 4.81527 16.25 4.46776V3.02245Z" fill="#1C252E"/>
<path d="M11.25 8V5C11.25 4.58579 11.5858 4.25 12 4.25C12.4142 4.25 12.75 4.58579 12.75 5V8C12.75 8.41421 12.4142 8.75 12 8.75C11.5858 8.75 11.25 8.41421 11.25 8Z" fill="#1C252E"/>
<path d="M19.25 11C19.25 10.1156 19.0295 9.59001 18.7197 9.28027C18.41 8.97053 17.8844 8.75 17 8.75H7C6.11561 8.75 5.59001 8.97053 5.28027 9.28027C4.97053 9.59001 4.75 10.1156 4.75 11V21.25H19.25V11ZM20.75 22C20.75 22.4142 20.4142 22.75 20 22.75H4C3.58579 22.75 3.25 22.4142 3.25 22V11C3.25 9.88439 3.52947 8.90999 4.21973 8.21973C4.90999 7.52947 5.88439 7.25 7 7.25H17C18.1156 7.25 19.09 7.52947 19.7803 8.21973C20.4705 8.90999 20.75 9.88439 20.75 11V22Z" fill="#1C252E"/>
<path d="M19.4199 11.25C19.8341 11.25 20.1699 11.5858 20.1699 12C20.1699 12.4142 19.8341 12.75 19.4199 12.75H4.58008C4.16586 12.75 3.83008 12.4142 3.83008 12C3.83008 11.5858 4.16586 11.25 4.58008 11.25H19.4199Z" fill="#1C252E"/>
<path d="M8.74023 12V22H7.24023V12H8.74023Z" fill="#1C252E"/>
<path d="M12.7402 12V22H11.2402V12H12.7402Z" fill="#1C252E"/>
<path d="M16.7402 12V22H15.2402V12H16.7402Z" fill="#1C252E"/>
</svg>
