<svg width="24" height="24" viewBox="0 0 24 24" fill="none" xmlns="http://www.w3.org/2000/svg">
<path d="M9.84961 6V4.15039C9.84961 3.55267 9.70028 3.23856 9.53125 3.06934C9.36212 2.9002 9.04814 2.75003 8.4502 2.75H4.15039C3.55233 2.75 3.2385 2.90017 3.06934 3.06934C2.90017 3.2385 2.75 3.55233 2.75 4.15039V15.8496C2.75 16.4477 2.90017 16.7615 3.06934 16.9307C3.2385 17.0998 3.55233 17.25 4.15039 17.25H6.7002C7.11432 17.2501 7.4502 17.5858 7.4502 18C7.4502 18.4142 7.11432 18.7499 6.7002 18.75H4.15039C3.31845 18.75 2.55714 18.5396 2.00879 17.9912C1.46044 17.4429 1.25 16.6815 1.25 15.8496V4.15039C1.25 3.31845 1.46044 2.55714 2.00879 2.00879C2.55714 1.46044 3.31845 1.25 4.15039 1.25H8.4502C9.28206 1.25003 10.0435 1.46047 10.5918 2.00879C11.1399 2.55712 11.3496 3.31861 11.3496 4.15039V6C11.3496 6.41421 11.0138 6.75 10.5996 6.75C10.1856 6.7498 9.84961 6.41409 9.84961 6Z" fill="#1C252E"/>
<path d="M16.6191 8.41992C16.6191 7.72949 16.4483 7.3481 16.2363 7.13477C16.0252 6.9223 15.6472 6.75 14.959 6.75H9.11914C8.43096 6.75001 8.05 6.92265 7.83594 7.13672C7.62187 7.35079 7.44923 7.73174 7.44922 8.41992V19.5801C7.44923 20.2683 7.62187 20.6492 7.83594 20.8633C8.05 21.0773 8.43096 21.25 9.11914 21.25H14.959C15.6472 21.25 16.0252 21.0777 16.2363 20.8652C16.4483 20.6519 16.6191 20.2705 16.6191 19.5801V8.41992ZM18.1191 19.5801C18.1191 20.4995 17.8903 21.3287 17.2998 21.9229C16.7085 22.5177 15.8806 22.75 14.959 22.75H9.11914C8.19739 22.75 7.3688 22.5172 6.77539 21.9238C6.18199 21.3304 5.94923 20.5018 5.94922 19.5801V8.41992C5.94923 7.49817 6.18199 6.66958 6.77539 6.07617C7.3688 5.48277 8.19739 5.25001 9.11914 5.25H14.959C15.8806 5.25 16.7085 5.48233 17.2998 6.07715C17.8903 6.6713 18.1191 7.50052 18.1191 8.41992V19.5801Z" fill="#1C252E"/>
<path d="M21.25 15.8496V4.15039C21.25 3.55269 21.1007 3.23857 20.9316 3.06934C20.7625 2.9002 20.4485 2.75004 19.8506 2.75H15.5508C14.9527 2.75 14.6389 2.90019 14.4697 3.06934C14.3006 3.23849 14.1504 3.55231 14.1504 4.15039V6C14.1504 6.41421 13.8146 6.75 13.4004 6.75C12.9862 6.75 12.6504 6.41421 12.6504 6V4.15039C12.6504 3.31847 12.8608 2.55714 13.4092 2.00879C13.9575 1.46045 14.7189 1.25 15.5508 1.25H19.8506C20.6824 1.25004 21.4439 1.46049 21.9922 2.00879C22.5403 2.55712 22.75 3.31861 22.75 4.15039V15.8496C22.75 16.6814 22.5403 17.4429 21.9922 17.9912C21.4439 18.5395 20.6824 18.75 19.8506 18.75H17.3701C16.956 18.7499 16.6201 18.4141 16.6201 18C16.6201 17.5859 16.956 17.2501 17.3701 17.25H19.8506C20.4485 17.25 20.7625 17.0998 20.9316 16.9307C21.1007 16.7614 21.25 16.4473 21.25 15.8496Z" fill="#1C252E"/>
<path d="M14 10.25C14.4142 10.25 14.75 10.5858 14.75 11C14.75 11.4142 14.4142 11.75 14 11.75H10C9.58579 11.75 9.25 11.4142 9.25 11C9.25 10.5858 9.58579 10.25 10 10.25H14Z" fill="#1C252E"/>
<path d="M14 13.25C14.4142 13.25 14.75 13.5858 14.75 14C14.75 14.4142 14.4142 14.75 14 14.75H10C9.58579 14.75 9.25 14.4142 9.25 14C9.25 13.5858 9.58579 13.25 10 13.25H14Z" fill="#1C252E"/>
<path d="M11.25 22V19C11.25 18.5858 11.5858 18.25 12 18.25C12.4142 18.25 12.75 18.5858 12.75 19V22C12.75 22.4142 12.4142 22.75 12 22.75C11.5858 22.75 11.25 22.4142 11.25 22Z" fill="#1C252E"/>
</svg>
