<svg width="24" height="24" viewBox="0 0 24 24" fill="none" xmlns="http://www.w3.org/2000/svg">
<path d="M1.25 19V11C1.25 9.88439 1.52947 8.90999 2.21973 8.21973C2.90999 7.52947 3.88439 7.25 5 7.25H10C10.4142 7.25 10.75 7.58579 10.75 8V19C10.75 19.8844 10.9705 20.41 11.2803 20.7197C11.59 21.0295 12.1156 21.25 13 21.25C13.4142 21.25 13.75 21.5858 13.75 22C13.75 22.4142 13.4142 22.75 13 22.75H5C3.88439 22.75 2.90999 22.4705 2.21973 21.7803C1.52947 21.09 1.25 20.1156 1.25 19ZM2.75 19C2.75 19.8844 2.97053 20.41 3.28027 20.7197C3.59001 21.0295 4.11561 21.25 5 21.25H9.80176C9.41492 20.6254 9.25 19.8544 9.25 19V8.75H5C4.11561 8.75 3.59001 8.97053 3.28027 9.28027C2.97053 9.59001 2.75 10.1156 2.75 11V19Z" fill="#1C252E"/>
<path d="M9.25 5C9.25 4.91635 9.25279 4.83303 9.25586 4.75H7C6.31421 4.75 5.75 5.31421 5.75 6V7.25H9.25V5ZM10.75 8C10.75 8.41421 10.4142 8.75 10 8.75H5C4.58579 8.75 4.25 8.41421 4.25 8V6C4.25 4.48579 5.48579 3.25 7 3.25H10.1104C10.3432 3.25011 10.5632 3.35829 10.7051 3.54297C10.847 3.72773 10.895 3.96826 10.835 4.19336C10.7777 4.40793 10.75 4.66711 10.75 5V8Z" fill="#1C252E"/>
<path d="M13.25 13V8C13.25 7.58579 13.5858 7.25 14 7.25C14.4142 7.25 14.75 7.58579 14.75 8V13C14.75 13.4142 14.4142 13.75 14 13.75C13.5858 13.75 13.25 13.4142 13.25 13Z" fill="#1C252E"/>
<path d="M17.25 13V8C17.25 7.58579 17.5858 7.25 18 7.25C18.4142 7.25 18.75 7.58579 18.75 8V13C18.75 13.4142 18.4142 13.75 18 13.75C17.5858 13.75 17.25 13.4142 17.25 13Z" fill="#1C252E"/>
<path d="M17.25 18C17.25 17.8642 17.1358 17.75 17 17.75H15C14.8642 17.75 14.75 17.8642 14.75 18V21.25H17.25V18ZM18.75 22C18.75 22.4142 18.4142 22.75 18 22.75H14C13.5858 22.75 13.25 22.4142 13.25 22V18C13.25 17.0358 14.0358 16.25 15 16.25H17C17.9642 16.25 18.75 17.0358 18.75 18V22Z" fill="#1C252E"/>
<path d="M5.25 17V13C5.25 12.5858 5.58579 12.25 6 12.25C6.41421 12.25 6.75 12.5858 6.75 13V17C6.75 17.4142 6.41421 17.75 6 17.75C5.58579 17.75 5.25 17.4142 5.25 17Z" fill="#1C252E"/>
<path d="M21.25 5C21.25 4.11561 21.0295 3.59001 20.7197 3.28027C20.41 2.97053 19.8844 2.75 19 2.75H13C12.1156 2.75 11.59 2.97053 11.2803 3.28027C10.9705 3.59001 10.75 4.11561 10.75 5V19C10.75 19.8844 10.9705 20.41 11.2803 20.7197C11.59 21.0295 12.1156 21.25 13 21.25H19C19.8844 21.25 20.41 21.0295 20.7197 20.7197C21.0295 20.41 21.25 19.8844 21.25 19V5ZM22.75 19C22.75 20.1156 22.4705 21.09 21.7803 21.7803C21.09 22.4705 20.1156 22.75 19 22.75H13C11.8844 22.75 10.91 22.4705 10.2197 21.7803C9.52947 21.09 9.25 20.1156 9.25 19V5C9.25 3.88439 9.52947 2.90999 10.2197 2.21973C10.91 1.52947 11.8844 1.25 13 1.25H19C20.1156 1.25 21.09 1.52947 21.7803 2.21973C22.4705 2.90999 22.75 3.88439 22.75 5V19Z" fill="#1C252E"/>
</svg>
