<svg width="24" height="24" viewBox="0 0 24 24" fill="none" xmlns="http://www.w3.org/2000/svg">
<path d="M22 21.25C22.4142 21.25 22.75 21.5858 22.75 22C22.75 22.4142 22.4142 22.75 22 22.75H2C1.58579 22.75 1.25 22.4142 1.25 22C1.25 21.5858 1.58579 21.25 2 21.25H22Z" fill="#1C252E"/>
<path d="M7.47168 2.11828C8.39458 1.49842 9.60542 1.49744 10.5283 2.1173L10.5273 2.11828L14.5234 4.78429L14.6641 4.8839C15.3502 5.4016 15.7498 6.2076 15.75 7.06945L15.7598 21.9894C15.76 22.4031 15.4254 22.7394 15.0117 22.7403L3.01172 22.7599C2.81276 22.7602 2.62136 22.6816 2.48047 22.5411C2.33965 22.4006 2.26 22.2098 2.25977 22.0109L2.25 7.07043L2.25586 6.89757C2.31012 6.03938 2.7666 5.26155 3.47168 4.78722L3.47363 4.78625L7.47168 2.11828ZM9.69141 3.36242C9.27447 3.08259 8.72553 3.08259 8.30859 3.36242L8.30664 3.36339L4.30762 6.03136L4.30859 6.03234C3.96067 6.26644 3.75 6.65622 3.75 7.07043L3.75879 21.2579L14.2588 21.2413L14.25 7.07043L14.2402 6.91418C14.1961 6.55583 14.0006 6.23635 13.6963 6.03527L9.69336 3.36339L9.69141 3.36242Z" fill="#1C252E"/>
<path d="M19.2305 22.0098V18C19.2305 17.5858 19.5663 17.25 19.9805 17.25C20.3947 17.25 20.7305 17.5858 20.7305 18V22.0098C20.7305 22.424 20.3947 22.7598 19.9805 22.7598C19.5663 22.7598 19.2305 22.424 19.2305 22.0098Z" fill="#1C252E"/>
<path d="M21.25 14C21.25 13.3142 20.6858 12.75 20 12.75C19.3142 12.75 18.75 13.3142 18.75 14V16C18.75 16.6858 19.3142 17.25 20 17.25C20.6858 17.25 21.25 16.6858 21.25 16V14ZM22.75 16C22.75 17.5142 21.5142 18.75 20 18.75C18.4858 18.75 17.25 17.5142 17.25 16V14C17.25 12.4858 18.4858 11.25 20 11.25C21.5142 11.25 22.75 12.4858 22.75 14V16Z" fill="#1C252E"/>
<path d="M15 13.25C15.4142 13.25 15.75 13.5858 15.75 14C15.75 14.4142 15.4142 14.75 15 14.75H3C2.58579 14.75 2.25 14.4142 2.25 14C2.25 13.5858 2.58579 13.25 3 13.25H15Z" fill="#1C252E"/>
<path d="M8.25 22V18.25C8.25 17.8358 8.58579 17.5 9 17.5C9.41421 17.5 9.75 17.8358 9.75 18.25V22C9.75 22.4142 9.41421 22.75 9 22.75C8.58579 22.75 8.25 22.4142 8.25 22Z" fill="#1C252E"/>
<path d="M9.75 9C9.75 8.58579 9.41421 8.25 9 8.25C8.58579 8.25 8.25 8.58579 8.25 9C8.25 9.41421 8.58579 9.75 9 9.75C9.41421 9.75 9.75 9.41421 9.75 9ZM11.25 9C11.25 10.2426 10.2426 11.25 9 11.25C7.75736 11.25 6.75 10.2426 6.75 9C6.75 7.75736 7.75736 6.75 9 6.75C10.2426 6.75 11.25 7.75736 11.25 9Z" fill="#1C252E"/>
</svg>
