<svg width="24" height="24" viewBox="0 0 24 24" fill="none" xmlns="http://www.w3.org/2000/svg">
<path d="M1.2207 5.09057C1.2207 3.6003 1.78313 2.36117 2.85449 1.70873C3.92226 1.05856 5.29086 1.11536 6.64062 1.77612L6.6416 1.77709L11.0811 3.95678H11.0801C11.7124 4.26637 12.2465 4.80643 12.6201 5.39916C12.9933 5.99135 13.2509 6.70563 13.251 7.40991V21.9998C13.251 22.4139 12.9151 22.7496 12.501 22.7498H4.08105C2.52102 22.7498 1.22088 21.4984 1.2207 19.9304V5.09057ZM2.7207 19.9304C2.72088 20.6421 3.32131 21.2498 4.08105 21.2498H11.751V7.40991C11.7509 7.05442 11.6131 6.61404 11.3516 6.19897C11.0901 5.7842 10.7485 5.46387 10.4209 5.30346H10.4199L5.98047 3.12377C4.94068 2.61486 4.13945 2.68191 3.63477 2.98901C3.13372 3.2941 2.7207 3.9609 2.7207 5.09057V19.9304Z" fill="#1C252E"/>
<path d="M21.2197 14.9933C21.2142 14.9604 21.211 14.9271 21.21 14.8937C21.1845 14.08 20.9511 13.6256 20.6699 13.342C20.3719 13.0414 19.9322 12.8434 19.3389 12.7131L19.3379 12.7121L17.3076 12.2619H17.3057L13.25 11.3517V21.2502H18.8096C19.7885 21.2502 20.3472 21.0221 20.6699 20.6994C20.9924 20.3767 21.2197 19.8186 21.2197 18.84V14.9933ZM22.7197 18.84C22.7197 20.0209 22.4476 21.0426 21.7305 21.7599C21.0131 22.4773 19.9906 22.7502 18.8096 22.7502H12.5C12.0858 22.7502 11.75 22.4144 11.75 22.0002V10.4201C11.75 10.1938 11.8524 9.97949 12.0283 9.83709C12.2042 9.69481 12.435 9.63962 12.6562 9.6867L13.126 9.78631L13.1338 9.78826L17.6338 10.798H17.6328L19.6602 11.2472C20.3868 11.4069 21.1484 11.6935 21.7354 12.2853C22.3391 12.8942 22.6754 13.7406 22.71 14.8469C22.7184 14.9384 22.7197 15.017 22.7197 15.0597V18.84Z" fill="#1C252E"/>
<path d="M8.96973 8.25011C9.38394 8.25011 9.71973 8.58589 9.71973 9.00011C9.71973 9.41432 9.38394 9.75011 8.96973 9.75011H5.5C5.08579 9.75011 4.75 9.41432 4.75 9.00011C4.75 8.58589 5.08579 8.25011 5.5 8.25011H8.96973Z" fill="#1C252E"/>
<path d="M8.96973 12.2501C9.38394 12.2501 9.71973 12.5859 9.71973 13.0001C9.71973 13.4143 9.38394 13.7501 8.96973 13.7501H5.5C5.08579 13.7501 4.75 13.4143 4.75 13.0001C4.75 12.5859 5.08579 12.2501 5.5 12.2501H8.96973Z" fill="#1C252E"/>
<path d="M16.7207 12.1305L13.7207 11.4566V14.7506C13.721 15.5761 14.3951 16.2506 15.2207 16.2506C16.0463 16.2506 16.7204 15.5761 16.7207 14.7506V12.1305ZM18.2207 14.7506C18.2204 16.4046 16.8748 17.7506 15.2207 17.7506C13.5666 17.7506 12.221 16.4046 12.2207 14.7506V10.5201C12.2207 10.2923 12.3241 10.0765 12.502 9.93417C12.6797 9.79195 12.9126 9.73883 13.1348 9.78866L17.6348 10.7984C17.9771 10.8753 18.2206 11.179 18.2207 11.5299V14.7506Z" fill="#1C252E"/>
<path d="M17.001 10.9451C17.1783 10.8028 17.4109 10.7486 17.6328 10.7977L19.6631 11.2479L19.6621 11.2489C20.3885 11.4085 21.1486 11.6943 21.7354 12.286C22.3391 12.8948 22.6754 13.7404 22.71 14.8465C22.7106 14.867 22.711 14.8876 22.71 14.908C22.6299 16.4825 21.3245 17.7498 19.7207 17.7498C18.0665 17.7498 16.7207 16.404 16.7207 14.7498V11.5301C16.7207 11.3027 16.8237 11.0875 17.001 10.9451ZM18.2207 14.7498C18.2207 15.5756 18.8949 16.2498 19.7207 16.2498C20.507 16.2498 21.1535 15.633 21.208 14.8612C21.1774 14.0677 20.9484 13.6214 20.6709 13.3416C20.3729 13.0411 19.9331 12.8431 19.3398 12.7127H19.3389L18.2207 12.4647V14.7498Z" fill="#1C252E"/>
</svg>
