<svg width="24" height="24" viewBox="0 0 24 24" fill="none" xmlns="http://www.w3.org/2000/svg">
<path d="M22 21.25C22.4142 21.25 22.75 21.5858 22.75 22C22.75 22.4142 22.4142 22.75 22 22.75H2C1.58579 22.75 1.25 22.4142 1.25 22C1.25 21.5858 1.58579 21.25 2 21.25H22Z" fill="#1C252E"/>
<path d="M20.249 9.97044C20.249 9.57888 20.0735 9.21898 19.7695 8.98314L19.7686 8.98216L12.7725 3.54466C12.3099 3.19009 11.6767 3.19394 11.2295 3.54173L4.23438 8.98802C3.92762 9.23098 3.74902 9.59796 3.74902 9.97044V9.97337L3.69922 22.0027L2.19922 21.9968L2.24902 9.96654C2.25011 9.12044 2.65154 8.32859 3.30371 7.81224L3.30859 7.80834L10.3086 2.35814L10.499 2.2224C11.473 1.58928 12.7504 1.63784 13.6855 2.35521L13.6895 2.35814L20.6895 7.79759H20.6885C21.3644 8.32176 21.749 9.12209 21.749 9.97044V21.9997H20.249V9.97044Z" fill="#1C252E"/>
<path d="M16.25 12.5C16.25 12.0842 15.9158 11.75 15.5 11.75H8.5C8.08421 11.75 7.75 12.0842 7.75 12.5V21.25H16.25V12.5ZM17.75 22C17.75 22.4142 17.4142 22.75 17 22.75H7C6.58579 22.75 6.25 22.4142 6.25 22V12.5C6.25 11.2558 7.25579 10.25 8.5 10.25H15.5C16.7442 10.25 17.75 11.2558 17.75 12.5V22Z" fill="#1C252E"/>
<path d="M9.25 17.75V16.25C9.25 15.8358 9.58579 15.5 10 15.5C10.4142 15.5 10.75 15.8358 10.75 16.25V17.75C10.75 18.1642 10.4142 18.5 10 18.5C9.58579 18.5 9.25 18.1642 9.25 17.75Z" fill="#1C252E"/>
<path d="M13.5 6.75C13.9142 6.75 14.25 7.08579 14.25 7.5C14.25 7.91421 13.9142 8.25 13.5 8.25H10.5C10.0858 8.25 9.75 7.91421 9.75 7.5C9.75 7.08579 10.0858 6.75 10.5 6.75H13.5Z" fill="#1C252E"/>
</svg>
