<svg width="24" height="24" viewBox="0 0 24 24" fill="none" xmlns="http://www.w3.org/2000/svg">
<path d="M15.5992 5.75C17.3991 5.75 18.6029 6.17053 19.3472 7.05469C20.0508 7.89064 20.2025 9.00019 20.314 9.94043L21.2144 17.4404V17.4424C21.3676 18.742 21.2685 20.0925 20.5113 21.1299C19.7276 22.2033 18.3863 22.75 16.4996 22.75H7.50932C5.61856 22.75 4.27381 22.204 3.48979 21.1299C2.7319 20.0916 2.63708 18.7404 2.79545 17.4404L3.69487 9.94141C3.80162 9.00057 3.95049 7.89101 4.65287 7.05469C5.39613 6.16994 6.60057 5.75 8.39994 5.75H15.5992ZM8.39994 7.25C6.79972 7.25 6.13311 7.62455 5.80131 8.01953C5.42975 8.46195 5.2983 9.11613 5.1851 10.1143L5.18412 10.1191L4.28471 17.6191L4.28373 17.6211C4.14238 18.7806 4.2774 19.6638 4.7017 20.2451C5.10012 20.7909 5.89039 21.25 7.50932 21.25H16.4996C18.1126 21.25 18.9015 20.7916 19.3003 20.2451C19.7252 19.6628 19.8616 18.7786 19.7251 17.6191L18.8247 10.1191V10.1182C18.7063 9.11889 18.5731 8.46413 18.1997 8.02051C17.8665 7.62467 17.1992 7.25 15.5992 7.25H8.39994Z" fill="#1C252E"/>
<path d="M15.25 8V4.5C15.25 3.92044 15.0601 3.49569 14.7822 3.21777C14.5043 2.93986 14.0796 2.75 13.5 2.75H10.5C9.92044 2.75 9.49569 2.93986 9.21777 3.21777C8.93986 3.49569 8.75 3.92044 8.75 4.5V8C8.75 8.41421 8.41421 8.75 8 8.75C7.58579 8.75 7.25 8.41421 7.25 8V4.5C7.25 3.57956 7.56014 2.75431 8.15723 2.15723C8.75431 1.56014 9.57956 1.25 10.5 1.25H13.5C14.4204 1.25 15.2457 1.56014 15.8428 2.15723C16.4399 2.75431 16.75 3.57956 16.75 4.5V8C16.75 8.41421 16.4142 8.75 16 8.75C15.5858 8.75 15.25 8.41421 15.25 8Z" fill="#1C252E"/>
<path d="M20.4102 16.28C20.8243 16.2801 21.1602 16.6159 21.1602 17.03C21.1602 17.4442 20.8243 17.7799 20.4102 17.78H8C7.58579 17.78 7.25 17.4442 7.25 17.03C7.25 16.6158 7.58579 16.28 8 16.28H20.4102Z" fill="#1C252E"/>
</svg>
