<svg width="24" height="24" viewBox="0 0 24 24" fill="none" xmlns="http://www.w3.org/2000/svg">
<path d="M10.1092 14.0797C10.4022 13.787 10.8769 13.7869 11.1698 14.0797L12.0145 14.9245L12.829 14.11C13.1219 13.8171 13.5966 13.8171 13.8895 14.11C14.1823 14.4029 14.1824 14.8777 13.8895 15.1706L13.0751 15.985L13.9198 16.8297C14.2125 17.1226 14.2125 17.5974 13.9198 17.8903C13.6269 18.1831 13.1522 18.183 12.8592 17.8903L12.0145 17.0456L11.1395 17.9206C10.8467 18.2133 10.3718 18.2133 10.079 17.9206C9.78613 17.6277 9.78622 17.1529 10.079 16.86L10.954 15.985L10.1092 15.1403C9.81636 14.8474 9.81636 14.3726 10.1092 14.0797Z" fill="#1C252E"/>
<path d="M8.27817 1.47071C8.5706 1.17747 9.04541 1.17645 9.33872 1.46875C9.63191 1.76114 9.63286 2.23598 9.34067 2.5293L5.72055 6.15918C5.42813 6.45242 4.95332 6.45344 4.66001 6.16114C4.36677 5.86871 4.36575 5.3939 4.65805 5.10059L8.27817 1.47071Z" fill="#1C252E"/>
<path d="M14.66 1.46876C14.9533 1.17651 15.4281 1.17749 15.7205 1.47071L19.3406 5.10059C19.6329 5.39391 19.6319 5.86873 19.3387 6.16114C19.0454 6.4535 18.5706 6.45244 18.2781 6.15918L14.658 2.5293C14.3658 2.23599 14.3668 1.76116 14.66 1.46876Z" fill="#1C252E"/>
<path d="M21.25 7.85001C21.25 7.04811 21.0399 6.85089 20.9336 6.77969C20.7466 6.6545 20.4181 6.60002 19.7803 6.60001H4.21973C3.58194 6.60002 3.25338 6.6545 3.06641 6.77969C2.96011 6.85089 2.75 7.04811 2.75 7.85001C2.75 8.85669 2.98703 8.98528 3.02344 9.00626C3.08185 9.03991 3.1902 9.0761 3.40918 9.09219C3.63831 9.10903 3.87703 9.10001 4.21973 9.10001H19.7803C20.123 9.10001 20.3617 9.10903 20.5908 9.09219C20.8098 9.0761 20.9181 9.03991 20.9766 9.00626C21.013 8.98528 21.25 8.85669 21.25 7.85001ZM22.75 7.85001C22.75 8.99332 22.4917 9.86454 21.7256 10.3061C21.3829 10.5035 21.0136 10.5653 20.7012 10.5883C20.3989 10.6105 20.0524 10.6 19.7803 10.6H4.21973C3.94762 10.6 3.6011 10.6105 3.29883 10.5883C2.98644 10.5653 2.61709 10.5035 2.27441 10.3061C1.50832 9.86454 1.25 8.99332 1.25 7.85001C1.25 6.80199 1.53537 5.99992 2.23145 5.5336C2.84687 5.1214 3.62779 5.10001 4.21973 5.10001H19.7803C20.3722 5.10001 21.1531 5.1214 21.7686 5.5336C22.4646 5.99992 22.75 6.80199 22.75 7.85001Z" fill="#1C252E"/>
<path d="M19.7638 9.85839C19.842 9.4518 20.2351 9.18567 20.6417 9.26366C21.0483 9.34184 21.3145 9.73491 21.2365 10.1416L19.5568 18.9014C19.3799 19.8249 19.1486 20.8483 18.4289 21.6025C17.6769 22.3905 16.5388 22.75 14.8898 22.75H8.86049C7.30866 22.75 6.17656 22.3621 5.39858 21.5742C4.64197 20.8078 4.33736 19.776 4.17006 18.7617V18.7607L2.75991 10.1211C2.69321 9.71237 2.9704 9.3266 3.37905 9.25975C3.78776 9.19305 4.17353 9.47024 4.24037 9.87889L5.65053 18.5176L5.71205 18.8525C5.8661 19.6022 6.09587 20.1456 6.46596 20.5205C6.86797 20.9276 7.55232 21.25 8.86049 21.25H14.8898C16.3507 21.25 16.9983 20.9294 17.3439 20.5674C17.7215 20.1717 17.9 19.5753 18.0831 18.6191L19.7638 9.85839Z" fill="#1C252E"/>
</svg>
