<svg width="24" height="24" viewBox="0 0 24 24" fill="none" xmlns="http://www.w3.org/2000/svg">
<path d="M2.25977 15.7102V11.22C2.25977 10.8058 2.59555 10.47 3.00977 10.47C3.42398 10.47 3.75977 10.8058 3.75977 11.22V15.7102C3.7598 17.8804 4.19927 19.2061 5.00098 20.0081C5.80293 20.81 7.12918 21.2502 9.2998 21.2502H14.6895C16.8601 21.2502 18.1863 20.81 18.9883 20.0081C19.7901 19.2061 20.2295 17.8805 20.2295 15.7102V11.22C20.2295 10.8058 20.5654 10.4701 20.9795 10.47C21.3937 10.47 21.7295 10.8058 21.7295 11.22V15.7102C21.7295 18.0293 21.2692 19.8481 20.0488 21.0686C18.8283 22.2891 17.0088 22.7502 14.6895 22.7502H9.2998C6.98043 22.7502 5.16098 22.2891 3.94043 21.0686C2.72019 19.8481 2.2598 18.0292 2.25977 15.7102Z" fill="#1C252E"/>
<path d="M14.341 1.25L14.4817 1.26367C14.8023 1.3248 15.0538 1.59012 15.0871 1.92578L15.7473 8.60645L15.7629 8.81836C15.8642 10.9914 14.204 12.75 12.0002 12.75C9.72552 12.7497 8.03093 10.8757 8.25413 8.60645V8.60547L8.92405 1.9248L8.9514 1.78613C9.04412 1.47342 9.334 1.25 9.67112 1.25H14.341ZM9.74729 8.75488C9.61136 10.1447 10.6159 11.2497 12.0002 11.25C13.3851 11.25 14.3906 10.1443 14.2541 8.75391L13.6604 2.75H10.3498L9.74729 8.75488Z" fill="#1C252E"/>
<path d="M17.3504 1.25C18.7372 1.25 19.8713 1.51172 20.697 2.27441C21.5127 3.02795 21.8854 4.1422 22.073 5.49707C22.0743 5.50601 22.076 5.51543 22.0769 5.52441L22.3562 8.27441L22.3572 8.27539C22.601 10.7253 20.7754 12.75 18.3103 12.75C16.2761 12.7499 14.4641 11.1194 14.2547 9.08691V9.08496L13.5545 2.07422C13.5335 1.86349 13.6028 1.65409 13.7449 1.49707C13.8871 1.33998 14.0887 1.25 14.3006 1.25H17.3504ZM15.7468 8.93359L15.783 9.16797C16.0235 10.3276 17.1238 11.2499 18.3103 11.25C19.8847 11.25 21.0194 9.9952 20.864 8.42578L20.5877 5.70312L20.5164 5.26172C20.3363 4.29125 20.0549 3.72287 19.6795 3.37598C19.2602 2.98867 18.5835 2.75 17.3504 2.75H15.1287L15.7468 8.93359Z" fill="#1C252E"/>
<path d="M9.64098 1.25C9.85278 1.25007 10.0545 1.34002 10.1966 1.49707C10.3387 1.65407 10.408 1.86355 10.3871 2.07422L9.68688 9.08398C9.48854 11.1203 7.67373 12.7499 5.64098 12.75C3.1759 12.75 1.35033 10.7253 1.5941 8.27539L1.86461 5.52637C1.86558 5.51661 1.8662 5.50678 1.86754 5.49707C2.05516 4.14208 2.42874 3.02797 3.24449 2.27441C4.07019 1.51172 5.20435 1.25 6.59117 1.25H9.64098ZM6.59117 2.75C5.358 2.75 4.68137 2.98867 4.26207 3.37598C3.83292 3.77242 3.52624 4.45822 3.35387 5.70312L3.08727 8.42285C2.93104 9.99297 4.06606 11.25 5.64098 11.25C6.90749 11.2499 8.07224 10.2003 8.19469 8.9375V8.93555L8.81285 2.75H6.59117Z" fill="#1C252E"/>
<path d="M13.75 19.5C13.75 18.7795 13.5711 18.3797 13.3457 18.1543C13.1203 17.9289 12.7205 17.75 12 17.75C11.2795 17.75 10.8797 17.9289 10.6543 18.1543C10.4289 18.3797 10.25 18.7795 10.25 19.5V21.25H13.75V19.5ZM15.25 22C15.25 22.4142 14.9142 22.75 14.5 22.75H9.5C9.08579 22.75 8.75 22.4142 8.75 22V19.5C8.75 18.5505 8.98667 17.7008 9.59375 17.0938C10.2008 16.4867 11.0505 16.25 12 16.25C12.9495 16.25 13.7992 16.4867 14.4062 17.0938C15.0133 17.7008 15.25 18.5505 15.25 19.5V22Z" fill="#1C252E"/>
</svg>
