<svg width="24" height="24" viewBox="0 0 24 24" fill="none" xmlns="http://www.w3.org/2000/svg">
<path d="M15.25 15C15.25 13.2051 13.7949 11.75 12 11.75C10.2051 11.75 8.75 13.2051 8.75 15C8.75 16.7949 10.2051 18.25 12 18.25C13.7949 18.25 15.25 16.7949 15.25 15ZM16.75 15C16.75 17.6234 14.6234 19.75 12 19.75C9.37665 19.75 7.25 17.6234 7.25 15C7.25 12.3766 9.37665 10.25 12 10.25C14.6234 10.25 16.75 12.3766 16.75 15Z" fill="#1C252E"/>
<path d="M11.5001 14.6797V13.75C11.5001 13.3358 11.8359 13 12.2501 13C12.6643 13 13.0001 13.3358 13.0001 13.75V14.6797C13.0001 15.2816 12.691 15.8595 12.1476 16.1807L11.3888 16.6416C11.0345 16.856 10.5731 16.7428 10.3585 16.3887C10.1441 16.0344 10.2573 15.5729 10.6114 15.3584L11.3722 14.8984L11.3839 14.8916C11.4532 14.8513 11.5001 14.7734 11.5001 14.6797Z" fill="#1C252E"/>
<path d="M16.0007 7.25C18.2236 7.25003 19.7413 7.7648 20.6267 8.81738C21.5049 9.86155 21.5875 11.2339 21.446 12.5127L21.445 12.5234L20.695 18.5234L20.694 18.5225C20.5831 19.5471 20.324 20.6687 19.4099 21.5039C18.4987 22.3361 17.0873 22.75 15.0007 22.75H9.00069C6.91384 22.75 5.50168 22.3363 4.59053 21.5039C3.67268 20.6653 3.41455 19.5378 3.3044 18.5098V18.5088L2.55635 12.5234L2.55538 12.5127C2.41388 11.234 2.49566 9.86152 3.37374 8.81738C4.25915 7.76473 5.77765 7.25 8.00069 7.25H16.0007ZM8.00069 8.75C5.95373 8.75 4.98676 9.23086 4.52217 9.7832C4.05199 10.3423 3.91813 11.1813 4.04463 12.3369L4.79463 18.3369L4.79659 18.3496V18.3506C4.89645 19.2822 5.10285 19.9402 5.60225 20.3965C6.10861 20.8591 7.06754 21.25 9.00069 21.25H15.0007C16.9334 21.25 17.8917 20.859 18.3981 20.3965C18.8976 19.9402 19.1049 19.2823 19.2048 18.3506L19.2058 18.3369H19.2067L19.9548 12.3477L19.9909 11.9268C20.0451 10.9802 19.8917 10.2739 19.4792 9.7832C19.0146 9.23087 18.0475 8.75003 16.0007 8.75H8.00069Z" fill="#1C252E"/>
<path d="M15.75 7.89012V6.51024C15.75 4.317 13.8658 2.56042 11.6328 2.77684H11.6299C9.80852 2.94683 8.25016 4.79224 8.25 6.69969V7.6704C8.24978 8.08442 7.91408 8.4204 7.5 8.4204C7.08592 8.4204 6.75022 8.08442 6.75 7.6704V6.69969C6.75016 4.10835 8.81037 1.53634 11.4873 1.28465V1.28368C14.6142 0.980321 17.25 3.44359 17.25 6.51024V7.89012C17.2499 8.30428 16.9142 8.64012 16.5 8.64012C16.0858 8.64012 15.7501 8.30428 15.75 7.89012Z" fill="#1C252E"/>
</svg>
