<svg width="24" height="24" viewBox="0 0 24 24" fill="none" xmlns="http://www.w3.org/2000/svg">
<path d="M20.2605 15.7102V11.22C20.2605 10.8058 20.5963 10.47 21.0105 10.47C21.4246 10.4701 21.7605 10.8058 21.7605 11.22V15.7102C21.7605 18.0284 21.3029 19.8478 20.0838 21.0686C18.8643 22.2896 17.0443 22.7502 14.7205 22.7502H9.32988C8.7253 22.7502 8.15807 22.7191 7.62383 22.6428C7.21401 22.5841 6.92963 22.2041 6.98808 21.7942C7.04666 21.3841 7.42667 21.0989 7.83672 21.1575C8.28214 21.2211 8.77494 21.2502 9.32988 21.2502H14.7205C16.8964 21.2502 18.2218 20.8104 19.0223 20.009C19.8229 19.2074 20.2605 17.8816 20.2605 15.7102Z" fill="#1C252E"/>
<path d="M2.28906 15.5198V11.22C2.28906 10.8058 2.62485 10.47 3.03906 10.47C3.45328 10.47 3.78906 10.8058 3.78906 11.22V15.5198C3.78906 15.934 3.45328 16.2698 3.03906 16.2698C2.62485 16.2698 2.28906 15.934 2.28906 15.5198Z" fill="#1C252E"/>
<path d="M14.3605 1.25L14.5011 1.26367C14.8213 1.32478 15.0728 1.58959 15.1066 1.9248L15.7765 8.60547V8.60645C15.9997 10.8757 14.3052 12.7498 12.0304 12.75C9.75888 12.75 8.05002 10.8792 8.27358 8.60645V8.60547L8.9435 1.9248L8.97084 1.78613C9.06354 1.47357 9.35267 1.25019 9.68959 1.25H14.3605ZM9.76674 8.75488C9.63109 10.1414 10.6424 11.25 12.0304 11.25C13.4148 11.2498 14.4193 10.1447 14.2833 8.75488L13.6808 2.75H10.3693L9.76674 8.75488Z" fill="#1C252E"/>
<path d="M17.3699 1.25C18.7567 1.25 19.8909 1.51173 20.7166 2.27441C21.5322 3.02795 21.9049 4.1422 22.0925 5.49707C22.0938 5.50601 22.0955 5.51543 22.0965 5.52441L22.3758 8.27441L22.3767 8.27539C22.6205 10.7253 20.7949 12.75 18.3299 12.75C16.2921 12.7499 14.4953 11.1167 14.2742 9.0918V9.08496L13.574 2.07422C13.553 1.86349 13.6223 1.65409 13.7644 1.49707C13.9066 1.33998 14.1082 1.25 14.3201 1.25H17.3699ZM15.7654 8.92871L15.8035 9.16504C16.0506 10.3302 17.1469 11.2499 18.3299 11.25C19.9043 11.25 21.0389 9.9952 20.8836 8.42578L20.6072 5.70312L20.5359 5.26172C20.3558 4.29125 20.0744 3.72286 19.699 3.37598C19.2797 2.98868 18.6031 2.75 17.3699 2.75H15.1482L15.7654 8.92871Z" fill="#1C252E"/>
<path d="M9.67019 1.25C9.88204 1.25004 10.0837 1.33999 10.2259 1.49707C10.3679 1.65408 10.4372 1.86352 10.4163 2.07422L9.71609 9.08398C9.51775 11.1203 7.70299 12.7499 5.67019 12.75C3.2082 12.75 1.36948 10.7283 1.61355 8.27539L1.89383 5.52441L1.89675 5.49707C2.08436 4.14212 2.45801 3.02797 3.27371 2.27441C4.0994 1.51173 5.23356 1.25 6.62039 1.25H9.67019ZM6.62039 2.75C5.38721 2.75 4.71058 2.98868 4.29129 3.37598C3.86218 3.77242 3.55544 4.4583 3.38308 5.70312L3.10574 8.42285L3.10672 8.42383C2.95079 9.99087 4.09218 11.25 5.67019 11.25C6.93676 11.2499 8.10145 10.2003 8.2239 8.9375V8.93555L8.84207 2.75H6.62039Z" fill="#1C252E"/>
<path d="M8.25 19C8.25 18.1507 7.91922 17.3787 7.37695 16.7871L7.375 16.7842C7.28889 16.6895 7.21546 16.6192 7.15039 16.5703C7.13573 16.5593 7.12124 16.5472 7.10742 16.5352C6.54015 16.0408 5.81382 15.75 5 15.75C4.4253 15.75 3.88263 15.9037 3.41113 16.1719C3.40411 16.1759 3.3968 16.1798 3.38965 16.1836C3.24607 16.2592 3.10809 16.3507 2.97656 16.459L2.96582 16.4678C2.22084 17.0591 1.75 17.9747 1.75 19C1.75 19.5332 1.88009 20.0396 2.1123 20.4814L2.21875 20.666L2.2334 20.6924C2.26366 20.7462 2.29861 20.8006 2.33789 20.8555L2.46973 21.0215L2.47656 21.0312C2.48502 21.0399 2.49744 21.0518 2.50977 21.0654C2.51994 21.0767 2.52998 21.0923 2.54297 21.1084H2.54492C3.12753 21.8043 4.00983 22.25 5 22.25C5.82263 22.25 6.56415 21.9497 7.12793 21.4424C7.13647 21.4347 7.14541 21.4272 7.1543 21.4199C7.18146 21.3874 7.21086 21.3566 7.24316 21.3291C7.43776 21.1633 7.61819 20.9415 7.77539 20.6768L7.78125 20.666C8.07907 20.183 8.25 19.6093 8.25 19ZM9.75 19C9.75 19.8906 9.50073 20.7371 9.05859 21.4541L9.05762 21.4531C8.8447 21.8097 8.57946 22.15 8.25586 22.4346C8.21674 22.4781 8.1753 22.5178 8.12988 22.5557L8.13184 22.5576C7.29563 23.3102 6.1973 23.75 5 23.75C3.55017 23.75 2.25192 23.0954 1.39453 22.0713C1.39274 22.0691 1.39142 22.0666 1.38965 22.0645C1.38159 22.0562 1.37089 22.0458 1.36035 22.0342C1.35131 22.0242 1.34239 22.0109 1.33105 21.9971V21.998C1.19292 21.8369 1.0585 21.6549 0.942383 21.4531C0.500284 20.7362 0.25 19.8906 0.25 19C0.25 17.5102 0.934652 16.1697 2.02344 15.3008L2.18262 15.1768C2.33741 15.0618 2.49976 14.9596 2.66895 14.8691V14.8682C2.67143 14.8667 2.67427 14.8657 2.67676 14.8643C2.68139 14.8618 2.68579 14.8589 2.69043 14.8564V14.8574C3.37413 14.4729 4.16327 14.25 5 14.25C6.18613 14.25 7.26005 14.6787 8.09277 15.4043C8.24848 15.5269 8.38129 15.6609 8.48535 15.7754H8.48438C9.26104 16.6236 9.75 17.7503 9.75 19Z" fill="#1C252E"/>
<path d="M6.48975 18.98H3.50977" stroke="#1C252E" stroke-width="1.5" stroke-miterlimit="10" stroke-linecap="round" stroke-linejoin="round"/>
</svg>
