<svg width="24" height="24" viewBox="0 0 24 24" fill="none" xmlns="http://www.w3.org/2000/svg">
<path d="M21.25 8.5C21.25 6.89295 20.7942 5.86869 20.1143 5.2373C19.4242 4.59664 18.385 4.25 17 4.25H7C5.61505 4.25 4.57576 4.59664 3.88574 5.2373C3.20579 5.86869 2.75 6.89295 2.75 8.5V15.5C2.75 17.107 3.20579 18.1313 3.88574 18.7627C4.57576 19.4034 5.61505 19.75 7 19.75H17C18.385 19.75 19.4242 19.4034 20.1143 18.7627C20.7942 18.1313 21.25 17.107 21.25 15.5V8.5ZM22.75 15.5C22.75 17.3929 22.2057 18.8687 21.1357 19.8623C20.0758 20.8466 18.615 21.25 17 21.25H7C5.38503 21.25 3.92424 20.8466 2.86426 19.8623C1.79429 18.8687 1.25 17.3929 1.25 15.5V8.5C1.25 6.60712 1.79429 5.13131 2.86426 4.1377C3.92424 3.15342 5.38503 2.75 7 2.75H17C18.615 2.75 20.0758 3.15342 21.1357 4.1377C22.2057 5.13131 22.75 6.60712 22.75 8.5V15.5Z" fill="#1C252E"/>
<path d="M5.25 16V8C5.25 7.58579 5.58579 7.25 6 7.25C6.41421 7.25 6.75 7.58579 6.75 8V16C6.75 16.4142 6.41421 16.75 6 16.75C5.58579 16.75 5.25 16.4142 5.25 16Z" fill="#1C252E"/>
<path d="M8.25 12V8C8.25 7.58579 8.58579 7.25 9 7.25C9.41421 7.25 9.75 7.58579 9.75 8V12C9.75 12.4142 9.41421 12.75 9 12.75C8.58579 12.75 8.25 12.4142 8.25 12Z" fill="#1C252E"/>
<path d="M8.25 16V15C8.25 14.5858 8.58579 14.25 9 14.25C9.41421 14.25 9.75 14.5858 9.75 15V16C9.75 16.4142 9.41421 16.75 9 16.75C8.58579 16.75 8.25 16.4142 8.25 16Z" fill="#1C252E"/>
<path d="M14.25 9V8C14.25 7.58579 14.5858 7.25 15 7.25C15.4142 7.25 15.75 7.58579 15.75 8V9C15.75 9.41421 15.4142 9.75 15 9.75C14.5858 9.75 14.25 9.41421 14.25 9Z" fill="#1C252E"/>
<path d="M11.25 16V8C11.25 7.58579 11.5858 7.25 12 7.25C12.4142 7.25 12.75 7.58579 12.75 8V16C12.75 16.4142 12.4142 16.75 12 16.75C11.5858 16.75 11.25 16.4142 11.25 16Z" fill="#1C252E"/>
<path d="M14.25 16V12C14.25 11.5858 14.5858 11.25 15 11.25C15.4142 11.25 15.75 11.5858 15.75 12V16C15.75 16.4142 15.4142 16.75 15 16.75C14.5858 16.75 14.25 16.4142 14.25 16Z" fill="#1C252E"/>
<path d="M17.25 16V8C17.25 7.58579 17.5858 7.25 18 7.25C18.4142 7.25 18.75 7.58579 18.75 8V16C18.75 16.4142 18.4142 16.75 18 16.75C17.5858 16.75 17.25 16.4142 17.25 16Z" fill="#1C252E"/>
</svg>
