<svg width="24" height="24" viewBox="0 0 24 24" fill="none" xmlns="http://www.w3.org/2000/svg">
<path d="M15.75 7.89012V6.51024C15.75 4.317 13.8658 2.56042 11.6328 2.77684H11.6299C9.80852 2.94683 8.25016 4.79224 8.25 6.69969V7.6704C8.24978 8.08442 7.91408 8.4204 7.5 8.4204C7.08592 8.4204 6.75022 8.08442 6.75 7.6704V6.69969C6.75016 4.10835 8.81037 1.53634 11.4873 1.28465V1.28368C14.6142 0.980321 17.25 3.44359 17.25 6.51024V7.89012C17.2499 8.30428 16.9142 8.64012 16.5 8.64012C16.0858 8.64012 15.7501 8.30428 15.75 7.89012Z" fill="#1C252E"/>
<path d="M16.0007 7.25C18.2236 7.25003 19.7413 7.7648 20.6267 8.81738C21.5049 9.86155 21.5875 11.2339 21.446 12.5127L21.445 12.5234L20.695 18.5234L20.694 18.5225C20.5831 19.5471 20.324 20.6687 19.4099 21.5039C18.4987 22.3361 17.0873 22.75 15.0007 22.75H9.00069C6.91384 22.75 5.50168 22.3363 4.59053 21.5039C3.67268 20.6653 3.41455 19.5378 3.3044 18.5098V18.5088L2.55635 12.5234L2.55538 12.5127C2.41388 11.234 2.49566 9.86152 3.37374 8.81738C4.25915 7.76473 5.77765 7.25 8.00069 7.25H16.0007ZM8.00069 8.75C5.95373 8.75 4.98676 9.23086 4.52217 9.7832C4.05199 10.3423 3.91813 11.1813 4.04463 12.3369L4.79463 18.3369L4.79659 18.3496V18.3506C4.89645 19.2822 5.10285 19.9402 5.60225 20.3965C6.10861 20.8591 7.06754 21.25 9.00069 21.25H15.0007C16.9334 21.25 17.8917 20.859 18.3981 20.3965C18.8976 19.9402 19.1049 19.2823 19.2048 18.3506L19.2058 18.3369H19.2067L19.9548 12.3477L19.9909 11.9268C20.0451 10.9802 19.8917 10.2739 19.4792 9.7832C19.0146 9.23087 18.0475 8.75003 16.0007 8.75H8.00069Z" fill="#1C252E"/>
<path d="M15.5059 11C16.058 11.0002 16.5059 11.4479 16.5059 12C16.5059 12.5521 16.058 12.9998 15.5059 13H15.4961C14.944 12.9998 14.4961 12.5522 14.4961 12C14.4961 11.4478 14.944 11.0002 15.4961 11H15.5059Z" fill="#1C252E"/>
<path d="M8.50391 11C9.056 11.0002 9.50391 11.4479 9.50391 12C9.50391 12.5521 9.056 12.9998 8.50391 13H8.49414C7.94202 12.9998 7.49414 12.5522 7.49414 12C7.49414 11.4478 7.94202 11.0002 8.49414 11H8.50391Z" fill="#1C252E"/>
</svg>
